g Adobe_Stairs_Mid
v -0.21881479 -0.166666687 -0.49999997
v -0.467457622 -0.203651488 -0.0376090929
v -0.467448801 -0.166666687 -0.499999732
v -0.218814701 -0.166666672 0.5
v -0.467466444 -0.166666806 0.50000006
v 0.114518546 0.166666627 -0.5
v -0.13405785 0.139039114 0.0203964002
v -0.134057954 0.166666627 -0.5
v 0.114518613 0.166666642 0.5
v -0.13405773 0.166666582 0.5
v 0.50000006 -0.499999881 0.49999997
v 0.49999997 -0.499999881 -0.50000006
v -0.500000119 -0.499999821 -0.5
v -0.49999997 -0.5 0.50000006
v 0.50000006 -0.499999881 0.49999997
v 0.50000006 0.5 0.49999997
v 0.49999997 0.5 -0.49999997
v 0.49999997 -0.499999881 -0.50000006
v 0.166666627 0.423227847 1.0662631E-07
v 0.166666582 0.467519879 -0.499999791
v 0.199203208 0.49999997 -0.5
v 0.199203372 0.455707997 -1.50394364E-08
v 0.166666672 0.467519701 0.5
v 0.199203536 0.49999994 0.49999997
v 0.166666627 0.423227847 1.0662631E-07
v 0.166666597 0.218814686 -0.5
v 0.166666582 0.467519879 -0.499999791
v 0.166666672 0.218814701 0.5
v 0.166666672 0.467519701 0.5
v -0.166666731 -0.114518628 -0.5
v -0.166666642 -0.114518613 0.5
v -0.218814701 -0.166666672 0.5
v -0.21881479 -0.166666687 -0.49999997
v -0.166666642 -0.114518613 0.5
v -0.166666716 0.107129827 0.020396404
v -0.166666672 0.13475728 0.5
v -0.166666731 -0.114518628 -0.5
v -0.166666761 0.134757355 -0.5
v -0.49999997 -0.5 0.50000006
v -0.5 -0.236160994 -0.0376092084
v -0.49999997 -0.199176237 0.50000006
v -0.500000119 -0.499999821 -0.5
v -0.50000006 -0.199176267 -0.49999997
v -0.467457622 -0.203651488 -0.0376090929
v -0.467466444 -0.166666806 0.50000006
v -0.49999997 -0.199176237 0.50000006
v -0.5 -0.236160994 -0.0376092084
v -0.467448801 -0.166666687 -0.499999732
v -0.50000006 -0.199176267 -0.49999997
v -0.13405785 0.139039114 0.0203964002
v -0.13405773 0.166666582 0.5
v -0.166666672 0.13475728 0.5
v -0.166666716 0.107129827 0.020396404
v -0.134057954 0.166666627 -0.5
v -0.166666761 0.134757355 -0.5
v 0.49999997 0.5 -0.49999997
v 0.199203372 0.455707997 -1.50394364E-08
v 0.199203208 0.49999997 -0.5
v 0.50000006 0.5 0.49999997
v 0.199203536 0.49999994 0.49999997
v 0.50000006 0.5 0.49999997
v 0.166666672 0.467519701 0.5
v 0.199203536 0.49999994 0.49999997
v 0.166666672 0.218814701 0.5
v 0.50000006 -0.499999881 0.49999997
v 0.114518613 0.166666642 0.5
v -0.166666642 -0.114518613 0.5
v -0.166666672 0.13475728 0.5
v -0.13405773 0.166666582 0.5
v -0.218814701 -0.166666672 0.5
v -0.49999997 -0.5 0.50000006
v -0.49999997 -0.199176237 0.50000006
v -0.467466444 -0.166666806 0.50000006
v 0.166666582 0.467519879 -0.499999791
v 0.49999997 0.5 -0.49999997
v 0.199203208 0.49999997 -0.5
v 0.166666597 0.218814686 -0.5
v 0.114518546 0.166666627 -0.5
v 0.49999997 -0.499999881 -0.50000006
v -0.166666731 -0.114518628 -0.5
v -0.166666761 0.134757355 -0.5
v -0.134057954 0.166666627 -0.5
v -0.21881479 -0.166666687 -0.49999997
v -0.500000119 -0.499999821 -0.5
v -0.467448801 -0.166666687 -0.499999732
v -0.50000006 -0.199176267 -0.49999997
v 0.166666597 0.218814686 -0.5
v 0.166666672 0.218814701 0.5
v 0.114518613 0.166666642 0.5
v 0.114518546 0.166666627 -0.5
vt 0.96278733 0.0942848548
vt 0.984814644 0.0721100196
vt 0.984809995 0.0942848027
vt 0.962795019 0.0499240831
vt 0.984819233 0.0499352403
vt 0.940710127 0.0943428576
vt 0.962730408 0.0721038878
vt 0.962727547 0.0942555591
vt 0.940711021 0.0499530844
vt 0.962733328 0.0499522164
vt 0.840935111 0.0684765726
vt 0.870934963 0.0684765726
vt 0.870934963 0.0875600725
vt 0.840935111 0.0875600725
vt 0.890018463 0.0406121388
vt 0.870934963 0.0406121388
vt 0.870934963 0.0106122643
vt 0.890018463 0.0106122643
vt 0.567634463 0.0998403728
vt 0.338775694 0.0998403952
vt 0.338775694 0.000688694417
vt 0.567634463 0.000688683242
vt 0.796493292 0.0998403504
vt 0.796493292 0.000688672066
vt 0.844956756 0.0715288296
vt 0.865814686 0.0924674422
vt 0.844956756 0.0925248414
vt 0.865800977 0.0505328476
vt 0.844956756 0.0505328178
vt 0.796477556 0.0995180607
vt 0.339526325 0.0995181352
vt 0.339526325 0.00218024105
vt 0.796477556 0.00218012184
vt 0.888033152 0.0504839122
vt 0.867168188 0.071567364
vt 0.867168188 0.0505585074
vt 0.888073444 0.0924170762
vt 0.867168188 0.0925762206
vt 0.844943523 0.0504906923
vt 0.819728017 0.0715394244
vt 0.819728017 0.050539881
vt 0.844956756 0.0924238712
vt 0.819728017 0.0925389677
vt 0.568078458 0.0261852648
vt 0.79707247 0.0261852648
vt 0.79707247 0.0994099975
vt 0.568078458 0.0994099975
vt 0.339084446 0.0261852648
vt 0.339084446 0.0994099975
vt 0.568327785 0.00232059322
vt 0.796493292 0.00232059322
vt 0.796493292 0.0993140787
vt 0.568327785 0.0993140787
vt 0.340162247 0.00232059322
vt 0.340162247 0.0993140787
vt 0.940591872 0.00566310342
vt 0.913948596 0.0277690999
vt 0.913949072 0.00556331407
vt 0.940591872 0.0499504581
vt 0.913948119 0.0499748848
vt 0.803922653 0.0960021764
vt 0.806891382 0.0655357316
vt 0.803922653 0.0685095713
vt 0.829622805 0.0655357316
vt 0.895321965 0.0960021764
vt 0.834389031 0.0607694276
vt 0.860089183 0.0350693017
vt 0.837305546 0.0350693017
vt 0.834389031 0.0380497314
vt 0.864855468 0.0303030089
vt 0.895321965 0.00460285274
vt 0.867826819 0.00460285274
vt 0.864855587 0.00757640926
vt 0.889214814 0.0657493547
vt 0.891897023 0.0932760164
vt 0.891897023 0.0684362203
vt 0.868676782 0.0657493547
vt 0.864370406 0.0614429787
vt 0.809317172 0.0932760164
vt 0.841150165 0.0382227302
vt 0.861735344 0.0382227302
vt 0.864370406 0.0409155637
vt 0.836843789 0.0339163765
vt 0.809317172 0.0106961075
vt 0.836843789 0.0133841876
vt 0.834159136 0.0106961261
vt 0.796477556 0.0995180607
vt 0.339526325 0.0995181352
vt 0.339526325 0.0021802485
vt 0.796477556 0.00218012929
vn -0.404112458 0.914238095 0.0293566324
vn -0.436116248 0.899882376 0.00379499537
vn -0.37469393 0.924197078 0.0739192143
vn -0.401519597 0.915461183 -0.0266995281
vn -0.375938773 0.924459279 -0.0636009946
vn -0.397184193 0.917511463 0.0204306878
vn -0.418053597 0.90842104 -0.0015373436
vn -0.372831404 0.926594138 0.0491923578
vn -0.398237199 0.917030215 -0.0215145815
vn -0.372385979 0.926541984 -0.0533731915
vn -0 -1 0
vn -0 -1 0
vn -0 -1 0
vn -0 -1 0
vn 1 0 0
vn 1 0 0
vn 1 0 0
vn 1 0 0
vn -0.931239784 0.364406943 0
vn -0.915427029 0.400914013 0.03551469
vn -0.373638749 0.923956156 0.0818478018
vn -0.433400661 0.901201308 0
vn -0.915427208 0.400913507 -0.0355143435
vn -0.373639405 0.923955917 -0.0818475261
vn -0.931239784 0.364406943 0
vn -0.923879504 0.382683367 0
vn -0.915427029 0.400914013 0.03551469
vn -0.923879504 0.382683337 0
vn -0.915427208 0.400913507 -0.0355143435
vn -0.923879504 0.382683277 0
vn -0.923879504 0.382683277 0
vn -0.401519597 0.915461183 -0.0266995281
vn -0.404112458 0.914238095 0.0293566324
vn -0.923879504 0.382683277 0
vn -0.926630795 0.375971675 -0.000826057687
vn -0.916437387 0.399515748 -0.023013873
vn -0.923879504 0.382683277 0
vn -0.916877329 0.398607761 0.0211619604
vn -1 0 0
vn -0.930115879 0.367261022 0.00197742693
vn -0.91748023 0.396843165 -0.0273038056
vn -1 0 0
vn -0.91635114 0.399101168 0.031918738
vn -0.436116248 0.899882376 0.00379499537
vn -0.375938773 0.924459279 -0.0636009946
vn -0.91748023 0.396843165 -0.0273038056
vn -0.930115879 0.367261022 0.00197742693
vn -0.37469393 0.924197078 0.0739192143
vn -0.91635114 0.399101168 0.031918738
vn -0.418053597 0.90842104 -0.0015373436
vn -0.372385979 0.926541984 -0.0533731915
vn -0.916437387 0.399515748 -0.023013873
vn -0.926630795 0.375971675 -0.000826057687
vn -0.372831404 0.926594138 0.0491923578
vn -0.916877329 0.398607761 0.0211619604
vn -0.0506273061 0.997039855 0.0578647777
vn -0.433400661 0.901201308 0
vn -0.373638749 0.923956156 0.0818478018
vn -0.0506274365 0.997039855 -0.0578647256
vn -0.373639405 0.923955917 -0.0818475261
vn -0 0 1
vn -0 0 1
vn -0 0 1
vn -0 0 1
vn -0 0 1
vn -0 0 1
vn -0 0 1
vn -0 0 1
vn -0 0 1
vn -0 0 1
vn -0 0 1
vn -0 0 1
vn -0 0 1
vn -0 0 -1
vn -0 0 -1
vn -0 0 -1
vn -0 0 -1
vn -0 0 -1
vn -0 0 -1
vn -0 0 -1
vn -0 0 -1
vn -0 0 -1
vn -0 0 -1
vn -0 0 -1
vn -0 0 -1
vn -0 0 -1
vn -0.923879504 0.382683367 0
vn -0.923879504 0.382683337 0
vn -0.398237199 0.917030215 -0.0215145815
vn -0.397184193 0.917511463 0.0204306878
g Adobe_Stairs_Mid_0
f 3/3/3 2/2/2 1/1/1
f 1/1/1 2/2/2 4/4/4
f 4/4/4 2/2/2 5/5/5
f 8/8/8 7/7/7 6/6/6
f 6/6/6 7/7/7 9/9/9
f 9/9/9 7/7/7 10/10/10
f 13/13/13 12/12/12 11/11/11
f 14/14/14 13/13/13 11/11/11
f 17/17/17 16/16/16 15/15/15
f 18/18/18 17/17/17 15/15/15
f 21/21/21 20/20/20 19/19/19
f 22/22/22 21/21/21 19/19/19
f 22/22/22 19/19/19 23/23/23
f 24/24/24 22/22/22 23/23/23
f 27/27/27 26/26/26 25/25/25
f 26/26/26 28/28/28 25/25/25
f 25/25/25 28/28/28 29/29/29
f 32/32/32 31/31/31 30/30/30
f 33/33/33 32/32/32 30/30/30
f 36/36/36 35/35/35 34/34/34
f 34/34/34 35/35/35 37/37/37
f 37/37/37 35/35/35 38/38/38
f 41/41/41 40/40/40 39/39/39
f 39/39/39 40/40/40 42/42/42
f 42/42/42 40/40/40 43/43/43
f 46/46/46 45/45/45 44/44/44
f 47/47/47 46/46/46 44/44/44
f 47/47/47 44/44/44 48/48/48
f 49/49/49 47/47/47 48/48/48
f 52/52/52 51/51/51 50/50/50
f 53/53/53 52/52/52 50/50/50
f 53/53/53 50/50/50 54/54/54
f 55/55/55 53/53/53 54/54/54
f 58/58/58 57/57/57 56/56/56
f 56/56/56 57/57/57 59/59/59
f 59/59/59 57/57/57 60/60/60
f 63/63/63 62/62/62 61/61/61
f 62/62/62 64/64/64 61/61/61
f 61/61/61 64/64/64 65/65/65
f 64/64/64 66/66/66 65/65/65
f 65/65/65 66/66/66 67/67/67
f 68/68/68 67/67/67 66/66/66
f 69/69/69 68/68/68 66/66/66
f 65/65/65 67/67/67 70/70/70
f 71/71/71 65/65/65 70/70/70
f 71/71/71 70/70/70 72/72/72
f 70/70/70 73/73/73 72/72/72
f 76/76/76 75/75/75 74/74/74
f 75/75/75 77/77/77 74/74/74
f 78/78/78 77/77/77 75/75/75
f 79/79/79 78/78/78 75/75/75
f 80/80/80 78/78/78 79/79/79
f 78/78/78 80/80/80 81/81/81
f 82/82/82 78/78/78 81/81/81
f 80/80/80 79/79/79 83/83/83
f 79/79/79 84/84/84 83/83/83
f 83/83/83 84/84/84 85/85/85
f 84/84/84 86/86/86 85/85/85
f 89/89/89 88/88/88 87/87/87
f 90/90/90 89/89/89 87/87/87
