g Adobe_Stairs_End_Left
v 0.50000006 0.5 0.49999997
v 0.49999997 0.5 -0.400000125
v 0.50000006 -0.499999881 0.49999997
v 0.146413773 0.468212634 -0.299999654
v 0.199191257 0.49999997 -0.33178708
v 0.166666329 0.465640217 -0.280612558
v -0.468165606 -0.169234648 -0.281082898
v -0.467448801 -0.166666642 0.50000006
v -0.49999997 -0.199176237 0.50000006
v -0.5 -0.20153138 -0.312674224
v -0.166666701 -0.114518628 -0.281128049
v -0.166666642 -0.114518613 0.5
v -0.218814701 -0.166666672 0.5
v -0.218814671 -0.166666716 -0.281016588
v 0.50000006 -0.499999881 0.49999997
v 0.49999997 -0.5 -0.50000006
v -0.50000006 -0.5 -0.400000066
v -0.49999997 -0.5 0.50000006
v 0.146413773 0.468212634 -0.299999654
v 0.146480292 0.218814701 -0.299999714
v 0.114518419 0.18160294 -0.299999714
v -0.408324599 0.468212634 -0.299999624
v -0.147643268 0.181602955 -0.299999714
v -0.179902479 0.149480179 -0.299999714
v -0.450671852 0.450671822 -0.299999624
v -0.468212664 0.382459253 -0.299999624
v -0.179171756 -0.0939090848 -0.299999714
v -0.232852697 -0.146482348 -0.299999684
v -0.468212664 -0.146416336 -0.299999624
v -0.5 0.382459104 -0.33178699
v -0.5 -0.17882511 -0.33178699
v 0.114518613 0.166666642 0.5
v -0.13405773 0.166666582 0.5
v -0.134061456 0.1649919 -0.281125247
v 0.11451856 0.166666627 -0.281004727
v -0.50000006 -0.5 -0.400000066
v -0.50000006 0.382459104 -0.400000066
v -0.5 0.382459104 -0.33178699
v -0.5 -0.17882511 -0.33178699
v 0.166666672 0.467519701 0.5
v 0.166666329 0.465640217 -0.280612558
v 0.199191257 0.49999997 -0.33178708
v 0.199191138 0.49999994 0.49999997
v 0.49999997 0.5 -0.400000125
v 0.49999997 0.46999979 -0.46999982
v 0.50000006 -0.499999881 0.49999997
v 0.49999997 0.399999887 -0.50000006
v 0.49999997 -0.5 -0.50000006
v 0.49999997 -0.5 -0.50000006
v -0.468212664 -0.5 -0.49999997
v -0.484106332 -0.5 -0.46999976
v -0.50000006 -0.5 -0.400000066
v 0.49999997 0.5 -0.400000125
v 0.50000006 0.5 0.49999997
v 0.199191138 0.49999994 0.49999997
v 0.199191257 0.49999997 -0.33178708
v -0.46999979 0.46999976 -0.400000066
v -0.5 0.382459104 -0.33178699
v -0.50000006 0.382459104 -0.400000066
v -0.46999979 0.46999976 -0.33178699
v -0.414647549 0.5 -0.400000066
v -0.450671852 0.450671822 -0.299999624
v -0.468212664 0.382459253 -0.299999624
v -0.408324599 0.468212634 -0.299999624
v -0.414647549 0.5 -0.33178699
v 0.146413773 0.468212634 -0.299999654
v 0.199191257 0.49999997 -0.33178708
v 0.49999997 0.5 -0.400000125
v 0.49999997 -0.5 -0.50000006
v 0.49999997 0.399999887 -0.50000006
v -0.408324599 0.399999887 -0.49999997
v -0.435844004 0.382459074 -0.49999997
v -0.468212664 -0.5 -0.49999997
v -0.453384817 0.340111822 -0.49999997
v -0.484106332 0.382459283 -0.46999976
v -0.484106332 -0.5 -0.46999976
v -0.50000006 0.382459104 -0.400000066
v -0.50000006 -0.5 -0.400000066
v -0.5 -0.20153138 -0.312674224
v -0.49999997 -0.199176237 0.50000006
v -0.49999997 -0.5 0.50000006
v -0.50000006 -0.5 -0.400000066
v -0.5 -0.17882511 -0.33178699
v -0.484106332 0.382459283 -0.46999976
v -0.46999979 0.46999976 -0.400000066
v -0.50000006 0.382459104 -0.400000066
v -0.462836355 0.448729813 -0.46999976
v -0.453384817 0.340111822 -0.49999997
v -0.414647549 0.5 -0.400000066
v -0.435844004 0.382459074 -0.49999997
v -0.411486059 0.46999979 -0.46999976
v 0.49999997 0.5 -0.400000125
v -0.408324599 0.399999887 -0.49999997
v 0.49999997 0.46999979 -0.46999982
v 0.49999997 0.399999887 -0.50000006
v -0.218814701 -0.166666672 0.5
v -0.467448801 -0.166666642 0.50000006
v -0.468165606 -0.169234648 -0.281082898
v -0.218814671 -0.166666716 -0.281016588
v -0.166666731 0.133053809 -0.281141281
v -0.166666672 0.134757221 0.5
v -0.166666642 -0.114518613 0.5
v -0.166666701 -0.114518628 -0.281128049
v -0.179171756 -0.0939090848 -0.299999714
v -0.179902479 0.149480179 -0.299999714
v -0.134061456 0.1649919 -0.281125247
v -0.13405773 0.166666582 0.5
v -0.166666672 0.134757221 0.5
v -0.166666731 0.133053809 -0.281141281
v 0.166666627 0.218814686 -0.280793905
v 0.166666672 0.218814701 0.5
v 0.114518613 0.166666642 0.5
v 0.11451856 0.166666627 -0.281004727
v 0.114518419 0.18160294 -0.299999714
v 0.146480292 0.218814701 -0.299999714
v 0.146480292 0.218814701 -0.299999714
v 0.146413773 0.468212634 -0.299999654
v 0.166666329 0.465640217 -0.280612558
v 0.166666627 0.218814686 -0.280793905
v 0.166666672 0.467519701 0.5
v 0.166666672 0.218814701 0.5
v -0.179902479 0.149480179 -0.299999714
v -0.147643268 0.181602955 -0.299999714
v -0.134061456 0.1649919 -0.281125247
v -0.166666731 0.133053809 -0.281141281
v -0.468165606 -0.169234648 -0.281082898
v -0.5 -0.20153138 -0.312674224
v -0.5 -0.17882511 -0.33178699
v -0.468212664 -0.146416336 -0.299999624
v -0.218814671 -0.166666716 -0.281016588
v -0.468165606 -0.169234648 -0.281082898
v -0.468212664 -0.146416336 -0.299999624
v -0.232852697 -0.146482348 -0.299999684
v -0.147643268 0.181602955 -0.299999714
v 0.114518419 0.18160294 -0.299999714
v 0.11451856 0.166666627 -0.281004727
v -0.134061456 0.1649919 -0.281125247
v -0.232852697 -0.146482348 -0.299999684
v -0.179171756 -0.0939090848 -0.299999714
v -0.166666701 -0.114518628 -0.281128049
v -0.218814671 -0.166666716 -0.281016588
v 0.50000006 0.5 0.49999997
v 0.166666672 0.467519701 0.5
v 0.199191138 0.49999994 0.49999997
v 0.166666672 0.218814701 0.5
v 0.114518613 0.166666642 0.5
v 0.50000006 -0.499999881 0.49999997
v -0.166666642 -0.114518613 0.5
v -0.49999997 -0.5 0.50000006
v -0.166666672 0.134757221 0.5
v -0.13405773 0.166666582 0.5
v -0.218814701 -0.166666672 0.5
v -0.49999997 -0.199176237 0.50000006
v -0.467448801 -0.166666642 0.50000006
vt 0.870934963 0.0406121388
vt 0.829896092 0.0510888025
vt 0.890018463 0.0406121388
vt 0.338775694 0.0998403952
vt 0.359000921 0.000688693079
vt 0.361079186 0.0998403877
vt 0.367963314 0.0261852648
vt 0.79707247 0.0261852648
vt 0.79707247 0.0994099975
vt 0.365467072 0.0994099975
vt 0.767732799 0.0995180607
vt 0.339526325 0.0995181352
vt 0.339526325 0.00218024105
vt 0.767563045 0.00218012929
vt 0.840935111 0.0684765726
vt 0.870934963 0.0684765726
vt 0.870934963 0.0875600725
vt 0.840935111 0.0875600725
vt 0.832562089 0.0708669052
vt 0.839594364 0.0700152144
vt 0.841038764 0.0706347898
vt 0.832197368 0.0873759687
vt 0.840639591 0.0777883083
vt 0.842133343 0.0791831985
vt 0.832704961 0.0886115879
vt 0.833940625 0.0891191885
vt 0.851145327 0.0795286298
vt 0.852850795 0.0810799226
vt 0.85332948 0.0890527219
vt 0.833393693 0.0901731029
vt 0.854730248 0.0901731029
vt 0.940711021 0.0499530844
vt 0.962733328 0.0499522164
vt 0.962727904 0.091468215
vt 0.940710187 0.0915322453
vt 0.856979012 0.0491676219
vt 0.856979012 0.0898058712
vt 0.851910591 0.0898058712
vt 0.851910591 0.0629155785
vt 0.683904827 0.0995962098
vt 0.361079186 0.0995962471
vt 0.359000921 0.000688693079
vt 0.683904827 0.000688672066
vt 0.829896033 0.0467456654
vt 0.830501139 0.0462396853
vt 0.890018463 0.0406121388
vt 0.831106246 0.0457337052
vt 0.890018463 0.0106122643
vt 0.858159959 0.00473711267
vt 0.858159959 0.0477552861
vt 0.857453823 0.048345767
vt 0.856747627 0.0489362441
vt 0.940591872 0.00566310342
vt 0.940591872 0.0499504581
vt 0.913948119 0.0499748848
vt 0.915590465 0.00556946173
vt 0.332247019 0.00183840096
vt 0.243708521 0.0462387763
vt 0.243708521 0.00183834136
vt 0.332686722 0.0462387763
vt 0.350953192 0.00183840096
vt 0.329317391 0.0957226604
vt 0.243708521 0.0957226604
vt 0.342649907 0.0957226604
vt 0.349780411 0.0462387763
vt 0.531902254 0.0957226604
vt 0.550195813 0.0462387763
vt 0.651776254 0.00183840096
vt 0.86796844 0.0457337089
vt 0.831106246 0.0457337052
vt 0.831106246 0.0111516491
vt 0.831774056 0.00953938998
vt 0.86796844 0.0088715516
vt 0.833386302 0.00887155998
vt 0.83326596 0.00826644525
vt 0.86796844 0.00826644152
vt 0.833145618 0.00766133144
vt 0.86796844 0.00766133144
vt 0.819728076 0.0901195854
vt 0.819728017 0.050539881
vt 0.844943523 0.0504906923
vt 0.844956756 0.0924238712
vt 0.821282089 0.0925318822
vt 0.243708521 0.0462387763
vt 0.332247019 0.00183840096
vt 0.243708521 0.00183834136
vt 0.332686722 0.0462387763
vt 0.243708521 0.0957226604
vt 0.350953192 0.00183840096
vt 0.329317391 0.0957226604
vt 0.349780411 0.0462387763
vt 0.651776254 0.00183840096
vt 0.342649907 0.0957226604
vt 0.651386857 0.0462387763
vt 0.650910497 0.0957226604
vt 0.962795019 0.0499240831
vt 0.984819233 0.0499352403
vt 0.984810591 0.0914883092
vt 0.962787807 0.0914778337
vt 0.867168188 0.0899349302
vt 0.867168188 0.0505585074
vt 0.888033152 0.0504839122
vt 0.888070881 0.0897792503
vt 0.886345029 0.092430234
vt 0.867168188 0.0925762206
vt 0.368872285 0.00232059322
vt 0.796493292 0.00232059322
vt 0.796493292 0.0993140787
vt 0.368847907 0.0993140787
vt 0.310674727 0.0995180681
vt 0.796477675 0.0995181352
vt 0.796477675 0.0021802485
vt 0.310353577 0.00218013674
vt 0.243823245 0.00218013674
vt 0.243823305 0.0995180681
vt 0.865814686 0.0924674422
vt 0.844956756 0.0925248414
vt 0.844956756 0.0898111612
vt 0.865813792 0.0897828117
vt 0.844956756 0.0505328178
vt 0.865800977 0.0505328476
vt 0.241724789 0.100046501
vt 0.241724789 0.000855749822
vt 0.334003747 0.000855749822
vt 0.333979368 0.100046501
vt 0.367963314 0.000306364498
vt 0.367963314 0.100088209
vt 0.238010228 0.100088209
vt 0.238010228 0.000306364498
vt 0.339357138 0.000698884018
vt 0.796641231 0.000698884018
vt 0.796641231 0.0980739668
vt 0.339357138 0.0980739668
vt 0.335870534 0.0989150181
vt 0.796179175 0.0989150032
vt 0.796185017 0.00275161862
vt 0.335870534 0.00129820406
vt 0.338344365 0.100028083
vt 0.237969205 0.100028083
vt 0.23796919 0.000963143131
vt 0.338344336 0.000793377927
vt 0.877586782 0.028143324
vt 0.875956178 0.0448778011
vt 0.877586782 0.0432449579
vt 0.863470316 0.0448778011
vt 0.860852301 0.0474958122
vt 0.827383399 0.0281433351
vt 0.846735835 0.0616122708
vt 0.827383399 0.0783467591
vt 0.859250367 0.0616122708
vt 0.860852301 0.059975192
vt 0.84411782 0.0642302856
vt 0.842485726 0.0783467591
vt 0.84411782 0.0767125785
vn 1 0 0
vn 1 0 0
vn 1 0 0
vn -0.238442063 0.495567411 0.835199594
vn -0.105372533 0.988564014 0.107878804
vn -0.821547925 0.485588908 0.298768163
vn -0.494518667 0.806999326 0.322805464
vn -0.385797232 0.922581673 -0.00189372234
vn -0.92413038 0.382075965 -0.00100745517
vn -0.973343015 0.202086598 0.108463474
vn -0.842963099 0.384514034 0.376247615
vn -0.923879623 0.382683128 0
vn -0.385064393 0.922889233 -0.00088749209
vn -0.362651765 0.839609802 0.404399663
vn -0 -1 0
vn -0 -1 0
vn -0 -1 0
vn -0 -1 0
vn -0.238442063 0.495567411 0.835199594
vn -0.435646832 0.219669014 0.872901678
vn -0.243773863 0.461370975 0.853059888
vn -0.0985512659 0.416745365 0.903665364
vn -0.117645904 0.256800652 0.959277213
vn -0.261185735 0.130792245 0.956386685
vn -0.370754331 0.30759117 0.876315475
vn -0.419234574 0.068234168 0.905310214
vn -0.466683269 0.113508783 0.877110362
vn -0.132095993 0.36938706 0.919839025
vn -0.470005989 0.268753171 0.840753257
vn -0.923155725 0.144772246 0.356124163
vn -0.967685819 0.10059277 0.231225803
vn -0.384239018 0.923233449 -0.000579765532
vn -0.379164159 0.925328374 -0.00141128153
vn -0.31499213 0.847986996 0.426260382
vn -0.350741059 0.881829321 0.315210462
vn -0.993775368 0 -0.111402631
vn -0.981419802 0.159744874 -0.106285959
vn -0.923155725 0.144772246 0.356124163
vn -0.967685819 0.10059277 0.231225803
vn -0.926339567 0.376689255 -0.000438891177
vn -0.821547925 0.485588908 0.298768163
vn -0.105372533 0.988564014 0.107878804
vn -0.38915062 0.921174049 -0.000440993608
vn 1 0 0
vn 1 0 0
vn 1 0 0
vn 1 0 0
vn 1 0 0
vn -0 -1 0
vn -0 -1 0
vn -0 -1 0
vn -0 -1 0
vn -0 0.979577363 -0.201067805
vn -0 1 0
vn -0.38915062 0.921174049 -0.000440993608
vn -0.105372533 0.988564014 0.107878804
vn -0.738714695 0.657933772 -0.14636825
vn -0.923155725 0.144772246 0.356124163
vn -0.981419802 0.159744874 -0.106285959
vn -0.712055027 0.6106264 0.346573383
vn -0.227967799 0.955627263 -0.186566904
vn -0.370754331 0.30759117 0.876315475
vn -0.419234574 0.068234168 0.905310214
vn -0.0985512659 0.416745365 0.903665364
vn -0.221653685 0.907202244 0.357566386
vn -0.238442063 0.495567411 0.835199594
vn -0.105372533 0.988564014 0.107878804
vn -0 0.979577363 -0.201067805
vn -0 0 -1
vn -0 0.201067328 -0.979577482
vn -0.059993308 0.226078793 -0.97225982
vn -0.240527317 0.156287432 -0.957977414
vn -0.441506535 0.00380047876 -0.897249997
vn -0.425263137 0.0387642197 -0.904239297
vn -0.841749668 0.159434915 -0.515788734
vn -0.903132677 0.00347281573 -0.429347426
vn -0.981419802 0.159744874 -0.106285959
vn -0.993775368 0 -0.111402631
vn -0.973343015 0.202086598 0.108463474
vn -0.92413038 0.382075965 -0.00100745517
vn -1 0 0
vn -0.993775368 0 -0.111402631
vn -0.967685819 0.10059277 0.231225803
vn -0.841749668 0.159434915 -0.515788734
vn -0.738714695 0.657933772 -0.14636825
vn -0.981419802 0.159744874 -0.106285959
vn -0.60545069 0.521817446 -0.60094595
vn -0.425263137 0.0387642197 -0.904239297
vn -0.227967799 0.955627263 -0.186566904
vn -0.240527317 0.156287432 -0.957977414
vn -0.164148226 0.715926647 -0.678604782
vn -0 0.979577363 -0.201067805
vn -0.059993308 0.226078793 -0.97225982
vn -0 0.707106411 -0.707107127
vn -0 0.201067328 -0.979577482
vn -0.385064393 0.922889233 -0.00088749209
vn -0.385797232 0.922581673 -0.00189372234
vn -0.494518667 0.806999326 0.322805464
vn -0.362651765 0.839609802 0.404399663
vn -0.867124081 0.305854172 0.393127322
vn -0.921647727 0.388026744 -0.00083805708
vn -0.923879623 0.382683128 0
vn -0.842963099 0.384514034 0.376247615
vn -0.466683269 0.113508783 0.877110362
vn -0.261185735 0.130792245 0.956386685
vn -0.31499213 0.847986996 0.426260382
vn -0.379164159 0.925328374 -0.00141128153
vn -0.921647727 0.388026744 -0.00083805708
vn -0.867124081 0.305854172 0.393127322
vn -0.877211809 0.339768529 0.339200318
vn -0.923879743 0.382683069 0
vn -0.384239018 0.923233449 -0.000579765532
vn -0.350741059 0.881829321 0.315210462
vn -0.243773863 0.461370975 0.853059888
vn -0.435646832 0.219669014 0.872901678
vn -0.435646832 0.219669014 0.872901678
vn -0.238442063 0.495567411 0.835199594
vn -0.821547925 0.485588908 0.298768163
vn -0.877211809 0.339768529 0.339200318
vn -0.926339567 0.376689255 -0.000438891177
vn -0.923879743 0.382683069 0
vn -0.261185735 0.130792245 0.956386685
vn -0.117645904 0.256800652 0.959277213
vn -0.31499213 0.847986996 0.426260382
vn -0.867124081 0.305854172 0.393127322
vn -0.494518667 0.806999326 0.322805464
vn -0.973343015 0.202086598 0.108463474
vn -0.967685819 0.10059277 0.231225803
vn -0.470005989 0.268753171 0.840753257
vn -0.362651765 0.839609802 0.404399663
vn -0.494518667 0.806999326 0.322805464
vn -0.470005989 0.268753171 0.840753257
vn -0.132095993 0.36938706 0.919839025
vn -0.117645904 0.256800652 0.959277213
vn -0.243773863 0.461370975 0.853059888
vn -0.350741059 0.881829321 0.315210462
vn -0.31499213 0.847986996 0.426260382
vn -0.132095993 0.36938706 0.919839025
vn -0.466683269 0.113508783 0.877110362
vn -0.842963099 0.384514034 0.376247615
vn -0.362651765 0.839609802 0.404399663
vn -0 0 1
vn -0 0 1
vn -0 0 1
vn -0 0 1
vn -0 0 1
vn -0 0 1
vn -0 0 1
vn -0 0 1
vn -0 0 1
vn -0 0 1
vn -0 0 1
vn -0 0 1
vn -0 0 1
g Adobe_Stairs_End_Left_0
f 3/3/3 2/2/2 1/1/1
f 6/6/6 5/5/5 4/4/4
f 9/9/9 8/8/8 7/7/7
f 10/10/10 9/9/9 7/7/7
f 13/13/13 12/12/12 11/11/11
f 14/14/14 13/13/13 11/11/11
f 17/17/17 16/16/16 15/15/15
f 18/18/18 17/17/17 15/15/15
f 21/21/21 20/20/20 19/19/19
f 21/21/21 19/19/19 22/22/22
f 23/23/23 21/21/21 22/22/22
f 24/24/24 23/23/23 22/22/22
f 25/25/25 24/24/24 22/22/22
f 25/25/25 26/26/26 24/24/24
f 26/26/26 27/27/27 24/24/24
f 26/26/26 28/28/28 27/27/27
f 26/26/26 29/29/29 28/28/28
f 26/26/26 30/30/30 29/29/29
f 30/30/30 31/31/31 29/29/29
f 34/34/34 33/33/33 32/32/32
f 35/35/35 34/34/34 32/32/32
f 38/38/38 37/37/37 36/36/36
f 39/39/39 38/38/38 36/36/36
f 42/42/42 41/41/41 40/40/40
f 43/43/43 42/42/42 40/40/40
f 46/46/46 45/45/45 44/44/44
f 47/47/47 45/45/45 46/46/46
f 48/48/48 47/47/47 46/46/46
f 51/51/51 50/50/50 49/49/49
f 52/52/52 51/51/51 49/49/49
f 55/55/55 54/54/54 53/53/53
f 56/56/56 55/55/55 53/53/53
f 59/59/59 58/58/58 57/57/57
f 58/58/58 60/60/60 57/57/57
f 57/57/57 60/60/60 61/61/61
f 60/60/60 58/58/58 62/62/62
f 58/58/58 63/63/63 62/62/62
f 60/60/60 62/62/62 64/64/64
f 65/65/65 60/60/60 64/64/64
f 60/60/60 65/65/65 61/61/61
f 65/65/65 64/64/64 66/66/66
f 67/67/67 65/65/65 66/66/66
f 65/65/65 67/67/67 61/61/61
f 67/67/67 68/68/68 61/61/61
f 71/71/71 70/70/70 69/69/69
f 72/72/72 71/71/71 69/69/69
f 72/72/72 69/69/69 73/73/73
f 74/74/74 72/72/72 73/73/73
f 75/75/75 74/74/74 73/73/73
f 76/76/76 75/75/75 73/73/73
f 77/77/77 75/75/75 76/76/76
f 78/78/78 77/77/77 76/76/76
f 81/81/81 80/80/80 79/79/79
f 82/82/82 81/81/81 79/79/79
f 82/82/82 79/79/79 83/83/83
f 86/86/86 85/85/85 84/84/84
f 85/85/85 87/87/87 84/84/84
f 84/84/84 87/87/87 88/88/88
f 85/85/85 89/89/89 87/87/87
f 87/87/87 90/90/90 88/88/88
f 89/89/89 91/91/91 87/87/87
f 87/87/87 91/91/91 90/90/90
f 89/89/89 92/92/92 91/91/91
f 91/91/91 93/93/93 90/90/90
f 92/92/92 94/94/94 91/91/91
f 91/91/91 94/94/94 93/93/93
f 94/94/94 95/95/95 93/93/93
f 98/98/98 97/97/97 96/96/96
f 99/99/99 98/98/98 96/96/96
f 102/102/102 101/101/101 100/100/100
f 103/103/103 102/102/102 100/100/100
f 104/104/104 103/103/103 100/100/100
f 105/105/105 104/104/104 100/100/100
f 108/108/108 107/107/107 106/106/106
f 109/109/109 108/108/108 106/106/106
f 112/112/112 111/111/111 110/110/110
f 113/113/113 112/112/112 110/110/110
f 113/113/113 110/110/110 114/114/114
f 110/110/110 115/115/115 114/114/114
f 118/118/118 117/117/117 116/116/116
f 119/119/119 118/118/118 116/116/116
f 118/118/118 119/119/119 120/120/120
f 119/119/119 121/121/121 120/120/120
f 124/124/124 123/123/123 122/122/122
f 125/125/125 124/124/124 122/122/122
f 128/128/128 127/127/127 126/126/126
f 129/129/129 128/128/128 126/126/126
f 132/132/132 131/131/131 130/130/130
f 133/133/133 132/132/132 130/130/130
f 136/136/136 135/135/135 134/134/134
f 137/137/137 136/136/136 134/134/134
f 140/140/140 139/139/139 138/138/138
f 141/141/141 140/140/140 138/138/138
f 144/144/144 143/143/143 142/142/142
f 143/143/143 145/145/145 142/142/142
f 142/142/142 145/145/145 146/146/146
f 147/147/147 142/142/142 146/146/146
f 147/147/147 146/146/146 148/148/148
f 149/149/149 147/147/147 148/148/148
f 150/150/150 148/148/148 146/146/146
f 151/151/151 150/150/150 146/146/146
f 152/152/152 149/149/149 148/148/148
f 149/149/149 152/152/152 153/153/153
f 152/152/152 154/154/154 153/153/153
