g Adobe_Roof_End
v 0.399997145 0.50000006 -0.299999714
v -0.5 0.50000006 -0.299999714
v -0.5 -0.50000006 -0.299999714
v 0.399997145 -0.50000006 -0.299999714
v 0.469996095 0.50000006 -0.2700001
v 0.469996095 -0.50000006 -0.2700001
v -0.5 -0.50000006 -0.299999714
v -0.5 0.50000006 -0.299999714
v -0.5 0.50000006 0.300000191
v -0.5 -0.50000006 0.300000191
v 0.469996095 0.50000006 0.270000577
v 0.5 -0.50000006 0.19999972
v 0.469996095 -0.50000006 0.270000577
v 0.5 0.50000006 0.19999972
v 0.5 0.50000006 -0.199999243
v 0.5 -0.50000006 -0.199999243
v 0.469996095 -0.50000006 -0.2700001
v 0.469996095 0.50000006 -0.2700001
v 0.399997145 0.50000006 0.300000191
v 0.469996095 0.50000006 0.270000577
v 0.469996095 -0.50000006 0.270000577
v 0.399997145 -0.50000006 0.300000191
v -0.5 0.50000006 0.300000191
v -0.5 -0.50000006 0.300000191
v -0.5 -0.50000006 -0.299999714
v -0.5 -0.50000006 0.300000191
v 0.399997145 -0.50000006 0.300000191
v 0.399997145 -0.50000006 -0.299999714
v 0.469996095 -0.50000006 0.270000577
v 0.469996095 -0.50000006 -0.2700001
v 0.5 -0.50000006 0.19999972
v 0.5 -0.50000006 -0.199999243
v 0.399997145 0.50000006 -0.299999714
v -0.5 0.50000006 0.300000191
v -0.5 0.50000006 -0.299999714
v 0.399997145 0.50000006 0.300000191
v 0.469996095 0.50000006 -0.2700001
v 0.469996095 0.50000006 0.270000577
v 0.5 0.50000006 -0.199999243
v 0.5 0.50000006 0.19999972
vt 0.81745261 0.0942191333
vt 0.898269117 0.0942191333
vt 0.898269117 0.00442270096
vt 0.81745261 0.00442270841
vt 0.81061399 0.0942191333
vt 0.81061399 0.00442270096
vt 0.809544146 0.0942182019
vt 0.89934057 0.0942181796
vt 0.89934057 0.00442176964
vt 0.809544086 0.00442178454
vt 0.811683118 0.0942199975
vt 0.818521976 0.00442357268
vt 0.811683059 0.00442357268
vt 0.818521976 0.0942199975
vt 0.890359044 0.0942199975
vt 0.890359044 0.00442357268
vt 0.897197962 0.00442357268
vt 0.897197962 0.0942199975
vt 0.817451715 0.00442178454
vt 0.810613096 0.00442178454
vt 0.810613096 0.0942182168
vt 0.817451715 0.0942182168
vt 0.898268223 0.00442178454
vt 0.898268223 0.0942182168
vt 0.895115018 0.09452492
vt 0.895115018 0.00472849235
vt 0.814298451 0.00472849235
vt 0.814298451 0.09452492
vt 0.808012784 0.00742235407
vt 0.808012784 0.0918310657
vt 0.805318534 0.013708178
vt 0.805318534 0.0855452493
vt 0.912169516 0.00418352988
vt 0.992986083 0.0939799398
vt 0.992986083 0.00418352243
vt 0.912169516 0.0939799547
vt 0.905883908 0.0068773916
vt 0.905883908 0.091286093
vt 0.903189659 0.0131632229
vt 0.903189659 0.0850002915
vn 0.201066256 0 -0.979577601
vn -0 0 -1
vn -0 0 -1
vn 0.201066256 0 -0.979577601
vn 0.707091928 0 -0.707121551
vn 0.707091928 0 -0.707121551
vn -1 0 0
vn -1 0 0
vn -1 0 0
vn -1 0 0
vn 0.707091928 0 0.707121551
vn 0.979573369 0 0.20108673
vn 0.707091928 0 0.707121551
vn 0.979573369 0 0.20108673
vn 0.979573369 0 -0.20108673
vn 0.979573369 0 -0.20108673
vn 0.707091928 0 -0.707121551
vn 0.707091928 0 -0.707121551
vn 0.201066256 0 0.979577601
vn 0.707091928 0 0.707121551
vn 0.707091928 0 0.707121551
vn 0.201066256 0 0.979577601
vn -0 0 1
vn -0 0 1
vn -0 -1 0
vn -0 -1 0
vn -0 -1 0
vn -0 -1 0
vn -0 -1 0
vn -0 -1 0
vn -0 -1 0
vn -0 -1 0
vn -0 1 0
vn -0 1 0
vn -0 1 0
vn -0 1 0
vn -0 1 0
vn -0 1 0
vn -0 1 0
vn -0 1 0
g Adobe_Roof_End_0
f 3/3/3 2/2/2 1/1/1
f 4/4/4 3/3/3 1/1/1
f 4/4/4 1/1/1 5/5/5
f 6/6/6 4/4/4 5/5/5
f 9/9/9 8/8/8 7/7/7
f 10/10/10 9/9/9 7/7/7
f 13/13/13 12/12/12 11/11/11
f 12/12/12 14/14/14 11/11/11
f 15/15/15 14/14/14 12/12/12
f 16/16/16 15/15/15 12/12/12
f 16/16/16 17/17/17 15/15/15
f 17/17/17 18/18/18 15/15/15
f 21/21/21 20/20/20 19/19/19
f 22/22/22 21/21/21 19/19/19
f 22/22/22 19/19/19 23/23/23
f 24/24/24 22/22/22 23/23/23
f 27/27/27 26/26/26 25/25/25
f 28/28/28 27/27/27 25/25/25
f 29/29/29 27/27/27 28/28/28
f 30/30/30 29/29/29 28/28/28
f 31/31/31 29/29/29 30/30/30
f 32/32/32 31/31/31 30/30/30
f 35/35/35 34/34/34 33/33/33
f 34/34/34 36/36/36 33/33/33
f 33/33/33 36/36/36 37/37/37
f 36/36/36 38/38/38 37/37/37
f 37/37/37 38/38/38 39/39/39
f 38/38/38 40/40/40 39/39/39
