g Adobe_Roof_T
v 0.499995947 0.50000006 0.30000329
v 0.499995947 -0.50000006 0.30000329
v -0.500019193 -0.50000006 0.300019383
v -0.500019193 0.50000006 0.300019383
v 0.300000757 -0.499999911 -0.30000034
v 0.499996901 -0.499999911 -0.29999736
v 0.499996901 0.499999911 -0.29999736
v 0.300000757 0.499999911 -0.30000034
v -0.300001234 0.499999911 -0.30000034
v -0.500020146 0.499999911 -0.299981266
v -0.500020146 -0.499999911 -0.299981266
v -0.300001234 -0.499999911 -0.30000034
v -0.300001234 -0.499999911 -0.30000034
v -0.300001234 -0.499999911 -0.500000596
v -0.300001234 0.499999911 -0.500000596
v -0.300001234 0.499999911 -0.30000034
v 0.499995947 -0.50000006 0.30000329
v 0.499995947 0.50000006 0.30000329
v 0.499996901 0.499999911 -0.29999736
v 0.499996901 -0.499999911 -0.29999736
v -0.500020146 -0.499999911 -0.299981266
v -0.500020146 0.499999911 -0.299981266
v -0.500019193 0.50000006 0.300019383
v -0.500019193 -0.50000006 0.300019383
v -0.300001234 0.499999911 -0.500000596
v -0.300001234 -0.499999911 -0.500000596
v 0.300000757 -0.499999911 -0.500000596
v 0.300000757 0.499999911 -0.500000596
v 0.499996901 -0.499999911 -0.29999736
v 0.300000757 -0.499999911 -0.30000034
v 0.499995947 -0.50000006 0.30000329
v -0.300001234 -0.499999911 -0.30000034
v -0.500019193 -0.50000006 0.300019383
v -0.500020146 -0.499999911 -0.299981266
v -0.300001234 -0.499999911 -0.30000034
v 0.300000757 -0.499999911 -0.30000034
v 0.300000757 -0.499999911 -0.500000596
v -0.300001234 -0.499999911 -0.500000596
v -0.300001234 0.499999911 -0.500000596
v 0.300000757 0.499999911 -0.500000596
v 0.300000757 0.499999911 -0.30000034
v -0.300001234 0.499999911 -0.30000034
v 0.499995947 0.50000006 0.30000329
v 0.499996901 0.499999911 -0.29999736
v -0.500019193 0.50000006 0.300019383
v -0.500020146 0.499999911 -0.299981266
v 0.300000757 0.499999911 -0.30000034
v 0.300000757 0.499999911 -0.500000596
v 0.300000757 -0.499999911 -0.500000596
v 0.300000757 -0.499999911 -0.30000034
vt 0.832020283 0.0511497073
vt 0.808816552 0.0511497185
vt 0.808816552 0.0801547766
vt 0.832020283 0.0801547617
vt 0.860880196 0.070943974
vt 0.860880196 0.0767447948
vt 0.884083867 0.0767447874
vt 0.884083867 0.0709439665
vt 0.852582633 0.0765622407
vt 0.858384132 0.0765622407
vt 0.858384132 0.0533585548
vt 0.852582633 0.0533585697
vt 0.860880196 0.0575212501
vt 0.860880196 0.0633221716
vt 0.884083867 0.0633221716
vt 0.884083867 0.0575212426
vt 0.858671248 0.0537103415
vt 0.887675881 0.0537103415
vt 0.887675881 0.0421084575
vt 0.858671248 0.0421084799
vt 0.837169945 0.0511496253
vt 0.837169886 0.0801542327
vt 0.848771811 0.0801542327
vt 0.848771811 0.0511496179
vt 0.887675881 0.024665311
vt 0.858671248 0.0246653203
vt 0.858671248 0.0362672396
vt 0.887675881 0.0362672508
vt 0.874696076 0.0659173951
vt 0.874696195 0.0577491522
vt 0.850190878 0.0659173205
vt 0.874696195 0.033243835
vt 0.850190222 0.0250746589
vt 0.87469548 0.0250746477
vt 0.860880196 0.0575212501
vt 0.860880196 0.0691634268
vt 0.860880196 0.0633625016
vt 0.860880196 0.0633221716
vt 0.954608798 0.067043215
vt 0.954608798 0.0425379016
vt 0.946440399 0.0425379165
vt 0.946440399 0.0670432299
vt 0.921935022 0.0343697481
vt 0.946440279 0.0343696661
vt 0.921934426 0.0752124116
vt 0.946439683 0.0752124041
vt 0.884083867 0.0691634268
vt 0.884083867 0.0633624941
vt 0.860880196 0.0633625016
vt 0.860880196 0.0691634268
vn 1.60930103E-05 0 1
vn 1.60930103E-05 0 1
vn 1.60930103E-05 0 1
vn 1.60930103E-05 0 1
vn 1.49014486E-05 0 -1
vn 1.49014486E-05 0 -1
vn 1.49014486E-05 0 -1
vn 1.49014486E-05 0 -1
vn -9.53584313E-05 0 -1
vn -9.53584313E-05 0 -1
vn -9.53584313E-05 0 -1
vn -9.53584313E-05 0 -1
vn -1 0 0
vn -1 0 0
vn -1 0 0
vn -1 0 0
vn 1 0 0
vn 1 0 0
vn 1 0 0
vn 1 0 0
vn -1 0 0
vn -1 0 0
vn -1 0 0
vn -1 0 0
vn -0 0 -1
vn -0 0 -1
vn -0 0 -1
vn -0 0 -1
vn -0 -1 0
vn -0 -1 0
vn -0 -1 0
vn -0 -1 0
vn -0 -1 0
vn -0 -1 0
vn -0 -1 0
vn -0 -1 0
vn -0 -1 0
vn -0 -1 0
vn -0 1 0
vn -0 1 0
vn -0 1 0
vn -0 1 0
vn -0 1 0
vn -0 1 0
vn -0 1 0
vn -0 1 0
vn 1 0 0
vn 1 0 0
vn 1 0 0
vn 1 0 0
g Adobe_Roof_T_0
f 3/3/3 2/2/2 1/1/1
f 4/4/4 3/3/3 1/1/1
f 7/7/7 6/6/6 5/5/5
f 8/8/8 7/7/7 5/5/5
f 11/11/11 10/10/10 9/9/9
f 12/12/12 11/11/11 9/9/9
f 15/15/15 14/14/14 13/13/13
f 16/16/16 15/15/15 13/13/13
f 19/19/19 18/18/18 17/17/17
f 20/20/20 19/19/19 17/17/17
f 23/23/23 22/22/22 21/21/21
f 24/24/24 23/23/23 21/21/21
f 27/27/27 26/26/26 25/25/25
f 28/28/28 27/27/27 25/25/25
f 31/31/31 30/30/30 29/29/29
f 32/32/32 30/30/30 31/31/31
f 33/33/33 32/32/32 31/31/31
f 32/32/32 33/33/33 34/34/34
f 37/37/37 36/36/36 35/35/35
f 38/38/38 37/37/37 35/35/35
f 41/41/41 40/40/40 39/39/39
f 42/42/42 41/41/41 39/39/39
f 43/43/43 41/41/41 42/42/42
f 44/44/44 41/41/41 43/43/43
f 45/45/45 43/43/43 42/42/42
f 46/46/46 45/45/45 42/42/42
f 49/49/49 48/48/48 47/47/47
f 50/50/50 49/49/49 47/47/47
