g Adobe_Wall_End_Solo
v 0.370002627 0.470000029 0.269999862
v 0.440000176 0.470000029 0.240000367
v 0.469996095 0.400000006 0.270000577
v 0.399997145 0.400000006 0.300000191
v 0.469996095 -0.400000006 0.270000577
v -0.5 0.400000006 0.300000191
v -0.5 0.470000029 0.270000339
v 0.399997145 -0.400000006 0.300000191
v -0.5 -0.400000006 0.300000191
v 0.370002627 -0.470000029 0.269999862
v 0.440000176 -0.470000029 0.240000367
v -0.5 -0.470000029 0.270000339
v 0.370002627 0.470000029 -0.269999385
v 0.469996095 0.400000006 -0.2700001
v 0.440000176 0.470000029 -0.23999989
v 0.399997145 0.400000006 -0.299999714
v -0.5 0.400000006 -0.299999714
v -0.5 0.470000029 -0.269999862
v -0.5 -0.400000006 -0.299999714
v 0.399997145 -0.400000006 -0.299999714
v 0.469996095 -0.400000006 -0.2700001
v 0.370002627 -0.470000029 -0.269999385
v -0.5 -0.470000029 -0.269999862
v 0.440000176 -0.470000029 -0.23999989
v -0.5 -0.470000029 0.270000339
v -0.5 0.400000006 0.300000191
v -0.5 -0.400000006 0.300000191
v -0.5 0.470000029 0.270000339
v -0.5 -0.5 0.200000197
v -0.5 0.5 0.200000197
v -0.5 -0.5 -0.19999972
v -0.5 0.5 -0.19999972
v -0.5 -0.470000029 -0.269999862
v -0.5 0.470000029 -0.269999862
v -0.5 -0.400000006 -0.299999714
v -0.5 0.400000006 -0.299999714
v 0.440000176 -0.470000029 -0.23999989
v 0.470001101 -0.470000029 -0.16999948
v 0.5 -0.400000006 -0.199999243
v 0.469996095 -0.400000006 -0.2700001
v 0.470001101 -0.470000029 0.169999957
v 0.5 0.400000006 -0.199999243
v 0.469996095 0.400000006 -0.2700001
v 0.440000176 0.470000029 -0.23999989
v 0.470001101 0.470000029 -0.16999948
v 0.5 -0.400000006 0.19999972
v 0.440000176 -0.470000029 0.240000367
v 0.469996095 -0.400000006 0.270000577
v 0.469996095 0.400000006 0.270000577
v 0.5 0.400000006 0.19999972
v 0.470001101 0.470000029 0.169999957
v 0.440000176 0.470000029 0.240000367
v 0.300004482 -0.5 -0.19999972
v 0.370002627 -0.470000029 -0.269999385
v -0.5 -0.470000029 -0.269999862
v -0.5 -0.5 -0.19999972
v 0.440000176 -0.470000029 -0.23999989
v -0.5 -0.5 0.200000197
v 0.370001912 -0.5 -0.169999719
v 0.470001101 -0.470000029 -0.16999948
v 0.300004482 -0.5 0.200000197
v -0.5 -0.470000029 0.270000339
v 0.370002627 -0.470000029 0.269999862
v 0.440000176 -0.470000029 0.240000367
v 0.370001912 -0.5 0.170000196
v 0.470001101 -0.470000029 0.169999957
v 0.400000006 -0.5 0.0999999344
v 0.400000006 -0.5 -0.0999994576
v 0.300004482 0.5 -0.19999972
v -0.5 0.5 -0.19999972
v -0.5 0.470000029 -0.269999862
v 0.370002627 0.470000029 -0.269999385
v -0.5 0.5 0.200000197
v 0.440000176 0.470000029 -0.23999989
v 0.300004482 0.5 0.200000197
v -0.5 0.470000029 0.270000339
v 0.370002627 0.470000029 0.269999862
v 0.440000176 0.470000029 0.240000367
v 0.370001912 0.5 0.170000196
v 0.470001101 0.470000029 0.169999957
v 0.370001912 0.5 -0.169999719
v 0.470001101 0.470000029 -0.16999948
v 0.400000006 0.5 -0.0999994576
v 0.400000006 0.5 0.0999999344
vt 0.84158051 0.0457202718
vt 0.841249704 0.0490387157
vt 0.844696522 0.0500100031
vt 0.844868779 0.0467725098
vt 0.878141344 0.050332956
vt 0.843947291 0.00862924196
vt 0.840707183 0.00870569982
vt 0.878013551 0.047154434
vt 0.878916144 0.00862924196
vt 0.881296515 0.0461316332
vt 0.881572545 0.0494298786
vt 0.882192135 0.00870765559
vt 0.881296515 0.0878773406
vt 0.878141344 0.0920786932
vt 0.881572545 0.0911755636
vt 0.878013551 0.0889001712
vt 0.878916144 0.0503749773
vt 0.882192135 0.0504533648
vt 0.843947291 0.0503749773
vt 0.844868779 0.0885182396
vt 0.844696522 0.091755718
vt 0.84158051 0.087466009
vt 0.840707183 0.0504514128
vt 0.841249704 0.0907844529
vt 0.839388311 0.00990611874
vt 0.840665162 0.0469355136
vt 0.840665162 0.0128854755
vt 0.839388311 0.049914889
vt 0.836408913 0.00862924196
vt 0.836408913 0.0511917695
vt 0.81938386 0.00862924196
vt 0.81938386 0.0511917695
vt 0.816404521 0.00990611874
vt 0.816404521 0.049914889
vt 0.815127611 0.0128854979
vt 0.815127611 0.046935536
vt 0.838002026 0.0520349592
vt 0.834615588 0.0523578823
vt 0.835721612 0.0557202026
vt 0.838966906 0.0555483326
vt 0.819794178 0.0523059368
vt 0.83568573 0.0893239155
vt 0.838966906 0.0895176306
vt 0.837928176 0.0930236354
vt 0.834546864 0.0926248953
vt 0.818655312 0.0556069165
vt 0.816412926 0.0519071743
vt 0.815374196 0.0554131716
vt 0.815374196 0.0893824995
vt 0.81861949 0.0892106071
vt 0.819725454 0.0925729647
vt 0.816339016 0.0928958505
vt 0.814306557 0.0253903121
vt 0.809303463 0.0206035934
vt 0.808898866 0.0784236491
vt 0.813980699 0.0784569681
vt 0.811406374 0.0158733763
vt 0.840807796 0.0784569681
vt 0.816285968 0.0207757056
vt 0.816146612 0.0137981623
vt 0.840583622 0.0254558586
vt 0.845883071 0.0784346759
vt 0.845602572 0.0206693374
vt 0.843506217 0.0159200355
vt 0.83860898 0.0208343603
vt 0.838749707 0.0138253607
vt 0.834010899 0.0188489296
vt 0.820889592 0.0188108273
vt 0.858653963 0.0701063275
vt 0.858365059 0.0170459077
vt 0.853283823 0.0170757435
vt 0.853648484 0.07488814
vt 0.885189652 0.0170622058
vt 0.855746746 0.0796199739
vt 0.884930432 0.0700700432
vt 0.890265524 0.017087739
vt 0.88994807 0.0748614222
vt 0.887848616 0.0796101242
vt 0.882954538 0.0746941268
vt 0.883090436 0.081700936
vt 0.860631764 0.0747199953
vt 0.860485375 0.081700936
vt 0.865237236 0.0766927451
vt 0.878360868 0.0766734481
vn 0.0240818541 0.611849844 0.790607274
vn 0.448939353 0.772601128 0.448933214
vn 0.70644027 0.0431383625 0.70645684
vn 0.0317799635 0.0284276493 0.999090552
vn 0.70644027 -0.0431383587 0.70645684
vn -0 0.0339342244 0.9994241
vn -0 0.698837936 0.715279996
vn 0.0317799635 -0.0284276474 0.999090552
vn -0 -0.0339342244 0.9994241
vn 0.0240818523 -0.611849844 0.790607274
vn 0.448939323 -0.772601068 0.448933244
vn -0 -0.698837936 0.715279996
vn 0.0240818523 0.611849844 -0.790607274
vn 0.70644027 0.0431383587 -0.70645684
vn 0.448939323 0.772601068 -0.448933244
vn 0.0317799635 0.0284276474 -0.999090552
vn -0 0.0339342244 -0.9994241
vn -0 0.698837936 -0.715279996
vn -0 -0.0339342244 -0.9994241
vn 0.0317799635 -0.0284276493 -0.999090552
vn 0.70644027 -0.0431383625 -0.70645684
vn 0.0240818541 -0.611849844 -0.790607274
vn -0 -0.698837936 -0.715279996
vn 0.448939353 -0.772601068 -0.448933184
vn -1 0 0
vn -1 0 0
vn -1 0 0
vn -1 0 0
vn -1 0 0
vn -1 0 0
vn -1 0 0
vn -1 0 0
vn -1 0 0
vn -1 0 0
vn -1 0 0
vn -1 0 0
vn 0.448939353 -0.772601068 -0.448933184
vn 0.776534438 -0.627844214 -0.0529714227
vn 0.997417569 -0.0293787867 -0.0655361116
vn 0.70644027 -0.0431383625 -0.70645684
vn 0.776534438 -0.627844214 0.0529714227
vn 0.997417569 0.0293787867 -0.0655361116
vn 0.70644027 0.0431383587 -0.70645684
vn 0.448939323 0.772601068 -0.448933244
vn 0.776534438 0.627844214 -0.0529714227
vn 0.997417569 -0.0293787867 0.0655361116
vn 0.448939323 -0.772601068 0.448933244
vn 0.70644027 -0.0431383587 0.70645684
vn 0.70644027 0.0431383625 0.70645684
vn 0.997417569 0.0293787867 0.0655361116
vn 0.776534438 0.627844214 0.0529714227
vn 0.448939353 0.772601128 0.448933214
vn 0.00159983337 -0.996023893 -0.0890719816
vn 0.0240818541 -0.611849844 -0.790607274
vn -0 -0.698837936 -0.715279996
vn -0 -0.997816563 -0.0660464019
vn 0.448939353 -0.772601068 -0.448933184
vn -0 -0.997816563 0.0660464019
vn 0.0708165988 -0.994972587 -0.0708135068
vn 0.776534438 -0.627844214 -0.0529714227
vn 0.00159983337 -0.996023893 0.0890719891
vn -0 -0.698837936 0.715279996
vn 0.0240818523 -0.611849844 0.790607274
vn 0.448939323 -0.772601068 0.448933244
vn 0.0708165839 -0.994972587 0.0708135068
vn 0.776534438 -0.627844214 0.0529714227
vn 0.275117129 -0.961308062 0.0140489452
vn 0.275117129 -0.961308062 -0.0140489424
vn 0.00159983337 0.996023893 -0.0890719891
vn -0 0.997816563 -0.0660464019
vn -0 0.698837936 -0.715279996
vn 0.0240818523 0.611849844 -0.790607274
vn -0 0.997816563 0.0660464019
vn 0.448939323 0.772601068 -0.448933244
vn 0.00159983349 0.996023893 0.0890719891
vn -0 0.698837936 0.715279996
vn 0.0240818541 0.611849844 0.790607274
vn 0.448939353 0.772601128 0.448933214
vn 0.0708165914 0.994972587 0.0708135143
vn 0.776534438 0.627844214 0.0529714227
vn 0.0708166063 0.994972587 -0.0708135143
vn 0.776534438 0.627844214 -0.0529714227
vn 0.275117159 0.961308062 -0.0140489442
vn 0.275117099 0.961308062 0.0140489442
g Adobe_Wall_End_Solo_0
f 3/3/3 2/2/2 1/1/1
f 4/4/4 3/3/3 1/1/1
f 5/5/5 3/3/3 4/4/4
f 6/6/6 4/4/4 1/1/1
f 7/7/7 6/6/6 1/1/1
f 8/8/8 4/4/4 6/6/6
f 8/8/8 5/5/5 4/4/4
f 9/9/9 8/8/8 6/6/6
f 5/5/5 8/8/8 10/10/10
f 8/8/8 9/9/9 10/10/10
f 11/11/11 5/5/5 10/10/10
f 9/9/9 12/12/12 10/10/10
f 15/15/15 14/14/14 13/13/13
f 14/14/14 16/16/16 13/13/13
f 16/16/16 17/17/17 13/13/13
f 17/17/17 18/18/18 13/13/13
f 19/19/19 17/17/17 16/16/16
f 20/20/20 16/16/16 14/14/14
f 20/20/20 19/19/19 16/16/16
f 21/21/21 20/20/20 14/14/14
f 19/19/19 20/20/20 22/22/22
f 20/20/20 21/21/21 22/22/22
f 23/23/23 19/19/19 22/22/22
f 21/21/21 24/24/24 22/22/22
f 27/27/27 26/26/26 25/25/25
f 26/26/26 28/28/28 25/25/25
f 25/25/25 28/28/28 29/29/29
f 28/28/28 30/30/30 29/29/29
f 29/29/29 30/30/30 31/31/31
f 30/30/30 32/32/32 31/31/31
f 31/31/31 32/32/32 33/33/33
f 32/32/32 34/34/34 33/33/33
f 33/33/33 34/34/34 35/35/35
f 34/34/34 36/36/36 35/35/35
f 39/39/39 38/38/38 37/37/37
f 40/40/40 39/39/39 37/37/37
f 38/38/38 39/39/39 41/41/41
f 39/39/39 40/40/40 42/42/42
f 40/40/40 43/43/43 42/42/42
f 42/42/42 43/43/43 44/44/44
f 45/45/45 42/42/42 44/44/44
f 39/39/39 46/46/46 41/41/41
f 39/39/39 42/42/42 46/46/46
f 41/41/41 46/46/46 47/47/47
f 46/46/46 48/48/48 47/47/47
f 48/48/48 46/46/46 49/49/49
f 42/42/42 45/45/45 50/50/50
f 42/42/42 50/50/50 46/46/46
f 46/46/46 50/50/50 49/49/49
f 45/45/45 51/51/51 50/50/50
f 49/49/49 50/50/50 52/52/52
f 50/50/50 51/51/51 52/52/52
f 55/55/55 54/54/54 53/53/53
f 56/56/56 55/55/55 53/53/53
f 54/54/54 57/57/57 53/53/53
f 58/58/58 56/56/56 53/53/53
f 57/57/57 59/59/59 53/53/53
f 57/57/57 60/60/60 59/59/59
f 61/61/61 58/58/58 53/53/53
f 53/53/53 59/59/59 61/61/61
f 62/62/62 58/58/58 61/61/61
f 63/63/63 62/62/62 61/61/61
f 64/64/64 63/63/63 61/61/61
f 65/65/65 64/64/64 61/61/61
f 59/59/59 65/65/65 61/61/61
f 66/66/66 64/64/64 65/65/65
f 60/60/60 66/66/66 67/67/67
f 67/67/67 66/66/66 65/65/65
f 59/59/59 68/68/68 65/65/65
f 60/60/60 68/68/68 59/59/59
f 68/68/68 60/60/60 67/67/67
f 68/68/68 67/67/67 65/65/65
f 71/71/71 70/70/70 69/69/69
f 72/72/72 71/71/71 69/69/69
f 70/70/70 73/73/73 69/69/69
f 74/74/74 72/72/72 69/69/69
f 73/73/73 75/75/75 69/69/69
f 73/73/73 76/76/76 75/75/75
f 76/76/76 77/77/77 75/75/75
f 77/77/77 78/78/78 75/75/75
f 78/78/78 79/79/79 75/75/75
f 69/69/69 75/75/75 79/79/79
f 78/78/78 80/80/80 79/79/79
f 81/81/81 74/74/74 69/69/69
f 81/81/81 69/69/69 79/79/79
f 82/82/82 74/74/74 81/81/81
f 82/82/82 83/83/83 80/80/80
f 83/83/83 82/82/82 81/81/81
f 80/80/80 84/84/84 79/79/79
f 81/81/81 79/79/79 84/84/84
f 83/83/83 84/84/84 80/80/80
f 83/83/83 81/81/81 84/84/84
