g Adobe_Roof_Fill
v -0.5 0.199999809 0.5
v -0.5 0.199999809 -0.5
v -0.5 0.5 -0.5
v -0.5 0.5 0.5
v -0.5 0.199999809 -0.5
v 0.5 0.199999809 -0.5
v 0.5 0.5 -0.5
v -0.5 0.5 -0.5
v 0.5 0.199999809 -0.5
v 0.5 0.199999809 0.5
v 0.5 0.5 0.5
v 0.5 0.5 -0.5
v 0.5 0.199999809 0.5
v -0.5 0.199999809 0.5
v -0.5 0.5 0.5
v 0.5 0.5 0.5
v -0.5 0.199999809 -0.5
v -0.5 0.199999809 0.5
v 0.5 0.199999809 0.5
v 0.5 0.199999809 -0.5
v 0.5 0.5 -0.5
v 0.5 0.5 0.5
v -0.5 0.5 0.5
v -0.5 0.5 -0.5
v 0.0364413485 0.19999963 1.78813934E-07
v -0.0364419892 0.19999963 -0.500000179
v 0.0364413112 0.19999963 -0.500000179
v -0.036441952 0.19999963 1.78813934E-07
v 0.0364413895 0.19999963 0.500000477
v -0.0879782587 0.148463354 -0.500000179
v -0.036441911 0.19999963 0.500000477
v -0.087978214 0.148463339 1.78813934E-07
v -0.0879782438 0.0755800754 -0.500000179
v -0.0879781768 0.148463324 0.500000477
v -0.0879782066 0.0647464097 1.78813934E-07
v -0.0364419892 0.0240437835 -0.500000179
v -0.0879781693 0.0755800456 0.500000477
v -0.036441952 0.0132101178 1.78813934E-07
v 0.0364413112 0.0240437835 -0.500000179
v -0.036441911 0.0240437835 0.500000477
v 0.0364413485 0.0132101178 1.78813934E-07
v 0.0879775807 0.0755800754 -0.500000179
v 0.0364413857 0.0240437835 0.500000477
v 0.087977618 0.0647464097 1.78813934E-07
v 0.0879775509 0.148463354 -0.500000179
v 0.0879776552 0.0755800754 0.500000477
v 0.0879775882 0.148463339 1.78813934E-07
v 0.0364413112 0.19999963 -0.500000179
v 0.0879776254 0.148463324 0.500000477
v 0.0364413485 0.19999963 1.78813934E-07
v 0.0364413895 0.19999963 0.500000477
v -0.0879782438 0.0755800754 -0.500000179
v -0.0364419892 0.0240437835 -0.500000179
v 0.0364413112 0.0240437835 -0.500000179
v 0.0879775807 0.0755800754 -0.500000179
v 0.0879775509 0.148463354 -0.500000179
v -0.0879782587 0.148463354 -0.500000179
v 0.0364413112 0.19999963 -0.500000179
v -0.0364419892 0.19999963 -0.500000179
v 0.0364413895 0.19999963 0.500000477
v -0.0879781768 0.148463324 0.500000477
v -0.036441911 0.19999963 0.500000477
v 0.0879776254 0.148463324 0.500000477
v 0.0879776552 0.0755800754 0.500000477
v -0.0879781693 0.0755800456 0.500000477
v 0.0364413857 0.0240437835 0.500000477
v -0.036441911 0.0240437835 0.500000477
v -3.57193301E-07 0.19999963 0.0364415273
v 0.5 0.19999963 -0.0364418179
v 0.5 0.19999963 0.0364414826
v -3.58062437E-07 0.19999963 -0.0364417732
v -0.500000656 0.19999963 0.0364415757
v 0.5 0.148463354 -0.0879780874
v -0.500000656 0.19999963 -0.0364417247
v -3.58676999E-07 0.148463339 -0.0879780352
v 0.5 0.0755800754 -0.0879780725
v -0.500000656 0.148463324 -0.0879779905
v -3.58676999E-07 0.0755800605 -0.0879780278
v 0.5 0.0240437835 -0.0364418179
v -0.500000656 0.0755800456 -0.0879779831
v -3.58062437E-07 0.0240437835 -0.0364417732
v 0.5 0.0240437835 0.0364414826
v -0.500000656 0.0240437835 -0.0364417247
v -3.57193301E-07 0.0240437835 0.0364415273
v 0.5 0.0755800754 0.0879777521
v -0.500000656 0.0240437835 0.036441572
v -3.56578738E-07 0.0755800754 0.0879777968
v 0.5 0.148463354 0.0879777223
v -0.500000656 0.0755800754 0.0879778415
v -3.56578738E-07 0.148463339 0.087977767
v 0.5 0.19999963 0.0364414826
v -0.500000656 0.148463324 0.0879778117
v -3.57193301E-07 0.19999963 0.0364415273
v -0.500000656 0.19999963 0.0364415757
v 0.5 0.0755800754 -0.0879780725
v 0.5 0.0240437835 -0.0364418179
v 0.5 0.0240437835 0.0364414826
v 0.5 0.0755800754 0.0879777521
v 0.5 0.148463354 0.0879777223
v 0.5 0.148463354 -0.0879780874
v 0.5 0.19999963 0.0364414826
v 0.5 0.19999963 -0.0364418179
v -0.500000656 0.19999963 0.0364415757
v -0.500000656 0.148463324 -0.0879779905
v -0.500000656 0.19999963 -0.0364417247
v -0.500000656 0.148463324 0.0879778117
v -0.500000656 0.0755800754 0.0879778415
v -0.500000656 0.0755800456 -0.0879779831
v -0.500000656 0.0240437835 0.036441572
v -0.500000656 0.0240437835 -0.0364417247
vt 0.849142313 0.0843069628
vt 0.849142313 0.0466221943
vt 0.837836862 0.0466221943
vt 0.837836862 0.0843069628
vt 0.849142313 0.0465905964
vt 0.849142313 0.00890581403
vt 0.837836862 0.00890581403
vt 0.837836862 0.0465905964
vt 0.849173903 0.00890581403
vt 0.849173903 0.0465905964
vt 0.860479355 0.0465905964
vt 0.860479355 0.00890581403
vt 0.860510945 0.00890581403
vt 0.860510945 0.0465905964
vt 0.871816397 0.0465905964
vt 0.871816397 0.00890581403
vt 0.98935926 0.0863736048
vt 0.98935926 0.0486888401
vt 0.951674521 0.0486888401
vt 0.951674521 0.0863736421
vt 0.98935926 0.0109724589
vt 0.951674521 0.0109724589
vt 0.951674521 0.0486572422
vt 0.98935926 0.0486572422
vt 0.449794501 0.350158036
vt 0.759927928 0.39536497
vt 0.759927928 0.350157857
vt 0.449794501 0.39536497
vt 0.139660716 0.350158036
vt 0.759927928 0.440571964
vt 0.139660984 0.39536503
vt 0.449794501 0.440572172
vt 0.759927928 0.485778987
vt 0.139660984 0.440572172
vt 0.449794501 0.485779166
vt 0.759927928 0.530986309
vt 0.139660984 0.485779166
vt 0.449794501 0.530986309
vt 0.759927928 0.576193273
vt 0.139660984 0.530986309
vt 0.449794501 0.576193273
vt 0.759927928 0.621400356
vt 0.139660984 0.576193273
vt 0.449794501 0.621400356
vt 0.759927928 0.66660738
vt 0.139660984 0.621400356
vt 0.449794501 0.66660738
vt 0.759928048 0.711814463
vt 0.139660984 0.66660738
vt 0.449794501 0.711814463
vt 0.139660984 0.711814523
vt 0.880690038 0.621400356
vt 0.848723829 0.589434206
vt 0.803516567 0.589434206
vt 0.771550596 0.621400356
vt 0.771550596 0.66660738
vt 0.880690038 0.66660738
vt 0.803516746 0.698573589
vt 0.848723829 0.698573589
vt 0.100363113 0.698573768
vt 0.0231896751 0.666607559
vt 0.0551560931 0.698573768
vt 0.132329345 0.66660738
vt 0.132329345 0.621400356
vt 0.0231896751 0.621400476
vt 0.100362904 0.589434206
vt 0.0551560931 0.589434266
vt 0.449794561 0.350158036
vt 0.759927988 0.395365
vt 0.759927988 0.350157857
vt 0.449794561 0.395365
vt 0.139660776 0.350158036
vt 0.759927988 0.440571964
vt 0.139661014 0.395365
vt 0.449794561 0.440572143
vt 0.759927988 0.485778987
vt 0.139661014 0.440572143
vt 0.449794561 0.485779166
vt 0.759927988 0.530986309
vt 0.139661014 0.485779166
vt 0.449794561 0.530986309
vt 0.759927988 0.576193273
vt 0.139661014 0.530986309
vt 0.449794561 0.576193273
vt 0.759927988 0.621400356
vt 0.139661014 0.576193273
vt 0.449794561 0.621400356
vt 0.759927988 0.66660738
vt 0.139661014 0.621400356
vt 0.449794561 0.66660738
vt 0.759928107 0.711814463
vt 0.139661014 0.66660738
vt 0.449794561 0.711814463
vt 0.139661014 0.711814523
vt 0.880690098 0.621400356
vt 0.848723888 0.589434206
vt 0.803516626 0.589434206
vt 0.771550655 0.621400356
vt 0.771550655 0.66660738
vt 0.880690098 0.66660738
vt 0.803516805 0.698573589
vt 0.848723888 0.698573589
vt 0.100363173 0.698573768
vt 0.0231897011 0.666607559
vt 0.055156149 0.698573768
vt 0.132329375 0.66660738
vt 0.132329375 0.621400356
vt 0.0231897011 0.621400476
vt 0.100362934 0.589434206
vt 0.055156149 0.589434266
vn -1 0 0
vn -1 0 0
vn -1 0 0
vn -1 0 0
vn -0 0 -1
vn -0 0 -1
vn -0 0 -1
vn -0 0 -1
vn 1 0 0
vn 1 0 0
vn 1 0 0
vn 1 0 0
vn -0 0 1
vn -0 0 1
vn -0 0 1
vn -0 0 1
vn -0 -1 0
vn -0 -1 0
vn -0 -1 0
vn -0 -1 0
vn -0 1 0
vn -0 1 0
vn -0 1 0
vn -0 1 0
vn 0.382683665 0.923879445 0
vn -0.382683635 0.923879445 0
vn 0.382683635 0.923879445 0
vn -0.382683575 0.923879445 0
vn 0.382683724 0.923879445 0
vn -0.923879623 0.382683218 0
vn -0.382683545 0.923879445 0
vn -0.923879623 0.382683218 0
vn -0.923857629 -0.38264659 -0.00829102006
vn -0.923879623 0.382683277 0
vn -0.922008216 -0.387170285 0
vn -0.382625878 -0.923686564 -0.020013785
vn -0.923857629 -0.38264662 0.00829117559
vn -0.380830228 -0.924645007 0
vn 0.382574052 -0.923708022 -0.0200143158
vn -0.382574052 -0.923708022 0.0200143028
vn 0.380830139 -0.924645007 0
vn 0.923857629 -0.382646352 -0.00829111971
vn 0.382574171 -0.923708022 0.0200142488
vn 0.922008216 -0.387170047 0
vn 0.923879504 0.382683307 0
vn 0.923857629 -0.382646352 0.00829101354
vn 0.923879504 0.382683337 0
vn 0.382683635 0.923879445 0
vn 0.923879504 0.382683337 0
vn 0.382683665 0.923879445 0
vn 0.382683724 0.923879445 0
vn -0 0 -1
vn -0 0 -1
vn -0 0 -1
vn -0 0 -1
vn -0 0 -1
vn -0 0 -1
vn -0 0 -1
vn -0 0 -1
vn -0 0 1
vn -0 0 1
vn -0 0 1
vn -0 0 1
vn -0 0 1
vn -0 0 1
vn -0 0 1
vn -0 0 1
vn -0 0.923879445 0.382683665
vn -0 0.923879445 -0.382683545
vn -0 0.923879445 0.382683635
vn -0 0.923879445 -0.382683545
vn -0 0.923879445 0.382683724
vn -0 0.382683247 -0.923879623
vn -0 0.923879445 -0.382683575
vn -0 0.382683218 -0.923879623
vn -0 -0.382683277 -0.923879504
vn -0 0.382683188 -0.923879623
vn -0 -0.382683396 -0.923879504
vn -0 -0.923879445 -0.382683545
vn -0 -0.382683396 -0.923879504
vn -0 -0.923879445 -0.382683545
vn -0 -0.923879445 0.382683545
vn -0 -0.923879504 -0.382683545
vn -0 -0.923879504 0.382683545
vn -0 -0.382683158 0.923879623
vn -0 -0.923879445 0.382683545
vn -0 -0.382683158 0.923879623
vn -0 0.382683337 0.923879504
vn -0 -0.382683128 0.923879623
vn -0 0.382683337 0.923879504
vn -0 0.923879445 0.382683635
vn -0 0.382683307 0.923879504
vn -0 0.923879445 0.382683665
vn -0 0.923879445 0.382683724
vn 1 0 0
vn 1 0 0
vn 1 0 0
vn 1 0 0
vn 1 0 0
vn 1 0 0
vn 1 0 0
vn 1 0 0
vn -1 0 0
vn -1 0 0
vn -1 0 0
vn -1 0 0
vn -1 0 0
vn -1 0 0
vn -1 0 0
vn -1 0 0
g Adobe_Roof_Fill_0
f 3/3/3 2/2/2 1/1/1
f 4/4/4 3/3/3 1/1/1
f 7/7/7 6/6/6 5/5/5
f 8/8/8 7/7/7 5/5/5
f 11/11/11 10/10/10 9/9/9
f 12/12/12 11/11/11 9/9/9
f 15/15/15 14/14/14 13/13/13
f 16/16/16 15/15/15 13/13/13
f 19/19/19 18/18/18 17/17/17
f 20/20/20 19/19/19 17/17/17
f 23/23/23 22/22/22 21/21/21
f 24/24/24 23/23/23 21/21/21
f 27/27/27 26/26/26 25/25/25
f 26/26/26 28/28/28 25/25/25
f 25/25/25 28/28/28 29/29/29
f 26/26/26 30/30/30 28/28/28
f 28/28/28 31/31/31 29/29/29
f 30/30/30 32/32/32 28/28/28
f 28/28/28 32/32/32 31/31/31
f 30/30/30 33/33/33 32/32/32
f 32/32/32 34/34/34 31/31/31
f 33/33/33 35/35/35 32/32/32
f 32/32/32 35/35/35 34/34/34
f 33/33/33 36/36/36 35/35/35
f 35/35/35 37/37/37 34/34/34
f 36/36/36 38/38/38 35/35/35
f 35/35/35 38/38/38 37/37/37
f 36/36/36 39/39/39 38/38/38
f 38/38/38 40/40/40 37/37/37
f 39/39/39 41/41/41 38/38/38
f 38/38/38 41/41/41 40/40/40
f 39/39/39 42/42/42 41/41/41
f 41/41/41 43/43/43 40/40/40
f 42/42/42 44/44/44 41/41/41
f 41/41/41 44/44/44 43/43/43
f 42/42/42 45/45/45 44/44/44
f 44/44/44 46/46/46 43/43/43
f 45/45/45 47/47/47 44/44/44
f 44/44/44 47/47/47 46/46/46
f 45/45/45 48/48/48 47/47/47
f 47/47/47 49/49/49 46/46/46
f 48/48/48 50/50/50 47/47/47
f 47/47/47 50/50/50 49/49/49
f 50/50/50 51/51/51 49/49/49
f 54/54/54 53/53/53 52/52/52
f 55/55/55 54/54/54 52/52/52
f 56/56/56 55/55/55 52/52/52
f 57/57/57 56/56/56 52/52/52
f 58/58/58 56/56/56 57/57/57
f 59/59/59 58/58/58 57/57/57
f 62/62/62 61/61/61 60/60/60
f 61/61/61 63/63/63 60/60/60
f 63/63/63 61/61/61 64/64/64
f 61/61/61 65/65/65 64/64/64
f 64/64/64 65/65/65 66/66/66
f 65/65/65 67/67/67 66/66/66
f 70/70/70 69/69/69 68/68/68
f 69/69/69 71/71/71 68/68/68
f 68/68/68 71/71/71 72/72/72
f 69/69/69 73/73/73 71/71/71
f 71/71/71 74/74/74 72/72/72
f 73/73/73 75/75/75 71/71/71
f 71/71/71 75/75/75 74/74/74
f 73/73/73 76/76/76 75/75/75
f 75/75/75 77/77/77 74/74/74
f 76/76/76 78/78/78 75/75/75
f 75/75/75 78/78/78 77/77/77
f 76/76/76 79/79/79 78/78/78
f 78/78/78 80/80/80 77/77/77
f 79/79/79 81/81/81 78/78/78
f 78/78/78 81/81/81 80/80/80
f 79/79/79 82/82/82 81/81/81
f 81/81/81 83/83/83 80/80/80
f 82/82/82 84/84/84 81/81/81
f 81/81/81 84/84/84 83/83/83
f 82/82/82 85/85/85 84/84/84
f 84/84/84 86/86/86 83/83/83
f 85/85/85 87/87/87 84/84/84
f 84/84/84 87/87/87 86/86/86
f 85/85/85 88/88/88 87/87/87
f 87/87/87 89/89/89 86/86/86
f 88/88/88 90/90/90 87/87/87
f 87/87/87 90/90/90 89/89/89
f 88/88/88 91/91/91 90/90/90
f 90/90/90 92/92/92 89/89/89
f 91/91/91 93/93/93 90/90/90
f 90/90/90 93/93/93 92/92/92
f 93/93/93 94/94/94 92/92/92
f 97/97/97 96/96/96 95/95/95
f 98/98/98 97/97/97 95/95/95
f 99/99/99 98/98/98 95/95/95
f 100/100/100 99/99/99 95/95/95
f 101/101/101 99/99/99 100/100/100
f 102/102/102 101/101/101 100/100/100
f 105/105/105 104/104/104 103/103/103
f 104/104/104 106/106/106 103/103/103
f 106/106/106 104/104/104 107/107/107
f 104/104/104 108/108/108 107/107/107
f 107/107/107 108/108/108 109/109/109
f 108/108/108 110/110/110 109/109/109
