g Adobe_Roof_Solo
v 0.469996095 0.50000006 0.270000577
v 0.5 -0.50000006 0.19999972
v 0.469996095 -0.50000006 0.270000577
v 0.5 0.50000006 0.19999972
v 0.5 0.50000006 -0.199999243
v 0.5 -0.50000006 -0.199999243
v 0.469996095 -0.50000006 -0.2700001
v 0.469996095 0.50000006 -0.2700001
v -0.5 0.50000006 0.19999972
v -0.469996095 0.50000006 0.270000577
v -0.469996095 -0.50000006 0.270000577
v -0.5 -0.50000006 0.19999972
v -0.5 0.50000006 -0.199999243
v -0.5 -0.50000006 -0.199999243
v -0.469996095 0.50000006 -0.2700001
v -0.469996095 -0.50000006 -0.2700001
v 0.399997145 0.50000006 0.300000191
v 0.469996095 0.50000006 0.270000577
v 0.469996095 -0.50000006 0.270000577
v 0.399997145 -0.50000006 0.300000191
v -0.399997145 0.50000006 0.300000191
v -0.399997145 -0.50000006 0.300000191
v -0.469996095 0.50000006 0.270000577
v -0.469996095 -0.50000006 0.270000577
v 0.469996095 -0.50000006 -0.2700001
v 0.5 -0.50000006 0.19999972
v 0.5 -0.50000006 -0.199999243
v 0.469996095 -0.50000006 0.270000577
v 0.399997145 -0.50000006 -0.299999714
v 0.399997145 -0.50000006 0.300000191
v -0.399997145 -0.50000006 -0.299999714
v -0.399997145 -0.50000006 0.300000191
v -0.469996095 -0.50000006 -0.2700001
v -0.469996095 -0.50000006 0.270000577
v -0.5 -0.50000006 -0.199999243
v -0.5 -0.50000006 0.19999972
v 0.469996095 0.50000006 -0.2700001
v 0.399997145 -0.50000006 -0.299999714
v 0.469996095 -0.50000006 -0.2700001
v 0.399997145 0.50000006 -0.299999714
v -0.399997145 0.50000006 -0.299999714
v -0.399997145 -0.50000006 -0.299999714
v -0.469996095 -0.50000006 -0.2700001
v -0.469996095 0.50000006 -0.2700001
v 0.5 0.50000006 0.19999972
v 0.469996095 0.50000006 -0.2700001
v 0.5 0.50000006 -0.199999243
v 0.469996095 0.50000006 0.270000577
v 0.399997145 0.50000006 -0.299999714
v 0.399997145 0.50000006 0.300000191
v -0.399997145 0.50000006 -0.299999714
v -0.399997145 0.50000006 0.300000191
v -0.469996095 0.50000006 -0.2700001
v -0.469996095 0.50000006 0.270000577
v -0.5 0.50000006 -0.199999243
v -0.5 0.50000006 0.19999972
vt 0.819647193 0.089612253
vt 0.825959563 0.00672963075
vt 0.819647312 0.00672963075
vt 0.825959623 0.089612253
vt 0.892265618 0.0896122679
vt 0.892265618 0.00672963075
vt 0.898577988 0.00672963075
vt 0.898577988 0.0896122679
vt 0.892265201 0.0896122679
vt 0.898577511 0.0896122679
vt 0.898577511 0.00672963075
vt 0.892265201 0.00672963075
vt 0.825959206 0.0896122679
vt 0.825959206 0.00672963075
vt 0.819646835 0.0896122679
vt 0.819646835 0.00672963075
vt 0.89226526 0.0896130949
vt 0.898577332 0.0896130949
vt 0.898577332 0.00673047639
vt 0.89226526 0.00673047639
vt 0.825959623 0.0896130949
vt 0.825959623 0.00673047639
vt 0.81964767 0.0896130949
vt 0.81964767 0.00673047639
vt 0.806718647 0.0101745743
vt 0.878826499 0.00768777542
vt 0.812520504 0.00768776797
vt 0.884628356 0.0101745818
vt 0.80423218 0.0159762632
vt 0.887114823 0.0159762818
vt 0.804232121 0.082281895
vt 0.887114823 0.0822819173
vt 0.806718588 0.0880835801
vt 0.884628356 0.088083595
vt 0.812520504 0.0905703902
vt 0.878826499 0.0905703902
vt 0.819646478 0.0896130949
vt 0.82595855 0.00673047639
vt 0.819646478 0.00673047639
vt 0.82595855 0.0896130949
vt 0.892264187 0.0896130949
vt 0.892264187 0.00673047639
vt 0.89857626 0.00673047639
vt 0.89857626 0.0896130949
vt 0.964346945 0.088073343
vt 0.931211233 0.0859580636
vt 0.936146438 0.088073343
vt 0.969282091 0.0859580636
vt 0.929096222 0.0810230076
vt 0.971397161 0.0810230076
vt 0.929096222 0.0246222056
vt 0.971397161 0.0246222056
vt 0.931211233 0.0196871646
vt 0.969282091 0.0196871646
vt 0.936146438 0.0175718442
vt 0.964346945 0.0175718442
vn 0.707091928 0 0.707121551
vn 0.979573369 0 0.20108673
vn 0.707091928 0 0.707121551
vn 0.979573369 0 0.20108673
vn 0.979573369 0 -0.20108673
vn 0.979573369 0 -0.20108673
vn 0.707091928 0 -0.707121551
vn 0.707091928 0 -0.707121551
vn -0.979573369 0 0.20108673
vn -0.707091928 0 0.707121551
vn -0.707091928 0 0.707121551
vn -0.979573369 0 0.20108673
vn -0.979573369 0 -0.20108673
vn -0.979573369 0 -0.20108673
vn -0.707091928 0 -0.707121551
vn -0.707091928 0 -0.707121551
vn 0.201066256 0 0.979577601
vn 0.707091928 0 0.707121551
vn 0.707091928 0 0.707121551
vn 0.201066256 0 0.979577601
vn -0.201066256 0 0.979577601
vn -0.201066256 0 0.979577601
vn -0.707091928 0 0.707121551
vn -0.707091928 0 0.707121551
vn -0 -1 0
vn -0 -1 0
vn -0 -1 0
vn -0 -1 0
vn -0 -1 0
vn -0 -1 0
vn -0 -1 0
vn -0 -1 0
vn -0 -1 0
vn -0 -1 0
vn -0 -1 0
vn -0 -1 0
vn 0.707091928 0 -0.707121551
vn 0.201066256 0 -0.979577601
vn 0.707091928 0 -0.707121551
vn 0.201066256 0 -0.979577601
vn -0.201066256 0 -0.979577601
vn -0.201066256 0 -0.979577601
vn -0.707091928 0 -0.707121551
vn -0.707091928 0 -0.707121551
vn -0 1 0
vn -0 1 0
vn -0 1 0
vn -0 1 0
vn -0 1 0
vn -0 1 0
vn -0 1 0
vn -0 1 0
vn -0 1 0
vn -0 1 0
vn -0 1 0
vn -0 1 0
g Adobe_Roof_Solo_0
f 3/3/3 2/2/2 1/1/1
f 2/2/2 4/4/4 1/1/1
f 5/5/5 4/4/4 2/2/2
f 6/6/6 5/5/5 2/2/2
f 6/6/6 7/7/7 5/5/5
f 7/7/7 8/8/8 5/5/5
f 11/11/11 10/10/10 9/9/9
f 12/12/12 11/11/11 9/9/9
f 12/12/12 9/9/9 13/13/13
f 14/14/14 12/12/12 13/13/13
f 14/14/14 13/13/13 15/15/15
f 16/16/16 14/14/14 15/15/15
f 19/19/19 18/18/18 17/17/17
f 20/20/20 19/19/19 17/17/17
f 17/17/17 21/21/21 20/20/20
f 21/21/21 22/22/22 20/20/20
f 22/22/22 21/21/21 23/23/23
f 24/24/24 22/22/22 23/23/23
f 27/27/27 26/26/26 25/25/25
f 26/26/26 28/28/28 25/25/25
f 25/25/25 28/28/28 29/29/29
f 28/28/28 30/30/30 29/29/29
f 29/29/29 30/30/30 31/31/31
f 30/30/30 32/32/32 31/31/31
f 31/31/31 32/32/32 33/33/33
f 32/32/32 34/34/34 33/33/33
f 33/33/33 34/34/34 35/35/35
f 34/34/34 36/36/36 35/35/35
f 39/39/39 38/38/38 37/37/37
f 38/38/38 40/40/40 37/37/37
f 40/40/40 38/38/38 41/41/41
f 38/38/38 42/42/42 41/41/41
f 42/42/42 43/43/43 41/41/41
f 43/43/43 44/44/44 41/41/41
f 47/47/47 46/46/46 45/45/45
f 46/46/46 48/48/48 45/45/45
f 46/46/46 49/49/49 48/48/48
f 49/49/49 50/50/50 48/48/48
f 49/49/49 51/51/51 50/50/50
f 51/51/51 52/52/52 50/50/50
f 51/51/51 53/53/53 52/52/52
f 53/53/53 54/54/54 52/52/52
f 53/53/53 55/55/55 54/54/54
f 55/55/55 56/56/56 54/54/54
