g Adobe_Stairs_Corner
v -0.5 -0.5 0.49999994
v -0.50000006 -0.199494809 0.5
v -0.5 -0.199999839 0.49999994
v 0.166666657 0.469999969 -0.166666642
v 0.199155837 0.49999994 -0.199155793
v 0.50000006 0.49999997 -0.199203193
v 0.50000006 0.467519879 -0.166666567
v -0.218595892 -0.169999897 0.218595833
v -0.166666657 -0.114518605 0.166666642
v 0.49999997 -0.114518628 0.166666746
v 0.5 -0.166666687 0.218814805
v 0.5 -0.166666687 0.218814805
v 0.49999994 -0.199176267 0.50000006
v 0.49999994 -0.166666687 0.467448831
v 0.49999994 -0.5 0.50000006
v 0.49999997 -0.114518628 0.166666746
v 0.5 -0.5 -0.49999994
v 0.5 0.166666627 -0.114518523
v 0.49999997 0.134757355 0.166666776
v 0.49999997 0.166666627 0.134057969
v 0.50000006 0.218814686 -0.166666582
v 0.5 0.5 -0.49999994
v 0.50000006 0.467519879 -0.166666567
v 0.50000006 0.49999997 -0.199203193
v 0.166666657 0.218814686 -0.49999997
v 0.166666672 0.220000148 -0.166666642
v 0.114625126 0.16000016 -0.114625111
v 0.114518598 0.166666627 -0.49999997
v 0.5 -0.5 -0.49999994
v -0.5 -0.5 0.49999994
v 0.49999994 -0.5 0.50000006
v -0.5 -0.5 -0.5
v 0.50000006 0.467519879 -0.166666567
v 0.50000006 0.218814686 -0.166666582
v 0.166666672 0.220000148 -0.166666642
v 0.166666657 0.469999969 -0.166666642
v 0.166666642 0.467519879 -0.49999997
v 0.166666657 0.218814686 -0.49999997
v 0.114625074 0.141076446 0.134122655
v -0.13193129 0.0815201849 0.138094351
v -0.0994519666 0.111520201 0.105615035
v 0.114625081 0.110121809 0.166666716
v 0.49999997 0.166666627 0.134057969
v 0.49999997 0.134757355 0.166666776
v 0.0161904432 -0.193641305 0.467533916
v -0.5 -0.199999839 0.49999994
v -0.467619061 -0.169999808 0.467619002
v 0.0142053282 -0.224896118 0.5
v 0.49999994 -0.166666687 0.467448831
v 0.49999994 -0.199176267 0.50000006
v 0.5 0.5 -0.49999994
v 0.50000006 0.49999997 -0.199203193
v 0.199155837 0.49999994 -0.199155793
v 0.199203268 0.49999997 -0.5
v 0.166666657 0.469999969 -0.166666642
v 0.166666642 0.467519879 -0.49999997
v 0.199203268 0.49999997 -0.5
v 0.199155837 0.49999994 -0.199155793
v -0.218814731 -0.166666687 -0.49999997
v -0.166666672 -0.114518628 -0.5
v -0.166666657 -0.114518605 0.166666642
v -0.218595892 -0.169999897 0.218595833
v -0.218814731 -0.166666687 -0.49999997
v -0.467619061 -0.169999808 0.467619002
v -0.467448771 -0.166666687 -0.5
v -0.218595892 -0.169999897 0.218595833
v 0.0161904432 -0.193641305 0.467533916
v 0.5 -0.166666687 0.218814805
v 0.49999994 -0.166666687 0.467448831
v -0.218814731 -0.166666687 -0.49999997
v -0.467448771 -0.166666687 -0.5
v -0.5 -0.199176267 -0.5
v -0.5 -0.5 -0.5
v 0.5 -0.5 -0.49999994
v -0.166666672 -0.114518628 -0.5
v 0.114518598 0.166666627 -0.49999997
v -0.166666701 0.134757355 -0.5
v -0.134057894 0.166666627 -0.5
v 0.166666657 0.218814686 -0.49999997
v 0.5 0.5 -0.49999994
v 0.166666642 0.467519879 -0.49999997
v 0.199203268 0.49999997 -0.5
v -0.13412264 0.136733711 -0.230901852
v -0.0994519666 0.111520201 0.105615035
v -0.13193129 0.0815201849 0.138094351
v -0.166666701 0.105779059 -0.230901822
v -0.134057894 0.166666627 -0.5
v -0.166666701 0.134757355 -0.5
v -0.467448771 -0.166666687 -0.5
v -0.467619061 -0.169999808 0.467619002
v -0.5 -0.199999839 0.49999994
v -0.5 -0.199176267 -0.5
v -0.5 -0.199176267 -0.5
v -0.5 -0.5 0.49999994
v -0.5 -0.5 -0.5
v -0.5 -0.199999839 0.49999994
v 0.0142053282 -0.224896118 0.5
v -0.5 -0.5 0.49999994
v 0.49999994 -0.5 0.50000006
v 0.49999994 -0.199176267 0.50000006
v 0.49999997 0.166666627 0.134057969
v 0.114625126 0.16000016 -0.114625111
v 0.5 0.166666627 -0.114518523
v 0.114625074 0.141076446 0.134122655
v -0.0994519666 0.111520201 0.105615035
v -0.13412264 0.136733711 -0.230901852
v -0.134057894 0.166666627 -0.5
v 0.114518598 0.166666627 -0.49999997
v -0.166666701 0.134757355 -0.5
v -0.166666657 -0.114518605 0.166666642
v -0.166666672 -0.114518628 -0.5
v -0.166666701 0.105779059 -0.230901822
v -0.13193129 0.0815201849 0.138094351
v 0.114625081 0.110121809 0.166666716
v 0.49999997 0.134757355 0.166666776
v 0.49999997 -0.114518628 0.166666746
v 0.114625126 0.16000016 -0.114625111
v 0.166666672 0.220000148 -0.166666642
v 0.50000006 0.218814686 -0.166666582
v 0.5 0.166666627 -0.114518523
vt 0.375 1
vt 0.414910823 1
vt 0.414255857 0.875
vt 0.381961584 0.0984276235
vt 0.422002316 0.0433456302
vt 0.79534328 0.0413750112
vt 0.795638084 0.0984274894
vt 0.796751857 0.00262132287
vt 0.763602972 0.0964602381
vt 0.33965084 0.0964602381
vt 0.339769244 0.00262139738
vt 0.87062031 0.0405960009
vt 0.869347036 0.0516087636
vt 0.87062031 0.0503338836
vt 0.857565165 0.0516087636
vt 0.872662723 0.0385535881
vt 0.857565165 0.0124432556
vt 0.883675516 0.0275408253
vt 0.882425725 0.0385535881
vt 0.883675516 0.0372764617
vt 0.885717869 0.0254984144
vt 0.896730661 0.0124432407
vt 0.895458579 0.0254984144
vt 0.896730661 0.0242241044
vt 0.340043277 0.0991392657
vt 0.73917073 0.0991393104
vt 0.796754181 0.00173327327
vt 0.340520054 0.00173328817
vt 0.818399608 0.0124432407
vt 0.857565165 0.0516087636
vt 0.857565165 0.0124432556
vt 0.818399608 0.0516087636
vt 0.845044553 0.0488091446
vt 0.861322701 0.0488091446
vt 0.861245155 0.0269919559
vt 0.84488225 0.0269919336
vt 0.845044553 0.00517475931
vt 0.861322701 0.00517475931
vt 0.603239059 0.0434244648
vt 0.339936912 0.0997358263
vt 0.363375962 0.0434244797
vt 0.602564096 0.0997358263
vt 0.796893299 0.043424435
vt 0.796893299 0.0997358039
vt 0.575496733 0.052518785
vt 0.338840365 0.0998563766
vt 0.353698015 0.0533812456
vt 0.574535847 0.0998563468
vt 0.797342837 0.0525187552
vt 0.797274649 0.0998563245
vt 0.980414748 0.0744096413
vt 0.980414748 0.0578952469
vt 0.963897705 0.0578926541
vt 0.963900328 0.0744096413
vt 0.381961554 0.0984276235
vt 0.795638084 0.0984274894
vt 0.79534328 0.0413750075
vt 0.422002286 0.0433456302
vt 0.339769244 0.0026214458
vt 0.33965084 0.0964602381
vt 0.763602972 0.0964603946
vt 0.796751857 0.00262139738
vt 0.963897705 0.0625290945
vt 0.910770655 0.0761796311
vt 0.963895321 0.0761796311
vt 0.924444914 0.0625100508
vt 0.910748124 0.0495857932
vt 0.924548447 0.0230573472
vt 0.910898089 0.0229827818
vt 0.846552372 0.0646639392
vt 0.856290221 0.0646639392
vt 0.857565165 0.0633906797
vt 0.857565165 0.0516087636
vt 0.818399608 0.0516087636
vt 0.844509959 0.0667063519
vt 0.833497226 0.0777191147
vt 0.844509959 0.0764693618
vt 0.84323281 0.0777191147
vt 0.831454813 0.0797615051
vt 0.818399608 0.0907742903
vt 0.831454813 0.0895021707
vt 0.830180466 0.0907742903
vt 0.603239059 0.0434244648
vt 0.363375962 0.0434244797
vt 0.339936912 0.0997358263
vt 0.602564096 0.0997358263
vt 0.796893299 0.043424435
vt 0.796893299 0.0997358039
vt 0.797342837 0.0525188074
vt 0.353698015 0.0533812456
vt 0.338840365 0.0998563766
vt 0.797329843 0.0998563245
vt 0.806617737 0.0124432407
vt 0.818399608 0.0516087636
vt 0.818399608 0.0124432407
vt 0.806649983 0.0516087636
vt 0.807625055 0.0717478767
vt 0.818399608 0.0516087636
vt 0.818399608 0.0907742754
vt 0.806617737 0.0907742754
vt 0.96394074 0.0229827818
vt 0.977593899 0.0441438295
vt 0.977588058 0.0229827818
vt 0.963897705 0.0441872217
vt 0.96537292 0.0560635366
vt 0.9839077 0.0578926541
vt 0.99877286 0.0578694977
vt 0.998754859 0.0442221202
vt 0.822285235 0.00759073673
vt 0.84488225 0.0483280942
vt 0.838420928 0.00517475931
vt 0.826769114 0.0247286167
vt 0.831719339 0.0485293232
vt 0.827614963 0.064358905
vt 0.822285235 0.0890654549
vt 0.838420868 0.0914814249
vt 0.796754122 0.00173328817
vt 0.739170611 0.0991392657
vt 0.340043277 0.0991392508
vt 0.340520054 0.00173328817
vn 1 0 0
vn 1 0 0
vn 1 0 0
vn -0.648765981 0.397750616 0.648765743
vn -0.292143404 0.910661519 0.292143404
vn 0.00154623063 0.927472115 0.37388894
vn 0.00155239669 0.389827728 0.920886457
vn -0.103813179 0.985380709 0.135084137
vn -0.563801348 0.60785532 0.559142172
vn -0.000964185107 0.375207067 0.92694056
vn -0.0144477924 0.90851599 0.417600214
vn 1 0 0
vn 1 0 0
vn 1 0 0
vn 1 0 0
vn 1 0 0
vn 1 0 0
vn 1 0 0
vn 1 0 0
vn 1 0 0
vn 1 0 0
vn 1 0 0
vn 1 0 0
vn 1 0 0
vn -0.930146277 0.367177963 0.00285856682
vn -0.591174364 0.548658252 0.591174245
vn -0.182412967 0.96964252 0.16284661
vn -0.427404612 0.903466046 0.0327792428
vn -0 -1 0
vn -0 -1 0
vn -0 -1 0
vn -0 -1 0
vn 0.00155239669 0.389827728 0.920886457
vn -0.00285872445 0.367177874 0.930146396
vn -0.591174364 0.548658252 0.591174245
vn -0.648765981 0.397750616 0.648765743
vn -0.920886457 0.389827818 -0.00155251799
vn -0.930146277 0.367177963 0.00285856682
vn -0.10703788 0.91507405 0.3888219
vn -0.628749192 0.476828724 0.614254773
vn -0.354997426 0.882710695 0.307893723
vn -0.0738575459 0.420342326 0.904354692
vn -0.0473565422 0.92119813 0.386201084
vn -0.0263011791 0.404111326 0.914331555
vn -0.00474564498 0.913285911 0.407291502
vn -0.644849181 0.404518932 0.648485959
vn -0.273754507 0.91342777 0.301177859
vn -0.000426935178 0.377902597 0.925845265
vn -0.0340162478 0.915701807 0.400416195
vn -0.0216221474 0.39848572 0.916919649
vn -0 1 0
vn 0.00154623063 0.927472115 0.37388894
vn -0.292143404 0.910661519 0.292143404
vn -0.37388885 0.927472234 -0.00154647871
vn -0.648765981 0.397750616 0.648765743
vn -0.920886457 0.389827818 -0.00155251799
vn -0.37388885 0.927472234 -0.00154647871
vn -0.292143404 0.910661519 0.292143404
vn -0.389566153 0.920993209 0.00311757345
vn -0.92694056 0.375206977 0.000964042265
vn -0.563801348 0.60785532 0.559142172
vn -0.103813179 0.985380709 0.135084137
vn -0.389566153 0.920993209 0.00311757345
vn -0.273754507 0.91342777 0.301177859
vn -0.372398019 0.928068519 0.00292178732
vn -0.103813179 0.985380709 0.135084137
vn -0.00474564498 0.913285911 0.407291502
vn -0.0144477924 0.90851599 0.417600214
vn -0.0340162478 0.915701807 0.400416195
vn -0 0 -1
vn -0 0 -1
vn -0 0 -1
vn -0 0 -1
vn -0 0 -1
vn -0 0 -1
vn -0 0 -1
vn -0 0 -1
vn -0 0 -1
vn -0 0 -1
vn -0 0 -1
vn -0 0 -1
vn -0 0 -1
vn -0.40904054 0.9083516 0.0870817304
vn -0.354997426 0.882710695 0.307893723
vn -0.628749192 0.476828724 0.614254773
vn -0.911902368 0.405967057 0.0602070317
vn -0.392094076 0.917165935 0.0711961761
vn -0.909751177 0.412694246 0.0451257825
vn -0.372398019 0.928068519 0.00292178732
vn -0.273754507 0.91342777 0.301177859
vn -0.644849181 0.404518932 0.648485959
vn -0.920023322 0.391862661 0.000795228814
vn -0.920023322 0.391862661 0.000795228814
vn -1 0 0
vn -1 0 0
vn -0.644849181 0.404518932 0.648485959
vn -0.000426935178 0.377902597 0.925845265
vn -0 0 1
vn -0 0 1
vn -0.0216221474 0.39848572 0.916919649
vn -0.0473565422 0.92119813 0.386201084
vn -0.182412967 0.96964252 0.16284661
vn -0.0254011899 0.908291519 0.417565972
vn -0.10703788 0.91507405 0.3888219
vn -0.354997426 0.882710695 0.307893723
vn -0.40904054 0.9083516 0.0870817304
vn -0.392094076 0.917165935 0.0711961761
vn -0.427404612 0.903466046 0.0327792428
vn -0.909751177 0.412694246 0.0451257825
vn -0.563801348 0.60785532 0.559142172
vn -0.92694056 0.375206977 0.000964042265
vn -0.911902368 0.405967057 0.0602070317
vn -0.628749192 0.476828724 0.614254773
vn -0.0738575459 0.420342326 0.904354692
vn -0.0263011791 0.404111326 0.914331555
vn -0.000964185107 0.375207067 0.92694056
vn -0.182412967 0.96964252 0.16284661
vn -0.591174364 0.548658252 0.591174245
vn -0.00285872445 0.367177874 0.930146396
vn -0.0254011899 0.908291519 0.417565972
g Adobe_Stairs_Corner_0
f 3/3/3 2/2/2 1/1/1
f 6/6/6 5/5/5 4/4/4
f 7/7/7 6/6/6 4/4/4
f 10/10/10 9/9/9 8/8/8
f 11/11/11 10/10/10 8/8/8
f 14/14/14 13/13/13 12/12/12
f 13/13/13 15/15/15 12/12/12
f 16/16/16 12/12/12 15/15/15
f 17/17/17 16/16/16 15/15/15
f 18/18/18 16/16/16 17/17/17
f 19/19/19 16/16/16 18/18/18
f 20/20/20 19/19/19 18/18/18
f 21/21/21 18/18/18 17/17/17
f 22/22/22 21/21/21 17/17/17
f 23/23/23 21/21/21 22/22/22
f 24/24/24 23/23/23 22/22/22
f 27/27/27 26/26/26 25/25/25
f 28/28/28 27/27/27 25/25/25
f 31/31/31 30/30/30 29/29/29
f 30/30/30 32/32/32 29/29/29
f 35/35/35 34/34/34 33/33/33
f 36/36/36 35/35/35 33/33/33
f 35/35/35 36/36/36 37/37/37
f 38/38/38 35/35/35 37/37/37
f 41/41/41 40/40/40 39/39/39
f 40/40/40 42/42/42 39/39/39
f 39/39/39 42/42/42 43/43/43
f 42/42/42 44/44/44 43/43/43
f 47/47/47 46/46/46 45/45/45
f 46/46/46 48/48/48 45/45/45
f 45/45/45 48/48/48 49/49/49
f 48/48/48 50/50/50 49/49/49
f 53/53/53 52/52/52 51/51/51
f 54/54/54 53/53/53 51/51/51
f 57/57/57 56/56/56 55/55/55
f 58/58/58 57/57/57 55/55/55
f 61/61/61 60/60/60 59/59/59
f 62/62/62 61/61/61 59/59/59
f 65/65/65 64/64/64 63/63/63
f 64/64/64 66/66/66 63/63/63
f 64/64/64 67/67/67 66/66/66
f 66/66/66 67/67/67 68/68/68
f 67/67/67 69/69/69 68/68/68
f 72/72/72 71/71/71 70/70/70
f 73/73/73 72/72/72 70/70/70
f 73/73/73 70/70/70 74/74/74
f 70/70/70 75/75/75 74/74/74
f 74/74/74 75/75/75 76/76/76
f 75/75/75 77/77/77 76/76/76
f 77/77/77 78/78/78 76/76/76
f 74/74/74 76/76/76 79/79/79
f 80/80/80 74/74/74 79/79/79
f 79/79/79 81/81/81 80/80/80
f 81/81/81 82/82/82 80/80/80
f 85/85/85 84/84/84 83/83/83
f 86/86/86 85/85/85 83/83/83
f 86/86/86 83/83/83 87/87/87
f 88/88/88 86/86/86 87/87/87
f 91/91/91 90/90/90 89/89/89
f 92/92/92 91/91/91 89/89/89
f 95/95/95 94/94/94 93/93/93
f 94/94/94 96/96/96 93/93/93
f 96/96/96 98/98/98 97/97/97
f 98/98/98 99/99/99 97/97/97
f 97/97/97 99/99/99 100/100/100
f 103/103/103 102/102/102 101/101/101
f 102/102/102 104/104/104 101/101/101
f 102/102/102 105/105/105 104/104/104
f 105/105/105 102/102/102 106/106/106
f 106/106/106 102/102/102 107/107/107
f 102/102/102 108/108/108 107/107/107
f 111/111/111 110/110/110 109/109/109
f 110/110/110 112/112/112 109/109/109
f 110/110/110 113/113/113 112/112/112
f 113/113/113 110/110/110 114/114/114
f 114/114/114 110/110/110 115/115/115
f 110/110/110 116/116/116 115/115/115
f 119/119/119 118/118/118 117/117/117
f 120/120/120 119/119/119 117/117/117
