g Adobe_Wall_T_Solo
v -0.500022054 -0.469999909 0.270019174
v 0.499998808 -0.469999909 0.27000308
v 0.499996424 -0.499999911 0.200003386
v -0.50001967 -0.499999911 0.200019479
v -0.200002193 -0.499999911 -0.20000124
v -0.50001967 -0.499999911 -0.199981451
v -0.270002186 -0.469999701 -0.270001233
v -0.50001967 -0.46999982 -0.26998204
v -0.270002037 -0.46999982 -0.500000119
v -0.200001448 -0.499999911 -0.500000119
v 0.200001717 -0.499999911 -0.20000124
v 0.499996424 -0.499999911 -0.199997544
v 0.499996424 -0.46999982 -0.269998133
v 0.200000972 -0.499999911 -0.500000119
v 0.270001709 -0.469999701 -0.270001233
v 0.27000156 -0.46999982 -0.500000119
v 0.499998808 0.469999909 0.27000308
v -0.500019193 0.399999917 0.300019383
v -0.500022054 0.469999909 0.270019174
v 0.499995947 0.399999917 0.30000329
v -0.500019193 -0.399999917 0.300019383
v 0.499995947 -0.399999917 0.30000329
v -0.500022054 -0.469999909 0.270019174
v 0.499998808 -0.469999909 0.27000308
v -0.50001967 0.499999911 0.200019479
v 0.499998808 0.469999909 0.27000308
v -0.500022054 0.469999909 0.270019174
v 0.499996424 0.499999911 0.200003386
v 0.200001776 0.499999911 -0.200001299
v 0.499996424 0.499999911 -0.199997842
v 0.270001471 0.46999982 -0.270001054
v 0.499996424 0.46999982 -0.269997805
v 0.270001233 0.46999982 -0.500000119
v 0.20000127 0.499999911 -0.500000119
v -0.200002253 0.499999911 -0.200001299
v -0.50001967 0.499999911 -0.199981749
v -0.50001967 0.46999982 -0.269981712
v -0.200001746 0.499999911 -0.500000119
v -0.270001948 0.46999982 -0.270001054
v -0.270001709 0.46999982 -0.500000119
v 0.300000757 0.399999768 -0.30000034
v 0.499996424 0.46999982 -0.269997805
v 0.270001471 0.46999982 -0.270001054
v 0.499996901 0.399999768 -0.29999736
v 0.300000757 -0.399999768 -0.30000034
v 0.499996901 -0.399999768 -0.29999736
v 0.270001709 -0.469999701 -0.270001233
v 0.499996424 -0.46999982 -0.269998133
v -0.270002186 -0.469999701 -0.270001233
v -0.270002037 -0.46999982 -0.500000119
v -0.300001234 -0.399999768 -0.500000596
v -0.300001234 -0.399999768 -0.30000034
v -0.300001234 0.399999768 -0.500000596
v -0.300001234 0.399999768 -0.30000034
v -0.270001709 0.46999982 -0.500000119
v -0.270001948 0.46999982 -0.270001054
v 0.499995947 -0.399999917 0.30000329
v 0.499995947 0.399999917 0.30000329
v 0.499998808 0.469999909 0.27000308
v 0.499998808 -0.469999909 0.27000308
v 0.499996424 0.499999911 0.200003386
v 0.499996424 -0.499999911 0.200003386
v 0.499996424 0.499999911 -0.199997842
v 0.499996424 -0.499999911 -0.199997544
v 0.499996424 0.46999982 -0.269997805
v 0.499996424 -0.46999982 -0.269998133
v 0.499996901 0.399999768 -0.29999736
v 0.499996901 -0.399999768 -0.29999736
v -0.500022054 -0.469999909 0.270019174
v -0.500019193 0.399999917 0.300019383
v -0.500019193 -0.399999917 0.300019383
v -0.500022054 0.469999909 0.270019174
v -0.50001967 -0.499999911 0.200019479
v -0.50001967 0.499999911 0.200019479
v -0.50001967 -0.499999911 -0.199981451
v -0.50001967 0.499999911 -0.199981749
v -0.50001967 -0.46999982 -0.26998204
v -0.50001967 0.46999982 -0.269981712
v -0.500020146 -0.399999768 -0.299981266
v -0.500020146 0.399999768 -0.299981266
v -0.270001948 0.46999982 -0.270001054
v -0.50001967 0.46999982 -0.269981712
v -0.500020146 0.399999768 -0.299981266
v -0.300001234 0.399999768 -0.30000034
v -0.500020146 -0.399999768 -0.299981266
v -0.300001234 -0.399999768 -0.30000034
v -0.50001967 -0.46999982 -0.26998204
v -0.270002186 -0.469999701 -0.270001233
v -0.270002037 -0.46999982 -0.500000119
v -0.300001234 0.399999768 -0.500000596
v -0.300001234 -0.399999768 -0.500000596
v -0.270001709 0.46999982 -0.500000119
v -0.200001448 -0.499999911 -0.500000119
v -0.200001746 0.499999911 -0.500000119
v 0.200000972 -0.499999911 -0.500000119
v 0.20000127 0.499999911 -0.500000119
v 0.27000156 -0.46999982 -0.500000119
v 0.270001233 0.46999982 -0.500000119
v 0.300000757 -0.399999768 -0.500000596
v 0.300000757 0.399999768 -0.500000596
v 0.270001471 0.46999982 -0.270001054
v 0.270001233 0.46999982 -0.500000119
v 0.300000757 0.399999768 -0.500000596
v 0.300000757 0.399999768 -0.30000034
v 0.300000757 -0.399999768 -0.500000596
v 0.300000757 -0.399999768 -0.30000034
v 0.27000156 -0.46999982 -0.500000119
v 0.270001709 -0.469999701 -0.270001233
vt 0.875378549 0.0330480337
vt 0.846452296 0.0330480337
vt 0.846452296 0.0352509506
vt 0.875378489 0.0352509506
vt 0.866798818 0.0469679907
vt 0.875534892 0.0467249453
vt 0.868948936 0.0491138622
vt 0.875596881 0.048926089
vt 0.868776858 0.0557609499
vt 0.866575897 0.055703979
vt 0.855027437 0.04688913
vt 0.846326828 0.0466139242
vt 0.846257448 0.0488004722
vt 0.855108082 0.0555703752
vt 0.852860749 0.0490100384
vt 0.85292834 0.0555927642
vt 0.834229171 0.0511496179
vt 0.832020283 0.0801547617
vt 0.834229171 0.0801548362
vt 0.832020283 0.0511497073
vt 0.808816552 0.0801547766
vt 0.808816552 0.0511497185
vt 0.806607604 0.0801548362
vt 0.806607604 0.0511496179
vt 0.825775027 0.062133804
vt 0.823573589 0.0332269333
vt 0.823573589 0.0621339045
vt 0.825775027 0.0332269594
vt 0.837416649 0.0418404862
vt 0.837180257 0.0331095234
vt 0.839560986 0.0396767259
vt 0.839375257 0.0330480449
vt 0.846217096 0.0398040749
vt 0.846174955 0.042008061
vt 0.837497771 0.0536170825
vt 0.8372069 0.0623200685
vt 0.839399338 0.0623924769
vt 0.846162915 0.0534785539
vt 0.839618504 0.055770833
vt 0.846200347 0.0556579158
vt 0.884083867 0.0709439665
vt 0.886292815 0.0767447874
vt 0.886292815 0.0700738728
vt 0.884083867 0.0767447874
vt 0.860880196 0.070943974
vt 0.860880196 0.0767447948
vt 0.858671248 0.0700738803
vt 0.858671248 0.0767447948
vt 0.858671248 0.0566511378
vt 0.858671248 0.0633221641
vt 0.860880196 0.0633221716
vt 0.860880196 0.0575212501
vt 0.884083867 0.0633221716
vt 0.884083867 0.0575212426
vt 0.886292815 0.0633221567
vt 0.886292756 0.0566511229
vt 0.861571729 0.0566108078
vt 0.88477546 0.0566108078
vt 0.886805773 0.0557406582
vt 0.859541416 0.0557406582
vt 0.887675881 0.0537103415
vt 0.858671248 0.0537103415
vt 0.887675881 0.0421084575
vt 0.858671248 0.0421084799
vt 0.886805773 0.0400781445
vt 0.859541416 0.0400781333
vt 0.8847754 0.0392080173
vt 0.861571729 0.0392080173
vt 0.850802124 0.0520197675
vt 0.851672292 0.0772537738
vt 0.851672292 0.0540500805
vt 0.850802124 0.0792841017
vt 0.848771811 0.0511496179
vt 0.848771811 0.0801542327
vt 0.837169945 0.0511496253
vt 0.837169886 0.0801542327
vt 0.835139632 0.0520197675
vt 0.835139632 0.0792841017
vt 0.834269524 0.0540500917
vt 0.834269524 0.0772537738
vt 0.851712644 0.0787711963
vt 0.858384192 0.078771174
vt 0.858384132 0.0765622407
vt 0.852582633 0.0765622407
vt 0.858384132 0.0533585548
vt 0.852582633 0.0533585697
vt 0.858384192 0.0511496402
vt 0.851712644 0.0511496179
vt 0.859541416 0.0226349756
vt 0.8847754 0.0217648707
vt 0.861571729 0.0217648707
vt 0.886805713 0.022634998
vt 0.858671248 0.0246653203
vt 0.887675881 0.024665311
vt 0.858671248 0.0362672396
vt 0.887675881 0.0362672508
vt 0.859541416 0.0382975824
vt 0.886805713 0.038297575
vt 0.861571729 0.0391676985
vt 0.88477546 0.0391676985
vt 0.886292815 0.0700335428
vt 0.886292815 0.063362509
vt 0.884083867 0.0633624941
vt 0.884083867 0.0691634268
vt 0.860880196 0.0633625016
vt 0.860880196 0.0691634268
vt 0.858671248 0.063362509
vt 0.858671248 0.0700335428
vn -0 -0.70710516 0.707108378
vn -0 -0.707108974 0.707104564
vn -0 -0.993402898 0.114676416
vn -0 -0.993402421 0.114680707
vn -0.00735170394 -0.999945998 -0.00735221105
vn -0 -0.994917989 -0.10068886
vn -0.320343316 -0.891493857 -0.320341766
vn -0 -0.735948443 -0.677037597
vn -0.677059412 -0.735928476 0
vn -0.0572854728 -0.998357832 0
vn 0.00735131884 -0.999945998 -0.00735120196
vn -0 -0.994917512 -0.100693777
vn -0 -0.73593241 -0.677054942
vn 0.0572854802 -0.998357832 0
vn 0.32033965 -0.8914994 -0.320329964
vn 0.677059412 -0.735928476 0
vn -0 0.707108974 0.707104564
vn 1.60833952E-05 0.0344632417 0.99940598
vn -0 0.70710516 0.707108378
vn 1.60833952E-05 0.034463495 0.99940598
vn 1.60833952E-05 -0.034463238 0.99940598
vn 1.60833952E-05 -0.034463495 0.99940598
vn -0 -0.70710516 0.707108378
vn -0 -0.707108974 0.707104564
vn -0 0.993402421 0.114680663
vn -0 0.707108974 0.707104564
vn -0 0.70710516 0.707108378
vn -0 0.993402898 0.114676394
vn 0.00735129556 0.999945998 -0.00735118333
vn -0 0.994917512 -0.10069377
vn 0.320340514 0.891498804 -0.320330679
vn -0 0.735931695 -0.677055776
vn 0.677060246 0.735927582 0
vn 0.0572854318 0.998357832 0
vn -0.00735168066 0.999945998 -0.00735219289
vn -0 0.994917989 -0.10068883
vn -0 0.735947728 -0.677038431
vn -0.0572854318 0.998357832 0
vn -0.32034421 0.89149332 -0.320342571
vn -0.677060246 0.735927582 0
vn 0.705708861 0.0631301925 -0.705683827
vn -0 0.735931695 -0.677055776
vn 0.320340514 0.891498804 -0.320330679
vn -0 0.0368211381 -0.999321818
vn 0.705708981 -0.0631295741 -0.705683768
vn -0 -0.036820814 -0.999321938
vn 0.32033965 -0.8914994 -0.320329964
vn -0 -0.73593241 -0.677054942
vn -0.320343316 -0.891493857 -0.320341766
vn -0.677059412 -0.735928476 0
vn -0.999321938 -0.0368203335 0
vn -0.705697954 -0.0631275475 -0.705694973
vn -0.999321938 0.0368206985 0
vn -0.705697894 0.0631281808 -0.705694973
vn -0.677060246 0.735927582 0
vn -0.32034421 0.89149332 -0.320342571
vn 1 0 9.53667695E-05
vn 1 0 9.53667695E-05
vn 1 0 0
vn 1 0 0
vn 1 0 0
vn 1 0 0
vn 1 0 0
vn 1 0 0
vn 1 0 0
vn 1 0 0
vn 1 0 0
vn 1 0 0
vn -1 0 0
vn -1 0 9.53667695E-05
vn -1 0 9.53667695E-05
vn -1 0 0
vn -1 0 0
vn -1 0 0
vn -1 0 0
vn -1 0 0
vn -1 0 0
vn -1 0 0
vn -1 0 0
vn -1 0 0
vn -0.32034421 0.89149332 -0.320342571
vn -0 0.735947728 -0.677038431
vn -9.4775678E-05 0.0368229337 -0.999321818
vn -0.705697894 0.0631281808 -0.705694973
vn -9.4735733E-05 -0.0368225984 -0.999321818
vn -0.705697954 -0.0631275475 -0.705694973
vn -0 -0.735948443 -0.677037597
vn -0.320343316 -0.891493857 -0.320341766
vn -0 0 -1
vn -0 0 -1
vn -0 0 -1
vn -0 0 -1
vn -0 0 -1
vn -0 0 -1
vn -0 0 -1
vn -0 0 -1
vn -0 0 -1
vn -0 0 -1
vn -0 0 -1
vn -0 0 -1
vn 0.320340514 0.891498804 -0.320330679
vn 0.677060246 0.735927582 0
vn 0.999321938 0.0368206948 0
vn 0.705708861 0.0631301925 -0.705683827
vn 0.999321938 -0.0368203335 0
vn 0.705708981 -0.0631295741 -0.705683768
vn 0.677059412 -0.735928476 0
vn 0.32033965 -0.8914994 -0.320329964
g Adobe_Wall_T_Solo_0
f 3/3/3 2/2/2 1/1/1
f 4/4/4 3/3/3 1/1/1
f 3/3/3 4/4/4 5/5/5
f 4/4/4 6/6/6 5/5/5
f 5/5/5 6/6/6 7/7/7
f 6/6/6 8/8/8 7/7/7
f 7/7/7 9/9/9 5/5/5
f 9/9/9 10/10/10 5/5/5
f 11/11/11 3/3/3 5/5/5
f 5/5/5 10/10/10 11/11/11
f 11/11/11 12/12/12 3/3/3
f 13/13/13 12/12/12 11/11/11
f 10/10/10 14/14/14 11/11/11
f 15/15/15 13/13/13 11/11/11
f 11/11/11 14/14/14 15/15/15
f 14/14/14 16/16/16 15/15/15
f 19/19/19 18/18/18 17/17/17
f 18/18/18 20/20/20 17/17/17
f 18/18/18 21/21/21 20/20/20
f 21/21/21 22/22/22 20/20/20
f 21/21/21 23/23/23 22/22/22
f 23/23/23 24/24/24 22/22/22
f 27/27/27 26/26/26 25/25/25
f 26/26/26 28/28/28 25/25/25
f 25/25/25 28/28/28 29/29/29
f 28/28/28 30/30/30 29/29/29
f 29/29/29 30/30/30 31/31/31
f 30/30/30 32/32/32 31/31/31
f 31/31/31 33/33/33 29/29/29
f 33/33/33 34/34/34 29/29/29
f 35/35/35 25/25/25 29/29/29
f 29/29/29 34/34/34 35/35/35
f 35/35/35 36/36/36 25/25/25
f 37/37/37 36/36/36 35/35/35
f 34/34/34 38/38/38 35/35/35
f 39/39/39 37/37/37 35/35/35
f 35/35/35 38/38/38 39/39/39
f 38/38/38 40/40/40 39/39/39
f 43/43/43 42/42/42 41/41/41
f 42/42/42 44/44/44 41/41/41
f 41/41/41 44/44/44 45/45/45
f 44/44/44 46/46/46 45/45/45
f 45/45/45 46/46/46 47/47/47
f 46/46/46 48/48/48 47/47/47
f 51/51/51 50/50/50 49/49/49
f 52/52/52 51/51/51 49/49/49
f 53/53/53 51/51/51 52/52/52
f 54/54/54 53/53/53 52/52/52
f 55/55/55 53/53/53 54/54/54
f 56/56/56 55/55/55 54/54/54
f 59/59/59 58/58/58 57/57/57
f 60/60/60 59/59/59 57/57/57
f 61/61/61 59/59/59 60/60/60
f 62/62/62 61/61/61 60/60/60
f 63/63/63 61/61/61 62/62/62
f 64/64/64 63/63/63 62/62/62
f 65/65/65 63/63/63 64/64/64
f 66/66/66 65/65/65 64/64/64
f 67/67/67 65/65/65 66/66/66
f 68/68/68 67/67/67 66/66/66
f 71/71/71 70/70/70 69/69/69
f 70/70/70 72/72/72 69/69/69
f 69/69/69 72/72/72 73/73/73
f 72/72/72 74/74/74 73/73/73
f 73/73/73 74/74/74 75/75/75
f 74/74/74 76/76/76 75/75/75
f 75/75/75 76/76/76 77/77/77
f 76/76/76 78/78/78 77/77/77
f 77/77/77 78/78/78 79/79/79
f 78/78/78 80/80/80 79/79/79
f 83/83/83 82/82/82 81/81/81
f 84/84/84 83/83/83 81/81/81
f 85/85/85 83/83/83 84/84/84
f 86/86/86 85/85/85 84/84/84
f 87/87/87 85/85/85 86/86/86
f 88/88/88 87/87/87 86/86/86
f 91/91/91 90/90/90 89/89/89
f 90/90/90 92/92/92 89/89/89
f 89/89/89 92/92/92 93/93/93
f 92/92/92 94/94/94 93/93/93
f 95/95/95 93/93/93 94/94/94
f 96/96/96 95/95/95 94/94/94
f 95/95/95 96/96/96 97/97/97
f 96/96/96 98/98/98 97/97/97
f 97/97/97 98/98/98 99/99/99
f 98/98/98 100/100/100 99/99/99
f 103/103/103 102/102/102 101/101/101
f 104/104/104 103/103/103 101/101/101
f 105/105/105 103/103/103 104/104/104
f 106/106/106 105/105/105 104/104/104
f 107/107/107 105/105/105 106/106/106
f 108/108/108 107/107/107 106/106/106
