g Adobe_Fence_Solo_Solo
v -0.499995977 0.149999261 -0.0999997035
v 0.499995917 -0.220000267 -0.0999991298
v 0.499995977 0.149999261 -0.0999997035
v -0.499995917 -0.220000267 -0.0999991298
v -0.499995917 -0.270000219 -0.132988244
v 0.499995917 -0.270000219 -0.132988244
v -0.499995977 -0.320000261 -0.199999422
v 0.499995977 -0.320000261 -0.199999422
v -0.500029087 -0.35000053 -0.269999892
v 0.500029087 -0.35000053 -0.269999892
v -0.500029087 -0.490000427 -0.300000012
v 0.500029087 -0.490000427 -0.300000012
v -0.500029147 -0.500000179 -0.300000429
v 0.500029147 -0.500000179 -0.300000429
v -0.499995977 0.149999261 0.0999997035
v 0.499995977 0.149999261 0.127801299
v 0.499995977 0.149999261 0.0999997035
v -0.499995977 0.149999261 0.127801299
v 0.499995619 0.162275314 0.141019732
v -0.499995619 0.162275314 0.141019732
v -0.499991179 0.314763784 0.152308613
v 0.499991179 0.314763784 0.152308613
v -0.499990731 0.330000281 0.138158411
v 0.499990731 0.330000281 0.138158411
v -0.49999097 0.35401994 0.0999999046
v 0.49999097 0.35401994 0.0999999046
v 0.49999097 0.35401994 -0.0999999046
v -0.49999097 0.35401994 -0.0999999046
v -0.499990731 0.330000281 -0.138158411
v 0.499990731 0.330000281 -0.138158411
v -0.499991179 0.314763784 -0.152308613
v 0.499991179 0.314763784 -0.152308613
v -0.499995619 0.162275314 -0.141019732
v 0.499995619 0.162275314 -0.141019732
v 0.499995977 0.149999261 -0.127801299
v -0.499995977 0.149999261 -0.127801299
v 0.499995977 0.149999261 -0.0999997035
v -0.499995977 0.149999261 -0.0999997035
v 0.499995977 -0.220000267 0.100000858
v 0.499995977 0.149999261 0.0999997035
v 0.499995977 0.149999261 -0.0999997035
v 0.499995917 -0.220000267 -0.0999991298
v 0.499995977 -0.270000219 0.132989973
v 0.499995917 -0.270000219 -0.132988244
v 0.499996096 -0.320000261 0.20000115
v 0.499995977 -0.320000261 -0.199999422
v 0.500029266 -0.35000053 0.27000162
v 0.500029087 -0.35000053 -0.269999892
v 0.500029325 -0.490000427 0.30000031
v 0.500029087 -0.490000427 -0.300000012
v 0.500029325 -0.500000179 0.300000191
v 0.500029147 -0.500000179 -0.300000429
v -0.499995977 0.149999261 0.127801299
v -0.499990731 0.330000281 0.138158411
v -0.499991179 0.314763784 0.152308613
v -0.499995619 0.162275314 0.141019732
v 0.499995977 -0.220000267 0.100000858
v -0.499995977 0.149999261 0.0999997035
v 0.499995977 0.149999261 0.0999997035
v -0.499995977 -0.220000267 0.100000858
v 0.499995977 -0.270000219 0.132989973
v -0.499995977 -0.270000219 0.132989973
v 0.499996096 -0.320000261 0.20000115
v -0.499996096 -0.320000261 0.20000115
v 0.500029266 -0.35000053 0.27000162
v -0.500029266 -0.35000053 0.27000162
v 0.500029325 -0.490000427 0.30000031
v -0.500029325 -0.490000427 0.30000031
v 0.500029325 -0.500000179 0.300000191
v -0.500029325 -0.500000179 0.300000191
v -0.499995977 0.149999261 0.0999997035
v -0.499990731 0.330000281 0.138158411
v -0.499995977 0.149999261 0.127801299
v -0.49999097 0.35401994 0.0999999046
v -0.499995977 0.149999261 -0.0999997035
v -0.49999097 0.35401994 -0.0999999046
v -0.499995977 0.149999261 -0.127801299
v -0.499990731 0.330000281 -0.138158411
v 0.49999097 0.35401994 -0.0999999046
v 0.499990731 0.330000281 -0.138158411
v 0.499995977 0.149999261 -0.127801299
v 0.499995977 0.149999261 -0.0999997035
v 0.49999097 0.35401994 0.0999999046
v 0.499995977 0.149999261 0.0999997035
v 0.499990731 0.330000281 0.138158411
v 0.499995977 0.149999261 0.127801299
v -0.500029087 -0.490000427 -0.300000012
v -0.500029325 -0.500000179 0.300000191
v -0.500029147 -0.500000179 -0.300000429
v -0.500029325 -0.490000427 0.30000031
v -0.500029087 -0.35000053 -0.269999892
v -0.500029266 -0.35000053 0.27000162
v -0.499995977 -0.320000261 -0.199999422
v -0.499996096 -0.320000261 0.20000115
v -0.499995917 -0.270000219 -0.132988244
v -0.499995977 -0.270000219 0.132989973
v -0.499995917 -0.220000267 -0.0999991298
v -0.499995977 -0.220000267 0.100000858
v -0.499995977 0.149999261 0.0999997035
v -0.499995977 0.149999261 -0.0999997035
v 0.499990731 0.330000281 -0.138158411
v 0.499991179 0.314763784 -0.152308613
v 0.499995619 0.162275314 -0.141019732
v 0.499995977 0.149999261 -0.127801299
v 0.499991179 0.314763784 0.152308613
v 0.499990731 0.330000281 0.138158411
v 0.499995977 0.149999261 0.127801299
v 0.499995619 0.162275314 0.141019732
v -0.499995619 0.162275314 -0.141019732
v -0.499991179 0.314763784 -0.152308613
v -0.499990731 0.330000281 -0.138158411
v -0.499995977 0.149999261 -0.127801299
v -0.500029147 -0.500000179 -0.300000429
v -0.500029325 -0.500000179 0.300000191
v 0.500029325 -0.500000179 0.300000191
v 0.500029147 -0.500000179 -0.300000429
vt 0.813655496 0.0826414004
vt 0.813655436 0.0493836738
vt 0.813655496 0.0826414004
vt 0.813655436 0.0493836738
vt 0.813655436 0.0451895446
vt 0.813655436 0.0451895446
vt 0.813655436 0.0393355228
vt 0.813655436 0.0393355228
vt 0.81155467 0.034003213
vt 0.81155467 0.034003213
vt 0.809104145 0.0313370898
vt 0.809104145 0.0313370898
vt 0.806653619 0.0286709666
vt 0.806653619 0.0286709666
vt 0.911406994 0.00336067262
vt 0.911406398 0.00678247493
vt 0.911406994 0.00336067262
vt 0.911406398 0.00678247493
vt 0.911406398 0.00900278147
vt 0.911406398 0.00900278147
vt 0.911406934 0.0278223138
vt 0.911406934 0.0278223138
vt 0.911406994 0.0303816106
vt 0.911406994 0.0303816106
vt 0.911406994 0.0359311253
vt 0.911406994 0.0359311253
vt 0.911406994 0.0605469942
vt 0.911406994 0.0605469942
vt 0.911406994 0.0660965294
vt 0.911406994 0.0660965294
vt 0.911406934 0.0686557814
vt 0.911406934 0.0686557814
vt 0.911406398 0.0874753371
vt 0.911406398 0.0874753371
vt 0.911406398 0.0896956399
vt 0.911406398 0.0896956399
vt 0.911406994 0.0931174457
vt 0.911406994 0.0931174457
vt 0.813655436 0.0493836738
vt 0.813655496 0.0826414004
vt 0.813655496 0.0826414004
vt 0.813655436 0.0493836738
vt 0.813655436 0.0451895446
vt 0.813655436 0.0451895446
vt 0.813655436 0.0393355228
vt 0.813655436 0.0393355228
vt 0.81155467 0.034003213
vt 0.81155467 0.034003213
vt 0.809104145 0.0313370898
vt 0.809104145 0.0313370898
vt 0.806653619 0.0286709666
vt 0.806653619 0.0286709666
vt 0.911406398 0.00678247493
vt 0.911406994 0.0303816106
vt 0.911406934 0.0278223138
vt 0.911406398 0.00900278147
vt 0.813655436 0.0493836738
vt 0.813655496 0.0826414004
vt 0.813655496 0.0826414004
vt 0.813655436 0.0493836738
vt 0.813655436 0.0451895446
vt 0.813655436 0.0451895446
vt 0.813655436 0.0393355228
vt 0.813655436 0.0393355228
vt 0.81155467 0.034003213
vt 0.81155467 0.034003213
vt 0.809104145 0.0313370898
vt 0.809104145 0.0313370898
vt 0.806653619 0.0286709666
vt 0.806653619 0.0286709666
vt 0.911406398 0.034420196
vt 0.911406994 0.0303816106
vt 0.911406398 0.00678247493
vt 0.911406994 0.0359311253
vt 0.911406338 0.0620579161
vt 0.911406994 0.0605469942
vt 0.911406398 0.0896956399
vt 0.911406994 0.0660965294
vt 0.911406994 0.0605469942
vt 0.911406994 0.0660965294
vt 0.911406398 0.0896956399
vt 0.911406338 0.0620579161
vt 0.911406994 0.0359311253
vt 0.911406398 0.034420196
vt 0.911406994 0.0303816106
vt 0.911406398 0.00678247493
vt 0.809104145 0.0313370898
vt 0.806653619 0.0286709666
vt 0.806653619 0.0286709666
vt 0.809104145 0.0313370898
vt 0.81155467 0.034003213
vt 0.81155467 0.034003213
vt 0.813655436 0.0393355228
vt 0.813655436 0.0393355228
vt 0.813655436 0.0451895446
vt 0.813655436 0.0451895446
vt 0.813655436 0.0493836738
vt 0.813655436 0.0493836738
vt 0.813655496 0.0826414004
vt 0.813655496 0.0826414004
vt 0.911406994 0.0660965294
vt 0.911406934 0.0686557814
vt 0.911406398 0.0874753371
vt 0.911406398 0.0896956399
vt 0.911406934 0.0278223138
vt 0.911406994 0.0303816106
vt 0.911406398 0.00678247493
vt 0.911406398 0.00900278147
vt 0.911406398 0.0874753371
vt 0.911406934 0.0686557814
vt 0.911406994 0.0660965294
vt 0.911406398 0.0896956399
vt 0.821936548 0.0922200307
vt 0.867549598 0.0922200307
vt 0.867549598 0.0161939487
vt 0.821936548 0.0161939636
vn -0 0 -1
vn -0 0.287494749 -0.957782209
vn -0 0 -1
vn -0 0.287494749 -0.957782209
vn -0 0.686376333 -0.727246583
vn -0 0.686376333 -0.727246583
vn -0 0.86635232 -0.499433249
vn -0 0.86635232 -0.499433249
vn -0 0.635323524 -0.772246003
vn -0 0.635323524 -0.772246003
vn -0 0.105370983 -0.994432986
vn -0 0.105370983 -0.994432986
vn -0 3.99337769E-05 -1
vn -0 3.99337769E-05 -1
vn -0 -1 0
vn -0 -0.930791855 0.365549564
vn -0 -1 0
vn -0 -0.930791855 0.365549564
vn -0 -0.433278024 0.901260257
vn -0 -0.433278024 0.901260257
vn -0 0.330911964 0.943661571
vn -0 0.330911964 0.943661571
vn -0 0.76992178 0.638138235
vn -0 0.76992178 0.638138235
vn -0 0.960805357 0.277223676
vn -0 0.960805357 0.277223676
vn -0 0.960805357 -0.277223676
vn -0 0.960805357 -0.277223676
vn -0 0.76992178 -0.638138235
vn -0 0.76992178 -0.638138235
vn -0 0.330911964 -0.943661571
vn -0 0.330911964 -0.943661571
vn -0 -0.433278024 -0.901260257
vn -0 -0.433278024 -0.901260257
vn -0 -0.930791855 -0.365549564
vn -0 -0.930791855 -0.365549564
vn -0 -1 0
vn -0 -1 0
vn 1 0 0
vn 1 1.69334162E-05 0
vn 1 1.69334326E-05 0
vn 1 0 0
vn 1 0 0
vn 1 0 0
vn 0.999999642 0.000895357167 0
vn 0.999999642 0.000895357167 0
vn 1 0.000204707496 0
vn 1 0.000204706565 0
vn 1 0 0
vn 1 0 0
vn 1 0 0
vn 1 0 0
vn -1 2.72345733E-05 0
vn -1 2.71229892E-05 0
vn -1 2.91384913E-05 0
vn -1 2.91384913E-05 0
vn -0 0.287496954 0.957781553
vn -0 0 1
vn -0 0 1
vn -0 0.287496954 0.957781553
vn -0 0.686376333 0.727246583
vn -0 0.686376333 0.727246583
vn -0 0.866352439 0.499433219
vn -0 0.866352439 0.499433219
vn -0 0.635319531 0.772249401
vn -0 0.635319531 0.772249401
vn -0 0.105340421 0.994436145
vn -0 0.105340421 0.994436145
vn -0 -1.19205251E-05 1
vn -0 -1.19205251E-05 1
vn -1 1.69334162E-05 0
vn -1 2.71229892E-05 0
vn -1 2.72345733E-05 0
vn -1 2.5244457E-05 0
vn -1 1.69334307E-05 0
vn -1 2.5244457E-05 0
vn -1 2.72345696E-05 0
vn -1 2.71229892E-05 0
vn 1 2.52444606E-05 0
vn 1 2.71229947E-05 0
vn 1 2.72345733E-05 0
vn 1 1.69334326E-05 0
vn 1 2.52444606E-05 0
vn 1 1.69334162E-05 0
vn 1 2.71229947E-05 0
vn 1 2.72345733E-05 0
vn -1 0 0
vn -1 0 0
vn -1 0 0
vn -1 0 0
vn -1 0.000204706608 0
vn -1 0.00020470754 0
vn -0.999999642 0.000895357342 0
vn -0.999999642 0.000895357342 0
vn -1 0 0
vn -1 0 0
vn -1 0 0
vn -1 0 0
vn -1 1.69334162E-05 0
vn -1 1.69334307E-05 0
vn 1 2.71229947E-05 0
vn 1 2.91384968E-05 0
vn 1 2.91384968E-05 0
vn 1 2.72345733E-05 0
vn 1 2.91384968E-05 0
vn 1 2.71229947E-05 0
vn 1 2.72345733E-05 0
vn 1 2.91384968E-05 0
vn -1 2.91384931E-05 0
vn -1 2.91384931E-05 0
vn -1 2.71229892E-05 0
vn -1 2.72345696E-05 0
vn -0 -1 0
vn -0 -1 0
vn -0 -1 0
vn -0 -1 0
g Adobe_Fence_Solo_Solo_0
f 3/3/3 2/2/2 1/1/1
f 2/2/2 4/4/4 1/1/1
f 5/5/5 4/4/4 2/2/2
f 6/6/6 5/5/5 2/2/2
f 7/7/7 5/5/5 6/6/6
f 8/8/8 7/7/7 6/6/6
f 9/9/9 7/7/7 8/8/8
f 10/10/10 9/9/9 8/8/8
f 11/11/11 9/9/9 10/10/10
f 12/12/12 11/11/11 10/10/10
f 13/13/13 11/11/11 12/12/12
f 14/14/14 13/13/13 12/12/12
f 17/17/17 16/16/16 15/15/15
f 16/16/16 18/18/18 15/15/15
f 16/16/16 19/19/19 18/18/18
f 19/19/19 20/20/20 18/18/18
f 21/21/21 20/20/20 19/19/19
f 22/22/22 21/21/21 19/19/19
f 23/23/23 21/21/21 22/22/22
f 24/24/24 23/23/23 22/22/22
f 25/25/25 23/23/23 24/24/24
f 26/26/26 25/25/25 24/24/24
f 26/26/26 27/27/27 25/25/25
f 27/27/27 28/28/28 25/25/25
f 29/29/29 28/28/28 27/27/27
f 30/30/30 29/29/29 27/27/27
f 31/31/31 29/29/29 30/30/30
f 32/32/32 31/31/31 30/30/30
f 33/33/33 31/31/31 32/32/32
f 34/34/34 33/33/33 32/32/32
f 34/34/34 35/35/35 33/33/33
f 35/35/35 36/36/36 33/33/33
f 35/35/35 37/37/37 36/36/36
f 37/37/37 38/38/38 36/36/36
f 41/41/41 40/40/40 39/39/39
f 42/42/42 41/41/41 39/39/39
f 39/39/39 43/43/43 42/42/42
f 43/43/43 44/44/44 42/42/42
f 43/43/43 45/45/45 44/44/44
f 45/45/45 46/46/46 44/44/44
f 45/45/45 47/47/47 46/46/46
f 47/47/47 48/48/48 46/46/46
f 47/47/47 49/49/49 48/48/48
f 49/49/49 50/50/50 48/48/48
f 49/49/49 51/51/51 50/50/50
f 51/51/51 52/52/52 50/50/50
f 55/55/55 54/54/54 53/53/53
f 56/56/56 55/55/55 53/53/53
f 59/59/59 58/58/58 57/57/57
f 58/58/58 60/60/60 57/57/57
f 57/57/57 60/60/60 61/61/61
f 60/60/60 62/62/62 61/61/61
f 61/61/61 62/62/62 63/63/63
f 62/62/62 64/64/64 63/63/63
f 63/63/63 64/64/64 65/65/65
f 64/64/64 66/66/66 65/65/65
f 65/65/65 66/66/66 67/67/67
f 66/66/66 68/68/68 67/67/67
f 67/67/67 68/68/68 69/69/69
f 68/68/68 70/70/70 69/69/69
f 73/73/73 72/72/72 71/71/71
f 72/72/72 74/74/74 71/71/71
f 71/71/71 74/74/74 75/75/75
f 74/74/74 76/76/76 75/75/75
f 75/75/75 76/76/76 77/77/77
f 76/76/76 78/78/78 77/77/77
f 81/81/81 80/80/80 79/79/79
f 82/82/82 81/81/81 79/79/79
f 82/82/82 79/79/79 83/83/83
f 84/84/84 82/82/82 83/83/83
f 84/84/84 83/83/83 85/85/85
f 86/86/86 84/84/84 85/85/85
f 89/89/89 88/88/88 87/87/87
f 88/88/88 90/90/90 87/87/87
f 87/87/87 90/90/90 91/91/91
f 90/90/90 92/92/92 91/91/91
f 91/91/91 92/92/92 93/93/93
f 92/92/92 94/94/94 93/93/93
f 93/93/93 94/94/94 95/95/95
f 94/94/94 96/96/96 95/95/95
f 95/95/95 96/96/96 97/97/97
f 96/96/96 98/98/98 97/97/97
f 98/98/98 99/99/99 97/97/97
f 99/99/99 100/100/100 97/97/97
f 103/103/103 102/102/102 101/101/101
f 104/104/104 103/103/103 101/101/101
f 107/107/107 106/106/106 105/105/105
f 108/108/108 107/107/107 105/105/105
f 111/111/111 110/110/110 109/109/109
f 112/112/112 111/111/111 109/109/109
f 115/115/115 114/114/114 113/113/113
f 116/116/116 115/115/115 113/113/113
