g Adobe_Wall_Mid_Solo
v 0.500001431 0.499999911 0.200000197
v 0.499999881 0.469999909 0.269999862
v -0.5 0.469999909 0.270000339
v -0.5 0.499999911 0.200000197
v 0.500001431 0.499999911 -0.19999972
v -0.5 0.499999911 -0.19999972
v -0.5 0.469999909 -0.269999862
v 0.499999881 0.469999909 -0.269999385
v 0.499999881 0.469999909 0.269999862
v -0.5 0.399999917 0.300000191
v -0.5 0.469999909 0.270000339
v 0.499999434 0.399999917 0.300000191
v 0.499999434 -0.399999917 0.300000191
v -0.5 -0.399999917 0.300000191
v 0.499999881 -0.469999909 0.269999862
v -0.5 -0.469999909 0.270000339
v 0.499999881 0.469999909 -0.269999385
v -0.5 0.469999909 -0.269999862
v -0.5 0.399999917 -0.299999714
v 0.499999434 0.399999917 -0.299999714
v -0.5 -0.399999917 -0.299999714
v 0.499999434 -0.399999917 -0.299999714
v 0.499999881 -0.469999909 -0.269999385
v -0.5 -0.469999909 -0.269999862
v 0.500001431 -0.499999911 0.200000197
v -0.5 -0.469999909 0.270000339
v 0.499999881 -0.469999909 0.269999862
v -0.5 -0.499999911 0.200000197
v 0.500001431 -0.499999911 -0.19999972
v -0.5 -0.499999911 -0.19999972
v -0.5 -0.469999909 -0.269999862
v 0.499999881 -0.469999909 -0.269999385
v 0.499999881 -0.469999909 -0.269999385
v 0.499999434 0.399999917 -0.299999714
v 0.499999434 -0.399999917 -0.299999714
v 0.499999881 0.469999909 -0.269999385
v 0.500001431 -0.499999911 -0.19999972
v 0.500001431 0.499999911 -0.19999972
v 0.500001431 -0.499999911 0.200000197
v 0.500001431 0.499999911 0.200000197
v 0.499999881 -0.469999909 0.269999862
v 0.499999881 0.469999909 0.269999862
v 0.499999434 -0.399999917 0.300000191
v 0.499999434 0.399999917 0.300000191
v -0.5 -0.469999909 0.270000339
v -0.5 0.399999917 0.300000191
v -0.5 -0.399999917 0.300000191
v -0.5 0.469999909 0.270000339
v -0.5 -0.499999911 0.200000197
v -0.5 0.499999911 0.200000197
v -0.5 -0.499999911 -0.19999972
v -0.5 0.499999911 -0.19999972
v -0.5 -0.469999909 -0.269999862
v -0.5 0.469999909 -0.269999862
v -0.5 -0.399999917 -0.299999714
v -0.5 0.399999917 -0.299999714
vt 0.825630069 0.035494715
vt 0.82238847 0.035494782
vt 0.822388411 0.0780594125
vt 0.825630069 0.0780594125
vt 0.842655897 0.035494715
vt 0.842655897 0.0780594125
vt 0.845897555 0.0780594125
vt 0.845897496 0.035494782
vt 0.811109781 0.0523770154
vt 0.814351439 0.00981238298
vt 0.811109781 0.00981238298
vt 0.814351439 0.0523770005
vt 0.848403156 0.0523770005
vt 0.848403156 0.00981239788
vt 0.851644754 0.0523770154
vt 0.851644754 0.00981239788
vt 0.851687193 0.00981238298
vt 0.851687253 0.0523770154
vt 0.854928851 0.0523770154
vt 0.854928851 0.00981241651
vt 0.888980567 0.0523770154
vt 0.888980567 0.00981241651
vt 0.892222166 0.00981238298
vt 0.892222166 0.0523770154
vt 0.86620748 0.035494715
vt 0.869449139 0.0780594125
vt 0.869449079 0.035494782
vt 0.86620748 0.0780594125
vt 0.849181652 0.035494715
vt 0.849181652 0.0780594125
vt 0.845939994 0.0780594125
vt 0.845939994 0.035494782
vt 0.835371614 0.0536964163
vt 0.836648583 0.0907276273
vt 0.836648583 0.0566759109
vt 0.835371614 0.0937071592
vt 0.832392097 0.0524194762
vt 0.832392097 0.0949841142
vt 0.815366268 0.0524194762
vt 0.815366268 0.0949841142
vt 0.812386751 0.0536964163
vt 0.812386751 0.0937071592
vt 0.811109781 0.0566759408
vt 0.811109781 0.0907276571
vt 0.860952914 0.0536964163
vt 0.862229824 0.0907276273
vt 0.862229824 0.0566759259
vt 0.860952914 0.0937071592
vt 0.857973337 0.0524194762
vt 0.857973337 0.0949841142
vt 0.840947509 0.0524194762
vt 0.840947509 0.0949841142
vt 0.837967992 0.0536964163
vt 0.837967992 0.0937071592
vt 0.836691022 0.0566759408
vt 0.836691022 0.0907276273
vn -0 0.997969091 0.0636994317
vn -0 0.707109332 0.707104146
vn -0 0.707106888 0.70710665
vn -0 0.997969091 0.0637001395
vn -0 0.997969091 -0.0636994317
vn -0 0.997969091 -0.0637001395
vn -0 0.707106888 -0.70710665
vn -0 0.707109332 -0.707104146
vn -0 0.707109332 0.707104146
vn -0 0.0344623886 0.99940598
vn -0 0.707106888 0.70710665
vn -0 0.0344625041 0.99940598
vn -0 -0.0344625041 0.99940598
vn -0 -0.0344623886 0.99940598
vn -0 -0.707109332 0.707104146
vn -0 -0.707106888 0.70710665
vn -0 0.707109332 -0.707104146
vn -0 0.707106888 -0.70710665
vn -0 0.0344623886 -0.99940598
vn -0 0.0344625041 -0.99940598
vn -0 -0.0344623886 -0.99940598
vn -0 -0.0344625041 -0.99940598
vn -0 -0.707109332 -0.707104146
vn -0 -0.707106888 -0.70710665
vn -0 -0.997969091 0.0636994317
vn -0 -0.707106888 0.70710665
vn -0 -0.707109332 0.707104146
vn -0 -0.997969091 0.0637001321
vn -0 -0.997969091 -0.0636994317
vn -0 -0.997969091 -0.0637001321
vn -0 -0.707106888 -0.70710665
vn -0 -0.707109332 -0.707104146
vn 1 0 0
vn 1 0 0
vn 1 0 0
vn 1 0 0
vn 1 0 0
vn 1 0 0
vn 1 0 0
vn 1 0 0
vn 1 0 0
vn 1 0 0
vn 1 0 0
vn 1 0 0
vn -1 0 0
vn -1 0 0
vn -1 0 0
vn -1 0 0
vn -1 0 0
vn -1 0 0
vn -1 0 0
vn -1 0 0
vn -1 0 0
vn -1 0 0
vn -1 0 0
vn -1 0 0
g Adobe_Wall_Mid_Solo_0
f 3/3/3 2/2/2 1/1/1
f 4/4/4 3/3/3 1/1/1
f 4/4/4 1/1/1 5/5/5
f 6/6/6 4/4/4 5/5/5
f 7/7/7 6/6/6 5/5/5
f 8/8/8 7/7/7 5/5/5
f 11/11/11 10/10/10 9/9/9
f 10/10/10 12/12/12 9/9/9
f 13/13/13 12/12/12 10/10/10
f 14/14/14 13/13/13 10/10/10
f 13/13/13 14/14/14 15/15/15
f 14/14/14 16/16/16 15/15/15
f 19/19/19 18/18/18 17/17/17
f 20/20/20 19/19/19 17/17/17
f 21/21/21 19/19/19 20/20/20
f 22/22/22 21/21/21 20/20/20
f 21/21/21 22/22/22 23/23/23
f 24/24/24 21/21/21 23/23/23
f 27/27/27 26/26/26 25/25/25
f 26/26/26 28/28/28 25/25/25
f 25/25/25 28/28/28 29/29/29
f 28/28/28 30/30/30 29/29/29
f 30/30/30 31/31/31 29/29/29
f 31/31/31 32/32/32 29/29/29
f 35/35/35 34/34/34 33/33/33
f 34/34/34 36/36/36 33/33/33
f 33/33/33 36/36/36 37/37/37
f 36/36/36 38/38/38 37/37/37
f 37/37/37 38/38/38 39/39/39
f 38/38/38 40/40/40 39/39/39
f 39/39/39 40/40/40 41/41/41
f 40/40/40 42/42/42 41/41/41
f 41/41/41 42/42/42 43/43/43
f 42/42/42 44/44/44 43/43/43
f 47/47/47 46/46/46 45/45/45
f 46/46/46 48/48/48 45/45/45
f 45/45/45 48/48/48 49/49/49
f 48/48/48 50/50/50 49/49/49
f 49/49/49 50/50/50 51/51/51
f 50/50/50 52/52/52 51/51/51
f 51/51/51 52/52/52 53/53/53
f 52/52/52 54/54/54 53/53/53
f 53/53/53 54/54/54 55/55/55
f 54/54/54 56/56/56 55/55/55
