g Adobe_Roof_Mid
v -0.5 -0.50000006 0.300000191
v 0.499999434 -0.50000006 0.300000191
v 0.499999434 -0.50000006 -0.299999714
v -0.5 -0.50000006 -0.299999714
v 0.499999434 0.50000006 -0.299999714
v -0.5 0.50000006 -0.299999714
v -0.5 -0.50000006 -0.299999714
v 0.499999434 -0.50000006 -0.299999714
v 0.499999434 -0.50000006 0.300000191
v 0.499999434 0.50000006 0.300000191
v 0.499999434 0.50000006 -0.299999714
v 0.499999434 -0.50000006 -0.299999714
v 0.499999434 0.50000006 0.300000191
v -0.5 0.50000006 0.300000191
v -0.5 0.50000006 -0.299999714
v 0.499999434 0.50000006 -0.299999714
v -0.5 0.50000006 0.300000191
v -0.5 -0.50000006 0.300000191
v -0.5 -0.50000006 -0.299999714
v -0.5 0.50000006 -0.299999714
v -0.5 0.50000006 0.300000191
v 0.499999434 0.50000006 0.300000191
v 0.499999434 -0.50000006 0.300000191
v -0.5 -0.50000006 0.300000191
vt 0.894500732 0.0957081318
vt 0.894500732 0.00496205036
vt 0.803754568 0.00496207271
vt 0.803754568 0.0957081616
vt 0.898500144 0.00465831487
vt 0.80775404 0.00465832977
vt 0.80775404 0.0954044908
vt 0.898500144 0.095404461
vt 0.89849931 0.00465739099
vt 0.807753146 0.00465738354
vt 0.807753146 0.0954035372
vt 0.89849931 0.0954035372
vt 0.994012058 0.0951609313
vt 0.994012058 0.00441485224
vt 0.903265893 0.00441485969
vt 0.903265893 0.0951609462
vt 0.898499668 0.00465738354
vt 0.807753563 0.00465739099
vt 0.807753563 0.0954035372
vt 0.898499727 0.0954035223
vt 0.807753503 0.095404461
vt 0.898499608 0.095404461
vt 0.898499608 0.00465831487
vt 0.807753503 0.00465831487
vn -0 -1 0
vn -0 -1 0
vn -0 -1 0
vn -0 -1 0
vn -0 0 -1
vn -0 0 -1
vn -0 0 -1
vn -0 0 -1
vn 1 0 0
vn 1 0 0
vn 1 0 0
vn 1 0 0
vn -0 1 0
vn -0 1 0
vn -0 1 0
vn -0 1 0
vn -1 0 0
vn -1 0 0
vn -1 0 0
vn -1 0 0
vn -0 0 1
vn -0 0 1
vn -0 0 1
vn -0 0 1
g Adobe_Roof_Mid_0
f 3/3/3 2/2/2 1/1/1
f 4/4/4 3/3/3 1/1/1
f 7/7/7 6/6/6 5/5/5
f 8/8/8 7/7/7 5/5/5
f 11/11/11 10/10/10 9/9/9
f 12/12/12 11/11/11 9/9/9
f 15/15/15 14/14/14 13/13/13
f 16/16/16 15/15/15 13/13/13
f 19/19/19 18/18/18 17/17/17
f 20/20/20 19/19/19 17/17/17
f 23/23/23 22/22/22 21/21/21
f 24/24/24 23/23/23 21/21/21
