g Adobe_Cube
v 0.499999791 0.50000006 0.500000119
v 0.499999791 -0.499999911 0.500000119
v -0.49999997 -0.499999911 0.499999911
v -0.49999997 0.50000006 0.499999911
v -0.500001431 0.499999911 -0.499999851
v 0.500001669 0.49999994 -0.500000119
v 0.499999791 0.50000006 0.500000119
v -0.49999997 0.50000006 0.499999911
v 0.500001669 0.49999994 -0.500000119
v 0.500001669 -0.49999994 -0.499999732
v 0.499999791 -0.499999911 0.500000119
v 0.499999791 0.50000006 0.500000119
v -0.500001431 0.499999911 -0.499999851
v -0.500001431 -0.49999994 -0.499999911
v 0.500001669 -0.49999994 -0.499999732
v 0.500001669 0.49999994 -0.500000119
v -0.500001431 -0.49999994 -0.499999911
v -0.49999997 -0.499999911 0.499999911
v 0.499999791 -0.499999911 0.500000119
v 0.500001669 -0.49999994 -0.499999732
v -0.49999997 0.50000006 0.499999911
v -0.49999997 -0.499999911 0.499999911
v -0.500001431 -0.49999994 -0.499999911
v -0.500001431 0.499999911 -0.499999851
vt 0.898727357 0.0795781985
vt 0.898727357 0.0484771468
vt 0.867626369 0.0484771468
vt 0.867626369 0.0795781985
vt 0.836525321 0.0484771468
vt 0.836525321 0.017376015
vt 0.805424273 0.0173760895
vt 0.805424273 0.0484771021
vt 0.867626369 0.0484771468
vt 0.836525321 0.0484771617
vt 0.836525321 0.0795781985
vt 0.867626369 0.0795781985
vt 0.805424273 0.0795782879
vt 0.836525321 0.079578273
vt 0.836525321 0.0484771468
vt 0.805424273 0.0484771468
vt 0.836525321 0.0484771468
vt 0.867626369 0.0484770872
vt 0.867626369 0.0173760746
vt 0.836525321 0.017376015
vt 0.867626309 0.017376015
vt 0.867626309 0.0484770574
vt 0.898727357 0.0484770574
vt 0.898727357 0.017376015
vn -0 0 1
vn -0 0 1
vn -0 0 1
vn -0 0 1
vn -0 1 0
vn -0 1 0
vn -0 1 0
vn -0 1 0
vn 1 0 0
vn 1 0 0
vn 1 0 0
vn 1 0 0
vn -0 0 -1
vn -0 0 -1
vn -0 0 -1
vn -0 0 -1
vn -0 -1 0
vn -0 -1 0
vn -0 -1 0
vn -0 -1 0
vn -1 0 0
vn -1 0 0
vn -1 0 0
vn -1 0 0
g Adobe_Cube_0
f 3/3/3 2/2/2 1/1/1
f 4/4/4 3/3/3 1/1/1
f 7/7/7 6/6/6 5/5/5
f 8/8/8 7/7/7 5/5/5
f 11/11/11 10/10/10 9/9/9
f 12/12/12 11/11/11 9/9/9
f 15/15/15 14/14/14 13/13/13
f 16/16/16 15/15/15 13/13/13
f 19/19/19 18/18/18 17/17/17
f 20/20/20 19/19/19 17/17/17
f 23/23/23 22/22/22 21/21/21
f 24/24/24 23/23/23 21/21/21
