g FloorTwoEdge
v -0.5 -0.241832808 -0.375
v 0.5 -0.241832808 -0.37500304
v 0.5 0.241832808 -0.37500304
v -0.5 0.241832808 -0.375
v -0.5 -0.241832808 -0.5
v 0.5 -0.241832808 -0.5
v 0.5 -0.241832808 -0.37500304
v -0.5 -0.241832808 -0.375
v -0.5 -0.5 -0.5
v 0.5 -0.5 -0.5
v 0.5 -0.241832808 -0.5
v -0.5 -0.241832808 -0.5
v -0.5 0.241832808 -0.5
v 0.5 0.241832808 -0.5
v 0.5 0.5 -0.5
v -0.5 0.5 -0.5
v -0.5 -0.5 -0.375
v 0.5 -0.5 -0.37500304
v 0.5 -0.5 -0.5
v -0.5 -0.5 -0.5
v -0.5 0.5 -0.5
v 0.5 0.5 -0.5
v 0.5 0.5 -0.37500304
v -0.5 0.5 -0.375
v -0.5 0.241832808 -0.375
v 0.5 0.241832808 -0.37500304
v 0.5 0.241832808 -0.5
v -0.5 0.241832808 -0.5
v -0.5 -0.5 0.375003666
v 0.5 -0.5 0.375001222
v 0.5 -0.5 -0.37500304
v -0.5 -0.5 -0.375
v -0.5 0.5 -0.375
v 0.5 0.5 -0.37500304
v 0.5 0.5 0.375001222
v -0.5 0.5 0.375003666
v 0.5 -0.241832808 0.375
v -0.5 -0.241832808 0.37500304
v -0.5 0.241832808 0.37500304
v 0.5 0.241832808 0.375
v 0.5 -0.241832808 0.5
v -0.5 -0.241832808 0.5
v -0.5 -0.241832808 0.37500304
v 0.5 -0.241832808 0.375
v 0.5 -0.5 0.5
v -0.5 -0.5 0.5
v -0.5 -0.241832808 0.5
v 0.5 -0.241832808 0.5
v 0.5 0.241832808 0.5
v -0.5 0.241832808 0.5
v -0.5 0.5 0.5
v 0.5 0.5 0.5
v 0.5 -0.5 0.375001222
v -0.5 -0.5 0.375003666
v -0.5 -0.5 0.5
v 0.5 -0.5 0.5
v 0.5 0.5 0.5
v -0.5 0.5 0.5
v -0.5 0.5 0.375003666
v 0.5 0.5 0.375001222
v 0.5 0.241832808 0.375
v -0.5 0.241832808 0.37500304
v -0.5 0.241832808 0.5
v 0.5 0.241832808 0.5
v -0.128874511 -0.24183242 0.5
v -0.128874511 0.24183242 0.5
v 0.128874511 0.24183242 0.5
v 0.128874511 -0.24183242 0.5
v 0.128874511 -0.24183242 0.5
v 0.128874511 0.24183242 0.5
v 0.128874511 0.24183242 0.375004262
v 0.128874511 -0.24183242 0.375004262
v -0.128874511 -0.24183242 0.375004262
v -0.128874511 0.24183242 0.375004262
v -0.128874511 0.24183242 0.5
v -0.128874511 -0.24183242 0.5
v 0.128874511 -0.24183242 -0.5
v 0.128874511 0.24183242 -0.5
v -0.128874511 0.24183242 -0.5
v -0.128874511 -0.24183242 -0.5
v -0.128874511 -0.24183242 -0.5
v -0.128874511 0.24183242 -0.5
v -0.128874511 0.24183242 -0.375004262
v -0.128874511 -0.24183242 -0.375004262
v 0.128874511 -0.24183242 -0.375004262
v 0.128874511 0.24183242 -0.375004262
v 0.128874511 0.24183242 -0.5
v 0.128874511 -0.24183242 -0.5
vt 0.838716626 0.0499863103
vt 0.838715076 0.0457215086
vt 0.840916753 0.0457215086
vt 0.840918422 0.0499863103
vt 0.941573024 0.427066833
vt 0.941474319 0.722154796
vt 0.978354096 0.722180843
vt 0.978454113 0.427091002
vt 0.493840605 0.251797169
vt 0.690400839 0.25179562
vt 0.690401137 0.195937872
vt 0.493840933 0.195939451
vt 0.690402627 0.251798809
vt 0.493839502 0.251797169
vt 0.493839353 0.195938617
vt 0.690402329 0.195940301
vt 0.978354335 0.722184658
vt 0.978461027 0.427056193
vt 0.941570997 0.427042782
vt 0.941463351 0.722171247
vt 0.941589236 0.427067101
vt 0.941462398 0.722182691
vt 0.978345633 0.722212076
vt 0.978473663 0.427094728
vt 0.978354335 0.722184777
vt 0.978461146 0.427056253
vt 0.941570759 0.427042842
vt 0.941463351 0.722171426
vt 0.957473993 0.046283491
vt 0.957473993 0.04831516
vt 0.96052146 0.04831516
vt 0.96052146 0.046283491
vt 0.957473993 0.046283491
vt 0.957473993 0.04831516
vt 0.96052146 0.04831516
vt 0.96052146 0.0462834761
vt 0.838716626 0.0499861613
vt 0.838720202 0.0457214639
vt 0.840921879 0.0457214639
vt 0.840918183 0.0499861613
vt 0.941572666 0.427067697
vt 0.941473961 0.72215569
vt 0.978354216 0.72217989
vt 0.978454232 0.427090108
vt 0.493840933 0.25179711
vt 0.690400958 0.251795232
vt 0.690401256 0.195937514
vt 0.49384132 0.195939317
vt 0.690402746 0.251798838
vt 0.493839443 0.251797348
vt 0.493839204 0.195938855
vt 0.690402508 0.195940346
vt 0.978354335 0.722184598
vt 0.978461146 0.427055895
vt 0.941570759 0.427042633
vt 0.94146347 0.722171307
vt 0.941588998 0.427067876
vt 0.941462159 0.722183645
vt 0.978345871 0.72221148
vt 0.978474021 0.427093893
vt 0.978354335 0.722184777
vt 0.978461146 0.427056253
vt 0.941570759 0.427042842
vt 0.941463351 0.722171426
vt 0.181776106 0.226434559
vt 0.379548997 0.226434439
vt 0.379548877 0.129563197
vt 0.181776196 0.129563197
vt 0.479252607 0.469370335
vt 0.281641871 0.469370455
vt 0.281641632 0.519828141
vt 0.479252547 0.519828379
vt 0.479252547 0.469370335
vt 0.281641632 0.469370544
vt 0.281641632 0.51982826
vt 0.479252487 0.519828379
vt 0.181776106 0.226434559
vt 0.379548997 0.226434439
vt 0.379548877 0.129563197
vt 0.181776196 0.129563197
vt 0.479252607 0.469370335
vt 0.281641871 0.469370455
vt 0.281641632 0.519828141
vt 0.479252547 0.519828379
vt 0.479252547 0.469370335
vt 0.281641632 0.469370544
vt 0.281641632 0.51982826
vt 0.479252487 0.519828379
vn -2.82672067E-06 0 -1
vn -2.82672067E-06 0 -1
vn -2.82672067E-06 0 -1
vn -2.82672067E-06 0 -1
vn -0 1 0
vn -0 1 0
vn -0 1 0
vn -0 1 0
vn -0 0 -1
vn -0 0 -1
vn -0 0 -1
vn -0 0 -1
vn -0 0 -1
vn -0 0 -1
vn -0 0 -1
vn -0 0 -1
vn -0 -1 0
vn -0 -1 0
vn -0 -1 0
vn -0 -1 0
vn -0 1 0
vn -0 1 0
vn -0 1 0
vn -0 1 0
vn -0 -1 0
vn -0 -1 0
vn -0 -1 0
vn -0 -1 0
vn -0 -1 0
vn -0 -1 0
vn -0 -1 0
vn -0 -1 0
vn -0 1 0
vn -0 1 0
vn -0 1 0
vn -0 1 0
vn 3.23053837E-06 0 1
vn 3.23053837E-06 0 1
vn 3.23053837E-06 0 1
vn 3.23053837E-06 0 1
vn -0 1 0
vn -0 1 0
vn -0 1 0
vn -0 1 0
vn -0 0 1
vn -0 0 1
vn -0 0 1
vn -0 0 1
vn -0 0 1
vn -0 0 1
vn -0 0 1
vn -0 0 1
vn -0 -1 0
vn -0 -1 0
vn -0 -1 0
vn -0 -1 0
vn -0 1 0
vn -0 1 0
vn -0 1 0
vn -0 1 0
vn -0 -1 0
vn -0 -1 0
vn -0 -1 0
vn -0 -1 0
vn -0 0 1
vn -0 0 1
vn -0 0 1
vn -0 0 1
vn 1 0 0
vn 1 0 0
vn 1 0 0
vn 1 0 0
vn -1 0 0
vn -1 0 0
vn -1 0 0
vn -1 0 0
vn -0 0 -1
vn -0 0 -1
vn -0 0 -1
vn -0 0 -1
vn -1 0 0
vn -1 0 0
vn -1 0 0
vn -1 0 0
vn 1 0 0
vn 1 0 0
vn 1 0 0
vn 1 0 0
g FloorTwoEdge_0
f 3/3/3 2/2/2 1/1/1
f 4/4/4 3/3/3 1/1/1
f 7/7/7 6/6/6 5/5/5
f 8/8/8 7/7/7 5/5/5
f 11/11/11 10/10/10 9/9/9
f 12/12/12 11/11/11 9/9/9
f 15/15/15 14/14/14 13/13/13
f 16/16/16 15/15/15 13/13/13
f 19/19/19 18/18/18 17/17/17
f 20/20/20 19/19/19 17/17/17
f 23/23/23 22/22/22 21/21/21
f 24/24/24 23/23/23 21/21/21
f 27/27/27 26/26/26 25/25/25
f 28/28/28 27/27/27 25/25/25
f 31/31/31 30/30/30 29/29/29
f 32/32/32 31/31/31 29/29/29
f 35/35/35 34/34/34 33/33/33
f 36/36/36 35/35/35 33/33/33
f 39/39/39 38/38/38 37/37/37
f 40/40/40 39/39/39 37/37/37
f 43/43/43 42/42/42 41/41/41
f 44/44/44 43/43/43 41/41/41
f 47/47/47 46/46/46 45/45/45
f 48/48/48 47/47/47 45/45/45
f 51/51/51 50/50/50 49/49/49
f 52/52/52 51/51/51 49/49/49
f 55/55/55 54/54/54 53/53/53
f 56/56/56 55/55/55 53/53/53
f 59/59/59 58/58/58 57/57/57
f 60/60/60 59/59/59 57/57/57
f 63/63/63 62/62/62 61/61/61
f 64/64/64 63/63/63 61/61/61
f 67/67/67 66/66/66 65/65/65
f 68/68/68 67/67/67 65/65/65
f 71/71/71 70/70/70 69/69/69
f 72/72/72 71/71/71 69/69/69
f 75/75/75 74/74/74 73/73/73
f 76/76/76 75/75/75 73/73/73
f 79/79/79 78/78/78 77/77/77
f 80/80/80 79/79/79 77/77/77
f 83/83/83 82/82/82 81/81/81
f 84/84/84 83/83/83 81/81/81
f 87/87/87 86/86/86 85/85/85
f 88/88/88 87/87/87 85/85/85
