g Column_Solo
v -0.5 0.5 0.5
v -0.5 0.5 -0.5
v 0.5 0.5 -0.5
v 0.5 0.5 0.5
v -0.5 0.5 -0.5
v -0.5 0.25 -0.5
v 0.5 0.25 -0.5
v 0.5 0.5 -0.5
v 0.5 0.5 -0.5
v 0.5 0.25 -0.5
v 0.5 0.25 0.5
v 0.5 0.5 0.5
v -0.5 0.25 0.5
v -0.5 0.5 0.5
v 0.5 0.5 0.5
v 0.5 0.25 0.5
v -0.5 0.5 0.5
v -0.5 0.25 0.5
v -0.5 0.25 -0.5
v -0.5 0.5 -0.5
v 0.5 0.25 -0.5
v -0.5 0.25 -0.5
v -0.5 0.25 0.5
v 0.5 0.25 0.5
v -0.5 -0.5 -0.5
v -0.5 -0.5 0.5
v 0.5 -0.5 0.5
v 0.5 -0.5 -0.5
v -0.5 -0.5 0.5
v -0.5 -0.25 0.5
v 0.5 -0.25 0.5
v 0.5 -0.5 0.5
v 0.5 -0.5 0.5
v 0.5 -0.25 0.5
v 0.5 -0.25 -0.5
v 0.5 -0.5 -0.5
v -0.5 -0.25 -0.5
v -0.5 -0.5 -0.5
v 0.5 -0.5 -0.5
v 0.5 -0.25 -0.5
v -0.5 -0.5 -0.5
v -0.5 -0.25 -0.5
v -0.5 -0.25 0.5
v -0.5 -0.5 0.5
v 0.5 -0.25 0.5
v -0.5 -0.25 0.5
v -0.5 -0.25 -0.5
v 0.5 -0.25 -0.5
v 0.25 0 0.433012694
v 1.90734859E-08 -0.25 0.5
v 1.90734859E-08 0 0.5
v 0.25 -0.25 0.433012694
v 0.433012694 0 0.25
v 0.433012694 -0.25 0.25
v 0.5 0 0
v 0.5 -0.25 0
v 0.433012635 0 -0.25
v 0.5 -0.25 0
v 0.5 0 0
v 0.433012635 -0.25 -0.25
v 0.249999955 0 -0.433012694
v 0.249999955 -0.25 -0.433012694
v -1.90734859E-08 0 -0.5
v -1.90734859E-08 -0.25 -0.5
v -0.433012635 0 0.25
v -0.5 -0.25 0
v -0.5 0 0
v -0.433012635 -0.25 0.25
v -0.249999955 0 0.433012694
v -0.249999955 -0.25 0.433012694
v 1.90734859E-08 0 0.5
v 1.90734859E-08 -0.25 0.5
v -0.25 0 -0.433012694
v -1.90734859E-08 -0.25 -0.5
v -1.90734859E-08 0 -0.5
v -0.25 -0.25 -0.433012694
v -0.433012694 0 -0.25
v -0.433012694 -0.25 -0.25
v -0.5 0 0
v -0.5 -0.25 0
v 1.90734859E-08 0.25 0.5
v 1.90734859E-08 0 0.5
v -0.249999955 0 0.433012694
v -0.249999955 0.25 0.433012694
v -0.433012635 0 0.25
v -0.433012635 0.25 0.25
v -0.5 0 0
v -0.5 0.25 0
v -0.5 0.25 0
v -0.5 0 0
v -0.433012694 0 -0.25
v -0.433012694 0.25 -0.25
v -0.25 0 -0.433012694
v -0.25 0.25 -0.433012694
v -1.90734859E-08 0 -0.5
v -1.90734859E-08 0.25 -0.5
v -1.90734859E-08 0.25 -0.5
v -1.90734859E-08 0 -0.5
v 0.249999955 0 -0.433012694
v 0.249999955 0.25 -0.433012694
v 0.433012635 0 -0.25
v 0.433012635 0.25 -0.25
v 0.5 0 0
v 0.5 0.25 0
v 0.5 0.25 0
v 0.5 0 0
v 0.433012694 0 0.25
v 0.433012694 0.25 0.25
v 0.25 0 0.433012694
v 0.25 0.25 0.433012694
v 1.90734859E-08 0 0.5
v 1.90734859E-08 0.25 0.5
vt 0.932132185 0.0257235412
vt 0.932132185 0.061642766
vt 0.968051434 0.061642766
vt 0.968051434 0.0257235412
vt 0.92929852 0.81345284
vt 0.98941946 0.81345284
vt 0.98941946 0.401231378
vt 0.92929852 0.401231378
vt 0.92929852 0.81345284
vt 0.98941958 0.81345284
vt 0.98941958 0.401231378
vt 0.92929852 0.401231378
vt 0.98941958 0.401231408
vt 0.929298639 0.401231408
vt 0.929298639 0.81345284
vt 0.98941958 0.81345284
vt 0.92929858 0.81345284
vt 0.98941958 0.81345284
vt 0.98941958 0.401231378
vt 0.92929858 0.401231378
vt 0.968051314 0.0257235169
vt 0.932132185 0.0257235169
vt 0.932132185 0.0616428256
vt 0.968051314 0.0616428256
vt 0.932132185 0.0257235412
vt 0.932132185 0.061642766
vt 0.968051434 0.061642766
vt 0.968051434 0.0257235412
vt 0.92929852 0.81345284
vt 0.98941946 0.81345284
vt 0.98941946 0.401231378
vt 0.92929852 0.401231378
vt 0.92929852 0.81345284
vt 0.98941958 0.81345284
vt 0.98941958 0.401231378
vt 0.92929852 0.401231378
vt 0.98941958 0.401231408
vt 0.929298639 0.401231408
vt 0.929298639 0.81345284
vt 0.98941958 0.81345284
vt 0.92929858 0.81345284
vt 0.98941958 0.81345284
vt 0.98941958 0.401231378
vt 0.92929858 0.401231378
vt 0.968051314 0.0257235169
vt 0.932132185 0.0257235169
vt 0.932132185 0.0616428256
vt 0.968051314 0.0616428256
vt 0.625737667 0.595099688
vt 0.692716479 0.662236631
vt 0.692716479 0.595099568
vt 0.625737727 0.662236631
vt 0.558759034 0.595099866
vt 0.558759093 0.662236691
vt 0.491780341 0.595100224
vt 0.4917804 0.66223681
vt 0.625737667 0.595099688
vt 0.692716479 0.662236631
vt 0.692716479 0.595099568
vt 0.625737727 0.662236631
vt 0.558759034 0.595099866
vt 0.558759093 0.662236691
vt 0.491780341 0.595100224
vt 0.4917804 0.66223681
vt 0.625737667 0.595099688
vt 0.692716479 0.662236631
vt 0.692716479 0.595099568
vt 0.625737727 0.662236631
vt 0.558759034 0.595099866
vt 0.558759093 0.662236691
vt 0.491780341 0.595100224
vt 0.4917804 0.66223681
vt 0.625737667 0.595099688
vt 0.692716479 0.662236631
vt 0.692716479 0.595099568
vt 0.625737727 0.662236631
vt 0.558759034 0.595099866
vt 0.558759093 0.662236691
vt 0.491780341 0.595100224
vt 0.4917804 0.66223681
vt 0.491780281 0.239177421
vt 0.491780311 0.306314439
vt 0.558759034 0.30631417
vt 0.558758974 0.239177331
vt 0.625737667 0.306313932
vt 0.625737667 0.239177272
vt 0.69271642 0.306313843
vt 0.69271642 0.239177227
vt 0.491780281 0.239177421
vt 0.491780311 0.306314439
vt 0.558758974 0.30631417
vt 0.558758974 0.239177331
vt 0.625737667 0.306313932
vt 0.625737667 0.239177272
vt 0.69271642 0.306313843
vt 0.69271642 0.239177227
vt 0.491780281 0.239177421
vt 0.491780311 0.306314439
vt 0.558759034 0.30631417
vt 0.558758974 0.239177331
vt 0.625737667 0.306313932
vt 0.625737667 0.239177272
vt 0.69271642 0.306313843
vt 0.69271642 0.239177227
vt 0.491780281 0.239177421
vt 0.491780311 0.306314439
vt 0.558758974 0.30631417
vt 0.558758974 0.239177331
vt 0.625737667 0.306313932
vt 0.625737667 0.239177272
vt 0.69271642 0.306313843
vt 0.69271642 0.239177227
vn -0 1 0
vn -0 1 0
vn -0 1 0
vn -0 1 0
vn -0 0 -1
vn -0 0 -1
vn -0 0 -1
vn -0 0 -1
vn 1 0 0
vn 1 0 0
vn 1 0 0
vn 1 0 0
vn -0 0 1
vn -0 0 1
vn -0 0 1
vn -0 0 1
vn -1 0 0
vn -1 0 0
vn -1 0 0
vn -1 0 0
vn -0 -1 0
vn -0 -1 0
vn -0 -1 0
vn -0 -1 0
vn -0 -1 0
vn -0 -1 0
vn -0 -1 0
vn -0 -1 0
vn -0 0 1
vn -0 0 1
vn -0 0 1
vn -0 0 1
vn 1 0 0
vn 1 0 0
vn 1 0 0
vn 1 0 0
vn -0 0 -1
vn -0 0 -1
vn -0 0 -1
vn -0 0 -1
vn -1 0 0
vn -1 0 0
vn -1 0 0
vn -1 0 0
vn -0 1 0
vn -0 1 0
vn -0 1 0
vn -0 1 0
vn 0.50000006 0 0.866025329
vn -0 0 1
vn -0 0 1
vn 0.50000006 0 0.866025448
vn 0.866025448 0 0.5
vn 0.866025448 0 0.5
vn 1 0 0
vn 1 0 0
vn 0.866025329 0 -0.500000119
vn 1 0 0
vn 1 0 0
vn 0.866025329 0 -0.500000119
vn 0.50000006 0 -0.866025448
vn 0.50000006 0 -0.866025448
vn -0 0 -1
vn -0 0 -1
vn -0.866025329 0 0.500000119
vn -1 0 0
vn -1 0 0
vn -0.866025329 0 0.500000119
vn -0.50000006 0 0.866025448
vn -0.50000006 0 0.866025448
vn -0 0 1
vn -0 0 1
vn -0.50000006 0 -0.866025329
vn -0 0 -1
vn -0 0 -1
vn -0.50000006 0 -0.866025448
vn -0.866025448 0 -0.5
vn -0.866025448 0 -0.5
vn -1 0 0
vn -1 0 0
vn -0 0 1
vn -0 0 1
vn -0.50000006 0 0.866025448
vn -0.50000006 0 0.866025448
vn -0.866025329 0 0.500000119
vn -0.866025329 0 0.500000119
vn -1 0 0
vn -1 0 0
vn -1 0 0
vn -1 0 0
vn -0.866025448 0 -0.5
vn -0.866025448 0 -0.5
vn -0.50000006 0 -0.866025329
vn -0.50000006 0 -0.866025448
vn -0 0 -1
vn -0 0 -1
vn -0 0 -1
vn -0 0 -1
vn 0.50000006 0 -0.866025448
vn 0.50000006 0 -0.866025448
vn 0.866025329 0 -0.500000119
vn 0.866025329 0 -0.500000119
vn 1 0 0
vn 1 0 0
vn 1 0 0
vn 1 0 0
vn 0.866025448 0 0.5
vn 0.866025448 0 0.5
vn 0.50000006 0 0.866025329
vn 0.50000006 0 0.866025448
vn -0 0 1
vn -0 0 1
g Column_Solo_0
f 3/3/3 2/2/2 1/1/1
f 4/4/4 3/3/3 1/1/1
f 7/7/7 6/6/6 5/5/5
f 8/8/8 7/7/7 5/5/5
f 11/11/11 10/10/10 9/9/9
f 12/12/12 11/11/11 9/9/9
f 15/15/15 14/14/14 13/13/13
f 16/16/16 15/15/15 13/13/13
f 19/19/19 18/18/18 17/17/17
f 20/20/20 19/19/19 17/17/17
f 23/23/23 22/22/22 21/21/21
f 24/24/24 23/23/23 21/21/21
f 27/27/27 26/26/26 25/25/25
f 28/28/28 27/27/27 25/25/25
f 31/31/31 30/30/30 29/29/29
f 32/32/32 31/31/31 29/29/29
f 35/35/35 34/34/34 33/33/33
f 36/36/36 35/35/35 33/33/33
f 39/39/39 38/38/38 37/37/37
f 40/40/40 39/39/39 37/37/37
f 43/43/43 42/42/42 41/41/41
f 44/44/44 43/43/43 41/41/41
f 47/47/47 46/46/46 45/45/45
f 48/48/48 47/47/47 45/45/45
f 51/51/51 50/50/50 49/49/49
f 50/50/50 52/52/52 49/49/49
f 49/49/49 52/52/52 53/53/53
f 52/52/52 54/54/54 53/53/53
f 53/53/53 54/54/54 55/55/55
f 54/54/54 56/56/56 55/55/55
f 59/59/59 58/58/58 57/57/57
f 58/58/58 60/60/60 57/57/57
f 57/57/57 60/60/60 61/61/61
f 60/60/60 62/62/62 61/61/61
f 61/61/61 62/62/62 63/63/63
f 62/62/62 64/64/64 63/63/63
f 67/67/67 66/66/66 65/65/65
f 66/66/66 68/68/68 65/65/65
f 65/65/65 68/68/68 69/69/69
f 68/68/68 70/70/70 69/69/69
f 69/69/69 70/70/70 71/71/71
f 70/70/70 72/72/72 71/71/71
f 75/75/75 74/74/74 73/73/73
f 74/74/74 76/76/76 73/73/73
f 73/73/73 76/76/76 77/77/77
f 76/76/76 78/78/78 77/77/77
f 77/77/77 78/78/78 79/79/79
f 78/78/78 80/80/80 79/79/79
f 83/83/83 82/82/82 81/81/81
f 84/84/84 83/83/83 81/81/81
f 85/85/85 83/83/83 84/84/84
f 86/86/86 85/85/85 84/84/84
f 87/87/87 85/85/85 86/86/86
f 88/88/88 87/87/87 86/86/86
f 91/91/91 90/90/90 89/89/89
f 92/92/92 91/91/91 89/89/89
f 93/93/93 91/91/91 92/92/92
f 94/94/94 93/93/93 92/92/92
f 95/95/95 93/93/93 94/94/94
f 96/96/96 95/95/95 94/94/94
f 99/99/99 98/98/98 97/97/97
f 100/100/100 99/99/99 97/97/97
f 101/101/101 99/99/99 100/100/100
f 102/102/102 101/101/101 100/100/100
f 103/103/103 101/101/101 102/102/102
f 104/104/104 103/103/103 102/102/102
f 107/107/107 106/106/106 105/105/105
f 108/108/108 107/107/107 105/105/105
f 109/109/109 107/107/107 108/108/108
f 110/110/110 109/109/109 108/108/108
f 111/111/111 109/109/109 110/110/110
f 112/112/112 111/111/111 110/110/110
