g SimpleSlopePoint_Corner
v -0 0 -0.500000596
v -0.5 -0.5 -0.500000596
v -0 -0.5 -0.500000596
v 0.5 0 -6.10351549E-07
v 0.5 -0.5 -6.10351549E-07
v 0.5 -0.5 0.499999374
v 0.5 -0.5 -0.500000596
v -0 0 -0.500000596
v -0 -0.5 -0.500000596
v -0 -9.53674295E-09 -0.437500596
v 0.375 -0.375 -0.437500596
v -0 1.90734859E-08 -0.0625006109
v 0.0625 0 -6.10351549E-07
v 0.4375 -0.375 -0.375000596
v 0.4375 9.53674295E-09 -6.10351549E-07
v 0.5 -0.5 -6.10351549E-07
v 0.5 -0.5 -0.500000596
v -0 -0.5 -0.500000596
v 0.5 0 -6.10351549E-07
v 0.5 -0.5 -0.500000596
v 0.5 -0.5 -6.10351549E-07
v -0.5 -0.5 0.499999374
v -0 -1.27156579E-08 -6.10351549E-07
v 0.0625 0 -6.10351549E-07
v -0.437500894 -0.5 0.5
v -0.5 -0.5 0.437696517
v -0 1.90734859E-08 -0.0625006109
v -0 -1.27156579E-08 -6.10351549E-07
v -0.5 -0.5 0.499999374
v -0.5 -0.5 0.437696517
v -0.5 -0.5 0.499999374
v -0.437500894 -0.5 0.5
v 0.5 -0.5 -6.10351549E-07
v -0.5 -0.5 -0.4375
v -0.5 -0.5 0.437696517
v 0.5 -0.5 -6.10351549E-07
v -0 -0.5 -0.500000596
v -0.5 -0.5 -0.500000596
v -0.5 -0.5 -0.4375
v -0.5 -0.5 -0.500000596
v -0 0 -0.500000596
v -0 -9.53674295E-09 -0.437500596
v 0.437499672 -0.5 0.5
v 0.5 -0.5 -6.10351549E-07
v -0.437500894 -0.5 0.5
v 0.5 -0.5 0.499999374
v 0.437499672 -0.5 0.5
v 0.4375 9.53674295E-09 -6.10351549E-07
v 0.5 0 -6.10351549E-07
v 0.5 -0.5 0.499999374
v 0.4375 -0.4375 -0.437500596
v -0 -1.27156579E-08 -6.10351549E-07
v -0 1.90734859E-08 -0.0625006109
v 0.375 -0.375 -0.437500596
v 0.4375 -0.375 -0.375000596
v 0.0625 0 -6.10351549E-07
v -0 -1.27156579E-08 -6.10351549E-07
v 0.4375 -0.4375 -0.437500596
v 0.4375 -0.4375 -0.437500596
v 0.375 -0.375 -0.437500596
v 0.5 -0.5 -0.500000596
v -0 0 -0.500000596
v -0 -9.53674295E-09 -0.437500596
v 0.4375 -0.4375 -0.437500596
v 0.5 -0.5 -0.500000596
v 0.4375 -0.375 -0.375000596
v 0.4375 9.53674295E-09 -6.10351549E-07
v 0.5 0 -6.10351549E-07
v -0.5 -0.5 0.437696517
v -0.5 -0.5 -0.4375
v -0 -9.53674295E-09 -0.437500596
v -0 1.90734859E-08 -0.0625006109
v -0.437500894 -0.5 0.5
v 0.0625 0 -6.10351549E-07
v 0.4375 9.53674295E-09 -6.10351549E-07
v 0.437499672 -0.5 0.5
vt 0.833536744 0.0685250312
vt 0.829605222 0.0645934418
vt 0.829605222 0.0685250312
vt 0.833536744 0.0685250312
vt 0.829605222 0.0685250312
vt 0.829605222 0.0645934418
vt 0.821214199 0.077847302
vt 0.823768258 0.0804024637
vt 0.823869765 0.0777604803
vt 0.86274159 0.0629848465
vt 0.858737886 0.0630112812
vt 0.862750828 0.0589800328
vt 0.862749875 0.058978159
vt 0.858737767 0.0630114079
vt 0.862741411 0.062987566
vt 0.866515517 0.0157995112
vt 0.866524935 0.0189734176
vt 0.869745791 0.0189735591
vt 0.823762655 0.0700040311
vt 0.821203947 0.0674439222
vt 0.831668615 0.0614133626
vt 0.959932327 0.401697069
vt 0.959896803 0.619980574
vt 0.940855086 0.627662301
vt 0.940885723 0.406138062
vt 0.978979826 0.406049937
vt 0.979001105 0.626838148
vt 0.959896803 0.619980574
vt 0.959932327 0.401697069
vt 0.853371024 0.0245989282
vt 0.853371024 0.0249553993
vt 0.853728652 0.0249553993
vt 0.859092832 0.0220946111
vt 0.855169654 0.00916797388
vt 0.850942731 0.00916797388
vt 0.853056669 0.0139974896
vt 0.855471492 0.0115827322
vt 0.855471492 0.00916797295
vt 0.979583263 0.402363062
vt 0.940214515 0.402363062
vt 0.940214515 0.810312688
vt 0.979583025 0.810312688
vt 0.855169654 0.00916797388
vt 0.855471492 0.0115827322
vt 0.850943685 0.00916797388
vt 0.855471492 0.00916797295
vt 0.979583263 0.402363062
vt 0.979583025 0.810312688
vt 0.940214515 0.810312688
vt 0.940214515 0.402363062
vt 0.959932327 0.401697069
vt 0.959901333 0.592695117
vt 0.940850854 0.571333885
vt 0.940878391 0.401697069
vt 0.978985906 0.401697069
vt 0.978958428 0.570779324
vt 0.959901333 0.592695117
vt 0.959932327 0.401697069
vt 0.9408741 0.427277088
vt 0.940870166 0.452857226
vt 0.978985906 0.401697457
vt 0.978952646 0.606337786
vt 0.940845132 0.606337547
vt 0.940874517 0.427277327
vt 0.978985906 0.401697338
vt 0.940870166 0.452857345
vt 0.940845311 0.606337786
vt 0.978952825 0.606337905
vt 0.86736685 0.0640018359
vt 0.858012497 0.0640316159
vt 0.858012438 0.0694087669
vt 0.861954808 0.0693744123
vt 0.866756737 0.0639042854
vt 0.861252785 0.0692617595
vt 0.858012438 0.0694087669
vt 0.858012497 0.0640316159
vn -0 0 -1
vn -0 0 -1
vn -0 0 -1
vn 1 0 0
vn 1 0 0
vn 1 0 0
vn -0 0 -1
vn -0 0 -1
vn -0 0 -1
vn 0.707105756 0.707107723 0
vn 0.707105875 0.707107663 0
vn 0.707105756 0.707107723 0
vn -0 0.707106769 -0.707106769
vn -0 0.707106769 -0.707106769
vn -0 0.707106769 -0.707106769
vn -0 -1 0
vn -0 -1 0
vn -0 -1 0
vn 1 0 0
vn 1 0 0
vn 1 0 0
vn -8.83889243E-06 0.707107067 0.707106471
vn -8.83889243E-06 0.707107067 0.707106471
vn -8.83889243E-06 0.707107067 0.707106471
vn -8.83889243E-06 0.707107067 0.707106411
vn -0.707110047 0.707103431 0
vn -0.707110047 0.707103491 0
vn -0.707110047 0.707103491 0
vn -0.707110047 0.707103491 0
vn -0 -1 3.91447912E-07
vn -0 -1 3.91447827E-07
vn -0 -1 3.91447855E-07
vn -0 -1 3.91447855E-07
vn -0 -1 0
vn -0 -1 0
vn -0 -1 0
vn -0 -1 0
vn -0 -1 0
vn -0.707109392 0.707104146 0
vn -0.707109332 0.707104146 0
vn -0.707109332 0.707104146 0
vn -0.707109392 0.707104146 0
vn -0 -1 0
vn -0 -1 0
vn -0 -1 0
vn -0 -1 0
vn 8.83882331E-06 0.707105935 0.707107604
vn 8.83882512E-06 0.707105875 0.707107663
vn 8.83882331E-06 0.707105935 0.707107604
vn 8.83882331E-06 0.707105875 0.707107663
vn 0.707109451 0.707104087 0
vn 0.707109451 0.707104027 0
vn 0.707109451 0.707104087 0
vn 0.707109451 0.707104027 0
vn -0 0.707106769 -0.707106769
vn -0 0.707106769 -0.707106769
vn -0 0.707106769 -0.707106769
vn -0 0.707106769 -0.707106769
vn 0.707106769 0.707106769 0
vn 0.707106769 0.707106769 0
vn 0.707106769 0.707106769 0
vn 0.707109272 0.707104266 0
vn 0.707109272 0.707104266 0
vn -0 0.707106769 -0.707106769
vn -0 0.707106769 -0.707106769
vn -0 0.707106769 -0.707106769
vn -0 0.707106769 -0.707106769
vn -0 0.707106769 -0.707106769
vn -0.707106352 0.707107186 0
vn -0.707106352 0.707107186 0
vn -0.707106352 0.707107186 0
vn -0.707106352 0.707107127 0
vn -0 0.707107484 0.707106054
vn -0 0.707107544 0.707106054
vn -0 0.707107484 0.707106054
vn -0 0.707107484 0.707106054
g SimpleSlopePoint_Corner_0
f 3/3/3 2/2/2 1/1/1
f 6/6/6 5/5/5 4/4/4
f 9/9/9 8/8/8 7/7/7
f 12/12/12 11/11/11 10/10/10
f 15/15/15 14/14/14 13/13/13
f 18/18/18 17/17/17 16/16/16
f 21/21/21 20/20/20 19/19/19
f 24/24/24 23/23/23 22/22/22
f 25/25/25 24/24/24 22/22/22
f 28/28/28 27/27/27 26/26/26
f 29/29/29 28/28/28 26/26/26
f 32/32/32 31/31/31 30/30/30
f 33/33/33 32/32/32 30/30/30
f 36/36/36 35/35/35 34/34/34
f 37/37/37 36/36/36 34/34/34
f 37/37/37 34/34/34 38/38/38
f 41/41/41 40/40/40 39/39/39
f 42/42/42 41/41/41 39/39/39
f 45/45/45 44/44/44 43/43/43
f 43/43/43 44/44/44 46/46/46
f 49/49/49 48/48/48 47/47/47
f 50/50/50 49/49/49 47/47/47
f 53/53/53 52/52/52 51/51/51
f 54/54/54 53/53/53 51/51/51
f 57/57/57 56/56/56 55/55/55
f 58/58/58 57/57/57 55/55/55
f 61/61/61 60/60/60 59/59/59
f 61/61/61 62/62/62 60/60/60
f 62/62/62 63/63/63 60/60/60
f 66/66/66 65/65/65 64/64/64
f 66/66/66 67/67/67 65/65/65
f 67/67/67 68/68/68 65/65/65
f 71/71/71 70/70/70 69/69/69
f 72/72/72 71/71/71 69/69/69
f 75/75/75 74/74/74 73/73/73
f 76/76/76 75/75/75 73/73/73
