g X_Wall_DoubleWindow
v -0.437775552 -2.68863498E-18 -0.421337724
v -0.437775552 2.93625667E-18 -0.445554793
v -0.413558483 -2.68863498E-18 -0.421337724
v 0.5 -0.5 0.34375
v 0.5 0.5 0.34375
v 0.34375 0.5 0.34375
v 0.34375 -0.5 0.34375
v 0.34375 -0.5 0.5
v 0.34375 -0.5 0.34375
v 0.34375 0.5 0.34375
v 0.34375 0.5 0.5
v 0.34375 -0.5 0.5
v 0.34375 0.5 0.5
v 0.5 0.5 0.5
v 0.5 -0.5 0.5
v 0.5 -0.5 0.5
v 0.5 0.5 0.5
v 0.5 0.5 0.34375
v 0.5 -0.5 0.34375
v 0.34375 0.5 0.34375
v 0.5 0.5 0.34375
v 0.5 0.5 0.5
v 0.34375 0.5 0.5
v 0.5 -0.5 0.34375
v 0.34375 -0.5 0.34375
v 0.34375 -0.5 0.5
v 0.5 -0.5 0.5
v -0.5 -0.5 -0.34375
v -0.5 0.5 -0.34375
v -0.34375 0.5 -0.34375
v -0.34375 -0.5 -0.34375
v -0.34375 -0.5 -0.5
v -0.34375 -0.5 -0.34375
v -0.34375 0.5 -0.34375
v -0.34375 0.5 -0.5
v -0.34375 -0.5 -0.5
v -0.34375 0.5 -0.5
v -0.5 0.5 -0.5
v -0.5 -0.5 -0.5
v -0.5 -0.5 -0.5
v -0.5 0.5 -0.5
v -0.5 0.5 -0.34375
v -0.5 -0.5 -0.34375
v -0.34375 0.5 -0.34375
v -0.5 0.5 -0.34375
v -0.5 0.5 -0.5
v -0.34375 0.5 -0.5
v -0.5 -0.5 -0.34375
v -0.34375 -0.5 -0.34375
v -0.34375 -0.5 -0.5
v -0.5 -0.5 -0.5
v 0.5 -0.5 -0.5
v 0.5 0.5 -0.5
v 0.34375 0.5 -0.5
v 0.34375 -0.5 -0.5
v 0.34375 -0.5 -0.34375
v 0.34375 -0.5 -0.5
v 0.34375 0.5 -0.5
v 0.34375 0.5 -0.34375
v 0.34375 -0.5 -0.34375
v 0.34375 0.5 -0.34375
v 0.5 0.5 -0.34375
v 0.5 -0.5 -0.34375
v 0.5 -0.5 -0.34375
v 0.5 0.5 -0.34375
v 0.5 0.5 -0.5
v 0.5 -0.5 -0.5
v 0.34375 0.5 -0.5
v 0.5 0.5 -0.5
v 0.5 0.5 -0.34375
v 0.34375 0.5 -0.34375
v 0.5 -0.5 -0.5
v 0.34375 -0.5 -0.5
v 0.34375 -0.5 -0.34375
v 0.5 -0.5 -0.34375
v -0.5 -0.5 0.5
v -0.5 0.5 0.5
v -0.34375 0.5 0.5
v -0.34375 -0.5 0.5
v -0.34375 -0.5 0.34375
v -0.34375 -0.5 0.5
v -0.34375 0.5 0.5
v -0.34375 0.5 0.34375
v -0.34375 -0.5 0.34375
v -0.34375 0.5 0.34375
v -0.5 0.5 0.34375
v -0.5 -0.5 0.34375
v -0.5 -0.5 0.34375
v -0.5 0.5 0.34375
v -0.5 0.5 0.5
v -0.5 -0.5 0.5
v -0.34375 0.5 0.5
v -0.5 0.5 0.5
v -0.5 0.5 0.34375
v -0.34375 0.5 0.34375
v -0.5 -0.5 0.5
v -0.34375 -0.5 0.5
v -0.34375 -0.5 0.34375
v -0.5 -0.5 0.34375
vt 0 0
vt 2.49999998E-09 1
vt 1 0
vt 0.95996666 0.0471314788
vt 0.95996666 0.0574948788
vt 0.960704803 0.0574948788
vt 0.960704803 0.0471314788
vt 0.959969997 0.0469263196
vt 0.960708141 0.0469263196
vt 0.960708141 0.0572897792
vt 0.959969997 0.0572897792
vt 0.959971428 0.0469263196
vt 0.959971428 0.0572897792
vt 0.960709572 0.0572897792
vt 0.960709572 0.0469263196
vt 0.959969997 0.0469263196
vt 0.959969997 0.0572897792
vt 0.960708141 0.0572897792
vt 0.960708141 0.0469263196
vt 0.938008547 0.0582504869
vt 0.938008547 0.0607540011
vt 0.940591812 0.0607540011
vt 0.940591812 0.0582504869
vt 0.938008547 0.0607540011
vt 0.938008547 0.0582504869
vt 0.940591812 0.0582504869
vt 0.940591812 0.0607540011
vt 0.95996666 0.0471314788
vt 0.95996666 0.0574948788
vt 0.960704803 0.0574948788
vt 0.960704803 0.0471314788
vt 0.959969997 0.0469263196
vt 0.960708141 0.0469263196
vt 0.960708141 0.0572897792
vt 0.959969997 0.0572897792
vt 0.959971428 0.0469263196
vt 0.959971428 0.0572897792
vt 0.960709572 0.0572897792
vt 0.960709572 0.0469263196
vt 0.959969997 0.0469263196
vt 0.959969997 0.0572897792
vt 0.960708141 0.0572897792
vt 0.960708141 0.0469263196
vt 0.938008547 0.0582504869
vt 0.938008547 0.0607540011
vt 0.940591812 0.0607540011
vt 0.940591812 0.0582504869
vt 0.938008547 0.0607540011
vt 0.938008547 0.0582504869
vt 0.940591812 0.0582504869
vt 0.940591812 0.0607540011
vt 0.95996666 0.0471314788
vt 0.95996666 0.0574948788
vt 0.960704803 0.0574948788
vt 0.960704803 0.0471314788
vt 0.959969997 0.0469263196
vt 0.960708141 0.0469263196
vt 0.960708141 0.0572897792
vt 0.959969997 0.0572897792
vt 0.959971428 0.0469263196
vt 0.959971428 0.0572897792
vt 0.960709572 0.0572897792
vt 0.960709572 0.0469263196
vt 0.959969997 0.0469263196
vt 0.959969997 0.0572897792
vt 0.960708141 0.0572897792
vt 0.960708141 0.0469263196
vt 0.938008547 0.0582504869
vt 0.938008547 0.0607540011
vt 0.940591812 0.0607540011
vt 0.940591812 0.0582504869
vt 0.938008547 0.0607540011
vt 0.938008547 0.0582504869
vt 0.940591812 0.0582504869
vt 0.940591812 0.0607540011
vt 0.95996666 0.0471314788
vt 0.95996666 0.0574948788
vt 0.960704803 0.0574948788
vt 0.960704803 0.0471314788
vt 0.959969997 0.0469263196
vt 0.960708141 0.0469263196
vt 0.960708141 0.0572897792
vt 0.959969997 0.0572897792
vt 0.959971428 0.0469263196
vt 0.959971428 0.0572897792
vt 0.960709572 0.0572897792
vt 0.960709572 0.0469263196
vt 0.959969997 0.0469263196
vt 0.959969997 0.0572897792
vt 0.960708141 0.0572897792
vt 0.960708141 0.0469263196
vt 0.938008547 0.0582504869
vt 0.938008547 0.0607540011
vt 0.940591812 0.0607540011
vt 0.940591812 0.0582504869
vt 0.938008547 0.0607540011
vt 0.938008547 0.0582504869
vt 0.940591812 0.0582504869
vt 0.940591812 0.0607540011
vn -0 1 0
vn -0 1 0
vn -0 1 0
vn -0 0 -1
vn -0 0 -1
vn -0 0 -1
vn -0 0 -1
vn -1 0 0
vn -1 0 0
vn -1 0 0
vn -1 0 0
vn -0 0 1
vn -0 0 1
vn -0 0 1
vn -0 0 1
vn 1 0 0
vn 1 0 0
vn 1 0 0
vn 1 0 0
vn -0 1 0
vn -0 1 0
vn -0 1 0
vn -0 1 0
vn -0 -1 0
vn -0 -1 0
vn -0 -1 0
vn -0 -1 0
vn -0 0 1
vn -0 0 1
vn -0 0 1
vn -0 0 1
vn 1 0 0
vn 1 0 0
vn 1 0 0
vn 1 0 0
vn -0 0 -1
vn -0 0 -1
vn -0 0 -1
vn -0 0 -1
vn -1 0 0
vn -1 0 0
vn -1 0 0
vn -1 0 0
vn -0 1 0
vn -0 1 0
vn -0 1 0
vn -0 1 0
vn -0 -1 0
vn -0 -1 0
vn -0 -1 0
vn -0 -1 0
vn -0 0 -1
vn -0 0 -1
vn -0 0 -1
vn -0 0 -1
vn -1 0 0
vn -1 0 0
vn -1 0 0
vn -1 0 0
vn -0 0 1
vn -0 0 1
vn -0 0 1
vn -0 0 1
vn 1 0 0
vn 1 0 0
vn 1 0 0
vn 1 0 0
vn -0 1 0
vn -0 1 0
vn -0 1 0
vn -0 1 0
vn -0 -1 0
vn -0 -1 0
vn -0 -1 0
vn -0 -1 0
vn -0 0 1
vn -0 0 1
vn -0 0 1
vn -0 0 1
vn 1 0 0
vn 1 0 0
vn 1 0 0
vn 1 0 0
vn -0 0 -1
vn -0 0 -1
vn -0 0 -1
vn -0 0 -1
vn -1 0 0
vn -1 0 0
vn -1 0 0
vn -1 0 0
vn -0 1 0
vn -0 1 0
vn -0 1 0
vn -0 1 0
vn -0 -1 0
vn -0 -1 0
vn -0 -1 0
vn -0 -1 0
g X_Wall_DoubleWindow_0
f 3/3/3 2/2/2 1/1/1
g X_Wall_DoubleWindow_1
f 6/6/6 5/5/5 4/4/4
f 7/7/7 6/6/6 4/4/4
f 10/10/10 9/9/9 8/8/8
f 11/11/11 10/10/10 8/8/8
f 14/14/14 13/13/13 12/12/12
f 15/15/15 14/14/14 12/12/12
f 18/18/18 17/17/17 16/16/16
f 19/19/19 18/18/18 16/16/16
f 22/22/22 21/21/21 20/20/20
f 23/23/23 22/22/22 20/20/20
f 26/26/26 25/25/25 24/24/24
f 27/27/27 26/26/26 24/24/24
f 30/30/30 29/29/29 28/28/28
f 31/31/31 30/30/30 28/28/28
f 34/34/34 33/33/33 32/32/32
f 35/35/35 34/34/34 32/32/32
f 38/38/38 37/37/37 36/36/36
f 39/39/39 38/38/38 36/36/36
f 42/42/42 41/41/41 40/40/40
f 43/43/43 42/42/42 40/40/40
f 46/46/46 45/45/45 44/44/44
f 47/47/47 46/46/46 44/44/44
f 50/50/50 49/49/49 48/48/48
f 51/51/51 50/50/50 48/48/48
f 54/54/54 53/53/53 52/52/52
f 55/55/55 54/54/54 52/52/52
f 58/58/58 57/57/57 56/56/56
f 59/59/59 58/58/58 56/56/56
f 62/62/62 61/61/61 60/60/60
f 63/63/63 62/62/62 60/60/60
f 66/66/66 65/65/65 64/64/64
f 67/67/67 66/66/66 64/64/64
f 70/70/70 69/69/69 68/68/68
f 71/71/71 70/70/70 68/68/68
f 74/74/74 73/73/73 72/72/72
f 75/75/75 74/74/74 72/72/72
f 78/78/78 77/77/77 76/76/76
f 79/79/79 78/78/78 76/76/76
f 82/82/82 81/81/81 80/80/80
f 83/83/83 82/82/82 80/80/80
f 86/86/86 85/85/85 84/84/84
f 87/87/87 86/86/86 84/84/84
f 90/90/90 89/89/89 88/88/88
f 91/91/91 90/90/90 88/88/88
f 94/94/94 93/93/93 92/92/92
f 95/95/95 94/94/94 92/92/92
f 98/98/98 97/97/97 96/96/96
f 99/99/99 98/98/98 96/96/96
