g AshlarStone_HalfSlopeB
v -0.5 0 0.4375
v -0.5 0 -0.4375
v 0.5 0.5 -0.4375
v 0.5 0.5 0.4375
v -0.5 0 0.5
v -0.5 0 0.4375
v 0.5 0.5 0.4375
v 0.5 0.5 0.5
v -0.5 0 -0.5
v 0.5 0.5 -0.5
v 0.5 0.5 -0.4375
v -0.5 0 -0.4375
v -0.5 0 0.5
v 0.5 0.5 0.5
v 0.5 -0.5 0.5
v -0.5 -0.5 0.5
v -0.5 0 -0.5
v 0.5 -0.5 -0.5
v 0.5 0.5 -0.5
v -0.5 -0.5 -0.5
v -0.5 -0.5 -0.5
v -0.5 -0.5 0.5
v 0.5 -0.5 0.5
v 0.5 -0.5 -0.5
v 0.5 -0.5 0.5
v 0.5 0.5 0.5
v 0.5 0.5 -0.5
v 0.5 -0.5 -0.5
v -0.5 0 0.5
v -0.5 -0.5 0.5
v -0.5 -0.5 -0.5
v -0.5 0 -0.5
vt 0.820806324 0.0501235537
vt 0.820806265 0.0681054294
vt 0.840962768 0.0681054294
vt 0.840962887 0.0501235537
vt 0.978985906 0.401697069
vt 0.940878391 0.401697069
vt 0.940811872 0.810978651
vt 0.978919327 0.810978651
vt 0.978985906 0.401697069
vt 0.978919327 0.810978651
vt 0.940811872 0.810978651
vt 0.940878391 0.401697069
vt 0.828226209 0.0405817032
vt 0.842296481 0.0476168096
vt 0.842296481 0.0335465483
vt 0.828226209 0.0335465483
vt 0.842574596 0.0405817032
vt 0.856644988 0.0476168096
vt 0.856644988 0.0335465483
vt 0.842574596 0.0476168096
vt 0.849735022 0.0477594137
vt 0.849735022 0.0618296266
vt 0.863805294 0.0618296266
vt 0.863805294 0.0477594137
vt 0.835445642 0.0477593839
vt 0.835445642 0.0618296266
vt 0.849515796 0.0618296266
vt 0.849515796 0.0477593839
vt 0.835261285 0.0619722009
vt 0.828226149 0.0619722009
vt 0.828226149 0.0760425329
vt 0.835261285 0.0760425329
vn -0.44721359 0.89442718 0
vn -0.44721359 0.89442718 0
vn -0.44721359 0.89442718 0
vn -0.44721359 0.89442718 0
vn -0.44721359 0.89442718 0
vn -0.44721359 0.89442718 0
vn -0.44721359 0.89442718 0
vn -0.44721359 0.89442718 0
vn -0.44721359 0.89442718 0
vn -0.44721359 0.89442718 0
vn -0.44721359 0.89442718 0
vn -0.44721359 0.89442718 0
vn -0 0 1
vn -0 0 1
vn -0 0 1
vn -0 0 1
vn -0 0 -1
vn -0 0 -1
vn -0 0 -1
vn -0 0 -1
vn -0 -1 0
vn -0 -1 0
vn -0 -1 0
vn -0 -1 0
vn 1 0 0
vn 1 0 0
vn 1 0 0
vn 1 0 0
vn -1 0 0
vn -1 0 0
vn -1 0 0
vn -1 0 0
g AshlarStone_HalfSlopeB_0
f 3/3/3 2/2/2 1/1/1
f 4/4/4 3/3/3 1/1/1
f 7/7/7 6/6/6 5/5/5
f 8/8/8 7/7/7 5/5/5
f 11/11/11 10/10/10 9/9/9
f 12/12/12 11/11/11 9/9/9
f 15/15/15 14/14/14 13/13/13
f 13/13/13 16/16/16 15/15/15
f 19/19/19 18/18/18 17/17/17
f 18/18/18 20/20/20 17/17/17
f 23/23/23 22/22/22 21/21/21
f 24/24/24 23/23/23 21/21/21
f 27/27/27 26/26/26 25/25/25
f 28/28/28 27/27/27 25/25/25
f 31/31/31 30/30/30 29/29/29
f 32/32/32 31/31/31 29/29/29
