g Wall
v -0.5 -0.5 -0.250000596
v -0.5 0.5 -0.250000596
v -0.5 0.5 0.249999389
v -0.5 -0.5 0.249999389
v -0.5 0.5 -0.250000596
v 0.5 0.5 -0.250000596
v 0.5 0.5 0.249999389
v -0.5 0.5 0.249999389
v 0.5 0.5 -0.250000596
v 0.5 -0.5 -0.250000596
v 0.5 -0.5 0.249999389
v 0.5 0.5 0.249999389
v 0.5 -0.5 -0.250000596
v -0.5 -0.5 -0.250000596
v -0.5 -0.5 0.249999389
v 0.5 -0.5 0.249999389
v -0.5 -0.5 0.249999389
v -0.5 0.5 0.249999389
v 0.5 0.5 0.249999389
v 0.5 -0.5 0.249999389
v 0.5 -0.5 -0.250000596
v 0.5 0.5 -0.250000596
v -0.5 0.5 -0.250000596
v -0.5 -0.5 -0.250000596
vt 0.838839412 0.0462927967
vt 0.838839412 0.0521985888
vt 0.841792226 0.0521985888
vt 0.841792226 0.0462927967
vt 0.950378418 0.0761082768
vt 0.960281372 0.0761082768
vt 0.960281372 0.0711567998
vt 0.950378418 0.0711567998
vt 0.844843149 0.0521985888
vt 0.844843149 0.0462927967
vt 0.841890335 0.0462927967
vt 0.841890335 0.0521985888
vt 0.960281372 0.0761082768
vt 0.950378418 0.0761082768
vt 0.950378418 0.0711567998
vt 0.960281372 0.0711567998
vt 0.844938755 0.0462927967
vt 0.844938755 0.0521985888
vt 0.850844502 0.0521985888
vt 0.850844502 0.0462927967
vt 0.851505399 0.0522493422
vt 0.845599532 0.0522493422
vt 0.845599532 0.058155179
vt 0.851505399 0.058155179
vn -1 0 0
vn -1 0 0
vn -1 0 0
vn -1 0 0
vn -0 1 0
vn -0 1 0
vn -0 1 0
vn -0 1 0
vn 1 0 0
vn 1 0 0
vn 1 0 0
vn 1 0 0
vn -0 -1 0
vn -0 -1 0
vn -0 -1 0
vn -0 -1 0
vn -0 0 1
vn -0 0 1
vn -0 0 1
vn -0 0 1
vn -0 0 -1
vn -0 0 -1
vn -0 0 -1
vn -0 0 -1
g Wall_0
f 3/3/3 2/2/2 1/1/1
f 4/4/4 3/3/3 1/1/1
f 7/7/7 6/6/6 5/5/5
f 8/8/8 7/7/7 5/5/5
f 11/11/11 10/10/10 9/9/9
f 12/12/12 11/11/11 9/9/9
f 15/15/15 14/14/14 13/13/13
f 16/16/16 15/15/15 13/13/13
f 19/19/19 18/18/18 17/17/17
f 20/20/20 19/19/19 17/17/17
f 23/23/23 22/22/22 21/21/21
f 24/24/24 23/23/23 21/21/21
