g Column_Middle
v 0.25 0.5 0.433012605
v 1.90734859E-08 -0.5 0.5
v 1.90734859E-08 0.5 0.5
v 0.25 -0.5 0.433012605
v 0.433012694 0.5 0.249999925
v 0.433012694 -0.5 0.249999925
v 0.5 0.5 0
v 0.5 -0.5 0
v 0.433012635 0.5 -0.250000149
v 0.5 -0.5 0
v 0.5 0.5 0
v 0.433012635 -0.5 -0.250000149
v 0.249999955 0.5 -0.433012843
v 0.249999955 -0.5 -0.433012843
v -1.90734859E-08 0.5 -0.5
v -1.90734859E-08 -0.5 -0.5
v -0.433012635 0.5 0.25
v -0.5 -0.5 0
v -0.5 0.5 0
v -0.433012635 -0.5 0.25
v -0.249999955 0.5 0.433012694
v -0.249999955 -0.5 0.433012694
v 1.90734859E-08 0.5 0.5
v 1.90734859E-08 -0.5 0.5
v -0.25 0.5 -0.433012694
v -1.90734859E-08 -0.5 -0.5
v -1.90734859E-08 0.5 -0.5
v -0.25 -0.5 -0.433012694
v -0.433012694 0.5 -0.25
v -0.433012694 -0.5 -0.25
v -0.5 0.5 0
v -0.5 -0.5 0
vt 0.625737667 0.321314067
vt 0.692716479 0.580099881
vt 0.69271642 0.321314037
vt 0.625737727 0.580099881
vt 0.558758974 0.321314096
vt 0.558759093 0.58009994
vt 0.491780281 0.321314156
vt 0.4917804 0.5801
vt 0.625737667 0.321314067
vt 0.692716479 0.580099881
vt 0.69271642 0.321314037
vt 0.625737727 0.580099881
vt 0.558758974 0.321314096
vt 0.558759093 0.58009994
vt 0.491780281 0.321314156
vt 0.4917804 0.5801
vt 0.625737667 0.321314067
vt 0.692716479 0.580099881
vt 0.69271642 0.321314037
vt 0.625737727 0.580099881
vt 0.558758974 0.321314096
vt 0.558759093 0.58009994
vt 0.491780281 0.321314156
vt 0.4917804 0.5801
vt 0.625737667 0.321314067
vt 0.692716479 0.580099881
vt 0.69271642 0.321314037
vt 0.625737727 0.580099881
vt 0.558758974 0.321314096
vt 0.558759093 0.58009994
vt 0.491780281 0.321314156
vt 0.4917804 0.5801
vn 0.500000119 0 0.866025329
vn 2.02052178E-07 0 1
vn 2.02052178E-07 0 1
vn 0.500000119 0 0.866025329
vn 0.866025329 0 0.500000119
vn 0.866025329 0 0.500000119
vn 1 0 0
vn 1 0 0
vn 0.866025448 0 -0.5
vn 1 0 0
vn 1 0 0
vn 0.866025448 0 -0.5
vn 0.499999791 0 -0.866025507
vn 0.499999791 0 -0.866025507
vn -2.79764549E-07 0 -1
vn -2.79764549E-07 0 -1
vn -0.866025329 0 0.500000119
vn -1 0 0
vn -1 0 0
vn -0.866025329 0 0.500000119
vn -0.50000006 0 0.866025448
vn -0.50000006 0 0.866025448
vn 2.02052178E-07 0 1
vn 2.02052178E-07 0 1
vn -0.50000006 0 -0.866025448
vn -2.79764549E-07 0 -1
vn -2.79764549E-07 0 -1
vn -0.50000006 0 -0.866025448
vn -0.866025448 0 -0.5
vn -0.866025448 0 -0.5
vn -1 0 0
vn -1 0 0
g Column_Middle_0
f 3/3/3 2/2/2 1/1/1
f 2/2/2 4/4/4 1/1/1
f 1/1/1 4/4/4 5/5/5
f 4/4/4 6/6/6 5/5/5
f 5/5/5 6/6/6 7/7/7
f 6/6/6 8/8/8 7/7/7
f 11/11/11 10/10/10 9/9/9
f 10/10/10 12/12/12 9/9/9
f 9/9/9 12/12/12 13/13/13
f 12/12/12 14/14/14 13/13/13
f 13/13/13 14/14/14 15/15/15
f 14/14/14 16/16/16 15/15/15
f 19/19/19 18/18/18 17/17/17
f 18/18/18 20/20/20 17/17/17
f 17/17/17 20/20/20 21/21/21
f 20/20/20 22/22/22 21/21/21
f 21/21/21 22/22/22 23/23/23
f 22/22/22 24/24/24 23/23/23
f 27/27/27 26/26/26 25/25/25
f 26/26/26 28/28/28 25/25/25
f 25/25/25 28/28/28 29/29/29
f 28/28/28 30/30/30 29/29/29
f 29/29/29 30/30/30 31/31/31
f 30/30/30 32/32/32 31/31/31
