g AshlarCornerBrace
v -0.5 -0.5 0.5
v -0.446277 -0.5 0.334509
v -0.5 -0.5 0.326
v 0.446 0.276 0.5
v 0.446 0.276 -0.446
v -0.5 0.276 -0.446
v -0.5 -0.5 0.5
v -0.397812 -0.5 0.359203
v -0.446277 -0.5 0.334509
v -0.378581 -0.5 0.378433
v -0.35935 -0.5 0.397664
v -0.5 -0.5 0.5
v -0.334657 -0.5 0.446129
v -0.35935 -0.5 0.397664
v -0.326074 -0.5 0.5
v 0.450916 0.276 0.190881
v 0.497355 0.191421 0.5
v 0.499852 0.276 0.5
v 0.44847 0.191421 0.191675
v 0.306817 0.191421 -0.0863348
v 0.308897 0.276 -0.0878462
v 0.422784 0.128795 0.200022
v 0.470346 0.128795 0.5
v 0.410576 0.105044 0.5
v 0.196502 0.191421 -0.19665
v 0.198298 0.276 -0.198446
v 0.177639 0.128795 -0.177787
v 0.284967 0.128795 -0.0704595
v 0.135896 0.105044 -0.136044
v 0.236612 0.105044 -0.0353276
v 0.0921578 0.132051 -0.0923057
v 0.365939 0.105044 0.218492
v 0.185946 0.132051 0.00148289
v 0.0686848 0.216631 -0.0688327
v 0.158756 0.216631 0.0212381
v 0.306378 0.132051 0.237844
v 0.34795 0.132051 0.5
v 0.274414 0.216631 0.24823
v 0.314341 0.216631 0.5
v -0.276074 -0.5 0.5
v -0.334657 -0.5 0.446129
v -0.326074 -0.5 0.5
v -0.287104 -0.5 0.430678
v -0.35935 -0.5 0.397664
v -0.3189 -0.5 0.368275
v -0.378581 -0.5 0.378433
v -0.343661 -0.5 0.343513
v -0.397812 -0.5 0.359203
v -0.368423 -0.5 0.318752
v -0.446277 -0.5 0.334509
v -0.430826 -0.5 0.286956
v -0.5 -0.5 0.326
v -0.5 -0.5 0.276
v -0.276074 -0.022012 0.5
v -0.287104 -0.5 0.430678
v -0.276074 -0.5 0.5
v -0.287104 -0.022012 0.430678
v -0.3189 -0.5 0.368275
v -0.26327 0.103972 0.422934
v -0.251014 0.103972 0.5
v -0.3189 -0.022012 0.368275
v -0.343661 -0.5 0.343513
v -0.207284 0.192073 0.404743
v -0.192147 0.192073 0.5
v -0.298626 0.103972 0.353545
v -0.251001 0.192073 0.318944
v -0.343661 -0.022012 0.343513
v -0.368423 -0.5 0.318752
v -0.326159 0.103972 0.326012
v -0.285047 0.192073 0.284899
v -0.319092 0.192073 0.250853
v -0.368423 -0.022012 0.318752
v -0.430826 -0.5 0.286956
v -0.353693 0.103972 0.298478
v -0.430826 -0.022012 0.286956
v -0.5 -0.5 0.276
v -0.5 -0.022012 0.276
v -0.5 0.103972 0.25094
v -0.423082 0.103972 0.263123
v -0.404891 0.192073 0.207137
v -0.5 0.192073 0.192073
v -0.00367798 0.276 0.338587
v -0.104046 0.25094 0.5
v 0.0219378 0.276 0.5
v -0.123496 0.25094 0.377518
v -0.192147 0.192073 0.5
v -0.207284 0.192073 0.404743
v -0.251001 0.192073 0.318944
v -0.179726 0.25094 0.26716
v -0.0778033 0.276 0.193108
v -0.285047 0.192073 0.284899
v -0.223517 0.25094 0.223369
v -0.13553 0.276 0.135382
v -0.193256 0.276 0.0776554
v -0.267308 0.25094 0.179578
v -0.319092 0.192073 0.250853
v -0.404891 0.192073 0.207137
v -0.377666 0.25094 0.123348
v -0.338735 0.276 0.00353008
v -0.5 0.276 -0.0220117
v -0.5 0.25094 0.103972
v -0.5 0.192073 0.192073
v -0.0118134 0.191421 0.5
v -0.00367798 0.276 0.338587
v 0.0219378 0.276 0.5
v -0.0357773 0.191421 0.349017
v 0.0151952 0.128795 0.5
v -0.0778033 0.276 0.193108
v -0.0100905 0.128795 0.340671
v 0.0749651 0.105044 0.5
v -0.105109 0.191421 0.212947
v -0.13553 0.276 0.135382
v -0.159102 0.191421 0.158954
v -0.0832581 0.128795 0.197071
v -0.140239 0.128795 0.140091
v 0.046754 0.105044 0.322201
v 0.137591 0.132051 0.5
v -0.0349033 0.105044 0.16194
v -0.0984953 0.105044 0.0983475
v 0.106315 0.132051 0.302849
v 0.1712 0.216631 0.5
v 0.138279 0.216631 0.292463
v 0.015762 0.132051 0.125129
v -0.0547575 0.132051 0.0546096
v 0.0429528 0.216631 0.105374
v -0.0312845 0.216631 0.0311366
v 0.24277 0.216631 0.5
v 0.138279 0.216631 0.292463
v 0.1712 0.216631 0.5
v 0.206346 0.216631 0.270346
v 0.0429528 0.216631 0.105374
v 0.100854 0.216631 0.0633062
v -0.0312845 0.216631 0.0311366
v 0.0187 0.216631 -0.0188478
v 0.274414 0.216631 0.24823
v 0.24277 0.216631 0.5
v 0.314341 0.216631 0.5
v 0.206346 0.216631 0.270346
v 0.100854 0.216631 0.0633062
v 0.158756 0.216631 0.0212381
v 0.0187 0.216631 -0.0188478
v 0.0686848 0.216631 -0.0688327
v -0.5 0.132051 -0.137665
v -0.29261 0.216631 -0.138427
v -0.5 0.216631 -0.171274
v -0.302996 0.132051 -0.106463
v -0.5 0.105044 -0.0750391
v -0.105522 0.216631 -0.0431007
v -0.322349 0.105044 -0.0469019
v -0.5 0.128795 -0.0152692
v -0.125277 0.132051 -0.0159099
v -0.0312845 0.216631 0.0311366
v -0.0547575 0.132051 0.0546096
v -0.162087 0.105044 0.0347554
v -0.0984953 0.105044 0.0983475
v -0.340819 0.128795 0.00994266
v -0.5 0.191421 0.0117395
v -0.197219 0.128795 0.0831102
v -0.140239 0.128795 0.140091
v -0.349165 0.191421 0.0356294
v -0.5 0.276 -0.0220117
v -0.338735 0.276 0.00353008
v -0.213095 0.191421 0.104961
v -0.159102 0.191421 0.158954
v -0.193256 0.276 0.0776554
v -0.13553 0.276 0.135382
v -0.270494 0.216631 -0.206494
v -0.5 0.216631 -0.242844
v -0.5 0.216631 -0.171274
v -0.29261 0.216631 -0.138427
v -0.063454 0.216631 -0.101002
v -0.105522 0.216631 -0.0431007
v 0.0187 0.216631 -0.0188478
v -0.0312845 0.216631 0.0311366
v -0.5 0.216631 -0.314415
v -0.5 0.216631 -0.242844
v -0.270494 0.216631 -0.206494
v -0.248378 0.216631 -0.274562
v -0.021386 0.216631 -0.158904
v -0.063454 0.216631 -0.101002
v 0.0187 0.216631 -0.0188478
v 0.0686848 0.216631 -0.0688327
v -0.5 0.5 0.5
v 0.446 0.5 0.5
v 0.446 0.326 0.5
v 0.0170874 0.326 0.5
v -0.123481 0.298039 0.5
v -0.228121 0.228121 0.5
v -0.29804 0.123481 0.5
v -0.326 -0.0170875 0.5
v -0.5 -0.5 0.5
v -0.326074 -0.5 0.5
v 0.5 0.276 0.5
v 0.0219378 0.276 0.5
v 0.0170874 0.326 0.5
v 0.446 0.326 0.5
v 0.0170874 0.326 0.5
v 0.0219378 0.276 0.5
v -0.104046 0.25094 0.5
v -0.123481 0.298039 0.5
v -0.123481 0.298039 0.5
v -0.104046 0.25094 0.5
v -0.192147 0.192073 0.5
v -0.228121 0.228121 0.5
v -0.228121 0.228121 0.5
v -0.192147 0.192073 0.5
v -0.251014 0.103972 0.5
v -0.29804 0.123481 0.5
v -0.29804 0.123481 0.5
v -0.251014 0.103972 0.5
v -0.276074 -0.022012 0.5
v -0.326 -0.0170875 0.5
v -0.326 -0.0170875 0.5
v -0.276074 -0.022012 0.5
v -0.276074 -0.5 0.5
v -0.326074 -0.5 0.5
v 0.446 0.5 0.5
v 0.5 0.5 0.5
v 0.5 0.276 0.5
v 0.446 0.326 0.5
v 0.0151952 0.128795 0.5
v 0.137591 0.132051 0.5
v 0.0749651 0.105044 0.5
v -0.0118134 0.191421 0.5
v 0.0219378 0.276 0.5
v 0.1712 0.216631 0.5
v 0.24277 0.216631 0.5
v 0.242844 0.276 0.5
v 0.470346 0.128795 0.5
v 0.410576 0.105044 0.5
v 0.34795 0.132051 0.5
v 0.497355 0.191421 0.5
v 0.5 0.276 0.5
v 0.314341 0.216631 0.5
v 0.24277 0.216631 0.5
v 0.242844 0.276 0.5
v -0.5 0.5 0.5
v -0.5 0.5 -0.446
v 0.446 0.5 -0.446
v 0.446 0.5 0.5
v 0.446 0.5 0.5
v 0.446 0.5 -0.446
v 0.5 0.5 -0.5
v 0.5 0.5 0.5
v 0.446 0.5 -0.446
v -0.5 0.5 -0.446
v -0.5 0.5 -0.5
v 0.5 0.5 -0.5
v -0.5 0.5 -0.446
v -0.5 0.326 -0.0170874
v -0.5 0.326 -0.446
v -0.5 0.5 0.5
v -0.5 0.298039 0.123481
v -0.5 0.228121 0.228121
v -0.5 0.123481 0.29804
v -0.5 -0.0170875 0.326
v -0.5 -0.5 0.326
v -0.5 -0.5 0.5
v -0.5 0.326 -0.0170874
v -0.5 0.276 -0.0220117
v -0.5 0.276 -0.5
v -0.5 0.326 -0.446
v -0.5 0.298039 0.123481
v -0.5 0.25094 0.103972
v -0.5 0.276 -0.0220117
v -0.5 0.326 -0.0170874
v -0.5 0.228121 0.228121
v -0.5 0.192073 0.192073
v -0.5 0.25094 0.103972
v -0.5 0.298039 0.123481
v -0.5 0.123481 0.29804
v -0.5 0.103972 0.25094
v -0.5 0.192073 0.192073
v -0.5 0.228121 0.228121
v -0.5 -0.0170875 0.326
v -0.5 -0.022012 0.276
v -0.5 0.103972 0.25094
v -0.5 0.123481 0.29804
v -0.5 -0.5 0.276
v -0.5 -0.022012 0.276
v -0.5 -0.0170875 0.326
v -0.5 -0.5 0.326
v -0.5 0.5 -0.5
v -0.5 0.5 -0.446
v -0.5 0.326 -0.446
v -0.5 0.276 -0.5
v -0.5 0.276 -0.0220117
v -0.5 0.216631 -0.242844
v -0.5 0.276 -0.242844
v -0.5 0.216631 -0.171274
v -0.5 0.132051 -0.137665
v -0.5 0.191421 0.0117395
v -0.5 0.128795 -0.0152692
v -0.5 0.105044 -0.0750391
v -0.5 0.276 -0.5
v -0.5 0.276 -0.242844
v -0.5 0.216631 -0.242844
v -0.5 0.216631 -0.314415
v -0.5 0.132051 -0.348024
v -0.5 0.191421 -0.497429
v -0.5 0.128795 -0.47042
v -0.5 0.105044 -0.41065
v 0.446 0.276 0.5
v 0.5 0.276 0.5
v 0.5 0.276 -0.5
v 0.446 0.276 -0.446
v 0.446 0.276 -0.446
v 0.5 0.276 -0.5
v -0.5 0.276 -0.5
v -0.5 0.276 -0.446
v 0.5 0.5 -0.5
v -0.5 0.5 -0.5
v -0.5 0.326 -0.5
v 0.5 0.326 -0.5
v -0.5 0.326 -0.5
v -0.5 0.276 -0.5
v 0.5 0.276 -0.5
v 0.5 0.326 -0.5
v 0.5 0.5 0.5
v 0.5 0.5 -0.5
v 0.5 0.326 -0.5
v 0.5 0.326 0.5
v 0.5 0.326 -0.5
v 0.5 0.276 -0.5
v 0.5 0.276 0.5
v 0.5 0.326 0.5
v 0.0921578 0.132051 -0.0923057
v -0.021386 0.216631 -0.158904
v 0.0686848 0.216631 -0.0688327
v -0.00163074 0.132051 -0.186094
v -0.248378 0.216631 -0.274562
v 0.135896 0.105044 -0.136044
v -0.237992 0.132051 -0.306526
v -0.5 0.216631 -0.314415
v -0.5 0.132051 -0.348024
v 0.0351797 0.105044 -0.23676
v -0.218639 0.105044 -0.366087
v -0.5 0.105044 -0.41065
v -0.5 0.128795 -0.47042
v 0.0703116 0.128795 -0.285114
v 0.177639 0.128795 -0.177787
v 0.196502 0.191421 -0.19665
v -0.200169 0.128795 -0.422931
v 0.0861869 0.191421 -0.306965
v -0.191823 0.191421 -0.448618
v -0.5 0.191421 -0.497429
v -0.5 0.276 -0.5
v -0.191029 0.276 -0.451064
v 0.0876983 0.276 -0.309045
v 0.198298 0.276 -0.198446
vt 0.959938943 0.0326589197
vt 0.958214283 0.0324116535
vt 0.958214343 0.0334027931
vt 0.938693285 0.0478856266
vt 0.938693285 0.0357620418
vt 0.962941587 0.0357620418
vt 0.959937334 0.0318527743
vt 0.958214283 0.0314200856
vt 0.958214283 0.0324116535
vt 0.958214283 0.0309243016
vt 0.958214283 0.0304285176
vt 0.959937036 0.0297237411
vt 0.958214283 0.0294369496
vt 0.958214283 0.0304285176
vt 0.958214521 0.0284429584
vt 0.942428291 0.991255939
vt 0.974330783 0.96272409
vt 0.974255502 0.991255641
vt 0.942428291 0.962727487
vt 0.910636544 0.962727487
vt 0.910636544 0.991255939
vt 0.942428291 0.937969625
vt 0.974353433 0.93796289
vt 0.974213064 0.914331198
vt 0.894740582 0.962727487
vt 0.894740582 0.991255939
vt 0.894740582 0.937969625
vt 0.910636544 0.937969625
vt 0.894740582 0.914340436
vt 0.910636544 0.914340436
vt 0.894740582 0.889582217
vt 0.942428291 0.914340436
vt 0.910636544 0.889582217
vt 0.894740582 0.856145263
vt 0.910636544 0.856145263
vt 0.942428291 0.889582217
vt 0.974076629 0.889575839
vt 0.942428291 0.856145263
vt 0.974389493 0.856135786
vt 0.772949338 0.368082702
vt 0.753219008 0.454752356
vt 0.75320977 0.378236562
vt 0.772958636 0.454752356
vt 0.753219008 0.536793947
vt 0.772958636 0.536793947
vt 0.753219008 0.577814698
vt 0.772958636 0.577814698
vt 0.753219008 0.618835449
vt 0.772958636 0.618835449
vt 0.753219008 0.700876832
vt 0.772958636 0.700876832
vt 0.753219008 0.777202964
vt 0.772958577 0.787356853
vt 0.94649744 0.0284579396
vt 0.951350927 0.0294369459
vt 0.951350808 0.0284433123
vt 0.946497381 0.0294369459
vt 0.951351047 0.0304285139
vt 0.945103586 0.0294369459
vt 0.945103645 0.0284666792
vt 0.946497381 0.0304285139
vt 0.951351106 0.0309242979
vt 0.944066048 0.0294369459
vt 0.944066226 0.0283973701
vt 0.945103586 0.0304285139
vt 0.944066048 0.0304285139
vt 0.946497381 0.0309242979
vt 0.951351166 0.0314200819
vt 0.945103586 0.0309242979
vt 0.944066048 0.0309242979
vt 0.944066048 0.0314200819
vt 0.946497381 0.0314200819
vt 0.951351285 0.0324116498
vt 0.945103586 0.0314200819
vt 0.946497381 0.0324116498
vt 0.951351345 0.0334032178
vt 0.94649744 0.0333886519
vt 0.945103586 0.0333801433
vt 0.945103586 0.0324116498
vt 0.944066048 0.0324116498
vt 0.944066107 0.033449579
vt 0.955610037 0.0294369459
vt 0.95700413 0.0284724198
vt 0.955610335 0.0283867586
vt 0.957003891 0.0294369459
vt 0.958041608 0.0285128504
vt 0.95804143 0.0294369459
vt 0.95804143 0.0304285139
vt 0.957003951 0.0304285139
vt 0.955610037 0.0304285139
vt 0.95804143 0.0309242979
vt 0.957003951 0.0309242979
vt 0.955610037 0.0309242979
vt 0.955610037 0.0314200819
vt 0.957003951 0.0314200819
vt 0.95804143 0.0314200819
vt 0.95804143 0.0324116498
vt 0.957003951 0.0324116498
vt 0.955610037 0.0324116498
vt 0.955610037 0.0334608443
vt 0.957003951 0.0333750732
vt 0.95804143 0.0333344489
vt 0.973755717 0.958707511
vt 0.942428112 0.991106629
vt 0.974762201 0.99110359
vt 0.94242847 0.958707511
vt 0.973942161 0.934738457
vt 0.910636306 0.991106629
vt 0.94242847 0.934731901
vt 0.97413671 0.91185838
vt 0.910636544 0.958707511
vt 0.894740105 0.991106629
vt 0.894740701 0.958707511
vt 0.910636544 0.934731901
vt 0.894740701 0.934731901
vt 0.94242847 0.91184938
vt 0.97437799 0.88787955
vt 0.910636544 0.91184938
vt 0.894740701 0.91184938
vt 0.94242847 0.887873411
vt 0.973970652 0.855502307
vt 0.94242847 0.855493128
vt 0.910636544 0.887873411
vt 0.894740701 0.887873411
vt 0.910636544 0.855493128
vt 0.894740701 0.855493128
vt 0.975003123 0.827346563
vt 0.94242847 0.855493128
vt 0.973970652 0.855502307
vt 0.94242847 0.827337325
vt 0.910636544 0.855493128
vt 0.910636544 0.827337384
vt 0.894740701 0.855493128
vt 0.894740701 0.827337384
vt 0.942428291 0.856145263
vt 0.97347641 0.827060997
vt 0.974389493 0.856135786
vt 0.942428291 0.827070475
vt 0.910636544 0.827070534
vt 0.910636544 0.856145263
vt 0.894740582 0.827070534
vt 0.894740582 0.856145263
vt 0.893578768 0.887873411
vt 0.925504506 0.855493128
vt 0.893983841 0.855493128
vt 0.925504506 0.887873411
vt 0.893821836 0.91184938
vt 0.957296431 0.855493128
vt 0.925504506 0.91184932
vt 0.89401865 0.934731901
vt 0.957296431 0.887873411
vt 0.973192513 0.855493128
vt 0.973192513 0.887873411
vt 0.957296431 0.91184938
vt 0.973192513 0.91184938
vt 0.925504506 0.934731901
vt 0.894206643 0.958707511
vt 0.957296431 0.934731901
vt 0.973192513 0.934731901
vt 0.925504506 0.958707511
vt 0.893198967 0.99110657
vt 0.92550391 0.991106629
vt 0.957296431 0.958707511
vt 0.973192513 0.958707511
vt 0.957295775 0.991106629
vt 0.973192215 0.991106629
vt 0.925504506 0.827337384
vt 0.892950833 0.827337384
vt 0.893983841 0.855493128
vt 0.925504506 0.855493128
vt 0.957296431 0.827337384
vt 0.957296431 0.855493128
vt 0.973192513 0.827337384
vt 0.973192513 0.855493128
vt 0.893561661 0.856145263
vt 0.8944754 0.827070534
vt 0.925504506 0.827070534
vt 0.925504506 0.856145263
vt 0.957296431 0.856145263
vt 0.957296431 0.827070534
vt 0.973192215 0.827070534
vt 0.973192215 0.856145263
vt 0.956408978 0.043405652
vt 0.964238524 0.043405652
vt 0.965048611 0.0416802764
vt 0.961536288 0.0416802764
vt 0.960142434 0.0414030552
vt 0.959104776 0.040709734
vt 0.958411574 0.0396721959
vt 0.958134294 0.0382783413
vt 0.956410527 0.0336401351
vt 0.95813483 0.0334151126
vt 0.772480607 0.775914967
vt 0.772480547 0.369207174
vt 0.753055215 0.365017116
vt 0.753055274 0.729968011
vt 0.753055215 0.750415802
vt 0.772480547 0.747154415
vt 0.772480547 0.637883604
vt 0.753055215 0.628494978
vt 0.753055215 0.74457109
vt 0.772480547 0.736217499
vt 0.772480547 0.646060765
vt 0.753055215 0.637489796
vt 0.753055215 0.743377328
vt 0.772480547 0.7350775
vt 0.772480547 0.644920766
vt 0.753055215 0.636295736
vt 0.753055215 0.748551786
vt 0.772480547 0.740140319
vt 0.772480547 0.630843401
vt 0.753055215 0.626602411
vt 0.753055215 0.775915205
vt 0.772480607 0.771725059
vt 0.772480607 0.365016907
vt 0.753056407 0.365017146
vt 0.753055274 0.466472834
vt 0.772480667 0.466472834
vt 0.772480667 0.364457101
vt 0.753055274 0.38722834
vt 0.678872347 0.807875872
vt 0.757281542 0.809962034
vt 0.71716243 0.792660415
vt 0.661570728 0.847995043
vt 0.683194518 0.902170777
vt 0.778812528 0.86414516
vt 0.824662387 0.864144325
vt 0.824660718 0.902175725
vt 0.678872347 0.807875872
vt 0.71716243 0.792660415
vt 0.757281542 0.809962034
vt 0.661570728 0.847995043
vt 0.659919262 0.902175486
vt 0.778812528 0.86414516
vt 0.824662387 0.864144325
vt 0.824660718 0.902175725
vt 0.962941587 0.0478856266
vt 0.962941587 0.0357620418
vt 0.938693285 0.0357620418
vt 0.938693285 0.0478856266
vt 0.753186703 0.384788156
vt 0.753186703 0.721307874
vt 0.772396207 0.740517378
vt 0.772396207 0.384788156
vt 0.753186703 0.4039976
vt 0.753186703 0.740517318
vt 0.772396088 0.740517318
vt 0.772396088 0.384788215
vt 0.948446095 0.043405652
vt 0.951148272 0.0416802764
vt 0.947636008 0.0416802764
vt 0.956275702 0.043405652
vt 0.952542186 0.0414030552
vt 0.953579783 0.040709734
vt 0.954273105 0.0396721959
vt 0.954550326 0.0382783413
vt 0.954550862 0.0334151089
vt 0.956274629 0.0336401388
vt 0.753055215 0.365017116
vt 0.772480547 0.369207412
vt 0.772480607 0.775914967
vt 0.753055274 0.729968011
vt 0.753055215 0.628494978
vt 0.772480547 0.637883306
vt 0.772480547 0.747154653
vt 0.753055215 0.750415802
vt 0.753055215 0.637489438
vt 0.772480547 0.646060765
vt 0.772480547 0.736217141
vt 0.753055215 0.74457109
vt 0.753055215 0.636295617
vt 0.772480547 0.644921005
vt 0.772480547 0.7350775
vt 0.753055215 0.743376911
vt 0.753055215 0.626602411
vt 0.772480547 0.630843401
vt 0.772480547 0.740140319
vt 0.753055215 0.748551786
vt 0.772480607 0.365016907
vt 0.772480607 0.771725059
vt 0.753055215 0.775915205
vt 0.753053725 0.365016192
vt 0.772480667 0.466472834
vt 0.753055274 0.466472834
vt 0.753055274 0.38722834
vt 0.772480667 0.364457101
vt 0.683191359 0.902176201
vt 0.824657798 0.864145815
vt 0.824658751 0.902176321
vt 0.778812528 0.86414516
vt 0.757281542 0.809962034
vt 0.661570728 0.847995043
vt 0.678872347 0.807875872
vt 0.71716243 0.792660415
vt 0.659929931 0.902176857
vt 0.824658751 0.902176321
vt 0.824657798 0.864145815
vt 0.778812528 0.86414516
vt 0.757281542 0.809962034
vt 0.661570728 0.847995043
vt 0.678872347 0.807875872
vt 0.71716243 0.792660415
vt 0.753186703 0.384788156
vt 0.772396207 0.384788156
vt 0.772396207 0.740517378
vt 0.753186703 0.721307874
vt 0.753186703 0.4039976
vt 0.772396088 0.384788215
vt 0.772396088 0.740517318
vt 0.753186703 0.740517318
vt 0.939540803 0.0173428059
vt 0.939540803 0.077423811
vt 0.949994981 0.077423811
vt 0.949994862 0.0173428077
vt 0.773013115 0.78358686
vt 0.753034234 0.78358686
vt 0.753034234 0.37031883
vt 0.773013115 0.37031883
vt 0.939540803 0.0173428059
vt 0.939540803 0.077423811
vt 0.949994981 0.077423811
vt 0.949994862 0.0173428077
vt 0.773013115 0.78358686
vt 0.753034234 0.78358686
vt 0.753034234 0.37031883
vt 0.773013115 0.37031883
vt 0.973192215 0.889582217
vt 0.957296431 0.856145263
vt 0.973192215 0.856145263
vt 0.957296431 0.889582217
vt 0.925504506 0.856145263
vt 0.973192215 0.914340436
vt 0.925504506 0.889582217
vt 0.893561661 0.856145263
vt 0.893873394 0.889582217
vt 0.957296431 0.914340436
vt 0.925504506 0.914340377
vt 0.893736064 0.914340377
vt 0.893594563 0.937969625
vt 0.957296431 0.937969625
vt 0.973192215 0.937969625
vt 0.973192215 0.962727487
vt 0.925504506 0.937969625
vt 0.957296431 0.962727487
vt 0.925504506 0.962727487
vt 0.893617034 0.962727487
vt 0.893692017 0.991255939
vt 0.925504506 0.991255939
vt 0.957296431 0.991255939
vt 0.973192215 0.991255939
vn 0 -1 0
vn 0 -1 2.21257e-07
vn 0 -1 0
vn 0 -1 0
vn 0 -1 0
vn 0 -1 0
vn 0 -1 0
vn 0 -1 7.18582e-07
vn 0 -1 2.21257e-07
vn 0 -1 1.04444e-06
vn 0 -1 5.32232e-07
vn 0 -1 0
vn 0 -1 -3.61604e-07
vn 0 -1 5.32232e-07
vn 0 -1 -9.42833e-07
vn 0.950629 -0.0301699 -0.30886
vn 0.969847 -0.189139 -0.1537
vn 0.987249 -0.0295829 -0.156408
vn 0.933448 -0.191528 -0.303301
vn 0.823373 -0.191391 -0.534253
vn 0.838494 -0.0303465 -0.544065
vn 0.695572 -0.681973 -0.226037
vn 0.726524 -0.677416 -0.115192
vn 0.025546 -0.999665 -0.00404819
vn 0.693769 -0.193312 -0.693769
vn 0.706788 -0.0300148 -0.706788
vn 0.506554 -0.697715 -0.506554
vn 0.613942 -0.681457 -0.398362
vn -0.00906895 -0.999918 0.00906898
vn 0.0214312 -0.999674 -0.0139058
vn -0.533027 -0.657088 0.533027
vn 0.0242383 -0.999675 -0.00787957
vn -0.614875 -0.68026 0.398967
vn -0.658225 -0.365349 0.658225
vn -0.779733 -0.368841 0.505937
vn -0.696654 -0.68075 0.226392
vn -0.727581 -0.67625 0.115378
vn -0.883819 -0.36928 0.28722
vn -0.919382 -0.365349 0.145797
vn 0 -1 -4.95379e-07
vn 0 -1 -3.61604e-07
vn 0 -1 -9.42833e-07
vn 0 -1 0
vn 0 -1 5.32232e-07
vn 0 -1 3.3109e-07
vn 0 -1 1.04444e-06
vn 0 -1 2.48317e-07
vn 0 -1 7.18582e-07
vn 0 -1 8.27725e-07
vn 0 -1 2.21257e-07
vn 0 -1 4.96635e-07
vn 0 -1 0
vn 0 -1 0
vn 0.986649 -0.0433807 -0.15698
vn 0.951002 0 -0.309186
vn 0.987577 0 -0.157136
vn 0.950084 -0.0439157 -0.308887
vn 0.838881 0 -0.544315
vn 0.877017 -0.386718 -0.285116
vn 0.912408 -0.382699 -0.145096
vn 0.838073 -0.0438607 -0.543792
vn 0.707106 0 -0.707107
vn 0.647546 -0.732377 -0.210494
vn 0.676871 -0.7282 -0.107562
vn 0.773759 -0.386305 -0.502061
vn 0.571583 -0.731945 -0.370877
vn 0.70646 -0.0427362 -0.706461
vn 0.544315 0 -0.838881
vn 0.65522 -0.375995 -0.655221
vn 0.491428 -0.719025 -0.491428
vn 0.370877 -0.731945 -0.571583
vn 0.543792 -0.0438607 -0.838073
vn 0.309017 0 -0.951056
vn 0.502061 -0.386305 -0.773759
vn 0.308719 -0.0439216 -0.950139
vn 0.156434 0 -0.987688
vn 0.156287 -0.0433819 -0.986759
vn 0.144525 -0.382702 -0.912498
vn 0.284969 -0.386763 -0.877045
vn 0.210396 -0.732418 -0.647532
vn 0.107215 -0.728196 -0.676931
vn 0.185543 -0.980784 -0.0603008
vn 0.324864 -0.944353 -0.0515899
vn 0.194987 -0.980317 -0.030952
vn 0.309436 -0.945587 -0.100575
vn 0.676871 -0.7282 -0.107562
vn 0.647546 -0.732377 -0.210494
vn 0.571583 -0.731945 -0.370877
vn 0.27325 -0.945462 -0.177301
vn 0.163877 -0.980733 -0.106333
vn 0.491428 -0.719025 -0.491428
vn 0.24375 -0.938707 -0.24375
vn 0.139603 -0.980317 -0.139603
vn 0.106333 -0.980733 -0.163877
vn 0.177301 -0.945462 -0.273251
vn 0.370877 -0.731945 -0.571583
vn 0.210396 -0.732418 -0.647532
vn 0.100532 -0.945602 -0.309405
vn 0.0602864 -0.980785 -0.185542
vn 0.0308846 -0.980317 -0.194998
vn 0.0514584 -0.944349 -0.324896
vn 0.107215 -0.728196 -0.676931
vn -0.986591 0.0460422 0.156581
vn -0.883306 0.37062 0.287075
vn -0.918846 0.366682 0.145828
vn -0.949996 0.0466159 0.308762
vn -0.669866 -0.734832 0.106309
vn -0.779285 0.370183 0.505646
vn -0.640769 -0.738949 0.208253
vn 0.0860895 -0.996194 -0.0136534
vn -0.837971 0.0465527 0.543725
vn -0.657854 0.366682 0.657854
vn -0.706341 0.0465316 0.706341
vn -0.565606 -0.738513 0.366999
vn -0.493303 -0.716453 0.493303
vn 0.0818 -0.996294 -0.0265886
vn 0.777622 -0.616511 -0.123361
vn 0.0722884 -0.99628 -0.0469049
vn 0.0347461 -0.998792 -0.034746
vn 0.745223 -0.621278 -0.242189
vn 0.919375 -0.365349 -0.145844
vn 0.883818 -0.369279 -0.287225
vn 0.6577 -0.620734 -0.426755
vn 0.545245 -0.636722 -0.545245
vn 0.779733 -0.368842 -0.505937
vn 0.658225 -0.365349 -0.658225
vn 0 -1 0
vn 0 -1 0
vn 0 -1 0
vn 0 -1 0
vn 0 -1 1.30131e-07
vn 0 -1 1.23267e-07
vn 0 -1 1.95197e-07
vn 0 -1 1.62567e-07
vn 0 -1 0
vn 0 -1 0
vn 0 -1 0
vn 0 -1 0
vn 0 -1 1.23267e-07
vn 0 -1 1.18167e-07
vn 0 -1 1.62567e-07
vn 0 -1 1.32937e-07
vn 0.123165 -0.616535 -0.777634
vn 0.287174 -0.369285 -0.883832
vn 0.14562 -0.365349 -0.91941
vn 0.242146 -0.621265 -0.745248
vn 0.0136282 -0.996198 -0.0860454
vn 0.505937 -0.368842 -0.779733
vn 0.026592 -0.996291 -0.0818417
vn -0.106105 -0.734809 0.669924
vn 0.426755 -0.620734 -0.6577
vn 0.658225 -0.365349 -0.658225
vn 0.545245 -0.636722 -0.545245
vn 0.0469049 -0.99628 -0.0722884
vn 0.0347461 -0.998792 -0.034746
vn -0.208193 -0.73898 0.640752
vn -0.156268 0.0460447 0.986641
vn -0.366998 -0.738513 0.565606
vn -0.493303 -0.716453 0.493303
vn -0.308681 0.0466173 0.950023
vn -0.145538 0.366682 0.918892
vn -0.287009 0.370628 0.883323
vn -0.543725 0.0465525 0.837971
vn -0.706341 0.0465316 0.706341
vn -0.505646 0.370183 0.779286
vn -0.657854 0.366682 0.657854
vn 0 -1 0
vn 0 -1 0
vn 0 -1 0
vn 0 -1 0
vn 0 -1 0
vn 0 -1 1.95197e-07
vn 0 -1 1.62567e-07
vn 0 -1 1.95197e-07
vn 0 -1 0
vn 0 -1 0
vn 0 -1 0
vn 0 -1 -1.7725e-07
vn 0 -1 -2.06791e-07
vn 0 -1 0
vn 0 -1 1.62567e-07
vn 0 -1 1.32937e-07
vn 0 0 1
vn 0 0 1
vn 0 0 1
vn 0 0 1
vn 0 -1.84996e-07 1
vn 0 -1.68122e-07 1
vn 0 1.32059e-06 1
vn 0 0 1
vn 0 0 1
vn 0 0 1
vn 0 0 1
vn 0 0 1
vn 0 0 1
vn 0 0 1
vn 0 0 1
vn 0 0 1
vn 0 -9.69621e-07 1
vn 0 -1.84996e-07 1
vn 0 -1.84996e-07 1
vn 0 -9.69621e-07 1
vn 0 -1.05321e-06 1
vn 0 -1.68122e-07 1
vn 0 -1.68122e-07 1
vn 0 -1.05321e-06 1
vn 0 0 1
vn 0 1.32059e-06 1
vn 0 1.32059e-06 1
vn 0 0 1
vn 0 0 1
vn 0 0 1
vn 0 0 1
vn 0 0 1
vn 0 0 1
vn 0 0 1
vn 0 0 1
vn 0 0 1
vn 0 0 1
vn 0 0 1
vn 0 0 1
vn 0 0 1
vn 0 0 1
vn 0 0 1
vn 0 0 1
vn 0 0 1
vn 0 0 1
vn 0 0 1
vn 0 2.3044e-06 1
vn 0 -7.87123e-06 1
vn 0 3.57112e-06 1
vn 0 -9.46468e-07 1
vn 0 1.14886e-06 1
vn 0 3.79946e-06 1
vn 0 0 1
vn 0 0 1
vn 0 1 0
vn 0 1 0
vn 0 1 0
vn 0 1 0
vn 0 1 0
vn 0 1 0
vn 0 1 0
vn 0 1 0
vn 0 1 0
vn 0 1 0
vn 0 1 0
vn 0 1 0
vn -1 0 0
vn -1 0 0
vn -1 -4.3777e-07 0
vn -1 3.03439e-07 0
vn -1 3.01119e-06 0
vn -1 1.20086e-06 0
vn -1 5.82194e-07 0
vn -1 0 0
vn -1 0 0
vn -1 0 0
vn -1 0 0
vn -1 -1.65705e-06 0
vn -1 -1.4143e-06 0
vn -1 -4.3777e-07 0
vn -1 3.01119e-06 0
vn -1 1.93922e-06 0
vn -1 -1.65705e-06 0
vn -1 0 0
vn -1 1.20086e-06 0
vn -1 2.10641e-06 0
vn -1 1.93922e-06 0
vn -1 3.01119e-06 0
vn -1 5.82194e-07 0
vn -1 0 0
vn -1 2.10641e-06 0
vn -1 1.20086e-06 0
vn -1 0 0
vn -1 0 0
vn -1 0 0
vn -1 5.82194e-07 0
vn -1 0 0
vn -1 0 0
vn -1 0 0
vn -1 0 0
vn -1 0 0
vn -1 0 0
vn -1 -4.3777e-07 0
vn -1 -1.4143e-06 0
vn -1 0 0
vn -1 0 0
vn -1 0 0
vn -1 0 0
vn -1 -3.18672e-07 0
vn -1 6.59714e-07 0
vn -1 1.70118e-06 0
vn -1 -1.57425e-05 0
vn -1 1.01814e-06 0
vn -1 0 0
vn -1 0 0
vn -1 1.89973e-06 0
vn -1 6.96264e-07 0
vn -1 0 0
vn -1 -2.41295e-06 0
vn -1 -3.1485e-05 0
vn 0 -1 0
vn 0 -1 0
vn 0 -1 1.30684e-07
vn 0 -1 1.30684e-07
vn 0 -1 1.30684e-07
vn 0 -1 1.30684e-07
vn 0 -1 2.61369e-07
vn 0 -1 2.61369e-07
vn 0 0 -1
vn 0 0 -1
vn 0 0 -1
vn 0 0 -1
vn 0 0 -1
vn 0 0 -1
vn 0 0 -1
vn 0 0 -1
vn 1 0 0
vn 1 0 0
vn 1 0 0
vn 1 0 0
vn 1 0 0
vn 1 0 0
vn 1 0 0
vn 1 0 0
vn -0.533027 -0.657088 0.533027
vn -0.505937 -0.368842 0.779733
vn -0.658225 -0.365349 0.658225
vn -0.398967 -0.68026 0.614875
vn -0.287174 -0.369285 0.883832
vn -0.00906895 -0.999918 0.00906898
vn -0.226354 -0.680769 0.696647
vn -0.14562 -0.365349 0.91941
vn -0.115243 -0.676233 0.727618
vn 0.0139058 -0.999674 -0.0214312
vn 0.00788357 -0.999675 -0.0242632
vn 0.00404062 -0.999666 -0.0255117
vn 0.11507 -0.677435 -0.726527
vn 0.398362 -0.681457 -0.613942
vn 0.506554 -0.697715 -0.506554
vn 0.693769 -0.193312 -0.693769
vn 0.22601 -0.681965 -0.695588
vn 0.534253 -0.191391 -0.823373
vn 0.303289 -0.191648 -0.933428
vn 0.153604 -0.189373 -0.969816
vn 0.156364 -0.0300144 -0.987243
vn 0.308874 -0.0303883 -0.950617
vn 0.544065 -0.0303461 -0.838494
vn 0.706788 -0.0300148 -0.706788
g AshlarCornerBrace_0
f 3/3/3 2/2/2 1/1/1
f 6/6/6 5/5/5 4/4/4
f 9/9/9 8/8/8 7/7/7
f 8/8/8 10/10/10 7/7/7
f 10/10/10 11/11/11 7/7/7
f 14/14/14 13/13/13 12/12/12
f 13/13/13 15/15/15 12/12/12
f 18/18/18 17/17/17 16/16/16
f 17/17/17 19/19/19 16/16/16
f 16/16/16 19/19/19 20/20/20
f 21/21/21 16/16/16 20/20/20
f 19/19/19 17/17/17 22/22/22
f 17/17/17 23/23/23 22/22/22
f 23/23/23 24/24/24 22/22/22
f 21/21/21 20/20/20 25/25/25
f 26/26/26 21/21/21 25/25/25
f 25/25/25 20/20/20 27/27/27
f 20/20/20 19/19/19 28/28/28
f 20/20/20 28/28/28 27/27/27
f 19/19/19 22/22/22 28/28/28
f 27/27/27 28/28/28 29/29/29
f 28/28/28 30/30/30 29/29/29
f 28/28/28 22/22/22 30/30/30
f 29/29/29 30/30/30 31/31/31
f 24/24/24 32/32/32 22/22/22
f 22/22/22 32/32/32 30/30/30
f 30/30/30 33/33/33 31/31/31
f 30/30/30 32/32/32 33/33/33
f 34/34/34 31/31/31 33/33/33
f 35/35/35 34/34/34 33/33/33
f 32/32/32 24/24/24 36/36/36
f 32/32/32 36/36/36 33/33/33
f 35/35/35 33/33/33 36/36/36
f 24/24/24 37/37/37 36/36/36
f 38/38/38 35/35/35 36/36/36
f 38/38/38 36/36/36 37/37/37
f 39/39/39 38/38/38 37/37/37
f 42/42/42 41/41/41 40/40/40
f 41/41/41 43/43/43 40/40/40
f 41/41/41 44/44/44 43/43/43
f 44/44/44 45/45/45 43/43/43
f 44/44/44 46/46/46 45/45/45
f 46/46/46 47/47/47 45/45/45
f 46/46/46 48/48/48 47/47/47
f 48/48/48 49/49/49 47/47/47
f 48/48/48 50/50/50 49/49/49
f 50/50/50 51/51/51 49/49/49
f 50/50/50 52/52/52 51/51/51
f 52/52/52 53/53/53 51/51/51
f 56/56/56 55/55/55 54/54/54
f 55/55/55 57/57/57 54/54/54
f 55/55/55 58/58/58 57/57/57
f 54/54/54 57/57/57 59/59/59
f 60/60/60 54/54/54 59/59/59
f 58/58/58 61/61/61 57/57/57
f 59/59/59 57/57/57 61/61/61
f 58/58/58 62/62/62 61/61/61
f 60/60/60 59/59/59 63/63/63
f 64/64/64 60/60/60 63/63/63
f 63/63/63 59/59/59 65/65/65
f 65/65/65 59/59/59 61/61/61
f 66/66/66 63/63/63 65/65/65
f 62/62/62 67/67/67 61/61/61
f 65/65/65 61/61/61 67/67/67
f 62/62/62 68/68/68 67/67/67
f 66/66/66 65/65/65 69/69/69
f 69/69/69 65/65/65 67/67/67
f 70/70/70 66/66/66 69/69/69
f 70/70/70 69/69/69 71/71/71
f 68/68/68 72/72/72 67/67/67
f 68/68/68 73/73/73 72/72/72
f 69/69/69 67/67/67 74/74/74
f 69/69/69 74/74/74 71/71/71
f 67/67/67 72/72/72 74/74/74
f 73/73/73 75/75/75 72/72/72
f 74/74/74 72/72/72 75/75/75
f 73/73/73 76/76/76 75/75/75
f 76/76/76 77/77/77 75/75/75
f 75/75/75 77/77/77 78/78/78
f 71/71/71 74/74/74 79/79/79
f 79/79/79 74/74/74 75/75/75
f 79/79/79 75/75/75 78/78/78
f 80/80/80 71/71/71 79/79/79
f 79/79/79 78/78/78 81/81/81
f 80/80/80 79/79/79 81/81/81
f 84/84/84 83/83/83 82/82/82
f 83/83/83 85/85/85 82/82/82
f 83/83/83 86/86/86 85/85/85
f 86/86/86 87/87/87 85/85/85
f 85/85/85 87/87/87 88/88/88
f 82/82/82 85/85/85 89/89/89
f 89/89/89 85/85/85 88/88/88
f 90/90/90 82/82/82 89/89/89
f 89/89/89 88/88/88 91/91/91
f 90/90/90 89/89/89 92/92/92
f 92/92/92 89/89/89 91/91/91
f 93/93/93 90/90/90 92/92/92
f 93/93/93 92/92/92 94/94/94
f 92/92/92 91/91/91 95/95/95
f 92/92/92 95/95/95 94/94/94
f 91/91/91 96/96/96 95/95/95
f 95/95/95 96/96/96 97/97/97
f 94/94/94 95/95/95 98/98/98
f 98/98/98 95/95/95 97/97/97
f 99/99/99 94/94/94 98/98/98
f 99/99/99 98/98/98 100/100/100
f 98/98/98 101/101/101 100/100/100
f 98/98/98 97/97/97 101/101/101
f 97/97/97 102/102/102 101/101/101
f 105/105/105 104/104/104 103/103/103
f 104/104/104 106/106/106 103/103/103
f 103/103/103 106/106/106 107/107/107
f 104/104/104 108/108/108 106/106/106
f 106/106/106 109/109/109 107/107/107
f 107/107/107 109/109/109 110/110/110
f 108/108/108 111/111/111 106/106/106
f 106/106/106 111/111/111 109/109/109
f 108/108/108 112/112/112 111/111/111
f 112/112/112 113/113/113 111/111/111
f 111/111/111 113/113/113 114/114/114
f 111/111/111 114/114/114 109/109/109
f 113/113/113 115/115/115 114/114/114
f 109/109/109 116/116/116 110/110/110
f 109/109/109 114/114/114 116/116/116
f 110/110/110 116/116/116 117/117/117
f 114/114/114 115/115/115 118/118/118
f 114/114/114 118/118/118 116/116/116
f 115/115/115 119/119/119 118/118/118
f 116/116/116 120/120/120 117/117/117
f 116/116/116 118/118/118 120/120/120
f 121/121/121 117/117/117 120/120/120
f 122/122/122 121/121/121 120/120/120
f 118/118/118 119/119/119 123/123/123
f 118/118/118 123/123/123 120/120/120
f 122/122/122 120/120/120 123/123/123
f 119/119/119 124/124/124 123/123/123
f 125/125/125 122/122/122 123/123/123
f 125/125/125 123/123/123 124/124/124
f 126/126/126 125/125/125 124/124/124
f 129/129/129 128/128/128 127/127/127
f 128/128/128 130/130/130 127/127/127
f 128/128/128 131/131/131 130/130/130
f 131/131/131 132/132/132 130/130/130
f 131/131/131 133/133/133 132/132/132
f 133/133/133 134/134/134 132/132/132
f 137/137/137 136/136/136 135/135/135
f 136/136/136 138/138/138 135/135/135
f 135/135/135 138/138/138 139/139/139
f 140/140/140 135/135/135 139/139/139
f 140/140/140 139/139/139 141/141/141
f 142/142/142 140/140/140 141/141/141
f 145/145/145 144/144/144 143/143/143
f 144/144/144 146/146/146 143/143/143
f 147/147/147 143/143/143 146/146/146
f 144/144/144 148/148/148 146/146/146
f 149/149/149 147/147/147 146/146/146
f 150/150/150 147/147/147 149/149/149
f 148/148/148 151/151/151 146/146/146
f 149/149/149 146/146/146 151/151/151
f 148/148/148 152/152/152 151/151/151
f 152/152/152 153/153/153 151/151/151
f 154/154/154 151/151/151 153/153/153
f 154/154/154 149/149/149 151/151/151
f 155/155/155 154/154/154 153/153/153
f 156/156/156 150/150/150 149/149/149
f 156/156/156 149/149/149 154/154/154
f 157/157/157 150/150/150 156/156/156
f 158/158/158 154/154/154 155/155/155
f 158/158/158 156/156/156 154/154/154
f 159/159/159 158/158/158 155/155/155
f 160/160/160 157/157/157 156/156/156
f 160/160/160 156/156/156 158/158/158
f 161/161/161 157/157/157 160/160/160
f 162/162/162 161/161/161 160/160/160
f 163/163/163 158/158/158 159/159/159
f 163/163/163 160/160/160 158/158/158
f 162/162/162 160/160/160 163/163/163
f 164/164/164 163/163/163 159/159/159
f 165/165/165 162/162/162 163/163/163
f 165/165/165 163/163/163 164/164/164
f 166/166/166 165/165/165 164/164/164
f 169/169/169 168/168/168 167/167/167
f 170/170/170 169/169/169 167/167/167
f 170/170/170 167/167/167 171/171/171
f 172/172/172 170/170/170 171/171/171
f 172/172/172 171/171/171 173/173/173
f 174/174/174 172/172/172 173/173/173
f 177/177/177 176/176/176 175/175/175
f 178/178/178 177/177/177 175/175/175
f 178/178/178 179/179/179 177/177/177
f 179/179/179 180/180/180 177/177/177
f 181/181/181 180/180/180 179/179/179
f 182/182/182 181/181/181 179/179/179
f 185/185/185 184/184/184 183/183/183
f 186/186/186 185/185/185 183/183/183
f 187/187/187 186/186/186 183/183/183
f 188/188/188 187/187/187 183/183/183
f 189/189/189 188/188/188 183/183/183
f 190/190/190 189/189/189 183/183/183
f 190/190/190 183/183/183 191/191/191
f 192/192/192 190/190/190 191/191/191
f 195/195/195 194/194/194 193/193/193
f 196/196/196 195/195/195 193/193/193
f 199/199/199 198/198/198 197/197/197
f 200/200/200 199/199/199 197/197/197
f 203/203/203 202/202/202 201/201/201
f 204/204/204 203/203/203 201/201/201
f 207/207/207 206/206/206 205/205/205
f 208/208/208 207/207/207 205/205/205
f 211/211/211 210/210/210 209/209/209
f 212/212/212 211/211/211 209/209/209
f 215/215/215 214/214/214 213/213/213
f 216/216/216 215/215/215 213/213/213
f 219/219/219 218/218/218 217/217/217
f 220/220/220 219/219/219 217/217/217
f 223/223/223 222/222/222 221/221/221
f 221/221/221 222/222/222 224/224/224
f 224/224/224 222/222/222 225/225/225
f 225/225/225 222/222/222 226/226/226
f 226/226/226 227/227/227 225/225/225
f 227/227/227 228/228/228 225/225/225
f 231/231/231 230/230/230 229/229/229
f 231/231/231 229/229/229 232/232/232
f 231/231/231 232/232/232 233/233/233
f 231/231/231 233/233/233 234/234/234
f 235/235/235 234/234/234 233/233/233
f 236/236/236 235/235/235 233/233/233
f 239/239/239 238/238/238 237/237/237
f 240/240/240 239/239/239 237/237/237
f 243/243/243 242/242/242 241/241/241
f 244/244/244 243/243/243 241/241/241
f 247/247/247 246/246/246 245/245/245
f 248/248/248 247/247/247 245/245/245
f 251/251/251 250/250/250 249/249/249
f 250/250/250 252/252/252 249/249/249
f 250/250/250 253/253/253 252/252/252
f 253/253/253 254/254/254 252/252/252
f 254/254/254 255/255/255 252/252/252
f 255/255/255 256/256/256 252/252/252
f 256/256/256 257/257/257 252/252/252
f 257/257/257 258/258/258 252/252/252
f 261/261/261 260/260/260 259/259/259
f 262/262/262 261/261/261 259/259/259
f 265/265/265 264/264/264 263/263/263
f 266/266/266 265/265/265 263/263/263
f 269/269/269 268/268/268 267/267/267
f 270/270/270 269/269/269 267/267/267
f 273/273/273 272/272/272 271/271/271
f 274/274/274 273/273/273 271/271/271
f 277/277/277 276/276/276 275/275/275
f 278/278/278 277/277/277 275/275/275
f 281/281/281 280/280/280 279/279/279
f 282/282/282 281/281/281 279/279/279
f 285/285/285 284/284/284 283/283/283
f 286/286/286 285/285/285 283/283/283
f 289/289/289 288/288/288 287/287/287
f 288/288/288 290/290/290 287/287/287
f 291/291/291 287/287/287 290/290/290
f 291/291/291 292/292/292 287/287/287
f 291/291/291 293/293/293 292/292/292
f 291/291/291 294/294/294 293/293/293
f 297/297/297 296/296/296 295/295/295
f 298/298/298 297/297/297 295/295/295
f 295/295/295 299/299/299 298/298/298
f 300/300/300 299/299/299 295/295/295
f 301/301/301 299/299/299 300/300/300
f 302/302/302 299/299/299 301/301/301
f 305/305/305 304/304/304 303/303/303
f 306/306/306 305/305/305 303/303/303
f 309/309/309 308/308/308 307/307/307
f 310/310/310 309/309/309 307/307/307
f 313/313/313 312/312/312 311/311/311
f 314/314/314 313/313/313 311/311/311
f 317/317/317 316/316/316 315/315/315
f 318/318/318 317/317/317 315/315/315
f 321/321/321 320/320/320 319/319/319
f 322/322/322 321/321/321 319/319/319
f 325/325/325 324/324/324 323/323/323
f 326/326/326 325/325/325 323/323/323
f 329/329/329 328/328/328 327/327/327
f 328/328/328 330/330/330 327/327/327
f 328/328/328 331/331/331 330/330/330
f 332/332/332 327/327/327 330/330/330
f 331/331/331 333/333/333 330/330/330
f 331/331/331 334/334/334 333/333/333
f 334/334/334 335/335/335 333/333/333
f 336/336/336 332/332/332 330/330/330
f 336/336/336 330/330/330 333/333/333
f 337/337/337 333/333/333 335/335/335
f 337/337/337 336/336/336 333/333/333
f 338/338/338 337/337/337 335/335/335
f 337/337/337 338/338/338 339/339/339
f 332/332/332 336/336/336 340/340/340
f 340/340/340 336/336/336 337/337/337
f 341/341/341 332/332/332 340/340/340
f 342/342/342 341/341/341 340/340/340
f 343/343/343 337/337/337 339/339/339
f 343/343/343 340/340/340 337/337/337
f 344/344/344 342/342/342 340/340/340
f 344/344/344 340/340/340 343/343/343
f 345/345/345 343/343/343 339/339/339
f 345/345/345 344/344/344 343/343/343
f 346/346/346 345/345/345 339/339/339
f 345/345/345 346/346/346 347/347/347
f 348/348/348 345/345/345 347/347/347
f 348/348/348 349/349/349 345/345/345
f 349/349/349 344/344/344 345/345/345
f 342/342/342 344/344/344 349/349/349
f 350/350/350 342/342/342 349/349/349
