g FloorEdge
v -0.5 -0.241832808 -0.375
v 0.5 -0.241832808 -0.37500304
v 0.5 0.241832808 -0.37500304
v -0.5 0.241832808 -0.375
v -0.5 -0.241832808 -0.5
v 0.5 -0.241832808 -0.5
v 0.5 -0.241832808 -0.37500304
v -0.5 -0.241832808 -0.375
v -0.5 -0.5 -0.5
v 0.5 -0.5 -0.5
v 0.5 -0.241832808 -0.5
v -0.5 -0.241832808 -0.5
v -0.5 0.241832808 -0.5
v 0.5 0.241832808 -0.5
v 0.5 0.5 -0.5
v -0.5 0.5 -0.5
v -0.5 -0.5 -0.375
v 0.5 -0.5 -0.37500304
v 0.5 -0.5 -0.5
v -0.5 -0.5 -0.5
v -0.5 0.5 -0.5
v 0.5 0.5 -0.5
v 0.5 0.5 -0.37500304
v -0.5 0.5 -0.375
v -0.5 0.241832808 -0.375
v 0.5 0.241832808 -0.37500304
v 0.5 0.241832808 -0.5
v -0.5 0.241832808 -0.5
v -0.5 -0.5 0.5
v 0.5 -0.5 0.5
v 0.5 -0.5 -0.37500304
v -0.5 -0.5 -0.375
v -0.5 0.5 -0.375
v 0.5 0.5 -0.37500304
v 0.5 0.5 0.5
v -0.5 0.5 0.5
v 0.128874511 -0.24183242 -0.5
v 0.128874511 0.24183242 -0.5
v -0.128874511 0.24183242 -0.5
v -0.128874511 -0.24183242 -0.5
v -0.128874511 -0.24183242 -0.5
v -0.128874511 0.24183242 -0.5
v -0.128874511 0.24183242 -0.375004262
v -0.128874511 -0.24183242 -0.375004262
v 0.128874511 -0.24183242 -0.375004262
v 0.128874511 0.24183242 -0.375004262
v 0.128874511 0.24183242 -0.5
v 0.128874511 -0.24183242 -0.5
vt 0.838716745 0.0499861911
vt 0.838715911 0.0457215682
vt 0.840917468 0.0457215682
vt 0.840918422 0.0499861911
vt 0.941573024 0.427066833
vt 0.941474319 0.722154796
vt 0.978354096 0.722180843
vt 0.978454113 0.427091002
vt 0.493841857 0.251797587
vt 0.69040215 0.251795769
vt 0.690402508 0.195938066
vt 0.493842185 0.195939809
vt 0.690402865 0.251799554
vt 0.493839979 0.251797587
vt 0.493839771 0.195939019
vt 0.690402746 0.195941031
vt 0.978354335 0.722184658
vt 0.978461027 0.427056193
vt 0.941570997 0.427042782
vt 0.941463351 0.722171247
vt 0.941589236 0.427067101
vt 0.941462398 0.722182691
vt 0.978345633 0.722212076
vt 0.978473663 0.427094758
vt 0.978354335 0.722184777
vt 0.978461146 0.427056253
vt 0.941570759 0.427042842
vt 0.941463351 0.722171426
vt 0.956966043 0.0462834761
vt 0.956966043 0.04831516
vt 0.96052146 0.04831516
vt 0.96052146 0.046283491
vt 0.957473993 0.046283491
vt 0.957473993 0.04831516
vt 0.961029291 0.04831516
vt 0.961029291 0.0462834761
vt 0.181776106 0.226434559
vt 0.379548997 0.226434439
vt 0.379548877 0.129563197
vt 0.181776196 0.129563197
vt 0.479252607 0.469370335
vt 0.281641871 0.469370455
vt 0.281641632 0.519828141
vt 0.479252547 0.519828379
vt 0.479252547 0.469370335
vt 0.281641632 0.469370544
vt 0.281641632 0.51982826
vt 0.479252487 0.519828379
vn -2.82672067E-06 0 -1
vn -2.82672067E-06 0 -1
vn -2.82672067E-06 0 -1
vn -2.82672067E-06 0 -1
vn -0 1 0
vn -0 1 0
vn -0 1 0
vn -0 1 0
vn -0 0 -1
vn -0 0 -1
vn -0 0 -1
vn -0 0 -1
vn -0 0 -1
vn -0 0 -1
vn -0 0 -1
vn -0 0 -1
vn -0 -1 0
vn -0 -1 0
vn -0 -1 0
vn -0 -1 0
vn -0 1 0
vn -0 1 0
vn -0 1 0
vn -0 1 0
vn -0 -1 0
vn -0 -1 0
vn -0 -1 0
vn -0 -1 0
vn -0 -1 0
vn -0 -1 0
vn -0 -1 0
vn -0 -1 0
vn -0 1 0
vn -0 1 0
vn -0 1 0
vn -0 1 0
vn -0 0 -1
vn -0 0 -1
vn -0 0 -1
vn -0 0 -1
vn -1 0 0
vn -1 0 0
vn -1 0 0
vn -1 0 0
vn 1 0 0
vn 1 0 0
vn 1 0 0
vn 1 0 0
g FloorEdge_0
f 3/3/3 2/2/2 1/1/1
f 4/4/4 3/3/3 1/1/1
f 7/7/7 6/6/6 5/5/5
f 8/8/8 7/7/7 5/5/5
f 11/11/11 10/10/10 9/9/9
f 12/12/12 11/11/11 9/9/9
f 15/15/15 14/14/14 13/13/13
f 16/16/16 15/15/15 13/13/13
f 19/19/19 18/18/18 17/17/17
f 20/20/20 19/19/19 17/17/17
f 23/23/23 22/22/22 21/21/21
f 24/24/24 23/23/23 21/21/21
f 27/27/27 26/26/26 25/25/25
f 28/28/28 27/27/27 25/25/25
f 31/31/31 30/30/30 29/29/29
f 32/32/32 31/31/31 29/29/29
f 35/35/35 34/34/34 33/33/33
f 36/36/36 35/35/35 33/33/33
f 39/39/39 38/38/38 37/37/37
f 40/40/40 39/39/39 37/37/37
f 43/43/43 42/42/42 41/41/41
f 44/44/44 43/43/43 41/41/41
f 47/47/47 46/46/46 45/45/45
f 48/48/48 47/47/47 45/45/45
