g FloorCorner
v -0.5 -0.241832808 -0.375
v 0.375 -0.241832808 -0.37500304
v 0.375 0.241832808 -0.37500304
v -0.5 0.241832808 -0.375
v -0.5 -0.241832808 -0.5
v 0.5 -0.241832808 -0.5
v 0.375 -0.241832808 -0.37500304
v -0.5 -0.241832808 -0.375
v -0.5 -0.5 -0.5
v 0.5 -0.5 -0.5
v 0.5 -0.241832808 -0.5
v -0.5 -0.241832808 -0.5
v -0.5 0.241832808 -0.5
v 0.5 0.241832808 -0.5
v 0.5 0.5 -0.5
v -0.5 0.5 -0.5
v -0.5 -0.5 -0.375
v 0.375 -0.5 -0.37500304
v 0.5 -0.5 -0.5
v -0.5 -0.5 -0.5
v -0.5 0.5 -0.5
v 0.5 0.5 -0.5
v 0.375 0.5 -0.37500304
v -0.5 0.5 -0.375
v -0.5 0.241832808 -0.375
v 0.375 0.241832808 -0.37500304
v 0.5 0.241832808 -0.5
v -0.5 0.241832808 -0.5
v 0.375 -0.241832808 -0.37500304
v 0.37500304 -0.241832808 0.5
v 0.37500304 0.241832808 0.5
v 0.375 0.241832808 -0.37500304
v 0.5 -0.241832808 -0.5
v 0.5 -0.241832808 0.5
v 0.37500304 -0.241832808 0.5
v 0.375 -0.241832808 -0.37500304
v 0.5 -0.5 -0.5
v 0.5 -0.5 0.5
v 0.5 -0.241832808 0.5
v 0.5 -0.241832808 -0.5
v 0.5 0.241832808 -0.5
v 0.5 0.241832808 0.5
v 0.5 0.5 0.5
v 0.5 0.5 -0.5
v 0.375 -0.5 -0.37500304
v 0.37500304 -0.5 0.5
v 0.5 -0.5 0.5
v 0.5 -0.5 -0.5
v 0.5 0.5 -0.5
v 0.5 0.5 0.5
v 0.37500304 0.5 0.5
v 0.375 0.5 -0.37500304
v 0.375 0.241832808 -0.37500304
v 0.37500304 0.241832808 0.5
v 0.5 0.241832808 0.5
v 0.5 0.241832808 -0.5
v -0.5 -0.5 0.5
v 0.37500304 -0.5 0.5
v 0.375 -0.5 -0.37500304
v -0.5 -0.5 -0.375
v -0.5 0.5 -0.375
v 0.375 0.5 -0.37500304
v 0.37500304 0.5 0.5
v -0.5 0.5 0.5
v 0.128875121 -0.24183242 -0.5
v 0.128875121 0.24183242 -0.5
v -0.128875121 0.24183242 -0.5
v -0.128875121 -0.24183242 -0.5
v -0.128875121 -0.24183242 -0.5
v -0.128875121 0.24183242 -0.5
v -0.128875121 0.24183242 -0.375004262
v -0.128875121 -0.24183242 -0.375004262
v 0.128875121 -0.24183242 -0.375004262
v 0.128875121 0.24183242 -0.375004262
v 0.128875121 0.24183242 -0.5
v 0.128875121 -0.24183242 -0.5
v 0.5 -0.24183242 0.128875121
v 0.5 0.24183242 0.128875121
v 0.5 0.24183242 -0.128875121
v 0.5 -0.24183242 -0.128875121
v 0.5 -0.24183242 -0.128875121
v 0.5 0.24183242 -0.128875121
v 0.375004262 0.24183242 -0.128875121
v 0.375004262 -0.24183242 -0.128875121
v 0.375004262 -0.24183242 0.128875121
v 0.375004262 0.24183242 0.128875121
v 0.5 0.24183242 0.128875121
v 0.5 -0.24183242 0.128875121
vt 0.838717103 0.0499861613
vt 0.838716149 0.0462546125
vt 0.840917706 0.0462546125
vt 0.84091866 0.0499861613
vt 0.941573381 0.427065045
vt 0.941473961 0.722156167
vt 0.978365064 0.685301065
vt 0.978453875 0.427092195
vt 0.493841499 0.251797616
vt 0.690402269 0.251795471
vt 0.690402627 0.195937827
vt 0.493841857 0.195939928
vt 0.690402269 0.251799256
vt 0.493839502 0.251797378
vt 0.493839353 0.1959389
vt 0.69040215 0.195940718
vt 0.978354335 0.722184658
vt 0.978447676 0.463947237
vt 0.941570997 0.427042782
vt 0.941463351 0.722171247
vt 0.941589475 0.427065313
vt 0.941462159 0.722184002
vt 0.978360057 0.68532896
vt 0.978473425 0.42709595
vt 0.978354335 0.722184777
vt 0.978447676 0.463947296
vt 0.941570759 0.427042842
vt 0.941463351 0.722171426
vt 0.838716149 0.0462546125
vt 0.838714719 0.0499860123
vt 0.840916276 0.0499860123
vt 0.840917706 0.0462546125
vt 0.941557884 0.427029788
vt 0.941473961 0.72215575
vt 0.97835958 0.722173333
vt 0.97843492 0.463933021
vt 0.493843019 0.251799136
vt 0.69040364 0.251796901
vt 0.690403461 0.195937216
vt 0.4938429 0.195939451
vt 0.690403461 0.251799047
vt 0.493840456 0.251797348
vt 0.493840039 0.195939928
vt 0.690403104 0.195941687
vt 0.978367448 0.685294747
vt 0.978461385 0.427056521
vt 0.941571355 0.427042961
vt 0.941462874 0.722171307
vt 0.941588879 0.427065969
vt 0.941462398 0.722183287
vt 0.978347182 0.722206175
vt 0.978459835 0.463973492
vt 0.978367925 0.685294569
vt 0.978461146 0.427056223
vt 0.941570759 0.427042842
vt 0.941463351 0.722171307
vt 0.956966043 0.046283491
vt 0.956966043 0.0480612144
vt 0.96052146 0.0480612144
vt 0.96052146 0.046283491
vt 0.957473993 0.046283491
vt 0.957473993 0.0480612144
vt 0.961029291 0.0480611995
vt 0.961029291 0.0462834761
vt 0.181776106 0.226434559
vt 0.379548997 0.226434439
vt 0.379548877 0.129563197
vt 0.181776196 0.129563197
vt 0.479252607 0.469370335
vt 0.281641871 0.469370455
vt 0.281641632 0.519828141
vt 0.479252547 0.519828379
vt 0.479252547 0.469370335
vt 0.281641632 0.469370544
vt 0.281641632 0.51982826
vt 0.479252487 0.519828379
vt 0.181776106 0.226434559
vt 0.379548997 0.226434439
vt 0.379548877 0.129563197
vt 0.181776196 0.129563197
vt 0.479252607 0.469370335
vt 0.281641871 0.469370455
vt 0.281641632 0.519828141
vt 0.479252547 0.519828379
vt 0.479252547 0.469370335
vt 0.281641632 0.469370544
vt 0.281641632 0.51982826
vt 0.479252487 0.519828379
vn -3.69204304E-06 0 -1
vn -3.69204304E-06 0 -1
vn -3.69204304E-06 0 -1
vn -3.69204304E-06 0 -1
vn -0 1 0
vn -0 1 0
vn -0 1 0
vn -0 1 0
vn -0 0 -1
vn -0 0 -1
vn -0 0 -1
vn -0 0 -1
vn -0 0 -1
vn -0 0 -1
vn -0 0 -1
vn -0 0 -1
vn -0 -1 0
vn -0 -1 0
vn -0 -1 0
vn -0 -1 0
vn -0 1 0
vn -0 1 0
vn -0 1 0
vn -0 1 0
vn -0 -1 0
vn -0 -1 0
vn -0 -1 0
vn -0 -1 0
vn 1 0 -3.48771027E-06
vn 1 0 -3.48771027E-06
vn 1 0 -3.48771027E-06
vn 1 0 -3.48771027E-06
vn -0 1 0
vn -0 1 0
vn -0 1 0
vn -0 1 0
vn 1 0 0
vn 1 0 0
vn 1 0 0
vn 1 0 0
vn 1 0 0
vn 1 0 0
vn 1 0 0
vn 1 0 0
vn -0 -1 0
vn -0 -1 0
vn -0 -1 0
vn -0 -1 0
vn -0 1 0
vn -0 1 0
vn -0 1 0
vn -0 1 0
vn -0 -1 0
vn -0 -1 0
vn -0 -1 0
vn -0 -1 0
vn -0 -1 0
vn -0 -1 0
vn -0 -1 0
vn -0 -1 0
vn -0 1 0
vn -0 1 0
vn -0 1 0
vn -0 1 0
vn -0 0 -1
vn -0 0 -1
vn -0 0 -1
vn -0 0 -1
vn -1 0 0
vn -1 0 0
vn -1 0 0
vn -1 0 0
vn 1 0 0
vn 1 0 0
vn 1 0 0
vn 1 0 0
vn 1 0 0
vn 1 0 0
vn 1 0 0
vn 1 0 0
vn -0 0 -1
vn -0 0 -1
vn -0 0 -1
vn -0 0 -1
vn -0 0 1
vn -0 0 1
vn -0 0 1
vn -0 0 1
g FloorCorner_0
f 3/3/3 2/2/2 1/1/1
f 4/4/4 3/3/3 1/1/1
f 7/7/7 6/6/6 5/5/5
f 8/8/8 7/7/7 5/5/5
f 11/11/11 10/10/10 9/9/9
f 12/12/12 11/11/11 9/9/9
f 15/15/15 14/14/14 13/13/13
f 16/16/16 15/15/15 13/13/13
f 19/19/19 18/18/18 17/17/17
f 20/20/20 19/19/19 17/17/17
f 23/23/23 22/22/22 21/21/21
f 24/24/24 23/23/23 21/21/21
f 27/27/27 26/26/26 25/25/25
f 28/28/28 27/27/27 25/25/25
f 31/31/31 30/30/30 29/29/29
f 32/32/32 31/31/31 29/29/29
f 35/35/35 34/34/34 33/33/33
f 36/36/36 35/35/35 33/33/33
f 39/39/39 38/38/38 37/37/37
f 40/40/40 39/39/39 37/37/37
f 43/43/43 42/42/42 41/41/41
f 44/44/44 43/43/43 41/41/41
f 47/47/47 46/46/46 45/45/45
f 48/48/48 47/47/47 45/45/45
f 51/51/51 50/50/50 49/49/49
f 52/52/52 51/51/51 49/49/49
f 55/55/55 54/54/54 53/53/53
f 56/56/56 55/55/55 53/53/53
f 59/59/59 58/58/58 57/57/57
f 60/60/60 59/59/59 57/57/57
f 63/63/63 62/62/62 61/61/61
f 64/64/64 63/63/63 61/61/61
f 67/67/67 66/66/66 65/65/65
f 68/68/68 67/67/67 65/65/65
f 71/71/71 70/70/70 69/69/69
f 72/72/72 71/71/71 69/69/69
f 75/75/75 74/74/74 73/73/73
f 76/76/76 75/75/75 73/73/73
f 79/79/79 78/78/78 77/77/77
f 80/80/80 79/79/79 77/77/77
f 83/83/83 82/82/82 81/81/81
f 84/84/84 83/83/83 81/81/81
f 87/87/87 86/86/86 85/85/85
f 88/88/88 87/87/87 85/85/85
