g X_Wall
v -0.25 -0.5 0.25
v -0.25 -0.5 -0.25
v -0.5 -0.5 -0.25
v -0.5 -0.5 0.25
v -0.25 -0.5 -0.5
v 0.25 -0.5 -0.25
v 0.25 -0.5 -0.5
v -0.25 -0.5 -0.25
v -0.25 -0.5 0.25
v 0.250000298 -0.5 0.25
v -0.25 -0.5 0.5
v 0.250000298 -0.5 0.5
v -0.25 -0.5 -0.25
v -0.25 0.5 -0.25
v -0.5 0.5 -0.25
v -0.5 -0.5 -0.25
v -0.25 -0.5 -0.5
v -0.25 0.5 -0.5
v -0.25 0.5 -0.25
v -0.25 -0.5 -0.25
v -0.5 -0.5 -0.25
v -0.5 0.5 -0.25
v -0.5 0.5 0.25
v -0.5 -0.5 0.25
v -0.25 0.5 -0.5
v -0.25 -0.5 -0.5
v 0.25 -0.5 -0.5
v 0.25 0.5 -0.5
v -0.5 -0.5 0.25
v -0.5 0.5 0.25
v -0.25 0.5 0.25
v -0.25 -0.5 0.25
v 0.25 -0.5 -0.25
v 0.25 0.5 -0.25
v 0.25 0.5 -0.5
v 0.25 -0.5 -0.5
v 0.5 -0.5 -0.25
v 0.25 -0.5 -0.25
v 0.250000298 -0.5 0.25
v 0.5 -0.5 0.25
v -0.5 0.5 -0.25
v -0.25 0.5 -0.25
v -0.25 0.5 0.25
v -0.5 0.5 0.25
v -0.25 -0.5 0.25
v -0.25 0.5 0.25
v -0.25 0.5 0.5
v -0.25 -0.5 0.5
v 0.25 0.5 -0.25
v -0.25 0.5 -0.5
v 0.25 0.5 -0.5
v -0.25 0.5 -0.25
v 0.250000298 0.5 0.25
v -0.25 0.5 0.25
v -0.25 0.5 0.5
v 0.250000298 0.5 0.5
v 0.5 -0.5 -0.25
v 0.5 0.5 -0.25
v 0.25 0.5 -0.25
v 0.25 -0.5 -0.25
v 0.5 0.5 -0.25
v 0.5 -0.5 -0.25
v 0.5 -0.5 0.25
v 0.5 0.5 0.25
v -0.25 -0.5 0.5
v -0.25 0.5 0.5
v 0.250000298 0.5 0.5
v 0.250000298 -0.5 0.5
v 0.250000298 -0.5 0.25
v 0.250000298 0.5 0.25
v 0.5 0.5 0.25
v 0.5 -0.5 0.25
v 0.250000298 -0.5 0.5
v 0.250000298 0.5 0.5
v 0.250000298 0.5 0.25
v 0.250000298 -0.5 0.25
v 0.250000298 0.5 0.25
v 0.25 0.5 -0.25
v 0.5 0.5 -0.25
v 0.5 0.5 0.25
vt 0.952854156 0.0711567998
vt 0.952854156 0.0761082768
vt 0.950378418 0.0761082768
vt 0.950378418 0.0711567998
vt 0.960281372 0.0761082768
vt 0.957805634 0.0711567998
vt 0.960281372 0.0711567998
vt 0.957805634 0.0761082768
vt 0.952854156 0.0761082768
vt 0.952854156 0.0711567998
vt 0.950378418 0.0761082768
vt 0.950378418 0.0711567998
vt 0.840262771 0.0519856811
vt 0.840262771 0.0462919325
vt 0.838839412 0.0462919325
vt 0.838839412 0.0519856811
vt 0.840353668 0.0462919325
vt 0.840353668 0.0519856811
vt 0.841777205 0.0519856811
vt 0.841777205 0.0462919325
vt 0.84186542 0.0462919325
vt 0.84186542 0.0519856811
vt 0.844712377 0.0519856811
vt 0.844712377 0.0462919325
vt 0.844814777 0.0462919325
vt 0.844814777 0.0519856811
vt 0.847661734 0.0519856811
vt 0.847661734 0.0462919325
vt 0.847764134 0.0462919325
vt 0.847764134 0.0519856811
vt 0.849187613 0.0519856811
vt 0.849187613 0.0462919325
vt 0.849276006 0.0462919325
vt 0.849276006 0.0519856811
vt 0.850699425 0.0519856811
vt 0.850699425 0.0462919325
vt 0.960281372 0.0761082768
vt 0.957805634 0.0761082768
vt 0.957805634 0.0711567998
vt 0.960281372 0.0711567998
vt 0.950378418 0.0761082768
vt 0.952854156 0.0761082768
vt 0.952854156 0.0711567998
vt 0.950378418 0.0711567998
vt 0.850081921 0.0520364642
vt 0.850081921 0.0577302575
vt 0.851505399 0.0577302575
vt 0.851505399 0.0520364642
vt 0.957805634 0.0711567998
vt 0.960281372 0.0761082768
vt 0.960281372 0.0711567998
vt 0.957805634 0.0761082768
vt 0.952854156 0.0711567998
vt 0.952854156 0.0761082768
vt 0.950378418 0.0761082768
vt 0.950378418 0.0711567998
vt 0.850003898 0.0577301979
vt 0.850003898 0.0520364642
vt 0.84858042 0.0520364642
vt 0.84858042 0.0577301979
vt 0.848502338 0.0577301979
vt 0.848502338 0.0520364642
vt 0.84565556 0.0520364642
vt 0.84565556 0.0577301979
vt 0.842730641 0.0520364642
vt 0.842730641 0.0577301979
vt 0.845577478 0.0577301979
vt 0.845577478 0.0520364642
vt 0.8412292 0.0520364642
vt 0.8412292 0.0577302575
vt 0.842652559 0.0577302575
vt 0.842652559 0.0520364642
vt 0.8397277 0.0520364642
vt 0.8397277 0.0577301979
vt 0.841151178 0.0577301979
vt 0.841151178 0.0520364642
vt 0.957805634 0.0711567998
vt 0.957805634 0.0761082768
vt 0.960281372 0.0761082768
vt 0.960281372 0.0711567998
vn -0 -1 0
vn -0 -1 0
vn -0 -1 0
vn -0 -1 0
vn -0 -1 0
vn -0 -1 0
vn -0 -1 0
vn -0 -1 0
vn -0 -1 0
vn -0 -1 0
vn -0 -1 0
vn -0 -1 0
vn -0 0 -1
vn -0 0 -1
vn -0 0 -1
vn -0 0 -1
vn -1 0 0
vn -1 0 0
vn -1 0 0
vn -1 0 0
vn -1 0 0
vn -1 0 0
vn -1 0 0
vn -1 0 0
vn -0 0 -1
vn -0 0 -1
vn -0 0 -1
vn -0 0 -1
vn -0 0 1
vn -0 0 1
vn -0 0 1
vn -0 0 1
vn 1 0 0
vn 1 0 0
vn 1 0 0
vn 1 0 0
vn -0 -1 0
vn -0 -1 0
vn -0 -1 0
vn -0 -1 0
vn -0 1 0
vn -0 1 0
vn -0 1 0
vn -0 1 0
vn -1 0 0
vn -1 0 0
vn -1 0 0
vn -1 0 0
vn -0 1 0
vn -0 1 0
vn -0 1 0
vn -0 1 0
vn -0 1 0
vn -0 1 0
vn -0 1 0
vn -0 1 0
vn -0 0 -1
vn -0 0 -1
vn -0 0 -1
vn -0 0 -1
vn 1 0 0
vn 1 0 0
vn 1 0 0
vn 1 0 0
vn -0 0 1
vn -0 0 1
vn -0 0 1
vn -0 0 1
vn -0 0 1
vn -0 0 1
vn -0 0 1
vn -0 0 1
vn 1 0 0
vn 1 0 0
vn 1 0 0
vn 1 0 0
vn -0 1 0
vn -0 1 0
vn -0 1 0
vn -0 1 0
g X_Wall_0
f 3/3/3 2/2/2 1/1/1
f 4/4/4 3/3/3 1/1/1
f 7/7/7 6/6/6 5/5/5
f 6/6/6 8/8/8 5/5/5
f 9/9/9 8/8/8 6/6/6
f 10/10/10 9/9/9 6/6/6
f 11/11/11 9/9/9 10/10/10
f 12/12/12 11/11/11 10/10/10
f 15/15/15 14/14/14 13/13/13
f 16/16/16 15/15/15 13/13/13
f 19/19/19 18/18/18 17/17/17
f 20/20/20 19/19/19 17/17/17
f 23/23/23 22/22/22 21/21/21
f 24/24/24 23/23/23 21/21/21
f 27/27/27 26/26/26 25/25/25
f 28/28/28 27/27/27 25/25/25
f 31/31/31 30/30/30 29/29/29
f 32/32/32 31/31/31 29/29/29
f 35/35/35 34/34/34 33/33/33
f 36/36/36 35/35/35 33/33/33
f 39/39/39 38/38/38 37/37/37
f 40/40/40 39/39/39 37/37/37
f 43/43/43 42/42/42 41/41/41
f 44/44/44 43/43/43 41/41/41
f 47/47/47 46/46/46 45/45/45
f 48/48/48 47/47/47 45/45/45
f 51/51/51 50/50/50 49/49/49
f 50/50/50 52/52/52 49/49/49
f 49/49/49 52/52/52 53/53/53
f 52/52/52 54/54/54 53/53/53
f 53/53/53 54/54/54 55/55/55
f 56/56/56 53/53/53 55/55/55
f 59/59/59 58/58/58 57/57/57
f 60/60/60 59/59/59 57/57/57
f 63/63/63 62/62/62 61/61/61
f 64/64/64 63/63/63 61/61/61
f 67/67/67 66/66/66 65/65/65
f 68/68/68 67/67/67 65/65/65
f 71/71/71 70/70/70 69/69/69
f 72/72/72 71/71/71 69/69/69
f 75/75/75 74/74/74 73/73/73
f 76/76/76 75/75/75 73/73/73
f 79/79/79 78/78/78 77/77/77
f 80/80/80 79/79/79 77/77/77
