g AshlarStairs_Corner
v -0.5 0.49999994 -0.199996337
v -0.5 0.466669947 -0.166666254
v -0.5 0.44515118 -0.221515492
v -0.5 0.166666642 0.133336172
v -0.5 0.133336633 0.166666254
v -0.5 0.111817852 0.111817628
v -0.5 -0.166666672 0.466669917
v -0.5 -0.19999668 0.5
v -0.5 -0.221515462 0.445151359
v -0.5 0.49999994 -0.5
v -0.199996948 0.499999911 -0.199996337
v -0.5 0.49999994 -0.199996337
v -0.5 -0.5 -0.5
v -0.5 -0.5 0.5
v 0.5 -0.5 0.5
v -0.199996337 0.49999994 -0.5
v -0.221515492 0.44515118 -0.5
v -0.166666254 0.466669947 -0.5
v 0.133336172 0.166666642 -0.5
v 0.111817628 0.111817852 -0.5
v 0.166666254 0.133336633 -0.5
v 0.466669917 -0.166666672 -0.5
v 0.445151359 -0.221515462 -0.5
v 0.5 -0.19999668 -0.5
v -0.5 0.49999994 -0.5
v -0.199996337 0.49999994 -0.5
v -0.199996948 0.499999911 -0.199996337
v 0.5 -0.5 0.498983145
v 0.5 -0.5 -0.5
v -0.5 -0.5 -0.5
v -0.5 -0.220666677 0.112666622
v -0.5 -0.221515462 0.445151359
v -0.5 -0.44599998 0.445999742
v -0.5 -0.5 -0.5
v -0.5 0.112666644 -0.220666498
v -0.5 0.111817852 0.111817628
v -0.5 0.44599995 -0.445999742
v -0.5 0.44515118 -0.221515492
v -0.5 -0.19999668 0.5
v -0.5 -0.5 0.5
v -0.5 -0.489542186 0.472999871
v -0.5 -0.44599998 0.445999742
v -0.5 -0.221515462 0.445151359
v -0.5 -0.5 -0.5
v -0.5 -0.44599998 0.445999742
v -0.5 -0.489542186 0.472999871
v -0.5 -0.5 0.5
v -0.5 0.49999994 -0.5
v -0.5 0.47299993 -0.487728864
v -0.5 0.44599995 -0.445999742
v -0.5 0.49999994 -0.199996337
v -0.5 0.44515118 -0.221515492
v -0.5 0.44599995 -0.445999742
v -0.5 0.47299993 -0.487728864
v -0.5 0.49999994 -0.5
v -0.5 0.466669947 -0.166666254
v -0.5 0.166666642 -0.166666865
v -0.5 0.112666644 -0.220666498
v -0.5 0.44515118 -0.221515492
v -0.5 0.166666642 -0.166666865
v -0.5 0.166666642 0.133336172
v -0.5 0.111817852 0.111817628
v -0.5 0.112666644 -0.220666498
v -0.5 0.133336633 0.166666254
v -0.5 -0.166666672 0.166666254
v -0.5 -0.220666677 0.112666622
v -0.5 0.111817852 0.111817628
v -0.5 -0.166666672 0.166666254
v -0.5 -0.166666672 0.466669917
v -0.5 -0.221515462 0.445151359
v -0.5 -0.220666677 0.112666622
v -0.5 -0.5 0.5
v -0.5 -0.19999668 0.5
v 0.5 -0.199996367 0.5
v 0.5 -0.5 0.5
v -0.5 -0.166666672 0.166666254
v 0.166666865 -0.166666672 0.166666254
v 0.466669917 -0.166666672 0.466669917
v -0.5 -0.166666672 0.466669917
v 0.5 -0.199996367 0.5
v -0.5 -0.19999668 0.5
v -0.5 -0.166666672 0.466669917
v 0.466669917 -0.166666672 0.466669917
v -0.5 -0.166666672 0.166666254
v -0.5 0.133336633 0.166666254
v 0.166666254 0.133336633 0.166666254
v 0.166666865 -0.166666672 0.166666254
v -0.5 0.166666642 -0.166666865
v -0.166666865 0.166666642 -0.166666865
v 0.133336172 0.166666642 0.133336172
v -0.5 0.166666642 0.133336172
v -0.5 0.166666642 -0.166666865
v -0.5 0.466669947 -0.166666254
v -0.166666254 0.466669947 -0.166666254
v -0.166666865 0.166666642 -0.166666865
v 0.166666254 0.133336633 0.166666254
v -0.5 0.133336633 0.166666254
v -0.5 0.166666642 0.133336172
v 0.133336172 0.166666642 0.133336172
v -0.166666254 0.466669947 -0.166666254
v -0.5 0.466669947 -0.166666254
v -0.5 0.49999994 -0.199996337
v -0.199996948 0.499999911 -0.199996337
v 0.5 -0.19999668 -0.5
v 0.5 -0.19999668 0.501015604
v 0.466669917 -0.166666672 0.466669917
v 0.466669917 -0.166666672 -0.5
v 0.166666254 0.133336633 -0.5
v 0.166666254 0.133336633 0.166666254
v 0.133336172 0.166666642 0.133336172
v 0.133336172 0.166666642 -0.5
v -0.166666254 0.466669947 -0.5
v -0.166666254 0.466669947 -0.166666254
v -0.199996948 0.499999911 -0.199996337
v -0.199996337 0.49999994 -0.5
v -0.5 -0.5 -0.5
v 0.445999742 -0.44599998 -0.5
v 0.445151359 -0.221515462 -0.5
v 0.112666622 -0.220666677 -0.5
v 0.111817628 0.111817852 -0.5
v -0.220666498 0.112666644 -0.5
v -0.221515492 0.44515118 -0.5
v -0.445999742 0.44599995 -0.5
v 0.472999871 -0.489542186 -0.5
v 0.5 -0.5 -0.5
v 0.5 -0.19999668 -0.5
v 0.445151359 -0.221515462 -0.5
v 0.445999742 -0.44599998 -0.5
v 0.445999742 -0.44599998 -0.5
v -0.5 -0.5 -0.5
v 0.472999871 -0.489542186 -0.5
v 0.5 -0.5 -0.5
v -0.445999742 0.44599995 -0.5
v -0.487728864 0.47299993 -0.5
v -0.5 0.49999994 -0.5
v -0.199996337 0.49999994 -0.5
v -0.5 0.49999994 -0.5
v -0.487728864 0.47299993 -0.5
v -0.221515492 0.44515118 -0.5
v -0.445999742 0.44599995 -0.5
v -0.166666254 0.466669947 -0.5
v -0.221515492 0.44515118 -0.5
v -0.220666498 0.112666644 -0.5
v -0.166666865 0.166666642 -0.5
v -0.166666865 0.166666642 -0.5
v -0.220666498 0.112666644 -0.5
v 0.111817628 0.111817852 -0.5
v 0.133336172 0.166666642 -0.5
v 0.166666254 0.133336633 -0.5
v 0.111817628 0.111817852 -0.5
v 0.112666622 -0.220666677 -0.5
v 0.166666254 -0.166666672 -0.5
v 0.166666254 -0.166666672 -0.5
v 0.112666622 -0.220666677 -0.5
v 0.445151359 -0.221515462 -0.5
v 0.466669917 -0.166666672 -0.5
v 0.5 -0.19999668 0.501015604
v 0.5 -0.19999668 -0.5
v 0.5 -0.5 -0.5
v 0.5 -0.5 0.498983145
v 0.166666865 -0.166666672 0.166666254
v 0.166666254 -0.166666672 -0.5
v 0.466669917 -0.166666672 -0.5
v 0.466669917 -0.166666672 0.466669917
v 0.166666254 0.133336633 0.166666254
v 0.166666254 0.133336633 -0.5
v 0.166666254 -0.166666672 -0.5
v 0.166666865 -0.166666672 0.166666254
v -0.166666865 0.166666642 -0.166666865
v -0.166666865 0.166666642 -0.5
v 0.133336172 0.166666642 -0.5
v 0.133336172 0.166666642 0.133336172
v -0.166666254 0.466669947 -0.166666254
v -0.166666254 0.466669947 -0.5
v -0.166666865 0.166666642 -0.5
v -0.166666865 0.166666642 -0.166666865
vt 0.772270799 0.587247729
vt 0.772271156 0.606439829
vt 0.752950191 0.596843362
vt 0.772271037 0.587247252
vt 0.772271276 0.606439888
vt 0.752950311 0.596843421
vt 0.772271454 0.587247133
vt 0.772271454 0.606439829
vt 0.752950311 0.596843719
vt 0.959866285 0.043746531
vt 0.958842278 0.0427225754
vt 0.958842278 0.043746531
vt 0.948132157 0.0266589932
vt 0.948132157 0.0365763307
vt 0.958049536 0.0365763307
vt 0.772269845 0.587246656
vt 0.752950191 0.596843362
vt 0.772271156 0.606439829
vt 0.772271037 0.587247252
vt 0.752950311 0.596843421
vt 0.772271276 0.606439888
vt 0.772271454 0.587247133
vt 0.752950311 0.596843719
vt 0.772271454 0.606439829
vt 0.959866285 0.0403333902
vt 0.958842278 0.0403333902
vt 0.958842278 0.0413911715
vt 0.948327422 0.0365763307
vt 0.958049536 0.0365763307
vt 0.958049536 0.0266589932
vt 0.953236461 0.0432751179
vt 0.953071177 0.0464156568
vt 0.949930668 0.0465809107
vt 0.949432313 0.036164958
vt 0.956542194 0.0399693847
vt 0.95637691 0.043109864
vt 0.959848046 0.0366635919
vt 0.959682763 0.039804101
vt 0.77227211 0.576646924
vt 0.772272229 0.698801041
vt 0.762611926 0.694544494
vt 0.75295037 0.676813483
vt 0.752950311 0.585408688
vt 0.921546221 0.0431980267
vt 0.923731863 0.00478905439
vt 0.921967566 0.0036928358
vt 0.921539426 0.00259658694
vt 0.962140679 0.0431978703
vt 0.961044252 0.0426993147
vt 0.959948182 0.0410054028
vt 0.772331476 0.617041707
vt 0.752950191 0.608278155
vt 0.752950191 0.516873181
vt 0.762611687 0.499883831
vt 0.77227211 0.494885802
vt 0.77227211 0.586093426
vt 0.77227211 0.708247542
vt 0.752950311 0.7302351
vt 0.752950191 0.594855189
vt 0.77227211 0.628521204
vt 0.77227211 0.750675499
vt 0.752950311 0.741913497
vt 0.752950311 0.606533468
vt 0.77227211 0.524772704
vt 0.77227211 0.64692688
vt 0.752950311 0.668914318
vt 0.752950311 0.533534586
vt 0.77227211 0.608080924
vt 0.77227211 0.730235159
vt 0.752950311 0.721473336
vt 0.752950311 0.586093307
vt 0.953748226 0.0403046012
vt 0.954772234 0.0403046012
vt 0.954772234 0.0368914306
vt 0.953748226 0.0368914306
vt 0.955956042 0.0403046012
vt 0.955956042 0.0380291566
vt 0.954932094 0.0370051935
vt 0.954932094 0.0403046012
vt 0.753055453 0.365690231
vt 0.753055274 0.784753561
vt 0.772176981 0.784753561
vt 0.772176981 0.379657686
vt 0.957208812 0.0403046012
vt 0.95823276 0.0403046012
vt 0.95823276 0.0380291529
vt 0.957208812 0.0380291566
vt 0.959415257 0.0403046012
vt 0.959415257 0.0391668789
vt 0.958391309 0.0381429158
vt 0.958391309 0.0403046012
vt 0.959910572 0.043746531
vt 0.96093452 0.043746531
vt 0.96093452 0.0426088199
vt 0.959910572 0.0426088199
vt 0.753055274 0.505378127
vt 0.753055274 0.784753561
vt 0.77217716 0.784753561
vt 0.77217716 0.519345582
vt 0.753055334 0.645065725
vt 0.753055274 0.784753561
vt 0.7721771 0.784753501
vt 0.7721771 0.65903312
vt 0.753055274 0.365690231
vt 0.753055274 0.777354419
vt 0.772176981 0.763936758
vt 0.772176981 0.365690231
vt 0.753055274 0.365690231
vt 0.753055274 0.643167257
vt 0.7721771 0.629749954
vt 0.77217716 0.365690231
vt 0.753055274 0.365690231
vt 0.753055334 0.508981109
vt 0.7721771 0.495563865
vt 0.7721771 0.365690231
vt 0.949530602 0.0362591818
vt 0.949930668 0.0465809107
vt 0.953071177 0.0464156568
vt 0.953236461 0.0432751179
vt 0.95637691 0.043109864
vt 0.956542194 0.0399693847
vt 0.959682763 0.039804101
vt 0.959848046 0.0366635919
vt 0.762613654 0.69454354
vt 0.772272229 0.698801041
vt 0.77227211 0.576646924
vt 0.752950311 0.585408688
vt 0.75295037 0.676813483
vt 0.957811356 0.0819059014
vt 0.95562005 0.0434970669
vt 0.956043422 0.0830020159
vt 0.955618858 0.0840983987
vt 0.994027615 0.0456896126
vt 0.995125651 0.0439954028
vt 0.996221662 0.0434971824
vt 0.77232945 0.617040157
vt 0.772271872 0.49488613
vt 0.762613893 0.499882698
vt 0.752950191 0.608278155
vt 0.752950191 0.516873181
vt 0.77227211 0.586093426
vt 0.752950191 0.594855189
vt 0.752950311 0.7302351
vt 0.77227211 0.708247542
vt 0.77227211 0.628521204
vt 0.752950311 0.606533468
vt 0.752950311 0.741913497
vt 0.77227211 0.750675499
vt 0.77227211 0.524772704
vt 0.752950311 0.533534586
vt 0.752950311 0.668914318
vt 0.77227211 0.64692688
vt 0.77227211 0.608080924
vt 0.752950311 0.586093307
vt 0.752950311 0.721473336
vt 0.77227211 0.730235159
vt 0.954772234 0.0402443372
vt 0.954772234 0.0368914306
vt 0.953748226 0.0368914306
vt 0.953748226 0.0402373932
vt 0.955956101 0.039144475
vt 0.955956042 0.0368914306
vt 0.954932094 0.0368914306
vt 0.954932094 0.0401350521
vt 0.95823276 0.0391514152
vt 0.95823276 0.0368914306
vt 0.957208812 0.0368914306
vt 0.957208872 0.039144475
vt 0.959415197 0.0380515568
vt 0.959415257 0.0368914306
vt 0.958391309 0.0368914306
vt 0.958391309 0.0390421338
vt 0.96093452 0.0415004529
vt 0.96093452 0.0403333902
vt 0.959910572 0.0403333902
vt 0.959910572 0.0414935052
vn -1 -2.97881957E-06 0
vn -1 6.61259548E-07 0
vn -1 -1.89611853E-07 0
vn -1 0 0
vn -1 0 0
vn -1 -1.32476998E-07 0
vn -1 0 0
vn -1 0 0
vn -1 -1.33234238E-07 0
vn -0 1 1.35630614E-07
vn -0 1 1.35630444E-07
vn 1.2715536E-07 1 0
vn -0 -1 0
vn -0 -1 0
vn -0 -1 0
vn -9.92939817E-07 0 -1
vn 3.26913664E-07 0 -1
vn 7.60457488E-06 0 -1
vn -0 0 -1
vn 3.49489284E-07 0 -1
vn 7.6046108E-06 0 -1
vn -0 0 -1
vn -0 0 -1
vn -3.06230959E-06 0 -1
vn -0 1 1.35630614E-07
vn -0 1 2.71260291E-07
vn -0 1 1.35630444E-07
vn -0 -1 0
vn -0 -1 0
vn -0 -1 0
vn -1 -1.38987787E-07 0
vn -1 -1.33234238E-07 0
vn -1 -1.30702915E-07 0
vn -1 -1.42257335E-07 0
vn -1 -1.27405485E-07 0
vn -1 -1.32476998E-07 0
vn -1 -2.06017873E-07 0
vn -1 -1.89611853E-07 0
vn -1 0 0
vn -1 0 0
vn -1 0 0
vn -1 -1.30702915E-07 0
vn -1 -1.33234238E-07 0
vn -1 -1.42257335E-07 0
vn -1 -1.30702915E-07 0
vn -1 0 0
vn -1 0 0
vn -1 3.25821674E-07 0
vn -1 0 0
vn -1 -2.06017873E-07 0
vn -1 -2.97881957E-06 0
vn -1 -1.89611853E-07 0
vn -1 -2.06017873E-07 0
vn -1 0 0
vn -1 3.25821674E-07 0
vn -1 6.61259548E-07 0
vn -1 3.54289739E-07 0
vn -1 -1.27405485E-07 0
vn -1 -1.89611853E-07 0
vn -1 3.54289739E-07 0
vn -1 0 0
vn -1 -1.32476998E-07 0
vn -1 -1.27405485E-07 0
vn -1 0 0
vn -1 0 0
vn -1 -1.38987787E-07 0
vn -1 -1.32476998E-07 0
vn -1 0 0
vn -1 0 0
vn -1 -1.33234238E-07 0
vn -1 -1.38987787E-07 0
vn -0 0 1
vn -0 0 1
vn -0 0 1
vn -0 0 1
vn -0 1 0
vn -0 1 0
vn -0 1 0
vn -0 1 0
vn 1.31682697E-07 0.707109094 0.707104445
vn 1.31682668E-07 0.707109094 0.707104385
vn 1.31682697E-07 0.707109094 0.707104385
vn 1.31682683E-07 0.707109094 0.707104445
vn -0 0 1
vn -0 0 1
vn -0 0 1
vn -0 0 1
vn -0 1 0
vn -0 1 0
vn -0 1 0
vn -0 1 0
vn -0 -2.03448462E-06 1
vn -0 -2.03448462E-06 1
vn -0 -2.03448485E-06 1
vn -0 -2.03448485E-06 1
vn -0 0.707107604 0.707105935
vn -0 0.707107544 0.707105935
vn -0 0.707107544 0.707105935
vn -0 0.707107604 0.707105935
vn -0 0.707108378 0.7071051
vn -0 0.707108378 0.7071051
vn -0 0.707108378 0.70710516
vn -0 0.707108378 0.7071051
vn 0.707103372 0.707110167 0
vn 0.707103312 0.707110167 0
vn 0.707103312 0.707110167 0
vn 0.707103372 0.707110167 0
vn 0.70710814 0.707105398 0
vn 0.70710814 0.707105398 0
vn 0.7071082 0.707105279 0
vn 0.70710814 0.707105398 0
vn 0.707109213 0.707104325 6.13362829E-07
vn 0.707109153 0.707104325 6.13362886E-07
vn 0.707109213 0.707104325 6.13362829E-07
vn 0.707109094 0.707104385 6.13362829E-07
vn -0 0 -1
vn -1.02899641E-07 0 -1
vn -0 0 -1
vn 1.71562476E-07 0 -1
vn 3.49489284E-07 0 -1
vn 1.71562448E-07 0 -1
vn 3.26913664E-07 0 -1
vn -8.94062964E-07 0 -1
vn -1.66818654E-06 0 -1
vn -2.99178669E-06 0 -1
vn -3.06230959E-06 0 -1
vn -0 0 -1
vn -1.02899641E-07 0 -1
vn -1.02899641E-07 0 -1
vn -0 0 -1
vn -1.66818654E-06 0 -1
vn -2.99178669E-06 0 -1
vn -8.94062964E-07 0 -1
vn -1.21703542E-05 0 -1
vn -1.04261217E-05 0 -1
vn -9.92939817E-07 0 -1
vn -1.04261217E-05 0 -1
vn -1.21703542E-05 0 -1
vn 3.26913664E-07 0 -1
vn -8.94062964E-07 0 -1
vn 7.60457488E-06 0 -1
vn 3.26913664E-07 0 -1
vn 1.71562448E-07 0 -1
vn 4.07435573E-06 0 -1
vn 4.07435573E-06 0 -1
vn 1.71562448E-07 0 -1
vn 3.49489284E-07 0 -1
vn -0 0 -1
vn 7.6046108E-06 0 -1
vn 3.49489284E-07 0 -1
vn 1.71562476E-07 0 -1
vn 4.07435891E-06 0 -1
vn 4.07435891E-06 0 -1
vn 1.71562476E-07 0 -1
vn -0 0 -1
vn -0 0 -1
vn 1 0 0
vn 1 0 0
vn 1 0 0
vn 1 0 0
vn -0 1 0
vn -0 1 0
vn -0 1 0
vn -0 1 0
vn 1 0 -4.5776406E-07
vn 1 0 -4.5776406E-07
vn 1 0 -4.5776406E-07
vn 1 0 -4.5776406E-07
vn -0 1 0
vn -0 1 0
vn -0 1 0
vn -0 1 0
vn 1 0 0
vn 1 0 0
vn 1 0 0
vn 1 0 0
g AshlarStairs_Corner_0
f 3/3/3 2/2/2 1/1/1
f 6/6/6 5/5/5 4/4/4
f 9/9/9 8/8/8 7/7/7
f 12/12/12 11/11/11 10/10/10
f 15/15/15 14/14/14 13/13/13
f 18/18/18 17/17/17 16/16/16
f 21/21/21 20/20/20 19/19/19
f 24/24/24 23/23/23 22/22/22
f 27/27/27 26/26/26 25/25/25
f 30/30/30 29/29/29 28/28/28
f 33/33/33 32/32/32 31/31/31
f 34/34/34 33/33/33 31/31/31
f 34/34/34 31/31/31 35/35/35
f 31/31/31 36/36/36 35/35/35
f 35/35/35 37/37/37 34/34/34
f 35/35/35 38/38/38 37/37/37
f 41/41/41 40/40/40 39/39/39
f 39/39/39 42/42/42 41/41/41
f 39/39/39 43/43/43 42/42/42
f 46/46/46 45/45/45 44/44/44
f 46/46/46 44/44/44 47/47/47
f 49/49/49 48/48/48 44/44/44
f 50/50/50 49/49/49 44/44/44
f 53/53/53 52/52/52 51/51/51
f 54/54/54 53/53/53 51/51/51
f 54/54/54 51/51/51 55/55/55
f 58/58/58 57/57/57 56/56/56
f 59/59/59 58/58/58 56/56/56
f 62/62/62 61/61/61 60/60/60
f 63/63/63 62/62/62 60/60/60
f 66/66/66 65/65/65 64/64/64
f 67/67/67 66/66/66 64/64/64
f 70/70/70 69/69/69 68/68/68
f 71/71/71 70/70/70 68/68/68
f 74/74/74 73/73/73 72/72/72
f 75/75/75 74/74/74 72/72/72
f 78/78/78 77/77/77 76/76/76
f 79/79/79 78/78/78 76/76/76
f 82/82/82 81/81/81 80/80/80
f 83/83/83 82/82/82 80/80/80
f 86/86/86 85/85/85 84/84/84
f 87/87/87 86/86/86 84/84/84
f 90/90/90 89/89/89 88/88/88
f 91/91/91 90/90/90 88/88/88
f 94/94/94 93/93/93 92/92/92
f 95/95/95 94/94/94 92/92/92
f 98/98/98 97/97/97 96/96/96
f 99/99/99 98/98/98 96/96/96
f 102/102/102 101/101/101 100/100/100
f 103/103/103 102/102/102 100/100/100
f 106/106/106 105/105/105 104/104/104
f 107/107/107 106/106/106 104/104/104
f 110/110/110 109/109/109 108/108/108
f 111/111/111 110/110/110 108/108/108
f 114/114/114 113/113/113 112/112/112
f 115/115/115 114/114/114 112/112/112
f 118/118/118 117/117/117 116/116/116
f 116/116/116 119/119/119 118/118/118
f 116/116/116 120/120/120 119/119/119
f 116/116/116 121/121/121 120/120/120
f 116/116/116 122/122/122 121/121/121
f 116/116/116 123/123/123 122/122/122
f 126/126/126 125/125/125 124/124/124
f 124/124/124 127/127/127 126/126/126
f 124/124/124 128/128/128 127/127/127
f 131/131/131 130/130/130 129/129/129
f 130/130/130 131/131/131 132/132/132
f 134/134/134 133/133/133 130/130/130
f 135/135/135 134/134/134 130/130/130
f 138/138/138 137/137/137 136/136/136
f 136/136/136 139/139/139 138/138/138
f 139/139/139 140/140/140 138/138/138
f 143/143/143 142/142/142 141/141/141
f 144/144/144 143/143/143 141/141/141
f 147/147/147 146/146/146 145/145/145
f 148/148/148 147/147/147 145/145/145
f 151/151/151 150/150/150 149/149/149
f 152/152/152 151/151/151 149/149/149
f 155/155/155 154/154/154 153/153/153
f 156/156/156 155/155/155 153/153/153
f 159/159/159 158/158/158 157/157/157
f 160/160/160 159/159/159 157/157/157
f 163/163/163 162/162/162 161/161/161
f 164/164/164 163/163/163 161/161/161
f 167/167/167 166/166/166 165/165/165
f 168/168/168 167/167/167 165/165/165
f 171/171/171 170/170/170 169/169/169
f 172/172/172 171/171/171 169/169/169
f 175/175/175 174/174/174 173/173/173
f 176/176/176 175/175/175 173/173/173
