g AshlarFloatingStairs
v -0.5 -0.5 0.5
v -0.5 -0.19999668 0.5
v 0.5 -0.19999668 0.5
v 0.5 -0.5 0.5
v 0.5 -0.166666672 0.166666567
v 0.5 -0.5 0.166666567
v 0.5 -0.5 0.5
v 0.5 -0.19999668 0.5
v 0.5 -0.166666672 0.466669917
v -0.5 -0.19999668 0.5
v -0.5 -0.5 0.5
v -0.5 -0.5 0.166666567
v -0.5 -0.166666672 0.166666567
v -0.5 -0.166666672 0.466669917
v -0.5 -0.166666672 0.166666567
v 0.5 -0.166666672 0.166666567
v 0.5 -0.166666672 0.466669917
v -0.5 -0.166666672 0.466669917
v -0.5 -0.166666672 0.166666567
v -0.5 -0.5 0.166666567
v 0.5 -0.5 0.166666567
v 0.5 -0.166666672 0.166666567
v 0.5 -0.19999668 0.5
v -0.5 -0.19999668 0.5
v -0.5 -0.166666672 0.466669917
v 0.5 -0.166666672 0.466669917
v -0.5 -0.166666672 0.166666567
v -0.5 0.133336633 0.166666567
v 0.5 0.133336633 0.166666567
v 0.5 -0.166666672 0.166666567
v 0.5 0.166666642 -0.166666865
v 0.5 -0.166666672 -0.166666865
v 0.5 -0.166666672 0.166666567
v 0.5 0.133336633 0.166666567
v 0.5 0.166666642 0.133336484
v -0.5 0.133336633 0.166666567
v -0.5 -0.166666672 0.166666567
v -0.5 -0.166666672 -0.166666865
v -0.5 0.166666642 -0.166666865
v -0.5 0.166666642 0.133336484
v -0.5 0.166666642 -0.166666865
v 0.5 0.166666642 -0.166666865
v 0.5 0.166666642 0.133336484
v -0.5 0.166666642 0.133336484
v -0.5 0.166666642 -0.166666865
v -0.5 -0.166666672 -0.166666865
v 0.5 -0.166666672 -0.166666865
v 0.5 0.166666642 -0.166666865
v 0.5 0.133336633 0.166666567
v -0.5 0.133336633 0.166666567
v -0.5 0.166666642 0.133336484
v 0.5 0.166666642 0.133336484
v -0.5 0.166666642 -0.166666567
v -0.5 0.466669947 -0.166666567
v 0.5 0.466669947 -0.166666567
v 0.5 0.166666642 -0.166666567
v 0.5 0.49999994 -0.5
v 0.5 0.166666642 -0.5
v 0.5 0.166666642 -0.166666567
v 0.5 0.466669947 -0.166666567
v 0.5 0.49999994 -0.199996635
v -0.5 0.466669947 -0.166666567
v -0.5 0.166666642 -0.166666567
v -0.5 0.166666642 -0.5
v -0.5 0.49999994 -0.5
v -0.5 0.49999994 -0.199996635
v -0.5 0.49999994 -0.5
v 0.5 0.49999994 -0.5
v 0.5 0.49999994 -0.199996635
v -0.5 0.49999994 -0.199996635
v -0.5 0.49999994 -0.5
v -0.5 0.166666642 -0.5
v 0.5 0.166666642 -0.5
v 0.5 0.49999994 -0.5
v 0.5 0.466669947 -0.166666567
v -0.5 0.466669947 -0.166666567
v -0.5 0.49999994 -0.199996635
v 0.5 0.49999994 -0.199996635
v -0.3125 -0.0208333582 -0.375
v -0.3125 0.166666642 -0.5
v -0.3125 0.104166642 -0.5
v -0.3125 0.166666642 -0.166666567
v -0.3125 -0.0208333582 -0.166666567
v -0.5 0.166666642 -0.5
v -0.5 0.104166642 -0.5
v -0.3125 0.166666642 -0.5
v -0.3125 0.104166642 -0.5
v -0.5 0.104166642 -0.5
v -0.5 -0.0208333582 -0.375
v -0.3125 0.104166642 -0.5
v -0.3125 -0.0208333582 -0.375
v -0.5 -0.0208333582 -0.375
v -0.5 -0.0208333582 -0.166666567
v -0.3125 -0.0208333582 -0.375
v -0.3125 -0.0208333582 -0.166666567
v -0.5 -0.0208333582 -0.375
v -0.5 0.104166642 -0.5
v -0.5 0.166666642 -0.5
v -0.5 0.166666642 -0.166666567
v -0.5 -0.0208333582 -0.166666567
v -0.3125 0.104166642 -0.499999851
v -0.3125 0.104166642 -0.166666567
v 0.3125 0.104166642 -0.166666567
v 0.3125 0.104166642 -0.499999851
v -0.3125 0.166666642 -0.499999851
v -0.3125 0.104166642 -0.499999851
v 0.3125 0.104166642 -0.499999851
v 0.3125 0.166666642 -0.499999851
v 0.3125 -0.0208333582 -0.375
v 0.3125 0.104166642 -0.5
v 0.3125 0.166666642 -0.5
v 0.3125 0.166666642 -0.166666567
v 0.3125 -0.0208333582 -0.166666567
v 0.5 0.166666642 -0.5
v 0.3125 0.166666642 -0.5
v 0.5 0.104166642 -0.5
v 0.3125 0.104166642 -0.5
v 0.5 0.104166642 -0.5
v 0.3125 0.104166642 -0.5
v 0.5 -0.0208333582 -0.375
v 0.3125 -0.0208333582 -0.375
v 0.5 -0.0208333582 -0.375
v 0.3125 -0.0208333582 -0.375
v 0.5 -0.0208333582 -0.166666567
v 0.3125 -0.0208333582 -0.166666567
v 0.5 -0.0208333582 -0.375
v 0.5 0.166666642 -0.5
v 0.5 0.104166642 -0.5
v 0.5 0.166666642 -0.166666567
v 0.5 -0.0208333582 -0.166666567
v -0.3125 -0.354166657 -0.0416668691
v -0.3125 -0.166666672 -0.166666865
v -0.3125 -0.229166672 -0.166666865
v -0.3125 -0.166666672 0.166666567
v -0.3125 -0.354166657 0.166666567
v -0.5 -0.166666672 -0.166666865
v -0.5 -0.229166672 -0.166666865
v -0.3125 -0.166666672 -0.166666865
v -0.3125 -0.229166672 -0.166666865
v -0.5 -0.229166672 -0.166666865
v -0.5 -0.354166657 -0.0416668691
v -0.3125 -0.229166672 -0.166666865
v -0.3125 -0.354166657 -0.0416668691
v -0.5 -0.354166657 -0.0416668691
v -0.5 -0.354166657 0.166666567
v -0.3125 -0.354166657 -0.0416668691
v -0.3125 -0.354166657 0.166666567
v -0.5 -0.354166657 -0.0416668691
v -0.5 -0.229166672 -0.166666865
v -0.5 -0.166666672 -0.166666865
v -0.5 -0.166666672 0.166666567
v -0.5 -0.354166657 0.166666567
v -0.3125 -0.229166672 -0.166666567
v -0.3125 -0.229166672 0.166666567
v 0.3125 -0.229166672 0.166666567
v 0.3125 -0.229166672 -0.166666567
v -0.3125 -0.166666672 -0.166666567
v -0.3125 -0.229166672 -0.166666567
v 0.3125 -0.229166672 -0.166666567
v 0.3125 -0.166666672 -0.166666567
v 0.3125 -0.354166657 -0.0416668691
v 0.3125 -0.229166672 -0.166666865
v 0.3125 -0.166666672 -0.166666865
v 0.3125 -0.166666672 0.166666567
v 0.3125 -0.354166657 0.166666567
v 0.5 -0.166666672 -0.166666865
v 0.3125 -0.166666672 -0.166666865
v 0.5 -0.229166672 -0.166666865
v 0.3125 -0.229166672 -0.166666865
v 0.5 -0.229166672 -0.166666865
v 0.3125 -0.229166672 -0.166666865
v 0.5 -0.354166657 -0.0416668691
v 0.3125 -0.354166657 -0.0416668691
v 0.5 -0.354166657 -0.0416668691
v 0.3125 -0.354166657 -0.0416668691
v 0.5 -0.354166657 0.166666567
v 0.3125 -0.354166657 0.166666567
v 0.5 -0.354166657 -0.0416668691
v 0.5 -0.166666672 -0.166666865
v 0.5 -0.229166672 -0.166666865
v 0.5 -0.166666672 0.166666567
v 0.5 -0.354166657 0.166666567
v 0.5 -0.5 0.5
v 0.5 -0.5 0.166666567
v -0.5 -0.5 0.166666567
v -0.5 -0.5 0.5
vt 0.954465389 0.0403189957
vt 0.954772234 0.0403046012
vt 0.954772234 0.0368914306
vt 0.955056429 0.0391812772
vt 0.957502246 0.0403333902
vt 0.956757903 0.0386124104
vt 0.955056429 0.0391812772
vt 0.95738852 0.0414711237
vt 0.957502246 0.0413573384
vt 0.95620656 0.0403333902
vt 0.954465389 0.0403189957
vt 0.956166983 0.0408878624
vt 0.956320405 0.0414711237
vt 0.956320405 0.0404471457
vt 0.955956042 0.0403046012
vt 0.955956042 0.0368914306
vt 0.954932094 0.0368914306
vt 0.954932094 0.0403046012
vt 0.95601356 0.0403046012
vt 0.956166983 0.0408878624
vt 0.956757903 0.0386124104
vt 0.95601356 0.0368914306
vt 0.753055274 0.365690231
vt 0.753055274 0.784753561
vt 0.772176981 0.784753561
vt 0.772176981 0.365690231
vt 0.957208812 0.0403046012
vt 0.95823276 0.0403046012
vt 0.95823276 0.0368914306
vt 0.957208812 0.0368914306
vt 0.955138385 0.0403333902
vt 0.954000592 0.0403333902
vt 0.954000592 0.0414711237
vt 0.9550246 0.0414711237
vt 0.955138385 0.041357398
vt 0.954772234 0.0414999127
vt 0.953748226 0.0414999127
vt 0.953748226 0.0426375866
vt 0.95488596 0.0426375866
vt 0.95488596 0.0416136384
vt 0.959415257 0.0403046012
vt 0.959415257 0.0368914306
vt 0.958391309 0.0368914306
vt 0.958391309 0.0403046012
vt 0.959472775 0.0403046012
vt 0.960610509 0.0403046012
vt 0.960610509 0.0368914306
vt 0.959472775 0.0368914306
vt 0.753055274 0.365690231
vt 0.753055274 0.784753561
vt 0.77217716 0.784753561
vt 0.77217716 0.365690231
vt 0.959910572 0.043746531
vt 0.96093452 0.043746531
vt 0.96093452 0.0403333902
vt 0.959910572 0.0403333902
vt 0.956068575 0.0414999127
vt 0.954930782 0.0414999127
vt 0.954930782 0.0426375866
vt 0.95595479 0.0426375866
vt 0.956068575 0.0425238609
vt 0.957149982 0.0414999127
vt 0.956126034 0.0414999127
vt 0.956126034 0.0426375866
vt 0.957263768 0.0426375866
vt 0.957263768 0.0416136384
vt 0.959866285 0.043746531
vt 0.959866285 0.0403333902
vt 0.958842278 0.0403333902
vt 0.958842278 0.043746531
vt 0.957546592 0.043746531
vt 0.958684325 0.043746531
vt 0.958684325 0.0403333902
vt 0.957546592 0.0403333902
vt 0.753055274 0.365690231
vt 0.753055274 0.784753561
vt 0.772177398 0.784753561
vt 0.772177398 0.365690231
vt 0.0628815368 0.661099613
vt 0.185143441 0.579591572
vt 0.144389302 0.579591453
vt 0.185143441 0.741738737
vt 0.0628812984 0.741738796
vt 0.0633748472 0.985895932
vt 0.0633748472 0.945383787
vt 0.184913427 0.985895932
vt 0.184912652 0.945383787
vt 0.0633748472 0.945383787
vt 0.0633748621 0.830799937
vt 0.184912652 0.945383787
vt 0.184910491 0.830796719
vt 0.0633748621 0.830799937
vt 0.0633748621 0.750638366
vt 0.184910491 0.830796719
vt 0.184908971 0.750637293
vt 0.0628815368 0.661099613
vt 0.144389302 0.579591453
vt 0.185143441 0.579591572
vt 0.185143441 0.741738737
vt 0.0628812984 0.741738796
vt 0.491269231 0.644673944
vt 0.491269231 0.709228218
vt 0.692225456 0.709228277
vt 0.692225456 0.644673944
vt 0.973430872 0.815431833
vt 0.996772885 0.815432072
vt 0.996772885 0.399479002
vt 0.973430872 0.399478793
vt 0.0628815368 0.661099613
vt 0.144389302 0.579591453
vt 0.185143441 0.579591572
vt 0.185143441 0.741738737
vt 0.0628812984 0.741738796
vt 0.0633748472 0.985895932
vt 0.184913427 0.985895932
vt 0.0633748472 0.945383787
vt 0.184912652 0.945383787
vt 0.0633748472 0.945383787
vt 0.184912652 0.945383787
vt 0.0633748621 0.830799937
vt 0.184910491 0.830796719
vt 0.0633748621 0.830799937
vt 0.184910491 0.830796719
vt 0.0633748621 0.750638366
vt 0.184908971 0.750637293
vt 0.0628815368 0.661099613
vt 0.185143441 0.579591572
vt 0.144389302 0.579591453
vt 0.185143441 0.741738737
vt 0.0628812984 0.741738796
vt 0.0628815368 0.661099613
vt 0.185143441 0.579591572
vt 0.144389302 0.579591453
vt 0.185143441 0.741738737
vt 0.0628812984 0.741738796
vt 0.0633748472 0.985895932
vt 0.0633748472 0.945383787
vt 0.184913427 0.985895932
vt 0.184912652 0.945383787
vt 0.0633748472 0.945383787
vt 0.0633748621 0.830799937
vt 0.184912652 0.945383787
vt 0.184910491 0.830796719
vt 0.0633748621 0.830799937
vt 0.0633748621 0.750638366
vt 0.184910491 0.830796719
vt 0.184908971 0.750637293
vt 0.0628815368 0.661099613
vt 0.144389302 0.579591453
vt 0.185143441 0.579591572
vt 0.185143441 0.741738737
vt 0.0628812984 0.741738796
vt 0.491269231 0.644673944
vt 0.491269231 0.709228218
vt 0.692225456 0.709228277
vt 0.692225456 0.644673944
vt 0.973430872 0.815431833
vt 0.996772885 0.815432072
vt 0.996772885 0.399479002
vt 0.973430872 0.399478793
vt 0.0628815368 0.661099613
vt 0.144389302 0.579591453
vt 0.185143441 0.579591572
vt 0.185143441 0.741738737
vt 0.0628812984 0.741738796
vt 0.0633748472 0.985895932
vt 0.184913427 0.985895932
vt 0.0633748472 0.945383787
vt 0.184912652 0.945383787
vt 0.0633748472 0.945383787
vt 0.184912652 0.945383787
vt 0.0633748621 0.830799937
vt 0.184910491 0.830796719
vt 0.0633748621 0.830799937
vt 0.184910491 0.830796719
vt 0.0633748621 0.750638366
vt 0.184908971 0.750637293
vt 0.0628815368 0.661099613
vt 0.185143441 0.579591572
vt 0.144389302 0.579591453
vt 0.185143441 0.741738737
vt 0.0628812984 0.741738796
vt 0.955056429 0.0391812772
vt 0.956757903 0.0386124104
vt 0.956166983 0.0408878624
vt 0.954465389 0.0403189957
vn -0 0 1
vn -0 0 1
vn -0 0 1
vn -0 0 1
vn 1 0 0
vn 1 0 0
vn 1 0 0
vn 1 0 0
vn 1 0 0
vn -1 0 0
vn -1 0 0
vn -1 0 0
vn -1 0 0
vn -1 0 0
vn -0 1 0
vn -0 1 0
vn -0 1 0
vn -0 1 0
vn -0 0 -1
vn -0 0 -1
vn -0 0 -1
vn -0 0 -1
vn -0 0.707107544 0.707105935
vn -0 0.707107544 0.707105935
vn -0 0.707107544 0.707105935
vn -0 0.707107544 0.707105935
vn -0 0 1
vn -0 0 1
vn -0 0 1
vn -0 0 1
vn 1 0 0
vn 1 0 0
vn 1 0 0
vn 1 0 0
vn 1 0 0
vn -1 0 0
vn -1 0 0
vn -1 0 0
vn -1 0 0
vn -1 0 0
vn -0 1 0
vn -0 1 0
vn -0 1 0
vn -0 1 0
vn -0 0 -1
vn -0 0 -1
vn -0 0 -1
vn -0 0 -1
vn -0 0.707107663 0.707105875
vn -0 0.707107663 0.707105875
vn -0 0.707107663 0.707105875
vn -0 0.707107663 0.707105875
vn -0 0 1
vn -0 0 1
vn -0 0 1
vn -0 0 1
vn 1 0 0
vn 1 0 0
vn 1 0 0
vn 1 0 0
vn 1 0 0
vn -1 0 0
vn -1 0 0
vn -1 0 0
vn -1 0 0
vn -1 0 0
vn -0 1 0
vn -0 1 0
vn -0 1 0
vn -0 1 0
vn -0 0 -1
vn -0 0 -1
vn -0 0 -1
vn -0 0 -1
vn -0 0.707107782 0.707105696
vn -0 0.707107782 0.707105696
vn -0 0.707107782 0.707105696
vn -0 0.707107782 0.707105696
vn 1 5.83679309E-07 0
vn 1 7.26888004E-07 0
vn 1 0 0
vn 1 4.55620579E-07 0
vn 1 0 0
vn -0 0 -1
vn -0 0 -1
vn -0 0 -1
vn -0 0 -1
vn -0 -0.707106769 -0.707106769
vn -0 -0.707106769 -0.707106769
vn -0 -0.707106769 -0.707106769
vn -0 -0.707106769 -0.707106769
vn -0 -1 0
vn -0 -1 0
vn -0 -1 0
vn -0 -1 0
vn -1 0 0
vn -1 0 0
vn -1 0 0
vn -1 0 0
vn -1 0 0
vn -0 -1 0
vn -0 -1 0
vn -0 -1 0
vn -0 -1 0
vn -0 0 -1
vn -0 0 -1
vn -0 0 -1
vn -0 0 -1
vn -1 -2.91839655E-07 0
vn -1 0 0
vn -1 -3.63444002E-07 0
vn -1 -2.2781029E-07 0
vn -1 0 0
vn -0 0 -1
vn -0 0 -1
vn -0 0 -1
vn -0 0 -1
vn -0 -0.707106769 -0.707106769
vn -0 -0.707106769 -0.707106769
vn -0 -0.707106769 -0.707106769
vn -0 -0.707106769 -0.707106769
vn -0 -1 0
vn -0 -1 0
vn -0 -1 0
vn -0 -1 0
vn 1 0 0
vn 1 0 0
vn 1 0 0
vn 1 0 0
vn 1 0 0
vn 1 5.83678741E-07 0
vn 1 7.26887322E-07 0
vn 1 0 0
vn 1 4.55620182E-07 0
vn 1 0 0
vn -0 0 -1
vn -0 0 -1
vn -0 0 -1
vn -0 0 -1
vn -0 -0.707106888 -0.70710665
vn -0 -0.707106829 -0.70710665
vn -0 -0.707106829 -0.70710665
vn -0 -0.707106769 -0.707106769
vn -0 -1 0
vn -0 -1 0
vn -0 -1 0
vn -0 -1 0
vn -1 0 0
vn -1 0 0
vn -1 0 0
vn -1 0 0
vn -1 0 0
vn -0 -1 0
vn -0 -1 0
vn -0 -1 0
vn -0 -1 0
vn -0 0 -1
vn -0 0 -1
vn -0 0 -1
vn -0 0 -1
vn -1 -2.9183937E-07 0
vn -1 0 0
vn -1 -3.63443661E-07 0
vn -1 -2.27810091E-07 0
vn -1 0 0
vn -0 0 -1
vn -0 0 -1
vn -0 0 -1
vn -0 0 -1
vn -0 -0.707106888 -0.70710665
vn -0 -0.707106829 -0.70710665
vn -0 -0.707106829 -0.70710665
vn -0 -0.707106769 -0.707106769
vn -0 -1 0
vn -0 -1 0
vn -0 -1 0
vn -0 -1 0
vn 1 0 0
vn 1 0 0
vn 1 0 0
vn 1 0 0
vn 1 0 0
vn -0 -1 0
vn -0 -1 0
vn -0 -1 0
vn -0 -1 0
g AshlarFloatingStairs_0
f 3/3/3 2/2/2 1/1/1
f 4/4/4 3/3/3 1/1/1
f 7/7/7 6/6/6 5/5/5
f 5/5/5 8/8/8 7/7/7
f 5/5/5 9/9/9 8/8/8
f 12/12/12 11/11/11 10/10/10
f 10/10/10 13/13/13 12/12/12
f 10/10/10 14/14/14 13/13/13
f 17/17/17 16/16/16 15/15/15
f 18/18/18 17/17/17 15/15/15
f 21/21/21 20/20/20 19/19/19
f 22/22/22 21/21/21 19/19/19
f 25/25/25 24/24/24 23/23/23
f 26/26/26 25/25/25 23/23/23
f 29/29/29 28/28/28 27/27/27
f 30/30/30 29/29/29 27/27/27
f 33/33/33 32/32/32 31/31/31
f 31/31/31 34/34/34 33/33/33
f 31/31/31 35/35/35 34/34/34
f 38/38/38 37/37/37 36/36/36
f 36/36/36 39/39/39 38/38/38
f 36/36/36 40/40/40 39/39/39
f 43/43/43 42/42/42 41/41/41
f 44/44/44 43/43/43 41/41/41
f 47/47/47 46/46/46 45/45/45
f 48/48/48 47/47/47 45/45/45
f 51/51/51 50/50/50 49/49/49
f 52/52/52 51/51/51 49/49/49
f 55/55/55 54/54/54 53/53/53
f 56/56/56 55/55/55 53/53/53
f 59/59/59 58/58/58 57/57/57
f 57/57/57 60/60/60 59/59/59
f 57/57/57 61/61/61 60/60/60
f 64/64/64 63/63/63 62/62/62
f 62/62/62 65/65/65 64/64/64
f 62/62/62 66/66/66 65/65/65
f 69/69/69 68/68/68 67/67/67
f 70/70/70 69/69/69 67/67/67
f 73/73/73 72/72/72 71/71/71
f 74/74/74 73/73/73 71/71/71
f 77/77/77 76/76/76 75/75/75
f 78/78/78 77/77/77 75/75/75
f 81/81/81 80/80/80 79/79/79
f 80/80/80 82/82/82 79/79/79
f 79/79/79 82/82/82 83/83/83
f 86/86/86 85/85/85 84/84/84
f 87/87/87 85/85/85 86/86/86
f 90/90/90 89/89/89 88/88/88
f 91/91/91 89/89/89 90/90/90
f 94/94/94 93/93/93 92/92/92
f 95/95/95 93/93/93 94/94/94
f 98/98/98 97/97/97 96/96/96
f 99/99/99 98/98/98 96/96/96
f 99/99/99 96/96/96 100/100/100
f 103/103/103 102/102/102 101/101/101
f 104/104/104 103/103/103 101/101/101
f 107/107/107 106/106/106 105/105/105
f 108/108/108 107/107/107 105/105/105
f 111/111/111 110/110/110 109/109/109
f 112/112/112 111/111/111 109/109/109
f 112/112/112 109/109/109 113/113/113
f 116/116/116 115/115/115 114/114/114
f 116/116/116 117/117/117 115/115/115
f 120/120/120 119/119/119 118/118/118
f 120/120/120 121/121/121 119/119/119
f 124/124/124 123/123/123 122/122/122
f 124/124/124 125/125/125 123/123/123
f 128/128/128 127/127/127 126/126/126
f 127/127/127 129/129/129 126/126/126
f 126/126/126 129/129/129 130/130/130
f 133/133/133 132/132/132 131/131/131
f 132/132/132 134/134/134 131/131/131
f 131/131/131 134/134/134 135/135/135
f 138/138/138 137/137/137 136/136/136
f 139/139/139 137/137/137 138/138/138
f 142/142/142 141/141/141 140/140/140
f 143/143/143 141/141/141 142/142/142
f 146/146/146 145/145/145 144/144/144
f 147/147/147 145/145/145 146/146/146
f 150/150/150 149/149/149 148/148/148
f 151/151/151 150/150/150 148/148/148
f 151/151/151 148/148/148 152/152/152
f 155/155/155 154/154/154 153/153/153
f 156/156/156 155/155/155 153/153/153
f 159/159/159 158/158/158 157/157/157
f 160/160/160 159/159/159 157/157/157
f 163/163/163 162/162/162 161/161/161
f 164/164/164 163/163/163 161/161/161
f 164/164/164 161/161/161 165/165/165
f 168/168/168 167/167/167 166/166/166
f 168/168/168 169/169/169 167/167/167
f 172/172/172 171/171/171 170/170/170
f 172/172/172 173/173/173 171/171/171
f 176/176/176 175/175/175 174/174/174
f 176/176/176 177/177/177 175/175/175
f 180/180/180 179/179/179 178/178/178
f 179/179/179 181/181/181 178/178/178
f 178/178/178 181/181/181 182/182/182
f 185/185/185 184/184/184 183/183/183
f 186/186/186 185/185/185 183/183/183
