g AshlarFloatingStairs_Corner_EmptyBottom
v -0.5 0.5 -0.5
v -0.199996337 0.5 -0.5
v -0.199996337 0.499999911 -0.199996337
v -0.3125 0.10416656 -0.3125
v -0.166666254 0.10416656 -0.166666254
v -0.166666254 0.10416656 -0.3125
v -0.5 0.5 -0.5
v -0.199996337 0.499999911 -0.199996337
v -0.5 0.5 -0.199996337
v -0.3125 0.10416656 -0.3125
v -0.3125 0.10416656 -0.166666254
v -0.166666254 0.10416656 -0.166666254
v 0.5 -0.5 -0.5
v 0.5 -0.5 0.5
v 0.5 -0.199997246 0.5
v 0.5 -0.199996635 -0.5
v 0.166666254 -0.5 -0.5
v 0.5 -0.5 -0.5
v 0.5 -0.199996635 -0.5
v 0.466669917 -0.166666716 -0.5
v 0.166666254 -0.166666716 -0.5
v 0.166666254 -0.166666716 -0.5
v 0.466669917 -0.166666716 -0.5
v 0.466669291 -0.166666716 0.466669291
v 0.166665643 -0.166666716 0.166666254
v 0.166666254 -0.166666716 -0.5
v 0.166665643 -0.166666716 0.166666254
v 0.166666254 -0.5 0.166666865
v 0.166666254 -0.5 -0.5
v 0.5 -0.199997246 0.5
v 0.466669291 -0.166666716 0.466669291
v 0.466669917 -0.166666716 -0.5
v 0.5 -0.199996635 -0.5
v 0.166666254 -0.166666716 -0.5
v 0.166665643 -0.166666716 0.166666254
v 0.166666254 0.133336633 0.166666254
v 0.166666254 0.133336633 -0.5
v -0.166666865 -0.166666716 -0.5
v 0.166666254 -0.166666716 -0.5
v 0.166666254 0.133336633 -0.5
v 0.133336172 0.166666567 -0.5
v -0.166666254 0.166666567 -0.5
v -0.166666254 0.166666567 -0.5
v 0.133336172 0.166666567 -0.5
v 0.133335575 0.166666567 0.133335575
v -0.166666254 0.166666567 -0.166667476
v -0.166666254 0.166666567 -0.5
v -0.166666254 0.166666567 -0.166667476
v -0.166666865 -0.166666716 -0.166667476
v -0.166666865 -0.166666716 -0.5
v -0.166666254 0.166666567 -0.5
v -0.166666254 0.166666567 -0.166667476
v -0.166666254 0.466669917 -0.166666254
v -0.166666254 0.466669917 -0.5
v -0.5 0.166666567 -0.5
v -0.166666254 0.166666567 -0.5
v -0.166666254 0.466669917 -0.5
v -0.199996337 0.5 -0.5
v -0.5 0.5 -0.5
v -0.166666254 -0.0208334345 -0.3125
v -0.312499374 -0.0208334345 -0.312499374
v -0.3125 0.0354171731 -0.3125
v -0.166666254 0.166666567 -0.3125
v -0.3125 0.166666567 -0.3125
v -0.5 0.10416656 -0.5
v -0.424999982 0.0291664116 -0.424999982
v -0.375 -0.0208334345 -0.5
v -0.375 -0.0208334345 -0.375
v -0.375 -0.0208334345 -0.5
v -0.375 -0.0208334345 -0.375
v -0.342105091 -0.0208334345 -0.342105091
v -0.166666254 -0.0208334345 -0.5
v -0.166666254 -0.0208334345 -0.3125
v -0.312499374 -0.0208334345 -0.312499374
v -0.375 -0.0208334345 -0.5
v -0.5 0.166666567 -0.5
v -0.5 0.10416656 -0.5
v -0.166666254 0.166666567 -0.5
v -0.166666254 -0.0208334345 -0.5
v -0.0416668691 -0.354166716 -0.3125
v -0.166666254 -0.229166716 -0.3125
v -0.166666254 -0.166666716 -0.3125
v 0.166666254 -0.166666716 -0.3125
v 0.166666254 -0.354166716 -0.3125
v -0.166666865 -0.166666716 -0.5
v -0.166666254 -0.166666716 -0.3125
v -0.166666865 -0.229166716 -0.5
v -0.166666254 -0.229166716 -0.3125
v -0.166666865 -0.229166716 -0.5
v -0.166666254 -0.229166716 -0.3125
v -0.0416668691 -0.354166716 -0.5
v -0.0416668691 -0.354166716 -0.3125
v -0.0416668691 -0.354166716 -0.5
v -0.0416668691 -0.354166716 -0.3125
v 0.166666254 -0.354166716 -0.5
v 0.166666254 -0.354166716 -0.3125
v -0.0416668691 -0.354166716 -0.5
v -0.166666865 -0.166666716 -0.5
v -0.166666865 -0.229166716 -0.5
v 0.166666254 -0.166666716 -0.5
v 0.166666254 -0.354166716 -0.5
v -0.166666254 -0.229166716 -0.3125
v -0.166666254 -0.229166716 -0.166666254
v 0.166666254 -0.229166716 0.166666254
v 0.166666254 -0.229166716 -0.3125
v -0.166666254 -0.166666716 -0.3125
v -0.166666865 -0.166666716 -0.166667476
v -0.166666254 -0.229166716 -0.166666254
v -0.166666254 -0.229166716 -0.3125
v 0.166666254 0.133336633 0.166666254
v 0.133335575 0.166666567 0.133335575
v 0.133336172 0.166666567 -0.5
v 0.166666254 0.133336633 -0.5
v -0.166666254 0.466669917 -0.166666254
v -0.199996337 0.499999911 -0.199996337
v -0.199996337 0.5 -0.5
v -0.166666254 0.466669917 -0.5
v -0.5 -0.5 0.5
v -0.5 -0.199996635 0.5
v 0.5 -0.199997246 0.5
v 0.5 -0.5 0.5
v -0.5 -0.199996635 0.5
v -0.5 -0.5 0.5
v -0.5 -0.5 0.166666254
v -0.5 -0.166666716 0.166666865
v -0.5 -0.166666716 0.466669917
v -0.5 -0.166666716 0.166666865
v 0.166665643 -0.166666716 0.166666254
v 0.466669291 -0.166666716 0.466669291
v -0.5 -0.166666716 0.466669917
v -0.5 -0.166666716 0.166666865
v -0.5 -0.5 0.166666254
v 0.166666254 -0.5 0.166666865
v 0.166665643 -0.166666716 0.166666254
v 0.5 -0.199997246 0.5
v -0.5 -0.199996635 0.5
v -0.5 -0.166666716 0.466669917
v 0.466669291 -0.166666716 0.466669291
v -0.5 -0.166666716 0.166666865
v -0.5 0.133336633 0.166666254
v 0.166666254 0.133336633 0.166666254
v 0.166665643 -0.166666716 0.166666254
v -0.5 0.133336633 0.166666254
v -0.5 -0.166666716 0.166666865
v -0.5 -0.166666716 -0.166666865
v -0.5 0.166666567 -0.166666254
v -0.5 0.166666567 0.133336172
v -0.5 0.166666567 -0.166666254
v -0.166666254 0.166666567 -0.166667476
v 0.133335575 0.166666567 0.133335575
v -0.5 0.166666567 0.133336172
v -0.5 0.166666567 -0.166666254
v -0.5 -0.166666716 -0.166666865
v -0.166666865 -0.166666716 -0.166667476
v -0.166666254 0.166666567 -0.166667476
v -0.5 0.166666567 -0.166666254
v -0.5 0.466669917 -0.166666254
v -0.166666254 0.466669917 -0.166666254
v -0.166666254 0.166666567 -0.166667476
v -0.5 0.466669917 -0.166666254
v -0.5 0.166666567 -0.166666254
v -0.5 0.166666567 -0.5
v -0.5 0.5 -0.5
v -0.5 0.5 -0.199996337
v -0.3125 -0.0208334345 -0.166666254
v -0.3125 0.0354171731 -0.3125
v -0.312499374 -0.0208334345 -0.312499374
v -0.3125 0.166666567 -0.166666254
v -0.3125 0.166666567 -0.3125
v -0.5 0.10416656 -0.5
v -0.5 -0.0208334345 -0.375
v -0.424999982 0.0291664116 -0.424999982
v -0.375 -0.0208334345 -0.375
v -0.5 -0.0208334345 -0.375
v -0.342105091 -0.0208334345 -0.342105091
v -0.375 -0.0208334345 -0.375
v -0.5 -0.0208334345 -0.166666254
v -0.3125 -0.0208334345 -0.166666254
v -0.312499374 -0.0208334345 -0.312499374
v -0.5 -0.0208334345 -0.375
v -0.5 0.10416656 -0.5
v -0.5 0.166666567 -0.5
v -0.5 0.166666567 -0.166666254
v -0.5 -0.0208334345 -0.166666254
v -0.3125 -0.354166716 -0.0416668691
v -0.3125 -0.166666716 -0.166666254
v -0.3125 -0.229166716 -0.166666254
v -0.3125 -0.166666716 0.166666254
v -0.3125 -0.354166716 0.166666254
v -0.5 -0.166666716 -0.166666865
v -0.5 -0.229166716 -0.166666865
v -0.3125 -0.166666716 -0.166666254
v -0.3125 -0.229166716 -0.166666254
v -0.5 -0.229166716 -0.166666865
v -0.5 -0.354166716 -0.0416668691
v -0.3125 -0.229166716 -0.166666254
v -0.3125 -0.354166716 -0.0416668691
v -0.5 -0.354166716 -0.0416668691
v -0.5 -0.354166716 0.166666254
v -0.3125 -0.354166716 -0.0416668691
v -0.3125 -0.354166716 0.166666254
v -0.5 -0.354166716 -0.0416668691
v -0.5 -0.229166716 -0.166666865
v -0.5 -0.166666716 -0.166666865
v -0.5 -0.166666716 0.166666865
v -0.5 -0.354166716 0.166666254
v -0.3125 -0.229166716 -0.166666254
v -0.3125 -0.229166716 0.166666254
v 0.166666254 -0.229166716 0.166666254
v -0.166666254 -0.229166716 -0.166666254
v -0.3125 -0.166666716 -0.166666254
v -0.3125 -0.229166716 -0.166666254
v -0.166666254 -0.229166716 -0.166666254
v -0.166666865 -0.166666716 -0.166667476
v 0.166666254 0.133336633 0.166666254
v -0.5 0.133336633 0.166666254
v -0.5 0.166666567 0.133336172
v 0.133335575 0.166666567 0.133335575
v -0.166666254 0.466669917 -0.166666254
v -0.5 0.466669917 -0.166666254
v -0.5 0.5 -0.199996337
v -0.199996337 0.499999911 -0.199996337
v 0.166666254 -0.5 0.166666865
v 0.5 -0.5 0.5
v 0.5 -0.5 -0.5
v 0.166666254 -0.5 -0.5
v 0.5 -0.5 0.5
v 0.166666254 -0.5 0.166666865
v -0.5 -0.5 0.166666254
v -0.5 -0.5 0.5
vt 0.959866285 0.043746531
vt 0.958842278 0.043746531
vt 0.958842278 0.0427225754
vt 0.491269231 0.680985808
vt 0.538158894 0.709228218
vt 0.491269231 0.709228218
vt 0.959866285 0.043746531
vt 0.958842278 0.0427225754
vt 0.958842278 0.043746531
vt 0.491269231 0.680985808
vt 0.491269231 0.709228218
vt 0.538158894 0.709228218
vt 0.953748226 0.0403046012
vt 0.953748226 0.0368914306
vt 0.954772234 0.0368914306
vt 0.954772234 0.0403046012
vt 0.955182612 0.0414711237
vt 0.955182612 0.0403333902
vt 0.95620656 0.0403333902
vt 0.956320405 0.0404471457
vt 0.956320405 0.0414711237
vt 0.955956042 0.0403046012
vt 0.954932094 0.0403046012
vt 0.954932094 0.0370051935
vt 0.955955982 0.0380291566
vt 0.95601356 0.0403046012
vt 0.95601356 0.0380291566
vt 0.957151294 0.0380291566
vt 0.957151294 0.0403046012
vt 0.753054976 0.365690231
vt 0.772176981 0.379658014
vt 0.772176981 0.784753561
vt 0.753055274 0.784753561
vt 0.957208812 0.0403046012
vt 0.957208753 0.0380291566
vt 0.95823276 0.0380291529
vt 0.95823276 0.0403046012
vt 0.953748226 0.0426375866
vt 0.953748226 0.0414999127
vt 0.954772234 0.0414999127
vt 0.95488596 0.0416136384
vt 0.95488596 0.0426375866
vt 0.959415257 0.0403046012
vt 0.958391309 0.0403046012
vt 0.958391309 0.0381429195
vt 0.959415257 0.0391668826
vt 0.959472775 0.0403046012
vt 0.959472835 0.0391668826
vt 0.960610509 0.0391668826
vt 0.960610509 0.0403046012
vt 0.959910572 0.043746531
vt 0.959910572 0.0426088162
vt 0.96093452 0.0426088199
vt 0.96093452 0.043746531
vt 0.956126034 0.0426375866
vt 0.956126034 0.0414999127
vt 0.957149982 0.0414999127
vt 0.957263768 0.0416136384
vt 0.957263768 0.0426375866
vt 0.0628812984 0.741738796
vt 0.0628814623 0.685291767
vt 0.0995604694 0.685291588
vt 0.185143441 0.741738737
vt 0.185143441 0.670799613
vt 0.0633745715 0.945383787
vt 0.111989826 0.876633346
vt 0.0633748621 0.830799937
vt 0.144398347 0.830797791
vt 0.0633748621 0.830799937
vt 0.144398347 0.830797791
vt 0.165720657 0.818140149
vt 0.0633748621 0.750638366
vt 0.184908971 0.750637293
vt 0.184910029 0.806748509
vt 0.0628815368 0.661099613
vt 0.185143441 0.579591572
vt 0.144389302 0.579591453
vt 0.185143441 0.741738737
vt 0.0628812984 0.741738796
vt 0.0628815368 0.661099613
vt 0.144389302 0.579591453
vt 0.185143441 0.579591572
vt 0.185143441 0.741738737
vt 0.0628812984 0.741738796
vt 0.0633748472 0.985895932
vt 0.184913427 0.985895932
vt 0.0633748472 0.945383787
vt 0.184912652 0.945383787
vt 0.0633748472 0.945383787
vt 0.184912652 0.945383787
vt 0.0633748621 0.830799937
vt 0.184910491 0.830796719
vt 0.0633748621 0.830799937
vt 0.184910491 0.830796719
vt 0.0633748621 0.750638366
vt 0.184908971 0.750637293
vt 0.0628815368 0.661099613
vt 0.185143441 0.579591572
vt 0.144389302 0.579591453
vt 0.185143441 0.741738737
vt 0.0628812984 0.741738796
vt 0.491269231 0.644673944
vt 0.538158894 0.644673944
vt 0.645335436 0.709228277
vt 0.491269231 0.709228218
vt 0.973430872 0.815431833
vt 0.973430872 0.718376338
vt 0.996772885 0.718376517
vt 0.996772885 0.815432072
vt 0.753055274 0.505378127
vt 0.77217716 0.519345939
vt 0.77217716 0.784753561
vt 0.753055274 0.784753561
vt 0.753055334 0.645065725
vt 0.772177458 0.659033179
vt 0.772177398 0.784753561
vt 0.753055274 0.784753561
vt 0.953748226 0.0403046012
vt 0.954772234 0.0403046012
vt 0.954772234 0.0368914306
vt 0.953748226 0.0368914306
vt 0.95620656 0.0403333902
vt 0.955182612 0.0403333902
vt 0.955182612 0.0414711237
vt 0.956320405 0.0414711237
vt 0.956320405 0.0404471457
vt 0.955956042 0.0403046012
vt 0.955955982 0.0380291566
vt 0.954932094 0.0370051935
vt 0.954932094 0.0403046012
vt 0.95601356 0.0403046012
vt 0.957151294 0.0403046012
vt 0.957151294 0.0380291566
vt 0.95601356 0.0380291566
vt 0.753054976 0.365690231
vt 0.753055274 0.784753561
vt 0.772176981 0.784753561
vt 0.772176981 0.379658014
vt 0.957208812 0.0403046012
vt 0.95823276 0.0403046012
vt 0.95823276 0.0380291529
vt 0.957208753 0.0380291566
vt 0.954772234 0.0414999127
vt 0.953748226 0.0414999127
vt 0.953748226 0.0426375866
vt 0.95488596 0.0426375866
vt 0.95488596 0.0416136384
vt 0.959415257 0.0403046012
vt 0.959415257 0.0391668826
vt 0.958391309 0.0381429195
vt 0.958391309 0.0403046012
vt 0.959472775 0.0403046012
vt 0.960610509 0.0403046012
vt 0.960610509 0.0391668826
vt 0.959472835 0.0391668826
vt 0.959910572 0.043746531
vt 0.96093452 0.043746531
vt 0.96093452 0.0426088199
vt 0.959910572 0.0426088162
vt 0.957149982 0.0414999127
vt 0.956126034 0.0414999127
vt 0.956126034 0.0426375866
vt 0.957263768 0.0426375866
vt 0.957263768 0.0416136384
vt 0.0628812984 0.741738796
vt 0.0995604694 0.685291588
vt 0.0628814623 0.685291767
vt 0.185143441 0.741738737
vt 0.185143441 0.670799613
vt 0.0633745715 0.945383787
vt 0.0633748621 0.830799937
vt 0.111989826 0.876633346
vt 0.144398347 0.830797791
vt 0.0633748621 0.830799937
vt 0.165720657 0.818140149
vt 0.144398347 0.830797791
vt 0.0633748621 0.750638366
vt 0.184908971 0.750637293
vt 0.184910029 0.806748509
vt 0.0628815368 0.661099613
vt 0.144389302 0.579591453
vt 0.185143441 0.579591572
vt 0.185143441 0.741738737
vt 0.0628812984 0.741738796
vt 0.0628815368 0.661099613
vt 0.185143441 0.579591572
vt 0.144389302 0.579591453
vt 0.185143441 0.741738737
vt 0.0628812984 0.741738796
vt 0.0633748472 0.985895932
vt 0.0633748472 0.945383787
vt 0.184913427 0.985895932
vt 0.184912652 0.945383787
vt 0.0633748472 0.945383787
vt 0.0633748621 0.830799937
vt 0.184912652 0.945383787
vt 0.184910491 0.830796719
vt 0.0633748621 0.830799937
vt 0.0633748621 0.750638366
vt 0.184910491 0.830796719
vt 0.184908971 0.750637293
vt 0.0628815368 0.661099613
vt 0.144389302 0.579591453
vt 0.185143441 0.579591572
vt 0.185143441 0.741738737
vt 0.0628812984 0.741738796
vt 0.491269231 0.644673944
vt 0.491269231 0.709228218
vt 0.645335436 0.709228277
vt 0.538158894 0.644673944
vt 0.973430872 0.815431833
vt 0.996772885 0.815432072
vt 0.996772885 0.718376517
vt 0.973430872 0.718376338
vt 0.753055274 0.505378127
vt 0.753055274 0.784753561
vt 0.77217716 0.784753561
vt 0.77217716 0.519345939
vt 0.753055334 0.645065725
vt 0.753055274 0.784753561
vt 0.772177398 0.784753561
vt 0.772177458 0.659033179
vt 0.954859436 0.0394657068
vt 0.956757903 0.0386124104
vt 0.956166983 0.0408878624
vt 0.954465389 0.0403189957
vt 0.955056429 0.0391812772
vt 0.956560969 0.0394657068
vt 0.956166983 0.0408878624
vt 0.954465389 0.0403189957
vn 1.27155104E-07 1 1.35630458E-07
vn -0 1 2.71261484E-07
vn 1.27155104E-07 1 1.35630458E-07
vn -0 -1 0
vn -0 -1 0
vn -0 -1 0
vn 1.27155104E-07 1 1.35630458E-07
vn 1.27155104E-07 1 1.35630458E-07
vn 2.5430964E-07 1 0
vn -0 -1 0
vn -0 -1 0
vn -0 -1 0
vn 1 0 0
vn 1 0 0
vn 1 0 0
vn 1 0 0
vn 1.76664207E-06 0 -1
vn 1.76664207E-06 0 -1
vn 1.76664207E-06 0 -1
vn 1.76664207E-06 0 -1
vn 1.76664207E-06 0 -1
vn -0 1 0
vn -0 1 0
vn -0 1 0
vn -0 1 0
vn -1 0 -4.57763917E-07
vn -1 0 -4.57763917E-07
vn -1 0 -4.57763974E-07
vn -1 0 -4.57763917E-07
vn 0.707108259 0.707105219 4.36196416E-07
vn 0.707108319 0.707105219 4.36196416E-07
vn 0.707108378 0.70710516 4.36196444E-07
vn 0.707108378 0.70710516 4.36196444E-07
vn 1 0 4.57764315E-07
vn 1 0 4.57764315E-07
vn 1 0 4.57764315E-07
vn 1 0 4.57764315E-07
vn 1.48447839E-06 0 -1
vn 1.44084856E-06 0 -1
vn 1.76664707E-06 0 -1
vn 1.76664707E-06 0 -1
vn 1.76664685E-06 0 -1
vn -0 1 0
vn -0 1 0
vn -0 1 0
vn -0 1 0
vn -1 1.7578152E-06 0
vn -1 1.7578152E-06 0
vn -1 1.7578152E-06 0
vn -1 1.7578152E-06 0
vn 1 0 0
vn 1 0 0
vn 1 0 0
vn 1 0 0
vn -0 0 -1
vn -0 0 -1
vn -0 0 -1
vn -0 0 -1
vn -0 0 -1
vn -0 2.50402377E-06 1
vn -0 2.50402377E-06 1
vn -0 2.09388213E-06 1
vn -0 1.70240094E-06 1
vn -0 0 1
vn -0.707106769 -0.707106769 -1.43861234E-06
vn -0.707105756 -0.707107723 -9.23843288E-07
vn -0.707105696 -0.707107842 -8.88851105E-07
vn -0.707103908 -0.707109571 0
vn -0 -1 0
vn -0 -1 0
vn -0 -1 0
vn -0 -1 0
vn -0 -1 0
vn -0 -1 0
vn -0 0 -1
vn -0 0 -1
vn -0 0 -1
vn -0 0 -1
vn -0 0 -1
vn -0 0 1
vn -0 0 1
vn -0 0 1
vn -0 0 1
vn -0 0 1
vn -1 0 3.25520864E-06
vn -1 0 3.25520841E-06
vn -1 0 3.25520841E-06
vn -1 0 3.25520864E-06
vn -0.707106769 -0.707106769 2.42453962E-06
vn -0.707108259 -0.707105219 1.16684873E-06
vn -0.7071082 -0.707105279 1.25769782E-06
vn -0.707109749 -0.707103789 0
vn -0 -1 0
vn -0 -1 0
vn -0 -1 0
vn -0 -1 0
vn -0 0 -1
vn 1.48447839E-06 0 -1
vn -0 0 -1
vn 1.44084856E-06 0 -1
vn -0 0 -1
vn -0 -1 0
vn -0 -1 0
vn -0 -1 0
vn -0 -1 0
vn -1 0 -2.09264135E-06
vn -1 0 -2.09264135E-06
vn -1 0 -2.09264135E-06
vn -1 0 -2.09264135E-06
vn 0.707105696 0.707107782 3.36170473E-07
vn 0.707105756 0.707107723 3.36170444E-07
vn 0.707105696 0.707107782 3.36170416E-07
vn 0.707105815 0.707107723 3.36170444E-07
vn 0.707105935 0.707107544 1.02226664E-07
vn 0.707105935 0.707107604 1.02226664E-07
vn 0.707105875 0.707107663 1.02226672E-07
vn 0.707105935 0.707107544 1.02226657E-07
vn -0 0 1
vn -0 0 1
vn -0 0 1
vn -0 0 1
vn -1 -5.52075278E-07 0
vn -1 -5.52075335E-07 0
vn -1 -5.52075221E-07 0
vn -1 -5.52075335E-07 0
vn -1 -5.52075278E-07 0
vn -0 1 0
vn -0 1 0
vn -0 1 0
vn -0 1 0
vn -0 0 -1
vn -0 0 -1
vn -0 0 -1
vn -0 0 -1
vn 5.26725501E-07 0.707108617 0.707104921
vn 5.26725501E-07 0.707108617 0.707104921
vn 5.26725501E-07 0.707108617 0.707104921
vn 5.26725387E-07 0.707108557 0.707104981
vn -0 1.01723981E-06 1
vn -0 1.01723981E-06 1
vn -0 1.01723981E-06 1
vn -0 1.01723981E-06 1
vn -1 1.21457219E-06 0
vn -1 9.90585249E-07 0
vn -1 1.02058004E-06 0
vn -1 1.21457208E-06 0
vn -1 1.21457219E-06 0
vn -0 1 0
vn -0 1 0
vn -0 1 0
vn -0 1 0
vn -3.51562448E-06 9.155317E-07 -1
vn -3.51562448E-06 9.155317E-07 -1
vn -3.51562426E-06 9.15531643E-07 -1
vn -3.51562448E-06 9.15531643E-07 -1
vn 1.95310076E-06 -2.03448235E-06 1
vn 1.95310076E-06 -2.03448235E-06 1
vn 1.95310076E-06 -2.03448235E-06 1
vn 1.95310076E-06 -2.03448235E-06 1
vn -1 0 0
vn -1 0 0
vn -1 0 0
vn -1 0 0
vn -1 0 0
vn 1 0 9.65836193E-07
vn 1 0 8.07638855E-07
vn 1 0 9.65836193E-07
vn 1 0 6.56639259E-07
vn 1 0 0
vn -0 -0.707106769 -0.707106769
vn -0 -0.707107186 -0.707106352
vn -0 -0.707107127 -0.707106352
vn -0 -0.707107842 -0.707105696
vn -0 -1 0
vn -0 -1 0
vn -0 -1 0
vn -0 -1 0
vn -0 -1 0
vn -0 -1 0
vn -1 0 0
vn -1 0 0
vn -1 0 0
vn -1 0 0
vn -1 0 0
vn 1 0 0
vn 1 0 0
vn 1 0 0
vn 1 0 0
vn 1 0 0
vn 8.33333434E-06 0 -1
vn 6.62639422E-06 0 -1
vn 1.70693954E-06 0 -1
vn -0 0 -1
vn 5.89255569E-06 -0.707106769 -0.707106829
vn 3.05668232E-06 -0.707106054 -0.707107544
vn 2.83588406E-06 -0.707106054 -0.707107544
vn -0 -0.707105219 -0.707108259
vn -0 -1 0
vn -0 -1 0
vn -0 -1 0
vn -0 -1 0
vn -1 0 0
vn -1 0 0
vn -1 1.02058004E-06 0
vn -1 9.90585249E-07 0
vn -1 0 0
vn -0 -1 0
vn -0 -1 0
vn -0 -1 0
vn -0 -1 0
vn -5.35714025E-06 -9.76572846E-06 -1
vn -5.35714025E-06 -9.76572846E-06 -1
vn -5.35713934E-06 -9.76572846E-06 -1
vn -5.35713934E-06 -9.76572846E-06 -1
vn -0 0.707111955 0.707101583
vn -0 0.707111895 0.707101583
vn -0 0.707111955 0.707101524
vn -0 0.707111955 0.707101583
vn -0 0.707107186 0.707106352
vn -0 0.707107186 0.707106352
vn -0 0.707107186 0.707106352
vn -0 0.707107186 0.707106352
vn -0 -1 0
vn -0 -1 0
vn -0 -1 0
vn -0 -1 0
vn -0 -1 0
vn -0 -1 0
vn -0 -1 0
vn -0 -1 0
g AshlarFloatingStairs_Corner_EmptyBottom_0
f 3/3/3 2/2/2 1/1/1
f 6/6/6 5/5/5 4/4/4
f 9/9/9 8/8/8 7/7/7
f 12/12/12 11/11/11 10/10/10
f 15/15/15 14/14/14 13/13/13
f 16/16/16 15/15/15 13/13/13
f 19/19/19 18/18/18 17/17/17
f 17/17/17 20/20/20 19/19/19
f 17/17/17 21/21/21 20/20/20
f 24/24/24 23/23/23 22/22/22
f 25/25/25 24/24/24 22/22/22
f 28/28/28 27/27/27 26/26/26
f 29/29/29 28/28/28 26/26/26
f 32/32/32 31/31/31 30/30/30
f 33/33/33 32/32/32 30/30/30
f 36/36/36 35/35/35 34/34/34
f 37/37/37 36/36/36 34/34/34
f 40/40/40 39/39/39 38/38/38
f 38/38/38 41/41/41 40/40/40
f 38/38/38 42/42/42 41/41/41
f 45/45/45 44/44/44 43/43/43
f 46/46/46 45/45/45 43/43/43
f 49/49/49 48/48/48 47/47/47
f 50/50/50 49/49/49 47/47/47
f 53/53/53 52/52/52 51/51/51
f 54/54/54 53/53/53 51/51/51
f 57/57/57 56/56/56 55/55/55
f 55/55/55 58/58/58 57/57/57
f 55/55/55 59/59/59 58/58/58
f 62/62/62 61/61/61 60/60/60
f 63/63/63 62/62/62 60/60/60
f 63/63/63 64/64/64 62/62/62
f 67/67/67 66/66/66 65/65/65
f 67/67/67 68/68/68 66/66/66
f 71/71/71 70/70/70 69/69/69
f 72/72/72 71/71/71 69/69/69
f 72/72/72 73/73/73 71/71/71
f 73/73/73 74/74/74 71/71/71
f 77/77/77 76/76/76 75/75/75
f 76/76/76 78/78/78 75/75/75
f 75/75/75 78/78/78 79/79/79
f 82/82/82 81/81/81 80/80/80
f 83/83/83 82/82/82 80/80/80
f 83/83/83 80/80/80 84/84/84
f 87/87/87 86/86/86 85/85/85
f 87/87/87 88/88/88 86/86/86
f 91/91/91 90/90/90 89/89/89
f 91/91/91 92/92/92 90/90/90
f 95/95/95 94/94/94 93/93/93
f 95/95/95 96/96/96 94/94/94
f 99/99/99 98/98/98 97/97/97
f 98/98/98 100/100/100 97/97/97
f 97/97/97 100/100/100 101/101/101
f 104/104/104 103/103/103 102/102/102
f 105/105/105 104/104/104 102/102/102
f 108/108/108 107/107/107 106/106/106
f 109/109/109 108/108/108 106/106/106
f 112/112/112 111/111/111 110/110/110
f 113/113/113 112/112/112 110/110/110
f 116/116/116 115/115/115 114/114/114
f 117/117/117 116/116/116 114/114/114
f 120/120/120 119/119/119 118/118/118
f 121/121/121 120/120/120 118/118/118
f 124/124/124 123/123/123 122/122/122
f 122/122/122 125/125/125 124/124/124
f 122/122/122 126/126/126 125/125/125
f 129/129/129 128/128/128 127/127/127
f 130/130/130 129/129/129 127/127/127
f 133/133/133 132/132/132 131/131/131
f 134/134/134 133/133/133 131/131/131
f 137/137/137 136/136/136 135/135/135
f 138/138/138 137/137/137 135/135/135
f 141/141/141 140/140/140 139/139/139
f 142/142/142 141/141/141 139/139/139
f 145/145/145 144/144/144 143/143/143
f 143/143/143 146/146/146 145/145/145
f 143/143/143 147/147/147 146/146/146
f 150/150/150 149/149/149 148/148/148
f 151/151/151 150/150/150 148/148/148
f 154/154/154 153/153/153 152/152/152
f 155/155/155 154/154/154 152/152/152
f 158/158/158 157/157/157 156/156/156
f 159/159/159 158/158/158 156/156/156
f 162/162/162 161/161/161 160/160/160
f 160/160/160 163/163/163 162/162/162
f 160/160/160 164/164/164 163/163/163
f 167/167/167 166/166/166 165/165/165
f 166/166/166 168/168/168 165/165/165
f 169/169/169 168/168/168 166/166/166
f 172/172/172 171/171/171 170/170/170
f 173/173/173 171/171/171 172/172/172
f 176/176/176 175/175/175 174/174/174
f 175/175/175 177/177/177 174/174/174
f 178/178/178 177/177/177 175/175/175
f 179/179/179 178/178/178 175/175/175
f 182/182/182 181/181/181 180/180/180
f 183/183/183 182/182/182 180/180/180
f 183/183/183 180/180/180 184/184/184
f 187/187/187 186/186/186 185/185/185
f 186/186/186 188/188/188 185/185/185
f 185/185/185 188/188/188 189/189/189
f 192/192/192 191/191/191 190/190/190
f 193/193/193 191/191/191 192/192/192
f 196/196/196 195/195/195 194/194/194
f 197/197/197 195/195/195 196/196/196
f 200/200/200 199/199/199 198/198/198
f 201/201/201 199/199/199 200/200/200
f 204/204/204 203/203/203 202/202/202
f 205/205/205 204/204/204 202/202/202
f 205/205/205 202/202/202 206/206/206
f 209/209/209 208/208/208 207/207/207
f 210/210/210 209/209/209 207/207/207
f 213/213/213 212/212/212 211/211/211
f 214/214/214 213/213/213 211/211/211
f 217/217/217 216/216/216 215/215/215
f 218/218/218 217/217/217 215/215/215
f 221/221/221 220/220/220 219/219/219
f 222/222/222 221/221/221 219/219/219
f 225/225/225 224/224/224 223/223/223
f 226/226/226 225/225/225 223/223/223
f 229/229/229 228/228/228 227/227/227
f 230/230/230 229/229/229 227/227/227
