g WallCorner
v -0.5 -0.5 -0.25
v -0.5 0.5 -0.25
v -0.5 0.5 0.25
v -0.5 -0.5 0.25
v -0.5 0.5 -0.25
v 0.25 0.5 0.25
v -0.5 0.5 0.25
v -0.25 0.5 -0.25
v 0.25 0.5 -0.5
v -0.25 0.5 -0.5
v -0.25 -0.5 -0.25
v -0.5 -0.5 -0.25
v -0.5 -0.5 0.25
v 0.25 -0.5 0.25
v -0.25 -0.5 -0.5
v 0.25 -0.5 -0.5
v -0.5 -0.5 0.25
v -0.5 0.5 0.25
v 0.25 0.5 0.25
v 0.25 -0.5 0.25
v -0.25 -0.5 -0.25
v -0.25 0.5 -0.25
v -0.5 0.5 -0.25
v -0.5 -0.5 -0.25
v -0.25 0.5 -0.5
v -0.25 -0.5 -0.5
v 0.25 -0.5 -0.5
v 0.25 0.5 -0.5
v 0.25 -0.5 0.25
v 0.25 0.5 0.25
v 0.25 0.5 -0.5
v 0.25 -0.5 -0.5
v -0.25 -0.5 -0.5
v -0.25 0.5 -0.5
v -0.25 0.5 -0.25
v -0.25 -0.5 -0.25
vt 0.838837624 0.0462943874
vt 0.838837624 0.052603811
vt 0.841992259 0.052603811
vt 0.841992259 0.0462943874
vt 0.950378418 0.0563023686
vt 0.957805634 0.0513509214
vt 0.950378418 0.0513509214
vt 0.952854156 0.0563023686
vt 0.957805634 0.0587781072
vt 0.952854156 0.0587781072
vt 0.952854156 0.0563023686
vt 0.950378418 0.0563023686
vt 0.950378418 0.0513509214
vt 0.957805634 0.0513509214
vt 0.952854156 0.0587781072
vt 0.957805634 0.0587781072
vt 0.842085004 0.0462943874
vt 0.842085004 0.052603811
vt 0.846817017 0.052603811
vt 0.846817017 0.0462943874
vt 0.848472476 0.052603811
vt 0.848472476 0.0462943874
vt 0.846895099 0.0462943874
vt 0.846895099 0.052603811
vt 0.847444773 0.0526509285
vt 0.847444773 0.0589603782
vt 0.850599647 0.0589603782
vt 0.850599647 0.0526509285
vt 0.842640281 0.0526509285
vt 0.842640281 0.0589603782
vt 0.847372353 0.0589603782
vt 0.847372353 0.0526509285
vt 0.840990543 0.0526509285
vt 0.840990543 0.0589603782
vt 0.842567801 0.0589603782
vt 0.842567801 0.0526509285
vn -1 0 0
vn -1 0 0
vn -1 0 0
vn -1 0 0
vn -0 1 0
vn -0 1 0
vn -0 1 0
vn -0 1 0
vn -0 1 0
vn -0 1 0
vn -0 -1 0
vn -0 -1 0
vn -0 -1 0
vn -0 -1 0
vn -0 -1 0
vn -0 -1 0
vn -0 0 1
vn -0 0 1
vn -0 0 1
vn -0 0 1
vn -0 0 -1
vn -0 0 -1
vn -0 0 -1
vn -0 0 -1
vn -0 0 -1
vn -0 0 -1
vn -0 0 -1
vn -0 0 -1
vn 1 0 0
vn 1 0 0
vn 1 0 0
vn 1 0 0
vn -1 0 0
vn -1 0 0
vn -1 0 0
vn -1 0 0
g WallCorner_0
f 3/3/3 2/2/2 1/1/1
f 4/4/4 3/3/3 1/1/1
f 7/7/7 6/6/6 5/5/5
f 6/6/6 8/8/8 5/5/5
f 6/6/6 9/9/9 8/8/8
f 9/9/9 10/10/10 8/8/8
f 13/13/13 12/12/12 11/11/11
f 14/14/14 13/13/13 11/11/11
f 14/14/14 11/11/11 15/15/15
f 16/16/16 14/14/14 15/15/15
f 19/19/19 18/18/18 17/17/17
f 20/20/20 19/19/19 17/17/17
f 23/23/23 22/22/22 21/21/21
f 24/24/24 23/23/23 21/21/21
f 27/27/27 26/26/26 25/25/25
f 28/28/28 27/27/27 25/25/25
f 31/31/31 30/30/30 29/29/29
f 32/32/32 31/31/31 29/29/29
f 35/35/35 34/34/34 33/33/33
f 36/36/36 35/35/35 33/33/33
