g T_Wall
v -0.5 -0.5 -0.25
v -0.5 0.5 -0.25
v -0.5 0.5 0.25
v -0.5 -0.5 0.25
v -0.25 -0.5 -0.25
v -0.25 0.5 -0.25
v -0.5 0.5 -0.25
v -0.5 -0.5 -0.25
v -0.25 0.5 -0.25
v -0.25 0.5 -0.5
v 0.25 0.5 -0.5
v 0.25 0.5 0.5
v -0.25 0.5 0.25
v -0.25 0.5 0.5
v -0.5 0.5 -0.25
v -0.5 0.5 0.25
v -0.25 0.5 -0.5
v -0.25 -0.5 -0.5
v 0.25 -0.5 -0.5
v 0.25 0.5 -0.5
v -0.25 -0.5 -0.5
v 0.25 -0.5 0.5
v 0.25 -0.5 -0.5
v -0.25 -0.5 -0.25
v -0.25 -0.5 0.25
v -0.25 -0.5 0.5
v -0.5 -0.5 0.25
v -0.5 -0.5 -0.25
v 0.25 -0.5 0.5
v 0.25 0.5 0.5
v 0.25 0.5 -0.5
v 0.25 -0.5 -0.5
v -0.25 -0.5 -0.5
v -0.25 0.5 -0.5
v -0.25 0.5 -0.25
v -0.25 -0.5 -0.25
v -0.5 -0.5 0.25
v -0.5 0.5 0.25
v -0.25 0.5 0.25
v -0.25 -0.5 0.25
v -0.25 0.5 0.5
v 0.25 0.5 0.5
v 0.25 -0.5 0.5
v -0.25 -0.5 0.5
v -0.25 -0.5 0.5
v -0.25 -0.5 0.25
v -0.25 0.5 0.25
v -0.25 0.5 0.5
vt 0.838839412 0.046291139
vt 0.838839412 0.0517830551
vt 0.841585398 0.0517830551
vt 0.841585398 0.046291139
vt 0.843040228 0.0517830253
vt 0.843040228 0.046291139
vt 0.841667235 0.046291139
vt 0.841667235 0.0517830253
vt 0.952854156 0.03649652
vt 0.952854156 0.0389722586
vt 0.957805634 0.0389722586
vt 0.957805634 0.0290693343
vt 0.952854156 0.0315450728
vt 0.952854156 0.0290693343
vt 0.950378418 0.03649652
vt 0.950378418 0.0315450728
vt 0.843129635 0.046291139
vt 0.843129635 0.0517830253
vt 0.845875502 0.0517830253
vt 0.845875502 0.046291139
vt 0.952854156 0.0389722586
vt 0.957805634 0.0290693343
vt 0.957805634 0.0389722586
vt 0.952854156 0.03649652
vt 0.952854156 0.0315450728
vt 0.952854156 0.0290693343
vt 0.950378418 0.0315450728
vt 0.950378418 0.03649652
vt 0.845954895 0.046291139
vt 0.845954895 0.0517830551
vt 0.851446807 0.0517830551
vt 0.851446807 0.046291139
vt 0.850132346 0.0518337786
vt 0.850132346 0.0573257208
vt 0.851505399 0.0573257208
vt 0.851505399 0.0518337786
vt 0.84868139 0.0518337786
vt 0.84868139 0.0573257208
vt 0.850054324 0.0573257208
vt 0.850054324 0.0518337786
vt 0.845857263 0.0573257208
vt 0.848603368 0.0573257208
vt 0.848603368 0.0518337786
vt 0.845857263 0.0518337786
vt 0.8457793 0.0518337786
vt 0.844406366 0.0518337786
vt 0.844406366 0.0573257208
vt 0.8457793 0.0573257208
vn -1 0 0
vn -1 0 0
vn -1 0 0
vn -1 0 0
vn -0 0 -1
vn -0 0 -1
vn -0 0 -1
vn -0 0 -1
vn -0 1 0
vn -0 1 0
vn -0 1 0
vn -0 1 0
vn -0 1 0
vn -0 1 0
vn -0 1 0
vn -0 1 0
vn -0 0 -1
vn -0 0 -1
vn -0 0 -1
vn -0 0 -1
vn -0 -1 0
vn -0 -1 0
vn -0 -1 0
vn -0 -1 0
vn -0 -1 0
vn -0 -1 0
vn -0 -1 0
vn -0 -1 0
vn 1 0 0
vn 1 0 0
vn 1 0 0
vn 1 0 0
vn -1 0 0
vn -1 0 0
vn -1 0 0
vn -1 0 0
vn -0 0 1
vn -0 0 1
vn -0 0 1
vn -0 0 1
vn -0 0 1
vn -0 0 1
vn -0 0 1
vn -0 0 1
vn -1 0 0
vn -1 0 0
vn -1 0 0
vn -1 0 0
g T_Wall_0
f 3/3/3 2/2/2 1/1/1
f 4/4/4 3/3/3 1/1/1
f 7/7/7 6/6/6 5/5/5
f 8/8/8 7/7/7 5/5/5
f 11/11/11 10/10/10 9/9/9
f 12/12/12 11/11/11 9/9/9
f 13/13/13 12/12/12 9/9/9
f 14/14/14 12/12/12 13/13/13
f 13/13/13 9/9/9 15/15/15
f 16/16/16 13/13/13 15/15/15
f 19/19/19 18/18/18 17/17/17
f 20/20/20 19/19/19 17/17/17
f 23/23/23 22/22/22 21/21/21
f 22/22/22 24/24/24 21/21/21
f 22/22/22 25/25/25 24/24/24
f 25/25/25 22/22/22 26/26/26
f 25/25/25 27/27/27 24/24/24
f 27/27/27 28/28/28 24/24/24
f 31/31/31 30/30/30 29/29/29
f 32/32/32 31/31/31 29/29/29
f 35/35/35 34/34/34 33/33/33
f 36/36/36 35/35/35 33/33/33
f 39/39/39 38/38/38 37/37/37
f 40/40/40 39/39/39 37/37/37
f 43/43/43 42/42/42 41/41/41
f 44/44/44 43/43/43 41/41/41
f 47/47/47 46/46/46 45/45/45
f 48/48/48 47/47/47 45/45/45
