g FloorThreeEdge
v -0.37500304 -0.241832808 -0.375
v 0.375 -0.241832808 -0.37500304
v 0.375 0.241832808 -0.37500304
v -0.37500304 0.241832808 -0.375
v -0.5 -0.241832808 -0.5
v 0.5 -0.241832808 -0.5
v 0.375 -0.241832808 -0.37500304
v -0.37500304 -0.241832808 -0.375
v -0.5 -0.5 -0.5
v 0.5 -0.5 -0.5
v 0.5 -0.241832808 -0.5
v -0.5 -0.241832808 -0.5
v -0.5 0.241832808 -0.5
v 0.5 0.241832808 -0.5
v 0.5 0.5 -0.5
v -0.5 0.5 -0.5
v -0.375004262 -0.5 -0.375
v 0.375 -0.5 -0.37500304
v 0.5 -0.5 -0.5
v -0.5 -0.5 -0.5
v -0.5 0.5 -0.5
v 0.5 0.5 -0.5
v 0.375 0.5 -0.37500304
v -0.375004262 0.5 -0.375
v -0.37500304 0.241832808 -0.375
v 0.375 0.241832808 -0.37500304
v 0.5 0.241832808 -0.5
v -0.5 0.241832808 -0.5
v -0.375 -0.241832808 0.5
v -0.37500304 -0.241832808 -0.375
v -0.37500304 0.241832808 -0.375
v -0.375 0.241832808 0.5
v -0.5 -0.241832808 0.5
v -0.5 -0.241832808 -0.5
v -0.37500304 -0.241832808 -0.375
v -0.375 -0.241832808 0.5
v -0.5 -0.5 0.5
v -0.5 -0.5 -0.5
v -0.5 -0.241832808 -0.5
v -0.5 -0.241832808 0.5
v -0.5 0.241832808 0.5
v -0.5 0.241832808 -0.5
v -0.5 0.5 -0.5
v -0.5 0.5 0.5
v -0.375 -0.5 0.5
v -0.375004262 -0.5 -0.375
v -0.5 -0.5 -0.5
v -0.5 -0.5 0.5
v -0.5 0.5 0.5
v -0.5 0.5 -0.5
v -0.375004262 0.5 -0.375
v -0.375 0.5 0.5
v -0.375 0.241832808 0.5
v -0.37500304 0.241832808 -0.375
v -0.5 0.241832808 -0.5
v -0.5 0.241832808 0.5
v 0.375 -0.241832808 -0.37500304
v 0.375002444 -0.241832808 0.5
v 0.375002444 0.241832808 0.5
v 0.375 0.241832808 -0.37500304
v 0.5 -0.241832808 -0.5
v 0.5 -0.241832808 0.5
v 0.375002444 -0.241832808 0.5
v 0.375 -0.241832808 -0.37500304
v 0.5 -0.5 -0.5
v 0.5 -0.5 0.5
v 0.5 -0.241832808 0.5
v 0.5 -0.241832808 -0.5
v 0.5 0.241832808 -0.5
v 0.5 0.241832808 0.5
v 0.5 0.5 0.5
v 0.5 0.5 -0.5
v 0.375 -0.5 -0.37500304
v 0.375002444 -0.5 0.5
v 0.5 -0.5 0.5
v 0.5 -0.5 -0.5
v 0.5 0.5 -0.5
v 0.5 0.5 0.5
v 0.375002444 0.5 0.5
v 0.375 0.5 -0.37500304
v 0.375 0.241832808 -0.37500304
v 0.375002444 0.241832808 0.5
v 0.5 0.241832808 0.5
v 0.5 0.241832808 -0.5
v -0.375 -0.5 0.5
v 0.375002444 -0.5 0.5
v 0.375 -0.5 -0.37500304
v -0.375004262 -0.5 -0.375
v -0.375004262 0.5 -0.375
v 0.375 0.5 -0.37500304
v 0.375002444 0.5 0.5
v -0.375 0.5 0.5
v 0.128874511 -0.24183242 -0.5
v 0.128874511 0.24183242 -0.5
v -0.128874511 0.24183242 -0.5
v -0.128874511 -0.24183242 -0.5
v -0.128874511 -0.24183242 -0.5
v -0.128874511 0.24183242 -0.5
v -0.128874511 0.24183242 -0.375004262
v -0.128874511 -0.24183242 -0.375004262
v 0.128874511 -0.24183242 -0.375004262
v 0.128874511 0.24183242 -0.375004262
v 0.128874511 0.24183242 -0.5
v 0.128874511 -0.24183242 -0.5
v 0.5 -0.24183242 0.128875121
v 0.5 0.24183242 0.128875121
v 0.5 0.24183242 -0.128875121
v 0.5 -0.24183242 -0.128875121
v 0.5 -0.24183242 -0.128875121
v 0.5 0.24183242 -0.128875121
v 0.375004888 0.24183242 -0.128875121
v 0.375004888 -0.24183242 -0.128875121
v 0.375004888 -0.24183242 0.128875121
v 0.375004888 0.24183242 0.128875121
v 0.5 0.24183242 0.128875121
v 0.5 -0.24183242 0.128875121
v -0.5 -0.24183242 -0.128875121
v -0.5 0.24183242 -0.128875121
v -0.5 0.24183242 0.128875121
v -0.5 -0.24183242 0.128875121
v -0.5 -0.24183242 0.128875121
v -0.5 0.24183242 0.128875121
v -0.375004262 0.24183242 0.128875121
v -0.375004262 -0.24183242 0.128875121
v -0.375004262 -0.24183242 -0.128875121
v -0.375004262 0.24183242 -0.128875121
v -0.5 0.24183242 -0.128875121
v -0.5 -0.24183242 -0.128875121
vt 0.831789613 0.0695557892
vt 0.831789613 0.0339159891
vt 0.852785051 0.0339159891
vt 0.852785051 0.0695557892
vt 0.941573977 0.427062392
vt 0.941473126 0.722159445
vt 0.978365064 0.685301065
vt 0.978443861 0.463966519
vt 0.493841857 0.251798421
vt 0.690400958 0.251796395
vt 0.690401256 0.195938662
vt 0.493842125 0.195940718
vt 0.690402865 0.251798749
vt 0.493840039 0.251796693
vt 0.493839771 0.19593823
vt 0.690402627 0.195940301
vt 0.978367805 0.685294867
vt 0.978447676 0.463947237
vt 0.941570997 0.427042782
vt 0.941463351 0.722171247
vt 0.94159019 0.427062601
vt 0.941461444 0.722187281
vt 0.978360057 0.68532896
vt 0.978460073 0.463973314
vt 0.978367925 0.685294569
vt 0.978447676 0.463947296
vt 0.941570759 0.427042842
vt 0.941463351 0.722171307
vt 0.841844678 0.0476705059
vt 0.841841578 0.0459202304
vt 0.842725396 0.0459202304
vt 0.842728496 0.0476705059
vt 0.941575289 0.427053452
vt 0.941459775 0.722182214
vt 0.978357315 0.685325861
vt 0.978459835 0.427085251
vt 0.493842006 0.251794785
vt 0.69040364 0.251796246
vt 0.690402746 0.195938662
vt 0.493840992 0.195937157
vt 0.690403938 0.251797885
vt 0.493840754 0.251796603
vt 0.493840218 0.195938975
vt 0.690403342 0.195940301
vt 0.978354812 0.722185016
vt 0.97844708 0.463946998
vt 0.941570759 0.427042425
vt 0.94146359 0.722171545
vt 0.941590548 0.427062035
vt 0.94146204 0.722183168
vt 0.97835958 0.685329378
vt 0.978474021 0.427095413
vt 0.978354335 0.722184598
vt 0.978447556 0.463947296
vt 0.941570759 0.427042812
vt 0.941463351 0.722171247
vt 0.841841578 0.0459202304
vt 0.841837525 0.0476701036
vt 0.842721343 0.0476701036
vt 0.842725396 0.0459202304
vt 0.941557407 0.427031636
vt 0.941472769 0.72216022
vt 0.978359461 0.722174466
vt 0.97843492 0.463933021
vt 0.493837118 0.251795441
vt 0.690399945 0.251793414
vt 0.690399826 0.195933402
vt 0.49383685 0.195935398
vt 0.690400064 0.251795828
vt 0.493838042 0.251794636
vt 0.493837684 0.195937514
vt 0.690399647 0.195938736
vt 0.978367448 0.685294747
vt 0.978461385 0.427056521
vt 0.941571355 0.427042991
vt 0.941462994 0.722171307
vt 0.94158864 0.427067757
vt 0.941461444 0.722187817
vt 0.978347063 0.722207367
vt 0.978459835 0.463973492
vt 0.978367925 0.685294569
vt 0.978461146 0.427056223
vt 0.941570759 0.427042902
vt 0.941463351 0.722171426
vt 0.956965923 0.0465374514
vt 0.956965923 0.0480612144
vt 0.96052146 0.0480612144
vt 0.96052146 0.0465374514
vt 0.957473993 0.0465374514
vt 0.957473993 0.0480612144
vt 0.96102941 0.0480612144
vt 0.961029291 0.0465374514
vt 0.181776106 0.226434559
vt 0.379548997 0.226434439
vt 0.379548877 0.129563197
vt 0.181776196 0.129563197
vt 0.479252607 0.469370335
vt 0.281641871 0.469370455
vt 0.281641632 0.519828141
vt 0.479252547 0.519828379
vt 0.479252547 0.469370335
vt 0.281641632 0.469370544
vt 0.281641632 0.51982826
vt 0.479252487 0.519828379
vt 0.181776106 0.226434559
vt 0.379548997 0.226434439
vt 0.379548877 0.129563197
vt 0.181776196 0.129563197
vt 0.479252607 0.469370335
vt 0.281641871 0.469370455
vt 0.281641632 0.519828141
vt 0.479252547 0.519828379
vt 0.479252547 0.469370335
vt 0.281641632 0.469370544
vt 0.281641632 0.51982826
vt 0.479252487 0.519828379
vt 0.181776106 0.226434559
vt 0.379548997 0.226434439
vt 0.379548877 0.129563197
vt 0.181776196 0.129563197
vt 0.479252607 0.469370335
vt 0.281641871 0.469370455
vt 0.281641632 0.519828141
vt 0.479252547 0.519828379
vt 0.479252547 0.469370335
vt 0.281641632 0.469370544
vt 0.281641632 0.51982826
vt 0.479252487 0.519828379
vn -4.307366E-06 0 -1
vn -4.307366E-06 0 -1
vn -4.307366E-06 0 -1
vn -4.307366E-06 0 -1
vn -0 1 0
vn -0 1 0
vn -0 1 0
vn -0 1 0
vn -0 0 -1
vn -0 0 -1
vn -0 0 -1
vn -0 0 -1
vn -0 0 -1
vn -0 0 -1
vn -0 0 -1
vn -0 0 -1
vn -0 -1 0
vn -0 -1 0
vn -0 -1 0
vn -0 -1 0
vn -0 1 0
vn -0 1 0
vn -0 1 0
vn -0 1 0
vn -0 -1 0
vn -0 -1 0
vn -0 -1 0
vn -0 -1 0
vn -1 0 3.48772278E-06
vn -1 0 3.48772278E-06
vn -1 0 3.48772278E-06
vn -1 0 3.48772278E-06
vn -0 1 0
vn -0 1 0
vn -0 1 0
vn -0 1 0
vn -1 0 0
vn -1 0 0
vn -1 0 0
vn -1 0 0
vn -1 0 0
vn -1 0 0
vn -1 0 0
vn -1 0 0
vn -0 -1 0
vn -0 -1 0
vn -0 -1 0
vn -0 -1 0
vn -0 1 0
vn -0 1 0
vn -0 1 0
vn -0 1 0
vn -0 -1 0
vn -0 -1 0
vn -0 -1 0
vn -0 -1 0
vn 1 0 -2.79016831E-06
vn 1 0 -2.79016831E-06
vn 1 0 -2.79016831E-06
vn 1 0 -2.79016831E-06
vn -0 1 0
vn -0 1 0
vn -0 1 0
vn -0 1 0
vn 1 0 0
vn 1 0 0
vn 1 0 0
vn 1 0 0
vn 1 0 0
vn 1 0 0
vn 1 0 0
vn 1 0 0
vn -0 -1 0
vn -0 -1 0
vn -0 -1 0
vn -0 -1 0
vn -0 1 0
vn -0 1 0
vn -0 1 0
vn -0 1 0
vn -0 -1 0
vn -0 -1 0
vn -0 -1 0
vn -0 -1 0
vn -0 -1 0
vn -0 -1 0
vn -0 -1 0
vn -0 -1 0
vn -0 1 0
vn -0 1 0
vn -0 1 0
vn -0 1 0
vn -0 0 -1
vn -0 0 -1
vn -0 0 -1
vn -0 0 -1
vn -1 0 0
vn -1 0 0
vn -1 0 0
vn -1 0 0
vn 1 0 0
vn 1 0 0
vn 1 0 0
vn 1 0 0
vn 1 0 0
vn 1 0 0
vn 1 0 0
vn 1 0 0
vn -0 0 -1
vn -0 0 -1
vn -0 0 -1
vn -0 0 -1
vn -0 0 1
vn -0 0 1
vn -0 0 1
vn -0 0 1
vn -1 0 0
vn -1 0 0
vn -1 0 0
vn -1 0 0
vn -0 0 1
vn -0 0 1
vn -0 0 1
vn -0 0 1
vn -0 0 -1
vn -0 0 -1
vn -0 0 -1
vn -0 0 -1
g FloorThreeEdge_0
f 3/3/3 2/2/2 1/1/1
f 4/4/4 3/3/3 1/1/1
f 7/7/7 6/6/6 5/5/5
f 8/8/8 7/7/7 5/5/5
f 11/11/11 10/10/10 9/9/9
f 12/12/12 11/11/11 9/9/9
f 15/15/15 14/14/14 13/13/13
f 16/16/16 15/15/15 13/13/13
f 19/19/19 18/18/18 17/17/17
f 20/20/20 19/19/19 17/17/17
f 23/23/23 22/22/22 21/21/21
f 24/24/24 23/23/23 21/21/21
f 27/27/27 26/26/26 25/25/25
f 28/28/28 27/27/27 25/25/25
f 31/31/31 30/30/30 29/29/29
f 32/32/32 31/31/31 29/29/29
f 35/35/35 34/34/34 33/33/33
f 36/36/36 35/35/35 33/33/33
f 39/39/39 38/38/38 37/37/37
f 40/40/40 39/39/39 37/37/37
f 43/43/43 42/42/42 41/41/41
f 44/44/44 43/43/43 41/41/41
f 47/47/47 46/46/46 45/45/45
f 48/48/48 47/47/47 45/45/45
f 51/51/51 50/50/50 49/49/49
f 52/52/52 51/51/51 49/49/49
f 55/55/55 54/54/54 53/53/53
f 56/56/56 55/55/55 53/53/53
f 59/59/59 58/58/58 57/57/57
f 60/60/60 59/59/59 57/57/57
f 63/63/63 62/62/62 61/61/61
f 64/64/64 63/63/63 61/61/61
f 67/67/67 66/66/66 65/65/65
f 68/68/68 67/67/67 65/65/65
f 71/71/71 70/70/70 69/69/69
f 72/72/72 71/71/71 69/69/69
f 75/75/75 74/74/74 73/73/73
f 76/76/76 75/75/75 73/73/73
f 79/79/79 78/78/78 77/77/77
f 80/80/80 79/79/79 77/77/77
f 83/83/83 82/82/82 81/81/81
f 84/84/84 83/83/83 81/81/81
f 87/87/87 86/86/86 85/85/85
f 88/88/88 87/87/87 85/85/85
f 91/91/91 90/90/90 89/89/89
f 92/92/92 91/91/91 89/89/89
f 95/95/95 94/94/94 93/93/93
f 96/96/96 95/95/95 93/93/93
f 99/99/99 98/98/98 97/97/97
f 100/100/100 99/99/99 97/97/97
f 103/103/103 102/102/102 101/101/101
f 104/104/104 103/103/103 101/101/101
f 107/107/107 106/106/106 105/105/105
f 108/108/108 107/107/107 105/105/105
f 111/111/111 110/110/110 109/109/109
f 112/112/112 111/111/111 109/109/109
f 115/115/115 114/114/114 113/113/113
f 116/116/116 115/115/115 113/113/113
f 119/119/119 118/118/118 117/117/117
f 120/120/120 119/119/119 117/117/117
f 123/123/123 122/122/122 121/121/121
f 124/124/124 123/123/123 121/121/121
f 127/127/127 126/126/126 125/125/125
f 128/128/128 127/127/127 125/125/125
