g FloorSolo
v -0.37500304 -0.241832808 -0.375
v 0.375 -0.241832808 -0.37500304
v 0.375 0.241832808 -0.37500304
v -0.37500304 0.241832808 -0.375
v -0.5 -0.241832808 -0.5
v 0.5 -0.241832808 -0.5
v 0.375 -0.241832808 -0.37500304
v -0.37500304 -0.241832808 -0.375
v -0.5 -0.5 -0.5
v 0.5 -0.5 -0.5
v 0.5 -0.241832808 -0.5
v -0.5 -0.241832808 -0.5
v -0.5 0.241832808 -0.5
v 0.5 0.241832808 -0.5
v 0.5 0.5 -0.5
v -0.5 0.5 -0.5
v -0.375004262 -0.5 -0.375
v 0.375 -0.5 -0.37500304
v 0.5 -0.5 -0.5
v -0.5 -0.5 -0.5
v -0.5 0.5 -0.5
v 0.5 0.5 -0.5
v 0.375 0.5 -0.37500304
v -0.375004262 0.5 -0.375
v -0.37500304 0.241832808 -0.375
v 0.375 0.241832808 -0.37500304
v 0.5 0.241832808 -0.5
v -0.5 0.241832808 -0.5
v -0.375 -0.241832808 0.375003666
v -0.37500304 -0.241832808 -0.375
v -0.37500304 0.241832808 -0.375
v -0.375 0.241832808 0.375003666
v -0.5 -0.241832808 0.5
v -0.5 -0.241832808 -0.5
v -0.37500304 -0.241832808 -0.375
v -0.375 -0.241832808 0.375003666
v -0.5 -0.5 0.5
v -0.5 -0.5 -0.5
v -0.5 -0.241832808 -0.5
v -0.5 -0.241832808 0.5
v -0.5 0.241832808 0.5
v -0.5 0.241832808 -0.5
v -0.5 0.5 -0.5
v -0.5 0.5 0.5
v -0.375 -0.5 0.375004262
v -0.375004262 -0.5 -0.375
v -0.5 -0.5 -0.5
v -0.5 -0.5 0.5
v -0.5 0.5 0.5
v -0.5 0.5 -0.5
v -0.375004262 0.5 -0.375
v -0.375 0.5 0.375004262
v -0.375 0.241832808 0.375003666
v -0.37500304 0.241832808 -0.375
v -0.5 0.241832808 -0.5
v -0.5 0.241832808 0.5
v 0.37500304 -0.241832808 0.375
v -0.375 -0.241832808 0.375003666
v -0.375 0.241832808 0.375003666
v 0.37500304 0.241832808 0.375
v 0.5 -0.241832808 0.5
v -0.5 -0.241832808 0.5
v -0.375 -0.241832808 0.375003666
v 0.37500304 -0.241832808 0.375
v 0.5 -0.5 0.5
v -0.5 -0.5 0.5
v -0.5 -0.241832808 0.5
v 0.5 -0.241832808 0.5
v 0.5 0.241832808 0.5
v -0.5 0.241832808 0.5
v -0.5 0.5 0.5
v 0.5 0.5 0.5
v 0.37500304 -0.5 0.375001222
v -0.375 -0.5 0.375004262
v -0.5 -0.5 0.5
v 0.5 -0.5 0.5
v 0.5 0.5 0.5
v -0.5 0.5 0.5
v -0.375 0.5 0.375004262
v 0.37500304 0.5 0.375001222
v 0.37500304 0.241832808 0.375
v -0.375 0.241832808 0.375003666
v -0.5 0.241832808 0.5
v 0.5 0.241832808 0.5
v 0.375 -0.241832808 -0.37500304
v 0.37500304 -0.241832808 0.375
v 0.37500304 0.241832808 0.375
v 0.375 0.241832808 -0.37500304
v 0.5 -0.241832808 -0.5
v 0.5 -0.241832808 0.5
v 0.37500304 -0.241832808 0.375
v 0.375 -0.241832808 -0.37500304
v 0.5 -0.5 -0.5
v 0.5 -0.5 0.5
v 0.5 -0.241832808 0.5
v 0.5 -0.241832808 -0.5
v 0.5 0.241832808 -0.5
v 0.5 0.241832808 0.5
v 0.5 0.5 0.5
v 0.5 0.5 -0.5
v 0.375 -0.5 -0.37500304
v 0.37500304 -0.5 0.375001222
v 0.5 -0.5 0.5
v 0.5 -0.5 -0.5
v 0.5 0.5 -0.5
v 0.5 0.5 0.5
v 0.37500304 0.5 0.375001222
v 0.375 0.5 -0.37500304
v 0.375 0.241832808 -0.37500304
v 0.37500304 0.241832808 0.375
v 0.5 0.241832808 0.5
v 0.5 0.241832808 -0.5
v -0.375 -0.5 0.375004262
v 0.37500304 -0.5 0.375001222
v 0.375 -0.5 -0.37500304
v -0.375004262 -0.5 -0.375
v -0.375004262 0.5 -0.375
v 0.375 0.5 -0.37500304
v 0.37500304 0.5 0.375001222
v -0.375 0.5 0.375004262
v -0.128875121 -0.24183242 0.5
v -0.128875121 0.24183242 0.5
v 0.128875121 0.24183242 0.5
v 0.128875121 -0.24183242 0.5
v 0.128875121 -0.24183242 0.5
v 0.128875121 0.24183242 0.5
v 0.128875121 0.24183242 0.375004262
v 0.128875121 -0.24183242 0.375004262
v -0.128875121 -0.24183242 0.375004262
v -0.128875121 0.24183242 0.375004262
v -0.128875121 0.24183242 0.5
v -0.128875121 -0.24183242 0.5
v -0.5 -0.24183242 -0.128875121
v -0.5 0.24183242 -0.128875121
v -0.5 0.24183242 0.128875121
v -0.5 -0.24183242 0.128875121
v -0.5 -0.24183242 0.128875121
v -0.5 0.24183242 0.128875121
v -0.375004262 0.24183242 0.128875121
v -0.375004262 -0.24183242 0.128875121
v -0.375004262 -0.24183242 -0.128875121
v -0.375004262 0.24183242 -0.128875121
v -0.5 0.24183242 -0.128875121
v -0.5 -0.24183242 -0.128875121
v 0.128875121 -0.24183242 -0.5
v 0.128875121 0.24183242 -0.5
v -0.128875121 0.24183242 -0.5
v -0.128875121 -0.24183242 -0.5
v -0.128875121 -0.24183242 -0.5
v -0.128875121 0.24183242 -0.5
v -0.128875121 0.24183242 -0.375004262
v -0.128875121 -0.24183242 -0.375004262
v 0.128875121 -0.24183242 -0.375004262
v 0.128875121 0.24183242 -0.375004262
v 0.128875121 0.24183242 -0.5
v 0.128875121 -0.24183242 -0.5
v 0.5 -0.24183242 0.128875121
v 0.5 0.24183242 0.128875121
v 0.5 0.24183242 -0.128875121
v 0.5 -0.24183242 -0.128875121
v 0.5 -0.24183242 -0.128875121
v 0.5 0.24183242 -0.128875121
v 0.375004262 0.24183242 -0.128875121
v 0.375004262 -0.24183242 -0.128875121
v 0.375004262 -0.24183242 0.128875121
v 0.375004262 0.24183242 0.128875121
v 0.5 0.24183242 0.128875121
v 0.5 -0.24183242 0.128875121
vt 0.857304037 0.0681361035
vt 0.857304037 0.0377969183
vt 0.875176847 0.0377969183
vt 0.875176847 0.0681361035
vt 0.941573977 0.427062392
vt 0.941473126 0.722159445
vt 0.978365064 0.685301065
vt 0.978443861 0.463966519
vt 0.493840992 0.251797378
vt 0.690401018 0.25179562
vt 0.690401316 0.195937827
vt 0.49384138 0.19593963
vt 0.690402865 0.251799136
vt 0.493839204 0.251797378
vt 0.493839085 0.1959389
vt 0.690402508 0.195940673
vt 0.978367805 0.685294867
vt 0.978447676 0.463947237
vt 0.941570997 0.427042782
vt 0.941463351 0.722171247
vt 0.94159019 0.427062601
vt 0.941461444 0.722187281
vt 0.978360057 0.68532896
vt 0.978460073 0.463973314
vt 0.978367925 0.685294569
vt 0.978447676 0.463947296
vt 0.941570759 0.427042902
vt 0.941463351 0.722171307
vt 0.857304037 0.0681361035
vt 0.857304037 0.0377969183
vt 0.875176966 0.0377969183
vt 0.875176847 0.0681361035
vt 0.94157505 0.427054346
vt 0.941458702 0.722187638
vt 0.978357315 0.685325861
vt 0.978447914 0.463963985
vt 0.493840396 0.251793712
vt 0.690403104 0.251796305
vt 0.690402269 0.195938975
vt 0.493839711 0.195936307
vt 0.690403044 0.251796067
vt 0.493840605 0.251795679
vt 0.493840098 0.19593823
vt 0.690402508 0.195938662
vt 0.978368044 0.685295165
vt 0.97844708 0.463946998
vt 0.94157064 0.427042425
vt 0.94146359 0.722171545
vt 0.941590309 0.427062929
vt 0.941460729 0.722188592
vt 0.97835958 0.685329378
vt 0.978460431 0.463972986
vt 0.978367925 0.685294628
vt 0.978447556 0.463947296
vt 0.941570759 0.427042842
vt 0.941463351 0.722171247
vt 0.857304037 0.0377969183
vt 0.857304037 0.0681361035
vt 0.875176847 0.0681361035
vt 0.875176847 0.0377969183
vt 0.941556692 0.427004129
vt 0.94145 0.722203732
vt 0.978355408 0.685332656
vt 0.978438854 0.46392113
vt 0.493840873 0.251796007
vt 0.69040215 0.25179705
vt 0.690402269 0.195940837
vt 0.493840933 0.195939749
vt 0.690401793 0.25179854
vt 0.493839353 0.251797348
vt 0.493839204 0.195939094
vt 0.690401673 0.195940301
vt 0.978367925 0.685295165
vt 0.97844708 0.46394673
vt 0.941570759 0.427042127
vt 0.941463709 0.722172081
vt 0.941582799 0.427046716
vt 0.94146347 0.722183466
vt 0.978362441 0.685321748
vt 0.978455186 0.463957459
vt 0.978368044 0.685294747
vt 0.978447318 0.463947177
vt 0.941570759 0.427042663
vt 0.94146359 0.722171545
vt 0.857304037 0.0377969183
vt 0.857304037 0.0681361035
vt 0.875176847 0.0681361035
vt 0.875176966 0.0377969183
vt 0.941558599 0.427026093
vt 0.941473126 0.722159266
vt 0.978367448 0.685294807
vt 0.97843492 0.463933021
vt 0.493842006 0.251799345
vt 0.690402627 0.25179711
vt 0.690402508 0.195937455
vt 0.493841857 0.19593963
vt 0.690404296 0.251799107
vt 0.493840605 0.251797676
vt 0.493840218 0.195940301
vt 0.690403938 0.195941746
vt 0.978367448 0.685294747
vt 0.978447914 0.463947207
vt 0.941571355 0.427042991
vt 0.941462994 0.722171307
vt 0.941589713 0.427062243
vt 0.941461682 0.722186863
vt 0.978360534 0.68532908
vt 0.978459835 0.463973492
vt 0.978367925 0.685294569
vt 0.978447676 0.463947296
vt 0.941570759 0.427042842
vt 0.941463351 0.722171307
vt 0.957473993 0.0465374514
vt 0.957473993 0.0480612144
vt 0.96052146 0.0480612144
vt 0.96052146 0.0465374514
vt 0.957473993 0.0465374514
vt 0.957473993 0.0480612144
vt 0.96052146 0.0480612144
vt 0.96052146 0.0465374514
vt 0.181776106 0.226434559
vt 0.379548997 0.226434439
vt 0.379548877 0.129563197
vt 0.181776196 0.129563197
vt 0.479252607 0.469370335
vt 0.281641871 0.469370455
vt 0.281641632 0.519828141
vt 0.479252547 0.519828379
vt 0.479252547 0.469370335
vt 0.281641632 0.469370544
vt 0.281641632 0.51982826
vt 0.479252487 0.519828379
vt 0.181776106 0.226434559
vt 0.379548997 0.226434439
vt 0.379548877 0.129563197
vt 0.181776196 0.129563197
vt 0.479252607 0.469370335
vt 0.281641871 0.469370455
vt 0.281641632 0.519828141
vt 0.479252547 0.519828379
vt 0.479252547 0.469370335
vt 0.281641632 0.469370544
vt 0.281641632 0.51982826
vt 0.479252487 0.519828379
vt 0.181776106 0.226434559
vt 0.379548997 0.226434439
vt 0.379548877 0.129563197
vt 0.181776196 0.129563197
vt 0.479252607 0.469370335
vt 0.281641871 0.469370455
vt 0.281641632 0.519828141
vt 0.479252547 0.519828379
vt 0.479252547 0.469370335
vt 0.281641632 0.469370544
vt 0.281641632 0.51982826
vt 0.479252487 0.519828379
vt 0.181776106 0.226434559
vt 0.379548997 0.226434439
vt 0.379548877 0.129563197
vt 0.181776196 0.129563197
vt 0.479252607 0.469370335
vt 0.281641871 0.469370455
vt 0.281641632 0.519828141
vt 0.479252547 0.519828379
vt 0.479252547 0.469370335
vt 0.281641632 0.469370544
vt 0.281641632 0.51982826
vt 0.479252487 0.519828379
vn -3.76894491E-06 0 -1
vn -3.76894491E-06 0 -1
vn -3.76894491E-06 0 -1
vn -3.76894491E-06 0 -1
vn -0 1 0
vn -0 1 0
vn -0 1 0
vn -0 1 0
vn -0 0 -1
vn -0 0 -1
vn -0 0 -1
vn -0 0 -1
vn -0 0 -1
vn -0 0 -1
vn -0 0 -1
vn -0 0 -1
vn -0 -1 0
vn -0 -1 0
vn -0 -1 0
vn -0 -1 0
vn -0 1 0
vn -0 1 0
vn -0 1 0
vn -0 1 0
vn -0 -1 0
vn -0 -1 0
vn -0 -1 0
vn -0 -1 0
vn -1 0 4.06899107E-06
vn -1 0 4.06899107E-06
vn -1 0 4.06899107E-06
vn -1 0 4.06899107E-06
vn -0 1 0
vn -0 1 0
vn -0 1 0
vn -0 1 0
vn -1 0 0
vn -1 0 0
vn -1 0 0
vn -1 0 0
vn -1 0 0
vn -1 0 0
vn -1 0 0
vn -1 0 0
vn -0 -1 0
vn -0 -1 0
vn -0 -1 0
vn -0 -1 0
vn -0 1 0
vn -0 1 0
vn -0 1 0
vn -0 1 0
vn -0 -1 0
vn -0 -1 0
vn -0 -1 0
vn -0 -1 0
vn 4.84578641E-06 0 1
vn 4.84578641E-06 0 1
vn 4.84578641E-06 0 1
vn 4.84578641E-06 0 1
vn -0 1 0
vn -0 1 0
vn -0 1 0
vn -0 1 0
vn -0 0 1
vn -0 0 1
vn -0 0 1
vn -0 0 1
vn -0 0 1
vn -0 0 1
vn -0 0 1
vn -0 0 1
vn -0 -1 0
vn -0 -1 0
vn -0 -1 0
vn -0 -1 0
vn -0 1 0
vn -0 1 0
vn -0 1 0
vn -0 1 0
vn -0 -1 0
vn -0 -1 0
vn -0 -1 0
vn -0 -1 0
vn 1 0 -4.06899517E-06
vn 1 0 -4.06899517E-06
vn 1 0 -4.06899517E-06
vn 1 0 -4.06899517E-06
vn -0 1 0
vn -0 1 0
vn -0 1 0
vn -0 1 0
vn 1 0 0
vn 1 0 0
vn 1 0 0
vn 1 0 0
vn 1 0 0
vn 1 0 0
vn 1 0 0
vn 1 0 0
vn -0 -1 0
vn -0 -1 0
vn -0 -1 0
vn -0 -1 0
vn -0 1 0
vn -0 1 0
vn -0 1 0
vn -0 1 0
vn -0 -1 0
vn -0 -1 0
vn -0 -1 0
vn -0 -1 0
vn -0 -1 0
vn -0 -1 0
vn -0 -1 0
vn -0 -1 0
vn -0 1 0
vn -0 1 0
vn -0 1 0
vn -0 1 0
vn -0 0 1
vn -0 0 1
vn -0 0 1
vn -0 0 1
vn 1 0 0
vn 1 0 0
vn 1 0 0
vn 1 0 0
vn -1 0 0
vn -1 0 0
vn -1 0 0
vn -1 0 0
vn -1 0 0
vn -1 0 0
vn -1 0 0
vn -1 0 0
vn -0 0 1
vn -0 0 1
vn -0 0 1
vn -0 0 1
vn -0 0 -1
vn -0 0 -1
vn -0 0 -1
vn -0 0 -1
vn -0 0 -1
vn -0 0 -1
vn -0 0 -1
vn -0 0 -1
vn -1 0 0
vn -1 0 0
vn -1 0 0
vn -1 0 0
vn 1 0 0
vn 1 0 0
vn 1 0 0
vn 1 0 0
vn 1 0 0
vn 1 0 0
vn 1 0 0
vn 1 0 0
vn -0 0 -1
vn -0 0 -1
vn -0 0 -1
vn -0 0 -1
vn -0 0 1
vn -0 0 1
vn -0 0 1
vn -0 0 1
g FloorSolo_0
f 3/3/3 2/2/2 1/1/1
f 4/4/4 3/3/3 1/1/1
f 7/7/7 6/6/6 5/5/5
f 8/8/8 7/7/7 5/5/5
f 11/11/11 10/10/10 9/9/9
f 12/12/12 11/11/11 9/9/9
f 15/15/15 14/14/14 13/13/13
f 16/16/16 15/15/15 13/13/13
f 19/19/19 18/18/18 17/17/17
f 20/20/20 19/19/19 17/17/17
f 23/23/23 22/22/22 21/21/21
f 24/24/24 23/23/23 21/21/21
f 27/27/27 26/26/26 25/25/25
f 28/28/28 27/27/27 25/25/25
f 31/31/31 30/30/30 29/29/29
f 32/32/32 31/31/31 29/29/29
f 35/35/35 34/34/34 33/33/33
f 36/36/36 35/35/35 33/33/33
f 39/39/39 38/38/38 37/37/37
f 40/40/40 39/39/39 37/37/37
f 43/43/43 42/42/42 41/41/41
f 44/44/44 43/43/43 41/41/41
f 47/47/47 46/46/46 45/45/45
f 48/48/48 47/47/47 45/45/45
f 51/51/51 50/50/50 49/49/49
f 52/52/52 51/51/51 49/49/49
f 55/55/55 54/54/54 53/53/53
f 56/56/56 55/55/55 53/53/53
f 59/59/59 58/58/58 57/57/57
f 60/60/60 59/59/59 57/57/57
f 63/63/63 62/62/62 61/61/61
f 64/64/64 63/63/63 61/61/61
f 67/67/67 66/66/66 65/65/65
f 68/68/68 67/67/67 65/65/65
f 71/71/71 70/70/70 69/69/69
f 72/72/72 71/71/71 69/69/69
f 75/75/75 74/74/74 73/73/73
f 76/76/76 75/75/75 73/73/73
f 79/79/79 78/78/78 77/77/77
f 80/80/80 79/79/79 77/77/77
f 83/83/83 82/82/82 81/81/81
f 84/84/84 83/83/83 81/81/81
f 87/87/87 86/86/86 85/85/85
f 88/88/88 87/87/87 85/85/85
f 91/91/91 90/90/90 89/89/89
f 92/92/92 91/91/91 89/89/89
f 95/95/95 94/94/94 93/93/93
f 96/96/96 95/95/95 93/93/93
f 99/99/99 98/98/98 97/97/97
f 100/100/100 99/99/99 97/97/97
f 103/103/103 102/102/102 101/101/101
f 104/104/104 103/103/103 101/101/101
f 107/107/107 106/106/106 105/105/105
f 108/108/108 107/107/107 105/105/105
f 111/111/111 110/110/110 109/109/109
f 112/112/112 111/111/111 109/109/109
f 115/115/115 114/114/114 113/113/113
f 116/116/116 115/115/115 113/113/113
f 119/119/119 118/118/118 117/117/117
f 120/120/120 119/119/119 117/117/117
f 123/123/123 122/122/122 121/121/121
f 124/124/124 123/123/123 121/121/121
f 127/127/127 126/126/126 125/125/125
f 128/128/128 127/127/127 125/125/125
f 131/131/131 130/130/130 129/129/129
f 132/132/132 131/131/131 129/129/129
f 135/135/135 134/134/134 133/133/133
f 136/136/136 135/135/135 133/133/133
f 139/139/139 138/138/138 137/137/137
f 140/140/140 139/139/139 137/137/137
f 143/143/143 142/142/142 141/141/141
f 144/144/144 143/143/143 141/141/141
f 147/147/147 146/146/146 145/145/145
f 148/148/148 147/147/147 145/145/145
f 151/151/151 150/150/150 149/149/149
f 152/152/152 151/151/151 149/149/149
f 155/155/155 154/154/154 153/153/153
f 156/156/156 155/155/155 153/153/153
f 159/159/159 158/158/158 157/157/157
f 160/160/160 159/159/159 157/157/157
f 163/163/163 162/162/162 161/161/161
f 164/164/164 163/163/163 161/161/161
f 167/167/167 166/166/166 165/165/165
f 168/168/168 167/167/167 165/165/165
