g AshlarLadder
v 0.499999762 -0.5 0.5
v 0.499999762 0.5 0.5
v 0.499999762 0.5 0.374996334
v 0.499999762 -0.5 0.374996334
v 0.499999762 0.5 0.5
v 0.375 0.5 0.5
v 0.375 0.5 0.374996334
v 0.499999762 0.5 0.374996334
v 0.375 0.5 0.5
v 0.375 -0.5 0.5
v 0.375 -0.5 0.374996334
v 0.375 0.5 0.374996334
v 0.375 -0.5 0.5
v 0.499999762 -0.5 0.5
v 0.499999762 -0.5 0.374996334
v 0.375 -0.5 0.374996334
v 0.499999762 -0.5 0.374996334
v 0.499999762 0.5 0.374996334
v 0.375 0.5 0.374996334
v 0.375 -0.5 0.374996334
v 0.375 -0.5 0.5
v 0.375 0.5 0.5
v 0.499999762 0.5 0.5
v 0.499999762 -0.5 0.5
v -0.5 -0.5 0.5
v -0.5 0.5 0.5
v -0.375 0.5 0.5
v -0.375 -0.5 0.5
v -0.5 0.5 0.5
v -0.5 0.5 0.374996334
v -0.375 0.5 0.374996334
v -0.375 0.5 0.5
v -0.5 0.5 0.374996334
v -0.5 -0.5 0.374996334
v -0.375 -0.5 0.374996334
v -0.375 0.5 0.374996334
v -0.5 -0.5 0.374996334
v -0.5 -0.5 0.5
v -0.375 -0.5 0.5
v -0.375 -0.5 0.374996334
v -0.375 -0.5 0.5
v -0.375 0.5 0.5
v -0.375 0.5 0.374996334
v -0.375 -0.5 0.374996334
v -0.5 -0.5 0.374996334
v -0.5 0.5 0.374996334
v -0.5 0.5 0.5
v -0.5 -0.5 0.5
v 0.375 0.28125 0.498365462
v 0.375 0.21875 0.498365462
v -0.375 0.21875 0.498365462
v -0.375 0.28125 0.498365462
v 0.375 0.21875 0.498365462
v 0.375 0.21875 0.376630843
v -0.375 0.21875 0.376630843
v -0.375 0.21875 0.498365462
v 0.375 0.21875 0.376630843
v 0.375 0.28125 0.376630843
v -0.375 0.28125 0.376630843
v -0.375 0.21875 0.376630843
v 0.375 0.28125 0.376630843
v 0.375 0.28125 0.498365462
v -0.375 0.28125 0.498365462
v -0.375 0.28125 0.376630843
v 0.31250003 -0.187286645 0.46910581
v 0.375 -0.125 0.46910581
v 0.375 -0.375 0.46910581
v 0.31250003 -0.308067799 0.46910581
v -0.31250003 -0.308067799 0.46910581
v -0.31250003 -0.187286645 0.46910581
v -0.375 -0.375 0.46910581
v -0.375 -0.125 0.46910581
v 0.31250003 -0.187286645 0.405890495
v 0.375 -0.125 0.405890495
v 0.375 -0.125 0.46910581
v 0.31250003 -0.187286645 0.46910581
v -0.31250003 -0.187286645 0.46910581
v -0.31250003 -0.187286645 0.405890495
v -0.375 -0.125 0.46910581
v -0.375 -0.125 0.405890495
v 0.31250003 -0.308067799 0.405890495
v 0.375 -0.375 0.405890495
v 0.375 -0.125 0.405890495
v 0.31250003 -0.187286645 0.405890495
v -0.31250003 -0.187286645 0.405890495
v -0.31250003 -0.308067799 0.405890495
v -0.375 -0.125 0.405890495
v -0.375 -0.375 0.405890495
v 0.31250003 -0.308067799 0.46910581
v 0.375 -0.375 0.46910581
v 0.375 -0.375 0.405890495
v 0.31250003 -0.308067799 0.405890495
v -0.31250003 -0.308067799 0.405890495
v -0.31250003 -0.308067799 0.46910581
v -0.375 -0.375 0.405890495
v -0.375 -0.375 0.46910581
v -0.375 -0.28125 0.498365462
v -0.375 -0.21875 0.498365462
v 0.375 -0.21875 0.498365462
v 0.375 -0.28125 0.498365462
v -0.375 -0.21875 0.498365462
v -0.375 -0.21875 0.376630843
v 0.375 -0.21875 0.376630843
v 0.375 -0.21875 0.498365462
v -0.375 -0.21875 0.376630843
v -0.375 -0.28125 0.376630843
v 0.375 -0.28125 0.376630843
v 0.375 -0.21875 0.376630843
v -0.375 -0.28125 0.376630843
v -0.375 -0.28125 0.498365462
v 0.375 -0.28125 0.498365462
v 0.375 -0.28125 0.376630843
v -0.3125 0.1872866 0.46910581
v -0.375 0.125 0.46910581
v -0.375 0.37499994 0.46910581
v -0.3125 0.312500089 0.46910581
v 0.3125 0.31249994 0.46910581
v 0.3125 0.1872866 0.46910581
v 0.375 0.37499994 0.46910581
v 0.375 0.125 0.46910581
v -0.3125 0.1872866 0.405890495
v -0.375 0.125 0.405890495
v -0.375 0.125 0.46910581
v -0.3125 0.1872866 0.46910581
v 0.3125 0.1872866 0.46910581
v 0.3125 0.1872866 0.405890495
v 0.375 0.125 0.46910581
v 0.375 0.125 0.405890495
v -0.3125 0.312500089 0.405890495
v -0.375 0.37499994 0.405890495
v -0.375 0.125 0.405890495
v -0.3125 0.1872866 0.405890495
v 0.3125 0.1872866 0.405890495
v 0.3125 0.31249994 0.405890495
v 0.375 0.125 0.405890495
v 0.375 0.37499994 0.405890495
v -0.3125 0.312500089 0.46910581
v -0.375 0.37499994 0.46910581
v -0.375 0.37499994 0.405890495
v -0.3125 0.312500089 0.405890495
v 0.3125 0.31249994 0.405890495
v 0.3125 0.31249994 0.46910581
v 0.375 0.37499994 0.405890495
v 0.375 0.37499994 0.46910581
vt 0.97780472 0.0212530792
vt 0.97780472 0.0735431314
vt 0.984341264 0.0735431314
vt 0.984341264 0.0212530792
vt 0.975283861 0.0743957162
vt 0.968747616 0.0743957162
vt 0.968747616 0.0809321404
vt 0.975283861 0.0809321404
vt 0.97780472 0.0212530792
vt 0.97780472 0.0735431314
vt 0.984341264 0.0735431314
vt 0.984341264 0.0212530792
vt 0.975283861 0.0743956566
vt 0.968747616 0.0743956566
vt 0.968747616 0.0809321404
vt 0.975283861 0.0809321404
vt 0.984341145 0.0735432506
vt 0.984341145 0.02125296
vt 0.977804959 0.02125296
vt 0.977804959 0.0735432506
vt 0.984341145 0.0735432506
vt 0.984341145 0.02125296
vt 0.977804959 0.02125296
vt 0.977804959 0.0735432506
vt 0.977804959 0.02125296
vt 0.977804959 0.0735432506
vt 0.984341145 0.0735432506
vt 0.984341145 0.02125296
vt 0.97528398 0.0743957758
vt 0.968747616 0.0743957758
vt 0.968747497 0.0809320211
vt 0.97528398 0.0809320211
vt 0.977804959 0.02125296
vt 0.977804959 0.0735432506
vt 0.984341145 0.0735432506
vt 0.984341145 0.02125296
vt 0.97528398 0.0743957758
vt 0.968747497 0.0743957758
vt 0.968747497 0.0809320211
vt 0.97528398 0.0809320211
vt 0.984341264 0.0735431314
vt 0.984341264 0.0212530792
vt 0.97780484 0.0212530792
vt 0.97780484 0.0735431314
vt 0.984341264 0.0735431314
vt 0.984341264 0.0212530792
vt 0.97780484 0.0212530792
vt 0.97780484 0.0735431314
vt 0.854174614 0.477287382
vt 0.819251597 0.477287382
vt 0.819251597 0.816003382
vt 0.854174614 0.816003382
vt 0.989351749 0.402071685
vt 0.929943204 0.402071685
vt 0.929943204 0.813190162
vt 0.989351749 0.813190162
vt 0.854171813 0.47728768
vt 0.819248855 0.47728768
vt 0.819248855 0.81600368
vt 0.854171813 0.81600368
vt 0.989351749 0.402071685
vt 0.929943204 0.402071685
vt 0.929943204 0.813190162
vt 0.989351749 0.813190162
vt 0.98758322 0.454182804
vt 1.01587152 0.426502287
vt 0.903886676 0.426502526
vt 0.933392227 0.454183877
vt 0.933392227 0.731558263
vt 0.98758322 0.731555343
vt 0.903886676 0.759487271
vt 1.01587152 0.75948602
vt 0.973097682 0.435945541
vt 0.973097563 0.404702365
vt 0.948120654 0.404702365
vt 0.948120594 0.435945541
vt 0.948120594 0.749389648
vt 0.973097682 0.749389648
vt 0.948120654 0.781288385
vt 0.973097563 0.781288385
vt 0.933390021 0.731553614
vt 0.903884411 0.759487271
vt 1.01586914 0.75948602
vt 0.987581015 0.731550634
vt 0.987581015 0.454182535
vt 0.933390021 0.454183578
vt 1.01586914 0.426501423
vt 0.903884411 0.426501662
vt 0.948120594 0.435945541
vt 0.948120713 0.404702365
vt 0.973097622 0.404702365
vt 0.973097682 0.435945541
vt 0.973097682 0.749389648
vt 0.948120594 0.749389648
vt 0.973097622 0.781288385
vt 0.948120713 0.781288385
vt 0.854174614 0.477287382
vt 0.819251597 0.477287382
vt 0.819251597 0.816003382
vt 0.854174614 0.816003382
vt 0.989351749 0.402071685
vt 0.929943204 0.402071685
vt 0.929943204 0.813189983
vt 0.989351749 0.813189983
vt 0.854171813 0.477286518
vt 0.819248855 0.477286518
vt 0.819248855 0.816002667
vt 0.854171813 0.816002667
vt 0.989351749 0.402071685
vt 0.929943204 0.402071685
vt 0.929943204 0.813189983
vt 0.989351749 0.813189983
vt 0.932060122 0.731554747
vt 0.904353738 0.75949192
vt 1.01539707 0.75949204
vt 0.987672985 0.731554866
vt 0.987671971 0.454183847
vt 0.932059169 0.454183787
vt 1.01539564 0.426497966
vt 0.904352248 0.426497936
vt 0.973097682 0.749389648
vt 0.973097622 0.781288385
vt 0.948120713 0.781288385
vt 0.948120594 0.749389648
vt 0.948120594 0.435945541
vt 0.973097682 0.435945541
vt 0.948120713 0.404702365
vt 0.973097622 0.404702365
vt 0.932111681 0.731555939
vt 0.90435648 0.759490132
vt 1.01539981 0.759490013
vt 0.987724602 0.73155582
vt 0.98773247 0.454186738
vt 0.932119548 0.454186797
vt 1.01540136 0.426501662
vt 0.90435797 0.426501691
vt 0.948120594 0.749389648
vt 0.948120654 0.781288326
vt 0.973097563 0.781288326
vt 0.973097682 0.749389648
vt 0.973097682 0.435945421
vt 0.948120594 0.435945421
vt 0.973097622 0.404702365
vt 0.948120713 0.404702365
vn 1 0 0
vn 1 0 0
vn 1 0 0
vn 1 0 0
vn -0 1 0
vn -0 1 0
vn -0 1 0
vn -0 1 0
vn -1 0 0
vn -1 0 0
vn -1 0 0
vn -1 0 0
vn -0 -1 0
vn -0 -1 0
vn -0 -1 0
vn -0 -1 0
vn -0 0 -1
vn -0 0 -1
vn -0 0 -1
vn -0 0 -1
vn -0 0 1
vn -0 0 1
vn -0 0 1
vn -0 0 1
vn -0 0 1
vn -0 0 1
vn -0 0 1
vn -0 0 1
vn -0 1 0
vn -0 1 0
vn -0 1 0
vn -0 1 0
vn -0 0 -1
vn -0 0 -1
vn -0 0 -1
vn -0 0 -1
vn -0 -1 0
vn -0 -1 0
vn -0 -1 0
vn -0 -1 0
vn 1 0 0
vn 1 0 0
vn 1 0 0
vn 1 0 0
vn -1 0 0
vn -1 0 0
vn -1 0 0
vn -1 0 0
vn -0 0 1
vn -0 0 1
vn -0 0 1
vn -0 0 1
vn -0 -1 0
vn -0 -1 0
vn -0 -1 0
vn -0 -1 0
vn -0 0 -1
vn -0 0 -1
vn -0 0 -1
vn -0 0 -1
vn -0 1 0
vn -0 1 0
vn -0 1 0
vn -0 1 0
vn -3.94099771E-07 0 1
vn -2.10703934E-06 0 1
vn -2.10703934E-06 0 1
vn -3.9897634E-07 0 1
vn -0 0 1
vn -0 0 1
vn -0 0 1
vn -0 0 1
vn -0.0902292952 0.995921016 0
vn -0.70589751 0.708314002 0
vn -0.70589751 0.708314002 0
vn -0.0902292952 0.995921016 0
vn 0.0902292952 0.995921016 0
vn 0.0902292952 0.995921016 0
vn 0.70589751 0.708314002 0
vn 0.70589751 0.708314002 0
vn -0 0 -1
vn -0 0 -1
vn -0 0 -1
vn -0 0 -1
vn -0 0 -1
vn -0 0 -1
vn -0 0 -1
vn -0 0 -1
vn -0.0968974978 -0.995294392 0
vn -0.730891347 -0.682493925 0
vn -0.730891347 -0.682493925 0
vn -0.0968974978 -0.995294392 0
vn 0.0968974978 -0.995294392 0
vn 0.0968974978 -0.995294392 0
vn 0.730891347 -0.682493925 0
vn 0.730891347 -0.682493925 0
vn -0 0 1
vn -0 0 1
vn -0 0 1
vn -0 0 1
vn -0 1 0
vn -0 1 0
vn -0 1 0
vn -0 1 0
vn -0 0 -1
vn -0 0 -1
vn -0 0 -1
vn -0 0 -1
vn -0 -1 0
vn -0 -1 0
vn -0 -1 0
vn -0 -1 0
vn 1.14556212E-06 0 1
vn 6.24644326E-06 0 1
vn 6.24644417E-06 0 1
vn 1.14624129E-06 0 1
vn -1.52832217E-06 0 1
vn -1.52741643E-06 0 1
vn -8.32859678E-06 0 1
vn -8.32859587E-06 0 1
vn 0.0902287439 -0.995921016 0
vn 0.705895007 -0.708316505 0
vn 0.705895007 -0.708316505 0
vn 0.0902287439 -0.995921016 0
vn -0.0902287439 -0.995921016 0
vn -0.0902287439 -0.995921016 0
vn -0.705895007 -0.708316505 0
vn -0.705895007 -0.708316505 0
vn 1.14624129E-06 0 -1
vn 6.24644417E-06 0 -1
vn 6.24644326E-06 0 -1
vn 1.14556212E-06 0 -1
vn -1.52741643E-06 0 -1
vn -1.52832217E-06 0 -1
vn -8.32859587E-06 0 -1
vn -8.32859678E-06 0 -1
vn 0.0905358121 0.99589324 0
vn 0.707106233 0.707107306 0
vn 0.707106233 0.707107306 0
vn 0.0905358121 0.99589324 0
vn -0.0905354172 0.99589324 0
vn -0.0905354172 0.99589324 0
vn -0.707106233 0.707107306 0
vn -0.707106233 0.707107306 0
g AshlarLadder_0
f 3/3/3 2/2/2 1/1/1
f 4/4/4 3/3/3 1/1/1
f 7/7/7 6/6/6 5/5/5
f 8/8/8 7/7/7 5/5/5
f 11/11/11 10/10/10 9/9/9
f 12/12/12 11/11/11 9/9/9
f 15/15/15 14/14/14 13/13/13
f 16/16/16 15/15/15 13/13/13
f 19/19/19 18/18/18 17/17/17
f 20/20/20 19/19/19 17/17/17
f 23/23/23 22/22/22 21/21/21
f 24/24/24 23/23/23 21/21/21
f 27/27/27 26/26/26 25/25/25
f 28/28/28 27/27/27 25/25/25
f 31/31/31 30/30/30 29/29/29
f 32/32/32 31/31/31 29/29/29
f 35/35/35 34/34/34 33/33/33
f 36/36/36 35/35/35 33/33/33
f 39/39/39 38/38/38 37/37/37
f 40/40/40 39/39/39 37/37/37
f 43/43/43 42/42/42 41/41/41
f 44/44/44 43/43/43 41/41/41
f 47/47/47 46/46/46 45/45/45
f 48/48/48 47/47/47 45/45/45
f 51/51/51 50/50/50 49/49/49
f 52/52/52 51/51/51 49/49/49
f 55/55/55 54/54/54 53/53/53
f 56/56/56 55/55/55 53/53/53
f 59/59/59 58/58/58 57/57/57
f 60/60/60 59/59/59 57/57/57
f 63/63/63 62/62/62 61/61/61
f 64/64/64 63/63/63 61/61/61
f 67/67/67 66/66/66 65/65/65
f 68/68/68 67/67/67 65/65/65
f 68/68/68 65/65/65 69/69/69
f 65/65/65 70/70/70 69/69/69
f 69/69/69 70/70/70 71/71/71
f 70/70/70 72/72/72 71/71/71
f 75/75/75 74/74/74 73/73/73
f 76/76/76 75/75/75 73/73/73
f 77/77/77 76/76/76 73/73/73
f 78/78/78 77/77/77 73/73/73
f 77/77/77 78/78/78 79/79/79
f 78/78/78 80/80/80 79/79/79
f 83/83/83 82/82/82 81/81/81
f 84/84/84 83/83/83 81/81/81
f 85/85/85 84/84/84 81/81/81
f 86/86/86 85/85/85 81/81/81
f 85/85/85 86/86/86 87/87/87
f 86/86/86 88/88/88 87/87/87
f 91/91/91 90/90/90 89/89/89
f 92/92/92 91/91/91 89/89/89
f 93/93/93 92/92/92 89/89/89
f 94/94/94 93/93/93 89/89/89
f 93/93/93 94/94/94 95/95/95
f 94/94/94 96/96/96 95/95/95
f 99/99/99 98/98/98 97/97/97
f 100/100/100 99/99/99 97/97/97
f 103/103/103 102/102/102 101/101/101
f 104/104/104 103/103/103 101/101/101
f 107/107/107 106/106/106 105/105/105
f 108/108/108 107/107/107 105/105/105
f 111/111/111 110/110/110 109/109/109
f 112/112/112 111/111/111 109/109/109
f 115/115/115 114/114/114 113/113/113
f 116/116/116 115/115/115 113/113/113
f 116/116/116 113/113/113 117/117/117
f 113/113/113 118/118/118 117/117/117
f 117/117/117 118/118/118 119/119/119
f 118/118/118 120/120/120 119/119/119
f 123/123/123 122/122/122 121/121/121
f 124/124/124 123/123/123 121/121/121
f 125/125/125 124/124/124 121/121/121
f 126/126/126 125/125/125 121/121/121
f 125/125/125 126/126/126 127/127/127
f 126/126/126 128/128/128 127/127/127
f 131/131/131 130/130/130 129/129/129
f 132/132/132 131/131/131 129/129/129
f 133/133/133 132/132/132 129/129/129
f 134/134/134 133/133/133 129/129/129
f 133/133/133 134/134/134 135/135/135
f 134/134/134 136/136/136 135/135/135
f 139/139/139 138/138/138 137/137/137
f 140/140/140 139/139/139 137/137/137
f 141/141/141 140/140/140 137/137/137
f 142/142/142 141/141/141 137/137/137
f 141/141/141 142/142/142 143/143/143
f 142/142/142 144/144/144 143/143/143
