g Column_Top
v -0.5 0.5 0.5
v -0.5 0.5 -0.5
v 0.5 0.5 -0.5
v 0.5 0.5 0.5
v -0.5 0.5 -0.5
v -0.5 0.25 -0.5
v 0.5 0.25 -0.5
v 0.5 0.5 -0.5
v 0.5 0.5 -0.5
v 0.5 0.25 -0.5
v 0.5 0.25 0.5
v 0.5 0.5 0.5
v -0.5 0.25 0.5
v -0.5 0.5 0.5
v 0.5 0.5 0.5
v 0.5 0.25 0.5
v -0.5 0.5 0.5
v -0.5 0.25 0.5
v -0.5 0.25 -0.5
v -0.5 0.5 -0.5
v 0.5 0.25 -0.5
v -0.5 0.25 -0.5
v -0.5 0.25 0.5
v 0.5 0.25 0.5
v 0.25 0.25 0.433012694
v 1.90734859E-08 -0.5 0.5
v 1.90734859E-08 0.25 0.5
v 0.25 -0.5 0.433012694
v 0.433012694 0.25 0.249999925
v 0.433012694 -0.5 0.249999925
v 0.5 0.25 0
v 0.5 -0.5 0
v 0.433012635 0.25 -0.250000149
v 0.5 -0.5 0
v 0.5 0.25 0
v 0.433012635 -0.5 -0.250000149
v 0.249999955 0.25 -0.433012843
v 0.249999955 -0.5 -0.433012843
v -1.90734859E-08 0.25 -0.5
v -1.90734859E-08 -0.5 -0.5
v -0.433012635 0.25 0.25
v -0.5 -0.5 0
v -0.5 0.25 0
v -0.433012635 -0.5 0.25
v -0.249999955 0.25 0.433012694
v -0.249999955 -0.5 0.433012694
v 1.90734859E-08 0.25 0.5
v 1.90734859E-08 -0.5 0.5
v -0.25 0.25 -0.433012694
v -1.90734859E-08 -0.5 -0.5
v -1.90734859E-08 0.25 -0.5
v -0.25 -0.5 -0.433012694
v -0.433012694 0.25 -0.25
v -0.433012694 -0.5 -0.25
v -0.5 0.25 0
v -0.5 -0.5 0
vt 0.932132185 0.0257235412
vt 0.932132185 0.061642766
vt 0.968051434 0.061642766
vt 0.968051434 0.0257235412
vt 0.92929852 0.81345284
vt 0.98941946 0.81345284
vt 0.98941946 0.401231378
vt 0.92929852 0.401231378
vt 0.92929852 0.81345284
vt 0.98941958 0.81345284
vt 0.98941958 0.401231378
vt 0.92929852 0.401231378
vt 0.98941958 0.401231408
vt 0.929298639 0.401231408
vt 0.929298639 0.81345284
vt 0.98941958 0.81345284
vt 0.92929858 0.81345284
vt 0.98941958 0.81345284
vt 0.98941958 0.401231378
vt 0.92929858 0.401231378
vt 0.968051314 0.0257235169
vt 0.932132185 0.0257235169
vt 0.932132185 0.0616428256
vt 0.968051314 0.0616428256
vt 0.625737667 0.127224714
vt 0.69271642 0.321314037
vt 0.69271636 0.127224714
vt 0.625737667 0.321314067
vt 0.558758914 0.127224758
vt 0.558758974 0.321314096
vt 0.491780192 0.127224788
vt 0.491780281 0.321314156
vt 0.625737667 0.127224714
vt 0.69271642 0.321314037
vt 0.69271636 0.127224714
vt 0.625737667 0.321314067
vt 0.558758914 0.127224758
vt 0.558758974 0.321314096
vt 0.491780192 0.127224788
vt 0.491780281 0.321314156
vt 0.625737667 0.127224714
vt 0.69271642 0.321314037
vt 0.69271636 0.127224714
vt 0.625737667 0.321314067
vt 0.558758914 0.127224758
vt 0.558758974 0.321314096
vt 0.491780192 0.127224788
vt 0.491780281 0.321314156
vt 0.625737667 0.127224714
vt 0.69271642 0.321314037
vt 0.69271636 0.127224714
vt 0.625737667 0.321314067
vt 0.558758914 0.127224758
vt 0.558758974 0.321314096
vt 0.491780192 0.127224788
vt 0.491780281 0.321314156
vn -0 1 0
vn -0 1 0
vn -0 1 0
vn -0 1 0
vn -0 0 -1
vn -0 0 -1
vn -0 0 -1
vn -0 0 -1
vn 1 0 0
vn 1 0 0
vn 1 0 0
vn 1 0 0
vn -0 0 1
vn -0 0 1
vn -0 0 1
vn -0 0 1
vn -1 0 0
vn -1 0 0
vn -1 0 0
vn -1 0 0
vn -0 -1 0
vn -0 -1 0
vn -0 -1 0
vn -0 -1 0
vn 0.500000119 0 0.866025329
vn -0 0 1
vn -0 0 1
vn 0.500000119 0 0.866025329
vn 0.866025448 0 0.5
vn 0.866025448 0 0.5
vn 1 0 0
vn 1 0 0
vn 0.866025448 0 -0.499999911
vn 1 0 0
vn 1 0 0
vn 0.866025448 0 -0.499999911
vn 0.499999851 0 -0.866025507
vn 0.499999851 0 -0.866025507
vn -3.21211218E-07 0 -1
vn -3.21211218E-07 0 -1
vn -0.866025329 0 0.500000119
vn -1 0 0
vn -1 0 0
vn -0.866025329 0 0.500000119
vn -0.5 0 0.866025448
vn -0.5 0 0.866025448
vn -0 0 1
vn -0 0 1
vn -0.5 0 -0.866025448
vn -3.21211218E-07 0 -1
vn -3.21211218E-07 0 -1
vn -0.5 0 -0.866025448
vn -0.866025448 0 -0.5
vn -0.866025448 0 -0.5
vn -1 0 0
vn -1 0 0
g Column_Top_0
f 3/3/3 2/2/2 1/1/1
f 4/4/4 3/3/3 1/1/1
f 7/7/7 6/6/6 5/5/5
f 8/8/8 7/7/7 5/5/5
f 11/11/11 10/10/10 9/9/9
f 12/12/12 11/11/11 9/9/9
f 15/15/15 14/14/14 13/13/13
f 16/16/16 15/15/15 13/13/13
f 19/19/19 18/18/18 17/17/17
f 20/20/20 19/19/19 17/17/17
f 23/23/23 22/22/22 21/21/21
f 24/24/24 23/23/23 21/21/21
f 27/27/27 26/26/26 25/25/25
f 26/26/26 28/28/28 25/25/25
f 25/25/25 28/28/28 29/29/29
f 28/28/28 30/30/30 29/29/29
f 29/29/29 30/30/30 31/31/31
f 30/30/30 32/32/32 31/31/31
f 35/35/35 34/34/34 33/33/33
f 34/34/34 36/36/36 33/33/33
f 33/33/33 36/36/36 37/37/37
f 36/36/36 38/38/38 37/37/37
f 37/37/37 38/38/38 39/39/39
f 38/38/38 40/40/40 39/39/39
f 43/43/43 42/42/42 41/41/41
f 42/42/42 44/44/44 41/41/41
f 41/41/41 44/44/44 45/45/45
f 44/44/44 46/46/46 45/45/45
f 45/45/45 46/46/46 47/47/47
f 46/46/46 48/48/48 47/47/47
f 51/51/51 50/50/50 49/49/49
f 50/50/50 52/52/52 49/49/49
f 49/49/49 52/52/52 53/53/53
f 52/52/52 54/54/54 53/53/53
f 53/53/53 54/54/54 55/55/55
f 54/54/54 56/56/56 55/55/55
