g AsphaltCube_White
v -0.5 0.5 0.5
v 0.5 0.5 0.5
v 0.5 -0.5 0.5
v -0.5 -0.5 0.5
v -0.5 0.5 0.5
v -0.5 0.5 -0.5
v 0.5 0.5 0.5
v 0.5 0.5 -0.5
v 0.5 0.5 -0.5
v -0.5 0.5 -0.5
v -0.5 -0.5 -0.5
v 0.5 -0.5 -0.5
v -0.5 -0.5 -0.5
v -0.5 -0.5 0.5
v 0.5 -0.5 -0.5
v 0.5 -0.5 0.5
v 0.5 0.5 0.5
v 0.5 0.5 -0.5
v 0.5 -0.5 -0.5
v 0.5 -0.5 0.5
v -0.5 0.5 -0.5
v -0.5 0.5 0.5
v -0.5 -0.5 0.5
v -0.5 -0.5 -0.5
vt 0.945009172 0.0418040454
vt 0.951419473 0.0418040454
vt 0.951419473 0.0353938043
vt 0.945009172 0.0353938043
vt 0.830446064 0.0344513915
vt 0.830446064 0.0670253038
vt 0.863020062 0.0344513915
vt 0.863020062 0.0670253038
vt 0.951419473 0.0482142866
vt 0.945009172 0.0482142866
vt 0.945009172 0.0546245575
vt 0.951419473 0.0546245575
vt 0.945009172 0.0546245575
vt 0.945009172 0.0610347986
vt 0.951419473 0.0546245575
vt 0.951419473 0.0610347986
vt 0.951419473 0.0418040454
vt 0.957829654 0.0418040454
vt 0.957829654 0.0353938043
vt 0.951419473 0.0353938043
vt 0.938598931 0.0418040454
vt 0.945009172 0.0418040454
vt 0.945009172 0.0353938043
vt 0.938598931 0.0353938043
vn -0 0 1
vn -0 0 1
vn -0 0 1
vn -0 0 1
vn -0 1 0
vn -0 1 0
vn -0 1 0
vn -0 1 0
vn -0 0 -1
vn -0 0 -1
vn -0 0 -1
vn -0 0 -1
vn -0 -1 0
vn -0 -1 0
vn -0 -1 0
vn -0 -1 0
vn 1 0 0
vn 1 0 0
vn 1 0 0
vn 1 0 0
vn -1 0 0
vn -1 0 0
vn -1 0 0
vn -1 0 0
g AsphaltCube_White_0
f 3/3/3 2/2/2 1/1/1
f 1/1/1 4/4/4 3/3/3
f 7/7/7 6/6/6 5/5/5
f 7/7/7 8/8/8 6/6/6
f 11/11/11 10/10/10 9/9/9
f 9/9/9 12/12/12 11/11/11
f 15/15/15 14/14/14 13/13/13
f 15/15/15 16/16/16 14/14/14
f 19/19/19 18/18/18 17/17/17
f 17/17/17 20/20/20 19/19/19
f 23/23/23 22/22/22 21/21/21
f 21/21/21 24/24/24 23/23/23
