g BrickWindow
v -0.0615212582 -0.417275429 -0.453777879
v -0.0615212396 -0.417275429 -0.5
v -0.0615212433 0.45377776 -0.5
v -0.0615212582 0.45377776 -0.453777879
v -0.0615212582 0.45377776 -0.453777879
v 0.0600230768 0.45377776 -0.453777879
v 0.0600230768 -0.417275429 -0.453777879
v -0.0615212582 -0.417275429 -0.453777879
v 0.0600230768 0.45377776 -0.453777879
v 0.0600230768 0.45377776 -0.500001431
v 0.0600231104 -0.417275429 -0.5
v 0.0600230768 -0.417275429 -0.453777879
v -0.0615212135 0.45377776 0.453776419
v -0.0615212098 0.45377776 0.499999911
v -0.0615212098 -0.417275429 0.500000417
v -0.0615212135 -0.417275429 0.453776419
v -0.0615212135 -0.417275429 0.453776419
v 0.0600231141 -0.417275429 0.453776419
v 0.0600231104 0.45377776 0.453776419
v -0.0615212135 0.45377776 0.453776419
v 0.0600231141 -0.417275429 0.453776419
v 0.0600231215 -0.417275429 0.499999911
v 0.0600231141 0.45377776 0.49999851
v 0.0600231104 0.45377776 0.453776419
v -0.100047804 0.453778327 -0.5
v -0.100047804 0.500000417 -0.5
v -0.10004779 0.500002682 0.5
v -0.10004779 0.453778565 0.5
v 0.0600230582 0.453778565 0.5
v 0.0600230582 0.500002444 0.5
v 0.0600230433 0.500002265 -0.5
v 0.0600230433 0.453778327 -0.5
v -0.10004779 0.453778565 0.5
v 0.0600230582 0.453778565 0.5
v 0.0600230433 0.453778327 -0.5
v -0.100047804 0.453778327 -0.5
v 0.0600231215 -0.417275429 0.499999911
v -0.0615212098 -0.417275429 0.500000417
v -0.0615212098 0.45377776 0.499999911
v 0.0600231141 0.45377776 0.49999851
v 0.0600230768 0.45377776 -0.500001431
v -0.0615212433 0.45377776 -0.5
v -0.0615212396 -0.417275429 -0.5
v 0.0600231104 -0.417275429 -0.5
v -0.10004779 0.500002682 0.5
v -0.100047804 0.500000417 -0.5
v 0.0600230433 0.500002265 -0.5
v 0.0600230582 0.500002444 0.5
v -0.100047804 0.500000417 -0.5
v -0.100047804 0.453778327 -0.5
v 0.0600230433 0.453778327 -0.5
v 0.0600230433 0.500002265 -0.5
v 0.0600230582 0.500002444 0.5
v 0.0600230582 0.453778565 0.5
v -0.10004779 0.453778565 0.5
v -0.10004779 0.500002682 0.5
v 0.129083559 -0.5 0.5
v -0.129083559 -0.5 0.5
v -0.129083559 -0.417275548 0.5
v 0.129083559 -0.417275548 0.5
v -0.129083559 -0.5 0.5
v -0.129083589 -0.5 -0.5
v -0.129083589 -0.417275548 -0.5
v -0.129083559 -0.417275548 0.5
v -0.129083589 -0.5 -0.5
v 0.129083529 -0.5 -0.5
v 0.129083529 -0.417275548 -0.5
v -0.129083589 -0.417275548 -0.5
v 0.129083529 -0.5 -0.5
v 0.129083559 -0.5 0.5
v 0.129083559 -0.417275548 0.5
v 0.129083529 -0.417275548 -0.5
v -0.129083559 -0.5 0.5
v 0.129083559 -0.5 0.5
v 0.129083529 -0.5 -0.5
v -0.129083589 -0.5 -0.5
v -0.129083589 -0.417275548 -0.5
v 0.129083529 -0.417275548 -0.5
v 0.129083559 -0.417275548 0.5
v -0.129083559 -0.417275548 0.5
v -0.0488083772 -0.417275339 -0.453777879
v -0.0488083772 0.453778297 -0.453777879
v -0.0488083102 0.453778446 0.453776419
v -0.0488083102 -0.41727519 0.453776419
v 0.0139033897 0.453778297 -0.453777879
v 0.0139033897 -0.417275339 -0.453777879
v 0.0139034614 -0.41727519 0.453776419
v 0.0139034614 0.453778446 0.453776419
vt 0.929721177 0.250308484
vt 0.908639908 0.250308484
vt 0.908639908 0.633858562
vt 0.929721177 0.633858562
vt 0.941599965 0.633858562
vt 0.99771595 0.633858562
vt 0.997715831 0.250308484
vt 0.941599965 0.250308484
vt 0.908639908 0.633858562
vt 0.929721177 0.633858562
vt 0.929721177 0.250308484
vt 0.908639908 0.250308484
vt 0.908639908 0.633858562
vt 0.929721177 0.633858562
vt 0.929721177 0.250308484
vt 0.908639908 0.250308484
vt 0.941599965 0.250308484
vt 0.997716129 0.250308484
vt 0.997716129 0.633858562
vt 0.941599965 0.633858562
vt 0.929721177 0.250308484
vt 0.908639908 0.250308484
vt 0.908639908 0.633858562
vt 0.929721177 0.633858562
vt 0.921777427 0.235381663
vt 0.906200588 0.235381663
vt 0.906199932 0.662168622
vt 0.921777785 0.662168622
vt 0.921777785 0.662168622
vt 0.906200051 0.662168622
vt 0.906200051 0.23538357
vt 0.921777785 0.23538357
vt 0.942079246 0.662166715
vt 0.996023893 0.662166715
vt 0.996023893 0.23538138
vt 0.942079246 0.23538138
vt 0.997716129 0.250308484
vt 0.941599965 0.250308484
vt 0.941599965 0.633858562
vt 0.99771601 0.633858562
vt 0.997715831 0.633858562
vt 0.941599965 0.633858562
vt 0.941599965 0.250308484
vt 0.997715831 0.250308484
vt 0.942079246 0.662166715
vt 0.942079365 0.235381246
vt 0.996023893 0.235381246
vt 0.996023893 0.662166715
vt 0.993386209 0.364042521
vt 0.975444257 0.364042521
vt 0.975444198 0.301908374
vt 0.993386865 0.301908374
vt 0.975444198 0.301908433
vt 0.993386865 0.301908374
vt 0.993386984 0.364042521
vt 0.975444257 0.364042521
vt 0.756417394 0.133815423
vt 0.756417274 0.205968961
vt 0.779537559 0.205968961
vt 0.779537559 0.133815423
vt 0.785160899 0.185804263
vt 0.504923582 0.185804203
vt 0.504923582 0.205758944
vt 0.785160899 0.205758989
vt 0.779537559 0.205968961
vt 0.779537559 0.133815572
vt 0.756417274 0.133815572
vt 0.756417274 0.205968961
vt 0.504923582 0.205759063
vt 0.785160899 0.205759063
vt 0.785160899 0.185804263
vt 0.504923582 0.185804278
vt 0.785160899 0.235659704
vt 0.785160899 0.307813227
vt 0.504923582 0.307813406
vt 0.504923582 0.235659838
vt 0.504923582 0.235659838
vt 0.504923582 0.307813406
vt 0.785160899 0.307813227
vt 0.785160899 0.235659838
vt 0.779324889 0.123232484
vt 0.779324889 0.220770657
vt 0.892442942 0.220770657
vt 0.892442942 0.123232484
vt 0.77932483 0.123232484
vt 0.779324889 0.220770717
vt 0.892442942 0.220770717
vt 0.892442942 0.123232484
vn -1 0 -3.70105568E-07
vn -1 0 -3.70105568E-07
vn -1 0 -3.70105568E-07
vn -1 0 -3.70105568E-07
vn -0 0 1
vn -0 0 1
vn -0 0 1
vn -0 0 1
vn 1 0 2.77574856E-07
vn 1 0 2.77574856E-07
vn 1 0 2.77574856E-07
vn 1 0 2.77574856E-07
vn -1 0 0
vn -1 0 0
vn -1 0 0
vn -1 0 0
vn -0 0 -1
vn -0 0 -1
vn -0 0 -1
vn -0 0 -1
vn 1 0 0
vn 1 0 0
vn 1 0 0
vn 1 0 0
vn -1 0 0
vn -1 0 0
vn -1 0 0
vn -1 0 0
vn 1 0 0
vn 1 0 0
vn 1 0 0
vn 1 0 0
vn -0 -1 2.08616257E-07
vn -0 -1 2.08616257E-07
vn -0 -1 2.08616257E-07
vn -0 -1 2.08616257E-07
vn 8.09150606E-06 1.16116701E-06 1
vn 8.09150606E-06 1.16116701E-06 1
vn 8.09150606E-06 1.16116701E-06 1
vn 8.09150606E-06 1.16116701E-06 1
vn -5.88473085E-06 -7.91704679E-07 -1
vn -5.88473085E-06 -7.91704679E-07 -1
vn -5.88473085E-06 -7.91704679E-07 -1
vn -5.88473085E-06 -7.91704679E-07 -1
vn -5.21309812E-06 1 -1.1920929E-06
vn -5.21309812E-06 1 -1.1920929E-06
vn -5.21309812E-06 1 -1.1920929E-06
vn -5.21309812E-06 1 -1.1920929E-06
vn -0 0 -1
vn -0 0 -1
vn -0 0 -1
vn -0 0 -1
vn -0 0 1
vn -0 0 1
vn -0 0 1
vn -0 0 1
vn -0 0 1
vn -0 0 1
vn -0 0 1
vn -0 0 1
vn -1 0 0
vn -1 0 0
vn -1 0 0
vn -1 0 0
vn -0 0 -1
vn -0 0 -1
vn -0 0 -1
vn -0 0 -1
vn 1 0 0
vn 1 0 0
vn 1 0 0
vn 1 0 0
vn -0 -1 0
vn -0 -1 0
vn -0 -1 0
vn -0 -1 0
vn -0 1 0
vn -0 1 0
vn -0 1 0
vn -0 1 0
vn -1 0 0
vn -1 0 0
vn -1 0 0
vn -1 0 0
vn 1 0 0
vn 1 0 0
vn 1 0 0
vn 1 0 0
g BrickWindow_0
f 3/3/3 2/2/2 1/1/1
f 4/4/4 3/3/3 1/1/1
f 7/7/7 6/6/6 5/5/5
f 8/8/8 7/7/7 5/5/5
f 11/11/11 10/10/10 9/9/9
f 12/12/12 11/11/11 9/9/9
f 15/15/15 14/14/14 13/13/13
f 16/16/16 15/15/15 13/13/13
f 19/19/19 18/18/18 17/17/17
f 20/20/20 19/19/19 17/17/17
f 23/23/23 22/22/22 21/21/21
f 24/24/24 23/23/23 21/21/21
f 27/27/27 26/26/26 25/25/25
f 28/28/28 27/27/27 25/25/25
f 31/31/31 30/30/30 29/29/29
f 32/32/32 31/31/31 29/29/29
f 35/35/35 34/34/34 33/33/33
f 36/36/36 35/35/35 33/33/33
f 39/39/39 38/38/38 37/37/37
f 40/40/40 39/39/39 37/37/37
f 43/43/43 42/42/42 41/41/41
f 44/44/44 43/43/43 41/41/41
f 47/47/47 46/46/46 45/45/45
f 48/48/48 47/47/47 45/45/45
f 51/51/51 50/50/50 49/49/49
f 52/52/52 51/51/51 49/49/49
f 55/55/55 54/54/54 53/53/53
f 56/56/56 55/55/55 53/53/53
f 59/59/59 58/58/58 57/57/57
f 60/60/60 59/59/59 57/57/57
f 63/63/63 62/62/62 61/61/61
f 64/64/64 63/63/63 61/61/61
f 67/67/67 66/66/66 65/65/65
f 68/68/68 67/67/67 65/65/65
f 71/71/71 70/70/70 69/69/69
f 72/72/72 71/71/71 69/69/69
f 75/75/75 74/74/74 73/73/73
f 76/76/76 75/75/75 73/73/73
f 79/79/79 78/78/78 77/77/77
f 80/80/80 79/79/79 77/77/77
g BrickWindow_1
f 83/83/83 82/82/82 81/81/81
f 84/84/84 83/83/83 81/81/81
f 87/87/87 86/86/86 85/85/85
f 88/88/88 87/87/87 85/85/85
