g Wall
v -0.5 -0.50000006 0.187499925
v -0.5 0.49999994 0.187500075
v 0.5 0.49999994 0.187500075
v 0.5 -0.50000006 0.187499925
v -0.5 0.49999994 0.187500075
v -0.5 0.50000006 -0.187499925
v 0.5 0.50000006 -0.187499925
v 0.5 0.49999994 0.187500075
v -0.5 0.50000006 -0.187499925
v -0.5 -0.49999994 -0.187500075
v 0.5 -0.49999994 -0.187500075
v 0.5 0.50000006 -0.187499925
v -0.5 -0.49999994 -0.187500075
v -0.5 -0.50000006 0.187499925
v 0.5 -0.50000006 0.187499925
v 0.5 -0.49999994 -0.187500075
v 0.5 -0.50000006 0.187499925
v 0.5 0.49999994 0.187500075
v 0.5 0.50000006 -0.187499925
v 0.5 -0.49999994 -0.187500075
v -0.5 -0.49999994 -0.187500075
v -0.5 0.50000006 -0.187499925
v -0.5 0.49999994 0.187500075
v -0.5 -0.50000006 0.187499925
vt 0.848021686 0.046120584
vt 0.848021686 0.0513362885
vt 0.853236973 0.0513362885
vt 0.853236973 0.046120584
vt 0.0155668491 0.990080595
vt 0.0155666107 0.841221213
vt 0.412525833 0.841221392
vt 0.412525952 0.990080953
vt 0.848021686 0.046120584
vt 0.848021686 0.0513362885
vt 0.853236973 0.0513362885
vt 0.853236973 0.046120584
vt 0.0155667299 0.990080953
vt 0.0155668491 0.841221333
vt 0.412525833 0.841221392
vt 0.412526429 0.990080953
vt 0.835368693 0.0420951024
vt 0.835368693 0.0612333789
vt 0.84202081 0.0612333789
vt 0.84202081 0.0420951024
vt 0.835368693 0.0420951024
vt 0.835368693 0.0612333789
vt 0.84202081 0.0612333789
vt 0.84202081 0.0420951024
vn -0 -1.49011612E-07 1
vn -0 -1.49011612E-07 1
vn -0 -1.49011612E-07 1
vn -0 -1.49011612E-07 1
vn -0 1 2.38418579E-07
vn -0 1 2.38418579E-07
vn -0 1 2.38418579E-07
vn -0 1 2.38418579E-07
vn -0 1.49011612E-07 -1
vn -0 1.49011612E-07 -1
vn -0 1.49011612E-07 -1
vn -0 1.49011612E-07 -1
vn -0 -1 -2.38418579E-07
vn -0 -1 -2.38418579E-07
vn -0 -1 -2.38418579E-07
vn -0 -1 -2.38418579E-07
vn 1 0 0
vn 1 0 0
vn 1 0 0
vn 1 0 0
vn -1 0 0
vn -1 0 0
vn -1 0 0
vn -1 0 0
g Wall_0
f 3/3/3 2/2/2 1/1/1
f 4/4/4 3/3/3 1/1/1
f 7/7/7 6/6/6 5/5/5
f 8/8/8 7/7/7 5/5/5
f 11/11/11 10/10/10 9/9/9
f 12/12/12 11/11/11 9/9/9
f 15/15/15 14/14/14 13/13/13
f 16/16/16 15/15/15 13/13/13
f 19/19/19 18/18/18 17/17/17
f 20/20/20 19/19/19 17/17/17
f 23/23/23 22/22/22 21/21/21
f 24/24/24 23/23/23 21/21/21
