g FloorTwoEdge
v -0.5 -0.241832808 -0.375
v 0.5 -0.241832808 -0.37500304
v 0.5 0.241832808 -0.37500304
v -0.5 0.241832808 -0.375
v -0.5 -0.241832808 -0.5
v 0.5 -0.241832808 -0.5
v 0.5 -0.241832808 -0.37500304
v -0.5 -0.241832808 -0.375
v -0.5 -0.5 -0.5
v 0.5 -0.5 -0.5
v 0.5 -0.241832808 -0.5
v -0.5 -0.241832808 -0.5
v -0.5 0.241832808 -0.5
v 0.5 0.241832808 -0.5
v 0.5 0.5 -0.5
v -0.5 0.5 -0.5
v -0.5 -0.5 -0.375
v 0.5 -0.5 -0.37500304
v 0.5 -0.5 -0.5
v -0.5 -0.5 -0.5
v -0.5 0.5 -0.5
v 0.5 0.5 -0.5
v 0.5 0.5 -0.37500304
v -0.5 0.5 -0.375
v -0.5 0.241832808 -0.375
v 0.5 0.241832808 -0.37500304
v 0.5 0.241832808 -0.5
v -0.5 0.241832808 -0.5
v -0.5 -0.5 0.375003666
v 0.5 -0.5 0.375001222
v 0.5 -0.5 -0.37500304
v -0.5 -0.5 -0.375
v -0.5 0.5 -0.375
v 0.5 0.5 -0.37500304
v 0.5 0.5 0.375001222
v -0.5 0.5 0.375003666
v 0.5 -0.241832808 0.375
v -0.5 -0.241832808 0.37500304
v -0.5 0.241832808 0.37500304
v 0.5 0.241832808 0.375
v 0.5 -0.241832808 0.5
v -0.5 -0.241832808 0.5
v -0.5 -0.241832808 0.37500304
v 0.5 -0.241832808 0.375
v 0.5 -0.5 0.5
v -0.5 -0.5 0.5
v -0.5 -0.241832808 0.5
v 0.5 -0.241832808 0.5
v 0.5 0.241832808 0.5
v -0.5 0.241832808 0.5
v -0.5 0.5 0.5
v 0.5 0.5 0.5
v 0.5 -0.5 0.375001222
v -0.5 -0.5 0.375003666
v -0.5 -0.5 0.5
v 0.5 -0.5 0.5
v 0.5 0.5 0.5
v -0.5 0.5 0.5
v -0.5 0.5 0.375003666
v 0.5 0.5 0.375001222
v 0.5 0.241832808 0.375
v -0.5 0.241832808 0.37500304
v -0.5 0.241832808 0.5
v 0.5 0.241832808 0.5
v -0.128874511 -0.24183242 0.5
v -0.128874511 0.24183242 0.5
v 0.128874511 0.24183242 0.5
v 0.128874511 -0.24183242 0.5
v 0.128874511 -0.24183242 0.5
v 0.128874511 0.24183242 0.5
v 0.128874511 0.24183242 0.375004262
v 0.128874511 -0.24183242 0.375004262
v -0.128874511 -0.24183242 0.375004262
v -0.128874511 0.24183242 0.375004262
v -0.128874511 0.24183242 0.5
v -0.128874511 -0.24183242 0.5
v 0.128874511 -0.24183242 -0.5
v 0.128874511 0.24183242 -0.5
v -0.128874511 0.24183242 -0.5
v -0.128874511 -0.24183242 -0.5
v -0.128874511 -0.24183242 -0.5
v -0.128874511 0.24183242 -0.5
v -0.128874511 0.24183242 -0.375004262
v -0.128874511 -0.24183242 -0.375004262
v 0.128874511 -0.24183242 -0.375004262
v 0.128874511 0.24183242 -0.375004262
v 0.128874511 0.24183242 -0.5
v 0.128874511 -0.24183242 -0.5
vt 0.838716626 0.0499863103
vt 0.838715076 0.0457215086
vt 0.840916753 0.0457215086
vt 0.840918422 0.0499863103
vt 0.936175227 0.232134104
vt 0.936034739 0.651926994
vt 0.988500118 0.651963949
vt 0.988642454 0.232168511
vt 0.0271047279 0.303732455
vt 0.359852344 0.303729355
vt 0.35985297 0.193701208
vt 0.0271053612 0.193704307
vt 0.359855384 0.303735644
vt 0.0271029118 0.303732395
vt 0.027102543 0.193702728
vt 0.359855026 0.193705976
vt 0.988500595 0.651969492
vt 0.988652289 0.232119009
vt 0.936172307 0.232099891
vt 0.936019301 0.651950359
vt 0.936198235 0.232134476
vt 0.936017931 0.651966631
vt 0.988488138 0.652008533
vt 0.98867029 0.232173815
vt 0.988500595 0.651969612
vt 0.988652349 0.232119054
vt 0.936172247 0.23210001
vt 0.936019182 0.651950598
vt 0.957473993 0.046283491
vt 0.957473993 0.04831516
vt 0.96052146 0.04831516
vt 0.96052146 0.046283491
vt 0.957473993 0.046283491
vt 0.957473993 0.04831516
vt 0.96052146 0.04831516
vt 0.96052146 0.0462834761
vt 0.838716626 0.0499861613
vt 0.838720202 0.0457214639
vt 0.840921879 0.0457214639
vt 0.840918183 0.0499861613
vt 0.936174929 0.2321354
vt 0.936034441 0.651928246
vt 0.988500416 0.651962638
vt 0.988642752 0.232167214
vt 0.0271053091 0.303732246
vt 0.359852523 0.30372861
vt 0.359853178 0.193700463
vt 0.0271059573 0.193704113
vt 0.359855503 0.303735733
vt 0.0271028858 0.303732783
vt 0.027102517 0.193703175
vt 0.359855145 0.193706125
vt 0.988500595 0.651969433
vt 0.988652349 0.232118562
vt 0.936172247 0.232099712
vt 0.936019421 0.651950538
vt 0.936198056 0.232135609
vt 0.936017573 0.651968062
vt 0.988488495 0.652007699
vt 0.988670588 0.232172579
vt 0.988500595 0.651969612
vt 0.988652349 0.232119054
vt 0.936172247 0.23210001
vt 0.936019242 0.651950598
vt 0.8905285 0.38523525
vt 0.890528619 0.598915219
vt 0.984404802 0.5989151
vt 0.984404802 0.385235339
vt 0.311470389 0.852193356
vt 0.111735523 0.852193475
vt 0.111735284 0.905459523
vt 0.31147033 0.905459702
vt 0.31147033 0.852193356
vt 0.111735284 0.852193594
vt 0.111735284 0.905459642
vt 0.31147027 0.905459702
vt 0.8905285 0.38523525
vt 0.890528619 0.598915219
vt 0.984404802 0.5989151
vt 0.984404802 0.385235339
vt 0.311470389 0.852193356
vt 0.111735523 0.852193475
vt 0.111735284 0.905459523
vt 0.31147033 0.905459702
vt 0.31147033 0.852193356
vt 0.111735284 0.852193594
vt 0.111735284 0.905459642
vt 0.31147027 0.905459702
vn -2.82672067E-06 0 -1
vn -2.82672067E-06 0 -1
vn -2.82672067E-06 0 -1
vn -2.82672067E-06 0 -1
vn -0 1 0
vn -0 1 0
vn -0 1 0
vn -0 1 0
vn -0 0 -1
vn -0 0 -1
vn -0 0 -1
vn -0 0 -1
vn -0 0 -1
vn -0 0 -1
vn -0 0 -1
vn -0 0 -1
vn -0 -1 0
vn -0 -1 0
vn -0 -1 0
vn -0 -1 0
vn -0 1 0
vn -0 1 0
vn -0 1 0
vn -0 1 0
vn -0 -1 0
vn -0 -1 0
vn -0 -1 0
vn -0 -1 0
vn -0 -1 0
vn -0 -1 0
vn -0 -1 0
vn -0 -1 0
vn -0 1 0
vn -0 1 0
vn -0 1 0
vn -0 1 0
vn 3.23053837E-06 0 1
vn 3.23053837E-06 0 1
vn 3.23053837E-06 0 1
vn 3.23053837E-06 0 1
vn -0 1 0
vn -0 1 0
vn -0 1 0
vn -0 1 0
vn -0 0 1
vn -0 0 1
vn -0 0 1
vn -0 0 1
vn -0 0 1
vn -0 0 1
vn -0 0 1
vn -0 0 1
vn -0 -1 0
vn -0 -1 0
vn -0 -1 0
vn -0 -1 0
vn -0 1 0
vn -0 1 0
vn -0 1 0
vn -0 1 0
vn -0 -1 0
vn -0 -1 0
vn -0 -1 0
vn -0 -1 0
vn -0 0 1
vn -0 0 1
vn -0 0 1
vn -0 0 1
vn 1 0 0
vn 1 0 0
vn 1 0 0
vn 1 0 0
vn -1 0 0
vn -1 0 0
vn -1 0 0
vn -1 0 0
vn -0 0 -1
vn -0 0 -1
vn -0 0 -1
vn -0 0 -1
vn -1 0 0
vn -1 0 0
vn -1 0 0
vn -1 0 0
vn 1 0 0
vn 1 0 0
vn 1 0 0
vn 1 0 0
g FloorTwoEdge_0
f 3/3/3 2/2/2 1/1/1
f 4/4/4 3/3/3 1/1/1
f 7/7/7 6/6/6 5/5/5
f 8/8/8 7/7/7 5/5/5
f 11/11/11 10/10/10 9/9/9
f 12/12/12 11/11/11 9/9/9
f 15/15/15 14/14/14 13/13/13
f 16/16/16 15/15/15 13/13/13
f 19/19/19 18/18/18 17/17/17
f 20/20/20 19/19/19 17/17/17
f 23/23/23 22/22/22 21/21/21
f 24/24/24 23/23/23 21/21/21
f 27/27/27 26/26/26 25/25/25
f 28/28/28 27/27/27 25/25/25
f 31/31/31 30/30/30 29/29/29
f 32/32/32 31/31/31 29/29/29
f 35/35/35 34/34/34 33/33/33
f 36/36/36 35/35/35 33/33/33
f 39/39/39 38/38/38 37/37/37
f 40/40/40 39/39/39 37/37/37
f 43/43/43 42/42/42 41/41/41
f 44/44/44 43/43/43 41/41/41
f 47/47/47 46/46/46 45/45/45
f 48/48/48 47/47/47 45/45/45
f 51/51/51 50/50/50 49/49/49
f 52/52/52 51/51/51 49/49/49
f 55/55/55 54/54/54 53/53/53
f 56/56/56 55/55/55 53/53/53
f 59/59/59 58/58/58 57/57/57
f 60/60/60 59/59/59 57/57/57
f 63/63/63 62/62/62 61/61/61
f 64/64/64 63/63/63 61/61/61
f 67/67/67 66/66/66 65/65/65
f 68/68/68 67/67/67 65/65/65
f 71/71/71 70/70/70 69/69/69
f 72/72/72 71/71/71 69/69/69
f 75/75/75 74/74/74 73/73/73
f 76/76/76 75/75/75 73/73/73
f 79/79/79 78/78/78 77/77/77
f 80/80/80 79/79/79 77/77/77
f 83/83/83 82/82/82 81/81/81
f 84/84/84 83/83/83 81/81/81
f 87/87/87 86/86/86 85/85/85
f 88/88/88 87/87/87 85/85/85
