g RoofCubeBlank
v -0.5 -0.5 0.5
v -0.5 0.5 0.5
v 0.5 0.5 0.5
v 0.5 -0.5 0.5
v -0.5 0.5 0.5
v -0.5 0.5 -0.5
v 0.5 0.5 -0.5
v 0.5 0.5 0.5
v -0.5 0.5 -0.5
v -0.5 -0.5 -0.5
v 0.5 -0.5 -0.5
v 0.5 0.5 -0.5
v -0.5 -0.5 -0.5
v -0.5 -0.5 0.5
v 0.5 -0.5 0.5
v 0.5 -0.5 -0.5
v 0.5 -0.5 0.5
v 0.5 0.5 0.5
v 0.5 0.5 -0.5
v 0.5 -0.5 -0.5
v -0.5 -0.5 -0.5
v -0.5 0.5 -0.5
v -0.5 0.5 0.5
v -0.5 -0.5 0.5
vt 0.845146775 0.0462066233
vt 0.847788811 0.0462066233
vt 0.847788811 0.0435646325
vt 0.845146775 0.0435646325
vt 0.949758887 0.045103848
vt 0.949740052 0.045103848
vt 0.949740052 0.0451227129
vt 0.949758887 0.0451227129
vt 0.847828984 0.0462066829
vt 0.850470901 0.0462066829
vt 0.850470901 0.0435646325
vt 0.847828984 0.0435646325
vt 0.949743152 0.0450848341
vt 0.949724078 0.0450848341
vt 0.949724078 0.0451037288
vt 0.949743152 0.0451037288
vt 0.848334908 0.0462299883
vt 0.848334908 0.0488720536
vt 0.850977063 0.0488720536
vt 0.850977063 0.0462299883
vt 0.84565711 0.0462300777
vt 0.84565711 0.0488721132
vt 0.848299146 0.0488721132
vt 0.848299146 0.0462300777
vn -0 0 1
vn -0 0 1
vn -0 0 1
vn -0 0 1
vn -0 1 0
vn -0 1 0
vn -0 1 0
vn -0 1 0
vn -0 0 -1
vn -0 0 -1
vn -0 0 -1
vn -0 0 -1
vn -0 -1 0
vn -0 -1 0
vn -0 -1 0
vn -0 -1 0
vn 1 0 0
vn 1 0 0
vn 1 0 0
vn 1 0 0
vn -1 0 0
vn -1 0 0
vn -1 0 0
vn -1 0 0
g RoofCubeBlank_0
f 3/3/3 2/2/2 1/1/1
f 4/4/4 3/3/3 1/1/1
f 7/7/7 6/6/6 5/5/5
f 8/8/8 7/7/7 5/5/5
f 11/11/11 10/10/10 9/9/9
f 12/12/12 11/11/11 9/9/9
f 15/15/15 14/14/14 13/13/13
f 16/16/16 15/15/15 13/13/13
f 19/19/19 18/18/18 17/17/17
f 20/20/20 19/19/19 17/17/17
f 23/23/23 22/22/22 21/21/21
f 24/24/24 23/23/23 21/21/21
