g FloorSolo
v -0.37500304 -0.241832808 -0.375
v 0.375 -0.241832808 -0.37500304
v 0.375 0.241832808 -0.37500304
v -0.37500304 0.241832808 -0.375
v -0.5 -0.241832808 -0.5
v 0.5 -0.241832808 -0.5
v 0.375 -0.241832808 -0.37500304
v -0.37500304 -0.241832808 -0.375
v -0.5 -0.5 -0.5
v 0.5 -0.5 -0.5
v 0.5 -0.241832808 -0.5
v -0.5 -0.241832808 -0.5
v -0.5 0.241832808 -0.5
v 0.5 0.241832808 -0.5
v 0.5 0.5 -0.5
v -0.5 0.5 -0.5
v -0.375004262 -0.5 -0.375
v 0.375 -0.5 -0.37500304
v 0.5 -0.5 -0.5
v -0.5 -0.5 -0.5
v -0.5 0.5 -0.5
v 0.5 0.5 -0.5
v 0.375 0.5 -0.37500304
v -0.375004262 0.5 -0.375
v -0.37500304 0.241832808 -0.375
v 0.375 0.241832808 -0.37500304
v 0.5 0.241832808 -0.5
v -0.5 0.241832808 -0.5
v -0.375 -0.241832808 0.375003666
v -0.37500304 -0.241832808 -0.375
v -0.37500304 0.241832808 -0.375
v -0.375 0.241832808 0.375003666
v -0.5 -0.241832808 0.5
v -0.5 -0.241832808 -0.5
v -0.37500304 -0.241832808 -0.375
v -0.375 -0.241832808 0.375003666
v -0.5 -0.5 0.5
v -0.5 -0.5 -0.5
v -0.5 -0.241832808 -0.5
v -0.5 -0.241832808 0.5
v -0.5 0.241832808 0.5
v -0.5 0.241832808 -0.5
v -0.5 0.5 -0.5
v -0.5 0.5 0.5
v -0.375 -0.5 0.375004262
v -0.375004262 -0.5 -0.375
v -0.5 -0.5 -0.5
v -0.5 -0.5 0.5
v -0.5 0.5 0.5
v -0.5 0.5 -0.5
v -0.375004262 0.5 -0.375
v -0.375 0.5 0.375004262
v -0.375 0.241832808 0.375003666
v -0.37500304 0.241832808 -0.375
v -0.5 0.241832808 -0.5
v -0.5 0.241832808 0.5
v 0.37500304 -0.241832808 0.375
v -0.375 -0.241832808 0.375003666
v -0.375 0.241832808 0.375003666
v 0.37500304 0.241832808 0.375
v 0.5 -0.241832808 0.5
v -0.5 -0.241832808 0.5
v -0.375 -0.241832808 0.375003666
v 0.37500304 -0.241832808 0.375
v 0.5 -0.5 0.5
v -0.5 -0.5 0.5
v -0.5 -0.241832808 0.5
v 0.5 -0.241832808 0.5
v 0.5 0.241832808 0.5
v -0.5 0.241832808 0.5
v -0.5 0.5 0.5
v 0.5 0.5 0.5
v 0.37500304 -0.5 0.375001222
v -0.375 -0.5 0.375004262
v -0.5 -0.5 0.5
v 0.5 -0.5 0.5
v 0.5 0.5 0.5
v -0.5 0.5 0.5
v -0.375 0.5 0.375004262
v 0.37500304 0.5 0.375001222
v 0.37500304 0.241832808 0.375
v -0.375 0.241832808 0.375003666
v -0.5 0.241832808 0.5
v 0.5 0.241832808 0.5
v 0.375 -0.241832808 -0.37500304
v 0.37500304 -0.241832808 0.375
v 0.37500304 0.241832808 0.375
v 0.375 0.241832808 -0.37500304
v 0.5 -0.241832808 -0.5
v 0.5 -0.241832808 0.5
v 0.37500304 -0.241832808 0.375
v 0.375 -0.241832808 -0.37500304
v 0.5 -0.5 -0.5
v 0.5 -0.5 0.5
v 0.5 -0.241832808 0.5
v 0.5 -0.241832808 -0.5
v 0.5 0.241832808 -0.5
v 0.5 0.241832808 0.5
v 0.5 0.5 0.5
v 0.5 0.5 -0.5
v 0.375 -0.5 -0.37500304
v 0.37500304 -0.5 0.375001222
v 0.5 -0.5 0.5
v 0.5 -0.5 -0.5
v 0.5 0.5 -0.5
v 0.5 0.5 0.5
v 0.37500304 0.5 0.375001222
v 0.375 0.5 -0.37500304
v 0.375 0.241832808 -0.37500304
v 0.37500304 0.241832808 0.375
v 0.5 0.241832808 0.5
v 0.5 0.241832808 -0.5
v -0.375 -0.5 0.375004262
v 0.37500304 -0.5 0.375001222
v 0.375 -0.5 -0.37500304
v -0.375004262 -0.5 -0.375
v -0.375004262 0.5 -0.375
v 0.375 0.5 -0.37500304
v 0.37500304 0.5 0.375001222
v -0.375 0.5 0.375004262
v -0.128875121 -0.24183242 0.5
v -0.128875121 0.24183242 0.5
v 0.128875121 0.24183242 0.5
v 0.128875121 -0.24183242 0.5
v 0.128875121 -0.24183242 0.5
v 0.128875121 0.24183242 0.5
v 0.128875121 0.24183242 0.375004262
v 0.128875121 -0.24183242 0.375004262
v -0.128875121 -0.24183242 0.375004262
v -0.128875121 0.24183242 0.375004262
v -0.128875121 0.24183242 0.5
v -0.128875121 -0.24183242 0.5
v -0.5 -0.24183242 -0.128875121
v -0.5 0.24183242 -0.128875121
v -0.5 0.24183242 0.128875121
v -0.5 -0.24183242 0.128875121
v -0.5 -0.24183242 0.128875121
v -0.5 0.24183242 0.128875121
v -0.375004262 0.24183242 0.128875121
v -0.375004262 -0.24183242 0.128875121
v -0.375004262 -0.24183242 -0.128875121
v -0.375004262 0.24183242 -0.128875121
v -0.5 0.24183242 -0.128875121
v -0.5 -0.24183242 -0.128875121
v 0.128875121 -0.24183242 -0.5
v 0.128875121 0.24183242 -0.5
v -0.128875121 0.24183242 -0.5
v -0.128875121 -0.24183242 -0.5
v -0.128875121 -0.24183242 -0.5
v -0.128875121 0.24183242 -0.5
v -0.128875121 0.24183242 -0.375004262
v -0.128875121 -0.24183242 -0.375004262
v 0.128875121 -0.24183242 -0.375004262
v 0.128875121 0.24183242 -0.375004262
v 0.128875121 0.24183242 -0.5
v 0.128875121 -0.24183242 -0.5
v 0.5 -0.24183242 0.128875121
v 0.5 0.24183242 0.128875121
v 0.5 0.24183242 -0.128875121
v 0.5 -0.24183242 -0.128875121
v 0.5 -0.24183242 -0.128875121
v 0.5 0.24183242 -0.128875121
v 0.375004262 0.24183242 -0.128875121
v 0.375004262 -0.24183242 -0.128875121
v 0.375004262 -0.24183242 0.128875121
v 0.375004262 0.24183242 0.128875121
v 0.5 0.24183242 0.128875121
v 0.5 -0.24183242 0.128875121
vt 0.42757836 0.992095172
vt 0.42757836 0.689281523
vt 0.605966151 0.689281523
vt 0.605966151 0.992095172
vt 0.936176717 0.232127771
vt 0.936033249 0.65193361
vt 0.988515615 0.599498749
vt 0.98862803 0.284627706
vt 0.0271054618 0.303732902
vt 0.359852701 0.303729296
vt 0.359853357 0.193701118
vt 0.0271060951 0.193704724
vt 0.359855711 0.303736389
vt 0.0271025021 0.303732902
vt 0.0271021333 0.193703234
vt 0.359855354 0.193706721
vt 0.988519669 0.599489987
vt 0.988633275 0.284600288
vt 0.936172307 0.232099891
vt 0.936019242 0.651950359
vt 0.936199665 0.232128114
vt 0.9360165 0.651973248
vt 0.988508701 0.599538445
vt 0.988650918 0.284637362
vt 0.988519788 0.59948951
vt 0.988633275 0.284600407
vt 0.936172247 0.23210004
vt 0.936019182 0.651950538
vt 0.42757836 0.992095172
vt 0.42757836 0.689281523
vt 0.605966508 0.689281523
vt 0.60596621 0.992095172
vt 0.936178267 0.232116386
vt 0.936012566 0.651973784
vt 0.988504648 0.599534035
vt 0.988633513 0.28462407
vt 0.0271043237 0.3037256
vt 0.359856129 0.303730786
vt 0.359854937 0.193703368
vt 0.0271031465 0.193698198
vt 0.359856069 0.303730279
vt 0.0271047298 0.303729564
vt 0.0271039587 0.193702027
vt 0.359855294 0.193702757
vt 0.988520145 0.599490345
vt 0.98863256 0.28459993
vt 0.936172009 0.232099414
vt 0.936019719 0.651950836
vt 0.936199844 0.232128575
vt 0.936015546 0.651975095
vt 0.988507986 0.599539042
vt 0.988651395 0.284636885
vt 0.988519788 0.599489629
vt 0.988633037 0.284600347
vt 0.936172187 0.232099995
vt 0.936019301 0.651950419
vt 0.42757836 0.689281523
vt 0.42757836 0.992095172
vt 0.605966151 0.992095172
vt 0.605966151 0.689281523
vt 0.936151981 0.232044891
vt 0.936000347 0.651996613
vt 0.988502026 0.599543691
vt 0.988620758 0.284563154
vt 0.0271050632 0.3037301
vt 0.359854579 0.303732187
vt 0.359854877 0.193707094
vt 0.0271053612 0.193705007
vt 0.359854072 0.303735107
vt 0.027102638 0.303732783
vt 0.0271024667 0.193703607
vt 0.359853894 0.193705946
vt 0.988519907 0.599490345
vt 0.98863256 0.284599572
vt 0.936172068 0.232098967
vt 0.936019838 0.651951551
vt 0.936189115 0.232105494
vt 0.93601954 0.651967764
vt 0.988512039 0.599528193
vt 0.988643885 0.284614831
vt 0.988520026 0.599489748
vt 0.988632798 0.284600168
vt 0.936172187 0.232099742
vt 0.936019659 0.651950836
vt 0.42757836 0.689281523
vt 0.42757836 0.992095172
vt 0.60596621 0.992095172
vt 0.605966508 0.689281523
vt 0.936154723 0.232076183
vt 0.936033189 0.651933432
vt 0.988519192 0.599489808
vt 0.988615036 0.284580082
vt 0.0271069445 0.303736717
vt 0.359855384 0.303732365
vt 0.359855235 0.193700373
vt 0.0271068029 0.193704739
vt 0.359858394 0.303736299
vt 0.0271047354 0.303733528
vt 0.027104035 0.193706051
vt 0.359857708 0.193708837
vt 0.988519192 0.599489748
vt 0.988633513 0.284600228
vt 0.936172962 0.232100189
vt 0.936018825 0.651950479
vt 0.936199069 0.232127622
vt 0.936016977 0.651972592
vt 0.988509178 0.599538565
vt 0.988650441 0.2846376
vt 0.988519788 0.59948951
vt 0.988633275 0.284600407
vt 0.936172247 0.232100025
vt 0.936019182 0.651950538
vt 0.957473993 0.0465374514
vt 0.957473993 0.0480612144
vt 0.96052146 0.0480612144
vt 0.96052146 0.0465374514
vt 0.957473993 0.0465374514
vt 0.957473993 0.0480612144
vt 0.96052146 0.0480612144
vt 0.96052146 0.0465374514
vt 0.8905285 0.38523525
vt 0.890528619 0.598915219
vt 0.984404802 0.5989151
vt 0.984404802 0.385235339
vt 0.311470389 0.852193356
vt 0.111735523 0.852193475
vt 0.111735284 0.905459523
vt 0.31147033 0.905459702
vt 0.31147033 0.852193356
vt 0.111735284 0.852193594
vt 0.111735284 0.905459642
vt 0.31147027 0.905459702
vt 0.8905285 0.38523525
vt 0.890528619 0.598915219
vt 0.984404802 0.5989151
vt 0.984404802 0.385235339
vt 0.311470389 0.852193356
vt 0.111735523 0.852193475
vt 0.111735284 0.905459523
vt 0.31147033 0.905459702
vt 0.31147033 0.852193356
vt 0.111735284 0.852193594
vt 0.111735284 0.905459642
vt 0.31147027 0.905459702
vt 0.8905285 0.38523525
vt 0.890528619 0.598915219
vt 0.984404802 0.5989151
vt 0.984404802 0.385235339
vt 0.311470389 0.852193356
vt 0.111735523 0.852193475
vt 0.111735284 0.905459523
vt 0.31147033 0.905459702
vt 0.31147033 0.852193356
vt 0.111735284 0.852193594
vt 0.111735284 0.905459642
vt 0.31147027 0.905459702
vt 0.8905285 0.38523525
vt 0.890528619 0.598915219
vt 0.984404802 0.5989151
vt 0.984404802 0.385235339
vt 0.311470389 0.852193356
vt 0.111735523 0.852193475
vt 0.111735284 0.905459523
vt 0.31147033 0.905459702
vt 0.31147033 0.852193356
vt 0.111735284 0.852193594
vt 0.111735284 0.905459642
vt 0.31147027 0.905459702
vn -3.76894491E-06 0 -1
vn -3.76894491E-06 0 -1
vn -3.76894491E-06 0 -1
vn -3.76894491E-06 0 -1
vn -0 1 0
vn -0 1 0
vn -0 1 0
vn -0 1 0
vn -0 0 -1
vn -0 0 -1
vn -0 0 -1
vn -0 0 -1
vn -0 0 -1
vn -0 0 -1
vn -0 0 -1
vn -0 0 -1
vn -0 -1 0
vn -0 -1 0
vn -0 -1 0
vn -0 -1 0
vn -0 1 0
vn -0 1 0
vn -0 1 0
vn -0 1 0
vn -0 -1 0
vn -0 -1 0
vn -0 -1 0
vn -0 -1 0
vn -1 0 4.06899107E-06
vn -1 0 4.06899107E-06
vn -1 0 4.06899107E-06
vn -1 0 4.06899107E-06
vn -0 1 0
vn -0 1 0
vn -0 1 0
vn -0 1 0
vn -1 0 0
vn -1 0 0
vn -1 0 0
vn -1 0 0
vn -1 0 0
vn -1 0 0
vn -1 0 0
vn -1 0 0
vn -0 -1 0
vn -0 -1 0
vn -0 -1 0
vn -0 -1 0
vn -0 1 0
vn -0 1 0
vn -0 1 0
vn -0 1 0
vn -0 -1 0
vn -0 -1 0
vn -0 -1 0
vn -0 -1 0
vn 4.84578641E-06 0 1
vn 4.84578641E-06 0 1
vn 4.84578641E-06 0 1
vn 4.84578641E-06 0 1
vn -0 1 0
vn -0 1 0
vn -0 1 0
vn -0 1 0
vn -0 0 1
vn -0 0 1
vn -0 0 1
vn -0 0 1
vn -0 0 1
vn -0 0 1
vn -0 0 1
vn -0 0 1
vn -0 -1 0
vn -0 -1 0
vn -0 -1 0
vn -0 -1 0
vn -0 1 0
vn -0 1 0
vn -0 1 0
vn -0 1 0
vn -0 -1 0
vn -0 -1 0
vn -0 -1 0
vn -0 -1 0
vn 1 0 -4.06899517E-06
vn 1 0 -4.06899517E-06
vn 1 0 -4.06899517E-06
vn 1 0 -4.06899517E-06
vn -0 1 0
vn -0 1 0
vn -0 1 0
vn -0 1 0
vn 1 0 0
vn 1 0 0
vn 1 0 0
vn 1 0 0
vn 1 0 0
vn 1 0 0
vn 1 0 0
vn 1 0 0
vn -0 -1 0
vn -0 -1 0
vn -0 -1 0
vn -0 -1 0
vn -0 1 0
vn -0 1 0
vn -0 1 0
vn -0 1 0
vn -0 -1 0
vn -0 -1 0
vn -0 -1 0
vn -0 -1 0
vn -0 -1 0
vn -0 -1 0
vn -0 -1 0
vn -0 -1 0
vn -0 1 0
vn -0 1 0
vn -0 1 0
vn -0 1 0
vn -0 0 1
vn -0 0 1
vn -0 0 1
vn -0 0 1
vn 1 0 0
vn 1 0 0
vn 1 0 0
vn 1 0 0
vn -1 0 0
vn -1 0 0
vn -1 0 0
vn -1 0 0
vn -1 0 0
vn -1 0 0
vn -1 0 0
vn -1 0 0
vn -0 0 1
vn -0 0 1
vn -0 0 1
vn -0 0 1
vn -0 0 -1
vn -0 0 -1
vn -0 0 -1
vn -0 0 -1
vn -0 0 -1
vn -0 0 -1
vn -0 0 -1
vn -0 0 -1
vn -1 0 0
vn -1 0 0
vn -1 0 0
vn -1 0 0
vn 1 0 0
vn 1 0 0
vn 1 0 0
vn 1 0 0
vn 1 0 0
vn 1 0 0
vn 1 0 0
vn 1 0 0
vn -0 0 -1
vn -0 0 -1
vn -0 0 -1
vn -0 0 -1
vn -0 0 1
vn -0 0 1
vn -0 0 1
vn -0 0 1
g FloorSolo_0
f 3/3/3 2/2/2 1/1/1
f 4/4/4 3/3/3 1/1/1
f 7/7/7 6/6/6 5/5/5
f 8/8/8 7/7/7 5/5/5
f 11/11/11 10/10/10 9/9/9
f 12/12/12 11/11/11 9/9/9
f 15/15/15 14/14/14 13/13/13
f 16/16/16 15/15/15 13/13/13
f 19/19/19 18/18/18 17/17/17
f 20/20/20 19/19/19 17/17/17
f 23/23/23 22/22/22 21/21/21
f 24/24/24 23/23/23 21/21/21
f 27/27/27 26/26/26 25/25/25
f 28/28/28 27/27/27 25/25/25
f 31/31/31 30/30/30 29/29/29
f 32/32/32 31/31/31 29/29/29
f 35/35/35 34/34/34 33/33/33
f 36/36/36 35/35/35 33/33/33
f 39/39/39 38/38/38 37/37/37
f 40/40/40 39/39/39 37/37/37
f 43/43/43 42/42/42 41/41/41
f 44/44/44 43/43/43 41/41/41
f 47/47/47 46/46/46 45/45/45
f 48/48/48 47/47/47 45/45/45
f 51/51/51 50/50/50 49/49/49
f 52/52/52 51/51/51 49/49/49
f 55/55/55 54/54/54 53/53/53
f 56/56/56 55/55/55 53/53/53
f 59/59/59 58/58/58 57/57/57
f 60/60/60 59/59/59 57/57/57
f 63/63/63 62/62/62 61/61/61
f 64/64/64 63/63/63 61/61/61
f 67/67/67 66/66/66 65/65/65
f 68/68/68 67/67/67 65/65/65
f 71/71/71 70/70/70 69/69/69
f 72/72/72 71/71/71 69/69/69
f 75/75/75 74/74/74 73/73/73
f 76/76/76 75/75/75 73/73/73
f 79/79/79 78/78/78 77/77/77
f 80/80/80 79/79/79 77/77/77
f 83/83/83 82/82/82 81/81/81
f 84/84/84 83/83/83 81/81/81
f 87/87/87 86/86/86 85/85/85
f 88/88/88 87/87/87 85/85/85
f 91/91/91 90/90/90 89/89/89
f 92/92/92 91/91/91 89/89/89
f 95/95/95 94/94/94 93/93/93
f 96/96/96 95/95/95 93/93/93
f 99/99/99 98/98/98 97/97/97
f 100/100/100 99/99/99 97/97/97
f 103/103/103 102/102/102 101/101/101
f 104/104/104 103/103/103 101/101/101
f 107/107/107 106/106/106 105/105/105
f 108/108/108 107/107/107 105/105/105
f 111/111/111 110/110/110 109/109/109
f 112/112/112 111/111/111 109/109/109
f 115/115/115 114/114/114 113/113/113
f 116/116/116 115/115/115 113/113/113
f 119/119/119 118/118/118 117/117/117
f 120/120/120 119/119/119 117/117/117
f 123/123/123 122/122/122 121/121/121
f 124/124/124 123/123/123 121/121/121
f 127/127/127 126/126/126 125/125/125
f 128/128/128 127/127/127 125/125/125
f 131/131/131 130/130/130 129/129/129
f 132/132/132 131/131/131 129/129/129
f 135/135/135 134/134/134 133/133/133
f 136/136/136 135/135/135 133/133/133
f 139/139/139 138/138/138 137/137/137
f 140/140/140 139/139/139 137/137/137
f 143/143/143 142/142/142 141/141/141
f 144/144/144 143/143/143 141/141/141
f 147/147/147 146/146/146 145/145/145
f 148/148/148 147/147/147 145/145/145
f 151/151/151 150/150/150 149/149/149
f 152/152/152 151/151/151 149/149/149
f 155/155/155 154/154/154 153/153/153
f 156/156/156 155/155/155 153/153/153
f 159/159/159 158/158/158 157/157/157
f 160/160/160 159/159/159 157/157/157
f 163/163/163 162/162/162 161/161/161
f 164/164/164 163/163/163 161/161/161
f 167/167/167 166/166/166 165/165/165
f 168/168/168 167/167/167 165/165/165
