g T_Wall
v 0.1875 -0.50000006 0.499999911
v 0.1875 0.499999911 0.50000006
v 0.1875 0.50000006 -0.499999911
v 0.1875 -0.499999911 -0.50000006
v 0.1875 0.499999911 0.50000006
v -0.187499881 0.499999911 0.50000006
v -0.187499881 0.49999994 0.187500075
v -0.187499881 0.50000006 -0.187499925
v 0.1875 0.50000006 -0.499999911
v -0.187499881 0.50000006 -0.499999911
v -0.187499881 0.499999911 0.50000006
v -0.187499881 -0.50000006 0.499999911
v -0.187499881 -0.50000006 0.187499925
v -0.187499881 0.49999994 0.187500075
v -0.187499881 -0.50000006 0.499999911
v 0.1875 -0.50000006 0.499999911
v -0.187499881 -0.50000006 0.187499925
v -0.187499881 -0.49999994 -0.187500075
v 0.1875 -0.499999911 -0.50000006
v -0.187499881 -0.499999911 -0.50000006
v 0.1875 -0.499999911 -0.50000006
v 0.1875 0.50000006 -0.499999911
v -0.187499881 0.50000006 -0.499999911
v -0.187499881 -0.499999911 -0.50000006
v -0.187499881 -0.50000006 0.499999911
v -0.187499881 0.499999911 0.50000006
v 0.1875 0.499999911 0.50000006
v 0.1875 -0.50000006 0.499999911
v -0.187499881 -0.49999994 -0.187500075
v -0.187499881 -0.499999911 -0.50000006
v -0.187499881 0.50000006 -0.499999911
v -0.187499881 0.50000006 -0.187499925
v -0.499999881 -0.50000006 0.187499925
v -0.499999881 0.49999994 0.187500075
v -0.187499881 0.49999994 0.187500075
v -0.187499881 -0.50000006 0.187499925
v -0.499999881 0.49999994 0.187500075
v -0.499999881 0.50000006 -0.187499925
v -0.187499881 0.50000006 -0.187499925
v -0.187499881 0.49999994 0.187500075
v -0.499999881 0.50000006 -0.187499925
v -0.499999881 -0.49999994 -0.187500075
v -0.187499881 -0.49999994 -0.187500075
v -0.187499881 0.50000006 -0.187499925
v -0.499999881 -0.49999994 -0.187500075
v -0.499999881 -0.50000006 0.187499925
v -0.187499881 -0.50000006 0.187499925
v -0.187499881 -0.49999994 -0.187500075
v -0.499999881 -0.49999994 -0.187500075
v -0.499999881 0.50000006 -0.187499925
v -0.499999881 0.49999994 0.187500075
v -0.499999881 -0.50000006 0.187499925
v -0.26672411 0.50000006 -0.227115706
v -0.26672411 0.50000006 -0.187499613
v -0.26672411 -0.49999994 -0.187499762
v -0.26672411 -0.49999994 -0.227115855
v -0.187499881 -0.49999994 -0.187499762
v -0.187499881 -0.49999994 -0.26672402
v -0.227115989 -0.49999994 -0.26672402
v -0.26672411 -0.49999994 -0.227115855
v -0.26672411 -0.49999994 -0.187499762
v -0.187499881 -0.49999994 -0.26672402
v -0.187499881 0.50000006 -0.266723841
v -0.227115989 0.50000006 -0.266723841
v -0.227115989 -0.49999994 -0.26672402
v -0.26672411 0.50000006 -0.227115706
v -0.227115989 0.50000006 -0.266723841
v -0.187499881 0.50000006 -0.266723841
v -0.187499881 0.50000006 -0.187499613
v -0.26672411 0.50000006 -0.187499613
v -0.227115989 -0.49999994 -0.26672402
v -0.227115989 0.50000006 -0.266723841
v -0.26672411 0.50000006 -0.227115706
v -0.26672411 -0.49999994 -0.227115855
v -0.227115631 0.49999994 0.266724288
v -0.187499523 0.49999994 0.266724288
v -0.187499523 -0.50000006 0.26672411
v -0.227115631 -0.50000006 0.26672411
v -0.187499523 -0.50000006 0.26672411
v -0.187499523 -0.50000006 0.187499955
v -0.266723841 -0.50000006 0.187499955
v -0.266723841 -0.50000006 0.227116004
v -0.227115631 -0.50000006 0.26672411
v -0.266723841 -0.50000006 0.187499955
v -0.266723841 0.49999994 0.187500089
v -0.266723841 0.49999994 0.227116138
v -0.266723841 -0.50000006 0.227116004
v -0.266723841 0.49999994 0.227116138
v -0.266723841 0.49999994 0.187500089
v -0.187499523 0.49999994 0.187500089
v -0.187499523 0.49999994 0.266724288
v -0.227115631 0.49999994 0.266724288
v -0.266723841 -0.50000006 0.227116004
v -0.266723841 0.49999994 0.227116138
v -0.227115631 0.49999994 0.266724288
v -0.227115631 -0.50000006 0.26672411
vt 0.848021686 0.046120584
vt 0.848021686 0.0513362885
vt 0.853236973 0.0513362885
vt 0.853236973 0.046120584
vt 0.0155667299 0.990081072
vt 0.0155668491 0.841221333
vt 0.139616951 0.841221392
vt 0.288476467 0.841221392
vt 0.412525833 0.990081429
vt 0.412526429 0.841221392
vt 0.847811759 0.046120584
vt 0.847811759 0.0513362885
vt 0.846182883 0.0513362885
vt 0.846182883 0.046120584
vt 0.0159510002 0.841221213
vt 0.0159510002 0.990081072
vt 0.140000924 0.841221094
vt 0.288861096 0.841221333
vt 0.412910521 0.990080714
vt 0.412910521 0.841221392
vt 0.835368693 0.0420951024
vt 0.835368693 0.0612333789
vt 0.842020869 0.0612333789
vt 0.842020869 0.0420951024
vt 0.835368693 0.0420951024
vt 0.835368693 0.0612333789
vt 0.842020869 0.0612333789
vt 0.842020869 0.0420951024
vt 0.846182883 0.0513362885
vt 0.847811759 0.0513362885
vt 0.847811759 0.046120584
vt 0.846182883 0.046120584
vt 0.847811759 0.046120584
vt 0.847811759 0.0513362885
vt 0.846182883 0.0513362885
vt 0.846182883 0.046120584
vt 0.163954392 0.707423806
vt 0.0150943147 0.707423866
vt 0.0150943147 0.831474006
vt 0.163954273 0.831474066
vt 0.847811759 0.046120584
vt 0.847811759 0.0513362885
vt 0.846182883 0.0513362885
vt 0.846182883 0.046120584
vt 0.16395463 0.707424462
vt 0.0150941955 0.707423866
vt 0.0150943147 0.831474364
vt 0.163954392 0.831473768
vt 0.835368693 0.0420951024
vt 0.835368693 0.0612333789
vt 0.842020869 0.0612333789
vt 0.842020869 0.0420951024
vt 0.971548557 0.658565044
vt 0.989164829 0.658565044
vt 0.989164829 0.223021984
vt 0.971548557 0.223021984
vt 0.927509189 0.224449277
vt 0.881454587 0.224449277
vt 0.881454587 0.247478887
vt 0.904479563 0.270503879
vt 0.927509189 0.270503879
vt 0.936319232 0.223022014
vt 0.936319232 0.658565044
vt 0.953935683 0.658565044
vt 0.953935683 0.223021984
vt 0.965751827 0.225149035
vt 0.94272691 0.248174056
vt 0.94272691 0.271203637
vt 0.988781273 0.271203637
vt 0.988781273 0.225149035
vt 0.953935683 0.223021984
vt 0.953935683 0.658565044
vt 0.971548557 0.658565044
vt 0.971548557 0.223021984
vt 0.971548557 0.658565044
vt 0.989164829 0.658565044
vt 0.989164829 0.223021984
vt 0.971548557 0.223021984
vt 0.927509189 0.270503879
vt 0.927509189 0.224449277
vt 0.881454587 0.224449277
vt 0.881454587 0.247478887
vt 0.904479563 0.270503879
vt 0.936319232 0.223022014
vt 0.936319232 0.658565044
vt 0.953935683 0.658565044
vt 0.953935683 0.223021984
vt 0.94272691 0.248174056
vt 0.94272691 0.271203637
vt 0.988781273 0.271203637
vt 0.988781273 0.225149035
vt 0.965751827 0.225149035
vt 0.953935683 0.223021984
vt 0.953935683 0.658565044
vt 0.971548557 0.658565044
vt 0.971548557 0.223021984
vn 1 0 0
vn 1 0 0
vn 1 0 0
vn 1 0 0
vn -0 1 1.90734895E-07
vn -0 1 1.90734895E-07
vn -0 1 1.90734895E-07
vn -0 1 0
vn -0 1 0
vn -0 1 0
vn -1 0 0
vn -1 0 0
vn -1 0 0
vn -1 0 0
vn -0 -1 0
vn -0 -1 0
vn -0 -1 0
vn -0 -1 -1.90734895E-07
vn -0 -1 -1.90734895E-07
vn -0 -1 -1.90734895E-07
vn -0 1.19209318E-07 -1
vn -0 1.19209318E-07 -1
vn -0 1.19209318E-07 -1
vn -0 1.19209318E-07 -1
vn -0 -1.19209318E-07 1
vn -0 -1.19209318E-07 1
vn -0 -1.19209318E-07 1
vn -0 -1.19209318E-07 1
vn -1 0 0
vn -1 0 0
vn -1 0 0
vn -1 0 0
vn -0 -1.43051153E-07 1
vn -0 -1.43051153E-07 1
vn -0 -1.43051153E-07 1
vn -0 -1.43051153E-07 1
vn -0 1 2.38418579E-07
vn -0 1 2.38418579E-07
vn -0 1 2.38418579E-07
vn -0 1 2.38418579E-07
vn -0 1.43051153E-07 -1
vn -0 1.43051153E-07 -1
vn -0 1.43051153E-07 -1
vn -0 1.43051153E-07 -1
vn -0 -1 -2.38418579E-07
vn -0 -1 -2.38418579E-07
vn -0 -1 -2.38418579E-07
vn -0 -1 -2.38418579E-07
vn -1 0 0
vn -1 0 0
vn -1 0 0
vn -1 0 0
vn -1 0 0
vn -1 0 0
vn -1 0 0
vn -1 0 0
vn -0 -1 0
vn -0 -1 0
vn -0 -1 0
vn -0 -1 0
vn -0 -1 0
vn -0 1.88069478E-07 -1
vn -0 1.88069478E-07 -1
vn -0 1.88069478E-07 -1
vn -0 1.88069478E-07 -1
vn -0 1 0
vn -0 1 0
vn -0 1 0
vn -0 1 0
vn -0 1 0
vn -0.707107008 0 -0.707106471
vn -0.707107008 0 -0.707106471
vn -0.707107008 0 -0.707106471
vn -0.707107008 0 -0.707106471
vn -0 -1.88069478E-07 1
vn -0 -1.88069478E-07 1
vn -0 -1.88069478E-07 1
vn -0 -1.88069478E-07 1
vn -0 -1 0
vn -0 -1 0
vn -0 -1 0
vn -0 -1 0
vn -0 -1 0
vn -1 0 0
vn -1 0 0
vn -1 0 0
vn -1 0 0
vn -0 1 0
vn -0 1 0
vn -0 1 0
vn -0 1 0
vn -0 1 0
vn -0.707105696 -1.16385337E-07 0.707107842
vn -0.707105696 -1.16385337E-07 0.707107842
vn -0.707105696 -1.16385337E-07 0.707107842
vn -0.707105696 -1.16385337E-07 0.707107842
g T_Wall_0
f 3/3/3 2/2/2 1/1/1
f 4/4/4 3/3/3 1/1/1
f 7/7/7 6/6/6 5/5/5
f 8/8/8 7/7/7 5/5/5
f 9/9/9 8/8/8 5/5/5
f 9/9/9 10/10/10 8/8/8
f 13/13/13 12/12/12 11/11/11
f 14/14/14 13/13/13 11/11/11
f 17/17/17 16/16/16 15/15/15
f 17/17/17 18/18/18 16/16/16
f 18/18/18 19/19/19 16/16/16
f 18/18/18 20/20/20 19/19/19
f 23/23/23 22/22/22 21/21/21
f 24/24/24 23/23/23 21/21/21
f 27/27/27 26/26/26 25/25/25
f 28/28/28 27/27/27 25/25/25
f 31/31/31 30/30/30 29/29/29
f 32/32/32 31/31/31 29/29/29
f 35/35/35 34/34/34 33/33/33
f 36/36/36 35/35/35 33/33/33
f 39/39/39 38/38/38 37/37/37
f 40/40/40 39/39/39 37/37/37
f 43/43/43 42/42/42 41/41/41
f 44/44/44 43/43/43 41/41/41
f 47/47/47 46/46/46 45/45/45
f 48/48/48 47/47/47 45/45/45
f 51/51/51 50/50/50 49/49/49
f 52/52/52 51/51/51 49/49/49
f 55/55/55 54/54/54 53/53/53
f 56/56/56 55/55/55 53/53/53
f 59/59/59 58/58/58 57/57/57
f 57/57/57 60/60/60 59/59/59
f 57/57/57 61/61/61 60/60/60
f 64/64/64 63/63/63 62/62/62
f 65/65/65 64/64/64 62/62/62
f 68/68/68 67/67/67 66/66/66
f 66/66/66 69/69/69 68/68/68
f 66/66/66 70/70/70 69/69/69
f 73/73/73 72/72/72 71/71/71
f 74/74/74 73/73/73 71/71/71
f 77/77/77 76/76/76 75/75/75
f 78/78/78 77/77/77 75/75/75
f 81/81/81 80/80/80 79/79/79
f 79/79/79 82/82/82 81/81/81
f 79/79/79 83/83/83 82/82/82
f 86/86/86 85/85/85 84/84/84
f 87/87/87 86/86/86 84/84/84
f 90/90/90 89/89/89 88/88/88
f 88/88/88 91/91/91 90/90/90
f 88/88/88 92/92/92 91/91/91
f 95/95/95 94/94/94 93/93/93
f 96/96/96 95/95/95 93/93/93
