g MS_RoofSidePeak
v 0.5 -0.375 0.5
v -0.5 -0.375 0.5
v -0.5 0.0250100698 0.0999902338
v 0.5 0.0250100698 0.0999902338
v 0.5 0.0250100698 0.0999902338
v 0.5 0.0250100698 -0.0999902338
v 0.5 -0.375 -0.5
v 0.5 -0.375 0.5
v 0.5 -0.5 -0.375
v 0.5 -0.5 -0.5
v 0.5 -0.5 0.375
v 0.5 -0.5 0.5
v -0.5 -0.375 -0.5
v 0.5 -0.375 -0.5
v 0.5 0.0250100698 -0.0999902338
v -0.5 0.0250100698 -0.0999902338
v -0.5 0.0250100698 -0.0999902338
v -0.5 0.0250100698 0.0999902338
v -0.5 -0.375 0.5
v -0.5 -0.375 -0.5
v -0.5 -0.5 0.375
v -0.5 -0.5 0.5
v -0.5 -0.5 -0.375
v -0.5 -0.5 -0.5
v 0.5 -0.5 0.375
v 0.5 -0.5 -0.375
v -0.5 -0.5 -0.375
v -0.5 -0.5 0.375
v 0.5 0.163002774 -0.0999902338
v -0.5 0.18843706 0
v -0.5 0.163002774 -0.0999902338
v 0.5 0.18843706 0
v -0.5 0.163002774 0.0999902338
v 0.5 0.163002774 0.0999902338
v -0.5 -0.5 -0.5
v 0.5 -0.5 -0.5
v 0.5 -0.375 -0.5
v -0.5 -0.375 -0.5
v 0.5 -0.5 0.5
v -0.5 -0.5 0.5
v -0.5 -0.375 0.5
v 0.5 -0.375 0.5
v 0.5 0.0250100698 -0.0999902338
v 0.5 0.163002774 -0.0999902338
v -0.5 0.163002774 -0.0999902338
v -0.5 0.0250100698 -0.0999902338
v -0.5 0.0250100698 -0.0999902338
v -0.5 0.163002774 -0.0999902338
v -0.5 0.18843706 0
v -0.5 0.0250100698 0.0999902338
v -0.5 0.163002774 0.0999902338
v -0.5 0.0250100698 0.0999902338
v -0.5 0.163002774 0.0999902338
v 0.5 0.163002774 0.0999902338
v 0.5 0.0250100698 0.0999902338
v 0.5 0.18843706 0
v 0.5 0.163002774 -0.0999902338
v 0.5 0.0250100698 -0.0999902338
v 0.5 0.0250100698 0.0999902338
v 0.5 0.163002774 0.0999902338
v -0.5 -0.5 0.5
v 0.5 -0.5 0.5
v 0.5 -0.5 0.375
v -0.5 -0.5 0.375
v 0.5 -0.5 -0.375
v 0.5 -0.5 -0.5
v -0.5 -0.5 -0.5
v -0.5 -0.5 -0.375
v 0.164397582 -0.37500006 -0.5
v 0.335601807 -0.37500006 -0.5
v 0.335601807 -0.327940196 -0.5
v 0.292796612 -0.280829191 -0.5
v 0.207203358 -0.280829191 -0.5
v 0.164397582 -0.327940196 -0.5
v 0.335601807 -0.327940196 -0.5
v 0.335601807 -0.37500006 -0.5
v 0.335601807 0.0273073912 -0.0976925641
v 0.335601807 0.0741598755 -0.0978996232
v 0.292796612 -0.280829191 -0.5
v 0.292796612 0.119857281 -0.099313356
v 0.207203358 0.11985743 -0.0993131995
v 0.207203358 -0.280829191 -0.5
v 0.164397582 0.0741601288 -0.0978994742
v 0.164397582 -0.327940196 -0.5
v 0.164397582 0.0273076203 -0.0976922587
v 0.164397582 -0.37500006 -0.5
v -0.335602403 -0.37500006 -0.5
v -0.164398193 -0.37500006 -0.5
v -0.164398193 -0.327940196 -0.5
v -0.207203358 -0.280829191 -0.5
v -0.292796612 -0.280829191 -0.5
v -0.335602403 -0.327940196 -0.5
v -0.164398193 -0.327940196 -0.5
v -0.164398193 -0.37500006 -0.5
v -0.164398193 0.0273073912 -0.0976925641
v -0.164398193 0.0741598755 -0.0978996232
v -0.207203358 -0.280829191 -0.5
v -0.207203358 0.119857281 -0.099313356
v -0.292796612 0.11985743 -0.0993131995
v -0.292796612 -0.280829191 -0.5
v -0.335602403 0.0741601288 -0.0978994742
v -0.335602403 -0.327940196 -0.5
v -0.335602403 0.0273076203 -0.0976922587
v -0.335602403 -0.37500006 -0.5
v -0.207203358 -0.280829191 0.5
v -0.164397582 -0.327940196 0.5
v -0.164397582 -0.37500006 0.5
v -0.335601807 -0.37500006 0.5
v -0.292796612 -0.280829191 0.5
v -0.335601807 -0.327940196 0.5
v -0.335601807 -0.327940196 0.5
v -0.335601807 -0.37500006 0.5
v -0.335601807 0.0273073912 0.0976925641
v -0.335601807 0.0741598755 0.0978996232
v -0.292796612 -0.280829191 0.5
v -0.292796612 0.119857281 0.099313356
v -0.207203358 0.11985743 0.0993131995
v -0.207203358 -0.280829191 0.5
v -0.164397582 0.0741601288 0.0978994742
v -0.164397582 -0.327940196 0.5
v -0.164397582 0.0273076203 0.0976922587
v -0.164397582 -0.37500006 0.5
v 0.292796612 -0.280829191 0.5
v 0.335602403 -0.327940196 0.5
v 0.335602403 -0.37500006 0.5
v 0.164398193 -0.37500006 0.5
v 0.207203358 -0.280829191 0.5
v 0.164398193 -0.327940196 0.5
v 0.164398193 -0.327940196 0.5
v 0.164398193 -0.37500006 0.5
v 0.164398193 0.0273073912 0.0976925641
v 0.164398193 0.0741598755 0.0978996232
v 0.207203358 -0.280829191 0.5
v 0.207203358 0.119857281 0.099313356
v 0.292796612 0.11985743 0.0993131995
v 0.292796612 -0.280829191 0.5
v 0.335602403 0.0741601288 0.0978994742
v 0.335602403 -0.327940196 0.5
v 0.335602403 0.0273076203 0.0976922587
v 0.335602403 -0.37500006 0.5
vt 0.433386892 0.0615279675
vt 0.139637157 0.0615279675
vt 0.139637157 0.231798112
vt 0.433386892 0.231798112
vt 0.691148698 0.202952236
vt 0.626091838 0.202952296
vt 0.521946728 0.0910102427
vt 0.791126907 0.0910102427
vt 0.556372166 0.0540154278
vt 0.52289623 0.0540154278
vt 0.75628835 0.0540154278
vt 0.790304303 0.0540154278
vt 0.139637157 0.0615279675
vt 0.433386892 0.0615279675
vt 0.433386892 0.231798112
vt 0.139637157 0.231798112
vt 0.691148698 0.202952236
vt 0.626091838 0.202952296
vt 0.521946728 0.0910102427
vt 0.791126907 0.0910102427
vt 0.556372166 0.0540154278
vt 0.52289623 0.0540154278
vt 0.75628835 0.0540154278
vt 0.790304303 0.0540154278
vt 0.949720979 0.0450887419
vt 0.949720979 0.0451185815
vt 0.949758887 0.0451184511
vt 0.949758947 0.0450892039
vt 0.892858088 0.993484497
vt 0.927815378 0.652982414
vt 0.892858505 0.652982414
vt 0.925477326 0.993484497
vt 0.960951686 0.652982414
vt 0.960951686 0.993484497
vt 0.792130888 0.0473193824
vt 0.502549291 0.0473193824
vt 0.502624154 0.00993460417
vt 0.792193592 0.00993460417
vt 0.502624154 0.00993460417
vt 0.792193592 0.00993460417
vt 0.792130888 0.0473193824
vt 0.502549291 0.0473193824
vt 0.891918659 0.110578135
vt 0.960309505 0.110578135
vt 0.960309505 0.492379606
vt 0.891918659 0.492379844
vt 0.51367408 0.0528833866
vt 0.450334013 0.0528770089
vt 0.438415825 0.0927038789
vt 0.51367408 0.13252902
vt 0.450334013 0.132557571
vt 0.891918659 0.492379844
vt 0.960309505 0.492379606
vt 0.960309505 0.110578135
vt 0.891918659 0.110578135
vt 0.438415825 0.092713207
vt 0.450334013 0.132557571
vt 0.51367408 0.13252902
vt 0.51367408 0.0528833568
vt 0.450334013 0.0528769791
vt 0.502549291 0.0473193824
vt 0.792130888 0.0473193824
vt 0.792193592 0.00993460417
vt 0.502624154 0.00993460417
vt 0.792130888 0.0473193824
vt 0.792193592 0.00993460417
vt 0.502624154 0.00993460417
vt 0.502549291 0.0473193824
vt 0.127961099 0.416065961
vt 0.013236016 0.416066051
vt 0.0132358074 0.474405497
vt 0.0419201851 0.505974889
vt 0.0992768407 0.50597477
vt 0.12796098 0.474405438
vt 0.164114386 0.602036655
vt 0.141553938 0.579120994
vt 0.141553938 0.787829638
vt 0.164114386 0.810653687
vt 0.184037849 0.613821864
vt 0.184037849 0.821769834
vt 0.215590984 0.821769953
vt 0.215590984 0.613821864
vt 0.235554665 0.810654044
vt 0.235554665 0.602036655
vt 0.258120835 0.787830353
vt 0.258120835 0.579120994
vt 0.127961099 0.416065961
vt 0.013236016 0.416066051
vt 0.0132358074 0.474405497
vt 0.0419201851 0.505974889
vt 0.0992768407 0.50597477
vt 0.12796098 0.474405438
vt 0.164114386 0.602036655
vt 0.141553938 0.579120994
vt 0.141553938 0.787829638
vt 0.164114386 0.810653687
vt 0.184037849 0.613821864
vt 0.184037849 0.821769834
vt 0.215590984 0.821769953
vt 0.215590984 0.613821864
vt 0.235554665 0.810654044
vt 0.235554665 0.602036655
vt 0.258120835 0.787830353
vt 0.258120835 0.579120994
vt 0.0992768407 0.50597477
vt 0.12796098 0.474405438
vt 0.127961099 0.416065961
vt 0.013236016 0.416066051
vt 0.0419201851 0.505974889
vt 0.0132358074 0.474405497
vt 0.164114386 0.602036655
vt 0.141553938 0.579120994
vt 0.141553938 0.787829638
vt 0.164114386 0.810653687
vt 0.184037849 0.613821864
vt 0.184037849 0.821769834
vt 0.215590984 0.821769953
vt 0.215590984 0.613821864
vt 0.235554665 0.810654044
vt 0.235554665 0.602036655
vt 0.258120835 0.787830353
vt 0.258120835 0.579120994
vt 0.0992768407 0.50597477
vt 0.12796098 0.474405438
vt 0.127961099 0.416065961
vt 0.013236016 0.416066051
vt 0.0419201851 0.505974889
vt 0.0132358074 0.474405497
vt 0.164114386 0.602036655
vt 0.141553938 0.579120994
vt 0.141553938 0.787829638
vt 0.164114386 0.810653687
vt 0.184037849 0.613821864
vt 0.184037849 0.821769834
vt 0.215590984 0.821769953
vt 0.215590984 0.613821864
vt 0.235554665 0.810654044
vt 0.235554665 0.602036655
vt 0.258120835 0.787830353
vt 0.258120835 0.579120994
vn -0 0.707106471 0.707107067
vn -0 0.707106471 0.707107067
vn -0 0.707106471 0.707107067
vn -0 0.707106471 0.707107067
vn 1 0 0
vn 1 0 0
vn 1 0 0
vn 1 0 0
vn 1 0 0
vn 1 0 0
vn 1 0 0
vn 1 0 0
vn -0 0.707106471 -0.707107067
vn -0 0.707106471 -0.707107067
vn -0 0.707106471 -0.707107067
vn -0 0.707106471 -0.707107067
vn -1 -8.13794998E-07 0
vn -1 -8.13794998E-07 0
vn -1 -8.13794998E-07 0
vn -1 -8.13794998E-07 0
vn -1 0 0
vn -1 0 0
vn -1 0 0
vn -1 0 0
vn -0 -1 0
vn -0 -1 0
vn -0 -1 0
vn -0 -1 0
vn -0 0.969138384 -0.24651742
vn -0 1 0
vn -0 0.969138384 -0.24651742
vn -0 1 0
vn -0 0.969138384 0.24651742
vn -0 0.969138384 0.24651742
vn -0 0 -1
vn -0 0 -1
vn -0 0 -1
vn -0 0 -1
vn -0 0 1
vn -0 0 1
vn -0 0 1
vn -0 0 1
vn -0 0 -1
vn -0 0 -1
vn -0 0 -1
vn -0 0 -1
vn -1 0 0
vn -1 0 0
vn -1 0 0
vn -1 0 0
vn -1 0 0
vn -0 0 1
vn -0 0 1
vn -0 0 1
vn -0 0 1
vn 1 0 0
vn 1 0 0
vn 1 0 0
vn 1 0 0
vn 1 0 0
vn -0 -1 0
vn -0 -1 0
vn -0 -1 0
vn -0 -1 0
vn -0 -1 0
vn -0 -1 0
vn -0 -1 0
vn -0 -1 0
vn 2.16347104E-07 0 -1
vn 2.16347104E-07 0 -1
vn 2.1634709E-07 0 -1
vn 2.16347132E-07 0 -1
vn 2.16347132E-07 0 -1
vn 2.16347104E-07 0 -1
vn 0.932296813 0.255755931 -0.255756974
vn 1 0 0
vn 1 0 0
vn 0.731235147 0.482334614 -0.482336521
vn 0.299641222 0.674616158 -0.674616933
vn 0.191252783 0.694054067 -0.694054365
vn -0.191253617 0.69405365 -0.694054544
vn -0.29964003 0.674615979 -0.674617767
vn -0.731231749 0.482336283 -0.482339859
vn -0.932295024 0.255758584 -0.255760491
vn -1 0 0
vn -1 0 0
vn 2.16347104E-07 0 -1
vn 2.16347104E-07 0 -1
vn 2.1634709E-07 0 -1
vn 2.16347132E-07 0 -1
vn 2.16347132E-07 0 -1
vn 2.16347104E-07 0 -1
vn 0.932296813 0.255755931 -0.255756974
vn 1 0 0
vn 1 0 0
vn 0.731235147 0.482334614 -0.482336521
vn 0.299641222 0.674616158 -0.674616933
vn 0.191252783 0.694054067 -0.694054365
vn -0.191253617 0.69405365 -0.694054544
vn -0.29964003 0.674615979 -0.674617767
vn -0.731231749 0.482336283 -0.482339859
vn -0.932295024 0.255758584 -0.255760491
vn -1 0 0
vn -1 0 0
vn 4.32694264E-07 0 1
vn 4.32694208E-07 0 1
vn 4.32694208E-07 0 1
vn 4.32694208E-07 0 1
vn 4.32694264E-07 0 1
vn 4.32694179E-07 0 1
vn -0.932297289 0.255755007 0.255755991
vn -1 0 0
vn -1 0 0
vn -0.73123616 0.482333809 0.482335776
vn -0.299641848 0.674616039 0.674616873
vn -0.19125323 0.694054008 0.694054306
vn 0.191254064 0.69405359 0.694054425
vn 0.299640685 0.67461586 0.674617529
vn 0.731232464 0.482335865 0.482339442
vn 0.932295144 0.255758464 0.255760342
vn 1 0 0
vn 1 0 0
vn 4.32694264E-07 0 1
vn 4.32694208E-07 0 1
vn 4.32694208E-07 0 1
vn 4.32694208E-07 0 1
vn 4.32694264E-07 0 1
vn 4.32694179E-07 0 1
vn -0.93229568 0.255761266 0.255755514
vn -1 1.03188831E-05 0
vn -1 1.03188822E-05 0
vn -0.731235385 0.482335478 0.482335299
vn -0.299641848 0.674616039 0.674616873
vn -0.19125323 0.694054008 0.694054306
vn 0.191253826 0.694054544 0.694053471
vn 0.299640059 0.674617589 0.674616158
vn 0.731230497 0.482340038 0.48233813
vn 0.932294428 0.255761176 0.255760163
vn 1 0 0
vn 1 0 0
g MS_RoofSidePeak_0
f 3/3/3 2/2/2 1/1/1
f 4/4/4 3/3/3 1/1/1
f 7/7/7 6/6/6 5/5/5
f 8/8/8 7/7/7 5/5/5
f 7/7/7 8/8/8 9/9/9
f 7/7/7 9/9/9 10/10/10
f 8/8/8 11/11/11 9/9/9
f 8/8/8 12/12/12 11/11/11
f 15/15/15 14/14/14 13/13/13
f 16/16/16 15/15/15 13/13/13
f 19/19/19 18/18/18 17/17/17
f 20/20/20 19/19/19 17/17/17
f 19/19/19 20/20/20 21/21/21
f 19/19/19 21/21/21 22/22/22
f 20/20/20 23/23/23 21/21/21
f 20/20/20 24/24/24 23/23/23
f 27/27/27 26/26/26 25/25/25
f 28/28/28 27/27/27 25/25/25
f 31/31/31 30/30/30 29/29/29
f 30/30/30 32/32/32 29/29/29
f 30/30/30 33/33/33 32/32/32
f 33/33/33 34/34/34 32/32/32
f 37/37/37 36/36/36 35/35/35
f 38/38/38 37/37/37 35/35/35
f 41/41/41 40/40/40 39/39/39
f 42/42/42 41/41/41 39/39/39
f 45/45/45 44/44/44 43/43/43
f 46/46/46 45/45/45 43/43/43
f 49/49/49 48/48/48 47/47/47
f 50/50/50 49/49/49 47/47/47
f 50/50/50 51/51/51 49/49/49
f 54/54/54 53/53/53 52/52/52
f 55/55/55 54/54/54 52/52/52
f 58/58/58 57/57/57 56/56/56
f 58/58/58 56/56/56 59/59/59
f 56/56/56 60/60/60 59/59/59
f 63/63/63 62/62/62 61/61/61
f 64/64/64 63/63/63 61/61/61
f 67/67/67 66/66/66 65/65/65
f 68/68/68 67/67/67 65/65/65
f 71/71/71 70/70/70 69/69/69
f 69/69/69 72/72/72 71/71/71
f 69/69/69 73/73/73 72/72/72
f 69/69/69 74/74/74 73/73/73
f 77/77/77 76/76/76 75/75/75
f 78/78/78 77/77/77 75/75/75
f 78/78/78 75/75/75 79/79/79
f 80/80/80 78/78/78 79/79/79
f 80/80/80 79/79/79 81/81/81
f 79/79/79 82/82/82 81/81/81
f 81/81/81 82/82/82 83/83/83
f 82/82/82 84/84/84 83/83/83
f 83/83/83 84/84/84 85/85/85
f 84/84/84 86/86/86 85/85/85
f 89/89/89 88/88/88 87/87/87
f 87/87/87 90/90/90 89/89/89
f 87/87/87 91/91/91 90/90/90
f 87/87/87 92/92/92 91/91/91
f 95/95/95 94/94/94 93/93/93
f 96/96/96 95/95/95 93/93/93
f 96/96/96 93/93/93 97/97/97
f 98/98/98 96/96/96 97/97/97
f 98/98/98 97/97/97 99/99/99
f 97/97/97 100/100/100 99/99/99
f 99/99/99 100/100/100 101/101/101
f 100/100/100 102/102/102 101/101/101
f 101/101/101 102/102/102 103/103/103
f 102/102/102 104/104/104 103/103/103
f 107/107/107 106/106/106 105/105/105
f 105/105/105 108/108/108 107/107/107
f 105/105/105 109/109/109 108/108/108
f 109/109/109 110/110/110 108/108/108
f 113/113/113 112/112/112 111/111/111
f 114/114/114 113/113/113 111/111/111
f 114/114/114 111/111/111 115/115/115
f 116/116/116 114/114/114 115/115/115
f 116/116/116 115/115/115 117/117/117
f 115/115/115 118/118/118 117/117/117
f 117/117/117 118/118/118 119/119/119
f 118/118/118 120/120/120 119/119/119
f 119/119/119 120/120/120 121/121/121
f 120/120/120 122/122/122 121/121/121
f 125/125/125 124/124/124 123/123/123
f 123/123/123 126/126/126 125/125/125
f 123/123/123 127/127/127 126/126/126
f 127/127/127 128/128/128 126/126/126
f 131/131/131 130/130/130 129/129/129
f 132/132/132 131/131/131 129/129/129
f 132/132/132 129/129/129 133/133/133
f 134/134/134 132/132/132 133/133/133
f 134/134/134 133/133/133 135/135/135
f 133/133/133 136/136/136 135/135/135
f 135/135/135 136/136/136 137/137/137
f 136/136/136 138/138/138 137/137/137
f 137/137/137 138/138/138 139/139/139
f 138/138/138 140/140/140 139/139/139
