g WallCorner
v 0.376166105 -0.50000006 0.342607111
v 0.376024693 -0.500000179 -0.187500492
v 0.187500224 -0.49999994 -0.187500209
v -0.187499762 -0.50000006 0.187499925
v -0.187499046 -0.500000179 0.34260729
v 0.187500224 0.50000006 -0.187499925
v 0.376024693 0.500000298 -0.18749994
v 0.376166105 0.5 0.342607349
v -0.187499762 0.49999994 0.187500075
v -0.187499523 0.5 0.34260723
v 0.376024693 -0.500000179 -0.187500492
v 0.376024693 0.500000298 -0.18749994
v 0.187500224 0.50000006 -0.187499925
v 0.187500224 -0.49999994 -0.187500209
v 0.376166105 0.5 0.342607349
v 0.376024693 0.500000298 -0.18749994
v 0.376024693 -0.500000179 -0.187500492
v 0.376166105 -0.50000006 0.342607111
v -0.187499523 0.5 0.34260723
v 0.376166105 0.5 0.342607349
v 0.376166105 -0.50000006 0.342607111
v -0.187499046 -0.500000179 0.34260729
v -0.187499762 0.49999994 0.187500075
v -0.187499523 0.5 0.34260723
v -0.187499046 -0.500000179 0.34260729
v -0.187499762 -0.50000006 0.187499925
v 0.187500224 -0.499999911 -0.50000006
v 0.187500224 -0.49999994 -0.187500089
v 0.187500954 0.500000119 -0.18749994
v 0.187500224 0.50000006 -0.499999911
v 0.187500224 0.50000006 -0.499999911
v -0.187499762 0.50000006 -0.187499925
v -0.187499762 0.50000006 -0.499999911
v 0.187500954 0.500000119 -0.18749994
v -0.187499762 0.50000006 0.187500134
v -0.499999762 0.49999994 0.187500075
v -0.499999762 0.50000006 -0.187499925
v -0.187499762 0.50000006 -0.499999911
v -0.187499762 0.50000006 -0.187499925
v -0.187499762 -0.49999994 -0.187500075
v -0.187499762 -0.499999911 -0.50000006
v -0.187499762 -0.499999911 -0.50000006
v 0.187500224 -0.49999994 -0.187500089
v 0.187500224 -0.499999911 -0.50000006
v -0.187499762 -0.49999994 -0.187500075
v -0.187499762 -0.500000119 0.187499955
v -0.499999762 -0.49999994 -0.187500075
v -0.499999762 -0.50000006 0.187499925
v -0.187499762 -0.499999911 -0.50000006
v 0.187500224 -0.499999911 -0.50000006
v 0.187500224 0.50000006 -0.499999911
v -0.187499762 0.50000006 -0.499999911
v -0.499999762 0.50000006 -0.187499925
v -0.499999762 -0.49999994 -0.187500075
v -0.187499762 -0.49999994 -0.187500075
v -0.187499762 0.50000006 -0.187499925
v -0.499999762 -0.49999994 -0.187500075
v -0.499999762 0.50000006 -0.187499925
v -0.499999762 0.49999994 0.187500075
v -0.499999762 -0.50000006 0.187499925
v -0.499999762 -0.50000006 0.187499925
v -0.499999762 0.49999994 0.187500075
v -0.187499762 0.50000006 0.187500134
v -0.187499762 -0.500000119 0.187499955
v -0.26672411 0.50000006 -0.227115706
v -0.26672411 0.50000006 -0.187499613
v -0.26672411 -0.49999994 -0.187499762
v -0.26672411 -0.49999994 -0.227115855
v -0.187499762 -0.49999994 -0.187499762
v -0.187499762 -0.49999994 -0.26672402
v -0.227115855 -0.49999994 -0.26672402
v -0.26672411 -0.49999994 -0.227115855
v -0.26672411 -0.49999994 -0.187499762
v -0.187499762 -0.49999994 -0.26672402
v -0.187499762 0.50000006 -0.266723841
v -0.227115855 0.50000006 -0.266723841
v -0.227115855 -0.49999994 -0.26672402
v -0.26672411 0.50000006 -0.227115706
v -0.227115855 0.50000006 -0.266723841
v -0.187499762 0.50000006 -0.266723841
v -0.187499762 0.50000006 -0.187499613
v -0.26672411 0.50000006 -0.187499613
v -0.227115855 -0.49999994 -0.26672402
v -0.227115855 0.50000006 -0.266723841
v -0.26672411 0.50000006 -0.227115706
v -0.26672411 -0.49999994 -0.227115855
v 0.227116108 0.50000006 -0.26672411
v 0.1875 0.50000006 -0.26672411
v 0.1875 -0.49999994 -0.266724288
v 0.227116108 -0.49999994 -0.266724288
v 0.26672411 -0.49999994 -0.227116138
v 0.227116108 -0.49999994 -0.266724288
v 0.1875 -0.49999994 -0.266724288
v 0.1875 -0.49999994 -0.187500089
v 0.26672411 -0.49999994 -0.187500089
v 0.26672411 -0.49999994 -0.187500089
v 0.26672411 0.50000006 -0.187499955
v 0.26672411 0.50000006 -0.227116004
v 0.26672411 -0.49999994 -0.227116138
v 0.1875 0.50000006 -0.187499955
v 0.1875 0.50000006 -0.26672411
v 0.227116108 0.50000006 -0.26672411
v 0.26672411 0.50000006 -0.227116004
v 0.26672411 0.50000006 -0.187499955
v 0.26672411 -0.49999994 -0.227116138
v 0.26672411 0.50000006 -0.227116004
v 0.227116108 0.50000006 -0.26672411
v 0.227116108 -0.49999994 -0.266724288
v -0.266723633 0.50000006 0.227116197
v -0.266723633 0.50000006 0.187500164
v -0.187499523 0.50000006 0.187500164
v -0.187499523 0.50000006 0.266724348
v -0.227115631 0.50000006 0.266724348
v -0.227115631 5.96046448E-08 0.266724259
v -0.187499523 -0.499999911 0.266724169
v -0.227115631 -0.499999911 0.266724169
v -0.187499523 8.94069672E-08 0.266724259
v -0.227115631 0.50000006 0.266724348
v -0.187499523 0.50000006 0.266724348
v -0.187499523 -0.499999911 0.266724169
v -0.187499523 -0.499999911 0.187500015
v -0.266723633 -0.499999911 0.187500015
v -0.266723633 -0.499999911 0.227116063
v -0.227115631 -0.499999911 0.266724169
v -0.266723633 5.96046448E-08 0.187500089
v -0.266723633 0.50000006 0.187500164
v -0.266723633 0.50000006 0.227116197
v -0.266723633 8.94069672E-08 0.227116138
v -0.266723633 -0.499999911 0.187500015
v -0.266723633 -0.499999911 0.227116063
v -0.266723633 8.94069672E-08 0.227116138
v -0.266723633 0.50000006 0.227116197
v -0.227115631 0.50000006 0.266724348
v -0.227115631 5.96046448E-08 0.266724259
v -0.266723633 -0.499999911 0.227116063
v -0.227115631 -0.499999911 0.266724169
vt 0.401767164 0.486322671
vt 0.401711106 0.696405292
vt 0.326998949 0.696405232
vt 0.178385645 0.547791898
vt 0.178385764 0.486322701
vt 0.326998949 0.696405232
vt 0.401711404 0.696405232
vt 0.401767552 0.486322671
vt 0.178385645 0.547791898
vt 0.177531883 0.486322731
vt 0.244152382 0.452555746
vt 0.244150504 0.00905835535
vt 0.19337292 0.00906592514
vt 0.19337292 0.452559769
vt 0.411652654 0.451278865
vt 0.26009658 0.451278925
vt 0.260098457 0.00778152794
vt 0.411652654 0.0077799391
vt 0.195248604 0.451279223
vt 0.350308925 0.451278478
vt 0.350308985 0.00778001174
vt 0.195248678 0.00778201967
vt 0.140561193 0.00906482246
vt 0.189620584 0.00905823614
vt 0.189620659 0.452555448
vt 0.140566081 0.452560067
vt 0.85353297 0.0515347123
vt 0.856847763 0.0512563884
vt 0.856782079 0.0568761155
vt 0.85353297 0.0567564368
vt 0.326998949 0.820249677
vt 0.178385645 0.696405232
vt 0.178385645 0.820249677
vt 0.326998949 0.696405232
vt 0.178385645 0.547791898
vt 0.0545411333 0.547791898
vt 0.0545411333 0.696405232
vt 0.847811759 0.046120584
vt 0.846182525 0.046120584
vt 0.846182525 0.0513362885
vt 0.847811759 0.0513362885
vt 0.178385645 0.820249677
vt 0.326998949 0.696405232
vt 0.326998949 0.820249677
vt 0.178385645 0.696405232
vt 0.178385645 0.547791898
vt 0.0545411333 0.696405232
vt 0.0545411333 0.547791898
vt 0.835368693 0.0420951024
vt 0.842020869 0.0420951024
vt 0.842020869 0.0612333789
vt 0.835368693 0.0612333789
vt 0.847811759 0.046120584
vt 0.847811759 0.0513362885
vt 0.846182525 0.0513362885
vt 0.846182525 0.046120584
vt 0.835368693 0.0420951024
vt 0.835368693 0.0612333789
vt 0.842020869 0.0612333789
vt 0.842020869 0.0420951024
vt 0.85353297 0.0515347123
vt 0.85353297 0.0567564368
vt 0.856905341 0.0571865588
vt 0.856849909 0.0510657132
vt 0.971548557 0.658565044
vt 0.989164829 0.658565044
vt 0.989164829 0.223021984
vt 0.971548557 0.223021984
vt 0.927509189 0.224449277
vt 0.881454587 0.224449277
vt 0.881454587 0.247478887
vt 0.904479563 0.270503879
vt 0.927509189 0.270503879
vt 0.936319232 0.223022014
vt 0.936319232 0.658565044
vt 0.953935683 0.658565044
vt 0.953935683 0.223021984
vt 0.965751827 0.225149035
vt 0.94272691 0.248174056
vt 0.94272691 0.271203637
vt 0.988781273 0.271203637
vt 0.988781273 0.225149035
vt 0.953935683 0.223021984
vt 0.953935683 0.658565044
vt 0.971548557 0.658565044
vt 0.971548557 0.223021984
vt 0.971548557 0.658565044
vt 0.989164829 0.658565044
vt 0.989164829 0.223021984
vt 0.971548557 0.223021984
vt 0.881454587 0.247478887
vt 0.904479563 0.270503879
vt 0.927509189 0.270503879
vt 0.927509189 0.224449277
vt 0.881454587 0.224449277
vt 0.936319232 0.223022014
vt 0.936319232 0.658565044
vt 0.953935683 0.658565044
vt 0.953935683 0.223021984
vt 0.988781273 0.271203637
vt 0.988781273 0.225149035
vt 0.965751827 0.225149035
vt 0.94272691 0.248174056
vt 0.94272691 0.271203637
vt 0.953935683 0.223021984
vt 0.953935683 0.658565044
vt 0.971548557 0.658565044
vt 0.971548557 0.223021984
vt 0.94272691 0.248174056
vt 0.94272691 0.271203637
vt 0.988781273 0.271203637
vt 0.988781273 0.225149035
vt 0.965751827 0.225149035
vt 0.971548557 0.440793514
vt 0.989164829 0.223021984
vt 0.971548557 0.223021984
vt 0.989164829 0.440793514
vt 0.971548557 0.658565044
vt 0.989164829 0.658565044
vt 0.927509189 0.270503879
vt 0.927509189 0.224449277
vt 0.881454587 0.224449277
vt 0.881454587 0.247478887
vt 0.904479563 0.270503879
vt 0.936319232 0.440793514
vt 0.936319232 0.658565044
vt 0.953935683 0.658565044
vt 0.953935683 0.440793514
vt 0.936319232 0.223022014
vt 0.953935683 0.223021984
vt 0.953935683 0.440793514
vt 0.953935683 0.658565044
vt 0.971548557 0.658565044
vt 0.971548557 0.440793514
vt 0.953935683 0.223021984
vt 0.971548557 0.223021984
vn -2.60905097E-07 -1 -2.08109171E-07
vn -2.60905097E-07 -1 -2.08109171E-07
vn -2.60905097E-07 -1 -2.08109171E-07
vn -2.60905097E-07 -1 -2.08109171E-07
vn -2.60905097E-07 -1 -2.08109171E-07
vn -1.95678837E-07 1 1.7211309E-07
vn -1.95678837E-07 1 1.7211309E-07
vn -1.95678837E-07 1 1.7211309E-07
vn -1.95678837E-07 1 1.7211309E-07
vn -1.95678837E-07 1 1.7211309E-07
vn -7.90409786E-07 4.14965058E-07 -1
vn -7.90409786E-07 4.14965058E-07 -1
vn -7.90409786E-07 4.14965058E-07 -1
vn -7.90409786E-07 4.14965058E-07 -1
vn 1 0 -0.000266704796
vn 1 0 -0.000266704796
vn 1 0 -0.000266704796
vn 1 0 -0.000266704796
vn -0 0 1
vn -0 0 1
vn -0 0 1
vn -0 0 1
vn -1 -2.38418721E-07 2.88210072E-06
vn -1 -2.38418721E-07 2.88210072E-06
vn -1 -2.38418721E-07 2.88210072E-06
vn -1 -2.38418721E-07 2.88210072E-06
vn 1 -3.57627641E-07 -1.14440923E-06
vn 1 -3.57627641E-07 -1.14440923E-06
vn 1 -3.57627641E-07 -1.14440923E-06
vn 1 -3.57627641E-07 -1.14440923E-06
vn -0 1 0
vn -0 1 0
vn -0 1 0
vn -0 1 0
vn -2.54313136E-07 1 1.19209282E-07
vn -2.54313136E-07 1 1.19209282E-07
vn -2.54313136E-07 1 1.19209282E-07
vn -1 0 0
vn -1 0 0
vn -1 0 0
vn -1 0 0
vn -0 -1 -1.9073488E-07
vn -0 -1 -1.9073488E-07
vn -0 -1 -1.9073488E-07
vn -0 -1 -1.9073488E-07
vn -2.54313136E-07 -1 -3.17891477E-07
vn -2.54313136E-07 -1 -3.17891477E-07
vn -2.54313136E-07 -1 -3.17891477E-07
vn -0 1.58945738E-07 -1
vn -0 1.58945738E-07 -1
vn -0 1.58945738E-07 -1
vn -0 1.58945738E-07 -1
vn -0 1.43051153E-07 -1
vn -0 1.43051153E-07 -1
vn -0 1.43051153E-07 -1
vn -0 1.43051153E-07 -1
vn -1 0 0
vn -1 0 0
vn -1 0 0
vn -1 0 0
vn -1.43051139E-07 -1.66892988E-07 1
vn -1.43051139E-07 -1.66892988E-07 1
vn -1.43051139E-07 -1.66892988E-07 1
vn -1.43051139E-07 -1.66892988E-07 1
vn -1 0 0
vn -1 0 0
vn -1 0 0
vn -1 0 0
vn -0 -1 0
vn -0 -1 0
vn -0 -1 0
vn -0 -1 0
vn -0 -1 0
vn -0 1.88069478E-07 -1
vn -0 1.88069478E-07 -1
vn -0 1.88069478E-07 -1
vn -0 1.88069478E-07 -1
vn -0 1 0
vn -0 1 0
vn -0 1 0
vn -0 1 0
vn -0 1 0
vn -0.707105935 1.16385273E-07 -0.707107544
vn -0.707105935 1.16385273E-07 -0.707107544
vn -0.707105935 1.16385273E-07 -0.707107544
vn -0.707105935 1.16385273E-07 -0.707107544
vn -0 1.88069478E-07 -1
vn -0 1.88069478E-07 -1
vn -0 1.88069478E-07 -1
vn -0 1.88069478E-07 -1
vn -0 -1 0
vn -0 -1 0
vn -0 -1 0
vn -0 -1 0
vn -0 -1 0
vn 1 0 0
vn 1 0 0
vn 1 0 0
vn 1 0 0
vn -0 1 0
vn -0 1 0
vn -0 1 0
vn -0 1 0
vn -0 1 0
vn 0.707107782 1.33012207E-07 -0.707105696
vn 0.707107782 1.33012207E-07 -0.707105696
vn 0.707107782 1.33012207E-07 -0.707105696
vn 0.707107782 1.33012207E-07 -0.707105696
vn -0 1 0
vn -0 1 0
vn -0 1 0
vn -0 1 0
vn -0 1 0
vn -0 -1.64560831E-07 1
vn -0 -1.88069478E-07 1
vn -0 -1.88069478E-07 1
vn -0 -1.64560788E-07 1
vn -0 -1.41052112E-07 1
vn -0 -1.41052112E-07 1
vn -0 -1 0
vn -0 -1 0
vn -0 -1 0
vn -0 -1 0
vn -0 -1 0
vn -1 0 -1.75489021E-07
vn -1 0 0
vn -1 0 0
vn -1 0 -1.75488822E-07
vn -1 0 -3.50977814E-07
vn -1 0 -3.50977814E-07
vn -0.707107842 -1.33012236E-07 0.707105637
vn -0.70710808 -1.3301225E-07 0.707105398
vn -0.70710808 -1.3301225E-07 0.707105398
vn -0.707107842 -1.33012236E-07 0.707105637
vn -0.707107723 -1.33012236E-07 0.707105756
vn -0.707107723 -1.33012236E-07 0.707105756
g WallCorner_0
f 3/3/3 2/2/2 1/1/1
f 1/1/1 4/4/4 3/3/3
f 1/1/1 5/5/5 4/4/4
f 8/8/8 7/7/7 6/6/6
f 6/6/6 9/9/9 8/8/8
f 9/9/9 10/10/10 8/8/8
f 13/13/13 12/12/12 11/11/11
f 14/14/14 13/13/13 11/11/11
f 17/17/17 16/16/16 15/15/15
f 18/18/18 17/17/17 15/15/15
f 21/21/21 20/20/20 19/19/19
f 22/22/22 21/21/21 19/19/19
f 25/25/25 24/24/24 23/23/23
f 26/26/26 25/25/25 23/23/23
f 29/29/29 28/28/28 27/27/27
f 30/30/30 29/29/29 27/27/27
f 33/33/33 32/32/32 31/31/31
f 32/32/32 34/34/34 31/31/31
f 35/35/35 34/34/34 32/32/32
f 35/35/35 32/32/32 36/36/36
f 32/32/32 37/37/37 36/36/36
f 40/40/40 39/39/39 38/38/38
f 41/41/41 40/40/40 38/38/38
f 44/44/44 43/43/43 42/42/42
f 43/43/43 45/45/45 42/42/42
f 45/45/45 43/43/43 46/46/46
f 45/45/45 46/46/46 47/47/47
f 46/46/46 48/48/48 47/47/47
f 51/51/51 50/50/50 49/49/49
f 52/52/52 51/51/51 49/49/49
f 55/55/55 54/54/54 53/53/53
f 56/56/56 55/55/55 53/53/53
f 59/59/59 58/58/58 57/57/57
f 60/60/60 59/59/59 57/57/57
f 63/63/63 62/62/62 61/61/61
f 64/64/64 63/63/63 61/61/61
f 67/67/67 66/66/66 65/65/65
f 68/68/68 67/67/67 65/65/65
f 71/71/71 70/70/70 69/69/69
f 69/69/69 72/72/72 71/71/71
f 69/69/69 73/73/73 72/72/72
f 76/76/76 75/75/75 74/74/74
f 77/77/77 76/76/76 74/74/74
f 80/80/80 79/79/79 78/78/78
f 78/78/78 81/81/81 80/80/80
f 78/78/78 82/82/82 81/81/81
f 85/85/85 84/84/84 83/83/83
f 86/86/86 85/85/85 83/83/83
f 89/89/89 88/88/88 87/87/87
f 90/90/90 89/89/89 87/87/87
f 93/93/93 92/92/92 91/91/91
f 91/91/91 94/94/94 93/93/93
f 91/91/91 95/95/95 94/94/94
f 98/98/98 97/97/97 96/96/96
f 99/99/99 98/98/98 96/96/96
f 102/102/102 101/101/101 100/100/100
f 100/100/100 103/103/103 102/102/102
f 100/100/100 104/104/104 103/103/103
f 107/107/107 106/106/106 105/105/105
f 108/108/108 107/107/107 105/105/105
f 111/111/111 110/110/110 109/109/109
f 109/109/109 112/112/112 111/111/111
f 109/109/109 113/113/113 112/112/112
f 116/116/116 115/115/115 114/114/114
f 115/115/115 117/117/117 114/114/114
f 114/114/114 117/117/117 118/118/118
f 117/117/117 119/119/119 118/118/118
f 122/122/122 121/121/121 120/120/120
f 120/120/120 123/123/123 122/122/122
f 120/120/120 124/124/124 123/123/123
f 127/127/127 126/126/126 125/125/125
f 128/128/128 127/127/127 125/125/125
f 128/128/128 125/125/125 129/129/129
f 130/130/130 128/128/128 129/129/129
f 133/133/133 132/132/132 131/131/131
f 134/134/134 133/133/133 131/131/131
f 134/134/134 131/131/131 135/135/135
f 136/136/136 134/134/134 135/135/135
