g MS_RoofCorner
v -0.5 -0.5 0.375
v -0.5 -0.5 -0.5
v -0.5 0.375 -0.5
v 0.375 -0.375 0.5
v -0.5 -0.375 0.5
v -0.5 0.5 -0.375
v -0.5 -0.5 -0.5
v 0.375 -0.5 -0.5
v -0.5 0.375 -0.5
v 0.5 -0.375 -0.5
v 0.5 -0.375 0.375
v -0.375 0.5 -0.5
v -0.164398193 0.0311339498 0.0938659683
v -0.164398193 0.0582663417 0.113793179
v -0.164398193 0.0746638775 0.123623349
v -0.335601807 0.0582663417 0.113793179
v -0.335601807 0.0311339498 0.0938659683
v -0.335601807 0.0746638775 0.123623349
v 0.0938659683 0.0311339498 -0.164398193
v 0.123623349 0.0746638775 -0.164398193
v 0.113793336 0.0582663417 -0.164398193
v 0.113793336 0.0582663417 -0.335601807
v 0.123623349 0.0746638775 -0.335601807
v 0.0938659683 0.0311339498 -0.335601807
v 0.375 -0.5 -0.5
v -0.5 -0.5 -0.5
v -0.5 -0.5 0.375
v 0.375 -0.5 0.375
v 0.5 -0.5 -0.5
v 0.5 -0.375 0.375
v 0.5 -0.375 -0.5
v 0.5 -0.5 0.5
v 0.5 -0.375 0.5
v 0.5 -0.5 0.5
v -0.5 -0.5 0.5
v -0.5 -0.375 0.5
v 0.375 -0.375 0.5
v 0.5 -0.375 0.5
v 0.375 -0.5 -0.5
v 0.5 -0.5 -0.5
v 0.5 -0.375 -0.5
v -0.375 0.5 -0.5
v -0.5 0.375 -0.5
v -0.5 0.5 -0.5
v -0.5 -0.375 0.5
v -0.5 -0.5 0.5
v -0.5 -0.5 0.375
v -0.5 0.375 -0.5
v -0.5 0.5 -0.375
v -0.5 0.5 -0.5
v 0.5 -0.375 0.5
v 0.5 -0.226819143 0.5
v 0.5 -0.226819143 0.375
v 0.5 -0.375 0.375
v 0.375 -0.375 0.5
v 0.375 -0.226819143 0.5
v 0.5 -0.226819143 0.5
v 0.5 -0.375 0.5
v -0.5 -0.5 0.5
v 0.5 -0.5 0.5
v 0.375 -0.5 0.375
v -0.5 -0.5 0.375
v 0.5 -0.5 0.5
v 0.5 -0.5 -0.5
v 0.375 -0.5 -0.5
v 0.375 -0.5 0.375
v 0.167796627 -0.280829191 0.5
v 0.210601807 -0.327940196 0.5
v 0.210601807 -0.37500006 0.5
v 0.0393978879 -0.37500006 0.5
v 0.0822033659 -0.280829191 0.5
v 0.0393978879 -0.327940196 0.5
v 0.210601807 -0.327940196 0.5
v 0.210601807 -0.207006082 0.332006365
v 0.210601807 -0.37500006 0.5
v 0.210602418 -0.15908435 0.331144482
v 0.167796627 -0.280829191 0.5
v 0.167796627 -0.0689892769 0.288161159
v 0.0822033659 0.0148700234 0.204301909
v 0.0822033659 -0.280829191 0.5
v 0.0393978879 0.0112214228 0.160839528
v 0.0393978879 -0.327940196 0.5
v 0.0393978879 -0.0364822261 0.161483616
v 0.0393978879 -0.37500006 0.5
v -0.207203358 -0.280829191 0.5
v -0.164398193 -0.327940196 0.5
v -0.164398193 -0.37500006 0.5
v -0.335601807 -0.37500006 0.5
v -0.292796612 -0.280829191 0.5
v -0.335601807 -0.327940196 0.5
v -0.164398193 0.0582663417 0.113793179
v -0.207203358 0.0982193798 0.147178948
v -0.164398193 0.0746638775 0.123623349
v -0.207203358 0.0818218514 0.137348786
v -0.292796612 0.0982193798 0.147178948
v -0.292796612 0.0818218514 0.137348786
v -0.335601807 0.0746638775 0.123623349
v -0.335601807 0.0582663417 0.113793179
v -0.335601807 -0.327940196 0.5
v -0.335601807 -0.37500006 0.5
v -0.335601807 0.0311339498 0.0938659683
v -0.335601807 0.0582663417 0.113793179
v -0.292796612 -0.280829191 0.5
v -0.292796612 0.0818218514 0.137348786
v -0.207203358 0.0818218514 0.137348786
v -0.207203358 -0.280829191 0.5
v -0.164398193 0.0582663417 0.113793179
v -0.164398193 -0.327940196 0.5
v -0.164398193 0.0311339498 0.0938659683
v -0.164398193 -0.37500006 0.5
v -0.164398193 0.229420424 -0.0425761417
v -0.164398193 0.17626071 -0.0413583368
v -0.164398193 0.0311339498 0.0938659683
v -0.164398193 0.0746638775 0.123623349
v -0.207203358 0.0982193798 0.147178948
v -0.207203358 0.31417495 -0.0854853839
v -0.292796612 0.394525647 -0.171080932
v -0.292796612 0.0982193798 0.147178948
v -0.335601807 0.0746638775 0.123623349
v -0.335601807 0.389808685 -0.213388979
v -0.335601807 0.0311339498 0.0938659683
v -0.335602403 0.336286813 -0.212427825
v 0.5 -0.327940196 0.0393978879
v 0.5 -0.37500006 0.0393978879
v 0.5 -0.37500006 0.210601807
v 0.5 -0.327940196 0.210601807
v 0.5 -0.280829191 0.0822033659
v 0.5 -0.280829191 0.167796627
v 0.5 -0.327940196 0.210601807
v 0.5 -0.37500006 0.210601807
v 0.332006216 -0.207006082 0.210601807
v 0.331144392 -0.15908435 0.210602418
v 0.5 -0.280829191 0.167796627
v 0.28816101 -0.0689892769 0.167796627
v 0.20430176 0.0148700234 0.0822033659
v 0.5 -0.280829191 0.0822033659
v 0.160839528 0.0112214228 0.0393978879
v 0.5 -0.327940196 0.0393978879
v 0.161483452 -0.0364822261 0.0393978879
v 0.5 -0.37500006 0.0393978879
v 0.5 -0.327940196 -0.335601807
v 0.5 -0.37500006 -0.335601807
v 0.5 -0.37500006 -0.164398193
v 0.5 -0.327940196 -0.164398193
v 0.5 -0.280829191 -0.292796612
v 0.5 -0.280829191 -0.207203358
v 0.113793336 0.0582663417 -0.164398193
v 0.123623349 0.0746638775 -0.164398193
v 0.147178948 0.0982193798 -0.207203358
v 0.137348637 0.0818218514 -0.207203358
v 0.147178948 0.0982193798 -0.292796612
v 0.137348637 0.0818218514 -0.292796612
v 0.123623349 0.0746638775 -0.335601807
v 0.113793336 0.0582663417 -0.335601807
v 0.5 -0.327940196 -0.335601807
v 0.0938659683 0.0311339498 -0.335601807
v 0.5 -0.37500006 -0.335601807
v 0.113793336 0.0582663417 -0.335601807
v 0.5 -0.280829191 -0.292796612
v 0.137348637 0.0818218514 -0.292796612
v 0.137348637 0.0818218514 -0.207203358
v 0.5 -0.280829191 -0.207203358
v 0.113793336 0.0582663417 -0.164398193
v 0.5 -0.327940196 -0.164398193
v 0.0938659683 0.0311339498 -0.164398193
v 0.5 -0.37500006 -0.164398193
v -0.0425762944 0.229420424 -0.164398193
v 0.0938659683 0.0311339498 -0.164398193
v -0.0413583368 0.17626071 -0.164398193
v 0.123623349 0.0746638775 -0.164398193
v 0.147178948 0.0982193798 -0.207203358
v -0.0854855329 0.31417495 -0.207203358
v -0.171080932 0.394525647 -0.292796612
v 0.147178948 0.0982193798 -0.292796612
v 0.123623349 0.0746638775 -0.335601807
v -0.213388667 0.389808685 -0.335601807
v 0.0938659683 0.0311339498 -0.335601807
v -0.212427974 0.336286813 -0.335602403
v -0.5 0.5 -0.375
v -0.35584715 0.5 -0.230847314
v 0.375 -0.226819143 0.5
v 0.375 -0.375 0.5
v -0.23203063 0.5 -0.232030332
v 0.375 -0.226819143 0.5
v -0.35584715 0.5 -0.230847314
v 0.5 -0.226819143 0.5
v 0.5 -0.226819143 0.375
v -0.231416017 0.5 -0.356416166
v 0.5 -0.375 0.375
v 0.5 -0.226819143 0.375
v -0.231416017 0.5 -0.356416166
v -0.375 0.5 -0.5
v -0.5 0.5 -0.375
v -0.5 0.5 -0.5
v -0.375 0.5 -0.5
v -0.231416017 0.5 -0.356416166
v -0.35584715 0.5 -0.230847314
v -0.23203063 0.5 -0.232030332
vt 0.845146656 0.0435646325
vt 0.845146656 0.0466819406
vt 0.84826386 0.0466819406
vt 0.465981156 0.249237284
vt 0.731890559 0.249237284
vt 0.731890559 0.613407493
vt 0.847763181 0.0498222113
vt 0.850880504 0.0498222113
vt 0.847763181 0.0467048883
vt 0.731890559 0.249237284
vt 0.465981156 0.249237284
vt 0.731890559 0.613407493
vt 0.0119745014 0.225508898
vt 0.0344207175 0.212522388
vt 0.0344207175 0.219562709
vt 0.107455209 0.212522358
vt 0.13048692 0.225509524
vt 0.107455209 0.219562799
vt 0.0119745014 0.225508898
vt 0.0344207175 0.219562709
vt 0.0344207175 0.212522388
vt 0.107455209 0.212522358
vt 0.107455209 0.219562799
vt 0.13048692 0.225509524
vt 0.949758887 0.0451179743
vt 0.949758887 0.0450848937
vt 0.949725509 0.0450848937
vt 0.949725509 0.0451175198
vt 0.792130888 0.0473193824
vt 0.538574278 0.00993460417
vt 0.792193592 0.00993460417
vt 0.502549291 0.0473193824
vt 0.502624154 0.00993460417
vt 0.792130888 0.0473193824
vt 0.502549291 0.0473193824
vt 0.502624154 0.00993460417
vt 0.755314946 0.00993460417
vt 0.792193592 0.00993460417
vt 0.0393274426 0.00732012093
vt 0.0135723948 0.0311478823
vt 0.0393269658 0.0556558669
vt 0.399898231 0.0556559265
vt 0.399897873 0.00732013583
vt 0.425652385 0.0311478674
vt 0.0393274426 0.00732012093
vt 0.0135723948 0.0311478823
vt 0.0393269658 0.0556558669
vt 0.399898231 0.0556559265
vt 0.399897873 0.00732013583
vt 0.425652385 0.0311478674
vt 0.960309923 0.427892148
vt 0.8919186 0.427892148
vt 0.8919186 0.385601223
vt 0.960309923 0.385601223
vt 0.8919186 0.427892148
vt 0.960309923 0.427892148
vt 0.960309923 0.385601223
vt 0.8919186 0.385601223
vt 0.728411674 0.0470821261
vt 0.433953941 0.0470821261
vt 0.470750511 0.0101138949
vt 0.728412092 0.0101138949
vt 0.433953941 0.0470821261
vt 0.728411674 0.0470821261
vt 0.728412092 0.0101138949
vt 0.470750511 0.0101138949
vt 0.0419201851 0.505974829
vt 0.0132358074 0.474405497
vt 0.0132359862 0.416066051
vt 0.127961099 0.416065991
vt 0.0992768407 0.505974829
vt 0.12796098 0.474405438
vt 0.164660797 0.820868492
vt 0.142091542 0.885118425
vt 0.142091542 0.797952771
vt 0.164660797 0.908491492
vt 0.184593827 0.832653701
vt 0.184593827 0.942587078
vt 0.216129914 0.986076891
vt 0.216129914 0.832653701
vt 0.236074716 0.996803343
vt 0.236074716 0.820868492
vt 0.258638144 0.973540246
vt 0.258638144 0.797952771
vt 0.0992768407 0.505974829
vt 0.12796098 0.474405438
vt 0.127961099 0.416065991
vt 0.0132359862 0.416066051
vt 0.0419201851 0.505974829
vt 0.0132358074 0.474405497
vt 0.0344207175 0.212522388
vt 0.0552042909 0.2194224
vt 0.0344207175 0.219562709
vt 0.0552042909 0.211147696
vt 0.087370798 0.21942234
vt 0.087370798 0.211147457
vt 0.107455209 0.219562799
vt 0.107455209 0.212522358
vt 0.0353513062 0.517048419
vt 0.0127749145 0.494132668
vt 0.0127749145 0.704957187
vt 0.0353513062 0.696445644
vt 0.055249542 0.528833568
vt 0.055249542 0.696445644
vt 0.0866904855 0.696445644
vt 0.0866904855 0.528833568
vt 0.107013583 0.696445644
vt 0.107013583 0.517048419
vt 0.129192621 0.704957187
vt 0.129192621 0.494132668
vt 0.0344635248 0.29529503
vt 0.0115572214 0.271471858
vt 0.0115572214 0.225508898
vt 0.0344635248 0.219562709
vt 0.0552031323 0.2194224
vt 0.0552031323 0.328971326
vt 0.0873780027 0.370259166
vt 0.0873780027 0.21942234
vt 0.107458301 0.219562799
vt 0.107458301 0.380206376
vt 0.130517304 0.225509524
vt 0.130517304 0.359003514
vt 0.12796098 0.474405438
vt 0.127961099 0.416065991
vt 0.0132359862 0.416066051
vt 0.0132358074 0.474405497
vt 0.0992768407 0.505974829
vt 0.0419201851 0.505974829
vt 0.164660797 0.820868492
vt 0.142091542 0.797952771
vt 0.142091542 0.885118425
vt 0.164660797 0.908491492
vt 0.184593827 0.832653701
vt 0.184593827 0.942587078
vt 0.216129914 0.986076891
vt 0.216129914 0.832653701
vt 0.236074716 0.996803343
vt 0.236074716 0.820868492
vt 0.258638144 0.973540246
vt 0.258638144 0.797952771
vt 0.0132358074 0.474405497
vt 0.0132359862 0.416066051
vt 0.127961099 0.416065991
vt 0.12796098 0.474405438
vt 0.0419201851 0.505974829
vt 0.0992768407 0.505974829
vt 0.0344207175 0.212522388
vt 0.0344207175 0.219562709
vt 0.0552042909 0.2194224
vt 0.0552042909 0.211147696
vt 0.087370798 0.21942234
vt 0.087370798 0.211147457
vt 0.107455209 0.219562799
vt 0.107455209 0.212522358
vt 0.0353513062 0.517048419
vt 0.0127749145 0.704957187
vt 0.0127749145 0.494132668
vt 0.0353513062 0.696445644
vt 0.055249542 0.528833568
vt 0.055249542 0.696445644
vt 0.0866904855 0.696445644
vt 0.0866904855 0.528833568
vt 0.107013583 0.696445644
vt 0.107013583 0.517048419
vt 0.129192621 0.704957187
vt 0.129192621 0.494132668
vt 0.0344635248 0.29529503
vt 0.0115572214 0.225508898
vt 0.0115572214 0.271471858
vt 0.0344635248 0.219562709
vt 0.0552031323 0.2194224
vt 0.0552031323 0.328971326
vt 0.0873780027 0.370259166
vt 0.0873780027 0.21942234
vt 0.107458301 0.219562799
vt 0.107458301 0.380206376
vt 0.130517304 0.225509524
vt 0.130517304 0.359003514
vt 0.966553807 0.956531107
vt 0.99093473 0.88963604
vt 0.99093473 0.508571208
vt 0.966553807 0.487469226
vt 0.926874042 0.930137455
vt 0.892907619 0.53968209
vt 0.892805099 0.953562498
vt 0.926853001 0.514340281
vt 0.960955858 0.539681971
vt 0.960955858 0.955521047
vt 0.99093473 0.977633476
vt 0.966553807 0.956531107
vt 0.966553807 0.575161755
vt 0.99093473 0.508571208
vt 0.60831809 0.199791923
vt 0.608230829 0.239042297
vt 0.56988728 0.239042297
vt 0.519768834 0.188863233
vt 0.557877183 0.150526628
vt 0.51983583 0.150526628
vn -1 0 0
vn -1 0 0
vn -1 0 0
vn -0 0.707106769 0.707106769
vn -0 0.707106769 0.707106769
vn -0 0.707106769 0.707106769
vn -0 0 -1
vn -0 0 -1
vn -0 0 -1
vn 0.707106769 0.707106769 0
vn 0.707106769 0.707106769 0
vn 0.707106769 0.707106769 0
vn 1 1.00817374E-06 0
vn 0.836042583 0.387965322 0.387963533
vn 0.854748011 0.380191207 0.353355914
vn -0.836041331 0.38796851 0.387963057
vn -1 5.6115955E-06 2.53184862E-06
vn -0.884862483 0.340600848 0.317819685
vn -3.20320339E-07 0 1
vn 0.353357106 0.380189389 0.854748368
vn 0.387963712 0.387963861 0.836043179
vn 0.38796407 0.387963921 -0.836043
vn 0.317818761 0.340598166 -0.884863913
vn 3.52400366E-06 2.16887611E-06 -1
vn -0 -1 0
vn -0 -1 0
vn -0 -1 0
vn -0 -1 0
vn 1 0 0
vn 1 0 0
vn 1 0 0
vn 1 0 0
vn 1 0 0
vn -0 0 1
vn -0 0 1
vn -0 0 1
vn -0 0 1
vn -0 0 1
vn -0 0 -1
vn -0 0 -1
vn -0 0 -1
vn -0 0 -1
vn -0 0 -1
vn -0 0 -1
vn -1 0 0
vn -1 0 0
vn -1 0 0
vn -1 0 0
vn -1 0 0
vn -1 0 0
vn 1 0 0
vn 1 0 0
vn 1 0 0
vn 1 0 0
vn -0 0 1
vn -0 0 1
vn -0 0 1
vn -0 0 1
vn -0 -1 0
vn -0 -1 0
vn -0 -1 0
vn -0 -1 0
vn -0 -1 0
vn -0 -1 0
vn -0 -1 0
vn -0 -1 0
vn -2.16347416E-07 0 1
vn -2.16347459E-07 0 1
vn -2.16347431E-07 0 1
vn -2.16347431E-07 0 1
vn -2.16347459E-07 0 1
vn -2.16347431E-07 0 1
vn 0.921173453 0.275173545 0.275170833
vn 1 0 -4.6563282E-06
vn 1 0 -4.65632775E-06
vn 0.699858129 0.505073786 0.505073369
vn 0.253172249 0.684069335 0.684070826
vn 0.0561835319 0.705988884 0.705990851
vn -0.46354574 0.626545787 0.626550674
vn -0.335718691 0.666065872 0.666069984
vn -0.806640029 0.417929113 0.417931855
vn -0.937540174 0.245986491 0.245986059
vn -1 4.41382872E-06 0
vn -1 4.41382826E-06 0
vn -2.16347786E-07 0 1
vn -2.16347757E-07 0 1
vn -2.16347743E-07 0 1
vn -2.16347743E-07 0 1
vn -2.16347786E-07 0 1
vn -2.16347757E-07 0 1
vn 0.185744941 -0.505232632 0.842756689
vn 0.0432359166 -0.5136953 0.856882572
vn 0.185744941 -0.505232692 0.842756629
vn 0.0778161958 -0.512617946 0.855083287
vn -0.0432358608 -0.51369524 0.856882691
vn -0.0778161138 -0.512618005 0.855083287
vn -0.185744941 -0.505232632 0.842756689
vn -0.185744941 -0.505232692 0.842756629
vn -0.936824739 0.247349143 0.247341409
vn -1 1.04760848E-05 0
vn -1 5.6115955E-06 2.53184862E-06
vn -0.836041331 0.38796851 0.387963057
vn -0.304555923 0.673515379 0.673515201
vn -0.2561616 0.683513403 0.683513463
vn 0.25616172 0.683513463 0.683513463
vn 0.304556042 0.673515439 0.673515141
vn 0.836042583 0.387965322 0.387963533
vn 0.936826408 0.247342587 0.247341827
vn 1 1.00817374E-06 0
vn 1 0 0
vn 0.714514375 0.512460887 0.476290971
vn 1 3.52096708E-06 0
vn 1 1.00817374E-06 0
vn 0.854748011 0.380191207 0.353355914
vn 0.201384425 0.717368662 0.666953087
vn 0.0591887496 0.731061101 0.679740012
vn -0.450295627 0.65318197 0.608758628
vn -0.271006256 0.704502583 0.655920506
vn -0.884862483 0.340600848 0.317819685
vn -0.837420464 0.399609149 0.372880101
vn -1 5.6115955E-06 2.53184862E-06
vn -1 0 5.45274679E-06
vn 1 0 0
vn 1 0 0
vn 1 0 0
vn 1 0 0
vn 1 0 0
vn 1 0 0
vn 0.27517131 0.275168777 0.921174645
vn -5.39040821E-06 -6.46825083E-06 1
vn -5.39040821E-06 -6.46825083E-06 1
vn 0.50507468 0.505070984 0.699859142
vn 0.684071422 0.684068263 0.253173351
vn 0.705991089 0.705988586 0.0561844967
vn 0.626550317 0.626547277 -0.46354413
vn 0.666069627 0.666066706 -0.335717678
vn 0.41793099 0.417929769 -0.806640208
vn 0.245984346 0.245985016 -0.937540948
vn -3.06215543E-06 0 -1
vn -3.0621552E-06 0 -1
vn 1 0 0
vn 1 0 0
vn 1 0 0
vn 1 0 0
vn 1 0 0
vn 1 0 0
vn 0.842764139 -0.50522095 0.185742453
vn 0.842764139 -0.50522095 0.185742423
vn 0.856882393 -0.513695717 0.0432349592
vn 0.855084896 -0.512615561 0.0778146908
vn 0.856882155 -0.513696074 -0.0432351567
vn 0.855084479 -0.512616217 -0.0778150037
vn 0.842763186 -0.505222619 -0.18574284
vn 0.842763186 -0.505222619 -0.18574281
vn 0.247342527 0.247341543 -0.936826408
vn 3.52400366E-06 2.16887611E-06 -1
vn 2.61901437E-06 0 -1
vn 0.38796407 0.387963921 -0.836043
vn 0.673515022 0.673515856 -0.304555148
vn 0.683513284 0.683514059 -0.256160468
vn 0.68351382 0.683513522 0.256160259
vn 0.673515677 0.673515379 0.30455488
vn 0.387963712 0.387963861 0.836043179
vn 0.247340843 0.247341514 0.936826825
vn -3.20320339E-07 0 1
vn -1.47319622E-06 0 1
vn 0.476291388 0.512459934 0.714514732
vn -3.20320339E-07 0 1
vn 2.59014018E-06 0 1
vn 0.353357106 0.380189389 0.854748368
vn 0.666951716 0.717369914 0.201384589
vn 0.679738164 0.73106277 0.059189178
vn 0.608760715 0.653179526 -0.450296402
vn 0.655921161 0.704502106 -0.271005839
vn 0.317818761 0.340598166 -0.884863913
vn 0.372878671 0.399604499 -0.837423265
vn 3.52400366E-06 2.16887611E-06 -1
vn 4.56073167E-06 4.67102018E-06 -1
vn -0.70710665 -5.89114222E-07 0.707106829
vn -0.70710665 -5.89114222E-07 0.707106829
vn -0.70710665 -5.89114222E-07 0.707106829
vn -0.70710665 -5.89114222E-07 0.707106888
vn 0.407698065 0.818267643 0.405241102
vn 0.00334376399 0.711010456 0.703173459
vn 0.00334376399 0.711010456 0.703173459
vn 0.407394767 0.81826812 0.405545026
vn 0.703849971 0.71034658 0.00173470681
vn 0.703849912 0.71034658 0.00173470669
vn 0.707106888 0 -0.70710665
vn 0.707106888 0 -0.70710659
vn 0.707106888 0 -0.70710665
vn 0.707106888 0 -0.70710665
vn -0 1 0
vn -0 1 0
vn -0 1 0
vn -0 1 0
vn -0 1 0
vn -0 1 0
g MS_RoofCorner_0
f 3/3/3 2/2/2 1/1/1
f 6/6/6 5/5/5 4/4/4
f 9/9/9 8/8/8 7/7/7
f 12/12/12 11/11/11 10/10/10
f 15/15/15 14/14/14 13/13/13
f 18/18/18 17/17/17 16/16/16
f 21/21/21 20/20/20 19/19/19
f 24/24/24 23/23/23 22/22/22
f 27/27/27 26/26/26 25/25/25
f 28/28/28 27/27/27 25/25/25
f 31/31/31 30/30/30 29/29/29
f 30/30/30 32/32/32 29/29/29
f 30/30/30 33/33/33 32/32/32
f 36/36/36 35/35/35 34/34/34
f 37/37/37 36/36/36 34/34/34
f 38/38/38 37/37/37 34/34/34
f 41/41/41 40/40/40 39/39/39
f 39/39/39 42/42/42 41/41/41
f 39/39/39 43/43/43 42/42/42
f 43/43/43 44/44/44 42/42/42
f 47/47/47 46/46/46 45/45/45
f 45/45/45 48/48/48 47/47/47
f 45/45/45 49/49/49 48/48/48
f 49/49/49 50/50/50 48/48/48
f 53/53/53 52/52/52 51/51/51
f 54/54/54 53/53/53 51/51/51
f 57/57/57 56/56/56 55/55/55
f 58/58/58 57/57/57 55/55/55
f 61/61/61 60/60/60 59/59/59
f 62/62/62 61/61/61 59/59/59
f 65/65/65 64/64/64 63/63/63
f 66/66/66 65/65/65 63/63/63
f 69/69/69 68/68/68 67/67/67
f 67/67/67 70/70/70 69/69/69
f 67/67/67 71/71/71 70/70/70
f 71/71/71 72/72/72 70/70/70
f 75/75/75 74/74/74 73/73/73
f 74/74/74 76/76/76 73/73/73
f 73/73/73 76/76/76 77/77/77
f 76/76/76 78/78/78 77/77/77
f 77/77/77 78/78/78 79/79/79
f 80/80/80 77/77/77 79/79/79
f 80/80/80 79/79/79 81/81/81
f 82/82/82 80/80/80 81/81/81
f 82/82/82 81/81/81 83/83/83
f 84/84/84 82/82/82 83/83/83
f 87/87/87 86/86/86 85/85/85
f 85/85/85 88/88/88 87/87/87
f 85/85/85 89/89/89 88/88/88
f 89/89/89 90/90/90 88/88/88
f 93/93/93 92/92/92 91/91/91
f 92/92/92 94/94/94 91/91/91
f 92/92/92 95/95/95 94/94/94
f 95/95/95 96/96/96 94/94/94
f 95/95/95 97/97/97 96/96/96
f 97/97/97 98/98/98 96/96/96
f 101/101/101 100/100/100 99/99/99
f 102/102/102 101/101/101 99/99/99
f 102/102/102 99/99/99 103/103/103
f 104/104/104 102/102/102 103/103/103
f 104/104/104 103/103/103 105/105/105
f 103/103/103 106/106/106 105/105/105
f 105/105/105 106/106/106 107/107/107
f 106/106/106 108/108/108 107/107/107
f 107/107/107 108/108/108 109/109/109
f 108/108/108 110/110/110 109/109/109
f 113/113/113 112/112/112 111/111/111
f 114/114/114 113/113/113 111/111/111
f 115/115/115 114/114/114 111/111/111
f 116/116/116 115/115/115 111/111/111
f 115/115/115 116/116/116 117/117/117
f 118/118/118 115/115/115 117/117/117
f 118/118/118 117/117/117 119/119/119
f 117/117/117 120/120/120 119/119/119
f 119/119/119 120/120/120 121/121/121
f 120/120/120 122/122/122 121/121/121
f 125/125/125 124/124/124 123/123/123
f 123/123/123 126/126/126 125/125/125
f 123/123/123 127/127/127 126/126/126
f 127/127/127 128/128/128 126/126/126
f 131/131/131 130/130/130 129/129/129
f 132/132/132 131/131/131 129/129/129
f 132/132/132 129/129/129 133/133/133
f 134/134/134 132/132/132 133/133/133
f 134/134/134 133/133/133 135/135/135
f 133/133/133 136/136/136 135/135/135
f 135/135/135 136/136/136 137/137/137
f 136/136/136 138/138/138 137/137/137
f 137/137/137 138/138/138 139/139/139
f 138/138/138 140/140/140 139/139/139
f 143/143/143 142/142/142 141/141/141
f 141/141/141 144/144/144 143/143/143
f 141/141/141 145/145/145 144/144/144
f 145/145/145 146/146/146 144/144/144
f 149/149/149 148/148/148 147/147/147
f 150/150/150 149/149/149 147/147/147
f 151/151/151 149/149/149 150/150/150
f 152/152/152 151/151/151 150/150/150
f 153/153/153 151/151/151 152/152/152
f 154/154/154 153/153/153 152/152/152
f 157/157/157 156/156/156 155/155/155
f 156/156/156 158/158/158 155/155/155
f 155/155/155 158/158/158 159/159/159
f 158/158/158 160/160/160 159/159/159
f 159/159/159 160/160/160 161/161/161
f 162/162/162 159/159/159 161/161/161
f 162/162/162 161/161/161 163/163/163
f 164/164/164 162/162/162 163/163/163
f 164/164/164 163/163/163 165/165/165
f 166/166/166 164/164/164 165/165/165
f 169/169/169 168/168/168 167/167/167
f 168/168/168 170/170/170 167/167/167
f 170/170/170 171/171/171 167/167/167
f 171/171/171 172/172/172 167/167/167
f 172/172/172 171/171/171 173/173/173
f 171/171/171 174/174/174 173/173/173
f 173/173/173 174/174/174 175/175/175
f 176/176/176 173/173/173 175/175/175
f 176/176/176 175/175/175 177/177/177
f 178/178/178 176/176/176 177/177/177
f 181/181/181 180/180/180 179/179/179
f 182/182/182 181/181/181 179/179/179
f 185/185/185 184/184/184 183/183/183
f 184/184/184 186/186/186 183/183/183
f 183/183/183 186/186/186 187/187/187
f 188/188/188 183/183/183 187/187/187
f 191/191/191 190/190/190 189/189/189
f 192/192/192 191/191/191 189/189/189
f 195/195/195 194/194/194 193/193/193
f 193/193/193 196/196/196 195/195/195
f 193/193/193 197/197/197 196/196/196
f 197/197/197 198/198/198 196/196/196
