g MS_RoofInnerCorner
v 0.5 -0.375 0.5
v -0.375 0.5 0.5
v -0.375 0.5 -0.375
v 0.5 0.5 -0.375
v 0.5 -0.375 0.5
v -0.375 0.5 -0.375
v 0.5 -0.5 -0.5
v 0.5 -0.5 0.375
v 0.5 0.375 -0.5
v 0.375 -0.5 0.5
v -0.5 -0.5 0.5
v -0.5 0.375 0.5
v 0.335602403 0.5 -0.327940673
v 0.164397582 0.5 -0.37500003
v 0.335602403 0.5 -0.375
v 0.335602403 0.0816994458 0.0399995893
v 0.335602403 0.108831845 0.059926793
v 0.335602403 0.125229374 0.0697569624
v 0.164398193 0.108831845 0.059926793
v 0.164398193 0.0816994458 0.0399995707
v 0.164398193 0.125229374 0.0697569624
v -0.327940673 0.5 0.164398193
v -0.280829459 0.5 0.207203358
v -0.375 0.5 0.164397582
v 0.0399999991 0.0816994458 0.335602403
v 0.0697570816 0.125229374 0.335602403
v 0.0599267557 0.108831845 0.335602403
v 0.0599267557 0.108831845 0.164398193
v 0.0697570816 0.125229374 0.164398193
v 0.0399999991 0.0816994458 0.164398193
v -0.5 0.5 -0.5
v -0.5 0.5 0.5
v -0.5 0.375 0.5
v -0.5 -0.5 -0.5
v -0.5 -0.5 0.5
v -0.375 0.5 0.5
v 0.5 -0.375 0.5
v 0.5 -0.5 0.5
v 0.375 -0.5 0.5
v -0.5 0.375 0.5
v -0.5 0.5 0.5
v 0.5 0.375 -0.5
v 0.5 0.5 -0.5
v -0.5 0.5 -0.5
v 0.5 -0.5 -0.5
v -0.5 -0.5 -0.5
v 0.5 0.375 -0.5
v 0.5 -0.5 0.375
v 0.5 -0.5 0.5
v 0.5 -0.375 0.5
v 0.5 0.5 -0.375
v 0.5 0.5 -0.5
v 0.375 -0.5 0.5
v 0.5 -0.5 0.5
v 0.5 -0.5 0.375
v 0.375 -0.5 0.375
v -0.5 0.5 0.5
v -0.5 0.5 -0.5
v -0.375 0.5 -0.375
v -0.375 0.5 0.5
v 0.5 0.5 -0.5
v 0.5 0.5 -0.375
v -0.375 0.5 -0.375
v -0.5 0.5 -0.5
v 0.5 -0.5 0.375
v 0.5 -0.5 -0.5
v -0.5 -0.5 -0.5
v 0.375 -0.5 0.375
v -0.5 -0.5 0.5
v 0.375 -0.5 0.5
v 0.335555404 -0.149300307 0.31810528
v 0.335599363 -0.196360171 0.318061352
v 0.164409786 -0.0234117508 0.145098642
v 0.292850345 -0.0592798777 0.275094777
v 0.207187489 0.0273962785 0.188488171
v 0.164366454 0.0236481093 0.145142898
v 0.292796612 0.5 -0.280829519
v 0.164397582 0.5 -0.37500003
v 0.335602403 0.5 -0.327940673
v 0.207203358 0.5 -0.280829519
v 0.164398193 0.5 -0.327940673
v 0.335602403 0.108831845 0.059926793
v 0.292796612 0.148784876 0.0933125466
v 0.335602403 0.125229374 0.0697569624
v 0.292796612 0.132387355 0.08348234
v 0.207203358 0.148784876 0.0933125466
v 0.207203358 0.132387355 0.0834823623
v 0.164398193 0.125229374 0.0697569624
v 0.164398193 0.108831845 0.059926793
v 0.164366454 0.0236481093 0.145142898
v 0.164409786 -0.0234117508 0.145098642
v 0.164398193 0.0816994458 0.0399995707
v 0.164398193 0.108831845 0.059926793
v 0.207187489 0.0273962785 0.188488171
v 0.207203358 0.132387355 0.0834823623
v 0.292796612 0.132387355 0.08348234
v 0.292850345 -0.0592798777 0.275094777
v 0.335602403 0.108831845 0.059926793
v 0.335555404 -0.149300307 0.31810528
v 0.335602403 0.0816994458 0.0399995893
v 0.335599363 -0.196360171 0.318061352
v 0.335602403 0.5 -0.327940673
v 0.335602403 0.5 -0.375
v 0.335602403 0.0816994458 0.0399995893
v 0.335602403 0.125229374 0.0697569624
v 0.292796612 0.148784876 0.0933125466
v 0.292796612 0.5 -0.280829519
v 0.207203358 0.5 -0.280829519
v 0.207203358 0.148784876 0.0933125466
v 0.164398193 0.125229374 0.0697569624
v 0.164398193 0.5 -0.327940673
v 0.164398193 0.0816994458 0.0399995707
v 0.164397582 0.5 -0.37500003
v -0.039490357 0.253284097 -0.0611038953
v -0.0393664539 0.185793087 -0.0608244315
v -0.210616454 0.360324502 -0.235309824
v -0.0821099803 0.336561263 -0.104381256
v -0.167826533 0.415698677 -0.191797212
v -0.210632324 0.412110358 -0.235380962
v -0.0822033659 0.5 -0.280829519
v -0.210602418 0.5 -0.37500003
v -0.0393981934 0.5 -0.327940673
v -0.0393981934 0.5 -0.375
v -0.167796627 0.5 -0.280829519
v -0.210602418 0.5 -0.37500003
v -0.0822033659 0.5 -0.280829519
v -0.210601807 0.5 -0.327940673
v -0.0393981934 0.5 -0.327940673
v -0.0393981934 0.5 -0.375
v -0.0393664539 0.185793087 -0.0608244315
v -0.039490357 0.253284097 -0.0611038953
v -0.0821099803 0.336561263 -0.104381256
v -0.0822033659 0.5 -0.280829519
v -0.167796627 0.5 -0.280829519
v -0.167826533 0.415698677 -0.191797212
v -0.210632324 0.412110358 -0.235380962
v -0.210601807 0.5 -0.327940673
v -0.210616454 0.360324502 -0.235309824
v -0.210602418 0.5 -0.37500003
v -0.235310048 0.360324502 -0.210616454
v -0.0608245842 0.185793087 -0.0393664539
v -0.0611035153 0.253284097 -0.039490357
v -0.104381099 0.336561263 -0.0821099803
v -0.191796869 0.415698677 -0.167826533
v -0.235380858 0.412110358 -0.210632324
v -0.327940673 0.5 -0.0393981934
v -0.375 0.5 -0.0393981934
v -0.375 0.5 -0.210602418
v -0.280829459 0.5 -0.0822033882
v -0.280829459 0.5 -0.167796642
v -0.327940673 0.5 -0.210601807
v -0.327940673 0.5 -0.0393981934
v -0.0608245842 0.185793087 -0.0393664539
v -0.375 0.5 -0.0393981934
v -0.0611035153 0.253284097 -0.039490357
v -0.104381099 0.336561263 -0.0821099803
v -0.280829459 0.5 -0.0822033882
v -0.280829459 0.5 -0.167796642
v -0.191796869 0.415698677 -0.167826533
v -0.235380858 0.412110358 -0.210632324
v -0.327940673 0.5 -0.210601807
v -0.235310048 0.360324502 -0.210616454
v -0.375 0.5 -0.210602418
v 0.318061531 -0.196360171 0.335599363
v 0.318105459 -0.149300307 0.335555404
v 0.275094599 -0.0592798777 0.292850316
v 0.14509888 -0.0234117508 0.164409786
v 0.188488767 0.0273962785 0.207187474
v 0.145142823 0.0236481093 0.164366454
v -0.280829459 0.5 0.207203358
v -0.280829459 0.5 0.292796612
v -0.375 0.5 0.164397582
v -0.327940673 0.5 0.335602403
v -0.375 0.5 0.335602403
v 0.0599267557 0.108831845 0.335602403
v 0.0697570816 0.125229374 0.335602403
v 0.0933129862 0.148784876 0.292796612
v 0.0834826678 0.132387355 0.292796642
v 0.0933129862 0.148784876 0.207203344
v 0.0834826678 0.132387355 0.207203358
v 0.0697570816 0.125229374 0.164398193
v 0.0599267557 0.108831845 0.164398193
v 0.145142823 0.0236481093 0.164366454
v 0.0399999991 0.0816994458 0.164398193
v 0.14509888 -0.0234117508 0.164409786
v 0.0599267557 0.108831845 0.164398193
v 0.188488767 0.0273962785 0.207187474
v 0.0834826678 0.132387355 0.207203358
v 0.0834826678 0.132387355 0.292796642
v 0.275094599 -0.0592798777 0.292850316
v 0.0599267557 0.108831845 0.335602403
v 0.318105459 -0.149300307 0.335555404
v 0.0399999991 0.0816994458 0.335602403
v 0.318061531 -0.196360171 0.335599363
v -0.327940673 0.5 0.335602403
v 0.0399999991 0.0816994458 0.335602403
v -0.375 0.5 0.335602403
v 0.0697570816 0.125229374 0.335602403
v 0.0933129862 0.148784876 0.292796612
v -0.280829459 0.5 0.292796612
v -0.280829459 0.5 0.207203358
v 0.0933129862 0.148784876 0.207203344
v 0.0697570816 0.125229374 0.164398193
v -0.327940673 0.5 0.164398193
v 0.0399999991 0.0816994458 0.164398193
v -0.375 0.5 0.164397582
vt 0.465891153 0.249264583
vt 0.465891153 0.613438249
vt 0.731879592 0.613438249
vt 0.465891153 0.613438249
vt 0.465891153 0.249264583
vt 0.731879592 0.613438249
vt 0.848795772 0.0465707779
vt 0.848795772 0.0491803885
vt 0.851405263 0.0465707779
vt 0.846147537 0.0465707779
vt 0.846147537 0.0491803885
vt 0.848757148 0.0491803885
vt 0.130197734 0.931852818
vt 0.0151482821 0.990618408
vt 0.130330652 0.990356982
vt 0.129489109 0.71995455
vt 0.106787391 0.706919014
vt 0.106787391 0.714337349
vt 0.0354332477 0.706918836
vt 0.0128618879 0.719954193
vt 0.0354332477 0.714337349
vt 0.0151482821 0.932114303
vt 0.0438415408 0.900390327
vt 0.0151482821 0.990618408
vt 0.129489109 0.71995455
vt 0.106787391 0.714337349
vt 0.106787391 0.706919014
vt 0.0354332477 0.706918836
vt 0.0354332477 0.714337349
vt 0.0128618879 0.719954193
vt 0.848130107 0.0465457141
vt 0.848130107 0.043563351
vt 0.84775722 0.043563351
vt 0.84514761 0.0465457141
vt 0.84514761 0.043563351
vt 0.399898231 0.0556559265
vt 0.0393269658 0.0556558669
vt 0.0135723948 0.0311478823
vt 0.0393274426 0.00732012093
vt 0.399897754 0.00732013583
vt 0.425652385 0.031147927
vt 0.848546028 0.043563351
vt 0.848173261 0.043563351
vt 0.848173261 0.0465457439
vt 0.851155639 0.043563351
vt 0.851155639 0.0465457439
vt 0.0393269658 0.0556558669
vt 0.399898231 0.0556559265
vt 0.425652385 0.031147927
vt 0.399897754 0.00732013583
vt 0.0393274426 0.00732012093
vt 0.0135723948 0.0311478823
vt 0.838102579 0.286312819
vt 0.881259084 0.286312521
vt 0.881259203 0.329469025
vt 0.838102579 0.329469085
vt 0.79143858 0.0475780368
vt 0.502451539 0.0475780368
vt 0.538574278 0.00974553823
vt 0.79143858 0.00974577665
vt 0.502451301 0.0475780368
vt 0.50245136 0.00974553823
vt 0.755315125 0.00974556804
vt 0.791438699 0.0475780368
vt 0.949725509 0.0451227129
vt 0.949758887 0.0451227129
vt 0.949758887 0.0450848937
vt 0.949725628 0.0451179855
vt 0.949720979 0.0450848937
vt 0.949720979 0.0451179743
vt 0.0132358372 0.474405587
vt 0.013236016 0.41606611
vt 0.127961099 0.416065991
vt 0.0419202 0.505974829
vt 0.0992768407 0.50597471
vt 0.127960965 0.474405378
vt 0.101360321 0.900259674
vt 0.0151482821 0.990618408
vt 0.130197734 0.931852818
vt 0.0438415408 0.900390327
vt 0.0151482821 0.932114303
vt 0.106787391 0.706919014
vt 0.0857144743 0.714170456
vt 0.106787391 0.714337349
vt 0.0857144743 0.705126822
vt 0.0555942655 0.714170456
vt 0.0555942655 0.70512706
vt 0.0354332477 0.714337349
vt 0.0354332477 0.706918836
vt 0.107524268 0.380206376
vt 0.130589962 0.359003514
vt 0.130589962 0.404970914
vt 0.107524268 0.396801412
vt 0.0874508917 0.370259166
vt 0.0874508917 0.39638114
vt 0.0554358214 0.396664679
vt 0.0554358214 0.328971326
vt 0.0347389802 0.397448093
vt 0.0347389802 0.29529503
vt 0.01152544 0.406028181
vt 0.01152544 0.271471858
vt 0.106787391 0.898802817
vt 0.129337966 0.917722166
vt 0.129337966 0.71995455
vt 0.106787391 0.714337349
vt 0.0857144743 0.714170456
vt 0.0857144743 0.888025463
vt 0.0555942655 0.888025463
vt 0.0555942655 0.714170456
vt 0.0354332477 0.714337349
vt 0.0354332477 0.898802996
vt 0.0130130695 0.719954193
vt 0.0130130695 0.917722166
vt 0.0132357776 0.474405468
vt 0.0132359564 0.416066051
vt 0.127961099 0.416065991
vt 0.0419201702 0.505974829
vt 0.0992768407 0.505974829
vt 0.127960995 0.474405497
vt 0.101360321 0.900259674
vt 0.0151482821 0.990618408
vt 0.130197734 0.931852818
vt 0.130330652 0.990356982
vt 0.0438415408 0.900390327
vt 0.0151482821 0.990618408
vt 0.101360321 0.900259674
vt 0.0151482821 0.932114303
vt 0.0347389802 0.397448093
vt 0.01152544 0.406028181
vt 0.01152544 0.271471858
vt 0.0347389802 0.29529503
vt 0.0554358214 0.328971326
vt 0.0554358214 0.396664679
vt 0.0874508917 0.39638114
vt 0.0874508917 0.370259166
vt 0.107524268 0.380206376
vt 0.107524268 0.396801412
vt 0.130589962 0.359003514
vt 0.130589962 0.404970914
vt 0.127961099 0.416065991
vt 0.0132359564 0.416066051
vt 0.0132357776 0.474405468
vt 0.0419201702 0.505974829
vt 0.0992768407 0.505974829
vt 0.127960995 0.474405497
vt 0.130197734 0.931852818
vt 0.130330652 0.990356982
vt 0.0151482821 0.990618408
vt 0.101360321 0.900259674
vt 0.0438415408 0.900390327
vt 0.0151482821 0.932114303
vt 0.0347389802 0.397448093
vt 0.01152544 0.271471858
vt 0.01152544 0.406028181
vt 0.0347389802 0.29529503
vt 0.0554358214 0.328971326
vt 0.0554358214 0.396664679
vt 0.0874508917 0.39638114
vt 0.0874508917 0.370259166
vt 0.107524268 0.380206376
vt 0.107524268 0.396801412
vt 0.130589962 0.359003514
vt 0.130589962 0.404970914
vt 0.013236016 0.41606611
vt 0.0132358372 0.474405587
vt 0.0419202 0.505974829
vt 0.127961099 0.416065991
vt 0.0992768407 0.50597471
vt 0.127960965 0.474405378
vt 0.0438415408 0.900390327
vt 0.101360321 0.900259674
vt 0.0151482821 0.990618408
vt 0.130197734 0.931852818
vt 0.130330652 0.990356982
vt 0.106787391 0.706919014
vt 0.106787391 0.714337349
vt 0.0857144743 0.714170456
vt 0.0857144743 0.705126822
vt 0.0555942655 0.714170456
vt 0.0555942655 0.70512706
vt 0.0354332477 0.714337349
vt 0.0354332477 0.706918836
vt 0.107524268 0.380206376
vt 0.130589962 0.404970914
vt 0.130589962 0.359003514
vt 0.107524268 0.396801412
vt 0.0874508917 0.370259166
vt 0.0874508917 0.39638114
vt 0.0554358214 0.396664679
vt 0.0554358214 0.328971326
vt 0.0347389802 0.397448093
vt 0.0347389802 0.29529503
vt 0.01152544 0.406028181
vt 0.01152544 0.271471858
vt 0.106787391 0.898802817
vt 0.129337966 0.71995455
vt 0.129337966 0.917722166
vt 0.106787391 0.714337349
vt 0.0857144743 0.714170456
vt 0.0857144743 0.888025463
vt 0.0555942655 0.888025463
vt 0.0555942655 0.714170456
vt 0.0354332477 0.714337349
vt 0.0354332477 0.898802996
vt 0.0130130695 0.719954193
vt 0.0130130695 0.917722166
vn 0.707106769 0.707106769 0
vn 0.707106769 0.707106769 0
vn 0.707106769 0.707106769 0
vn -0 0.707106769 0.707106769
vn -0 0.707106769 0.707106769
vn -0 0.707106769 0.707106769
vn 1 0 0
vn 1 0 0
vn 1 0 0
vn -0 0 1
vn -0 0 1
vn -0 0 1
vn -0 1 0
vn -0 1 0
vn -0 1 0
vn 1 0.000179875817 0.000213603911
vn 0.850978315 0.371351749 0.371394426
vn 0.886877298 0.336532414 0.316535115
vn -0.830594778 0.393898576 0.393644661
vn -1 -7.49820756E-05 -9.81013218E-05
vn -0.886879683 0.336527437 0.316534132
vn -0 1 0
vn -0 1 0
vn -0 1 0
vn 0.00021365573 0.000176716334 1
vn 0.31653586 0.336528659 0.88687855
vn 0.371395916 0.371353328 0.850977004
vn 0.393646717 0.393894076 -0.83059597
vn 0.316534698 0.336526543 -0.886879742
vn -9.7960743E-05 -7.86908422E-05 -1
vn -1 0 0
vn -1 0 0
vn -1 0 0
vn -1 0 0
vn -1 0 0
vn -0 0 1
vn -0 0 1
vn -0 0 1
vn -0 0 1
vn -0 0 1
vn -0 0 1
vn -0 0 -1
vn -0 0 -1
vn -0 0 -1
vn -0 0 -1
vn -0 0 -1
vn 1 0 0
vn 1 0 0
vn 1 0 0
vn 1 0 0
vn 1 0 0
vn 1 0 0
vn -0 -1 0
vn -0 -1 0
vn -0 -1 0
vn -0 -1 0
vn -0 1 0
vn -0 1 0
vn -0 1 0
vn -0 1 0
vn -0 1 0
vn -0 1 0
vn -0 1 0
vn -0 1 0
vn -0 -1 0
vn -0 -1 0
vn -0 -1 0
vn -0 -1 0
vn -0 -1 0
vn -0 -1 0
vn -0.711497962 -0.00144776935 0.702686667
vn -0.711497903 -0.00144776946 0.702686727
vn -0.711498022 -0.00144776946 0.702686667
vn -0.711497903 -0.00144776946 0.702686727
vn -0.711498022 -0.00144776946 0.702686667
vn -0.711497962 -0.00144776935 0.702686667
vn -0 1 0
vn -0 1 0
vn -0 1 0
vn -0 1 0
vn -0 1 0
vn 0.185741037 -0.505227685 0.842760444
vn 0.0432355814 -0.513694823 0.85688293
vn 0.185741022 -0.505227685 0.842760503
vn 0.077814877 -0.512616396 0.855084419
vn -0.043235518 -0.513693511 0.856883645
vn -0.0778156444 -0.512614071 0.855085731
vn -0.185744584 -0.505221784 0.842763186
vn -0.185744584 -0.505221784 0.842763186
vn -0.858475685 0.362764597 0.362520874
vn -0.999999762 -0.000432975823 -0.00054355833
vn -1 -7.49820756E-05 -9.81013218E-05
vn -0.830594778 0.393898576 0.393644661
vn -0.0940646827 0.703953385 0.703989744
vn -0.18538484 0.694859743 0.694839835
vn 0.318035781 0.670366645 0.670419157
vn 0.511536777 0.607578576 0.60760051
vn 0.850978315 0.371351749 0.371394426
vn 0.980200887 0.139973074 0.140049607
vn 1 0.000179875817 0.000213603911
vn 0.999999762 0.000448698614 0.000540197943
vn 0.956867993 0.211622939 0.199046448
vn 1 4.05642777E-06 0
vn 1 0.000179875817 0.000213603911
vn 0.886877298 0.336532414 0.316535115
vn 0.250440001 0.705636561 0.662840009
vn 0.301632583 0.694867909 0.652821779
vn -0.301635027 0.694866121 0.652822673
vn -0.250441462 0.70563519 0.662840843
vn -0.886879683 0.336527437 0.316534132
vn -0.95686841 0.211620227 0.199046835
vn -1 -7.49820756E-05 -9.81013218E-05
vn -1 8.11285554E-06 5.30251873E-06
vn -0.71339339 0.000455147732 0.700763583
vn -0.71339339 0.000455147732 0.700763583
vn -0.71339339 0.000455147703 0.700763583
vn -0.71339345 0.00045514779 0.700763583
vn -0.71339345 0.000455147732 0.700763583
vn -0.71339345 0.000455147732 0.700763524
vn -0 1 0
vn -0 1 0
vn -0 1 0
vn -0 1 0
vn -0 1 0
vn -0 1 0
vn -0 1 0
vn -0 1 0
vn 0.966730177 0.187700316 0.173785165
vn 0.999998808 0.00105633878 0.00112412183
vn 0.999998808 0.00105633878 0.00112412195
vn 0.986945093 0.118153103 0.109449454
vn 0.498737425 0.635636389 0.589259982
vn 0.364353329 0.682287633 0.633821905
vn -0.242001876 0.707730412 0.663741589
vn -0.105918355 0.726319492 0.679147542
vn -0.890377104 0.330439806 0.313110501
vn -0.956421971 0.211986065 0.200795963
vn -1 -6.87715801E-05 -0.000254387531
vn -1 -6.87715801E-05 -0.000254387502
vn 0.700761735 0.000454488269 -0.713395238
vn 0.700761735 0.000454488298 -0.713395238
vn 0.700761735 0.000454488298 -0.713395238
vn 0.700761676 0.000454488298 -0.713395238
vn 0.700761676 0.000454488269 -0.713395238
vn 0.700761616 0.000454488298 -0.713395298
vn -0 1 0
vn -0 1 0
vn -0 1 0
vn -0 1 0
vn -0 1 0
vn -0 1 0
vn 0.17378445 0.18769972 0.966730535
vn 0.00112412625 0.00105665415 0.999998808
vn 0.00112412625 0.00105665426 0.999998808
vn 0.109449193 0.118153103 0.986945093
vn 0.589259982 0.635636508 0.498737365
vn 0.633821666 0.682287633 0.364353687
vn 0.663742661 0.707729161 -0.242002308
vn 0.679147959 0.726319253 -0.105917379
vn 0.31311053 0.330438405 -0.890377581
vn 0.200795159 0.211986244 -0.956422091
vn -0.000254534825 -6.38310012E-05 -1
vn -0.000254534854 -6.38309939E-05 -1
vn 0.702686965 -0.00145087857 -0.711497605
vn 0.702686965 -0.00145087892 -0.711497664
vn 0.702686965 -0.00145087857 -0.711497605
vn 0.702686965 -0.00145087857 -0.711497664
vn 0.702686965 -0.00145087834 -0.711497664
vn 0.702686965 -0.00145087868 -0.711497664
vn -0 1 0
vn -0 1 0
vn -0 1 0
vn -0 1 0
vn -0 1 0
vn 0.842753649 -0.505238473 0.185742617
vn 0.842753649 -0.505238473 0.185742602
vn 0.856878221 -0.513702631 0.0432359613
vn 0.855079114 -0.512624979 0.077816017
vn 0.856880069 -0.513699532 -0.0432360098
vn 0.855082393 -0.512619495 -0.0778166056
vn 0.842760861 -0.505225062 -0.185746714
vn 0.842760861 -0.505225122 -0.185746714
vn 0.362521917 0.362760276 -0.858477116
vn -9.7960743E-05 -7.86908422E-05 -1
vn -0.000543587608 -0.000437777373 -0.999999762
vn 0.393646717 0.393894076 -0.83059597
vn 0.703991354 0.703951895 -0.0940633789
vn 0.694841385 0.694857895 -0.185386062
vn 0.670419097 0.67036593 0.318037391
vn 0.607600391 0.607579112 0.511536419
vn 0.371395916 0.371353328 0.850977004
vn 0.140049815 0.139972046 0.980201006
vn 0.00021365573 0.000176716334 1
vn 0.000540326524 0.000446908263 0.999999762
vn 0.199046955 0.211618975 0.956868649
vn 0.00021365573 0.000176716334 1
vn -0 0 1
vn 0.31653586 0.336528659 0.88687855
vn 0.662840247 0.705635905 0.250440955
vn 0.652822256 0.694866836 0.301634371
vn 0.652821898 0.69486624 -0.301636308
vn 0.662840188 0.705635667 -0.250442207
vn 0.316534698 0.336526543 -0.886879742
vn 0.199047521 0.211618572 -0.956868649
vn -9.7960743E-05 -7.86908422E-05 -1
vn 5.48252956E-06 4.66415122E-06 -1
g MS_RoofInnerCorner_0
f 3/3/3 2/2/2 1/1/1
f 6/6/6 5/5/5 4/4/4
f 9/9/9 8/8/8 7/7/7
f 12/12/12 11/11/11 10/10/10
f 15/15/15 14/14/14 13/13/13
f 18/18/18 17/17/17 16/16/16
f 21/21/21 20/20/20 19/19/19
f 24/24/24 23/23/23 22/22/22
f 27/27/27 26/26/26 25/25/25
f 30/30/30 29/29/29 28/28/28
f 33/33/33 32/32/32 31/31/31
f 31/31/31 34/34/34 33/33/33
f 34/34/34 35/35/35 33/33/33
f 38/38/38 37/37/37 36/36/36
f 36/36/36 39/39/39 38/38/38
f 36/36/36 40/40/40 39/39/39
f 36/36/36 41/41/41 40/40/40
f 44/44/44 43/43/43 42/42/42
f 44/44/44 42/42/42 45/45/45
f 46/46/46 44/44/44 45/45/45
f 49/49/49 48/48/48 47/47/47
f 47/47/47 50/50/50 49/49/49
f 47/47/47 51/51/51 50/50/50
f 47/47/47 52/52/52 51/51/51
f 55/55/55 54/54/54 53/53/53
f 56/56/56 55/55/55 53/53/53
f 59/59/59 58/58/58 57/57/57
f 60/60/60 59/59/59 57/57/57
f 63/63/63 62/62/62 61/61/61
f 64/64/64 63/63/63 61/61/61
f 67/67/67 66/66/66 65/65/65
f 65/65/65 68/68/68 67/67/67
f 68/68/68 69/69/69 67/67/67
f 68/68/68 70/70/70 69/69/69
f 73/73/73 72/72/72 71/71/71
f 71/71/71 74/74/74 73/73/73
f 74/74/74 75/75/75 73/73/73
f 75/75/75 76/76/76 73/73/73
f 79/79/79 78/78/78 77/77/77
f 77/77/77 78/78/78 80/80/80
f 80/80/80 78/78/78 81/81/81
f 84/84/84 83/83/83 82/82/82
f 83/83/83 85/85/85 82/82/82
f 83/83/83 86/86/86 85/85/85
f 86/86/86 87/87/87 85/85/85
f 86/86/86 88/88/88 87/87/87
f 88/88/88 89/89/89 87/87/87
f 92/92/92 91/91/91 90/90/90
f 93/93/93 92/92/92 90/90/90
f 93/93/93 90/90/90 94/94/94
f 95/95/95 93/93/93 94/94/94
f 95/95/95 94/94/94 96/96/96
f 94/94/94 97/97/97 96/96/96
f 96/96/96 97/97/97 98/98/98
f 97/97/97 99/99/99 98/98/98
f 98/98/98 99/99/99 100/100/100
f 99/99/99 101/101/101 100/100/100
f 104/104/104 103/103/103 102/102/102
f 105/105/105 104/104/104 102/102/102
f 106/106/106 105/105/105 102/102/102
f 107/107/107 106/106/106 102/102/102
f 106/106/106 107/107/107 108/108/108
f 109/109/109 106/106/106 108/108/108
f 109/109/109 108/108/108 110/110/110
f 108/108/108 111/111/111 110/110/110
f 110/110/110 111/111/111 112/112/112
f 111/111/111 113/113/113 112/112/112
f 116/116/116 115/115/115 114/114/114
f 114/114/114 117/117/117 116/116/116
f 117/117/117 118/118/118 116/116/116
f 118/118/118 119/119/119 116/116/116
f 122/122/122 121/121/121 120/120/120
f 123/123/123 121/121/121 122/122/122
f 126/126/126 125/125/125 124/124/124
f 124/124/124 125/125/125 127/127/127
f 130/130/130 129/129/129 128/128/128
f 131/131/131 130/130/130 128/128/128
f 132/132/132 131/131/131 128/128/128
f 133/133/133 132/132/132 128/128/128
f 132/132/132 133/133/133 134/134/134
f 135/135/135 132/132/132 134/134/134
f 135/135/135 134/134/134 136/136/136
f 134/134/134 137/137/137 136/136/136
f 136/136/136 137/137/137 138/138/138
f 137/137/137 139/139/139 138/138/138
f 142/142/142 141/141/141 140/140/140
f 140/140/140 143/143/143 142/142/142
f 140/140/140 144/144/144 143/143/143
f 140/140/140 145/145/145 144/144/144
f 148/148/148 147/147/147 146/146/146
f 148/148/148 146/146/146 149/149/149
f 148/148/148 149/149/149 150/150/150
f 148/148/148 150/150/150 151/151/151
f 154/154/154 153/153/153 152/152/152
f 153/153/153 155/155/155 152/152/152
f 155/155/155 156/156/156 152/152/152
f 156/156/156 157/157/157 152/152/152
f 157/157/157 156/156/156 158/158/158
f 156/156/156 159/159/159 158/158/158
f 158/158/158 159/159/159 160/160/160
f 161/161/161 158/158/158 160/160/160
f 161/161/161 160/160/160 162/162/162
f 163/163/163 161/161/161 162/162/162
f 166/166/166 165/165/165 164/164/164
f 164/164/164 167/167/167 166/166/166
f 167/167/167 168/168/168 166/166/166
f 167/167/167 169/169/169 168/168/168
f 172/172/172 171/171/171 170/170/170
f 172/172/172 173/173/173 171/171/171
f 172/172/172 174/174/174 173/173/173
f 177/177/177 176/176/176 175/175/175
f 178/178/178 177/177/177 175/175/175
f 179/179/179 177/177/177 178/178/178
f 180/180/180 179/179/179 178/178/178
f 181/181/181 179/179/179 180/180/180
f 182/182/182 181/181/181 180/180/180
f 185/185/185 184/184/184 183/183/183
f 184/184/184 186/186/186 183/183/183
f 183/183/183 186/186/186 187/187/187
f 186/186/186 188/188/188 187/187/187
f 187/187/187 188/188/188 189/189/189
f 190/190/190 187/187/187 189/189/189
f 190/190/190 189/189/189 191/191/191
f 192/192/192 190/190/190 191/191/191
f 192/192/192 191/191/191 193/193/193
f 194/194/194 192/192/192 193/193/193
f 197/197/197 196/196/196 195/195/195
f 196/196/196 198/198/198 195/195/195
f 198/198/198 199/199/199 195/195/195
f 199/199/199 200/200/200 195/195/195
f 200/200/200 199/199/199 201/201/201
f 199/199/199 202/202/202 201/201/201
f 201/201/201 202/202/202 203/203/203
f 204/204/204 201/201/201 203/203/203
f 204/204/204 203/203/203 205/205/205
f 206/206/206 204/204/204 205/205/205
