g FloorEdge
v -0.5 -0.241832808 -0.375
v 0.5 -0.241832808 -0.37500304
v 0.5 0.241832808 -0.37500304
v -0.5 0.241832808 -0.375
v -0.5 -0.241832808 -0.5
v 0.5 -0.241832808 -0.5
v 0.5 -0.241832808 -0.37500304
v -0.5 -0.241832808 -0.375
v -0.5 -0.5 -0.5
v 0.5 -0.5 -0.5
v 0.5 -0.241832808 -0.5
v -0.5 -0.241832808 -0.5
v -0.5 0.241832808 -0.5
v 0.5 0.241832808 -0.5
v 0.5 0.5 -0.5
v -0.5 0.5 -0.5
v -0.5 -0.5 -0.375
v 0.5 -0.5 -0.37500304
v 0.5 -0.5 -0.5
v -0.5 -0.5 -0.5
v -0.5 0.5 -0.5
v 0.5 0.5 -0.5
v 0.5 0.5 -0.37500304
v -0.5 0.5 -0.375
v -0.5 0.241832808 -0.375
v 0.5 0.241832808 -0.37500304
v 0.5 0.241832808 -0.5
v -0.5 0.241832808 -0.5
v -0.5 -0.5 0.5
v 0.5 -0.5 0.5
v 0.5 -0.5 -0.37500304
v -0.5 -0.5 -0.375
v -0.5 0.5 -0.375
v 0.5 0.5 -0.37500304
v 0.5 0.5 0.5
v -0.5 0.5 0.5
v 0.128874511 -0.24183242 -0.5
v 0.128874511 0.24183242 -0.5
v -0.128874511 0.24183242 -0.5
v -0.128874511 -0.24183242 -0.5
v -0.128874511 -0.24183242 -0.5
v -0.128874511 0.24183242 -0.5
v -0.128874511 0.24183242 -0.375004262
v -0.128874511 -0.24183242 -0.375004262
v 0.128874511 -0.24183242 -0.375004262
v 0.128874511 0.24183242 -0.375004262
v 0.128874511 0.24183242 -0.5
v 0.128874511 -0.24183242 -0.5
vt 0.838716745 0.0499861911
vt 0.838715911 0.0457215682
vt 0.840917468 0.0457215682
vt 0.840918422 0.0499861911
vt 0.936175227 0.232134104
vt 0.936034739 0.651926994
vt 0.988500118 0.651963949
vt 0.988642454 0.232168511
vt 0.0271068346 0.3037332
vt 0.359854639 0.303729713
vt 0.359855264 0.19370161
vt 0.0271074679 0.193705082
vt 0.35985586 0.303737104
vt 0.0271036774 0.3037332
vt 0.0271032937 0.193703547
vt 0.359855473 0.193707451
vt 0.988500595 0.651969492
vt 0.988652289 0.232119009
vt 0.936172307 0.232099906
vt 0.936019301 0.651950359
vt 0.936198294 0.232134506
vt 0.93601799 0.651966631
vt 0.988488138 0.652008533
vt 0.98867029 0.232173845
vt 0.988500595 0.651969612
vt 0.988652349 0.232119054
vt 0.936172247 0.23210001
vt 0.936019182 0.651950598
vt 0.956966043 0.0462834761
vt 0.956966043 0.04831516
vt 0.96052146 0.04831516
vt 0.96052146 0.046283491
vt 0.957473993 0.046283491
vt 0.957473993 0.04831516
vt 0.961029291 0.04831516
vt 0.961029291 0.0462834761
vt 0.8905285 0.38523525
vt 0.890528619 0.598915219
vt 0.984404802 0.5989151
vt 0.984404802 0.385235339
vt 0.311470389 0.852193356
vt 0.111735523 0.852193475
vt 0.111735284 0.905459523
vt 0.31147033 0.905459702
vt 0.31147033 0.852193356
vt 0.111735284 0.852193594
vt 0.111735284 0.905459642
vt 0.31147027 0.905459702
vn -2.82672067E-06 0 -1
vn -2.82672067E-06 0 -1
vn -2.82672067E-06 0 -1
vn -2.82672067E-06 0 -1
vn -0 1 0
vn -0 1 0
vn -0 1 0
vn -0 1 0
vn -0 0 -1
vn -0 0 -1
vn -0 0 -1
vn -0 0 -1
vn -0 0 -1
vn -0 0 -1
vn -0 0 -1
vn -0 0 -1
vn -0 -1 0
vn -0 -1 0
vn -0 -1 0
vn -0 -1 0
vn -0 1 0
vn -0 1 0
vn -0 1 0
vn -0 1 0
vn -0 -1 0
vn -0 -1 0
vn -0 -1 0
vn -0 -1 0
vn -0 -1 0
vn -0 -1 0
vn -0 -1 0
vn -0 -1 0
vn -0 1 0
vn -0 1 0
vn -0 1 0
vn -0 1 0
vn -0 0 -1
vn -0 0 -1
vn -0 0 -1
vn -0 0 -1
vn -1 0 0
vn -1 0 0
vn -1 0 0
vn -1 0 0
vn 1 0 0
vn 1 0 0
vn 1 0 0
vn 1 0 0
g FloorEdge_0
f 3/3/3 2/2/2 1/1/1
f 4/4/4 3/3/3 1/1/1
f 7/7/7 6/6/6 5/5/5
f 8/8/8 7/7/7 5/5/5
f 11/11/11 10/10/10 9/9/9
f 12/12/12 11/11/11 9/9/9
f 15/15/15 14/14/14 13/13/13
f 16/16/16 15/15/15 13/13/13
f 19/19/19 18/18/18 17/17/17
f 20/20/20 19/19/19 17/17/17
f 23/23/23 22/22/22 21/21/21
f 24/24/24 23/23/23 21/21/21
f 27/27/27 26/26/26 25/25/25
f 28/28/28 27/27/27 25/25/25
f 31/31/31 30/30/30 29/29/29
f 32/32/32 31/31/31 29/29/29
f 35/35/35 34/34/34 33/33/33
f 36/36/36 35/35/35 33/33/33
f 39/39/39 38/38/38 37/37/37
f 40/40/40 39/39/39 37/37/37
f 43/43/43 42/42/42 41/41/41
f 44/44/44 43/43/43 41/41/41
f 47/47/47 46/46/46 45/45/45
f 48/48/48 47/47/47 45/45/45
