g ThinWallEdge
v 0.254188299 0.499999911 0.275996715
v 0.5 0.499999911 0.275996715
v 0.5 0.499999791 0.499999255
v 0.254188299 0.499999791 0.499999255
v 0.00294676633 0.499999911 0.275996715
v 0.00294676633 0.499999791 0.499999255
v -0.246003285 0.499999791 0.499999255
v -0.5 0.499999791 0.499999255
v -0.5 0.499999911 0.275996506
v -0.246003285 0.499999911 0.275996715
v 0.00294676633 0.499999791 0.499999255
v 0.00294676633 0.499999911 0.275996715
v -0.246003285 -0.5 0.27599597
v -0.5 -0.5 0.27599597
v -0.5 -0.500000119 0.499998808
v -0.24600336 -0.500000119 0.499998808
v 0.00294676633 -0.5 0.27599597
v 0.00294673443 -0.500000119 0.499998808
v 0.5 -0.500000119 0.499998808
v 0.5 -0.5 0.27599597
v 0.254188299 -0.5 0.27599597
v 0.254188299 -0.50000006 0.49999854
v 0.00294673443 -0.500000119 0.499998808
v 0.00294676633 -0.5 0.27599597
v 0.5 0.166666612 0.275996417
v 0.5 0.499999911 0.275996715
v 0.254188299 0.499999911 0.275996715
v 0.254188299 0.166666612 0.275996476
v 0.5 -0.166666672 0.275996208
v 0.00294676633 0.166666612 0.275996417
v 0.00294676633 0.499999911 0.275996715
v -0.246003285 0.499999911 0.275996715
v 0.254188299 -0.166666672 0.275996208
v 0.5 -0.5 0.27599597
v 0.254188299 -0.5 0.27599597
v 0.00294676633 -0.5 0.27599597
v 0.00294676633 -0.166666672 0.275996208
v -0.246003285 0.166666612 0.275996417
v -0.246003285 -0.166666672 0.275996208
v -0.246003285 -0.5 0.27599597
v -0.5 -0.5 0.27599597
v -0.5 -0.166666672 0.275996149
v -0.5 0.166666612 0.275996327
v -0.5 0.499999911 0.275996506
v 0.5 -0.166666672 0.275996208
v 0.5 -0.5 0.27599597
v 0.5 -0.500000119 0.499998808
v 0.5 -0.166666806 0.499998957
v 0.5 0.166666612 0.275996417
v 0.5 0.166666508 0.499999106
v 0.5 0.499999911 0.275996715
v 0.5 0.499999791 0.499999255
v -0.5 -0.166666806 0.499998957
v -0.5 -0.500000119 0.499998808
v -0.5 -0.5 0.27599597
v -0.5 -0.166666672 0.275996149
v -0.5 0.166666508 0.499999106
v -0.5 0.166666612 0.275996327
v -0.5 0.499999791 0.499999255
v -0.5 0.499999911 0.275996506
v 0.5 0.166666508 0.499999106
v 0.254188299 0.499999791 0.499999255
v 0.5 0.499999791 0.499999255
v 0.254188299 0.166666538 0.499999046
v 0.5 -0.166666806 0.499998957
v 0.00294676633 0.499999791 0.499999255
v 0.254188299 -0.166666746 0.499998808
v 0.5 -0.500000119 0.499998808
v 0.254188299 -0.50000006 0.49999854
v 0.00294675562 0.166666508 0.499999106
v 0.00294674514 -0.166666806 0.499998957
v 0.00294673443 -0.500000119 0.499998808
v -0.24600336 -0.500000119 0.499998808
v -0.2460033 0.166666508 0.499999106
v -0.246003285 0.499999791 0.499999255
v -0.5 0.499999791 0.499999255
v -0.5 0.166666508 0.499999106
v -0.246003315 -0.166666806 0.499998957
v -0.5 -0.166666806 0.499998957
v -0.5 -0.500000119 0.499998808
vt 0.781891465 0.49958396
vt 0.781891465 0.430417657
vt 0.712548614 0.430417657
vt 0.712548614 0.49958396
vt 0.781891465 0.567920566
vt 0.712548614 0.567920566
vt 0.643205702 0.49958396
vt 0.643205702 0.567920566
vt 0.712548614 0.567920566
vt 0.712548614 0.49958396
vt 0.643205702 0.430417657
vt 0.712548614 0.430417657
vt 0.643205702 0.49958396
vt 0.643205702 0.567920566
vt 0.712548614 0.567920566
vt 0.712548614 0.49958396
vt 0.643205702 0.430417657
vt 0.712548614 0.430417657
vt 0.781891465 0.430417657
vt 0.712548614 0.430417657
vt 0.712548614 0.49958396
vt 0.781891465 0.49958396
vt 0.781891465 0.567920566
vt 0.712548614 0.567920566
vt 0.876606822 0.0400685966
vt 0.876606822 0.0227489118
vt 0.863835692 0.0227489118
vt 0.863460183 0.0400685966
vt 0.876606822 0.0573882796
vt 0.850731015 0.0400685966
vt 0.850781918 0.0227489118
vt 0.837848723 0.0227489118
vt 0.863084674 0.0573882833
vt 0.876606822 0.07470797
vt 0.862709224 0.07470797
vt 0.85062933 0.07470797
vt 0.850680113 0.0573882796
vt 0.837483764 0.0400685966
vt 0.837118745 0.0573882796
vt 0.836753786 0.07470797
vt 0.824651837 0.07470797
vt 0.824651837 0.0573882796
vt 0.824651837 0.0400685966
vt 0.824651837 0.0227489118
vt 0.677160025 0.15788646
vt 0.677160025 0.0563337952
vt 0.614275575 0.0563337952
vt 0.614275575 0.157886446
vt 0.677160025 0.259439141
vt 0.614275575 0.259439111
vt 0.677160025 0.360991806
vt 0.614275575 0.360991806
vt 0.677160025 0.157886446
vt 0.677160025 0.0563337952
vt 0.614274561 0.0563337952
vt 0.614274561 0.15788646
vt 0.677160025 0.259439111
vt 0.614274561 0.259439141
vt 0.677160025 0.360991806
vt 0.614274561 0.360991806
vt 0.876606822 0.0573882796
vt 0.863835692 0.07470797
vt 0.876606822 0.07470797
vt 0.863460183 0.0573882833
vt 0.876606822 0.0400685966
vt 0.850782573 0.07470797
vt 0.863084674 0.0400685966
vt 0.876606822 0.0227489118
vt 0.862709224 0.0227489118
vt 0.850731432 0.0573882796
vt 0.850680351 0.0400685966
vt 0.85062933 0.0227489118
vt 0.836753786 0.0227489118
vt 0.837483764 0.0573882833
vt 0.837848723 0.07470797
vt 0.824651837 0.07470797
vt 0.824651837 0.0573882796
vt 0.837118745 0.0400685966
vt 0.824651837 0.0400685966
vt 0.824651837 0.0227489118
vn -0 1 5.32178319E-07
vn -0 1 5.32178319E-07
vn -0 1 5.32178206E-07
vn -0 1 5.32178206E-07
vn -0 1 5.32178262E-07
vn -0 1 5.32178206E-07
vn -0 1 5.32178092E-07
vn -0 1 5.32177637E-07
vn -0 1 5.32177921E-07
vn -0 1 5.32178206E-07
vn -0 1 5.32178206E-07
vn -0 1 5.32178262E-07
vn -0 -1 -5.3217758E-07
vn -0 -1 -5.32177637E-07
vn -0 -1 -5.3217758E-07
vn -0 -1 -5.3217758E-07
vn -0 -1 -5.32177637E-07
vn 1.22736168E-07 -1 -4.70504744E-07
vn -2.54639303E-07 -1 -4.06991205E-07
vn -0 -1 -5.3217758E-07
vn -0 -1 -3.9035524E-07
vn -0 -1 -2.66089103E-07
vn 1.22736168E-07 -1 -4.70504744E-07
vn -0 -1 -5.32177637E-07
vn -0 7.6422549E-07 -1
vn -0 9.09303481E-07 -1
vn -0 8.26114103E-07 -1
vn -0 7.19582033E-07 -1
vn -0 7.27442796E-07 -1
vn -0 7.51620234E-07 -1
vn -0 8.93746062E-07 -1
vn 3.37711185E-07 7.64254708E-07 -1
vn -0 7.01190629E-07 -1
vn -0 6.19147386E-07 -1
vn -0 6.28651662E-07 -1
vn -0 7.14996759E-07 -1
vn -0 7.14996872E-07 -1
vn 2.10348304E-07 6.8537571E-07 -1
vn -0 6.8537571E-07 -1
vn -0 7.11136749E-07 -1
vn -0 6.31044941E-07 -1
vn 2.83304473E-07 5.79522862E-07 -1
vn 5.42290138E-07 6.16000875E-07 -1
vn 8.21334595E-07 7.04000968E-07 -1
vn 1 0 0
vn 1 0 0
vn 1 0 0
vn 1 0 0
vn 1 0 0
vn 1 0 0
vn 1 0 0
vn 1 0 0
vn -1 0 0
vn -1 0 0
vn -1 0 0
vn -1 0 0
vn -1 0 0
vn -1 0 0
vn -1 0 0
vn -1 0 0
vn -2.90156066E-07 -5.08799417E-07 1
vn -0 -5.74504156E-07 1
vn -0 -3.63721398E-07 1
vn -0 -6.13484417E-07 1
vn -6.53877407E-07 -5.99729674E-07 1
vn -0 -5.78343645E-07 1
vn -0 -6.58540159E-07 1
vn -8.71836846E-07 -6.53877407E-07 1
vn -0 -6.52464507E-07 1
vn 1.54655069E-07 -4.81273901E-07 1
vn 3.32613695E-07 -4.54305507E-07 1
vn 4.74480885E-07 -5.11225892E-07 1
vn -0 -5.18308525E-07 1
vn -0 -4.55177457E-07 1
vn -0 -7.09352832E-07 1
vn -0 -6.61133186E-07 1
vn 1.17333542E-07 -3.5200074E-07 1
vn -0 -4.61901521E-07 1
vn -0 -4.5504504E-07 1
vn -0 -3.52000654E-07 1
g ThinWallEdge_0
f 3/3/3 2/2/2 1/1/1
f 4/4/4 3/3/3 1/1/1
f 4/4/4 1/1/1 5/5/5
f 6/6/6 4/4/4 5/5/5
f 9/9/9 8/8/8 7/7/7
f 10/10/10 9/9/9 7/7/7
f 7/7/7 11/11/11 10/10/10
f 11/11/11 12/12/12 10/10/10
f 15/15/15 14/14/14 13/13/13
f 16/16/16 15/15/15 13/13/13
f 16/16/16 13/13/13 17/17/17
f 18/18/18 16/16/16 17/17/17
f 21/21/21 20/20/20 19/19/19
f 22/22/22 21/21/21 19/19/19
f 22/22/22 23/23/23 21/21/21
f 23/23/23 24/24/24 21/21/21
f 27/27/27 26/26/26 25/25/25
f 28/28/28 27/27/27 25/25/25
f 28/28/28 25/25/25 29/29/29
f 28/28/28 30/30/30 27/27/27
f 30/30/30 31/31/31 27/27/27
f 32/32/32 31/31/31 30/30/30
f 33/33/33 28/28/28 29/29/29
f 33/33/33 29/29/29 34/34/34
f 35/35/35 33/33/33 34/34/34
f 35/35/35 36/36/36 33/33/33
f 33/33/33 37/37/37 28/28/28
f 37/37/37 30/30/30 28/28/28
f 36/36/36 37/37/37 33/33/33
f 38/38/38 32/32/32 30/30/30
f 38/38/38 30/30/30 37/37/37
f 39/39/39 37/37/37 36/36/36
f 39/39/39 38/38/38 37/37/37
f 40/40/40 39/39/39 36/36/36
f 40/40/40 41/41/41 39/39/39
f 41/41/41 42/42/42 39/39/39
f 39/39/39 42/42/42 38/38/38
f 42/42/42 43/43/43 38/38/38
f 38/38/38 43/43/43 32/32/32
f 43/43/43 44/44/44 32/32/32
f 47/47/47 46/46/46 45/45/45
f 48/48/48 47/47/47 45/45/45
f 48/48/48 45/45/45 49/49/49
f 50/50/50 48/48/48 49/49/49
f 50/50/50 49/49/49 51/51/51
f 52/52/52 50/50/50 51/51/51
f 55/55/55 54/54/54 53/53/53
f 56/56/56 55/55/55 53/53/53
f 56/56/56 53/53/53 57/57/57
f 58/58/58 56/56/56 57/57/57
f 58/58/58 57/57/57 59/59/59
f 60/60/60 58/58/58 59/59/59
f 63/63/63 62/62/62 61/61/61
f 62/62/62 64/64/64 61/61/61
f 61/61/61 64/64/64 65/65/65
f 62/62/62 66/66/66 64/64/64
f 64/64/64 67/67/67 65/65/65
f 65/65/65 67/67/67 68/68/68
f 67/67/67 69/69/69 68/68/68
f 66/66/66 70/70/70 64/64/64
f 64/64/64 70/70/70 67/67/67
f 67/67/67 71/71/71 69/69/69
f 70/70/70 71/71/71 67/67/67
f 71/71/71 72/72/72 69/69/69
f 73/73/73 72/72/72 71/71/71
f 74/74/74 70/70/70 66/66/66
f 75/75/75 74/74/74 66/66/66
f 74/74/74 75/75/75 76/76/76
f 77/77/77 74/74/74 76/76/76
f 78/78/78 71/71/71 70/70/70
f 74/74/74 78/78/78 70/70/70
f 78/78/78 74/74/74 77/77/77
f 78/78/78 73/73/73 71/71/71
f 79/79/79 78/78/78 77/77/77
f 73/73/73 78/78/78 79/79/79
f 80/80/80 73/73/73 79/79/79
