g MS_RoofSidePeak
v 0.5 -0.375 0.5
v -0.5 -0.375 0.5
v -0.5 0.0250100698 0.0999902338
v 0.5 0.0250100698 0.0999902338
v 0.5 0.0250100698 0.0999902338
v 0.5 0.0250100698 -0.0999902338
v 0.5 -0.375 -0.5
v 0.5 -0.375 0.5
v 0.5 -0.5 -0.5
v 0.5 -0.5 0.5
v -0.5 -0.375 -0.5
v 0.5 -0.375 -0.5
v 0.5 0.0250100698 -0.0999902338
v -0.5 0.0250100698 -0.0999902338
v -0.5 0.0250100698 -0.0999902338
v -0.5 0.0250100698 0.0999902338
v -0.5 -0.375 0.5
v -0.5 -0.375 -0.5
v -0.5 -0.5 0.5
v -0.5 -0.5 -0.5
v -0.5 -0.5 0.5
v 0.5 -0.5 0.5
v 0.5 -0.5 -0.5
v -0.5 -0.5 -0.5
v 0.5 0.0250100698 -0.0999902338
v 0.5 0.0250100698 0.0999902338
v -0.5 0.0250100698 0.0999902338
v -0.5 0.0250100698 -0.0999902338
v -0.5 -0.5 -0.5
v 0.5 -0.5 -0.5
v 0.5 -0.375 -0.5
v -0.5 -0.375 -0.5
v 0.5 -0.5 0.5
v -0.5 -0.5 0.5
v -0.5 -0.375 0.5
v 0.5 -0.375 0.5
vt 0.588564157 0.689461708
vt 0.588564038 0.991929173
vt 0.752569318 0.991929054
vt 0.752569437 0.689461589
vt 0.976412773 0.873820126
vt 0.976412773 0.803545594
vt 0.849847138 0.689889133
vt 0.849847138 0.995400131
vt 0.810644507 0.689889133
vt 0.810644507 0.995400131
vt 0.580364108 0.991929054
vt 0.580364048 0.689461708
vt 0.752569437 0.689461589
vt 0.752569318 0.991929054
vt 0.976412773 0.873820126
vt 0.976412773 0.803545594
vt 0.849847138 0.689889133
vt 0.849847138 0.995400131
vt 0.810644507 0.689889133
vt 0.810644507 0.995400131
vt 0.949758887 0.0450848937
vt 0.949720979 0.0450848937
vt 0.949720979 0.0451227129
vt 0.949758887 0.0451227129
vt 0.0920961499 0.046222914
vt 0.0920961499 0.120245397
vt 0.441798687 0.120245397
vt 0.441798687 0.046222914
vt 0.810699284 0.689781487
vt 0.810699165 0.996192515
vt 0.849339783 0.996192515
vt 0.849339902 0.689781487
vt 0.849339902 0.996192515
vt 0.849339902 0.689781487
vt 0.810699165 0.689781487
vt 0.810699284 0.996192515
vn -0 0.707106471 0.707107008
vn -0 0.707106471 0.707107008
vn -0 0.707106471 0.707107008
vn -0 0.707106471 0.707107008
vn 1 0 0
vn 1 0 0
vn 1 0 0
vn 1 0 0
vn 1 0 0
vn 1 0 0
vn -0 0.707106471 -0.707107008
vn -0 0.707106471 -0.707107008
vn -0 0.707106471 -0.707107008
vn -0 0.707106471 -0.707107008
vn -1 0 0
vn -1 0 0
vn -1 0 0
vn -1 0 0
vn -1 0 0
vn -1 0 0
vn -0 -1 0
vn -0 -1 0
vn -0 -1 0
vn -0 -1 0
vn -0 1 0
vn -0 1 0
vn -0 1 0
vn -0 1 0
vn -0 0 -1
vn -0 0 -1
vn -0 0 -1
vn -0 0 -1
vn -0 0 1
vn -0 0 1
vn -0 0 1
vn -0 0 1
g MS_RoofSidePeak_0
f 3/3/3 2/2/2 1/1/1
f 4/4/4 3/3/3 1/1/1
f 7/7/7 6/6/6 5/5/5
f 8/8/8 7/7/7 5/5/5
f 7/7/7 8/8/8 9/9/9
f 8/8/8 10/10/10 9/9/9
f 13/13/13 12/12/12 11/11/11
f 14/14/14 13/13/13 11/11/11
f 17/17/17 16/16/16 15/15/15
f 18/18/18 17/17/17 15/15/15
f 17/17/17 18/18/18 19/19/19
f 18/18/18 20/20/20 19/19/19
f 23/23/23 22/22/22 21/21/21
f 24/24/24 23/23/23 21/21/21
f 27/27/27 26/26/26 25/25/25
f 28/28/28 27/27/27 25/25/25
f 31/31/31 30/30/30 29/29/29
f 32/32/32 31/31/31 29/29/29
f 35/35/35 34/34/34 33/33/33
f 36/36/36 35/35/35 33/33/33
