g MS_RoofSide
v 0.5 -0.5 -0.5
v 0.5 -0.5 0.375
v 0.5 0.375 -0.5
v -0.5 -0.5 0.375
v -0.5 -0.5 -0.5
v -0.5 0.375 -0.5
v 0.5 0.5 -0.5
v 0.5 0.5 -0.375
v -0.5 0.5 -0.375
v -0.5 0.5 -0.5
v 0.5 -0.5 0.5
v -0.5 -0.5 0.375
v -0.5 -0.5 0.5
v 0.5 -0.5 0.375
v -0.5 -0.5 -0.5
v 0.5 -0.5 -0.5
v 0.5 -0.5 0.5
v -0.5 -0.5 0.5
v -0.5 -0.375 0.5
v 0.5 -0.375 0.5
v 0.5 0.5 -0.5
v -0.5 0.5 -0.5
v -0.5 0.375 -0.5
v 0.5 0.375 -0.5
v 0.5 -0.375 0.5
v -0.5 -0.375 0.5
v -0.5 0.5 -0.375
v 0.5 0.5 -0.375
v 0.5 0.375 -0.5
v 0.5 -0.5 0.375
v 0.5 -0.5 0.5
v 0.5 -0.375 0.5
v 0.5 0.5 -0.375
v 0.5 0.5 -0.5
v -0.5 -0.375 0.5
v -0.5 -0.5 0.5
v -0.5 -0.5 0.375
v -0.5 0.375 -0.5
v -0.5 0.5 -0.375
v -0.5 0.5 -0.5
v -0.5 0.375 -0.5
v -0.5 -0.5 -0.5
v 0.5 -0.5 -0.5
v 0.5 0.375 -0.5
vt 0.848062992 0.0435636491
vt 0.848062992 0.0464305878
vt 0.850930095 0.0435636491
vt 0.84853828 0.0464556515
vt 0.84853828 0.0493226051
vt 0.851405263 0.0493226051
vt 0.810699284 0.996192515
vt 0.849339902 0.996192515
vt 0.849339902 0.689781487
vt 0.810699165 0.689781487
vt 0.949720979 0.0451227129
vt 0.949725509 0.0450848937
vt 0.949720979 0.0450848937
vt 0.949725509 0.0451227129
vt 0.949758887 0.0450848937
vt 0.949758887 0.0451227129
vt 0.849339783 0.996192515
vt 0.849339902 0.689781487
vt 0.810699284 0.689781487
vt 0.810699284 0.996192515
vt 0.849339902 0.996192515
vt 0.849339902 0.689781487
vt 0.810699165 0.689781487
vt 0.810699165 0.996192515
vt 0.752569318 0.991928935
vt 0.752569437 0.689461589
vt 0.459180892 0.689461589
vt 0.459180772 0.991929054
vt 0.439539909 0.046222955
vt 0.0760173798 0.046222955
vt 0.0500513949 0.0809440389
vt 0.0760173798 0.120245352
vt 0.439540923 0.120245352
vt 0.465506136 0.0809451491
vt 0.0760171413 0.120245352
vt 0.0500513949 0.0809449404
vt 0.0760173798 0.046222955
vt 0.439539909 0.046222955
vt 0.439540148 0.120245352
vt 0.465505958 0.0809451491
vt 0.84514761 0.0468401909
vt 0.848014712 0.0468401909
vt 0.848014712 0.0435636491
vt 0.84514761 0.0435636491
vn 1 0 0
vn 1 0 0
vn 1 0 0
vn -1 0 0
vn -1 0 0
vn -1 0 0
vn -0 1 0
vn -0 1 0
vn -0 1 0
vn -0 1 0
vn -0 -1 0
vn -0 -1 0
vn -0 -1 0
vn -0 -1 0
vn -0 -1 0
vn -0 -1 0
vn -0 0 1
vn -0 0 1
vn -0 0 1
vn -0 0 1
vn -0 0 -1
vn -0 0 -1
vn -0 0 -1
vn -0 0 -1
vn -0 0.707106769 0.707106769
vn -0 0.707106769 0.707106769
vn -0 0.707106769 0.707106769
vn -0 0.707106769 0.707106769
vn 1 0 0
vn 1 0 0
vn 1 0 0
vn 1 0 0
vn 1 0 0
vn 1 0 0
vn -1 0 0
vn -1 0 0
vn -1 0 0
vn -1 0 0
vn -1 0 0
vn -1 0 0
vn -0 0 -1
vn -0 0 -1
vn -0 0 -1
vn -0 0 -1
g MS_RoofSide_0
f 3/3/3 2/2/2 1/1/1
f 6/6/6 5/5/5 4/4/4
f 9/9/9 8/8/8 7/7/7
f 10/10/10 9/9/9 7/7/7
f 13/13/13 12/12/12 11/11/11
f 12/12/12 14/14/14 11/11/11
f 12/12/12 15/15/15 14/14/14
f 15/15/15 16/16/16 14/14/14
f 19/19/19 18/18/18 17/17/17
f 20/20/20 19/19/19 17/17/17
f 23/23/23 22/22/22 21/21/21
f 24/24/24 23/23/23 21/21/21
f 27/27/27 26/26/26 25/25/25
f 28/28/28 27/27/27 25/25/25
f 31/31/31 30/30/30 29/29/29
f 29/29/29 32/32/32 31/31/31
f 29/29/29 33/33/33 32/32/32
f 29/29/29 34/34/34 33/33/33
f 37/37/37 36/36/36 35/35/35
f 35/35/35 38/38/38 37/37/37
f 35/35/35 39/39/39 38/38/38
f 39/39/39 40/40/40 38/38/38
f 43/43/43 42/42/42 41/41/41
f 44/44/44 43/43/43 41/41/41
