g BrickColumnBottom
v 0.5 -0.5 -0.500000119
v 0.5 -0.312500298 -0.5
v -0 -0.312500328 -0.5
v -0 -0.5 -0.500000119
v -0 -0.500000179 0.499999911
v -0 -0.312500149 0.499999881
v 0.5 -0.312500149 0.499999881
v 0.5 -0.500000179 0.499999881
v -0.5 -0.5 -0.500000119
v -0.5 -0.500000179 0.499999881
v -0 -0.500000179 0.499999911
v -0 -0.5 -0.500000119
v 0.5 -0.500000179 0.499999881
v 0.5 -0.5 -0.500000119
v -0.5 -0.5 -0.500000119
v -0.5 -0.312500298 -0.499999911
v -0.5 -0.312500149 0.499999881
v -0.5 -0.500000179 0.499999881
v 0.5 -0.500000179 0.499999881
v 0.5 -0.312500149 0.499999881
v 0.5 -0.312500298 -0.5
v 0.5 -0.5 -0.500000119
v -0.5 -0.500000179 0.499999881
v -0.5 -0.312500149 0.499999881
v -0 -0.312500149 0.499999881
v -0 -0.500000179 0.499999911
v -0 -0.5 -0.500000119
v -0 -0.312500328 -0.5
v -0.5 -0.312500298 -0.499999911
v -0.5 -0.5 -0.500000119
v -0 -0.312500149 0.499999881
v 0.5 -0.312500298 -0.5
v 0.5 -0.312500149 0.499999881
v -0 -0.312500328 -0.5
v -0.5 -0.312500149 0.499999881
v -0.5 -0.312500298 -0.499999911
v -0.43523097 -0.3125 -0.43523106
v -0.43523097 -0.201305568 -0.435231
v -0.43523097 -0.201305702 0.438307256
v -0.43523097 -0.312500149 0.438307256
v -0.404121846 -0.163247392 -0.403981
v -0.367624491 -0.148934811 -0.368520528
v -0.367624491 -0.148934945 0.368069559
v -0.40398097 -0.163247526 0.40719828
v -0.43523097 -0.201305568 -0.435231
v -0.43523097 -0.201305702 0.438307256
v -0.43523097 -0.312500149 0.438307256
v -0.43523097 -0.201305702 0.438307256
v 0.441828728 -0.201305702 0.435676038
v 0.441828728 -0.312500149 0.435676038
v -0.40398097 -0.163247526 0.40719828
v -0.367624491 -0.148934945 0.368069559
v 0.371590823 -0.148934945 0.368069559
v 0.410719633 -0.163247526 0.404426098
v -0.43523097 -0.201305702 0.438307256
v 0.441828728 -0.201305702 0.435676038
v 0.441828728 -0.312500149 0.435676038
v 0.441828728 -0.201305702 0.435676038
v 0.43919754 -0.201305568 -0.438758373
v 0.43919754 -0.3125 -0.438758433
v 0.410719633 -0.163247526 0.404426098
v 0.371590823 -0.148934945 0.368069559
v 0.371590823 -0.148934811 -0.368520647
v 0.40794754 -0.163247392 -0.407649368
v 0.441828728 -0.201305702 0.435676038
v 0.43919754 -0.201305568 -0.438758373
v 0.43919754 -0.3125 -0.438758433
v 0.43919754 -0.201305568 -0.438758373
v -0.43523097 -0.201305568 -0.435231
v -0.43523097 -0.3125 -0.43523106
v 0.40794754 -0.163247392 -0.407649368
v 0.371590823 -0.148934811 -0.368520647
v -0.367624491 -0.148934811 -0.368520528
v -0.404121846 -0.163247392 -0.403981
v 0.43919754 -0.201305568 -0.438758373
v -0.404121846 -0.163247392 -0.403981
v -0.43523097 -0.201305568 -0.435231
v 0.366929263 -0.201305822 0.372731
v -0.36296317 -0.201305822 0.372731
v -0.36296317 0.49999994 0.37273097
v 0.366929263 0.49999994 0.37273097
v 0.376251936 -0.201305687 -0.363859206
v 0.376251936 -0.201305822 0.36340788
v 0.376251936 0.49999994 0.363407999
v 0.376251936 0.49999994 -0.363859117
v -0.36296317 -0.201305687 -0.373182178
v 0.366929263 -0.201305687 -0.373182178
v 0.366929263 0.49999994 -0.373182088
v -0.36296317 0.49999994 -0.373182088
v -0.36296317 -0.201305822 0.372731
v -0.372286052 -0.201305822 0.36340788
v -0.372286052 0.49999994 0.363407999
v -0.36296317 0.49999994 0.37273097
v -0.36296317 0.49999994 -0.373182088
v -0.372286052 0.49999994 -0.363859117
v -0.372286052 -0.201305687 -0.363859206
v -0.36296317 -0.201305687 -0.373182178
v 0.376251936 0.49999994 -0.363859117
v 0.366929263 0.49999994 -0.373182088
v 0.366929263 -0.201305687 -0.373182178
v 0.376251936 -0.201305687 -0.363859206
v 0.366929263 0.49999994 0.37273097
v 0.376251936 0.49999994 0.363407999
v 0.376251936 -0.201305822 0.36340788
v 0.366929263 -0.201305822 0.372731
v -0.372286052 -0.201305822 0.36340788
v -0.372286052 -0.201305687 -0.363859206
v -0.372286052 0.49999994 -0.363859117
v -0.372286052 0.49999994 0.363407999
vt 0.541898847 0.333925307
vt 0.541898847 0.28556174
vt 0.680746257 0.28556174
vt 0.680746257 0.333925307
vt 0.610720396 0.333925307
vt 0.610720396 0.28556174
vt 0.749567866 0.28556174
vt 0.749567866 0.333925307
vt 0.505446672 0.396182209
vt 0.505446672 0.671742678
vt 0.643226862 0.671742678
vt 0.643226862 0.396182209
vt 0.781007111 0.671742678
vt 0.781007111 0.396182209
vt 0.505005538 0.107756004
vt 0.505005538 0.156072289
vt 0.785331905 0.156072289
vt 0.785331905 0.107756004
vt 0.50542897 0.10758125
vt 0.50542897 0.156159669
vt 0.785331845 0.156159669
vt 0.785331845 0.10758125
vt 0.541898847 0.333925307
vt 0.541898847 0.28556174
vt 0.680746257 0.28556174
vt 0.680746257 0.333925307
vt 0.610720396 0.333925307
vt 0.610720396 0.28556174
vt 0.749567866 0.28556174
vt 0.749567866 0.333925307
vt 0.504936278 0.533962369
vt 0.780496597 0.396182179
vt 0.504936278 0.396182179
vt 0.780496597 0.533962369
vt 0.504936278 0.671742499
vt 0.780496597 0.671742499
vt 0.974887669 0.209200054
vt 0.936951995 0.209200144
vt 0.936943591 0.667714298
vt 0.97488755 0.667714179
vt 0.922964096 0.225602999
vt 0.907204509 0.24421601
vt 0.907194436 0.630846977
vt 0.922899485 0.651385367
vt 0.936951995 0.209200144
vt 0.936943591 0.667714298
vt 0.97508949 0.207351789
vt 0.937146485 0.207351908
vt 0.936943591 0.667714298
vt 0.974887431 0.667714179
vt 0.924079478 0.223754749
vt 0.907204807 0.242838055
vt 0.907194436 0.630846977
vt 0.922899485 0.651385367
vt 0.937146485 0.207351908
vt 0.936943591 0.667714298
vt 0.97508949 0.207351789
vt 0.937146485 0.207351908
vt 0.936943591 0.667714298
vt 0.974887431 0.667714179
vt 0.924079478 0.223754749
vt 0.907204807 0.242838055
vt 0.907194436 0.630846977
vt 0.922899485 0.651385367
vt 0.937146485 0.207351908
vt 0.936943591 0.667714298
vt 0.97508949 0.207351789
vt 0.937146485 0.207351908
vt 0.936943591 0.667714298
vt 0.974887431 0.667714179
vt 0.924079478 0.223754749
vt 0.907204807 0.242838055
vt 0.907194436 0.630846977
vt 0.922899485 0.651385367
vt 0.937146485 0.207351908
vt 0.922899485 0.651385367
vt 0.936943591 0.667714298
vt 0.83046782 0.0915114954
vt 0.83046782 0.0477873236
vt 0.812624037 0.0477873459
vt 0.812624037 0.0915114954
vt 0.884067118 0.0913542286
vt 0.884067118 0.0477873236
vt 0.866223216 0.0477873236
vt 0.866223216 0.0913542286
vt 0.83049041 0.0485771745
vt 0.83049041 0.092301324
vt 0.848334253 0.092301324
vt 0.848334253 0.0485771745
vt 0.848356783 0.0477873236
vt 0.848356783 0.0485771745
vt 0.866200686 0.0485771745
vt 0.866200686 0.0477873459
vt 0.848334253 0.0485771745
vt 0.848334253 0.0477873236
vt 0.83049041 0.0477873459
vt 0.83049041 0.0485771745
vt 0.866223216 0.0913542286
vt 0.866223216 0.0921440572
vt 0.884067118 0.0921440572
vt 0.884067118 0.0913542286
vt 0.812624037 0.0915114954
vt 0.812624037 0.092301324
vt 0.83046782 0.0923013017
vt 0.83046782 0.0915114954
vt 0.848356783 0.0485771745
vt 0.848356783 0.0921440795
vt 0.866200686 0.0921440795
vt 0.866200686 0.0485771745
vn -0 6.35783977E-07 -1
vn -0 6.35783977E-07 -1
vn -0 7.94729942E-07 -1
vn -0 7.94729942E-07 -1
vn -0 1.58945696E-07 1
vn -0 1.58945696E-07 1
vn -0 1.58945696E-07 1
vn -0 1.58945696E-07 1
vn -0 -1 -1.78813934E-07
vn -0 -1 -1.78813934E-07
vn -0 -1 -1.78813949E-07
vn -0 -1 -1.78813934E-07
vn -0 -1 -1.78813934E-07
vn -0 -1 -1.78813934E-07
vn -1 0 0
vn -1 0 0
vn -1 0 0
vn -1 0 0
vn 1 0 0
vn 1 0 0
vn 1 0 0
vn 1 0 0
vn -0 1.58945696E-07 1
vn -0 1.58945696E-07 1
vn -0 1.58945696E-07 1
vn -0 1.58945696E-07 1
vn -0 7.94729942E-07 -1
vn -0 7.94729942E-07 -1
vn -0 9.53676022E-07 -1
vn -0 9.53676022E-07 -1
vn -0 1 -1.63912816E-07
vn -0 1 -1.63912787E-07
vn -0 1 -1.63912787E-07
vn -0 1 -1.63912816E-07
vn -0 1 -1.63912816E-07
vn -0 1 -1.63912816E-07
vn -1 0 0
vn -1 0 0
vn -1 0 0
vn -1 0 0
vn -0.545028865 0.838417172 -8.2848992E-06
vn -0.351960629 0.936014831 8.04662648E-07
vn -0.351956338 0.936016381 -4.46298287E-07
vn -0.545016944 0.838424981 -3.75509239E-06
vn -0.678686976 0.73442775 1.95011376E-06
vn -0.678690374 0.734424531 -9.36910601E-06
vn -2.00481154E-05 1.44274196E-07 1
vn -2.00478826E-05 -1.44958236E-07 1
vn -2.00481154E-05 0 1
vn -2.00478826E-05 0 1
vn 8.42515055E-06 0.838416338 0.545030296
vn -8.84605106E-06 0.936022222 0.35194087
vn -1.84233056E-06 0.936011493 0.35196951
vn 7.46548176E-06 0.838407576 0.545043826
vn -1.64320238E-06 0.734433472 0.678680778
vn -9.71928239E-06 0.7344473 0.678665638
vn 1 1.43297129E-07 -3.68207693E-05
vn 1 -1.42255118E-07 -3.68210021E-05
vn 1 0 -3.68207693E-05
vn 1 0 -3.68210021E-05
vn 0.545029879 0.838416696 -1.19062024E-05
vn 0.351984352 0.936005831 -1.79919869E-06
vn 0.352057129 0.935978472 -1.9710531E-05
vn 0.545043349 0.838407815 -1.07064834E-05
vn 0.678679883 0.734434247 -5.44957584E-06
vn 0.678664565 0.734448373 2.1792946E-06
vn -7.07339495E-06 1.92365405E-07 -1
vn -7.07386062E-06 -1.93273081E-07 -1
vn -7.07386062E-06 0 -1
vn -7.07339495E-06 0 -1
vn -1.22672645E-06 0.838432789 -0.545005023
vn -3.0703377E-06 0.935999572 -0.352001011
vn -2.89516629E-06 0.936001658 -0.351995677
vn -3.41236569E-06 0.838418841 -0.545026422
vn -8.58079875E-06 0.734440207 -0.678673387
vn -1.07672522E-05 0.838410378 -0.545039415
vn -2.82004476E-06 0.734449923 -0.678662896
vn -0 0 1
vn -0 0 1
vn -0 0 1
vn -0 0 1
vn 1 0 0
vn 1 0 0
vn 1 0 0
vn 1 0 0
vn -0 0 -1
vn -0 0 -1
vn -0 0 -1
vn -0 0 -1
vn -0.707111239 0 0.707102299
vn -0.707111239 0 0.707102299
vn -0.707111239 0 0.707102299
vn -0.707111239 0 0.707102299
vn -0.707110524 0 -0.707102954
vn -0.707110524 0 -0.707102954
vn -0.707110524 0 -0.707102954
vn -0.707110524 0 -0.707102954
vn 0.70712018 0 -0.707093358
vn 0.70712018 0 -0.707093358
vn 0.70712018 0 -0.707093358
vn 0.70712018 0 -0.707093358
vn 0.707120895 0 0.707092643
vn 0.707120895 0 0.707092643
vn 0.707120895 0 0.707092643
vn 0.707120895 0 0.707092643
vn -1 0 0
vn -1 0 0
vn -1 0 0
vn -1 0 0
g BrickColumnBottom_0
f 3/3/3 2/2/2 1/1/1
f 4/4/4 3/3/3 1/1/1
f 7/7/7 6/6/6 5/5/5
f 8/8/8 7/7/7 5/5/5
f 11/11/11 10/10/10 9/9/9
f 12/12/12 11/11/11 9/9/9
f 13/13/13 11/11/11 12/12/12
f 14/14/14 13/13/13 12/12/12
f 17/17/17 16/16/16 15/15/15
f 18/18/18 17/17/17 15/15/15
f 21/21/21 20/20/20 19/19/19
f 22/22/22 21/21/21 19/19/19
f 25/25/25 24/24/24 23/23/23
f 26/26/26 25/25/25 23/23/23
f 29/29/29 28/28/28 27/27/27
f 30/30/30 29/29/29 27/27/27
f 33/33/33 32/32/32 31/31/31
f 32/32/32 34/34/34 31/31/31
f 31/31/31 34/34/34 35/35/35
f 34/34/34 36/36/36 35/35/35
f 39/39/39 38/38/38 37/37/37
f 40/40/40 39/39/39 37/37/37
f 43/43/43 42/42/42 41/41/41
f 44/44/44 43/43/43 41/41/41
f 44/44/44 41/41/41 45/45/45
f 46/46/46 44/44/44 45/45/45
f 49/49/49 48/48/48 47/47/47
f 50/50/50 49/49/49 47/47/47
f 53/53/53 52/52/52 51/51/51
f 54/54/54 53/53/53 51/51/51
f 54/54/54 51/51/51 55/55/55
f 56/56/56 54/54/54 55/55/55
f 59/59/59 58/58/58 57/57/57
f 60/60/60 59/59/59 57/57/57
f 63/63/63 62/62/62 61/61/61
f 64/64/64 63/63/63 61/61/61
f 64/64/64 61/61/61 65/65/65
f 66/66/66 64/64/64 65/65/65
f 69/69/69 68/68/68 67/67/67
f 70/70/70 69/69/69 67/67/67
f 73/73/73 72/72/72 71/71/71
f 74/74/74 73/73/73 71/71/71
f 76/76/76 71/71/71 75/75/75
f 77/77/77 76/76/76 75/75/75
f 80/80/80 79/79/79 78/78/78
f 81/81/81 80/80/80 78/78/78
f 84/84/84 83/83/83 82/82/82
f 85/85/85 84/84/84 82/82/82
f 88/88/88 87/87/87 86/86/86
f 89/89/89 88/88/88 86/86/86
f 92/92/92 91/91/91 90/90/90
f 93/93/93 92/92/92 90/90/90
f 96/96/96 95/95/95 94/94/94
f 97/97/97 96/96/96 94/94/94
f 100/100/100 99/99/99 98/98/98
f 101/101/101 100/100/100 98/98/98
f 104/104/104 103/103/103 102/102/102
f 105/105/105 104/104/104 102/102/102
f 108/108/108 107/107/107 106/106/106
f 109/109/109 108/108/108 106/106/106
