g BRAMP_1_R1_NoEdge
v -0.123489991 -0.44977653 -0.5
v -0.124260254 -0.406064987 -0.5
v -0.369593203 -0.467398226 -0.5
v -0.5 -0.5 -0.5
v -0.370762318 -0.5 -0.5
v -0.369593203 -0.467398226 -0.5
v -0.123489991 -0.44977653 -0.5
v -0.122604981 -0.5 -0.5
v -0.5 -0.5 -0.375
v -0.370548993 -0.5 -0.375
v -0.5 -0.5 -0.5
v -0.370762318 -0.5 -0.5
v -0.370925903 -0.467731506 -0.375000596
v -0.369593203 -0.467398226 -0.5
v -0.124260254 -0.406064987 -0.5
v 0.5 -0.25 -0.5
v -0.5 -0.5 0.375003666
v -0.367853075 -0.5 0.37500304
v -0.370548993 -0.5 -0.375
v -0.5 -0.5 -0.375
v -0.370925903 -0.467731506 -0.375000596
v 0.5 -0.25 -0.5
v 0.5 -0.25 0.5
v -0.372066021 -0.468016505 0.375003666
v 0.5 -0.5 0.5
v -0.124570921 -0.5 0.5
v -0.121817932 -0.44955349 0.5
v 0.5 -0.366607845 0.5
v 0.5 -0.366607845 0.5
v -0.121817932 -0.44955349 0.5
v -0.124260254 -0.406064987 0.5
v 0.5 -0.25 0.5
v -0.5 -0.5 0.375003666
v -0.5 -0.5 0.5
v -0.367853075 -0.5 0.37500304
v -0.368737161 -0.5 0.5
v -0.124260254 -0.406064987 0.5
v -0.372066021 -0.468016505 0.375003666
v 0.5 -0.25 0.5
v -0.370345742 -0.467586398 0.5
v -0.5 -0.5 0.375003666
v -0.5 -0.5 -0.5
v -0.5 -0.5 -0.375
v -0.5 -0.5 0.5
v -0.5 -0.5 -0.375
v -0.5 -0.5 0.375003666
v 0.5 -0.366607845 -0.5
v 0.5 -0.5 -0.5
v 0.5 -0.5 0.5
v 0.5 -0.366607845 0.5
v 0.5 -0.25 -0.5
v 0.5 -0.366607845 -0.5
v 0.5 -0.366607845 0.5
v 0.5 -0.25 0.5
v -0.368737161 -0.5 0.5
v -0.5 -0.5 0.5
v -0.370345742 -0.467586398 0.5
v -0.124570921 -0.5 0.5
v -0.124260254 -0.406064987 0.5
v -0.121817932 -0.44955349 0.5
v -0.123489991 -0.44977653 -0.5
v 0.5 -0.366607845 -0.5
v 0.5 -0.25 -0.5
v -0.124260254 -0.406064987 -0.5
v -0.122604981 -0.5 -0.5
v 0.5 -0.5 -0.5
v 0.5 -0.366607845 -0.5
v -0.123489991 -0.44977653 -0.5
v -0.367853075 -0.5 0.37500304
v 0.5 -0.5 0.5
v 0.5 -0.5 -0.5
v -0.370548993 -0.5 -0.375
v -0.124570921 -0.5 0.5
v 0.5 -0.5 0.5
v -0.367853075 -0.5 0.37500304
v -0.368737161 -0.5 0.5
v -0.5 -0.5 -0.5
v -0.369593203 -0.467398226 -0.5
v -0.370925903 -0.467731506 -0.375000596
v -0.5 -0.5 -0.375
v -0.5 -0.5 -0.375
v -0.370925903 -0.467731506 -0.375000596
v -0.372066021 -0.468016505 0.375003666
v -0.5 -0.5 0.375003666
v -0.5 -0.5 0.5
v -0.5 -0.5 0.375003666
v -0.372066021 -0.468016505 0.375003666
v -0.370345742 -0.467586398 0.5
v -0.370548993 -0.5 -0.375
v 0.5 -0.5 -0.5
v -0.122604981 -0.5 -0.5
v -0.370762318 -0.5 -0.5
vt 0.452761054 0.211910933
vt 0.452466309 0.230986297
vt 0.35856688 0.230499342
vt 0.308658123 0.192688718
vt 0.358119518 0.192689285
vt 0.35856688 0.230499342
vt 0.452761054 0.211910933
vt 0.453099668 0.192688718
vt 0.304632038 0.267028749
vt 0.192186117 0.267028749
vt 0.304632217 0.230142891
vt 0.194530845 0.230142891
vt 0.948487818 0.0387361944
vt 0.943207145 0.0387884378
vt 0.943202734 0.0489752889
vt 0.943191469 0.0753180757
vt 0.35890016 0.376944005
vt 0.35890013 0.340875864
vt 0.137736946 0.340632141
vt 0.137736902 0.377013683
vt 0.957474113 0.046545729
vt 0.956966221 0.0483151674
vt 0.961029291 0.04831516
vt 0.96052146 0.0465434045
vt 0.474826992 0.27046603
vt 0.192425609 0.265962392
vt 0.193670481 0.231774837
vt 0.474828184 0.229426369
vt 0.022670459 0.120916001
vt 0.303832561 0.120359004
vt 0.304936677 0.0844466537
vt 0.0226700976 0.0796943903
vt 0.988652349 0.232118562
vt 0.936172247 0.232099712
vt 0.988632262 0.287600607
vt 0.93615216 0.287210464
vt 0.953115404 0.080273062
vt 0.952909231 0.0803771019
vt 0.953634858 0.080273062
vt 0.952910602 0.080273062
vt 0.86397773 0.0778206289
vt 0.880347967 0.0813288242
vt 0.878008604 0.0780662522
vt 0.861639261 0.0813287795
vt 0.878008604 0.0845909193
vt 0.86397773 0.0848365873
vt 0.393710554 0.377157122
vt 0.393711448 0.340476692
vt 0.10075213 0.340476364
vt 0.100752279 0.377157122
vt 0.393710792 0.377157122
vt 0.393710852 0.340475976
vt 0.100752354 0.340475976
vt 0.100752532 0.377156913
vt 0.358896792 0.192688733
vt 0.308658123 0.192688718
vt 0.358281136 0.230426237
vt 0.452347398 0.192688718
vt 0.452466309 0.230986297
vt 0.45340097 0.211996347
vt 0.192913488 0.120327741
vt 0.474831343 0.120912224
vt 0.474831939 0.0796841681
vt 0.192565426 0.0844470188
vt 0.304187834 0.266000867
vt 0.0244027637 0.270489663
vt 0.0244038403 0.229423583
vt 0.30458793 0.231807798
vt 0.957473993 0.0465519689
vt 0.956966102 0.04831516
vt 0.961029351 0.04831516
vt 0.96052146 0.0465464927
vt 0.953115165 0.080273062
vt 0.953634918 0.080273062
vt 0.952912688 0.0803771019
vt 0.952911973 0.080273062
vt 0.304632217 0.230142891
vt 0.193515241 0.230142891
vt 0.192513347 0.267028511
vt 0.304632038 0.267028749
vt 0.358900189 0.37699312
vt 0.35890013 0.340898812
vt 0.137736827 0.340626657
vt 0.137736872 0.376923442
vt 0.936017573 0.651968062
vt 0.988488674 0.652007222
vt 0.98851198 0.598296106
vt 0.936040998 0.597534955
vt 0.948475063 0.0698810816
vt 0.943207026 0.0330967829
vt 0.943197489 0.0594030321
vt 0.943193674 0.0698881745
vn -2.99766407E-06 0 -1
vn -3.27430303E-06 0 -1
vn 4.53324355E-06 0 -1
vn -0 0 -1
vn -3.92567381E-06 0 -1
vn -4.11965539E-06 0 -1
vn -6.61437753E-07 0 -1
vn -7.10223844E-07 0 -1
vn -0 -1 0
vn -0 -1 0
vn -0 -1 0
vn -0 -1 0
vn -0.242537022 0.970142186 5.17857075E-07
vn -0.242537051 0.970142066 5.22318487E-07
vn -0.242537484 0.970141947 5.68575445E-07
vn -0 1 0
vn -0 -1 0
vn -0 -1 0
vn -0 -1 0
vn -0 -1 0
vn -0.242535457 0.970142543 0
vn -0 1 0
vn -0 1 0
vn -0.242535457 0.970142543 0
vn -0 0 1
vn 1.01379453E-06 0 1
vn 3.90067811E-07 0 1
vn -0 0 1
vn -0 0 1
vn 3.90067811E-07 0 1
vn -4.76070426E-07 0 1
vn -0 0 1
vn -0 -1 0
vn -0 -1 0
vn -0 -1 1.89809299E-07
vn -0 -1 0
vn -0.242534116 0.970142841 -8.05409911E-07
vn -0.242536381 0.970142305 0
vn -0 1 0
vn -0.242537051 0.970142066 2.58259604E-07
vn -1 -1.62337329E-07 0
vn -1 0 0
vn -1 -1.62337344E-07 0
vn -1 0 0
vn -1 1.62337344E-07 0
vn -1 1.62337329E-07 0
vn 1 0 0
vn 1 0 0
vn 1 0 0
vn 1 0 0
vn 1 0 0
vn 1 0 0
vn 1 0 0
vn 1 0 0
vn 1.38525593E-06 0 1
vn -0 0 1
vn 1.41254577E-06 0 1
vn 1.01379453E-06 0 1
vn -4.76070426E-07 0 1
vn 3.90067811E-07 0 1
vn -2.99766407E-06 0 -1
vn -0 0 -1
vn -0 0 -1
vn -3.27430303E-06 0 -1
vn -7.10223844E-07 0 -1
vn -0 0 -1
vn -0 0 -1
vn -6.61437753E-07 0 -1
vn -0 -1 0
vn -0 -1 0
vn -0 -1 0
vn -0 -1 0
vn -0 -1 5.8476121E-07
vn -0 -1 0
vn -0 -1 1.89809299E-07
vn -0 -1 0
vn -0 1 0
vn -0.242537051 0.970142066 5.22318487E-07
vn -0.242537022 0.970142186 5.17857075E-07
vn -0.242535636 0.970142543 3.65114886E-07
vn -0.242535472 0.970142543 0
vn -0.242535457 0.970142543 0
vn -0.242535457 0.970142543 0
vn -0.242535457 0.970142543 0
vn -0 1 0
vn -0 1 0
vn -0.242536381 0.970142305 0
vn -0.242537051 0.970142066 2.58259604E-07
vn -0 -1 0
vn -0 -1 0
vn -0 -1 0
vn -0 -1 0
g BRAMP_1_R1_NoEdge_0
f 3/3/3 2/2/2 1/1/1
f 6/6/6 5/5/5 4/4/4
f 6/6/6 7/7/7 5/5/5
f 7/7/7 8/8/8 5/5/5
f 11/11/11 10/10/10 9/9/9
f 11/11/11 12/12/12 10/10/10
f 15/15/15 14/14/14 13/13/13
f 16/16/16 15/15/15 13/13/13
f 19/19/19 18/18/18 17/17/17
f 20/20/20 19/19/19 17/17/17
f 23/23/23 22/22/22 21/21/21
f 24/24/24 23/23/23 21/21/21
f 27/27/27 26/26/26 25/25/25
f 28/28/28 27/27/27 25/25/25
f 31/31/31 30/30/30 29/29/29
f 32/32/32 31/31/31 29/29/29
f 35/35/35 34/34/34 33/33/33
f 35/35/35 36/36/36 34/34/34
f 39/39/39 38/38/38 37/37/37
f 38/38/38 40/40/40 37/37/37
f 43/43/43 42/42/42 41/41/41
f 42/42/42 44/44/44 41/41/41
f 42/42/42 45/45/45 44/44/44
f 45/45/45 46/46/46 44/44/44
f 49/49/49 48/48/48 47/47/47
f 50/50/50 49/49/49 47/47/47
f 53/53/53 52/52/52 51/51/51
f 54/54/54 53/53/53 51/51/51
f 57/57/57 56/56/56 55/55/55
f 57/57/57 55/55/55 58/58/58
f 59/59/59 57/57/57 58/58/58
f 58/58/58 60/60/60 59/59/59
f 63/63/63 62/62/62 61/61/61
f 64/64/64 63/63/63 61/61/61
f 67/67/67 66/66/66 65/65/65
f 68/68/68 67/67/67 65/65/65
f 71/71/71 70/70/70 69/69/69
f 72/72/72 71/71/71 69/69/69
f 75/75/75 74/74/74 73/73/73
f 75/75/75 73/73/73 76/76/76
f 79/79/79 78/78/78 77/77/77
f 80/80/80 79/79/79 77/77/77
f 83/83/83 82/82/82 81/81/81
f 84/84/84 83/83/83 81/81/81
f 87/87/87 86/86/86 85/85/85
f 87/87/87 85/85/85 88/88/88
f 91/91/91 90/90/90 89/89/89
f 92/92/92 91/91/91 89/89/89
