g BrickColumnMiddle
v 0.366929263 -0.50000006 0.37273109
v -0.36296317 -0.50000006 0.37273109
v -0.36296317 0.49999994 0.37273097
v 0.366929263 0.49999994 0.37273097
v 0.376251936 -0.499999911 -0.363859206
v 0.376251936 -0.50000006 0.363407969
v 0.376251936 0.49999994 0.363407999
v 0.376251936 0.49999994 -0.363859117
v -0.36296317 -0.499999911 -0.373182178
v 0.366929263 -0.499999911 -0.373182178
v 0.366929263 0.49999994 -0.373182088
v -0.36296317 0.49999994 -0.373182088
v -0.36296317 -0.50000006 0.37273109
v -0.372286052 -0.50000006 0.363407969
v -0.372286052 0.49999994 0.363407999
v -0.36296317 0.49999994 0.37273097
v -0.36296317 0.49999994 -0.373182088
v -0.372286052 0.49999994 -0.363859117
v -0.372286052 -0.499999911 -0.363859206
v -0.36296317 -0.499999911 -0.373182178
v 0.376251936 0.49999994 -0.363859117
v 0.366929263 0.49999994 -0.373182088
v 0.366929263 -0.499999911 -0.373182178
v 0.376251936 -0.499999911 -0.363859206
v 0.366929263 0.49999994 0.37273097
v 0.376251936 0.49999994 0.363407999
v 0.376251936 -0.50000006 0.363407969
v 0.366929263 -0.50000006 0.37273109
v -0.372286052 -0.50000006 0.363407969
v -0.372286052 -0.499999911 -0.363859206
v -0.372286052 0.49999994 -0.363859117
v -0.372286052 0.49999994 0.363407999
vt 0.83046782 0.0915114954
vt 0.83046782 0.0477873236
vt 0.812624037 0.0477873459
vt 0.812624037 0.0915114954
vt 0.884067118 0.0913542286
vt 0.884067118 0.0477873236
vt 0.866223216 0.0477873236
vt 0.866223216 0.0913542286
vt 0.83049041 0.0485771745
vt 0.83049041 0.092301324
vt 0.848334253 0.092301324
vt 0.848334253 0.0485771745
vt 0.848356783 0.0477873236
vt 0.848356783 0.0485771745
vt 0.866200686 0.0485771745
vt 0.866200686 0.0477873459
vt 0.848334253 0.0485771745
vt 0.848334253 0.0477873236
vt 0.83049041 0.0477873459
vt 0.83049041 0.0485771745
vt 0.866223216 0.0913542286
vt 0.866223216 0.0921440572
vt 0.884067118 0.0921440572
vt 0.884067118 0.0913542286
vt 0.812624037 0.0915114954
vt 0.812624037 0.092301324
vt 0.83046782 0.0923013017
vt 0.83046782 0.0915114954
vt 0.848356783 0.0485771745
vt 0.848356783 0.0921440795
vt 0.866200686 0.0921440795
vt 0.866200686 0.0485771745
vn -0 1.22493333E-07 1
vn -0 1.22493333E-07 1
vn -0 1.22493333E-07 1
vn -0 1.22493333E-07 1
vn 1 0 0
vn 1 0 0
vn 1 0 0
vn 1 0 0
vn -0 0 -1
vn -0 0 -1
vn -0 0 -1
vn -0 0 -1
vn -0.707112432 0 0.707101107
vn -0.707112432 0 0.707101107
vn -0.707112432 0 0.707101107
vn -0.707112432 0 0.707101107
vn -0.707110107 0 -0.707103431
vn -0.707110107 0 -0.707103431
vn -0.707110107 0 -0.707103431
vn -0.707110107 0 -0.707103431
vn 0.707120299 0 -0.707093179
vn 0.707120299 0 -0.707093179
vn 0.707120299 0 -0.707093179
vn 0.707120299 0 -0.707093179
vn 0.707121432 0 0.707092047
vn 0.707121432 0 0.707092047
vn 0.707121432 0 0.707092047
vn 0.707121432 0 0.707092047
vn -1 0 0
vn -1 0 0
vn -1 0 0
vn -1 0 0
g BrickColumnMiddle_0
f 3/3/3 2/2/2 1/1/1
f 4/4/4 3/3/3 1/1/1
f 7/7/7 6/6/6 5/5/5
f 8/8/8 7/7/7 5/5/5
f 11/11/11 10/10/10 9/9/9
f 12/12/12 11/11/11 9/9/9
f 15/15/15 14/14/14 13/13/13
f 16/16/16 15/15/15 13/13/13
f 19/19/19 18/18/18 17/17/17
f 20/20/20 19/19/19 17/17/17
f 23/23/23 22/22/22 21/21/21
f 24/24/24 23/23/23 21/21/21
f 27/27/27 26/26/26 25/25/25
f 28/28/28 27/27/27 25/25/25
f 31/31/31 30/30/30 29/29/29
f 32/32/32 31/31/31 29/29/29
