g FloorThreeEdge
v -0.37500304 -0.241832808 -0.375
v 0.375 -0.241832808 -0.37500304
v 0.375 0.241832808 -0.37500304
v -0.37500304 0.241832808 -0.375
v -0.5 -0.241832808 -0.5
v 0.5 -0.241832808 -0.5
v 0.375 -0.241832808 -0.37500304
v -0.37500304 -0.241832808 -0.375
v -0.5 -0.5 -0.5
v 0.5 -0.5 -0.5
v 0.5 -0.241832808 -0.5
v -0.5 -0.241832808 -0.5
v -0.5 0.241832808 -0.5
v 0.5 0.241832808 -0.5
v 0.5 0.5 -0.5
v -0.5 0.5 -0.5
v -0.375004262 -0.5 -0.375
v 0.375 -0.5 -0.37500304
v 0.5 -0.5 -0.5
v -0.5 -0.5 -0.5
v -0.5 0.5 -0.5
v 0.5 0.5 -0.5
v 0.375 0.5 -0.37500304
v -0.375004262 0.5 -0.375
v -0.37500304 0.241832808 -0.375
v 0.375 0.241832808 -0.37500304
v 0.5 0.241832808 -0.5
v -0.5 0.241832808 -0.5
v -0.375 -0.241832808 0.5
v -0.37500304 -0.241832808 -0.375
v -0.37500304 0.241832808 -0.375
v -0.375 0.241832808 0.5
v -0.5 -0.241832808 0.5
v -0.5 -0.241832808 -0.5
v -0.37500304 -0.241832808 -0.375
v -0.375 -0.241832808 0.5
v -0.5 -0.5 0.5
v -0.5 -0.5 -0.5
v -0.5 -0.241832808 -0.5
v -0.5 -0.241832808 0.5
v -0.5 0.241832808 0.5
v -0.5 0.241832808 -0.5
v -0.5 0.5 -0.5
v -0.5 0.5 0.5
v -0.375 -0.5 0.5
v -0.375004262 -0.5 -0.375
v -0.5 -0.5 -0.5
v -0.5 -0.5 0.5
v -0.5 0.5 0.5
v -0.5 0.5 -0.5
v -0.375004262 0.5 -0.375
v -0.375 0.5 0.5
v -0.375 0.241832808 0.5
v -0.37500304 0.241832808 -0.375
v -0.5 0.241832808 -0.5
v -0.5 0.241832808 0.5
v 0.375 -0.241832808 -0.37500304
v 0.375002444 -0.241832808 0.5
v 0.375002444 0.241832808 0.5
v 0.375 0.241832808 -0.37500304
v 0.5 -0.241832808 -0.5
v 0.5 -0.241832808 0.5
v 0.375002444 -0.241832808 0.5
v 0.375 -0.241832808 -0.37500304
v 0.5 -0.5 -0.5
v 0.5 -0.5 0.5
v 0.5 -0.241832808 0.5
v 0.5 -0.241832808 -0.5
v 0.5 0.241832808 -0.5
v 0.5 0.241832808 0.5
v 0.5 0.5 0.5
v 0.5 0.5 -0.5
v 0.375 -0.5 -0.37500304
v 0.375002444 -0.5 0.5
v 0.5 -0.5 0.5
v 0.5 -0.5 -0.5
v 0.5 0.5 -0.5
v 0.5 0.5 0.5
v 0.375002444 0.5 0.5
v 0.375 0.5 -0.37500304
v 0.375 0.241832808 -0.37500304
v 0.375002444 0.241832808 0.5
v 0.5 0.241832808 0.5
v 0.5 0.241832808 -0.5
v -0.375 -0.5 0.5
v 0.375002444 -0.5 0.5
v 0.375 -0.5 -0.37500304
v -0.375004262 -0.5 -0.375
v -0.375004262 0.5 -0.375
v 0.375 0.5 -0.37500304
v 0.375002444 0.5 0.5
v -0.375 0.5 0.5
v 0.128874511 -0.24183242 -0.5
v 0.128874511 0.24183242 -0.5
v -0.128874511 0.24183242 -0.5
v -0.128874511 -0.24183242 -0.5
v -0.128874511 -0.24183242 -0.5
v -0.128874511 0.24183242 -0.5
v -0.128874511 0.24183242 -0.375004262
v -0.128874511 -0.24183242 -0.375004262
v 0.128874511 -0.24183242 -0.375004262
v 0.128874511 0.24183242 -0.375004262
v 0.128874511 0.24183242 -0.5
v 0.128874511 -0.24183242 -0.5
v 0.5 -0.24183242 0.128875121
v 0.5 0.24183242 0.128875121
v 0.5 0.24183242 -0.128875121
v 0.5 -0.24183242 -0.128875121
v 0.5 -0.24183242 -0.128875121
v 0.5 0.24183242 -0.128875121
v 0.375004888 0.24183242 -0.128875121
v 0.375004888 -0.24183242 -0.128875121
v 0.375004888 -0.24183242 0.128875121
v 0.375004888 0.24183242 0.128875121
v 0.5 0.24183242 0.128875121
v 0.5 -0.24183242 0.128875121
v -0.5 -0.24183242 -0.128875121
v -0.5 0.24183242 -0.128875121
v -0.5 0.24183242 0.128875121
v -0.5 -0.24183242 0.128875121
v -0.5 -0.24183242 0.128875121
v -0.5 0.24183242 0.128875121
v -0.375004262 0.24183242 0.128875121
v -0.375004262 -0.24183242 0.128875121
v -0.375004262 -0.24183242 -0.128875121
v -0.375004262 0.24183242 -0.128875121
v -0.5 0.24183242 -0.128875121
v -0.5 -0.24183242 -0.128875121
vt 0.831789613 0.0695557892
vt 0.831789613 0.0339159891
vt 0.852785051 0.0339159891
vt 0.852785051 0.0695557892
vt 0.936176658 0.232127771
vt 0.936033249 0.65193361
vt 0.988515615 0.599498749
vt 0.98862803 0.284627706
vt 0.0271067396 0.303734958
vt 0.359852403 0.303730875
vt 0.359853059 0.193702757
vt 0.0271073878 0.19370684
vt 0.359855771 0.303735554
vt 0.0271038413 0.303731591
vt 0.0271034576 0.193701997
vt 0.359855384 0.193705946
vt 0.988519669 0.599489987
vt 0.988633275 0.284600288
vt 0.936172307 0.232099891
vt 0.936019242 0.651950359
vt 0.936199665 0.232128114
vt 0.9360165 0.651973248
vt 0.988508701 0.599538445
vt 0.988650918 0.284637362
vt 0.988519788 0.59948951
vt 0.988633275 0.284600407
vt 0.936172247 0.232100025
vt 0.936019182 0.651950538
vt 0.841844678 0.0476705059
vt 0.841841578 0.0459202304
vt 0.842725396 0.0459202304
vt 0.842728496 0.0476705059
vt 0.936178505 0.232115105
vt 0.936014235 0.651965976
vt 0.988504648 0.599534035
vt 0.98865056 0.23216033
vt 0.027107114 0.303727746
vt 0.359857261 0.303730607
vt 0.359855592 0.193702742
vt 0.0271054525 0.193699867
vt 0.359857798 0.303733885
vt 0.0271050129 0.303731382
vt 0.0271040257 0.193703443
vt 0.359856814 0.193705946
vt 0.988501072 0.651969969
vt 0.98863256 0.28459993
vt 0.936172068 0.232099414
vt 0.936019719 0.651950836
vt 0.936200082 0.232127279
vt 0.936017334 0.651967287
vt 0.988507986 0.599539042
vt 0.988670647 0.232174814
vt 0.988500535 0.651969433
vt 0.988633037 0.284600347
vt 0.936172247 0.232099965
vt 0.936019301 0.651950419
vt 0.841841578 0.0459202304
vt 0.841837525 0.0476701036
vt 0.842721343 0.0476701036
vt 0.842725396 0.0459202304
vt 0.936153114 0.232084051
vt 0.936032832 0.651934743
vt 0.988507748 0.651954949
vt 0.988615036 0.284580082
vt 0.0270988438 0.303729087
vt 0.359850913 0.303725064
vt 0.359850466 0.193692401
vt 0.0270984117 0.193696424
vt 0.359851092 0.303729862
vt 0.0271004736 0.303727537
vt 0.0270998105 0.193700552
vt 0.359850436 0.193702877
vt 0.988519192 0.599489748
vt 0.988652885 0.232119441
vt 0.936172962 0.232100174
vt 0.936018884 0.651950479
vt 0.93619746 0.23213543
vt 0.936016619 0.651973903
vt 0.988490164 0.652001739
vt 0.988650441 0.2846376
vt 0.988519788 0.59948951
vt 0.988652468 0.232119024
vt 0.936172187 0.23210004
vt 0.936019301 0.651950598
vt 0.956965923 0.0465374514
vt 0.956965923 0.0480612144
vt 0.96052146 0.0480612144
vt 0.96052146 0.0465374514
vt 0.957473993 0.0465374514
vt 0.957473993 0.0480612144
vt 0.96102941 0.0480612144
vt 0.961029291 0.0465374514
vt 0.8905285 0.38523525
vt 0.890528619 0.598915219
vt 0.984404802 0.5989151
vt 0.984404802 0.385235339
vt 0.311470389 0.852193356
vt 0.111735523 0.852193475
vt 0.111735284 0.905459523
vt 0.31147033 0.905459702
vt 0.31147033 0.852193356
vt 0.111735284 0.852193594
vt 0.111735284 0.905459642
vt 0.31147027 0.905459702
vt 0.8905285 0.38523525
vt 0.890528619 0.598915219
vt 0.984404802 0.5989151
vt 0.984404802 0.385235339
vt 0.311470389 0.852193356
vt 0.111735523 0.852193475
vt 0.111735284 0.905459523
vt 0.31147033 0.905459702
vt 0.31147033 0.852193356
vt 0.111735284 0.852193594
vt 0.111735284 0.905459642
vt 0.31147027 0.905459702
vt 0.8905285 0.38523525
vt 0.890528619 0.598915219
vt 0.984404802 0.5989151
vt 0.984404802 0.385235339
vt 0.311470389 0.852193356
vt 0.111735523 0.852193475
vt 0.111735284 0.905459523
vt 0.31147033 0.905459702
vt 0.31147033 0.852193356
vt 0.111735284 0.852193594
vt 0.111735284 0.905459642
vt 0.31147027 0.905459702
vn -4.307366E-06 0 -1
vn -4.307366E-06 0 -1
vn -4.307366E-06 0 -1
vn -4.307366E-06 0 -1
vn -0 1 0
vn -0 1 0
vn -0 1 0
vn -0 1 0
vn -0 0 -1
vn -0 0 -1
vn -0 0 -1
vn -0 0 -1
vn -0 0 -1
vn -0 0 -1
vn -0 0 -1
vn -0 0 -1
vn -0 -1 0
vn -0 -1 0
vn -0 -1 0
vn -0 -1 0
vn -0 1 0
vn -0 1 0
vn -0 1 0
vn -0 1 0
vn -0 -1 0
vn -0 -1 0
vn -0 -1 0
vn -0 -1 0
vn -1 0 3.48772278E-06
vn -1 0 3.48772278E-06
vn -1 0 3.48772278E-06
vn -1 0 3.48772278E-06
vn -0 1 0
vn -0 1 0
vn -0 1 0
vn -0 1 0
vn -1 0 0
vn -1 0 0
vn -1 0 0
vn -1 0 0
vn -1 0 0
vn -1 0 0
vn -1 0 0
vn -1 0 0
vn -0 -1 0
vn -0 -1 0
vn -0 -1 0
vn -0 -1 0
vn -0 1 0
vn -0 1 0
vn -0 1 0
vn -0 1 0
vn -0 -1 0
vn -0 -1 0
vn -0 -1 0
vn -0 -1 0
vn 1 0 -2.79016831E-06
vn 1 0 -2.79016831E-06
vn 1 0 -2.79016831E-06
vn 1 0 -2.79016831E-06
vn -0 1 0
vn -0 1 0
vn -0 1 0
vn -0 1 0
vn 1 0 0
vn 1 0 0
vn 1 0 0
vn 1 0 0
vn 1 0 0
vn 1 0 0
vn 1 0 0
vn 1 0 0
vn -0 -1 0
vn -0 -1 0
vn -0 -1 0
vn -0 -1 0
vn -0 1 0
vn -0 1 0
vn -0 1 0
vn -0 1 0
vn -0 -1 0
vn -0 -1 0
vn -0 -1 0
vn -0 -1 0
vn -0 -1 0
vn -0 -1 0
vn -0 -1 0
vn -0 -1 0
vn -0 1 0
vn -0 1 0
vn -0 1 0
vn -0 1 0
vn -0 0 -1
vn -0 0 -1
vn -0 0 -1
vn -0 0 -1
vn -1 0 0
vn -1 0 0
vn -1 0 0
vn -1 0 0
vn 1 0 0
vn 1 0 0
vn 1 0 0
vn 1 0 0
vn 1 0 0
vn 1 0 0
vn 1 0 0
vn 1 0 0
vn -0 0 -1
vn -0 0 -1
vn -0 0 -1
vn -0 0 -1
vn -0 0 1
vn -0 0 1
vn -0 0 1
vn -0 0 1
vn -1 0 0
vn -1 0 0
vn -1 0 0
vn -1 0 0
vn -0 0 1
vn -0 0 1
vn -0 0 1
vn -0 0 1
vn -0 0 -1
vn -0 0 -1
vn -0 0 -1
vn -0 0 -1
g FloorThreeEdge_0
f 3/3/3 2/2/2 1/1/1
f 4/4/4 3/3/3 1/1/1
f 7/7/7 6/6/6 5/5/5
f 8/8/8 7/7/7 5/5/5
f 11/11/11 10/10/10 9/9/9
f 12/12/12 11/11/11 9/9/9
f 15/15/15 14/14/14 13/13/13
f 16/16/16 15/15/15 13/13/13
f 19/19/19 18/18/18 17/17/17
f 20/20/20 19/19/19 17/17/17
f 23/23/23 22/22/22 21/21/21
f 24/24/24 23/23/23 21/21/21
f 27/27/27 26/26/26 25/25/25
f 28/28/28 27/27/27 25/25/25
f 31/31/31 30/30/30 29/29/29
f 32/32/32 31/31/31 29/29/29
f 35/35/35 34/34/34 33/33/33
f 36/36/36 35/35/35 33/33/33
f 39/39/39 38/38/38 37/37/37
f 40/40/40 39/39/39 37/37/37
f 43/43/43 42/42/42 41/41/41
f 44/44/44 43/43/43 41/41/41
f 47/47/47 46/46/46 45/45/45
f 48/48/48 47/47/47 45/45/45
f 51/51/51 50/50/50 49/49/49
f 52/52/52 51/51/51 49/49/49
f 55/55/55 54/54/54 53/53/53
f 56/56/56 55/55/55 53/53/53
f 59/59/59 58/58/58 57/57/57
f 60/60/60 59/59/59 57/57/57
f 63/63/63 62/62/62 61/61/61
f 64/64/64 63/63/63 61/61/61
f 67/67/67 66/66/66 65/65/65
f 68/68/68 67/67/67 65/65/65
f 71/71/71 70/70/70 69/69/69
f 72/72/72 71/71/71 69/69/69
f 75/75/75 74/74/74 73/73/73
f 76/76/76 75/75/75 73/73/73
f 79/79/79 78/78/78 77/77/77
f 80/80/80 79/79/79 77/77/77
f 83/83/83 82/82/82 81/81/81
f 84/84/84 83/83/83 81/81/81
f 87/87/87 86/86/86 85/85/85
f 88/88/88 87/87/87 85/85/85
f 91/91/91 90/90/90 89/89/89
f 92/92/92 91/91/91 89/89/89
f 95/95/95 94/94/94 93/93/93
f 96/96/96 95/95/95 93/93/93
f 99/99/99 98/98/98 97/97/97
f 100/100/100 99/99/99 97/97/97
f 103/103/103 102/102/102 101/101/101
f 104/104/104 103/103/103 101/101/101
f 107/107/107 106/106/106 105/105/105
f 108/108/108 107/107/107 105/105/105
f 111/111/111 110/110/110 109/109/109
f 112/112/112 111/111/111 109/109/109
f 115/115/115 114/114/114 113/113/113
f 116/116/116 115/115/115 113/113/113
f 119/119/119 118/118/118 117/117/117
f 120/120/120 119/119/119 117/117/117
f 123/123/123 122/122/122 121/121/121
f 124/124/124 123/123/123 121/121/121
f 127/127/127 126/126/126 125/125/125
f 128/128/128 127/127/127 125/125/125
