g BrickColumnSolo
v -0 0.312499821 0.5
v 0.5 0.312499821 0.5
v 0.5 0.31249994 -0.499999911
v -0 0.31249994 -0.499999911
v -0.5 0.312499821 0.5
v -0.5 0.31249994 -0.499999881
v -0 0.5 -0.499999911
v 0.5 0.5 -0.5
v 0.5 0.499999851 0.500000119
v -0 0.499999851 0.500000119
v -0.5 0.5 -0.499999911
v -0.5 0.499999851 0.500000119
v 0.5 0.499999851 0.500000119
v 0.5 0.5 -0.5
v 0.5 0.31249994 -0.499999911
v 0.5 0.312499821 0.5
v -0.5 0.5 -0.499999911
v -0.5 0.499999851 0.500000119
v -0.5 0.312499821 0.5
v -0.5 0.31249994 -0.499999881
v 0.5 -0.5 -0.50000006
v 0.5 -0.312500298 -0.499999911
v -0 -0.312500328 -0.499999911
v -0 -0.5 -0.50000006
v -0 -0.500000179 0.5
v -0 -0.312500149 0.499999911
v 0.5 -0.312500149 0.499999911
v 0.5 -0.500000179 0.499999911
v -0.5 -0.5 -0.50000006
v -0.5 -0.500000179 0.499999911
v -0 -0.500000179 0.5
v -0 -0.5 -0.50000006
v 0.5 -0.500000179 0.499999911
v 0.5 -0.5 -0.50000006
v -0.5 -0.5 -0.50000006
v -0.5 -0.312500298 -0.499999851
v -0.5 -0.312500149 0.499999911
v -0.5 -0.500000179 0.499999911
v 0.5 -0.500000179 0.499999911
v 0.5 -0.312500149 0.499999911
v 0.5 -0.312500298 -0.499999911
v 0.5 -0.5 -0.50000006
v -0.404121846 -0.163247481 0.404426455
v -0.401349783 -0.163247734 -0.40764904
v -0.364993304 -0.148935229 -0.368520319
v -0.364993304 -0.14893499 0.368069947
v -0.43523097 -0.312500149 0.435676455
v -0.432599783 -0.312500387 -0.438758016
v -0.432599783 -0.201305762 -0.438758045
v -0.43523097 -0.201305538 0.435676455
v 0.441828728 -0.201305538 0.438307673
v -0.43523097 -0.201305538 0.435676455
v -0.404121846 -0.163247481 0.404426455
v 0.410578728 -0.163247481 0.407198668
v 0.410578728 -0.163247481 0.407198668
v -0.404121846 -0.163247481 0.404426455
v -0.364993304 -0.14893499 0.368069947
v 0.374222249 -0.14893499 0.368069947
v 0.441828728 -0.312500149 0.438307673
v -0.43523097 -0.312500149 0.435676455
v -0.43523097 -0.201305538 0.435676455
v 0.441828728 -0.201305538 0.438307673
v 0.441828728 -0.201305762 -0.435230672
v 0.441828728 -0.201305538 0.438307673
v 0.410578728 -0.163247481 0.407198668
v 0.410719633 -0.163247734 -0.403980672
v 0.410719633 -0.163247734 -0.403980672
v 0.410578728 -0.163247481 0.407198668
v 0.374222249 -0.14893499 0.368069947
v 0.374222249 -0.148935229 -0.3685202
v 0.441828728 -0.312500387 -0.435230613
v 0.441828728 -0.312500149 0.438307673
v 0.441828728 -0.201305538 0.438307673
v 0.441828728 -0.201305762 -0.435230672
v -0 0.499999851 0.500000119
v 0.5 0.499999851 0.500000119
v 0.5 0.312499821 0.5
v -0 0.312499821 0.5
v 0.5 0.5 -0.5
v -0 0.5 -0.499999911
v -0 0.31249994 -0.499999911
v 0.5 0.31249994 -0.499999911
v -0.5 0.499999851 0.500000119
v -0 0.499999851 0.500000119
v -0 0.312499821 0.5
v -0.5 0.312499821 0.5
v -0 0.5 -0.499999911
v -0.5 0.5 -0.499999911
v -0.5 0.31249994 -0.499999881
v -0 0.31249994 -0.499999911
v -0.5 -0.500000179 0.499999911
v -0.5 -0.312500149 0.499999911
v -0 -0.312500149 0.499999911
v -0 -0.500000179 0.5
v -0 -0.5 -0.50000006
v -0 -0.312500328 -0.499999911
v -0.5 -0.312500298 -0.499999851
v -0.5 -0.5 -0.50000006
v -0 -0.312500149 0.499999911
v 0.5 -0.312500298 -0.499999911
v 0.5 -0.312500149 0.499999911
v -0 -0.312500328 -0.499999911
v -0.5 -0.312500149 0.499999911
v -0.5 -0.312500298 -0.499999851
v 0.366929263 -0.312500149 0.37273109
v -0.36296317 -0.312500149 0.37273109
v -0.36296317 0.201305404 0.37273109
v 0.366929263 0.201305404 0.37273109
v 0.376251936 -0.312500089 -0.363859177
v 0.376251936 -0.312500149 0.363408089
v 0.376251936 0.201305404 0.363408089
v 0.376251936 0.201305464 -0.363859087
v -0.36296317 -0.312500089 -0.373182178
v 0.366929263 -0.312500089 -0.373182178
v 0.366929263 0.201305464 -0.373182088
v -0.36296317 0.201305464 -0.373182088
v -0.36296317 -0.312500149 0.37273109
v -0.372286052 -0.312500149 0.363408089
v -0.372286052 0.201305404 0.363408089
v -0.36296317 0.201305404 0.37273109
v -0.36296317 0.201305464 -0.373182088
v -0.372286052 0.201305464 -0.363859087
v -0.372286052 -0.312500089 -0.363859177
v -0.36296317 -0.312500089 -0.373182178
v 0.376251936 0.201305464 -0.363859087
v 0.366929263 0.201305464 -0.373182088
v 0.366929263 -0.312500089 -0.373182178
v 0.376251936 -0.312500089 -0.363859177
v 0.366929263 0.201305404 0.37273109
v 0.376251936 0.201305404 0.363408089
v 0.376251936 -0.312500149 0.363408089
v 0.366929263 -0.312500149 0.37273109
v -0.372286052 -0.312500149 0.363408089
v -0.372286052 -0.312500089 -0.363859177
v -0.372286052 0.201305464 -0.363859087
v -0.372286052 0.201305404 0.363408089
v 0.441828728 0.3125 -0.435230613
v 0.441828728 0.201305389 -0.435230672
v 0.441828728 0.201305151 0.438307673
v 0.441828728 0.312499762 0.438307673
v 0.410719633 0.163247332 -0.403980672
v 0.374222249 0.148934841 -0.3685202
v 0.374222249 0.148934603 0.368069947
v 0.410578728 0.163247108 0.407198668
v 0.441828728 0.201305389 -0.435230672
v 0.441828728 0.201305151 0.438307673
v 0.441828728 0.312499762 0.438307673
v 0.441828728 0.201305151 0.438307673
v -0.43523097 0.201305151 0.435676455
v -0.43523097 0.312499762 0.435676455
v 0.410578728 0.163247108 0.407198668
v 0.374222249 0.148934603 0.368069947
v -0.364993304 0.148934603 0.368069947
v -0.404121846 0.163247108 0.404426455
v 0.441828728 0.201305151 0.438307673
v -0.43523097 0.201305151 0.435676455
v -0.43523097 0.312499762 0.435676455
v -0.43523097 0.201305151 0.435676455
v -0.432599783 0.201305389 -0.438758045
v -0.432599783 0.3125 -0.438758016
v -0.404121846 0.163247108 0.404426455
v -0.364993304 0.148934603 0.368069947
v -0.364993304 0.148934841 -0.368520319
v -0.401349783 0.163247332 -0.40764904
v -0.43523097 0.201305151 0.435676455
v -0.432599783 0.201305389 -0.438758045
v -0.432599783 0.3125 -0.438758016
v -0.432599783 0.201305389 -0.438758045
v 0.441828728 0.201305389 -0.435230672
v 0.441828728 0.3125 -0.435230613
v -0.401349783 0.163247332 -0.40764904
v -0.364993304 0.148934841 -0.368520319
v 0.374222249 0.148934841 -0.3685202
v 0.410719633 0.163247332 -0.403980672
v -0.432599783 0.201305389 -0.438758045
v 0.410719633 0.163247332 -0.403980672
v 0.441828728 0.201305389 -0.435230672
v -0.43523097 -0.201305538 0.435676455
v -0.432599783 -0.201305762 -0.438758045
v -0.401349783 -0.163247734 -0.40764904
v -0.404121846 -0.163247481 0.404426455
v -0.432599783 -0.312500387 -0.438758016
v 0.441828728 -0.312500387 -0.435230613
v 0.441828728 -0.201305762 -0.435230672
v -0.432599783 -0.201305762 -0.438758045
v -0.401349783 -0.163247734 -0.40764904
v 0.410719633 -0.163247734 -0.403980672
v 0.374222249 -0.148935229 -0.3685202
v -0.364993304 -0.148935229 -0.368520319
v -0.432599783 -0.201305762 -0.438758045
v 0.441828728 -0.201305762 -0.435230672
v 0.410719633 -0.163247734 -0.403980672
v -0.401349783 -0.163247734 -0.40764904
vt 0.504936278 0.533962369
vt 0.504936278 0.396182179
vt 0.780496597 0.396182179
vt 0.780496597 0.533962369
vt 0.504936278 0.671742499
vt 0.780496597 0.671742499
vt 0.643226862 0.396182209
vt 0.781007111 0.396182209
vt 0.781007111 0.671742678
vt 0.643226862 0.671742678
vt 0.505446672 0.396182209
vt 0.505446672 0.671742678
vt 0.50542897 0.10758125
vt 0.785331845 0.10758125
vt 0.785331845 0.156159669
vt 0.50542897 0.156159669
vt 0.505005538 0.107756004
vt 0.785331905 0.107756004
vt 0.785331905 0.156072289
vt 0.505005538 0.156072289
vt 0.541898847 0.333925307
vt 0.541898847 0.28556174
vt 0.680746257 0.28556174
vt 0.680746257 0.333925307
vt 0.610720396 0.333925307
vt 0.610720396 0.28556174
vt 0.749567866 0.28556174
vt 0.749567866 0.333925307
vt 0.505446672 0.396182209
vt 0.505446672 0.671742678
vt 0.643226862 0.671742678
vt 0.643226862 0.396182209
vt 0.781007111 0.671742678
vt 0.781007111 0.396182209
vt 0.505005538 0.107756004
vt 0.505005538 0.156072289
vt 0.785331905 0.156072289
vt 0.785331905 0.107756004
vt 0.50542897 0.10758125
vt 0.50542897 0.156159669
vt 0.785331845 0.156159669
vt 0.785331845 0.10758125
vt 0.924079478 0.223754749
vt 0.922899485 0.651385367
vt 0.907194436 0.630846977
vt 0.907204807 0.242838055
vt 0.97508949 0.207351789
vt 0.974887431 0.667714179
vt 0.936943591 0.667714298
vt 0.937146485 0.207351908
vt 0.937146485 0.207351908
vt 0.936943591 0.667714298
vt 0.922899485 0.651385367
vt 0.924079478 0.223754749
vt 0.924079478 0.223754749
vt 0.922899485 0.651385367
vt 0.907194436 0.630846977
vt 0.907204807 0.242838055
vt 0.97508949 0.207351789
vt 0.974887431 0.667714179
vt 0.936943591 0.667714298
vt 0.937146485 0.207351908
vt 0.936951995 0.209200144
vt 0.936943591 0.667714298
vt 0.922899485 0.651385367
vt 0.922964096 0.225602999
vt 0.922964096 0.225602999
vt 0.922899485 0.651385367
vt 0.907194436 0.630846977
vt 0.907204509 0.24421601
vt 0.974887669 0.209200054
vt 0.97488755 0.667714179
vt 0.936943591 0.667714298
vt 0.936951995 0.209200144
vt 0.610720396 0.333925307
vt 0.749567866 0.333925307
vt 0.749567866 0.28556174
vt 0.610720396 0.28556174
vt 0.541898847 0.333925307
vt 0.680746257 0.333925307
vt 0.680746257 0.28556174
vt 0.541898847 0.28556174
vt 0.541898847 0.333925307
vt 0.680746257 0.333925307
vt 0.680746257 0.28556174
vt 0.541898847 0.28556174
vt 0.610720396 0.333925307
vt 0.749567866 0.333925307
vt 0.749567866 0.28556174
vt 0.610720396 0.28556174
vt 0.541898847 0.333925307
vt 0.541898847 0.28556174
vt 0.680746257 0.28556174
vt 0.680746257 0.333925307
vt 0.610720396 0.333925307
vt 0.610720396 0.28556174
vt 0.749567866 0.28556174
vt 0.749567866 0.333925307
vt 0.504936278 0.533962369
vt 0.780496597 0.396182179
vt 0.504936278 0.396182179
vt 0.780496597 0.533962369
vt 0.504936278 0.671742499
vt 0.780496597 0.671742499
vt 0.83046782 0.0915114954
vt 0.83046782 0.0477873236
vt 0.812624037 0.0477873459
vt 0.812624037 0.0915114954
vt 0.884067118 0.0913542286
vt 0.884067118 0.0477873236
vt 0.866223216 0.0477873236
vt 0.866223216 0.0913542286
vt 0.83049041 0.0485771745
vt 0.83049041 0.092301324
vt 0.848334253 0.092301324
vt 0.848334253 0.0485771745
vt 0.848356783 0.0477873236
vt 0.848356783 0.0485771745
vt 0.866200686 0.0485771745
vt 0.866200686 0.0477873459
vt 0.848334253 0.0485771745
vt 0.848334253 0.0477873236
vt 0.83049041 0.0477873459
vt 0.83049041 0.0485771745
vt 0.866223216 0.0913542286
vt 0.866223216 0.0921440572
vt 0.884067118 0.0921440572
vt 0.884067118 0.0913542286
vt 0.812624037 0.0915114954
vt 0.812624037 0.092301324
vt 0.83046782 0.0923013017
vt 0.83046782 0.0915114954
vt 0.848356783 0.0485771745
vt 0.848356783 0.0921440795
vt 0.866200686 0.0921440795
vt 0.866200686 0.0485771745
vt 0.974887669 0.209200054
vt 0.936951995 0.209200144
vt 0.936943591 0.667714298
vt 0.97488755 0.667714179
vt 0.922964096 0.225602999
vt 0.907204509 0.24421601
vt 0.907194436 0.630846977
vt 0.922899485 0.651385367
vt 0.936951995 0.209200144
vt 0.936943591 0.667714298
vt 0.97508949 0.207351789
vt 0.937146485 0.207351908
vt 0.936943591 0.667714298
vt 0.974887431 0.667714179
vt 0.924079478 0.223754749
vt 0.907204807 0.242838055
vt 0.907194436 0.630846977
vt 0.922899485 0.651385367
vt 0.937146485 0.207351908
vt 0.936943591 0.667714298
vt 0.97508949 0.207351789
vt 0.937146485 0.207351908
vt 0.936943591 0.667714298
vt 0.974887431 0.667714179
vt 0.924079478 0.223754749
vt 0.907204807 0.242838055
vt 0.907194436 0.630846977
vt 0.922899485 0.651385367
vt 0.937146485 0.207351908
vt 0.936943591 0.667714298
vt 0.97508949 0.207351789
vt 0.937146485 0.207351908
vt 0.936943591 0.667714298
vt 0.974887431 0.667714179
vt 0.924079478 0.223754749
vt 0.907204807 0.242838055
vt 0.907194436 0.630846977
vt 0.922899485 0.651385367
vt 0.937146485 0.207351908
vt 0.922899485 0.651385367
vt 0.936943591 0.667714298
vt 0.937146485 0.207351908
vt 0.936943591 0.667714298
vt 0.922899485 0.651385367
vt 0.924079478 0.223754749
vt 0.97508949 0.207351789
vt 0.974887431 0.667714179
vt 0.936943591 0.667714298
vt 0.937146485 0.207351908
vt 0.924079478 0.223754749
vt 0.922899485 0.651385367
vt 0.907194436 0.630846977
vt 0.907204807 0.242838055
vt 0.937146485 0.207351908
vt 0.936943591 0.667714298
vt 0.922899485 0.651385367
vt 0.924079478 0.223754749
vn -0 -1 -1.34110465E-07
vn -0 -1 -1.34110465E-07
vn -0 -1 -1.34110465E-07
vn -0 -1 -1.34110479E-07
vn -0 -1 -1.34110465E-07
vn -0 -1 -1.34110465E-07
vn -0 1 1.49011612E-07
vn -0 1 1.49011612E-07
vn -0 1 1.49011612E-07
vn -0 1 1.49011612E-07
vn -0 1 1.49011612E-07
vn -0 1 1.49011612E-07
vn 1 0 0
vn 1 0 0
vn 1 0 0
vn 1 0 0
vn -1 0 0
vn -1 0 0
vn -1 0 0
vn -1 0 0
vn -0 6.35783977E-07 -1
vn -0 6.35783977E-07 -1
vn -0 7.94729942E-07 -1
vn -0 7.94729942E-07 -1
vn -0 1.58945696E-07 1
vn -0 1.58945696E-07 1
vn -0 1.58945696E-07 1
vn -0 1.58945696E-07 1
vn -0 -1 -1.78813934E-07
vn -0 -1 -1.78813934E-07
vn -0 -1 -1.78813949E-07
vn -0 -1 -1.78813934E-07
vn -0 -1 -1.78813934E-07
vn -0 -1 -1.78813934E-07
vn -1 0 0
vn -1 0 0
vn -1 0 0
vn -1 0 0
vn 1 0 0
vn 1 0 0
vn 1 0 0
vn 1 0 0
vn -0.216856569 0.962965369 0.160221457
vn -0.205064103 0.96722275 -0.149762541
vn -0.353145033 0.935563624 -0.00303835585
vn -0.352382988 0.935855269 0.00104779738
vn -0.999990821 -0.00306805107 -0.00300916564
vn -0.999990821 0.00306805014 -0.00300902012
vn -0.999990821 -0.00306805107 -0.00300901802
vn -0.999990821 0.0030680499 -0.00300916703
vn -0.11775203 0.568777442 0.814018846
vn 0.115431644 0.572252929 0.811912596
vn -0.25955525 0.727644503 0.634952426
vn 0.252559245 0.731232285 0.633650661
vn 0.160223633 0.96296525 0.216855228
vn -0.149728149 0.967220783 0.205098644
vn -0.00295291655 0.935547054 0.353189647
vn 0.00102465972 0.935841382 0.352419943
vn -0.00300019281 -0.00297217397 0.999991059
vn -0.00300005078 0.00297217397 0.999991059
vn -0.00300005055 -0.00297217397 0.999991059
vn -0.00300019328 0.00297217397 0.999991059
vn 0.813095689 0.57035476 0.116493762
vn 0.812821865 0.570713758 -0.116646454
vn 0.634530544 0.729143739 0.256359875
vn 0.634068787 0.729753792 -0.255766094
vn 0.233016938 0.961014926 -0.14884004
vn 0.226054385 0.963743448 0.141767755
vn 0.355982214 0.934434175 0.0104571814
vn 0.356444687 0.934253275 -0.0108574769
vn 1 0 0
vn 1 0 0
vn 1 0 0
vn 1 0 0
vn -0 -6.35782783E-07 1
vn -0 -6.35782783E-07 1
vn -0 -6.35782783E-07 1
vn -0 -6.35782783E-07 1
vn -0 0 -1
vn -0 0 -1
vn -0 0 -1
vn -0 0 -1
vn -0 -6.35782783E-07 1
vn -0 -6.35782783E-07 1
vn -0 -6.35782783E-07 1
vn -0 -6.35782783E-07 1
vn -0 0 -1
vn -0 0 -1
vn -0 0 -1
vn -0 0 -1
vn -0 1.58945696E-07 1
vn -0 1.58945696E-07 1
vn -0 1.58945696E-07 1
vn -0 1.58945696E-07 1
vn -0 7.94729942E-07 -1
vn -0 7.94729942E-07 -1
vn -0 9.53676022E-07 -1
vn -0 9.53676022E-07 -1
vn -0 1 -1.63912816E-07
vn -0 1 -1.63912787E-07
vn -0 1 -1.63912787E-07
vn -0 1 -1.63912816E-07
vn -0 1 -1.63912816E-07
vn -0 1 -1.63912816E-07
vn -0 0 1
vn -0 0 1
vn -0 0 1
vn -0 0 1
vn 1 0 0
vn 1 0 0
vn 1 0 0
vn 1 0 0
vn -0 0 -1
vn -0 0 -1
vn -0 0 -1
vn -0 0 -1
vn -0.707111776 0 0.707101762
vn -0.707111776 0 0.707101762
vn -0.707111776 0 0.707101762
vn -0.707111776 0 0.707101762
vn -0.707111776 0 -0.707101762
vn -0.707111776 0 -0.707101762
vn -0.707111776 0 -0.707101762
vn -0.707111776 0 -0.707101762
vn 0.707120538 0 -0.707092941
vn 0.707120538 0 -0.707092941
vn 0.707120538 0 -0.707092941
vn 0.707120538 0 -0.707092941
vn 0.707120538 0 0.707092941
vn 0.707120538 0 0.707092941
vn 0.707120538 0 0.707092941
vn 0.707120538 0 0.707092941
vn -1 0 0
vn -1 0 0
vn -1 0 0
vn -1 0 0
vn 1 0 0
vn 1 0 0
vn 1 0 0
vn 1 0 0
vn 0.545027673 -0.838418007 -8.72504097E-06
vn 0.351959139 -0.936015368 3.67872417E-07
vn 0.351954818 -0.936016917 -8.83733776E-07
vn 0.545015693 -0.838425934 -4.14997339E-06
vn 0.678685546 -0.734428942 1.70938745E-06
vn 0.678689003 -0.734425843 -9.93534923E-06
vn -2.7889153E-05 -1.41984145E-07 1
vn -2.78893858E-05 1.42657328E-07 1
vn -2.7889153E-05 0 1
vn -2.78893858E-05 0 1
vn -8.44092574E-06 -0.838417172 0.545029044
vn -2.86509726E-06 -0.936006367 0.351982981
vn -2.06402019E-05 -0.935979009 0.352055728
vn -7.38352537E-06 -0.838434398 0.545002639
vn 1.58013415E-06 -0.734435499 0.678678453
vn 9.80496407E-06 -0.734449387 0.678663433
vn -1 -1.46998545E-07 5.9009064E-05
vn -1 1.47295609E-07 5.9009064E-05
vn -1 0 5.90092968E-05
vn -1 0 5.90092968E-05
vn -0.545030057 -0.838416517 -1.21205821E-05
vn -0.351941049 -0.936022162 8.48481432E-06
vn -0.351969719 -0.936011374 1.42780777E-06
vn -0.545043766 -0.838407636 -1.12727294E-05
vn -0.678678155 -0.734435797 -6.03060471E-06
vn -0.678662837 -0.734449983 2.04145931E-06
vn 7.07386062E-06 4.20641072E-07 -1
vn 7.07432628E-06 8.06288199E-07 -1
vn 7.07432628E-06 6.13006478E-07 -1
vn 7.07386062E-06 6.13186955E-07 -1
vn 1.42637873E-06 -0.838433564 -0.545003951
vn 3.88245098E-06 -0.936000109 -0.35199973
vn 2.89400191E-06 -0.936002076 -0.351994395
vn 3.42726685E-06 -0.838419616 -0.545025289
vn 8.71202792E-06 -0.734441459 -0.678672016
vn 1.06569505E-05 -0.83841151 -0.545037866
vn 2.70083547E-06 -0.734451234 -0.678661525
vn -0.814017475 0.56877774 -0.117759958
vn -0.81191349 0.572253406 0.115423784
vn -0.634950459 0.727643728 -0.259561986
vn -0.633652151 0.731233299 0.252552688
vn 0.00403404655 -0.00402742485 -0.999983788
vn 0.00403385423 0.00402619923 -0.999983788
vn 0.00403385423 -0.00402742438 -0.999983788
vn 0.00403404748 0.00402619876 -0.999983788
vn -0.157317534 0.961871803 -0.223727286
vn 0.15042451 0.964992702 -0.214852214
vn 0.00630115205 0.935031593 -0.35450846
vn -0.00366734737 0.935405195 -0.353558749
vn 0.118198171 0.568236709 -0.81433177
vn -0.114999838 0.572778821 -0.81160301
vn 0.260648876 0.727130711 -0.635092914
vn -0.251496553 0.731743753 -0.633482933
g BrickColumnSolo_0
f 3/3/3 2/2/2 1/1/1
f 4/4/4 3/3/3 1/1/1
f 4/4/4 1/1/1 5/5/5
f 6/6/6 4/4/4 5/5/5
f 9/9/9 8/8/8 7/7/7
f 10/10/10 9/9/9 7/7/7
f 10/10/10 7/7/7 11/11/11
f 12/12/12 10/10/10 11/11/11
f 15/15/15 14/14/14 13/13/13
f 16/16/16 15/15/15 13/13/13
f 19/19/19 18/18/18 17/17/17
f 20/20/20 19/19/19 17/17/17
f 23/23/23 22/22/22 21/21/21
f 24/24/24 23/23/23 21/21/21
f 27/27/27 26/26/26 25/25/25
f 28/28/28 27/27/27 25/25/25
f 31/31/31 30/30/30 29/29/29
f 32/32/32 31/31/31 29/29/29
f 33/33/33 31/31/31 32/32/32
f 34/34/34 33/33/33 32/32/32
f 37/37/37 36/36/36 35/35/35
f 38/38/38 37/37/37 35/35/35
f 41/41/41 40/40/40 39/39/39
f 42/42/42 41/41/41 39/39/39
f 45/45/45 44/44/44 43/43/43
f 46/46/46 45/45/45 43/43/43
f 49/49/49 48/48/48 47/47/47
f 50/50/50 49/49/49 47/47/47
f 53/53/53 52/52/52 51/51/51
f 54/54/54 53/53/53 51/51/51
f 57/57/57 56/56/56 55/55/55
f 58/58/58 57/57/57 55/55/55
f 61/61/61 60/60/60 59/59/59
f 62/62/62 61/61/61 59/59/59
f 65/65/65 64/64/64 63/63/63
f 66/66/66 65/65/65 63/63/63
f 69/69/69 68/68/68 67/67/67
f 70/70/70 69/69/69 67/67/67
f 73/73/73 72/72/72 71/71/71
f 74/74/74 73/73/73 71/71/71
f 77/77/77 76/76/76 75/75/75
f 78/78/78 77/77/77 75/75/75
f 81/81/81 80/80/80 79/79/79
f 82/82/82 81/81/81 79/79/79
f 85/85/85 84/84/84 83/83/83
f 86/86/86 85/85/85 83/83/83
f 89/89/89 88/88/88 87/87/87
f 90/90/90 89/89/89 87/87/87
f 93/93/93 92/92/92 91/91/91
f 94/94/94 93/93/93 91/91/91
f 97/97/97 96/96/96 95/95/95
f 98/98/98 97/97/97 95/95/95
f 101/101/101 100/100/100 99/99/99
f 100/100/100 102/102/102 99/99/99
f 99/99/99 102/102/102 103/103/103
f 102/102/102 104/104/104 103/103/103
f 107/107/107 106/106/106 105/105/105
f 108/108/108 107/107/107 105/105/105
f 111/111/111 110/110/110 109/109/109
f 112/112/112 111/111/111 109/109/109
f 115/115/115 114/114/114 113/113/113
f 116/116/116 115/115/115 113/113/113
f 119/119/119 118/118/118 117/117/117
f 120/120/120 119/119/119 117/117/117
f 123/123/123 122/122/122 121/121/121
f 124/124/124 123/123/123 121/121/121
f 127/127/127 126/126/126 125/125/125
f 128/128/128 127/127/127 125/125/125
f 131/131/131 130/130/130 129/129/129
f 132/132/132 131/131/131 129/129/129
f 135/135/135 134/134/134 133/133/133
f 136/136/136 135/135/135 133/133/133
f 139/139/139 138/138/138 137/137/137
f 140/140/140 139/139/139 137/137/137
f 143/143/143 142/142/142 141/141/141
f 144/144/144 143/143/143 141/141/141
f 144/144/144 141/141/141 145/145/145
f 146/146/146 144/144/144 145/145/145
f 149/149/149 148/148/148 147/147/147
f 150/150/150 149/149/149 147/147/147
f 153/153/153 152/152/152 151/151/151
f 154/154/154 153/153/153 151/151/151
f 154/154/154 151/151/151 155/155/155
f 156/156/156 154/154/154 155/155/155
f 159/159/159 158/158/158 157/157/157
f 160/160/160 159/159/159 157/157/157
f 163/163/163 162/162/162 161/161/161
f 164/164/164 163/163/163 161/161/161
f 164/164/164 161/161/161 165/165/165
f 166/166/166 164/164/164 165/165/165
f 169/169/169 168/168/168 167/167/167
f 170/170/170 169/169/169 167/167/167
f 173/173/173 172/172/172 171/171/171
f 174/174/174 173/173/173 171/171/171
f 176/176/176 171/171/171 175/175/175
f 177/177/177 176/176/176 175/175/175
f 180/180/180 179/179/179 178/178/178
f 181/181/181 180/180/180 178/178/178
f 184/184/184 183/183/183 182/182/182
f 185/185/185 184/184/184 182/182/182
f 188/188/188 187/187/187 186/186/186
f 189/189/189 188/188/188 186/186/186
f 192/192/192 191/191/191 190/190/190
f 193/193/193 192/192/192 190/190/190
