g BrickColumnTop
v 0.441828609 0.3125 -0.435230613
v 0.441828609 0.201305389 -0.435230672
v 0.441828609 0.201305151 0.438307673
v 0.441828609 0.312499762 0.438307673
v 0.410719633 0.163247332 -0.403980672
v 0.37422213 0.148934841 -0.3685202
v 0.37422213 0.148934603 0.368069947
v 0.410578609 0.163247108 0.407198668
v 0.441828609 0.201305389 -0.435230672
v 0.441828609 0.201305151 0.438307673
v 0.441828609 0.312499762 0.438307673
v 0.441828609 0.201305151 0.438307673
v -0.43523097 0.201305151 0.435676455
v -0.43523097 0.312499762 0.435676455
v 0.410578609 0.163247108 0.407198668
v 0.37422213 0.148934603 0.368069947
v -0.364993304 0.148934603 0.368069947
v -0.404121846 0.163247108 0.404426455
v 0.441828609 0.201305151 0.438307673
v -0.43523097 0.201305151 0.435676455
v -0.43523097 0.312499762 0.435676455
v -0.43523097 0.201305151 0.435676455
v -0.432599783 0.201305389 -0.438758045
v -0.432599783 0.3125 -0.438758016
v -0.404121846 0.163247108 0.404426455
v -0.364993304 0.148934603 0.368069947
v -0.364993304 0.148934841 -0.368520319
v -0.401349783 0.163247332 -0.40764904
v -0.43523097 0.201305151 0.435676455
v -0.432599783 0.201305389 -0.438758045
v -0.432599783 0.3125 -0.438758016
v -0.432599783 0.201305389 -0.438758045
v 0.441828609 0.201305389 -0.435230672
v 0.441828609 0.3125 -0.435230613
v -0.401349783 0.163247332 -0.40764904
v -0.364993304 0.148934841 -0.368520319
v 0.37422213 0.148934841 -0.3685202
v 0.410719633 0.163247332 -0.403980672
v -0.432599783 0.201305389 -0.438758045
v 0.410719633 0.163247332 -0.403980672
v 0.441828609 0.201305389 -0.435230672
v -0 0.312499523 0.500000238
v 0.5 0.312499523 0.500000238
v 0.5 0.312499762 -0.499999732
v -0 0.312499762 -0.499999732
v -0.5 0.312499523 0.500000238
v -0.5 0.312499762 -0.499999642
v -0 0.499999523 -0.499999672
v 0.5 0.499999523 -0.499999791
v 0.5 0.499999255 0.500000238
v -0 0.499999255 0.500000238
v -0.5 0.499999523 -0.499999672
v -0.5 0.499999255 0.500000238
v 0.5 0.499999255 0.500000238
v 0.5 0.499999523 -0.499999791
v 0.5 0.312499762 -0.499999732
v 0.5 0.312499523 0.500000238
v -0.5 0.499999523 -0.499999672
v -0.5 0.499999255 0.500000238
v -0.5 0.312499523 0.500000238
v -0.5 0.312499762 -0.499999642
v -0 0.499999255 0.500000238
v 0.5 0.499999255 0.500000238
v 0.5 0.312499523 0.500000238
v -0 0.312499523 0.500000238
v 0.5 0.499999523 -0.499999791
v -0 0.499999523 -0.499999672
v -0 0.312499762 -0.499999732
v 0.5 0.312499762 -0.499999732
v -0.5 0.499999255 0.500000238
v -0 0.499999255 0.500000238
v -0 0.312499523 0.500000238
v -0.5 0.312499523 0.500000238
v -0 0.499999523 -0.499999672
v -0.5 0.499999523 -0.499999672
v -0.5 0.312499762 -0.499999642
v -0 0.312499762 -0.499999732
v 0.366929382 -0.500001073 0.37273109
v -0.36296317 -0.500001073 0.37273109
v -0.36296317 0.201304659 0.372731
v 0.366929382 0.201304659 0.372731
v 0.376251817 -0.500000954 -0.363859236
v 0.376251817 -0.500001073 0.363407969
v 0.376251817 0.201304659 0.363408089
v 0.376251817 0.201304659 -0.363859117
v -0.36296317 -0.500000954 -0.373182207
v 0.366929382 -0.500000954 -0.373182207
v 0.366929382 0.201304659 -0.373182088
v -0.36296317 0.201304659 -0.373182088
v -0.36296317 -0.500001073 0.37273109
v -0.372286052 -0.500001073 0.363407969
v -0.372286052 0.201304659 0.363408089
v -0.36296317 0.201304659 0.372731
v -0.36296317 0.201304659 -0.373182088
v -0.372286052 0.201304659 -0.363859117
v -0.372286052 -0.500000954 -0.363859236
v -0.36296317 -0.500000954 -0.373182207
v 0.376251817 0.201304659 -0.363859117
v 0.366929382 0.201304659 -0.373182088
v 0.366929382 -0.500000954 -0.373182207
v 0.376251817 -0.500000954 -0.363859236
v 0.366929382 0.201304659 0.372731
v 0.376251817 0.201304659 0.363408089
v 0.376251817 -0.500001073 0.363407969
v 0.366929382 -0.500001073 0.37273109
v -0.372286052 -0.500001073 0.363407969
v -0.372286052 -0.500000954 -0.363859236
v -0.372286052 0.201304659 -0.363859117
v -0.372286052 0.201304659 0.363408089
vt 0.974887669 0.209200054
vt 0.936951995 0.209200144
vt 0.936943591 0.667714298
vt 0.97488755 0.667714179
vt 0.922964096 0.225602999
vt 0.907204509 0.24421601
vt 0.907194436 0.630846977
vt 0.922899485 0.651385367
vt 0.936951995 0.209200144
vt 0.936943591 0.667714298
vt 0.97508949 0.207351789
vt 0.937146485 0.207351908
vt 0.936943591 0.667714298
vt 0.974887431 0.667714179
vt 0.924079478 0.223754749
vt 0.907204807 0.242838055
vt 0.907194436 0.630846977
vt 0.922899485 0.651385367
vt 0.937146485 0.207351908
vt 0.936943591 0.667714298
vt 0.97508949 0.207351789
vt 0.937146485 0.207351908
vt 0.936943591 0.667714298
vt 0.974887431 0.667714179
vt 0.924079478 0.223754749
vt 0.907204807 0.242838055
vt 0.907194436 0.630846977
vt 0.922899485 0.651385367
vt 0.937146485 0.207351908
vt 0.936943591 0.667714298
vt 0.97508949 0.207351789
vt 0.937146485 0.207351908
vt 0.936943591 0.667714298
vt 0.974887431 0.667714179
vt 0.924079478 0.223754749
vt 0.907204807 0.242838055
vt 0.907194436 0.630846977
vt 0.922899485 0.651385367
vt 0.937146485 0.207351908
vt 0.922899485 0.651385367
vt 0.936943591 0.667714298
vt 0.504936278 0.533962369
vt 0.504936278 0.396182179
vt 0.780496597 0.396182179
vt 0.780496597 0.533962369
vt 0.504936278 0.671742499
vt 0.780496597 0.671742499
vt 0.643226862 0.396182209
vt 0.781007111 0.396182209
vt 0.781007111 0.671742678
vt 0.643226862 0.671742678
vt 0.505446672 0.396182209
vt 0.505446672 0.671742678
vt 0.50542897 0.10758125
vt 0.785331845 0.10758125
vt 0.785331845 0.156159669
vt 0.50542897 0.156159669
vt 0.505005538 0.107756004
vt 0.785331905 0.107756004
vt 0.785331905 0.156072289
vt 0.505005538 0.156072289
vt 0.610720396 0.333925307
vt 0.749567866 0.333925307
vt 0.749567866 0.28556174
vt 0.610720396 0.28556174
vt 0.541898847 0.333925307
vt 0.680746257 0.333925307
vt 0.680746257 0.28556174
vt 0.541898847 0.28556174
vt 0.541898847 0.333925307
vt 0.680746257 0.333925307
vt 0.680746257 0.28556174
vt 0.541898847 0.28556174
vt 0.610720396 0.333925307
vt 0.749567866 0.333925307
vt 0.749567866 0.28556174
vt 0.610720396 0.28556174
vt 0.83046782 0.0915114954
vt 0.83046782 0.0477873236
vt 0.812624037 0.0477873459
vt 0.812624037 0.0915114954
vt 0.884067118 0.0913542286
vt 0.884067118 0.0477873236
vt 0.866223216 0.0477873236
vt 0.866223216 0.0913542286
vt 0.83049041 0.0485771745
vt 0.83049041 0.092301324
vt 0.848334253 0.092301324
vt 0.848334253 0.0485771745
vt 0.848356783 0.0477873236
vt 0.848356783 0.0485771745
vt 0.866200686 0.0485771745
vt 0.866200686 0.0477873459
vt 0.848334253 0.0485771745
vt 0.848334253 0.0477873236
vt 0.83049041 0.0477873459
vt 0.83049041 0.0485771745
vt 0.866223216 0.0913542286
vt 0.866223216 0.0921440572
vt 0.884067118 0.0921440572
vt 0.884067118 0.0913542286
vt 0.812624037 0.0915114954
vt 0.812624037 0.092301324
vt 0.83046782 0.0923013017
vt 0.83046782 0.0915114954
vt 0.848356783 0.0485771745
vt 0.848356783 0.0921440795
vt 0.866200686 0.0921440795
vt 0.866200686 0.0485771745
vn 1 0 0
vn 1 0 0
vn 1 0 0
vn 1 0 0
vn 0.545027196 -0.838418365 -8.57183204E-06
vn 0.351958573 -0.936015546 3.92552465E-07
vn 0.351954252 -0.936017156 -8.53040206E-07
vn 0.545015097 -0.838426232 -4.12017107E-06
vn 0.678686321 -0.734428287 1.93008896E-06
vn 0.678689539 -0.734425247 -9.84594226E-06
vn -2.78896187E-05 -1.41984145E-07 1
vn -2.78893858E-05 1.42657328E-07 1
vn -2.78896187E-05 0 1
vn -2.78893858E-05 0 1
vn -8.4156045E-06 -0.838417172 0.545029044
vn -2.86579575E-06 -0.936006367 0.351982892
vn -2.06405512E-05 -0.935979009 0.352055699
vn -7.3909755E-06 -0.838434398 0.54500258
vn 1.57888292E-06 -0.734435201 0.678678751
vn 9.80496407E-06 -0.734449148 0.678663671
vn -1 -1.02989509E-06 5.90088312E-05
vn -1 1.47295609E-07 5.9009064E-05
vn -1 0 5.90092968E-05
vn -1 0 5.90092968E-05
vn -0.545030057 -0.838416517 -1.21205821E-05
vn -0.351941049 -0.936022162 8.48481432E-06
vn -0.351969719 -0.936011374 1.42780777E-06
vn -0.545043766 -0.838407636 -1.12727294E-05
vn -0.678678155 -0.734435797 -6.03060471E-06
vn -0.678662837 -0.734449983 2.04145931E-06
vn 7.07386062E-06 4.20641129E-07 -1
vn 7.07432628E-06 8.06288369E-07 -1
vn 7.07432628E-06 6.13006534E-07 -1
vn 7.07386062E-06 6.13186955E-07 -1
vn 1.42573833E-06 -0.838433683 -0.545003533
vn 3.88198532E-06 -0.936000228 -0.351999372
vn 2.88917045E-06 -0.936002195 -0.351994067
vn 3.52412439E-06 -0.838419795 -0.545024991
vn 8.71269731E-06 -0.734441519 -0.678672016
vn 1.07660899E-05 -0.83841151 -0.545037806
vn 2.90200114E-06 -0.734451234 -0.678661466
vn -0 -1 -2.38418608E-07
vn -0 -1 -2.38418579E-07
vn -0 -1 -2.38418579E-07
vn -0 -1 -2.38418608E-07
vn -0 -1 -2.38418608E-07
vn -0 -1 -2.38418608E-07
vn -0 1 2.38418579E-07
vn -0 1 2.38418579E-07
vn -0 1 2.38418579E-07
vn -0 1 2.38418608E-07
vn -0 1 2.38418608E-07
vn -0 1 2.38418608E-07
vn 1 0 0
vn 1 0 0
vn 1 0 0
vn 1 0 0
vn -1 0 0
vn -1 0 0
vn -1 0 0
vn -1 0 0
vn -0 0 1
vn -0 0 1
vn -0 0 1
vn -0 0 1
vn -0 -1.58945937E-07 -1
vn -0 0 -1
vn -0 0 -1
vn -0 -1.58945937E-07 -1
vn -0 0 1
vn -0 0 1
vn -0 0 1
vn -0 0 1
vn -0 0 -1
vn -0 0 -1
vn -0 0 -1
vn -0 0 -1
vn -0 0 1
vn -0 0 1
vn -0 0 1
vn -0 0 1
vn 1 0 0
vn 1 0 0
vn 1 0 0
vn 1 0 0
vn -0 1.16443118E-07 -1
vn -0 1.16443118E-07 -1
vn -0 1.16443118E-07 -1
vn -0 1.16443118E-07 -1
vn -0.707112849 0 0.70710063
vn -0.707112849 0 0.70710063
vn -0.707112849 0 0.70710063
vn -0.707112849 0 0.70710063
vn -0.707110524 1.25902901E-07 -0.707102954
vn -0.707110524 1.25902901E-07 -0.707102954
vn -0.707110524 1.25902901E-07 -0.707102954
vn -0.707110524 1.25902901E-07 -0.707102954
vn 0.707128227 1.2590607E-07 -0.707085252
vn 0.707128227 1.2590607E-07 -0.707085252
vn 0.707128227 1.2590607E-07 -0.707085252
vn 0.707128227 1.2590607E-07 -0.707085252
vn 0.707130611 0 0.707082927
vn 0.707130611 0 0.707082927
vn 0.707130611 0 0.707082927
vn 0.707130611 0 0.707082927
vn -1 0 0
vn -1 0 0
vn -1 0 0
vn -1 0 0
g BrickColumnTop_0
f 3/3/3 2/2/2 1/1/1
f 4/4/4 3/3/3 1/1/1
f 7/7/7 6/6/6 5/5/5
f 8/8/8 7/7/7 5/5/5
f 8/8/8 5/5/5 9/9/9
f 10/10/10 8/8/8 9/9/9
f 13/13/13 12/12/12 11/11/11
f 14/14/14 13/13/13 11/11/11
f 17/17/17 16/16/16 15/15/15
f 18/18/18 17/17/17 15/15/15
f 18/18/18 15/15/15 19/19/19
f 20/20/20 18/18/18 19/19/19
f 23/23/23 22/22/22 21/21/21
f 24/24/24 23/23/23 21/21/21
f 27/27/27 26/26/26 25/25/25
f 28/28/28 27/27/27 25/25/25
f 28/28/28 25/25/25 29/29/29
f 30/30/30 28/28/28 29/29/29
f 33/33/33 32/32/32 31/31/31
f 34/34/34 33/33/33 31/31/31
f 37/37/37 36/36/36 35/35/35
f 38/38/38 37/37/37 35/35/35
f 40/40/40 35/35/35 39/39/39
f 41/41/41 40/40/40 39/39/39
f 44/44/44 43/43/43 42/42/42
f 45/45/45 44/44/44 42/42/42
f 45/45/45 42/42/42 46/46/46
f 47/47/47 45/45/45 46/46/46
f 50/50/50 49/49/49 48/48/48
f 51/51/51 50/50/50 48/48/48
f 51/51/51 48/48/48 52/52/52
f 53/53/53 51/51/51 52/52/52
f 56/56/56 55/55/55 54/54/54
f 57/57/57 56/56/56 54/54/54
f 60/60/60 59/59/59 58/58/58
f 61/61/61 60/60/60 58/58/58
f 64/64/64 63/63/63 62/62/62
f 65/65/65 64/64/64 62/62/62
f 68/68/68 67/67/67 66/66/66
f 69/69/69 68/68/68 66/66/66
f 72/72/72 71/71/71 70/70/70
f 73/73/73 72/72/72 70/70/70
f 76/76/76 75/75/75 74/74/74
f 77/77/77 76/76/76 74/74/74
f 80/80/80 79/79/79 78/78/78
f 81/81/81 80/80/80 78/78/78
f 84/84/84 83/83/83 82/82/82
f 85/85/85 84/84/84 82/82/82
f 88/88/88 87/87/87 86/86/86
f 89/89/89 88/88/88 86/86/86
f 92/92/92 91/91/91 90/90/90
f 93/93/93 92/92/92 90/90/90
f 96/96/96 95/95/95 94/94/94
f 97/97/97 96/96/96 94/94/94
f 100/100/100 99/99/99 98/98/98
f 101/101/101 100/100/100 98/98/98
f 104/104/104 103/103/103 102/102/102
f 105/105/105 104/104/104 102/102/102
f 108/108/108 107/107/107 106/106/106
f 109/109/109 108/108/108 106/106/106
