g FloorCubeTri
v -0.5 0.5 0.5
v -0.5 0.5 -0.5
v 0.5 0.5 -0.5
v 0.5 0.5 0.5
v -0.5 -0.5 -0.5
v -0.5 -0.5 0.5
v 0.5 -0.5 0.5
v 0.5 -0.5 -0.5
v 0.5 0.5 0.5
v 0.5 0.142035648 0.5
v -0.5 0.142035648 0.5
v -0.5 0.5 0.5
v 0.5 0.5 -0.5
v 0.5 0.142035648 -0.5
v 0.5 0.142035648 0.5
v 0.5 0.5 0.5
v -0.5 0.5 -0.5
v -0.5 0.142035648 -0.5
v 0.5 0.142035648 -0.5
v 0.5 0.5 -0.5
v -0.5 0.5 0.5
v -0.5 0.142035648 0.5
v -0.5 0.142035648 -0.5
v -0.5 0.5 -0.5
v 0.5 0.142035648 0.5
v 0.5 -0.142035648 0.5
v -0.5 -0.142035648 0.5
v -0.5 0.142035648 0.5
v 0.5 0.142035648 -0.5
v 0.5 -0.142035648 -0.5
v 0.5 -0.142035648 0.5
v 0.5 0.142035648 0.5
v -0.5 0.142035648 -0.5
v -0.5 -0.142035648 -0.5
v 0.5 -0.142035648 -0.5
v 0.5 0.142035648 -0.5
v -0.5 0.142035648 0.5
v -0.5 -0.142035648 0.5
v -0.5 -0.142035648 -0.5
v -0.5 0.142035648 -0.5
v 0.5 -0.142035648 -0.5
v 0.5 -0.5 -0.5
v 0.5 -0.5 0.5
v 0.5 -0.142035648 0.5
v -0.5 -0.142035648 -0.5
v -0.5 -0.5 -0.5
v 0.5 -0.5 -0.5
v 0.5 -0.142035648 -0.5
v -0.5 -0.142035648 0.5
v -0.5 -0.5 0.5
v -0.5 -0.5 -0.5
v -0.5 -0.142035648 -0.5
v 0.5 -0.142035648 0.5
v 0.5 -0.5 0.5
v -0.5 -0.5 0.5
v -0.5 -0.142035648 0.5
vt 0.940594733 0.0644673184
vt 0.940594733 0.0743831694
vt 0.950510561 0.0743831694
vt 0.950510561 0.0644673184
vt 0.948917866 0.0744562894
vt 0.948917866 0.0843720958
vt 0.958833694 0.0843720958
vt 0.958833694 0.0744562894
vt 0.967399836 0.0113961101
vt 0.948766053 0.0113961399
vt 0.948766053 0.0859268308
vt 0.967399836 0.085926801
vt 0.967399836 0.0113961101
vt 0.94876653 0.0113961399
vt 0.94876653 0.0859268308
vt 0.967399836 0.085926801
vt 0.967399836 0.0113961101
vt 0.948766172 0.0113961101
vt 0.948766172 0.085926801
vt 0.967399836 0.085926801
vt 0.967399836 0.0113961101
vt 0.948766291 0.0113961101
vt 0.948766291 0.085926801
vt 0.967399836 0.085926801
vt 0.968512416 0.0148493033
vt 0.963250637 0.0148493554
vt 0.963250637 0.0253698956
vt 0.968512416 0.0253698435
vt 0.976589859 0.0148493135
vt 0.971330583 0.0148493405
vt 0.971330583 0.0253698919
vt 0.976589859 0.0253698658
vt 0.974947572 0.0359691605
vt 0.980207801 0.035969127
vt 0.980207801 0.0254485868
vt 0.974947572 0.0254486185
vt 0.972129762 0.0254485831
vt 0.966870248 0.0254486036
vt 0.966870248 0.0359691419
vt 0.972129762 0.0359691232
vt 0.948766589 0.0859268308
vt 0.967399895 0.085926801
vt 0.967399895 0.0113961101
vt 0.948766589 0.0113961399
vt 0.948766172 0.085926801
vt 0.967399895 0.085926801
vt 0.967399895 0.0113961101
vt 0.948766172 0.0113961101
vt 0.948766232 0.085926801
vt 0.967399895 0.085926801
vt 0.967399895 0.0113961101
vt 0.948766232 0.0113961101
vt 0.948766112 0.0859268308
vt 0.967399895 0.085926801
vt 0.967399895 0.0113961101
vt 0.948766112 0.0113961399
vn -0 1 0
vn -0 1 0
vn -0 1 0
vn -0 1 0
vn -0 -1 0
vn -0 -1 0
vn -0 -1 0
vn -0 -1 0
vn -0 0 1
vn -0 0 1
vn -0 0 1
vn -0 0 1
vn 1 0 0
vn 1 0 0
vn 1 0 0
vn 1 0 0
vn -0 0 -1
vn -0 0 -1
vn -0 0 -1
vn -0 0 -1
vn -1 0 0
vn -1 0 0
vn -1 0 0
vn -1 0 0
vn -0 0 1
vn -0 0 1
vn -0 0 1
vn -0 0 1
vn 1 0 0
vn 1 0 0
vn 1 0 0
vn 1 0 0
vn -0 0 -1
vn -0 0 -1
vn -0 0 -1
vn -0 0 -1
vn -1 0 0
vn -1 0 0
vn -1 0 0
vn -1 0 0
vn 1 0 0
vn 1 0 0
vn 1 0 0
vn 1 0 0
vn -0 0 -1
vn -0 0 -1
vn -0 0 -1
vn -0 0 -1
vn -1 0 0
vn -1 0 0
vn -1 0 0
vn -1 0 0
vn -0 0 1
vn -0 0 1
vn -0 0 1
vn -0 0 1
g FloorCubeTri_0
f 3/3/3 2/2/2 1/1/1
f 4/4/4 3/3/3 1/1/1
f 7/7/7 6/6/6 5/5/5
f 8/8/8 7/7/7 5/5/5
g FloorCubeTri_1
f 11/11/11 10/10/10 9/9/9
f 12/12/12 11/11/11 9/9/9
f 15/15/15 14/14/14 13/13/13
f 16/16/16 15/15/15 13/13/13
f 19/19/19 18/18/18 17/17/17
f 20/20/20 19/19/19 17/17/17
f 23/23/23 22/22/22 21/21/21
f 24/24/24 23/23/23 21/21/21
f 27/27/27 26/26/26 25/25/25
f 28/28/28 27/27/27 25/25/25
f 31/31/31 30/30/30 29/29/29
f 32/32/32 31/31/31 29/29/29
f 35/35/35 34/34/34 33/33/33
f 36/36/36 35/35/35 33/33/33
f 39/39/39 38/38/38 37/37/37
f 40/40/40 39/39/39 37/37/37
f 43/43/43 42/42/42 41/41/41
f 44/44/44 43/43/43 41/41/41
f 47/47/47 46/46/46 45/45/45
f 48/48/48 47/47/47 45/45/45
f 51/51/51 50/50/50 49/49/49
f 52/52/52 51/51/51 49/49/49
f 55/55/55 54/54/54 53/53/53
f 56/56/56 55/55/55 53/53/53
