g FullWallTrimCarpet
v 0.388888836 -0.5 0.5
v -0.388888836 -0.5 0.5
v -0.388888836 0.5 0.5
v 0.388888836 0.5 0.5
v 0.388888836 0.5 -0.5
v -0.388888836 0.5 -0.5
v -0.388888836 -0.5 -0.5
v 0.388888836 -0.5 -0.5
v 0.5 -0.5 0.388888836
v 0.5 0.5 0.388888836
v 0.5 0.5 -0.388888836
v 0.5 -0.5 -0.388888836
v -0.5 0.5 -0.388888836
v -0.5 0.5 0.388888836
v -0.5 -0.5 0.388888836
v -0.5 -0.5 -0.388888836
v 0.5 0.5 0.5
v 0.5 -0.5 0.5
v 0.5 -0.5 -0.5
v 0.5 0.5 -0.5
v -0.5 0.5 -0.5
v -0.5 -0.5 -0.5
v -0.5 -0.5 0.5
v -0.5 0.5 0.5
v 0.5 -0.5 -0.388888836
v 0.5 -0.5 -0.5
v 0.388888836 -0.5 -0.5
v 0.388888836 -0.5 -0.388888836
v -0.388888836 -0.5 -0.5
v 0.388888836 -0.5 0.388888836
v 0.5 -0.5 0.388888836
v -0.388888836 -0.5 -0.388888836
v -0.5 -0.5 -0.5
v -0.5 -0.5 -0.388888836
v -0.5 -0.5 0.388888836
v 0.388888836 -0.5 0.5
v 0.5 -0.5 0.5
v -0.388888836 -0.5 0.5
v -0.5 -0.5 0.5
v -0.388888836 -0.5 0.388888836
v 0.5 0.5 -0.5
v 0.5 -0.5 -0.5
v 0.388888836 0.5 -0.5
v 0.5 0.5 -0.5
v 0.5 0.5 -0.388888836
v 0.388888836 0.5 -0.388888836
v -0.388888836 0.5 -0.5
v 0.388888836 0.5 0.388888836
v 0.5 0.5 0.388888836
v 0.388888836 0.5 0.5
v 0.5 0.5 0.5
v -0.388888836 0.5 0.5
v -0.388888836 0.5 0.388888836
v -0.5 0.5 0.5
v -0.5 0.5 0.388888836
v -0.5 0.5 -0.388888836
v -0.5 0.5 -0.5
v -0.388888836 0.5 -0.388888836
v -0.5 -0.5 -0.5
v -0.5 0.5 -0.5
v 0.5 -0.5 0.5
v 0.5 0.5 0.5
v -0.5 0.5 0.5
v -0.5 -0.5 0.5
vt 0.955358744 0.0327721536
vt 0.950187206 0.0327721536
vt 0.950187206 0.0394213498
vt 0.955358744 0.0394213498
vt 0.967785597 0.0394977927
vt 0.962614059 0.0394977927
vt 0.962614059 0.0461470485
vt 0.967785597 0.0461470485
vt 0.950187206 0.046223402
vt 0.950187206 0.0528726578
vt 0.955358803 0.0528726578
vt 0.955358803 0.046223402
vt 0.956984401 0.0528726578
vt 0.962156057 0.0528726578
vt 0.962156057 0.046223402
vt 0.956984401 0.046223402
vt 0.956097603 0.0394213498
vt 0.956097603 0.0327721536
vt 0.968524456 0.0461470485
vt 0.968524456 0.0394977927
vt 0.9618752 0.0394977927
vt 0.9618752 0.0461470485
vt 0.949448407 0.0327721536
vt 0.949448407 0.0394213498
vt 0.96175772 0.0402365923
vt 0.96175772 0.0394977927
vt 0.96101886 0.0394977927
vt 0.96101886 0.0402365923
vt 0.955847263 0.0394977927
vt 0.96101886 0.0454081893
vt 0.96175772 0.0454081893
vt 0.955847263 0.0402365923
vt 0.955108464 0.0394977927
vt 0.955108464 0.0402365923
vt 0.955108464 0.0454081893
vt 0.96101886 0.0461470485
vt 0.96175772 0.0461470485
vt 0.955847263 0.0461470485
vt 0.955108464 0.0461470485
vt 0.955847263 0.0454081893
vt 0.956097603 0.0528726578
vt 0.956097603 0.046223402
vt 0.962156057 0.0394213498
vt 0.962894917 0.0394213498
vt 0.962894917 0.0386825204
vt 0.962156057 0.0386825204
vt 0.956984401 0.0394213498
vt 0.962156057 0.0335109234
vt 0.962894917 0.0335109234
vt 0.962156057 0.0327721238
vt 0.962894917 0.0327721238
vt 0.956984401 0.0327721238
vt 0.956984401 0.0335109234
vt 0.956245601 0.0327721238
vt 0.956245601 0.0335109234
vt 0.956245601 0.0386825204
vt 0.956245601 0.0394213498
vt 0.956984401 0.0386825204
vt 0.956245601 0.046223402
vt 0.956245601 0.0528726578
vt 0.949448407 0.046223402
vt 0.949448407 0.0528726578
vt 0.962894917 0.0528726578
vt 0.962894917 0.046223402
vn -0 0 1
vn -0 0 1
vn -0 0 1
vn -0 0 1
vn -0 0 -1
vn -0 0 -1
vn -0 0 -1
vn -0 0 -1
vn 1 0 0
vn 1 0 0
vn 1 0 0
vn 1 0 0
vn -1 0 0
vn -1 0 0
vn -1 0 0
vn -1 0 0
vn -0 0 1
vn -0 0 1
vn -0 0 -1
vn -0 0 -1
vn -0 0 -1
vn -0 0 -1
vn -0 0 1
vn -0 0 1
vn -0 -1 0
vn -0 -1 0
vn -0 -1 0
vn -0 -1 0
vn -0 -1 0
vn -0 -1 0
vn -0 -1 0
vn -0 -1 0
vn -0 -1 0
vn -0 -1 0
vn -0 -1 0
vn -0 -1 0
vn -0 -1 0
vn -0 -1 0
vn -0 -1 0
vn -0 -1 0
vn 1 0 0
vn 1 0 0
vn -0 1 0
vn -0 1 0
vn -0 1 0
vn -0 1 0
vn -0 1 0
vn -0 1 0
vn -0 1 0
vn -0 1 0
vn -0 1 0
vn -0 1 0
vn -0 1 0
vn -0 1 0
vn -0 1 0
vn -0 1 0
vn -0 1 0
vn -0 1 0
vn -1 0 0
vn -1 0 0
vn 1 0 0
vn 1 0 0
vn -1 0 0
vn -1 0 0
g FullWallTrimCarpet_0
f 3/3/3 2/2/2 1/1/1
f 4/4/4 3/3/3 1/1/1
f 7/7/7 6/6/6 5/5/5
f 8/8/8 7/7/7 5/5/5
f 11/11/11 10/10/10 9/9/9
f 12/12/12 11/11/11 9/9/9
f 15/15/15 14/14/14 13/13/13
f 16/16/16 15/15/15 13/13/13
g FullWallTrimCarpet_1
f 18/18/18 17/17/17 4/4/4
f 1/1/1 18/18/18 4/4/4
f 20/20/20 19/19/19 8/8/8
f 5/5/5 20/20/20 8/8/8
f 7/7/7 22/22/22 21/21/21
f 6/6/6 7/7/7 21/21/21
f 3/3/3 24/24/24 23/23/23
f 2/2/2 3/3/3 23/23/23
f 27/27/27 26/26/26 25/25/25
f 28/28/28 27/27/27 25/25/25
f 27/27/27 28/28/28 29/29/29
f 28/28/28 25/25/25 30/30/30
f 25/25/25 31/31/31 30/30/30
f 28/28/28 32/32/32 29/29/29
f 28/28/28 30/30/30 32/32/32
f 29/29/29 32/32/32 33/33/33
f 32/32/32 34/34/34 33/33/33
f 34/34/34 32/32/32 35/35/35
f 30/30/30 31/31/31 36/36/36
f 31/31/31 37/37/37 36/36/36
f 36/36/36 38/38/38 30/30/30
f 38/38/38 39/39/39 35/35/35
f 30/30/30 40/40/40 32/32/32
f 32/32/32 40/40/40 35/35/35
f 38/38/38 40/40/40 30/30/30
f 40/40/40 38/38/38 35/35/35
f 42/42/42 41/41/41 11/11/11
f 12/12/12 42/42/42 11/11/11
f 45/45/45 44/44/44 43/43/43
f 46/46/46 45/45/45 43/43/43
f 43/43/43 47/47/47 46/46/46
f 46/46/46 48/48/48 45/45/45
f 48/48/48 49/49/49 45/45/45
f 48/48/48 50/50/50 49/49/49
f 50/50/50 51/51/51 49/49/49
f 50/50/50 48/48/48 52/52/52
f 48/48/48 53/53/53 52/52/52
f 48/48/48 46/46/46 53/53/53
f 52/52/52 53/53/53 54/54/54
f 53/53/53 55/55/55 54/54/54
f 56/56/56 55/55/55 53/53/53
f 47/47/47 57/57/57 56/56/56
f 46/46/46 58/58/58 53/53/53
f 58/58/58 56/56/56 53/53/53
f 47/47/47 58/58/58 46/46/46
f 58/58/58 47/47/47 56/56/56
f 13/13/13 60/60/60 59/59/59
f 16/16/16 13/13/13 59/59/59
f 10/10/10 62/62/62 61/61/61
f 9/9/9 10/10/10 61/61/61
f 64/64/64 63/63/63 14/14/14
f 15/15/15 64/64/64 14/14/14
