g FramedWindow
v -0.0313558951 0.46418938 0.464189291
v -0.0313558951 -0.464190811 0.464189291
v -0.0313558951 -0.464190811 -0.464187622
v -0.0313558951 0.46418938 -0.464187622
v 0.0313558951 -0.464190811 0.464189291
v 0.0313558951 0.46418938 0.464189291
v 0.0313558951 0.46418938 -0.464187622
v 0.0313558951 -0.464190811 -0.464187622
v 0.064251706 0.4375 0.0231108088
v 0.0642518625 0.4375 -0.0231109615
v 0.0642518625 -0.437501967 -0.0231111143
v 0.064251706 -0.437501669 0.0231111143
v 0.064251706 -0.437501669 0.0231111143
v -0.0642520115 -0.437501669 0.0231111143
v -0.0642520115 0.4375 0.0231108088
v 0.064251706 0.4375 0.0231108088
v -0.0642520115 -0.437501669 0.0231111143
v -0.064251706 -0.437501669 -0.0231111143
v -0.0642520115 0.4375 -0.0231109615
v -0.0642520115 0.4375 0.0231108088
v -0.064251706 -0.437501669 -0.0231111143
v 0.0642518625 -0.437501967 -0.0231111143
v 0.0642518625 0.4375 -0.0231109615
v -0.0642520115 0.4375 -0.0231109615
v 0.075296022 -0.0231108088 0.43749845
v 0.075296022 0.0231109615 0.43749845
v 0.075296022 0.0231111143 -0.437498629
v 0.075296022 -0.0231111143 -0.437498301
v 0.075296022 -0.0231111143 -0.437498301
v -0.0752963275 -0.0231111143 -0.437498301
v -0.0752963275 -0.0231108088 0.43749845
v 0.075296022 -0.0231108088 0.43749845
v -0.0752963275 -0.0231111143 -0.437498301
v -0.075296022 0.0231111143 -0.437498301
v -0.075296022 0.0231109615 0.43749845
v -0.0752963275 -0.0231108088 0.43749845
v -0.075296022 0.0231111143 -0.437498301
v 0.075296022 0.0231111143 -0.437498629
v 0.075296022 0.0231109615 0.43749845
v -0.075296022 0.0231109615 0.43749845
v -0.129083559 0.5 0.5
v -0.129083559 0.5 -0.5
v 0.129083559 0.5 -0.5
v 0.129083559 0.5 0.5
v 0.129083559 0.5 0.5
v 0.129083559 0.5 -0.5
v 0.129083559 0.43750152 -0.43749845
v 0.129083559 0.4375 0.437500298
v -0.129083559 0.4375 0.4375
v -0.129083559 0.43750152 -0.43749845
v -0.129083559 0.5 -0.5
v -0.129083559 0.5 0.5
v -0.129083559 -0.5 0.5
v -0.129083559 0.5 0.5
v 0.129083559 0.5 0.5
v 0.129083559 -0.5 0.5
v 0.129083559 -0.5 0.5
v 0.129083559 0.5 0.5
v 0.129083559 0.4375 0.437500298
v 0.129083559 -0.437501967 0.43749845
v -0.129083559 -0.437501818 0.43749845
v -0.129083559 0.4375 0.4375
v -0.129083559 0.5 0.5
v -0.129083559 -0.5 0.5
v -0.129083559 -0.5 -0.5
v -0.129083559 -0.5 0.5
v 0.129083559 -0.5 0.5
v 0.129083559 -0.5 -0.5
v 0.129083559 -0.5 -0.5
v 0.129083559 -0.5 0.5
v 0.129083559 -0.437501967 0.43749845
v 0.129083559 -0.437500298 -0.4375
v -0.129083559 -0.4375 -0.4375
v -0.129083559 -0.437501818 0.43749845
v -0.129083559 -0.5 0.5
v -0.129083559 -0.5 -0.5
v -0.129083559 0.5 -0.5
v -0.129083559 -0.5 -0.5
v 0.129083559 -0.5 -0.5
v 0.129083559 0.5 -0.5
v 0.129083559 0.5 -0.5
v 0.129083559 -0.5 -0.5
v 0.129083559 -0.437500298 -0.4375
v 0.129083559 0.43750152 -0.43749845
v -0.129083559 0.43750152 -0.43749845
v -0.129083559 -0.4375 -0.4375
v -0.129083559 -0.5 -0.5
v -0.129083559 0.5 -0.5
v -0.129083559 0.4375 0.4375
v 0.129083559 0.4375 0.437500298
v 0.129083559 0.43750152 -0.43749845
v -0.129083559 0.43750152 -0.43749845
v -0.129083559 -0.437501818 0.43749845
v 0.129083559 -0.437501967 0.43749845
v 0.129083559 0.4375 0.437500298
v -0.129083559 0.4375 0.4375
v -0.129083559 -0.4375 -0.4375
v 0.129083559 -0.437500298 -0.4375
v 0.129083559 -0.437501967 0.43749845
v -0.129083559 -0.437501818 0.43749845
v -0.129083559 0.43750152 -0.43749845
v 0.129083559 0.43750152 -0.43749845
v 0.129083559 -0.437500298 -0.4375
v -0.129083559 -0.4375 -0.4375
vt 0.0127436519 0.341709703
vt 0.0127436519 0.630607367
vt 0.301640362 0.630607367
vt 0.301640362 0.341709703
vt 0.0127436519 0.341709733
vt 0.0127436519 0.630607367
vt 0.301640362 0.630607367
vt 0.301640362 0.341709733
vt 0.975288928 0.617528439
vt 0.975289226 0.66705358
vt 0.0207676813 0.667053699
vt 0.0207680687 0.617528558
vt 0.698659062 0.47826454
vt 0.698659301 0.590700507
vt 0.297397614 0.590696931
vt 0.297397614 0.47826001
vt 0.0207676813 0.617528558
vt 0.0207676813 0.667053699
vt 0.975288928 0.66705358
vt 0.975288928 0.617528439
vt 0.698659062 0.47826454
vt 0.698659301 0.590700507
vt 0.297397614 0.590696931
vt 0.297397614 0.47826001
vt 0.975288928 0.617528439
vt 0.975289226 0.66705358
vt 0.0207676813 0.667053699
vt 0.0207680687 0.617528558
vt 0.698659062 0.47826454
vt 0.698659301 0.590700507
vt 0.297397614 0.590696931
vt 0.297397614 0.47826001
vt 0.0207676813 0.617528558
vt 0.0207676813 0.667053699
vt 0.975288928 0.66705358
vt 0.975288928 0.617528439
vt 0.698659062 0.47826454
vt 0.698659301 0.590700507
vt 0.297397614 0.590696931
vt 0.297397614 0.47826001
vt 0.204555005 0.869684517
vt 0.791499853 0.869686961
vt 0.79150039 0.984480023
vt 0.204556167 0.984475136
vt 0.0762514099 0.927577138
vt 0.919889271 0.927932739
vt 0.867207468 0.875191331
vt 0.12900883 0.874874949
vt 0.867158592 0.875182271
vt 0.128918886 0.874914289
vt 0.0761663243 0.927625656
vt 0.919870257 0.927933574
vt 0.204557985 0.869692504
vt 0.791499853 0.869691849
vt 0.791501939 0.984482169
vt 0.204558998 0.984481573
vt 0.0762496218 0.927576423
vt 0.919890821 0.927934289
vt 0.867208421 0.875192046
vt 0.129014254 0.874875546
vt 0.867160141 0.875182271
vt 0.128917843 0.87491405
vt 0.0761663243 0.927625656
vt 0.919870019 0.927933335
vt 0.204557061 0.869685829
vt 0.79150039 0.869686365
vt 0.79150039 0.98447907
vt 0.204557717 0.984476209
vt 0.0762041137 0.927598
vt 0.919876397 0.927926302
vt 0.867180407 0.875183105
vt 0.128964901 0.874893546
vt 0.867158353 0.875182509
vt 0.128917843 0.8749156
vt 0.0761660859 0.927625537
vt 0.919870555 0.927932739
vt 0.204555541 0.869684935
vt 0.791499555 0.869687855
vt 0.791500866 0.984478235
vt 0.204556555 0.984473705
vt 0.0762509033 0.927578449
vt 0.919888556 0.927932024
vt 0.867197156 0.875186682
vt 0.129005253 0.874874234
vt 0.867159367 0.875180721
vt 0.128917068 0.874913573
vt 0.0761663243 0.927625656
vt 0.919870257 0.927933574
vt 0.00491657853 0.703892589
vt 0.0049161911 0.996412873
vt 0.996347666 0.996412873
vt 0.996347606 0.703892589
vt 0.00491591636 0.703892946
vt 0.00491592288 0.996412516
vt 0.996347964 0.996412516
vt 0.996348023 0.703892946
vt 0.00491631031 0.703892589
vt 0.00491631031 0.996412873
vt 0.996347606 0.996412873
vt 0.996347666 0.703892589
vt 0.00491574407 0.703892946
vt 0.00491574407 0.996412516
vt 0.996348143 0.996412516
vt 0.996347666 0.703892946
vn -1 0 0
vn -1 0 0
vn -1 0 0
vn -1 0 0
vn 1 0 0
vn 1 0 0
vn 1 0 0
vn 1 0 0
vn 1 0 8.21589936E-07
vn 1 0 8.21590049E-07
vn 1 0 8.21590049E-07
vn 1 0 8.21590049E-07
vn -0 3.68223198E-07 1
vn -0 3.68223198E-07 1
vn -0 3.68223198E-07 1
vn -0 3.68223198E-07 1
vn -1 0 -1.64317987E-06
vn -1 0 -1.6431801E-06
vn -1 0 -1.6431801E-06
vn -1 0 -1.64317987E-06
vn -0 3.68223198E-07 -1
vn -0 3.68223198E-07 -1
vn -0 3.68223198E-07 -1
vn -0 3.68223198E-07 -1
vn 1 -9.62812578E-07 0
vn 1 -9.62812692E-07 0
vn 1 -9.62812805E-07 0
vn 1 -9.62812805E-07 0
vn -0 -1 3.68223198E-07
vn -0 -1 3.68223198E-07
vn -0 -1 3.68223198E-07
vn -0 -1 3.68223198E-07
vn -1 1.92562516E-06 0
vn -1 1.92562538E-06 0
vn -1 1.92562538E-06 0
vn -1 1.92562516E-06 0
vn -0 1 3.68223198E-07
vn -0 1 3.68223198E-07
vn -0 1 3.68223198E-07
vn -0 1 3.68223198E-07
vn -0 1 0
vn -0 1 0
vn -0 1 0
vn -0 1 0
vn 1 0 0
vn 1 0 0
vn 1 0 0
vn 1 0 0
vn -1 0 0
vn -1 0 0
vn -1 0 0
vn -1 0 0
vn -0 0 1
vn -0 0 1
vn -0 0 1
vn -0 0 1
vn 1 0 0
vn 1 0 0
vn 1 0 0
vn 1 0 0
vn -1 0 0
vn -1 0 0
vn -1 0 0
vn -1 0 0
vn -0 -1 0
vn -0 -1 0
vn -0 -1 0
vn -0 -1 0
vn 1 0 0
vn 1 0 0
vn 1 0 0
vn 1 0 0
vn -1 0 0
vn -1 0 0
vn -1 0 0
vn -1 0 0
vn -0 0 -1
vn -0 0 -1
vn -0 0 -1
vn -0 0 -1
vn 1 0 0
vn 1 0 0
vn 1 0 0
vn 1 0 0
vn -1 0 0
vn -1 0 0
vn -1 0 0
vn -1 0 0
vn -0 -1 -1.78326434E-06
vn -0 -1 -1.78326434E-06
vn -0 -1 -1.78326434E-06
vn -0 -1 -1.78326434E-06
vn 6.23127903E-07 1.91824415E-06 -1
vn 6.23128017E-07 1.91824415E-06 -1
vn 6.23128017E-07 1.91824415E-06 -1
vn 6.23128017E-07 1.91824415E-06 -1
vn 8.86562646E-07 1 1.99941724E-06
vn 8.86562646E-07 1 1.99941724E-06
vn 8.86562646E-07 1 1.99941724E-06
vn 8.86562646E-07 1 1.99941724E-06
vn -8.64609888E-07 -1.74385741E-06 1
vn -8.64609888E-07 -1.74385741E-06 1
vn -8.64609831E-07 -1.7438573E-06 1
vn -8.64610001E-07 -1.74385752E-06 1
g FramedWindow_0
f 3/3/3 2/2/2 1/1/1
f 4/4/4 3/3/3 1/1/1
f 7/7/7 6/6/6 5/5/5
f 8/8/8 7/7/7 5/5/5
g FramedWindow_1
f 11/11/11 10/10/10 9/9/9
f 12/12/12 11/11/11 9/9/9
f 15/15/15 14/14/14 13/13/13
f 16/16/16 15/15/15 13/13/13
f 19/19/19 18/18/18 17/17/17
f 20/20/20 19/19/19 17/17/17
f 23/23/23 22/22/22 21/21/21
f 24/24/24 23/23/23 21/21/21
f 27/27/27 26/26/26 25/25/25
f 28/28/28 27/27/27 25/25/25
f 31/31/31 30/30/30 29/29/29
f 32/32/32 31/31/31 29/29/29
f 35/35/35 34/34/34 33/33/33
f 36/36/36 35/35/35 33/33/33
f 39/39/39 38/38/38 37/37/37
f 40/40/40 39/39/39 37/37/37
f 43/43/43 42/42/42 41/41/41
f 44/44/44 43/43/43 41/41/41
f 47/47/47 46/46/46 45/45/45
f 48/48/48 47/47/47 45/45/45
f 51/51/51 50/50/50 49/49/49
f 52/52/52 51/51/51 49/49/49
f 55/55/55 54/54/54 53/53/53
f 56/56/56 55/55/55 53/53/53
f 59/59/59 58/58/58 57/57/57
f 60/60/60 59/59/59 57/57/57
f 63/63/63 62/62/62 61/61/61
f 64/64/64 63/63/63 61/61/61
f 67/67/67 66/66/66 65/65/65
f 68/68/68 67/67/67 65/65/65
f 71/71/71 70/70/70 69/69/69
f 72/72/72 71/71/71 69/69/69
f 75/75/75 74/74/74 73/73/73
f 76/76/76 75/75/75 73/73/73
f 79/79/79 78/78/78 77/77/77
f 80/80/80 79/79/79 77/77/77
f 83/83/83 82/82/82 81/81/81
f 84/84/84 83/83/83 81/81/81
f 87/87/87 86/86/86 85/85/85
f 88/88/88 87/87/87 85/85/85
f 91/91/91 90/90/90 89/89/89
f 92/92/92 91/91/91 89/89/89
f 95/95/95 94/94/94 93/93/93
f 96/96/96 95/95/95 93/93/93
f 99/99/99 98/98/98 97/97/97
f 100/100/100 99/99/99 97/97/97
f 103/103/103 102/102/102 101/101/101
f 104/104/104 103/103/103 101/101/101
