g CL_FloatStairs_Corner_Clipped
v -0.149905086 0.251504272 -0.149904788
v -0.149904788 0.251504272 -0.395903319
v -0.395903319 0.251504272 -0.395903319
v -0.395903319 0.251504272 -0.149904788
v -0.149905086 0.251504272 -0.149904788
v -0.395903319 0.251504272 -0.395903319
v -0.149904788 0.344564885 -0.395903319
v -0.149904788 0.344564885 -0.149904788
v -0.395903319 0.344564885 -0.395903319
v -0.149904788 0.344564885 -0.149904788
v -0.395903319 0.344564885 -0.149904788
v -0.395903319 0.344564885 -0.395903319
v 0.5 -0.305340141 0.5
v 0.395903319 -0.305340141 0.395903319
v 0.1498999 -0.305340141 0.1498999
v -0.395903319 0.322197825 -0.395903319
v -0.5 0.426221341 -0.5
v -0.5 -0.5 0.426870704
v -0.395903319 -0.5 0.426870704
v 0.426871032 -0.5 -0.5
v -0.5 0.426221341 -0.5
v -0.395903319 0.322197825 -0.395903319
v 0.426871032 -0.5 -0.395903319
v -0.395903617 0.446144462 -0.395903319
v -0.395903319 -0.449905008 0.5
v -0.5 -0.449905008 0.5
v -0.449750066 0.5 -0.449749738
v -0.5 0.5 -0.449749738
v -0.449749738 0.5 -0.5
v 0.5 -0.449905008 -0.5
v 0.5 -0.449905008 -0.395903319
v -0.395903617 0.446144462 -0.395903319
v -0.449750066 0.5 -0.449749738
v 0.5 -0.398400754 0.5
v 0.5 -0.398400754 -0.395903319
v 0.1498999 -0.398400754 -0.395903319
v 0.149899587 -0.398400784 0.1498999
v -0.175052479 0.0206540488 -0.175052479
v -0.395903319 0.0206540488 -0.175052479
v -0.395903319 -0.0744899511 -0.175052479
v -0.175052479 -0.0744899437 -0.175052479
v -0.175052479 -0.0744899511 -0.395903319
v -0.175052479 0.0206540488 -0.395903319
v -0.175052479 0.0206540488 -0.175052479
v -0.175052479 -0.0744899437 -0.175052479
v 0.5 -0.5 -0.5
v 0.5 -0.5 -0.395903319
v 0.5 -0.449905008 -0.395903319
v 0.5 -0.449905008 -0.5
v -0.395903319 -0.5 0.5
v -0.5 -0.5 0.5
v -0.5 -0.449905008 0.5
v -0.395903319 -0.449905008 0.5
v 0.5 -0.398400754 -0.395903319
v 0.5 -0.305340141 -0.395903319
v 0.1498999 -0.305340141 -0.395903319
v 0.1498999 -0.398400754 -0.395903319
v -0.395903319 -0.305340141 0.5
v -0.395903319 -0.398400754 0.5
v -0.395903319 -0.398400754 0.1498999
v -0.395903319 -0.305340141 0.1498999
v -0.395903319 0.0206540488 0.175047606
v -0.395903319 -0.0744899511 0.175047606
v -0.395903319 -0.0744899511 -0.175052479
v -0.395903319 0.0206540488 -0.175052479
v 0.175047606 -0.0744899511 -0.395903319
v 0.175047606 0.0206540488 -0.395903319
v -0.175052479 0.0206540488 -0.395903319
v -0.175052479 -0.0744899511 -0.395903319
v -0.149904788 0.251504272 -0.395903319
v -0.149904788 0.344564885 -0.395903319
v -0.395903319 0.344564885 -0.395903319
v -0.395903319 0.251504272 -0.395903319
v -0.395903319 0.344564885 -0.149904788
v -0.395903319 0.251504272 -0.149904788
v -0.395903319 0.251504272 -0.395903319
v -0.395903319 0.344564885 -0.395903319
v 0.1498999 -0.305340141 0.1498999
v -0.395903319 -0.305340141 0.1498999
v -0.395903319 -0.398400754 0.1498999
v 0.149899587 -0.398400784 0.1498999
v 0.1498999 -0.398400754 -0.395903319
v 0.1498999 -0.305340141 -0.395903319
v 0.1498999 -0.305340141 0.1498999
v 0.149899587 -0.398400784 0.1498999
v -0.395903319 -0.0744899511 0.175047606
v 0.175047293 -0.0744899511 0.175047606
v -0.175052479 -0.0744899437 -0.175052479
v -0.395903319 -0.0744899511 -0.175052479
v 0.175047293 -0.0744899511 0.175047606
v 0.175047606 -0.0744899511 -0.395903319
v -0.175052479 -0.0744899511 -0.395903319
v -0.175052479 -0.0744899437 -0.175052479
v 0.175047457 0.0206540488 0.175047606
v -0.395903319 0.0206540488 0.175047606
v -0.395903319 0.0206540488 -0.175052479
v -0.175052479 0.0206540488 -0.175052479
v 0.175047606 0.0206540488 -0.395903319
v 0.175047457 0.0206540488 0.175047606
v -0.175052479 0.0206540488 -0.175052479
v -0.175052479 0.0206540488 -0.395903319
v -0.149905086 0.251504272 -0.149904788
v -0.395903319 0.251504272 -0.149904788
v -0.395903319 0.344564885 -0.149904788
v -0.149904788 0.344564885 -0.149904788
v -0.149904788 0.251504272 -0.395903319
v -0.149905086 0.251504272 -0.149904788
v -0.149904788 0.344564885 -0.149904788
v -0.149904788 0.344564885 -0.395903319
v 0.175047293 -0.0744899511 0.175047606
v -0.395903319 -0.0744899511 0.175047606
v -0.395903319 0.0206540488 0.175047606
v 0.175047457 0.0206540488 0.175047606
v 0.175047606 -0.0744899511 -0.395903319
v 0.175047293 -0.0744899511 0.175047606
v 0.175047457 0.0206540488 0.175047606
v 0.175047606 0.0206540488 -0.395903319
v 0.5 -0.398400754 -0.395903319
v 0.5 -0.398400754 0.5
v 0.5 -0.305340141 0.5
v 0.5 -0.305340141 -0.395903319
v 0.5 -0.398400754 0.5
v -0.395903319 -0.398400754 0.5
v -0.395903319 -0.305340141 0.5
v 0.5 -0.305340141 0.5
v -0.395903319 0.322197825 -0.395903319
v -0.395903319 -0.5 0.426870704
v -0.395903319 -0.5 0.5
v -0.395903319 -0.449905008 0.5
v -0.395903617 0.446144462 -0.395903319
v -0.395903617 0.446144462 -0.395903319
v 0.5 -0.449905008 -0.395903319
v 0.5 -0.5 -0.395903319
v 0.426871032 -0.5 -0.395903319
v -0.395903319 0.322197825 -0.395903319
v 0.395903319 -0.398400754 0.395903319
v 0.149899587 -0.398400784 0.1498999
v -0.395903319 -0.398400754 0.1498999
v -0.395903319 -0.398400754 0.5
v 0.5 -0.398400754 0.5
v -0.395903319 -0.305340141 0.5
v -0.395903319 -0.305340141 0.1498999
v 0.1498999 -0.305340141 0.1498999
v 0.395903319 -0.305340141 0.395903319
v 0.5 -0.305340141 0.5
v 0.1498999 -0.305340141 0.1498999
v 0.1498999 -0.305340141 -0.395903319
v 0.5 -0.305340141 -0.395903319
v 0.5 -0.305340141 0.5
v 0.426871032 -0.5 -0.5
v 0.5 -0.5 -0.5
v 0.5 -0.449905008 -0.5
v -0.449749738 0.5 -0.5
v -0.5 0.426221341 -0.5
v -0.5 0.5 -0.5
v -0.5 -0.449905008 0.5
v -0.5 -0.5 0.5
v -0.5 -0.5 0.426870704
v -0.5 0.426221341 -0.5
v -0.5 0.5 -0.449749738
v -0.5 0.5 -0.5
v -0.449750066 0.5 -0.449749738
v -0.5 0.5 -0.449749738
v -0.5 0.5 -0.5
v -0.449749738 0.5 -0.5
v -0.5 -0.5 0.426870704
v -0.5 -0.5 0.5
v -0.395903319 -0.5 0.5
v -0.395903319 -0.5 0.426870704
v 0.426871032 -0.5 -0.395903319
v 0.5 -0.5 -0.395903319
v 0.5 -0.5 -0.5
v 0.426871032 -0.5 -0.5
vt 0.726086557 0.659111083
vt 0.981555462 0.659111083
vt 0.981555462 0.403641939
vt 0.159266591 0.659111083
vt 0.414734781 0.659111142
vt 0.159266502 0.403642833
vt 0.159266531 0.659111083
vt 0.414735645 0.659111083
vt 0.159266502 0.403641939
vt 0.726087093 0.659111083
vt 0.981555581 0.659111083
vt 0.981555462 0.403642833
vt 1.09608996 0.663401067
vt 0.987986326 0.555297434
vt 0.732513785 0.299824655
vt 0.895855486 0.802142501
vt 0.998327911 0.744886279
vt 0.0859133974 0.744886041
vt 0.0859134272 0.802142143
vt 0.0859100297 0.802142143
vt 0.998328686 0.802142382
vt 0.895855367 0.74488622
vt 0.0859100372 0.744885981
vt 0.103301696 0.802142739
vt 0.886065602 0.80214262
vt 0.886064768 0.74488616
vt 0.0562545173 0.772525191
vt 0.0562544726 0.744886279
vt 0.0562544689 0.802142739
vt 0.88606596 0.80214262
vt 0.886065602 0.74488616
vt 0.103300691 0.744886279
vt 0.0562544502 0.77450335
vt 0.0575969517 0.663401067
vt 0.987986088 0.663401067
vt 0.987986267 0.299824655
vt 0.421173126 0.299824655
vt 0.715496898 0.609985709
vt 0.989511609 0.60998565
vt 0.989511549 0.491938531
vt 0.715497196 0.491938561
vt 0.00709846616 0.49193871
vt 0.00709846616 0.609985769
vt 0.281113356 0.609985709
vt 0.281113118 0.491938651
vt 0.863809347 0.948969305
vt 0.863809347 0.843692183
vt 0.813146234 0.843692243
vt 0.813146234 0.948969305
vt 0.863809407 0.948969305
vt 0.863809407 0.843692183
vt 0.813146234 0.843692243
vt 0.813146234 0.948969305
vt 0.947512805 0.507495224
vt 0.947512805 0.352512717
vt 0.364458263 0.352512777
vt 0.364458233 0.507495284
vt 0.947512805 0.507495284
vt 0.947512746 0.352512717
vt 0.364458263 0.352512717
vt 0.364458293 0.507495224
vt 0.834397912 0.57290411
vt 0.834397912 0.41519326
vt 0.254071772 0.41519329
vt 0.254071772 0.57290411
vt 0.994954109 0.331507027
vt 0.994954109 0.401574016
vt 0.994954109 0.401574016
vt 0.994954109 0.331507027
vt 0.785564065 0.623468876
vt 0.785564065 0.46848467
vt 0.375874579 0.46848467
vt 0.375874668 0.623468876
vt 0.785564005 0.623468935
vt 0.785564005 0.46848467
vt 0.375876069 0.4684847
vt 0.375876039 0.623468995
vt 0.311883122 0.608829558
vt 0.99066782 0.608829558
vt 0.99066782 0.493094742
vt 0.31188345 0.493094862
vt 0.00594222546 0.493094921
vt 0.00594222499 0.608829558
vt 0.684727609 0.608829558
vt 0.68472749 0.493094832
vt 0.0220448971 0.5776366
vt 0.614972711 0.57763654
vt 0.251396477 0.214060009
vt 0.0220448375 0.214060009
vt 0.251401901 0.57763654
vt 0.84433043 0.57763648
vt 0.84433049 0.214060009
vt 0.614978611 0.214060009
vt 0.251402348 0.57763648
vt 0.84433043 0.5776366
vt 0.84433043 0.214060009
vt 0.614978552 0.214060009
vt 0.0220448971 0.57763648
vt 0.614973605 0.57763654
vt 0.251396924 0.214060009
vt 0.0220448375 0.214060009
vt 0.311876088 0.4930951
vt 0.00594204664 0.4930951
vt 0.00594210625 0.608829319
vt 0.311876476 0.60882926
vt 0.990668058 0.49309507
vt 0.684733152 0.4930951
vt 0.684733033 0.60882926
vt 0.990668178 0.6088292
vt 0.715489864 0.491938412
vt 0.00709861517 0.491938472
vt 0.00709867477 0.609986007
vt 0.715490222 0.609985888
vt 0.989511371 0.491938412
vt 0.281119317 0.491938472
vt 0.281119138 0.609985948
vt 0.989511371 0.609985828
vt 0.990667939 0.493094951
vt -0.123517096 0.49309513
vt -0.123517022 0.608829379
vt 0.990668058 0.608829439
vt 1.1201272 0.493095189
vt 0.00594210625 0.49309504
vt 0.00594213605 0.608829439
vt 1.1201272 0.608829498
vt 0.849705398 0.80249846
vt 0.0821463764 0.80217129
vt 0.0310666971 0.836905718
vt 0.042817384 0.860736191
vt 0.875255406 0.861228824
vt 0.114377096 0.802047312
vt 0.946816206 0.802539945
vt 0.958566904 0.826370478
vt 0.907487333 0.861104965
vt 0.139928073 0.860777617
vt 0.987986088 0.555297852
vt 0.732512951 0.299824655
vt 0.165700555 0.299824655
vt 0.165700614 0.663401067
vt 1.09608972 0.663401246
vt 0.987986267 0.663401067
vt 0.987986207 0.299824655
vt 0.421173543 0.299824655
vt 0.165700555 0.555297852
vt 0.0575968996 0.663401246
vt 0.732513785 0.299824655
vt 0.165700555 0.299824655
vt 0.16570057 0.663401067
vt 1.09608996 0.663401067
vt 0.0821463689 0.80217123
vt 0.0310666971 0.836905718
vt 0.042817384 0.860736191
vt 0.9252882 0.861258388
vt 0.946816206 0.802539885
vt 0.961783051 0.837482691
vt 0.946816206 0.802539945
vt 0.958566904 0.826370478
vt 0.907487333 0.861104965
vt 0.0428175852 0.86073637
vt 0.0643453971 0.802017927
vt 0.0278504826 0.825793505
vt 0.532333672 0.888850808
vt 0.532333672 0.934461594
vt 0.577944279 0.934461594
vt 0.577944279 0.88885057
vt 0.426668942 0.888244867
vt 0.493046522 0.888244867
vt 0.493046522 0.793758631
vt 0.426668942 0.793758631
vt 0.494188368 0.88824439
vt 0.56056571 0.88824439
vt 0.56056571 0.793758631
vt 0.494188368 0.793758631
vn -0 -1 0
vn -0 -1 1.16031281E-07
vn -0 -1 0
vn -0 -1 0
vn -0 -1 0
vn -0 -1 0
vn -0 1 0
vn -0 1 0
vn -0 1 0
vn -0 1 0
vn -0 1 0
vn -0 1 0
vn -0 1 0
vn -0 1 0
vn -0 1 0
vn 4.55125974E-06 -0.707354546 -0.706858933
vn 4.55125974E-06 -0.707354605 -0.706858933
vn 4.55125974E-06 -0.707354546 -0.706858933
vn 4.55125974E-06 -0.707354546 -0.706858933
vn -0.706860542 -0.707352936 7.11132657E-07
vn -0.706860542 -0.707352936 7.11132657E-07
vn -0.706860542 -0.707352936 7.111326E-07
vn -0.706860542 -0.707352936 7.11132657E-07
vn 2.83517193E-06 0.70704937 0.707164109
vn 2.83517215E-06 0.70704931 0.707164228
vn 2.83517193E-06 0.70704937 0.707164109
vn 2.83517215E-06 0.70704937 0.707164168
vn 2.83517193E-06 0.70704937 0.707164109
vn 0.707165301 0.707048178 2.05992478E-06
vn 0.707165301 0.707048237 2.05992455E-06
vn 0.707165301 0.707048237 2.05992455E-06
vn 0.70716536 0.707048178 2.05992478E-06
vn 0.707165301 0.707048178 2.05992455E-06
vn -0 -1 0
vn -0 -1 0
vn -0 -1 0
vn -0 -1 0
vn -0 0 -1
vn -0 0 -1
vn -0 0 -1
vn -0 0 -1
vn -1 0 0
vn -1 0 0
vn -1 0 0
vn -1 0 0
vn 1 0 0
vn 1 0 0
vn 1 0 0
vn 1 0 0
vn -0 0 1
vn -0 0 1
vn -0 0 1
vn -0 0 1
vn -0 0 -1
vn -0 0 -1
vn -0 0 -1
vn -0 0 -1
vn -1 0 0
vn -1 0 0
vn -1 0 0
vn -1 0 0
vn -1 0 0
vn -1 0 0
vn -1 0 0
vn -1 0 0
vn -0 0 -1
vn -0 0 -1
vn -0 0 -1
vn -0 0 -1
vn -0 0 -1
vn -0 0 -1
vn -0 0 -1
vn -0 0 -1
vn -1 0 0
vn -1 0 0
vn -1 0 0
vn -1 0 0
vn 9.61320325E-07 0 -1
vn 9.61320325E-07 0 -1
vn 9.61320325E-07 0 -1
vn 9.61320438E-07 0 -1
vn -1 1.92263883E-06 -2.79565569E-07
vn -1 1.92263883E-06 -2.79565569E-07
vn -1 1.92263883E-06 -2.79565569E-07
vn -1 1.92263883E-06 -2.7956554E-07
vn -0 -1 0
vn -0 -1 0
vn -0 -1 0
vn -0 -1 0
vn -0 -1 0
vn -0 -1 0
vn -0 -1 0
vn -0 -1 0
vn -0 1 0
vn -0 1 0
vn -0 1 0
vn -0 1 0
vn -0 1 0
vn -0 1 0
vn -0 1 0
vn -0 1 0
vn -0 0 1
vn -0 0 1
vn -0 0 1
vn -0 0 1
vn 1 0 6.20279707E-07
vn 1 0 6.20279707E-07
vn 1 0 6.20279707E-07
vn 1 0 6.20279707E-07
vn 4.98149348E-07 0 1
vn 4.98149404E-07 0 1
vn 4.98149404E-07 0 1
vn 4.98149404E-07 0 1
vn 1 -1.79771155E-06 4.00878491E-07
vn 1 -1.79771155E-06 4.00878491E-07
vn 1 -1.79771155E-06 4.00878491E-07
vn 1 -1.79771155E-06 4.00878491E-07
vn 1 0 0
vn 1 0 0
vn 1 0 0
vn 1 0 0
vn -0 0 1
vn -0 0 1
vn -0 0 1
vn -0 0 1
vn 1 9.04008687E-07 1.09060579E-06
vn 1 9.040088E-07 1.09060579E-06
vn 1 9.040088E-07 1.09060591E-06
vn 1 9.040088E-07 1.09060579E-06
vn 1 9.040088E-07 1.09060579E-06
vn -3.61604884E-06 0 1
vn -3.61604907E-06 0 1
vn -3.61604884E-06 0 1
vn -3.61604884E-06 0 1
vn -3.61604907E-06 0 1
vn -0 -1 0
vn -0 -1 0
vn -0 -1 0
vn -0 -1 0
vn -0 -1 0
vn -0 1 0
vn -0 1 0
vn -0 1 0
vn -0 1 0
vn -0 1 0
vn -0 1 0
vn -0 1 0
vn -0 1 0
vn -0 1 0
vn -0 0 -1
vn -0 0 -1
vn -0 0 -1
vn -0 0 -1
vn -0 0 -1
vn -0 0 -1
vn -1 4.08020327E-07 0
vn -1 4.08020327E-07 0
vn -1 4.0802027E-07 0
vn -1 4.08020327E-07 0
vn -1 4.08020327E-07 0
vn -1 4.08020327E-07 0
vn -0 1 0
vn -0 1 0
vn -0 1 0
vn -0 1 0
vn -0 -1 0
vn -0 -1 0
vn -0 -1 0
vn -0 -1 0
vn -0 -1 0
vn -0 -1 0
vn -0 -1 0
vn -0 -1 0
g CL_FloatStairs_Corner_Clipped_0
f 3/3/3 2/2/2 1/1/1
f 6/6/6 5/5/5 4/4/4
f 9/9/9 8/8/8 7/7/7
f 12/12/12 11/11/11 10/10/10
f 15/15/15 14/14/14 13/13/13
f 18/18/18 17/17/17 16/16/16
f 19/19/19 18/18/18 16/16/16
f 22/22/22 21/21/21 20/20/20
f 23/23/23 22/22/22 20/20/20
f 26/26/26 25/25/25 24/24/24
f 24/24/24 27/27/27 26/26/26
f 27/27/27 28/28/28 26/26/26
f 31/31/31 30/30/30 29/29/29
f 29/29/29 32/32/32 31/31/31
f 29/29/29 33/33/33 32/32/32
f 36/36/36 35/35/35 34/34/34
f 37/37/37 36/36/36 34/34/34
f 40/40/40 39/39/39 38/38/38
f 41/41/41 40/40/40 38/38/38
f 44/44/44 43/43/43 42/42/42
f 45/45/45 44/44/44 42/42/42
f 48/48/48 47/47/47 46/46/46
f 49/49/49 48/48/48 46/46/46
f 52/52/52 51/51/51 50/50/50
f 53/53/53 52/52/52 50/50/50
f 56/56/56 55/55/55 54/54/54
f 57/57/57 56/56/56 54/54/54
f 60/60/60 59/59/59 58/58/58
f 61/61/61 60/60/60 58/58/58
f 64/64/64 63/63/63 62/62/62
f 65/65/65 64/64/64 62/62/62
f 68/68/68 67/67/67 66/66/66
f 69/69/69 68/68/68 66/66/66
f 72/72/72 71/71/71 70/70/70
f 73/73/73 72/72/72 70/70/70
f 76/76/76 75/75/75 74/74/74
f 77/77/77 76/76/76 74/74/74
f 80/80/80 79/79/79 78/78/78
f 81/81/81 80/80/80 78/78/78
f 84/84/84 83/83/83 82/82/82
f 85/85/85 84/84/84 82/82/82
f 88/88/88 87/87/87 86/86/86
f 89/89/89 88/88/88 86/86/86
f 92/92/92 91/91/91 90/90/90
f 93/93/93 92/92/92 90/90/90
f 96/96/96 95/95/95 94/94/94
f 97/97/97 96/96/96 94/94/94
f 100/100/100 99/99/99 98/98/98
f 101/101/101 100/100/100 98/98/98
f 104/104/104 103/103/103 102/102/102
f 105/105/105 104/104/104 102/102/102
f 108/108/108 107/107/107 106/106/106
f 109/109/109 108/108/108 106/106/106
f 112/112/112 111/111/111 110/110/110
f 113/113/113 112/112/112 110/110/110
f 116/116/116 115/115/115 114/114/114
f 117/117/117 116/116/116 114/114/114
f 120/120/120 119/119/119 118/118/118
f 121/121/121 120/120/120 118/118/118
f 124/124/124 123/123/123 122/122/122
f 125/125/125 124/124/124 122/122/122
f 128/128/128 127/127/127 126/126/126
f 126/126/126 129/129/129 128/128/128
f 126/126/126 130/130/130 129/129/129
f 133/133/133 132/132/132 131/131/131
f 131/131/131 134/134/134 133/133/133
f 131/131/131 135/135/135 134/134/134
f 138/138/138 137/137/137 136/136/136
f 136/136/136 139/139/139 138/138/138
f 136/136/136 140/140/140 139/139/139
f 143/143/143 142/142/142 141/141/141
f 141/141/141 144/144/144 143/143/143
f 141/141/141 145/145/145 144/144/144
f 148/148/148 147/147/147 146/146/146
f 146/146/146 149/149/149 148/148/148
f 152/152/152 151/151/151 150/150/150
f 150/150/150 153/153/153 152/152/152
f 150/150/150 154/154/154 153/153/153
f 154/154/154 155/155/155 153/153/153
f 158/158/158 157/157/157 156/156/156
f 156/156/156 159/159/159 158/158/158
f 156/156/156 160/160/160 159/159/159
f 160/160/160 161/161/161 159/159/159
f 164/164/164 163/163/163 162/162/162
f 165/165/165 164/164/164 162/162/162
f 168/168/168 167/167/167 166/166/166
f 169/169/169 168/168/168 166/166/166
f 172/172/172 171/171/171 170/170/170
f 173/173/173 172/172/172 170/170/170
