g Wall_V
v -0.5 -0.4375 0.03125
v -0.5 0.43750003 0.03125
v 0.5 0.4375 0.03125
v 0.5 -0.4375 0.03125
v -0.5 0.43750003 -0.03125
v -0.5 -0.4375 -0.03125
v 0.5 -0.4375 -0.03125
v 0.5 0.4375 -0.03125
v 0.5 -0.4375 0.03125
v 0.5 0.4375 0.03125
v 0.5 0.4375 -0.03125
v 0.5 -0.4375 -0.03125
v -0.5 -0.4375 -0.03125
v -0.5 0.43750003 -0.03125
v -0.5 0.43750003 0.03125
v -0.5 -0.4375 0.03125
v -0.5 0.5 0.0625
v 0.5 0.5 0.0625
v 0.5 0.4375 0.0625
v -0.5 0.4375 0.0625
v 0.5 0.5 0.0625
v 0.5 0.5 -0.0625
v 0.5 0.4375 -0.0625
v 0.5 0.4375 0.0625
v 0.5 0.5 -0.0625
v -0.5 0.5 -0.0625
v -0.5 0.4375 -0.0625
v 0.5 0.4375 -0.0625
v -0.5 0.5 -0.0625
v -0.5 0.5 0.0625
v -0.5 0.4375 0.0625
v -0.5 0.4375 -0.0625
v -0.5 0.4375 0.0625
v 0.5 0.4375 0.0625
v 0.5 0.4375 -0.0625
v -0.5 0.4375 -0.0625
v -0.5 0.5 -0.0625
v 0.5 0.5 -0.0625
v 0.5 0.5 0.0625
v -0.5 0.5 0.0625
v -0.5 -0.4375 0.0625
v 0.5 -0.4375 0.0625
v 0.5 -0.5 0.0625
v -0.5 -0.5 0.0625
v 0.5 -0.4375 0.0625
v 0.5 -0.4375 -0.0625
v 0.5 -0.5 -0.0625
v 0.5 -0.5 0.0625
v 0.5 -0.4375 -0.0625
v -0.5 -0.4375 -0.0625
v -0.5 -0.5 -0.0625
v 0.5 -0.5 -0.0625
v -0.5 -0.4375 -0.0625
v -0.5 -0.4375 0.0625
v -0.5 -0.5 0.0625
v -0.5 -0.5 -0.0625
v -0.5 -0.5 0.0625
v 0.5 -0.5 0.0625
v 0.5 -0.5 -0.0625
v -0.5 -0.5 -0.0625
v -0.5 -0.4375 -0.0625
v 0.5 -0.4375 -0.0625
v 0.5 -0.4375 0.0625
v -0.5 -0.4375 0.0625
vt 0.848345339 0.0312289
vt 0.848345339 0.0403504074
vt 0.857466817 0.0403504074
vt 0.857466817 0.0312289
vt 0.848345339 0.049471885
vt 0.848345339 0.0585933924
vt 0.857466817 0.0585933924
vt 0.857466817 0.049471885
vt 0.857466817 0.0312289
vt 0.857466817 0.0403504074
vt 0.866588354 0.0403504074
vt 0.866588354 0.0312289
vt 0.839223862 0.0312289
vt 0.839223862 0.0403504074
vt 0.848345339 0.0403504074
vt 0.848345339 0.0312289
vt 0.00199207664 0.981125534
vt 0.998007953 0.981125534
vt 0.998008013 0.918874443
vt 0.00199207664 0.918874443
vt 0.305272043 0.78814888
vt 0.429774135 0.78814888
vt 0.429774016 0.725897789
vt 0.305272102 0.725897789
vt 0.00199201703 0.981125534
vt 0.998007953 0.981125534
vt 0.998008013 0.918874443
vt 0.00199201703 0.918874443
vt 0.305272102 0.78814888
vt 0.429774016 0.78814888
vt 0.429774106 0.725897789
vt 0.305272162 0.725897789
vt 0.00199210644 0.912250936
vt 0.998007894 0.912250996
vt 0.998007894 0.787748933
vt 0.00199210644 0.787748933
vt 0.00199210644 0.912251055
vt 0.998007894 0.912250757
vt 0.998007894 0.787748933
vt 0.00199210644 0.787748992
vt 0.00199207664 0.981125534
vt 0.998008013 0.981125534
vt 0.998008013 0.918874443
vt 0.00199207664 0.918874562
vt 0.305272043 0.78814888
vt 0.429774106 0.78814888
vt 0.429774106 0.725897789
vt 0.305272043 0.725897908
vt 0.00199201703 0.981125534
vt 0.998008013 0.981125534
vt 0.998007953 0.918874443
vt 0.00199204683 0.918874443
vt 0.305272102 0.78814888
vt 0.429774135 0.78814888
vt 0.429774135 0.72589767
vt 0.305272102 0.725897789
vt 0.00199210644 0.912251055
vt 0.998007894 0.912250757
vt 0.998007953 0.787748933
vt 0.00199204683 0.787748992
vt 0.00199204683 0.912251055
vt 0.998007953 0.912250757
vt 0.998007953 0.787748933
vt 0.00199210644 0.787748992
vn -0 0 1
vn -0 0 1
vn -0 0 1
vn -0 0 1
vn -0 0 -1
vn -0 0 -1
vn -0 0 -1
vn -0 0 -1
vn 1 0 0
vn 1 0 0
vn 1 0 0
vn 1 0 0
vn -1 0 0
vn -1 0 0
vn -1 0 0
vn -1 0 0
vn -0 0 1
vn -0 0 1
vn -0 0 1
vn -0 0 1
vn 1 0 0
vn 1 0 0
vn 1 0 0
vn 1 0 0
vn -0 0 -1
vn -0 0 -1
vn -0 0 -1
vn -0 0 -1
vn -1 0 0
vn -1 0 0
vn -1 0 0
vn -1 0 0
vn -0 -1 0
vn -0 -1 0
vn -0 -1 0
vn -0 -1 0
vn -0 1 0
vn -0 1 0
vn -0 1 0
vn -0 1 0
vn -0 0 1
vn -0 0 1
vn -0 0 1
vn -0 0 1
vn 1 0 0
vn 1 0 0
vn 1 0 0
vn 1 0 0
vn -0 0 -1
vn -0 0 -1
vn -0 0 -1
vn -0 0 -1
vn -1 0 0
vn -1 0 0
vn -1 0 0
vn -1 0 0
vn -0 -1 0
vn -0 -1 0
vn -0 -1 0
vn -0 -1 0
vn -0 1 0
vn -0 1 0
vn -0 1 0
vn -0 1 0
g Wall_V_0
f 3/3/3 2/2/2 1/1/1
f 4/4/4 3/3/3 1/1/1
f 7/7/7 6/6/6 5/5/5
f 8/8/8 7/7/7 5/5/5
f 11/11/11 10/10/10 9/9/9
f 12/12/12 11/11/11 9/9/9
f 15/15/15 14/14/14 13/13/13
f 16/16/16 15/15/15 13/13/13
f 19/19/19 18/18/18 17/17/17
f 20/20/20 19/19/19 17/17/17
f 23/23/23 22/22/22 21/21/21
f 24/24/24 23/23/23 21/21/21
f 27/27/27 26/26/26 25/25/25
f 28/28/28 27/27/27 25/25/25
f 31/31/31 30/30/30 29/29/29
f 32/32/32 31/31/31 29/29/29
f 35/35/35 34/34/34 33/33/33
f 36/36/36 35/35/35 33/33/33
f 39/39/39 38/38/38 37/37/37
f 40/40/40 39/39/39 37/37/37
f 43/43/43 42/42/42 41/41/41
f 44/44/44 43/43/43 41/41/41
f 47/47/47 46/46/46 45/45/45
f 48/48/48 47/47/47 45/45/45
f 51/51/51 50/50/50 49/49/49
f 52/52/52 51/51/51 49/49/49
f 55/55/55 54/54/54 53/53/53
f 56/56/56 55/55/55 53/53/53
f 59/59/59 58/58/58 57/57/57
f 60/60/60 59/59/59 57/57/57
f 63/63/63 62/62/62 61/61/61
f 64/64/64 63/63/63 61/61/61
