g Simple_Corner_Slope
v -0.5 -0.500000596 -0.5
v 0.5 -0.500000596 -0.5
v 0.5 0.499999374 -0.5
v 0.5 -0.500000596 0.5
v 0.5 0.499999374 -0.5
v 0.5 -0.500000596 -0.5
v -0.5 -0.500000596 0.5
v -0.5 -0.500000596 -0.5
v 0.5 0.499999374 -0.5
v 0.5 -0.500000596 0.5
v -0.5 -0.500000596 0.5
v 0.5 0.499999374 -0.5
v -0.5 -0.500000596 -0.5
v -0.5 -0.500000596 0.5
v 0.5 -0.500000596 0.5
v 0.5 -0.500000596 -0.5
vt 0.825500309 0.073224999
vt 0.830139101 0.0732249767
vt 0.83013922 0.0685859323
vt 0.829804957 0.0732798427
vt 0.834443986 0.0779188722
vt 0.834443986 0.0732798204
vt 0.970425844 0.0791308805
vt 0.970425785 0.0877843276
vt 0.96177429 0.0877844915
vt 0.970425963 0.0877842158
vt 0.970425904 0.0791327208
vt 0.961774468 0.0877845362
vt 0.851988137 0.0192338228
vt 0.851988137 0.0249553993
vt 0.857709825 0.0249553993
vt 0.857709825 0.0192338228
vn -0 0 -1
vn -0 0 -1
vn -0 0 -1
vn 1 0 0
vn 1 0 0
vn 1 0 0
vn -0.707064152 0.707149386 0.000160190903
vn -0.707150459 0.707063079 0
vn -0.707021534 0.707192063 0.000239302361
vn -0 0.707064271 0.707149267
vn -0.000155412461 0.707147598 0.70706588
vn -0.000232028324 0.707188725 0.707024753
vn -0 -1 0
vn -0 -1 0
vn -0 -1 0
vn -0 -1 0
g Simple_Corner_Slope_0
f 3/3/3 2/2/2 1/1/1
f 6/6/6 5/5/5 4/4/4
f 9/9/9 8/8/8 7/7/7
f 12/12/12 11/11/11 10/10/10
f 15/15/15 14/14/14 13/13/13
f 16/16/16 15/15/15 13/13/13
