g WallCorner
v 0.125 -0.5 -0.5
v 0.125 0.5 -0.5
v -0.125 0.5 -0.5
v -0.125 -0.5 -0.5
v -0.5 -0.5 -0.125
v -0.5 0.5 -0.125
v -0.5 0.5 0.125
v -0.5 -0.5 0.125
v 0.125 -0.5 0.125
v -0.125 -0.5 -0.125
v -0.5 -0.5 -0.125
v -0.5 -0.5 0.125
v 0.125 -0.5 0.125
v -0.5 -0.5 0.125
v -0.5 0.5 0.125
v 0.125 0.5 0.125
v -0.125 0.5 -0.125
v 0.125 0.5 0.125
v -0.5 0.5 0.125
v -0.5 0.5 -0.125
v 0.125 -0.5 0.125
v 0.125 -0.5 -0.5
v -0.125 -0.5 -0.5
v -0.125 -0.5 -0.125
v -0.125 0.5 -0.5
v 0.125 0.5 -0.5
v 0.125 0.5 0.125
v -0.125 0.5 -0.125
v 0.125 -0.5 -0.5
v 0.125 -0.5 0.125
v 0.125 0.5 0.125
v 0.125 0.5 -0.5
v -0.5 0.5 -0.125
v -0.5 -0.5 -0.125
v -0.125 -0.5 -0.125
v -0.125 0.5 -0.125
v -0.125 0.5 -0.125
v -0.125 -0.5 -0.125
v -0.125 -0.5 -0.5
v -0.125 0.5 -0.5
vt -5.82262874E-06 0.555384755
vt 1.00000036 0.555384755
vt 1.00000036 0.307791114
vt -5.82262874E-06 0.307791084
vt 1.00000036 0.307791352
vt -5.82635403E-06 0.307791352
vt -5.82635403E-06 0.555384755
vt 1.00000036 0.555384755
vt 0.47074604 0.678717375
vt 0.68240571 0.467056662
vt 0.999896765 0.467056215
vt 0.999896526 0.678717315
vt 0.865536153 0.0405576825
vt 0.862740517 0.0405576825
vt 0.862740517 0.0450307727
vt 0.865536153 0.0450307727
vt 0.68240571 0.467056662
vt 0.47074604 0.678717375
vt 0.999896526 0.678717315
vt 0.999896765 0.467056215
vt 0.470657647 0.246964157
vt 0.999809623 0.246963963
vt 0.999809384 0.458623797
vt 0.682318628 0.458623797
vt 0.999809384 0.458623797
vt 0.999809623 0.246963963
vt 0.470657647 0.246964157
vt 0.682318628 0.458623797
vt 0.865536153 0.0405577421
vt 0.862740517 0.0405577421
vt 0.862740517 0.0450307727
vt 0.865536153 0.0450307727
vt 0.857198 0.0383487493
vt 0.857198 0.0427615643
vt 0.86161083 0.0427615643
vt 0.86161083 0.0383487493
vt 0.857198 0.0383487493
vt 0.857198 0.0427615643
vt 0.86161083 0.0427615643
vt 0.86161083 0.0383487493
vn -0 0 -1
vn -0 0 -1
vn -0 0 -1
vn -0 0 -1
vn -1 0 0
vn -1 0 0
vn -1 0 0
vn -1 0 0
vn -0 -1 0
vn -0 -1 0
vn -0 -1 0
vn -0 -1 0
vn -0 0 1
vn -0 0 1
vn -0 0 1
vn -0 0 1
vn -0 1 0
vn -0 1 0
vn -0 1 0
vn -0 1 0
vn -0 -1 0
vn -0 -1 0
vn -0 -1 0
vn -0 -1 0
vn -0 1 0
vn -0 1 0
vn -0 1 0
vn -0 1 0
vn 1 0 0
vn 1 0 0
vn 1 0 0
vn 1 0 0
vn -0 0 -1
vn -0 0 -1
vn -0 0 -1
vn -0 0 -1
vn -1 0 0
vn -1 0 0
vn -1 0 0
vn -1 0 0
g WallCorner_0
f 3/3/3 2/2/2 1/1/1
f 4/4/4 3/3/3 1/1/1
f 7/7/7 6/6/6 5/5/5
f 8/8/8 7/7/7 5/5/5
f 11/11/11 10/10/10 9/9/9
f 12/12/12 11/11/11 9/9/9
f 15/15/15 14/14/14 13/13/13
f 16/16/16 15/15/15 13/13/13
f 19/19/19 18/18/18 17/17/17
f 20/20/20 19/19/19 17/17/17
f 23/23/23 22/22/22 21/21/21
f 24/24/24 23/23/23 21/21/21
f 27/27/27 26/26/26 25/25/25
f 28/28/28 27/27/27 25/25/25
f 31/31/31 30/30/30 29/29/29
f 32/32/32 31/31/31 29/29/29
f 35/35/35 34/34/34 33/33/33
f 36/36/36 35/35/35 33/33/33
f 39/39/39 38/38/38 37/37/37
f 40/40/40 39/39/39 37/37/37
