g SimpleSlopePoint_Corner
v -0.5 0.124993 -0.124995
v -0.125 0.124994 -0.124996
v -0.5 0.499997 -0.5
v -0.125 0.124994 -0.124996
v -0.125 0.124995 -0.5
v -0.5 0.499997 -0.5
v -0.125 0.124995 -0.5
v 0.124995 0.12499 -0.5
v -0.5 0.499997 -0.5
v 0.5 0.499997 -0.5
v 0.125001 0.124996 0.124999
v 0.124995 0.12499 -0.5
v -0.125 0.124994 -0.124996
v -0.125 0.124995 -0.5
v -0.5 0.12499 0.124993
v -0.5 0.124993 -0.124995
v -0.5 0.499997 0.5
v -0.5 0.499997 -0.5
v -0.5 0.499997 -0.5
v 0.5 0.499997 -0.5
v -0.5 0.499997 0.5
v 0.5 0.499997 0.5
v 0.124995 0.12499 -0.5
v 0.125001 0.124996 0.124999
v 0.5 0.499997 -0.5
v 0.5 0.499997 0.5
v 0.5 0.499997 0.5
v 0.125001 0.124996 0.124999
v -0.5 0.499997 0.5
v -0.5 0.12499 0.124993
v -0.125 0.124994 -0.124996
v -0.5 0.12499 0.124993
v 0.125001 0.124996 0.124999
v -0.5 0.124993 -0.124995
vt 0.939518631 0.0513450317
vt 0.939001083 0.0513438731
vt 0.939523458 0.0518656597
vt 0.938999593 0.0513438247
vt 0.939520478 0.0513450503
vt 0.939524055 0.0518656112
vt 0.938669503 0.0516995862
vt 0.938425899 0.0517021976
vt 0.939037621 0.0512898602
vt 0.938030303 0.0512901284
vt 0.00199198723 0.978853583
vt 0.998007894 0.978849769
vt 0.40039134 0.825274825
vt 0.998007894 0.825274885
vt 0.938432753 0.0517033637
vt 0.938673735 0.0517006591
vt 0.938030899 0.0512904599
vt 0.939038396 0.0512901582
vt 0.841915011 0.0745797753
vt 0.833513439 0.0745797977
vt 0.841915011 0.0661782324
vt 0.833513439 0.0661782324
vt 0.936881959 0.0512077585
vt 0.937608302 0.0512077622
vt 0.936882019 0.0516352244
vt 0.93804425 0.0516352169
vt 0.938042462 0.0516352542
vt 0.937609553 0.0512077585
vt 0.936881363 0.0516351983
vt 0.936881483 0.0512077697
vt 0.599600017 0.825279355
vt 0.00199198723 0.978849828
vt 0.998007894 0.978853464
vt 0.00199201703 0.825280011
vn 6.90714e-06 -0.707107 -0.707107
vn -9.64989e-06 -0.707111 -0.707102
vn 7.93184e-06 -0.707106 -0.707107
vn -0.707095 -0.707119 -2.41001e-05
vn -0.707107 -0.707106 1.15875e-05
vn -0.707107 -0.707106 1.15746e-05
vn -4.63882e-07 0 -1
vn 0 0 -1
vn 0 0 -1
vn 0 0 -1
vn 1.21619e-06 -1 9.66489e-06
vn -5.86575e-06 -1 8.61242e-06
vn 1.62983e-06 -1 2.46587e-06
vn -3.64708e-05 -1 1.22408e-05
vn -1 1.04169e-06 0
vn -1 0 0
vn -1 1.06027e-07 0
vn -1 0 0
vn 0 1 0
vn -2.3696e-06 1 -2.38971e-06
vn -2.23546e-06 1 -2.22126e-06
vn 0 1 0
vn 0.707107 -0.707107 -2.27499e-05
vn 0.707119 -0.707094 -5.28727e-07
vn 0.70712 -0.707094 -7.79682e-06
vn 0.707128 -0.707086 -2.68114e-06
vn -1.59174e-06 -0.707087 0.707126
vn 5.97736e-07 -0.707095 0.707119
vn -7.35674e-06 -0.707094 0.707119
vn -2.5915e-05 -0.707106 0.707107
vn 1.62983e-06 -1 2.46587e-06
vn 8.61453e-06 -1 -5.93911e-06
vn 9.66513e-06 -1 1.22268e-06
vn 6.35943e-06 -1 -1.90233e-05
g SimpleSlopePoint_Corner_0
f 3/3/3 2/2/2 1/1/1
f 6/6/6 5/5/5 4/4/4
f 9/9/9 8/8/8 7/7/7
f 9/9/9 10/10/10 8/8/8
f 13/13/13 12/12/12 11/11/11
f 13/13/13 14/14/14 12/12/12
f 17/17/17 16/16/16 15/15/15
f 17/17/17 18/18/18 16/16/16
f 21/21/21 20/20/20 19/19/19
f 21/21/21 22/22/22 20/20/20
f 25/25/25 24/24/24 23/23/23
f 25/25/25 26/26/26 24/24/24
f 29/29/29 28/28/28 27/27/27
f 29/29/29 30/30/30 28/28/28
f 33/33/33 32/32/32 31/31/31
f 32/32/32 34/34/34 31/31/31
