g Collumn_Solo
v 0.5 -0.289671034 0.324507445
v 0.5 0.289671034 0.324018538
v 0.5 0.289671034 -0.324018538
v 0.5 -0.289671034 -0.323529661
v 0.324507743 -0.289671034 -0.5
v 0.324018538 0.289671034 -0.5
v -0.324996799 0.289671034 -0.5
v -0.324507743 -0.289671034 -0.5
v -0.5 -0.289671034 -0.324507445
v -0.5 0.289671034 -0.324018538
v -0.5 0.289671034 0.324018538
v -0.5 -0.289671034 0.323529661
v -0.325485975 -0.289671034 0.5
v -0.324996799 0.289671034 0.5
v 0.324018538 0.289671034 0.5
v 0.323529363 -0.289671034 0.5
v -0.5 0.5 0.5
v -0.325485975 0.5 0.323529661
v -0.324996799 0.5 0.5
v 0.323529363 0.5 0.323529661
v 0.324018538 0.5 0.5
v 0.5 0.5 0.5
v -0.5 -0.5 -0.5
v -0.325485975 -0.5 -0.323529661
v -0.324507743 -0.5 -0.5
v 0.323529363 -0.5 -0.323529661
v 0.324507743 -0.5 -0.5
v 0.5 -0.5 -0.5
v 0.5 -0.5 -0.323529661
v 0.5 -0.5 -0.5
v 0.323529363 -0.5 -0.323529661
v 0.5 -0.5 0.324507445
v 0.323529363 -0.5 0.323529661
v 0.5 -0.5 0.5
v 0.5 0.5 0.324018538
v 0.5 0.5 0.5
v 0.323529363 0.5 0.323529661
v 0.5 0.5 -0.324018538
v 0.323529363 0.5 -0.323529661
v 0.5 0.5 -0.5
v 0.323529363 -0.5 0.5
v 0.5 -0.5 0.5
v 0.323529363 -0.5 0.323529661
v -0.325485975 -0.5 0.5
v -0.325485975 -0.5 0.323529661
v -0.5 -0.5 0.5
v -0.5 -0.5 0.323529661
v -0.5 -0.5 0.5
v -0.325485975 -0.5 0.323529661
v -0.5 -0.5 -0.324507445
v -0.325485975 -0.5 -0.323529661
v -0.5 -0.5 -0.5
v 0.323529363 -0.5 0.323529661
v 0.323529363 -0.5 -0.323529661
v -0.325485975 -0.5 -0.323529661
v -0.325485975 -0.5 0.323529661
v 0.324018538 0.5 -0.5
v 0.5 0.5 -0.5
v 0.323529363 0.5 -0.323529661
v -0.324996799 0.5 -0.5
v -0.325485975 0.5 -0.323529661
v -0.5 0.5 -0.5
v -0.5 0.5 -0.324018538
v -0.5 0.5 -0.5
v -0.325485975 0.5 -0.323529661
v -0.5 0.5 0.324018538
v -0.325485975 0.5 0.323529661
v -0.5 0.5 0.5
v 0.323529363 0.5 -0.323529661
v 0.323529363 0.5 0.323529661
v -0.325485975 0.5 0.323529661
v -0.325485975 0.5 -0.323529661
v 0.5 -0.5 0.324507445
v 0.5 -0.289671034 0.324507445
v 0.5 -0.289671034 -0.323529661
v 0.5 -0.5 -0.323529661
v 0.5 -0.289671034 -0.5
v 0.5 -0.5 -0.5
v 0.5 -0.5 -0.323529661
v 0.5 -0.289671034 -0.323529661
v 0.5 0.289671034 -0.5
v 0.5 0.289671034 -0.324018538
v 0.5 0.5 -0.324018538
v 0.5 0.5 -0.5
v 0.5 -0.5 -0.5
v 0.324507743 -0.289671034 -0.5
v 0.324507743 -0.5 -0.5
v 0.5 -0.289671034 -0.5
v 0.324018538 0.289671034 -0.5
v 0.5 0.289671034 -0.5
v 0.324018538 0.5 -0.5
v 0.5 0.5 -0.5
v 0.324507743 -0.5 -0.5
v 0.324507743 -0.289671034 -0.5
v -0.324507743 -0.289671034 -0.5
v -0.324507743 -0.5 -0.5
v -0.5 -0.289671034 -0.5
v -0.5 -0.5 -0.5
v -0.324507743 -0.5 -0.5
v -0.324507743 -0.289671034 -0.5
v -0.5 0.289671034 -0.5
v -0.324996799 0.289671034 -0.5
v -0.324996799 0.5 -0.5
v -0.5 0.5 -0.5
v -0.5 -0.5 -0.5
v -0.5 -0.289671034 -0.324507445
v -0.5 -0.5 -0.324507445
v -0.5 -0.289671034 -0.5
v -0.5 0.289671034 -0.324018538
v -0.5 0.289671034 -0.5
v -0.5 0.5 -0.324018538
v -0.5 0.5 -0.5
v -0.5 -0.5 -0.324507445
v -0.5 -0.289671034 -0.324507445
v -0.5 -0.289671034 0.323529661
v -0.5 -0.5 0.323529661
v -0.5 -0.289671034 0.5
v -0.5 -0.5 0.5
v -0.5 -0.5 0.323529661
v -0.5 -0.289671034 0.323529661
v -0.5 0.289671034 0.5
v -0.5 0.289671034 0.324018538
v -0.5 0.5 0.324018538
v -0.5 0.5 0.5
v -0.5 -0.5 0.5
v -0.325485975 -0.289671034 0.5
v -0.325485975 -0.5 0.5
v -0.5 -0.289671034 0.5
v -0.324996799 0.289671034 0.5
v -0.5 0.289671034 0.5
v -0.324996799 0.5 0.5
v -0.5 0.5 0.5
v -0.325485975 -0.5 0.5
v -0.325485975 -0.289671034 0.5
v 0.323529363 -0.289671034 0.5
v 0.323529363 -0.5 0.5
v 0.5 -0.289671034 0.5
v 0.5 -0.5 0.5
v 0.323529363 -0.5 0.5
v 0.323529363 -0.289671034 0.5
v 0.5 0.289671034 0.5
v 0.324018538 0.289671034 0.5
v 0.324018538 0.5 0.5
v 0.5 0.5 0.5
v 0.5 -0.5 0.5
v 0.5 -0.289671034 0.324507445
v 0.5 -0.5 0.324507445
v 0.5 -0.289671034 0.5
v 0.5 0.289671034 0.324018538
v 0.5 0.289671034 0.5
v 0.5 0.5 0.324018538
v 0.5 0.5 0.5
v 0.5 0.5 -0.324018538
v 0.5 0.289671034 -0.324018538
v 0.5 0.289671034 0.324018538
v 0.5 0.5 0.324018538
v 0.324018538 0.5 0.5
v 0.324018538 0.289671034 0.5
v -0.324996799 0.289671034 0.5
v -0.324996799 0.5 0.5
v -0.5 0.5 0.324018538
v -0.5 0.289671034 0.324018538
v -0.5 0.289671034 -0.324018538
v -0.5 0.5 -0.324018538
v -0.324996799 0.5 -0.5
v -0.324996799 0.289671034 -0.5
v 0.324018538 0.289671034 -0.5
v 0.324018538 0.5 -0.5
vt 0.857702017 0.0419469476
vt 0.843080819 0.0419469476
vt 0.843080819 0.0482563376
vt 0.857702017 0.0482563376
vt 0.857702017 0.0419469476
vt 0.843080819 0.0419467874
vt 0.843080819 0.0482561775
vt 0.857702017 0.0482563376
vt 0.857702017 0.0419469476
vt 0.843081057 0.0419469401
vt 0.843081057 0.0482563339
vt 0.857702017 0.0482563376
vt 0.857702017 0.0419469476
vt 0.843080819 0.0419471376
vt 0.843080819 0.0482565276
vt 0.857702017 0.0482563376
vt 0.0157620311 0.993555367
vt 0.102836847 0.905504227
vt 0.102836847 0.993555367
vt 0.426667035 0.905504227
vt 0.426667035 0.993555367
vt 0.514718175 0.993555367
vt 0.451357007 0.891962409
vt 0.538431823 0.803911448
vt 0.538431823 0.891962409
vt 0.862262011 0.803911448
vt 0.862262011 0.891962409
vt 0.950313151 0.891962409
vt 0.905575156 0.994000971
vt 0.992825627 0.994000912
vt 0.905575216 0.9067505
vt 0.585656643 0.994000971
vt 0.585656643 0.906750441
vt 0.498406172 0.994000971
vt 0.585656643 0.994000971
vt 0.498406172 0.994000971
vt 0.585656643 0.906750441
vt 0.905575156 0.994000971
vt 0.905575216 0.9067505
vt 0.992825627 0.994000912
vt 0.426667035 0.993555367
vt 0.514718175 0.993555367
vt 0.426667035 0.905504227
vt 0.102836847 0.993555367
vt 0.102836847 0.905504227
vt 0.0157620311 0.993555367
vt 0.109351963 0.892407954
vt 0.0221013129 0.892407954
vt 0.109351903 0.806124866
vt 0.429270476 0.892407954
vt 0.429270476 0.806124866
vt 0.516520739 0.892408133
vt 0.709687054 0.491652369
vt 0.709687054 0.266619116
vt 0.935401976 0.266619116
vt 0.935401976 0.49165225
vt 0.862262011 0.891962171
vt 0.950313151 0.891962409
vt 0.862262011 0.803911448
vt 0.538431823 0.891962409
vt 0.538431823 0.803911448
vt 0.451357007 0.891962409
vt 0.429270476 0.892407954
vt 0.516520739 0.892408133
vt 0.429270476 0.806124866
vt 0.109351963 0.892407954
vt 0.109351903 0.806124866
vt 0.0221013129 0.892407954
vt 0.93472141 0.49165231
vt 0.93472141 0.266618907
vt 0.709006667 0.266618937
vt 0.709006667 0.49165231
vt 0.528895497 0.797273993
vt 0.528895497 0.70409137
vt 0.223849595 0.70409137
vt 0.223849624 0.797273934
vt 0.933892846 0.0495198481
vt 0.921245217 0.0495198481
vt 0.921251416 0.0592081882
vt 0.933897793 0.0592082553
vt 0.968729854 0.0495198593
vt 0.968731821 0.0592084117
vt 0.98137784 0.0592084937
vt 0.98137784 0.0495198481
vt 0.921245217 0.0592084937
vt 0.93389833 0.0495200306
vt 0.921252191 0.0495200045
vt 0.933892846 0.0592085719
vt 0.968732417 0.0495207198
vt 0.968730271 0.0592093244
vt 0.98137784 0.0495202057
vt 0.98137784 0.0592088476
vt 0.0677176863 0.704361677
vt 0.0677176863 0.797544301
vt 0.373223782 0.797544181
vt 0.373223782 0.704361677
vt 0.933892846 0.0495198481
vt 0.921245217 0.0495198481
vt 0.921251416 0.0592081882
vt 0.933897793 0.0592081882
vt 0.96873039 0.0495199151
vt 0.968732297 0.0592082553
vt 0.98137784 0.0592081882
vt 0.98137784 0.0495198481
vt 0.921245217 0.0592084937
vt 0.93389833 0.0495200306
vt 0.921252191 0.0495200045
vt 0.933892846 0.0592085719
vt 0.96873194 0.0495201647
vt 0.968729794 0.0592087694
vt 0.98137784 0.0495202057
vt 0.98137784 0.0592088476
vt 0.980731606 0.794810534
vt 0.980731547 0.701628029
vt 0.675686061 0.701628089
vt 0.675686061 0.794810653
vt 0.933892846 0.0495198481
vt 0.921245217 0.0495198481
vt 0.921251416 0.0592079908
vt 0.933897793 0.059208028
vt 0.968729794 0.0495198481
vt 0.968731701 0.0592081212
vt 0.98137784 0.0592081882
vt 0.98137784 0.0495198481
vt 0.921245217 0.0592084937
vt 0.93389833 0.0495200306
vt 0.921252191 0.0495200045
vt 0.933892846 0.0592085719
vt 0.968732119 0.04952031
vt 0.968729973 0.0592088997
vt 0.98137784 0.0495202057
vt 0.98137784 0.0592088476
vt 0.696133077 0.793823183
vt 0.696133077 0.7006405
vt 0.390626967 0.700640559
vt 0.390626907 0.793823123
vt 0.933892846 0.0495198481
vt 0.921245217 0.0495198481
vt 0.921251416 0.0592081882
vt 0.933897793 0.0592081882
vt 0.968729794 0.0495195314
vt 0.968731701 0.0592078716
vt 0.98137784 0.0592081882
vt 0.98137784 0.0495198481
vt 0.921245217 0.0592084937
vt 0.93389833 0.0495200306
vt 0.921252191 0.0495200045
vt 0.933892846 0.0592085719
vt 0.96873194 0.0495201647
vt 0.968729794 0.0592087694
vt 0.98137784 0.0495202057
vt 0.98137784 0.0592088476
vt 0.528895497 0.797273993
vt 0.528895497 0.70409137
vt 0.223849595 0.70409137
vt 0.223849624 0.797273934
vt 0.0677176863 0.704361677
vt 0.0677176863 0.797544301
vt 0.373223782 0.797544181
vt 0.373223782 0.704361677
vt 0.980731606 0.794810534
vt 0.980731547 0.701628029
vt 0.675686061 0.701628089
vt 0.675686061 0.794810653
vt 0.696133077 0.793823183
vt 0.696133077 0.7006405
vt 0.390626967 0.700640559
vt 0.390626907 0.793823123
vn 1 -1.12565694E-07 0
vn 1 -1.12617997E-07 0
vn 1 -1.12498903E-07 0
vn 1 -1.12551277E-07 0
vn -0 0 -1
vn -0 0 -1
vn -0 0 -1
vn -0 0 -1
vn -1 0 0
vn -1 0 0
vn -1 0 0
vn -1 0 0
vn -0 0 1
vn -0 0 1
vn -0 0 1
vn -0 0 1
vn -0 1 0
vn -0 1 0
vn -0 1 0
vn -0 1 0
vn -0 1 0
vn -0 1 0
vn -0 -1 0
vn -0 -1 0
vn -0 -1 0
vn -0 -1 0
vn -0 -1 0
vn -0 -1 0
vn -0 -1 0
vn -0 -1 0
vn -0 -1 0
vn -0 -1 0
vn -0 -1 0
vn -0 -1 0
vn -0 1 0
vn -0 1 0
vn -0 1 0
vn -0 1 0
vn -0 1 0
vn -0 1 0
vn -0 -1 0
vn -0 -1 0
vn -0 -1 0
vn -0 -1 0
vn -0 -1 0
vn -0 -1 0
vn -0 -1 0
vn -0 -1 0
vn -0 -1 0
vn -0 -1 0
vn -0 -1 0
vn -0 -1 0
vn -0 -1 0
vn -0 -1 0
vn -0 -1 0
vn -0 -1 0
vn -0 1 0
vn -0 1 0
vn -0 1 0
vn -0 1 0
vn -0 1 0
vn -0 1 0
vn -0 1 0
vn -0 1 0
vn -0 1 0
vn -0 1 0
vn -0 1 0
vn -0 1 0
vn -0 1 0
vn -0 1 0
vn -0 1 0
vn -0 1 0
vn 1 0 0
vn 1 -1.12565694E-07 0
vn 1 -1.12551277E-07 0
vn 1 0 0
vn 1 0 0
vn 1 0 0
vn 1 0 0
vn 1 -1.12551277E-07 0
vn 1 0 0
vn 1 -1.12498903E-07 0
vn 1 0 0
vn 1 0 0
vn -0 0 -1
vn -0 0 -1
vn -0 0 -1
vn -0 0 -1
vn -0 0 -1
vn -0 0 -1
vn -0 0 -1
vn -0 0 -1
vn -0 0 -1
vn -0 0 -1
vn -0 0 -1
vn -0 0 -1
vn -0 0 -1
vn -0 0 -1
vn -0 0 -1
vn -0 0 -1
vn -0 0 -1
vn -0 0 -1
vn -0 0 -1
vn -0 0 -1
vn -1 0 0
vn -1 0 0
vn -1 0 0
vn -1 0 0
vn -1 0 0
vn -1 0 0
vn -1 0 0
vn -1 0 0
vn -1 0 0
vn -1 0 0
vn -1 0 0
vn -1 0 0
vn -1 0 0
vn -1 0 0
vn -1 0 0
vn -1 0 0
vn -1 0 0
vn -1 0 0
vn -1 0 0
vn -1 0 0
vn -0 0 1
vn -0 0 1
vn -0 0 1
vn -0 0 1
vn -0 0 1
vn -0 0 1
vn -0 0 1
vn -0 0 1
vn -0 0 1
vn -0 0 1
vn -0 0 1
vn -0 0 1
vn -0 0 1
vn -0 0 1
vn -0 0 1
vn -0 0 1
vn -0 0 1
vn -0 0 1
vn -0 0 1
vn -0 0 1
vn 1 0 0
vn 1 -1.12565694E-07 0
vn 1 0 0
vn 1 0 0
vn 1 -1.12617997E-07 0
vn 1 0 0
vn 1 0 0
vn 1 0 0
vn 1 0 0
vn 1 -1.12498903E-07 0
vn 1 -1.12617997E-07 0
vn 1 0 0
vn -0 0 1
vn -0 0 1
vn -0 0 1
vn -0 0 1
vn -1 0 0
vn -1 0 0
vn -1 0 0
vn -1 0 0
vn -0 0 -1
vn -0 0 -1
vn -0 0 -1
vn -0 0 -1
g Collumn_Solo_0
f 3/3/3 2/2/2 1/1/1
f 4/4/4 3/3/3 1/1/1
f 7/7/7 6/6/6 5/5/5
f 8/8/8 7/7/7 5/5/5
f 11/11/11 10/10/10 9/9/9
f 12/12/12 11/11/11 9/9/9
f 15/15/15 14/14/14 13/13/13
f 16/16/16 15/15/15 13/13/13
f 19/19/19 18/18/18 17/17/17
f 18/18/18 19/19/19 20/20/20
f 19/19/19 21/21/21 20/20/20
f 20/20/20 21/21/21 22/22/22
f 25/25/25 24/24/24 23/23/23
f 24/24/24 25/25/25 26/26/26
f 25/25/25 27/27/27 26/26/26
f 26/26/26 27/27/27 28/28/28
f 31/31/31 30/30/30 29/29/29
f 31/31/31 29/29/29 32/32/32
f 33/33/33 31/31/31 32/32/32
f 33/33/33 32/32/32 34/34/34
f 37/37/37 36/36/36 35/35/35
f 37/37/37 35/35/35 38/38/38
f 39/39/39 37/37/37 38/38/38
f 39/39/39 38/38/38 40/40/40
f 43/43/43 42/42/42 41/41/41
f 43/43/43 41/41/41 44/44/44
f 45/45/45 43/43/43 44/44/44
f 45/45/45 44/44/44 46/46/46
f 49/49/49 48/48/48 47/47/47
f 49/49/49 47/47/47 50/50/50
f 51/51/51 49/49/49 50/50/50
f 51/51/51 50/50/50 52/52/52
f 55/55/55 54/54/54 53/53/53
f 56/56/56 55/55/55 53/53/53
f 59/59/59 58/58/58 57/57/57
f 59/59/59 57/57/57 60/60/60
f 61/61/61 59/59/59 60/60/60
f 61/61/61 60/60/60 62/62/62
f 65/65/65 64/64/64 63/63/63
f 65/65/65 63/63/63 66/66/66
f 67/67/67 65/65/65 66/66/66
f 67/67/67 66/66/66 68/68/68
f 71/71/71 70/70/70 69/69/69
f 72/72/72 71/71/71 69/69/69
f 75/75/75 74/74/74 73/73/73
f 76/76/76 75/75/75 73/73/73
f 79/79/79 78/78/78 77/77/77
f 80/80/80 79/79/79 77/77/77
f 80/80/80 77/77/77 81/81/81
f 82/82/82 80/80/80 81/81/81
f 82/82/82 81/81/81 83/83/83
f 81/81/81 84/84/84 83/83/83
f 87/87/87 86/86/86 85/85/85
f 86/86/86 88/88/88 85/85/85
f 86/86/86 89/89/89 88/88/88
f 89/89/89 90/90/90 88/88/88
f 89/89/89 91/91/91 90/90/90
f 91/91/91 92/92/92 90/90/90
f 95/95/95 94/94/94 93/93/93
f 96/96/96 95/95/95 93/93/93
f 99/99/99 98/98/98 97/97/97
f 100/100/100 99/99/99 97/97/97
f 100/100/100 97/97/97 101/101/101
f 102/102/102 100/100/100 101/101/101
f 102/102/102 101/101/101 103/103/103
f 101/101/101 104/104/104 103/103/103
f 107/107/107 106/106/106 105/105/105
f 106/106/106 108/108/108 105/105/105
f 106/106/106 109/109/109 108/108/108
f 109/109/109 110/110/110 108/108/108
f 109/109/109 111/111/111 110/110/110
f 111/111/111 112/112/112 110/110/110
f 115/115/115 114/114/114 113/113/113
f 116/116/116 115/115/115 113/113/113
f 119/119/119 118/118/118 117/117/117
f 120/120/120 119/119/119 117/117/117
f 120/120/120 117/117/117 121/121/121
f 122/122/122 120/120/120 121/121/121
f 122/122/122 121/121/121 123/123/123
f 121/121/121 124/124/124 123/123/123
f 127/127/127 126/126/126 125/125/125
f 126/126/126 128/128/128 125/125/125
f 126/126/126 129/129/129 128/128/128
f 129/129/129 130/130/130 128/128/128
f 129/129/129 131/131/131 130/130/130
f 131/131/131 132/132/132 130/130/130
f 135/135/135 134/134/134 133/133/133
f 136/136/136 135/135/135 133/133/133
f 139/139/139 138/138/138 137/137/137
f 140/140/140 139/139/139 137/137/137
f 140/140/140 137/137/137 141/141/141
f 142/142/142 140/140/140 141/141/141
f 142/142/142 141/141/141 143/143/143
f 141/141/141 144/144/144 143/143/143
f 147/147/147 146/146/146 145/145/145
f 146/146/146 148/148/148 145/145/145
f 146/146/146 149/149/149 148/148/148
f 149/149/149 150/150/150 148/148/148
f 149/149/149 151/151/151 150/150/150
f 151/151/151 152/152/152 150/150/150
f 155/155/155 154/154/154 153/153/153
f 156/156/156 155/155/155 153/153/153
f 159/159/159 158/158/158 157/157/157
f 160/160/160 159/159/159 157/157/157
f 163/163/163 162/162/162 161/161/161
f 164/164/164 163/163/163 161/161/161
f 167/167/167 166/166/166 165/165/165
f 168/168/168 167/167/167 165/165/165
