g Column_Middle
v 0.5 -0.5 0.5
v 0.5 0.5 0.5
v 0.5 0.5 0.323529661
v 0.5 -0.5 0.323529661
v 0.323529363 0.5 0.5
v 0.5 0.5 0.5
v 0.5 -0.5 0.5
v 0.323529363 -0.5 0.5
v 0.5 -0.5 -0.5
v 0.5 0.5 -0.5
v 0.323529363 0.5 -0.5
v 0.323529363 -0.5 -0.5
v 0.5 0.5 -0.323529661
v 0.5 0.5 -0.5
v 0.5 -0.5 -0.5
v 0.5 -0.5 -0.323529661
v -0.5 -0.5 -0.5
v -0.5 0.5 -0.5
v -0.5 0.5 -0.323529661
v -0.5 -0.5 -0.323529661
v -0.323529363 0.5 -0.5
v -0.5 0.5 -0.5
v -0.5 -0.5 -0.5
v -0.323529363 -0.5 -0.5
v -0.5 -0.5 0.5
v -0.5 0.5 0.5
v -0.325485975 0.5 0.5
v -0.325485975 -0.5 0.5
v -0.5 0.5 0.323529661
v -0.5 0.5 0.5
v -0.5 -0.5 0.5
v -0.5 -0.5 0.323529661
v 0.5 -0.5 0.325485826
v 0.5 0.5 0.325485826
v 0.5 0.5 -0.323529661
v 0.5 -0.5 -0.323529661
v 0.325485826 -0.5 -0.5
v 0.325485826 0.5 -0.5
v -0.323529363 0.5 -0.5
v -0.323529363 -0.5 -0.5
v -0.5 -0.5 -0.325485826
v -0.5 0.5 -0.325485826
v -0.5 0.5 0.323529661
v -0.5 -0.5 0.323529661
v -0.325485975 -0.5 0.5
v -0.325485975 0.5 0.5
v 0.323529363 0.5 0.5
v 0.323529363 -0.5 0.5
v -0.5 0.5 0.5
v -0.325485975 0.5 0.323529661
v -0.325485975 0.5 0.5
v 0.323529363 0.5 0.323529661
v 0.323529363 0.5 0.5
v 0.5 0.5 0.5
v -0.5 -0.5 -0.5
v -0.325485975 -0.5 -0.323529661
v -0.325485975 -0.5 -0.5
v 0.323529363 -0.5 -0.323529661
v 0.323529363 -0.5 -0.5
v 0.5 -0.5 -0.5
v 0.5 -0.5 -0.323529661
v 0.5 -0.5 -0.5
v 0.323529363 -0.5 -0.323529661
v 0.5 -0.5 0.323529661
v 0.323529363 -0.5 0.323529661
v 0.5 -0.5 0.5
v 0.5 0.5 0.323529661
v 0.5 0.5 0.5
v 0.323529363 0.5 0.323529661
v 0.5 0.5 -0.323529661
v 0.323529363 0.5 -0.323529661
v 0.5 0.5 -0.5
v 0.323529363 -0.5 0.5
v 0.5 -0.5 0.5
v 0.323529363 -0.5 0.323529661
v -0.325485975 -0.5 0.5
v -0.325485975 -0.5 0.323529661
v -0.5 -0.5 0.5
v -0.5 -0.5 0.323529661
v -0.5 -0.5 0.5
v -0.325485975 -0.5 0.323529661
v -0.5 -0.5 -0.323529661
v -0.325485975 -0.5 -0.323529661
v -0.5 -0.5 -0.5
v 0.323529363 -0.5 0.323529661
v 0.323529363 -0.5 -0.323529661
v -0.325485975 -0.5 -0.323529661
v -0.325485975 -0.5 0.323529661
v 0.323529363 0.5 -0.5
v 0.5 0.5 -0.5
v 0.323529363 0.5 -0.323529661
v -0.325485975 0.5 -0.5
v -0.325485975 0.5 -0.323529661
v -0.5 0.5 -0.5
v -0.5 0.5 -0.323529661
v -0.5 0.5 -0.5
v -0.325485975 0.5 -0.323529661
v -0.5 0.5 0.323529661
v -0.325485975 0.5 0.323529661
v -0.5 0.5 0.5
v 0.323529363 0.5 -0.323529661
v 0.323529363 0.5 0.323529661
v -0.325485975 0.5 0.323529661
v -0.325485975 0.5 -0.323529661
vt 0.921245217 0.0592084937
vt 0.98137784 0.0592088476
vt 0.98137784 0.0495202057
vt 0.921252191 0.0495200045
vt 0.98137784 0.0592081882
vt 0.98137784 0.0495198481
vt 0.921245217 0.0495198481
vt 0.921251416 0.0592081882
vt 0.921245217 0.0592084937
vt 0.98137784 0.0592088476
vt 0.98137784 0.0495202057
vt 0.921252191 0.0495200045
vt 0.98137784 0.0592084937
vt 0.98137784 0.0495198481
vt 0.921245217 0.0495198481
vt 0.921251416 0.0592081882
vt 0.921245217 0.0592084937
vt 0.98137784 0.0592088476
vt 0.98137784 0.0495202057
vt 0.921252191 0.0495200045
vt 0.98137784 0.0592081882
vt 0.98137784 0.0495198481
vt 0.921245217 0.0495198481
vt 0.921251416 0.0592081882
vt 0.921245217 0.0592084937
vt 0.98137784 0.0592088476
vt 0.98137784 0.0495202057
vt 0.921252191 0.0495200045
vt 0.98137784 0.0592081882
vt 0.98137784 0.0495198481
vt 0.921245217 0.0495198481
vt 0.921251416 0.0592079908
vt 0.863010287 0.0419469476
vt 0.837772608 0.0419469476
vt 0.837772608 0.0482563376
vt 0.863010287 0.0482563376
vt 0.863010287 0.0419469476
vt 0.837772608 0.0419469476
vt 0.837772608 0.0482563376
vt 0.863010287 0.0482563376
vt 0.863010287 0.0419469476
vt 0.837772608 0.0419469476
vt 0.837772608 0.0482563376
vt 0.863010287 0.0482563376
vt 0.863010287 0.0419469476
vt 0.837772608 0.0419469476
vt 0.837772608 0.0482563376
vt 0.863010287 0.0482563376
vt 0.0157620311 0.993555367
vt 0.102836847 0.905504227
vt 0.102836847 0.993555367
vt 0.426667035 0.905504227
vt 0.426667035 0.993555367
vt 0.514718175 0.993555367
vt 0.451357007 0.891962409
vt 0.538431823 0.803911448
vt 0.538431823 0.891962409
vt 0.862262011 0.803911448
vt 0.862262011 0.891962409
vt 0.950313151 0.891962409
vt 0.905575156 0.994000971
vt 0.992825627 0.994000912
vt 0.905575216 0.9067505
vt 0.585656643 0.994000971
vt 0.585656643 0.906750441
vt 0.498406172 0.994000971
vt 0.585656643 0.994000971
vt 0.498406172 0.994000971
vt 0.585656643 0.906750441
vt 0.905575156 0.994000971
vt 0.905575216 0.9067505
vt 0.992825627 0.994000912
vt 0.426667035 0.993555367
vt 0.514718175 0.993555367
vt 0.426667035 0.905504227
vt 0.102836847 0.993555367
vt 0.102836847 0.905504227
vt 0.0157620311 0.993555367
vt 0.109351963 0.892407954
vt 0.0221013129 0.892407954
vt 0.109351903 0.806124866
vt 0.429270476 0.892407954
vt 0.429270476 0.806124866
vt 0.516520739 0.892408133
vt 0.709687054 0.491652369
vt 0.709687054 0.266619116
vt 0.935401976 0.266619116
vt 0.935401976 0.49165225
vt 0.862262011 0.891962171
vt 0.950313151 0.891962409
vt 0.862262011 0.803911448
vt 0.538431823 0.891962409
vt 0.538431823 0.803911448
vt 0.451357007 0.891962409
vt 0.429270476 0.892407954
vt 0.516520739 0.892408133
vt 0.429270476 0.806124866
vt 0.109351963 0.892407954
vt 0.109351903 0.806124866
vt 0.0221013129 0.892407954
vt 0.93472141 0.49165231
vt 0.93472141 0.266618907
vt 0.709006667 0.266618937
vt 0.709006667 0.49165231
vn 1 0 0
vn 1 0 0
vn 1 0 0
vn 1 0 0
vn -0 0 1
vn -0 0 1
vn -0 0 1
vn -0 0 1
vn -0 0 -1
vn -0 0 -1
vn -0 0 -1
vn -0 0 -1
vn 1 0 0
vn 1 0 0
vn 1 0 0
vn 1 0 0
vn -1 0 0
vn -1 0 0
vn -1 0 0
vn -1 0 0
vn -0 0 -1
vn -0 0 -1
vn -0 0 -1
vn -0 0 -1
vn -0 0 1
vn -0 0 1
vn -0 0 1
vn -0 0 1
vn -1 0 0
vn -1 0 0
vn -1 0 0
vn -1 0 0
vn 1 0 0
vn 1 0 0
vn 1 0 0
vn 1 0 0
vn -0 0 -1
vn -0 0 -1
vn -0 0 -1
vn -0 0 -1
vn -1 0 0
vn -1 0 0
vn -1 0 0
vn -1 0 0
vn -0 0 1
vn -0 0 1
vn -0 0 1
vn -0 0 1
vn -0 1 0
vn -0 1 0
vn -0 1 0
vn -0 1 0
vn -0 1 0
vn -0 1 0
vn -0 -1 0
vn -0 -1 0
vn -0 -1 0
vn -0 -1 0
vn -0 -1 0
vn -0 -1 0
vn -0 -1 0
vn -0 -1 0
vn -0 -1 0
vn -0 -1 0
vn -0 -1 0
vn -0 -1 0
vn -0 1 0
vn -0 1 0
vn -0 1 0
vn -0 1 0
vn -0 1 0
vn -0 1 0
vn -0 -1 0
vn -0 -1 0
vn -0 -1 0
vn -0 -1 0
vn -0 -1 0
vn -0 -1 0
vn -0 -1 0
vn -0 -1 0
vn -0 -1 0
vn -0 -1 0
vn -0 -1 0
vn -0 -1 0
vn -0 -1 0
vn -0 -1 0
vn -0 -1 0
vn -0 -1 0
vn -0 1 0
vn -0 1 0
vn -0 1 0
vn -0 1 0
vn -0 1 0
vn -0 1 0
vn -0 1 0
vn -0 1 0
vn -0 1 0
vn -0 1 0
vn -0 1 0
vn -0 1 0
vn -0 1 0
vn -0 1 0
vn -0 1 0
vn -0 1 0
g Column_Middle_0
f 3/3/3 2/2/2 1/1/1
f 4/4/4 3/3/3 1/1/1
f 7/7/7 6/6/6 5/5/5
f 8/8/8 7/7/7 5/5/5
f 11/11/11 10/10/10 9/9/9
f 12/12/12 11/11/11 9/9/9
f 15/15/15 14/14/14 13/13/13
f 16/16/16 15/15/15 13/13/13
f 19/19/19 18/18/18 17/17/17
f 20/20/20 19/19/19 17/17/17
f 23/23/23 22/22/22 21/21/21
f 24/24/24 23/23/23 21/21/21
f 27/27/27 26/26/26 25/25/25
f 28/28/28 27/27/27 25/25/25
f 31/31/31 30/30/30 29/29/29
f 32/32/32 31/31/31 29/29/29
f 35/35/35 34/34/34 33/33/33
f 36/36/36 35/35/35 33/33/33
f 39/39/39 38/38/38 37/37/37
f 40/40/40 39/39/39 37/37/37
f 43/43/43 42/42/42 41/41/41
f 44/44/44 43/43/43 41/41/41
f 47/47/47 46/46/46 45/45/45
f 48/48/48 47/47/47 45/45/45
f 51/51/51 50/50/50 49/49/49
f 50/50/50 51/51/51 52/52/52
f 51/51/51 53/53/53 52/52/52
f 52/52/52 53/53/53 54/54/54
f 57/57/57 56/56/56 55/55/55
f 56/56/56 57/57/57 58/58/58
f 57/57/57 59/59/59 58/58/58
f 58/58/58 59/59/59 60/60/60
f 63/63/63 62/62/62 61/61/61
f 63/63/63 61/61/61 64/64/64
f 65/65/65 63/63/63 64/64/64
f 65/65/65 64/64/64 66/66/66
f 69/69/69 68/68/68 67/67/67
f 69/69/69 67/67/67 70/70/70
f 71/71/71 69/69/69 70/70/70
f 71/71/71 70/70/70 72/72/72
f 75/75/75 74/74/74 73/73/73
f 75/75/75 73/73/73 76/76/76
f 77/77/77 75/75/75 76/76/76
f 77/77/77 76/76/76 78/78/78
f 81/81/81 80/80/80 79/79/79
f 81/81/81 79/79/79 82/82/82
f 83/83/83 81/81/81 82/82/82
f 83/83/83 82/82/82 84/84/84
f 87/87/87 86/86/86 85/85/85
f 88/88/88 87/87/87 85/85/85
f 91/91/91 90/90/90 89/89/89
f 91/91/91 89/89/89 92/92/92
f 93/93/93 91/91/91 92/92/92
f 93/93/93 92/92/92 94/94/94
f 97/97/97 96/96/96 95/95/95
f 97/97/97 95/95/95 98/98/98
f 99/99/99 97/97/97 98/98/98
f 99/99/99 98/98/98 100/100/100
f 103/103/103 102/102/102 101/101/101
f 104/104/104 103/103/103 101/101/101
