g CL_FloatStairs
v 0.395903319 0.42622146 -0.5
v 0.5 0.42622146 -0.5
v 0.5 0.550258279 -0.5
v 0.395903319 0.550258279 -0.5
v 0.395903319 -0.573077738 0.5
v 0.395903319 -0.449905008 0.5
v 0.5 -0.449905008 0.5
v 0.5 -0.573077738 0.5
v 0.5 0.42622146 -0.5
v 0.5 -0.573077738 0.5
v 0.5 -0.449905008 0.5
v 0.5 0.550258279 -0.5
v 0.5 0.42622146 -0.5
v 0.395903319 0.42622146 -0.5
v 0.395903319 -0.573077738 0.5
v 0.5 -0.573077738 0.5
v 0.395903319 -0.449905008 0.5
v 0.395903319 0.550258279 -0.5
v 0.5 0.550258279 -0.5
v 0.5 -0.449905008 0.5
v -0.395903319 0.42622146 -0.5
v -0.395903319 0.550258279 -0.5
v -0.5 0.550258279 -0.5
v -0.5 0.42622146 -0.5
v -0.5 -0.573077738 0.5
v -0.5 -0.449905008 0.5
v -0.395903319 -0.449905008 0.5
v -0.395903319 -0.573077738 0.5
v -0.5 0.42622146 -0.5
v -0.5 0.550258279 -0.5
v -0.5 -0.449905008 0.5
v -0.5 -0.573077738 0.5
v -0.395903319 -0.573077738 0.5
v -0.395903319 0.42622146 -0.5
v -0.5 0.42622146 -0.5
v -0.5 -0.573077738 0.5
v -0.395903319 -0.449905008 0.5
v -0.5 -0.449905008 0.5
v -0.5 0.550258279 -0.5
v -0.395903319 0.550258279 -0.5
v 0.395903319 -0.573077738 0.5
v 0.395903319 0.42622146 -0.5
v 0.395903319 0.550258279 -0.5
v 0.395903319 -0.449905008 0.5
v -0.395903319 -0.573077738 0.5
v -0.395903319 -0.449905008 0.5
v -0.395903319 0.550258279 -0.5
v -0.395903319 0.42622146 -0.5
v 0.395903319 -0.398400754 0.1498999
v 0.395903319 -0.305340141 0.1498999
v -0.395903319 -0.305340141 0.1498999
v -0.395903319 -0.398400754 0.1498999
v 0.395903319 0.251504272 -0.5
v 0.395903319 0.344564885 -0.5
v -0.395903319 0.344564885 -0.5
v -0.395903319 0.251504272 -0.5
v 0.395903319 -0.0744899511 -0.175052479
v 0.395903319 0.0206540488 -0.175052479
v -0.395903319 0.0206540488 -0.175052479
v -0.395903319 -0.0744899511 -0.175052479
v 0.395903319 -0.398400754 0.5
v -0.395903319 -0.398400754 0.5
v -0.395903319 -0.305340141 0.5
v 0.395903319 -0.305340141 0.5
v 0.395903319 -0.398400754 0.5
v 0.395903319 -0.305340141 0.5
v 0.395903319 -0.305340141 0.1498999
v 0.395903319 -0.398400754 0.1498999
v 0.395903319 -0.305340141 0.5
v -0.395903319 -0.305340141 0.5
v -0.395903319 -0.305340141 0.1498999
v 0.395903319 -0.305340141 0.1498999
v -0.395903319 -0.305340141 0.5
v -0.395903319 -0.398400754 0.5
v -0.395903319 -0.398400754 0.1498999
v -0.395903319 -0.305340141 0.1498999
v -0.395903319 -0.398400754 0.5
v 0.395903319 -0.398400754 0.5
v 0.395903319 -0.398400754 0.1498999
v -0.395903319 -0.398400754 0.1498999
v 0.395903319 0.251504272 -0.149904788
v -0.395903319 0.251504272 -0.149904788
v -0.395903319 0.344564885 -0.149904788
v 0.395903319 0.344564885 -0.149904788
v 0.395903319 0.251504272 -0.149904788
v 0.395903319 0.344564885 -0.149904788
v 0.395903319 0.344564885 -0.5
v 0.395903319 0.251504272 -0.5
v 0.395903319 0.344564885 -0.149904788
v -0.395903319 0.344564885 -0.149904788
v -0.395903319 0.344564885 -0.5
v 0.395903319 0.344564885 -0.5
v -0.395903319 0.344564885 -0.149904788
v -0.395903319 0.251504272 -0.149904788
v -0.395903319 0.251504272 -0.5
v -0.395903319 0.344564885 -0.5
v -0.395903319 0.251504272 -0.149904788
v 0.395903319 0.251504272 -0.149904788
v 0.395903319 0.251504272 -0.5
v -0.395903319 0.251504272 -0.5
v 0.395903319 -0.0744899511 0.175047606
v -0.395903319 -0.0744899511 0.175047606
v -0.395903319 0.0206540488 0.175047606
v 0.395903319 0.0206540488 0.175047606
v 0.395903319 -0.0744899511 0.175047606
v 0.395903319 0.0206540488 0.175047606
v 0.395903319 0.0206540488 -0.175052479
v 0.395903319 -0.0744899511 -0.175052479
v 0.395903319 0.0206540488 0.175047606
v -0.395903319 0.0206540488 0.175047606
v -0.395903319 0.0206540488 -0.175052479
v 0.395903319 0.0206540488 -0.175052479
v -0.395903319 0.0206540488 0.175047606
v -0.395903319 -0.0744899511 0.175047606
v -0.395903319 -0.0744899511 -0.175052479
v -0.395903319 0.0206540488 -0.175052479
v -0.395903319 -0.0744899511 0.175047606
v 0.395903319 -0.0744899511 0.175047606
v 0.395903319 -0.0744899511 -0.175052479
v -0.395903319 -0.0744899511 -0.175052479
vt 0.937915206 0.948769987
vt 0.937915206 0.843891501
vt 0.812946916 0.843891501
vt 0.812946916 0.948769987
vt 0.937715888 0.843692243
vt 0.813146234 0.843692243
vt 0.813146234 0.948969305
vt 0.937715888 0.948969305
vt 0.946816206 0.802539885
vt 0.0139249861 0.802142143
vt 0.042817384 0.860736191
vt 0.971978664 0.861286044
vt 0.998328686 0.802142501
vt 0.998328686 0.744886279
vt 0.0139213204 0.744885981
vt 0.0139213204 0.802142143
vt 0.886065602 0.74488616
vt 0.0123501718 0.744886339
vt 0.0123501718 0.802142739
vt 0.88606596 0.80214262
vt 0.937915325 0.843891561
vt 0.812946796 0.843891561
vt 0.812946796 0.948769867
vt 0.937915325 0.948769867
vt 0.937716007 0.843692243
vt 0.813146234 0.843692243
vt 0.813146234 0.948969305
vt 0.937716007 0.948969305
vt 0.042817384 0.86073637
vt 0.0176549554 0.801990271
vt 0.946816206 0.802539945
vt 0.975708723 0.861134052
vt 0.0139249861 0.802142143
vt 0.998328686 0.802142501
vt 0.998328328 0.744886279
vt 0.0139249861 0.744885981
vt 0.886065602 0.80214262
vt 0.886064768 0.74488616
vt 0.0123502314 0.744886339
vt 0.0123502314 0.802142739
vt 0.975708723 0.861134052
vt 0.042817384 0.860736191
vt 0.017654866 0.801990092
vt 0.946816206 0.802539945
vt 0.0139249861 0.802142203
vt 0.042817384 0.860736191
vt 0.971978664 0.861286044
vt 0.946816325 0.802539885
vt 0.00594222546 0.493094921
vt 0.00594222499 0.608829558
vt 0.99066782 0.608829558
vt 0.99066782 0.493094742
vt 0.00594204664 0.493095011
vt 0.00594204664 0.608829439
vt 0.990667939 0.608829439
vt 0.990667939 0.493094862
vt 0.00709846616 0.49193871
vt 0.00709846616 0.609985769
vt 0.989511609 0.60998565
vt 0.989511549 0.491938531
vt 0.990667939 0.493094951
vt 0.00594210625 0.49309504
vt 0.00594213605 0.608829439
vt 0.990668058 0.608829439
vt 0.947512805 0.507495224
vt 0.947512805 0.352512717
vt 0.364458263 0.352512777
vt 0.364458233 0.507495284
vt 0.16570057 0.663401067
vt 0.987986267 0.663401067
vt 0.987986207 0.299824655
vt 0.165700555 0.299824655
vt 0.947512805 0.507495284
vt 0.947512746 0.352512717
vt 0.364458263 0.352512717
vt 0.364458293 0.507495224
vt 0.165700614 0.663401067
vt 0.987986088 0.663401067
vt 0.987986267 0.299824655
vt 0.165700555 0.299824655
vt 0.990668058 0.49309507
vt 0.00594204664 0.4930951
vt 0.00594210625 0.608829319
vt 0.990668178 0.6088292
vt 0.785564065 0.623468876
vt 0.785564065 0.46848467
vt 0.202511191 0.46848467
vt 0.202511311 0.623468935
vt 0.159266531 0.659111083
vt 0.981555581 0.659111083
vt 0.981555402 0.295538127
vt 0.159266472 0.295538127
vt 0.785564005 0.623468935
vt 0.785564005 0.46848467
vt 0.202511311 0.4684847
vt 0.202511251 0.623468995
vt 0.159266591 0.659111083
vt 0.981555462 0.659111083
vt 0.981555402 0.295538127
vt 0.159266472 0.295538127
vt 0.989511371 0.491938412
vt 0.00709861517 0.491938472
vt 0.00709867477 0.609986007
vt 0.989511371 0.609985828
vt 0.994954109 0.331507027
vt 0.994954109 0.401574016
vt 0.994954109 0.401574016
vt 0.994954109 0.331507027
vt 0.0220448971 0.57763648
vt 0.84433043 0.5776366
vt 0.84433043 0.214060009
vt 0.0220448375 0.214060009
vt 0.834397912 0.57290411
vt 0.834397912 0.41519326
vt 0.254071772 0.41519329
vt 0.254071772 0.57290411
vt 0.0220448971 0.5776366
vt 0.84433043 0.57763648
vt 0.84433049 0.214060009
vt 0.0220448375 0.214060009
vn -0 0 -1
vn -0 0 -1
vn -0 0 -1
vn -0 0 -1
vn -0 0 1
vn -0 0 1
vn -0 0 1
vn -0 0 1
vn 1 0 0
vn 1 0 0
vn 1 0 0
vn 1 0 0
vn -0 -0.707354605 -0.706858933
vn -0 -0.707354605 -0.706858933
vn -0 -0.707354605 -0.706858933
vn -0 -0.707354605 -0.706858933
vn -0 0.707049072 0.707164466
vn -0 0.707049072 0.707164466
vn -0 0.707049072 0.707164466
vn -0 0.707049072 0.707164466
vn -0 0 -1
vn -0 0 -1
vn -0 0 -1
vn -0 0 -1
vn -0 0 1
vn -0 0 1
vn -0 0 1
vn -0 0 1
vn -1 0 0
vn -1 0 0
vn -1 0 0
vn -1 0 0
vn -0 -0.707354605 -0.706858933
vn -0 -0.707354605 -0.706858933
vn -0 -0.707354605 -0.706858933
vn -0 -0.707354605 -0.706858933
vn -0 0.707049072 0.707164466
vn -0 0.707049072 0.707164466
vn -0 0.707049072 0.707164466
vn -0 0.707049072 0.707164466
vn -1 0 0
vn -1 0 0
vn -1 0 0
vn -1 0 0
vn 1 0 0
vn 1 0 0
vn 1 0 0
vn 1 0 0
vn -0 0 -1
vn -0 0 -1
vn -0 0 -1
vn -0 0 -1
vn -0 0 -1
vn -0 0 -1
vn -0 0 -1
vn -0 0 -1
vn -0 0 -1
vn -0 0 -1
vn -0 0 -1
vn -0 0 -1
vn -0 0 1
vn -0 0 1
vn -0 0 1
vn -0 0 1
vn 1 0 0
vn 1 0 0
vn 1 0 0
vn 1 0 0
vn -0 1 0
vn -0 1 0
vn -0 1 0
vn -0 1 0
vn -1 0 0
vn -1 0 0
vn -1 0 0
vn -1 0 0
vn -0 -1 0
vn -0 -1 0
vn -0 -1 0
vn -0 -1 0
vn -0 0 1
vn -0 0 1
vn -0 0 1
vn -0 0 1
vn 1 0 0
vn 1 0 0
vn 1 0 0
vn 1 0 0
vn -0 1 0
vn -0 1 0
vn -0 1 0
vn -0 1 0
vn -1 0 0
vn -1 0 0
vn -1 0 0
vn -1 0 0
vn -0 -1 0
vn -0 -1 0
vn -0 -1 0
vn -0 -1 0
vn -0 0 1
vn -0 0 1
vn -0 0 1
vn -0 0 1
vn 1 0 0
vn 1 0 0
vn 1 0 0
vn 1 0 0
vn -0 1 0
vn -0 1 0
vn -0 1 0
vn -0 1 0
vn -1 0 0
vn -1 0 0
vn -1 0 0
vn -1 0 0
vn -0 -1 0
vn -0 -1 0
vn -0 -1 0
vn -0 -1 0
g CL_FloatStairs_0
f 3/3/3 2/2/2 1/1/1
f 4/4/4 3/3/3 1/1/1
f 7/7/7 6/6/6 5/5/5
f 8/8/8 7/7/7 5/5/5
f 11/11/11 10/10/10 9/9/9
f 12/12/12 11/11/11 9/9/9
f 15/15/15 14/14/14 13/13/13
f 16/16/16 15/15/15 13/13/13
f 19/19/19 18/18/18 17/17/17
f 20/20/20 19/19/19 17/17/17
f 23/23/23 22/22/22 21/21/21
f 24/24/24 23/23/23 21/21/21
f 27/27/27 26/26/26 25/25/25
f 28/28/28 27/27/27 25/25/25
f 31/31/31 30/30/30 29/29/29
f 32/32/32 31/31/31 29/29/29
f 35/35/35 34/34/34 33/33/33
f 36/36/36 35/35/35 33/33/33
f 39/39/39 38/38/38 37/37/37
f 40/40/40 39/39/39 37/37/37
f 43/43/43 42/42/42 41/41/41
f 44/44/44 43/43/43 41/41/41
f 47/47/47 46/46/46 45/45/45
f 48/48/48 47/47/47 45/45/45
f 51/51/51 50/50/50 49/49/49
f 52/52/52 51/51/51 49/49/49
f 55/55/55 54/54/54 53/53/53
f 56/56/56 55/55/55 53/53/53
f 59/59/59 58/58/58 57/57/57
f 60/60/60 59/59/59 57/57/57
f 63/63/63 62/62/62 61/61/61
f 64/64/64 63/63/63 61/61/61
f 67/67/67 66/66/66 65/65/65
f 68/68/68 67/67/67 65/65/65
f 71/71/71 70/70/70 69/69/69
f 72/72/72 71/71/71 69/69/69
f 75/75/75 74/74/74 73/73/73
f 76/76/76 75/75/75 73/73/73
f 79/79/79 78/78/78 77/77/77
f 80/80/80 79/79/79 77/77/77
f 83/83/83 82/82/82 81/81/81
f 84/84/84 83/83/83 81/81/81
f 87/87/87 86/86/86 85/85/85
f 88/88/88 87/87/87 85/85/85
f 91/91/91 90/90/90 89/89/89
f 92/92/92 91/91/91 89/89/89
f 95/95/95 94/94/94 93/93/93
f 96/96/96 95/95/95 93/93/93
f 99/99/99 98/98/98 97/97/97
f 100/100/100 99/99/99 97/97/97
f 103/103/103 102/102/102 101/101/101
f 104/104/104 103/103/103 101/101/101
f 107/107/107 106/106/106 105/105/105
f 108/108/108 107/107/107 105/105/105
f 111/111/111 110/110/110 109/109/109
f 112/112/112 111/111/111 109/109/109
f 115/115/115 114/114/114 113/113/113
f 116/116/116 115/115/115 113/113/113
f 119/119/119 118/118/118 117/117/117
f 120/120/120 119/119/119 117/117/117
