g FullWallCube
v -0.5 0.5 0.34375
v -0.5 0.5 0.5
v -0.5 -0.5 0.5
v -0.5 -0.5 0.34375
v 0.5 0.5 0.34375
v 0.5 0.5 0.5
v 0.34375 0.5 0.5
v 0.34375 0.5 0.34375
v 0.5 0.5 -0.34375
v -0.34375003 0.50000006 0.34375
v -0.34375 0.5 0.5
v 0.34375 0.5 -0.34375
v -0.5 0.5 0.34375
v -0.5 0.5 0.5
v -0.5 0.5 -0.34375
v -0.34375 0.5 -0.34375
v -0.5 0.5 -0.5
v -0.34375 0.5 -0.5
v 0.34375 0.5 -0.5
v 0.5 0.5 -0.5
v 0.5 -0.5 0.34375
v 0.5 -0.5 0.5
v 0.5 0.5 0.5
v 0.5 0.5 0.34375
v 0.34375 -0.5 0.5
v 0.5 -0.5 0.5
v 0.5 -0.5 0.34375
v 0.34375 -0.5 0.34375
v -0.34375 -0.5 0.5
v 0.34375 -0.5 -0.34375
v 0.5 -0.5 -0.34375
v 0.5 -0.5 -0.5
v 0.34375 -0.5 -0.5
v -0.34374994 -0.5 0.34375
v -0.34375 -0.5 -0.34375
v -0.34375 -0.5 -0.5
v -0.5 -0.5 -0.34375
v -0.5 -0.5 -0.5
v -0.5 -0.5 0.34375
v -0.5 -0.5 0.5
v 0.34375 0.5 0.5
v 0.5 0.5 0.5
v 0.5 -0.5 0.5
v 0.34375 -0.5 0.5
v 0.5 -0.5 -0.5
v 0.5 0.5 -0.5
v 0.34375 0.5 -0.5
v 0.34375 -0.5 -0.5
v 0.5 -0.5 -0.34375
v 0.5 -0.5 0.34375
v 0.5 0.5 0.34375
v 0.5 0.5 -0.34375
v -0.5 0.5 -0.34375
v -0.5 0.5 0.34375
v -0.5 -0.5 0.34375
v -0.5 -0.5 -0.34375
v -0.34375 0.5 0.5
v 0.34375 0.5 0.5
v 0.34375 -0.5 0.5
v -0.34375 -0.5 0.5
v 0.34375 0.5 -0.5
v -0.34375 0.5 -0.5
v -0.34375 -0.5 -0.5
v 0.34375 -0.5 -0.5
v 0.5 0.5 -0.5
v 0.5 -0.5 -0.5
v 0.5 -0.5 -0.34375
v 0.5 0.5 -0.34375
v -0.5 -0.5 -0.5
v -0.5 0.5 -0.5
v -0.5 0.5 -0.34375
v -0.5 -0.5 -0.34375
v -0.5 -0.5 0.5
v -0.5 0.5 0.5
v -0.34375 0.5 0.5
v -0.34375 -0.5 0.5
v -0.34375 0.5 -0.5
v -0.5 0.5 -0.5
v -0.5 -0.5 -0.5
v -0.34375 -0.5 -0.5
vt 0.877056241 0.0779938102
vt 0.877056181 0.0697379708
vt 0.824218333 0.069737941
vt 0.824218333 0.07799384
vt 0.982702076 0.0659446716
vt 0.98315841 0.0659446716
vt 0.98315841 0.065488331
vt 0.982702017 0.0654883385
vt 0.980694115 0.0659446716
vt 0.982702136 0.0634804517
vt 0.98315841 0.0634804666
vt 0.980694294 0.0654883385
vt 0.982702076 0.063024126
vt 0.98315841 0.063024126
vt 0.980694234 0.063024126
vt 0.980694234 0.0634804592
vt 0.980237842 0.063024126
vt 0.980237901 0.0634804592
vt 0.980237842 0.065488331
vt 0.980237842 0.0659446716
vt 0.824218273 0.0610593259
vt 0.824218273 0.0693152845
vt 0.877056241 0.0693152547
vt 0.877056241 0.0610594153
vt 0.982658863 0.0664345846
vt 0.982658923 0.0659782514
vt 0.98220259 0.0659782439
vt 0.98220247 0.066434592
vt 0.982658923 0.0684424639
vt 0.980194747 0.066434592
vt 0.980194688 0.0659782514
vt 0.979738355 0.0659782514
vt 0.979738355 0.0664345846
vt 0.98220259 0.0684424639
vt 0.980194628 0.0684424564
vt 0.979738414 0.0684424639
vt 0.980194688 0.0688987896
vt 0.979738355 0.068898797
vt 0.98220253 0.068898797
vt 0.982658923 0.068898797
vt 0.877056181 0.0606480241
vt 0.877056181 0.0523920655
vt 0.824218273 0.0523921549
vt 0.824218333 0.0606479943
vt 0.882317364 0.0550680757
vt 0.82847625 0.0550680757
vt 0.82847625 0.0634807348
vt 0.882317364 0.0634807348
vt 0.963517368 0.0407092571
vt 0.964187384 0.0407092571
vt 0.964187384 0.0397347808
vt 0.963517368 0.0397347771
vt 0.961696267 0.0397236049
vt 0.962366283 0.0397236086
vt 0.962366283 0.0387492292
vt 0.961696267 0.0387492254
vt 0.961695969 0.0416948497
vt 0.96236676 0.0416949019
vt 0.96236676 0.0407204218
vt 0.961695969 0.0407203734
vt 0.96269238 0.0416948795
vt 0.963362277 0.0416948758
vt 0.963362277 0.0407203995
vt 0.96269238 0.0407204032
vt 0.882317364 0.0463314056
vt 0.82847625 0.0463314056
vt 0.82847625 0.0547440648
vt 0.882317364 0.0547440648
vt 0.824218333 0.0519807637
vt 0.877056241 0.0519807339
vt 0.877056181 0.0437248349
vt 0.824218333 0.0437248051
vt 0.824218392 0.0433134735
vt 0.877056181 0.0433134437
vt 0.877056181 0.0350574851
vt 0.824218333 0.0350575149
vt 0.824218333 0.0263902843
vt 0.824218333 0.0346461833
vt 0.877056241 0.0346462131
vt 0.877056241 0.0263902545
vn -1 0 0
vn -1 0 0
vn -1 0 0
vn -1 0 0
vn -0 1 0
vn -0 1 0
vn -0 1 2.25694464E-07
vn -0 1 0
vn -0 1 0
vn -0 1 0
vn -0 1 2.77777758E-07
vn -0 1 0
vn -1.22070304E-07 1 0
vn -0 1 0
vn -0 1 0
vn -0 1 0
vn -0 1 0
vn -0 1 0
vn -0 1 0
vn -0 1 0
vn 1 0 0
vn 1 0 0
vn 1 0 0
vn 1 0 0
vn -0 -1 2.31481479E-07
vn -0 -1 0
vn -0 -1 0
vn -0 -1 0
vn -0 -1 1.85185158E-07
vn -0 -1 0
vn -0 -1 0
vn -0 -1 0
vn -0 -1 0
vn -0 -1 0
vn -0 -1 0
vn -0 -1 0
vn -0 -1 0
vn -0 -1 0
vn -0 -1 0
vn -0 -1 0
vn -0 0 1
vn -0 0 1
vn -0 0 1
vn -0 0 1
vn -0 0 -1
vn -0 0 -1
vn -0 0 -1
vn -0 0 -1
vn 1 0 0
vn 1 0 0
vn 1 0 0
vn 1 0 0
vn -1 0 0
vn -1 0 0
vn -1 0 0
vn -1 0 0
vn -0 0 1
vn -0 0 1
vn -0 0 1
vn -0 0 1
vn -0 0 -1
vn -0 0 -1
vn -0 0 -1
vn -0 0 -1
vn 1 0 0
vn 1 0 0
vn 1 0 0
vn 1 0 0
vn -1 0 0
vn -1 0 0
vn -1 0 0
vn -1 0 0
vn -0 0 1
vn -0 0 1
vn -0 0 1
vn -0 0 1
vn -0 0 -1
vn -0 0 -1
vn -0 0 -1
vn -0 0 -1
g FullWallCube_0
f 3/3/3 2/2/2 1/1/1
f 4/4/4 3/3/3 1/1/1
f 7/7/7 6/6/6 5/5/5
f 8/8/8 7/7/7 5/5/5
f 8/8/8 5/5/5 9/9/9
f 8/8/8 10/10/10 7/7/7
f 10/10/10 11/11/11 7/7/7
f 12/12/12 8/8/8 9/9/9
f 10/10/10 8/8/8 12/12/12
f 10/10/10 13/13/13 11/11/11
f 13/13/13 14/14/14 11/11/11
f 15/15/15 13/13/13 10/10/10
f 16/16/16 15/15/15 10/10/10
f 16/16/16 10/10/10 12/12/12
f 15/15/15 16/16/16 17/17/17
f 16/16/16 18/18/18 17/17/17
f 16/16/16 12/12/12 18/18/18
f 12/12/12 19/19/19 18/18/18
f 12/12/12 9/9/9 19/19/19
f 9/9/9 20/20/20 19/19/19
f 23/23/23 22/22/22 21/21/21
f 24/24/24 23/23/23 21/21/21
f 27/27/27 26/26/26 25/25/25
f 28/28/28 27/27/27 25/25/25
f 28/28/28 25/25/25 29/29/29
f 27/27/27 28/28/28 30/30/30
f 31/31/31 27/27/27 30/30/30
f 31/31/31 30/30/30 32/32/32
f 30/30/30 33/33/33 32/32/32
f 34/34/34 28/28/28 29/29/29
f 30/30/30 28/28/28 34/34/34
f 30/30/30 35/35/35 33/33/33
f 35/35/35 30/30/30 34/34/34
f 35/35/35 36/36/36 33/33/33
f 35/35/35 37/37/37 36/36/36
f 35/35/35 34/34/34 37/37/37
f 37/37/37 38/38/38 36/36/36
f 34/34/34 39/39/39 37/37/37
f 34/34/34 29/29/29 39/39/39
f 29/29/29 40/40/40 39/39/39
f 43/43/43 42/42/42 41/41/41
f 44/44/44 43/43/43 41/41/41
f 47/47/47 46/46/46 45/45/45
f 48/48/48 47/47/47 45/45/45
f 51/51/51 50/50/50 49/49/49
f 52/52/52 51/51/51 49/49/49
f 55/55/55 54/54/54 53/53/53
f 56/56/56 55/55/55 53/53/53
f 59/59/59 58/58/58 57/57/57
f 60/60/60 59/59/59 57/57/57
f 63/63/63 62/62/62 61/61/61
f 64/64/64 63/63/63 61/61/61
f 67/67/67 66/66/66 65/65/65
f 68/68/68 67/67/67 65/65/65
f 71/71/71 70/70/70 69/69/69
f 72/72/72 71/71/71 69/69/69
f 75/75/75 74/74/74 73/73/73
f 76/76/76 75/75/75 73/73/73
f 79/79/79 78/78/78 77/77/77
f 80/80/80 79/79/79 77/77/77
