g T_Wall
v -0.125 -0.5 0.5
v -0.125 0.5 0.5
v 0.125 0.5 0.5
v 0.125 -0.5 0.5
v 0.125 -0.5 -0.5
v 0.125 0.5 -0.5
v -0.125 0.5 -0.5
v -0.125 -0.5 -0.5
v -0.5 -0.5 -0.125
v -0.5 0.5 -0.125
v -0.5 0.5 0.125
v -0.5 -0.5 0.125
v 0.125 -0.5 0.5
v 0.125 -0.5 -0.5
v -0.125 -0.5 -0.5
v -0.125 -0.5 -0.125
v -0.125 -0.5 0.125
v -0.125 -0.5 0.5
v -0.125 0.5 -0.125
v -0.125 0.5 -0.5
v 0.125 0.5 -0.5
v 0.125 0.5 0.5
v -0.125 0.5 0.125
v -0.125 0.5 0.5
v -0.125 -0.5 0.125
v -0.125 -0.5 -0.125
v -0.5 -0.5 -0.125
v -0.5 -0.5 0.125
v -0.125 0.5 -0.125
v -0.125 0.5 0.125
v -0.5 0.5 0.125
v -0.5 0.5 -0.125
v 0.125 0.5 0.5
v 0.125 0.5 -0.5
v 0.125 -0.5 -0.5
v 0.125 -0.5 0.5
v -0.125 0.5 0.5
v -0.125 -0.5 0.5
v -0.125 -0.5 0.125
v -0.125 0.5 0.125
v -0.5 0.5 -0.125
v -0.5 -0.5 -0.125
v -0.125 -0.5 -0.125
v -0.125 0.5 -0.125
v -0.125 0.5 0.125
v -0.125 -0.5 0.125
v -0.5 -0.5 0.125
v -0.5 0.5 0.125
v -0.125 0.5 -0.125
v -0.125 -0.5 -0.125
v -0.125 -0.5 -0.5
v -0.125 0.5 -0.5
vt 1.00000036 0.307791114
vt -5.82635403E-06 0.307791084
vt -5.82635403E-06 0.555384517
vt 1.00000036 0.555384517
vt 1.00000036 0.555385053
vt -5.82635403E-06 0.555385053
vt -5.82635403E-06 0.307791352
vt 1.00000036 0.307791352
vt 1.00000036 0.307791352
vt -5.82635403E-06 0.307791352
vt -5.82635403E-06 0.555384755
vt 1.00000036 0.555384755
vt 0.999996722 0.557658315
vt 5.82635403E-06 0.557658195
vt 5.82635403E-06 0.309588253
vt 0.376477301 0.309588283
vt 0.624547362 0.309588283
vt 0.999996722 0.309588253
vt 0.376477301 0.309588283
vt 5.82635403E-06 0.309588253
vt 5.82635403E-06 0.557658195
vt 0.999996722 0.557658315
vt 0.624547362 0.309588283
vt 0.999996722 0.309588253
vt 0.625755668 0.307761431
vt 0.625755668 0.554009438
vt 0.999998093 0.554009438
vt 0.999998093 0.307761431
vt 0.625755668 0.554009438
vt 0.625755668 0.307761431
vt 0.999998093 0.307761431
vt 0.999998093 0.554009438
vt 0.855885565 0.0450077653
vt 0.860325694 0.0450077653
vt 0.860325694 0.0405676365
vt 0.855885565 0.0405676365
vt 0.857198 0.0383487493
vt 0.857198 0.0427615643
vt 0.86161083 0.0427615643
vt 0.86161083 0.0383487493
vt 0.857198 0.0383487493
vt 0.857198 0.0427615643
vt 0.86161083 0.0427615643
vt 0.86161083 0.0383487493
vt 0.857198 0.0383487493
vt 0.857198 0.0427615643
vt 0.86161083 0.0427615643
vt 0.86161083 0.0383487493
vt 0.857198 0.0383487493
vt 0.857198 0.0427615643
vt 0.86161083 0.0427615643
vt 0.86161083 0.0383487493
vn -0 0 1
vn -0 0 1
vn -0 0 1
vn -0 0 1
vn -0 0 -1
vn -0 0 -1
vn -0 0 -1
vn -0 0 -1
vn -1 0 0
vn -1 0 0
vn -1 0 0
vn -1 0 0
vn -0 -1 0
vn -0 -1 0
vn -0 -1 0
vn -0 -1 0
vn -0 -1 0
vn -0 -1 0
vn -0 1 0
vn -0 1 0
vn -0 1 0
vn -0 1 0
vn -0 1 0
vn -0 1 0
vn -0 -1 0
vn -0 -1 0
vn -0 -1 0
vn -0 -1 0
vn -0 1 0
vn -0 1 0
vn -0 1 0
vn -0 1 0
vn 1 0 0
vn 1 0 0
vn 1 0 0
vn 1 0 0
vn -1 0 0
vn -1 0 0
vn -1 0 0
vn -1 0 0
vn -0 0 -1
vn -0 0 -1
vn -0 0 -1
vn -0 0 -1
vn -0 0 1
vn -0 0 1
vn -0 0 1
vn -0 0 1
vn -1 0 0
vn -1 0 0
vn -1 0 0
vn -1 0 0
g T_Wall_0
f 3/3/3 2/2/2 1/1/1
f 4/4/4 3/3/3 1/1/1
f 7/7/7 6/6/6 5/5/5
f 8/8/8 7/7/7 5/5/5
f 11/11/11 10/10/10 9/9/9
f 12/12/12 11/11/11 9/9/9
f 15/15/15 14/14/14 13/13/13
f 13/13/13 16/16/16 15/15/15
f 13/13/13 17/17/17 16/16/16
f 13/13/13 18/18/18 17/17/17
f 21/21/21 20/20/20 19/19/19
f 19/19/19 22/22/22 21/21/21
f 19/19/19 23/23/23 22/22/22
f 23/23/23 24/24/24 22/22/22
f 27/27/27 26/26/26 25/25/25
f 28/28/28 27/27/27 25/25/25
f 31/31/31 30/30/30 29/29/29
f 32/32/32 31/31/31 29/29/29
f 35/35/35 34/34/34 33/33/33
f 36/36/36 35/35/35 33/33/33
f 39/39/39 38/38/38 37/37/37
f 40/40/40 39/39/39 37/37/37
f 43/43/43 42/42/42 41/41/41
f 44/44/44 43/43/43 41/41/41
f 47/47/47 46/46/46 45/45/45
f 48/48/48 47/47/47 45/45/45
f 51/51/51 50/50/50 49/49/49
f 52/52/52 51/51/51 49/49/49
