g EmptyFramedWindow
v -0.0313558951 0.46418938 0.46418944
v -0.0313558951 -0.464190811 0.46418944
v -0.0313558951 -0.464190811 -0.464187622
v -0.0313558951 0.46418938 -0.464187622
v 0.0313558951 -0.464190811 0.46418944
v 0.0313558951 0.46418938 0.46418944
v 0.0313558951 0.46418938 -0.464187622
v 0.0313558951 -0.464190811 -0.464187622
v -0.129083559 0.5 0.5
v -0.129083559 0.5 -0.5
v 0.129083559 0.5 -0.5
v 0.129083559 0.5 0.5
v 0.129083559 0.5 0.5
v 0.129083559 0.5 -0.5
v 0.129083559 0.43750152 -0.43749845
v 0.129083559 0.4375 0.437500298
v -0.129083559 0.4375 0.4375
v -0.129083559 0.43750152 -0.43749845
v -0.129083559 0.5 -0.5
v -0.129083559 0.5 0.5
v -0.129083559 -0.5 0.5
v -0.129083559 0.5 0.5
v 0.129083559 0.5 0.5
v 0.129083559 -0.5 0.5
v 0.129083559 -0.5 0.5
v 0.129083559 0.5 0.5
v 0.129083559 0.4375 0.437500298
v 0.129083559 -0.437501967 0.43749845
v -0.129083559 -0.437501818 0.43749845
v -0.129083559 0.4375 0.4375
v -0.129083559 0.5 0.5
v -0.129083559 -0.5 0.5
v -0.129083559 -0.5 -0.5
v -0.129083559 -0.5 0.5
v 0.129083559 -0.5 0.5
v 0.129083559 -0.5 -0.5
v 0.129083559 -0.5 -0.5
v 0.129083559 -0.5 0.5
v 0.129083559 -0.437501967 0.43749845
v 0.129083559 -0.437500298 -0.4375
v -0.129083559 -0.4375 -0.4375
v -0.129083559 -0.437501818 0.43749845
v -0.129083559 -0.5 0.5
v -0.129083559 -0.5 -0.5
v -0.129083559 0.5 -0.5
v -0.129083559 -0.5 -0.5
v 0.129083559 -0.5 -0.5
v 0.129083559 0.5 -0.5
v 0.129083559 0.5 -0.5
v 0.129083559 -0.5 -0.5
v 0.129083559 -0.437500298 -0.4375
v 0.129083559 0.43750152 -0.43749845
v -0.129083559 0.43750152 -0.43749845
v -0.129083559 -0.4375 -0.4375
v -0.129083559 -0.5 -0.5
v -0.129083559 0.5 -0.5
v -0.129083559 0.4375 0.4375
v 0.129083559 0.4375 0.437500298
v 0.129083559 0.43750152 -0.43749845
v -0.129083559 0.43750152 -0.43749845
v -0.129083559 -0.437501818 0.43749845
v 0.129083559 -0.437501967 0.43749845
v 0.129083559 0.4375 0.437500298
v -0.129083559 0.4375 0.4375
v -0.129083559 -0.4375 -0.4375
v 0.129083559 -0.437500298 -0.4375
v 0.129083559 -0.437501967 0.43749845
v -0.129083559 -0.437501818 0.43749845
v -0.129083559 0.43750152 -0.43749845
v 0.129083559 0.43750152 -0.43749845
v 0.129083559 -0.437500298 -0.4375
v -0.129083559 -0.4375 -0.4375
vt 0.0127436519 0.341709703
vt 0.0127436519 0.630607367
vt 0.301640362 0.630607367
vt 0.301640362 0.341709703
vt 0.0127436519 0.341709733
vt 0.0127436519 0.630607367
vt 0.301640362 0.630607367
vt 0.301640362 0.341709733
vt 0.204555005 0.462114364
vt 0.791499853 0.462116808
vt 0.79150039 0.5769099
vt 0.204556167 0.576905012
vt 0.0762514099 0.653496861
vt 0.919889271 0.653852463
vt 0.867207468 0.601110995
vt 0.12900883 0.600794673
vt 0.867158592 0.601101995
vt 0.128918886 0.600834012
vt 0.0761663243 0.65354532
vt 0.919870257 0.653853238
vt 0.204557985 0.462122351
vt 0.791499853 0.462121695
vt 0.791501939 0.576911986
vt 0.204558998 0.576911449
vt 0.0762496218 0.653496087
vt 0.919890821 0.653854012
vt 0.867208421 0.60111177
vt 0.129014254 0.600795209
vt 0.867160141 0.601101995
vt 0.128917843 0.600833774
vt 0.0761663243 0.65354532
vt 0.919870019 0.653852999
vt 0.204557061 0.462115675
vt 0.79150039 0.462116182
vt 0.79150039 0.576908886
vt 0.204557717 0.576906085
vt 0.0762041137 0.653517663
vt 0.919876397 0.653846025
vt 0.867180407 0.601102769
vt 0.128964901 0.60081321
vt 0.867158353 0.601102233
vt 0.128917843 0.600835323
vt 0.0761660859 0.653545201
vt 0.919870555 0.653852463
vt 0.204555541 0.462114751
vt 0.791499555 0.462117702
vt 0.791500866 0.576908112
vt 0.204556555 0.576903522
vt 0.0762509033 0.653498113
vt 0.919888556 0.653851688
vt 0.867197156 0.601106346
vt 0.129005253 0.600793898
vt 0.867159367 0.601100445
vt 0.128917068 0.600833237
vt 0.0761663243 0.65354532
vt 0.919870257 0.653853238
vt 0.00491687655 0.311311722
vt 0.0049161911 0.603832126
vt 0.996347666 0.603832185
vt 0.996347725 0.311311781
vt 0.00491591636 0.311312199
vt 0.00491592288 0.603831708
vt 0.996347964 0.603831708
vt 0.996348023 0.311312199
vt 0.0049161911 0.311311901
vt 0.00491631031 0.603832126
vt 0.996347606 0.603832126
vt 0.996347666 0.311311901
vt 0.00491574407 0.311312199
vt 0.00491574407 0.603831708
vt 0.996348143 0.603831768
vt 0.996347666 0.311312199
vn -1 0 0
vn -1 0 0
vn -1 0 0
vn -1 0 0
vn 1 0 0
vn 1 0 0
vn 1 0 0
vn 1 0 0
vn -0 1 0
vn -0 1 0
vn -0 1 0
vn -0 1 0
vn 1 0 0
vn 1 0 0
vn 1 0 0
vn 1 0 0
vn -1 0 0
vn -1 0 0
vn -1 0 0
vn -1 0 0
vn -0 0 1
vn -0 0 1
vn -0 0 1
vn -0 0 1
vn 1 0 0
vn 1 0 0
vn 1 0 0
vn 1 0 0
vn -1 0 0
vn -1 0 0
vn -1 0 0
vn -1 0 0
vn -0 -1 0
vn -0 -1 0
vn -0 -1 0
vn -0 -1 0
vn 1 0 0
vn 1 0 0
vn 1 0 0
vn 1 0 0
vn -1 0 0
vn -1 0 0
vn -1 0 0
vn -1 0 0
vn -0 0 -1
vn -0 0 -1
vn -0 0 -1
vn -0 0 -1
vn 1 0 0
vn 1 0 0
vn 1 0 0
vn 1 0 0
vn -1 0 0
vn -1 0 0
vn -1 0 0
vn -1 0 0
vn -0 -1 -1.78326434E-06
vn -0 -1 -1.78326434E-06
vn -0 -1 -1.78326434E-06
vn -0 -1 -1.78326434E-06
vn -5.25181861E-07 1.91824415E-06 -1
vn -5.25181918E-07 1.91824415E-06 -1
vn -5.25181861E-07 1.91824415E-06 -1
vn -5.25181861E-07 1.91824415E-06 -1
vn 8.86564351E-07 1 1.99941724E-06
vn 8.86564351E-07 1 1.99941724E-06
vn 8.86564351E-07 1 1.99941724E-06
vn 8.86564351E-07 1 1.99941724E-06
vn -0 -1.74385741E-06 1
vn -0 -1.74385741E-06 1
vn -0 -1.7438573E-06 1
vn -0 -1.74385752E-06 1
g EmptyFramedWindow_0
f 3/3/3 2/2/2 1/1/1
f 4/4/4 3/3/3 1/1/1
f 7/7/7 6/6/6 5/5/5
f 8/8/8 7/7/7 5/5/5
g EmptyFramedWindow_1
f 11/11/11 10/10/10 9/9/9
f 12/12/12 11/11/11 9/9/9
f 15/15/15 14/14/14 13/13/13
f 16/16/16 15/15/15 13/13/13
f 19/19/19 18/18/18 17/17/17
f 20/20/20 19/19/19 17/17/17
f 23/23/23 22/22/22 21/21/21
f 24/24/24 23/23/23 21/21/21
f 27/27/27 26/26/26 25/25/25
f 28/28/28 27/27/27 25/25/25
f 31/31/31 30/30/30 29/29/29
f 32/32/32 31/31/31 29/29/29
f 35/35/35 34/34/34 33/33/33
f 36/36/36 35/35/35 33/33/33
f 39/39/39 38/38/38 37/37/37
f 40/40/40 39/39/39 37/37/37
f 43/43/43 42/42/42 41/41/41
f 44/44/44 43/43/43 41/41/41
f 47/47/47 46/46/46 45/45/45
f 48/48/48 47/47/47 45/45/45
f 51/51/51 50/50/50 49/49/49
f 52/52/52 51/51/51 49/49/49
f 55/55/55 54/54/54 53/53/53
f 56/56/56 55/55/55 53/53/53
f 59/59/59 58/58/58 57/57/57
f 60/60/60 59/59/59 57/57/57
f 63/63/63 62/62/62 61/61/61
f 64/64/64 63/63/63 61/61/61
f 67/67/67 66/66/66 65/65/65
f 68/68/68 67/67/67 65/65/65
f 71/71/71 70/70/70 69/69/69
f 72/72/72 71/71/71 69/69/69
