g CL_Cube
v -0.5 -0.5 0.5
v -0.5 0.5 0.5
v 0.5 0.5 0.5
v 0.5 -0.5 0.5
v -0.5 0.5 0.5
v -0.5 0.5 -0.5
v 0.5 0.5 -0.5
v 0.5 0.5 0.5
v -0.5 0.5 -0.5
v -0.5 -0.5 -0.5
v 0.5 -0.5 -0.5
v 0.5 0.5 -0.5
v -0.5 -0.5 -0.5
v -0.5 -0.5 0.5
v 0.5 -0.5 0.5
v 0.5 -0.5 -0.5
v 0.5 -0.5 0.5
v 0.5 0.5 0.5
v 0.5 0.5 -0.5
v 0.5 -0.5 -0.5
v -0.5 -0.5 -0.5
v -0.5 0.5 -0.5
v -0.5 0.5 0.5
v -0.5 -0.5 0.5
vt 0.833665609 0.0267708246
vt 0.833665609 0.0413085818
vt 0.848203301 0.0413085818
vt 0.848203301 0.0267708246
vt 0.942316055 0.0335661247
vt 0.942316055 0.0413473882
vt 0.950097382 0.0413473882
vt 0.950097382 0.0335661247
vt 0.860835373 0.0414757133
vt 0.860835373 0.0560134053
vt 0.875373065 0.0560134053
vt 0.875373065 0.0414757133
vt 0.940985262 0.0414368585
vt 0.940985262 0.0492181033
vt 0.948766589 0.0492181033
vt 0.948766589 0.0414368585
vt 0.833665609 0.0561805964
vt 0.833665609 0.0707182884
vt 0.848203361 0.0707182884
vt 0.848203361 0.0561805964
vt 0.848526955 0.0561805964
vt 0.848526955 0.0707182884
vt 0.863064766 0.0707182884
vt 0.863064766 0.0561805964
vn -0 0 1
vn -0 0 1
vn -0 0 1
vn -0 0 1
vn -0 1 0
vn -0 1 0
vn -0 1 0
vn -0 1 0
vn -0 0 -1
vn -0 0 -1
vn -0 0 -1
vn -0 0 -1
vn -0 -1 0
vn -0 -1 0
vn -0 -1 0
vn -0 -1 0
vn 1 0 0
vn 1 0 0
vn 1 0 0
vn 1 0 0
vn -1 0 0
vn -1 0 0
vn -1 0 0
vn -1 0 0
g CL_Cube_0
f 3/3/3 2/2/2 1/1/1
f 4/4/4 3/3/3 1/1/1
f 7/7/7 6/6/6 5/5/5
f 8/8/8 7/7/7 5/5/5
f 11/11/11 10/10/10 9/9/9
f 12/12/12 11/11/11 9/9/9
f 15/15/15 14/14/14 13/13/13
f 16/16/16 15/15/15 13/13/13
f 19/19/19 18/18/18 17/17/17
f 20/20/20 19/19/19 17/17/17
f 23/23/23 22/22/22 21/21/21
f 24/24/24 23/23/23 21/21/21
