g Collumn_Bottom
v 0.5 -0.289671034 0.5
v 0.5 0.5 0.5
v 0.5 0.5 0.324507445
v 0.5 -0.289671034 0.324507445
v 0.5 -0.5 0.5
v 0.5 -0.5 0.324507445
v 0.323529661 0.5 0.5
v 0.5 0.5 0.5
v 0.5 -0.289671034 0.5
v 0.323529661 -0.289671034 0.5
v 0.323529661 -0.5 0.5
v 0.5 -0.5 0.5
v 0.5 -0.289671034 -0.5
v 0.5 0.5 -0.5
v 0.324507445 0.5 -0.5
v 0.324507445 -0.289671034 -0.5
v 0.5 -0.5 -0.5
v 0.324507445 -0.5 -0.5
v 0.5 0.5 -0.323529661
v 0.5 0.5 -0.5
v 0.5 -0.289671034 -0.5
v 0.5 -0.289671034 -0.323529661
v 0.5 -0.5 -0.323529661
v 0.5 -0.5 -0.5
v -0.5 -0.289671034 -0.5
v -0.5 0.5 -0.5
v -0.5 0.5 -0.324507445
v -0.5 -0.289671034 -0.324507445
v -0.5 -0.5 -0.5
v -0.5 -0.5 -0.324507445
v -0.324508041 0.5 -0.5
v -0.5 0.5 -0.5
v -0.5 -0.289671034 -0.5
v -0.324508041 -0.289671034 -0.5
v -0.324508041 -0.5 -0.5
v -0.5 -0.5 -0.5
v -0.5 -0.289671034 0.5
v -0.5 0.5 0.5
v -0.325485826 0.5 0.5
v -0.325485826 -0.289671034 0.5
v -0.5 -0.5 0.5
v -0.325485826 -0.5 0.5
v -0.5 0.5 0.323529661
v -0.5 0.5 0.5
v -0.5 -0.289671034 0.5
v -0.5 -0.289671034 0.323529661
v -0.5 -0.5 0.323529661
v -0.5 -0.5 0.5
v 0.5 -0.289671034 0.324507445
v 0.5 0.5 0.324507445
v 0.5 0.5 -0.323529661
v 0.5 -0.289671034 -0.323529661
v 0.324507445 -0.289671034 -0.5
v 0.324507445 0.5 -0.5
v -0.324508041 0.5 -0.5
v -0.324508041 -0.289671034 -0.5
v -0.5 -0.289671034 -0.324507445
v -0.5 0.5 -0.324507445
v -0.5 0.5 0.323529661
v -0.5 -0.289671034 0.323529661
v -0.325485826 -0.289671034 0.5
v -0.325485826 0.5 0.5
v 0.323529661 0.5 0.5
v 0.323529661 -0.289671034 0.5
v -0.5 0.5 0.5
v -0.325485826 0.5 0.323529661
v -0.325485826 0.5 0.5
v 0.323529661 0.5 0.323529661
v 0.323529661 0.5 0.5
v 0.5 0.5 0.5
v -0.5 -0.5 -0.5
v -0.325485826 -0.5 -0.323529661
v -0.324508041 -0.5 -0.5
v 0.323529661 -0.5 -0.323529661
v 0.324507445 -0.5 -0.5
v 0.5 -0.5 -0.5
v 0.5 -0.5 -0.323529661
v 0.5 -0.5 -0.5
v 0.323529661 -0.5 -0.323529661
v 0.5 -0.5 0.324507445
v 0.323529661 -0.5 0.323529661
v 0.5 -0.5 0.5
v 0.5 0.5 0.324507445
v 0.5 0.5 0.5
v 0.323529661 0.5 0.323529661
v 0.5 0.5 -0.323529661
v 0.323529661 0.5 -0.323529661
v 0.5 0.5 -0.5
v 0.323529661 -0.5 0.5
v 0.5 -0.5 0.5
v 0.323529661 -0.5 0.323529661
v -0.325485826 -0.5 0.5
v -0.325485826 -0.5 0.323529661
v -0.5 -0.5 0.5
v -0.5 -0.5 0.323529661
v -0.5 -0.5 0.5
v -0.325485826 -0.5 0.323529661
v -0.5 -0.5 -0.324507445
v -0.325485826 -0.5 -0.323529661
v -0.5 -0.5 -0.5
v 0.323529661 -0.5 0.323529661
v 0.323529661 -0.5 -0.323529661
v -0.325485826 -0.5 -0.323529661
v -0.325485826 -0.5 0.323529661
v 0.324507445 0.5 -0.5
v 0.5 0.5 -0.5
v 0.323529661 0.5 -0.323529661
v -0.324508041 0.5 -0.5
v -0.325485826 0.5 -0.323529661
v -0.5 0.5 -0.5
v -0.5 0.5 -0.324507445
v -0.5 0.5 -0.5
v -0.325485826 0.5 -0.323529661
v -0.5 0.5 0.323529661
v -0.325485826 0.5 0.323529661
v -0.5 0.5 0.5
v 0.323529661 0.5 -0.323529661
v 0.323529661 0.5 0.323529661
v -0.325485826 0.5 0.323529661
v -0.325485826 0.5 -0.323529661
v 0.5 -0.5 0.324507445
v 0.5 -0.289671034 0.324507445
v 0.5 -0.289671034 -0.323529661
v 0.5 -0.5 -0.323529661
v 0.324507445 -0.5 -0.5
v 0.324507445 -0.289671034 -0.5
v -0.324508041 -0.289671034 -0.5
v -0.324508041 -0.5 -0.5
v -0.5 -0.5 -0.324507445
v -0.5 -0.289671034 -0.324507445
v -0.5 -0.289671034 0.323529661
v -0.5 -0.5 0.323529661
v -0.325485826 -0.5 0.5
v -0.325485826 -0.289671034 0.5
v 0.323529661 -0.289671034 0.5
v 0.323529661 -0.5 0.5
vt 0.933892846 0.0592085719
vt 0.98137784 0.0592088476
vt 0.98137784 0.0495202057
vt 0.93389833 0.0495200306
vt 0.921245217 0.0592084937
vt 0.921252191 0.0495200045
vt 0.98137784 0.0592081882
vt 0.98137784 0.0495198481
vt 0.933892846 0.0495198481
vt 0.933897793 0.0592081882
vt 0.921251416 0.0592081882
vt 0.921245217 0.0495198481
vt 0.933892846 0.0592085719
vt 0.98137784 0.0592088476
vt 0.98137784 0.0495202057
vt 0.93389833 0.0495200306
vt 0.921245217 0.0592084937
vt 0.921252191 0.0495200045
vt 0.98137784 0.0592084937
vt 0.98137784 0.0495198481
vt 0.933892846 0.0495198481
vt 0.933897793 0.0592082553
vt 0.921251416 0.0592081882
vt 0.921245217 0.0495198481
vt 0.933892846 0.0592085719
vt 0.98137784 0.0592088476
vt 0.98137784 0.0495202057
vt 0.93389833 0.0495200306
vt 0.921245217 0.0592084937
vt 0.921252191 0.0495200045
vt 0.98137784 0.0592081882
vt 0.98137784 0.0495198481
vt 0.933892846 0.0495198481
vt 0.933897793 0.0592081882
vt 0.921251416 0.0592081882
vt 0.921245217 0.0495198481
vt 0.933892846 0.0592085719
vt 0.98137784 0.0592088476
vt 0.98137784 0.0495202057
vt 0.93389833 0.0495200306
vt 0.921245217 0.0592084937
vt 0.921252191 0.0495200045
vt 0.98137784 0.0592081882
vt 0.98137784 0.0495198481
vt 0.933892846 0.0495198481
vt 0.933897793 0.059208028
vt 0.921251416 0.0592079908
vt 0.921245217 0.0495198481
vt 0.857702017 0.0419469476
vt 0.837772608 0.0419469476
vt 0.837772608 0.0482563376
vt 0.857702017 0.0482563376
vt 0.857702017 0.0419469476
vt 0.837772608 0.0419469476
vt 0.837772608 0.0482563376
vt 0.857702017 0.0482563376
vt 0.857702017 0.0419469476
vt 0.837772608 0.0419469476
vt 0.837772608 0.0482563376
vt 0.857702017 0.0482563376
vt 0.857702017 0.0419469476
vt 0.837772608 0.0419469476
vt 0.837772608 0.0482563376
vt 0.857702017 0.0482563376
vt 0.0157620311 0.993555367
vt 0.102836847 0.905504227
vt 0.102836847 0.993555367
vt 0.426667035 0.905504227
vt 0.426667035 0.993555367
vt 0.514718175 0.993555367
vt 0.451357007 0.891962409
vt 0.538431823 0.803911448
vt 0.538431823 0.891962409
vt 0.862262011 0.803911448
vt 0.862262011 0.891962409
vt 0.950313151 0.891962409
vt 0.905575156 0.994000971
vt 0.992825627 0.994000912
vt 0.905575216 0.9067505
vt 0.585656643 0.994000971
vt 0.585656643 0.906750441
vt 0.498406172 0.994000971
vt 0.585656643 0.994000971
vt 0.498406172 0.994000971
vt 0.585656643 0.906750441
vt 0.905575156 0.994000971
vt 0.905575216 0.9067505
vt 0.992825627 0.994000912
vt 0.426667035 0.993555367
vt 0.514718175 0.993555367
vt 0.426667035 0.905504227
vt 0.102836847 0.993555367
vt 0.102836847 0.905504227
vt 0.0157620311 0.993555367
vt 0.109351963 0.892407954
vt 0.0221013129 0.892407954
vt 0.109351903 0.806124866
vt 0.429270476 0.892407954
vt 0.429270476 0.806124866
vt 0.516520739 0.892408133
vt 0.709687054 0.491652369
vt 0.709687054 0.266619116
vt 0.935401976 0.266619116
vt 0.935401976 0.49165225
vt 0.862262011 0.891962171
vt 0.950313151 0.891962409
vt 0.862262011 0.803911448
vt 0.538431823 0.891962409
vt 0.538431823 0.803911448
vt 0.451357007 0.891962409
vt 0.429270476 0.892407954
vt 0.516520739 0.892408133
vt 0.429270476 0.806124866
vt 0.109351963 0.892407954
vt 0.109351903 0.806124866
vt 0.0221013129 0.892407954
vt 0.93472141 0.49165231
vt 0.93472141 0.266618907
vt 0.709006667 0.266618937
vt 0.709006667 0.49165231
vt 0.528895497 0.797273993
vt 0.528895497 0.70409137
vt 0.223849595 0.70409137
vt 0.223849624 0.797273934
vt 0.0677176863 0.704361677
vt 0.0677176863 0.797544301
vt 0.373223782 0.797544181
vt 0.373223782 0.704361677
vt 0.980731606 0.794810534
vt 0.980731547 0.701628029
vt 0.675686061 0.701628089
vt 0.675686061 0.794810653
vt 0.696133077 0.793823183
vt 0.696133077 0.7006405
vt 0.390626967 0.700640559
vt 0.390626907 0.793823123
vn 1 0 0
vn 1 0 0
vn 1 0 0
vn 1 0 0
vn 1 0 0
vn 1 0 0
vn -0 0 1
vn -0 0 1
vn -0 0 1
vn -0 0 1
vn -0 0 1
vn -0 0 1
vn -0 0 -1
vn -0 0 -1
vn -0 0 -1
vn -0 0 -1
vn -0 0 -1
vn -0 0 -1
vn 1 0 0
vn 1 0 0
vn 1 0 0
vn 1 0 0
vn 1 0 0
vn 1 0 0
vn -1 0 0
vn -1 0 0
vn -1 0 0
vn -1 0 0
vn -1 0 0
vn -1 0 0
vn -0 0 -1
vn -0 0 -1
vn -0 0 -1
vn -0 0 -1
vn -0 0 -1
vn -0 0 -1
vn -0 0 1
vn -0 0 1
vn -0 0 1
vn -0 0 1
vn -0 0 1
vn -0 0 1
vn -1 0 0
vn -1 0 0
vn -1 0 0
vn -1 0 0
vn -1 0 0
vn -1 0 0
vn 1 0 0
vn 1 0 0
vn 1 0 0
vn 1 0 0
vn -0 0 -1
vn -0 0 -1
vn -0 0 -1
vn -0 0 -1
vn -1 0 0
vn -1 0 0
vn -1 0 0
vn -1 0 0
vn -0 0 1
vn -0 0 1
vn -0 0 1
vn -0 0 1
vn -0 1 0
vn -0 1 0
vn -0 1 0
vn -0 1 0
vn -0 1 0
vn -0 1 0
vn -0 -1 0
vn -0 -1 0
vn -0 -1 0
vn -0 -1 0
vn -0 -1 0
vn -0 -1 0
vn -0 -1 0
vn -0 -1 0
vn -0 -1 0
vn -0 -1 0
vn -0 -1 0
vn -0 -1 0
vn -0 1 0
vn -0 1 0
vn -0 1 0
vn -0 1 0
vn -0 1 0
vn -0 1 0
vn -0 -1 0
vn -0 -1 0
vn -0 -1 0
vn -0 -1 0
vn -0 -1 0
vn -0 -1 0
vn -0 -1 0
vn -0 -1 0
vn -0 -1 0
vn -0 -1 0
vn -0 -1 0
vn -0 -1 0
vn -0 -1 0
vn -0 -1 0
vn -0 -1 0
vn -0 -1 0
vn -0 1 0
vn -0 1 0
vn -0 1 0
vn -0 1 0
vn -0 1 0
vn -0 1 0
vn -0 1 0
vn -0 1 0
vn -0 1 0
vn -0 1 0
vn -0 1 0
vn -0 1 0
vn -0 1 0
vn -0 1 0
vn -0 1 0
vn -0 1 0
vn 1 0 0
vn 1 0 0
vn 1 0 0
vn 1 0 0
vn -0 0 -1
vn -0 0 -1
vn -0 0 -1
vn -0 0 -1
vn -1 0 0
vn -1 0 0
vn -1 0 0
vn -1 0 0
vn -0 0 1
vn -0 0 1
vn -0 0 1
vn -0 0 1
g Collumn_Bottom_0
f 3/3/3 2/2/2 1/1/1
f 4/4/4 3/3/3 1/1/1
f 4/4/4 1/1/1 5/5/5
f 6/6/6 4/4/4 5/5/5
f 9/9/9 8/8/8 7/7/7
f 10/10/10 9/9/9 7/7/7
f 10/10/10 11/11/11 9/9/9
f 11/11/11 12/12/12 9/9/9
f 15/15/15 14/14/14 13/13/13
f 16/16/16 15/15/15 13/13/13
f 16/16/16 13/13/13 17/17/17
f 18/18/18 16/16/16 17/17/17
f 21/21/21 20/20/20 19/19/19
f 22/22/22 21/21/21 19/19/19
f 22/22/22 23/23/23 21/21/21
f 23/23/23 24/24/24 21/21/21
f 27/27/27 26/26/26 25/25/25
f 28/28/28 27/27/27 25/25/25
f 28/28/28 25/25/25 29/29/29
f 30/30/30 28/28/28 29/29/29
f 33/33/33 32/32/32 31/31/31
f 34/34/34 33/33/33 31/31/31
f 34/34/34 35/35/35 33/33/33
f 35/35/35 36/36/36 33/33/33
f 39/39/39 38/38/38 37/37/37
f 40/40/40 39/39/39 37/37/37
f 40/40/40 37/37/37 41/41/41
f 42/42/42 40/40/40 41/41/41
f 45/45/45 44/44/44 43/43/43
f 46/46/46 45/45/45 43/43/43
f 46/46/46 47/47/47 45/45/45
f 47/47/47 48/48/48 45/45/45
f 51/51/51 50/50/50 49/49/49
f 52/52/52 51/51/51 49/49/49
f 55/55/55 54/54/54 53/53/53
f 56/56/56 55/55/55 53/53/53
f 59/59/59 58/58/58 57/57/57
f 60/60/60 59/59/59 57/57/57
f 63/63/63 62/62/62 61/61/61
f 64/64/64 63/63/63 61/61/61
f 67/67/67 66/66/66 65/65/65
f 66/66/66 67/67/67 68/68/68
f 67/67/67 69/69/69 68/68/68
f 68/68/68 69/69/69 70/70/70
f 73/73/73 72/72/72 71/71/71
f 72/72/72 73/73/73 74/74/74
f 73/73/73 75/75/75 74/74/74
f 74/74/74 75/75/75 76/76/76
f 79/79/79 78/78/78 77/77/77
f 79/79/79 77/77/77 80/80/80
f 81/81/81 79/79/79 80/80/80
f 81/81/81 80/80/80 82/82/82
f 85/85/85 84/84/84 83/83/83
f 85/85/85 83/83/83 86/86/86
f 87/87/87 85/85/85 86/86/86
f 87/87/87 86/86/86 88/88/88
f 91/91/91 90/90/90 89/89/89
f 91/91/91 89/89/89 92/92/92
f 93/93/93 91/91/91 92/92/92
f 93/93/93 92/92/92 94/94/94
f 97/97/97 96/96/96 95/95/95
f 97/97/97 95/95/95 98/98/98
f 99/99/99 97/97/97 98/98/98
f 99/99/99 98/98/98 100/100/100
f 103/103/103 102/102/102 101/101/101
f 104/104/104 103/103/103 101/101/101
f 107/107/107 106/106/106 105/105/105
f 107/107/107 105/105/105 108/108/108
f 109/109/109 107/107/107 108/108/108
f 109/109/109 108/108/108 110/110/110
f 113/113/113 112/112/112 111/111/111
f 113/113/113 111/111/111 114/114/114
f 115/115/115 113/113/113 114/114/114
f 115/115/115 114/114/114 116/116/116
f 119/119/119 118/118/118 117/117/117
f 120/120/120 119/119/119 117/117/117
f 123/123/123 122/122/122 121/121/121
f 124/124/124 123/123/123 121/121/121
f 127/127/127 126/126/126 125/125/125
f 128/128/128 127/127/127 125/125/125
f 131/131/131 130/130/130 129/129/129
f 132/132/132 131/131/131 129/129/129
f 135/135/135 134/134/134 133/133/133
f 136/136/136 135/135/135 133/133/133
