g Wall_RCFence
v -0.5 0.5 0.09375
v -0.5 0.5 -0.09375
v 0.5 0.5 -0.09375
v 0.5 0.5 0.09375
v -0.5 -0.5 -0.09375
v -0.5 -0.5 0.09375
v 0.5 -0.5 0.09375
v 0.5 -0.5 -0.09375
v -0.5 0.03125 0.125
v 0.5 0.03125 0.125
v 0.5 0 0.09375
v -0.5 0 0.09375
v -0.5 0 0.09375
v 0.5 0 0.09375
v 0.5 -0.03125 0.125
v -0.5 -0.03125 0.125
v -0.5 0.03125 0.125
v -0.5 0.46875 0.125
v 0.5 0.46875 0.125
v 0.5 0.03125 0.125
v -0.5 0.46875 -0.125
v -0.5 0.03125 -0.125
v 0.5 0.03125 -0.125
v 0.5 0.46875 -0.125
v -0.5 -0.5 0.09375
v -0.5 -0.46875 0.125
v 0.5 -0.46875 0.125
v 0.5 -0.5 0.09375
v 0.5 -0.5 0.09375
v 0.5 -0.46875 -0.125
v 0.5 -0.5 -0.09375
v 0.5 -0.46875 0.125
v 0.5 -0.03125 -0.125
v 0.5 -0.03125 0.125
v 0.5 0 0.09375
v 0.5 0 -0.09375
v 0.5 0.03125 0.125
v 0.5 0.03125 -0.125
v 0.5 0.46875 -0.125
v 0.5 0.46875 0.125
v 0.5 0.5 -0.09375
v 0.5 0.5 0.09375
v -0.5 -0.46875 -0.125
v -0.5 -0.5 -0.09375
v 0.5 -0.5 -0.09375
v 0.5 -0.46875 -0.125
v -0.5 -0.5 -0.09375
v -0.5 -0.46875 0.125
v -0.5 -0.5 0.09375
v -0.5 -0.46875 -0.125
v -0.5 -0.03125 0.125
v -0.5 -0.03125 -0.125
v -0.5 0 -0.09375
v -0.5 0 0.09375
v -0.5 0.03125 -0.125
v -0.5 0.03125 0.125
v -0.5 0.46875 0.125
v -0.5 0.46875 -0.125
v -0.5 0.5 0.09375
v -0.5 0.5 -0.09375
v 0.5 0.03125 -0.125
v -0.5 0.03125 -0.125
v -0.5 0 -0.09375
v 0.5 0 -0.09375
v 0.5 0 -0.09375
v -0.5 0 -0.09375
v -0.5 -0.03125 -0.125
v 0.5 -0.03125 -0.125
v -0.5 0.46875 0.125
v -0.5 0.5 0.09375
v 0.5 0.5 0.09375
v 0.5 0.46875 0.125
v -0.5 0.5 -0.09375
v -0.5 0.46875 -0.125
v 0.5 0.46875 -0.125
v 0.5 0.5 -0.09375
v -0.5 -0.46875 0.125
v -0.5 -0.03125 0.125
v 0.5 -0.03125 0.125
v 0.5 -0.46875 0.125
v -0.5 -0.03125 -0.125
v -0.5 -0.46875 -0.125
v 0.5 -0.46875 -0.125
v 0.5 -0.03125 -0.125
vt 0.848113894 0.058937341
vt 0.856298327 0.058937341
vt 0.856298327 0.0261994302
vt 0.848113894 0.0261994302
vt 0.84370935 0.0919565558
vt 0.851893842 0.0919565558
vt 0.851893842 0.0592187047
vt 0.84370935 0.0592187047
vt 0.814852655 0.0442051031
vt 0.847590506 0.0442051031
vt 0.847590506 0.0425683707
vt 0.814852655 0.0425683707
vt 0.814852655 0.0425683707
vt 0.847590506 0.0425683707
vt 0.847590506 0.0409316383
vt 0.814852655 0.0409316383
vt 0.814852655 0.0442051031
vt 0.814852595 0.0574637502
vt 0.847590446 0.0574637502
vt 0.847590506 0.0442051031
vt 0.85379988 0.0919566154
vt 0.867058516 0.091956608
vt 0.867058516 0.0592187047
vt 0.85379982 0.0592187047
vt 0.814852655 0.0261994302
vt 0.814852595 0.0275625288
vt 0.847590446 0.0275625326
vt 0.847590506 0.0261994302
vt 0.835092425 0.0592186749
vt 0.843276799 0.0605817772
vt 0.843276858 0.0592186749
vt 0.835092425 0.0605817772
vt 0.843276858 0.0739508867
vt 0.835092425 0.0739508867
vt 0.835092425 0.0755876154
vt 0.843276858 0.0755876154
vt 0.835092425 0.077224344
vt 0.843276858 0.077224344
vt 0.843276799 0.0904829949
vt 0.835092425 0.0904829949
vt 0.843276858 0.0919565558
vt 0.835092425 0.0919565558
vt 0.883701086 0.0919566154
vt 0.885064185 0.0919566154
vt 0.885064185 0.0592187047
vt 0.883701086 0.0592187047
vt 0.826475441 0.0592186749
vt 0.834659934 0.0605817735
vt 0.834659934 0.0592186749
vt 0.826475382 0.0605817772
vt 0.834659934 0.0739508867
vt 0.826475441 0.0739508867
vt 0.826475441 0.0755876154
vt 0.834659934 0.0755876154
vt 0.826475441 0.077224344
vt 0.834659934 0.077224344
vt 0.834659874 0.0904829949
vt 0.826475441 0.0904829949
vt 0.834659934 0.0919565558
vt 0.826475441 0.0919565558
vt 0.867058516 0.0592187047
vt 0.867058516 0.091956608
vt 0.868695259 0.0919566154
vt 0.868695259 0.0592187047
vt 0.868695259 0.0592187047
vt 0.868695259 0.0919566154
vt 0.870332003 0.0919566154
vt 0.870332003 0.0592187047
vt 0.814852595 0.0574637502
vt 0.814852655 0.0589373112
vt 0.847590506 0.0589373112
vt 0.847590446 0.0574637502
vt 0.852326334 0.0919566154
vt 0.85379988 0.0919566154
vt 0.85379982 0.0592187047
vt 0.852326334 0.0592187047
vt 0.814852595 0.0275625288
vt 0.814852655 0.0409316383
vt 0.847590506 0.0409316383
vt 0.847590446 0.0275625326
vt 0.870332003 0.0919566154
vt 0.883701086 0.0919566154
vt 0.883701086 0.0592187047
vt 0.870332003 0.0592187047
vn -0 1 0
vn -0 1 0
vn -0 1 0
vn -0 1 0
vn -0 -1 0
vn -0 -1 0
vn -0 -1 0
vn -0 -1 0
vn -0 -0.707106769 0.707106769
vn -0 -0.707106769 0.707106769
vn -0 -0.707106769 0.707106769
vn -0 -0.707106769 0.707106769
vn -0 0.707106769 0.707106769
vn -0 0.707106769 0.707106769
vn -0 0.707106769 0.707106769
vn -0 0.707106769 0.707106769
vn -0 0 1
vn -0 0 1
vn -0 0 1
vn -0 0 1
vn -0 0 -1
vn -0 0 -1
vn -0 0 -1
vn -0 0 -1
vn -0 -0.707106769 0.707106769
vn -0 -0.707106769 0.707106769
vn -0 -0.707106769 0.707106769
vn -0 -0.707106769 0.707106769
vn 1 0 0
vn 1 0 0
vn 1 0 0
vn 1 0 0
vn 1 0 0
vn 1 0 0
vn 1 0 0
vn 1 0 0
vn 1 0 0
vn 1 0 0
vn 1 0 0
vn 1 0 0
vn 1 0 0
vn 1 0 0
vn -0 -0.707106769 -0.707106769
vn -0 -0.707106769 -0.707106769
vn -0 -0.707106769 -0.707106769
vn -0 -0.707106769 -0.707106769
vn -1 0 0
vn -1 0 0
vn -1 0 0
vn -1 0 0
vn -1 0 0
vn -1 0 0
vn -1 0 0
vn -1 0 0
vn -1 0 0
vn -1 0 0
vn -1 0 0
vn -1 0 0
vn -1 0 0
vn -1 0 0
vn -0 -0.707106769 -0.707106769
vn -0 -0.707106769 -0.707106769
vn -0 -0.707106769 -0.707106769
vn -0 -0.707106769 -0.707106769
vn -0 0.707106769 -0.707106769
vn -0 0.707106769 -0.707106769
vn -0 0.707106769 -0.707106769
vn -0 0.707106769 -0.707106769
vn -0 0.707106769 0.707106769
vn -0 0.707106769 0.707106769
vn -0 0.707106769 0.707106769
vn -0 0.707106769 0.707106769
vn -0 0.707106769 -0.707106769
vn -0 0.707106769 -0.707106769
vn -0 0.707106769 -0.707106769
vn -0 0.707106769 -0.707106769
vn -0 0 1
vn -0 0 1
vn -0 0 1
vn -0 0 1
vn -0 0 -1
vn -0 0 -1
vn -0 0 -1
vn -0 0 -1
g Wall_RCFence_0
f 3/3/3 2/2/2 1/1/1
f 4/4/4 3/3/3 1/1/1
f 7/7/7 6/6/6 5/5/5
f 8/8/8 7/7/7 5/5/5
f 11/11/11 10/10/10 9/9/9
f 12/12/12 11/11/11 9/9/9
f 15/15/15 14/14/14 13/13/13
f 16/16/16 15/15/15 13/13/13
f 19/19/19 18/18/18 17/17/17
f 20/20/20 19/19/19 17/17/17
f 23/23/23 22/22/22 21/21/21
f 24/24/24 23/23/23 21/21/21
f 27/27/27 26/26/26 25/25/25
f 28/28/28 27/27/27 25/25/25
f 31/31/31 30/30/30 29/29/29
f 30/30/30 32/32/32 29/29/29
f 30/30/30 33/33/33 32/32/32
f 33/33/33 34/34/34 32/32/32
f 34/34/34 33/33/33 35/35/35
f 33/33/33 36/36/36 35/35/35
f 35/35/35 36/36/36 37/37/37
f 36/36/36 38/38/38 37/37/37
f 38/38/38 39/39/39 37/37/37
f 39/39/39 40/40/40 37/37/37
f 39/39/39 41/41/41 40/40/40
f 41/41/41 42/42/42 40/40/40
f 45/45/45 44/44/44 43/43/43
f 46/46/46 45/45/45 43/43/43
f 49/49/49 48/48/48 47/47/47
f 48/48/48 50/50/50 47/47/47
f 48/48/48 51/51/51 50/50/50
f 51/51/51 52/52/52 50/50/50
f 53/53/53 52/52/52 51/51/51
f 54/54/54 53/53/53 51/51/51
f 55/55/55 53/53/53 54/54/54
f 56/56/56 55/55/55 54/54/54
f 56/56/56 57/57/57 55/55/55
f 57/57/57 58/58/58 55/55/55
f 57/57/57 59/59/59 58/58/58
f 59/59/59 60/60/60 58/58/58
f 63/63/63 62/62/62 61/61/61
f 64/64/64 63/63/63 61/61/61
f 67/67/67 66/66/66 65/65/65
f 68/68/68 67/67/67 65/65/65
f 71/71/71 70/70/70 69/69/69
f 72/72/72 71/71/71 69/69/69
f 75/75/75 74/74/74 73/73/73
f 76/76/76 75/75/75 73/73/73
f 79/79/79 78/78/78 77/77/77
f 80/80/80 79/79/79 77/77/77
f 83/83/83 82/82/82 81/81/81
f 84/84/84 83/83/83 81/81/81
