g RC_Stairs_Turn
v -0.5 -0.5 0.5
v -0.5 -0.5 -0.5
v -0.5 0.5 -0.5
v -0.166666865 0.184139833 0.5
v 0.166666254 0.184139833 0.166666254
v 0.166666254 0.184139833 0.5
v -0.5 -0.5 0.5
v -0.5 0.5 -0.5
v -0.5 0.5 0.5
v -0.5 0.5 -0.5
v -0.166666865 0.5 -0.166666865
v -0.166666865 0.5 0.5
v -0.5 0.5 0.5
v 0.166666254 0.184139833 0.166666254
v -0.166666865 0.184139833 0.5
v -0.166666865 0.184139833 -0.166666865
v 0.5 0.184139833 -0.166666865
v 0.5 0.184139833 0.166666254
v 0.166666865 -0.141798705 0.166666865
v 0.166666254 0.184139833 0.166666254
v 0.5 0.184139833 0.166666254
v 0.5 -0.141798705 0.166666865
v -0.166666865 0.5 -0.166666865
v -0.5 0.5 -0.5
v 0.5 0.5 -0.5
v 0.5 0.5 -0.166666865
v -0.166666865 0.184139833 -0.166666865
v -0.166666865 0.5 -0.166666865
v 0.5 0.5 -0.166666865
v 0.5 0.184139833 -0.166666865
v 0.5 -0.5 -0.5
v 0.5 0.5 -0.166666865
v 0.5 0.5 -0.5
v 0.5 0.184139833 -0.166666865
v 0.5 0.184139833 0.166666254
v 0.5 -0.141798705 0.166666865
v 0.5 -0.141798705 0.5
v 0.5 -0.5 0.5
v 0.5 -0.5 -0.5
v 0.5 0.5 -0.5
v -0.5 0.5 -0.5
v -0.5 -0.5 -0.5
v -0.166666865 0.5 -0.166666865
v -0.166666865 0.184139833 -0.166666865
v -0.166666865 0.184139833 0.5
v -0.166666865 0.5 0.5
v 0.166666865 -0.141798705 0.5
v 0.166666865 -0.141798705 0.166666865
v 0.5 -0.141798705 0.166666865
v 0.5 -0.141798705 0.5
v 0.166666254 0.184139833 0.166666254
v 0.166666865 -0.141798705 0.166666865
v 0.166666865 -0.141798705 0.5
v 0.166666254 0.184139833 0.5
v 0.166666865 -0.141798705 0.5
v -0.5 -0.5 0.5
v 0.166666254 0.184139833 0.5
v -0.166666865 0.184139833 0.5
v -0.166666865 0.5 0.5
v -0.5 0.5 0.5
v -0.5 -0.5 0.5
v 0.5 -0.5 0.5
v 0.5 -0.5 -0.5
v -0.5 -0.5 -0.5
v -0.5 -0.5 0.5
v 0.166666865 -0.141798705 0.5
v 0.5 -0.141798705 0.5
v 0.5 -0.5 0.5
vt 0.876147687 0.0477413386
vt 0.858114183 0.0477413237
vt 0.858114123 0.065774858
vt 0.97376579 0.0478176326
vt 0.967319489 0.0549686477
vt 0.967309952 0.0478176326
vt 0.854969263 0.0477356724
vt 0.838348866 0.069465436
vt 0.838348567 0.0477349311
vt 0.973900676 0.0481235124
vt 0.96732384 0.0551725328
vt 0.967306376 0.0692706332
vt 0.97386378 0.0692706481
vt 0.967329144 0.062119633
vt 0.960845172 0.0549686365
vt 0.973784268 0.0549686328
vt 0.973822713 0.0692706406
vt 0.967338681 0.0692706406
vt 0.84155798 0.0551725402
vt 0.848122001 0.0551725775
vt 0.84813571 0.0481235385
vt 0.84156549 0.0481235087
vt 0.967315078 0.0622215867
vt 0.973869741 0.0692706555
vt 0.973906636 0.0481235161
vt 0.967332542 0.0481234901
vt 0.841580749 0.0622216016
vt 0.848137081 0.062221624
vt 0.84816438 0.0481234789
vt 0.841598928 0.048123464
vt 0.861011028 0.0295749027
vt 0.854999661 0.0476084054
vt 0.861010909 0.0476084054
vt 0.854999721 0.0419123285
vt 0.848988533 0.0419123173
vt 0.848988473 0.0360344946
vt 0.842977405 0.0360344946
vt 0.842977405 0.0295749009
vt 0.854969501 0.069466196
vt 0.838348985 0.0694654286
vt 0.838348687 0.0477349199
vt 0.854969263 0.0477356762
vt 0.84815073 0.0551725477
vt 0.841588259 0.0551725328
vt 0.841570139 0.069270663
vt 0.848123431 0.0692706928
vt 0.967314243 0.0549686328
vt 0.97380054 0.0549686328
vt 0.973779082 0.0478176326
vt 0.967304707 0.0478176326
vt 0.848108292 0.0622215942
vt 0.841550589 0.0622215867
vt 0.841543138 0.0692706183
vt 0.848094523 0.0692706332
vt 0.870136499 0.0542010069
vt 0.858114183 0.0477413274
vt 0.870136499 0.0600787401
vt 0.864125311 0.0600787587
vt 0.864125252 0.065774858
vt 0.858114123 0.065774858
vt 0.928019762 0.0471951403
vt 0.946991563 0.0471951365
vt 0.946991563 0.0292013288
vt 0.928019762 0.0292013362
vt 0.840613723 0.0692706257
vt 0.848164082 0.0551725626
vt 0.848175347 0.0481235385
vt 0.840619206 0.0481234789
vn -1 0 0
vn -1 0 0
vn -1 0 0
vn -0 1 0
vn -0 1 0
vn -0 1 0
vn -1 0 0
vn -1 0 0
vn -1 0 0
vn -0 1 0
vn -0 1 0
vn -0 1 0
vn -0 1 0
vn -0 1 0
vn -0 1 0
vn -0 1 0
vn -0 1 0
vn -0 1 0
vn -0 1.87259695E-06 1
vn -0 1.87259695E-06 1
vn -0 1.87259695E-06 1
vn -0 1.87259695E-06 1
vn -0 1 0
vn -0 1 0
vn -0 1 0
vn -0 1 0
vn -0 0 1
vn -0 0 1
vn -0 0 1
vn -0 0 1
vn 1 0 0
vn 1 0 0
vn 1 0 0
vn 1 0 0
vn 1 0 0
vn 1 0 0
vn 1 0 0
vn 1 0 0
vn -0 0 -1
vn -0 0 -1
vn -0 0 -1
vn -0 0 -1
vn 1 0 0
vn 1 0 0
vn 1 0 0
vn 1 0 0
vn -0 1 0
vn -0 1 0
vn -0 1 0
vn -0 1 0
vn 1 1.87259695E-06 0
vn 1 1.87259695E-06 0
vn 1 1.87259695E-06 0
vn 1 1.87259695E-06 0
vn -0 0 1
vn -0 0 1
vn -0 0 1
vn -0 0 1
vn -0 0 1
vn -0 0 1
vn -0 -1 0
vn -0 -1 0
vn -0 -1 0
vn -0 -1 0
vn -0 0 1
vn -0 0 1
vn -0 0 1
vn -0 0 1
g RC_Stairs_Turn_0
f 3/3/3 2/2/2 1/1/1
f 6/6/6 5/5/5 4/4/4
f 9/9/9 8/8/8 7/7/7
f 12/12/12 11/11/11 10/10/10
f 13/13/13 12/12/12 10/10/10
f 16/16/16 15/15/15 14/14/14
f 16/16/16 14/14/14 17/17/17
f 14/14/14 18/18/18 17/17/17
f 21/21/21 20/20/20 19/19/19
f 22/22/22 21/21/21 19/19/19
f 25/25/25 24/24/24 23/23/23
f 26/26/26 25/25/25 23/23/23
f 29/29/29 28/28/28 27/27/27
f 30/30/30 29/29/29 27/27/27
f 33/33/33 32/32/32 31/31/31
f 32/32/32 34/34/34 31/31/31
f 34/34/34 35/35/35 31/31/31
f 35/35/35 36/36/36 31/31/31
f 37/37/37 31/31/31 36/36/36
f 38/38/38 31/31/31 37/37/37
f 41/41/41 40/40/40 39/39/39
f 42/42/42 41/41/41 39/39/39
f 45/45/45 44/44/44 43/43/43
f 46/46/46 45/45/45 43/43/43
f 49/49/49 48/48/48 47/47/47
f 50/50/50 49/49/49 47/47/47
f 53/53/53 52/52/52 51/51/51
f 54/54/54 53/53/53 51/51/51
f 57/57/57 56/56/56 55/55/55
f 57/57/57 58/58/58 56/56/56
f 58/58/58 59/59/59 56/56/56
f 59/59/59 60/60/60 56/56/56
f 63/63/63 62/62/62 61/61/61
f 64/64/64 63/63/63 61/61/61
f 67/67/67 66/66/66 65/65/65
f 68/68/68 67/67/67 65/65/65
