g ConcreteCube
v -0.5 -0.5 0.5
v -0.5 0.5 0.5
v 0.5 0.5 0.5
v 0.5 -0.5 0.5
v -0.5 0.5 0.5
v -0.5 0.5 -0.5
v 0.5 0.5 -0.5
v 0.5 0.5 0.5
v -0.5 0.5 -0.5
v -0.5 -0.5 -0.5
v 0.5 -0.5 -0.5
v 0.5 0.5 -0.5
v -0.5 -0.5 -0.5
v -0.5 -0.5 0.5
v 0.5 -0.5 0.5
v 0.5 -0.5 -0.5
v 0.5 -0.5 0.5
v 0.5 0.5 0.5
v 0.5 0.5 -0.5
v 0.5 -0.5 -0.5
v -0.5 -0.5 -0.5
v -0.5 0.5 -0.5
v -0.5 0.5 0.5
v -0.5 -0.5 0.5
vt 0.848552227 0.0459255874
vt 0.848552227 0.0491233468
vt 0.851749957 0.0491233468
vt 0.851749957 0.0459255874
vt 0.939839423 0.0556221902
vt 0.939839423 0.0532642901
vt 0.937481463 0.0532642901
vt 0.937481463 0.0556221902
vt 0.848552227 0.0523210764
vt 0.848552227 0.055518806
vt 0.851749957 0.055518806
vt 0.851749957 0.0523210764
vt 0.93786025 0.0532468855
vt 0.93786025 0.0508889556
vt 0.935502291 0.0508889556
vt 0.935502291 0.0532468855
vt 0.851749957 0.0459255874
vt 0.851749957 0.0491233468
vt 0.854947686 0.0491233468
vt 0.854947686 0.0459255874
vt 0.845354378 0.0459255874
vt 0.845354378 0.0491233468
vt 0.848552227 0.0491233468
vt 0.848552227 0.0459255874
vn -0 0 1
vn -0 0 1
vn -0 0 1
vn -0 0 1
vn -0 1 0
vn -0 1 0
vn -0 1 0
vn -0 1 0
vn -0 0 -1
vn -0 0 -1
vn -0 0 -1
vn -0 0 -1
vn -0 -1 0
vn -0 -1 0
vn -0 -1 0
vn -0 -1 0
vn 1 0 0
vn 1 0 0
vn 1 0 0
vn 1 0 0
vn -1 0 0
vn -1 0 0
vn -1 0 0
vn -1 0 0
g ConcreteCube_0
f 3/3/3 2/2/2 1/1/1
f 4/4/4 3/3/3 1/1/1
f 7/7/7 6/6/6 5/5/5
f 8/8/8 7/7/7 5/5/5
f 11/11/11 10/10/10 9/9/9
f 12/12/12 11/11/11 9/9/9
f 15/15/15 14/14/14 13/13/13
f 16/16/16 15/15/15 13/13/13
f 19/19/19 18/18/18 17/17/17
f 20/20/20 19/19/19 17/17/17
f 23/23/23 22/22/22 21/21/21
f 24/24/24 23/23/23 21/21/21
