g Cement_ColumnMiddle
v -0.209136039 0.5 0.20913589
v -0.209136039 0.5 -0.20913589
v 0.20913589 0.5 -0.20913589
v 0.20913589 0.5 0.20913589
v -0.209136039 -0.49999994 0.20913589
v 0.20913589 -0.49999994 0.20913589
v 0.20913589 -0.49999994 -0.20913589
v -0.209136039 -0.49999994 -0.20913589
v -0.209136039 -0.49999994 0.20913589
v -0.209136039 0.5 0.20913589
v 0.20913589 0.5 0.20913589
v 0.20913589 -0.49999994 0.20913589
v 0.20913589 -0.49999994 0.20913589
v 0.20913589 0.5 0.20913589
v 0.20913589 0.5 -0.20913589
v 0.20913589 -0.49999994 -0.20913589
v 0.20913589 -0.49999994 -0.20913589
v 0.20913589 0.5 -0.20913589
v -0.209136039 0.5 -0.20913589
v -0.209136039 -0.49999994 -0.20913589
v -0.209136039 -0.49999994 -0.20913589
v -0.209136039 0.5 -0.20913589
v -0.209136039 0.5 0.20913589
v -0.209136039 -0.49999994 0.20913589
vt 0.815401793 0.240168661
vt 0.815401793 0.413116425
vt 0.988349676 0.413116425
vt 0.988349557 0.240168661
vt 0.815401793 0.240168661
vt 0.988349557 0.240168661
vt 0.988349676 0.413116425
vt 0.815401793 0.413116425
vt 0.842211187 0.0462862849
vt 0.842211187 0.0504749566
vt 0.843903065 0.0504749566
vt 0.843903065 0.0462862849
vt 0.843954444 0.0462862849
vt 0.843954444 0.0504749566
vt 0.845646381 0.0504749566
vt 0.845646381 0.0462862849
vt 0.847388327 0.0504749566
vt 0.847388327 0.0462862998
vt 0.84569639 0.0462862998
vt 0.84569639 0.0504749566
vt 0.847420275 0.0505026132
vt 0.847420275 0.0546912402
vt 0.849112153 0.0546912402
vt 0.849112153 0.0505026132
vn -0 1 0
vn -0 1 0
vn -0 1 0
vn -0 1 0
vn -0 -1 0
vn -0 -1 0
vn -0 -1 0
vn -0 -1 0
vn -0 0 1
vn -0 0 1
vn -0 0 1
vn -0 0 1
vn 1 0 0
vn 1 0 0
vn 1 0 0
vn 1 0 0
vn -0 0 -1
vn -0 0 -1
vn -0 0 -1
vn -0 0 -1
vn -1 0 0
vn -1 0 0
vn -1 0 0
vn -1 0 0
g Cement_ColumnMiddle_0
f 3/3/3 2/2/2 1/1/1
f 4/4/4 3/3/3 1/1/1
f 7/7/7 6/6/6 5/5/5
f 8/8/8 7/7/7 5/5/5
f 11/11/11 10/10/10 9/9/9
f 12/12/12 11/11/11 9/9/9
f 15/15/15 14/14/14 13/13/13
f 16/16/16 15/15/15 13/13/13
f 19/19/19 18/18/18 17/17/17
f 20/20/20 19/19/19 17/17/17
f 23/23/23 22/22/22 21/21/21
f 24/24/24 23/23/23 21/21/21
