g T_Wall_RCFence
v -0.5 0.5 0.09375
v -0.5 0.5 -0.09375
v -0.15625 0.5 -0.09375
v -0.15625 0.5 0.09375
v 0.15625 0.5 -0.09375
v -0.09375 0.5 -0.15625
v 0.15625 0.5 0.09375
v 0.09375 0.5 -0.15625
v 0.09375 0.5 -0.5
v -0.09375 0.5 -0.5
v -0.09375 0.5 0.15625
v 0.09375 0.5 0.15625
v 0.09375 0.5 0.5
v -0.09375 0.5 0.5
v -0.09375 -0.5 -0.15625
v -0.15625 -0.5 -0.09375
v 0.15625 -0.5 0.09375
v -0.15625 -0.5 0.09375
v -0.09375 -0.5 0.15625
v 0.09375 -0.5 0.15625
v -0.09375 -0.5 0.5
v 0.09375 -0.5 0.5
v -0.5 -0.5 -0.09375
v -0.5 -0.5 0.09375
v -0.15625 -0.5 -0.09375
v 0.15625 -0.5 -0.09375
v 0.09375 -0.5 -0.15625
v 0.15625 -0.5 0.09375
v -0.09375 -0.5 -0.15625
v 0.09375 -0.5 -0.15625
v -0.09375 -0.5 -0.5
v 0.09375 -0.5 -0.5
v -0.5 0.0312499944 0.125
v -0.15625 0 0.09375
v -0.5 0 0.09375
v -0.1875 0.0312499944 0.125
v -0.09375 0 0.15625
v -0.125 0.0312499944 0.1875
v -0.5 0 0.09375
v -0.1875 -0.0312499944 0.125
v -0.5 -0.0312499944 0.125
v -0.15625 0 0.09375
v -0.125 -0.0312499944 0.1875
v -0.09375 0 0.15625
v -0.5 0.46875 -0.125
v -0.5 0.0312499944 -0.125
v -0.1875 0.0312499944 -0.125
v -0.1875 0.46875 -0.125
v -0.125 0.0312499944 -0.1875
v -0.125 0.46875 -0.1875
v -0.125 0.0312499944 -0.5
v -0.125 0.46875 -0.5
v -0.125 0.46875 -0.1875
v -0.125 0.0312499944 -0.1875
v -0.5 0.0312499944 0.125
v -0.5 0.46875 0.125
v -0.1875 0.46875 0.125
v -0.1875 0.0312499944 0.125
v -0.125 0.46875 0.1875
v -0.125 0.0312499944 0.1875
v 0.125 0.46875 -0.5
v 0.125 0.0312499944 -0.5
v 0.125 0.0312499944 -0.1875
v 0.125 0.46875 -0.1875
v -0.125 0.46875 0.5
v -0.125 0.0312499944 0.5
v -0.125 0.0312499944 0.1875
v -0.125 0.46875 0.1875
v 0.125 0.0312499944 0.5
v 0.125 0.46875 0.5
v 0.125 0.46875 0.1875
v 0.125 0.0312499944 0.1875
v 0.1875 0.0312499944 -0.125
v 0.1875 0.46875 -0.125
v 0.125 0.46875 -0.1875
v 0.125 0.0312499944 -0.1875
v 0.125 0.0312499944 0.1875
v 0.125 0.46875 0.1875
v 0.1875 0.46875 0.125
v 0.1875 0.0312499944 0.125
v 0.1875 0.46875 -0.125
v 0.1875 0.0312499944 -0.125
v 0.1875 0.0312499944 0.125
v 0.1875 0.46875 0.125
v -0.5 -0.5 0.09375
v -0.5 -0.46875 0.125
v -0.1875 -0.46875 0.125
v -0.15625 -0.5 0.09375
v -0.125 -0.46875 0.1875
v -0.09375 -0.5 0.15625
v -0.125 -0.46875 0.5
v -0.09375 -0.5 0.5
v -0.09375 -0.5 0.15625
v -0.125 -0.46875 0.1875
v -0.09375 -0.5 0.5
v 0.125 -0.46875 0.5
v 0.09375 -0.5 0.5
v -0.125 -0.46875 0.5
v 0.125 -0.0312499944 0.5
v -0.125 -0.0312499944 0.5
v -0.09375 0 0.5
v 0.09375 0 0.5
v -0.125 0.0312499944 0.5
v 0.125 0.0312499944 0.5
v 0.125 0.46875 0.5
v -0.125 0.46875 0.5
v 0.09375 0.5 0.5
v -0.09375 0.5 0.5
v 0.09375 -0.5 0.5
v 0.125 -0.46875 0.5
v 0.125 -0.46875 0.1875
v 0.09375 -0.5 0.15625
v 0.09375 -0.5 0.15625
v 0.125 -0.46875 0.1875
v 0.1875 -0.46875 0.125
v 0.15625 -0.5 0.09375
v 0.1875 -0.46875 -0.125
v 0.15625 -0.5 -0.09375
v 0.15625 -0.5 0.09375
v 0.1875 -0.46875 0.125
v 0.15625 -0.5 -0.09375
v 0.1875 -0.46875 -0.125
v 0.125 -0.46875 -0.1875
v 0.09375 -0.5 -0.15625
v 0.125 -0.46875 -0.5
v 0.09375 -0.5 -0.5
v 0.09375 -0.5 -0.15625
v 0.125 -0.46875 -0.1875
v 0.09375 -0.5 -0.5
v -0.125 -0.46875 -0.5
v -0.09375 -0.5 -0.5
v 0.125 -0.46875 -0.5
v -0.125 -0.0312499944 -0.5
v 0.125 -0.0312499944 -0.5
v 0.09375 0 -0.5
v -0.09375 0 -0.5
v 0.125 0.0312499944 -0.5
v -0.125 0.0312499944 -0.5
v -0.125 0.46875 -0.5
v 0.125 0.46875 -0.5
v -0.09375 0.5 -0.5
v 0.09375 0.5 -0.5
v -0.09375 -0.5 -0.15625
v -0.09375 -0.5 -0.5
v -0.125 -0.46875 -0.5
v -0.125 -0.46875 -0.1875
v -0.09375 -0.5 -0.15625
v -0.125 -0.46875 -0.1875
v -0.1875 -0.46875 -0.125
v -0.15625 -0.5 -0.09375
v -0.5 -0.46875 -0.125
v -0.5 -0.5 -0.09375
v -0.5 -0.5 -0.09375
v -0.5 -0.46875 0.125
v -0.5 -0.5 0.09375
v -0.5 -0.46875 -0.125
v -0.5 -0.0312499944 0.125
v -0.5 -0.0312499944 -0.125
v -0.5 0 -0.09375
v -0.5 0 0.09375
v -0.5 0.0312499944 -0.125
v -0.5 0.0312499944 0.125
v -0.5 0.46875 0.125
v -0.5 0.46875 -0.125
v -0.5 0.5 0.09375
v -0.5 0.5 -0.09375
v -0.125 0.0312499944 0.1875
v -0.125 0.0312499944 0.5
v -0.09375 0 0.5
v -0.09375 0 0.15625
v -0.09375 0 0.15625
v -0.09375 0 0.5
v -0.125 -0.0312499944 0.5
v -0.125 -0.0312499944 0.1875
v 0.125 0.0312499944 0.5
v 0.125 0.0312499944 0.1875
v 0.09375 0 0.1875
v 0.09375 0 0.5
v 0.09375 0 0.5
v 0.09375 0 0.1875
v 0.125 -0.0312499944 0.1875
v 0.125 -0.0312499944 0.5
v 0.125 0.0312499944 0.1875
v 0.1875 0.0312499944 0.125
v 0.15625 0 0.125
v 0.09375 0 0.1875
v 0.09375 0 0.1875
v 0.15625 0 0.125
v 0.1875 -0.0312499944 0.125
v 0.125 -0.0312499944 0.1875
v 0.1875 0.0312499944 0.125
v 0.1875 0.0312499944 -0.125
v 0.15625 0 -0.125
v 0.15625 0 0.125
v 0.15625 0 0.125
v 0.15625 0 -0.125
v 0.1875 -0.0312499944 -0.125
v 0.1875 -0.0312499944 0.125
v 0.1875 0.0312499944 -0.125
v 0.125 0.0312499944 -0.1875
v 0.09375 0 -0.1875
v 0.15625 0 -0.125
v 0.15625 0 -0.125
v 0.09375 0 -0.1875
v 0.125 -0.0312499944 -0.1875
v 0.1875 -0.0312499944 -0.125
v 0.125 0.0312499944 -0.1875
v 0.125 0.0312499944 -0.5
v 0.09375 0 -0.5
v 0.09375 0 -0.1875
v 0.09375 0 -0.1875
v 0.09375 0 -0.5
v 0.125 -0.0312499944 -0.5
v 0.125 -0.0312499944 -0.1875
v -0.125 0.0312499944 -0.5
v -0.125 0.0312499944 -0.1875
v -0.09375 0 -0.15625
v -0.09375 0 -0.5
v -0.09375 0 -0.5
v -0.09375 0 -0.15625
v -0.125 -0.0312499944 -0.1875
v -0.125 -0.0312499944 -0.5
v -0.125 0.0312499944 -0.1875
v -0.15625 0 -0.09375
v -0.09375 0 -0.15625
v -0.1875 0.0312499944 -0.125
v -0.5 0 -0.09375
v -0.5 0.0312499944 -0.125
v -0.09375 0 -0.15625
v -0.1875 -0.0312499944 -0.125
v -0.125 -0.0312499944 -0.1875
v -0.15625 0 -0.09375
v -0.5 -0.0312499944 -0.125
v -0.5 0 -0.09375
v -0.5 0.5 -0.09375
v -0.5 0.46875 -0.125
v -0.1875 0.46875 -0.125
v -0.15625 0.5 -0.09375
v -0.125 0.46875 -0.1875
v -0.09375 0.5 -0.15625
v -0.125 0.46875 -0.5
v -0.09375 0.5 -0.5
v -0.09375 0.5 -0.15625
v -0.125 0.46875 -0.1875
v 0.09375 0.5 -0.15625
v 0.09375 0.5 -0.5
v 0.125 0.46875 -0.5
v 0.125 0.46875 -0.1875
v 0.1875 0.46875 -0.125
v 0.15625 0.5 -0.09375
v 0.09375 0.5 -0.15625
v 0.125 0.46875 -0.1875
v 0.15625 0.5 -0.09375
v 0.1875 0.46875 -0.125
v 0.1875 0.46875 0.125
v 0.15625 0.5 0.09375
v 0.125 0.46875 0.1875
v 0.09375 0.5 0.15625
v 0.15625 0.5 0.09375
v 0.1875 0.46875 0.125
v 0.125 0.46875 0.5
v 0.09375 0.5 0.5
v 0.09375 0.5 0.15625
v 0.125 0.46875 0.1875
v -0.09375 0.5 0.5
v -0.125 0.46875 0.5
v -0.125 0.46875 0.1875
v -0.09375 0.5 0.15625
v -0.1875 0.46875 0.125
v -0.09375 0.5 0.15625
v -0.125 0.46875 0.1875
v -0.15625 0.5 0.09375
v -0.5 0.46875 0.125
v -0.5 0.5 0.09375
v -0.5 -0.46875 0.125
v -0.5 -0.0312499944 0.125
v -0.1875 -0.0312499944 0.125
v -0.1875 -0.46875 0.125
v -0.125 -0.0312499944 0.1875
v -0.125 -0.46875 0.1875
v -0.5 -0.0312499944 -0.125
v -0.5 -0.46875 -0.125
v -0.1875 -0.46875 -0.125
v -0.1875 -0.0312499944 -0.125
v -0.125 -0.46875 -0.1875
v -0.125 -0.0312499944 -0.1875
v -0.125 -0.46875 -0.5
v -0.125 -0.0312499944 -0.5
v -0.125 -0.0312499944 -0.1875
v -0.125 -0.46875 -0.1875
v 0.125 -0.0312499944 -0.5
v 0.125 -0.46875 -0.5
v 0.125 -0.46875 -0.1875
v 0.125 -0.0312499944 -0.1875
v 0.1875 -0.46875 -0.125
v 0.1875 -0.0312499944 -0.125
v 0.125 -0.0312499944 -0.1875
v 0.125 -0.46875 -0.1875
v 0.1875 -0.0312499944 -0.125
v 0.1875 -0.46875 -0.125
v 0.1875 -0.46875 0.125
v 0.1875 -0.0312499944 0.125
v 0.125 -0.46875 0.1875
v 0.125 -0.0312499944 0.1875
v 0.1875 -0.0312499944 0.125
v 0.1875 -0.46875 0.125
v 0.125 -0.46875 0.5
v 0.125 -0.0312499944 0.5
v 0.125 -0.0312499944 0.1875
v 0.125 -0.46875 0.1875
v -0.125 -0.0312499944 0.5
v -0.125 -0.46875 0.5
v -0.125 -0.46875 0.1875
v -0.125 -0.0312499944 0.1875
vt 0.856865585 0.0646393001
vt 0.856865585 0.0715808272
vt 0.865542412 0.0715808272
vt 0.865542412 0.0646393001
vt 0.875954807 0.0715808272
vt 0.867277861 0.0733162165
vt 0.875954807 0.0646393001
vt 0.874219418 0.0733162165
vt 0.874219418 0.0819931626
vt 0.867277861 0.0819931626
vt 0.867277861 0.0629039109
vt 0.874219418 0.0629039109
vt 0.874219418 0.0542270243
vt 0.867277861 0.0542270243
vt 0.825264931 0.0348564684
vt 0.823529482 0.0365918577
vt 0.833941817 0.043533355
vt 0.823529482 0.043533355
vt 0.825264931 0.0452687442
vt 0.832206488 0.0452687442
vt 0.825264931 0.0539456606
vt 0.832206488 0.0539456606
vt 0.814852655 0.0365918577
vt 0.814852655 0.043533355
vt 0.823529482 0.0365918577
vt 0.833941817 0.0365918577
vt 0.832206488 0.0348564684
vt 0.833941817 0.043533355
vt 0.825264931 0.0348564684
vt 0.832206488 0.0348564684
vt 0.825264931 0.0261795521
vt 0.832206488 0.0261795521
vt 0.869271338 0.0414507762
vt 0.877948284 0.0400626063
vt 0.869271338 0.0400626063
vt 0.877948284 0.0414507873
vt 0.879683673 0.0400626063
vt 0.879683673 0.0414507724
vt 0.869271338 0.0400626063
vt 0.877948225 0.0386744402
vt 0.869271338 0.0386744402
vt 0.877948284 0.0400626063
vt 0.879683673 0.0386744402
vt 0.879683673 0.0400626063
vt 0.849213064 0.0271551237
vt 0.849213004 0.0386744142
vt 0.857889831 0.0386744142
vt 0.85788995 0.0271551237
vt 0.85962522 0.0386743993
vt 0.85962522 0.0271551237
vt 0.860066414 0.0414507762
vt 0.860066414 0.052970089
vt 0.86874342 0.0529700853
vt 0.86874342 0.0414507724
vt 0.869271338 0.0414507762
vt 0.869271398 0.052970089
vt 0.877948284 0.052970089
vt 0.877948284 0.0414507873
vt 0.879683673 0.052970089
vt 0.879683673 0.0414507724
vt 0.885064185 0.0810175911
vt 0.885064185 0.0694982558
vt 0.876387298 0.0694982633
vt 0.876387298 0.0810175911
vt 0.856433094 0.0810175315
vt 0.856433094 0.0694982037
vt 0.847756207 0.0694982037
vt 0.847756207 0.0810175315
vt 0.838646829 0.0694982633
vt 0.838646889 0.0810175911
vt 0.847323716 0.0810175836
vt 0.847323716 0.0694982633
vt 0.83084023 0.0667218417
vt 0.83084029 0.0552025624
vt 0.8291049 0.0552025661
vt 0.8291049 0.0667218566
vt 0.82693702 0.0694982782
vt 0.82693702 0.0810175911
vt 0.828672409 0.0810175836
vt 0.828672409 0.0694982633
vt 0.826504529 0.0810175911
vt 0.826504529 0.0694982633
vt 0.819563031 0.0694982633
vt 0.819563031 0.0810175836
vt 0.869271338 0.0261795521
vt 0.869271338 0.0273757111
vt 0.877948284 0.0273757111
vt 0.877948284 0.0261795521
vt 0.879683673 0.0273757111
vt 0.879683673 0.0261795521
vt 0.856433094 0.0554231256
vt 0.856433094 0.0542269647
vt 0.847756207 0.0542269647
vt 0.847756207 0.0554231256
vt 0.831272781 0.0542270243
vt 0.838214219 0.0554231852
vt 0.838214278 0.0542270243
vt 0.831272721 0.0554231852
vt 0.838214278 0.0667219236
vt 0.831272781 0.0667219236
vt 0.831272781 0.0681100935
vt 0.838214278 0.0681100935
vt 0.831272781 0.0694982633
vt 0.838214278 0.0694982633
vt 0.838214278 0.0810175911
vt 0.831272781 0.0810175836
vt 0.838214278 0.0819931626
vt 0.831272781 0.0819931626
vt 0.838646829 0.0542270243
vt 0.838646829 0.0554231852
vt 0.847323716 0.0554231852
vt 0.847323716 0.0542270243
vt 0.82693702 0.0542270243
vt 0.82693702 0.0554231852
vt 0.828672409 0.0554231852
vt 0.828672409 0.0542270243
vt 0.826504529 0.0554231852
vt 0.826504529 0.0542270243
vt 0.819563031 0.0542270243
vt 0.819563031 0.0554231852
vt 0.83084023 0.0819930434
vt 0.83084023 0.0807968825
vt 0.8291049 0.0807968825
vt 0.8291049 0.0819930434
vt 0.885064185 0.0554231852
vt 0.885064185 0.0542270243
vt 0.876387298 0.0542270243
vt 0.876387298 0.0554231852
vt 0.848735631 0.053945601
vt 0.841794074 0.0527494438
vt 0.841794074 0.053945601
vt 0.848735631 0.0527494438
vt 0.841794074 0.0414507389
vt 0.848735631 0.0414507389
vt 0.848735631 0.0400625765
vt 0.841794074 0.0400625765
vt 0.848735631 0.0386744104
vt 0.841794074 0.0386744142
vt 0.841794074 0.0271551255
vt 0.848735631 0.0271551218
vt 0.841794074 0.0261795521
vt 0.848735631 0.0261795521
vt 0.86874342 0.0261795521
vt 0.860066414 0.0261795521
vt 0.860066354 0.0273757111
vt 0.86874342 0.0273757111
vt 0.85962522 0.053945601
vt 0.85962522 0.0527494438
vt 0.857889891 0.0527494438
vt 0.857889891 0.053945601
vt 0.849213004 0.0527494438
vt 0.849213004 0.053945601
vt 0.834375262 0.0261795521
vt 0.8413167 0.0273757111
vt 0.8413167 0.0261795521
vt 0.834375203 0.0273757111
vt 0.8413167 0.0386744402
vt 0.834375203 0.0386744402
vt 0.834375262 0.0400626063
vt 0.8413167 0.0400626063
vt 0.834375262 0.0414507724
vt 0.8413167 0.0414507724
vt 0.8413167 0.0529700853
vt 0.834375262 0.052970089
vt 0.8413167 0.0539456606
vt 0.834375262 0.0539456606
vt 0.847756207 0.0694982037
vt 0.856433094 0.0694982037
vt 0.856433094 0.0681100339
vt 0.847756207 0.0681100339
vt 0.847756207 0.0681100339
vt 0.856433094 0.0681100339
vt 0.856433094 0.066721864
vt 0.847756207 0.066721864
vt 0.838646829 0.0694982633
vt 0.847323716 0.0694982633
vt 0.847323716 0.0681100935
vt 0.838646829 0.0681100935
vt 0.838646829 0.0681100935
vt 0.847323716 0.0681100935
vt 0.847323716 0.0667219236
vt 0.838646829 0.0667219236
vt 0.82693702 0.0694982782
vt 0.828672409 0.0694982633
vt 0.828672409 0.0681100935
vt 0.82693702 0.0681100935
vt 0.82693702 0.0681100935
vt 0.828672409 0.0681100935
vt 0.828672409 0.0667219236
vt 0.82693702 0.0667219311
vt 0.819563031 0.0694982633
vt 0.826504529 0.0694982633
vt 0.826504529 0.0681100935
vt 0.819563031 0.0681100935
vt 0.819563031 0.0681100935
vt 0.826504529 0.0681100935
vt 0.826504529 0.0667219236
vt 0.819563031 0.0667219236
vt 0.83084023 0.0667218417
vt 0.8291049 0.0667218566
vt 0.8291049 0.068110019
vt 0.83084023 0.068110019
vt 0.83084023 0.068110019
vt 0.8291049 0.068110019
vt 0.8291049 0.0694981813
vt 0.83084023 0.0694981813
vt 0.876387298 0.0694982633
vt 0.885064185 0.0694982558
vt 0.885064185 0.0681100935
vt 0.876387298 0.0681100935
vt 0.876387298 0.0681100935
vt 0.885064185 0.0681100935
vt 0.885064185 0.0667219236
vt 0.876387298 0.0667219236
vt 0.860066414 0.0414507762
vt 0.86874342 0.0414507724
vt 0.86874342 0.0400626063
vt 0.860066414 0.0400626063
vt 0.860066414 0.0400626063
vt 0.86874342 0.0400626063
vt 0.86874342 0.0386744402
vt 0.860066414 0.0386744402
vt 0.85962522 0.0386743993
vt 0.857889891 0.0400625765
vt 0.85962522 0.0400625765
vt 0.857889831 0.0386744142
vt 0.849213004 0.0400625765
vt 0.849213004 0.0386744142
vt 0.85962522 0.0400625765
vt 0.857889891 0.0414507389
vt 0.85962522 0.0414507352
vt 0.857889891 0.0400625765
vt 0.849213004 0.0414507426
vt 0.849213004 0.0400625765
vt 0.849213004 0.0261795521
vt 0.849213064 0.0271551237
vt 0.85788995 0.0271551237
vt 0.857889891 0.0261795521
vt 0.85962522 0.0271551237
vt 0.85962522 0.0261795521
vt 0.860066414 0.052970089
vt 0.860066414 0.0539456606
vt 0.86874342 0.0539456606
vt 0.86874342 0.0529700853
vt 0.876387298 0.0819931626
vt 0.885064185 0.0819931626
vt 0.885064185 0.0810175911
vt 0.876387298 0.0810175911
vt 0.83084029 0.0552025624
vt 0.83084023 0.0542269945
vt 0.8291049 0.0542269945
vt 0.8291049 0.0552025661
vt 0.826504529 0.0819931626
vt 0.826504529 0.0810175911
vt 0.819563031 0.0810175836
vt 0.819563031 0.0819931626
vt 0.82693702 0.0810175911
vt 0.82693702 0.0819931626
vt 0.828672409 0.0819931626
vt 0.828672409 0.0810175836
vt 0.838646889 0.0810175911
vt 0.838646829 0.0819931626
vt 0.847323716 0.0819931626
vt 0.847323716 0.0810175836
vt 0.856433094 0.081993103
vt 0.856433094 0.0810175315
vt 0.847756207 0.0810175315
vt 0.847756207 0.081993103
vt 0.877948284 0.052970089
vt 0.879683673 0.0539456606
vt 0.879683673 0.052970089
vt 0.877948284 0.0539456606
vt 0.869271398 0.052970089
vt 0.869271338 0.0539456606
vt 0.869271338 0.0273757111
vt 0.869271338 0.0386744402
vt 0.877948225 0.0386744402
vt 0.877948284 0.0273757111
vt 0.879683673 0.0386744402
vt 0.879683673 0.0273757111
vt 0.849213004 0.0414507426
vt 0.849213004 0.0527494438
vt 0.857889891 0.0527494438
vt 0.857889891 0.0414507389
vt 0.85962522 0.0527494438
vt 0.85962522 0.0414507352
vt 0.860066354 0.0273757111
vt 0.860066414 0.0386744402
vt 0.86874342 0.0386744402
vt 0.86874342 0.0273757111
vt 0.885064185 0.0667219236
vt 0.885064185 0.0554231852
vt 0.876387298 0.0554231852
vt 0.876387298 0.0667219236
vt 0.83084023 0.0807968825
vt 0.83084023 0.0694981813
vt 0.8291049 0.0694981813
vt 0.8291049 0.0807968825
vt 0.826504529 0.0667219236
vt 0.826504529 0.0554231852
vt 0.819563031 0.0554231852
vt 0.819563031 0.0667219236
vt 0.82693702 0.0554231852
vt 0.82693702 0.0667219311
vt 0.828672409 0.0667219236
vt 0.828672409 0.0554231852
vt 0.838646829 0.0554231852
vt 0.838646829 0.0667219236
vt 0.847323716 0.0667219236
vt 0.847323716 0.0554231852
vt 0.856433094 0.066721864
vt 0.856433094 0.0554231256
vt 0.847756207 0.0554231256
vt 0.847756207 0.066721864
vn -0 1 0
vn -0 1 0
vn -0 1 0
vn -0 1 0
vn -0 1 0
vn -0 1 0
vn -0 1 0
vn -0 1 0
vn -0 1 0
vn -0 1 0
vn -0 1 0
vn -0 1 0
vn -0 1 0
vn -0 1 0
vn -0 -1 0
vn -0 -1 0
vn -0 -1 0
vn -0 -1 0
vn -0 -1 0
vn -0 -1 0
vn -0 -1 0
vn -0 -1 0
vn -0 -1 0
vn -0 -1 0
vn -0 -1 0
vn -0 -1 0
vn -0 -1 0
vn -0 -1 0
vn -0 -1 0
vn -0 -1 0
vn -0 -1 0
vn -0 -1 0
vn -0 -0.707106829 0.70710665
vn -0.14817363 -0.769452572 0.621278763
vn -0 -0.707106829 0.70710665
vn -0.0799029842 -0.743664265 0.663761318
vn -0.621278763 -0.769452572 0.14817363
vn -0.663761139 -0.743664265 0.0799029768
vn -0 0.707106829 0.70710665
vn -0.0799029842 0.743664265 0.663761318
vn -0 0.707106829 0.70710665
vn -0.14817363 0.769452572 0.621278763
vn -0.663761139 0.743664265 0.0799029768
vn -0.621278763 0.769452572 0.14817363
vn -0 0 -1
vn -0 0 -1
vn -0.164398983 0 -0.986393988
vn -0.164398983 0 -0.986393988
vn -0.986393988 0 -0.164398983
vn -0.986393988 0 -0.164398983
vn -1 0 0
vn -1 0 0
vn -0.986393988 0 -0.164398983
vn -0.986393988 0 -0.164398983
vn -0 0 1
vn -0 0 1
vn -0.164398983 0 0.986393988
vn -0.164398983 0 0.986393988
vn -0.986393988 0 0.164398983
vn -0.986393988 0 0.164398983
vn 1 0 0
vn 1 0 0
vn 0.986393988 0 -0.164398983
vn 0.986393988 0 -0.164398983
vn -1 0 0
vn -1 0 0
vn -0.986393988 0 0.164398983
vn -0.986393988 0 0.164398983
vn 1 0 0
vn 1 0 0
vn 0.986393988 0 0.164398983
vn 0.986393988 0 0.164398983
vn 0.707106769 0 -0.707106769
vn 0.707106769 0 -0.707106769
vn 0.986393988 0 -0.164398983
vn 0.986393988 0 -0.164398983
vn 0.986393988 0 0.164398983
vn 0.986393988 0 0.164398983
vn 0.707106769 0 0.707106769
vn 0.707106769 0 0.707106769
vn 1 0 0
vn 1 0 0
vn 1 0 0
vn 1 0 0
vn -0 -0.707106769 0.707106769
vn -0 -0.707106769 0.707106769
vn -0.0799029991 -0.743664205 0.663761318
vn -0.14817366 -0.769452512 0.621278822
vn -0.663761318 -0.743664205 0.0799029991
vn -0.621278822 -0.769452512 0.14817366
vn -0.707106769 -0.707106769 0
vn -0.707106769 -0.707106769 0
vn -0.621278822 -0.769452512 0.14817366
vn -0.663761318 -0.743664205 0.0799029991
vn -0 0 1
vn -0 0 1
vn -0 0 1
vn -0 0 1
vn -0 0 1
vn -0 0 1
vn -0 0 1
vn -0 0 1
vn -0 0 1
vn -0 0 1
vn -0 0 1
vn -0 0 1
vn -0 0 1
vn -0 0 1
vn 0.707106769 -0.707106769 0
vn 0.707106769 -0.707106769 0
vn 0.663761318 -0.743664205 0.0799029991
vn 0.621278822 -0.769452512 0.14817366
vn 0.621278822 -0.769452512 0.14817366
vn 0.663761318 -0.743664205 0.0799029991
vn 0.408248276 -0.816496551 0.408248276
vn 0.408248276 -0.816496551 0.408248276
vn 0.707106769 -0.707106769 0
vn 0.707106769 -0.707106769 0
vn 0.707106769 -0.707106769 0
vn 0.707106769 -0.707106769 0
vn 0.408248276 -0.816496551 -0.408248276
vn 0.408248276 -0.816496551 -0.408248276
vn 0.663761318 -0.743664205 -0.0799029991
vn 0.621278822 -0.769452512 -0.14817366
vn 0.707106769 -0.707106769 0
vn 0.707106769 -0.707106769 0
vn 0.621278822 -0.769452512 -0.14817366
vn 0.663761318 -0.743664205 -0.0799029991
vn -0 0 -1
vn -0 0 -1
vn -0 0 -1
vn -0 0 -1
vn -0 0 -1
vn -0 0 -1
vn -0 0 -1
vn -0 0 -1
vn -0 0 -1
vn -0 0 -1
vn -0 0 -1
vn -0 0 -1
vn -0 0 -1
vn -0 0 -1
vn -0.621278822 -0.769452512 -0.14817366
vn -0.707106769 -0.707106769 0
vn -0.707106769 -0.707106769 0
vn -0.663761318 -0.743664205 -0.0799029991
vn -0.621278822 -0.769452512 -0.14817366
vn -0.663761318 -0.743664205 -0.0799029991
vn -0.0799029991 -0.743664205 -0.663761318
vn -0.14817366 -0.769452512 -0.621278822
vn -0 -0.707106769 -0.707106769
vn -0 -0.707106769 -0.707106769
vn -1 0 0
vn -1 0 0
vn -1 0 0
vn -1 0 0
vn -1 0 0
vn -1 0 0
vn -1 0 0
vn -1 0 0
vn -1 0 0
vn -1 0 0
vn -1 0 0
vn -1 0 0
vn -1 0 0
vn -1 0 0
vn -0.663761139 -0.743664265 0.0799029768
vn -0.70710665 -0.707106888 0
vn -0.70710665 -0.707106888 0
vn -0.621278763 -0.769452572 0.14817363
vn -0.621278763 0.769452572 0.14817363
vn -0.70710665 0.707106888 0
vn -0.70710665 0.707106888 0
vn -0.663761139 0.743664265 0.0799029768
vn 0.70710665 -0.707106829 0
vn 0.699399531 -0.69939971 0.14724201
vn 0.704672575 -0.704672754 0.0829026476
vn 0.70710665 -0.707106829 0
vn 0.70710665 0.707106829 0
vn 0.704672575 0.704672754 0.0829026476
vn 0.699399531 0.69939971 0.14724201
vn 0.70710665 0.707106829 0
vn 0.699399531 -0.69939971 0.14724201
vn 0.577350318 -0.577350318 0.577350199
vn 0.577350318 -0.577350318 0.577350199
vn 0.704672575 -0.704672754 0.0829026476
vn 0.704672575 0.704672754 0.0829026476
vn 0.577350318 0.577350318 0.577350199
vn 0.577350318 0.577350318 0.577350199
vn 0.699399531 0.69939971 0.14724201
vn 0.70710665 -0.707106829 0
vn 0.70710665 -0.707106829 0
vn 0.70710665 -0.707106829 0
vn 0.70710665 -0.707106829 0
vn 0.70710665 0.707106829 0
vn 0.70710665 0.707106829 0
vn 0.70710665 0.707106829 0
vn 0.70710665 0.707106829 0
vn 0.577350318 -0.577350318 -0.577350199
vn 0.699399531 -0.69939971 -0.14724201
vn 0.704672575 -0.704672754 -0.0829026476
vn 0.577350318 -0.577350318 -0.577350199
vn 0.577350318 0.577350318 -0.577350199
vn 0.704672575 0.704672754 -0.0829026476
vn 0.699399531 0.69939971 -0.14724201
vn 0.577350318 0.577350318 -0.577350199
vn 0.699399531 -0.69939971 -0.14724201
vn 0.70710665 -0.707106829 0
vn 0.70710665 -0.707106829 0
vn 0.704672575 -0.704672754 -0.0829026476
vn 0.704672575 0.704672754 -0.0829026476
vn 0.70710665 0.707106829 0
vn 0.70710665 0.707106829 0
vn 0.699399531 0.69939971 -0.14724201
vn -0.70710665 -0.707106888 0
vn -0.663761139 -0.743664265 -0.0799029768
vn -0.621278763 -0.769452572 -0.14817363
vn -0.70710665 -0.707106888 0
vn -0.70710665 0.707106888 0
vn -0.621278763 0.769452572 -0.14817363
vn -0.663761139 0.743664265 -0.0799029768
vn -0.70710665 0.707106888 0
vn -0.663761139 -0.743664265 -0.0799029768
vn -0.14817363 -0.769452572 -0.621278763
vn -0.621278763 -0.769452572 -0.14817363
vn -0.0799029842 -0.743664265 -0.663761318
vn -0 -0.707106829 -0.70710665
vn -0 -0.707106829 -0.70710665
vn -0.621278763 0.769452572 -0.14817363
vn -0.0799029842 0.743664265 -0.663761318
vn -0.663761139 0.743664265 -0.0799029768
vn -0.14817363 0.769452572 -0.621278763
vn -0 0.707106829 -0.70710665
vn -0 0.707106829 -0.70710665
vn -0 0.707106769 -0.707106769
vn -0 0.707106769 -0.707106769
vn -0.0799029991 0.743664205 -0.663761318
vn -0.14817366 0.769452512 -0.621278822
vn -0.663761318 0.743664205 -0.0799029991
vn -0.621278822 0.769452512 -0.14817366
vn -0.707106769 0.707106769 0
vn -0.707106769 0.707106769 0
vn -0.621278822 0.769452512 -0.14817366
vn -0.663761318 0.743664205 -0.0799029991
vn 0.621278822 0.769452512 -0.14817366
vn 0.707106769 0.707106769 0
vn 0.707106769 0.707106769 0
vn 0.663761318 0.743664205 -0.0799029991
vn 0.408248276 0.816496551 -0.408248276
vn 0.408248276 0.816496551 -0.408248276
vn 0.621278822 0.769452512 -0.14817366
vn 0.663761318 0.743664205 -0.0799029991
vn 0.707106769 0.707106769 0
vn 0.707106769 0.707106769 0
vn 0.707106769 0.707106769 0
vn 0.707106769 0.707106769 0
vn 0.663761318 0.743664205 0.0799029991
vn 0.621278822 0.769452512 0.14817366
vn 0.408248276 0.816496551 0.408248276
vn 0.408248276 0.816496551 0.408248276
vn 0.707106769 0.707106769 0
vn 0.707106769 0.707106769 0
vn 0.621278822 0.769452512 0.14817366
vn 0.663761318 0.743664205 0.0799029991
vn -0.707106769 0.707106769 0
vn -0.707106769 0.707106769 0
vn -0.663761318 0.743664205 0.0799029991
vn -0.621278822 0.769452512 0.14817366
vn -0.0799029991 0.743664205 0.663761318
vn -0.621278822 0.769452512 0.14817366
vn -0.663761318 0.743664205 0.0799029991
vn -0.14817366 0.769452512 0.621278822
vn -0 0.707106769 0.707106769
vn -0 0.707106769 0.707106769
vn -0 0 1
vn -0 0 1
vn -0.164398983 0 0.986393988
vn -0.164398983 0 0.986393988
vn -0.986393988 0 0.164398983
vn -0.986393988 0 0.164398983
vn -0 0 -1
vn -0 0 -1
vn -0.164398983 0 -0.986393988
vn -0.164398983 0 -0.986393988
vn -0.986393988 0 -0.164398983
vn -0.986393988 0 -0.164398983
vn -1 0 0
vn -1 0 0
vn -0.986393988 0 -0.164398983
vn -0.986393988 0 -0.164398983
vn 1 0 0
vn 1 0 0
vn 0.986393988 0 -0.164398983
vn 0.986393988 0 -0.164398983
vn 0.707106769 0 -0.707106769
vn 0.707106769 0 -0.707106769
vn 0.986393988 0 -0.164398983
vn 0.986393988 0 -0.164398983
vn 1 0 0
vn 1 0 0
vn 1 0 0
vn 1 0 0
vn 0.986393988 0 0.164398983
vn 0.986393988 0 0.164398983
vn 0.707106769 0 0.707106769
vn 0.707106769 0 0.707106769
vn 1 0 0
vn 1 0 0
vn 0.986393988 0 0.164398983
vn 0.986393988 0 0.164398983
vn -1 0 0
vn -1 0 0
vn -0.986393988 0 0.164398983
vn -0.986393988 0 0.164398983
g T_Wall_RCFence_0
f 3/3/3 2/2/2 1/1/1
f 4/4/4 3/3/3 1/1/1
f 5/5/5 3/3/3 4/4/4
f 6/6/6 3/3/3 5/5/5
f 7/7/7 5/5/5 4/4/4
f 8/8/8 6/6/6 5/5/5
f 8/8/8 9/9/9 6/6/6
f 9/9/9 10/10/10 6/6/6
f 7/7/7 4/4/4 11/11/11
f 12/12/12 7/7/7 11/11/11
f 12/12/12 11/11/11 13/13/13
f 11/11/11 14/14/14 13/13/13
f 17/17/17 16/16/16 15/15/15
f 16/16/16 17/17/17 18/18/18
f 18/18/18 17/17/17 19/19/19
f 19/19/19 17/17/17 20/20/20
f 19/19/19 20/20/20 21/21/21
f 20/20/20 22/22/22 21/21/21
f 18/18/18 24/24/24 23/23/23
f 25/25/25 18/18/18 23/23/23
f 28/28/28 27/27/27 26/26/26
f 29/29/29 27/27/27 28/28/28
f 29/29/29 31/31/31 30/30/30
f 31/31/31 32/32/32 30/30/30
f 35/35/35 34/34/34 33/33/33
f 34/34/34 36/36/36 33/33/33
f 34/34/34 37/37/37 36/36/36
f 37/37/37 38/38/38 36/36/36
f 41/41/41 40/40/40 39/39/39
f 40/40/40 42/42/42 39/39/39
f 40/40/40 43/43/43 42/42/42
f 43/43/43 44/44/44 42/42/42
f 47/47/47 46/46/46 45/45/45
f 48/48/48 47/47/47 45/45/45
f 47/47/47 48/48/48 49/49/49
f 48/48/48 50/50/50 49/49/49
f 53/53/53 52/52/52 51/51/51
f 54/54/54 53/53/53 51/51/51
f 57/57/57 56/56/56 55/55/55
f 58/58/58 57/57/57 55/55/55
f 59/59/59 57/57/57 58/58/58
f 60/60/60 59/59/59 58/58/58
f 63/63/63 62/62/62 61/61/61
f 64/64/64 63/63/63 61/61/61
f 67/67/67 66/66/66 65/65/65
f 68/68/68 67/67/67 65/65/65
f 71/71/71 70/70/70 69/69/69
f 72/72/72 71/71/71 69/69/69
f 75/75/75 74/74/74 73/73/73
f 76/76/76 75/75/75 73/73/73
f 79/79/79 78/78/78 77/77/77
f 80/80/80 79/79/79 77/77/77
f 83/83/83 82/82/82 81/81/81
f 84/84/84 83/83/83 81/81/81
f 87/87/87 86/86/86 85/85/85
f 88/88/88 87/87/87 85/85/85
f 89/89/89 87/87/87 88/88/88
f 90/90/90 89/89/89 88/88/88
f 93/93/93 92/92/92 91/91/91
f 94/94/94 93/93/93 91/91/91
f 97/97/97 96/96/96 95/95/95
f 96/96/96 98/98/98 95/95/95
f 96/96/96 99/99/99 98/98/98
f 99/99/99 100/100/100 98/98/98
f 100/100/100 99/99/99 101/101/101
f 99/99/99 102/102/102 101/101/101
f 101/101/101 102/102/102 103/103/103
f 102/102/102 104/104/104 103/103/103
f 104/104/104 105/105/105 103/103/103
f 105/105/105 106/106/106 103/103/103
f 105/105/105 107/107/107 106/106/106
f 107/107/107 108/108/108 106/106/106
f 111/111/111 110/110/110 109/109/109
f 112/112/112 111/111/111 109/109/109
f 115/115/115 114/114/114 113/113/113
f 116/116/116 115/115/115 113/113/113
f 119/119/119 118/118/118 117/117/117
f 120/120/120 119/119/119 117/117/117
f 123/123/123 122/122/122 121/121/121
f 124/124/124 123/123/123 121/121/121
f 127/127/127 126/126/126 125/125/125
f 128/128/128 127/127/127 125/125/125
f 131/131/131 130/130/130 129/129/129
f 130/130/130 132/132/132 129/129/129
f 130/130/130 133/133/133 132/132/132
f 133/133/133 134/134/134 132/132/132
f 134/134/134 133/133/133 135/135/135
f 133/133/133 136/136/136 135/135/135
f 135/135/135 136/136/136 137/137/137
f 136/136/136 138/138/138 137/137/137
f 138/138/138 139/139/139 137/137/137
f 139/139/139 140/140/140 137/137/137
f 139/139/139 141/141/141 140/140/140
f 141/141/141 142/142/142 140/140/140
f 145/145/145 144/144/144 143/143/143
f 146/146/146 145/145/145 143/143/143
f 149/149/149 148/148/148 147/147/147
f 150/150/150 149/149/149 147/147/147
f 149/149/149 150/150/150 151/151/151
f 150/150/150 152/152/152 151/151/151
f 155/155/155 154/154/154 153/153/153
f 154/154/154 156/156/156 153/153/153
f 154/154/154 157/157/157 156/156/156
f 157/157/157 158/158/158 156/156/156
f 159/159/159 158/158/158 157/157/157
f 160/160/160 159/159/159 157/157/157
f 161/161/161 159/159/159 160/160/160
f 162/162/162 161/161/161 160/160/160
f 162/162/162 163/163/163 161/161/161
f 163/163/163 164/164/164 161/161/161
f 163/163/163 165/165/165 164/164/164
f 165/165/165 166/166/166 164/164/164
f 169/169/169 168/168/168 167/167/167
f 170/170/170 169/169/169 167/167/167
f 173/173/173 172/172/172 171/171/171
f 174/174/174 173/173/173 171/171/171
f 177/177/177 176/176/176 175/175/175
f 178/178/178 177/177/177 175/175/175
f 181/181/181 180/180/180 179/179/179
f 182/182/182 181/181/181 179/179/179
f 185/185/185 184/184/184 183/183/183
f 186/186/186 185/185/185 183/183/183
f 189/189/189 188/188/188 187/187/187
f 190/190/190 189/189/189 187/187/187
f 193/193/193 192/192/192 191/191/191
f 194/194/194 193/193/193 191/191/191
f 197/197/197 196/196/196 195/195/195
f 198/198/198 197/197/197 195/195/195
f 201/201/201 200/200/200 199/199/199
f 202/202/202 201/201/201 199/199/199
f 205/205/205 204/204/204 203/203/203
f 206/206/206 205/205/205 203/203/203
f 209/209/209 208/208/208 207/207/207
f 210/210/210 209/209/209 207/207/207
f 213/213/213 212/212/212 211/211/211
f 214/214/214 213/213/213 211/211/211
f 217/217/217 216/216/216 215/215/215
f 218/218/218 217/217/217 215/215/215
f 221/221/221 220/220/220 219/219/219
f 222/222/222 221/221/221 219/219/219
f 225/225/225 224/224/224 223/223/223
f 224/224/224 226/226/226 223/223/223
f 224/224/224 227/227/227 226/226/226
f 227/227/227 228/228/228 226/226/226
f 231/231/231 230/230/230 229/229/229
f 230/230/230 232/232/232 229/229/229
f 230/230/230 233/233/233 232/232/232
f 233/233/233 234/234/234 232/232/232
f 237/237/237 236/236/236 235/235/235
f 238/238/238 237/237/237 235/235/235
f 237/237/237 238/238/238 239/239/239
f 238/238/238 240/240/240 239/239/239
f 243/243/243 242/242/242 241/241/241
f 244/244/244 243/243/243 241/241/241
f 247/247/247 246/246/246 245/245/245
f 248/248/248 247/247/247 245/245/245
f 251/251/251 250/250/250 249/249/249
f 252/252/252 251/251/251 249/249/249
f 255/255/255 254/254/254 253/253/253
f 256/256/256 255/255/255 253/253/253
f 259/259/259 258/258/258 257/257/257
f 260/260/260 259/259/259 257/257/257
f 263/263/263 262/262/262 261/261/261
f 264/264/264 263/263/263 261/261/261
f 267/267/267 266/266/266 265/265/265
f 268/268/268 267/267/267 265/265/265
f 271/271/271 270/270/270 269/269/269
f 270/270/270 272/272/272 269/269/269
f 269/269/269 272/272/272 273/273/273
f 272/272/272 274/274/274 273/273/273
f 277/277/277 276/276/276 275/275/275
f 278/278/278 277/277/277 275/275/275
f 279/279/279 277/277/277 278/278/278
f 280/280/280 279/279/279 278/278/278
f 283/283/283 282/282/282 281/281/281
f 284/284/284 283/283/283 281/281/281
f 283/283/283 284/284/284 285/285/285
f 284/284/284 286/286/286 285/285/285
f 289/289/289 288/288/288 287/287/287
f 290/290/290 289/289/289 287/287/287
f 293/293/293 292/292/292 291/291/291
f 294/294/294 293/293/293 291/291/291
f 297/297/297 296/296/296 295/295/295
f 298/298/298 297/297/297 295/295/295
f 301/301/301 300/300/300 299/299/299
f 302/302/302 301/301/301 299/299/299
f 305/305/305 304/304/304 303/303/303
f 306/306/306 305/305/305 303/303/303
f 309/309/309 308/308/308 307/307/307
f 310/310/310 309/309/309 307/307/307
f 313/313/313 312/312/312 311/311/311
f 314/314/314 313/313/313 311/311/311
