g WallCorner
v 0.25 -0.5 -0.5
v 0.25 0.5 -0.5
v -0.25 0.5 -0.5
v -0.25 -0.5 -0.5
v -0.5 0.5 -0.25
v -0.5 0.5 0.25
v -0.5 -0.5 0.25
v -0.5 -0.5 -0.25
v 0.25 0.5 -0.5
v -0.25 0.5 -0.25
v -0.25 0.5 -0.5
v 0.25 0.5 0
v -0 0.5 0.25
v -0.5 0.5 -0.25
v -0.5 0.5 0.25
v -0.25 -0.5 -0.5
v -0.25 0.5 -0.5
v -0.25 0.5 -0.25
v -0.25 -0.5 -0.25
v 0.25 0.5 0
v 0.25 0.5 -0.5
v 0.25 -0.5 -0.5
v 0.25 -0.5 0
v -0.25 0.5 -0.25
v -0.5 0.5 -0.25
v -0.5 -0.5 -0.25
v -0.25 -0.5 -0.25
v -0.25 -0.5 -0.25
v -0.5 -0.5 -0.25
v -0.5 -0.5 0.25
v -0 -0.5 0.25
v 0.25 -0.5 0
v -0.25 -0.5 -0.5
v 0.25 -0.5 -0.5
v -0 -0.5 0.25
v -0.5 -0.5 0.25
v -0.5 0.5 0.25
v -0 0.5 0.25
v 0.25 0.5 0
v 0.25 -0.5 0
v -0 -0.5 0.25
v -0 0.5 0.25
v -0.4375 0.5 -0.25
v -0.4375 0.5 -0.28125
v -0.28125 0.5 -0.28125
v -0.25 0.5 -0.25
v -0.28125 0.5 -0.4375
v -0.25 0.5 -0.4375
v -0.28125 -0.5 -0.28125
v -0.4375 -0.5 -0.28125
v -0.4375 -0.5 -0.25
v -0.25 -0.5 -0.25
v -0.28125 -0.5 -0.4375
v -0.25 -0.5 -0.4375
v -0.28125 0.5 -0.28125
v -0.4375 0.5 -0.28125
v -0.4375 -0.5 -0.28125
v -0.28125 -0.5 -0.28125
v -0.4375 -0.5 -0.28125
v -0.4375 0.5 -0.28125
v -0.4375 0.5 -0.25
v -0.4375 -0.5 -0.25
v -0.28125 0.5 -0.4375
v -0.28125 -0.5 -0.4375
v -0.25 -0.5 -0.4375
v -0.25 0.5 -0.4375
v -0.28125 0.5 -0.4375
v -0.28125 0.5 -0.28125
v -0.28125 -0.5 -0.28125
v -0.28125 -0.5 -0.4375
v -0.388701171 0.235335454 -0.307388306
v -0.388701171 0.264664769 -0.307388306
v -0.388701171 0.264664769 -0.28125
v -0.388701171 0.235335454 -0.28125
v -0.330048829 0.235335454 -0.28125
v -0.330048829 0.264664769 -0.28125
v -0.330048829 0.264664769 -0.307388306
v -0.330048829 0.235335454 -0.307388306
v -0.37403959 0.279326171 -0.307388306
v -0.34471038 0.279326171 -0.307388306
v -0.34471038 0.279326171 -0.28125
v -0.37403959 0.279326171 -0.28125
v -0.34471038 0.220673829 -0.307388306
v -0.37403959 0.220673829 -0.307388306
v -0.37403959 0.220673829 -0.28125
v -0.34471038 0.220673829 -0.28125
v -0.34471038 0.220673829 -0.307388306
v -0.330048829 0.235335454 -0.307388306
v -0.330048829 0.264664769 -0.307388306
v -0.34471038 0.279326171 -0.307388306
v -0.37403959 0.220673829 -0.307388306
v -0.37403959 0.279326171 -0.307388306
v -0.388701171 0.235335454 -0.307388306
v -0.388701171 0.264664769 -0.307388306
v -0.37403959 0.220673829 -0.28125
v -0.37403959 0.220673829 -0.307388306
v -0.388701171 0.235335454 -0.307388306
v -0.388701171 0.235335454 -0.28125
v -0.388701171 0.264664769 -0.28125
v -0.388701171 0.264664769 -0.307388306
v -0.37403959 0.279326171 -0.307388306
v -0.37403959 0.279326171 -0.28125
v -0.34471038 0.220673829 -0.307388306
v -0.34471038 0.220673829 -0.28125
v -0.330048829 0.235335454 -0.28125
v -0.330048829 0.235335454 -0.307388306
v -0.330048829 0.264664769 -0.307388306
v -0.330048829 0.264664769 -0.28125
v -0.34471038 0.279326171 -0.28125
v -0.34471038 0.279326171 -0.307388306
v -0.388701171 -0.264664471 -0.307388306
v -0.388701171 -0.235335246 -0.307388306
v -0.388701171 -0.235335216 -0.28125
v -0.388701171 -0.264664501 -0.28125
v -0.330048829 -0.264664501 -0.28125
v -0.330048829 -0.235335216 -0.28125
v -0.330048829 -0.235335246 -0.307388306
v -0.330048829 -0.264664471 -0.307388306
v -0.37403959 -0.220673844 -0.307388306
v -0.34471038 -0.220673844 -0.307388306
v -0.34471038 -0.2206738 -0.28125
v -0.37403959 -0.2206738 -0.28125
v -0.34471038 -0.279326171 -0.307388306
v -0.37403959 -0.279326171 -0.307388306
v -0.37403959 -0.279326141 -0.28125
v -0.34471038 -0.279326141 -0.28125
v -0.34471038 -0.279326171 -0.307388306
v -0.330048829 -0.264664471 -0.307388306
v -0.330048829 -0.235335246 -0.307388306
v -0.34471038 -0.220673844 -0.307388306
v -0.37403959 -0.279326171 -0.307388306
v -0.37403959 -0.220673844 -0.307388306
v -0.388701171 -0.264664471 -0.307388306
v -0.388701171 -0.235335246 -0.307388306
v -0.37403959 -0.279326141 -0.28125
v -0.37403959 -0.279326171 -0.307388306
v -0.388701171 -0.264664471 -0.307388306
v -0.388701171 -0.264664501 -0.28125
v -0.388701171 -0.235335216 -0.28125
v -0.388701171 -0.235335246 -0.307388306
v -0.37403959 -0.220673844 -0.307388306
v -0.37403959 -0.2206738 -0.28125
v -0.34471038 -0.279326171 -0.307388306
v -0.34471038 -0.279326141 -0.28125
v -0.330048829 -0.264664501 -0.28125
v -0.330048829 -0.264664471 -0.307388306
v -0.330048829 -0.235335246 -0.307388306
v -0.330048829 -0.235335216 -0.28125
v -0.34471038 -0.2206738 -0.28125
v -0.34471038 -0.220673844 -0.307388306
v -0.307388306 0.235335454 -0.33004868
v -0.307388306 0.264664769 -0.33004868
v -0.28125 0.264664769 -0.33004868
v -0.28125 0.235335454 -0.33004868
v -0.28125 0.235335454 -0.388701022
v -0.28125 0.264664769 -0.388701022
v -0.307388306 0.264664769 -0.388701022
v -0.307388306 0.235335454 -0.388701022
v -0.307388306 0.279326171 -0.344710231
v -0.307388306 0.279326171 -0.374039441
v -0.28125 0.279326171 -0.374039441
v -0.28125 0.279326171 -0.344710231
v -0.307388306 0.220673829 -0.374039441
v -0.307388306 0.220673829 -0.344710231
v -0.28125 0.220673829 -0.344710231
v -0.28125 0.220673829 -0.374039441
v -0.307388306 0.235335454 -0.33004868
v -0.307388306 0.220673829 -0.344710231
v -0.307388306 0.220673829 -0.374039441
v -0.307388306 0.235335454 -0.388701022
v -0.307388306 0.264664769 -0.33004868
v -0.307388306 0.264664769 -0.388701022
v -0.307388306 0.279326171 -0.344710231
v -0.307388306 0.279326171 -0.374039441
v -0.28125 0.220673829 -0.344710231
v -0.307388306 0.220673829 -0.344710231
v -0.307388306 0.235335454 -0.33004868
v -0.28125 0.235335454 -0.33004868
v -0.28125 0.264664769 -0.33004868
v -0.307388306 0.264664769 -0.33004868
v -0.307388306 0.279326171 -0.344710231
v -0.28125 0.279326171 -0.344710231
v -0.307388306 0.220673829 -0.374039441
v -0.28125 0.220673829 -0.374039441
v -0.28125 0.235335454 -0.388701022
v -0.307388306 0.235335454 -0.388701022
v -0.307388306 0.264664769 -0.388701022
v -0.28125 0.264664769 -0.388701022
v -0.28125 0.279326171 -0.374039441
v -0.307388306 0.279326171 -0.374039441
v -0.307388306 -0.264664471 -0.33004868
v -0.307388306 -0.235335246 -0.33004868
v -0.28125 -0.235335216 -0.33004868
v -0.28125 -0.264664501 -0.33004868
v -0.28125 -0.264664501 -0.388701022
v -0.28125 -0.235335216 -0.388701022
v -0.307388306 -0.235335246 -0.388701022
v -0.307388306 -0.264664471 -0.388701022
v -0.307388306 -0.220673844 -0.344710231
v -0.307388306 -0.220673844 -0.374039441
v -0.28125 -0.2206738 -0.374039441
v -0.28125 -0.2206738 -0.344710231
v -0.307388306 -0.279326171 -0.374039441
v -0.307388306 -0.279326171 -0.344710231
v -0.28125 -0.279326141 -0.344710231
v -0.28125 -0.279326141 -0.374039441
v -0.307388306 -0.264664471 -0.33004868
v -0.307388306 -0.279326171 -0.344710231
v -0.307388306 -0.279326171 -0.374039441
v -0.307388306 -0.264664471 -0.388701022
v -0.307388306 -0.235335246 -0.33004868
v -0.307388306 -0.235335246 -0.388701022
v -0.307388306 -0.220673844 -0.344710231
v -0.307388306 -0.220673844 -0.374039441
v -0.28125 -0.279326141 -0.344710231
v -0.307388306 -0.279326171 -0.344710231
v -0.307388306 -0.264664471 -0.33004868
v -0.28125 -0.264664501 -0.33004868
v -0.28125 -0.235335216 -0.33004868
v -0.307388306 -0.235335246 -0.33004868
v -0.307388306 -0.220673844 -0.344710231
v -0.28125 -0.2206738 -0.344710231
v -0.307388306 -0.279326171 -0.374039441
v -0.28125 -0.279326141 -0.374039441
v -0.28125 -0.264664501 -0.388701022
v -0.307388306 -0.264664471 -0.388701022
v -0.307388306 -0.235335246 -0.388701022
v -0.28125 -0.235335216 -0.388701022
v -0.28125 -0.2206738 -0.374039441
v -0.307388306 -0.220673844 -0.374039441
vt 0.840607464 0.0248199385
vt 0.840607464 0.076453954
vt 0.866424501 0.076453954
vt 0.866424501 0.0248199385
vt 0.840607464 0.076453954
vt 0.866424501 0.076453954
vt 0.866424501 0.0248199385
vt 0.840607464 0.0248199385
vt 0.967802703 0.0322989225
vt 0.949444771 0.041477859
vt 0.949444771 0.0322989225
vt 0.967802703 0.0506567955
vt 0.958623767 0.0598357916
vt 0.940265834 0.041477859
vt 0.940265834 0.0598357916
vt 0.842410505 0.0396268368
vt 0.842410505 0.0491856933
vt 0.844800234 0.0491856933
vt 0.844800234 0.0396268368
vt 0.847299457 0.0491856933
vt 0.852078915 0.0491856933
vt 0.852078915 0.0396268368
vt 0.847299457 0.0396268368
vt 0.852182686 0.0491856933
vt 0.854572356 0.0491856933
vt 0.854572356 0.0396268368
vt 0.852182686 0.0396268368
vt 0.949444771 0.041477859
vt 0.940265834 0.041477859
vt 0.940265834 0.0598357916
vt 0.958623767 0.0598357916
vt 0.967802703 0.0506567955
vt 0.949444771 0.0322989225
vt 0.967802703 0.0322989225
vt 0.853380442 0.0588076562
vt 0.858159781 0.0588076562
vt 0.858159781 0.0492487699
vt 0.853380442 0.0492487699
vt 0.847299457 0.0491856933
vt 0.847299457 0.0396268368
vt 0.844909787 0.0396268368
vt 0.844909787 0.0491856933
vt 0.505949438 0.700985551
vt 0.505949438 0.717445076
vt 0.588246763 0.717445076
vt 0.604706049 0.700985551
vt 0.588246763 0.799742401
vt 0.604706049 0.799742401
vt 0.588246763 0.717445076
vt 0.505949438 0.717445076
vt 0.505949438 0.700985551
vt 0.604706049 0.700985551
vt 0.588246763 0.799742401
vt 0.604706049 0.799742401
vt 0.213399649 0.799953282
vt 0.213399649 0.745789945
vt 0.582353115 0.745789945
vt 0.582353115 0.799953282
vt 0.213399649 0.745789945
vt 0.582353115 0.745789945
vt 0.582353115 0.721419036
vt 0.213399649 0.721419156
vt 0.213399649 0.745789945
vt 0.582353175 0.745789945
vt 0.582353115 0.721419036
vt 0.213399649 0.721419156
vt 0.582353115 0.799953282
vt 0.582353115 0.745789945
vt 0.213399649 0.745789945
vt 0.213399619 0.799953282
vt 0.531802356 0.637744606
vt 0.531802416 0.676430404
vt 0.566279411 0.676430225
vt 0.566279471 0.637744844
vt 0.566279471 0.637744844
vt 0.566279411 0.676430225
vt 0.531802416 0.676430404
vt 0.531802356 0.637744606
vt 0.531802416 0.676430464
vt 0.531802416 0.637744665
vt 0.566279471 0.637744784
vt 0.566279471 0.676430345
vt 0.531802475 0.676430404
vt 0.531802416 0.637744665
vt 0.566279411 0.637744784
vt 0.566279471 0.676430285
vt 0.473608375 0.618405759
vt 0.45426929 0.637744784
vt 0.45426929 0.676430583
vt 0.473608375 0.69576931
vt 0.512294173 0.618405759
vt 0.512294173 0.69576931
vt 0.531633139 0.637744784
vt 0.531633139 0.676430583
vt 0.566279411 0.637744784
vt 0.531802416 0.637744665
vt 0.531802475 0.61840564
vt 0.566279471 0.618405879
vt 0.566279471 0.69576925
vt 0.531802416 0.695769429
vt 0.531802416 0.676430464
vt 0.566279471 0.676430345
vt 0.531802475 0.676430404
vt 0.566279471 0.676430285
vt 0.566279471 0.69576925
vt 0.531802416 0.695769429
vt 0.531802475 0.61840564
vt 0.566279471 0.618405879
vt 0.566279471 0.637744784
vt 0.531802416 0.637744665
vt 0.531802356 0.637744606
vt 0.531802416 0.676430404
vt 0.566279471 0.676430225
vt 0.566279471 0.637744844
vt 0.566279471 0.637744844
vt 0.566279471 0.676430225
vt 0.531802416 0.676430404
vt 0.531802356 0.637744606
vt 0.531802416 0.676430464
vt 0.531802416 0.637744665
vt 0.566279471 0.637744784
vt 0.566279471 0.676430345
vt 0.531802475 0.676430404
vt 0.531802416 0.637744665
vt 0.566279411 0.637744784
vt 0.566279471 0.676430285
vt 0.473608375 0.618405759
vt 0.45426929 0.637744784
vt 0.45426929 0.676430583
vt 0.473608375 0.69576931
vt 0.512294173 0.618405759
vt 0.512294173 0.69576931
vt 0.531633139 0.637744784
vt 0.531633139 0.676430583
vt 0.566279411 0.637744784
vt 0.531802416 0.637744665
vt 0.531802475 0.61840564
vt 0.566279471 0.618405879
vt 0.566279471 0.69576925
vt 0.531802416 0.695769429
vt 0.531802416 0.676430464
vt 0.566279471 0.676430345
vt 0.531802475 0.676430404
vt 0.566279471 0.676430285
vt 0.566279471 0.69576925
vt 0.531802416 0.695769429
vt 0.531802475 0.61840564
vt 0.566279471 0.618405879
vt 0.566279471 0.637744784
vt 0.531802416 0.637744665
vt 0.531802356 0.637744606
vt 0.531802416 0.676430404
vt 0.566279411 0.676430225
vt 0.566279471 0.637744844
vt 0.566279471 0.637744844
vt 0.566279411 0.676430225
vt 0.531802416 0.676430404
vt 0.531802356 0.637744606
vt 0.531802416 0.676430464
vt 0.531802416 0.637744665
vt 0.566279471 0.637744784
vt 0.566279471 0.676430345
vt 0.531802475 0.676430404
vt 0.531802416 0.637744665
vt 0.566279411 0.637744784
vt 0.566279471 0.676430285
vt 0.531633139 0.637744784
vt 0.512294173 0.618405759
vt 0.473608375 0.618405759
vt 0.45426929 0.637744784
vt 0.531633139 0.676430583
vt 0.45426929 0.676430583
vt 0.512294173 0.69576931
vt 0.473608375 0.69576931
vt 0.566279411 0.637744784
vt 0.531802416 0.637744665
vt 0.531802475 0.61840564
vt 0.566279471 0.618405879
vt 0.566279471 0.69576925
vt 0.531802416 0.695769429
vt 0.531802416 0.676430464
vt 0.566279471 0.676430345
vt 0.531802475 0.676430404
vt 0.566279471 0.676430285
vt 0.566279471 0.69576925
vt 0.531802416 0.695769429
vt 0.531802475 0.61840564
vt 0.566279471 0.618405879
vt 0.566279471 0.637744784
vt 0.531802416 0.637744665
vt 0.531802356 0.637744606
vt 0.531802416 0.676430404
vt 0.566279471 0.676430225
vt 0.566279471 0.637744844
vt 0.566279471 0.637744844
vt 0.566279471 0.676430225
vt 0.531802416 0.676430404
vt 0.531802356 0.637744606
vt 0.531802416 0.676430464
vt 0.531802416 0.637744665
vt 0.566279471 0.637744784
vt 0.566279471 0.676430345
vt 0.531802475 0.676430404
vt 0.531802416 0.637744665
vt 0.566279411 0.637744784
vt 0.566279471 0.676430285
vt 0.531633139 0.637744784
vt 0.512294173 0.618405759
vt 0.473608375 0.618405759
vt 0.45426929 0.637744784
vt 0.531633139 0.676430583
vt 0.45426929 0.676430583
vt 0.512294173 0.69576931
vt 0.473608375 0.69576931
vt 0.566279411 0.637744784
vt 0.531802416 0.637744665
vt 0.531802475 0.61840564
vt 0.566279471 0.618405879
vt 0.566279471 0.69576925
vt 0.531802416 0.695769429
vt 0.531802416 0.676430464
vt 0.566279471 0.676430345
vt 0.531802475 0.676430404
vt 0.566279471 0.676430285
vt 0.566279471 0.69576925
vt 0.531802416 0.695769429
vt 0.531802475 0.61840564
vt 0.566279471 0.618405879
vt 0.566279471 0.637744784
vt 0.531802416 0.637744665
vn -0 0 -1
vn -0 0 -1
vn -0 0 -1
vn -0 0 -1
vn -1 0 0
vn -1 0 0
vn -1 0 0
vn -1 0 0
vn -0 1 0
vn -0 1 0
vn -0 1 0
vn -0 1 0
vn -0 1 0
vn -0 1 0
vn -0 1 0
vn -1 0 0
vn -1 0 0
vn -1 0 0
vn -1 0 0
vn 1 0 0
vn 1 0 0
vn 1 0 0
vn 1 0 0
vn -0 0 -1
vn -0 0 -1
vn -0 0 -1
vn -0 0 -1
vn -0 -1 0
vn -0 -1 0
vn -0 -1 0
vn -0 -1 0
vn -0 -1 0
vn -0 -1 0
vn -0 -1 0
vn -0 0 1
vn -0 0 1
vn -0 0 1
vn -0 0 1
vn 0.707106769 0 0.707106769
vn 0.707106769 0 0.707106769
vn 0.707106769 0 0.707106769
vn 0.707106769 0 0.707106769
vn -0 1 0
vn -0 1 0
vn -0 1 0
vn -0 1 0
vn -0 1 0
vn -0 1 0
vn -0 -1 0
vn -0 -1 0
vn -0 -1 0
vn -0 -1 0
vn -0 -1 0
vn -0 -1 0
vn -0 0 -1
vn -0 0 -1
vn -0 0 -1
vn -0 0 -1
vn -1 0 0
vn -1 0 0
vn -1 0 0
vn -1 0 0
vn -0 0 -1
vn -0 0 -1
vn -0 0 -1
vn -0 0 -1
vn -1 0 0
vn -1 0 0
vn -1 0 0
vn -1 0 0
vn -1 0 0
vn -1 0 0
vn -1 0 0
vn -1 0 0
vn 1 0 0
vn 1 0 0
vn 1 0 0
vn 1 0 0
vn -0 1 0
vn -0 1 0
vn -0 1 0
vn -0 1 0
vn -0 -1 0
vn -0 -1 0
vn -0 -1 0
vn -0 -1 0
vn 3.04144169E-06 0 -1
vn 3.04144169E-06 0 -1
vn 3.04144191E-06 0 -1
vn 3.04144191E-06 0 -1
vn 3.04144169E-06 0 -1
vn 3.04144191E-06 0 -1
vn 3.04144169E-06 0 -1
vn 3.04144191E-06 0 -1
vn -0.707108855 -0.707104623 0
vn -0.707108855 -0.707104623 0
vn -0.707108855 -0.707104623 0
vn -0.707108855 -0.707104623 0
vn -0.707103252 0.707110286 0
vn -0.707103252 0.707110286 0
vn -0.707103252 0.707110286 0
vn -0.707103252 0.707110286 0
vn 0.707108855 -0.707104623 0
vn 0.707108855 -0.707104623 0
vn 0.707108855 -0.707104623 0
vn 0.707108855 -0.707104623 0
vn 0.707103252 0.707110286 0
vn 0.707103252 0.707110286 0
vn 0.707103252 0.707110286 0
vn 0.707103252 0.707110286 0
vn -1 0 0
vn -1 0 0
vn -1 0 0
vn -1 0 0
vn 1 0 0
vn 1 0 0
vn 1 0 0
vn 1 0 0
vn -0 1 -9.95204118E-07
vn -0 1 -9.95204118E-07
vn -0 1 -9.95204118E-07
vn -0 1 -9.95204118E-07
vn -0 -1 9.95204118E-07
vn -0 -1 9.95204118E-07
vn -0 -1 9.95204118E-07
vn -0 -1 9.95204118E-07
vn 3.04144305E-06 0 -1
vn 3.04144351E-06 0 -1
vn 3.04144305E-06 0 -1
vn 3.04144351E-06 0 -1
vn 3.04144305E-06 0 -1
vn 3.04144351E-06 0 -1
vn 3.04144351E-06 0 -1
vn 3.04144305E-06 0 -1
vn -0.707109749 -0.707103729 0
vn -0.707109809 -0.70710367 0
vn -0.707109809 -0.70710367 0
vn -0.707109749 -0.707103729 0
vn -0.707104146 0.707109332 -7.03864487E-07
vn -0.707104146 0.707109332 -7.03864487E-07
vn -0.707104146 0.707109332 -7.03864487E-07
vn -0.707104146 0.707109332 -7.03864487E-07
vn 0.707109809 -0.70710367 0
vn 0.707109749 -0.707103729 0
vn 0.707109749 -0.707103729 0
vn 0.707109809 -0.70710367 0
vn 0.707104146 0.707109332 -7.03864487E-07
vn 0.707104146 0.707109332 -7.03864487E-07
vn 0.707104146 0.707109332 -7.03864487E-07
vn 0.707104146 0.707109332 -7.03864487E-07
vn -0 0 1
vn -0 0 1
vn -0 0 1
vn -0 0 1
vn -0 0 -1
vn -0 0 -1
vn -0 0 -1
vn -0 0 -1
vn -0 1 0
vn -0 1 0
vn -0 1 0
vn -0 1 0
vn -0 -1 0
vn -0 -1 0
vn -0 -1 0
vn -0 -1 0
vn -1 0 0
vn -1 0 0
vn -1 0 0
vn -1 0 0
vn -1 0 0
vn -1 0 0
vn -1 0 0
vn -1 0 0
vn -0 -0.707104981 0.707108557
vn -0 -0.707104981 0.707108557
vn -0 -0.707104981 0.707108557
vn -0 -0.707104981 0.707108557
vn -0 0.707110286 0.707103252
vn -0 0.707110286 0.707103252
vn -0 0.707110286 0.707103252
vn -0 0.707110286 0.707103252
vn -0 -0.707104981 -0.707108557
vn -0 -0.707104981 -0.707108557
vn -0 -0.707104981 -0.707108557
vn -0 -0.707104981 -0.707108557
vn -0 0.707110286 -0.707103252
vn -0 0.707110286 -0.707103252
vn -0 0.707110286 -0.707103252
vn -0 0.707110286 -0.707103252
vn -7.96161748E-06 0 1
vn -7.96161748E-06 0 1
vn -7.96161748E-06 0 1
vn -7.96161748E-06 0 1
vn -0 0 -1
vn -0 0 -1
vn -0 0 -1
vn -0 0 -1
vn -1.45942829E-06 1 0
vn -1.45942829E-06 1 0
vn -1.45942829E-06 1 0
vn -1.45942829E-06 1 0
vn 1.45942829E-06 -1 0
vn 1.45942829E-06 -1 0
vn 1.45942829E-06 -1 0
vn 1.45942829E-06 -1 0
vn -1 0 0
vn -1 0 0
vn -1 0 0
vn -1 0 0
vn -1 0 0
vn -1 0 0
vn -1 0 0
vn -1 0 0
vn 1.73925264E-06 -0.707103968 0.707109511
vn 1.73925218E-06 -0.707103968 0.707109511
vn 1.73925218E-06 -0.707103968 0.707109511
vn 1.73925264E-06 -0.707103968 0.707109511
vn 7.07291917E-07 0.707110643 0.707102835
vn 7.07291917E-07 0.707110643 0.707102835
vn 7.07291917E-07 0.707110643 0.707102835
vn 7.07291917E-07 0.707110643 0.707102835
vn -3.80361689E-06 -0.707103968 -0.707109511
vn -3.80361689E-06 -0.707103968 -0.707109511
vn -3.80361689E-06 -0.707103968 -0.707109511
vn -3.80361689E-06 -0.707103968 -0.707109511
vn 7.95296614E-07 0.707110643 -0.707102835
vn 7.95296501E-07 0.707110643 -0.707102835
vn 7.95296614E-07 0.707110643 -0.707102835
vn 7.95296501E-07 0.707110643 -0.707102835
g WallCorner_0
f 3/3/3 2/2/2 1/1/1
f 4/4/4 3/3/3 1/1/1
f 7/7/7 6/6/6 5/5/5
f 8/8/8 7/7/7 5/5/5
f 11/11/11 10/10/10 9/9/9
f 10/10/10 12/12/12 9/9/9
f 12/12/12 10/10/10 13/13/13
f 10/10/10 14/14/14 13/13/13
f 14/14/14 15/15/15 13/13/13
f 18/18/18 17/17/17 16/16/16
f 19/19/19 18/18/18 16/16/16
f 22/22/22 21/21/21 20/20/20
f 23/23/23 22/22/22 20/20/20
f 26/26/26 25/25/25 24/24/24
f 27/27/27 26/26/26 24/24/24
f 30/30/30 29/29/29 28/28/28
f 31/31/31 30/30/30 28/28/28
f 32/32/32 31/31/31 28/28/28
f 28/28/28 33/33/33 32/32/32
f 33/33/33 34/34/34 32/32/32
f 37/37/37 36/36/36 35/35/35
f 38/38/38 37/37/37 35/35/35
f 41/41/41 40/40/40 39/39/39
f 42/42/42 41/41/41 39/39/39
f 45/45/45 44/44/44 43/43/43
f 46/46/46 45/45/45 43/43/43
f 47/47/47 45/45/45 46/46/46
f 48/48/48 47/47/47 46/46/46
f 51/51/51 50/50/50 49/49/49
f 52/52/52 51/51/51 49/49/49
f 52/52/52 49/49/49 53/53/53
f 54/54/54 52/52/52 53/53/53
f 57/57/57 56/56/56 55/55/55
f 58/58/58 57/57/57 55/55/55
f 61/61/61 60/60/60 59/59/59
f 62/62/62 61/61/61 59/59/59
f 65/65/65 64/64/64 63/63/63
f 66/66/66 65/65/65 63/63/63
f 69/69/69 68/68/68 67/67/67
f 70/70/70 69/69/69 67/67/67
f 73/73/73 72/72/72 71/71/71
f 74/74/74 73/73/73 71/71/71
f 77/77/77 76/76/76 75/75/75
f 78/78/78 77/77/77 75/75/75
f 81/81/81 80/80/80 79/79/79
f 82/82/82 81/81/81 79/79/79
f 85/85/85 84/84/84 83/83/83
f 86/86/86 85/85/85 83/83/83
f 89/89/89 88/88/88 87/87/87
f 87/87/87 90/90/90 89/89/89
f 87/87/87 91/91/91 90/90/90
f 91/91/91 92/92/92 90/90/90
f 91/91/91 93/93/93 92/92/92
f 93/93/93 94/94/94 92/92/92
f 97/97/97 96/96/96 95/95/95
f 98/98/98 97/97/97 95/95/95
f 101/101/101 100/100/100 99/99/99
f 102/102/102 101/101/101 99/99/99
f 105/105/105 104/104/104 103/103/103
f 106/106/106 105/105/105 103/103/103
f 109/109/109 108/108/108 107/107/107
f 110/110/110 109/109/109 107/107/107
f 113/113/113 112/112/112 111/111/111
f 114/114/114 113/113/113 111/111/111
f 117/117/117 116/116/116 115/115/115
f 118/118/118 117/117/117 115/115/115
f 121/121/121 120/120/120 119/119/119
f 122/122/122 121/121/121 119/119/119
f 125/125/125 124/124/124 123/123/123
f 126/126/126 125/125/125 123/123/123
f 129/129/129 128/128/128 127/127/127
f 127/127/127 130/130/130 129/129/129
f 127/127/127 131/131/131 130/130/130
f 131/131/131 132/132/132 130/130/130
f 131/131/131 133/133/133 132/132/132
f 133/133/133 134/134/134 132/132/132
f 137/137/137 136/136/136 135/135/135
f 138/138/138 137/137/137 135/135/135
f 141/141/141 140/140/140 139/139/139
f 142/142/142 141/141/141 139/139/139
f 145/145/145 144/144/144 143/143/143
f 146/146/146 145/145/145 143/143/143
f 149/149/149 148/148/148 147/147/147
f 150/150/150 149/149/149 147/147/147
f 153/153/153 152/152/152 151/151/151
f 154/154/154 153/153/153 151/151/151
f 157/157/157 156/156/156 155/155/155
f 158/158/158 157/157/157 155/155/155
f 161/161/161 160/160/160 159/159/159
f 162/162/162 161/161/161 159/159/159
f 165/165/165 164/164/164 163/163/163
f 166/166/166 165/165/165 163/163/163
f 169/169/169 168/168/168 167/167/167
f 167/167/167 170/170/170 169/169/169
f 167/167/167 171/171/171 170/170/170
f 171/171/171 172/172/172 170/170/170
f 171/171/171 173/173/173 172/172/172
f 173/173/173 174/174/174 172/172/172
f 177/177/177 176/176/176 175/175/175
f 178/178/178 177/177/177 175/175/175
f 181/181/181 180/180/180 179/179/179
f 182/182/182 181/181/181 179/179/179
f 185/185/185 184/184/184 183/183/183
f 186/186/186 185/185/185 183/183/183
f 189/189/189 188/188/188 187/187/187
f 190/190/190 189/189/189 187/187/187
f 193/193/193 192/192/192 191/191/191
f 194/194/194 193/193/193 191/191/191
f 197/197/197 196/196/196 195/195/195
f 198/198/198 197/197/197 195/195/195
f 201/201/201 200/200/200 199/199/199
f 202/202/202 201/201/201 199/199/199
f 205/205/205 204/204/204 203/203/203
f 206/206/206 205/205/205 203/203/203
f 209/209/209 208/208/208 207/207/207
f 207/207/207 210/210/210 209/209/209
f 207/207/207 211/211/211 210/210/210
f 211/211/211 212/212/212 210/210/210
f 211/211/211 213/213/213 212/212/212
f 213/213/213 214/214/214 212/212/212
f 217/217/217 216/216/216 215/215/215
f 218/218/218 217/217/217 215/215/215
f 221/221/221 220/220/220 219/219/219
f 222/222/222 221/221/221 219/219/219
f 225/225/225 224/224/224 223/223/223
f 226/226/226 225/225/225 223/223/223
f 229/229/229 228/228/228 227/227/227
f 230/230/230 229/229/229 227/227/227
