g MetalRoof2Way
v 0.0999902338 0.0250100121 -0.0999902338
v 0.0999902338 0.0250100121 -0.5
v 0.5 -0.375 -0.5
v 0.0999902338 0.0250100121 -0.0999902338
v 0.5 -0.375 -0.5
v 0.5 0.0250100121 -0.0999902338
v 0.5 0.0250100121 0.0999902338
v 0.5 0.0250100121 -0.0999902338
v 0.5 -0.375 -0.5
v 0.5 -0.375 0.5
v 0.5 -0.5 -0.5
v 0.5 -0.5 0.5
v 0.0999902338 0.0250100121 -0.5
v -0.0999902338 0.0250100121 -0.5
v -0.5 -0.375 -0.5
v 0.5 -0.375 -0.5
v -0.5 -0.5 -0.5
v 0.5 -0.5 -0.5
v -0.5 -0.5 -0.5
v -0.5 -0.5 0.5
v 0.5 -0.5 -0.5
v 0.5 -0.5 0.5
v 0.5 0.0250100121 -0.0999902338
v 0.5 0.0250100121 0.0999902338
v 0.0999902338 0.0250100121 -0.0999902338
v -0.0999902338 0.0250100121 0.0999902338
v -0.0999902338 0.0250100121 -0.5
v 0.0999902338 0.0250100121 -0.5
v -0.5 -0.375 0.5
v -0.0999902338 0.0250100121 0.0999902338
v 0.5 -0.375 0.5
v 0.5 0.0250100121 0.0999902338
v -0.0999902338 0.0250100121 -0.5
v -0.0999902338 0.0250100121 0.0999902338
v -0.5 -0.375 -0.5
v -0.5 -0.375 0.5
v -0.5 -0.375 0.5
v -0.5 -0.5 0.5
v -0.5 -0.375 -0.5
v -0.5 -0.5 -0.5
v 0.5 -0.375 0.5
v 0.5 -0.5 0.5
v -0.5 -0.375 0.5
v -0.5 -0.5 0.5
vt 0.930436492 0.0560946465
vt 0.939300179 0.0560946465
vt 0.939300179 0.0472308099
vt 0.92782712 0.0562909245
vt 0.936691046 0.0651546121
vt 0.936691046 0.0562909245
vt 0.939460993 0.0381709486
vt 0.939460993 0.0337395519
vt 0.930597126 0.0248757247
vt 0.930597126 0.0470347106
vt 0.92782712 0.0248757247
vt 0.92782712 0.0470347106
vt 0.939807236 0.0337395519
vt 0.939807236 0.0381709486
vt 0.948670745 0.0470347106
vt 0.948670745 0.0248757247
vt 0.951440811 0.0470347106
vt 0.951440811 0.0248757247
vt 0.951777697 0.0248757247
vt 0.951777697 0.0470347106
vt 0.973936558 0.0248757247
vt 0.973936558 0.0470347106
vt 0.952896833 0.051662147
vt 0.952896833 0.0472308099
vt 0.944033027 0.051662147
vt 0.939601898 0.0472308099
vt 0.939601898 0.060526073
vt 0.944033027 0.060526073
vt 0.967903495 0.0693898797
vt 0.976767242 0.060526073
vt 0.967903495 0.0472308099
vt 0.976767242 0.0472308099
vt 0.964831948 0.0693898797
vt 0.964831948 0.0560946465
vt 0.955968142 0.0693898797
vt 0.955968142 0.0472308099
vt 0.955968142 0.0472308099
vt 0.953198314 0.0472308099
vt 0.955968142 0.0693898797
vt 0.953198314 0.0693898797
vt 0.967903495 0.0472308099
vt 0.965133667 0.0472308099
vt 0.967903495 0.0693898797
vt 0.965133667 0.0693898797
vn 0.707106769 0.707106769 0
vn 0.707106769 0.707106769 0
vn 0.707106769 0.707106769 0
vn -0 0.707106531 -0.707107008
vn -0 0.707106531 -0.707107008
vn -0 0.70710659 -0.707106948
vn 1 0 0
vn 1 0 0
vn 1 0 0
vn 1 0 0
vn 1 0 0
vn 1 0 0
vn -0 0 -1
vn -0 0 -1
vn -0 0 -1
vn -0 0 -1
vn -0 0 -1
vn -0 0 -1
vn -0 -1 0
vn -0 -1 0
vn -0 -1 0
vn -0 -1 0
vn -0 1 0
vn -0 1 0
vn -0 1 0
vn -0 1 0
vn -0 1 0
vn -0 1 0
vn -0 0.70710659 0.707106948
vn -0 0.70710659 0.707106948
vn -0 0.70710659 0.707106948
vn -0 0.70710659 0.707106888
vn -0.707106769 0.707106769 0
vn -0.707107008 0.707106471 0
vn -0.707106948 0.70710659 0
vn -0.707107067 0.707106411 0
vn -1 0 0
vn -1 0 0
vn -1 0 0
vn -1 0 0
vn -0 0 1
vn -0 0 1
vn -0 0 1
vn -0 0 1
g MetalRoof2Way_0
f 3/3/3 2/2/2 1/1/1
f 6/6/6 5/5/5 4/4/4
f 9/9/9 8/8/8 7/7/7
f 9/9/9 7/7/7 10/10/10
f 10/10/10 11/11/11 9/9/9
f 10/10/10 12/12/12 11/11/11
f 15/15/15 14/14/14 13/13/13
f 15/15/15 13/13/13 16/16/16
f 16/16/16 17/17/17 15/15/15
f 16/16/16 18/18/18 17/17/17
f 21/21/21 20/20/20 19/19/19
f 21/21/21 22/22/22 20/20/20
f 25/25/25 24/24/24 23/23/23
f 25/25/25 26/26/26 24/24/24
f 25/25/25 27/27/27 26/26/26
f 25/25/25 28/28/28 27/27/27
f 31/31/31 30/30/30 29/29/29
f 31/31/31 32/32/32 30/30/30
f 35/35/35 34/34/34 33/33/33
f 35/35/35 36/36/36 34/34/34
f 39/39/39 38/38/38 37/37/37
f 39/39/39 40/40/40 38/38/38
f 43/43/43 42/42/42 41/41/41
f 43/43/43 44/44/44 42/42/42
