g RC_HalfSlopeB
v 0.5 0.5 -0.5
v 0.5 0.5 -0.375
v -0.5 0.5 -0.375
v -0.5 0.5 -0.5
v 0.5 0.5 -0.5
v -0.5 0.5 -0.5
v -0.5 -0.5 -0.5
v 0.5 -0.5 -0.5
v 0.5 0.5 -0.5
v 0.5 -0.5 -0.5
v 0.5 0.5 -0.375
v 0.5 0.0916666389 0.50000006
v 0.5 -0.5 0.5
v -0.5 -0.5 -0.5
v -0.5 0.0916666389 0.50000006
v -0.5 -0.5 0.5
v -0.5 0.5 -0.375
v -0.5 0.5 -0.5
v 0.5 -0.5 0.5
v 0.5 -0.5 -0.5
v -0.5 -0.5 -0.5
v -0.5 -0.5 0.5
v -0.5 0.0916666389 0.50000006
v -0.5 0.5 -0.375
v 0.5 0.5 -0.375
v 0.5 0.0916666389 0.50000006
v -0.5 0.0916666389 0.50000006
v 0.5 0.0916666389 0.50000006
v 0.5 -0.5 0.5
v -0.5 -0.5 0.5
vt 0.940815389 0.0417983234
vt 0.940815389 0.0399609804
vt 0.926116824 0.0399609804
vt 0.926116824 0.0417983234
vt 0.955788493 0.0270997584
vt 0.941089869 0.0270997584
vt 0.941089869 0.0417983234
vt 0.955788493 0.0417983234
vt 0.967908323 0.0419657826
vt 0.953209758 0.0419657826
vt 0.967908323 0.0438030958
vt 0.961906433 0.0566643476
vt 0.953209758 0.0566643476
vt 0.93825376 0.0566643476
vt 0.946950436 0.0419657826
vt 0.93825376 0.0419657826
vt 0.952952325 0.0548269749
vt 0.952952325 0.0566643476
vt 0.940815389 0.0715303421
vt 0.940815389 0.0568317771
vt 0.926116824 0.0568317771
vt 0.926116824 0.0715303421
vt 0.926116824 0.0270997584
vt 0.926116824 0.0399609804
vt 0.940815389 0.0399609804
vt 0.940815389 0.0270997584
vt 0.949786544 0.0715304017
vt 0.949786544 0.0568318367
vt 0.941089928 0.0568318367
vt 0.941089928 0.0715304017
vn -0 1 0
vn -0 1 0
vn -0 1 0
vn -0 1 0
vn -0 0 -1
vn -0 0 -1
vn -0 0 -1
vn -0 0 -1
vn 1 0 0
vn 1 0 0
vn 1 0 0
vn 1 0 0
vn 1 0 0
vn -1 0 0
vn -1 0 0
vn -1 0 0
vn -1 0 0
vn -1 0 0
vn -0 -1 0
vn -0 -1 0
vn -0 -1 0
vn -0 -1 0
vn -0 0.906183124 0.422885478
vn -0 0.906183124 0.422885478
vn -0 0.906183124 0.422885478
vn -0 0.906183124 0.422885478
vn -0 -1.28947519E-07 1
vn -0 -1.28947519E-07 1
vn -0 -1.28947519E-07 1
vn -0 -1.28947519E-07 1
g RC_HalfSlopeB_0
f 3/3/3 2/2/2 1/1/1
f 4/4/4 3/3/3 1/1/1
f 7/7/7 6/6/6 5/5/5
f 8/8/8 7/7/7 5/5/5
f 11/11/11 10/10/10 9/9/9
f 10/10/10 11/11/11 12/12/12
f 13/13/13 10/10/10 12/12/12
f 16/16/16 15/15/15 14/14/14
f 15/15/15 17/17/17 14/14/14
f 14/14/14 17/17/17 18/18/18
f 21/21/21 20/20/20 19/19/19
f 22/22/22 21/21/21 19/19/19
f 25/25/25 24/24/24 23/23/23
f 26/26/26 25/25/25 23/23/23
f 29/29/29 28/28/28 27/27/27
f 30/30/30 29/29/29 27/27/27
