g FullSideCube
v -0.5 -0.5 -0.5
v -0.5 0.5 -0.5
v -0.5 0.5 0.5
v -0.5 -0.5 0.5
v -0.5 0.5 -0.5
v 0.5 0.5 -0.5
v 0.5 0.5 0.5
v -0.5 0.5 0.5
v 0.5 0.5 -0.5
v 0.5 -0.5 -0.5
v 0.5 -0.5 0.5
v 0.5 0.5 0.5
v 0.5 -0.5 -0.5
v -0.5 -0.5 -0.5
v -0.5 -0.5 0.5
v 0.5 -0.5 0.5
v -0.5 -0.5 0.5
v -0.5 0.5 0.5
v 0.5 0.5 0.5
v 0.5 -0.5 0.5
v 0.5 -0.5 -0.5
v 0.5 0.5 -0.5
v -0.5 0.5 -0.5
v -0.5 -0.5 -0.5
vt 0.845386267 0.0387492292
vt 0.845386267 0.0397236049
vt 0.846360624 0.0397236049
vt 0.846360624 0.0387492292
vt 0.864080012 0.063024126
vt 0.864080012 0.0659446716
vt 0.86700058 0.0659446716
vt 0.86700058 0.063024126
vt 0.847207308 0.0397347808
vt 0.847207308 0.0407092571
vt 0.848181784 0.0407092571
vt 0.848181784 0.0397347808
vt 0.863580525 0.0659782514
vt 0.863580525 0.068898797
vt 0.866501093 0.068898797
vt 0.866501093 0.0659782514
vt 0.845386267 0.0407204032
vt 0.845386267 0.0416948795
vt 0.846360624 0.0416948795
vt 0.846360624 0.0407204032
vt 0.84638232 0.0407204032
vt 0.84638232 0.0416948795
vt 0.847356737 0.0416948795
vt 0.847356737 0.0407204032
vn -1 0 0
vn -1 0 0
vn -1 0 0
vn -1 0 0
vn -0 1 0
vn -0 1 0
vn -0 1 0
vn -0 1 0
vn 1 0 0
vn 1 0 0
vn 1 0 0
vn 1 0 0
vn -0 -1 0
vn -0 -1 0
vn -0 -1 0
vn -0 -1 0
vn -0 0 1
vn -0 0 1
vn -0 0 1
vn -0 0 1
vn -0 0 -1
vn -0 0 -1
vn -0 0 -1
vn -0 0 -1
g FullSideCube_0
f 3/3/3 2/2/2 1/1/1
f 4/4/4 3/3/3 1/1/1
f 7/7/7 6/6/6 5/5/5
f 8/8/8 7/7/7 5/5/5
f 11/11/11 10/10/10 9/9/9
f 12/12/12 11/11/11 9/9/9
f 15/15/15 14/14/14 13/13/13
f 16/16/16 15/15/15 13/13/13
f 19/19/19 18/18/18 17/17/17
f 20/20/20 19/19/19 17/17/17
f 23/23/23 22/22/22 21/21/21
f 24/24/24 23/23/23 21/21/21
