g RC_Thin_Column
v -0.0854867175 0.5 0.170956343
v 0.0854867175 0.5 0.170956343
v 0.0854867175 -0.5 0.170956343
v -0.0854867175 -0.5 0.170956343
v -0.0854867175 -0.5 -0.170956343
v 0.0854867175 -0.5 -0.170956343
v 0.0854867175 0.5 -0.170956343
v -0.0854867175 0.5 -0.170956343
v 0.170956343 0.5 0.0854867175
v 0.170956343 0.5 -0.0854867175
v 0.170956343 -0.5 -0.0854867175
v 0.170956343 -0.5 0.0854867175
v -0.170956343 0.5 -0.0854867175
v -0.170956343 0.5 0.0854867175
v -0.170956343 -0.5 0.0854867175
v -0.170956343 -0.5 -0.0854867175
v -0.170956343 0.5 -0.0854867175
v -0.0854867175 0.5 -0.170956343
v 0.0854867175 0.5 -0.170956343
v 0.170956343 0.5 -0.0854867175
v -0.170956343 0.5 0.0854867175
v 0.170956343 0.5 0.0854867175
v -0.0854867175 0.5 0.170956343
v 0.0854867175 0.5 0.170956343
v 0.170956343 -0.5 -0.0854867175
v 0.0854867175 -0.5 -0.170956343
v -0.0854867175 -0.5 -0.170956343
v -0.170956343 -0.5 -0.0854867175
v 0.170956343 -0.5 0.0854867175
v -0.170956343 -0.5 0.0854867175
v 0.0854867175 -0.5 0.170956343
v -0.0854867175 -0.5 0.170956343
v -0.170956343 -0.5 0.0854867175
v -0.170956343 0.5 0.0854867175
v -0.0854867175 0.5 0.170956343
v -0.0854867175 -0.5 0.170956343
v 0.0854867175 -0.5 0.170956343
v 0.0854867175 0.5 0.170956343
v 0.170956343 0.5 0.0854867175
v 0.170956343 -0.5 0.0854867175
v -0.170956343 0.5 -0.0854867175
v -0.170956343 -0.5 -0.0854867175
v -0.0854867175 -0.5 -0.170956343
v -0.0854867175 0.5 -0.170956343
v 0.0854867175 0.5 -0.170956343
v 0.0854867175 -0.5 -0.170956343
v 0.170956343 -0.5 -0.0854867175
v 0.170956343 0.5 -0.0854867175
vt 0.930399001 0.0496548712
vt 0.93964994 0.0496548712
vt 0.93964994 0.031154912
vt 0.930399001 0.031154912
vt 0.949208856 0.0496548712
vt 0.958459854 0.0496548712
vt 0.958459854 0.031154912
vt 0.949208856 0.031154912
vt 0.963384926 0.0496548712
vt 0.972635865 0.0496548712
vt 0.972635865 0.031154912
vt 0.963384926 0.031154912
vt 0.964563787 0.0683473945
vt 0.973814726 0.0683473945
vt 0.973814726 0.0498473942
vt 0.964563787 0.0498473942
vt 0.945767939 0.0637228489
vt 0.950392485 0.0683473945
vt 0.959643364 0.0683473945
vt 0.96426791 0.0637228489
vt 0.945767939 0.0544719398
vt 0.96426791 0.0544719398
vt 0.950392485 0.0498473942
vt 0.959643364 0.0498473942
vt 0.945472002 0.0544719398
vt 0.940847456 0.0498473942
vt 0.931596518 0.0498473942
vt 0.926971972 0.0544719398
vt 0.945472002 0.0637228489
vt 0.926971972 0.0637228489
vt 0.940847456 0.0683473945
vt 0.931596518 0.0683473945
vt 0.925774455 0.031154912
vt 0.925774455 0.0496548712
vt 0.930399001 0.0496548712
vt 0.930399001 0.031154912
vt 0.93964994 0.031154912
vt 0.93964994 0.0496548712
vt 0.944274426 0.0496548712
vt 0.944274426 0.031154912
vt 0.944584429 0.031154912
vt 0.944584429 0.0496548712
vt 0.949208856 0.0496548712
vt 0.949208856 0.031154912
vt 0.958459854 0.031154912
vt 0.958459854 0.0496548712
vt 0.9630844 0.0496548712
vt 0.9630844 0.031154912
vn -0 0 1
vn -0 0 1
vn -0 0 1
vn -0 0 1
vn -0 0 -1
vn -0 0 -1
vn -0 0 -1
vn -0 0 -1
vn 1 0 0
vn 1 0 0
vn 1 0 0
vn 1 0 0
vn -1 0 0
vn -1 0 0
vn -1 0 0
vn -1 0 0
vn -0 1 0
vn -0 1 0
vn -0 1 0
vn -0 1 0
vn -0 1 0
vn -0 1 0
vn -0 1 0
vn -0 1 0
vn -0 -1 0
vn -0 -1 0
vn -0 -1 0
vn -0 -1 0
vn -0 -1 0
vn -0 -1 0
vn -0 -1 0
vn -0 -1 0
vn -0.707106769 0 0.707106769
vn -0.707106769 0 0.707106769
vn -0.707106769 0 0.707106769
vn -0.707106769 0 0.707106769
vn 0.707106769 0 0.707106769
vn 0.707106769 0 0.707106769
vn 0.707106769 0 0.707106769
vn 0.707106769 0 0.707106769
vn -0.707106769 0 -0.707106769
vn -0.707106769 0 -0.707106769
vn -0.707106769 0 -0.707106769
vn -0.707106769 0 -0.707106769
vn 0.707106769 0 -0.707106769
vn 0.707106769 0 -0.707106769
vn 0.707106769 0 -0.707106769
vn 0.707106769 0 -0.707106769
g RC_Thin_Column_0
f 3/3/3 2/2/2 1/1/1
f 4/4/4 3/3/3 1/1/1
f 7/7/7 6/6/6 5/5/5
f 8/8/8 7/7/7 5/5/5
f 11/11/11 10/10/10 9/9/9
f 12/12/12 11/11/11 9/9/9
f 15/15/15 14/14/14 13/13/13
f 16/16/16 15/15/15 13/13/13
f 19/19/19 18/18/18 17/17/17
f 17/17/17 20/20/20 19/19/19
f 17/17/17 21/21/21 20/20/20
f 21/21/21 22/22/22 20/20/20
f 21/21/21 23/23/23 22/22/22
f 23/23/23 24/24/24 22/22/22
f 27/27/27 26/26/26 25/25/25
f 25/25/25 28/28/28 27/27/27
f 25/25/25 29/29/29 28/28/28
f 29/29/29 30/30/30 28/28/28
f 29/29/29 31/31/31 30/30/30
f 31/31/31 32/32/32 30/30/30
f 35/35/35 34/34/34 33/33/33
f 36/36/36 35/35/35 33/33/33
f 39/39/39 38/38/38 37/37/37
f 40/40/40 39/39/39 37/37/37
f 43/43/43 42/42/42 41/41/41
f 44/44/44 43/43/43 41/41/41
f 47/47/47 46/46/46 45/45/45
f 48/48/48 47/47/47 45/45/45
