g Wall
v -0.5 -0.5 -0.25
v -0.5 0.5 -0.25
v -0.5 0.5 0.25
v -0.5 -0.5 0.25
v -0.5 0.5 -0.25
v 0.5 0.5 -0.25
v 0.5 0.5 0.25
v -0.5 0.5 0.25
v 0.5 0.5 -0.25
v 0.5 -0.5 -0.25
v 0.5 -0.5 0.25
v 0.5 0.5 0.25
v 0.5 -0.5 -0.25
v -0.5 -0.5 -0.25
v -0.5 -0.5 0.25
v 0.5 -0.5 0.25
v -0.5 -0.5 0.25
v -0.5 0.5 0.25
v 0.5 0.5 0.25
v 0.5 -0.5 0.25
v 0.5 -0.5 -0.25
v 0.5 0.5 -0.25
v -0.5 0.5 -0.25
v -0.5 -0.5 -0.25
vt 0.840607464 0.0248199385
vt 0.840607464 0.0764539018
vt 0.866424501 0.0764539018
vt 0.866424501 0.0248199385
vt 0.937540829 0.02386114
vt 0.937540829 0.0793429017
vt 0.965281606 0.0793429017
vt 0.965281606 0.02386114
vt 0.840607464 0.0764539018
vt 0.840607464 0.0248199888
vt 0.866424501 0.0248199888
vt 0.866424501 0.0764539018
vt 0.937540829 0.0793429017
vt 0.937540829 0.02386114
vt 0.965281606 0.02386114
vt 0.965281606 0.0793429017
vt 0.8424142 0.0396268517
vt 0.8424142 0.0491820276
vt 0.851969421 0.0491820276
vt 0.851969421 0.0396268517
vt 0.850434542 0.0492524505
vt 0.850434542 0.0588076413
vt 0.859989703 0.0588076413
vt 0.859989703 0.0492524505
vn -1 0 0
vn -1 0 0
vn -1 0 0
vn -1 0 0
vn -0 1 0
vn -0 1 0
vn -0 1 0
vn -0 1 0
vn 1 0 0
vn 1 0 0
vn 1 0 0
vn 1 0 0
vn -0 -1 0
vn -0 -1 0
vn -0 -1 0
vn -0 -1 0
vn -0 0 1
vn -0 0 1
vn -0 0 1
vn -0 0 1
vn -0 0 -1
vn -0 0 -1
vn -0 0 -1
vn -0 0 -1
g Wall_0
f 3/3/3 2/2/2 1/1/1
f 4/4/4 3/3/3 1/1/1
f 7/7/7 6/6/6 5/5/5
f 8/8/8 7/7/7 5/5/5
f 11/11/11 10/10/10 9/9/9
f 12/12/12 11/11/11 9/9/9
f 15/15/15 14/14/14 13/13/13
f 16/16/16 15/15/15 13/13/13
f 19/19/19 18/18/18 17/17/17
f 20/20/20 19/19/19 17/17/17
f 23/23/23 22/22/22 21/21/21
f 24/24/24 23/23/23 21/21/21
