g Corner_Wall_RCFence
v 0.09375 -0.5 0.15625
v 0.15625 -0.5 0.09375
v -0.09375 -0.5 0.15625
v -0.15625 -0.5 0.09375
v -0.5 0.5 0.09375
v -0.5 0.5 -0.09375
v -0.15625 0.5 -0.09375
v -0.15625 0.5 0.09375
v 0.15625 0.5 -0.09375
v -0.09375 0.5 -0.15625
v 0.15625 0.5 0.09375
v -0.09375 0.5 0.15625
v 0.09375 0.5 0.15625
v 0.09375 0.5 -0.15625
v 0.09375 0.5 -0.5
v -0.09375 0.5 -0.5
v 0.15625 -0.5 0.09375
v 0.09375 -0.5 -0.15625
v -0.09375 -0.5 -0.15625
v 0.15625 -0.5 -0.09375
v -0.09375 -0.5 -0.15625
v -0.15625 -0.5 -0.09375
v 0.15625 -0.5 0.09375
v -0.15625 -0.5 0.09375
v -0.5 -0.5 -0.09375
v -0.5 -0.5 0.09375
v -0.15625 -0.5 -0.09375
v 0.09375 -0.5 -0.15625
v 0.09375 -0.5 -0.5
v -0.09375 -0.5 -0.5
v -0.09375 -0.5 -0.15625
v -0.5 0.0312499944 0.125
v -0.1875 0 0.09375
v -0.5 0 0.09375
v -0.1875 0.0312499944 0.125
v -0.125 0 0.15625
v -0.125 0.0312499944 0.1875
v -0.5 0 0.09375
v -0.1875 -0.0312499944 0.125
v -0.5 -0.0312499944 0.125
v -0.1875 0 0.09375
v -0.125 -0.0312499944 0.1875
v -0.125 0 0.15625
v -0.5 0.46875 -0.125
v -0.5 0.0312499944 -0.125
v -0.1875 0.0312499944 -0.125
v -0.1875 0.46875 -0.125
v -0.125 0.0312499944 -0.1875
v -0.125 0.46875 -0.1875
v -0.125 0.0312499944 -0.5
v -0.125 0.46875 -0.5
v -0.125 0.46875 -0.1875
v -0.125 0.0312499944 -0.1875
v -0.5 0.0312499944 0.125
v -0.5 0.46875 0.125
v -0.1875 0.46875 0.125
v -0.1875 0.0312499944 0.125
v -0.125 0.46875 0.1875
v -0.125 0.0312499944 0.1875
v 0.125 0.46875 -0.5
v 0.125 0.0312499944 -0.5
v 0.125 0.0312499944 -0.1875
v 0.125 0.46875 -0.1875
v 0.1875 0.0312499944 -0.125
v 0.1875 0.46875 -0.125
v 0.125 0.46875 -0.1875
v 0.125 0.0312499944 -0.1875
v 0.125 0.0312499944 0.1875
v 0.1875 0.46875 0.125
v 0.1875 0.0312499944 0.125
v 0.125 0.46875 0.1875
v -0.125 0.0312499944 0.1875
v -0.125 0.46875 0.1875
v 0.1875 0.46875 -0.125
v 0.1875 0.0312499944 -0.125
v 0.1875 0.0312499944 0.125
v 0.1875 0.46875 0.125
v -0.5 -0.5 0.09375
v -0.5 -0.46875 0.125
v -0.1875 -0.46875 0.125
v -0.15625 -0.5 0.09375
v -0.125 -0.46875 0.1875
v -0.09375 -0.5 0.15625
v 0.125 -0.46875 0.1875
v -0.09375 -0.5 0.15625
v -0.125 -0.46875 0.1875
v 0.09375 -0.5 0.15625
v 0.1875 -0.46875 0.125
v 0.15625 -0.5 0.09375
v 0.1875 -0.46875 -0.125
v 0.15625 -0.5 -0.09375
v 0.15625 -0.5 0.09375
v 0.1875 -0.46875 0.125
v 0.15625 -0.5 -0.09375
v 0.1875 -0.46875 -0.125
v 0.125 -0.46875 -0.1875
v 0.09375 -0.5 -0.15625
v 0.125 -0.46875 -0.5
v 0.09375 -0.5 -0.5
v 0.09375 -0.5 -0.15625
v 0.125 -0.46875 -0.1875
v 0.09375 -0.5 -0.5
v -0.125 -0.46875 -0.5
v -0.09375 -0.5 -0.5
v 0.125 -0.46875 -0.5
v -0.125 -0.0312499944 -0.5
v 0.125 -0.0312499944 -0.5
v 0.09375 0 -0.5
v -0.09375 0 -0.5
v 0.125 0.0312499944 -0.5
v -0.125 0.0312499944 -0.5
v -0.125 0.46875 -0.5
v 0.125 0.46875 -0.5
v -0.09375 0.5 -0.5
v 0.09375 0.5 -0.5
v -0.09375 -0.5 -0.15625
v -0.09375 -0.5 -0.5
v -0.125 -0.46875 -0.5
v -0.125 -0.46875 -0.1875
v -0.09375 -0.5 -0.15625
v -0.125 -0.46875 -0.1875
v -0.1875 -0.46875 -0.125
v -0.15625 -0.5 -0.09375
v -0.5 -0.46875 -0.125
v -0.5 -0.5 -0.09375
v -0.5 -0.5 -0.09375
v -0.5 -0.46875 0.125
v -0.5 -0.5 0.09375
v -0.5 -0.46875 -0.125
v -0.5 -0.0312499944 0.125
v -0.5 -0.0312499944 -0.125
v -0.5 0 -0.09375
v -0.5 0 0.09375
v -0.5 0.0312499944 -0.125
v -0.5 0.0312499944 0.125
v -0.5 0.46875 0.125
v -0.5 0.46875 -0.125
v -0.5 0.5 0.09375
v -0.5 0.5 -0.09375
v -0.125 0.0312499944 0.1875
v 0.09375 0 0.15625
v -0.125 0 0.15625
v 0.125 0.0312499944 0.1875
v 0.15625 0 0.09375
v 0.1875 0.0312499944 0.125
v -0.125 0 0.15625
v 0.125 -0.0312499944 0.1875
v -0.125 -0.0312499944 0.1875
v 0.09375 0 0.15625
v 0.1875 -0.0312499944 0.125
v 0.15625 0 0.09375
v 0.1875 0.0312499944 0.125
v 0.1875 0.0312499944 -0.125
v 0.15625 0 -0.125
v 0.15625 0 0.09375
v 0.15625 0 0.09375
v 0.15625 0 -0.125
v 0.1875 -0.0312499944 -0.125
v 0.1875 -0.0312499944 0.125
v 0.1875 0.0312499944 -0.125
v 0.125 0.0312499944 -0.1875
v 0.09375 0 -0.1875
v 0.15625 0 -0.125
v 0.15625 0 -0.125
v 0.09375 0 -0.1875
v 0.125 -0.0312499944 -0.1875
v 0.1875 -0.0312499944 -0.125
v 0.125 0.0312499944 -0.1875
v 0.125 0.0312499944 -0.5
v 0.09375 0 -0.5
v 0.09375 0 -0.1875
v 0.09375 0 -0.1875
v 0.09375 0 -0.5
v 0.125 -0.0312499944 -0.5
v 0.125 -0.0312499944 -0.1875
v -0.125 0.0312499944 -0.5
v -0.125 0.0312499944 -0.1875
v -0.09375 0 -0.1875
v -0.09375 0 -0.5
v -0.09375 0 -0.5
v -0.09375 0 -0.1875
v -0.125 -0.0312499944 -0.1875
v -0.125 -0.0312499944 -0.5
v -0.125 0.0312499944 -0.1875
v -0.1875 0 -0.09375
v -0.09375 0 -0.1875
v -0.1875 0.0312499944 -0.125
v -0.5 0 -0.09375
v -0.5 0.0312499944 -0.125
v -0.09375 0 -0.1875
v -0.1875 -0.0312499944 -0.125
v -0.125 -0.0312499944 -0.1875
v -0.1875 0 -0.09375
v -0.5 -0.0312499944 -0.125
v -0.5 0 -0.09375
v -0.5 -0.46875 0.125
v -0.5 -0.0312499944 0.125
v -0.1875 -0.0312499944 0.125
v -0.1875 -0.46875 0.125
v -0.125 -0.0312499944 0.1875
v -0.125 -0.46875 0.1875
v -0.5 -0.0312499944 -0.125
v -0.5 -0.46875 -0.125
v -0.1875 -0.46875 -0.125
v -0.1875 -0.0312499944 -0.125
v -0.125 -0.46875 -0.1875
v -0.125 -0.0312499944 -0.1875
v -0.125 -0.46875 -0.5
v -0.125 -0.0312499944 -0.5
v -0.125 -0.0312499944 -0.1875
v -0.125 -0.46875 -0.1875
v 0.125 -0.0312499944 -0.5
v 0.125 -0.46875 -0.5
v 0.125 -0.46875 -0.1875
v 0.125 -0.0312499944 -0.1875
v 0.1875 -0.46875 -0.125
v 0.1875 -0.0312499944 -0.125
v 0.125 -0.0312499944 -0.1875
v 0.125 -0.46875 -0.1875
v 0.1875 -0.0312499944 -0.125
v 0.1875 -0.46875 -0.125
v 0.1875 -0.46875 0.125
v 0.1875 -0.0312499944 0.125
v 0.125 -0.46875 0.1875
v 0.1875 -0.0312499944 0.125
v 0.1875 -0.46875 0.125
v 0.125 -0.0312499944 0.1875
v -0.125 -0.46875 0.1875
v -0.125 -0.0312499944 0.1875
v -0.5 0.5 -0.09375
v -0.5 0.46875 -0.125
v -0.1875 0.46875 -0.125
v -0.15625 0.5 -0.09375
v -0.125 0.46875 -0.1875
v -0.09375 0.5 -0.15625
v -0.125 0.46875 -0.5
v -0.09375 0.5 -0.5
v -0.09375 0.5 -0.15625
v -0.125 0.46875 -0.1875
v 0.09375 0.5 -0.15625
v 0.09375 0.5 -0.5
v 0.125 0.46875 -0.5
v 0.125 0.46875 -0.1875
v 0.1875 0.46875 -0.125
v 0.15625 0.5 -0.09375
v 0.09375 0.5 -0.15625
v 0.125 0.46875 -0.1875
v 0.15625 0.5 -0.09375
v 0.1875 0.46875 -0.125
v 0.1875 0.46875 0.125
v 0.15625 0.5 0.09375
v 0.125 0.46875 0.1875
v 0.15625 0.5 0.09375
v 0.1875 0.46875 0.125
v 0.09375 0.5 0.15625
v -0.09375 0.5 0.15625
v -0.125 0.46875 0.1875
v -0.1875 0.46875 0.125
v -0.09375 0.5 0.15625
v -0.125 0.46875 0.1875
v -0.15625 0.5 0.09375
v -0.5 0.46875 0.125
v -0.5 0.5 0.09375
vt 0.863100886 0.0616139472
vt 0.861034274 0.0595473945
vt 0.863100886 0.0698802471
vt 0.861034274 0.071946919
vt 0.817203701 0.0616139472
vt 0.817203701 0.0698803067
vt 0.827536583 0.0698803067
vt 0.827536583 0.0616139472
vt 0.839936018 0.0698803067
vt 0.829603195 0.0719468594
vt 0.839936018 0.0616139472
vt 0.829603195 0.0595473945
vt 0.837869525 0.0595473945
vt 0.837869525 0.0719468594
vt 0.837869525 0.0822798014
vt 0.829603195 0.0822798014
vt 0.861034274 0.0595473945
vt 0.850701451 0.0616139472
vt 0.850701451 0.0698802471
vt 0.852768064 0.0595473945
vt 0.850701451 0.0698802471
vt 0.852768064 0.071946919
vt 0.861034274 0.0595473945
vt 0.861034274 0.071946919
vt 0.852768064 0.0822797418
vt 0.861034274 0.0822797418
vt 0.852768064 0.071946919
vt 0.850701451 0.0616139472
vt 0.840368509 0.0616139472
vt 0.840368509 0.0698802471
vt 0.850701451 0.0698802471
vt 0.856219649 0.0443864875
vt 0.866552472 0.0427333862
vt 0.856219649 0.0427333862
vt 0.866552472 0.0443865024
vt 0.868619084 0.0427333862
vt 0.868619084 0.0443864837
vt 0.856219649 0.0427333862
vt 0.866552413 0.0410802849
vt 0.856219649 0.0410802849
vt 0.866552472 0.0427333862
vt 0.868619084 0.0410802849
vt 0.868619084 0.0427333862
vt 0.83245182 0.028482426
vt 0.83245182 0.0410802588
vt 0.842784762 0.0410802588
vt 0.842784703 0.028482426
vt 0.844851255 0.0410802439
vt 0.844851255 0.0284824241
vt 0.84536612 0.0443864875
vt 0.84536612 0.0569843426
vt 0.855699062 0.0569843426
vt 0.855699062 0.0443864837
vt 0.856219649 0.0443864875
vt 0.856219649 0.0569843426
vt 0.866552472 0.0569843464
vt 0.866552472 0.0443865024
vt 0.868619084 0.0569843426
vt 0.868619084 0.0443864837
vt 0.885064185 0.0903309882
vt 0.885064185 0.0777331367
vt 0.874731302 0.0777331367
vt 0.874731302 0.0903309882
vt 0.874298811 0.0744268969
vt 0.874298811 0.0618290752
vt 0.872232139 0.0618290752
vt 0.872232199 0.0744269118
vt 0.876885474 0.0443865024
vt 0.878952026 0.0569843426
vt 0.878952026 0.0443864837
vt 0.876885414 0.0569843426
vt 0.868619084 0.0443864837
vt 0.868619084 0.0569843426
vt 0.871799707 0.0903309882
vt 0.871799707 0.0777331367
vt 0.863533378 0.0777331367
vt 0.863533378 0.0903309956
vt 0.856219649 0.0262007415
vt 0.856219649 0.0275188163
vt 0.866552472 0.0275188163
vt 0.866552472 0.0262007415
vt 0.868619084 0.0275188163
vt 0.868619084 0.0262007415
vt 0.876885474 0.0275188163
vt 0.868619084 0.0262007415
vt 0.868619084 0.0275188163
vt 0.876885474 0.0262007415
vt 0.878952026 0.0275188163
vt 0.878952026 0.0262007415
vt 0.871799707 0.0608654693
vt 0.871799707 0.0595473945
vt 0.863533378 0.0595473945
vt 0.863533378 0.0608654693
vt 0.874298811 0.0926126242
vt 0.874298811 0.0912945569
vt 0.872232199 0.0912945569
vt 0.872232199 0.0926126242
vt 0.885064185 0.0608654693
vt 0.885064185 0.0595473945
vt 0.874731302 0.0595473945
vt 0.874731302 0.0608654693
vt 0.831925392 0.0592659712
vt 0.823659062 0.0579478964
vt 0.823659062 0.0592659712
vt 0.831925392 0.0579478964
vt 0.823659003 0.0443864539
vt 0.831925392 0.0443864539
vt 0.831925392 0.0427333564
vt 0.823659062 0.0427333564
vt 0.831925392 0.0410802588
vt 0.823659062 0.0410802588
vt 0.823659062 0.028482426
vt 0.831925392 0.028482426
vt 0.823659062 0.0262007415
vt 0.831925392 0.0262007415
vt 0.855699062 0.0262007415
vt 0.84536612 0.0262007415
vt 0.84536612 0.0275188163
vt 0.855699062 0.0275188163
vt 0.844851255 0.0592659712
vt 0.844851255 0.0579478964
vt 0.842784822 0.0579478964
vt 0.842784762 0.0592659712
vt 0.83245182 0.0579478964
vt 0.83245182 0.0592659712
vt 0.814852655 0.0262007415
vt 0.823118985 0.0275188163
vt 0.823118985 0.0262007415
vt 0.814852715 0.0275188163
vt 0.823118925 0.0410802849
vt 0.814852655 0.0410802849
vt 0.814852655 0.0427333862
vt 0.823118985 0.0427333862
vt 0.814852655 0.0443864875
vt 0.823118985 0.0443864837
vt 0.823118985 0.0569843426
vt 0.814852655 0.0569843426
vt 0.823118985 0.0592660308
vt 0.814852655 0.0592660308
vt 0.868619084 0.0443864837
vt 0.876885474 0.0427333862
vt 0.868619084 0.0427333862
vt 0.876885474 0.0443865024
vt 0.878952026 0.0427333862
vt 0.878952026 0.0443864837
vt 0.868619084 0.0427333862
vt 0.876885474 0.0410802849
vt 0.868619084 0.0410802849
vt 0.876885474 0.0427333862
vt 0.878952026 0.0410802849
vt 0.878952026 0.0427333862
vt 0.863533378 0.0777331367
vt 0.871799707 0.0777331367
vt 0.871799707 0.0760800391
vt 0.863533378 0.0760800391
vt 0.863533378 0.0760800391
vt 0.871799707 0.0760800391
vt 0.871799707 0.0744269416
vt 0.863533378 0.0744269416
vt 0.874298811 0.0744268969
vt 0.872232199 0.0744269118
vt 0.872232199 0.0760800093
vt 0.874298811 0.0760800093
vt 0.874298811 0.0760800093
vt 0.872232199 0.0760800093
vt 0.872232199 0.0777330995
vt 0.874298811 0.0777330995
vt 0.874731302 0.0777331367
vt 0.885064185 0.0777331367
vt 0.885064185 0.0760800391
vt 0.874731302 0.0760800391
vt 0.874731302 0.0760800391
vt 0.885064185 0.0760800391
vt 0.885064185 0.0744269341
vt 0.874731302 0.0744269416
vt 0.84536612 0.0443864875
vt 0.855699062 0.0443864837
vt 0.855699062 0.0427333862
vt 0.84536612 0.0427333862
vt 0.84536612 0.0427333862
vt 0.855699062 0.0427333862
vt 0.855699062 0.0410802886
vt 0.84536612 0.0410802849
vt 0.844851255 0.0410802439
vt 0.842784762 0.0427333564
vt 0.844851255 0.0427333564
vt 0.842784762 0.0410802588
vt 0.83245182 0.0427333564
vt 0.83245182 0.0410802588
vt 0.844851255 0.0427333564
vt 0.842784762 0.0443864539
vt 0.844851255 0.0443864502
vt 0.842784762 0.0427333564
vt 0.83245182 0.0443864539
vt 0.83245182 0.0427333564
vt 0.856219649 0.0275188163
vt 0.856219649 0.0410802849
vt 0.866552413 0.0410802849
vt 0.866552472 0.0275188163
vt 0.868619084 0.0410802849
vt 0.868619084 0.0275188163
vt 0.83245182 0.0443864539
vt 0.83245182 0.0579478964
vt 0.842784822 0.0579478964
vt 0.842784762 0.0443864539
vt 0.844851255 0.0579478964
vt 0.844851255 0.0443864502
vt 0.84536612 0.0275188163
vt 0.84536612 0.0410802849
vt 0.855699062 0.0410802886
vt 0.855699062 0.0275188163
vt 0.885064185 0.0744269341
vt 0.885064185 0.0608654693
vt 0.874731302 0.0608654693
vt 0.874731302 0.0744269416
vt 0.874298811 0.0912945569
vt 0.874298811 0.0777330995
vt 0.872232199 0.0777330995
vt 0.872232199 0.0912945569
vt 0.871799707 0.0744269416
vt 0.871799707 0.0608654693
vt 0.863533378 0.0608654693
vt 0.863533378 0.0744269416
vt 0.876885474 0.0275188163
vt 0.878952026 0.0410802849
vt 0.878952026 0.0275188163
vt 0.876885474 0.0410802849
vt 0.868619084 0.0275188163
vt 0.868619084 0.0410802849
vt 0.83245182 0.0262007415
vt 0.83245182 0.028482426
vt 0.842784703 0.028482426
vt 0.842784762 0.0262007415
vt 0.844851255 0.0284824241
vt 0.844851255 0.0262007415
vt 0.84536612 0.0569843426
vt 0.84536612 0.0592660308
vt 0.855699062 0.0592660308
vt 0.855699062 0.0569843426
vt 0.874731302 0.0926126838
vt 0.885064185 0.0926126838
vt 0.885064185 0.0903309882
vt 0.874731302 0.0903309882
vt 0.874298811 0.0618290752
vt 0.874298811 0.0595473945
vt 0.872232199 0.0595473945
vt 0.872232139 0.0618290752
vt 0.871799707 0.0926126838
vt 0.871799707 0.0903309882
vt 0.863533378 0.0903309956
vt 0.863533378 0.0926126838
vt 0.876885414 0.0569843426
vt 0.878952026 0.0592660308
vt 0.878952026 0.0569843426
vt 0.876885474 0.0592660308
vt 0.868619084 0.0592660308
vt 0.868619084 0.0569843426
vt 0.866552472 0.0569843464
vt 0.868619084 0.0592660308
vt 0.868619084 0.0569843426
vt 0.866552472 0.0592660308
vt 0.856219649 0.0569843426
vt 0.856219649 0.0592660308
vn -0 -1 0
vn -0 -1 0
vn -0 -1 0
vn -0 -1 0
vn -0 1 0
vn -0 1 0
vn -0 1 0
vn -0 1 0
vn -0 1 0
vn -0 1 0
vn -0 1 0
vn -0 1 0
vn -0 1 0
vn -0 1 0
vn -0 1 0
vn -0 1 0
vn -0 -1 0
vn -0 -1 0
vn -0 -1 0
vn -0 -1 0
vn -0 -1 0
vn -0 -1 0
vn -0 -1 0
vn -0 -1 0
vn -0 -1 0
vn -0 -1 0
vn -0 -1 0
vn -0 -1 0
vn -0 -1 0
vn -0 -1 0
vn -0 -1 0
vn -0 -0.707106829 0.70710665
vn -0.0829026401 -0.704672754 0.704672515
vn -0 -0.707106829 0.70710665
vn -0.14724201 -0.69939971 0.699399531
vn -0.577350199 -0.577350318 0.577350199
vn -0.577350199 -0.577350259 0.577350199
vn -0 0.707106829 0.70710665
vn -0.14724201 0.69939971 0.699399531
vn -0 0.707106829 0.70710665
vn -0.0829026401 0.704672754 0.704672515
vn -0.577350199 0.577350259 0.577350199
vn -0.577350199 0.577350318 0.577350199
vn -0 0 -1
vn -0 0 -1
vn -0.164398983 0 -0.986393988
vn -0.164398983 0 -0.986393988
vn -0.986393988 0 -0.164398983
vn -0.986393988 0 -0.164398983
vn -1 0 0
vn -1 0 0
vn -0.986393988 0 -0.164398983
vn -0.986393988 0 -0.164398983
vn -0 0 1
vn -0 0 1
vn -0.164398983 0 0.986393988
vn -0.164398983 0 0.986393988
vn -0.707106769 0 0.707106769
vn -0.707106769 0 0.707106769
vn 1 0 0
vn 1 0 0
vn 0.986393988 0 -0.164398983
vn 0.986393988 0 -0.164398983
vn 0.707106769 0 -0.707106769
vn 0.707106769 0 -0.707106769
vn 0.986393988 0 -0.164398983
vn 0.986393988 0 -0.164398983
vn 0.196116135 0 0.980580688
vn 0.980580688 0 0.196116135
vn 0.980580688 0 0.196116135
vn 0.196116135 0 0.980580688
vn -0 0 1
vn -0 0 1
vn 1 0 0
vn 1 0 0
vn 0.980580688 0 0.196116135
vn 0.980580688 0 0.196116135
vn -0 -0.707106769 0.707106769
vn -0 -0.707106769 0.707106769
vn -0.0799029991 -0.743664205 0.663761318
vn -0.14817366 -0.769452512 0.621278822
vn -0.408248276 -0.816496551 0.408248276
vn -0.408248276 -0.816496551 0.408248276
vn 0.189546362 -0.782562494 0.593016148
vn -0 -0.707106769 0.707106769
vn -0 -0.707106769 0.707106769
vn 0.109970294 -0.75564903 0.645678818
vn 0.593016148 -0.782562494 0.189546362
vn 0.645678759 -0.75564903 0.109970294
vn 0.707106769 -0.707106769 0
vn 0.707106769 -0.707106769 0
vn 0.645678759 -0.75564903 0.109970294
vn 0.593016148 -0.782562494 0.189546362
vn 0.408248276 -0.816496551 -0.408248276
vn 0.408248276 -0.816496551 -0.408248276
vn 0.663761318 -0.743664205 -0.0799029991
vn 0.621278822 -0.769452512 -0.14817366
vn 0.707106769 -0.707106769 0
vn 0.707106769 -0.707106769 0
vn 0.621278822 -0.769452512 -0.14817366
vn 0.663761318 -0.743664205 -0.0799029991
vn -0 0 -1
vn -0 0 -1
vn -0 0 -1
vn -0 0 -1
vn -0 0 -1
vn -0 0 -1
vn -0 0 -1
vn -0 0 -1
vn -0 0 -1
vn -0 0 -1
vn -0 0 -1
vn -0 0 -1
vn -0 0 -1
vn -0 0 -1
vn -0.621278822 -0.769452512 -0.14817366
vn -0.707106769 -0.707106769 0
vn -0.707106769 -0.707106769 0
vn -0.663761318 -0.743664205 -0.0799029991
vn -0.621278822 -0.769452512 -0.14817366
vn -0.663761318 -0.743664205 -0.0799029991
vn -0.0799029991 -0.743664205 -0.663761318
vn -0.14817366 -0.769452512 -0.621278822
vn -0 -0.707106769 -0.707106769
vn -0 -0.707106769 -0.707106769
vn -1 0 0
vn -1 0 0
vn -1 0 0
vn -1 0 0
vn -1 0 0
vn -1 0 0
vn -1 0 0
vn -1 0 0
vn -1 0 0
vn -1 0 0
vn -1 0 0
vn -1 0 0
vn -1 0 0
vn -1 0 0
vn -0 -0.707106829 0.70710665
vn 0.104371086 -0.753491521 0.649120331
vn -0 -0.707106829 0.70710665
vn 0.182311133 -0.780410349 0.598099053
vn 0.649120331 -0.753491521 0.104371086
vn 0.598099053 -0.780410349 0.182311133
vn -0 0.707106829 0.70710665
vn 0.182311133 0.780410349 0.598099053
vn -0 0.707106829 0.70710665
vn 0.104371086 0.753491521 0.649120331
vn 0.598099053 0.780410349 0.182311133
vn 0.649120331 0.753491521 0.104371086
vn 0.598099053 -0.780410349 0.182311133
vn 0.70710665 -0.707106829 0
vn 0.70710665 -0.707106829 0
vn 0.649120331 -0.753491521 0.104371086
vn 0.649120331 0.753491521 0.104371086
vn 0.70710665 0.707106829 0
vn 0.70710665 0.707106829 0
vn 0.598099053 0.780410349 0.182311133
vn 0.577350318 -0.577350318 -0.577350199
vn 0.699399531 -0.69939971 -0.14724201
vn 0.704672575 -0.704672754 -0.0829026476
vn 0.577350318 -0.577350318 -0.577350199
vn 0.577350318 0.577350318 -0.577350199
vn 0.704672575 0.704672754 -0.0829026476
vn 0.699399531 0.69939971 -0.14724201
vn 0.577350318 0.577350318 -0.577350199
vn 0.699399531 -0.69939971 -0.14724201
vn 0.70710665 -0.707106829 0
vn 0.70710665 -0.707106829 0
vn 0.704672575 -0.704672754 -0.0829026476
vn 0.704672575 0.704672754 -0.0829026476
vn 0.70710665 0.707106829 0
vn 0.70710665 0.707106829 0
vn 0.699399531 0.69939971 -0.14724201
vn -0.70710665 -0.707106829 0
vn -0.69631052 -0.696310699 -0.17407763
vn -0.703526437 -0.703526497 -0.100503758
vn -0.70710665 -0.707106829 0
vn -0.70710665 0.707106829 0
vn -0.703526437 0.703526497 -0.100503758
vn -0.69631052 0.696310699 -0.17407763
vn -0.70710665 0.707106829 0
vn -0.69631052 -0.696310699 -0.17407763
vn -0.10050378 -0.703526497 -0.703526437
vn -0.703526437 -0.703526497 -0.100503758
vn -0.17407763 -0.696310699 -0.69631052
vn -0 -0.707106829 -0.70710665
vn -0 -0.707106829 -0.70710665
vn -0.703526437 0.703526497 -0.100503758
vn -0.17407763 0.696310699 -0.69631052
vn -0.69631052 0.696310699 -0.17407763
vn -0.10050378 0.703526497 -0.703526437
vn -0 0.707106829 -0.70710665
vn -0 0.707106829 -0.70710665
vn -0 0 1
vn -0 0 1
vn -0.164398983 0 0.986393988
vn -0.164398983 0 0.986393988
vn -0.707106769 0 0.707106769
vn -0.707106769 0 0.707106769
vn -0 0 -1
vn -0 0 -1
vn -0.164398983 0 -0.986393988
vn -0.164398983 0 -0.986393988
vn -0.986393988 0 -0.164398983
vn -0.986393988 0 -0.164398983
vn -1 0 0
vn -1 0 0
vn -0.986393988 0 -0.164398983
vn -0.986393988 0 -0.164398983
vn 1 0 0
vn 1 0 0
vn 0.986393988 0 -0.164398983
vn 0.986393988 0 -0.164398983
vn 0.707106769 0 -0.707106769
vn 0.707106769 0 -0.707106769
vn 0.986393988 0 -0.164398983
vn 0.986393988 0 -0.164398983
vn 1 0 0
vn 1 0 0
vn 0.980580688 0 0.196116135
vn 0.980580688 0 0.196116135
vn 0.196116135 0 0.980580688
vn 0.980580688 0 0.196116135
vn 0.980580688 0 0.196116135
vn 0.196116135 0 0.980580688
vn -0 0 1
vn -0 0 1
vn -0 0.707106769 -0.707106769
vn -0 0.707106769 -0.707106769
vn -0.0799029991 0.743664205 -0.663761318
vn -0.14817366 0.769452512 -0.621278822
vn -0.663761318 0.743664205 -0.0799029991
vn -0.621278822 0.769452512 -0.14817366
vn -0.707106769 0.707106769 0
vn -0.707106769 0.707106769 0
vn -0.621278822 0.769452512 -0.14817366
vn -0.663761318 0.743664205 -0.0799029991
vn 0.621278822 0.769452512 -0.14817366
vn 0.707106769 0.707106769 0
vn 0.707106769 0.707106769 0
vn 0.663761318 0.743664205 -0.0799029991
vn 0.408248276 0.816496551 -0.408248276
vn 0.408248276 0.816496551 -0.408248276
vn 0.621278822 0.769452512 -0.14817366
vn 0.663761318 0.743664205 -0.0799029991
vn 0.707106769 0.707106769 0
vn 0.707106769 0.707106769 0
vn 0.593016148 0.782562494 0.189546362
vn 0.645678759 0.75564903 0.109970294
vn 0.189546362 0.782562494 0.593016148
vn 0.645678759 0.75564903 0.109970294
vn 0.593016148 0.782562494 0.189546362
vn 0.109970294 0.75564903 0.645678818
vn -0 0.707106769 0.707106769
vn -0 0.707106769 0.707106769
vn -0.0799029991 0.743664205 0.663761318
vn -0.408248276 0.816496551 0.408248276
vn -0.408248276 0.816496551 0.408248276
vn -0.14817366 0.769452512 0.621278822
vn -0 0.707106769 0.707106769
vn -0 0.707106769 0.707106769
g Corner_Wall_RCFence_0
f 3/3/3 2/2/2 1/1/1
f 4/4/4 2/2/2 3/3/3
f 7/7/7 6/6/6 5/5/5
f 8/8/8 7/7/7 5/5/5
f 9/9/9 7/7/7 8/8/8
f 10/10/10 7/7/7 9/9/9
f 11/11/11 9/9/9 8/8/8
f 11/11/11 8/8/8 12/12/12
f 13/13/13 11/11/11 12/12/12
f 14/14/14 10/10/10 9/9/9
f 14/14/14 15/15/15 10/10/10
f 15/15/15 16/16/16 10/10/10
f 19/19/19 18/18/18 17/17/17
f 17/17/17 18/18/18 20/20/20
f 23/23/23 22/22/22 21/21/21
f 22/22/22 23/23/23 24/24/24
f 24/24/24 26/26/26 25/25/25
f 27/27/27 24/24/24 25/25/25
f 30/30/30 29/29/29 28/28/28
f 31/31/31 30/30/30 28/28/28
f 34/34/34 33/33/33 32/32/32
f 33/33/33 35/35/35 32/32/32
f 33/33/33 36/36/36 35/35/35
f 36/36/36 37/37/37 35/35/35
f 40/40/40 39/39/39 38/38/38
f 39/39/39 41/41/41 38/38/38
f 39/39/39 42/42/42 41/41/41
f 42/42/42 43/43/43 41/41/41
f 46/46/46 45/45/45 44/44/44
f 47/47/47 46/46/46 44/44/44
f 46/46/46 47/47/47 48/48/48
f 47/47/47 49/49/49 48/48/48
f 52/52/52 51/51/51 50/50/50
f 53/53/53 52/52/52 50/50/50
f 56/56/56 55/55/55 54/54/54
f 57/57/57 56/56/56 54/54/54
f 58/58/58 56/56/56 57/57/57
f 59/59/59 58/58/58 57/57/57
f 62/62/62 61/61/61 60/60/60
f 63/63/63 62/62/62 60/60/60
f 66/66/66 65/65/65 64/64/64
f 67/67/67 66/66/66 64/64/64
f 70/70/70 69/69/69 68/68/68
f 69/69/69 71/71/71 68/68/68
f 72/72/72 68/68/68 71/71/71
f 73/73/73 72/72/72 71/71/71
f 76/76/76 75/75/75 74/74/74
f 77/77/77 76/76/76 74/74/74
f 80/80/80 79/79/79 78/78/78
f 81/81/81 80/80/80 78/78/78
f 82/82/82 80/80/80 81/81/81
f 83/83/83 82/82/82 81/81/81
f 86/86/86 85/85/85 84/84/84
f 85/85/85 87/87/87 84/84/84
f 88/88/88 84/84/84 87/87/87
f 89/89/89 88/88/88 87/87/87
f 92/92/92 91/91/91 90/90/90
f 93/93/93 92/92/92 90/90/90
f 96/96/96 95/95/95 94/94/94
f 97/97/97 96/96/96 94/94/94
f 100/100/100 99/99/99 98/98/98
f 101/101/101 100/100/100 98/98/98
f 104/104/104 103/103/103 102/102/102
f 103/103/103 105/105/105 102/102/102
f 103/103/103 106/106/106 105/105/105
f 106/106/106 107/107/107 105/105/105
f 107/107/107 106/106/106 108/108/108
f 106/106/106 109/109/109 108/108/108
f 108/108/108 109/109/109 110/110/110
f 109/109/109 111/111/111 110/110/110
f 111/111/111 112/112/112 110/110/110
f 112/112/112 113/113/113 110/110/110
f 112/112/112 114/114/114 113/113/113
f 114/114/114 115/115/115 113/113/113
f 118/118/118 117/117/117 116/116/116
f 119/119/119 118/118/118 116/116/116
f 122/122/122 121/121/121 120/120/120
f 123/123/123 122/122/122 120/120/120
f 122/122/122 123/123/123 124/124/124
f 123/123/123 125/125/125 124/124/124
f 128/128/128 127/127/127 126/126/126
f 127/127/127 129/129/129 126/126/126
f 127/127/127 130/130/130 129/129/129
f 130/130/130 131/131/131 129/129/129
f 132/132/132 131/131/131 130/130/130
f 133/133/133 132/132/132 130/130/130
f 134/134/134 132/132/132 133/133/133
f 135/135/135 134/134/134 133/133/133
f 135/135/135 136/136/136 134/134/134
f 136/136/136 137/137/137 134/134/134
f 136/136/136 138/138/138 137/137/137
f 138/138/138 139/139/139 137/137/137
f 142/142/142 141/141/141 140/140/140
f 141/141/141 143/143/143 140/140/140
f 141/141/141 144/144/144 143/143/143
f 144/144/144 145/145/145 143/143/143
f 148/148/148 147/147/147 146/146/146
f 147/147/147 149/149/149 146/146/146
f 147/147/147 150/150/150 149/149/149
f 150/150/150 151/151/151 149/149/149
f 154/154/154 153/153/153 152/152/152
f 155/155/155 154/154/154 152/152/152
f 158/158/158 157/157/157 156/156/156
f 159/159/159 158/158/158 156/156/156
f 162/162/162 161/161/161 160/160/160
f 163/163/163 162/162/162 160/160/160
f 166/166/166 165/165/165 164/164/164
f 167/167/167 166/166/166 164/164/164
f 170/170/170 169/169/169 168/168/168
f 171/171/171 170/170/170 168/168/168
f 174/174/174 173/173/173 172/172/172
f 175/175/175 174/174/174 172/172/172
f 178/178/178 177/177/177 176/176/176
f 179/179/179 178/178/178 176/176/176
f 182/182/182 181/181/181 180/180/180
f 183/183/183 182/182/182 180/180/180
f 186/186/186 185/185/185 184/184/184
f 185/185/185 187/187/187 184/184/184
f 185/185/185 188/188/188 187/187/187
f 188/188/188 189/189/189 187/187/187
f 192/192/192 191/191/191 190/190/190
f 191/191/191 193/193/193 190/190/190
f 191/191/191 194/194/194 193/193/193
f 194/194/194 195/195/195 193/193/193
f 198/198/198 197/197/197 196/196/196
f 199/199/199 198/198/198 196/196/196
f 200/200/200 198/198/198 199/199/199
f 201/201/201 200/200/200 199/199/199
f 204/204/204 203/203/203 202/202/202
f 205/205/205 204/204/204 202/202/202
f 204/204/204 205/205/205 206/206/206
f 205/205/205 207/207/207 206/206/206
f 210/210/210 209/209/209 208/208/208
f 211/211/211 210/210/210 208/208/208
f 214/214/214 213/213/213 212/212/212
f 215/215/215 214/214/214 212/212/212
f 218/218/218 217/217/217 216/216/216
f 219/219/219 218/218/218 216/216/216
f 222/222/222 221/221/221 220/220/220
f 223/223/223 222/222/222 220/220/220
f 226/226/226 225/225/225 224/224/224
f 225/225/225 227/227/227 224/224/224
f 228/228/228 224/224/224 227/227/227
f 229/229/229 228/228/228 227/227/227
f 232/232/232 231/231/231 230/230/230
f 233/233/233 232/232/232 230/230/230
f 232/232/232 233/233/233 234/234/234
f 233/233/233 235/235/235 234/234/234
f 238/238/238 237/237/237 236/236/236
f 239/239/239 238/238/238 236/236/236
f 242/242/242 241/241/241 240/240/240
f 243/243/243 242/242/242 240/240/240
f 246/246/246 245/245/245 244/244/244
f 247/247/247 246/246/246 244/244/244
f 250/250/250 249/249/249 248/248/248
f 251/251/251 250/250/250 248/248/248
f 254/254/254 253/253/253 252/252/252
f 253/253/253 255/255/255 252/252/252
f 252/252/252 255/255/255 256/256/256
f 257/257/257 252/252/252 256/256/256
f 260/260/260 259/259/259 258/258/258
f 259/259/259 261/261/261 258/258/258
f 258/258/258 261/261/261 262/262/262
f 261/261/261 263/263/263 262/262/262
