g MetalRoofSidePeak
v 0.5 0.0250100121 0.0999902338
v 0.5 -0.375 0.5
v -0.5 0.0250100121 0.0999902338
v -0.5 -0.375 0.5
v 0.5 0.0250100121 0.0999902338
v 0.5 0.0250100121 -0.0999902338
v 0.5 -0.375 -0.5
v 0.5 -0.375 0.5
v 0.5 -0.5 -0.5
v 0.5 -0.5 0.5
v -0.5 0.0250100121 -0.0999902338
v -0.5 -0.375 -0.5
v 0.5 0.0250100121 -0.0999902338
v 0.5 -0.375 -0.5
v -0.5 0.0250100121 -0.0999902338
v -0.5 0.0250100121 0.0999902338
v -0.5 -0.375 0.5
v -0.5 -0.375 -0.5
v -0.5 -0.5 0.5
v -0.5 -0.5 -0.5
v -0.5 -0.5 -0.5
v -0.5 -0.5 0.5
v 0.5 -0.5 -0.5
v 0.5 -0.5 0.5
v -0.5 0.0250100121 -0.0999902338
v 0.5 0.0250100121 -0.0999902338
v -0.5 0.0250100121 0.0999902338
v 0.5 0.0250100121 0.0999902338
v -0.5 -0.375 -0.5
v -0.5 -0.5 -0.5
v 0.5 -0.375 -0.5
v 0.5 -0.5 -0.5
v 0.5 -0.375 0.5
v 0.5 -0.5 0.5
v -0.5 -0.375 0.5
v -0.5 -0.5 0.5
vt 0.940620303 0.0248846207
vt 0.930869579 0.0248846207
vt 0.940620303 0.0492613614
vt 0.930869579 0.0492613614
vt 0.953745008 0.0395104289
vt 0.953745008 0.0346355438
vt 0.943994105 0.0248846207
vt 0.943994105 0.0492613614
vt 0.940947056 0.0248846207
vt 0.940947056 0.0492613614
vt 0.954062462 0.0492613614
vt 0.963813365 0.0492613614
vt 0.954062462 0.0248846207
vt 0.963813365 0.0248846207
vt 0.97436887 0.0640736222
vt 0.97436887 0.059198916
vt 0.964617908 0.0494478345
vt 0.964617908 0.0738245845
vt 0.961570859 0.0494478345
vt 0.961570859 0.0738245845
vt 0.93690753 0.0494478941
vt 0.93690753 0.0738245845
vt 0.961284161 0.0494478941
vt 0.961284161 0.0738245845
vt 0.936620712 0.0738245845
vt 0.936620712 0.0494478941
vt 0.931745887 0.0738245845
vt 0.931745887 0.0494478941
vt 0.963813365 0.0492613614
vt 0.966860652 0.0492613614
vt 0.963813365 0.0248846207
vt 0.966860652 0.0248846207
vt 0.930869579 0.0248846207
vt 0.927822292 0.0248846207
vt 0.930869579 0.0492613614
vt 0.927822292 0.0492613614
vn -0 0.70710659 0.707106948
vn -0 0.70710659 0.707106948
vn -0 0.70710659 0.707106948
vn -0 0.70710659 0.707106948
vn 1 0 0
vn 1 0 0
vn 1 0 0
vn 1 0 0
vn 1 0 0
vn 1 0 0
vn -0 0.70710659 -0.707106948
vn -0 0.70710659 -0.707106948
vn -0 0.70710659 -0.707106948
vn -0 0.70710659 -0.707106948
vn -1 0 0
vn -1 0 0
vn -1 0 0
vn -1 0 0
vn -1 0 0
vn -1 0 0
vn -0 -1 0
vn -0 -1 0
vn -0 -1 0
vn -0 -1 0
vn -0 1 0
vn -0 1 0
vn -0 1 0
vn -0 1 0
vn -0 0 -1
vn -0 0 -1
vn -0 0 -1
vn -0 0 -1
vn -0 0 1
vn -0 0 1
vn -0 0 1
vn -0 0 1
g MetalRoofSidePeak_0
f 3/3/3 2/2/2 1/1/1
f 3/3/3 4/4/4 2/2/2
f 7/7/7 6/6/6 5/5/5
f 7/7/7 5/5/5 8/8/8
f 8/8/8 9/9/9 7/7/7
f 8/8/8 10/10/10 9/9/9
f 13/13/13 12/12/12 11/11/11
f 13/13/13 14/14/14 12/12/12
f 17/17/17 16/16/16 15/15/15
f 17/17/17 15/15/15 18/18/18
f 18/18/18 19/19/19 17/17/17
f 18/18/18 20/20/20 19/19/19
f 23/23/23 22/22/22 21/21/21
f 23/23/23 24/24/24 22/22/22
f 27/27/27 26/26/26 25/25/25
f 27/27/27 28/28/28 26/26/26
f 31/31/31 30/30/30 29/29/29
f 31/31/31 32/32/32 30/30/30
f 35/35/35 34/34/34 33/33/33
f 35/35/35 36/36/36 34/34/34
