g P_T_B_Vert
v 0.039210137 -0.367016464 -0.500001311
v -0.0392101556 -0.367041171 -0.21875146
v 0.0392101333 -0.367041171 -0.21875146
v -0.0392100103 -0.367016464 -0.500000775
v -0.0856162608 -0.320634693 -0.218751937
v -0.0856162608 -0.320609957 -0.500001252
v 0.0856171772 -0.320610374 -0.500000775
v 0.039210137 -0.367016464 -0.500001311
v 0.0392101333 -0.367041171 -0.21875146
v 0.0856171623 -0.320634991 -0.218750954
v 0.0856170356 -0.242189214 -0.500000179
v 0.0856171772 -0.320610374 -0.500000775
v 0.0856171623 -0.320634991 -0.218750954
v 0.0856170356 -0.24221386 -0.218750417
v 0.0392107964 -0.195783034 -0.500000179
v 0.0856170356 -0.242189214 -0.500000179
v 0.0856170356 -0.24221386 -0.218750417
v 0.0392107964 -0.195807725 -0.218750417
v -0.0392101556 -0.195783034 -0.500000179
v -0.0392103009 -0.195807725 -0.218750954
v -0.0856165141 -0.242189363 -0.500000775
v -0.085616529 -0.242214009 -0.21875146
v -0.0856162608 -0.320609957 -0.500001252
v -0.0856165141 -0.242189363 -0.500000775
v -0.085616529 -0.242214009 -0.21875146
v -0.0856162608 -0.320634693 -0.218751937
v 0.039210476 -0.366866529 0.499999076
v 0.0392106809 -0.366891086 0.218748972
v -0.0392101407 -0.366891176 0.218748465
v -0.0392103456 -0.366866678 0.499998659
v -0.0856159776 -0.320484877 0.218748465
v -0.0856164545 -0.32046026 0.499998659
v 0.0856165737 -0.32046032 0.499999136
v 0.0856167898 -0.320484906 0.218748942
v 0.0392106809 -0.366891086 0.218748972
v 0.039210476 -0.366866529 0.499999076
v 0.0856167227 -0.242039219 0.499998659
v 0.0856169239 -0.242063805 0.218748465
v 0.0856167898 -0.320484906 0.218748942
v 0.0856165737 -0.32046032 0.499999136
v 0.0392107405 -0.195632994 0.499998033
v 0.0856169239 -0.242063805 0.218748465
v 0.0856167227 -0.242039219 0.499998659
v 0.0392109416 -0.195657611 0.218747899
v -0.0392104685 -0.195632994 0.499998629
v -0.0392102748 -0.195657611 0.218748465
v -0.0856164545 -0.242039561 0.499998629
v -0.0856159776 -0.242064148 0.218748465
v -0.0856164545 -0.32046026 0.499998659
v -0.0856159776 -0.320484877 0.218748465
v -0.0856159776 -0.242064148 0.218748465
v -0.0856164545 -0.242039561 0.499998629
v 0.0852342397 0.500000358 -0.0392111763
v 0.0852588043 -0.0628826916 -0.0392113663
v 0.0852589384 -0.0628832206 0.0392094254
v 0.0852343738 0.499999911 0.039209716
v 0.038852606 -0.0628832206 0.0856154114
v 0.0388280004 0.499999911 0.0856157988
v 0.0388280675 0.500000358 -0.0856172517
v 0.038852673 -0.0628826916 -0.0856174454
v 0.0852588043 -0.0628826916 -0.0392113663
v 0.0852342397 0.500000358 -0.0392111763
v -0.0395930521 0.499999911 -0.0856173486
v -0.0395684429 -0.0628832206 -0.0856175423
v 0.038852673 -0.0628826916 -0.0856174454
v 0.0388280675 0.500000358 -0.0856172517
v -0.0859992355 0.499999374 -0.0392114632
v -0.0395684429 -0.0628832206 -0.0856175423
v -0.0395930521 0.499999911 -0.0856173486
v -0.0859746411 -0.0628837422 -0.0392116569
v -0.0859992355 0.499999911 0.039209716
v -0.0859746411 -0.0628832206 0.0392095223
v -0.0395927131 0.499999911 0.0856157988
v -0.0395681001 -0.0628832206 0.0856154114
v 0.0388280004 0.499999911 0.0856157988
v 0.038852606 -0.0628832206 0.0856154114
v -0.0395681001 -0.0628832206 0.0856154114
v -0.0395927131 0.499999911 0.0856157988
v -0.0894103795 -0.376645803 0.0605571531
v -0.0894103795 -0.376645803 -0.0605256632
v -0.0946490169 -0.370904952 -0.0605257601
v -0.0946490169 -0.370905101 0.06055687
v -0.0605421811 -0.376645803 -0.0893936679
v 0.0605402924 -0.376645893 -0.0893937647
v 0.0605397597 -0.370905042 -0.0942664295
v -0.0605428629 -0.370905042 -0.0942664295
v 0.0894083455 -0.376645803 -0.0605256632
v 0.0894083455 -0.376645803 0.0605571531
v 0.0946471766 -0.370904952 0.06055687
v 0.0946472734 -0.370904952 -0.0605257601
v 0.060540244 -0.376645803 0.0894250646
v -0.0605421811 -0.376645803 0.0894250646
v -0.0605422817 -0.370905071 0.0950463265
v 0.0605403408 -0.370905071 0.0950463265
v -0.0605421811 -0.187088728 0.0894246772
v 0.0605403408 -0.187088728 0.0894246772
v 0.0605403408 -0.192086369 0.095046334
v -0.0605422333 -0.192086324 0.0950464234
v 0.0894083455 -0.187088773 0.0605566688
v 0.0894083455 -0.187088773 -0.0605260544
v 0.0946466923 -0.192086324 -0.0605257601
v 0.0946466923 -0.192086324 0.06055687
v 0.0605403408 -0.187088773 -0.0893940553
v -0.0605421811 -0.187088773 -0.0893940553
v -0.0605428629 -0.192086294 -0.0942664295
v 0.0605397597 -0.192086294 -0.0942664295
v -0.0894103795 -0.187088773 -0.0605260544
v -0.0894103795 -0.187088773 0.0605566688
v -0.0946490169 -0.192086324 0.06055687
v -0.0946490169 -0.192086324 -0.0605258606
v 0.0946472734 -0.220954418 0.0894248635
v 0.0946472734 -0.342036903 0.0894248784
v 0.0894083455 -0.342036963 0.0950463265
v 0.0894083455 -0.220954493 0.0950463265
v -0.0946490169 -0.342036963 0.0894248784
v -0.0946490169 -0.220954493 0.0894248784
v -0.0894104764 -0.220954493 0.0950463265
v -0.0894104764 -0.342036963 0.0950463265
v 0.0946472734 -0.342036903 -0.0893939063
v 0.0946472734 -0.220954418 -0.0893939063
v 0.0894077644 -0.220954433 -0.0942663327
v 0.0894077644 -0.342036963 -0.0942664295
v -0.0946490169 -0.220954493 -0.0893938616
v -0.0946490169 -0.342036963 -0.0893938616
v -0.089411065 -0.342036963 -0.0942664295
v -0.089411065 -0.220954433 -0.0942664295
v 0.0605403408 -0.187088773 -0.0893940553
v -0.0606171787 -0.108757168 -0.0895193815
v -0.0605421811 -0.187088773 -0.0893940553
v 0.0606155321 -0.108757168 -0.0895193815
v 0.0894083455 -0.187088773 -0.0605260544
v 0.0895190015 -0.108757168 -0.060615778
v 0.0894083455 -0.187088773 0.0605566688
v 0.0895190015 -0.108757168 0.0606172271
v 0.0606155321 -0.108757168 0.0895209834
v 0.0605403408 -0.187088728 0.0894246772
v -0.0605421811 -0.187088728 0.0894246772
v -0.0606171787 -0.108757168 0.0895209834
v -0.0894103795 -0.187088773 0.0605566688
v -0.0895212367 -0.108757168 0.0606172271
v -0.0894103795 -0.187088773 -0.0605260544
v -0.0895212367 -0.108757168 -0.060615778
v -0.0605421811 -0.187088773 -0.0893940553
v -0.0606171787 -0.108757168 -0.0895193815
v 0.0505787469 -0.0957133621 -0.101753578
v -0.050156191 -0.0643875897 -0.100900963
v -0.0505803898 -0.0957133621 -0.101753578
v 0.050155513 -0.0643875897 -0.100900963
v 0.101753518 -0.0957133472 -0.0505789854
v 0.100901447 -0.0643875897 -0.0501548834
v 0.101753518 -0.0957133472 0.0505805388
v 0.100901447 -0.0643875897 0.0501567274
v 0.0505787469 -0.0957133472 0.101755217
v 0.050155513 -0.0643875897 0.100902848
v -0.0505803898 -0.0957133472 0.101755217
v -0.050156191 -0.0643875897 0.100902848
v -0.101755366 -0.0957133472 0.0505805388
v -0.100902319 -0.0643875897 0.0501567274
v -0.101755366 -0.0957133472 -0.0505789854
v -0.100902319 -0.0643875897 -0.0501548834
v -0.0505803898 -0.0957133621 -0.101753578
v -0.050156191 -0.0643875897 -0.100900963
v -0.0605421811 -0.376645803 -0.0893936679
v 0.0606155321 -0.454205006 -0.0895193815
v 0.0605402924 -0.376645893 -0.0893937647
v -0.0606169887 -0.454205006 -0.0895193815
v -0.0894103795 -0.376645803 -0.0605256632
v -0.0895210356 -0.454204977 -0.060615778
v -0.0894103795 -0.376645803 0.0605571531
v -0.0895210356 -0.454204977 0.0606172346
v -0.0606169887 -0.454204977 0.0895209834
v -0.0605421811 -0.376645803 0.0894250646
v 0.060540244 -0.376645803 0.0894250646
v 0.0606155321 -0.454204977 0.0895209834
v 0.0894083455 -0.376645803 0.0605571531
v 0.0895193815 -0.454204977 0.0606172346
v 0.0894083455 -0.376645803 -0.0605256632
v 0.0895193815 -0.454204977 -0.060615778
v 0.0605402924 -0.376645893 -0.0893937647
v 0.0606155321 -0.454205006 -0.0895193815
v -0.0505803898 -0.467248976 -0.101753525
v 0.0501547381 -0.498574793 -0.100900918
v 0.0505787469 -0.467248976 -0.101753525
v -0.0501569659 -0.498574793 -0.100900918
v -0.101754978 -0.467248976 -0.0505789854
v -0.100903086 -0.498574793 -0.0501548834
v -0.101754978 -0.467248976 0.0505805388
v -0.100903086 -0.498574793 0.0501567274
v -0.0505803898 -0.467248976 0.101755217
v -0.0501569659 -0.498574793 0.10090284
v 0.0505787469 -0.467248976 0.101755217
v 0.0501547381 -0.498574793 0.10090284
v 0.101753719 -0.467248976 0.0505805388
v 0.100900479 -0.498574793 0.0501567274
v 0.101753719 -0.467248976 -0.0505789854
v 0.100900479 -0.498574793 -0.0501548834
v 0.0505787469 -0.467248976 -0.101753525
v 0.0501547381 -0.498574793 -0.100900918
v -0.0894104764 -0.220954493 0.0950463265
v -0.089523159 -0.342097402 0.17352207
v -0.0894104764 -0.342036963 0.0950463265
v -0.089523159 -0.220864698 0.17352207
v -0.0605422333 -0.192086324 0.0950464234
v -0.0606193133 -0.191960812 0.17352207
v 0.0605403408 -0.192086369 0.095046334
v 0.0606134012 -0.191960812 0.17352207
v 0.0895172581 -0.220864698 0.17352207
v 0.0894083455 -0.220954493 0.0950463265
v 0.0894083455 -0.342036963 0.0950463265
v 0.0895172581 -0.342097402 0.17352207
v 0.0605403408 -0.370905071 0.0950463265
v 0.0606134012 -0.371001244 0.17352207
v -0.0605422817 -0.370905071 0.0950463265
v -0.0606193133 -0.371001244 0.17352207
v -0.0894104764 -0.342036963 0.0950463265
v -0.089523159 -0.342097402 0.17352207
v -0.101757102 -0.23090145 0.184710041
v -0.100904644 -0.331636488 0.215294197
v -0.101757102 -0.332060695 0.184710041
v -0.100904644 -0.231324762 0.215294227
v -0.0505823307 -0.179726675 0.184710041
v -0.0501585193 -0.180578724 0.215294227
v 0.0505768061 -0.179726675 0.184710041
v 0.0501533784 -0.180578724 0.215294227
v 0.101751395 -0.23090145 0.184710041
v 0.100899309 -0.231324762 0.215294227
v 0.101751395 -0.332060695 0.184710041
v 0.100899309 -0.331636488 0.215294197
v 0.0505768061 -0.383235455 0.184710026
v 0.0501533784 -0.382382512 0.215294197
v -0.0505823307 -0.383235455 0.184710026
v -0.0501585193 -0.382382512 0.215294197
v -0.101757102 -0.332060695 0.184710041
v -0.100904644 -0.331636488 0.215294197
v -0.089411065 -0.342036963 -0.0942664295
v -0.0895243213 -0.220864713 -0.175578043
v -0.089411065 -0.220954433 -0.0942664295
v -0.0895243213 -0.342097282 -0.175578043
v -0.0605428629 -0.370905042 -0.0942664295
v -0.0606206693 -0.371001244 -0.175578043
v 0.0605397597 -0.370905042 -0.0942664295
v 0.0606122389 -0.371001244 -0.175578043
v 0.0895160958 -0.342097282 -0.175578043
v 0.0894077644 -0.342036963 -0.0942664295
v 0.0894077644 -0.220954433 -0.0942663327
v 0.0895160958 -0.220864713 -0.175578043
v 0.0605397597 -0.192086294 -0.0942664295
v 0.0606122389 -0.191960782 -0.175578043
v -0.0605428629 -0.192086294 -0.0942664295
v -0.0606206693 -0.191960782 -0.175578043
v -0.089411065 -0.220954433 -0.0942664295
v -0.0895243213 -0.220864713 -0.175578043
v -0.101758465 -0.332060695 -0.188546285
v -0.100906201 -0.231325418 -0.219130471
v -0.101758465 -0.23090142 -0.188546285
v -0.100906201 -0.331637174 -0.219130471
v -0.0505836867 -0.383235395 -0.188546285
v -0.0501598716 -0.382383257 -0.219130471
v 0.0505754463 -0.383235395 -0.188546285
v 0.0501516387 -0.382383257 -0.219130471
v 0.101750225 -0.332060695 -0.188546285
v 0.10089796 -0.331637174 -0.219130471
v 0.101750225 -0.23090142 -0.188546285
v 0.10089796 -0.231325418 -0.219130471
v 0.0505754463 -0.179726556 -0.188546285
v 0.0501516387 -0.180579498 -0.219130471
v -0.0505836867 -0.179726556 -0.188546285
v -0.0501598716 -0.180579498 -0.219130471
v -0.101758465 -0.23090142 -0.188546285
v -0.100906201 -0.231325418 -0.219130471
v 0.0294275749 -0.345834672 -0.500000775
v 0.0642554164 -0.309139729 -0.500000775
v 0.0642554164 -0.254020125 -0.500000775
v 0.0294277091 -0.221402615 -0.500000775
v -0.0294269081 -0.221402615 -0.500000775
v -0.0294270311 -0.345834672 -0.500000775
v -0.0642546192 -0.252152145 -0.500000775
v -0.0642547533 -0.311007023 -0.500000775
v 0.0788907781 -0.510012329 -0.0431295373
v 0.043129392 -0.510012329 -0.0788910165
v -0.043131616 -0.510012329 -0.0788910165
v -0.0788929984 -0.510012329 -0.0431294441
v 0.0788907781 -0.510012329 0.0431313701
v -0.0788929984 -0.510012329 0.0431313701
v 0.043129392 -0.510012329 0.0788930506
v -0.043131616 -0.510012329 0.0788930506
v 0.0293496307 -0.217164338 0.499998629
v 0.06408602 -0.251900107 0.499998033
v 0.06408602 -0.310599625 0.499998659
v 0.0293500274 -0.345335424 0.499998659
v -0.0293500125 -0.345335603 0.499998659
v -0.0293497574 -0.217164189 0.499999106
v -0.0640853569 -0.251900047 0.499999106
v -0.0640856028 -0.310599536 0.499998659
v -0.0644679591 0.499999911 -0.0293502416
v -0.0297321472 0.499999374 -0.0640866831
v 0.02896736 0.499999911 -0.0640866831
v 0.063703157 0.499999911 -0.0293506235
v 0.0637033507 0.499999911 0.0293493643
v -0.0644680932 0.500000358 0.0293490794
v -0.0297322311 0.500000358 0.0640847459
v 0.0289672948 0.499999911 0.0640849471
v -0.0946490169 -0.370904952 -0.0605257601
v -0.117375545 -0.324792802 0.0433123782
v -0.0946490169 -0.370905101 0.06055687
v -0.0946490169 -0.342036963 0.0894248784
v -0.117375545 -0.324792802 -0.0433226489
v -0.0946490169 -0.342036963 -0.0893938616
v -0.0946490169 -0.220954493 -0.0893938616
v -0.117375545 -0.238157898 0.0433123782
v -0.0946490169 -0.220954493 0.0894248784
v -0.0946490169 -0.192086324 0.06055687
v -0.117375545 -0.238157898 -0.0433226451
v -0.0946490169 -0.192086324 -0.0605258606
v 0.0946471766 -0.370904952 0.06055687
v 0.117373884 -0.324792504 -0.0433226489
v 0.0946472734 -0.370904952 -0.0605257601
v 0.0946472734 -0.342036903 -0.0893939063
v 0.117373884 -0.324792564 0.0433123782
v 0.0946472734 -0.342036903 0.0894248784
v 0.0946472734 -0.220954418 0.0894248635
v 0.117373884 -0.238157764 -0.0433226451
v 0.0946472734 -0.220954418 -0.0893939063
v 0.0946466923 -0.192086324 -0.0605257601
v 0.117373884 -0.238157764 0.0433123782
v 0.0946466923 -0.192086324 0.06055687
v -0.0946490169 -0.370905101 0.06055687
v -0.0946490169 -0.342036963 0.0894248784
v -0.0819178149 -0.363412738 0.0819325075
v -0.0894103795 -0.376645803 0.0605571531
v -0.0894104764 -0.342036963 0.0950463265
v -0.0605421811 -0.376645803 0.0894250646
v -0.0605422817 -0.370905071 0.0950463265
v -0.0946490169 -0.342036963 -0.0893938616
v -0.0946490169 -0.370904952 -0.0605257601
v -0.0819178149 -0.363412768 -0.0819015354
v -0.089411065 -0.342036963 -0.0942664295
v -0.0894103795 -0.376645803 -0.0605256632
v -0.0605428629 -0.370905042 -0.0942664295
v -0.0605421811 -0.376645803 -0.0893936679
v -0.0946490169 -0.192086324 -0.0605258606
v -0.0946490169 -0.220954493 -0.0893938616
v -0.0819178149 -0.199578688 -0.0819015354
v -0.0894103795 -0.187088773 -0.0605260544
v -0.089411065 -0.220954433 -0.0942664295
v -0.0605421811 -0.187088773 -0.0893940553
v -0.0605428629 -0.192086294 -0.0942664295
v -0.0819178149 -0.199578688 0.0819324926
v -0.0946490169 -0.192086324 0.06055687
v -0.0894103795 -0.187088773 0.0605566688
v -0.0946490169 -0.220954493 0.0894248784
v -0.0605421811 -0.187088728 0.0894246772
v -0.0894104764 -0.220954493 0.0950463265
v -0.0605422333 -0.192086324 0.0950464234
v 0.0894077644 -0.342036963 -0.0942664295
v 0.0605397597 -0.370905042 -0.0942664295
v 0.0819161683 -0.363412768 -0.0819015354
v 0.0946472734 -0.342036903 -0.0893939063
v 0.0605402924 -0.376645893 -0.0893937647
v 0.0946472734 -0.370904952 -0.0605257601
v 0.0894083455 -0.376645803 -0.0605256632
v 0.0605397597 -0.192086294 -0.0942664295
v 0.0894077644 -0.220954433 -0.0942663327
v 0.0819161683 -0.199578688 -0.0819015354
v 0.0605403408 -0.187088773 -0.0893940553
v 0.0946472734 -0.220954418 -0.0893939063
v 0.0894083455 -0.187088773 -0.0605260544
v 0.0946466923 -0.192086324 -0.0605257601
v 0.0894083455 -0.376645803 0.0605571531
v 0.060540244 -0.376645803 0.0894250646
v 0.0819161683 -0.363412738 0.0819325075
v 0.0946471766 -0.370904952 0.06055687
v 0.0605403408 -0.370905071 0.0950463265
v 0.0946472734 -0.342036903 0.0894248784
v 0.0894083455 -0.342036963 0.0950463265
v 0.0946466923 -0.192086324 0.06055687
v 0.0819161683 -0.199578688 0.0819324926
v 0.0894083455 -0.187088773 0.0605566688
v 0.0946472734 -0.220954418 0.0894248635
v 0.0605403408 -0.187088728 0.0894246772
v 0.0894083455 -0.220954493 0.0950463265
v 0.0605403408 -0.192086369 0.095046334
v -0.100906201 -0.331637174 -0.219130471
v -0.0788960978 -0.238350943 -0.228530914
v -0.100906201 -0.231325418 -0.219130471
v -0.0788960978 -0.324611813 -0.228530914
v -0.0431347229 -0.202589467 -0.228530914
v -0.0501598716 -0.382383257 -0.219130471
v -0.0501598716 -0.180579498 -0.219130471
v -0.0431343354 -0.360373288 -0.228530914
v 0.0431264862 -0.202589467 -0.228530914
v 0.0501516387 -0.382383257 -0.219130471
v 0.0501516387 -0.180579498 -0.219130471
v 0.0431264862 -0.360373288 -0.228530914
v 0.0788878649 -0.238350943 -0.228530914
v 0.10089796 -0.331637174 -0.219130471
v 0.10089796 -0.231325418 -0.219130471
v 0.0788878649 -0.324611813 -0.228530914
v -0.0895243213 -0.342097282 -0.175578043
v -0.101758465 -0.23090142 -0.188546285
v -0.0895243213 -0.220864713 -0.175578043
v -0.101758465 -0.332060695 -0.188546285
v -0.0505836867 -0.179726556 -0.188546285
v -0.0606206693 -0.371001244 -0.175578043
v -0.0606206693 -0.191960782 -0.175578043
v -0.0505836867 -0.383235395 -0.188546285
v 0.0505754463 -0.179726556 -0.188546285
v 0.0606122389 -0.371001244 -0.175578043
v 0.0606122389 -0.191960782 -0.175578043
v 0.0505754463 -0.383235395 -0.188546285
v 0.101750225 -0.23090142 -0.188546285
v 0.0895160958 -0.342097282 -0.175578043
v 0.0895160958 -0.220864713 -0.175578043
v 0.101750225 -0.332060695 -0.188546285
v -0.100904644 -0.231324762 0.215294227
v -0.0788945481 -0.324611098 0.228531107
v -0.100904644 -0.331636488 0.215294197
v -0.0788945481 -0.238350183 0.228531107
v -0.0431331731 -0.360372603 0.228531092
v -0.0501585193 -0.180578724 0.215294227
v -0.0501585193 -0.382382512 0.215294197
v -0.0431329757 -0.202588648 0.228531107
v 0.0431278422 -0.360372603 0.228531092
v 0.0501533784 -0.180578724 0.215294227
v 0.0501533784 -0.382382512 0.215294197
v 0.0431278422 -0.202588648 0.228531107
v 0.0788894147 -0.324611098 0.228531107
v 0.100899309 -0.231324762 0.215294227
v 0.100899309 -0.331636488 0.215294197
v 0.0788894147 -0.238350183 0.228531107
v -0.089523159 -0.220864698 0.17352207
v -0.101757102 -0.332060695 0.184710041
v -0.089523159 -0.342097402 0.17352207
v -0.101757102 -0.23090145 0.184710041
v -0.0505823307 -0.383235455 0.184710026
v -0.0606193133 -0.191960812 0.17352207
v -0.0606193133 -0.371001244 0.17352207
v -0.0505823307 -0.179726675 0.184710041
v 0.0505768061 -0.383235455 0.184710026
v 0.0606134012 -0.191960812 0.17352207
v 0.0606134012 -0.371001244 0.17352207
v 0.0505768061 -0.179726675 0.184710041
v 0.101751395 -0.332060695 0.184710041
v 0.0895172581 -0.220864698 0.17352207
v 0.0895172581 -0.342097402 0.17352207
v 0.101751395 -0.23090145 0.184710041
v -0.0501569659 -0.498574793 -0.100900918
v 0.043129392 -0.510012329 -0.0788910165
v 0.0501547381 -0.498574793 -0.100900918
v -0.043131616 -0.510012329 -0.0788910165
v 0.0788907781 -0.510012329 -0.0431295373
v -0.100903086 -0.498574793 -0.0501548834
v 0.100900479 -0.498574793 -0.0501548834
v -0.0788929984 -0.510012329 -0.0431294441
v 0.0788907781 -0.510012329 0.0431313701
v -0.100903086 -0.498574793 0.0501567274
v 0.100900479 -0.498574793 0.0501567274
v -0.0788929984 -0.510012329 0.0431313701
v 0.043129392 -0.510012329 0.0788930506
v -0.0501569659 -0.498574793 0.10090284
v 0.0501547381 -0.498574793 0.10090284
v -0.043131616 -0.510012329 0.0788930506
v -0.0606169887 -0.454205006 -0.0895193815
v 0.0505787469 -0.467248976 -0.101753525
v 0.0606155321 -0.454205006 -0.0895193815
v -0.0505803898 -0.467248976 -0.101753525
v 0.101753719 -0.467248976 -0.0505789854
v -0.0895210356 -0.454204977 -0.060615778
v 0.0895193815 -0.454204977 -0.060615778
v -0.101754978 -0.467248976 -0.0505789854
v 0.101753719 -0.467248976 0.0505805388
v -0.0895210356 -0.454204977 0.0606172346
v 0.0895193815 -0.454204977 0.0606172346
v -0.101754978 -0.467248976 0.0505805388
v 0.0505787469 -0.467248976 0.101755217
v -0.0606169887 -0.454204977 0.0895209834
v 0.0606155321 -0.454204977 0.0895209834
v -0.0505803898 -0.467248976 0.101755217
v 0.050155513 -0.0643875897 -0.100900963
v -0.0431310348 -0.0529499054 -0.0788910165
v -0.050156191 -0.0643875897 -0.100900963
v 0.0431297757 -0.0529499054 -0.0788910165
v -0.0788928121 -0.0529499054 -0.0431295373
v 0.100901447 -0.0643875897 -0.0501548834
v -0.100902319 -0.0643875897 -0.0501548834
v 0.0788915455 -0.0529499054 -0.0431294441
v -0.0788928121 -0.0529499054 0.0431313775
v 0.100901447 -0.0643875897 0.0501567274
v -0.100902319 -0.0643875897 0.0501567274
v 0.0788915455 -0.0529499054 0.0431313775
v -0.0431310348 -0.0529499054 0.0788930506
v 0.050155513 -0.0643875897 0.100902848
v -0.050156191 -0.0643875897 0.100902848
v 0.0431297757 -0.0529499054 0.0788930506
v 0.0606155321 -0.108757168 -0.0895193815
v -0.0505803898 -0.0957133621 -0.101753578
v -0.0606171787 -0.108757168 -0.0895193815
v 0.0505787469 -0.0957133621 -0.101753578
v -0.101755366 -0.0957133472 -0.0505789854
v 0.0895190015 -0.108757168 -0.060615778
v -0.0895212367 -0.108757168 -0.060615778
v 0.101753518 -0.0957133472 -0.0505789854
v -0.101755366 -0.0957133472 0.0505805388
v 0.0895190015 -0.108757168 0.0606172271
v -0.0895212367 -0.108757168 0.0606172271
v 0.101753518 -0.0957133472 0.0505805388
v -0.0505803898 -0.0957133472 0.101755217
v 0.0606155321 -0.108757168 0.0895209834
v -0.0606171787 -0.108757168 0.0895209834
v 0.0505787469 -0.0957133472 0.101755217
v -0.0856162608 -0.320609957 -0.500001252
v -0.0642546192 -0.252152145 -0.500000775
v -0.0856165141 -0.242189363 -0.500000775
v -0.0642547533 -0.311007023 -0.500000775
v -0.0294269081 -0.221402615 -0.500000775
v -0.0392100103 -0.367016464 -0.500000775
v -0.0392101556 -0.195783034 -0.500000179
v -0.0294270311 -0.345834672 -0.500000775
v 0.0294277091 -0.221402615 -0.500000775
v 0.039210137 -0.367016464 -0.500001311
v 0.0392107964 -0.195783034 -0.500000179
v 0.0294275749 -0.345834672 -0.500000775
v 0.0642554164 -0.254020125 -0.500000775
v 0.0856171772 -0.320610374 -0.500000775
v 0.0856170356 -0.242189214 -0.500000179
v 0.0642554164 -0.309139729 -0.500000775
v -0.0395927131 0.499999911 0.0856157988
v -0.0297322311 0.500000358 0.0640847459
v 0.0289672948 0.499999911 0.0640849471
v 0.0388280004 0.499999911 0.0856157988
v -0.0859992355 0.499999911 0.039209716
v 0.0637033507 0.499999911 0.0293493643
v -0.0644680932 0.500000358 0.0293490794
v 0.0852343738 0.499999911 0.039209716
v -0.0859992355 0.499999374 -0.0392114632
v 0.063703157 0.499999911 -0.0293506235
v -0.0644679591 0.499999911 -0.0293502416
v 0.0852342397 0.500000358 -0.0392111763
v -0.0395930521 0.499999911 -0.0856173486
v 0.02896736 0.499999911 -0.0640866831
v -0.0297321472 0.499999374 -0.0640866831
v 0.0388280675 0.500000358 -0.0856172517
v -0.0856164545 -0.242039561 0.499998629
v -0.0640853569 -0.251900047 0.499999106
v -0.0640856028 -0.310599536 0.499998659
v -0.0856164545 -0.32046026 0.499998659
v -0.0392104685 -0.195632994 0.499998629
v -0.0293500125 -0.345335603 0.499998659
v -0.0293497574 -0.217164189 0.499999106
v -0.0392103456 -0.366866678 0.499998659
v 0.0392107405 -0.195632994 0.499998033
v 0.0293500274 -0.345335424 0.499998659
v 0.0293496307 -0.217164338 0.499998629
v 0.039210476 -0.366866529 0.499999076
v 0.0856167227 -0.242039219 0.499998659
v 0.06408602 -0.310599625 0.499998659
v 0.06408602 -0.251900107 0.499998033
v 0.0856165737 -0.32046032 0.499999136
vt 0.628699541 0.764061928
vt 0.646167994 0.809399128
vt 0.628699541 0.809399009
vt 0.646167994 0.764061928
vt 0.661713779 0.809399128
vt 0.661713779 0.764061928
vt 0.745886803 0.764061928
vt 0.761307597 0.764061928
vt 0.761307597 0.809399009
vt 0.745886803 0.809398711
vt 0.728265285 0.764061928
vt 0.745886803 0.764061928
vt 0.745886803 0.809398711
vt 0.728265285 0.809398055
vt 0.712555885 0.764061928
vt 0.728265285 0.764061928
vt 0.728265285 0.809398055
vt 0.712555885 0.809397936
vt 0.694801271 0.764061928
vt 0.694801271 0.809397459
vt 0.679043651 0.764061928
vt 0.679043651 0.80939728
vt 0.661713779 0.764061928
vt 0.679043651 0.764061928
vt 0.679043651 0.80939728
vt 0.661713779 0.809397042
vt 0.628699541 0.764062047
vt 0.628699541 0.809399128
vt 0.646167994 0.809399128
vt 0.646167994 0.764061928
vt 0.661713779 0.809399128
vt 0.661713779 0.764061928
vt 0.745886803 0.764062345
vt 0.745886803 0.809399128
vt 0.761307597 0.809399128
vt 0.761307597 0.764062047
vt 0.728265285 0.764063001
vt 0.728265285 0.809399128
vt 0.745886803 0.809399128
vt 0.745886803 0.764062345
vt 0.712555885 0.76406312
vt 0.728265285 0.809399128
vt 0.728265285 0.764063001
vt 0.712555885 0.809399128
vt 0.694801271 0.764063597
vt 0.694801271 0.809399128
vt 0.679043651 0.764063776
vt 0.679043651 0.809399128
vt 0.661713779 0.764064014
vt 0.661713779 0.809399128
vt 0.679043651 0.809399128
vt 0.679043651 0.764063776
vt 0.628699541 0.764062047
vt 0.628699541 0.809399128
vt 0.646167994 0.809399128
vt 0.646167994 0.764061928
vt 0.661713779 0.809399128
vt 0.661713779 0.764061928
vt 0.745886803 0.764062345
vt 0.745886803 0.809399128
vt 0.761307597 0.809399128
vt 0.761307597 0.764062047
vt 0.728265285 0.764063001
vt 0.728265285 0.809399128
vt 0.745886803 0.809399128
vt 0.745886803 0.764062345
vt 0.712555885 0.76406312
vt 0.728265285 0.809399128
vt 0.728265285 0.764063001
vt 0.712555885 0.809399128
vt 0.694801271 0.764063597
vt 0.694801271 0.809399128
vt 0.679043651 0.764063776
vt 0.679043651 0.809399128
vt 0.661713779 0.764064014
vt 0.661713779 0.809399128
vt 0.679043651 0.809399128
vt 0.679043651 0.764063776
vt 0.943912506 0.578163147
vt 0.943911135 0.525642037
vt 0.93497622 0.525646925
vt 0.93497622 0.578163147
vt 0.943912506 0.578163147
vt 0.943911135 0.525642037
vt 0.93497622 0.525646925
vt 0.93497622 0.578163147
vt 0.943912506 0.578163147
vt 0.943911135 0.525642037
vt 0.93497622 0.525646925
vt 0.93497622 0.578163147
vt 0.943912506 0.578163147
vt 0.943911135 0.525642037
vt 0.93497622 0.525646925
vt 0.93497622 0.578163147
vt 0.93497622 0.525646925
vt 0.93497622 0.578163147
vt 0.943912506 0.578163147
vt 0.943911135 0.525642037
vt 0.93497622 0.525647461
vt 0.93497622 0.578163147
vt 0.943912506 0.578163147
vt 0.94391036 0.525650144
vt 0.934976339 0.525647461
vt 0.93497622 0.578163147
vt 0.943912506 0.578163147
vt 0.943914354 0.525652587
vt 0.934976339 0.525647223
vt 0.93497622 0.578163147
vt 0.943912506 0.578163147
vt 0.943914592 0.525645137
vt 0.943912506 0.578163147
vt 0.94391036 0.525650144
vt 0.93497622 0.525647461
vt 0.93497622 0.578163147
vt 0.93497622 0.525647461
vt 0.93497622 0.578163147
vt 0.943912506 0.578163147
vt 0.94391036 0.525650144
vt 0.943912506 0.578163147
vt 0.943914592 0.525645137
vt 0.934976339 0.525647223
vt 0.93497622 0.578163147
vt 0.943912506 0.578163147
vt 0.94391036 0.525650144
vt 0.93497622 0.525647461
vt 0.93497622 0.578163147
vt 0.957827508 0.513191104
vt 0.994250894 0.488644063
vt 0.994250894 0.513191104
vt 0.957827508 0.488644063
vt 0.946188986 0.513191104
vt 0.946188986 0.488644063
vt 0.909765601 0.513191104
vt 0.909765601 0.488644063
vt 0.89812696 0.488644063
vt 0.89812696 0.513191104
vt 0.861703634 0.513191104
vt 0.861703634 0.488644063
vt 0.850065172 0.513191104
vt 0.850065172 0.488644063
vt 0.813641727 0.513191104
vt 0.813641727 0.488644063
vt 0.802003145 0.513191104
vt 0.802003145 0.488644063
vt 0.962158561 0.516360402
vt 0.990387857 0.523758531
vt 0.990387857 0.516360402
vt 0.962158442 0.523758531
vt 0.94232595 0.516360402
vt 0.94232583 0.523758531
vt 0.914096653 0.516360402
vt 0.914096653 0.523758531
vt 0.894263983 0.516360402
vt 0.894263983 0.523758531
vt 0.866034687 0.516360402
vt 0.866034806 0.523758531
vt 0.846202075 0.516360402
vt 0.846202195 0.523758531
vt 0.817972779 0.516360402
vt 0.817972779 0.523758531
vt 0.798140109 0.516360402
vt 0.798140109 0.523758531
vt 0.957827508 0.513191104
vt 0.994250894 0.488644063
vt 0.994250894 0.513191104
vt 0.957827508 0.488644063
vt 0.946188986 0.513191104
vt 0.946188986 0.488644063
vt 0.909765601 0.513191104
vt 0.909765601 0.488644063
vt 0.89812696 0.488644063
vt 0.89812696 0.513191104
vt 0.861703634 0.513191104
vt 0.861703634 0.488644063
vt 0.850065172 0.513191104
vt 0.850065172 0.488644063
vt 0.813641727 0.513191104
vt 0.813641727 0.488644063
vt 0.802003145 0.513191104
vt 0.802003145 0.488644063
vt 0.962158561 0.516360402
vt 0.990387857 0.523758531
vt 0.990387857 0.516360402
vt 0.962158442 0.523758531
vt 0.94232595 0.516360402
vt 0.94232583 0.523758531
vt 0.914096653 0.516360402
vt 0.914096653 0.523758531
vt 0.894263983 0.516360402
vt 0.894263983 0.523758531
vt 0.866034687 0.516360402
vt 0.866034806 0.523758531
vt 0.846202075 0.516360402
vt 0.846202195 0.523758531
vt 0.817972779 0.516360402
vt 0.817972779 0.523758531
vt 0.798140109 0.516360402
vt 0.798140109 0.523758531
vt 0.957827508 0.513191104
vt 0.994250894 0.488644063
vt 0.994250894 0.513191104
vt 0.957827508 0.488644063
vt 0.946188986 0.513191104
vt 0.946188986 0.488644063
vt 0.909765601 0.513191104
vt 0.909765601 0.488644063
vt 0.89812696 0.488644063
vt 0.89812696 0.513191104
vt 0.861703634 0.513191104
vt 0.861703634 0.488644063
vt 0.850065172 0.513191104
vt 0.850065172 0.488644063
vt 0.813641727 0.513191104
vt 0.813641727 0.488644063
vt 0.802003145 0.513191104
vt 0.802003145 0.488644063
vt 0.962158561 0.516360402
vt 0.990387857 0.523758531
vt 0.990387857 0.516360402
vt 0.962158442 0.523758531
vt 0.94232595 0.516360402
vt 0.94232583 0.523758531
vt 0.914096653 0.516360402
vt 0.914096653 0.523758531
vt 0.894263983 0.516360402
vt 0.894263983 0.523758531
vt 0.866034687 0.516360402
vt 0.866034806 0.523758531
vt 0.846202075 0.516360402
vt 0.846202195 0.523758531
vt 0.817972779 0.516360402
vt 0.817972779 0.523758531
vt 0.798140109 0.516360402
vt 0.798140109 0.523758531
vt 0.957827508 0.513191104
vt 0.994250894 0.488644063
vt 0.994250894 0.513191104
vt 0.957827508 0.488644063
vt 0.946188986 0.513191104
vt 0.946188986 0.488644063
vt 0.909765601 0.513191104
vt 0.909765601 0.488644063
vt 0.89812696 0.488644063
vt 0.89812696 0.513191104
vt 0.861703634 0.513191104
vt 0.861703634 0.488644063
vt 0.850065172 0.513191104
vt 0.850065172 0.488644063
vt 0.813641727 0.513191104
vt 0.813641727 0.488644063
vt 0.802003145 0.513191104
vt 0.802003145 0.488644063
vt 0.962158561 0.516360402
vt 0.990387857 0.523758531
vt 0.990387857 0.516360402
vt 0.962158442 0.523758531
vt 0.94232595 0.516360402
vt 0.94232583 0.523758531
vt 0.914096653 0.516360402
vt 0.914096653 0.523758531
vt 0.894263983 0.516360402
vt 0.894263983 0.523758531
vt 0.866034687 0.516360402
vt 0.866034806 0.523758531
vt 0.846202075 0.516360402
vt 0.846202195 0.523758531
vt 0.817972779 0.516360402
vt 0.817972779 0.523758531
vt 0.798140109 0.516360402
vt 0.798140109 0.523758531
vt 0.781731486 0.0525077283
vt 0.781747878 0.0525232553
vt 0.781772494 0.0525232553
vt 0.781787038 0.0525077283
vt 0.781787038 0.0524815023
vt 0.781731486 0.0524815023
vt 0.781773269 0.0524659753
vt 0.781747043 0.0524659753
vt 0.781788111 0.0525073111
vt 0.781803966 0.0525232553
vt 0.78184247 0.0525232553
vt 0.781858385 0.0525073111
vt 0.781788111 0.0524688661
vt 0.781858385 0.0524688661
vt 0.781803966 0.0524529219
vt 0.78184247 0.0524529219
vt 0.781719685 0.0524499118
vt 0.781735182 0.052465409
vt 0.781761348 0.052465409
vt 0.781776786 0.0524499118
vt 0.781776786 0.0524237156
vt 0.781719685 0.0524237752
vt 0.781735182 0.052408278
vt 0.781761348 0.0524082184
vt 0.781834841 0.0524106622
vt 0.781819284 0.0523952246
vt 0.781793177 0.0523952246
vt 0.78177774 0.0524106622
vt 0.78177774 0.0524368286
vt 0.781834781 0.0524368882
vt 0.781819284 0.0524523556
vt 0.781793177 0.0524523556
vt 0.852595985 0.575076818
vt 0.839953721 0.546085
vt 0.852595985 0.541497648
vt 0.844590127 0.533491671
vt 0.840003014 0.570439875
vt 0.844590127 0.583082795
vt 0.811010838 0.583082795
vt 0.815598488 0.546133757
vt 0.811010838 0.533491671
vt 0.803004861 0.541497648
vt 0.815647602 0.570489407
vt 0.803004861 0.575076818
vt 0.852595985 0.575076818
vt 0.83995384 0.546085119
vt 0.852595985 0.541497648
vt 0.844590127 0.533491671
vt 0.840002716 0.570440412
vt 0.844590127 0.583082795
vt 0.811010838 0.583082795
vt 0.815598071 0.546134114
vt 0.811010838 0.533491671
vt 0.803004861 0.541497648
vt 0.815647721 0.570489824
vt 0.803004861 0.575076818
vt 0.950194955 0.587294877
vt 0.943921387 0.578166962
vt 0.939443827 0.586763442
vt 0.945717394 0.594816923
vt 0.934966326 0.578166962
vt 0.933170438 0.594816923
vt 0.928692877 0.587294877
vt 0.943926394 0.578171849
vt 0.950199783 0.587299585
vt 0.939448595 0.586768448
vt 0.934971213 0.578171849
vt 0.945722222 0.594821692
vt 0.928697586 0.587299585
vt 0.933175325 0.594821692
vt 0.950199783 0.587299585
vt 0.943926394 0.578171849
vt 0.939448595 0.586768448
vt 0.945722222 0.594821692
vt 0.934971213 0.578171849
vt 0.933175325 0.594821692
vt 0.928697586 0.587299585
vt 0.939443827 0.586763442
vt 0.950194955 0.587294877
vt 0.945717394 0.594816923
vt 0.943921387 0.578166962
vt 0.933170438 0.594816923
vt 0.934966326 0.578166962
vt 0.928692877 0.587294877
vt 0.934963167 0.578180075
vt 0.928689599 0.587307751
vt 0.939440668 0.586776257
vt 0.943918288 0.578179896
vt 0.93316704 0.594829857
vt 0.950191677 0.587307751
vt 0.945714116 0.594829857
vt 0.928689599 0.587307751
vt 0.934963167 0.578180075
vt 0.939440668 0.586776257
vt 0.93316704 0.594829857
vt 0.943918288 0.578179896
vt 0.945714116 0.594829857
vt 0.950191677 0.587307751
vt 0.945709169 0.594825149
vt 0.933162332 0.594825149
vt 0.939435899 0.586771607
vt 0.950186968 0.587302744
vt 0.928684771 0.587302744
vt 0.94391346 0.578175068
vt 0.934958279 0.578175068
vt 0.950186968 0.587302744
vt 0.939435899 0.586771607
vt 0.945709169 0.594825149
vt 0.94391346 0.578175068
vt 0.933162332 0.594825149
vt 0.934958279 0.578175068
vt 0.928684771 0.587302744
vt 0.863500953 0.576442778
vt 0.871729791 0.544753969
vt 0.863498151 0.542043209
vt 0.87172842 0.573625863
vt 0.883023143 0.534130514
vt 0.880637527 0.591980636
vt 0.880455256 0.526143134
vt 0.883103907 0.58394134
vt 0.912024915 0.533686697
vt 0.915000618 0.591181159
vt 0.914463699 0.526071608
vt 0.912341595 0.583941102
vt 0.924078286 0.544708669
vt 0.931822419 0.575492918
vt 0.9317981 0.541983068
vt 0.92407912 0.5727337
vt 0.846397221 0.585678875
vt 0.811323225 0.59243983
vt 0.80982095 0.585678875
vt 0.844895065 0.59243983
vt 0.794339657 0.575456321
vt 0.85511744 0.576958537
vt 0.801100671 0.576958537
vt 0.861878514 0.575456321
vt 0.794339657 0.541884542
vt 0.85511744 0.540382206
vt 0.801100671 0.540382206
vt 0.861878514 0.541884542
vt 0.811323225 0.524900913
vt 0.846397221 0.531661987
vt 0.80982095 0.531661987
vt 0.844895065 0.524900913
vt 0.863500953 0.576442778
vt 0.871729791 0.544753969
vt 0.863498151 0.542043209
vt 0.87172842 0.573625863
vt 0.883023143 0.534130514
vt 0.880637527 0.591980636
vt 0.880455256 0.526143134
vt 0.883103907 0.58394134
vt 0.912024915 0.533686697
vt 0.915000618 0.591181159
vt 0.914463699 0.526071608
vt 0.912341595 0.583941102
vt 0.924078286 0.544708669
vt 0.931822419 0.575492918
vt 0.9317981 0.541983068
vt 0.92407912 0.5727337
vt 0.846397221 0.585678875
vt 0.811323225 0.59243983
vt 0.80982095 0.585678875
vt 0.844895065 0.59243983
vt 0.794339657 0.575456321
vt 0.85511744 0.576958537
vt 0.801100671 0.576958537
vt 0.861878514 0.575456321
vt 0.794339657 0.541884542
vt 0.85511744 0.540382206
vt 0.801100671 0.540382206
vt 0.861878514 0.541884542
vt 0.811323225 0.524900913
vt 0.846397221 0.531661987
vt 0.80982095 0.531661987
vt 0.844895065 0.524900913
vt 0.863500953 0.576442778
vt 0.871729791 0.544753969
vt 0.863498151 0.542043209
vt 0.87172842 0.573625863
vt 0.883023143 0.534130514
vt 0.880637527 0.591980636
vt 0.880455256 0.526143134
vt 0.883103907 0.58394134
vt 0.912024915 0.533686697
vt 0.915000618 0.591181159
vt 0.914463699 0.526071608
vt 0.912341595 0.583941102
vt 0.924078286 0.544708669
vt 0.931822419 0.575492918
vt 0.9317981 0.541983068
vt 0.92407912 0.5727337
vt 0.846397221 0.585678875
vt 0.811323225 0.59243983
vt 0.80982095 0.585678875
vt 0.844895065 0.59243983
vt 0.794339657 0.575456321
vt 0.85511744 0.576958537
vt 0.801100671 0.576958537
vt 0.861878514 0.575456321
vt 0.794339657 0.541884542
vt 0.85511744 0.540382206
vt 0.801100671 0.540382206
vt 0.861878514 0.541884542
vt 0.811323225 0.524900913
vt 0.846397221 0.531661987
vt 0.80982095 0.531661987
vt 0.844895065 0.524900913
vt 0.863500953 0.576442778
vt 0.871729791 0.544753969
vt 0.863498151 0.542043209
vt 0.87172842 0.573625863
vt 0.883023143 0.534130514
vt 0.880637527 0.591980636
vt 0.880455256 0.526143134
vt 0.883103907 0.58394134
vt 0.912024915 0.533686697
vt 0.915000618 0.591181159
vt 0.914463699 0.526071608
vt 0.912341595 0.583941102
vt 0.924078286 0.544708669
vt 0.931822419 0.575492918
vt 0.9317981 0.541983068
vt 0.92407912 0.5727337
vt 0.846397221 0.585678875
vt 0.811323225 0.59243983
vt 0.80982095 0.585678875
vt 0.844895065 0.59243983
vt 0.794339657 0.575456321
vt 0.85511744 0.576958537
vt 0.801100671 0.576958537
vt 0.861878514 0.575456321
vt 0.794339657 0.541884542
vt 0.85511744 0.540382206
vt 0.801100671 0.540382206
vt 0.861878514 0.541884542
vt 0.811323225 0.524900913
vt 0.846397221 0.531661987
vt 0.80982095 0.531661987
vt 0.844895065 0.524900913
vt 0.859570205 0.900560141
vt 0.853561461 0.919794679
vt 0.859563768 0.922462285
vt 0.853507638 0.903330207
vt 0.843739629 0.929398358
vt 0.846528053 0.887539923
vt 0.846483886 0.935384214
vt 0.843766689 0.893562496
vt 0.827275038 0.929398358
vt 0.824529409 0.887520969
vt 0.824485123 0.935384214
vt 0.827288508 0.893567264
vt 0.81744945 0.919713497
vt 0.811430693 0.900571227
vt 0.811390936 0.922434986
vt 0.817505658 0.903369725
vt 0.811390936 0.922434986
vt 0.81744945 0.919713497
vt 0.817506194 0.903370261
vt 0.811430693 0.900571227
vt 0.824485123 0.935384214
vt 0.827288508 0.893567264
vt 0.827275038 0.929398358
vt 0.824529409 0.887520969
vt 0.846483886 0.935384214
vt 0.843766689 0.893562496
vt 0.843739629 0.929398358
vt 0.846528053 0.887539923
vt 0.859563768 0.922462285
vt 0.853507638 0.903330207
vt 0.853561461 0.919794679
vt 0.859570205 0.900560141
vt 0.811390936 0.922434986
vt 0.81744945 0.919713497
vt 0.817506194 0.903370261
vt 0.811430693 0.900571227
vt 0.824485123 0.935384214
vt 0.827288508 0.893567264
vt 0.827275038 0.929398358
vt 0.824529409 0.887520969
vt 0.846483886 0.935384214
vt 0.843766689 0.893562496
vt 0.843739629 0.929398358
vt 0.846528053 0.887539923
vt 0.859563768 0.922462285
vt 0.853507638 0.903330207
vt 0.853561461 0.919794679
vt 0.859570205 0.900560141
vn 0.382686496 -0.923878312 -8.09591147E-05
vn -0.382676661 -0.923882365 -8.11360369E-05
vn 0.382672489 -0.923884094 -8.09596168E-05
vn -0.382692575 -0.923875749 -8.11354475E-05
vn -0.707109153 -0.707104325 -6.22413427E-05
vn -0.707109153 -0.707104325 -6.22413427E-05
vn 0.707100093 -0.707113385 -6.19158964E-05
vn 0.382686496 -0.923878312 -8.09591147E-05
vn 0.382672489 -0.923884094 -8.09596168E-05
vn 0.707100093 -0.707113385 -6.19158964E-05
vn 1 1.69888244E-06 0
vn 1 1.69888244E-06 0
vn 1 1.69888244E-06 0
vn 1 1.69888222E-06 0
vn 0.382675469 0.923882902 8.10529164E-05
vn 0.707106113 0.707107425 6.200184E-05
vn 0.707106113 0.707107425 6.20018254E-05
vn 0.382691354 0.923876286 8.10523343E-05
vn -0.382676899 0.923882246 8.09435296E-05
vn -0.382689267 0.92387706 8.09430712E-05
vn -0.707106769 0.707106769 6.17997357E-05
vn -0.707106769 0.707106769 6.17997357E-05
vn -1 -3.32056334E-06 0
vn -1 -3.32056334E-06 0
vn -1 -3.32056334E-06 0
vn -1 -3.32056288E-06 0
vn 0.382692456 -0.923875749 8.09490448E-05
vn 0.382676303 -0.923882484 8.0949605E-05
vn -0.382677555 -0.923881948 8.01773494E-05
vn -0.382691354 -0.923876286 8.01768183E-05
vn -0.707109392 -0.707104146 6.09007693E-05
vn -0.707109392 -0.707104146 6.09007657E-05
vn 0.707107186 -0.707106352 6.23278975E-05
vn 0.707107186 -0.707106352 6.23278756E-05
vn 0.382676303 -0.923882484 8.0949605E-05
vn 0.382692456 -0.923875749 8.09490448E-05
vn 1 -1.7374897E-06 7.21468609E-07
vn 1 -1.7374897E-06 7.21468609E-07
vn 1 -1.73748981E-06 7.21468609E-07
vn 1 -1.7374897E-06 7.21468609E-07
vn 0.382677019 0.923882186 -8.05573291E-05
vn 0.707108498 0.707104981 -6.13445955E-05
vn 0.707108498 0.707104981 -6.13445955E-05
vn 0.382692128 0.923875868 -8.05567906E-05
vn -0.382680386 0.923880756 -8.12805811E-05
vn -0.38269344 0.923875332 -8.12801227E-05
vn -0.707112074 0.707101405 -6.26809124E-05
vn -0.707112074 0.707101405 -6.26809124E-05
vn -1 0 -1.67948315E-06
vn -1 0 -1.67948315E-06
vn -1 0 -1.67948315E-06
vn -1 0 -1.67948315E-06
vn 0.92387718 4.04682978E-05 -0.382688999
vn 0.923880935 4.04684542E-05 -0.382680118
vn 0.923880458 4.01070538E-05 0.38268131
vn 0.923877895 4.01069337E-05 0.38268739
vn 0.707104266 3.04603527E-05 0.707109272
vn 0.707104266 3.04603509E-05 0.707109272
vn 0.707106173 3.11281874E-05 -0.707107306
vn 0.707106113 3.11281874E-05 -0.707107365
vn 0.923880935 4.04684542E-05 -0.382680118
vn 0.92387718 4.04682978E-05 -0.382688999
vn 1.23554889E-06 3.44329095E-07 -1
vn 1.23554889E-06 3.44329152E-07 -1
vn 1.23554889E-06 3.44329095E-07 -1
vn 1.23554889E-06 3.44329095E-07 -1
vn -0.923880458 -4.02474725E-05 -0.38268137
vn -0.707104325 -3.0666044E-05 -0.707109153
vn -0.707104325 -3.0666044E-05 -0.707109272
vn -0.923877358 -4.02473306E-05 -0.382688612
vn -0.923879504 -4.05766841E-05 0.382683277
vn -0.92387718 -4.05765823E-05 0.382689029
vn -0.707102537 -3.12743432E-05 0.707110941
vn -0.707102537 -3.12743505E-05 0.707110941
vn -0 -6.88550131E-07 1
vn -0 -6.88550131E-07 1
vn -0 -6.88550131E-07 1
vn -0 -6.88550131E-07 1
vn -0.846889675 -0.372625023 0.379379064
vn -0.846931458 -0.372564852 -0.37934491
vn -0.794538975 -0.544516146 -0.268719167
vn -0.794569373 -0.544469476 0.268724054
vn -0.375743389 -0.358344257 -0.8546381
vn 0.375749618 -0.358320504 -0.854645312
vn 0.386431545 -0.817283988 -0.42745474
vn -0.386443645 -0.817301512 -0.427410245
vn 0.846928298 -0.37257269 -0.379344165
vn 0.846888483 -0.372629404 0.379377693
vn 0.794566631 -0.544474602 0.268721402
vn 0.794533908 -0.54452467 -0.268716991
vn 0.382916719 -0.386492461 0.839046121
vn -0.382918298 -0.386491627 0.839045823
vn -0.384322613 -0.834261835 0.395352066
vn 0.384325057 -0.834255815 0.395362645
vn -0.385057062 0.417714536 0.82294935
vn 0.385056973 0.417713225 0.822949946
vn 0.377365708 0.849806547 0.367999911
vn -0.377362847 0.849813819 0.367986023
vn 0.831417799 0.40386036 0.381629765
vn 0.831463039 0.403786093 -0.381609648
vn 0.776588738 0.570978582 -0.266258389
vn 0.776611388 0.57094115 0.266272336
vn 0.378106236 0.389431745 -0.839868128
vn -0.378096968 0.389454186 -0.839861989
vn -0.379760861 0.834052682 -0.400172174
vn 0.379747808 0.834038079 -0.400215089
vn -0.831454933 0.403796852 -0.381615877
vn -0.831410289 0.403869241 0.381636739
vn -0.776606023 0.570946097 0.266277164
vn -0.776582003 0.570984423 -0.266265154
vn 0.791873753 0.268354744 0.548563302
vn 0.791902244 -0.26835826 0.548520386
vn 0.844625175 -0.379719168 0.377387971
vn 0.844665766 0.379691333 0.377325177
vn -0.791910648 -0.268360406 0.548507273
vn -0.791883171 0.268353075 0.548550427
vn -0.844680488 0.379696816 0.377286822
vn -0.844639301 -0.379723877 0.377351671
vn 0.773245573 -0.265796423 -0.57571137
vn 0.773215294 0.265791923 -0.575754106
vn 0.828445435 0.382006347 -0.409572065
vn 0.828405023 -0.382031918 -0.409629941
vn -0.773257613 0.265794307 -0.57569617
vn -0.773286045 -0.265803099 -0.575653911
vn -0.828450501 -0.382034034 -0.409536034
vn -0.828492939 0.382009327 -0.40947324
vn 0.378106236 0.389431745 -0.839868128
vn -0.382741481 -0.00184520951 -0.923853576
vn -0.378096968 0.389454186 -0.839861989
vn 0.382745147 -0.00184521219 -0.923852146
vn 0.831463039 0.403786093 -0.381609648
vn 0.923830152 -0.00174383889 -0.382798702
vn 0.831417799 0.40386036 0.381629765
vn 0.923862636 -0.00160165154 0.382720858
vn 0.38277784 -0.00150261109 0.923839211
vn 0.385056973 0.417713225 0.822949946
vn -0.385057062 0.417714536 0.82294935
vn -0.382774144 -0.0015026062 0.923840761
vn -0.831410289 0.403869241 0.381636739
vn -0.923861504 -0.00160299009 0.382723749
vn -0.831454933 0.403796852 -0.381615877
vn -0.923828959 -0.00174517976 -0.382801622
vn -0.378096968 0.389454186 -0.839861989
vn -0.382741481 -0.00184520951 -0.923853576
vn 0.382967174 0.0303052608 -0.923264742
vn -0.382030189 0.0303149428 -0.92365247
vn -0.382972419 0.030317083 -0.923262119
vn 0.382037669 0.0303031746 -0.923649728
vn 0.923261881 0.0302961078 -0.382974803
vn 0.923652947 0.0302939694 -0.382030785
vn 0.923262894 0.0302928332 0.382972538
vn 0.923652351 0.0302907079 0.382032424
vn 0.382968247 0.03029784 0.923264563
vn 0.382037491 0.030295752 0.923650146
vn -0.382973611 0.030309679 0.923261881
vn -0.38202998 0.0303075332 0.923652768
vn -0.923262835 0.0303213745 0.382970452
vn -0.923650146 0.0303192809 0.382035673
vn -0.923261821 0.0303246323 -0.382972658
vn -0.923650622 0.0303225201 -0.382034004
vn -0.382972419 0.030317083 -0.923262119
vn -0.382030189 0.0303149428 -0.92365247
vn -0.375743389 -0.358344257 -0.8546381
vn 0.382744014 0.00186870212 -0.923852563
vn 0.375749618 -0.358320504 -0.854645312
vn -0.382741392 0.00186690874 -0.923853695
vn -0.846931458 -0.372564852 -0.37934491
vn -0.923827946 0.00176216592 -0.382803977
vn -0.846889675 -0.372625023 0.379379064
vn -0.923861504 0.00161449588 0.382723391
vn -0.382774621 0.00151176064 0.923840523
vn -0.382918298 -0.386491627 0.839045823
vn 0.382916719 -0.386492461 0.839046121
vn 0.382777035 0.00151391362 0.923839509
vn 0.846888483 -0.372629404 0.379377693
vn 0.9238621 0.0016193511 0.382721841
vn 0.846928298 -0.37257269 -0.379344165
vn 0.92382884 0.00176665955 -0.382801831
vn 0.375749618 -0.358320504 -0.854645312
vn 0.382744014 0.00186870212 -0.923852563
vn -0.382968277 -0.0303052254 -0.923264205
vn 0.382032156 -0.0303149149 -0.923651636
vn 0.382971972 -0.0303170569 -0.923262417
vn -0.382036209 -0.0303031318 -0.923650324
vn -0.923261702 -0.0302927177 -0.382975459
vn -0.923653305 -0.0302905701 -0.382030457
vn -0.923262835 -0.0302894562 0.382973045
vn -0.923652649 -0.0302873217 0.382031858
vn -0.382969618 -0.0302978083 0.923263907
vn -0.38203615 -0.0302957091 0.923650622
vn 0.382973254 -0.0303096492 0.923262
vn 0.382032186 -0.0303075109 0.923651934
vn 0.923263311 -0.0303246565 0.382969022
vn 0.923650146 -0.0303225778 0.382035255
vn 0.923262179 -0.0303279124 -0.382971466
vn 0.923650622 -0.0303258095 -0.382033855
vn 0.382971972 -0.0303170569 -0.923262417
vn 0.382032156 -0.0303149149 -0.923651636
vn -0.844680488 0.379696816 0.377286822
vn -0.923863113 -0.382719636 -0.00162148231
vn -0.844639301 -0.379723877 0.377351671
vn -0.923830688 0.382797301 -0.00176488457
vn -0.377362847 0.849813819 0.367986023
vn -0.382748812 0.923850536 -0.00185346417
vn 0.377365708 0.849806547 0.367999911
vn 0.382739127 0.923854589 -0.00183449767
vn 0.923829436 0.382800609 -0.00171986769
vn 0.844665766 0.379691333 0.377325177
vn 0.844625175 -0.379719168 0.377387971
vn 0.923861802 -0.382723033 -0.00157652562
vn 0.384325057 -0.834255815 0.395362645
vn 0.382771432 -0.923841894 -0.00148868631
vn -0.384322613 -0.834261835 0.395352066
vn -0.382781059 -0.923837781 -0.00150759274
vn -0.844639301 -0.379723877 0.377351671
vn -0.923863113 -0.382719636 -0.00162148231
vn -0.923238933 0.38297087 0.0310344305
vn -0.923636317 -0.382010788 0.0310433805
vn -0.923236191 -0.38297683 0.0310456324
vn -0.923634052 0.382017106 0.0310322419
vn -0.382975042 0.923237503 0.0310271624
vn -0.382012069 0.923636377 0.0310249366
vn 0.382973433 0.923238337 0.0310223196
vn 0.382015705 0.923635066 0.0310201161
vn 0.923239231 0.382971227 0.0310227312
vn 0.923635304 0.382015288 0.031020537
vn 0.92323637 -0.382977158 0.0310339518
vn 0.92363739 -0.382009029 0.0310316961
vn 0.382970542 -0.923238635 0.0310493428
vn 0.382017881 -0.923633218 0.0310471598
vn -0.382972211 -0.923237681 0.0310541559
vn -0.382014275 -0.923634648 0.0310519561
vn -0.923236191 -0.38297683 0.0310456324
vn -0.923636317 -0.382010788 0.0310433805
vn -0.828450501 -0.382034034 -0.409536034
vn -0.923833251 0.3827914 0.00171004585
vn -0.828492939 0.382009327 -0.40947324
vn -0.923864484 -0.382716686 0.00157187809
vn -0.386443645 -0.817301512 -0.427410245
vn -0.382780612 -0.923838079 0.00145841518
vn 0.386431545 -0.817283988 -0.42745474
vn 0.382766962 -0.923843801 0.00143423514
vn 0.923862338 -0.382721871 0.0015148205
vn 0.828405023 -0.382031918 -0.409629941
vn 0.828445435 0.382006347 -0.409572065
vn 0.923831165 0.382796645 0.0016529914
vn 0.379747808 0.834038079 -0.400215089
vn 0.382735997 0.92385602 0.00176725234
vn -0.379760861 0.834052682 -0.400172174
vn -0.382749707 0.923850298 0.00179142924
vn -0.828492939 0.382009327 -0.40947324
vn -0.923833251 0.3827914 0.00171004585
vn -0.923238039 -0.382973433 -0.031031318
vn -0.9236359 0.382012397 -0.0310374163
vn -0.923236489 0.382976443 -0.0310396608
vn -0.923634768 -0.382015526 -0.0310291033
vn -0.382974565 -0.923237622 -0.0310278814
vn -0.382011712 -0.923636496 -0.0310256518
vn 0.382974565 -0.923237622 -0.0310278814
vn 0.382011712 -0.923636496 -0.0310256518
vn 0.923238039 -0.382973373 -0.031031318
vn 0.923634768 -0.382015496 -0.031029107
vn 0.923236489 0.382976413 -0.0310396645
vn 0.9236359 0.382012337 -0.03103742
vn 0.382971853 0.923238039 -0.0310516004
vn 0.382013857 0.923634768 -0.0310494006
vn -0.382971853 0.923238039 -0.0310516004
vn -0.382013857 0.923634768 -0.0310494006
vn -0.923236489 0.382976443 -0.0310396608
vn -0.9236359 0.382012397 -0.0310374163
vn -2.23705896E-07 -3.10660909E-07 -1
vn -2.23705925E-07 -3.10660909E-07 -1
vn -2.23705896E-07 -3.10660937E-07 -1
vn -2.23705896E-07 -3.10660909E-07 -1
vn -2.23705896E-07 -3.1066088E-07 -1
vn -2.23705896E-07 -3.1066088E-07 -1
vn -2.23705925E-07 -3.10660937E-07 -1
vn -2.23705925E-07 -3.10660937E-07 -1
vn -0 -1 0
vn -0 -1 0
vn -0 -1 0
vn -0 -1 0
vn -0 -1 0
vn -0 -1 0
vn -0 -1 0
vn -0 -1 0
vn 4.35506809E-06 -1.20966354E-06 1
vn 4.35506763E-06 -1.20966354E-06 1
vn 4.35506809E-06 -1.20966354E-06 1
vn 4.35506809E-06 -1.20966342E-06 1
vn 4.35506809E-06 -1.20966354E-06 1
vn 4.35506809E-06 -1.20966354E-06 1
vn 4.35506809E-06 -1.20966342E-06 1
vn 4.35506809E-06 -1.20966365E-06 1
vn 1.43137504E-06 1 -3.59293108E-06
vn 1.43137504E-06 1 -3.59293131E-06
vn 1.43137504E-06 1 -3.59293108E-06
vn 1.43137515E-06 1 -3.59293131E-06
vn 1.43137504E-06 1 -3.59293108E-06
vn 1.43137504E-06 1 -3.59293131E-06
vn 1.43137504E-06 1 -3.59293063E-06
vn 1.43137504E-06 1 -3.59293108E-06
vn -0.794538975 -0.544516146 -0.268719167
vn -0.965170324 -0.184995681 0.184994608
vn -0.794569373 -0.544469476 0.268724054
vn -0.791910648 -0.268360406 0.548507273
vn -0.965137661 -0.184993774 -0.185166419
vn -0.773286045 -0.265803099 -0.575653911
vn -0.773257613 0.265794307 -0.57569617
vn -0.965138137 0.185164943 0.184992567
vn -0.791883171 0.268353075 0.548550427
vn -0.776606023 0.570946097 0.266277164
vn -0.965105712 0.185162857 -0.185164303
vn -0.776582003 0.570984423 -0.266265154
vn 0.794566631 -0.544474602 0.268721402
vn 0.965137661 -0.184993714 -0.185166746
vn 0.794533908 -0.54452467 -0.268716991
vn 0.773245573 -0.265796423 -0.57571137
vn 0.965170085 -0.184996024 0.184995323
vn 0.791902244 -0.26835826 0.548520386
vn 0.791873753 0.268354744 0.548563302
vn 0.965104461 0.185168713 -0.185164228
vn 0.773215294 0.265791923 -0.575754106
vn 0.776588738 0.570978582 -0.266258389
vn 0.965137005 0.18517068 0.184992641
vn 0.776611388 0.57094115 0.266272336
vn -0.794569373 -0.544469476 0.268724054
vn -0.791910648 -0.268360406 0.548507273
vn -0.583684564 -0.572903097 0.575408041
vn -0.846889675 -0.372625023 0.379379064
vn -0.844639301 -0.379723877 0.377351671
vn -0.382918298 -0.386491627 0.839045823
vn -0.384322613 -0.834261835 0.395352066
vn -0.773286045 -0.265803099 -0.575653911
vn -0.794538975 -0.544516146 -0.268719167
vn -0.578123569 -0.567426622 -0.5863446
vn -0.828450501 -0.382034034 -0.409536034
vn -0.846931458 -0.372564852 -0.37934491
vn -0.386443645 -0.817301512 -0.427410245
vn -0.375743389 -0.358344257 -0.8546381
vn -0.776582003 0.570984423 -0.266265154
vn -0.773257613 0.265794307 -0.57569617
vn -0.572838306 0.578178644 -0.581004143
vn -0.831454933 0.403796852 -0.381615877
vn -0.828492939 0.382009327 -0.40947324
vn -0.378096968 0.389454186 -0.839861989
vn -0.379760861 0.834052682 -0.400172174
vn -0.578267992 0.583652914 0.57004863
vn -0.776606023 0.570946097 0.266277164
vn -0.831410289 0.403869241 0.381636739
vn -0.791883171 0.268353075 0.548550427
vn -0.385057062 0.417714536 0.82294935
vn -0.844680488 0.379696816 0.377286822
vn -0.377362847 0.849813819 0.367986023
vn 0.828405023 -0.382031918 -0.409629941
vn 0.386431545 -0.817283988 -0.42745474
vn 0.578113973 -0.56741786 -0.58636272
vn 0.773245573 -0.265796423 -0.57571137
vn 0.375749618 -0.358320504 -0.854645312
vn 0.794533908 -0.54452467 -0.268716991
vn 0.846928298 -0.37257269 -0.379344165
vn 0.379747808 0.834038079 -0.400215089
vn 0.828445435 0.382006347 -0.409572065
vn 0.572831869 0.578169882 -0.581019163
vn 0.378106236 0.389431745 -0.839868128
vn 0.773215294 0.265791923 -0.575754106
vn 0.831463039 0.403786093 -0.381609648
vn 0.776588738 0.570978582 -0.266258389
vn 0.846888483 -0.372629404 0.379377693
vn 0.382916719 -0.386492461 0.839046121
vn 0.583683789 -0.572903335 0.575408638
vn 0.794566631 -0.544474602 0.268721402
vn 0.384325057 -0.834255815 0.395362645
vn 0.791902244 -0.26835826 0.548520386
vn 0.844625175 -0.379719168 0.377387971
vn 0.776611388 0.57094115 0.266272336
vn 0.578269005 0.583652377 0.570048094
vn 0.831417799 0.40386036 0.381629765
vn 0.791873753 0.268354744 0.548563302
vn 0.385056973 0.417713225 0.822949946
vn 0.844665766 0.379691333 0.377325177
vn 0.377365708 0.849806547 0.367999911
vn -0.350928664 -0.139541209 -0.925946712
vn -0.345809162 0.154894009 -0.925431669
vn -0.350929022 0.139542207 -0.925946414
vn -0.345808297 -0.154894292 -0.925432026
vn -0.154894397 0.345810264 -0.925431192
vn -0.139541671 -0.350929767 -0.925946236
vn -0.139540642 0.35093084 -0.925945938
vn -0.154892445 -0.345810115 -0.925431609
vn 0.154894397 0.345810264 -0.925431192
vn 0.139540985 -0.35093081 -0.925945938
vn 0.139540642 0.35093084 -0.925945938
vn 0.154895008 -0.345810235 -0.925431192
vn 0.345809162 0.154893979 -0.925431669
vn 0.350929767 -0.139541686 -0.925946236
vn 0.350929022 0.139542207 -0.925946414
vn 0.345809489 -0.154894605 -0.92543149
vn -0.779851198 -0.538727283 0.318755448
vn -0.783343375 0.190241098 0.591761291
vn -0.779851556 0.538727641 0.318754047
vn -0.783343375 -0.190242246 0.591760933
vn -0.190239474 0.783340394 0.591765761
vn -0.538731515 -0.77984941 0.318752676
vn -0.53873235 0.779848516 0.318753421
vn -0.190239459 -0.783342421 0.591763139
vn 0.190240636 0.783340216 0.591765642
vn 0.538728595 -0.77984935 0.318757713
vn 0.538729429 0.779848516 0.318758458
vn 0.190240636 -0.783342183 0.5917629
vn 0.783342481 0.190241069 0.591762424
vn 0.779849648 -0.538727283 0.318759143
vn 0.779850006 0.538727522 0.318757772
vn 0.783342481 -0.190242246 0.591762066
vn -0.462666839 0.18434301 0.867154479
vn -0.45627591 -0.202929422 0.866390169
vn -0.462667733 -0.184343264 0.867154062
vn -0.456275076 0.202929065 0.866390705
vn -0.202929661 -0.4562774 0.866389275
vn -0.184343904 0.462668419 0.867153585
vn -0.184343636 -0.462669373 0.867153049
vn -0.202928081 0.456277132 0.86638993
vn 0.202928916 -0.456277698 0.866389394
vn 0.184344366 0.462668806 0.867153227
vn 0.18434459 -0.462669075 0.867153049
vn 0.202928782 0.45627743 0.866389573
vn 0.456277668 -0.202929333 0.866389275
vn 0.462669283 0.18434383 0.867153168
vn 0.462669432 -0.184343755 0.867153049
vn 0.456277549 0.202929124 0.866389453
vn -0.763042569 0.547944307 -0.342816263
vn -0.738098264 -0.172634438 -0.652233362
vn -0.763041556 -0.547942996 -0.342820793
vn -0.7380988 0.172634035 -0.652232826
vn -0.172631279 -0.738090754 -0.652242601
vn -0.547946215 0.763041019 -0.342816889
vn -0.547945321 -0.76303941 -0.342821956
vn -0.172631785 0.738093674 -0.652239203
vn 0.172634035 -0.738089323 -0.652243495
vn 0.547941089 0.763037384 -0.342833012
vn 0.547940254 -0.763035774 -0.34283796
vn 0.172634467 0.738092244 -0.652240098
vn 0.738091648 -0.172633052 -0.65224123
vn 0.763038337 0.547940671 -0.342831671
vn 0.763037384 -0.54793936 -0.342835933
vn 0.738092124 0.172632635 -0.652240694
vn -0.164396256 -0.895764589 -0.413012773
vn 0.181697562 -0.895106137 -0.407149851
vn 0.164397329 -0.895764053 -0.413013637
vn -0.181696132 -0.895106912 -0.407148868
vn 0.407152295 -0.895105302 -0.18169643
vn -0.413011104 -0.895765483 -0.164396062
vn 0.413015872 -0.89576298 -0.164397329
vn -0.407147557 -0.895107567 -0.18169558
vn 0.407152861 -0.895105064 0.181696236
vn -0.413011909 -0.895765066 0.164395839
vn 0.413016379 -0.895762801 0.164397284
vn -0.407148182 -0.89510721 0.181696117
vn 0.181698114 -0.89510566 0.407150656
vn -0.164396986 -0.895764053 0.413013905
vn 0.16439797 -0.895763576 0.413014501
vn -0.181696758 -0.895106256 0.40715003
vn -0.538333952 0.317818016 -0.780505061
vn 0.190937877 0.589340091 -0.784997404
vn 0.538333833 0.317820221 -0.780504286
vn -0.190940008 0.589338362 -0.784998298
vn 0.784992635 0.589346111 -0.190939054
vn -0.780503213 0.31781441 -0.538338959
vn 0.780499518 0.317822874 -0.538339376
vn -0.785001397 0.58933413 -0.190940037
vn 0.784992278 0.589346468 0.190939248
vn -0.780503213 0.317818671 0.538336396
vn 0.780499399 0.317827255 0.538336694
vn -0.78500104 0.589334548 0.190940201
vn 0.190937772 0.589343965 0.784994543
vn -0.53833437 0.317822963 0.780502737
vn 0.538334429 0.317825139 0.780501902
vn -0.190939844 0.589341998 0.784995496
vn 0.164399162 0.895762682 -0.413015842
vn -0.181700066 0.895103157 -0.407155335
vn -0.164398357 0.895761132 -0.413019449
vn 0.181695879 0.895105064 -0.407152921
vn -0.407158524 0.895101666 -0.181699991
vn 0.413016617 0.895762622 -0.164398
vn -0.41302231 0.895759463 -0.164400786
vn 0.407152921 0.895104885 -0.18169713
vn -0.40715915 0.895101368 0.181699991
vn 0.413017422 0.895762205 0.16439797
vn -0.413022816 0.895759225 0.164400876
vn 0.407153577 0.895104408 0.181697845
vn -0.181700602 0.895102441 0.407156616
vn 0.164400041 0.895761728 0.413017422
vn -0.164399117 0.895760477 0.41302079
vn 0.181696564 0.89510411 0.40715462
vn 0.538336575 -0.317828208 -0.78049922
vn -0.19093591 -0.589347482 -0.784992337
vn -0.538335145 -0.317820579 -0.780503273
vn 0.190936327 -0.589349747 -0.784990609
vn -0.784992695 -0.589346349 -0.190937996
vn 0.780497253 -0.317832232 -0.538337111
vn -0.78049922 -0.317820191 -0.538341284
vn 0.784983873 -0.589358747 -0.190935627
vn -0.784992635 -0.589346349 0.190938443
vn 0.780497313 -0.317835569 0.538334966
vn -0.780499279 -0.317823559 0.538339138
vn 0.784983814 -0.589358866 0.190936089
vn -0.190935969 -0.589349031 0.784991264
vn 0.538336813 -0.317831278 0.78049773
vn -0.538335443 -0.317823827 0.780501842
vn 0.190936461 -0.589351416 0.784989357
vn 1.1071068E-05 4.19276876E-06 -1
vn 3.45225658E-06 7.90765989E-06 -1
vn 3.1062591E-06 8.09901394E-06 -1
vn 1.10828314E-05 4.16659486E-06 -1
vn -2.27919281E-06 1.75253826E-05 -1
vn 3.87203681E-06 8.01763235E-06 -1
vn -2.22878407E-06 1.76396497E-05 -1
vn 3.48344133E-06 8.19710931E-06 -1
vn 8.39725999E-06 1.99108308E-05 -1
vn -4.11566998E-06 1.08946142E-05 -1
vn 8.14985651E-06 1.99927708E-05 -1
vn -4.08870665E-06 1.09195007E-05 -1
vn 1.50568467E-05 1.04451237E-05 -1
vn 3.67904158E-06 7.6274755E-06 -1
vn 1.5283129E-05 1.13727265E-05 -1
vn 4.98241116E-06 7.19607988E-06 -1
vn -6.2457998E-06 1 1.34069987E-05
vn -5.77235551E-06 1 1.33025906E-05
vn 1.79965582E-06 1 5.73058605E-06
vn 1.71142665E-06 1 5.44964041E-06
vn -1.94014319E-05 1 4.36324854E-06
vn -5.73049283E-06 1 1.7996482E-06
vn -1.96059536E-05 1 3.79276298E-06
vn -5.4497068E-06 1 1.71146758E-06
vn -1.14439863E-05 1 -3.59398769E-06
vn -1.33025933E-05 1 9.37171353E-06
vn -1.20341192E-05 1 -3.77931951E-06
vn -1.34070024E-05 1 9.66876451E-06
vn -3.59397291E-06 1 1.14443428E-05
vn -1.13513115E-05 1 1.96064502E-05
vn -3.77929427E-06 1 1.20344639E-05
vn -1.15514313E-05 1 1.94018394E-05
vn -1.34069824E-05 6.24577069E-06 1
vn -1.33025724E-05 5.77232549E-06 1
vn -5.7305856E-06 -1.79965548E-06 1
vn -5.44962859E-06 -1.71142278E-06 1
vn -4.19210664E-06 1.99463411E-05 1
vn -1.79964786E-06 5.73048874E-06 1
vn -3.61277898E-06 2.01789553E-05 1
vn -1.71146939E-06 5.44970726E-06 1
vn 3.76514481E-06 1.19889764E-05 1
vn -9.371739E-06 1.33026033E-05 1
vn 3.95927373E-06 1.26071218E-05 1
vn -9.66875996E-06 1.34070051E-05 1
vn -1.19893184E-05 3.76512321E-06 1
vn -2.01795265E-05 1.15312923E-05 1
vn -1.26075147E-05 3.95926099E-06 1
vn -1.9946825E-05 1.17225864E-05 1
g P_T_B_Vert_0
f 3/3/3 2/2/2 1/1/1
f 2/2/2 4/4/4 1/1/1
f 2/2/2 5/5/5 4/4/4
f 5/5/5 6/6/6 4/4/4
f 9/9/9 8/8/8 7/7/7
f 10/10/10 9/9/9 7/7/7
f 13/13/13 12/12/12 11/11/11
f 14/14/14 13/13/13 11/11/11
f 17/17/17 16/16/16 15/15/15
f 18/18/18 17/17/17 15/15/15
f 18/18/18 15/15/15 19/19/19
f 20/20/20 18/18/18 19/19/19
f 20/20/20 19/19/19 21/21/21
f 22/22/22 20/20/20 21/21/21
f 25/25/25 24/24/24 23/23/23
f 26/26/26 25/25/25 23/23/23
f 29/29/29 28/28/28 27/27/27
f 30/30/30 29/29/29 27/27/27
f 31/31/31 29/29/29 30/30/30
f 32/32/32 31/31/31 30/30/30
f 35/35/35 34/34/34 33/33/33
f 36/36/36 35/35/35 33/33/33
f 39/39/39 38/38/38 37/37/37
f 40/40/40 39/39/39 37/37/37
f 43/43/43 42/42/42 41/41/41
f 42/42/42 44/44/44 41/41/41
f 41/41/41 44/44/44 45/45/45
f 44/44/44 46/46/46 45/45/45
f 45/45/45 46/46/46 47/47/47
f 46/46/46 48/48/48 47/47/47
f 51/51/51 50/50/50 49/49/49
f 52/52/52 51/51/51 49/49/49
f 55/55/55 54/54/54 53/53/53
f 56/56/56 55/55/55 53/53/53
f 57/57/57 55/55/55 56/56/56
f 58/58/58 57/57/57 56/56/56
f 61/61/61 60/60/60 59/59/59
f 62/62/62 61/61/61 59/59/59
f 65/65/65 64/64/64 63/63/63
f 66/66/66 65/65/65 63/63/63
f 69/69/69 68/68/68 67/67/67
f 68/68/68 70/70/70 67/67/67
f 67/67/67 70/70/70 71/71/71
f 70/70/70 72/72/72 71/71/71
f 71/71/71 72/72/72 73/73/73
f 72/72/72 74/74/74 73/73/73
f 77/77/77 76/76/76 75/75/75
f 78/78/78 77/77/77 75/75/75
f 81/81/81 80/80/80 79/79/79
f 82/82/82 81/81/81 79/79/79
f 85/85/85 84/84/84 83/83/83
f 86/86/86 85/85/85 83/83/83
f 89/89/89 88/88/88 87/87/87
f 90/90/90 89/89/89 87/87/87
f 93/93/93 92/92/92 91/91/91
f 94/94/94 93/93/93 91/91/91
f 97/97/97 96/96/96 95/95/95
f 98/98/98 97/97/97 95/95/95
f 101/101/101 100/100/100 99/99/99
f 102/102/102 101/101/101 99/99/99
f 105/105/105 104/104/104 103/103/103
f 106/106/106 105/105/105 103/103/103
f 109/109/109 108/108/108 107/107/107
f 110/110/110 109/109/109 107/107/107
f 113/113/113 112/112/112 111/111/111
f 114/114/114 113/113/113 111/111/111
f 117/117/117 116/116/116 115/115/115
f 118/118/118 117/117/117 115/115/115
f 121/121/121 120/120/120 119/119/119
f 122/122/122 121/121/121 119/119/119
f 125/125/125 124/124/124 123/123/123
f 126/126/126 125/125/125 123/123/123
f 129/129/129 128/128/128 127/127/127
f 128/128/128 130/130/130 127/127/127
f 131/131/131 127/127/127 130/130/130
f 132/132/132 131/131/131 130/130/130
f 131/131/131 132/132/132 133/133/133
f 132/132/132 134/134/134 133/133/133
f 134/134/134 135/135/135 133/133/133
f 135/135/135 136/136/136 133/133/133
f 136/136/136 135/135/135 137/137/137
f 135/135/135 138/138/138 137/137/137
f 139/139/139 137/137/137 138/138/138
f 140/140/140 139/139/139 138/138/138
f 139/139/139 140/140/140 141/141/141
f 140/140/140 142/142/142 141/141/141
f 143/143/143 141/141/141 142/142/142
f 144/144/144 143/143/143 142/142/142
f 147/147/147 146/146/146 145/145/145
f 146/146/146 148/148/148 145/145/145
f 145/145/145 148/148/148 149/149/149
f 148/148/148 150/150/150 149/149/149
f 149/149/149 150/150/150 151/151/151
f 150/150/150 152/152/152 151/151/151
f 151/151/151 152/152/152 153/153/153
f 152/152/152 154/154/154 153/153/153
f 153/153/153 154/154/154 155/155/155
f 154/154/154 156/156/156 155/155/155
f 155/155/155 156/156/156 157/157/157
f 156/156/156 158/158/158 157/157/157
f 157/157/157 158/158/158 159/159/159
f 158/158/158 160/160/160 159/159/159
f 159/159/159 160/160/160 161/161/161
f 160/160/160 162/162/162 161/161/161
f 165/165/165 164/164/164 163/163/163
f 164/164/164 166/166/166 163/163/163
f 167/167/167 163/163/163 166/166/166
f 168/168/168 167/167/167 166/166/166
f 167/167/167 168/168/168 169/169/169
f 168/168/168 170/170/170 169/169/169
f 170/170/170 171/171/171 169/169/169
f 171/171/171 172/172/172 169/169/169
f 172/172/172 171/171/171 173/173/173
f 171/171/171 174/174/174 173/173/173
f 175/175/175 173/173/173 174/174/174
f 176/176/176 175/175/175 174/174/174
f 175/175/175 176/176/176 177/177/177
f 176/176/176 178/178/178 177/177/177
f 179/179/179 177/177/177 178/178/178
f 180/180/180 179/179/179 178/178/178
f 183/183/183 182/182/182 181/181/181
f 182/182/182 184/184/184 181/181/181
f 181/181/181 184/184/184 185/185/185
f 184/184/184 186/186/186 185/185/185
f 185/185/185 186/186/186 187/187/187
f 186/186/186 188/188/188 187/187/187
f 187/187/187 188/188/188 189/189/189
f 188/188/188 190/190/190 189/189/189
f 189/189/189 190/190/190 191/191/191
f 190/190/190 192/192/192 191/191/191
f 191/191/191 192/192/192 193/193/193
f 192/192/192 194/194/194 193/193/193
f 193/193/193 194/194/194 195/195/195
f 194/194/194 196/196/196 195/195/195
f 195/195/195 196/196/196 197/197/197
f 196/196/196 198/198/198 197/197/197
f 201/201/201 200/200/200 199/199/199
f 200/200/200 202/202/202 199/199/199
f 203/203/203 199/199/199 202/202/202
f 204/204/204 203/203/203 202/202/202
f 203/203/203 204/204/204 205/205/205
f 204/204/204 206/206/206 205/205/205
f 206/206/206 207/207/207 205/205/205
f 207/207/207 208/208/208 205/205/205
f 208/208/208 207/207/207 209/209/209
f 207/207/207 210/210/210 209/209/209
f 211/211/211 209/209/209 210/210/210
f 212/212/212 211/211/211 210/210/210
f 211/211/211 212/212/212 213/213/213
f 212/212/212 214/214/214 213/213/213
f 215/215/215 213/213/213 214/214/214
f 216/216/216 215/215/215 214/214/214
f 219/219/219 218/218/218 217/217/217
f 218/218/218 220/220/220 217/217/217
f 217/217/217 220/220/220 221/221/221
f 220/220/220 222/222/222 221/221/221
f 221/221/221 222/222/222 223/223/223
f 222/222/222 224/224/224 223/223/223
f 223/223/223 224/224/224 225/225/225
f 224/224/224 226/226/226 225/225/225
f 225/225/225 226/226/226 227/227/227
f 226/226/226 228/228/228 227/227/227
f 227/227/227 228/228/228 229/229/229
f 228/228/228 230/230/230 229/229/229
f 229/229/229 230/230/230 231/231/231
f 230/230/230 232/232/232 231/231/231
f 231/231/231 232/232/232 233/233/233
f 232/232/232 234/234/234 233/233/233
f 237/237/237 236/236/236 235/235/235
f 236/236/236 238/238/238 235/235/235
f 239/239/239 235/235/235 238/238/238
f 240/240/240 239/239/239 238/238/238
f 239/239/239 240/240/240 241/241/241
f 240/240/240 242/242/242 241/241/241
f 242/242/242 243/243/243 241/241/241
f 243/243/243 244/244/244 241/241/241
f 244/244/244 243/243/243 245/245/245
f 243/243/243 246/246/246 245/245/245
f 247/247/247 245/245/245 246/246/246
f 248/248/248 247/247/247 246/246/246
f 247/247/247 248/248/248 249/249/249
f 248/248/248 250/250/250 249/249/249
f 251/251/251 249/249/249 250/250/250
f 252/252/252 251/251/251 250/250/250
f 255/255/255 254/254/254 253/253/253
f 254/254/254 256/256/256 253/253/253
f 253/253/253 256/256/256 257/257/257
f 256/256/256 258/258/258 257/257/257
f 257/257/257 258/258/258 259/259/259
f 258/258/258 260/260/260 259/259/259
f 259/259/259 260/260/260 261/261/261
f 260/260/260 262/262/262 261/261/261
f 261/261/261 262/262/262 263/263/263
f 262/262/262 264/264/264 263/263/263
f 263/263/263 264/264/264 265/265/265
f 264/264/264 266/266/266 265/265/265
f 265/265/265 266/266/266 267/267/267
f 266/266/266 268/268/268 267/267/267
f 267/267/267 268/268/268 269/269/269
f 268/268/268 270/270/270 269/269/269
f 273/273/273 272/272/272 271/271/271
f 271/271/271 274/274/274 273/273/273
f 271/271/271 275/275/275 274/274/274
f 271/271/271 276/276/276 275/275/275
f 276/276/276 277/277/277 275/275/275
f 276/276/276 278/278/278 277/277/277
f 281/281/281 280/280/280 279/279/279
f 279/279/279 282/282/282 281/281/281
f 279/279/279 283/283/283 282/282/282
f 283/283/283 284/284/284 282/282/282
f 283/283/283 285/285/285 284/284/284
f 285/285/285 286/286/286 284/284/284
f 289/289/289 288/288/288 287/287/287
f 287/287/287 290/290/290 289/289/289
f 287/287/287 291/291/291 290/290/290
f 287/287/287 292/292/292 291/291/291
f 292/292/292 293/293/293 291/291/291
f 293/293/293 294/294/294 291/291/291
f 297/297/297 296/296/296 295/295/295
f 295/295/295 298/298/298 297/297/297
f 295/295/295 299/299/299 298/298/298
f 295/295/295 300/300/300 299/299/299
f 300/300/300 301/301/301 299/299/299
f 301/301/301 302/302/302 299/299/299
f 305/305/305 304/304/304 303/303/303
f 306/306/306 304/304/304 305/305/305
f 304/304/304 307/307/307 303/303/303
f 303/303/303 307/307/307 308/308/308
f 308/308/308 307/307/307 309/309/309
f 310/310/310 304/304/304 306/306/306
f 307/307/307 304/304/304 310/310/310
f 311/311/311 310/310/310 306/306/306
f 312/312/312 310/310/310 311/311/311
f 307/307/307 313/313/313 309/309/309
f 313/313/313 307/307/307 310/310/310
f 313/313/313 310/310/310 312/312/312
f 309/309/309 313/313/313 314/314/314
f 314/314/314 313/313/313 312/312/312
f 317/317/317 316/316/316 315/315/315
f 318/318/318 316/316/316 317/317/317
f 316/316/316 319/319/319 315/315/315
f 315/315/315 319/319/319 320/320/320
f 320/320/320 319/319/319 321/321/321
f 322/322/322 316/316/316 318/318/318
f 319/319/319 316/316/316 322/322/322
f 323/323/323 322/322/322 318/318/318
f 324/324/324 322/322/322 323/323/323
f 319/319/319 325/325/325 321/321/321
f 325/325/325 319/319/319 322/322/322
f 325/325/325 322/322/322 324/324/324
f 321/321/321 325/325/325 326/326/326
f 326/326/326 325/325/325 324/324/324
f 329/329/329 328/328/328 327/327/327
f 327/327/327 330/330/330 329/329/329
f 328/328/328 329/329/329 331/331/331
f 329/329/329 330/330/330 332/332/332
f 329/329/329 333/333/333 331/331/331
f 329/329/329 332/332/332 333/333/333
f 336/336/336 335/335/335 334/334/334
f 337/337/337 336/336/336 334/334/334
f 335/335/335 336/336/336 338/338/338
f 336/336/336 337/337/337 339/339/339
f 336/336/336 340/340/340 338/338/338
f 339/339/339 340/340/340 336/336/336
f 343/343/343 342/342/342 341/341/341
f 344/344/344 343/343/343 341/341/341
f 342/342/342 343/343/343 345/345/345
f 343/343/343 344/344/344 346/346/346
f 347/347/347 345/345/345 343/343/343
f 346/346/346 347/347/347 343/343/343
f 350/350/350 349/349/349 348/348/348
f 348/348/348 349/349/349 351/351/351
f 348/348/348 352/352/352 350/350/350
f 353/353/353 348/348/348 351/351/351
f 352/352/352 348/348/348 354/354/354
f 353/353/353 354/354/354 348/348/348
f 357/357/357 356/356/356 355/355/355
f 355/355/355 358/358/358 357/357/357
f 356/356/356 357/357/357 359/359/359
f 357/357/357 358/358/358 360/360/360
f 361/361/361 359/359/359 357/357/357
f 361/361/361 357/357/357 360/360/360
f 364/364/364 363/363/363 362/362/362
f 365/365/365 364/364/364 362/362/362
f 363/363/363 364/364/364 366/366/366
f 364/364/364 365/365/365 367/367/367
f 364/364/364 368/368/368 366/366/366
f 367/367/367 368/368/368 364/364/364
f 371/371/371 370/370/370 369/369/369
f 372/372/372 371/371/371 369/369/369
f 371/371/371 373/373/373 370/370/370
f 371/371/371 372/372/372 374/374/374
f 371/371/371 375/375/375 373/373/373
f 374/374/374 375/375/375 371/371/371
f 378/378/378 377/377/377 376/376/376
f 377/377/377 379/379/379 376/376/376
f 377/377/377 378/378/378 380/380/380
f 379/379/379 377/377/377 381/381/381
f 380/380/380 382/382/382 377/377/377
f 377/377/377 382/382/382 381/381/381
f 385/385/385 384/384/384 383/383/383
f 384/384/384 386/386/386 383/383/383
f 387/387/387 384/384/384 385/385/385
f 383/383/383 386/386/386 388/388/388
f 389/389/389 387/387/387 385/385/385
f 386/386/386 390/390/390 388/388/388
f 391/391/391 387/387/387 389/389/389
f 388/388/388 390/390/390 392/392/392
f 393/393/393 391/391/391 389/389/389
f 390/390/390 394/394/394 392/392/392
f 395/395/395 391/391/391 393/393/393
f 392/392/392 394/394/394 396/396/396
f 397/397/397 395/395/395 393/393/393
f 394/394/394 398/398/398 396/396/396
f 398/398/398 395/395/395 397/397/397
f 396/396/396 398/398/398 397/397/397
f 401/401/401 400/400/400 399/399/399
f 400/400/400 402/402/402 399/399/399
f 403/403/403 400/400/400 401/401/401
f 399/399/399 402/402/402 404/404/404
f 405/405/405 403/403/403 401/401/401
f 402/402/402 406/406/406 404/404/404
f 407/407/407 403/403/403 405/405/405
f 404/404/404 406/406/406 408/408/408
f 409/409/409 407/407/407 405/405/405
f 406/406/406 410/410/410 408/408/408
f 411/411/411 407/407/407 409/409/409
f 408/408/408 410/410/410 412/412/412
f 413/413/413 411/411/411 409/409/409
f 410/410/410 414/414/414 412/412/412
f 414/414/414 411/411/411 413/413/413
f 412/412/412 414/414/414 413/413/413
f 417/417/417 416/416/416 415/415/415
f 416/416/416 418/418/418 415/415/415
f 419/419/419 416/416/416 417/417/417
f 415/415/415 418/418/418 420/420/420
f 421/421/421 419/419/419 417/417/417
f 418/418/418 422/422/422 420/420/420
f 423/423/423 419/419/419 421/421/421
f 420/420/420 422/422/422 424/424/424
f 425/425/425 423/423/423 421/421/421
f 422/422/422 426/426/426 424/424/424
f 427/427/427 423/423/423 425/425/425
f 424/424/424 426/426/426 428/428/428
f 429/429/429 427/427/427 425/425/425
f 426/426/426 430/430/430 428/428/428
f 430/430/430 427/427/427 429/429/429
f 428/428/428 430/430/430 429/429/429
f 433/433/433 432/432/432 431/431/431
f 432/432/432 434/434/434 431/431/431
f 435/435/435 432/432/432 433/433/433
f 431/431/431 434/434/434 436/436/436
f 437/437/437 435/435/435 433/433/433
f 434/434/434 438/438/438 436/436/436
f 439/439/439 435/435/435 437/437/437
f 436/436/436 438/438/438 440/440/440
f 441/441/441 439/439/439 437/437/437
f 438/438/438 442/442/442 440/440/440
f 443/443/443 439/439/439 441/441/441
f 440/440/440 442/442/442 444/444/444
f 445/445/445 443/443/443 441/441/441
f 442/442/442 446/446/446 444/444/444
f 446/446/446 443/443/443 445/445/445
f 444/444/444 446/446/446 445/445/445
f 449/449/449 448/448/448 447/447/447
f 448/448/448 450/450/450 447/447/447
f 451/451/451 448/448/448 449/449/449
f 447/447/447 450/450/450 452/452/452
f 453/453/453 451/451/451 449/449/449
f 450/450/450 454/454/454 452/452/452
f 455/455/455 451/451/451 453/453/453
f 452/452/452 454/454/454 456/456/456
f 457/457/457 455/455/455 453/453/453
f 454/454/454 458/458/458 456/456/456
f 459/459/459 455/455/455 457/457/457
f 456/456/456 458/458/458 460/460/460
f 461/461/461 459/459/459 457/457/457
f 458/458/458 462/462/462 460/460/460
f 462/462/462 459/459/459 461/461/461
f 460/460/460 462/462/462 461/461/461
f 465/465/465 464/464/464 463/463/463
f 464/464/464 466/466/466 463/463/463
f 467/467/467 464/464/464 465/465/465
f 463/463/463 466/466/466 468/468/468
f 469/469/469 467/467/467 465/465/465
f 466/466/466 470/470/470 468/468/468
f 471/471/471 467/467/467 469/469/469
f 468/468/468 470/470/470 472/472/472
f 473/473/473 471/471/471 469/469/469
f 470/470/470 474/474/474 472/472/472
f 475/475/475 471/471/471 473/473/473
f 472/472/472 474/474/474 476/476/476
f 477/477/477 475/475/475 473/473/473
f 474/474/474 478/478/478 476/476/476
f 478/478/478 475/475/475 477/477/477
f 476/476/476 478/478/478 477/477/477
f 481/481/481 480/480/480 479/479/479
f 480/480/480 482/482/482 479/479/479
f 483/483/483 480/480/480 481/481/481
f 479/479/479 482/482/482 484/484/484
f 485/485/485 483/483/483 481/481/481
f 482/482/482 486/486/486 484/484/484
f 487/487/487 483/483/483 485/485/485
f 484/484/484 486/486/486 488/488/488
f 489/489/489 487/487/487 485/485/485
f 486/486/486 490/490/490 488/488/488
f 491/491/491 487/487/487 489/489/489
f 488/488/488 490/490/490 492/492/492
f 493/493/493 491/491/491 489/489/489
f 490/490/490 494/494/494 492/492/492
f 494/494/494 491/491/491 493/493/493
f 492/492/492 494/494/494 493/493/493
f 497/497/497 496/496/496 495/495/495
f 496/496/496 498/498/498 495/495/495
f 499/499/499 496/496/496 497/497/497
f 495/495/495 498/498/498 500/500/500
f 501/501/501 499/499/499 497/497/497
f 498/498/498 502/502/502 500/500/500
f 503/503/503 499/499/499 501/501/501
f 500/500/500 502/502/502 504/504/504
f 505/505/505 503/503/503 501/501/501
f 502/502/502 506/506/506 504/504/504
f 507/507/507 503/503/503 505/505/505
f 504/504/504 506/506/506 508/508/508
f 509/509/509 507/507/507 505/505/505
f 506/506/506 510/510/510 508/508/508
f 510/510/510 507/507/507 509/509/509
f 508/508/508 510/510/510 509/509/509
f 513/513/513 512/512/512 511/511/511
f 512/512/512 514/514/514 511/511/511
f 515/515/515 512/512/512 513/513/513
f 511/511/511 514/514/514 516/516/516
f 517/517/517 515/515/515 513/513/513
f 514/514/514 518/518/518 516/516/516
f 519/519/519 515/515/515 517/517/517
f 516/516/516 518/518/518 520/520/520
f 521/521/521 519/519/519 517/517/517
f 518/518/518 522/522/522 520/520/520
f 523/523/523 519/519/519 521/521/521
f 520/520/520 522/522/522 524/524/524
f 525/525/525 523/523/523 521/521/521
f 522/522/522 526/526/526 524/524/524
f 526/526/526 523/523/523 525/525/525
f 524/524/524 526/526/526 525/525/525
f 529/529/529 528/528/528 527/527/527
f 530/530/530 529/529/529 527/527/527
f 527/527/527 528/528/528 531/531/531
f 532/532/532 529/529/529 530/530/530
f 528/528/528 533/533/533 531/531/531
f 534/534/534 532/532/532 530/530/530
f 531/531/531 533/533/533 535/535/535
f 536/536/536 532/532/532 534/534/534
f 533/533/533 537/537/537 535/535/535
f 538/538/538 536/536/536 534/534/534
f 535/535/535 537/537/537 539/539/539
f 540/540/540 536/536/536 538/538/538
f 537/537/537 541/541/541 539/539/539
f 542/542/542 540/540/540 538/538/538
f 539/539/539 541/541/541 542/542/542
f 541/541/541 540/540/540 542/542/542
f 545/545/545 544/544/544 543/543/543
f 546/546/546 545/545/545 543/543/543
f 543/543/543 544/544/544 547/547/547
f 548/548/548 545/545/545 546/546/546
f 544/544/544 549/549/549 547/547/547
f 550/550/550 548/548/548 546/546/546
f 547/547/547 549/549/549 551/551/551
f 552/552/552 548/548/548 550/550/550
f 549/549/549 553/553/553 551/551/551
f 554/554/554 552/552/552 550/550/550
f 551/551/551 553/553/553 555/555/555
f 556/556/556 552/552/552 554/554/554
f 553/553/553 557/557/557 555/555/555
f 558/558/558 556/556/556 554/554/554
f 555/555/555 557/557/557 558/558/558
f 557/557/557 556/556/556 558/558/558
