g P_T_PlusUp_B
v 0.0344580226 -0.218503132 0.0630306527
v 0.0630045384 -0.247049078 0.0630305558
v 0.0630039498 -0.218503654 0.0344848149
v -0.063003473 -0.247048885 0.0630307496
v -0.034457732 -0.218502939 0.0630306527
v -0.0630021095 -0.218502939 0.0344849117
v 0.039210476 -0.366866529 0.499999076
v 0.0392106809 -0.366891086 0.218748972
v -0.0392101407 -0.366891176 0.218748465
v -0.0392103456 -0.366866678 0.499998659
v -0.0856159776 -0.320484877 0.218748465
v -0.0856164545 -0.32046026 0.499998659
v 0.0856165737 -0.32046032 0.499999136
v 0.0856167898 -0.320484906 0.218748942
v 0.0392106809 -0.366891086 0.218748972
v 0.039210476 -0.366866529 0.499999076
v 0.0856167227 -0.242039219 0.499998659
v 0.0856169239 -0.242063805 0.218748465
v 0.0856167898 -0.320484906 0.218748942
v 0.0856165737 -0.32046032 0.499999136
v 0.0392107405 -0.195632994 0.499998033
v 0.0856169239 -0.242063805 0.218748465
v 0.0856167227 -0.242039219 0.499998659
v 0.0392109416 -0.195657611 0.218747899
v -0.0392104685 -0.195632994 0.499998629
v -0.0392102748 -0.195657611 0.218748465
v -0.0856164545 -0.242039561 0.499998629
v -0.0856159776 -0.242064148 0.218748465
v -0.0856164545 -0.32046026 0.499998659
v -0.0856159776 -0.320484877 0.218748465
v -0.0856159776 -0.242064148 0.218748465
v -0.0856164545 -0.242039561 0.499998629
v -0.499999762 -0.367016464 -0.039210692
v -0.21875 -0.367041171 0.0392095186
v -0.21875 -0.367041171 -0.039210692
v -0.499999255 -0.367016464 0.0392094217
v -0.218750492 -0.320634693 0.0856156126
v -0.499999762 -0.320609957 0.0856156126
v -0.499999255 -0.320610344 -0.0856177881
v -0.499999762 -0.367016464 -0.039210692
v -0.21875 -0.367041171 -0.039210692
v -0.218749464 -0.320634991 -0.0856177285
v -0.499998719 -0.242189214 -0.0856176913
v -0.499999255 -0.320610344 -0.0856177881
v -0.218749464 -0.320634991 -0.0856177285
v -0.218748927 -0.24221383 -0.0856176391
v -0.499998719 -0.195783034 -0.0392114632
v -0.499998719 -0.242189214 -0.0856176913
v -0.218748927 -0.24221383 -0.0856176391
v -0.218748927 -0.195807725 -0.0392114632
v -0.499998719 -0.195783034 0.039209526
v -0.218749464 -0.195807725 0.039209716
v -0.499999255 -0.242189348 0.0856158882
v -0.21875 -0.242213994 0.0856159925
v -0.499999762 -0.320609957 0.0856156126
v -0.499999255 -0.242189348 0.0856158882
v -0.21875 -0.242213994 0.0856159925
v -0.218750492 -0.320634693 0.0856156126
v 0.500000715 -0.366866499 -0.0392111689
v 0.218750417 -0.366891056 -0.0392113663
v 0.218749881 -0.366891176 0.0392094217
v 0.500000119 -0.366866648 0.0392097272
v 0.218749881 -0.320484877 0.085615404
v 0.500000119 -0.32046026 0.0856158063
v 0.500000715 -0.32046032 -0.0856172517
v 0.218750417 -0.320484966 -0.0856174454
v 0.218750417 -0.366891056 -0.0392113663
v 0.500000715 -0.366866499 -0.0392111689
v 0.500000119 -0.242039219 -0.0856173486
v 0.218749881 -0.242063805 -0.0856175423
v 0.218750417 -0.320484966 -0.0856174454
v 0.500000715 -0.32046032 -0.0856172517
v 0.499999613 -0.195632994 -0.0392114632
v 0.218749881 -0.242063805 -0.0856175423
v 0.500000119 -0.242039219 -0.0856173486
v 0.218749389 -0.195657611 -0.0392116569
v 0.500000119 -0.195632994 0.039209716
v 0.218749881 -0.195657611 0.039209526
v 0.500000119 -0.242039561 0.0856157988
v 0.218749881 -0.242064148 0.085615404
v 0.500000119 -0.32046026 0.0856158063
v 0.218749881 -0.320484877 0.085615404
v 0.218749881 -0.242064148 0.085615404
v 0.500000119 -0.242039561 0.0856157988
v 0.0852342397 0.500000358 -0.0392111763
v 0.0852588043 -0.0628826916 -0.0392113663
v 0.0852589384 -0.0628832206 0.0392094254
v 0.0852343738 0.499999911 0.039209716
v 0.038852606 -0.0628832206 0.0856154114
v 0.0388280004 0.499999911 0.0856157988
v 0.0388280675 0.500000358 -0.0856172517
v 0.038852673 -0.0628826916 -0.0856174454
v 0.0852588043 -0.0628826916 -0.0392113663
v 0.0852342397 0.500000358 -0.0392111763
v -0.0395930521 0.499999911 -0.0856173486
v -0.0395684429 -0.0628832206 -0.0856175423
v 0.038852673 -0.0628826916 -0.0856174454
v 0.0388280675 0.500000358 -0.0856172517
v -0.0859992355 0.499999374 -0.0392114632
v -0.0395684429 -0.0628832206 -0.0856175423
v -0.0395930521 0.499999911 -0.0856173486
v -0.0859746411 -0.0628837422 -0.0392116569
v -0.0859992355 0.499999911 0.039209716
v -0.0859746411 -0.0628832206 0.0392095223
v -0.0395927131 0.499999911 0.0856157988
v -0.0395681001 -0.0628832206 0.0856154114
v 0.0388280004 0.499999911 0.0856157988
v 0.038852606 -0.0628832206 0.0856154114
v -0.0395681001 -0.0628832206 0.0856154114
v -0.0395927131 0.499999911 0.0856157988
v -0.0946478546 -0.220954388 -0.0893938169
v -0.172983393 -0.342097312 -0.0895193815
v -0.0946478546 -0.342036903 -0.0893938169
v -0.172983393 -0.220864594 -0.0895193815
v -0.0946478546 -0.19208625 -0.0605258606
v -0.172983393 -0.191960707 -0.060615778
v -0.0946478546 -0.19208625 0.06055687
v -0.172983393 -0.191960707 0.0606172271
v -0.172983393 -0.220864594 0.0895209983
v -0.0946478546 -0.220954388 0.0894248784
v -0.0946478546 -0.342036903 0.0894248784
v -0.172983393 -0.342097282 0.0895209834
v -0.0946478546 -0.370904952 0.06055687
v -0.172983393 -0.371001124 0.0606172346
v -0.0946478546 -0.370904952 -0.0605258532
v -0.172983393 -0.371001124 -0.060615778
v -0.0946478546 -0.342036903 -0.0893938169
v -0.172983393 -0.342097312 -0.0895193815
v -0.0894092172 -0.376645774 0.0605571531
v -0.0894092172 -0.376645774 -0.0605256632
v -0.0946478546 -0.370904952 -0.0605258532
v -0.0946478546 -0.370904952 0.06055687
v -0.0605410226 -0.376645774 -0.0893936679
v 0.0605413131 -0.376645774 -0.0893937647
v 0.060540922 -0.370905042 -0.0942664295
v -0.0605416037 -0.370905042 -0.0942664295
v 0.0894095078 -0.376645774 -0.0605256632
v 0.0894095078 -0.376645774 0.0605571531
v 0.0946477577 -0.370905071 0.06055687
v 0.0946477577 -0.370905071 -0.0605258532
v 0.0605413131 -0.376645774 0.0894250646
v -0.0605410226 -0.376645774 0.0894250646
v -0.06054122 -0.370904952 0.0950463265
v 0.0605415031 -0.370904952 0.0950463265
v -0.0605410226 -0.187088653 0.0894246772
v 0.0605415031 -0.187088653 0.0894246772
v 0.0605415031 -0.19208625 0.095046334
v -0.06054122 -0.192086235 0.0950464234
v 0.0894095078 -0.187088683 0.0605566688
v 0.0894095078 -0.187088683 -0.0605260544
v 0.0946471766 -0.192086354 -0.0605258606
v 0.0946471766 -0.192086354 0.06055687
v 0.0605415031 -0.187088683 -0.0893940553
v -0.0605410226 -0.187088683 -0.0893940553
v -0.0605416037 -0.19208625 -0.0942664295
v 0.060540922 -0.19208625 -0.0942664295
v -0.0894092172 -0.187088683 -0.0605260544
v -0.0894092172 -0.187088683 0.0605566688
v -0.0946478546 -0.19208625 0.06055687
v -0.0946478546 -0.19208625 -0.0605258606
v 0.0946477577 -0.220954433 0.0894249678
v 0.0946477577 -0.342036903 0.0894249678
v 0.0894095078 -0.342036903 0.0950463265
v 0.0894095078 -0.220954388 0.0950463265
v -0.0946478546 -0.342036903 0.0894248784
v -0.0946478546 -0.220954388 0.0894248784
v -0.0894092172 -0.220954388 0.0950463265
v -0.0894092172 -0.342036903 0.0950463265
v 0.0946477577 -0.342036933 -0.0893938616
v 0.0946477577 -0.220954433 -0.0893938616
v 0.0894089267 -0.220954418 -0.0942663327
v 0.0894089267 -0.342036933 -0.0942664295
v -0.0946478546 -0.220954388 -0.0893938169
v -0.0946478546 -0.342036903 -0.0893938169
v -0.0894098058 -0.342036933 -0.0942664295
v -0.0894098058 -0.220954388 -0.0942664295
v -0.18594189 -0.230901346 -0.101753578
v -0.216765016 -0.331636429 -0.100900963
v -0.18594189 -0.332060575 -0.101753578
v -0.216765016 -0.231324673 -0.100900963
v -0.18594189 -0.179726571 -0.0505789854
v -0.216765016 -0.180578634 -0.0501548834
v -0.18594189 -0.179726571 0.0505805388
v -0.216765016 -0.180578634 0.0501567274
v -0.18594189 -0.230901346 0.101755217
v -0.216765016 -0.231324673 0.100902848
v -0.18594189 -0.332060575 0.101755217
v -0.216765016 -0.331636369 0.10090284
v -0.18594189 -0.383235365 0.0505805388
v -0.216765016 -0.382382423 0.0501567274
v -0.18594189 -0.383235365 -0.0505789854
v -0.216765016 -0.382382423 -0.0501548834
v -0.18594189 -0.332060575 -0.101753578
v -0.216765016 -0.331636429 -0.100900963
v 0.0605415031 -0.187088683 -0.0893940553
v -0.0606160164 -0.108757071 -0.0895193815
v -0.0605410226 -0.187088683 -0.0893940553
v 0.0606166981 -0.108757071 -0.0895193815
v 0.0894095078 -0.187088683 -0.0605260544
v 0.0895201638 -0.108757071 -0.060615778
v 0.0894095078 -0.187088683 0.0605566688
v 0.0895201638 -0.108757071 0.0606172271
v 0.0606166981 -0.108757071 0.0895209834
v 0.0605415031 -0.187088653 0.0894246772
v -0.0605410226 -0.187088653 0.0894246772
v -0.0606160164 -0.108757071 0.0895209834
v -0.0894092172 -0.187088683 0.0605566688
v -0.0895200744 -0.108757071 0.0606172271
v -0.0894092172 -0.187088683 -0.0605260544
v -0.0895200744 -0.108757071 -0.060615778
v -0.0605410226 -0.187088683 -0.0893940553
v -0.0606160164 -0.108757071 -0.0895193815
v 0.0505799092 -0.0957132727 -0.101753578
v -0.0501550287 -0.0643874928 -0.100900963
v -0.0505792275 -0.0957132727 -0.101753578
v 0.050156679 -0.0643874928 -0.100900963
v 0.10175468 -0.0957132429 -0.0505789854
v 0.10090261 -0.0643874928 -0.0501548834
v 0.10175468 -0.0957132503 0.0505805388
v 0.10090261 -0.0643874928 0.0501567274
v 0.0505799092 -0.0957132503 0.101755217
v 0.050156679 -0.0643874928 0.100902848
v -0.0505792275 -0.0957132503 0.101755217
v -0.0501550287 -0.0643874928 0.100902848
v -0.101754203 -0.0957132503 0.0505805388
v -0.100901157 -0.0643874928 0.0501567274
v -0.101754203 -0.0957132429 -0.0505789854
v -0.100901157 -0.0643874928 -0.0501548834
v -0.0505792275 -0.0957132727 -0.101753578
v -0.0501550287 -0.0643874928 -0.100900963
v 0.0946477577 -0.342036933 -0.0893938616
v 0.172984257 -0.220864505 -0.0895190537
v 0.0946477577 -0.220954433 -0.0893938616
v 0.172984257 -0.342097014 -0.0895190537
v 0.0946477577 -0.370905071 -0.0605258532
v 0.172984257 -0.371001005 -0.0606151
v 0.0946477577 -0.370905071 0.06055687
v 0.172984257 -0.371001005 0.0606177114
v 0.172984257 -0.342097014 0.0895215794
v 0.0946477577 -0.342036903 0.0894249678
v 0.0946477577 -0.220954433 0.0894249678
v 0.172984257 -0.220864505 0.0895215645
v 0.0946471766 -0.192086354 0.06055687
v 0.172984257 -0.191960543 0.0606177114
v 0.0946471766 -0.192086354 -0.0605258606
v 0.172984257 -0.191960543 -0.0606151
v 0.0946477577 -0.220954433 -0.0893938616
v 0.172984257 -0.220864505 -0.0895190537
v 0.185942188 -0.332060337 -0.101753183
v 0.216764525 -0.231325179 -0.100900523
v 0.185942188 -0.230901167 -0.101753183
v 0.216764525 -0.331636965 -0.100900523
v 0.185942188 -0.383235127 -0.0505784005
v 0.216764525 -0.382382989 -0.0501544923
v 0.185942188 -0.383235127 0.0505809188
v 0.216764525 -0.382382989 0.0501572974
v 0.185942188 -0.332060337 0.1017555
v 0.216764525 -0.331636965 0.100903243
v 0.185942188 -0.230901167 0.1017555
v 0.216764525 -0.231325179 0.100903235
v 0.185942188 -0.179726318 0.0505809188
v 0.216764525 -0.18057926 0.0501573086
v 0.185942188 -0.179726318 -0.0505784005
v 0.216764525 -0.18057926 -0.0501544923
v 0.185942188 -0.230901167 -0.101753183
v 0.216764525 -0.231325179 -0.100900523
v -0.0605410226 -0.376645774 -0.0893936679
v 0.0606166981 -0.454204857 -0.0895193815
v 0.0605413131 -0.376645774 -0.0893937647
v -0.0606158227 -0.454204857 -0.0895193815
v -0.0894092172 -0.376645774 -0.0605256632
v -0.0895198733 -0.454204857 -0.060615778
v -0.0894092172 -0.376645774 0.0605571531
v -0.0895198733 -0.454204857 0.0606172346
v -0.0606158227 -0.454204857 0.0895209834
v -0.0605410226 -0.376645774 0.0894250646
v 0.0605413131 -0.376645774 0.0894250646
v 0.0606166981 -0.454204857 0.0895209834
v 0.0894095078 -0.376645774 0.0605571531
v 0.0895205513 -0.454204857 0.0606172346
v 0.0894095078 -0.376645774 -0.0605256632
v 0.0895205513 -0.454204857 -0.060615778
v 0.0605413131 -0.376645774 -0.0893937647
v 0.0606166981 -0.454204857 -0.0895193815
v -0.0505792275 -0.467248917 -0.101753525
v 0.0501559004 -0.498574704 -0.100900918
v 0.0505799092 -0.467248917 -0.101753525
v -0.0501557998 -0.498574704 -0.100900918
v -0.101753816 -0.467248917 -0.0505789854
v -0.100901924 -0.498574704 -0.0501548834
v -0.101753816 -0.467248917 0.0505805388
v -0.100901924 -0.498574704 0.0501567274
v -0.0505792275 -0.467248917 0.101755217
v -0.0501557998 -0.498574704 0.10090284
v 0.0505799092 -0.467248917 0.101755217
v 0.0501559004 -0.498574704 0.10090284
v 0.101754881 -0.467248917 0.0505805388
v 0.100901641 -0.498574704 0.0501567274
v 0.101754881 -0.467248917 -0.0505789854
v 0.100901641 -0.498574704 -0.0501548834
v 0.0505799092 -0.467248917 -0.101753525
v 0.0501559004 -0.498574704 -0.100900918
v -0.0894092172 -0.220954388 0.0950463265
v -0.0895220041 -0.342097282 0.17352207
v -0.0894092172 -0.342036903 0.0950463265
v -0.0895220041 -0.220864594 0.17352207
v -0.06054122 -0.192086235 0.0950464234
v -0.060618151 -0.191960707 0.17352207
v 0.0605415031 -0.19208625 0.095046334
v 0.0606145673 -0.191960707 0.17352207
v 0.0895184204 -0.220864594 0.17352207
v 0.0894095078 -0.220954388 0.0950463265
v 0.0894095078 -0.342036903 0.0950463265
v 0.0895184204 -0.342097282 0.17352207
v 0.0605415031 -0.370904952 0.0950463265
v 0.0606145673 -0.371001124 0.17352207
v -0.06054122 -0.370904952 0.0950463265
v -0.060618151 -0.371001124 0.17352207
v -0.0894092172 -0.342036903 0.0950463265
v -0.0895220041 -0.342097282 0.17352207
v -0.101755939 -0.230901375 0.184710041
v -0.100903481 -0.331636369 0.215294197
v -0.101755939 -0.332060575 0.184710041
v -0.100903481 -0.231324643 0.215294227
v -0.0505811684 -0.179726571 0.184710041
v -0.0501573533 -0.180578634 0.215294227
v 0.0505779684 -0.179726571 0.184710041
v 0.0501545407 -0.180578634 0.215294227
v 0.101752557 -0.230901375 0.184710041
v 0.100900479 -0.231324643 0.215294227
v 0.101752557 -0.332060575 0.184710041
v 0.100900479 -0.331636369 0.215294197
v 0.0505779684 -0.383235395 0.184710026
v 0.0501545407 -0.382382423 0.215294197
v -0.0505811684 -0.383235395 0.184710026
v -0.0501573533 -0.382382423 0.215294197
v -0.101755939 -0.332060575 0.184710041
v -0.100903481 -0.331636369 0.215294197
v 0.500000119 -0.345335424 -0.0293506328
v 0.500000119 -0.345335603 0.0293493643
v 0.500000119 -0.310599536 0.0640849471
v 0.500000119 -0.310599625 -0.0640866905
v 0.499999613 -0.251900107 -0.0640866905
v 0.500000715 -0.251900047 0.0640847459
v 0.500000119 -0.217164338 -0.0293502416
v 0.500000715 -0.217164189 0.0293490794
v 0.0293496307 -0.217164338 0.499998629
v 0.06408602 -0.251900107 0.499998033
v 0.06408602 -0.310599625 0.499998659
v 0.0293500274 -0.345335424 0.499998659
v -0.0293500125 -0.345335603 0.499998659
v -0.0293497574 -0.217164189 0.499999106
v -0.0640853569 -0.251900047 0.499999106
v -0.0640856028 -0.310599536 0.499998659
v -0.0644679591 0.499999911 -0.0293502416
v -0.0297321472 0.499999374 -0.0640866831
v 0.02896736 0.499999911 -0.0640866831
v 0.063703157 0.499999911 -0.0293506235
v 0.0637033507 0.499999911 0.0293493643
v -0.0644680932 0.500000358 0.0293490794
v -0.0297322311 0.500000358 0.0640847459
v 0.0289672948 0.499999911 0.0640849471
v -0.499999315 -0.311007023 0.0642541125
v -0.499999315 -0.345834672 0.0294264015
v -0.499999315 -0.345834672 -0.0294282436
v -0.499999315 -0.309139729 -0.0642560571
v -0.499999315 -0.252152145 0.0642539188
v -0.499999315 -0.254020125 -0.0642560571
v -0.499999315 -0.221402645 -0.0294283386
v -0.499999315 -0.221402645 0.0294263065
v 0.0788919404 -0.510012209 -0.0431295373
v 0.0431305543 -0.510012209 -0.0788910165
v -0.0431304537 -0.510012209 -0.0788910165
v -0.0788918361 -0.510012209 -0.0431294441
v 0.0788919404 -0.510012209 0.0431313701
v -0.0788918361 -0.510012209 0.0431313701
v 0.0431305543 -0.510012209 0.0788930506
v -0.0431304537 -0.510012209 0.0788930506
v 0.0894089267 -0.220954418 -0.0942663327
v 0.0433179475 -0.324792624 -0.116953902
v 0.0894089267 -0.342036933 -0.0942664295
v 0.060540922 -0.370905042 -0.0942664295
v 0.0433179475 -0.238157749 -0.116953813
v 0.060540922 -0.19208625 -0.0942664295
v -0.0605416037 -0.19208625 -0.0942664295
v -0.0433172695 -0.324792624 -0.116953902
v -0.0605416037 -0.370905042 -0.0942664295
v -0.0894098058 -0.342036933 -0.0942664295
v -0.0433172695 -0.238157749 -0.116953813
v -0.0894098058 -0.220954388 -0.0942664295
v -0.0819166526 -0.199578583 0.0819324926
v -0.0946478546 -0.19208625 0.06055687
v -0.0894092172 -0.187088683 0.0605566688
v -0.0946478546 -0.220954388 0.0894248784
v -0.0605410226 -0.187088653 0.0894246772
v -0.0894092172 -0.220954388 0.0950463265
v -0.06054122 -0.192086235 0.0950464234
v -0.0946478546 -0.19208625 -0.0605258606
v -0.0946478546 -0.220954388 -0.0893938169
v -0.0819166526 -0.199578583 -0.0819015354
v -0.0894092172 -0.187088683 -0.0605260544
v -0.0894098058 -0.220954388 -0.0942664295
v -0.0605410226 -0.187088683 -0.0893940553
v -0.0605416037 -0.19208625 -0.0942664295
v -0.0946478546 -0.370904952 0.06055687
v -0.0946478546 -0.342036903 0.0894248784
v -0.0819166526 -0.363412648 0.0819325075
v -0.0894092172 -0.376645774 0.0605571531
v -0.0894092172 -0.342036903 0.0950463265
v -0.0605410226 -0.376645774 0.0894250646
v -0.06054122 -0.370904952 0.0950463265
v -0.0946478546 -0.342036903 -0.0893938169
v -0.0946478546 -0.370904952 -0.0605258532
v -0.0819166526 -0.363412619 -0.0819015354
v -0.0894098058 -0.342036933 -0.0942664295
v -0.0894092172 -0.376645774 -0.0605256632
v -0.0605416037 -0.370905042 -0.0942664295
v -0.0605410226 -0.376645774 -0.0893936679
v 0.0819173306 -0.363412619 -0.0819015354
v 0.0605413131 -0.376645774 -0.0893937647
v 0.0894095078 -0.376645774 -0.0605256632
v 0.0946477577 -0.370905071 -0.0605258532
v 0.060540922 -0.370905042 -0.0942664295
v 0.0946477577 -0.342036933 -0.0893938616
v 0.0894089267 -0.342036933 -0.0942664295
v 0.0894095078 -0.376645774 0.0605571531
v 0.0605413131 -0.376645774 0.0894250646
v 0.0819173306 -0.363412648 0.0819325075
v 0.0946477577 -0.370905071 0.06055687
v 0.0605415031 -0.370904952 0.0950463265
v 0.0946477577 -0.342036903 0.0894249678
v 0.0894095078 -0.342036903 0.0950463265
v 0.0946477577 -0.220954433 -0.0893938616
v 0.0819173306 -0.199578583 -0.0819015354
v 0.0894089267 -0.220954418 -0.0942663327
v 0.0946471766 -0.192086354 -0.0605258606
v 0.060540922 -0.19208625 -0.0942664295
v 0.0894095078 -0.187088683 -0.0605260544
v 0.0605415031 -0.187088683 -0.0893940553
v 0.0946471766 -0.192086354 0.06055687
v 0.0946477577 -0.220954433 0.0894249678
v 0.0819173306 -0.199578583 0.0819324926
v 0.0894095078 -0.187088683 0.0605566688
v 0.0894095078 -0.220954388 0.0950463265
v 0.0605415031 -0.187088653 0.0894246772
v 0.0605415031 -0.19208625 0.095046334
v -0.100903481 -0.231324643 0.215294227
v -0.0788933858 -0.324610978 0.228531107
v -0.100903481 -0.331636369 0.215294197
v -0.0788933858 -0.238350078 0.228531107
v -0.0431320071 -0.360372543 0.228531092
v -0.0501573533 -0.180578634 0.215294227
v -0.0501573533 -0.382382423 0.215294197
v -0.0431318134 -0.202588558 0.228531107
v 0.0431290045 -0.360372543 0.228531092
v 0.0501545407 -0.180578634 0.215294227
v 0.0501545407 -0.382382423 0.215294197
v 0.0431290045 -0.202588558 0.228531107
v 0.078890577 -0.324610978 0.228531107
v 0.100900479 -0.231324643 0.215294227
v 0.100900479 -0.331636369 0.215294197
v 0.078890577 -0.238350078 0.228531107
v -0.0895220041 -0.220864594 0.17352207
v -0.101755939 -0.332060575 0.184710041
v -0.0895220041 -0.342097282 0.17352207
v -0.101755939 -0.230901375 0.184710041
v -0.0505811684 -0.383235395 0.184710026
v -0.060618151 -0.191960707 0.17352207
v -0.060618151 -0.371001124 0.17352207
v -0.0505811684 -0.179726571 0.184710041
v 0.0505779684 -0.383235395 0.184710026
v 0.0606145673 -0.191960707 0.17352207
v 0.0606145673 -0.371001124 0.17352207
v 0.0505779684 -0.179726571 0.184710041
v 0.101752557 -0.332060575 0.184710041
v 0.0895184204 -0.220864594 0.17352207
v 0.0895184204 -0.342097282 0.17352207
v 0.101752557 -0.230901375 0.184710041
v -0.0501557998 -0.498574704 -0.100900918
v 0.0431305543 -0.510012209 -0.0788910165
v 0.0501559004 -0.498574704 -0.100900918
v -0.0431304537 -0.510012209 -0.0788910165
v 0.0788919404 -0.510012209 -0.0431295373
v -0.100901924 -0.498574704 -0.0501548834
v 0.100901641 -0.498574704 -0.0501548834
v -0.0788918361 -0.510012209 -0.0431294441
v 0.0788919404 -0.510012209 0.0431313701
v -0.100901924 -0.498574704 0.0501567274
v 0.100901641 -0.498574704 0.0501567274
v -0.0788918361 -0.510012209 0.0431313701
v 0.0431305543 -0.510012209 0.0788930506
v -0.0501557998 -0.498574704 0.10090284
v 0.0501559004 -0.498574704 0.10090284
v -0.0431304537 -0.510012209 0.0788930506
v -0.0606158227 -0.454204857 -0.0895193815
v 0.0505799092 -0.467248917 -0.101753525
v 0.0606166981 -0.454204857 -0.0895193815
v -0.0505792275 -0.467248917 -0.101753525
v 0.101754881 -0.467248917 -0.0505789854
v -0.0895198733 -0.454204857 -0.060615778
v 0.0895205513 -0.454204857 -0.060615778
v -0.101753816 -0.467248917 -0.0505789854
v 0.101754881 -0.467248917 0.0505805388
v -0.0895198733 -0.454204857 0.0606172346
v 0.0895205513 -0.454204857 0.0606172346
v -0.101753816 -0.467248917 0.0505805388
v 0.0505799092 -0.467248917 0.101755217
v -0.0606158227 -0.454204857 0.0895209834
v 0.0606166981 -0.454204857 0.0895209834
v -0.0505792275 -0.467248917 0.101755217
v 0.216764525 -0.331636965 -0.100900523
v 0.228531644 -0.238350704 -0.0788906291
v 0.216764525 -0.231325179 -0.100900523
v 0.228531644 -0.324611604 -0.0788906291
v 0.228531644 -0.202589214 -0.0431291461
v 0.216764525 -0.382382989 -0.0501544923
v 0.216764525 -0.18057926 -0.0501544923
v 0.228531644 -0.36037299 -0.043129053
v 0.228531644 -0.202589214 0.0431318656
v 0.216764525 -0.382382989 0.0501572974
v 0.216764525 -0.18057926 0.0501573086
v 0.228531644 -0.36037299 0.0431318656
v 0.228531644 -0.238350704 0.0788933337
v 0.216764525 -0.331636965 0.100903243
v 0.216764525 -0.231325179 0.100903235
v 0.228531644 -0.324611604 0.0788933337
v 0.172984257 -0.342097014 -0.0895190537
v 0.185942188 -0.230901167 -0.101753183
v 0.172984257 -0.220864505 -0.0895190537
v 0.185942188 -0.332060337 -0.101753183
v 0.185942188 -0.179726318 -0.0505784005
v 0.172984257 -0.371001005 -0.0606151
v 0.172984257 -0.191960543 -0.0606151
v 0.185942188 -0.383235127 -0.0505784005
v 0.185942188 -0.179726318 0.0505809188
v 0.172984257 -0.371001005 0.0606177114
v 0.172984257 -0.191960543 0.0606177114
v 0.185942188 -0.383235127 0.0505809188
v 0.185942188 -0.230901167 0.1017555
v 0.172984257 -0.342097014 0.0895215794
v 0.172984257 -0.220864505 0.0895215645
v 0.185942188 -0.332060337 0.1017555
v 0.050156679 -0.0643874928 -0.100900963
v -0.0431298763 -0.0529498085 -0.0788910165
v -0.0501550287 -0.0643874928 -0.100900963
v 0.0431309417 -0.0529498085 -0.0788910165
v -0.0788916498 -0.0529498085 -0.0431295373
v 0.10090261 -0.0643874928 -0.0501548834
v -0.100901157 -0.0643874928 -0.0501548834
v 0.0788927078 -0.0529498085 -0.0431294441
v -0.0788916498 -0.0529498085 0.0431313775
v 0.10090261 -0.0643874928 0.0501567274
v -0.100901157 -0.0643874928 0.0501567274
v 0.0788927078 -0.0529498085 0.0431313775
v -0.0431298763 -0.0529498085 0.0788930506
v 0.050156679 -0.0643874928 0.100902848
v -0.0501550287 -0.0643874928 0.100902848
v 0.0431309417 -0.0529498085 0.0788930506
v 0.0606166981 -0.108757071 -0.0895193815
v -0.0505792275 -0.0957132727 -0.101753578
v -0.0606160164 -0.108757071 -0.0895193815
v 0.0505799092 -0.0957132727 -0.101753578
v -0.101754203 -0.0957132429 -0.0505789854
v 0.0895201638 -0.108757071 -0.060615778
v -0.0895200744 -0.108757071 -0.060615778
v 0.10175468 -0.0957132429 -0.0505789854
v -0.101754203 -0.0957132503 0.0505805388
v 0.0895201638 -0.108757071 0.0606172271
v -0.0895200744 -0.108757071 0.0606172271
v 0.10175468 -0.0957132503 0.0505805388
v -0.0505792275 -0.0957132503 0.101755217
v 0.0606166981 -0.108757071 0.0895209834
v -0.0606160164 -0.108757071 0.0895209834
v 0.0505799092 -0.0957132503 0.101755217
v -0.216765016 -0.231324673 -0.100900963
v -0.228530377 -0.324611008 -0.0788910165
v -0.216765016 -0.331636429 -0.100900963
v -0.228530377 -0.238350078 -0.0788910165
v -0.228530377 -0.360372543 -0.0431295373
v -0.216765016 -0.180578634 -0.0501548834
v -0.216765016 -0.382382423 -0.0501548834
v -0.228530377 -0.202588558 -0.0431294441
v -0.228530377 -0.360372543 0.0431313701
v -0.216765016 -0.180578634 0.0501567274
v -0.216765016 -0.382382423 0.0501567274
v -0.228530377 -0.202588558 0.0431313775
v -0.228530377 -0.324610978 0.0788930506
v -0.216765016 -0.231324673 0.100902848
v -0.216765016 -0.331636369 0.10090284
v -0.228530377 -0.238350078 0.0788930506
v -0.172983393 -0.220864594 -0.0895193815
v -0.18594189 -0.332060575 -0.101753578
v -0.172983393 -0.342097312 -0.0895193815
v -0.18594189 -0.230901346 -0.101753578
v -0.18594189 -0.383235365 -0.0505789854
v -0.172983393 -0.191960707 -0.060615778
v -0.172983393 -0.371001124 -0.060615778
v -0.18594189 -0.179726571 -0.0505789854
v -0.18594189 -0.383235365 0.0505805388
v -0.172983393 -0.191960707 0.0606172271
v -0.172983393 -0.371001124 0.0606172346
v -0.18594189 -0.179726571 0.0505805388
v -0.18594189 -0.332060575 0.101755217
v -0.172983393 -0.220864594 0.0895209983
v -0.172983393 -0.342097282 0.0895209834
v -0.18594189 -0.230901346 0.101755217
v -0.499999762 -0.320609957 0.0856156126
v -0.499999315 -0.252152145 0.0642539188
v -0.499999255 -0.242189348 0.0856158882
v -0.499999315 -0.311007023 0.0642541125
v -0.499999315 -0.221402645 0.0294263065
v -0.499999255 -0.367016464 0.0392094217
v -0.499998719 -0.195783034 0.039209526
v -0.499999315 -0.345834672 0.0294264015
v -0.499999315 -0.221402645 -0.0294283386
v -0.499999762 -0.367016464 -0.039210692
v -0.499998719 -0.195783034 -0.0392114632
v -0.499999315 -0.345834672 -0.0294282436
v -0.499999315 -0.254020125 -0.0642560571
v -0.499999255 -0.320610344 -0.0856177881
v -0.499998719 -0.242189214 -0.0856176913
v -0.499999315 -0.309139729 -0.0642560571
v -0.0395927131 0.499999911 0.0856157988
v -0.0297322311 0.500000358 0.0640847459
v 0.0289672948 0.499999911 0.0640849471
v 0.0388280004 0.499999911 0.0856157988
v -0.0859992355 0.499999911 0.039209716
v 0.0637033507 0.499999911 0.0293493643
v -0.0644680932 0.500000358 0.0293490794
v 0.0852343738 0.499999911 0.039209716
v -0.0859992355 0.499999374 -0.0392114632
v 0.063703157 0.499999911 -0.0293506235
v -0.0644679591 0.499999911 -0.0293502416
v 0.0852342397 0.500000358 -0.0392111763
v -0.0395930521 0.499999911 -0.0856173486
v 0.02896736 0.499999911 -0.0640866831
v -0.0297321472 0.499999374 -0.0640866831
v 0.0388280675 0.500000358 -0.0856172517
v 0.500000119 -0.242039561 0.0856157988
v 0.500000715 -0.251900047 0.0640847459
v 0.500000119 -0.310599536 0.0640849471
v 0.500000119 -0.32046026 0.0856158063
v 0.500000119 -0.195632994 0.039209716
v 0.500000119 -0.345335603 0.0293493643
v 0.500000715 -0.217164189 0.0293490794
v 0.500000119 -0.366866648 0.0392097272
v 0.499999613 -0.195632994 -0.0392114632
v 0.500000119 -0.345335424 -0.0293506328
v 0.500000119 -0.217164338 -0.0293502416
v 0.500000715 -0.366866499 -0.0392111689
v 0.500000119 -0.242039219 -0.0856173486
v 0.500000119 -0.310599625 -0.0640866905
v 0.499999613 -0.251900107 -0.0640866905
v 0.500000715 -0.32046032 -0.0856172517
v -0.0856164545 -0.242039561 0.499998629
v -0.0640853569 -0.251900047 0.499999106
v -0.0640856028 -0.310599536 0.499998659
v -0.0856164545 -0.32046026 0.499998659
v -0.0392104685 -0.195632994 0.499998629
v -0.0293500125 -0.345335603 0.499998659
v -0.0293497574 -0.217164189 0.499999106
v -0.0392103456 -0.366866678 0.499998659
v 0.0392107405 -0.195632994 0.499998033
v 0.0293500274 -0.345335424 0.499998659
v 0.0293496307 -0.217164338 0.499998629
v 0.039210476 -0.366866529 0.499999076
v 0.0856167227 -0.242039219 0.499998659
v 0.06408602 -0.310599625 0.499998659
v 0.06408602 -0.251900107 0.499998033
v 0.0856165737 -0.32046032 0.499999136
vt 0.891461968 0.563900948
vt 0.903179467 0.55218327
vt 0.903179467 0.563900948
vt 0.903180242 0.55218327
vt 0.891462684 0.563900948
vt 0.903180242 0.563900948
vt 0.628699541 0.764062047
vt 0.628699541 0.809399128
vt 0.646167994 0.809399128
vt 0.646167994 0.764061928
vt 0.661713779 0.809399128
vt 0.661713779 0.764061928
vt 0.745886803 0.764062345
vt 0.745886803 0.809399128
vt 0.761307597 0.809399128
vt 0.761307597 0.764062047
vt 0.728265285 0.764063001
vt 0.728265285 0.809399128
vt 0.745886803 0.809399128
vt 0.745886803 0.764062345
vt 0.712555885 0.76406312
vt 0.728265285 0.809399128
vt 0.728265285 0.764063001
vt 0.712555885 0.809399128
vt 0.694801271 0.764063597
vt 0.694801271 0.809399128
vt 0.679043651 0.764063776
vt 0.679043651 0.809399128
vt 0.661713779 0.764064014
vt 0.661713779 0.809399128
vt 0.679043651 0.809399128
vt 0.679043651 0.764063776
vt 0.628699541 0.764061928
vt 0.646167994 0.809399128
vt 0.628699541 0.809399009
vt 0.646167994 0.764061928
vt 0.661713779 0.809399128
vt 0.661713779 0.764061928
vt 0.745886803 0.764061928
vt 0.761307597 0.764061928
vt 0.761307597 0.809399009
vt 0.745886803 0.809398711
vt 0.728265285 0.764061928
vt 0.745886803 0.764061928
vt 0.745886803 0.809398711
vt 0.728265285 0.809398055
vt 0.712555885 0.764061928
vt 0.728265285 0.764061928
vt 0.728265285 0.809398055
vt 0.712555885 0.809397936
vt 0.694801271 0.764061928
vt 0.694801271 0.809397459
vt 0.679043651 0.764061928
vt 0.679043651 0.80939728
vt 0.661713779 0.764061928
vt 0.679043651 0.764061928
vt 0.679043651 0.80939728
vt 0.661713779 0.809397042
vt 0.628699541 0.764062047
vt 0.628699541 0.809399128
vt 0.646167994 0.809399128
vt 0.646167994 0.764061928
vt 0.661713779 0.809399128
vt 0.661713779 0.764061928
vt 0.745886803 0.764062345
vt 0.745886803 0.809399128
vt 0.761307597 0.809399128
vt 0.761307597 0.764062047
vt 0.728265285 0.764063001
vt 0.728265285 0.809399128
vt 0.745886803 0.809399128
vt 0.745886803 0.764062345
vt 0.712555885 0.76406312
vt 0.728265285 0.809399128
vt 0.728265285 0.764063001
vt 0.712555885 0.809399128
vt 0.694801271 0.764063597
vt 0.694801271 0.809399128
vt 0.679043651 0.764063776
vt 0.679043651 0.809399128
vt 0.661713779 0.764064014
vt 0.661713779 0.809399128
vt 0.679043651 0.809399128
vt 0.679043651 0.764063776
vt 0.628699541 0.764062047
vt 0.628699541 0.809399128
vt 0.646167994 0.809399128
vt 0.646167994 0.764061928
vt 0.661713779 0.809399128
vt 0.661713779 0.764061928
vt 0.745886803 0.764062345
vt 0.745886803 0.809399128
vt 0.761307597 0.809399128
vt 0.761307597 0.764062047
vt 0.728265285 0.764063001
vt 0.728265285 0.809399128
vt 0.745886803 0.809399128
vt 0.745886803 0.764062345
vt 0.712555885 0.76406312
vt 0.728265285 0.809399128
vt 0.728265285 0.764063001
vt 0.712555885 0.809399128
vt 0.694801271 0.764063597
vt 0.694801271 0.809399128
vt 0.679043651 0.764063776
vt 0.679043651 0.809399128
vt 0.661713779 0.764064014
vt 0.661713779 0.809399128
vt 0.679043651 0.809399128
vt 0.679043651 0.764063776
vt 0.957827508 0.513191104
vt 0.994250894 0.488644063
vt 0.994250894 0.513191104
vt 0.957827508 0.488644063
vt 0.946188986 0.513191104
vt 0.946188986 0.488644063
vt 0.909765601 0.513191104
vt 0.909765601 0.488644063
vt 0.89812696 0.488644063
vt 0.89812696 0.513191104
vt 0.861703634 0.513191104
vt 0.861703634 0.488644063
vt 0.850065172 0.513191104
vt 0.850065172 0.488644063
vt 0.813641727 0.513191104
vt 0.813641727 0.488644063
vt 0.802003145 0.513191104
vt 0.802003145 0.488644063
vt 0.943912506 0.578163147
vt 0.943911135 0.525642037
vt 0.93497622 0.525646925
vt 0.93497622 0.578163147
vt 0.943912506 0.578163147
vt 0.943911135 0.525642037
vt 0.93497622 0.525646925
vt 0.93497622 0.578163147
vt 0.943912506 0.578163147
vt 0.943911135 0.525642037
vt 0.93497622 0.525646925
vt 0.93497622 0.578163147
vt 0.943912506 0.578163147
vt 0.943911135 0.525642037
vt 0.93497622 0.525646925
vt 0.93497622 0.578163147
vt 0.93497622 0.525646925
vt 0.93497622 0.578163147
vt 0.943912506 0.578163147
vt 0.943911135 0.525642037
vt 0.93497622 0.525647461
vt 0.93497622 0.578163147
vt 0.943912506 0.578163147
vt 0.94391036 0.525650144
vt 0.934976339 0.525647461
vt 0.93497622 0.578163147
vt 0.943912506 0.578163147
vt 0.943914354 0.525652587
vt 0.934976339 0.525647223
vt 0.93497622 0.578163147
vt 0.943912506 0.578163147
vt 0.943914592 0.525645137
vt 0.943912506 0.578163147
vt 0.94391036 0.525650144
vt 0.93497622 0.525647461
vt 0.93497622 0.578163147
vt 0.93497622 0.525647461
vt 0.93497622 0.578163147
vt 0.943912506 0.578163147
vt 0.94391036 0.525650144
vt 0.943912506 0.578163147
vt 0.943914592 0.525645137
vt 0.934976339 0.525647223
vt 0.93497622 0.578163147
vt 0.943912506 0.578163147
vt 0.94391036 0.525650144
vt 0.93497622 0.525647461
vt 0.93497622 0.578163147
vt 0.962158561 0.516360402
vt 0.990387857 0.523758531
vt 0.990387857 0.516360402
vt 0.962158442 0.523758531
vt 0.94232595 0.516360402
vt 0.94232583 0.523758531
vt 0.914096653 0.516360402
vt 0.914096653 0.523758531
vt 0.894263983 0.516360402
vt 0.894263983 0.523758531
vt 0.866034687 0.516360402
vt 0.866034806 0.523758531
vt 0.846202075 0.516360402
vt 0.846202195 0.523758531
vt 0.817972779 0.516360402
vt 0.817972779 0.523758531
vt 0.798140109 0.516360402
vt 0.798140109 0.523758531
vt 0.957827508 0.513191104
vt 0.994250894 0.488644063
vt 0.994250894 0.513191104
vt 0.957827508 0.488644063
vt 0.946188986 0.513191104
vt 0.946188986 0.488644063
vt 0.909765601 0.513191104
vt 0.909765601 0.488644063
vt 0.89812696 0.488644063
vt 0.89812696 0.513191104
vt 0.861703634 0.513191104
vt 0.861703634 0.488644063
vt 0.850065172 0.513191104
vt 0.850065172 0.488644063
vt 0.813641727 0.513191104
vt 0.813641727 0.488644063
vt 0.802003145 0.513191104
vt 0.802003145 0.488644063
vt 0.962158561 0.516360402
vt 0.990387857 0.523758531
vt 0.990387857 0.516360402
vt 0.962158442 0.523758531
vt 0.94232595 0.516360402
vt 0.94232583 0.523758531
vt 0.914096653 0.516360402
vt 0.914096653 0.523758531
vt 0.894263983 0.516360402
vt 0.894263983 0.523758531
vt 0.866034687 0.516360402
vt 0.866034806 0.523758531
vt 0.846202075 0.516360402
vt 0.846202195 0.523758531
vt 0.817972779 0.516360402
vt 0.817972779 0.523758531
vt 0.798140109 0.516360402
vt 0.798140109 0.523758531
vt 0.957827508 0.513191104
vt 0.994250894 0.488644063
vt 0.994250894 0.513191104
vt 0.957827508 0.488644063
vt 0.946188986 0.513191104
vt 0.946188986 0.488644063
vt 0.909765601 0.513191104
vt 0.909765601 0.488644063
vt 0.89812696 0.488644063
vt 0.89812696 0.513191104
vt 0.861703634 0.513191104
vt 0.861703634 0.488644063
vt 0.850065172 0.513191104
vt 0.850065172 0.488644063
vt 0.813641727 0.513191104
vt 0.813641727 0.488644063
vt 0.802003145 0.513191104
vt 0.802003145 0.488644063
vt 0.962158561 0.516360402
vt 0.990387857 0.523758531
vt 0.990387857 0.516360402
vt 0.962158442 0.523758531
vt 0.94232595 0.516360402
vt 0.94232583 0.523758531
vt 0.914096653 0.516360402
vt 0.914096653 0.523758531
vt 0.894263983 0.516360402
vt 0.894263983 0.523758531
vt 0.866034687 0.516360402
vt 0.866034806 0.523758531
vt 0.846202075 0.516360402
vt 0.846202195 0.523758531
vt 0.817972779 0.516360402
vt 0.817972779 0.523758531
vt 0.798140109 0.516360402
vt 0.798140109 0.523758531
vt 0.957827508 0.513191104
vt 0.994250894 0.488644063
vt 0.994250894 0.513191104
vt 0.957827508 0.488644063
vt 0.946188986 0.513191104
vt 0.946188986 0.488644063
vt 0.909765601 0.513191104
vt 0.909765601 0.488644063
vt 0.89812696 0.488644063
vt 0.89812696 0.513191104
vt 0.861703634 0.513191104
vt 0.861703634 0.488644063
vt 0.850065172 0.513191104
vt 0.850065172 0.488644063
vt 0.813641727 0.513191104
vt 0.813641727 0.488644063
vt 0.802003145 0.513191104
vt 0.802003145 0.488644063
vt 0.962158561 0.516360402
vt 0.990387857 0.523758531
vt 0.990387857 0.516360402
vt 0.962158442 0.523758531
vt 0.94232595 0.516360402
vt 0.94232583 0.523758531
vt 0.914096653 0.516360402
vt 0.914096653 0.523758531
vt 0.894263983 0.516360402
vt 0.894263983 0.523758531
vt 0.866034687 0.516360402
vt 0.866034806 0.523758531
vt 0.846202075 0.516360402
vt 0.846202195 0.523758531
vt 0.817972779 0.516360402
vt 0.817972779 0.523758531
vt 0.798140109 0.516360402
vt 0.798140109 0.523758531
vt 0.957827508 0.513191104
vt 0.994250894 0.488644063
vt 0.994250894 0.513191104
vt 0.957827508 0.488644063
vt 0.946188986 0.513191104
vt 0.946188986 0.488644063
vt 0.909765601 0.513191104
vt 0.909765601 0.488644063
vt 0.89812696 0.488644063
vt 0.89812696 0.513191104
vt 0.861703634 0.513191104
vt 0.861703634 0.488644063
vt 0.850065172 0.513191104
vt 0.850065172 0.488644063
vt 0.813641727 0.513191104
vt 0.813641727 0.488644063
vt 0.802003145 0.513191104
vt 0.802003145 0.488644063
vt 0.962158561 0.516360402
vt 0.990387857 0.523758531
vt 0.990387857 0.516360402
vt 0.962158442 0.523758531
vt 0.94232595 0.516360402
vt 0.94232583 0.523758531
vt 0.914096653 0.516360402
vt 0.914096653 0.523758531
vt 0.894263983 0.516360402
vt 0.894263983 0.523758531
vt 0.866034687 0.516360402
vt 0.866034806 0.523758531
vt 0.846202075 0.516360402
vt 0.846202195 0.523758531
vt 0.817972779 0.516360402
vt 0.817972779 0.523758531
vt 0.798140109 0.516360402
vt 0.798140109 0.523758531
vt 0.782619715 0.0529331267
vt 0.782619715 0.0531253815
vt 0.78273344 0.0532391071
vt 0.78273344 0.052819401
vt 0.782925606 0.052819401
vt 0.782925606 0.0532391071
vt 0.783039331 0.0529331565
vt 0.783039331 0.0531253815
vt 0.782611907 0.0530290008
vt 0.782498181 0.0529152453
vt 0.782305956 0.0529152453
vt 0.78219223 0.0530290008
vt 0.78219223 0.0532212257
vt 0.782611966 0.0532212257
vt 0.782498181 0.0533349514
vt 0.782305956 0.0533349514
vt 0.781781197 0.0536459684
vt 0.781894922 0.0537596941
vt 0.782087147 0.0537596941
vt 0.782200933 0.0536459684
vt 0.782200933 0.0534537435
vt 0.781781256 0.0534537435
vt 0.781894922 0.0533400178
vt 0.782087147 0.0533400178
vt 0.78241992 0.0523935556
vt 0.782305837 0.0525075793
vt 0.782305837 0.0527003407
vt 0.782426 0.0528143644
vt 0.782612622 0.0523935556
vt 0.782606483 0.0528143644
vt 0.782713294 0.0527003407
vt 0.782713294 0.0525075793
vt 0.78229785 0.0525106192
vt 0.782180786 0.0523935556
vt 0.78189826 0.0523935556
vt 0.781781256 0.052510649
vt 0.78229785 0.0527931154
vt 0.781781256 0.0527931154
vt 0.782180786 0.0529102087
vt 0.78189826 0.0529102087
vt 0.852595985 0.575076818
vt 0.839952946 0.546085119
vt 0.852595985 0.541497648
vt 0.844590127 0.533491671
vt 0.840002239 0.570439517
vt 0.844590127 0.583082795
vt 0.811010838 0.583082795
vt 0.815598726 0.546134412
vt 0.811010838 0.533491671
vt 0.803004861 0.541497648
vt 0.815647602 0.570488751
vt 0.803004861 0.575076818
vt 0.939443827 0.586763442
vt 0.950194955 0.587294877
vt 0.945717394 0.594816923
vt 0.943921387 0.578166962
vt 0.933170438 0.594816923
vt 0.934966326 0.578166962
vt 0.928692877 0.587294877
vt 0.950199783 0.587299585
vt 0.943926394 0.578171849
vt 0.939448595 0.586768448
vt 0.945722222 0.594821692
vt 0.934971213 0.578171849
vt 0.933175325 0.594821692
vt 0.928697586 0.587299585
vt 0.950194955 0.587294877
vt 0.943921387 0.578166962
vt 0.939443827 0.586763442
vt 0.945717394 0.594816923
vt 0.934966326 0.578166962
vt 0.933170438 0.594816923
vt 0.928692877 0.587294877
vt 0.943926394 0.578171849
vt 0.950199783 0.587299585
vt 0.939448595 0.586768448
vt 0.934971213 0.578171849
vt 0.945722222 0.594821692
vt 0.928697586 0.587299585
vt 0.933175325 0.594821692
vt 0.939440668 0.586776257
vt 0.93316704 0.594829857
vt 0.945714116 0.594829857
vt 0.950191677 0.587307751
vt 0.928689599 0.587307751
vt 0.943918288 0.578179896
vt 0.934963167 0.578180075
vt 0.945709169 0.594825149
vt 0.933162332 0.594825149
vt 0.939435899 0.586771607
vt 0.950186968 0.587302744
vt 0.928684771 0.587302744
vt 0.94391346 0.578175068
vt 0.934958279 0.578175068
vt 0.943918288 0.578179896
vt 0.939440668 0.586776257
vt 0.934963167 0.578180075
vt 0.950191677 0.587307751
vt 0.928689599 0.587307751
vt 0.945714116 0.594829857
vt 0.93316704 0.594829857
vt 0.950186968 0.587302744
vt 0.94391346 0.578175068
vt 0.939435899 0.586771607
vt 0.945709169 0.594825149
vt 0.934958279 0.578175068
vt 0.933162332 0.594825149
vt 0.928684771 0.587302744
vt 0.863500953 0.576442778
vt 0.871729791 0.544753969
vt 0.863498151 0.542043209
vt 0.87172842 0.573625863
vt 0.883023143 0.534130514
vt 0.880637527 0.591980636
vt 0.880455256 0.526143134
vt 0.883103907 0.58394134
vt 0.912024915 0.533686697
vt 0.915000618 0.591181159
vt 0.914463699 0.526071608
vt 0.912341595 0.583941102
vt 0.924078286 0.544708669
vt 0.931822419 0.575492918
vt 0.9317981 0.541983068
vt 0.92407912 0.5727337
vt 0.846397221 0.585678875
vt 0.811323225 0.59243983
vt 0.80982095 0.585678875
vt 0.844895065 0.59243983
vt 0.794339657 0.575456321
vt 0.85511744 0.576958537
vt 0.801100671 0.576958537
vt 0.861878514 0.575456321
vt 0.794339657 0.541884542
vt 0.85511744 0.540382206
vt 0.801100671 0.540382206
vt 0.861878514 0.541884542
vt 0.811323225 0.524900913
vt 0.846397221 0.531661987
vt 0.80982095 0.531661987
vt 0.844895065 0.524900913
vt 0.863500953 0.576442778
vt 0.871729791 0.544753969
vt 0.863498151 0.542043209
vt 0.87172842 0.573625863
vt 0.883023143 0.534130514
vt 0.880637527 0.591980636
vt 0.880455256 0.526143134
vt 0.883103907 0.58394134
vt 0.912024915 0.533686697
vt 0.915000618 0.591181159
vt 0.914463699 0.526071608
vt 0.912341595 0.583941102
vt 0.924078286 0.544708669
vt 0.931822419 0.575492918
vt 0.9317981 0.541983068
vt 0.92407912 0.5727337
vt 0.846397221 0.585678875
vt 0.811323225 0.59243983
vt 0.80982095 0.585678875
vt 0.844895065 0.59243983
vt 0.794339657 0.575456321
vt 0.85511744 0.576958537
vt 0.801100671 0.576958537
vt 0.861878514 0.575456321
vt 0.794339657 0.541884542
vt 0.85511744 0.540382206
vt 0.801100671 0.540382206
vt 0.861878514 0.541884542
vt 0.811323225 0.524900913
vt 0.846397221 0.531661987
vt 0.80982095 0.531661987
vt 0.844895065 0.524900913
vt 0.863500953 0.576442778
vt 0.871729791 0.544753969
vt 0.863498151 0.542043209
vt 0.87172842 0.573625863
vt 0.883023143 0.534130514
vt 0.880637527 0.591980636
vt 0.880455256 0.526143134
vt 0.883103907 0.58394134
vt 0.912024915 0.533686697
vt 0.915000618 0.591181159
vt 0.914463699 0.526071608
vt 0.912341595 0.583941102
vt 0.924078286 0.544708669
vt 0.931822419 0.575492918
vt 0.9317981 0.541983068
vt 0.92407912 0.5727337
vt 0.846397221 0.585678875
vt 0.811323225 0.59243983
vt 0.80982095 0.585678875
vt 0.844895065 0.59243983
vt 0.794339657 0.575456321
vt 0.85511744 0.576958537
vt 0.801100671 0.576958537
vt 0.861878514 0.575456321
vt 0.794339657 0.541884542
vt 0.85511744 0.540382206
vt 0.801100671 0.540382206
vt 0.861878514 0.541884542
vt 0.811323225 0.524900913
vt 0.846397221 0.531661987
vt 0.80982095 0.531661987
vt 0.844895065 0.524900913
vt 0.863500953 0.576442778
vt 0.871729791 0.544753969
vt 0.863498151 0.542043209
vt 0.87172842 0.573625863
vt 0.883023143 0.534130514
vt 0.880637527 0.591980636
vt 0.880455256 0.526143134
vt 0.883103907 0.58394134
vt 0.912024915 0.533686697
vt 0.915000618 0.591181159
vt 0.914463699 0.526071608
vt 0.912341595 0.583941102
vt 0.924078286 0.544708669
vt 0.931822419 0.575492918
vt 0.9317981 0.541983068
vt 0.92407912 0.5727337
vt 0.846397221 0.585678875
vt 0.811323225 0.59243983
vt 0.80982095 0.585678875
vt 0.844895065 0.59243983
vt 0.794339657 0.575456321
vt 0.85511744 0.576958537
vt 0.801100671 0.576958537
vt 0.861878514 0.575456321
vt 0.794339657 0.541884542
vt 0.85511744 0.540382206
vt 0.801100671 0.540382206
vt 0.861878514 0.541884542
vt 0.811323225 0.524900913
vt 0.846397221 0.531661987
vt 0.80982095 0.531661987
vt 0.844895065 0.524900913
vt 0.863500953 0.576442778
vt 0.871729791 0.544753969
vt 0.863498151 0.542043209
vt 0.87172842 0.573625863
vt 0.883023143 0.534130514
vt 0.880637527 0.591980636
vt 0.880455256 0.526143134
vt 0.883103907 0.58394134
vt 0.912024915 0.533686697
vt 0.915000618 0.591181159
vt 0.914463699 0.526071608
vt 0.912341595 0.583941102
vt 0.924078286 0.544708669
vt 0.931822419 0.575492918
vt 0.9317981 0.541983068
vt 0.92407912 0.5727337
vt 0.846397221 0.585678875
vt 0.811323225 0.59243983
vt 0.80982095 0.585678875
vt 0.844895065 0.59243983
vt 0.794339657 0.575456321
vt 0.85511744 0.576958537
vt 0.801100671 0.576958537
vt 0.861878514 0.575456321
vt 0.794339657 0.541884542
vt 0.85511744 0.540382206
vt 0.801100671 0.540382206
vt 0.861878514 0.541884542
vt 0.811323225 0.524900913
vt 0.846397221 0.531661987
vt 0.80982095 0.531661987
vt 0.844895065 0.524900913
vt 0.859570205 0.900560141
vt 0.853561461 0.919794679
vt 0.859563768 0.922462285
vt 0.853507638 0.903330207
vt 0.843739629 0.929398358
vt 0.846528053 0.887539923
vt 0.846483886 0.935384214
vt 0.843766689 0.893562496
vt 0.827275038 0.929398358
vt 0.824529409 0.887520969
vt 0.824485123 0.935384214
vt 0.827288508 0.893567264
vt 0.81744945 0.919713497
vt 0.811430693 0.900571227
vt 0.811390936 0.922434986
vt 0.817505658 0.903369725
vt 0.811390936 0.922434986
vt 0.81744945 0.919713497
vt 0.817506194 0.903370261
vt 0.811430693 0.900571227
vt 0.824485123 0.935384214
vt 0.827288508 0.893567264
vt 0.827275038 0.929398358
vt 0.824529409 0.887520969
vt 0.846483886 0.935384214
vt 0.843766689 0.893562496
vt 0.843739629 0.929398358
vt 0.846528053 0.887539923
vt 0.859563768 0.922462285
vt 0.853507638 0.903330207
vt 0.853561461 0.919794679
vt 0.859570205 0.900560141
vt 0.811390936 0.922434986
vt 0.81744945 0.919713497
vt 0.817506194 0.903370261
vt 0.811430693 0.900571227
vt 0.824485123 0.935384214
vt 0.827288508 0.893567264
vt 0.827275038 0.929398358
vt 0.824529409 0.887520969
vt 0.846483886 0.935384214
vt 0.843766689 0.893562496
vt 0.843739629 0.929398358
vt 0.846528053 0.887539923
vt 0.859563768 0.922462285
vt 0.853507638 0.903330207
vt 0.853561461 0.919794679
vt 0.859570205 0.900560141
vt 0.811390936 0.922434986
vt 0.81744945 0.919713497
vt 0.817506194 0.903370261
vt 0.811430693 0.900571227
vt 0.824485123 0.935384214
vt 0.827288508 0.893567264
vt 0.827275038 0.929398358
vt 0.824529409 0.887520969
vt 0.846483886 0.935384214
vt 0.843766689 0.893562496
vt 0.843739629 0.929398358
vt 0.846528053 0.887539923
vt 0.859563768 0.922462285
vt 0.853507638 0.903330207
vt 0.853561461 0.919794679
vt 0.859570205 0.900560141
vn -0.57735008 -0.577359438 -0.577341259
vn -0.57735008 -0.577359438 -0.577341259
vn -0.587903857 -0.588010848 -0.55552882
vn 0.588048041 -0.555452228 -0.587938964
vn 0.55549264 -0.588083088 -0.58786577
vn 0.587913394 -0.588004231 -0.55552578
vn 0.382692456 -0.923875749 8.09490448E-05
vn 0.382676303 -0.923882484 8.0949605E-05
vn -0.382677555 -0.923881948 8.01773494E-05
vn -0.382691354 -0.923876286 8.01768183E-05
vn -0.707109392 -0.707104146 6.09007693E-05
vn -0.707109392 -0.707104146 6.09007657E-05
vn 0.707107186 -0.707106352 6.23278975E-05
vn 0.707107186 -0.707106352 6.23278756E-05
vn 0.382676303 -0.923882484 8.0949605E-05
vn 0.382692456 -0.923875749 8.09490448E-05
vn 1 -1.7374897E-06 7.21468609E-07
vn 1 -1.7374897E-06 7.21468609E-07
vn 1 -1.73748981E-06 7.21468609E-07
vn 1 -1.7374897E-06 7.21468609E-07
vn 0.382677019 0.923882186 -8.05573291E-05
vn 0.707108498 0.707104981 -6.13445955E-05
vn 0.707108498 0.707104981 -6.13445955E-05
vn 0.382692128 0.923875868 -8.05567906E-05
vn -0.382680386 0.923880756 -8.12805811E-05
vn -0.38269344 0.923875332 -8.12801227E-05
vn -0.707112074 0.707101405 -6.26809124E-05
vn -0.707112074 0.707101405 -6.26809124E-05
vn -1 0 -1.67948315E-06
vn -1 0 -1.67948315E-06
vn -1 0 -1.67948315E-06
vn -1 0 -1.67948315E-06
vn -8.09376579E-05 -0.923878312 -0.382686257
vn -8.11022473E-05 -0.923882246 0.382676899
vn -8.09381745E-05 -0.923884213 -0.38267228
vn -8.11016653E-05 -0.92387563 0.382692903
vn -6.21788931E-05 -0.707103908 0.707109571
vn -6.21788786E-05 -0.707103908 0.707109571
vn -6.18762861E-05 -0.707113802 -0.707099795
vn -8.09376579E-05 -0.923878312 -0.382686257
vn -8.09381745E-05 -0.923884213 -0.38267228
vn -6.18762933E-05 -0.707113802 -0.707099795
vn 1.72363059E-07 1.23554958E-06 -1
vn 1.72363059E-07 1.23554946E-06 -1
vn 1.72363059E-07 1.23554946E-06 -1
vn 1.72363059E-07 1.23554946E-06 -1
vn 8.10839338E-05 0.923882782 -0.382675558
vn 6.20591527E-05 0.707107186 -0.707106352
vn 6.20591527E-05 0.707107186 -0.707106352
vn 8.1083359E-05 0.923876166 -0.382691503
vn 8.08527475E-05 0.923882365 0.382676631
vn 8.08522818E-05 0.92387706 0.382689238
vn 6.16320031E-05 0.707106888 0.70710659
vn 6.16320031E-05 0.707107008 0.707106531
vn -1.72634586E-07 -4.32445358E-06 1
vn -1.72634572E-07 -4.32445358E-06 1
vn -1.72634572E-07 -4.32445358E-06 1
vn -1.72634572E-07 -4.32445358E-06 1
vn 8.09343401E-05 -0.92387563 -0.382692754
vn 8.09349294E-05 -0.923882484 -0.382676303
vn 8.01772694E-05 -0.923882067 0.382677257
vn 8.01767601E-05 -0.923876345 0.382690996
vn 6.09007038E-05 -0.707104564 0.707108974
vn 6.09007075E-05 -0.707104504 0.707109034
vn 6.23007945E-05 -0.707106233 -0.707107306
vn 6.23007945E-05 -0.707106173 -0.707107306
vn 8.09349294E-05 -0.923882484 -0.382676303
vn 8.09343401E-05 -0.92387563 -0.382692754
vn 6.89126637E-07 -1.23554628E-06 -1
vn 6.89126637E-07 -1.23554628E-06 -1
vn 6.89126637E-07 -1.23554628E-06 -1
vn 6.89126637E-07 -1.23554628E-06 -1
vn -8.05641321E-05 0.923881948 -0.382677495
vn -6.13571392E-05 0.707104325 -0.707109272
vn -6.13571319E-05 0.707104266 -0.707109272
vn -8.05635646E-05 0.923875749 -0.382692546
vn -8.12235667E-05 0.923881054 0.382679731
vn -8.12230865E-05 0.92387563 0.382692903
vn -6.25756074E-05 0.707102418 0.70711112
vn -6.25756074E-05 0.707102358 0.70711112
vn -1.37803693E-06 0 1
vn -1.37803715E-06 0 1
vn -1.37803715E-06 0 1
vn -1.37803715E-06 0 1
vn 0.92387718 4.04682978E-05 -0.382688999
vn 0.923880935 4.04684542E-05 -0.382680118
vn 0.923880458 4.01070538E-05 0.38268131
vn 0.923877895 4.01069337E-05 0.38268739
vn 0.707104266 3.04603527E-05 0.707109272
vn 0.707104266 3.04603509E-05 0.707109272
vn 0.707106173 3.11281874E-05 -0.707107306
vn 0.707106113 3.11281874E-05 -0.707107365
vn 0.923880935 4.04684542E-05 -0.382680118
vn 0.92387718 4.04682978E-05 -0.382688999
vn 1.23554889E-06 3.44329095E-07 -1
vn 1.23554889E-06 3.44329152E-07 -1
vn 1.23554889E-06 3.44329095E-07 -1
vn 1.23554889E-06 3.44329095E-07 -1
vn -0.923880458 -4.02474725E-05 -0.38268137
vn -0.707104325 -3.0666044E-05 -0.707109153
vn -0.707104325 -3.0666044E-05 -0.707109272
vn -0.923877358 -4.02473306E-05 -0.382688612
vn -0.923879504 -4.05766841E-05 0.382683277
vn -0.92387718 -4.05765823E-05 0.382689029
vn -0.707102537 -3.12743432E-05 0.707110941
vn -0.707102537 -3.12743505E-05 0.707110941
vn -0 -6.88550131E-07 1
vn -0 -6.88550131E-07 1
vn -0 -6.88550131E-07 1
vn -0 -6.88550131E-07 1
vn -0.378841758 0.377298772 -0.845058858
vn 0.00177624659 -0.382703662 -0.923869431
vn -0.378906727 -0.377326459 -0.845017433
vn 0.00191994815 0.382781148 -0.923837006
vn -0.383828402 0.842247546 -0.37854296
vn 0.001919784 0.923835456 -0.382785022
vn -0.38388598 0.842208147 0.378572345
vn 0.0017756056 0.923868418 0.382706046
vn 0.00157235493 0.382814556 0.923823893
vn -0.407111734 0.384338766 0.828579366
vn -0.407175452 -0.384365529 0.828535676
vn 0.00142862729 -0.382736981 0.923856199
vn -0.41127339 -0.826022685 0.385409683
vn 0.0014289628 -0.923855841 0.382738173
vn -0.411201298 -0.826069117 -0.385387123
vn 0.00157316693 -0.923822761 -0.382817179
vn -0.378906727 -0.377326459 -0.845017433
vn 0.00177624659 -0.382703662 -0.923869431
vn -0.846890688 -0.372622937 0.379378796
vn -0.846930802 -0.372566521 -0.379344761
vn -0.411201298 -0.826069117 -0.385387123
vn -0.41127339 -0.826022685 0.385409683
vn -0.37574473 -0.358344913 -0.854637206
vn 0.375748158 -0.358327508 -0.854643047
vn 0.266963422 -0.52977401 -0.805027962
vn -0.266982734 -0.52978915 -0.805011511
vn 0.846938372 -0.372554868 -0.379339337
vn 0.846898019 -0.372611463 0.379373699
vn 0.411288798 -0.826016188 0.385407299
vn 0.411218971 -0.82606113 -0.385385454
vn 0.38291505 -0.386492252 0.839046955
vn -0.382917583 -0.386491388 0.83904624
vn -0.384324759 -0.834260881 0.395352036
vn 0.384325892 -0.834255397 0.395362526
vn -0.385056019 0.417717189 0.822948515
vn 0.385056973 0.417713225 0.822949946
vn 0.377365708 0.849806547 0.367999911
vn -0.37736544 0.849813819 0.36798349
vn 0.831435919 0.403830081 0.381622255
vn 0.831480682 0.403757691 -0.381601423
vn 0.383876115 0.842225671 -0.378543407
vn 0.383931309 0.842187583 0.378571957
vn 0.378105521 0.389428884 -0.839869797
vn -0.378096998 0.389449447 -0.839864194
vn -0.264798224 0.556632578 -0.787427545
vn 0.264776766 0.556616187 -0.78744632
vn -0.831455588 0.403795838 -0.381615698
vn -0.831410885 0.403868228 0.381636471
vn -0.38388598 0.842208147 0.378572345
vn -0.383828402 0.842247546 -0.37854296
vn 0.407125086 0.384338468 0.828572929
vn 0.407188475 -0.384364694 0.828529716
vn 0.844637215 -0.379713625 0.377366722
vn 0.8446787 0.379686356 0.377301008
vn -0.407175452 -0.384365529 0.828535676
vn -0.407111734 0.384338766 0.828579366
vn -0.844679117 0.379696488 0.37729004
vn -0.844637692 -0.379724264 0.37735489
vn 0.378881097 -0.377314001 -0.84503454
vn 0.378814459 0.377286375 -0.84507668
vn 0.547558844 0.265538543 -0.793516576
vn 0.547516584 -0.265546411 -0.79354316
vn -0.378841758 0.377298772 -0.845058858
vn -0.378906727 -0.377326459 -0.845017433
vn -0.547546268 -0.265553832 -0.793520153
vn -0.54758954 0.265546054 -0.793492913
vn -0.0307993051 0.382969081 -0.923247576
vn -0.0308082476 -0.382017225 -0.923641562
vn -0.0308104604 -0.382974952 -0.923244834
vn -0.0307971537 0.382023513 -0.923639238
vn -0.0307895765 0.923244715 -0.382976741
vn -0.0307873636 0.923642218 -0.382017374
vn -0.0307862684 0.923245728 0.382974535
vn -0.0307840724 0.923641562 0.382018924
vn -0.0307917725 0.382970184 0.923247337
vn -0.0307896119 0.382023245 0.923639774
vn -0.0308028907 -0.382976055 0.923244536
vn -0.0308006853 -0.382017046 0.92364186
vn -0.0308130663 -0.923246026 0.382971734
vn -0.0308108963 -0.923639774 0.382021248
vn -0.0308163986 -0.923244953 -0.382973999
vn -0.0308142118 -0.92364037 -0.38201955
vn -0.0308104604 -0.382974952 -0.923244834
vn -0.0308082476 -0.382017225 -0.923641562
vn 0.378105521 0.389428884 -0.839869797
vn -0.382741481 -0.00184520951 -0.923853576
vn -0.378096998 0.389449447 -0.839864194
vn 0.382745147 -0.00184521219 -0.923852146
vn 0.831480682 0.403757691 -0.381601423
vn 0.923830152 -0.00174383889 -0.382798702
vn 0.831435919 0.403830081 0.381622255
vn 0.923862636 -0.00160165154 0.382720858
vn 0.38277784 -0.00150261109 0.923839211
vn 0.385056973 0.417713225 0.822949946
vn -0.385056019 0.417717189 0.822948515
vn -0.382774144 -0.0015026062 0.923840761
vn -0.831410885 0.403868228 0.381636471
vn -0.923861504 -0.00160299009 0.382723749
vn -0.831455588 0.403795838 -0.381615698
vn -0.923828959 -0.00174517976 -0.382801622
vn -0.378096998 0.389449447 -0.839864194
vn -0.382741481 -0.00184520951 -0.923853576
vn 0.382967174 0.0303052608 -0.923264742
vn -0.382030189 0.0303149428 -0.92365247
vn -0.382972419 0.030317083 -0.923262119
vn 0.382037669 0.0303031746 -0.923649728
vn 0.923261881 0.0302961078 -0.382974803
vn 0.923652947 0.0302939694 -0.382030785
vn 0.923262894 0.0302928332 0.382972538
vn 0.923652351 0.0302907079 0.382032424
vn 0.382968247 0.03029784 0.923264563
vn 0.382037491 0.030295752 0.923650146
vn -0.382973611 0.030309679 0.923261881
vn -0.38202998 0.0303075332 0.923652768
vn -0.923262835 0.0303213745 0.382970452
vn -0.923650146 0.0303192809 0.382035673
vn -0.923261821 0.0303246323 -0.382972658
vn -0.923650622 0.0303225201 -0.382034004
vn -0.382972419 0.030317083 -0.923262119
vn -0.382030189 0.0303149428 -0.92365247
vn 0.378881097 -0.377314001 -0.84503454
vn -0.00191564928 0.382783443 -0.923836172
vn 0.378814459 0.377286375 -0.84507668
vn -0.00176964211 -0.382703871 -0.923869371
vn 0.411218971 -0.82606113 -0.385385454
vn -0.00156756653 -0.923823655 -0.382815093
vn 0.411288798 -0.826016188 0.385407299
vn -0.00142833765 -0.923855126 0.382739842
vn -0.00143302092 -0.38273555 0.923856854
vn 0.407188475 -0.384364694 0.828529716
vn 0.407125086 0.384338468 0.828572929
vn -0.00157905463 0.382815063 0.923823655
vn 0.383931309 0.842187583 0.378571957
vn -0.00178078923 0.923868299 0.382706285
vn 0.383876115 0.842225671 -0.378543407
vn -0.00191999204 0.923836887 -0.382781506
vn 0.378814459 0.377286375 -0.84507668
vn -0.00191564928 0.382783443 -0.923836172
vn 0.0308009367 -0.382969767 -0.923247278
vn 0.0308079254 0.382018894 -0.923640847
vn 0.0308101233 0.382974118 -0.923245132
vn 0.0307987798 -0.382023454 -0.923639238
vn 0.0307916123 -0.92324543 -0.382974893
vn 0.0307894126 -0.923641682 -0.382018447
vn 0.0307874102 -0.923246145 0.382973671
vn 0.0307852291 -0.923640668 0.382021099
vn 0.030789936 -0.382970244 0.923247337
vn 0.0307877697 -0.382021874 0.92364037
vn 0.0307991039 0.382974625 0.923245251
vn 0.0307968967 0.382017374 0.92364186
vn 0.0308109783 0.923246324 0.382971019
vn 0.0308088288 0.923639059 0.382023185
vn 0.0308152065 0.923245728 -0.3829723
vn 0.0308130253 0.923640072 -0.382020444
vn 0.0308101233 0.382974118 -0.923245132
vn 0.0308079254 0.382018894 -0.923640847
vn -0.37574473 -0.358344913 -0.854637206
vn 0.382743865 0.00186906022 -0.923852682
vn 0.375748158 -0.358327508 -0.854643047
vn -0.382741392 0.00186690933 -0.923853695
vn -0.846930802 -0.372566521 -0.379344761
vn -0.923827946 0.00176216708 -0.382804036
vn -0.846890688 -0.372622937 0.379378796
vn -0.923861504 0.00161449704 0.382723421
vn -0.382774621 0.00151176145 0.923840523
vn -0.382917583 -0.386491388 0.83904624
vn 0.38291505 -0.386492252 0.839046955
vn 0.382776976 0.00151415542 0.923839509
vn 0.846898019 -0.372611463 0.379373699
vn 0.92386204 0.00161959301 0.382722229
vn 0.846938372 -0.372554868 -0.379339337
vn 0.923828542 0.00176701893 -0.382802457
vn 0.375748158 -0.358327508 -0.854643047
vn 0.382743865 0.00186906022 -0.923852682
vn -0.382968277 -0.0303052254 -0.923264205
vn 0.382032156 -0.0303149149 -0.923651636
vn 0.382971972 -0.0303170569 -0.923262417
vn -0.382036209 -0.0303031318 -0.923650324
vn -0.923261702 -0.0302927177 -0.382975459
vn -0.923653305 -0.0302905701 -0.382030457
vn -0.923262835 -0.0302894562 0.382973045
vn -0.923652649 -0.0302873217 0.382031858
vn -0.382969618 -0.0302978083 0.923263907
vn -0.38203615 -0.0302957091 0.923650622
vn 0.382973254 -0.0303096492 0.923262
vn 0.382032186 -0.0303075109 0.923651934
vn 0.923263311 -0.0303246565 0.382969022
vn 0.923650146 -0.0303225778 0.382035255
vn 0.923262179 -0.0303279124 -0.382971466
vn 0.923650622 -0.0303258095 -0.382033855
vn 0.382971972 -0.0303170569 -0.923262417
vn 0.382032156 -0.0303149149 -0.923651636
vn -0.844679117 0.379696488 0.37729004
vn -0.923863471 -0.382718891 -0.00162203179
vn -0.844637692 -0.379724264 0.37735489
vn -0.923831105 0.382796317 -0.00176543219
vn -0.37736544 0.849813819 0.36798349
vn -0.382749408 0.923850298 -0.00185334519
vn 0.377365708 0.849806547 0.367999911
vn 0.382739127 0.923854589 -0.00183449767
vn 0.923829436 0.382800609 -0.00171986769
vn 0.8446787 0.379686356 0.377301008
vn 0.844637215 -0.379713625 0.377366722
vn 0.923861742 -0.382723123 -0.00157640735
vn 0.384325892 -0.834255397 0.395362526
vn 0.382771224 -0.923841953 -0.00148856791
vn -0.384324759 -0.834260881 0.395352036
vn -0.382781506 -0.923837721 -0.00150747469
vn -0.844637692 -0.379724264 0.37735489
vn -0.923863471 -0.382718891 -0.00162203179
vn -0.923238933 0.38297087 0.0310344305
vn -0.923636377 -0.382010758 0.0310434066
vn -0.923236191 -0.38297677 0.0310456567
vn -0.923634052 0.382017106 0.0310322419
vn -0.382975042 0.923237503 0.0310271624
vn -0.382012069 0.923636377 0.0310249366
vn 0.382973433 0.923238337 0.0310223196
vn 0.382015705 0.923635066 0.0310201161
vn 0.923239231 0.382971227 0.0310227312
vn 0.923635304 0.382015288 0.031020537
vn 0.92323637 -0.382977158 0.0310339555
vn 0.92363739 -0.382009029 0.0310317036
vn 0.382970542 -0.923238635 0.0310493503
vn 0.382017881 -0.923633218 0.0310471598
vn -0.382972211 -0.923237681 0.0310541838
vn -0.382014275 -0.923634648 0.0310519803
vn -0.923236191 -0.38297677 0.0310456567
vn -0.923636377 -0.382010758 0.0310434066
vn 1 -2.06865707E-06 -4.39679525E-06
vn 1 -2.06865707E-06 -4.3967957E-06
vn 1 -2.0686573E-06 -4.3967957E-06
vn 1 -2.0686573E-06 -4.39679616E-06
vn 1 -2.0686573E-06 -4.3967957E-06
vn 1 -2.06865752E-06 -4.3967957E-06
vn 1 -2.06865707E-06 -4.3967957E-06
vn 1 -2.0686573E-06 -4.3967957E-06
vn 4.35506809E-06 -1.20966354E-06 1
vn 4.35506763E-06 -1.20966354E-06 1
vn 4.35506809E-06 -1.20966354E-06 1
vn 4.35506809E-06 -1.20966342E-06 1
vn 4.35506809E-06 -1.20966354E-06 1
vn 4.35506809E-06 -1.20966354E-06 1
vn 4.35506809E-06 -1.20966342E-06 1
vn 4.35506809E-06 -1.20966365E-06 1
vn 1.43137504E-06 1 -3.59293108E-06
vn 1.43137504E-06 1 -3.59293131E-06
vn 1.43137504E-06 1 -3.59293108E-06
vn 1.43137515E-06 1 -3.59293131E-06
vn 1.43137504E-06 1 -3.59293108E-06
vn 1.43137504E-06 1 -3.59293131E-06
vn 1.43137504E-06 1 -3.59293063E-06
vn 1.43137504E-06 1 -3.59293108E-06
vn -1 -2.2370601E-07 0
vn -1 -2.2370601E-07 0
vn -1 -2.2370601E-07 0
vn -1 -2.2370601E-07 0
vn -1 -2.23705996E-07 0
vn -1 -2.2370601E-07 0
vn -1 -2.23706024E-07 0
vn -1 -2.2370601E-07 0
vn -0 -1 0
vn -0 -1 0
vn -0 -1 0
vn -0 -1 0
vn -0 -1 0
vn -0 -1 0
vn -0 -1 0
vn -0 -1 0
vn 0.547558844 0.265538543 -0.793516576
vn 0.184811532 -0.184720948 -0.965257943
vn 0.547516584 -0.265546411 -0.79354316
vn 0.266963422 -0.52977401 -0.805027962
vn 0.184809625 0.184891298 -0.965225756
vn 0.264776766 0.556616187 -0.78744632
vn -0.264798224 0.556632578 -0.787427545
vn -0.184804961 -0.184721291 -0.965259194
vn -0.266982734 -0.52978915 -0.805011511
vn -0.547546268 -0.265553832 -0.793520153
vn -0.184802756 0.184891462 -0.965226948
vn -0.54758954 0.265546054 -0.793492913
vn -0.578268707 0.583652616 0.570048153
vn -0.38388598 0.842208147 0.378572345
vn -0.831410885 0.403868228 0.381636471
vn -0.407111734 0.384338766 0.828579366
vn -0.385056019 0.417717189 0.822948515
vn -0.844679117 0.379696488 0.37729004
vn -0.37736544 0.849813819 0.36798349
vn -0.383828402 0.842247546 -0.37854296
vn -0.378841758 0.377298772 -0.845058858
vn -0.57283771 0.578177333 -0.58100605
vn -0.831455588 0.403795838 -0.381615698
vn -0.54758954 0.265546054 -0.793492913
vn -0.378096998 0.389449447 -0.839864194
vn -0.264798224 0.556632578 -0.787427545
vn -0.41127339 -0.826022685 0.385409683
vn -0.407175452 -0.384365529 0.828535676
vn -0.583685338 -0.572902441 0.575407863
vn -0.846890688 -0.372622937 0.379378796
vn -0.844637692 -0.379724264 0.37735489
vn -0.382917583 -0.386491388 0.83904624
vn -0.384324759 -0.834260881 0.395352036
vn -0.378906727 -0.377326459 -0.845017433
vn -0.411201298 -0.826069117 -0.385387123
vn -0.578122675 -0.567426026 -0.586346328
vn -0.547546268 -0.265553832 -0.793520153
vn -0.846930802 -0.372566521 -0.379344761
vn -0.266982734 -0.52978915 -0.805011511
vn -0.37574473 -0.358344913 -0.854637206
vn 0.578121245 -0.56741488 -0.586358249
vn 0.375748158 -0.358327508 -0.854643047
vn 0.846938372 -0.372554868 -0.379339337
vn 0.411218971 -0.82606113 -0.385385454
vn 0.266963422 -0.52977401 -0.805027962
vn 0.378881097 -0.377314001 -0.84503454
vn 0.547516584 -0.265546411 -0.79354316
vn 0.846898019 -0.372611463 0.379373699
vn 0.38291505 -0.386492252 0.839046955
vn 0.583690166 -0.572899997 0.575405419
vn 0.411288798 -0.826016188 0.385407299
vn 0.384325892 -0.834255397 0.395362526
vn 0.407188475 -0.384364694 0.828529716
vn 0.844637215 -0.379713625 0.377366722
vn 0.378814459 0.377286375 -0.84507668
vn 0.572842598 0.578163505 -0.581014812
vn 0.547558844 0.265538543 -0.793516576
vn 0.383876115 0.842225671 -0.378543407
vn 0.264776766 0.556616187 -0.78744632
vn 0.831480682 0.403757691 -0.381601423
vn 0.378105521 0.389428884 -0.839869797
vn 0.383931309 0.842187583 0.378571957
vn 0.407125086 0.384338468 0.828572929
vn 0.578279912 0.583647132 0.570042431
vn 0.831435919 0.403830081 0.381622255
vn 0.8446787 0.379686356 0.377301008
vn 0.385056973 0.417713225 0.822949946
vn 0.377365708 0.849806547 0.367999911
vn -0.462666839 0.18434301 0.867154479
vn -0.45627591 -0.202929422 0.866390169
vn -0.462667733 -0.184343249 0.867154062
vn -0.456275076 0.202929065 0.866390705
vn -0.202929705 -0.45627743 0.866389394
vn -0.184343904 0.462668419 0.867153585
vn -0.184343651 -0.462669373 0.867153049
vn -0.202928081 0.456277132 0.86638993
vn 0.202928916 -0.456277698 0.866389394
vn 0.184344366 0.462668806 0.867153227
vn 0.18434459 -0.462669075 0.867153049
vn 0.202928782 0.45627743 0.866389573
vn 0.456277668 -0.202929333 0.866389275
vn 0.462669283 0.18434383 0.867153168
vn 0.462669432 -0.184343755 0.867153049
vn 0.456277549 0.202929124 0.866389453
vn -0.763042569 0.547944307 -0.342816293
vn -0.738098204 -0.172634423 -0.652233303
vn -0.763041556 -0.547942996 -0.342820793
vn -0.7380988 0.17263402 -0.652232826
vn -0.172631279 -0.738090754 -0.652242601
vn -0.547946215 0.763041019 -0.342816889
vn -0.547945321 -0.76303941 -0.342821956
vn -0.172631785 0.738093674 -0.652239203
vn 0.172634035 -0.738089323 -0.652243495
vn 0.547941089 0.763037384 -0.342833012
vn 0.547940254 -0.763035774 -0.34283796
vn 0.172634467 0.738092244 -0.652240098
vn 0.738091648 -0.172633052 -0.65224123
vn 0.763038337 0.547940671 -0.342831671
vn 0.763037384 -0.54793936 -0.342835933
vn 0.738092124 0.172632635 -0.652240694
vn -0.164396256 -0.895764589 -0.413012773
vn 0.181697562 -0.895106137 -0.407149822
vn 0.164397329 -0.895764053 -0.413013637
vn -0.181696132 -0.895106912 -0.407148868
vn 0.407152295 -0.895105302 -0.18169643
vn -0.413011104 -0.895765483 -0.164396062
vn 0.413015872 -0.89576298 -0.164397329
vn -0.407147557 -0.895107567 -0.18169558
vn 0.407152832 -0.895105064 0.181696236
vn -0.413011909 -0.895765066 0.164395839
vn 0.413016319 -0.895762801 0.164397314
vn -0.407148182 -0.89510721 0.181696117
vn 0.181698143 -0.89510566 0.407150567
vn -0.164396986 -0.895764053 0.413013905
vn 0.16439797 -0.895763576 0.413014501
vn -0.181696758 -0.895106256 0.40715
vn -0.538333952 0.317818016 -0.780505061
vn 0.190937877 0.589340091 -0.784997404
vn 0.538333833 0.317820221 -0.780504286
vn -0.190940008 0.589338362 -0.784998298
vn 0.784992635 0.589346111 -0.190939054
vn -0.780503213 0.31781441 -0.538338959
vn 0.780499518 0.317822874 -0.538339376
vn -0.785001397 0.58933413 -0.190940037
vn 0.784992278 0.589346468 0.190939248
vn -0.780503213 0.317818671 0.538336396
vn 0.780499399 0.317827255 0.538336694
vn -0.78500104 0.589334548 0.190940201
vn 0.190937772 0.589343965 0.784994543
vn -0.53833437 0.317822963 0.780502737
vn 0.538334429 0.317825139 0.780501902
vn -0.190939844 0.589341998 0.784995496
vn 0.89063406 -0.168191299 -0.422472119
vn 0.889955282 0.185755149 -0.416502804
vn 0.89063406 0.168191895 -0.422471792
vn 0.889955163 -0.185756087 -0.416502595
vn 0.889955461 0.416502178 -0.185755581
vn 0.890634358 -0.422471523 -0.168191209
vn 0.890634358 0.422471553 -0.168190777
vn 0.88995558 -0.416502327 -0.185755223
vn 0.889955759 0.416501969 0.185755163
vn 0.890634358 -0.422471285 0.168191329
vn 0.890634477 0.422471255 0.168191135
vn 0.88995558 -0.416502059 0.185755461
vn 0.889955461 0.185754836 0.416502684
vn 0.890634 -0.16819112 0.422472268
vn 0.890634179 0.168191671 0.422471732
vn 0.889955163 -0.185755819 0.416502804
vn -0.3188878 -0.53878063 -0.779760182
vn -0.592093647 0.190146044 -0.783115208
vn -0.318889022 0.538780391 -0.779759824
vn -0.592093349 -0.190146402 -0.783115506
vn -0.592096746 0.783113003 -0.190145716
vn -0.318887502 -0.779759824 -0.538781345
vn -0.318890095 0.779758811 -0.538781226
vn -0.592093647 -0.783115268 -0.190146074
vn -0.592095912 0.783113778 0.190145656
vn -0.318881303 -0.779760361 0.538784385
vn -0.318883866 0.779759407 0.538784206
vn -0.592092812 -0.783115923 0.19014594
vn -0.592086732 0.190146595 0.783120394
vn -0.318879843 -0.53878051 0.779763579
vn -0.318881065 0.538780272 0.779763162
vn -0.592086256 -0.190146819 0.783120692
vn 0.164399162 0.895762682 -0.413015842
vn -0.181700066 0.895103157 -0.407155335
vn -0.164398357 0.895761132 -0.413019449
vn 0.181695879 0.895105064 -0.407152921
vn -0.407158524 0.895101666 -0.181699991
vn 0.413016617 0.895762622 -0.164398
vn -0.41302231 0.895759463 -0.164400786
vn 0.407152921 0.895104885 -0.18169713
vn -0.40715915 0.895101368 0.181699991
vn 0.413017422 0.895762205 0.16439797
vn -0.413022816 0.895759225 0.164400876
vn 0.407153577 0.895104408 0.181697845
vn -0.181700602 0.895102441 0.407156616
vn 0.164400041 0.895761728 0.413017422
vn -0.164399117 0.895760477 0.41302079
vn 0.181696564 0.89510411 0.40715462
vn 0.538336575 -0.317828208 -0.78049922
vn -0.19093591 -0.589347482 -0.784992337
vn -0.538335145 -0.317820579 -0.780503273
vn 0.190936327 -0.589349747 -0.784990609
vn -0.784992695 -0.589346349 -0.190937996
vn 0.780497253 -0.317832232 -0.538337111
vn -0.78049922 -0.317820191 -0.538341284
vn 0.784983873 -0.589358747 -0.190935627
vn -0.784992635 -0.589346349 0.190938443
vn 0.780497313 -0.317835569 0.538334966
vn -0.780499279 -0.317823559 0.538339138
vn 0.784983814 -0.589358866 0.190936089
vn -0.190935969 -0.589349031 0.784991264
vn 0.538336813 -0.317831278 0.78049773
vn -0.538335443 -0.317823827 0.780501842
vn 0.190936461 -0.589351416 0.784989357
vn -0.890661597 0.168171436 -0.422422022
vn -0.889982581 -0.185734585 -0.416453689
vn -0.890661299 -0.168171495 -0.422422439
vn -0.88998282 0.185734317 -0.416453212
vn -0.889982462 -0.416454017 -0.185734764
vn -0.890661418 0.42242232 -0.168171465
vn -0.89066112 -0.422422916 -0.168171406
vn -0.88998276 0.4164536 -0.185733914
vn -0.889982104 -0.416454643 0.185734749
vn -0.890661001 0.422423184 0.168171376
vn -0.890660822 -0.422423452 0.16817151
vn -0.889982283 0.416454285 0.185734615
vn -0.889981806 -0.185735166 0.41645506
vn -0.890660524 0.16817233 0.422423691
vn -0.890660524 -0.1681723 0.42242384
vn -0.889981866 0.185734972 0.416454911
vn 0.318877071 0.53877759 -0.779766738
vn 0.592076182 -0.190150723 -0.783127367
vn 0.318880767 -0.538776517 -0.779765844
vn 0.592075646 0.190150335 -0.783127964
vn 0.592078388 -0.783125579 -0.190150887
vn 0.318876445 0.779764414 -0.538781345
vn 0.318880856 -0.779763103 -0.53878057
vn 0.592074811 0.783128202 -0.190151364
vn 0.592078567 -0.78312552 0.19015123
vn 0.318879843 0.779764533 0.53877914
vn 0.318884254 -0.779763162 0.538778365
vn 0.59207499 0.783128083 0.190151662
vn 0.592078328 -0.190150738 0.783125639
vn 0.318880409 0.538777947 0.779765129
vn 0.318884283 -0.538776934 0.779764175
vn 0.592077851 0.190150261 0.783126235
vn -1 3.3907022E-06 -9.16370027E-06
vn -1 8.13541737E-06 -1.7984778E-06
vn -1 8.33671493E-06 -1.47933213E-06
vn -1 3.39616349E-06 -9.161241E-06
vn -1 1.77542133E-05 2.7942508E-06
vn -1 6.10401003E-06 -3.06321317E-06
vn -1 1.78634255E-05 2.73244677E-06
vn -1 6.2638801E-06 -2.71706949E-06
vn -1 1.99108254E-05 -8.39724908E-06
vn -1 9.01338444E-06 3.32139552E-06
vn -1 1.99927599E-05 -8.14985833E-06
vn -1 9.01960902E-06 3.33094658E-06
vn -1 1.02548638E-05 -1.56531223E-05
vn -1 6.64673234E-06 -5.03273759E-06
vn -1 1.12087382E-05 -1.57970644E-05
vn -1 6.29675878E-06 -6.30756085E-06
vn -6.2457998E-06 1 1.34069987E-05
vn -5.77235551E-06 1 1.33025906E-05
vn 1.79965582E-06 1 5.73058605E-06
vn 1.71142665E-06 1 5.44964041E-06
vn -1.94014319E-05 1 4.36324854E-06
vn -5.73049283E-06 1 1.7996482E-06
vn -1.96059536E-05 1 3.79276298E-06
vn -5.4497068E-06 1 1.71146758E-06
vn -1.14439863E-05 1 -3.59398769E-06
vn -1.33025933E-05 1 9.37171353E-06
vn -1.20341192E-05 1 -3.77931951E-06
vn -1.34070024E-05 1 9.66876451E-06
vn -3.59397291E-06 1 1.14443428E-05
vn -1.13513115E-05 1 1.96064502E-05
vn -3.77929427E-06 1 1.20344639E-05
vn -1.15514313E-05 1 1.94018394E-05
vn 1 7.49495393E-06 1.60883937E-05
vn 1 6.92681124E-06 1.59631018E-05
vn 1 -2.15958903E-06 6.87670581E-06
vn 1 -2.05371043E-06 6.53956158E-06
vn 1 2.20827642E-05 5.61240086E-06
vn 1 6.87658303E-06 2.15957766E-06
vn 1 2.2266393E-05 4.94723827E-06
vn 1 6.53964298E-06 2.05376227E-06
vn 1 1.25338693E-05 -3.93627806E-06
vn 1 1.59631036E-05 1.12460557E-05
vn 1 1.31801844E-05 -4.13925318E-06
vn 1 1.60883974E-05 1.1602513E-05
vn 1 3.93625805E-06 1.25342885E-05
vn 1 1.322565E-05 2.2266986E-05
vn 1 4.13922453E-06 1.31805955E-05
vn 1 1.34852007E-05 2.20832662E-05
vn -1.34069824E-05 6.24577069E-06 1
vn -1.33025724E-05 5.77232549E-06 1
vn -5.7305856E-06 -1.79965548E-06 1
vn -5.44962859E-06 -1.71142278E-06 1
vn -4.19210664E-06 1.99463411E-05 1
vn -1.79964786E-06 5.73048874E-06 1
vn -3.61277898E-06 2.01789553E-05 1
vn -1.71146939E-06 5.44970726E-06 1
vn 3.76514481E-06 1.19889764E-05 1
vn -9.371739E-06 1.33026033E-05 1
vn 3.95927373E-06 1.26071218E-05 1
vn -9.66875996E-06 1.34070051E-05 1
vn -1.19893184E-05 3.76512321E-06 1
vn -2.01795265E-05 1.15312923E-05 1
vn -1.26075147E-05 3.95926099E-06 1
vn -1.9946825E-05 1.17225864E-05 1
g P_T_PlusUp_B_0
f 3/3/3 2/2/2 1/1/1
f 6/6/6 5/5/5 4/4/4
f 9/9/9 8/8/8 7/7/7
f 10/10/10 9/9/9 7/7/7
f 11/11/11 9/9/9 10/10/10
f 12/12/12 11/11/11 10/10/10
f 15/15/15 14/14/14 13/13/13
f 16/16/16 15/15/15 13/13/13
f 19/19/19 18/18/18 17/17/17
f 20/20/20 19/19/19 17/17/17
f 23/23/23 22/22/22 21/21/21
f 22/22/22 24/24/24 21/21/21
f 21/21/21 24/24/24 25/25/25
f 24/24/24 26/26/26 25/25/25
f 25/25/25 26/26/26 27/27/27
f 26/26/26 28/28/28 27/27/27
f 31/31/31 30/30/30 29/29/29
f 32/32/32 31/31/31 29/29/29
f 35/35/35 34/34/34 33/33/33
f 34/34/34 36/36/36 33/33/33
f 34/34/34 37/37/37 36/36/36
f 37/37/37 38/38/38 36/36/36
f 41/41/41 40/40/40 39/39/39
f 42/42/42 41/41/41 39/39/39
f 45/45/45 44/44/44 43/43/43
f 46/46/46 45/45/45 43/43/43
f 49/49/49 48/48/48 47/47/47
f 50/50/50 49/49/49 47/47/47
f 50/50/50 47/47/47 51/51/51
f 52/52/52 50/50/50 51/51/51
f 52/52/52 51/51/51 53/53/53
f 54/54/54 52/52/52 53/53/53
f 57/57/57 56/56/56 55/55/55
f 58/58/58 57/57/57 55/55/55
f 61/61/61 60/60/60 59/59/59
f 62/62/62 61/61/61 59/59/59
f 63/63/63 61/61/61 62/62/62
f 64/64/64 63/63/63 62/62/62
f 67/67/67 66/66/66 65/65/65
f 68/68/68 67/67/67 65/65/65
f 71/71/71 70/70/70 69/69/69
f 72/72/72 71/71/71 69/69/69
f 75/75/75 74/74/74 73/73/73
f 74/74/74 76/76/76 73/73/73
f 73/73/73 76/76/76 77/77/77
f 76/76/76 78/78/78 77/77/77
f 77/77/77 78/78/78 79/79/79
f 78/78/78 80/80/80 79/79/79
f 83/83/83 82/82/82 81/81/81
f 84/84/84 83/83/83 81/81/81
f 87/87/87 86/86/86 85/85/85
f 88/88/88 87/87/87 85/85/85
f 89/89/89 87/87/87 88/88/88
f 90/90/90 89/89/89 88/88/88
f 93/93/93 92/92/92 91/91/91
f 94/94/94 93/93/93 91/91/91
f 97/97/97 96/96/96 95/95/95
f 98/98/98 97/97/97 95/95/95
f 101/101/101 100/100/100 99/99/99
f 100/100/100 102/102/102 99/99/99
f 99/99/99 102/102/102 103/103/103
f 102/102/102 104/104/104 103/103/103
f 103/103/103 104/104/104 105/105/105
f 104/104/104 106/106/106 105/105/105
f 109/109/109 108/108/108 107/107/107
f 110/110/110 109/109/109 107/107/107
f 113/113/113 112/112/112 111/111/111
f 112/112/112 114/114/114 111/111/111
f 115/115/115 111/111/111 114/114/114
f 116/116/116 115/115/115 114/114/114
f 115/115/115 116/116/116 117/117/117
f 116/116/116 118/118/118 117/117/117
f 118/118/118 119/119/119 117/117/117
f 119/119/119 120/120/120 117/117/117
f 120/120/120 119/119/119 121/121/121
f 119/119/119 122/122/122 121/121/121
f 123/123/123 121/121/121 122/122/122
f 124/124/124 123/123/123 122/122/122
f 123/123/123 124/124/124 125/125/125
f 124/124/124 126/126/126 125/125/125
f 127/127/127 125/125/125 126/126/126
f 128/128/128 127/127/127 126/126/126
f 131/131/131 130/130/130 129/129/129
f 132/132/132 131/131/131 129/129/129
f 135/135/135 134/134/134 133/133/133
f 136/136/136 135/135/135 133/133/133
f 139/139/139 138/138/138 137/137/137
f 140/140/140 139/139/139 137/137/137
f 143/143/143 142/142/142 141/141/141
f 144/144/144 143/143/143 141/141/141
f 147/147/147 146/146/146 145/145/145
f 148/148/148 147/147/147 145/145/145
f 151/151/151 150/150/150 149/149/149
f 152/152/152 151/151/151 149/149/149
f 155/155/155 154/154/154 153/153/153
f 156/156/156 155/155/155 153/153/153
f 159/159/159 158/158/158 157/157/157
f 160/160/160 159/159/159 157/157/157
f 163/163/163 162/162/162 161/161/161
f 164/164/164 163/163/163 161/161/161
f 167/167/167 166/166/166 165/165/165
f 168/168/168 167/167/167 165/165/165
f 171/171/171 170/170/170 169/169/169
f 172/172/172 171/171/171 169/169/169
f 175/175/175 174/174/174 173/173/173
f 176/176/176 175/175/175 173/173/173
f 179/179/179 178/178/178 177/177/177
f 178/178/178 180/180/180 177/177/177
f 177/177/177 180/180/180 181/181/181
f 180/180/180 182/182/182 181/181/181
f 181/181/181 182/182/182 183/183/183
f 182/182/182 184/184/184 183/183/183
f 183/183/183 184/184/184 185/185/185
f 184/184/184 186/186/186 185/185/185
f 185/185/185 186/186/186 187/187/187
f 186/186/186 188/188/188 187/187/187
f 187/187/187 188/188/188 189/189/189
f 188/188/188 190/190/190 189/189/189
f 189/189/189 190/190/190 191/191/191
f 190/190/190 192/192/192 191/191/191
f 191/191/191 192/192/192 193/193/193
f 192/192/192 194/194/194 193/193/193
f 197/197/197 196/196/196 195/195/195
f 196/196/196 198/198/198 195/195/195
f 199/199/199 195/195/195 198/198/198
f 200/200/200 199/199/199 198/198/198
f 199/199/199 200/200/200 201/201/201
f 200/200/200 202/202/202 201/201/201
f 202/202/202 203/203/203 201/201/201
f 203/203/203 204/204/204 201/201/201
f 204/204/204 203/203/203 205/205/205
f 203/203/203 206/206/206 205/205/205
f 207/207/207 205/205/205 206/206/206
f 208/208/208 207/207/207 206/206/206
f 207/207/207 208/208/208 209/209/209
f 208/208/208 210/210/210 209/209/209
f 211/211/211 209/209/209 210/210/210
f 212/212/212 211/211/211 210/210/210
f 215/215/215 214/214/214 213/213/213
f 214/214/214 216/216/216 213/213/213
f 213/213/213 216/216/216 217/217/217
f 216/216/216 218/218/218 217/217/217
f 217/217/217 218/218/218 219/219/219
f 218/218/218 220/220/220 219/219/219
f 219/219/219 220/220/220 221/221/221
f 220/220/220 222/222/222 221/221/221
f 221/221/221 222/222/222 223/223/223
f 222/222/222 224/224/224 223/223/223
f 223/223/223 224/224/224 225/225/225
f 224/224/224 226/226/226 225/225/225
f 225/225/225 226/226/226 227/227/227
f 226/226/226 228/228/228 227/227/227
f 227/227/227 228/228/228 229/229/229
f 228/228/228 230/230/230 229/229/229
f 233/233/233 232/232/232 231/231/231
f 232/232/232 234/234/234 231/231/231
f 235/235/235 231/231/231 234/234/234
f 236/236/236 235/235/235 234/234/234
f 235/235/235 236/236/236 237/237/237
f 236/236/236 238/238/238 237/237/237
f 238/238/238 239/239/239 237/237/237
f 239/239/239 240/240/240 237/237/237
f 240/240/240 239/239/239 241/241/241
f 239/239/239 242/242/242 241/241/241
f 243/243/243 241/241/241 242/242/242
f 244/244/244 243/243/243 242/242/242
f 243/243/243 244/244/244 245/245/245
f 244/244/244 246/246/246 245/245/245
f 247/247/247 245/245/245 246/246/246
f 248/248/248 247/247/247 246/246/246
f 251/251/251 250/250/250 249/249/249
f 250/250/250 252/252/252 249/249/249
f 249/249/249 252/252/252 253/253/253
f 252/252/252 254/254/254 253/253/253
f 253/253/253 254/254/254 255/255/255
f 254/254/254 256/256/256 255/255/255
f 255/255/255 256/256/256 257/257/257
f 256/256/256 258/258/258 257/257/257
f 257/257/257 258/258/258 259/259/259
f 258/258/258 260/260/260 259/259/259
f 259/259/259 260/260/260 261/261/261
f 260/260/260 262/262/262 261/261/261
f 261/261/261 262/262/262 263/263/263
f 262/262/262 264/264/264 263/263/263
f 263/263/263 264/264/264 265/265/265
f 264/264/264 266/266/266 265/265/265
f 269/269/269 268/268/268 267/267/267
f 268/268/268 270/270/270 267/267/267
f 271/271/271 267/267/267 270/270/270
f 272/272/272 271/271/271 270/270/270
f 271/271/271 272/272/272 273/273/273
f 272/272/272 274/274/274 273/273/273
f 274/274/274 275/275/275 273/273/273
f 275/275/275 276/276/276 273/273/273
f 276/276/276 275/275/275 277/277/277
f 275/275/275 278/278/278 277/277/277
f 279/279/279 277/277/277 278/278/278
f 280/280/280 279/279/279 278/278/278
f 279/279/279 280/280/280 281/281/281
f 280/280/280 282/282/282 281/281/281
f 283/283/283 281/281/281 282/282/282
f 284/284/284 283/283/283 282/282/282
f 287/287/287 286/286/286 285/285/285
f 286/286/286 288/288/288 285/285/285
f 285/285/285 288/288/288 289/289/289
f 288/288/288 290/290/290 289/289/289
f 289/289/289 290/290/290 291/291/291
f 290/290/290 292/292/292 291/291/291
f 291/291/291 292/292/292 293/293/293
f 292/292/292 294/294/294 293/293/293
f 293/293/293 294/294/294 295/295/295
f 294/294/294 296/296/296 295/295/295
f 295/295/295 296/296/296 297/297/297
f 296/296/296 298/298/298 297/297/297
f 297/297/297 298/298/298 299/299/299
f 298/298/298 300/300/300 299/299/299
f 299/299/299 300/300/300 301/301/301
f 300/300/300 302/302/302 301/301/301
f 305/305/305 304/304/304 303/303/303
f 304/304/304 306/306/306 303/303/303
f 307/307/307 303/303/303 306/306/306
f 308/308/308 307/307/307 306/306/306
f 307/307/307 308/308/308 309/309/309
f 308/308/308 310/310/310 309/309/309
f 310/310/310 311/311/311 309/309/309
f 311/311/311 312/312/312 309/309/309
f 312/312/312 311/311/311 313/313/313
f 311/311/311 314/314/314 313/313/313
f 315/315/315 313/313/313 314/314/314
f 316/316/316 315/315/315 314/314/314
f 315/315/315 316/316/316 317/317/317
f 316/316/316 318/318/318 317/317/317
f 319/319/319 317/317/317 318/318/318
f 320/320/320 319/319/319 318/318/318
f 323/323/323 322/322/322 321/321/321
f 322/322/322 324/324/324 321/321/321
f 321/321/321 324/324/324 325/325/325
f 324/324/324 326/326/326 325/325/325
f 325/325/325 326/326/326 327/327/327
f 326/326/326 328/328/328 327/327/327
f 327/327/327 328/328/328 329/329/329
f 328/328/328 330/330/330 329/329/329
f 329/329/329 330/330/330 331/331/331
f 330/330/330 332/332/332 331/331/331
f 331/331/331 332/332/332 333/333/333
f 332/332/332 334/334/334 333/333/333
f 333/333/333 334/334/334 335/335/335
f 334/334/334 336/336/336 335/335/335
f 335/335/335 336/336/336 337/337/337
f 336/336/336 338/338/338 337/337/337
f 341/341/341 340/340/340 339/339/339
f 339/339/339 342/342/342 341/341/341
f 342/342/342 343/343/343 341/341/341
f 343/343/343 344/344/344 341/341/341
f 343/343/343 345/345/345 344/344/344
f 345/345/345 346/346/346 344/344/344
f 349/349/349 348/348/348 347/347/347
f 347/347/347 350/350/350 349/349/349
f 347/347/347 351/351/351 350/350/350
f 347/347/347 352/352/352 351/351/351
f 352/352/352 353/353/353 351/351/351
f 353/353/353 354/354/354 351/351/351
f 357/357/357 356/356/356 355/355/355
f 355/355/355 358/358/358 357/357/357
f 355/355/355 359/359/359 358/358/358
f 355/355/355 360/360/360 359/359/359
f 360/360/360 361/361/361 359/359/359
f 361/361/361 362/362/362 359/359/359
f 365/365/365 364/364/364 363/363/363
f 363/363/363 366/366/366 365/365/365
f 363/363/363 367/367/367 366/366/366
f 367/367/367 368/368/368 366/366/366
f 367/367/367 369/369/369 368/368/368
f 367/367/367 370/370/370 369/369/369
f 373/373/373 372/372/372 371/371/371
f 371/371/371 374/374/374 373/373/373
f 371/371/371 375/375/375 374/374/374
f 375/375/375 376/376/376 374/374/374
f 375/375/375 377/377/377 376/376/376
f 377/377/377 378/378/378 376/376/376
f 381/381/381 380/380/380 379/379/379
f 382/382/382 380/380/380 381/381/381
f 380/380/380 383/383/383 379/379/379
f 379/379/379 383/383/383 384/384/384
f 384/384/384 383/383/383 385/385/385
f 386/386/386 380/380/380 382/382/382
f 383/383/383 380/380/380 386/386/386
f 387/387/387 386/386/386 382/382/382
f 388/388/388 386/386/386 387/387/387
f 383/383/383 389/389/389 385/385/385
f 389/389/389 383/383/383 386/386/386
f 389/389/389 386/386/386 388/388/388
f 385/385/385 389/389/389 390/390/390
f 390/390/390 389/389/389 388/388/388
f 393/393/393 392/392/392 391/391/391
f 391/391/391 392/392/392 394/394/394
f 391/391/391 395/395/395 393/393/393
f 396/396/396 391/391/391 394/394/394
f 395/395/395 391/391/391 397/397/397
f 396/396/396 397/397/397 391/391/391
f 400/400/400 399/399/399 398/398/398
f 401/401/401 400/400/400 398/398/398
f 399/399/399 400/400/400 402/402/402
f 400/400/400 401/401/401 403/403/403
f 404/404/404 402/402/402 400/400/400
f 403/403/403 404/404/404 400/400/400
f 407/407/407 406/406/406 405/405/405
f 405/405/405 408/408/408 407/407/407
f 406/406/406 407/407/407 409/409/409
f 407/407/407 408/408/408 410/410/410
f 407/407/407 411/411/411 409/409/409
f 407/407/407 410/410/410 411/411/411
f 414/414/414 413/413/413 412/412/412
f 415/415/415 414/414/414 412/412/412
f 413/413/413 414/414/414 416/416/416
f 414/414/414 415/415/415 417/417/417
f 414/414/414 418/418/418 416/416/416
f 417/417/417 418/418/418 414/414/414
f 421/421/421 420/420/420 419/419/419
f 421/421/421 419/419/419 422/422/422
f 423/423/423 419/419/419 420/420/420
f 419/419/419 424/424/424 422/422/422
f 419/419/419 423/423/423 425/425/425
f 425/425/425 424/424/424 419/419/419
f 428/428/428 427/427/427 426/426/426
f 429/429/429 428/428/428 426/426/426
f 428/428/428 430/430/430 427/427/427
f 428/428/428 429/429/429 431/431/431
f 428/428/428 432/432/432 430/430/430
f 431/431/431 432/432/432 428/428/428
f 435/435/435 434/434/434 433/433/433
f 434/434/434 436/436/436 433/433/433
f 434/434/434 435/435/435 437/437/437
f 438/438/438 436/436/436 434/434/434
f 439/439/439 434/434/434 437/437/437
f 434/434/434 439/439/439 438/438/438
f 442/442/442 441/441/441 440/440/440
f 443/443/443 442/442/442 440/440/440
f 441/441/441 442/442/442 444/444/444
f 442/442/442 443/443/443 445/445/445
f 442/442/442 446/446/446 444/444/444
f 445/445/445 446/446/446 442/442/442
f 449/449/449 448/448/448 447/447/447
f 448/448/448 450/450/450 447/447/447
f 451/451/451 448/448/448 449/449/449
f 447/447/447 450/450/450 452/452/452
f 453/453/453 451/451/451 449/449/449
f 450/450/450 454/454/454 452/452/452
f 455/455/455 451/451/451 453/453/453
f 452/452/452 454/454/454 456/456/456
f 457/457/457 455/455/455 453/453/453
f 454/454/454 458/458/458 456/456/456
f 459/459/459 455/455/455 457/457/457
f 456/456/456 458/458/458 460/460/460
f 461/461/461 459/459/459 457/457/457
f 458/458/458 462/462/462 460/460/460
f 462/462/462 459/459/459 461/461/461
f 460/460/460 462/462/462 461/461/461
f 465/465/465 464/464/464 463/463/463
f 464/464/464 466/466/466 463/463/463
f 467/467/467 464/464/464 465/465/465
f 463/463/463 466/466/466 468/468/468
f 469/469/469 467/467/467 465/465/465
f 466/466/466 470/470/470 468/468/468
f 471/471/471 467/467/467 469/469/469
f 468/468/468 470/470/470 472/472/472
f 473/473/473 471/471/471 469/469/469
f 470/470/470 474/474/474 472/472/472
f 475/475/475 471/471/471 473/473/473
f 472/472/472 474/474/474 476/476/476
f 477/477/477 475/475/475 473/473/473
f 474/474/474 478/478/478 476/476/476
f 478/478/478 475/475/475 477/477/477
f 476/476/476 478/478/478 477/477/477
f 481/481/481 480/480/480 479/479/479
f 480/480/480 482/482/482 479/479/479
f 483/483/483 480/480/480 481/481/481
f 479/479/479 482/482/482 484/484/484
f 485/485/485 483/483/483 481/481/481
f 482/482/482 486/486/486 484/484/484
f 487/487/487 483/483/483 485/485/485
f 484/484/484 486/486/486 488/488/488
f 489/489/489 487/487/487 485/485/485
f 486/486/486 490/490/490 488/488/488
f 491/491/491 487/487/487 489/489/489
f 488/488/488 490/490/490 492/492/492
f 493/493/493 491/491/491 489/489/489
f 490/490/490 494/494/494 492/492/492
f 494/494/494 491/491/491 493/493/493
f 492/492/492 494/494/494 493/493/493
f 497/497/497 496/496/496 495/495/495
f 496/496/496 498/498/498 495/495/495
f 499/499/499 496/496/496 497/497/497
f 495/495/495 498/498/498 500/500/500
f 501/501/501 499/499/499 497/497/497
f 498/498/498 502/502/502 500/500/500
f 503/503/503 499/499/499 501/501/501
f 500/500/500 502/502/502 504/504/504
f 505/505/505 503/503/503 501/501/501
f 502/502/502 506/506/506 504/504/504
f 507/507/507 503/503/503 505/505/505
f 504/504/504 506/506/506 508/508/508
f 509/509/509 507/507/507 505/505/505
f 506/506/506 510/510/510 508/508/508
f 510/510/510 507/507/507 509/509/509
f 508/508/508 510/510/510 509/509/509
f 513/513/513 512/512/512 511/511/511
f 512/512/512 514/514/514 511/511/511
f 515/515/515 512/512/512 513/513/513
f 511/511/511 514/514/514 516/516/516
f 517/517/517 515/515/515 513/513/513
f 514/514/514 518/518/518 516/516/516
f 519/519/519 515/515/515 517/517/517
f 516/516/516 518/518/518 520/520/520
f 521/521/521 519/519/519 517/517/517
f 518/518/518 522/522/522 520/520/520
f 523/523/523 519/519/519 521/521/521
f 520/520/520 522/522/522 524/524/524
f 525/525/525 523/523/523 521/521/521
f 522/522/522 526/526/526 524/524/524
f 526/526/526 523/523/523 525/525/525
f 524/524/524 526/526/526 525/525/525
f 529/529/529 528/528/528 527/527/527
f 528/528/528 530/530/530 527/527/527
f 531/531/531 528/528/528 529/529/529
f 527/527/527 530/530/530 532/532/532
f 533/533/533 531/531/531 529/529/529
f 530/530/530 534/534/534 532/532/532
f 535/535/535 531/531/531 533/533/533
f 532/532/532 534/534/534 536/536/536
f 537/537/537 535/535/535 533/533/533
f 534/534/534 538/538/538 536/536/536
f 539/539/539 535/535/535 537/537/537
f 536/536/536 538/538/538 540/540/540
f 541/541/541 539/539/539 537/537/537
f 538/538/538 542/542/542 540/540/540
f 542/542/542 539/539/539 541/541/541
f 540/540/540 542/542/542 541/541/541
f 545/545/545 544/544/544 543/543/543
f 544/544/544 546/546/546 543/543/543
f 547/547/547 544/544/544 545/545/545
f 543/543/543 546/546/546 548/548/548
f 549/549/549 547/547/547 545/545/545
f 546/546/546 550/550/550 548/548/548
f 551/551/551 547/547/547 549/549/549
f 548/548/548 550/550/550 552/552/552
f 553/553/553 551/551/551 549/549/549
f 550/550/550 554/554/554 552/552/552
f 555/555/555 551/551/551 553/553/553
f 552/552/552 554/554/554 556/556/556
f 557/557/557 555/555/555 553/553/553
f 554/554/554 558/558/558 556/556/556
f 558/558/558 555/555/555 557/557/557
f 556/556/556 558/558/558 557/557/557
f 561/561/561 560/560/560 559/559/559
f 560/560/560 562/562/562 559/559/559
f 563/563/563 560/560/560 561/561/561
f 559/559/559 562/562/562 564/564/564
f 565/565/565 563/563/563 561/561/561
f 562/562/562 566/566/566 564/564/564
f 567/567/567 563/563/563 565/565/565
f 564/564/564 566/566/566 568/568/568
f 569/569/569 567/567/567 565/565/565
f 566/566/566 570/570/570 568/568/568
f 571/571/571 567/567/567 569/569/569
f 568/568/568 570/570/570 572/572/572
f 573/573/573 571/571/571 569/569/569
f 570/570/570 574/574/574 572/572/572
f 574/574/574 571/571/571 573/573/573
f 572/572/572 574/574/574 573/573/573
f 577/577/577 576/576/576 575/575/575
f 576/576/576 578/578/578 575/575/575
f 579/579/579 576/576/576 577/577/577
f 575/575/575 578/578/578 580/580/580
f 581/581/581 579/579/579 577/577/577
f 578/578/578 582/582/582 580/580/580
f 583/583/583 579/579/579 581/581/581
f 580/580/580 582/582/582 584/584/584
f 585/585/585 583/583/583 581/581/581
f 582/582/582 586/586/586 584/584/584
f 587/587/587 583/583/583 585/585/585
f 584/584/584 586/586/586 588/588/588
f 589/589/589 587/587/587 585/585/585
f 586/586/586 590/590/590 588/588/588
f 590/590/590 587/587/587 589/589/589
f 588/588/588 590/590/590 589/589/589
f 593/593/593 592/592/592 591/591/591
f 592/592/592 594/594/594 591/591/591
f 595/595/595 592/592/592 593/593/593
f 591/591/591 594/594/594 596/596/596
f 597/597/597 595/595/595 593/593/593
f 594/594/594 598/598/598 596/596/596
f 599/599/599 595/595/595 597/597/597
f 596/596/596 598/598/598 600/600/600
f 601/601/601 599/599/599 597/597/597
f 598/598/598 602/602/602 600/600/600
f 603/603/603 599/599/599 601/601/601
f 600/600/600 602/602/602 604/604/604
f 605/605/605 603/603/603 601/601/601
f 602/602/602 606/606/606 604/604/604
f 606/606/606 603/603/603 605/605/605
f 604/604/604 606/606/606 605/605/605
f 609/609/609 608/608/608 607/607/607
f 608/608/608 610/610/610 607/607/607
f 611/611/611 608/608/608 609/609/609
f 607/607/607 610/610/610 612/612/612
f 613/613/613 611/611/611 609/609/609
f 610/610/610 614/614/614 612/612/612
f 615/615/615 611/611/611 613/613/613
f 612/612/612 614/614/614 616/616/616
f 617/617/617 615/615/615 613/613/613
f 614/614/614 618/618/618 616/616/616
f 619/619/619 615/615/615 617/617/617
f 616/616/616 618/618/618 620/620/620
f 621/621/621 619/619/619 617/617/617
f 618/618/618 622/622/622 620/620/620
f 622/622/622 619/619/619 621/621/621
f 620/620/620 622/622/622 621/621/621
f 625/625/625 624/624/624 623/623/623
f 626/626/626 625/625/625 623/623/623
f 623/623/623 624/624/624 627/627/627
f 628/628/628 625/625/625 626/626/626
f 624/624/624 629/629/629 627/627/627
f 630/630/630 628/628/628 626/626/626
f 627/627/627 629/629/629 631/631/631
f 632/632/632 628/628/628 630/630/630
f 629/629/629 633/633/633 631/631/631
f 634/634/634 632/632/632 630/630/630
f 631/631/631 633/633/633 635/635/635
f 636/636/636 632/632/632 634/634/634
f 633/633/633 637/637/637 635/635/635
f 638/638/638 636/636/636 634/634/634
f 635/635/635 637/637/637 638/638/638
f 637/637/637 636/636/636 638/638/638
f 641/641/641 640/640/640 639/639/639
f 642/642/642 641/641/641 639/639/639
f 639/639/639 640/640/640 643/643/643
f 644/644/644 641/641/641 642/642/642
f 640/640/640 645/645/645 643/643/643
f 646/646/646 644/644/644 642/642/642
f 643/643/643 645/645/645 647/647/647
f 648/648/648 644/644/644 646/646/646
f 645/645/645 649/649/649 647/647/647
f 650/650/650 648/648/648 646/646/646
f 647/647/647 649/649/649 651/651/651
f 652/652/652 648/648/648 650/650/650
f 649/649/649 653/653/653 651/651/651
f 654/654/654 652/652/652 650/650/650
f 651/651/651 653/653/653 654/654/654
f 653/653/653 652/652/652 654/654/654
f 657/657/657 656/656/656 655/655/655
f 658/658/658 657/657/657 655/655/655
f 655/655/655 656/656/656 659/659/659
f 660/660/660 657/657/657 658/658/658
f 656/656/656 661/661/661 659/659/659
f 662/662/662 660/660/660 658/658/658
f 659/659/659 661/661/661 663/663/663
f 664/664/664 660/660/660 662/662/662
f 661/661/661 665/665/665 663/663/663
f 666/666/666 664/664/664 662/662/662
f 663/663/663 665/665/665 667/667/667
f 668/668/668 664/664/664 666/666/666
f 665/665/665 669/669/669 667/667/667
f 670/670/670 668/668/668 666/666/666
f 667/667/667 669/669/669 670/670/670
f 669/669/669 668/668/668 670/670/670
