g P_T_Vert
v 0.039210137 -0.367016464 -0.500001311
v -0.0392101556 -0.367041171 -0.21875146
v 0.0392101333 -0.367041171 -0.21875146
v -0.0392100103 -0.367016464 -0.500000775
v -0.0856162608 -0.320634693 -0.218751937
v -0.0856162608 -0.320609957 -0.500001252
v 0.0856171772 -0.320610374 -0.500000775
v 0.039210137 -0.367016464 -0.500001311
v 0.0392101333 -0.367041171 -0.21875146
v 0.0856171623 -0.320634991 -0.218750954
v 0.0856170356 -0.242189214 -0.500000179
v 0.0856171772 -0.320610374 -0.500000775
v 0.0856171623 -0.320634991 -0.218750954
v 0.0856170356 -0.24221386 -0.218750417
v 0.0392107964 -0.195783034 -0.500000179
v 0.0856170356 -0.242189214 -0.500000179
v 0.0856170356 -0.24221386 -0.218750417
v 0.0392107964 -0.195807725 -0.218750417
v -0.0392101556 -0.195783034 -0.500000179
v -0.0392103009 -0.195807725 -0.218750954
v -0.0856165141 -0.242189363 -0.500000775
v -0.085616529 -0.242214009 -0.21875146
v -0.0856162608 -0.320609957 -0.500001252
v -0.0856165141 -0.242189363 -0.500000775
v -0.085616529 -0.242214009 -0.21875146
v -0.0856162608 -0.320634693 -0.218751937
v 0.039210476 -0.366866529 0.499999076
v 0.0392106809 -0.366891086 0.218748972
v -0.0392101407 -0.366891176 0.218748465
v -0.0392103456 -0.366866678 0.499998659
v -0.0856159776 -0.320484877 0.218748465
v -0.0856164545 -0.32046026 0.499998659
v 0.0856165737 -0.32046032 0.499999136
v 0.0856167898 -0.320484906 0.218748942
v 0.0392106809 -0.366891086 0.218748972
v 0.039210476 -0.366866529 0.499999076
v 0.0856167227 -0.242039219 0.499998659
v 0.0856169239 -0.242063805 0.218748465
v 0.0856167898 -0.320484906 0.218748942
v 0.0856165737 -0.32046032 0.499999136
v 0.0392107405 -0.195632994 0.499998033
v 0.0856169239 -0.242063805 0.218748465
v 0.0856167227 -0.242039219 0.499998659
v 0.0392109416 -0.195657611 0.218747899
v -0.0392104685 -0.195632994 0.499998629
v -0.0392102748 -0.195657611 0.218748465
v -0.0856164545 -0.242039561 0.499998629
v -0.0856159776 -0.242064148 0.218748465
v -0.0856164545 -0.32046026 0.499998659
v -0.0856159776 -0.320484877 0.218748465
v -0.0856159776 -0.242064148 0.218748465
v -0.0856164545 -0.242039561 0.499998629
v 0.0852342397 0.500000358 -0.0392111763
v 0.0852588043 -0.0628826916 -0.0392113663
v 0.0852589384 -0.0628832206 0.0392094254
v 0.0852343738 0.499999911 0.039209716
v 0.038852606 -0.0628832206 0.0856154114
v 0.0388280004 0.499999911 0.0856157988
v 0.0388280675 0.500000358 -0.0856172517
v 0.038852673 -0.0628826916 -0.0856174454
v 0.0852588043 -0.0628826916 -0.0392113663
v 0.0852342397 0.500000358 -0.0392111763
v -0.0395930521 0.499999911 -0.0856173486
v -0.0395684429 -0.0628832206 -0.0856175423
v 0.038852673 -0.0628826916 -0.0856174454
v 0.0388280675 0.500000358 -0.0856172517
v -0.0859992355 0.499999374 -0.0392114632
v -0.0395684429 -0.0628832206 -0.0856175423
v -0.0395930521 0.499999911 -0.0856173486
v -0.0859746411 -0.0628837422 -0.0392116569
v -0.0859992355 0.499999911 0.039209716
v -0.0859746411 -0.0628832206 0.0392095223
v -0.0395927131 0.499999911 0.0856157988
v -0.0395681001 -0.0628832206 0.0856154114
v 0.0388280004 0.499999911 0.0856157988
v 0.038852606 -0.0628832206 0.0856154114
v -0.0395681001 -0.0628832206 0.0856154114
v -0.0395927131 0.499999911 0.0856157988
v -0.0894099995 -0.376645774 0.06055687
v -0.0894099995 -0.376645774 -0.0605258532
v -0.0946486294 -0.370904863 -0.0605257601
v -0.0946486294 -0.370905042 0.06055687
v -0.0605416037 -0.376645774 -0.0893938616
v 0.060540732 -0.376645774 -0.0893938616
v 0.0605401509 -0.370904922 -0.0942664295
v -0.0605423823 -0.370904922 -0.0942664295
v 0.0894087404 -0.376645774 -0.0605257601
v 0.0894089267 -0.376645774 0.06055687
v 0.0946475565 -0.370904863 0.06055687
v 0.0946477577 -0.370904863 -0.0605257601
v 0.060540732 -0.376645774 0.0894248784
v -0.0605416037 -0.376645774 0.0894248784
v -0.0605419911 -0.370904952 0.0950463265
v 0.060540732 -0.370904952 0.0950463265
v -0.0605418012 -0.187088653 0.0894246772
v 0.060540732 -0.187088653 0.0894246772
v 0.060540732 -0.19208625 0.095046334
v -0.0605419911 -0.192086235 0.0950464234
v 0.0894087404 -0.187088683 0.0605566688
v 0.0894087404 -0.187088683 -0.0605260544
v 0.0946469828 -0.192086235 -0.0605257601
v 0.0946469828 -0.192086235 0.06055687
v 0.060540732 -0.187088683 -0.0893940553
v -0.0605418012 -0.187088683 -0.0893940553
v -0.0605423823 -0.19208619 -0.0942664295
v 0.0605401509 -0.19208619 -0.0942664295
v -0.0894099995 -0.187088683 -0.0605260544
v -0.0894099995 -0.187088683 0.0605566688
v -0.0946486294 -0.192086235 0.06055687
v -0.0946486294 -0.192086235 -0.0605258606
v 0.0946477577 -0.220954314 0.0894248635
v 0.0946477577 -0.342036813 0.0894248784
v 0.0894087404 -0.342036903 0.0950463265
v 0.0894087404 -0.220954388 0.0950463265
v -0.0946486294 -0.342036903 0.0894248784
v -0.0946486294 -0.220954388 0.0894248784
v -0.0894099995 -0.220954388 0.0950463265
v -0.0894099995 -0.342036903 0.0950463265
v 0.0946477577 -0.342036813 -0.0893939063
v 0.0946477577 -0.220954314 -0.0893939063
v 0.0894081593 -0.220954344 -0.0942663327
v 0.0894081593 -0.342036813 -0.0942664295
v -0.0946486294 -0.220954388 -0.0893938616
v -0.0946486294 -0.342036933 -0.0893938616
v -0.089410767 -0.342036813 -0.0942664295
v -0.089410767 -0.220954344 -0.0942664295
v 0.060540732 -0.187088683 -0.0893940553
v -0.0606167912 -0.108757071 -0.0895193815
v -0.0605418012 -0.187088683 -0.0893940553
v 0.0606159195 -0.108757071 -0.0895193815
v 0.0894087404 -0.187088683 -0.0605260544
v 0.0895193815 -0.108757071 -0.060615778
v 0.0894087404 -0.187088683 0.0605566688
v 0.0895193815 -0.108757071 0.0606172271
v 0.0606159195 -0.108757071 0.0895209834
v 0.060540732 -0.187088653 0.0894246772
v -0.0605418012 -0.187088653 0.0894246772
v -0.0606167912 -0.108757071 0.0895209834
v -0.0894099995 -0.187088683 0.0605566688
v -0.0895208418 -0.108757071 0.0606172271
v -0.0894099995 -0.187088683 -0.0605260544
v -0.0895208418 -0.108757071 -0.060615778
v -0.0605418012 -0.187088683 -0.0893940553
v -0.0606167912 -0.108757071 -0.0895193815
v 0.0505791269 -0.0957132727 -0.101753578
v -0.0501557998 -0.0643874928 -0.100900963
v -0.0505800061 -0.0957132727 -0.101753578
v 0.0501559004 -0.0643874928 -0.100900963
v 0.10175392 -0.0957132429 -0.0505789854
v 0.100901827 -0.0643874928 -0.0501548834
v 0.10175392 -0.0957132503 0.0505805388
v 0.100901827 -0.0643874928 0.0501567274
v 0.0505791269 -0.0957132503 0.101755217
v 0.0501559004 -0.0643874928 0.100902848
v -0.0505800061 -0.0957132503 0.101755217
v -0.0501557998 -0.0643874928 0.100902848
v -0.101754978 -0.0957132503 0.0505805388
v -0.100901924 -0.0643874928 0.0501567274
v -0.101754978 -0.0957132429 -0.0505789854
v -0.100901924 -0.0643874928 -0.0501548834
v -0.0505800061 -0.0957132727 -0.101753578
v -0.0501557998 -0.0643874928 -0.100900963
v -0.0894099995 -0.220954388 0.0950463265
v -0.089522779 -0.342097282 0.17352207
v -0.0894099995 -0.342036903 0.0950463265
v -0.089522779 -0.220864594 0.17352207
v -0.0605419911 -0.192086235 0.0950464234
v -0.0606189221 -0.191960707 0.17352207
v 0.060540732 -0.19208625 0.095046334
v 0.0606137887 -0.191960707 0.17352207
v 0.0895176455 -0.220864594 0.17352207
v 0.0894087404 -0.220954388 0.0950463265
v 0.0894087404 -0.342036903 0.0950463265
v 0.0895176455 -0.342097282 0.17352207
v 0.060540732 -0.370904952 0.0950463265
v 0.0606137887 -0.371001124 0.17352207
v -0.0605419911 -0.370904952 0.0950463265
v -0.0606189221 -0.371001124 0.17352207
v -0.0894099995 -0.342036903 0.0950463265
v -0.089522779 -0.342097282 0.17352207
v -0.101756722 -0.230901375 0.184710041
v -0.100904256 -0.331636369 0.215294197
v -0.101756722 -0.332060575 0.184710041
v -0.100904256 -0.231324643 0.215294227
v -0.0505819395 -0.179726571 0.184710041
v -0.0501581281 -0.180578634 0.215294227
v 0.0505771898 -0.179726571 0.184710041
v 0.0501537696 -0.180578634 0.215294227
v 0.101751782 -0.230901375 0.184710041
v 0.100899704 -0.231324643 0.215294227
v 0.101751782 -0.332060575 0.184710041
v 0.100899704 -0.331636369 0.215294197
v 0.0505771898 -0.383235395 0.184710026
v 0.0501537696 -0.382382423 0.215294197
v -0.0505819395 -0.383235395 0.184710026
v -0.0501581281 -0.382382423 0.215294197
v -0.101756722 -0.332060575 0.184710041
v -0.100904256 -0.331636369 0.215294197
v -0.089410767 -0.342036813 -0.0942664295
v -0.0895239413 -0.220864609 -0.175578043
v -0.089410767 -0.220954344 -0.0942664295
v -0.0895239413 -0.342097193 -0.175578043
v -0.0605423823 -0.370904922 -0.0942664295
v -0.0606202781 -0.371001124 -0.175578043
v 0.0605401509 -0.370904922 -0.0942664295
v 0.0606126301 -0.371001124 -0.175578043
v 0.0895164832 -0.342097193 -0.175578043
v 0.0894081593 -0.342036813 -0.0942664295
v 0.0894081593 -0.220954344 -0.0942663327
v 0.0895164832 -0.220864609 -0.175578043
v 0.0605401509 -0.19208619 -0.0942664295
v 0.0606126301 -0.191960692 -0.175578043
v -0.0605423823 -0.19208619 -0.0942664295
v -0.0606202781 -0.191960692 -0.175578043
v -0.089410767 -0.220954344 -0.0942664295
v -0.0895239413 -0.220864609 -0.175578043
v -0.101758078 -0.332060605 -0.188546285
v -0.100905806 -0.231325313 -0.219130471
v -0.101758078 -0.230901331 -0.188546285
v -0.100905806 -0.331637025 -0.219130471
v -0.0505832955 -0.383235246 -0.188546285
v -0.0501594879 -0.382383198 -0.219130471
v 0.0505758375 -0.383235246 -0.188546285
v 0.0501520224 -0.382383198 -0.219130471
v 0.10175062 -0.332060605 -0.188546285
v 0.10089834 -0.331637025 -0.219130471
v 0.10175062 -0.230901331 -0.188546285
v 0.10089834 -0.231325313 -0.219130471
v 0.0505758375 -0.179726437 -0.188546285
v 0.0501520224 -0.180579409 -0.219130471
v -0.0505832955 -0.179726437 -0.188546285
v -0.0501594879 -0.180579409 -0.219130471
v -0.101758078 -0.230901331 -0.188546285
v -0.100905806 -0.231325313 -0.219130471
v 0.0294275749 -0.345834672 -0.500000775
v 0.0642554164 -0.309139729 -0.500000775
v 0.0642554164 -0.254020125 -0.500000775
v 0.0294277091 -0.221402615 -0.500000775
v -0.0294269081 -0.221402615 -0.500000775
v -0.0294270311 -0.345834672 -0.500000775
v -0.0642546192 -0.252152145 -0.500000775
v -0.0642547533 -0.311007023 -0.500000775
v 0.0293496307 -0.217164338 0.499998629
v 0.06408602 -0.251900107 0.499998033
v 0.06408602 -0.310599625 0.499998659
v 0.0293500274 -0.345335424 0.499998659
v -0.0293500125 -0.345335603 0.499998659
v -0.0293497574 -0.217164189 0.499999106
v -0.0640853569 -0.251900047 0.499999106
v -0.0640856028 -0.310599536 0.499998659
v -0.0644679591 0.499999911 -0.0293502416
v -0.0297321472 0.499999374 -0.0640866831
v 0.02896736 0.499999911 -0.0640866831
v 0.063703157 0.499999911 -0.0293506235
v 0.0637033507 0.499999911 0.0293493643
v -0.0644680932 0.500000358 0.0293490794
v -0.0297322311 0.500000358 0.0640847459
v 0.0289672948 0.499999911 0.0640849471
v -0.0946486294 -0.370904863 -0.0605257601
v -0.117375143 -0.324792713 0.0433123782
v -0.0946486294 -0.370905042 0.06055687
v -0.0946486294 -0.342036903 0.0894248784
v -0.117375143 -0.324792713 -0.0433226489
v -0.0946486294 -0.342036933 -0.0893938616
v -0.0946486294 -0.220954388 -0.0893938616
v -0.117375143 -0.238157794 0.0433123782
v -0.0946486294 -0.220954388 0.0894248784
v -0.0946486294 -0.192086235 0.06055687
v -0.117375143 -0.238157794 -0.0433226451
v -0.0946486294 -0.192086235 -0.0605258606
v 0.0946475565 -0.370904863 0.06055687
v 0.117374271 -0.324792445 -0.0433226489
v 0.0946477577 -0.370904863 -0.0605257601
v 0.0946477577 -0.342036813 -0.0893939063
v 0.117374271 -0.324792445 0.0433123782
v 0.0946477577 -0.342036813 0.0894248784
v 0.0946477577 -0.220954314 0.0894248635
v 0.117374271 -0.238157675 -0.0433226451
v 0.0946477577 -0.220954314 -0.0893939063
v 0.0946469828 -0.192086235 -0.0605257601
v 0.117374271 -0.238157675 0.0433123782
v 0.0946469828 -0.192086235 0.06055687
v 0.0894087404 -0.376645774 -0.0605257601
v 0.0433171727 -0.399444252 0.0433123782
v 0.0894089267 -0.376645774 0.06055687
v 0.060540732 -0.376645774 0.0894248784
v 0.0433171727 -0.399444252 -0.0433226489
v 0.060540732 -0.376645774 -0.0893938616
v -0.0605416037 -0.376645774 -0.0893938616
v -0.0433178507 -0.399444252 0.0433123782
v -0.0605416037 -0.376645774 0.0894248784
v -0.0894099995 -0.376645774 0.06055687
v -0.0433178507 -0.399444252 -0.0433226489
v -0.0894099995 -0.376645774 -0.0605258532
v -0.0946486294 -0.370905042 0.06055687
v -0.0946486294 -0.342036903 0.0894248784
v -0.0819174349 -0.363412648 0.0819325075
v -0.0894099995 -0.376645774 0.06055687
v -0.0894099995 -0.342036903 0.0950463265
v -0.0605416037 -0.376645774 0.0894248784
v -0.0605419911 -0.370904952 0.0950463265
v -0.0946486294 -0.342036933 -0.0893938616
v -0.0946486294 -0.370904863 -0.0605257601
v -0.0819174349 -0.363412619 -0.0819015354
v -0.089410767 -0.342036813 -0.0942664295
v -0.0894099995 -0.376645774 -0.0605258532
v -0.0605423823 -0.370904922 -0.0942664295
v -0.0605416037 -0.376645774 -0.0893938616
v -0.0946486294 -0.192086235 -0.0605258606
v -0.0946486294 -0.220954388 -0.0893938616
v -0.0819174349 -0.199578583 -0.0819015354
v -0.0894099995 -0.187088683 -0.0605260544
v -0.089410767 -0.220954344 -0.0942664295
v -0.0605418012 -0.187088683 -0.0893940553
v -0.0605423823 -0.19208619 -0.0942664295
v -0.0819174349 -0.199578583 0.0819324926
v -0.0946486294 -0.192086235 0.06055687
v -0.0894099995 -0.187088683 0.0605566688
v -0.0946486294 -0.220954388 0.0894248784
v -0.0605418012 -0.187088653 0.0894246772
v -0.0894099995 -0.220954388 0.0950463265
v -0.0605419911 -0.192086235 0.0950464234
v 0.0819165558 -0.363412619 -0.0819015354
v 0.060540732 -0.376645774 -0.0893938616
v 0.0894087404 -0.376645774 -0.0605257601
v 0.0946477577 -0.370904863 -0.0605257601
v 0.0605401509 -0.370904922 -0.0942664295
v 0.0946477577 -0.342036813 -0.0893939063
v 0.0894081593 -0.342036813 -0.0942664295
v 0.0605401509 -0.19208619 -0.0942664295
v 0.0894081593 -0.220954344 -0.0942663327
v 0.0819165558 -0.199578583 -0.0819015354
v 0.060540732 -0.187088683 -0.0893940553
v 0.0946477577 -0.220954314 -0.0893939063
v 0.0894087404 -0.187088683 -0.0605260544
v 0.0946469828 -0.192086235 -0.0605257601
v 0.0894087404 -0.220954388 0.0950463265
v 0.0819165558 -0.199578583 0.0819324926
v 0.0946477577 -0.220954314 0.0894248635
v 0.060540732 -0.19208625 0.095046334
v 0.0946469828 -0.192086235 0.06055687
v 0.060540732 -0.187088653 0.0894246772
v 0.0894087404 -0.187088683 0.0605566688
v 0.0894089267 -0.376645774 0.06055687
v 0.060540732 -0.376645774 0.0894248784
v 0.0819165558 -0.363412648 0.0819325075
v 0.0946475565 -0.370904863 0.06055687
v 0.060540732 -0.370904952 0.0950463265
v 0.0946477577 -0.342036813 0.0894248784
v 0.0894087404 -0.342036903 0.0950463265
v -0.100905806 -0.331637025 -0.219130471
v -0.0788957179 -0.238350824 -0.228530914
v -0.100905806 -0.231325313 -0.219130471
v -0.0788957179 -0.324611723 -0.228530914
v -0.0431343354 -0.202589378 -0.228530914
v -0.0501594879 -0.382383198 -0.219130471
v -0.0501594879 -0.180579409 -0.219130471
v -0.0431339443 -0.360373169 -0.228530914
v 0.0431268737 -0.202589378 -0.228530914
v 0.0501520224 -0.382383198 -0.219130471
v 0.0501520224 -0.180579409 -0.219130471
v 0.0431268737 -0.360373169 -0.228530914
v 0.0788882524 -0.238350824 -0.228530914
v 0.10089834 -0.331637025 -0.219130471
v 0.10089834 -0.231325313 -0.219130471
v 0.0788882524 -0.324611723 -0.228530914
v -0.0895239413 -0.342097193 -0.175578043
v -0.101758078 -0.230901331 -0.188546285
v -0.0895239413 -0.220864609 -0.175578043
v -0.101758078 -0.332060605 -0.188546285
v -0.0505832955 -0.179726437 -0.188546285
v -0.0606202781 -0.371001124 -0.175578043
v -0.0606202781 -0.191960692 -0.175578043
v -0.0505832955 -0.383235246 -0.188546285
v 0.0505758375 -0.179726437 -0.188546285
v 0.0606126301 -0.371001124 -0.175578043
v 0.0606126301 -0.191960692 -0.175578043
v 0.0505758375 -0.383235246 -0.188546285
v 0.10175062 -0.230901331 -0.188546285
v 0.0895164832 -0.342097193 -0.175578043
v 0.0895164832 -0.220864609 -0.175578043
v 0.10175062 -0.332060605 -0.188546285
v -0.100904256 -0.231324643 0.215294227
v -0.0788941681 -0.324610978 0.228531107
v -0.100904256 -0.331636369 0.215294197
v -0.0788941681 -0.238350078 0.228531107
v -0.043132782 -0.360372543 0.228531092
v -0.0501581281 -0.180578634 0.215294227
v -0.0501581281 -0.382382423 0.215294197
v -0.043132592 -0.202588558 0.228531107
v 0.0431282334 -0.360372543 0.228531092
v 0.0501537696 -0.180578634 0.215294227
v 0.0501537696 -0.382382423 0.215294197
v 0.0431282334 -0.202588558 0.228531107
v 0.0788898095 -0.324610978 0.228531107
v 0.100899704 -0.231324643 0.215294227
v 0.100899704 -0.331636369 0.215294197
v 0.0788898095 -0.238350078 0.228531107
v -0.089522779 -0.220864594 0.17352207
v -0.101756722 -0.332060575 0.184710041
v -0.089522779 -0.342097282 0.17352207
v -0.101756722 -0.230901375 0.184710041
v -0.0505819395 -0.383235395 0.184710026
v -0.0606189221 -0.191960707 0.17352207
v -0.0606189221 -0.371001124 0.17352207
v -0.0505819395 -0.179726571 0.184710041
v 0.0505771898 -0.383235395 0.184710026
v 0.0606137887 -0.191960707 0.17352207
v 0.0606137887 -0.371001124 0.17352207
v 0.0505771898 -0.179726571 0.184710041
v 0.101751782 -0.332060575 0.184710041
v 0.0895176455 -0.220864594 0.17352207
v 0.0895176455 -0.342097282 0.17352207
v 0.101751782 -0.230901375 0.184710041
v 0.0501559004 -0.0643874928 -0.100900963
v -0.0431306548 -0.0529498085 -0.0788910165
v -0.0501557998 -0.0643874928 -0.100900963
v 0.0431301668 -0.0529498085 -0.0788910165
v -0.0788924173 -0.0529498085 -0.0431295373
v 0.100901827 -0.0643874928 -0.0501548834
v -0.100901924 -0.0643874928 -0.0501548834
v 0.0788919404 -0.0529498085 -0.0431294441
v -0.0788924173 -0.0529498085 0.0431313775
v 0.100901827 -0.0643874928 0.0501567274
v -0.100901924 -0.0643874928 0.0501567274
v 0.0788919404 -0.0529498085 0.0431313775
v -0.0431306548 -0.0529498085 0.0788930506
v 0.0501559004 -0.0643874928 0.100902848
v -0.0501557998 -0.0643874928 0.100902848
v 0.0431301668 -0.0529498085 0.0788930506
v 0.0606159195 -0.108757071 -0.0895193815
v -0.0505800061 -0.0957132727 -0.101753578
v -0.0606167912 -0.108757071 -0.0895193815
v 0.0505791269 -0.0957132727 -0.101753578
v -0.101754978 -0.0957132429 -0.0505789854
v 0.0895193815 -0.108757071 -0.060615778
v -0.0895208418 -0.108757071 -0.060615778
v 0.10175392 -0.0957132429 -0.0505789854
v -0.101754978 -0.0957132503 0.0505805388
v 0.0895193815 -0.108757071 0.0606172271
v -0.0895208418 -0.108757071 0.0606172271
v 0.10175392 -0.0957132503 0.0505805388
v -0.0505800061 -0.0957132503 0.101755217
v 0.0606159195 -0.108757071 0.0895209834
v -0.0606167912 -0.108757071 0.0895209834
v 0.0505791269 -0.0957132503 0.101755217
v -0.0856162608 -0.320609957 -0.500001252
v -0.0642546192 -0.252152145 -0.500000775
v -0.0856165141 -0.242189363 -0.500000775
v -0.0642547533 -0.311007023 -0.500000775
v -0.0294269081 -0.221402615 -0.500000775
v -0.0392100103 -0.367016464 -0.500000775
v -0.0392101556 -0.195783034 -0.500000179
v -0.0294270311 -0.345834672 -0.500000775
v 0.0294277091 -0.221402615 -0.500000775
v 0.039210137 -0.367016464 -0.500001311
v 0.0392107964 -0.195783034 -0.500000179
v 0.0294275749 -0.345834672 -0.500000775
v 0.0642554164 -0.254020125 -0.500000775
v 0.0856171772 -0.320610374 -0.500000775
v 0.0856170356 -0.242189214 -0.500000179
v 0.0642554164 -0.309139729 -0.500000775
v -0.0395927131 0.499999911 0.0856157988
v -0.0297322311 0.500000358 0.0640847459
v 0.0289672948 0.499999911 0.0640849471
v 0.0388280004 0.499999911 0.0856157988
v -0.0859992355 0.499999911 0.039209716
v 0.0637033507 0.499999911 0.0293493643
v -0.0644680932 0.500000358 0.0293490794
v 0.0852343738 0.499999911 0.039209716
v -0.0859992355 0.499999374 -0.0392114632
v 0.063703157 0.499999911 -0.0293506235
v -0.0644679591 0.499999911 -0.0293502416
v 0.0852342397 0.500000358 -0.0392111763
v -0.0395930521 0.499999911 -0.0856173486
v 0.02896736 0.499999911 -0.0640866831
v -0.0297321472 0.499999374 -0.0640866831
v 0.0388280675 0.500000358 -0.0856172517
v -0.0856164545 -0.242039561 0.499998629
v -0.0640853569 -0.251900047 0.499999106
v -0.0640856028 -0.310599536 0.499998659
v -0.0856164545 -0.32046026 0.499998659
v -0.0392104685 -0.195632994 0.499998629
v -0.0293500125 -0.345335603 0.499998659
v -0.0293497574 -0.217164189 0.499999106
v -0.0392103456 -0.366866678 0.499998659
v 0.0392107405 -0.195632994 0.499998033
v 0.0293500274 -0.345335424 0.499998659
v 0.0293496307 -0.217164338 0.499998629
v 0.039210476 -0.366866529 0.499999076
v 0.0856167227 -0.242039219 0.499998659
v 0.06408602 -0.310599625 0.499998659
v 0.06408602 -0.251900107 0.499998033
v 0.0856165737 -0.32046032 0.499999136
vt 0.628699541 0.764061928
vt 0.646167994 0.809399128
vt 0.628699541 0.809399009
vt 0.646167994 0.764061928
vt 0.661713779 0.809399128
vt 0.661713779 0.764061928
vt 0.745886803 0.764061928
vt 0.761307597 0.764061928
vt 0.761307597 0.809399009
vt 0.745886803 0.809398711
vt 0.728265285 0.764061928
vt 0.745886803 0.764061928
vt 0.745886803 0.809398711
vt 0.728265285 0.809398055
vt 0.712555885 0.764061928
vt 0.728265285 0.764061928
vt 0.728265285 0.809398055
vt 0.712555885 0.809397936
vt 0.694801271 0.764061928
vt 0.694801271 0.809397459
vt 0.679043651 0.764061928
vt 0.679043651 0.80939728
vt 0.661713779 0.764061928
vt 0.679043651 0.764061928
vt 0.679043651 0.80939728
vt 0.661713779 0.809397042
vt 0.628699541 0.764062047
vt 0.628699541 0.809399128
vt 0.646167994 0.809399128
vt 0.646167994 0.764061928
vt 0.661713779 0.809399128
vt 0.661713779 0.764061928
vt 0.745886803 0.764062345
vt 0.745886803 0.809399128
vt 0.761307597 0.809399128
vt 0.761307597 0.764062047
vt 0.728265285 0.764063001
vt 0.728265285 0.809399128
vt 0.745886803 0.809399128
vt 0.745886803 0.764062345
vt 0.712555885 0.76406312
vt 0.728265285 0.809399128
vt 0.728265285 0.764063001
vt 0.712555885 0.809399128
vt 0.694801271 0.764063597
vt 0.694801271 0.809399128
vt 0.679043651 0.764063776
vt 0.679043651 0.809399128
vt 0.661713779 0.764064014
vt 0.661713779 0.809399128
vt 0.679043651 0.809399128
vt 0.679043651 0.764063776
vt 0.628699541 0.764062047
vt 0.628699541 0.809399128
vt 0.646167994 0.809399128
vt 0.646167994 0.764061928
vt 0.661713779 0.809399128
vt 0.661713779 0.764061928
vt 0.745886803 0.764062345
vt 0.745886803 0.809399128
vt 0.761307597 0.809399128
vt 0.761307597 0.764062047
vt 0.728265285 0.764063001
vt 0.728265285 0.809399128
vt 0.745886803 0.809399128
vt 0.745886803 0.764062345
vt 0.712555885 0.76406312
vt 0.728265285 0.809399128
vt 0.728265285 0.764063001
vt 0.712555885 0.809399128
vt 0.694801271 0.764063597
vt 0.694801271 0.809399128
vt 0.679043651 0.764063776
vt 0.679043651 0.809399128
vt 0.661713779 0.764064014
vt 0.661713779 0.809399128
vt 0.679043651 0.809399128
vt 0.679043651 0.764063776
vt 0.943912506 0.578163147
vt 0.943911135 0.525642037
vt 0.93497622 0.525646925
vt 0.93497622 0.578163147
vt 0.943912506 0.578163147
vt 0.943911135 0.525642037
vt 0.93497622 0.525646925
vt 0.93497622 0.578163147
vt 0.943912506 0.578163147
vt 0.943911135 0.525642037
vt 0.93497622 0.525646925
vt 0.93497622 0.578163147
vt 0.943912506 0.578163147
vt 0.943911135 0.525642037
vt 0.93497622 0.525646925
vt 0.93497622 0.578163147
vt 0.93497622 0.525646925
vt 0.93497622 0.578163147
vt 0.943912506 0.578163147
vt 0.943911135 0.525642037
vt 0.93497622 0.525647461
vt 0.93497622 0.578163147
vt 0.943912506 0.578163147
vt 0.94391036 0.525650144
vt 0.934976339 0.525647461
vt 0.93497622 0.578163147
vt 0.943912506 0.578163147
vt 0.943914354 0.525652587
vt 0.934976339 0.525647223
vt 0.93497622 0.578163147
vt 0.943912506 0.578163147
vt 0.943914592 0.525645137
vt 0.943912506 0.578163147
vt 0.94391036 0.525650144
vt 0.93497622 0.525647461
vt 0.93497622 0.578163147
vt 0.93497622 0.525647461
vt 0.93497622 0.578163147
vt 0.943912506 0.578163147
vt 0.94391036 0.525650144
vt 0.943912506 0.578163147
vt 0.943914592 0.525645137
vt 0.934976339 0.525647223
vt 0.93497622 0.578163147
vt 0.943912506 0.578163147
vt 0.94391036 0.525650144
vt 0.93497622 0.525647461
vt 0.93497622 0.578163147
vt 0.957827508 0.513191104
vt 0.994250894 0.488644063
vt 0.994250894 0.513191104
vt 0.957827508 0.488644063
vt 0.946188986 0.513191104
vt 0.946188986 0.488644063
vt 0.909765601 0.513191104
vt 0.909765601 0.488644063
vt 0.89812696 0.488644063
vt 0.89812696 0.513191104
vt 0.861703634 0.513191104
vt 0.861703634 0.488644063
vt 0.850065172 0.513191104
vt 0.850065172 0.488644063
vt 0.813641727 0.513191104
vt 0.813641727 0.488644063
vt 0.802003145 0.513191104
vt 0.802003145 0.488644063
vt 0.962158561 0.516360402
vt 0.990387857 0.523758531
vt 0.990387857 0.516360402
vt 0.962158442 0.523758531
vt 0.94232595 0.516360402
vt 0.94232583 0.523758531
vt 0.914096653 0.516360402
vt 0.914096653 0.523758531
vt 0.894263983 0.516360402
vt 0.894263983 0.523758531
vt 0.866034687 0.516360402
vt 0.866034806 0.523758531
vt 0.846202075 0.516360402
vt 0.846202195 0.523758531
vt 0.817972779 0.516360402
vt 0.817972779 0.523758531
vt 0.798140109 0.516360402
vt 0.798140109 0.523758531
vt 0.957827508 0.513191104
vt 0.994250894 0.488644063
vt 0.994250894 0.513191104
vt 0.957827508 0.488644063
vt 0.946188986 0.513191104
vt 0.946188986 0.488644063
vt 0.909765601 0.513191104
vt 0.909765601 0.488644063
vt 0.89812696 0.488644063
vt 0.89812696 0.513191104
vt 0.861703634 0.513191104
vt 0.861703634 0.488644063
vt 0.850065172 0.513191104
vt 0.850065172 0.488644063
vt 0.813641727 0.513191104
vt 0.813641727 0.488644063
vt 0.802003145 0.513191104
vt 0.802003145 0.488644063
vt 0.962158561 0.516360402
vt 0.990387857 0.523758531
vt 0.990387857 0.516360402
vt 0.962158442 0.523758531
vt 0.94232595 0.516360402
vt 0.94232583 0.523758531
vt 0.914096653 0.516360402
vt 0.914096653 0.523758531
vt 0.894263983 0.516360402
vt 0.894263983 0.523758531
vt 0.866034687 0.516360402
vt 0.866034806 0.523758531
vt 0.846202075 0.516360402
vt 0.846202195 0.523758531
vt 0.817972779 0.516360402
vt 0.817972779 0.523758531
vt 0.798140109 0.516360402
vt 0.798140109 0.523758531
vt 0.957827508 0.513191104
vt 0.994250894 0.488644063
vt 0.994250894 0.513191104
vt 0.957827508 0.488644063
vt 0.946188986 0.513191104
vt 0.946188986 0.488644063
vt 0.909765601 0.513191104
vt 0.909765601 0.488644063
vt 0.89812696 0.488644063
vt 0.89812696 0.513191104
vt 0.861703634 0.513191104
vt 0.861703634 0.488644063
vt 0.850065172 0.513191104
vt 0.850065172 0.488644063
vt 0.813641727 0.513191104
vt 0.813641727 0.488644063
vt 0.802003145 0.513191104
vt 0.802003145 0.488644063
vt 0.962158561 0.516360402
vt 0.990387857 0.523758531
vt 0.990387857 0.516360402
vt 0.962158442 0.523758531
vt 0.94232595 0.516360402
vt 0.94232583 0.523758531
vt 0.914096653 0.516360402
vt 0.914096653 0.523758531
vt 0.894263983 0.516360402
vt 0.894263983 0.523758531
vt 0.866034687 0.516360402
vt 0.866034806 0.523758531
vt 0.846202075 0.516360402
vt 0.846202195 0.523758531
vt 0.817972779 0.516360402
vt 0.817972779 0.523758531
vt 0.798140109 0.516360402
vt 0.798140109 0.523758531
vt 0.782537758 0.0546589419
vt 0.782598197 0.0547163412
vt 0.782689035 0.0547163412
vt 0.782742739 0.0546589419
vt 0.782742739 0.0545619428
vt 0.782537758 0.0545619428
vt 0.782692075 0.0545045733
vt 0.782595038 0.0545045733
vt 0.78232348 0.0546591207
vt 0.7823807 0.0547163412
vt 0.78247726 0.0547163412
vt 0.78253454 0.0546590909
vt 0.78253454 0.05456236
vt 0.78232348 0.05456236
vt 0.7823807 0.0545051098
vt 0.78247726 0.0545051098
vt 0.782501459 0.0543493032
vt 0.782444179 0.0542920828
vt 0.7823475 0.0542920828
vt 0.78229022 0.0543493032
vt 0.78229022 0.0544461012
vt 0.782501459 0.0544461012
vt 0.782444179 0.0545033216
vt 0.7823475 0.0545033216
vt 0.852595985 0.575076818
vt 0.839953721 0.546085
vt 0.852595985 0.541497648
vt 0.844590127 0.533491671
vt 0.840003014 0.570439875
vt 0.844590127 0.583082795
vt 0.811010838 0.583082795
vt 0.815598488 0.546133757
vt 0.811010838 0.533491671
vt 0.803004861 0.541497648
vt 0.815647602 0.570489407
vt 0.803004861 0.575076818
vt 0.852595985 0.575076818
vt 0.83995384 0.546085119
vt 0.852595985 0.541497648
vt 0.844590127 0.533491671
vt 0.840002716 0.570440412
vt 0.844590127 0.583082795
vt 0.811010838 0.583082795
vt 0.815598071 0.546134114
vt 0.811010838 0.533491671
vt 0.803004861 0.541497648
vt 0.815647721 0.570489824
vt 0.803004861 0.575076818
vt 0.852595985 0.575076818
vt 0.839954376 0.54608357
vt 0.852595985 0.541497648
vt 0.844590127 0.533491671
vt 0.840003848 0.570440948
vt 0.844590127 0.583082795
vt 0.811010838 0.583082795
vt 0.815597177 0.546133101
vt 0.811010838 0.533491671
vt 0.803004861 0.541497648
vt 0.81564641 0.57049036
vt 0.803004861 0.575076818
vt 0.950194955 0.587294877
vt 0.943921387 0.578166962
vt 0.939443827 0.586763442
vt 0.945717394 0.594816923
vt 0.934966326 0.578166962
vt 0.933170438 0.594816923
vt 0.928692877 0.587294877
vt 0.943926394 0.578171849
vt 0.950199783 0.587299585
vt 0.939448595 0.586768448
vt 0.934971213 0.578171849
vt 0.945722222 0.594821692
vt 0.928697586 0.587299585
vt 0.933175325 0.594821692
vt 0.950199783 0.587299585
vt 0.943926394 0.578171849
vt 0.939448595 0.586768448
vt 0.945722222 0.594821692
vt 0.934971213 0.578171849
vt 0.933175325 0.594821692
vt 0.928697586 0.587299585
vt 0.939443827 0.586763442
vt 0.950194955 0.587294877
vt 0.945717394 0.594816923
vt 0.943921387 0.578166962
vt 0.933170438 0.594816923
vt 0.934966326 0.578166962
vt 0.928692877 0.587294877
vt 0.939440668 0.586776257
vt 0.93316704 0.594829857
vt 0.945714116 0.594829857
vt 0.950191677 0.587307751
vt 0.928689599 0.587307751
vt 0.943918288 0.578179896
vt 0.934963167 0.578180075
vt 0.928689599 0.587307751
vt 0.934963167 0.578180075
vt 0.939440668 0.586776257
vt 0.93316704 0.594829857
vt 0.943918288 0.578179896
vt 0.945714116 0.594829857
vt 0.950191677 0.587307751
vt 0.934958279 0.578175068
vt 0.939435899 0.586771607
vt 0.94391346 0.578175068
vt 0.928684771 0.587302744
vt 0.950186968 0.587302744
vt 0.933162332 0.594825149
vt 0.945709169 0.594825149
vt 0.945709169 0.594825149
vt 0.933162332 0.594825149
vt 0.939435899 0.586771607
vt 0.950186968 0.587302744
vt 0.928684771 0.587302744
vt 0.94391346 0.578175068
vt 0.934958279 0.578175068
vt 0.863500953 0.576442778
vt 0.871729791 0.544753969
vt 0.863498151 0.542043209
vt 0.87172842 0.573625863
vt 0.883023143 0.534130514
vt 0.880637527 0.591980636
vt 0.880455256 0.526143134
vt 0.883103907 0.58394134
vt 0.912024915 0.533686697
vt 0.915000618 0.591181159
vt 0.914463699 0.526071608
vt 0.912341595 0.583941102
vt 0.924078286 0.544708669
vt 0.931822419 0.575492918
vt 0.9317981 0.541983068
vt 0.92407912 0.5727337
vt 0.846397221 0.585678875
vt 0.811323225 0.59243983
vt 0.80982095 0.585678875
vt 0.844895065 0.59243983
vt 0.794339657 0.575456321
vt 0.85511744 0.576958537
vt 0.801100671 0.576958537
vt 0.861878514 0.575456321
vt 0.794339657 0.541884542
vt 0.85511744 0.540382206
vt 0.801100671 0.540382206
vt 0.861878514 0.541884542
vt 0.811323225 0.524900913
vt 0.846397221 0.531661987
vt 0.80982095 0.531661987
vt 0.844895065 0.524900913
vt 0.863500953 0.576442778
vt 0.871729791 0.544753969
vt 0.863498151 0.542043209
vt 0.87172842 0.573625863
vt 0.883023143 0.534130514
vt 0.880637527 0.591980636
vt 0.880455256 0.526143134
vt 0.883103907 0.58394134
vt 0.912024915 0.533686697
vt 0.915000618 0.591181159
vt 0.914463699 0.526071608
vt 0.912341595 0.583941102
vt 0.924078286 0.544708669
vt 0.931822419 0.575492918
vt 0.9317981 0.541983068
vt 0.92407912 0.5727337
vt 0.846397221 0.585678875
vt 0.811323225 0.59243983
vt 0.80982095 0.585678875
vt 0.844895065 0.59243983
vt 0.794339657 0.575456321
vt 0.85511744 0.576958537
vt 0.801100671 0.576958537
vt 0.861878514 0.575456321
vt 0.794339657 0.541884542
vt 0.85511744 0.540382206
vt 0.801100671 0.540382206
vt 0.861878514 0.541884542
vt 0.811323225 0.524900913
vt 0.846397221 0.531661987
vt 0.80982095 0.531661987
vt 0.844895065 0.524900913
vt 0.863500953 0.576442778
vt 0.871729791 0.544753969
vt 0.863498151 0.542043209
vt 0.87172842 0.573625863
vt 0.883023143 0.534130514
vt 0.880637527 0.591980636
vt 0.880455256 0.526143134
vt 0.883103907 0.58394134
vt 0.912024915 0.533686697
vt 0.915000618 0.591181159
vt 0.914463699 0.526071608
vt 0.912341595 0.583941102
vt 0.924078286 0.544708669
vt 0.931822419 0.575492918
vt 0.9317981 0.541983068
vt 0.92407912 0.5727337
vt 0.846397221 0.585678875
vt 0.811323225 0.59243983
vt 0.80982095 0.585678875
vt 0.844895065 0.59243983
vt 0.794339657 0.575456321
vt 0.85511744 0.576958537
vt 0.801100671 0.576958537
vt 0.861878514 0.575456321
vt 0.794339657 0.541884542
vt 0.85511744 0.540382206
vt 0.801100671 0.540382206
vt 0.861878514 0.541884542
vt 0.811323225 0.524900913
vt 0.846397221 0.531661987
vt 0.80982095 0.531661987
vt 0.844895065 0.524900913
vt 0.859570205 0.900560141
vt 0.853561461 0.919794679
vt 0.859563768 0.922462285
vt 0.853507638 0.903330207
vt 0.843739629 0.929398358
vt 0.846528053 0.887539923
vt 0.846483886 0.935384214
vt 0.843766689 0.893562496
vt 0.827275038 0.929398358
vt 0.824529409 0.887520969
vt 0.824485123 0.935384214
vt 0.827288508 0.893567264
vt 0.81744945 0.919713497
vt 0.811430693 0.900571227
vt 0.811390936 0.922434986
vt 0.817505658 0.903369725
vt 0.811390936 0.922434986
vt 0.81744945 0.919713497
vt 0.817506194 0.903370261
vt 0.811430693 0.900571227
vt 0.824485123 0.935384214
vt 0.827288508 0.893567264
vt 0.827275038 0.929398358
vt 0.824529409 0.887520969
vt 0.846483886 0.935384214
vt 0.843766689 0.893562496
vt 0.843739629 0.929398358
vt 0.846528053 0.887539923
vt 0.859563768 0.922462285
vt 0.853507638 0.903330207
vt 0.853561461 0.919794679
vt 0.859570205 0.900560141
vt 0.811390936 0.922434986
vt 0.81744945 0.919713497
vt 0.817506194 0.903370261
vt 0.811430693 0.900571227
vt 0.824485123 0.935384214
vt 0.827288508 0.893567264
vt 0.827275038 0.929398358
vt 0.824529409 0.887520969
vt 0.846483886 0.935384214
vt 0.843766689 0.893562496
vt 0.843739629 0.929398358
vt 0.846528053 0.887539923
vt 0.859563768 0.922462285
vt 0.853507638 0.903330207
vt 0.853561461 0.919794679
vt 0.859570205 0.900560141
vn 0.382686496 -0.923878312 -8.09591147E-05
vn -0.382676661 -0.923882365 -8.11360369E-05
vn 0.382672489 -0.923884094 -8.09596168E-05
vn -0.382692575 -0.923875749 -8.11354475E-05
vn -0.707109153 -0.707104325 -6.22413427E-05
vn -0.707109153 -0.707104325 -6.22413427E-05
vn 0.707100093 -0.707113385 -6.19158964E-05
vn 0.382686496 -0.923878312 -8.09591147E-05
vn 0.382672489 -0.923884094 -8.09596168E-05
vn 0.707100093 -0.707113385 -6.19158964E-05
vn 1 1.69888244E-06 0
vn 1 1.69888244E-06 0
vn 1 1.69888244E-06 0
vn 1 1.69888222E-06 0
vn 0.382675469 0.923882902 8.10529164E-05
vn 0.707106113 0.707107425 6.200184E-05
vn 0.707106113 0.707107425 6.20018254E-05
vn 0.382691354 0.923876286 8.10523343E-05
vn -0.382676899 0.923882246 8.09435296E-05
vn -0.382689267 0.92387706 8.09430712E-05
vn -0.707106769 0.707106769 6.17997357E-05
vn -0.707106769 0.707106769 6.17997357E-05
vn -1 -3.32056334E-06 0
vn -1 -3.32056334E-06 0
vn -1 -3.32056334E-06 0
vn -1 -3.32056288E-06 0
vn 0.382692456 -0.923875749 8.09490448E-05
vn 0.382676303 -0.923882484 8.0949605E-05
vn -0.382677555 -0.923881948 8.01773494E-05
vn -0.382691354 -0.923876286 8.01768183E-05
vn -0.707109392 -0.707104146 6.09007693E-05
vn -0.707109392 -0.707104146 6.09007657E-05
vn 0.707107186 -0.707106352 6.23278975E-05
vn 0.707107186 -0.707106352 6.23278756E-05
vn 0.382676303 -0.923882484 8.0949605E-05
vn 0.382692456 -0.923875749 8.09490448E-05
vn 1 -1.7374897E-06 7.21468609E-07
vn 1 -1.7374897E-06 7.21468609E-07
vn 1 -1.73748981E-06 7.21468609E-07
vn 1 -1.7374897E-06 7.21468609E-07
vn 0.382677019 0.923882186 -8.05573291E-05
vn 0.707108498 0.707104981 -6.13445955E-05
vn 0.707108498 0.707104981 -6.13445955E-05
vn 0.382692128 0.923875868 -8.05567906E-05
vn -0.382680386 0.923880756 -8.12805811E-05
vn -0.38269344 0.923875332 -8.12801227E-05
vn -0.707112074 0.707101405 -6.26809124E-05
vn -0.707112074 0.707101405 -6.26809124E-05
vn -1 0 -1.67948315E-06
vn -1 0 -1.67948315E-06
vn -1 0 -1.67948315E-06
vn -1 0 -1.67948315E-06
vn 0.92387718 4.04682978E-05 -0.382688999
vn 0.923880935 4.04684542E-05 -0.382680118
vn 0.923880458 4.01070538E-05 0.38268131
vn 0.923877895 4.01069337E-05 0.38268739
vn 0.707104266 3.04603527E-05 0.707109272
vn 0.707104266 3.04603509E-05 0.707109272
vn 0.707106173 3.11281874E-05 -0.707107306
vn 0.707106113 3.11281874E-05 -0.707107365
vn 0.923880935 4.04684542E-05 -0.382680118
vn 0.92387718 4.04682978E-05 -0.382688999
vn 1.23554889E-06 3.44329095E-07 -1
vn 1.23554889E-06 3.44329152E-07 -1
vn 1.23554889E-06 3.44329095E-07 -1
vn 1.23554889E-06 3.44329095E-07 -1
vn -0.923880458 -4.02474725E-05 -0.38268137
vn -0.707104325 -3.0666044E-05 -0.707109153
vn -0.707104325 -3.0666044E-05 -0.707109272
vn -0.923877358 -4.02473306E-05 -0.382688612
vn -0.923879504 -4.05766841E-05 0.382683277
vn -0.92387718 -4.05765823E-05 0.382689029
vn -0.707102537 -3.12743432E-05 0.707110941
vn -0.707102537 -3.12743505E-05 0.707110941
vn -0 -6.88550131E-07 1
vn -0 -6.88550131E-07 1
vn -0 -6.88550131E-07 1
vn -0 -6.88550131E-07 1
vn -0.580028653 -0.768886328 0.269036412
vn -0.580074549 -0.768854439 -0.269028574
vn -0.794542253 -0.544512212 -0.268717259
vn -0.794566929 -0.544471502 0.268726945
vn -0.267547995 -0.759237111 -0.59327656
vn 0.267561883 -0.759220898 -0.593291044
vn 0.38643229 -0.817281008 -0.427459747
vn -0.386445135 -0.817297876 -0.427415907
vn 0.580066562 -0.768861592 -0.269025475
vn 0.58002919 -0.768886626 0.269034117
vn 0.79456681 -0.544472814 0.268724829
vn 0.794535935 -0.544522107 -0.268716186
vn 0.270431131 -0.77814734 0.566880763
vn -0.270427108 -0.77815181 0.566876411
vn -0.384324193 -0.834265828 0.395342112
vn 0.384322941 -0.834258378 0.395359129
vn -0.385056019 0.417717189 0.822948515
vn 0.385056973 0.417713225 0.822949946
vn 0.377365708 0.849806547 0.367999911
vn -0.37736544 0.849813819 0.36798349
vn 0.831419945 0.403856725 0.381628811
vn 0.831465244 0.403782457 -0.381608754
vn 0.776590586 0.570976317 -0.266257465
vn 0.776613295 0.570938945 0.266271412
vn 0.378106236 0.389431745 -0.839868128
vn -0.378097713 0.389452279 -0.839862525
vn -0.379758954 0.834052742 -0.400174022
vn 0.379747808 0.834038079 -0.400215089
vn -0.831454933 0.403796852 -0.381615877
vn -0.831410289 0.403869241 0.381636739
vn -0.776606023 0.570946097 0.266277164
vn -0.776582003 0.570984423 -0.266265154
vn 0.791871786 0.268355668 0.548565626
vn 0.791900754 -0.268358469 0.548522532
vn 0.844623148 -0.379720837 0.377390712
vn 0.844663739 0.379692256 0.377328873
vn -0.791908145 -0.268360525 0.54851073
vn -0.791880906 0.268352717 0.548554122
vn -0.844679117 0.379696488 0.37729004
vn -0.844637692 -0.379724264 0.37735489
vn 0.773242593 -0.265797108 -0.575715005
vn 0.773213208 0.265792817 -0.575756371
vn 0.828443229 0.382007182 -0.409575731
vn 0.828402817 -0.382031947 -0.40963456
vn -0.773260057 0.265794665 -0.575692773
vn -0.773287117 -0.265804946 -0.575651586
vn -0.828451693 -0.38203302 -0.409534603
vn -0.828494489 0.382009447 -0.409469932
vn 0.378106236 0.389431745 -0.839868128
vn -0.382741481 -0.00184520951 -0.923853576
vn -0.378097713 0.389452279 -0.839862525
vn 0.382745147 -0.00184521219 -0.923852146
vn 0.831465244 0.403782457 -0.381608754
vn 0.923830152 -0.00174383889 -0.382798702
vn 0.831419945 0.403856725 0.381628811
vn 0.923862636 -0.00160165154 0.382720858
vn 0.38277784 -0.00150261109 0.923839211
vn 0.385056973 0.417713225 0.822949946
vn -0.385056019 0.417717189 0.822948515
vn -0.382774144 -0.0015026062 0.923840761
vn -0.831410289 0.403869241 0.381636739
vn -0.923861504 -0.00160299009 0.382723749
vn -0.831454933 0.403796852 -0.381615877
vn -0.923828959 -0.00174517976 -0.382801622
vn -0.378097713 0.389452279 -0.839862525
vn -0.382741481 -0.00184520951 -0.923853576
vn 0.382967174 0.0303052608 -0.923264742
vn -0.382030189 0.0303149428 -0.92365247
vn -0.382972419 0.030317083 -0.923262119
vn 0.382037669 0.0303031746 -0.923649728
vn 0.923261881 0.0302961078 -0.382974803
vn 0.923652947 0.0302939694 -0.382030785
vn 0.923262894 0.0302928332 0.382972538
vn 0.923652351 0.0302907079 0.382032424
vn 0.382968247 0.03029784 0.923264563
vn 0.382037491 0.030295752 0.923650146
vn -0.382973611 0.030309679 0.923261881
vn -0.38202998 0.0303075332 0.923652768
vn -0.923262835 0.0303213745 0.382970452
vn -0.923650146 0.0303192809 0.382035673
vn -0.923261821 0.0303246323 -0.382972658
vn -0.923650622 0.0303225201 -0.382034004
vn -0.382972419 0.030317083 -0.923262119
vn -0.382030189 0.0303149428 -0.92365247
vn -0.844679117 0.379696488 0.37729004
vn -0.923863471 -0.382718891 -0.00162203179
vn -0.844637692 -0.379724264 0.37735489
vn -0.923831105 0.382796317 -0.00176543219
vn -0.37736544 0.849813819 0.36798349
vn -0.382749408 0.923850298 -0.00185334519
vn 0.377365708 0.849806547 0.367999911
vn 0.382739127 0.923854589 -0.00183449767
vn 0.923829436 0.382800609 -0.00171986769
vn 0.844663739 0.379692256 0.377328873
vn 0.844623148 -0.379720837 0.377390712
vn 0.923861742 -0.382723123 -0.00157640735
vn 0.384322941 -0.834258378 0.395359129
vn 0.382771224 -0.923841953 -0.00148856791
vn -0.384324193 -0.834265828 0.395342112
vn -0.382781506 -0.923837721 -0.00150747469
vn -0.844637692 -0.379724264 0.37735489
vn -0.923863471 -0.382718891 -0.00162203179
vn -0.923238933 0.38297087 0.0310344305
vn -0.923636377 -0.382010758 0.0310434066
vn -0.923236191 -0.38297677 0.0310456567
vn -0.923634052 0.382017106 0.0310322419
vn -0.382975042 0.923237503 0.0310271624
vn -0.382012069 0.923636377 0.0310249366
vn 0.382973433 0.923238337 0.0310223196
vn 0.382015705 0.923635066 0.0310201161
vn 0.923239231 0.382971227 0.0310227312
vn 0.923635304 0.382015288 0.031020537
vn 0.92323637 -0.382977158 0.0310339555
vn 0.92363739 -0.382009029 0.0310317036
vn 0.382970542 -0.923238635 0.0310493503
vn 0.382017881 -0.923633218 0.0310471598
vn -0.382972211 -0.923237681 0.0310541838
vn -0.382014275 -0.923634648 0.0310519803
vn -0.923236191 -0.38297677 0.0310456567
vn -0.923636377 -0.382010758 0.0310434066
vn -0.828451693 -0.38203302 -0.409534603
vn -0.923832893 0.382792264 0.00170940324
vn -0.828494489 0.382009447 -0.409469932
vn -0.923864067 -0.382717431 0.00157134456
vn -0.386445135 -0.817297876 -0.427415907
vn -0.382780254 -0.923838198 0.00145852601
vn 0.38643229 -0.817281008 -0.427459747
vn 0.382767141 -0.923843682 0.00143434899
vn 0.923862338 -0.382721871 0.0015149347
vn 0.828402817 -0.382031947 -0.40963456
vn 0.828443229 0.382007182 -0.409575731
vn 0.923831165 0.382796645 0.00165299163
vn 0.379747808 0.834038079 -0.400215089
vn 0.382735997 0.92385602 0.00176725234
vn -0.379758954 0.834052742 -0.400174022
vn -0.38274911 0.923850536 0.00179143006
vn -0.828494489 0.382009447 -0.409469932
vn -0.923832893 0.382792264 0.00170940324
vn -0.923238039 -0.382973433 -0.031031318
vn -0.9236359 0.382012397 -0.0310374163
vn -0.923236489 0.382976443 -0.0310396608
vn -0.923634768 -0.382015526 -0.0310290996
vn -0.382974565 -0.923237622 -0.0310278777
vn -0.382011712 -0.923636496 -0.0310256518
vn 0.382974565 -0.923237622 -0.0310278777
vn 0.382011712 -0.923636496 -0.0310256518
vn 0.923238039 -0.382973373 -0.0310313143
vn 0.923634768 -0.382015496 -0.0310290996
vn 0.923236489 0.382976413 -0.0310396645
vn 0.9236359 0.382012337 -0.03103742
vn 0.382971853 0.923238039 -0.0310516004
vn 0.382013857 0.923634768 -0.0310494006
vn -0.382971853 0.923238039 -0.0310516004
vn -0.382013857 0.923634768 -0.0310494006
vn -0.923236489 0.382976443 -0.0310396608
vn -0.9236359 0.382012397 -0.0310374163
vn -2.23705896E-07 -3.10660909E-07 -1
vn -2.23705925E-07 -3.10660909E-07 -1
vn -2.23705896E-07 -3.10660937E-07 -1
vn -2.23705896E-07 -3.10660909E-07 -1
vn -2.23705896E-07 -3.1066088E-07 -1
vn -2.23705896E-07 -3.1066088E-07 -1
vn -2.23705925E-07 -3.10660937E-07 -1
vn -2.23705925E-07 -3.10660937E-07 -1
vn 4.35506809E-06 -1.20966354E-06 1
vn 4.35506763E-06 -1.20966354E-06 1
vn 4.35506809E-06 -1.20966354E-06 1
vn 4.35506809E-06 -1.20966342E-06 1
vn 4.35506809E-06 -1.20966354E-06 1
vn 4.35506809E-06 -1.20966354E-06 1
vn 4.35506809E-06 -1.20966342E-06 1
vn 4.35506809E-06 -1.20966365E-06 1
vn 1.43137504E-06 1 -3.59293108E-06
vn 1.43137504E-06 1 -3.59293131E-06
vn 1.43137504E-06 1 -3.59293108E-06
vn 1.43137515E-06 1 -3.59293131E-06
vn 1.43137504E-06 1 -3.59293108E-06
vn 1.43137504E-06 1 -3.59293131E-06
vn 1.43137504E-06 1 -3.59293063E-06
vn 1.43137504E-06 1 -3.59293108E-06
vn -0.794542253 -0.544512212 -0.268717259
vn -0.965170324 -0.184995666 0.184994563
vn -0.794566929 -0.544471502 0.268726945
vn -0.791908145 -0.268360525 0.54851073
vn -0.965137661 -0.184993714 -0.185166389
vn -0.773287117 -0.265804946 -0.575651586
vn -0.773260057 0.265794665 -0.575692773
vn -0.965138137 0.185164943 0.184992567
vn -0.791880906 0.268352717 0.548554122
vn -0.776606023 0.570946097 0.266277164
vn -0.965105712 0.185162857 -0.185164303
vn -0.776582003 0.570984423 -0.266265154
vn 0.79456681 -0.544472814 0.268724829
vn 0.965137899 -0.184993342 -0.185165986
vn 0.794535935 -0.544522107 -0.268716186
vn 0.773242593 -0.265797108 -0.575715005
vn 0.965170205 -0.184995815 0.184994668
vn 0.791900754 -0.268358469 0.548522532
vn 0.791871786 0.268355668 0.548565626
vn 0.965104461 0.185169592 -0.185163364
vn 0.773213208 0.265792817 -0.575756371
vn 0.776590586 0.570976317 -0.266257465
vn 0.965137005 0.185171574 0.184991777
vn 0.776613295 0.570938945 0.266271412
vn 0.580066562 -0.768861592 -0.269025475
vn 0.185583085 -0.96496135 0.185495332
vn 0.58002919 -0.768886626 0.269034117
vn 0.270431131 -0.77814734 0.566880763
vn 0.185581282 -0.964928627 -0.185667485
vn 0.267561883 -0.759220898 -0.593291044
vn -0.267547995 -0.759237111 -0.59327656
vn -0.185581312 -0.964961708 0.185495585
vn -0.270427108 -0.77815181 0.566876411
vn -0.580028653 -0.768886328 0.269036412
vn -0.185579196 -0.964928985 -0.185667619
vn -0.580074549 -0.768854439 -0.269028574
vn -0.794566929 -0.544471502 0.268726945
vn -0.791908145 -0.268360525 0.54851073
vn -0.583682537 -0.57290709 0.575406134
vn -0.580028653 -0.768886328 0.269036412
vn -0.844637692 -0.379724264 0.37735489
vn -0.270427108 -0.77815181 0.566876411
vn -0.384324193 -0.834265828 0.395342112
vn -0.773287117 -0.265804946 -0.575651586
vn -0.794542253 -0.544512212 -0.268717259
vn -0.57812351 -0.567425072 -0.586346328
vn -0.828451693 -0.38203302 -0.409534603
vn -0.580074549 -0.768854439 -0.269028574
vn -0.386445135 -0.817297876 -0.427415907
vn -0.267547995 -0.759237111 -0.59327656
vn -0.776582003 0.570984423 -0.266265154
vn -0.773260057 0.265794665 -0.575692773
vn -0.572837949 0.578179002 -0.581004083
vn -0.831454933 0.403796852 -0.381615877
vn -0.828494489 0.382009447 -0.409469932
vn -0.378097713 0.389452279 -0.839862525
vn -0.379758954 0.834052742 -0.400174022
vn -0.578268647 0.583652675 0.570048273
vn -0.776606023 0.570946097 0.266277164
vn -0.831410289 0.403869241 0.381636739
vn -0.791880906 0.268352717 0.548554122
vn -0.385056019 0.417717189 0.822948515
vn -0.844679117 0.379696488 0.37729004
vn -0.37736544 0.849813819 0.36798349
vn 0.578113139 -0.567416668 -0.586364567
vn 0.267561883 -0.759220898 -0.593291044
vn 0.580066562 -0.768861592 -0.269025475
vn 0.794535935 -0.544522107 -0.268716186
vn 0.38643229 -0.817281008 -0.427459747
vn 0.773242593 -0.265797108 -0.575715005
vn 0.828402817 -0.382031947 -0.40963456
vn 0.379747808 0.834038079 -0.400215089
vn 0.828443229 0.382007182 -0.409575731
vn 0.572831869 0.5781703 -0.581018746
vn 0.378106236 0.389431745 -0.839868128
vn 0.773213208 0.265792817 -0.575756371
vn 0.831465244 0.403782457 -0.381608754
vn 0.776590586 0.570976317 -0.266257465
vn 0.844663739 0.379692256 0.377328873
vn 0.578268945 0.583652854 0.570047677
vn 0.791871786 0.268355668 0.548565626
vn 0.377365708 0.849806547 0.367999911
vn 0.776613295 0.570938945 0.266271412
vn 0.385056973 0.417713225 0.822949946
vn 0.831419945 0.403856725 0.381628811
vn 0.58002919 -0.768886626 0.269034117
vn 0.270431131 -0.77814734 0.566880763
vn 0.583682716 -0.572904766 0.57540822
vn 0.79456681 -0.544472814 0.268724829
vn 0.384322941 -0.834258378 0.395359129
vn 0.791900754 -0.268358469 0.548522532
vn 0.844623148 -0.379720837 0.377390712
vn -0.350928634 -0.139541209 -0.925946712
vn -0.345809162 0.154894009 -0.925431669
vn -0.350929022 0.139542207 -0.925946414
vn -0.345808238 -0.154894263 -0.925432026
vn -0.154894397 0.345810264 -0.925431192
vn -0.139541641 -0.350929737 -0.925946236
vn -0.139540642 0.35093084 -0.925945938
vn -0.154892474 -0.345810115 -0.925431609
vn 0.154894397 0.345810264 -0.925431192
vn 0.139540985 -0.35093081 -0.925945938
vn 0.139540642 0.35093084 -0.925945938
vn 0.154895008 -0.345810235 -0.925431192
vn 0.345809162 0.154893979 -0.925431669
vn 0.350929767 -0.139541686 -0.925946236
vn 0.350929022 0.139542207 -0.925946414
vn 0.345809489 -0.154894605 -0.92543149
vn -0.779851198 -0.538727283 0.318755448
vn -0.783343375 0.190241098 0.591761291
vn -0.779851556 0.538727641 0.318754047
vn -0.783343375 -0.190242246 0.591760933
vn -0.190239474 0.783340394 0.591765761
vn -0.538731515 -0.77984941 0.318752676
vn -0.53873235 0.779848516 0.318753421
vn -0.190239459 -0.783342421 0.591763139
vn 0.190240636 0.783340216 0.591765642
vn 0.538728595 -0.77984935 0.318757713
vn 0.538729429 0.779848516 0.318758458
vn 0.190240636 -0.783342183 0.5917629
vn 0.783342481 0.190241069 0.591762424
vn 0.779849648 -0.538727283 0.318759143
vn 0.779850006 0.538727522 0.318757772
vn 0.783342481 -0.190242246 0.591762066
vn -0.462666839 0.18434301 0.867154479
vn -0.45627591 -0.202929422 0.866390169
vn -0.462667733 -0.184343249 0.867154062
vn -0.456275076 0.202929065 0.866390705
vn -0.202929705 -0.45627743 0.866389394
vn -0.184343904 0.462668419 0.867153585
vn -0.184343651 -0.462669373 0.867153049
vn -0.202928081 0.456277132 0.86638993
vn 0.202928916 -0.456277698 0.866389394
vn 0.184344366 0.462668806 0.867153227
vn 0.18434459 -0.462669075 0.867153049
vn 0.202928782 0.45627743 0.866389573
vn 0.456277668 -0.202929333 0.866389275
vn 0.462669283 0.18434383 0.867153168
vn 0.462669432 -0.184343755 0.867153049
vn 0.456277549 0.202929124 0.866389453
vn -0.763042569 0.547944307 -0.342816293
vn -0.738098204 -0.172634423 -0.652233303
vn -0.763041556 -0.547942996 -0.342820793
vn -0.7380988 0.17263402 -0.652232826
vn -0.172631279 -0.738090754 -0.652242601
vn -0.547946215 0.763041019 -0.342816889
vn -0.547945321 -0.76303941 -0.342821956
vn -0.172631785 0.738093674 -0.652239203
vn 0.172634035 -0.738089323 -0.652243495
vn 0.547941089 0.763037384 -0.342833012
vn 0.547940254 -0.763035774 -0.34283796
vn 0.172634467 0.738092244 -0.652240098
vn 0.738091648 -0.172633052 -0.65224123
vn 0.763038337 0.547940671 -0.342831671
vn 0.763037384 -0.54793936 -0.342835933
vn 0.738092124 0.172632635 -0.652240694
vn 0.164399162 0.895762682 -0.413015842
vn -0.181700066 0.895103157 -0.407155335
vn -0.164398357 0.895761132 -0.413019449
vn 0.181695879 0.895105064 -0.407152921
vn -0.407158524 0.895101666 -0.181699991
vn 0.413016617 0.895762622 -0.164398
vn -0.41302231 0.895759463 -0.164400786
vn 0.407152921 0.895104885 -0.18169713
vn -0.40715915 0.895101368 0.181699991
vn 0.413017422 0.895762205 0.16439797
vn -0.413022816 0.895759225 0.164400876
vn 0.407153577 0.895104408 0.181697845
vn -0.181700602 0.895102441 0.407156616
vn 0.164400041 0.895761728 0.413017422
vn -0.164399117 0.895760477 0.41302079
vn 0.181696564 0.89510411 0.40715462
vn 0.538336575 -0.317828208 -0.78049922
vn -0.19093591 -0.589347482 -0.784992337
vn -0.538335145 -0.317820579 -0.780503273
vn 0.190936327 -0.589349747 -0.784990609
vn -0.784992695 -0.589346349 -0.190937996
vn 0.780497253 -0.317832232 -0.538337111
vn -0.78049922 -0.317820191 -0.538341284
vn 0.784983873 -0.589358747 -0.190935627
vn -0.784992635 -0.589346349 0.190938443
vn 0.780497313 -0.317835569 0.538334966
vn -0.780499279 -0.317823559 0.538339138
vn 0.784983814 -0.589358866 0.190936089
vn -0.190935969 -0.589349031 0.784991264
vn 0.538336813 -0.317831278 0.78049773
vn -0.538335443 -0.317823827 0.780501842
vn 0.190936461 -0.589351416 0.784989357
vn 1.1071068E-05 4.19276876E-06 -1
vn 3.45225658E-06 7.90765989E-06 -1
vn 3.1062591E-06 8.09901394E-06 -1
vn 1.10828314E-05 4.16659486E-06 -1
vn -2.27919281E-06 1.75253826E-05 -1
vn 3.87203681E-06 8.01763235E-06 -1
vn -2.22878407E-06 1.76396497E-05 -1
vn 3.48344133E-06 8.19710931E-06 -1
vn 8.39725999E-06 1.99108308E-05 -1
vn -4.11566998E-06 1.08946142E-05 -1
vn 8.14985651E-06 1.99927708E-05 -1
vn -4.08870665E-06 1.09195007E-05 -1
vn 1.50568467E-05 1.04451237E-05 -1
vn 3.67904158E-06 7.6274755E-06 -1
vn 1.5283129E-05 1.13727265E-05 -1
vn 4.98241116E-06 7.19607988E-06 -1
vn -6.2457998E-06 1 1.34069987E-05
vn -5.77235551E-06 1 1.33025906E-05
vn 1.79965582E-06 1 5.73058605E-06
vn 1.71142665E-06 1 5.44964041E-06
vn -1.94014319E-05 1 4.36324854E-06
vn -5.73049283E-06 1 1.7996482E-06
vn -1.96059536E-05 1 3.79276298E-06
vn -5.4497068E-06 1 1.71146758E-06
vn -1.14439863E-05 1 -3.59398769E-06
vn -1.33025933E-05 1 9.37171353E-06
vn -1.20341192E-05 1 -3.77931951E-06
vn -1.34070024E-05 1 9.66876451E-06
vn -3.59397291E-06 1 1.14443428E-05
vn -1.13513115E-05 1 1.96064502E-05
vn -3.77929427E-06 1 1.20344639E-05
vn -1.15514313E-05 1 1.94018394E-05
vn -1.34069824E-05 6.24577069E-06 1
vn -1.33025724E-05 5.77232549E-06 1
vn -5.7305856E-06 -1.79965548E-06 1
vn -5.44962859E-06 -1.71142278E-06 1
vn -4.19210664E-06 1.99463411E-05 1
vn -1.79964786E-06 5.73048874E-06 1
vn -3.61277898E-06 2.01789553E-05 1
vn -1.71146939E-06 5.44970726E-06 1
vn 3.76514481E-06 1.19889764E-05 1
vn -9.371739E-06 1.33026033E-05 1
vn 3.95927373E-06 1.26071218E-05 1
vn -9.66875996E-06 1.34070051E-05 1
vn -1.19893184E-05 3.76512321E-06 1
vn -2.01795265E-05 1.15312923E-05 1
vn -1.26075147E-05 3.95926099E-06 1
vn -1.9946825E-05 1.17225864E-05 1
g P_T_Vert_0
f 3/3/3 2/2/2 1/1/1
f 2/2/2 4/4/4 1/1/1
f 2/2/2 5/5/5 4/4/4
f 5/5/5 6/6/6 4/4/4
f 9/9/9 8/8/8 7/7/7
f 10/10/10 9/9/9 7/7/7
f 13/13/13 12/12/12 11/11/11
f 14/14/14 13/13/13 11/11/11
f 17/17/17 16/16/16 15/15/15
f 18/18/18 17/17/17 15/15/15
f 18/18/18 15/15/15 19/19/19
f 20/20/20 18/18/18 19/19/19
f 20/20/20 19/19/19 21/21/21
f 22/22/22 20/20/20 21/21/21
f 25/25/25 24/24/24 23/23/23
f 26/26/26 25/25/25 23/23/23
f 29/29/29 28/28/28 27/27/27
f 30/30/30 29/29/29 27/27/27
f 31/31/31 29/29/29 30/30/30
f 32/32/32 31/31/31 30/30/30
f 35/35/35 34/34/34 33/33/33
f 36/36/36 35/35/35 33/33/33
f 39/39/39 38/38/38 37/37/37
f 40/40/40 39/39/39 37/37/37
f 43/43/43 42/42/42 41/41/41
f 42/42/42 44/44/44 41/41/41
f 41/41/41 44/44/44 45/45/45
f 44/44/44 46/46/46 45/45/45
f 45/45/45 46/46/46 47/47/47
f 46/46/46 48/48/48 47/47/47
f 51/51/51 50/50/50 49/49/49
f 52/52/52 51/51/51 49/49/49
f 55/55/55 54/54/54 53/53/53
f 56/56/56 55/55/55 53/53/53
f 57/57/57 55/55/55 56/56/56
f 58/58/58 57/57/57 56/56/56
f 61/61/61 60/60/60 59/59/59
f 62/62/62 61/61/61 59/59/59
f 65/65/65 64/64/64 63/63/63
f 66/66/66 65/65/65 63/63/63
f 69/69/69 68/68/68 67/67/67
f 68/68/68 70/70/70 67/67/67
f 67/67/67 70/70/70 71/71/71
f 70/70/70 72/72/72 71/71/71
f 71/71/71 72/72/72 73/73/73
f 72/72/72 74/74/74 73/73/73
f 77/77/77 76/76/76 75/75/75
f 78/78/78 77/77/77 75/75/75
f 81/81/81 80/80/80 79/79/79
f 82/82/82 81/81/81 79/79/79
f 85/85/85 84/84/84 83/83/83
f 86/86/86 85/85/85 83/83/83
f 89/89/89 88/88/88 87/87/87
f 90/90/90 89/89/89 87/87/87
f 93/93/93 92/92/92 91/91/91
f 94/94/94 93/93/93 91/91/91
f 97/97/97 96/96/96 95/95/95
f 98/98/98 97/97/97 95/95/95
f 101/101/101 100/100/100 99/99/99
f 102/102/102 101/101/101 99/99/99
f 105/105/105 104/104/104 103/103/103
f 106/106/106 105/105/105 103/103/103
f 109/109/109 108/108/108 107/107/107
f 110/110/110 109/109/109 107/107/107
f 113/113/113 112/112/112 111/111/111
f 114/114/114 113/113/113 111/111/111
f 117/117/117 116/116/116 115/115/115
f 118/118/118 117/117/117 115/115/115
f 121/121/121 120/120/120 119/119/119
f 122/122/122 121/121/121 119/119/119
f 125/125/125 124/124/124 123/123/123
f 126/126/126 125/125/125 123/123/123
f 129/129/129 128/128/128 127/127/127
f 128/128/128 130/130/130 127/127/127
f 131/131/131 127/127/127 130/130/130
f 132/132/132 131/131/131 130/130/130
f 131/131/131 132/132/132 133/133/133
f 132/132/132 134/134/134 133/133/133
f 134/134/134 135/135/135 133/133/133
f 135/135/135 136/136/136 133/133/133
f 136/136/136 135/135/135 137/137/137
f 135/135/135 138/138/138 137/137/137
f 139/139/139 137/137/137 138/138/138
f 140/140/140 139/139/139 138/138/138
f 139/139/139 140/140/140 141/141/141
f 140/140/140 142/142/142 141/141/141
f 143/143/143 141/141/141 142/142/142
f 144/144/144 143/143/143 142/142/142
f 147/147/147 146/146/146 145/145/145
f 146/146/146 148/148/148 145/145/145
f 145/145/145 148/148/148 149/149/149
f 148/148/148 150/150/150 149/149/149
f 149/149/149 150/150/150 151/151/151
f 150/150/150 152/152/152 151/151/151
f 151/151/151 152/152/152 153/153/153
f 152/152/152 154/154/154 153/153/153
f 153/153/153 154/154/154 155/155/155
f 154/154/154 156/156/156 155/155/155
f 155/155/155 156/156/156 157/157/157
f 156/156/156 158/158/158 157/157/157
f 157/157/157 158/158/158 159/159/159
f 158/158/158 160/160/160 159/159/159
f 159/159/159 160/160/160 161/161/161
f 160/160/160 162/162/162 161/161/161
f 165/165/165 164/164/164 163/163/163
f 164/164/164 166/166/166 163/163/163
f 167/167/167 163/163/163 166/166/166
f 168/168/168 167/167/167 166/166/166
f 167/167/167 168/168/168 169/169/169
f 168/168/168 170/170/170 169/169/169
f 170/170/170 171/171/171 169/169/169
f 171/171/171 172/172/172 169/169/169
f 172/172/172 171/171/171 173/173/173
f 171/171/171 174/174/174 173/173/173
f 175/175/175 173/173/173 174/174/174
f 176/176/176 175/175/175 174/174/174
f 175/175/175 176/176/176 177/177/177
f 176/176/176 178/178/178 177/177/177
f 179/179/179 177/177/177 178/178/178
f 180/180/180 179/179/179 178/178/178
f 183/183/183 182/182/182 181/181/181
f 182/182/182 184/184/184 181/181/181
f 181/181/181 184/184/184 185/185/185
f 184/184/184 186/186/186 185/185/185
f 185/185/185 186/186/186 187/187/187
f 186/186/186 188/188/188 187/187/187
f 187/187/187 188/188/188 189/189/189
f 188/188/188 190/190/190 189/189/189
f 189/189/189 190/190/190 191/191/191
f 190/190/190 192/192/192 191/191/191
f 191/191/191 192/192/192 193/193/193
f 192/192/192 194/194/194 193/193/193
f 193/193/193 194/194/194 195/195/195
f 194/194/194 196/196/196 195/195/195
f 195/195/195 196/196/196 197/197/197
f 196/196/196 198/198/198 197/197/197
f 201/201/201 200/200/200 199/199/199
f 200/200/200 202/202/202 199/199/199
f 203/203/203 199/199/199 202/202/202
f 204/204/204 203/203/203 202/202/202
f 203/203/203 204/204/204 205/205/205
f 204/204/204 206/206/206 205/205/205
f 206/206/206 207/207/207 205/205/205
f 207/207/207 208/208/208 205/205/205
f 208/208/208 207/207/207 209/209/209
f 207/207/207 210/210/210 209/209/209
f 211/211/211 209/209/209 210/210/210
f 212/212/212 211/211/211 210/210/210
f 211/211/211 212/212/212 213/213/213
f 212/212/212 214/214/214 213/213/213
f 215/215/215 213/213/213 214/214/214
f 216/216/216 215/215/215 214/214/214
f 219/219/219 218/218/218 217/217/217
f 218/218/218 220/220/220 217/217/217
f 217/217/217 220/220/220 221/221/221
f 220/220/220 222/222/222 221/221/221
f 221/221/221 222/222/222 223/223/223
f 222/222/222 224/224/224 223/223/223
f 223/223/223 224/224/224 225/225/225
f 224/224/224 226/226/226 225/225/225
f 225/225/225 226/226/226 227/227/227
f 226/226/226 228/228/228 227/227/227
f 227/227/227 228/228/228 229/229/229
f 228/228/228 230/230/230 229/229/229
f 229/229/229 230/230/230 231/231/231
f 230/230/230 232/232/232 231/231/231
f 231/231/231 232/232/232 233/233/233
f 232/232/232 234/234/234 233/233/233
f 237/237/237 236/236/236 235/235/235
f 235/235/235 238/238/238 237/237/237
f 235/235/235 239/239/239 238/238/238
f 235/235/235 240/240/240 239/239/239
f 240/240/240 241/241/241 239/239/239
f 240/240/240 242/242/242 241/241/241
f 245/245/245 244/244/244 243/243/243
f 243/243/243 246/246/246 245/245/245
f 243/243/243 247/247/247 246/246/246
f 243/243/243 248/248/248 247/247/247
f 248/248/248 249/249/249 247/247/247
f 249/249/249 250/250/250 247/247/247
f 253/253/253 252/252/252 251/251/251
f 251/251/251 254/254/254 253/253/253
f 251/251/251 255/255/255 254/254/254
f 251/251/251 256/256/256 255/255/255
f 256/256/256 257/257/257 255/255/255
f 257/257/257 258/258/258 255/255/255
f 261/261/261 260/260/260 259/259/259
f 262/262/262 260/260/260 261/261/261
f 260/260/260 263/263/263 259/259/259
f 259/259/259 263/263/263 264/264/264
f 264/264/264 263/263/263 265/265/265
f 266/266/266 260/260/260 262/262/262
f 263/263/263 260/260/260 266/266/266
f 267/267/267 266/266/266 262/262/262
f 268/268/268 266/266/266 267/267/267
f 263/263/263 269/269/269 265/265/265
f 269/269/269 263/263/263 266/266/266
f 269/269/269 266/266/266 268/268/268
f 265/265/265 269/269/269 270/270/270
f 270/270/270 269/269/269 268/268/268
f 273/273/273 272/272/272 271/271/271
f 274/274/274 272/272/272 273/273/273
f 272/272/272 275/275/275 271/271/271
f 271/271/271 275/275/275 276/276/276
f 276/276/276 275/275/275 277/277/277
f 278/278/278 272/272/272 274/274/274
f 275/275/275 272/272/272 278/278/278
f 279/279/279 278/278/278 274/274/274
f 280/280/280 278/278/278 279/279/279
f 275/275/275 281/281/281 277/277/277
f 281/281/281 275/275/275 278/278/278
f 281/281/281 278/278/278 280/280/280
f 277/277/277 281/281/281 282/282/282
f 282/282/282 281/281/281 280/280/280
f 285/285/285 284/284/284 283/283/283
f 286/286/286 284/284/284 285/285/285
f 284/284/284 287/287/287 283/283/283
f 283/283/283 287/287/287 288/288/288
f 288/288/288 287/287/287 289/289/289
f 290/290/290 284/284/284 286/286/286
f 287/287/287 284/284/284 290/290/290
f 291/291/291 290/290/290 286/286/286
f 292/292/292 290/290/290 291/291/291
f 287/287/287 293/293/293 289/289/289
f 293/293/293 287/287/287 290/290/290
f 293/293/293 290/290/290 292/292/292
f 289/289/289 293/293/293 294/294/294
f 294/294/294 293/293/293 292/292/292
f 297/297/297 296/296/296 295/295/295
f 295/295/295 298/298/298 297/297/297
f 296/296/296 297/297/297 299/299/299
f 297/297/297 298/298/298 300/300/300
f 297/297/297 301/301/301 299/299/299
f 297/297/297 300/300/300 301/301/301
f 304/304/304 303/303/303 302/302/302
f 305/305/305 304/304/304 302/302/302
f 303/303/303 304/304/304 306/306/306
f 304/304/304 305/305/305 307/307/307
f 304/304/304 308/308/308 306/306/306
f 307/307/307 308/308/308 304/304/304
f 311/311/311 310/310/310 309/309/309
f 312/312/312 311/311/311 309/309/309
f 310/310/310 311/311/311 313/313/313
f 311/311/311 312/312/312 314/314/314
f 315/315/315 313/313/313 311/311/311
f 314/314/314 315/315/315 311/311/311
f 318/318/318 317/317/317 316/316/316
f 316/316/316 317/317/317 319/319/319
f 316/316/316 320/320/320 318/318/318
f 321/321/321 316/316/316 319/319/319
f 320/320/320 316/316/316 322/322/322
f 321/321/321 322/322/322 316/316/316
f 325/325/325 324/324/324 323/323/323
f 325/325/325 323/323/323 326/326/326
f 327/327/327 323/323/323 324/324/324
f 323/323/323 328/328/328 326/326/326
f 323/323/323 327/327/327 329/329/329
f 329/329/329 328/328/328 323/323/323
f 332/332/332 331/331/331 330/330/330
f 333/333/333 332/332/332 330/330/330
f 331/331/331 332/332/332 334/334/334
f 332/332/332 333/333/333 335/335/335
f 332/332/332 336/336/336 334/334/334
f 335/335/335 336/336/336 332/332/332
f 339/339/339 338/338/338 337/337/337
f 338/338/338 340/340/340 337/337/337
f 338/338/338 339/339/339 341/341/341
f 342/342/342 340/340/340 338/338/338
f 343/343/343 338/338/338 341/341/341
f 338/338/338 343/343/343 342/342/342
f 346/346/346 345/345/345 344/344/344
f 347/347/347 346/346/346 344/344/344
f 346/346/346 348/348/348 345/345/345
f 346/346/346 347/347/347 349/349/349
f 346/346/346 350/350/350 348/348/348
f 349/349/349 350/350/350 346/346/346
f 353/353/353 352/352/352 351/351/351
f 352/352/352 354/354/354 351/351/351
f 355/355/355 352/352/352 353/353/353
f 351/351/351 354/354/354 356/356/356
f 357/357/357 355/355/355 353/353/353
f 354/354/354 358/358/358 356/356/356
f 359/359/359 355/355/355 357/357/357
f 356/356/356 358/358/358 360/360/360
f 361/361/361 359/359/359 357/357/357
f 358/358/358 362/362/362 360/360/360
f 363/363/363 359/359/359 361/361/361
f 360/360/360 362/362/362 364/364/364
f 365/365/365 363/363/363 361/361/361
f 362/362/362 366/366/366 364/364/364
f 366/366/366 363/363/363 365/365/365
f 364/364/364 366/366/366 365/365/365
f 369/369/369 368/368/368 367/367/367
f 368/368/368 370/370/370 367/367/367
f 371/371/371 368/368/368 369/369/369
f 367/367/367 370/370/370 372/372/372
f 373/373/373 371/371/371 369/369/369
f 370/370/370 374/374/374 372/372/372
f 375/375/375 371/371/371 373/373/373
f 372/372/372 374/374/374 376/376/376
f 377/377/377 375/375/375 373/373/373
f 374/374/374 378/378/378 376/376/376
f 379/379/379 375/375/375 377/377/377
f 376/376/376 378/378/378 380/380/380
f 381/381/381 379/379/379 377/377/377
f 378/378/378 382/382/382 380/380/380
f 382/382/382 379/379/379 381/381/381
f 380/380/380 382/382/382 381/381/381
f 385/385/385 384/384/384 383/383/383
f 384/384/384 386/386/386 383/383/383
f 387/387/387 384/384/384 385/385/385
f 383/383/383 386/386/386 388/388/388
f 389/389/389 387/387/387 385/385/385
f 386/386/386 390/390/390 388/388/388
f 391/391/391 387/387/387 389/389/389
f 388/388/388 390/390/390 392/392/392
f 393/393/393 391/391/391 389/389/389
f 390/390/390 394/394/394 392/392/392
f 395/395/395 391/391/391 393/393/393
f 392/392/392 394/394/394 396/396/396
f 397/397/397 395/395/395 393/393/393
f 394/394/394 398/398/398 396/396/396
f 398/398/398 395/395/395 397/397/397
f 396/396/396 398/398/398 397/397/397
f 401/401/401 400/400/400 399/399/399
f 400/400/400 402/402/402 399/399/399
f 403/403/403 400/400/400 401/401/401
f 399/399/399 402/402/402 404/404/404
f 405/405/405 403/403/403 401/401/401
f 402/402/402 406/406/406 404/404/404
f 407/407/407 403/403/403 405/405/405
f 404/404/404 406/406/406 408/408/408
f 409/409/409 407/407/407 405/405/405
f 406/406/406 410/410/410 408/408/408
f 411/411/411 407/407/407 409/409/409
f 408/408/408 410/410/410 412/412/412
f 413/413/413 411/411/411 409/409/409
f 410/410/410 414/414/414 412/412/412
f 414/414/414 411/411/411 413/413/413
f 412/412/412 414/414/414 413/413/413
f 417/417/417 416/416/416 415/415/415
f 416/416/416 418/418/418 415/415/415
f 419/419/419 416/416/416 417/417/417
f 415/415/415 418/418/418 420/420/420
f 421/421/421 419/419/419 417/417/417
f 418/418/418 422/422/422 420/420/420
f 423/423/423 419/419/419 421/421/421
f 420/420/420 422/422/422 424/424/424
f 425/425/425 423/423/423 421/421/421
f 422/422/422 426/426/426 424/424/424
f 427/427/427 423/423/423 425/425/425
f 424/424/424 426/426/426 428/428/428
f 429/429/429 427/427/427 425/425/425
f 426/426/426 430/430/430 428/428/428
f 430/430/430 427/427/427 429/429/429
f 428/428/428 430/430/430 429/429/429
f 433/433/433 432/432/432 431/431/431
f 432/432/432 434/434/434 431/431/431
f 435/435/435 432/432/432 433/433/433
f 431/431/431 434/434/434 436/436/436
f 437/437/437 435/435/435 433/433/433
f 434/434/434 438/438/438 436/436/436
f 439/439/439 435/435/435 437/437/437
f 436/436/436 438/438/438 440/440/440
f 441/441/441 439/439/439 437/437/437
f 438/438/438 442/442/442 440/440/440
f 443/443/443 439/439/439 441/441/441
f 440/440/440 442/442/442 444/444/444
f 445/445/445 443/443/443 441/441/441
f 442/442/442 446/446/446 444/444/444
f 446/446/446 443/443/443 445/445/445
f 444/444/444 446/446/446 445/445/445
f 449/449/449 448/448/448 447/447/447
f 448/448/448 450/450/450 447/447/447
f 451/451/451 448/448/448 449/449/449
f 447/447/447 450/450/450 452/452/452
f 453/453/453 451/451/451 449/449/449
f 450/450/450 454/454/454 452/452/452
f 455/455/455 451/451/451 453/453/453
f 452/452/452 454/454/454 456/456/456
f 457/457/457 455/455/455 453/453/453
f 454/454/454 458/458/458 456/456/456
f 459/459/459 455/455/455 457/457/457
f 456/456/456 458/458/458 460/460/460
f 461/461/461 459/459/459 457/457/457
f 458/458/458 462/462/462 460/460/460
f 462/462/462 459/459/459 461/461/461
f 460/460/460 462/462/462 461/461/461
f 465/465/465 464/464/464 463/463/463
f 466/466/466 465/465/465 463/463/463
f 463/463/463 464/464/464 467/467/467
f 468/468/468 465/465/465 466/466/466
f 464/464/464 469/469/469 467/467/467
f 470/470/470 468/468/468 466/466/466
f 467/467/467 469/469/469 471/471/471
f 472/472/472 468/468/468 470/470/470
f 469/469/469 473/473/473 471/471/471
f 474/474/474 472/472/472 470/470/470
f 471/471/471 473/473/473 475/475/475
f 476/476/476 472/472/472 474/474/474
f 473/473/473 477/477/477 475/475/475
f 478/478/478 476/476/476 474/474/474
f 475/475/475 477/477/477 478/478/478
f 477/477/477 476/476/476 478/478/478
f 481/481/481 480/480/480 479/479/479
f 482/482/482 481/481/481 479/479/479
f 479/479/479 480/480/480 483/483/483
f 484/484/484 481/481/481 482/482/482
f 480/480/480 485/485/485 483/483/483
f 486/486/486 484/484/484 482/482/482
f 483/483/483 485/485/485 487/487/487
f 488/488/488 484/484/484 486/486/486
f 485/485/485 489/489/489 487/487/487
f 490/490/490 488/488/488 486/486/486
f 487/487/487 489/489/489 491/491/491
f 492/492/492 488/488/488 490/490/490
f 489/489/489 493/493/493 491/491/491
f 494/494/494 492/492/492 490/490/490
f 491/491/491 493/493/493 494/494/494
f 493/493/493 492/492/492 494/494/494
