g P_Cross_PlusUp
v 0.039210137 -0.367016464 -0.500001311
v -0.0392101556 -0.367041171 -0.21875146
v 0.0392101333 -0.367041171 -0.21875146
v -0.0392100103 -0.367016464 -0.500000775
v -0.0856162608 -0.320634693 -0.218751937
v -0.0856162608 -0.320609957 -0.500001252
v 0.0856171772 -0.320610374 -0.500000775
v 0.039210137 -0.367016464 -0.500001311
v 0.0392101333 -0.367041171 -0.21875146
v 0.0856171623 -0.320634991 -0.218750954
v 0.0856170356 -0.242189214 -0.500000179
v 0.0856171772 -0.320610374 -0.500000775
v 0.0856171623 -0.320634991 -0.218750954
v 0.0856170356 -0.24221386 -0.218750417
v 0.0392107964 -0.195783034 -0.500000179
v 0.0856170356 -0.242189214 -0.500000179
v 0.0856170356 -0.24221386 -0.218750417
v 0.0392107964 -0.195807725 -0.218750417
v -0.0392101556 -0.195783034 -0.500000179
v -0.0392103009 -0.195807725 -0.218750954
v -0.0856165141 -0.242189363 -0.500000775
v -0.085616529 -0.242214009 -0.21875146
v -0.0856162608 -0.320609957 -0.500001252
v -0.0856165141 -0.242189363 -0.500000775
v -0.085616529 -0.242214009 -0.21875146
v -0.0856162608 -0.320634693 -0.218751937
v 0.039210476 -0.366866529 0.499999076
v 0.0392106809 -0.366891086 0.218748972
v -0.0392101407 -0.366891176 0.218748465
v -0.0392103456 -0.366866678 0.499998659
v -0.0856159776 -0.320484877 0.218748465
v -0.0856164545 -0.32046026 0.499998659
v 0.0856165737 -0.32046032 0.499999136
v 0.0856167898 -0.320484906 0.218748942
v 0.0392106809 -0.366891086 0.218748972
v 0.039210476 -0.366866529 0.499999076
v 0.0856167227 -0.242039219 0.499998659
v 0.0856169239 -0.242063805 0.218748465
v 0.0856167898 -0.320484906 0.218748942
v 0.0856165737 -0.32046032 0.499999136
v 0.0392107405 -0.195632994 0.499998033
v 0.0856169239 -0.242063805 0.218748465
v 0.0856167227 -0.242039219 0.499998659
v 0.0392109416 -0.195657611 0.218747899
v -0.0392104685 -0.195632994 0.499998629
v -0.0392102748 -0.195657611 0.218748465
v -0.0856164545 -0.242039561 0.499998629
v -0.0856159776 -0.242064148 0.218748465
v -0.0856164545 -0.32046026 0.499998659
v -0.0856159776 -0.320484877 0.218748465
v -0.0856159776 -0.242064148 0.218748465
v -0.0856164545 -0.242039561 0.499998629
v -0.499999762 -0.367016464 -0.039210692
v -0.21875 -0.367041171 0.0392095186
v -0.21875 -0.367041171 -0.039210692
v -0.499999255 -0.367016464 0.0392094217
v -0.218750492 -0.320634693 0.0856156126
v -0.499999762 -0.320609957 0.0856156126
v -0.499999255 -0.320610344 -0.0856177881
v -0.499999762 -0.367016464 -0.039210692
v -0.21875 -0.367041171 -0.039210692
v -0.218749464 -0.320634991 -0.0856177285
v -0.499998719 -0.242189214 -0.0856176913
v -0.499999255 -0.320610344 -0.0856177881
v -0.218749464 -0.320634991 -0.0856177285
v -0.218748927 -0.24221383 -0.0856176391
v -0.499998719 -0.195783034 -0.0392114632
v -0.499998719 -0.242189214 -0.0856176913
v -0.218748927 -0.24221383 -0.0856176391
v -0.218748927 -0.195807725 -0.0392114632
v -0.499998719 -0.195783034 0.039209526
v -0.218749464 -0.195807725 0.039209716
v -0.499999255 -0.242189348 0.0856158882
v -0.21875 -0.242213994 0.0856159925
v -0.499999762 -0.320609957 0.0856156126
v -0.499999255 -0.242189348 0.0856158882
v -0.21875 -0.242213994 0.0856159925
v -0.218750492 -0.320634693 0.0856156126
v 0.500000715 -0.366866499 -0.0392111689
v 0.218750417 -0.366891056 -0.0392113663
v 0.218749881 -0.366891176 0.0392094217
v 0.500000119 -0.366866648 0.0392097272
v 0.218749881 -0.320484877 0.085615404
v 0.500000119 -0.32046026 0.0856158063
v 0.500000715 -0.32046032 -0.0856172517
v 0.218750417 -0.320484966 -0.0856174454
v 0.218750417 -0.366891056 -0.0392113663
v 0.500000715 -0.366866499 -0.0392111689
v 0.500000119 -0.242039219 -0.0856173486
v 0.218749881 -0.242063805 -0.0856175423
v 0.218750417 -0.320484966 -0.0856174454
v 0.500000715 -0.32046032 -0.0856172517
v 0.499999613 -0.195632994 -0.0392114632
v 0.218749881 -0.242063805 -0.0856175423
v 0.500000119 -0.242039219 -0.0856173486
v 0.218749389 -0.195657611 -0.0392116569
v 0.500000119 -0.195632994 0.039209716
v 0.218749881 -0.195657611 0.039209526
v 0.500000119 -0.242039561 0.0856157988
v 0.218749881 -0.242064148 0.085615404
v 0.500000119 -0.32046026 0.0856158063
v 0.218749881 -0.320484877 0.085615404
v 0.218749881 -0.242064148 0.085615404
v 0.500000119 -0.242039561 0.0856157988
v 0.0852342397 0.500000358 -0.0392111763
v 0.0852588043 -0.0628826916 -0.0392113663
v 0.0852589384 -0.0628832206 0.0392094254
v 0.0852343738 0.499999911 0.039209716
v 0.038852606 -0.0628832206 0.0856154114
v 0.0388280004 0.499999911 0.0856157988
v 0.0388280675 0.500000358 -0.0856172517
v 0.038852673 -0.0628826916 -0.0856174454
v 0.0852588043 -0.0628826916 -0.0392113663
v 0.0852342397 0.500000358 -0.0392111763
v -0.0395930521 0.499999911 -0.0856173486
v -0.0395684429 -0.0628832206 -0.0856175423
v 0.038852673 -0.0628826916 -0.0856174454
v 0.0388280675 0.500000358 -0.0856172517
v -0.0859992355 0.499999374 -0.0392114632
v -0.0395684429 -0.0628832206 -0.0856175423
v -0.0395930521 0.499999911 -0.0856173486
v -0.0859746411 -0.0628837422 -0.0392116569
v -0.0859992355 0.499999911 0.039209716
v -0.0859746411 -0.0628832206 0.0392095223
v -0.0395927131 0.499999911 0.0856157988
v -0.0395681001 -0.0628832206 0.0856154114
v 0.0388280004 0.499999911 0.0856157988
v 0.038852606 -0.0628832206 0.0856154114
v -0.0395681001 -0.0628832206 0.0856154114
v -0.0395927131 0.499999911 0.0856157988
v -0.094648242 -0.220954388 -0.0893937647
v -0.172983781 -0.342097282 -0.0895194411
v -0.094648242 -0.342036843 -0.0893937647
v -0.172983781 -0.220864594 -0.0895194411
v -0.094648242 -0.19208625 -0.0605258606
v -0.172983781 -0.191960707 -0.060615778
v -0.094648242 -0.19208625 0.06055687
v -0.172983781 -0.191960707 0.0606172271
v -0.172983781 -0.220864594 0.0895209983
v -0.094648242 -0.220954388 0.0894248784
v -0.094648242 -0.342036903 0.0894248784
v -0.172983781 -0.342097282 0.0895209834
v -0.094648242 -0.370904952 0.06055687
v -0.172983781 -0.371001124 0.0606172346
v -0.094648242 -0.370904952 -0.0605258532
v -0.172983781 -0.371001124 -0.060615778
v -0.094648242 -0.342036843 -0.0893937647
v -0.172983781 -0.342097282 -0.0895194411
v -0.0894095078 -0.376645774 0.06055687
v -0.0894095078 -0.376645774 -0.0605258532
v -0.094648242 -0.370904952 -0.0605258532
v -0.094648242 -0.370904952 0.06055687
v -0.0605413131 -0.376645774 -0.0893938616
v 0.0605411194 -0.376645803 -0.0893938616
v 0.060540542 -0.370904922 -0.0942664295
v -0.060542088 -0.370904922 -0.0942664295
v 0.0894091204 -0.376645774 -0.0605257601
v 0.0894092172 -0.376645774 0.06055687
v 0.0946473703 -0.370905071 0.06055687
v 0.0946473703 -0.370905071 -0.0605258532
v 0.0605411194 -0.376645774 0.0894248784
v -0.0605413131 -0.376645774 0.0894248784
v -0.0605415031 -0.370904952 0.0950463265
v 0.0605411194 -0.370904952 0.0950463265
v -0.06054141 -0.187088653 0.0894246772
v 0.0605411194 -0.187088653 0.0894246772
v 0.0605411194 -0.19208625 0.095046334
v -0.06054141 -0.192086235 0.0950464234
v 0.0894091204 -0.187088683 0.0605566688
v 0.0894091204 -0.187088683 -0.0605260544
v 0.0946467966 -0.192086354 -0.0605258606
v 0.0946467966 -0.192086354 0.06055687
v 0.0605411194 -0.187088683 -0.0893940553
v -0.06054141 -0.187088683 -0.0893940553
v -0.060542088 -0.19208619 -0.0942664295
v 0.060540542 -0.19208619 -0.0942664295
v -0.0894096047 -0.187088683 -0.0605260544
v -0.0894096047 -0.187088683 0.0605566688
v -0.094648242 -0.19208625 0.06055687
v -0.094648242 -0.19208625 -0.0605258606
v 0.0946473703 -0.220954433 0.0894249678
v 0.0946473703 -0.342036963 0.0894249678
v 0.0894091204 -0.342036903 0.0950463265
v 0.0894091204 -0.220954388 0.0950463265
v -0.094648242 -0.342036903 0.0894248784
v -0.094648242 -0.220954388 0.0894248784
v -0.089409709 -0.220954388 0.0950463265
v -0.089409709 -0.342036903 0.0950463265
v 0.0946473703 -0.342036963 -0.0893938616
v 0.0946473703 -0.220954433 -0.0893938616
v 0.0894085467 -0.220954344 -0.0942664295
v 0.0894085467 -0.342036843 -0.0942664295
v -0.094648242 -0.220954388 -0.0893937647
v -0.094648242 -0.342036843 -0.0893937647
v -0.0894102827 -0.342036843 -0.0942664295
v -0.0894102827 -0.220954344 -0.0942664295
v -0.185942277 -0.230901346 -0.101753578
v -0.216765404 -0.331636369 -0.100900918
v -0.185942277 -0.332060575 -0.101753578
v -0.216765404 -0.231324673 -0.100900918
v -0.185942277 -0.179726571 -0.0505789854
v -0.216765404 -0.180578634 -0.0501548834
v -0.185942277 -0.179726571 0.0505805388
v -0.216765404 -0.180578634 0.0501567274
v -0.185942277 -0.230901346 0.101755217
v -0.216765404 -0.231324673 0.100902848
v -0.185942277 -0.332060575 0.101755217
v -0.216765404 -0.331636369 0.10090284
v -0.185942277 -0.383235365 0.0505805388
v -0.216765404 -0.382382423 0.0501567274
v -0.185942277 -0.383235365 -0.0505789854
v -0.216765404 -0.382382423 -0.0501548834
v -0.185942277 -0.332060575 -0.101753578
v -0.216765404 -0.331636369 -0.100900918
v 0.0605411194 -0.187088683 -0.0893940553
v -0.0606164075 -0.108757071 -0.0895194411
v -0.06054141 -0.187088683 -0.0893940553
v 0.0606163107 -0.108757071 -0.0895194411
v 0.0894091204 -0.187088683 -0.0605260544
v 0.0895197764 -0.108757071 -0.060615778
v 0.0894091204 -0.187088683 0.0605566688
v 0.0895197764 -0.108757071 0.0606172271
v 0.0606163107 -0.108757071 0.0895209834
v 0.0605411194 -0.187088653 0.0894246772
v -0.06054141 -0.187088653 0.0894246772
v -0.0606164075 -0.108757071 0.0895209834
v -0.0894096047 -0.187088683 0.0605566688
v -0.0895204544 -0.108757071 0.0606172271
v -0.0894096047 -0.187088683 -0.0605260544
v -0.0895204544 -0.108757071 -0.060615778
v -0.06054141 -0.187088683 -0.0893940553
v -0.0606164075 -0.108757071 -0.0895194411
v 0.0505795181 -0.0957132727 -0.101753578
v -0.0501554199 -0.0643874928 -0.100900918
v -0.0505796149 -0.0957132727 -0.101753578
v 0.0501562878 -0.0643874928 -0.100900918
v 0.1017543 -0.0957132429 -0.0505789854
v 0.100902222 -0.0643874928 -0.0501548834
v 0.1017543 -0.0957132503 0.0505805388
v 0.100902222 -0.0643874928 0.0501567274
v 0.0505795181 -0.0957132503 0.101755217
v 0.0501562878 -0.0643874928 0.100902848
v -0.0505796149 -0.0957132503 0.101755217
v -0.0501554199 -0.0643874928 0.100902848
v -0.101754583 -0.0957132503 0.0505805388
v -0.100901544 -0.0643874928 0.0501567274
v -0.101754583 -0.0957132429 -0.0505789854
v -0.100901544 -0.0643874928 -0.0501548834
v -0.0505796149 -0.0957132727 -0.101753578
v -0.0501554199 -0.0643874928 -0.100900918
v 0.0946473703 -0.342036963 -0.0893938616
v 0.172983855 -0.220864505 -0.0895190537
v 0.0946473703 -0.220954433 -0.0893938616
v 0.172983855 -0.342097014 -0.0895190537
v 0.0946473703 -0.370905071 -0.0605258532
v 0.172983855 -0.371001005 -0.0606151
v 0.0946473703 -0.370905071 0.06055687
v 0.172983855 -0.371001005 0.0606177114
v 0.172983855 -0.342097014 0.0895215794
v 0.0946473703 -0.342036963 0.0894249678
v 0.0946473703 -0.220954433 0.0894249678
v 0.172983855 -0.220864505 0.0895215645
v 0.0946467966 -0.192086354 0.06055687
v 0.172983855 -0.191960543 0.0606177114
v 0.0946467966 -0.192086354 -0.0605258606
v 0.172983855 -0.191960543 -0.0606151
v 0.0946473703 -0.220954433 -0.0893938616
v 0.172983855 -0.220864505 -0.0895190537
v 0.1859418 -0.332060337 -0.101753183
v 0.216764137 -0.231325179 -0.100900523
v 0.1859418 -0.230901167 -0.101753183
v 0.216764137 -0.331636965 -0.100900523
v 0.1859418 -0.383235127 -0.0505784005
v 0.216764137 -0.382382989 -0.0501544923
v 0.1859418 -0.383235127 0.0505809188
v 0.216764137 -0.382382989 0.0501572974
v 0.1859418 -0.332060337 0.1017555
v 0.216764137 -0.331636965 0.100903243
v 0.1859418 -0.230901167 0.1017555
v 0.216764137 -0.231325179 0.100903235
v 0.1859418 -0.179726318 0.0505809188
v 0.216764137 -0.18057926 0.0501573086
v 0.1859418 -0.179726318 -0.0505784005
v 0.216764137 -0.18057926 -0.0501544923
v 0.1859418 -0.230901167 -0.101753183
v 0.216764137 -0.231325179 -0.100900523
v -0.089409709 -0.220954388 0.0950463265
v -0.089522399 -0.342097282 0.17352207
v -0.089409709 -0.342036903 0.0950463265
v -0.089522399 -0.220864594 0.17352207
v -0.06054141 -0.192086235 0.0950464234
v -0.0606185384 -0.191960707 0.17352207
v 0.0605411194 -0.19208625 0.095046334
v 0.0606141761 -0.191960707 0.17352207
v 0.089518033 -0.220864594 0.17352207
v 0.0894091204 -0.220954388 0.0950463265
v 0.0894091204 -0.342036903 0.0950463265
v 0.089518033 -0.342097282 0.17352207
v 0.0605411194 -0.370904952 0.0950463265
v 0.0606141761 -0.371001124 0.17352207
v -0.0605415031 -0.370904952 0.0950463265
v -0.0606185384 -0.371001124 0.17352207
v -0.089409709 -0.342036903 0.0950463265
v -0.089522399 -0.342097282 0.17352207
v -0.101756342 -0.230901375 0.184710041
v -0.100903869 -0.331636369 0.215294197
v -0.101756342 -0.332060575 0.184710041
v -0.100903869 -0.231324643 0.215294227
v -0.0505815484 -0.179726571 0.184710041
v -0.0501577407 -0.180578634 0.215294227
v 0.0505775809 -0.179726571 0.184710041
v 0.050154157 -0.180578634 0.215294227
v 0.101752162 -0.230901375 0.184710041
v 0.100900091 -0.231324643 0.215294227
v 0.101752162 -0.332060575 0.184710041
v 0.100900091 -0.331636369 0.215294197
v 0.0505775809 -0.383235395 0.184710026
v 0.050154157 -0.382382423 0.215294197
v -0.0505815484 -0.383235395 0.184710026
v -0.0501577407 -0.382382423 0.215294197
v -0.101756342 -0.332060575 0.184710041
v -0.100903869 -0.331636369 0.215294197
v -0.0894102827 -0.342036843 -0.0942664295
v -0.0895235613 -0.220864609 -0.175578043
v -0.0894102827 -0.220954344 -0.0942664295
v -0.0895235613 -0.342097193 -0.175578043
v -0.060542088 -0.370904922 -0.0942664295
v -0.0606198981 -0.371001124 -0.175578043
v 0.060540542 -0.370904922 -0.0942664295
v 0.0606130101 -0.371001124 -0.175578043
v 0.0895168632 -0.342097193 -0.175578043
v 0.0894085467 -0.342036843 -0.0942664295
v 0.0894085467 -0.220954344 -0.0942664295
v 0.0895168632 -0.220864609 -0.175578043
v 0.060540542 -0.19208619 -0.0942664295
v 0.0606130101 -0.191960692 -0.175578043
v -0.060542088 -0.19208619 -0.0942664295
v -0.0606198981 -0.191960692 -0.175578043
v -0.0894102827 -0.220954344 -0.0942664295
v -0.0895235613 -0.220864609 -0.175578043
v -0.101757698 -0.332060575 -0.18854633
v -0.100905418 -0.231325313 -0.219130516
v -0.101757698 -0.230901331 -0.18854633
v -0.100905418 -0.331637084 -0.219130516
v -0.0505829081 -0.383235276 -0.18854633
v -0.0501591004 -0.382383198 -0.219130516
v 0.0505762249 -0.383235276 -0.18854633
v 0.0501524135 -0.382383198 -0.219130516
v 0.101751 -0.332060575 -0.18854633
v 0.100898728 -0.331637084 -0.219130516
v 0.101751 -0.230901331 -0.18854633
v 0.100898728 -0.231325313 -0.219130516
v 0.0505762249 -0.179726437 -0.18854633
v 0.0501524135 -0.180579409 -0.219130516
v -0.0505829081 -0.179726437 -0.18854633
v -0.0501591004 -0.180579409 -0.219130516
v -0.101757698 -0.230901331 -0.18854633
v -0.100905418 -0.231325313 -0.219130516
v -0.0644679591 0.499999911 -0.0293502416
v -0.0297321472 0.499999374 -0.0640866831
v 0.02896736 0.499999911 -0.0640866831
v 0.063703157 0.499999911 -0.0293506235
v 0.0637033507 0.499999911 0.0293493643
v -0.0644680932 0.500000358 0.0293490794
v -0.0297322311 0.500000358 0.0640847459
v 0.0289672948 0.499999911 0.0640849471
v -0.499999315 -0.311007023 0.0642541125
v -0.499999315 -0.345834672 0.0294264015
v -0.499999315 -0.345834672 -0.0294282436
v -0.499999315 -0.309139729 -0.0642560571
v -0.499999315 -0.252152145 0.0642539188
v -0.499999315 -0.254020125 -0.0642560571
v -0.499999315 -0.221402645 -0.0294283386
v -0.499999315 -0.221402645 0.0294263065
v 0.0294275749 -0.345834672 -0.500000775
v 0.0642554164 -0.309139729 -0.500000775
v 0.0642554164 -0.254020125 -0.500000775
v 0.0294277091 -0.221402615 -0.500000775
v -0.0294269081 -0.221402615 -0.500000775
v -0.0294270311 -0.345834672 -0.500000775
v -0.0642546192 -0.252152145 -0.500000775
v -0.0642547533 -0.311007023 -0.500000775
v 0.500000119 -0.345335424 -0.0293506328
v 0.500000119 -0.345335603 0.0293493643
v 0.500000119 -0.310599536 0.0640849471
v 0.500000119 -0.310599625 -0.0640866905
v 0.499999613 -0.251900107 -0.0640866905
v 0.500000715 -0.251900047 0.0640847459
v 0.500000119 -0.217164338 -0.0293502416
v 0.500000715 -0.217164189 0.0293490794
v 0.0293496307 -0.217164338 0.499998629
v 0.06408602 -0.251900107 0.499998033
v 0.06408602 -0.310599625 0.499998659
v 0.0293500274 -0.345335424 0.499998659
v -0.0293500125 -0.345335603 0.499998659
v -0.0293497574 -0.217164189 0.499999106
v -0.0640853569 -0.251900047 0.499999106
v -0.0640856028 -0.310599536 0.499998659
v 0.0894091204 -0.376645774 -0.0605257601
v 0.0433175564 -0.399444252 0.0433123782
v 0.0894092172 -0.376645774 0.06055687
v 0.0605411194 -0.376645774 0.0894248784
v 0.0433175564 -0.399444252 -0.0433226489
v 0.0605411194 -0.376645803 -0.0893938616
v -0.0605413131 -0.376645774 -0.0893938616
v -0.0433174595 -0.399444252 0.0433123782
v -0.0605413131 -0.376645774 0.0894248784
v -0.0894095078 -0.376645774 0.06055687
v -0.0433174595 -0.399444252 -0.0433226489
v -0.0894095078 -0.376645774 -0.0605258532
v -0.0819170326 -0.199578583 0.0819324926
v -0.094648242 -0.19208625 0.06055687
v -0.0894096047 -0.187088683 0.0605566688
v -0.094648242 -0.220954388 0.0894248784
v -0.06054141 -0.187088653 0.0894246772
v -0.089409709 -0.220954388 0.0950463265
v -0.06054141 -0.192086235 0.0950464234
v -0.094648242 -0.19208625 -0.0605258606
v -0.094648242 -0.220954388 -0.0893937647
v -0.0819170326 -0.199578583 -0.0819014907
v -0.0894096047 -0.187088683 -0.0605260544
v -0.0894102827 -0.220954344 -0.0942664295
v -0.06054141 -0.187088683 -0.0893940553
v -0.060542088 -0.19208619 -0.0942664295
v -0.094648242 -0.370904952 0.06055687
v -0.094648242 -0.342036903 0.0894248784
v -0.0819170326 -0.363412648 0.0819325075
v -0.0894095078 -0.376645774 0.06055687
v -0.089409709 -0.342036903 0.0950463265
v -0.0605413131 -0.376645774 0.0894248784
v -0.0605415031 -0.370904952 0.0950463265
v -0.094648242 -0.342036843 -0.0893937647
v -0.094648242 -0.370904952 -0.0605258532
v -0.0819170326 -0.363412648 -0.0819014907
v -0.0894102827 -0.342036843 -0.0942664295
v -0.0894095078 -0.376645774 -0.0605258532
v -0.060542088 -0.370904922 -0.0942664295
v -0.0605413131 -0.376645774 -0.0893938616
v 0.0819169432 -0.363412648 -0.0819014907
v 0.0605411194 -0.376645803 -0.0893938616
v 0.0894091204 -0.376645774 -0.0605257601
v 0.0946473703 -0.370905071 -0.0605258532
v 0.060540542 -0.370904922 -0.0942664295
v 0.0946473703 -0.342036963 -0.0893938616
v 0.0894085467 -0.342036843 -0.0942664295
v 0.0894092172 -0.376645774 0.06055687
v 0.0605411194 -0.376645774 0.0894248784
v 0.0819169432 -0.363412648 0.0819325075
v 0.0946473703 -0.370905071 0.06055687
v 0.0605411194 -0.370904952 0.0950463265
v 0.0946473703 -0.342036963 0.0894249678
v 0.0894091204 -0.342036903 0.0950463265
v 0.060540542 -0.19208619 -0.0942664295
v 0.0894085467 -0.220954344 -0.0942664295
v 0.0819169432 -0.199578583 -0.0819014907
v 0.0605411194 -0.187088683 -0.0893940553
v 0.0946473703 -0.220954433 -0.0893938616
v 0.0894091204 -0.187088683 -0.0605260544
v 0.0946467966 -0.192086354 -0.0605258606
v 0.0819169432 -0.199578583 0.0819324926
v 0.0605411194 -0.19208625 0.095046334
v 0.0605411194 -0.187088653 0.0894246772
v 0.0894091204 -0.220954388 0.0950463265
v 0.0894091204 -0.187088683 0.0605566688
v 0.0946473703 -0.220954433 0.0894249678
v 0.0946467966 -0.192086354 0.06055687
v -0.100905418 -0.331637084 -0.219130516
v -0.0788953304 -0.238350824 -0.228530914
v -0.100905418 -0.231325313 -0.219130516
v -0.0788953304 -0.324611723 -0.228530914
v -0.0431339443 -0.202589378 -0.228530914
v -0.0501591004 -0.382383198 -0.219130516
v -0.0501591004 -0.180579409 -0.219130516
v -0.0431335568 -0.360373169 -0.228530914
v 0.0431272611 -0.202589378 -0.228530914
v 0.0501524135 -0.382383198 -0.219130516
v 0.0501524135 -0.180579409 -0.219130516
v 0.0431272611 -0.360373169 -0.228530914
v 0.0788886398 -0.238350824 -0.228530914
v 0.100898728 -0.331637084 -0.219130516
v 0.100898728 -0.231325313 -0.219130516
v 0.0788886398 -0.324611723 -0.228530914
v -0.0895235613 -0.342097193 -0.175578043
v -0.101757698 -0.230901331 -0.18854633
v -0.0895235613 -0.220864609 -0.175578043
v -0.101757698 -0.332060575 -0.18854633
v -0.0505829081 -0.179726437 -0.18854633
v -0.0606198981 -0.371001124 -0.175578043
v -0.0606198981 -0.191960692 -0.175578043
v -0.0505829081 -0.383235276 -0.18854633
v 0.0505762249 -0.179726437 -0.18854633
v 0.0606130101 -0.371001124 -0.175578043
v 0.0606130101 -0.191960692 -0.175578043
v 0.0505762249 -0.383235276 -0.18854633
v 0.101751 -0.230901331 -0.18854633
v 0.0895168632 -0.342097193 -0.175578043
v 0.0895168632 -0.220864609 -0.175578043
v 0.101751 -0.332060575 -0.18854633
v -0.100903869 -0.231324643 0.215294227
v -0.0788937807 -0.324610978 0.228531107
v -0.100903869 -0.331636369 0.215294197
v -0.0788937807 -0.238350078 0.228531107
v -0.0431323946 -0.360372543 0.228531092
v -0.0501577407 -0.180578634 0.215294227
v -0.0501577407 -0.382382423 0.215294197
v -0.0431322008 -0.202588558 0.228531107
v 0.0431286134 -0.360372543 0.228531092
v 0.050154157 -0.180578634 0.215294227
v 0.050154157 -0.382382423 0.215294197
v 0.0431286134 -0.202588558 0.228531107
v 0.0788901895 -0.324610978 0.228531107
v 0.100900091 -0.231324643 0.215294227
v 0.100900091 -0.331636369 0.215294197
v 0.0788901895 -0.238350078 0.228531107
v -0.089522399 -0.220864594 0.17352207
v -0.101756342 -0.332060575 0.184710041
v -0.089522399 -0.342097282 0.17352207
v -0.101756342 -0.230901375 0.184710041
v -0.0505815484 -0.383235395 0.184710026
v -0.0606185384 -0.191960707 0.17352207
v -0.0606185384 -0.371001124 0.17352207
v -0.0505815484 -0.179726571 0.184710041
v 0.0505775809 -0.383235395 0.184710026
v 0.0606141761 -0.191960707 0.17352207
v 0.0606141761 -0.371001124 0.17352207
v 0.0505775809 -0.179726571 0.184710041
v 0.101752162 -0.332060575 0.184710041
v 0.089518033 -0.220864594 0.17352207
v 0.089518033 -0.342097282 0.17352207
v 0.101752162 -0.230901375 0.184710041
v 0.216764137 -0.331636965 -0.100900523
v 0.228531256 -0.238350704 -0.0788906291
v 0.216764137 -0.231325179 -0.100900523
v 0.228531256 -0.324611604 -0.0788906291
v 0.228531256 -0.202589214 -0.0431291461
v 0.216764137 -0.382382989 -0.0501544923
v 0.216764137 -0.18057926 -0.0501544923
v 0.228531256 -0.36037299 -0.043129053
v 0.228531256 -0.202589214 0.0431318656
v 0.216764137 -0.382382989 0.0501572974
v 0.216764137 -0.18057926 0.0501573086
v 0.228531256 -0.36037299 0.0431318656
v 0.228531256 -0.238350704 0.0788933337
v 0.216764137 -0.331636965 0.100903243
v 0.216764137 -0.231325179 0.100903235
v 0.228531256 -0.324611604 0.0788933337
v 0.172983855 -0.342097014 -0.0895190537
v 0.1859418 -0.230901167 -0.101753183
v 0.172983855 -0.220864505 -0.0895190537
v 0.1859418 -0.332060337 -0.101753183
v 0.1859418 -0.179726318 -0.0505784005
v 0.172983855 -0.371001005 -0.0606151
v 0.172983855 -0.191960543 -0.0606151
v 0.1859418 -0.383235127 -0.0505784005
v 0.1859418 -0.179726318 0.0505809188
v 0.172983855 -0.371001005 0.0606177114
v 0.172983855 -0.191960543 0.0606177114
v 0.1859418 -0.383235127 0.0505809188
v 0.1859418 -0.230901167 0.1017555
v 0.172983855 -0.342097014 0.0895215794
v 0.172983855 -0.220864505 0.0895215645
v 0.1859418 -0.332060337 0.1017555
v 0.0501562878 -0.0643874928 -0.100900918
v -0.0431302637 -0.0529498085 -0.0788910165
v -0.0501554199 -0.0643874928 -0.100900918
v 0.0431305543 -0.0529498085 -0.0788910165
v -0.0788920373 -0.0529498085 -0.0431295373
v 0.100902222 -0.0643874928 -0.0501548834
v -0.100901544 -0.0643874928 -0.0501548834
v 0.0788923278 -0.0529498085 -0.0431294441
v -0.0788920373 -0.0529498085 0.0431313775
v 0.100902222 -0.0643874928 0.0501567274
v -0.100901544 -0.0643874928 0.0501567274
v 0.0788923278 -0.0529498085 0.0431313775
v -0.0431302637 -0.0529498085 0.0788930506
v 0.0501562878 -0.0643874928 0.100902848
v -0.0501554199 -0.0643874928 0.100902848
v 0.0431305543 -0.0529498085 0.0788930506
v 0.0606163107 -0.108757071 -0.0895194411
v -0.0505796149 -0.0957132727 -0.101753578
v -0.0606164075 -0.108757071 -0.0895194411
v 0.0505795181 -0.0957132727 -0.101753578
v -0.101754583 -0.0957132429 -0.0505789854
v 0.0895197764 -0.108757071 -0.060615778
v -0.0895204544 -0.108757071 -0.060615778
v 0.1017543 -0.0957132429 -0.0505789854
v -0.101754583 -0.0957132503 0.0505805388
v 0.0895197764 -0.108757071 0.0606172271
v -0.0895204544 -0.108757071 0.0606172271
v 0.1017543 -0.0957132503 0.0505805388
v -0.0505796149 -0.0957132503 0.101755217
v 0.0606163107 -0.108757071 0.0895209834
v -0.0606164075 -0.108757071 0.0895209834
v 0.0505795181 -0.0957132503 0.101755217
v -0.216765404 -0.231324673 -0.100900918
v -0.228530765 -0.324611008 -0.0788910165
v -0.216765404 -0.331636369 -0.100900918
v -0.228530765 -0.238350078 -0.0788910165
v -0.228530765 -0.360372543 -0.0431295373
v -0.216765404 -0.180578634 -0.0501548834
v -0.216765404 -0.382382423 -0.0501548834
v -0.228530765 -0.202588558 -0.0431294441
v -0.228530765 -0.360372543 0.0431313701
v -0.216765404 -0.180578634 0.0501567274
v -0.216765404 -0.382382423 0.0501567274
v -0.228530765 -0.202588558 0.0431313775
v -0.228530765 -0.324610978 0.0788930506
v -0.216765404 -0.231324673 0.100902848
v -0.216765404 -0.331636369 0.10090284
v -0.228530765 -0.238350078 0.0788930506
v -0.172983781 -0.220864594 -0.0895194411
v -0.185942277 -0.332060575 -0.101753578
v -0.172983781 -0.342097282 -0.0895194411
v -0.185942277 -0.230901346 -0.101753578
v -0.185942277 -0.383235365 -0.0505789854
v -0.172983781 -0.191960707 -0.060615778
v -0.172983781 -0.371001124 -0.060615778
v -0.185942277 -0.179726571 -0.0505789854
v -0.185942277 -0.383235365 0.0505805388
v -0.172983781 -0.191960707 0.0606172271
v -0.172983781 -0.371001124 0.0606172346
v -0.185942277 -0.179726571 0.0505805388
v -0.185942277 -0.332060575 0.101755217
v -0.172983781 -0.220864594 0.0895209983
v -0.172983781 -0.342097282 0.0895209834
v -0.185942277 -0.230901346 0.101755217
v -0.499999762 -0.320609957 0.0856156126
v -0.499999315 -0.252152145 0.0642539188
v -0.499999255 -0.242189348 0.0856158882
v -0.499999315 -0.311007023 0.0642541125
v -0.499999315 -0.221402645 0.0294263065
v -0.499999255 -0.367016464 0.0392094217
v -0.499998719 -0.195783034 0.039209526
v -0.499999315 -0.345834672 0.0294264015
v -0.499999315 -0.221402645 -0.0294283386
v -0.499999762 -0.367016464 -0.039210692
v -0.499998719 -0.195783034 -0.0392114632
v -0.499999315 -0.345834672 -0.0294282436
v -0.499999315 -0.254020125 -0.0642560571
v -0.499999255 -0.320610344 -0.0856177881
v -0.499998719 -0.242189214 -0.0856176913
v -0.499999315 -0.309139729 -0.0642560571
v -0.0856162608 -0.320609957 -0.500001252
v -0.0642546192 -0.252152145 -0.500000775
v -0.0856165141 -0.242189363 -0.500000775
v -0.0642547533 -0.311007023 -0.500000775
v -0.0294269081 -0.221402615 -0.500000775
v -0.0392100103 -0.367016464 -0.500000775
v -0.0392101556 -0.195783034 -0.500000179
v -0.0294270311 -0.345834672 -0.500000775
v 0.0294277091 -0.221402615 -0.500000775
v 0.039210137 -0.367016464 -0.500001311
v 0.0392107964 -0.195783034 -0.500000179
v 0.0294275749 -0.345834672 -0.500000775
v 0.0642554164 -0.254020125 -0.500000775
v 0.0856171772 -0.320610374 -0.500000775
v 0.0856170356 -0.242189214 -0.500000179
v 0.0642554164 -0.309139729 -0.500000775
v -0.0395927131 0.499999911 0.0856157988
v -0.0297322311 0.500000358 0.0640847459
v 0.0289672948 0.499999911 0.0640849471
v 0.0388280004 0.499999911 0.0856157988
v -0.0859992355 0.499999911 0.039209716
v 0.0637033507 0.499999911 0.0293493643
v -0.0644680932 0.500000358 0.0293490794
v 0.0852343738 0.499999911 0.039209716
v -0.0859992355 0.499999374 -0.0392114632
v 0.063703157 0.499999911 -0.0293506235
v -0.0644679591 0.499999911 -0.0293502416
v 0.0852342397 0.500000358 -0.0392111763
v -0.0395930521 0.499999911 -0.0856173486
v 0.02896736 0.499999911 -0.0640866831
v -0.0297321472 0.499999374 -0.0640866831
v 0.0388280675 0.500000358 -0.0856172517
v 0.500000119 -0.242039561 0.0856157988
v 0.500000715 -0.251900047 0.0640847459
v 0.500000119 -0.310599536 0.0640849471
v 0.500000119 -0.32046026 0.0856158063
v 0.500000119 -0.195632994 0.039209716
v 0.500000119 -0.345335603 0.0293493643
v 0.500000715 -0.217164189 0.0293490794
v 0.500000119 -0.366866648 0.0392097272
v 0.499999613 -0.195632994 -0.0392114632
v 0.500000119 -0.345335424 -0.0293506328
v 0.500000119 -0.217164338 -0.0293502416
v 0.500000715 -0.366866499 -0.0392111689
v 0.500000119 -0.242039219 -0.0856173486
v 0.500000119 -0.310599625 -0.0640866905
v 0.499999613 -0.251900107 -0.0640866905
v 0.500000715 -0.32046032 -0.0856172517
v -0.0856164545 -0.242039561 0.499998629
v -0.0640853569 -0.251900047 0.499999106
v -0.0640856028 -0.310599536 0.499998659
v -0.0856164545 -0.32046026 0.499998659
v -0.0392104685 -0.195632994 0.499998629
v -0.0293500125 -0.345335603 0.499998659
v -0.0293497574 -0.217164189 0.499999106
v -0.0392103456 -0.366866678 0.499998659
v 0.0392107405 -0.195632994 0.499998033
v 0.0293500274 -0.345335424 0.499998659
v 0.0293496307 -0.217164338 0.499998629
v 0.039210476 -0.366866529 0.499999076
v 0.0856167227 -0.242039219 0.499998659
v 0.06408602 -0.310599625 0.499998659
v 0.06408602 -0.251900107 0.499998033
v 0.0856165737 -0.32046032 0.499999136
vt 0.628699541 0.764061928
vt 0.646167994 0.809399128
vt 0.628699541 0.809399009
vt 0.646167994 0.764061928
vt 0.661713779 0.809399128
vt 0.661713779 0.764061928
vt 0.745886803 0.764061928
vt 0.761307597 0.764061928
vt 0.761307597 0.809399009
vt 0.745886803 0.809398711
vt 0.728265285 0.764061928
vt 0.745886803 0.764061928
vt 0.745886803 0.809398711
vt 0.728265285 0.809398055
vt 0.712555885 0.764061928
vt 0.728265285 0.764061928
vt 0.728265285 0.809398055
vt 0.712555885 0.809397936
vt 0.694801271 0.764061928
vt 0.694801271 0.809397459
vt 0.679043651 0.764061928
vt 0.679043651 0.80939728
vt 0.661713779 0.764061928
vt 0.679043651 0.764061928
vt 0.679043651 0.80939728
vt 0.661713779 0.809397042
vt 0.628699541 0.764062047
vt 0.628699541 0.809399128
vt 0.646167994 0.809399128
vt 0.646167994 0.764061928
vt 0.661713779 0.809399128
vt 0.661713779 0.764061928
vt 0.745886803 0.764062345
vt 0.745886803 0.809399128
vt 0.761307597 0.809399128
vt 0.761307597 0.764062047
vt 0.728265285 0.764063001
vt 0.728265285 0.809399128
vt 0.745886803 0.809399128
vt 0.745886803 0.764062345
vt 0.712555885 0.76406312
vt 0.728265285 0.809399128
vt 0.728265285 0.764063001
vt 0.712555885 0.809399128
vt 0.694801271 0.764063597
vt 0.694801271 0.809399128
vt 0.679043651 0.764063776
vt 0.679043651 0.809399128
vt 0.661713779 0.764064014
vt 0.661713779 0.809399128
vt 0.679043651 0.809399128
vt 0.679043651 0.764063776
vt 0.628699541 0.764061928
vt 0.646167994 0.809399128
vt 0.628699541 0.809399009
vt 0.646167994 0.764061928
vt 0.661713779 0.809399128
vt 0.661713779 0.764061928
vt 0.745886803 0.764061928
vt 0.761307597 0.764061928
vt 0.761307597 0.809399009
vt 0.745886803 0.809398711
vt 0.728265285 0.764061928
vt 0.745886803 0.764061928
vt 0.745886803 0.809398711
vt 0.728265285 0.809398055
vt 0.712555885 0.764061928
vt 0.728265285 0.764061928
vt 0.728265285 0.809398055
vt 0.712555885 0.809397936
vt 0.694801271 0.764061928
vt 0.694801271 0.809397459
vt 0.679043651 0.764061928
vt 0.679043651 0.80939728
vt 0.661713779 0.764061928
vt 0.679043651 0.764061928
vt 0.679043651 0.80939728
vt 0.661713779 0.809397042
vt 0.628699541 0.764062047
vt 0.628699541 0.809399128
vt 0.646167994 0.809399128
vt 0.646167994 0.764061928
vt 0.661713779 0.809399128
vt 0.661713779 0.764061928
vt 0.745886803 0.764062345
vt 0.745886803 0.809399128
vt 0.761307597 0.809399128
vt 0.761307597 0.764062047
vt 0.728265285 0.764063001
vt 0.728265285 0.809399128
vt 0.745886803 0.809399128
vt 0.745886803 0.764062345
vt 0.712555885 0.76406312
vt 0.728265285 0.809399128
vt 0.728265285 0.764063001
vt 0.712555885 0.809399128
vt 0.694801271 0.764063597
vt 0.694801271 0.809399128
vt 0.679043651 0.764063776
vt 0.679043651 0.809399128
vt 0.661713779 0.764064014
vt 0.661713779 0.809399128
vt 0.679043651 0.809399128
vt 0.679043651 0.764063776
vt 0.628699541 0.764062047
vt 0.628699541 0.809399128
vt 0.646167994 0.809399128
vt 0.646167994 0.764061928
vt 0.661713779 0.809399128
vt 0.661713779 0.764061928
vt 0.745886803 0.764062345
vt 0.745886803 0.809399128
vt 0.761307597 0.809399128
vt 0.761307597 0.764062047
vt 0.728265285 0.764063001
vt 0.728265285 0.809399128
vt 0.745886803 0.809399128
vt 0.745886803 0.764062345
vt 0.712555885 0.76406312
vt 0.728265285 0.809399128
vt 0.728265285 0.764063001
vt 0.712555885 0.809399128
vt 0.694801271 0.764063597
vt 0.694801271 0.809399128
vt 0.679043651 0.764063776
vt 0.679043651 0.809399128
vt 0.661713779 0.764064014
vt 0.661713779 0.809399128
vt 0.679043651 0.809399128
vt 0.679043651 0.764063776
vt 0.957827508 0.513191104
vt 0.994250894 0.488644063
vt 0.994250894 0.513191104
vt 0.957827508 0.488644063
vt 0.946188986 0.513191104
vt 0.946188986 0.488644063
vt 0.909765601 0.513191104
vt 0.909765601 0.488644063
vt 0.89812696 0.488644063
vt 0.89812696 0.513191104
vt 0.861703634 0.513191104
vt 0.861703634 0.488644063
vt 0.850065172 0.513191104
vt 0.850065172 0.488644063
vt 0.813641727 0.513191104
vt 0.813641727 0.488644063
vt 0.802003145 0.513191104
vt 0.802003145 0.488644063
vt 0.943912506 0.578163147
vt 0.943911135 0.525642037
vt 0.93497622 0.525646925
vt 0.93497622 0.578163147
vt 0.943912506 0.578163147
vt 0.943911135 0.525642037
vt 0.93497622 0.525646925
vt 0.93497622 0.578163147
vt 0.943912506 0.578163147
vt 0.943911135 0.525642037
vt 0.93497622 0.525646925
vt 0.93497622 0.578163147
vt 0.943912506 0.578163147
vt 0.943911135 0.525642037
vt 0.93497622 0.525646925
vt 0.93497622 0.578163147
vt 0.93497622 0.525646925
vt 0.93497622 0.578163147
vt 0.943912506 0.578163147
vt 0.943911135 0.525642037
vt 0.93497622 0.525647461
vt 0.93497622 0.578163147
vt 0.943912506 0.578163147
vt 0.94391036 0.525650144
vt 0.934976339 0.525647461
vt 0.93497622 0.578163147
vt 0.943912506 0.578163147
vt 0.943914354 0.525652587
vt 0.934976339 0.525647223
vt 0.93497622 0.578163147
vt 0.943912506 0.578163147
vt 0.943914592 0.525645137
vt 0.943912506 0.578163147
vt 0.94391036 0.525650144
vt 0.93497622 0.525647461
vt 0.93497622 0.578163147
vt 0.93497622 0.525647461
vt 0.93497622 0.578163147
vt 0.943912506 0.578163147
vt 0.94391036 0.525650144
vt 0.943912506 0.578163147
vt 0.943914592 0.525645137
vt 0.934976339 0.525647223
vt 0.93497622 0.578163147
vt 0.943912506 0.578163147
vt 0.94391036 0.525650144
vt 0.93497622 0.525647461
vt 0.93497622 0.578163147
vt 0.962158561 0.516360402
vt 0.990387857 0.523758531
vt 0.990387857 0.516360402
vt 0.962158442 0.523758531
vt 0.94232595 0.516360402
vt 0.94232583 0.523758531
vt 0.914096653 0.516360402
vt 0.914096653 0.523758531
vt 0.894263983 0.516360402
vt 0.894263983 0.523758531
vt 0.866034687 0.516360402
vt 0.866034806 0.523758531
vt 0.846202075 0.516360402
vt 0.846202195 0.523758531
vt 0.817972779 0.516360402
vt 0.817972779 0.523758531
vt 0.798140109 0.516360402
vt 0.798140109 0.523758531
vt 0.957827508 0.513191104
vt 0.994250894 0.488644063
vt 0.994250894 0.513191104
vt 0.957827508 0.488644063
vt 0.946188986 0.513191104
vt 0.946188986 0.488644063
vt 0.909765601 0.513191104
vt 0.909765601 0.488644063
vt 0.89812696 0.488644063
vt 0.89812696 0.513191104
vt 0.861703634 0.513191104
vt 0.861703634 0.488644063
vt 0.850065172 0.513191104
vt 0.850065172 0.488644063
vt 0.813641727 0.513191104
vt 0.813641727 0.488644063
vt 0.802003145 0.513191104
vt 0.802003145 0.488644063
vt 0.962158561 0.516360402
vt 0.990387857 0.523758531
vt 0.990387857 0.516360402
vt 0.962158442 0.523758531
vt 0.94232595 0.516360402
vt 0.94232583 0.523758531
vt 0.914096653 0.516360402
vt 0.914096653 0.523758531
vt 0.894263983 0.516360402
vt 0.894263983 0.523758531
vt 0.866034687 0.516360402
vt 0.866034806 0.523758531
vt 0.846202075 0.516360402
vt 0.846202195 0.523758531
vt 0.817972779 0.516360402
vt 0.817972779 0.523758531
vt 0.798140109 0.516360402
vt 0.798140109 0.523758531
vt 0.957827508 0.513191104
vt 0.994250894 0.488644063
vt 0.994250894 0.513191104
vt 0.957827508 0.488644063
vt 0.946188986 0.513191104
vt 0.946188986 0.488644063
vt 0.909765601 0.513191104
vt 0.909765601 0.488644063
vt 0.89812696 0.488644063
vt 0.89812696 0.513191104
vt 0.861703634 0.513191104
vt 0.861703634 0.488644063
vt 0.850065172 0.513191104
vt 0.850065172 0.488644063
vt 0.813641727 0.513191104
vt 0.813641727 0.488644063
vt 0.802003145 0.513191104
vt 0.802003145 0.488644063
vt 0.962158561 0.516360402
vt 0.990387857 0.523758531
vt 0.990387857 0.516360402
vt 0.962158442 0.523758531
vt 0.94232595 0.516360402
vt 0.94232583 0.523758531
vt 0.914096653 0.516360402
vt 0.914096653 0.523758531
vt 0.894263983 0.516360402
vt 0.894263983 0.523758531
vt 0.866034687 0.516360402
vt 0.866034806 0.523758531
vt 0.846202075 0.516360402
vt 0.846202195 0.523758531
vt 0.817972779 0.516360402
vt 0.817972779 0.523758531
vt 0.798140109 0.516360402
vt 0.798140109 0.523758531
vt 0.957827508 0.513191104
vt 0.994250894 0.488644063
vt 0.994250894 0.513191104
vt 0.957827508 0.488644063
vt 0.946188986 0.513191104
vt 0.946188986 0.488644063
vt 0.909765601 0.513191104
vt 0.909765601 0.488644063
vt 0.89812696 0.488644063
vt 0.89812696 0.513191104
vt 0.861703634 0.513191104
vt 0.861703634 0.488644063
vt 0.850065172 0.513191104
vt 0.850065172 0.488644063
vt 0.813641727 0.513191104
vt 0.813641727 0.488644063
vt 0.802003145 0.513191104
vt 0.802003145 0.488644063
vt 0.962158561 0.516360402
vt 0.990387857 0.523758531
vt 0.990387857 0.516360402
vt 0.962158442 0.523758531
vt 0.94232595 0.516360402
vt 0.94232583 0.523758531
vt 0.914096653 0.516360402
vt 0.914096653 0.523758531
vt 0.894263983 0.516360402
vt 0.894263983 0.523758531
vt 0.866034687 0.516360402
vt 0.866034806 0.523758531
vt 0.846202075 0.516360402
vt 0.846202195 0.523758531
vt 0.817972779 0.516360402
vt 0.817972779 0.523758531
vt 0.798140109 0.516360402
vt 0.798140109 0.523758531
vt 0.957827508 0.513191104
vt 0.994250894 0.488644063
vt 0.994250894 0.513191104
vt 0.957827508 0.488644063
vt 0.946188986 0.513191104
vt 0.946188986 0.488644063
vt 0.909765601 0.513191104
vt 0.909765601 0.488644063
vt 0.89812696 0.488644063
vt 0.89812696 0.513191104
vt 0.861703634 0.513191104
vt 0.861703634 0.488644063
vt 0.850065172 0.513191104
vt 0.850065172 0.488644063
vt 0.813641727 0.513191104
vt 0.813641727 0.488644063
vt 0.802003145 0.513191104
vt 0.802003145 0.488644063
vt 0.962158561 0.516360402
vt 0.990387857 0.523758531
vt 0.990387857 0.516360402
vt 0.962158442 0.523758531
vt 0.94232595 0.516360402
vt 0.94232583 0.523758531
vt 0.914096653 0.516360402
vt 0.914096653 0.523758531
vt 0.894263983 0.516360402
vt 0.894263983 0.523758531
vt 0.866034687 0.516360402
vt 0.866034806 0.523758531
vt 0.846202075 0.516360402
vt 0.846202195 0.523758531
vt 0.817972779 0.516360402
vt 0.817972779 0.523758531
vt 0.798140109 0.516360402
vt 0.798140109 0.523758531
vt 0.782044113 0.0536795259
vt 0.782138586 0.0537739992
vt 0.782298267 0.0537739992
vt 0.7823928 0.0536795259
vt 0.7823928 0.0535198152
vt 0.782044113 0.0535198152
vt 0.782138586 0.053425312
vt 0.782298267 0.053425312
vt 0.781510949 0.0530717932
vt 0.781416178 0.0531665385
vt 0.781416178 0.0533266515
vt 0.781516016 0.0534214079
vt 0.781671047 0.0530717932
vt 0.781665981 0.0534214079
vt 0.781754613 0.0533266515
vt 0.781754613 0.0531665385
vt 0.782100737 0.0531665385
vt 0.782000959 0.0530717932
vt 0.781850934 0.0530717932
vt 0.781762242 0.0531665385
vt 0.781762242 0.0533266515
vt 0.782100737 0.0533266515
vt 0.781845868 0.0534214079
vt 0.782005966 0.0534214079
vt 0.781689405 0.0535198152
vt 0.781689525 0.0536795259
vt 0.781783938 0.0537739992
vt 0.781783938 0.053425312
vt 0.78194356 0.053425312
vt 0.78194356 0.0537739992
vt 0.782038152 0.0535198152
vt 0.782038152 0.0536795259
vt 0.781764805 0.0538724065
vt 0.781670392 0.0537778735
vt 0.781510711 0.0537778735
vt 0.781416178 0.0538724065
vt 0.781416178 0.0540320873
vt 0.781764805 0.0540320873
vt 0.781670392 0.0541265607
vt 0.781510592 0.0541266203
vt 0.852595985 0.575076818
vt 0.839954376 0.54608357
vt 0.852595985 0.541497648
vt 0.844590127 0.533491671
vt 0.840003848 0.570440948
vt 0.844590127 0.583082795
vt 0.811010838 0.583082795
vt 0.815597177 0.546133101
vt 0.811010838 0.533491671
vt 0.803004861 0.541497648
vt 0.81564641 0.57049036
vt 0.803004861 0.575076818
vt 0.939443827 0.586763442
vt 0.950194955 0.587294877
vt 0.945717394 0.594816923
vt 0.943921387 0.578166962
vt 0.933170438 0.594816923
vt 0.934966326 0.578166962
vt 0.928692877 0.587294877
vt 0.950199783 0.587299585
vt 0.943926394 0.578171849
vt 0.939448595 0.586768448
vt 0.945722222 0.594821692
vt 0.934971213 0.578171849
vt 0.933175325 0.594821692
vt 0.928697586 0.587299585
vt 0.950194955 0.587294877
vt 0.943921387 0.578166962
vt 0.939443827 0.586763442
vt 0.945717394 0.594816923
vt 0.934966326 0.578166962
vt 0.933170438 0.594816923
vt 0.928692877 0.587294877
vt 0.943926394 0.578171849
vt 0.950199783 0.587299585
vt 0.939448595 0.586768448
vt 0.934971213 0.578171849
vt 0.945722222 0.594821692
vt 0.928697586 0.587299585
vt 0.933175325 0.594821692
vt 0.939440668 0.586776257
vt 0.93316704 0.594829857
vt 0.945714116 0.594829857
vt 0.950191677 0.587307751
vt 0.928689599 0.587307751
vt 0.943918288 0.578179896
vt 0.934963167 0.578180075
vt 0.945709169 0.594825149
vt 0.933162332 0.594825149
vt 0.939435899 0.586771607
vt 0.950186968 0.587302744
vt 0.928684771 0.587302744
vt 0.94391346 0.578175068
vt 0.934958279 0.578175068
vt 0.928689599 0.587307751
vt 0.934963167 0.578180075
vt 0.939440668 0.586776257
vt 0.93316704 0.594829857
vt 0.943918288 0.578179896
vt 0.945714116 0.594829857
vt 0.950191677 0.587307751
vt 0.939435899 0.586771607
vt 0.928684771 0.587302744
vt 0.933162332 0.594825149
vt 0.934958279 0.578175068
vt 0.945709169 0.594825149
vt 0.94391346 0.578175068
vt 0.950186968 0.587302744
vt 0.863500953 0.576442778
vt 0.871729791 0.544753969
vt 0.863498151 0.542043209
vt 0.87172842 0.573625863
vt 0.883023143 0.534130514
vt 0.880637527 0.591980636
vt 0.880455256 0.526143134
vt 0.883103907 0.58394134
vt 0.912024915 0.533686697
vt 0.915000618 0.591181159
vt 0.914463699 0.526071608
vt 0.912341595 0.583941102
vt 0.924078286 0.544708669
vt 0.931822419 0.575492918
vt 0.9317981 0.541983068
vt 0.92407912 0.5727337
vt 0.846397221 0.585678875
vt 0.811323225 0.59243983
vt 0.80982095 0.585678875
vt 0.844895065 0.59243983
vt 0.794339657 0.575456321
vt 0.85511744 0.576958537
vt 0.801100671 0.576958537
vt 0.861878514 0.575456321
vt 0.794339657 0.541884542
vt 0.85511744 0.540382206
vt 0.801100671 0.540382206
vt 0.861878514 0.541884542
vt 0.811323225 0.524900913
vt 0.846397221 0.531661987
vt 0.80982095 0.531661987
vt 0.844895065 0.524900913
vt 0.863500953 0.576442778
vt 0.871729791 0.544753969
vt 0.863498151 0.542043209
vt 0.87172842 0.573625863
vt 0.883023143 0.534130514
vt 0.880637527 0.591980636
vt 0.880455256 0.526143134
vt 0.883103907 0.58394134
vt 0.912024915 0.533686697
vt 0.915000618 0.591181159
vt 0.914463699 0.526071608
vt 0.912341595 0.583941102
vt 0.924078286 0.544708669
vt 0.931822419 0.575492918
vt 0.9317981 0.541983068
vt 0.92407912 0.5727337
vt 0.846397221 0.585678875
vt 0.811323225 0.59243983
vt 0.80982095 0.585678875
vt 0.844895065 0.59243983
vt 0.794339657 0.575456321
vt 0.85511744 0.576958537
vt 0.801100671 0.576958537
vt 0.861878514 0.575456321
vt 0.794339657 0.541884542
vt 0.85511744 0.540382206
vt 0.801100671 0.540382206
vt 0.861878514 0.541884542
vt 0.811323225 0.524900913
vt 0.846397221 0.531661987
vt 0.80982095 0.531661987
vt 0.844895065 0.524900913
vt 0.863500953 0.576442778
vt 0.871729791 0.544753969
vt 0.863498151 0.542043209
vt 0.87172842 0.573625863
vt 0.883023143 0.534130514
vt 0.880637527 0.591980636
vt 0.880455256 0.526143134
vt 0.883103907 0.58394134
vt 0.912024915 0.533686697
vt 0.915000618 0.591181159
vt 0.914463699 0.526071608
vt 0.912341595 0.583941102
vt 0.924078286 0.544708669
vt 0.931822419 0.575492918
vt 0.9317981 0.541983068
vt 0.92407912 0.5727337
vt 0.846397221 0.585678875
vt 0.811323225 0.59243983
vt 0.80982095 0.585678875
vt 0.844895065 0.59243983
vt 0.794339657 0.575456321
vt 0.85511744 0.576958537
vt 0.801100671 0.576958537
vt 0.861878514 0.575456321
vt 0.794339657 0.541884542
vt 0.85511744 0.540382206
vt 0.801100671 0.540382206
vt 0.861878514 0.541884542
vt 0.811323225 0.524900913
vt 0.846397221 0.531661987
vt 0.80982095 0.531661987
vt 0.844895065 0.524900913
vt 0.863500953 0.576442778
vt 0.871729791 0.544753969
vt 0.863498151 0.542043209
vt 0.87172842 0.573625863
vt 0.883023143 0.534130514
vt 0.880637527 0.591980636
vt 0.880455256 0.526143134
vt 0.883103907 0.58394134
vt 0.912024915 0.533686697
vt 0.915000618 0.591181159
vt 0.914463699 0.526071608
vt 0.912341595 0.583941102
vt 0.924078286 0.544708669
vt 0.931822419 0.575492918
vt 0.9317981 0.541983068
vt 0.92407912 0.5727337
vt 0.846397221 0.585678875
vt 0.811323225 0.59243983
vt 0.80982095 0.585678875
vt 0.844895065 0.59243983
vt 0.794339657 0.575456321
vt 0.85511744 0.576958537
vt 0.801100671 0.576958537
vt 0.861878514 0.575456321
vt 0.794339657 0.541884542
vt 0.85511744 0.540382206
vt 0.801100671 0.540382206
vt 0.861878514 0.541884542
vt 0.811323225 0.524900913
vt 0.846397221 0.531661987
vt 0.80982095 0.531661987
vt 0.844895065 0.524900913
vt 0.863500953 0.576442778
vt 0.871729791 0.544753969
vt 0.863498151 0.542043209
vt 0.87172842 0.573625863
vt 0.883023143 0.534130514
vt 0.880637527 0.591980636
vt 0.880455256 0.526143134
vt 0.883103907 0.58394134
vt 0.912024915 0.533686697
vt 0.915000618 0.591181159
vt 0.914463699 0.526071608
vt 0.912341595 0.583941102
vt 0.924078286 0.544708669
vt 0.931822419 0.575492918
vt 0.9317981 0.541983068
vt 0.92407912 0.5727337
vt 0.846397221 0.585678875
vt 0.811323225 0.59243983
vt 0.80982095 0.585678875
vt 0.844895065 0.59243983
vt 0.794339657 0.575456321
vt 0.85511744 0.576958537
vt 0.801100671 0.576958537
vt 0.861878514 0.575456321
vt 0.794339657 0.541884542
vt 0.85511744 0.540382206
vt 0.801100671 0.540382206
vt 0.861878514 0.541884542
vt 0.811323225 0.524900913
vt 0.846397221 0.531661987
vt 0.80982095 0.531661987
vt 0.844895065 0.524900913
vt 0.859570205 0.900560141
vt 0.853561461 0.919794679
vt 0.859563768 0.922462285
vt 0.853507638 0.903330207
vt 0.843739629 0.929398358
vt 0.846528053 0.887539923
vt 0.846483886 0.935384214
vt 0.843766689 0.893562496
vt 0.827275038 0.929398358
vt 0.824529409 0.887520969
vt 0.824485123 0.935384214
vt 0.827288508 0.893567264
vt 0.81744945 0.919713497
vt 0.811430693 0.900571227
vt 0.811390936 0.922434986
vt 0.817505658 0.903369725
vt 0.859570205 0.900560141
vt 0.853561461 0.919794679
vt 0.859563768 0.922462285
vt 0.853507638 0.903330207
vt 0.843739629 0.929398358
vt 0.846528053 0.887539923
vt 0.846483886 0.935384214
vt 0.843766689 0.893562496
vt 0.827275038 0.929398358
vt 0.824529409 0.887520969
vt 0.824485123 0.935384214
vt 0.827288508 0.893567264
vt 0.81744945 0.919713497
vt 0.811430693 0.900571227
vt 0.811390936 0.922434986
vt 0.817505658 0.903369725
vt 0.811390936 0.922434986
vt 0.81744945 0.919713497
vt 0.817506194 0.903370261
vt 0.811430693 0.900571227
vt 0.824485123 0.935384214
vt 0.827288508 0.893567264
vt 0.827275038 0.929398358
vt 0.824529409 0.887520969
vt 0.846483886 0.935384214
vt 0.843766689 0.893562496
vt 0.843739629 0.929398358
vt 0.846528053 0.887539923
vt 0.859563768 0.922462285
vt 0.853507638 0.903330207
vt 0.853561461 0.919794679
vt 0.859570205 0.900560141
vt 0.811390936 0.922434986
vt 0.81744945 0.919713497
vt 0.817506194 0.903370261
vt 0.811430693 0.900571227
vt 0.824485123 0.935384214
vt 0.827288508 0.893567264
vt 0.827275038 0.929398358
vt 0.824529409 0.887520969
vt 0.846483886 0.935384214
vt 0.843766689 0.893562496
vt 0.843739629 0.929398358
vt 0.846528053 0.887539923
vt 0.859563768 0.922462285
vt 0.853507638 0.903330207
vt 0.853561461 0.919794679
vt 0.859570205 0.900560141
vt 0.811390936 0.922434986
vt 0.81744945 0.919713497
vt 0.817506194 0.903370261
vt 0.811430693 0.900571227
vt 0.824485123 0.935384214
vt 0.827288508 0.893567264
vt 0.827275038 0.929398358
vt 0.824529409 0.887520969
vt 0.846483886 0.935384214
vt 0.843766689 0.893562496
vt 0.843739629 0.929398358
vt 0.846528053 0.887539923
vt 0.859563768 0.922462285
vt 0.853507638 0.903330207
vt 0.853561461 0.919794679
vt 0.859570205 0.900560141
vn 0.382686496 -0.923878312 -8.09591147E-05
vn -0.382676661 -0.923882365 -8.11360369E-05
vn 0.382672489 -0.923884094 -8.09596168E-05
vn -0.382692575 -0.923875749 -8.11354475E-05
vn -0.707109153 -0.707104325 -6.22413427E-05
vn -0.707109153 -0.707104325 -6.22413427E-05
vn 0.707100093 -0.707113385 -6.19158964E-05
vn 0.382686496 -0.923878312 -8.09591147E-05
vn 0.382672489 -0.923884094 -8.09596168E-05
vn 0.707100093 -0.707113385 -6.19158964E-05
vn 1 1.69888244E-06 0
vn 1 1.69888244E-06 0
vn 1 1.69888244E-06 0
vn 1 1.69888222E-06 0
vn 0.382675469 0.923882902 8.10529164E-05
vn 0.707106113 0.707107425 6.200184E-05
vn 0.707106113 0.707107425 6.20018254E-05
vn 0.382691354 0.923876286 8.10523343E-05
vn -0.382676899 0.923882246 8.09435296E-05
vn -0.382689267 0.92387706 8.09430712E-05
vn -0.707106769 0.707106769 6.17997357E-05
vn -0.707106769 0.707106769 6.17997357E-05
vn -1 -3.32056334E-06 0
vn -1 -3.32056334E-06 0
vn -1 -3.32056334E-06 0
vn -1 -3.32056288E-06 0
vn 0.382692456 -0.923875749 8.09490448E-05
vn 0.382676303 -0.923882484 8.0949605E-05
vn -0.382677555 -0.923881948 8.01773494E-05
vn -0.382691354 -0.923876286 8.01768183E-05
vn -0.707109392 -0.707104146 6.09007693E-05
vn -0.707109392 -0.707104146 6.09007657E-05
vn 0.707107186 -0.707106352 6.23278975E-05
vn 0.707107186 -0.707106352 6.23278756E-05
vn 0.382676303 -0.923882484 8.0949605E-05
vn 0.382692456 -0.923875749 8.09490448E-05
vn 1 -1.7374897E-06 7.21468609E-07
vn 1 -1.7374897E-06 7.21468609E-07
vn 1 -1.73748981E-06 7.21468609E-07
vn 1 -1.7374897E-06 7.21468609E-07
vn 0.382677019 0.923882186 -8.05573291E-05
vn 0.707108498 0.707104981 -6.13445955E-05
vn 0.707108498 0.707104981 -6.13445955E-05
vn 0.382692128 0.923875868 -8.05567906E-05
vn -0.382680386 0.923880756 -8.12805811E-05
vn -0.38269344 0.923875332 -8.12801227E-05
vn -0.707112074 0.707101405 -6.26809124E-05
vn -0.707112074 0.707101405 -6.26809124E-05
vn -1 0 -1.67948315E-06
vn -1 0 -1.67948315E-06
vn -1 0 -1.67948315E-06
vn -1 0 -1.67948315E-06
vn -8.09376579E-05 -0.923878312 -0.382686257
vn -8.11022473E-05 -0.923882246 0.382676899
vn -8.09381745E-05 -0.923884213 -0.38267228
vn -8.11016653E-05 -0.92387563 0.382692903
vn -6.21788931E-05 -0.707103908 0.707109571
vn -6.21788786E-05 -0.707103908 0.707109571
vn -6.18762861E-05 -0.707113802 -0.707099795
vn -8.09376579E-05 -0.923878312 -0.382686257
vn -8.09381745E-05 -0.923884213 -0.38267228
vn -6.18762933E-05 -0.707113802 -0.707099795
vn 1.72363059E-07 1.23554958E-06 -1
vn 1.72363059E-07 1.23554946E-06 -1
vn 1.72363059E-07 1.23554946E-06 -1
vn 1.72363059E-07 1.23554946E-06 -1
vn 8.10839338E-05 0.923882782 -0.382675558
vn 6.20591527E-05 0.707107186 -0.707106352
vn 6.20591527E-05 0.707107186 -0.707106352
vn 8.1083359E-05 0.923876166 -0.382691503
vn 8.08527475E-05 0.923882365 0.382676631
vn 8.08522818E-05 0.92387706 0.382689238
vn 6.16320031E-05 0.707106888 0.70710659
vn 6.16320031E-05 0.707107008 0.707106531
vn -1.72634586E-07 -4.32445358E-06 1
vn -1.72634572E-07 -4.32445358E-06 1
vn -1.72634572E-07 -4.32445358E-06 1
vn -1.72634572E-07 -4.32445358E-06 1
vn 8.09343401E-05 -0.92387563 -0.382692754
vn 8.09349294E-05 -0.923882484 -0.382676303
vn 8.01772694E-05 -0.923882067 0.382677257
vn 8.01767601E-05 -0.923876345 0.382690996
vn 6.09007038E-05 -0.707104564 0.707108974
vn 6.09007075E-05 -0.707104504 0.707109034
vn 6.23007945E-05 -0.707106233 -0.707107306
vn 6.23007945E-05 -0.707106173 -0.707107306
vn 8.09349294E-05 -0.923882484 -0.382676303
vn 8.09343401E-05 -0.92387563 -0.382692754
vn 6.89126637E-07 -1.23554628E-06 -1
vn 6.89126637E-07 -1.23554628E-06 -1
vn 6.89126637E-07 -1.23554628E-06 -1
vn 6.89126637E-07 -1.23554628E-06 -1
vn -8.05641321E-05 0.923881948 -0.382677495
vn -6.13571392E-05 0.707104325 -0.707109272
vn -6.13571319E-05 0.707104266 -0.707109272
vn -8.05635646E-05 0.923875749 -0.382692546
vn -8.12235667E-05 0.923881054 0.382679731
vn -8.12230865E-05 0.92387563 0.382692903
vn -6.25756074E-05 0.707102418 0.70711112
vn -6.25756074E-05 0.707102358 0.70711112
vn -1.37803693E-06 0 1
vn -1.37803715E-06 0 1
vn -1.37803715E-06 0 1
vn -1.37803715E-06 0 1
vn 0.92387718 4.04682978E-05 -0.382688999
vn 0.923880935 4.04684542E-05 -0.382680118
vn 0.923880458 4.01070538E-05 0.38268131
vn 0.923877895 4.01069337E-05 0.38268739
vn 0.707104266 3.04603527E-05 0.707109272
vn 0.707104266 3.04603509E-05 0.707109272
vn 0.707106173 3.11281874E-05 -0.707107306
vn 0.707106113 3.11281874E-05 -0.707107365
vn 0.923880935 4.04684542E-05 -0.382680118
vn 0.92387718 4.04682978E-05 -0.382688999
vn 1.23554889E-06 3.44329095E-07 -1
vn 1.23554889E-06 3.44329152E-07 -1
vn 1.23554889E-06 3.44329095E-07 -1
vn 1.23554889E-06 3.44329095E-07 -1
vn -0.923880458 -4.02474725E-05 -0.38268137
vn -0.707104325 -3.0666044E-05 -0.707109153
vn -0.707104325 -3.0666044E-05 -0.707109272
vn -0.923877358 -4.02473306E-05 -0.382688612
vn -0.923879504 -4.05766841E-05 0.382683277
vn -0.92387718 -4.05765823E-05 0.382689029
vn -0.707102537 -3.12743432E-05 0.707110941
vn -0.707102537 -3.12743505E-05 0.707110941
vn -0 -6.88550131E-07 1
vn -0 -6.88550131E-07 1
vn -0 -6.88550131E-07 1
vn -0 -6.88550131E-07 1
vn -0.378847778 0.377299935 -0.845055759
vn 0.00177727127 -0.382703453 -0.92386955
vn -0.378911883 -0.377327412 -0.845014632
vn 0.00192085595 0.382781029 -0.923837066
vn -0.383828193 0.842247486 -0.378543377
vn 0.001920023 0.923835456 -0.382785022
vn -0.38388598 0.842208147 0.378572345
vn 0.0017756056 0.923868418 0.382706046
vn 0.00157235505 0.382814616 0.923823893
vn -0.407115251 0.38433972 0.828577161
vn -0.407179207 -0.384365916 0.828533649
vn 0.00142874569 -0.382736951 0.923856199
vn -0.411264747 -0.826026499 0.385410875
vn 0.0014290812 -0.923855722 0.382738292
vn -0.41120103 -0.826070189 -0.385385424
vn 0.00157352292 -0.923822641 -0.382817358
vn -0.378911883 -0.377327412 -0.845014632
vn 0.00177727127 -0.382703453 -0.92386955
vn -0.580025971 -0.768888652 0.269035578
vn -0.580068767 -0.768859088 -0.26902765
vn -0.41120103 -0.826070189 -0.385385424
vn -0.411264747 -0.826026499 0.385410875
vn -0.267549574 -0.759236634 -0.59327656
vn 0.2675623 -0.759220123 -0.593291759
vn 0.386432827 -0.817280293 -0.427460581
vn -0.386446714 -0.817297041 -0.427415967
vn 0.580083907 -0.768849611 -0.269022286
vn 0.580043137 -0.768876791 0.2690323
vn 0.411286205 -0.826016307 0.385409743
vn 0.411221325 -0.826060116 -0.385385156
vn 0.27043137 -0.778147399 0.566880524
vn -0.270429969 -0.778149486 0.566878259
vn -0.384321809 -0.834265351 0.39534542
vn 0.384323031 -0.834258258 0.395359218
vn -0.3850573 0.417713612 0.822949648
vn 0.385056973 0.417713225 0.822949946
vn 0.377365708 0.849806547 0.367999911
vn -0.377362013 0.849813819 0.367986858
vn 0.831435919 0.403830081 0.381622255
vn 0.831480742 0.403757453 -0.381601572
vn 0.383875877 0.842225671 -0.378543645
vn 0.383931309 0.842187583 0.378571957
vn 0.378106683 0.389431328 -0.839868128
vn -0.378097385 0.389453679 -0.839861989
vn -0.379761249 0.834052682 -0.400171906
vn 0.379748076 0.834038079 -0.400214821
vn -0.831455708 0.40379563 -0.381615847
vn -0.831410885 0.403868228 0.381636471
vn -0.38388598 0.842208147 0.378572345
vn -0.383828193 0.842247486 -0.378543377
vn 0.407125086 0.384338468 0.828572929
vn 0.407186568 -0.384365767 0.828530014
vn 0.844636858 -0.379712611 0.37736842
vn 0.8446787 0.379686356 0.377301008
vn -0.407179207 -0.384365916 0.828533649
vn -0.407115251 0.38433972 0.828577161
vn -0.844680309 0.379696876 0.377286881
vn -0.844639301 -0.379723877 0.377351671
vn 0.378880084 -0.377315581 -0.845034182
vn 0.378818393 0.377286971 -0.845074654
vn 0.828464568 0.382000595 -0.409538627
vn 0.828421295 -0.382024288 -0.409604132
vn -0.378847778 0.377299935 -0.845055759
vn -0.378911883 -0.377327412 -0.845014632
vn -0.828452885 -0.382033408 -0.409531772
vn -0.828495264 0.382008642 -0.409469128
vn -0.030800458 0.382968754 -0.923247695
vn -0.0308093783 -0.382017225 -0.923641503
vn -0.0308115892 -0.382974684 -0.923244834
vn -0.0307983048 0.382023513 -0.923639238
vn -0.0307898838 0.923244715 -0.38297689
vn -0.0307876728 0.923642218 -0.382017493
vn -0.0307862684 0.923245728 0.382974535
vn -0.0307840724 0.923641562 0.382018924
vn -0.0307917725 0.382970184 0.923247337
vn -0.0307896119 0.382023245 0.923639774
vn -0.0308028907 -0.382976055 0.923244536
vn -0.0308006853 -0.382017046 0.92364186
vn -0.0308130663 -0.923246026 0.382971734
vn -0.0308108963 -0.923639774 0.382021248
vn -0.030816691 -0.923244953 -0.382974118
vn -0.0308145005 -0.92364037 -0.382019639
vn -0.0308115892 -0.382974684 -0.923244834
vn -0.0308093783 -0.382017225 -0.923641503
vn 0.378106683 0.389431328 -0.839868128
vn -0.3827416 -0.00184566097 -0.923853576
vn -0.378097385 0.389453679 -0.839861989
vn 0.382745206 -0.00184566516 -0.923852026
vn 0.831480742 0.403757453 -0.381601572
vn 0.923830152 -0.0017439567 -0.382798523
vn 0.831435919 0.403830081 0.381622255
vn 0.923862636 -0.00160165154 0.382720858
vn 0.38277784 -0.00150261109 0.923839211
vn 0.385056973 0.417713225 0.822949946
vn -0.3850573 0.417713612 0.822949648
vn -0.382774144 -0.0015026062 0.923840761
vn -0.831410885 0.403868228 0.381636471
vn -0.923861504 -0.00160299009 0.382723749
vn -0.831455708 0.40379563 -0.381615847
vn -0.923828959 -0.00174529606 -0.382801384
vn -0.378097385 0.389453679 -0.839861989
vn -0.3827416 -0.00184566097 -0.923853576
vn 0.382966936 0.0303063858 -0.923264861
vn -0.382030278 0.0303160846 -0.92365247
vn -0.38297227 0.0303182192 -0.923262179
vn 0.382037669 0.0303043034 -0.923649728
vn 0.923261821 0.0302964058 -0.382974923
vn 0.923652887 0.03029426 -0.382030845
vn 0.923262894 0.0302928332 0.382972538
vn 0.923652351 0.0302907079 0.382032424
vn 0.382968247 0.03029784 0.923264563
vn 0.382037491 0.030295752 0.923650146
vn -0.382973611 0.030309679 0.923261881
vn -0.38202998 0.0303075332 0.923652768
vn -0.923262835 0.0303213745 0.382970452
vn -0.923650146 0.0303192809 0.382035673
vn -0.923261821 0.0303249378 -0.382972777
vn -0.923650622 0.0303228237 -0.382034123
vn -0.38297227 0.0303182192 -0.923262179
vn -0.382030278 0.0303160846 -0.92365247
vn 0.378880084 -0.377315581 -0.845034182
vn -0.00191564928 0.382783443 -0.923836172
vn 0.378818393 0.377286971 -0.845074654
vn -0.00176952558 -0.38270396 -0.923869371
vn 0.411221325 -0.826060116 -0.385385156
vn -0.00156744989 -0.923823774 -0.382814914
vn 0.411286205 -0.826016307 0.385409743
vn -0.00142821937 -0.923855186 0.382739604
vn -0.00143290276 -0.38273558 0.923856854
vn 0.407186568 -0.384365767 0.828530014
vn 0.407125086 0.384338468 0.828572929
vn -0.00157905463 0.382815093 0.923823655
vn 0.383931309 0.842187583 0.378571957
vn -0.00178078923 0.923868299 0.382706285
vn 0.383875877 0.842225671 -0.378543645
vn -0.00191999204 0.923836887 -0.382781506
vn 0.378818393 0.377286971 -0.845074654
vn -0.00191564928 0.382783443 -0.923836172
vn 0.0308009367 -0.382969767 -0.923247278
vn 0.0308079254 0.382018894 -0.923640847
vn 0.0308101233 0.382974118 -0.923245132
vn 0.0307987798 -0.382023454 -0.923639238
vn 0.0307916123 -0.92324543 -0.382974893
vn 0.0307894126 -0.923641682 -0.382018447
vn 0.0307874102 -0.923246145 0.382973671
vn 0.0307852291 -0.923640668 0.382021099
vn 0.030789936 -0.382970244 0.923247337
vn 0.0307877697 -0.382021874 0.92364037
vn 0.0307991039 0.382974625 0.923245251
vn 0.0307968967 0.382017374 0.92364186
vn 0.0308109783 0.923246324 0.382971019
vn 0.0308088288 0.923639059 0.382023185
vn 0.0308152065 0.923245728 -0.3829723
vn 0.0308130253 0.923640072 -0.382020444
vn 0.0308101233 0.382974118 -0.923245132
vn 0.0308079254 0.382018894 -0.923640847
vn -0.844680309 0.379696876 0.377286881
vn -0.923863113 -0.382719636 -0.00162148231
vn -0.844639301 -0.379723877 0.377351671
vn -0.923830688 0.38279745 -0.00176500133
vn -0.377362013 0.849813819 0.367986858
vn -0.382748812 0.923850596 -0.00185358047
vn 0.377365708 0.849806547 0.367999911
vn 0.382739127 0.923854589 -0.0018344979
vn 0.923829436 0.382800609 -0.00171986769
vn 0.8446787 0.379686356 0.377301008
vn 0.844636858 -0.379712611 0.37736842
vn 0.923861802 -0.382723033 -0.00157652562
vn 0.384323031 -0.834258258 0.395359218
vn 0.382771432 -0.923841894 -0.00148868607
vn -0.384321809 -0.834265351 0.39534542
vn -0.382781059 -0.923837781 -0.0015075925
vn -0.844639301 -0.379723877 0.377351671
vn -0.923863113 -0.382719636 -0.00162148231
vn -0.923238933 0.38297087 0.0310344305
vn -0.923636377 -0.382010758 0.0310434066
vn -0.923236191 -0.38297677 0.0310456567
vn -0.923634052 0.382017106 0.0310322419
vn -0.382975042 0.923237503 0.0310271624
vn -0.382012069 0.923636377 0.0310249366
vn 0.382973433 0.923238337 0.0310223196
vn 0.382015705 0.923635066 0.0310201161
vn 0.923239231 0.382971227 0.0310227312
vn 0.923635304 0.382015288 0.031020537
vn 0.92323637 -0.382977158 0.0310339555
vn 0.92363739 -0.382009029 0.0310317036
vn 0.382970542 -0.923238635 0.0310493503
vn 0.382017881 -0.923633218 0.0310471598
vn -0.382972211 -0.923237681 0.0310541838
vn -0.382014275 -0.923634648 0.0310519803
vn -0.923236191 -0.38297677 0.0310456567
vn -0.923636377 -0.382010758 0.0310434066
vn -0.828452885 -0.382033408 -0.409531772
vn -0.923833251 0.3827914 0.00171004585
vn -0.828495264 0.382008642 -0.409469128
vn -0.923864484 -0.382716686 0.00157187809
vn -0.386446714 -0.817297041 -0.427415967
vn -0.382780612 -0.923838079 0.00145841518
vn 0.386432827 -0.817280293 -0.427460581
vn 0.382766962 -0.923843801 0.00143423514
vn 0.923862338 -0.382721871 0.00151482108
vn 0.828421295 -0.382024288 -0.409604132
vn 0.828464568 0.382000595 -0.409538627
vn 0.923831165 0.382796645 0.00165299245
vn 0.379748076 0.834038079 -0.400214821
vn 0.382736027 0.92385602 0.00176725292
vn -0.379761249 0.834052682 -0.400171906
vn -0.382749707 0.923850298 0.00179142924
vn -0.828495264 0.382008642 -0.409469128
vn -0.923833251 0.3827914 0.00171004585
vn -0.923238039 -0.382973433 -0.031031318
vn -0.9236359 0.382012397 -0.0310374163
vn -0.923236489 0.382976443 -0.0310396608
vn -0.923634768 -0.382015526 -0.0310290996
vn -0.382974565 -0.923237622 -0.0310278777
vn -0.382011712 -0.923636496 -0.0310256518
vn 0.382974565 -0.923237622 -0.0310278777
vn 0.382011712 -0.923636496 -0.0310256518
vn 0.923238039 -0.382973373 -0.0310313143
vn 0.923634768 -0.382015496 -0.0310290996
vn 0.923236489 0.382976413 -0.0310396645
vn 0.9236359 0.382012337 -0.03103742
vn 0.382971853 0.923238039 -0.0310516004
vn 0.382013857 0.923634768 -0.0310494006
vn -0.382971853 0.923238039 -0.0310516004
vn -0.382013857 0.923634768 -0.0310494006
vn -0.923236489 0.382976443 -0.0310396608
vn -0.9236359 0.382012397 -0.0310374163
vn 1.43137504E-06 1 -3.59293108E-06
vn 1.43137504E-06 1 -3.59293131E-06
vn 1.43137504E-06 1 -3.59293108E-06
vn 1.43137515E-06 1 -3.59293131E-06
vn 1.43137504E-06 1 -3.59293108E-06
vn 1.43137504E-06 1 -3.59293131E-06
vn 1.43137504E-06 1 -3.59293063E-06
vn 1.43137504E-06 1 -3.59293108E-06
vn -1 -2.2370601E-07 0
vn -1 -2.2370601E-07 0
vn -1 -2.2370601E-07 0
vn -1 -2.2370601E-07 0
vn -1 -2.23705996E-07 0
vn -1 -2.2370601E-07 0
vn -1 -2.23706024E-07 0
vn -1 -2.2370601E-07 0
vn -2.23705896E-07 -3.10660909E-07 -1
vn -2.23705925E-07 -3.10660909E-07 -1
vn -2.23705896E-07 -3.10660937E-07 -1
vn -2.23705896E-07 -3.10660909E-07 -1
vn -2.23705896E-07 -3.1066088E-07 -1
vn -2.23705896E-07 -3.1066088E-07 -1
vn -2.23705925E-07 -3.10660937E-07 -1
vn -2.23705925E-07 -3.10660937E-07 -1
vn 1 -2.06865707E-06 -4.39679525E-06
vn 1 -2.06865707E-06 -4.3967957E-06
vn 1 -2.0686573E-06 -4.3967957E-06
vn 1 -2.0686573E-06 -4.39679616E-06
vn 1 -2.0686573E-06 -4.3967957E-06
vn 1 -2.06865752E-06 -4.3967957E-06
vn 1 -2.06865707E-06 -4.3967957E-06
vn 1 -2.0686573E-06 -4.3967957E-06
vn 4.35506809E-06 -1.20966354E-06 1
vn 4.35506763E-06 -1.20966354E-06 1
vn 4.35506809E-06 -1.20966354E-06 1
vn 4.35506809E-06 -1.20966342E-06 1
vn 4.35506809E-06 -1.20966354E-06 1
vn 4.35506809E-06 -1.20966354E-06 1
vn 4.35506809E-06 -1.20966342E-06 1
vn 4.35506809E-06 -1.20966365E-06 1
vn 0.580083907 -0.768849611 -0.269022286
vn 0.185583338 -0.96496129 0.185495272
vn 0.580043137 -0.768876791 0.2690323
vn 0.27043137 -0.778147399 0.566880524
vn 0.185581386 -0.964928627 -0.185667202
vn 0.2675623 -0.759220123 -0.593291759
vn -0.267549574 -0.759236634 -0.59327656
vn -0.185581625 -0.964961588 0.185495421
vn -0.270429969 -0.778149486 0.566878259
vn -0.580025971 -0.768888652 0.269035578
vn -0.185579583 -0.964928985 -0.185667351
vn -0.580068767 -0.768859088 -0.26902765
vn -0.578267872 0.583652794 0.570048809
vn -0.38388598 0.842208147 0.378572345
vn -0.831410885 0.403868228 0.381636471
vn -0.407115251 0.38433972 0.828577161
vn -0.3850573 0.417713612 0.822949648
vn -0.844680309 0.379696876 0.377286881
vn -0.377362013 0.849813819 0.367986858
vn -0.383828193 0.842247486 -0.378543377
vn -0.378847778 0.377299935 -0.845055759
vn -0.572839081 0.578178167 -0.581003785
vn -0.831455708 0.40379563 -0.381615847
vn -0.828495264 0.382008642 -0.409469128
vn -0.378097385 0.389453679 -0.839861989
vn -0.379761249 0.834052682 -0.400171906
vn -0.411264747 -0.826026499 0.385410875
vn -0.407179207 -0.384365916 0.828533649
vn -0.583683133 -0.572906852 0.575405717
vn -0.580025971 -0.768888652 0.269035578
vn -0.844639301 -0.379723877 0.377351671
vn -0.270429969 -0.778149486 0.566878259
vn -0.384321809 -0.834265351 0.39534542
vn -0.378911883 -0.377327412 -0.845014632
vn -0.41120103 -0.826070189 -0.385385424
vn -0.578124046 -0.567424476 -0.586346447
vn -0.828452885 -0.382033408 -0.409531772
vn -0.580068767 -0.768859088 -0.26902765
vn -0.386446714 -0.817297041 -0.427415967
vn -0.267549574 -0.759236634 -0.59327656
vn 0.578122318 -0.5674119 -0.586360216
vn 0.2675623 -0.759220123 -0.593291759
vn 0.580083907 -0.768849611 -0.269022286
vn 0.411221325 -0.826060116 -0.385385156
vn 0.386432827 -0.817280293 -0.427460581
vn 0.378880084 -0.377315581 -0.845034182
vn 0.828421295 -0.382024288 -0.409604132
vn 0.580043137 -0.768876791 0.2690323
vn 0.27043137 -0.778147399 0.566880524
vn 0.583689511 -0.572901249 0.575404763
vn 0.411286205 -0.826016307 0.385409743
vn 0.384323031 -0.834258258 0.395359218
vn 0.407186568 -0.384365767 0.828530014
vn 0.844636858 -0.379712611 0.37736842
vn 0.379748076 0.834038079 -0.400214821
vn 0.828464568 0.382000595 -0.409538627
vn 0.572843432 0.578164637 -0.581012964
vn 0.378106683 0.389431328 -0.839868128
vn 0.378818393 0.377286971 -0.845074654
vn 0.831480742 0.403757453 -0.381601572
vn 0.383875877 0.842225671 -0.378543645
vn 0.578279912 0.583647132 0.570042431
vn 0.377365708 0.849806547 0.367999911
vn 0.385056973 0.417713225 0.822949946
vn 0.8446787 0.379686356 0.377301008
vn 0.831435919 0.403830081 0.381622255
vn 0.407125086 0.384338468 0.828572929
vn 0.383931309 0.842187583 0.378571957
vn -0.350927085 -0.139540553 -0.925947428
vn -0.345807612 0.154893354 -0.925432384
vn -0.350927502 0.139541611 -0.92594707
vn -0.345806718 -0.154893607 -0.925432742
vn -0.154893711 0.345808774 -0.925431907
vn -0.139541075 -0.350928247 -0.925946951
vn -0.139540046 0.350929409 -0.925946653
vn -0.154891759 -0.345808595 -0.925432324
vn 0.154893711 0.345808774 -0.925431907
vn 0.139540344 -0.350929379 -0.925946534
vn 0.139540046 0.350929409 -0.925946653
vn 0.154894322 -0.345808715 -0.925431788
vn 0.345807612 0.154893354 -0.925432384
vn 0.350928247 -0.139541075 -0.925946951
vn 0.350927502 0.139541611 -0.92594707
vn 0.34580797 -0.154893965 -0.925432205
vn -0.779851615 -0.538726985 0.318754882
vn -0.783344388 0.190241516 0.591759801
vn -0.779852033 0.538727224 0.318753451
vn -0.783344388 -0.190242708 0.591759384
vn -0.190239966 0.783341467 0.591764152
vn -0.538731217 -0.779849827 0.31875205
vn -0.538732111 0.779848933 0.318752795
vn -0.190239862 -0.783343494 0.59176147
vn 0.190241098 0.783341348 0.591764152
vn 0.538728416 -0.779849708 0.318757147
vn 0.538729191 0.779848874 0.318757832
vn 0.190241113 -0.783343375 0.59176141
vn 0.783343673 0.190241531 0.591760755
vn 0.779850185 -0.538726926 0.318758547
vn 0.779850423 0.538727224 0.318757147
vn 0.783343613 -0.190242678 0.591760516
vn -0.462666839 0.18434301 0.867154479
vn -0.45627591 -0.202929422 0.866390169
vn -0.462667733 -0.184343249 0.867154062
vn -0.456275076 0.202929065 0.866390705
vn -0.202929705 -0.45627743 0.866389394
vn -0.184343904 0.462668419 0.867153585
vn -0.184343651 -0.462669373 0.867153049
vn -0.202928081 0.456277132 0.86638993
vn 0.202928916 -0.456277698 0.866389394
vn 0.184344366 0.462668806 0.867153227
vn 0.18434459 -0.462669075 0.867153049
vn 0.202928782 0.45627743 0.866389573
vn 0.456277668 -0.202929333 0.866389275
vn 0.462669283 0.18434383 0.867153168
vn 0.462669432 -0.184343755 0.867153049
vn 0.456277549 0.202929124 0.866389453
vn -0.763042569 0.547944307 -0.342816293
vn -0.738098204 -0.172634423 -0.652233303
vn -0.763041556 -0.547942996 -0.342820793
vn -0.7380988 0.17263402 -0.652232826
vn -0.172631279 -0.738090754 -0.652242601
vn -0.547946215 0.763041019 -0.342816889
vn -0.547945321 -0.76303941 -0.342821956
vn -0.172631785 0.738093674 -0.652239203
vn 0.172634035 -0.738089323 -0.652243495
vn 0.547941089 0.763037384 -0.342833012
vn 0.547940254 -0.763035774 -0.34283796
vn 0.172634467 0.738092244 -0.652240098
vn 0.738091648 -0.172633052 -0.65224123
vn 0.763038337 0.547940671 -0.342831671
vn 0.763037384 -0.54793936 -0.342835933
vn 0.738092124 0.172632635 -0.652240694
vn 0.89063406 -0.168191299 -0.422472119
vn 0.889955282 0.185755149 -0.416502804
vn 0.89063406 0.168191895 -0.422471792
vn 0.889955163 -0.185756087 -0.416502595
vn 0.889955461 0.416502178 -0.185755581
vn 0.890634358 -0.422471523 -0.168191209
vn 0.890634358 0.422471553 -0.168190777
vn 0.88995558 -0.416502327 -0.185755223
vn 0.889955759 0.416501969 0.185755163
vn 0.890634358 -0.422471285 0.168191329
vn 0.890634477 0.422471255 0.168191135
vn 0.88995558 -0.416502059 0.185755461
vn 0.889955461 0.185754836 0.416502684
vn 0.890634 -0.16819112 0.422472268
vn 0.890634179 0.168191671 0.422471732
vn 0.889955163 -0.185755819 0.416502804
vn -0.3188878 -0.53878063 -0.779760182
vn -0.592093647 0.190146044 -0.783115208
vn -0.318889022 0.538780391 -0.779759824
vn -0.592093349 -0.190146402 -0.783115506
vn -0.592096746 0.783113003 -0.190145716
vn -0.318887502 -0.779759824 -0.538781345
vn -0.318890095 0.779758811 -0.538781226
vn -0.592093647 -0.783115268 -0.190146074
vn -0.592095912 0.783113778 0.190145656
vn -0.318881303 -0.779760361 0.538784385
vn -0.318883866 0.779759407 0.538784206
vn -0.592092812 -0.783115923 0.19014594
vn -0.592086732 0.190146595 0.783120394
vn -0.318879843 -0.53878051 0.779763579
vn -0.318881065 0.538780272 0.779763162
vn -0.592086256 -0.190146819 0.783120692
vn 0.164399356 0.895762384 -0.413016409
vn -0.181700066 0.895102918 -0.407155901
vn -0.164398536 0.895760894 -0.413020074
vn 0.181695938 0.895104825 -0.407153606
vn -0.407158554 0.895101666 -0.1817002
vn 0.413016737 0.895762503 -0.164398178
vn -0.413022339 0.895759344 -0.164400861
vn 0.40715301 0.895104825 -0.181697354
vn -0.40715915 0.895101368 0.181699991
vn 0.413017422 0.895762205 0.16439797
vn -0.413022816 0.895759225 0.164400876
vn 0.407153577 0.895104408 0.181697845
vn -0.181700602 0.895102441 0.407156616
vn 0.164400041 0.895761728 0.413017422
vn -0.164399117 0.895760477 0.41302079
vn 0.181696564 0.89510411 0.40715462
vn 0.538336813 -0.317826658 -0.780499697
vn -0.190936074 -0.589345992 -0.78499347
vn -0.538335383 -0.317819148 -0.78050369
vn 0.19093655 -0.589348257 -0.784991622
vn -0.784992933 -0.589346111 -0.190938026
vn 0.780497551 -0.317831278 -0.538337111
vn -0.780499578 -0.317819238 -0.538341284
vn 0.784984171 -0.589358509 -0.190935642
vn -0.784992635 -0.589346349 0.190938443
vn 0.780497313 -0.317835569 0.538334966
vn -0.780499279 -0.317823559 0.538339138
vn 0.784983814 -0.589358866 0.190936089
vn -0.190935969 -0.589349031 0.784991264
vn 0.538336813 -0.317831278 0.78049773
vn -0.538335443 -0.317823827 0.780501842
vn 0.190936461 -0.589351416 0.784989357
vn -0.890661299 0.168171644 -0.422422558
vn -0.889982283 -0.185734615 -0.416454285
vn -0.890661001 -0.168171734 -0.422423005
vn -0.889982581 0.185734361 -0.416453838
vn -0.889982283 -0.416454107 -0.185734957
vn -0.890661418 0.422422349 -0.1681716
vn -0.890661001 -0.422423035 -0.16817157
vn -0.889982641 0.416453719 -0.185734108
vn -0.889982104 -0.416454643 0.185734749
vn -0.890661001 0.422423184 0.168171376
vn -0.890660822 -0.422423452 0.16817151
vn -0.889982283 0.416454285 0.185734615
vn -0.889981806 -0.185735166 0.41645506
vn -0.890660524 0.16817233 0.422423691
vn -0.890660524 -0.1681723 0.42242384
vn -0.889981866 0.185734972 0.416454911
vn 0.318875462 0.538777947 -0.779767156
vn 0.592074573 -0.190150991 -0.7831285
vn 0.318879306 -0.538776875 -0.779766381
vn 0.592074037 0.190150544 -0.783129036
vn 0.59207809 -0.783125877 -0.190150857
vn 0.318875432 0.779764831 -0.538781345
vn 0.318879932 -0.77976346 -0.53878063
vn 0.592074573 0.78312844 -0.190151334
vn 0.592078567 -0.78312552 0.19015123
vn 0.318879843 0.779764533 0.53877914
vn 0.318884254 -0.779763162 0.538778365
vn 0.59207499 0.783128083 0.190151662
vn 0.592078328 -0.190150738 0.783125639
vn 0.318880409 0.538777947 0.779765129
vn 0.318884283 -0.538776934 0.779764175
vn 0.592077851 0.190150261 0.783126235
vn -1 3.3907022E-06 -9.16370027E-06
vn -1 8.13541737E-06 -1.7984778E-06
vn -1 8.33671493E-06 -1.47933213E-06
vn -1 3.39616349E-06 -9.161241E-06
vn -1 1.77542133E-05 2.7942508E-06
vn -1 6.10401003E-06 -3.06321317E-06
vn -1 1.78634255E-05 2.73244677E-06
vn -1 6.2638801E-06 -2.71706949E-06
vn -1 1.99108254E-05 -8.39724908E-06
vn -1 9.01338444E-06 3.32139552E-06
vn -1 1.99927599E-05 -8.14985833E-06
vn -1 9.01960902E-06 3.33094658E-06
vn -1 1.02548638E-05 -1.56531223E-05
vn -1 6.64673234E-06 -5.03273759E-06
vn -1 1.12087382E-05 -1.57970644E-05
vn -1 6.29675878E-06 -6.30756085E-06
vn 1.1071068E-05 4.19276876E-06 -1
vn 3.45225658E-06 7.90765989E-06 -1
vn 3.1062591E-06 8.09901394E-06 -1
vn 1.10828314E-05 4.16659486E-06 -1
vn -2.27919281E-06 1.75253826E-05 -1
vn 3.87203681E-06 8.01763235E-06 -1
vn -2.22878407E-06 1.76396497E-05 -1
vn 3.48344133E-06 8.19710931E-06 -1
vn 8.39725999E-06 1.99108308E-05 -1
vn -4.11566998E-06 1.08946142E-05 -1
vn 8.14985651E-06 1.99927708E-05 -1
vn -4.08870665E-06 1.09195007E-05 -1
vn 1.50568467E-05 1.04451237E-05 -1
vn 3.67904158E-06 7.6274755E-06 -1
vn 1.5283129E-05 1.13727265E-05 -1
vn 4.98241116E-06 7.19607988E-06 -1
vn -6.2457998E-06 1 1.34069987E-05
vn -5.77235551E-06 1 1.33025906E-05
vn 1.79965582E-06 1 5.73058605E-06
vn 1.71142665E-06 1 5.44964041E-06
vn -1.94014319E-05 1 4.36324854E-06
vn -5.73049283E-06 1 1.7996482E-06
vn -1.96059536E-05 1 3.79276298E-06
vn -5.4497068E-06 1 1.71146758E-06
vn -1.14439863E-05 1 -3.59398769E-06
vn -1.33025933E-05 1 9.37171353E-06
vn -1.20341192E-05 1 -3.77931951E-06
vn -1.34070024E-05 1 9.66876451E-06
vn -3.59397291E-06 1 1.14443428E-05
vn -1.13513115E-05 1 1.96064502E-05
vn -3.77929427E-06 1 1.20344639E-05
vn -1.15514313E-05 1 1.94018394E-05
vn 1 7.49495393E-06 1.60883937E-05
vn 1 6.92681124E-06 1.59631018E-05
vn 1 -2.15958903E-06 6.87670581E-06
vn 1 -2.05371043E-06 6.53956158E-06
vn 1 2.20827642E-05 5.61240086E-06
vn 1 6.87658303E-06 2.15957766E-06
vn 1 2.2266393E-05 4.94723827E-06
vn 1 6.53964298E-06 2.05376227E-06
vn 1 1.25338693E-05 -3.93627806E-06
vn 1 1.59631036E-05 1.12460557E-05
vn 1 1.31801844E-05 -4.13925318E-06
vn 1 1.60883974E-05 1.1602513E-05
vn 1 3.93625805E-06 1.25342885E-05
vn 1 1.322565E-05 2.2266986E-05
vn 1 4.13922453E-06 1.31805955E-05
vn 1 1.34852007E-05 2.20832662E-05
vn -1.34069824E-05 6.24577069E-06 1
vn -1.33025724E-05 5.77232549E-06 1
vn -5.7305856E-06 -1.79965548E-06 1
vn -5.44962859E-06 -1.71142278E-06 1
vn -4.19210664E-06 1.99463411E-05 1
vn -1.79964786E-06 5.73048874E-06 1
vn -3.61277898E-06 2.01789553E-05 1
vn -1.71146939E-06 5.44970726E-06 1
vn 3.76514481E-06 1.19889764E-05 1
vn -9.371739E-06 1.33026033E-05 1
vn 3.95927373E-06 1.26071218E-05 1
vn -9.66875996E-06 1.34070051E-05 1
vn -1.19893184E-05 3.76512321E-06 1
vn -2.01795265E-05 1.15312923E-05 1
vn -1.26075147E-05 3.95926099E-06 1
vn -1.9946825E-05 1.17225864E-05 1
g P_Cross_PlusUp_0
f 3/3/3 2/2/2 1/1/1
f 2/2/2 4/4/4 1/1/1
f 2/2/2 5/5/5 4/4/4
f 5/5/5 6/6/6 4/4/4
f 9/9/9 8/8/8 7/7/7
f 10/10/10 9/9/9 7/7/7
f 13/13/13 12/12/12 11/11/11
f 14/14/14 13/13/13 11/11/11
f 17/17/17 16/16/16 15/15/15
f 18/18/18 17/17/17 15/15/15
f 18/18/18 15/15/15 19/19/19
f 20/20/20 18/18/18 19/19/19
f 20/20/20 19/19/19 21/21/21
f 22/22/22 20/20/20 21/21/21
f 25/25/25 24/24/24 23/23/23
f 26/26/26 25/25/25 23/23/23
f 29/29/29 28/28/28 27/27/27
f 30/30/30 29/29/29 27/27/27
f 31/31/31 29/29/29 30/30/30
f 32/32/32 31/31/31 30/30/30
f 35/35/35 34/34/34 33/33/33
f 36/36/36 35/35/35 33/33/33
f 39/39/39 38/38/38 37/37/37
f 40/40/40 39/39/39 37/37/37
f 43/43/43 42/42/42 41/41/41
f 42/42/42 44/44/44 41/41/41
f 41/41/41 44/44/44 45/45/45
f 44/44/44 46/46/46 45/45/45
f 45/45/45 46/46/46 47/47/47
f 46/46/46 48/48/48 47/47/47
f 51/51/51 50/50/50 49/49/49
f 52/52/52 51/51/51 49/49/49
f 55/55/55 54/54/54 53/53/53
f 54/54/54 56/56/56 53/53/53
f 54/54/54 57/57/57 56/56/56
f 57/57/57 58/58/58 56/56/56
f 61/61/61 60/60/60 59/59/59
f 62/62/62 61/61/61 59/59/59
f 65/65/65 64/64/64 63/63/63
f 66/66/66 65/65/65 63/63/63
f 69/69/69 68/68/68 67/67/67
f 70/70/70 69/69/69 67/67/67
f 70/70/70 67/67/67 71/71/71
f 72/72/72 70/70/70 71/71/71
f 72/72/72 71/71/71 73/73/73
f 74/74/74 72/72/72 73/73/73
f 77/77/77 76/76/76 75/75/75
f 78/78/78 77/77/77 75/75/75
f 81/81/81 80/80/80 79/79/79
f 82/82/82 81/81/81 79/79/79
f 83/83/83 81/81/81 82/82/82
f 84/84/84 83/83/83 82/82/82
f 87/87/87 86/86/86 85/85/85
f 88/88/88 87/87/87 85/85/85
f 91/91/91 90/90/90 89/89/89
f 92/92/92 91/91/91 89/89/89
f 95/95/95 94/94/94 93/93/93
f 94/94/94 96/96/96 93/93/93
f 93/93/93 96/96/96 97/97/97
f 96/96/96 98/98/98 97/97/97
f 97/97/97 98/98/98 99/99/99
f 98/98/98 100/100/100 99/99/99
f 103/103/103 102/102/102 101/101/101
f 104/104/104 103/103/103 101/101/101
f 107/107/107 106/106/106 105/105/105
f 108/108/108 107/107/107 105/105/105
f 109/109/109 107/107/107 108/108/108
f 110/110/110 109/109/109 108/108/108
f 113/113/113 112/112/112 111/111/111
f 114/114/114 113/113/113 111/111/111
f 117/117/117 116/116/116 115/115/115
f 118/118/118 117/117/117 115/115/115
f 121/121/121 120/120/120 119/119/119
f 120/120/120 122/122/122 119/119/119
f 119/119/119 122/122/122 123/123/123
f 122/122/122 124/124/124 123/123/123
f 123/123/123 124/124/124 125/125/125
f 124/124/124 126/126/126 125/125/125
f 129/129/129 128/128/128 127/127/127
f 130/130/130 129/129/129 127/127/127
f 133/133/133 132/132/132 131/131/131
f 132/132/132 134/134/134 131/131/131
f 135/135/135 131/131/131 134/134/134
f 136/136/136 135/135/135 134/134/134
f 135/135/135 136/136/136 137/137/137
f 136/136/136 138/138/138 137/137/137
f 138/138/138 139/139/139 137/137/137
f 139/139/139 140/140/140 137/137/137
f 140/140/140 139/139/139 141/141/141
f 139/139/139 142/142/142 141/141/141
f 143/143/143 141/141/141 142/142/142
f 144/144/144 143/143/143 142/142/142
f 143/143/143 144/144/144 145/145/145
f 144/144/144 146/146/146 145/145/145
f 147/147/147 145/145/145 146/146/146
f 148/148/148 147/147/147 146/146/146
f 151/151/151 150/150/150 149/149/149
f 152/152/152 151/151/151 149/149/149
f 155/155/155 154/154/154 153/153/153
f 156/156/156 155/155/155 153/153/153
f 159/159/159 158/158/158 157/157/157
f 160/160/160 159/159/159 157/157/157
f 163/163/163 162/162/162 161/161/161
f 164/164/164 163/163/163 161/161/161
f 167/167/167 166/166/166 165/165/165
f 168/168/168 167/167/167 165/165/165
f 171/171/171 170/170/170 169/169/169
f 172/172/172 171/171/171 169/169/169
f 175/175/175 174/174/174 173/173/173
f 176/176/176 175/175/175 173/173/173
f 179/179/179 178/178/178 177/177/177
f 180/180/180 179/179/179 177/177/177
f 183/183/183 182/182/182 181/181/181
f 184/184/184 183/183/183 181/181/181
f 187/187/187 186/186/186 185/185/185
f 188/188/188 187/187/187 185/185/185
f 191/191/191 190/190/190 189/189/189
f 192/192/192 191/191/191 189/189/189
f 195/195/195 194/194/194 193/193/193
f 196/196/196 195/195/195 193/193/193
f 199/199/199 198/198/198 197/197/197
f 198/198/198 200/200/200 197/197/197
f 197/197/197 200/200/200 201/201/201
f 200/200/200 202/202/202 201/201/201
f 201/201/201 202/202/202 203/203/203
f 202/202/202 204/204/204 203/203/203
f 203/203/203 204/204/204 205/205/205
f 204/204/204 206/206/206 205/205/205
f 205/205/205 206/206/206 207/207/207
f 206/206/206 208/208/208 207/207/207
f 207/207/207 208/208/208 209/209/209
f 208/208/208 210/210/210 209/209/209
f 209/209/209 210/210/210 211/211/211
f 210/210/210 212/212/212 211/211/211
f 211/211/211 212/212/212 213/213/213
f 212/212/212 214/214/214 213/213/213
f 217/217/217 216/216/216 215/215/215
f 216/216/216 218/218/218 215/215/215
f 219/219/219 215/215/215 218/218/218
f 220/220/220 219/219/219 218/218/218
f 219/219/219 220/220/220 221/221/221
f 220/220/220 222/222/222 221/221/221
f 222/222/222 223/223/223 221/221/221
f 223/223/223 224/224/224 221/221/221
f 224/224/224 223/223/223 225/225/225
f 223/223/223 226/226/226 225/225/225
f 227/227/227 225/225/225 226/226/226
f 228/228/228 227/227/227 226/226/226
f 227/227/227 228/228/228 229/229/229
f 228/228/228 230/230/230 229/229/229
f 231/231/231 229/229/229 230/230/230
f 232/232/232 231/231/231 230/230/230
f 235/235/235 234/234/234 233/233/233
f 234/234/234 236/236/236 233/233/233
f 233/233/233 236/236/236 237/237/237
f 236/236/236 238/238/238 237/237/237
f 237/237/237 238/238/238 239/239/239
f 238/238/238 240/240/240 239/239/239
f 239/239/239 240/240/240 241/241/241
f 240/240/240 242/242/242 241/241/241
f 241/241/241 242/242/242 243/243/243
f 242/242/242 244/244/244 243/243/243
f 243/243/243 244/244/244 245/245/245
f 244/244/244 246/246/246 245/245/245
f 245/245/245 246/246/246 247/247/247
f 246/246/246 248/248/248 247/247/247
f 247/247/247 248/248/248 249/249/249
f 248/248/248 250/250/250 249/249/249
f 253/253/253 252/252/252 251/251/251
f 252/252/252 254/254/254 251/251/251
f 255/255/255 251/251/251 254/254/254
f 256/256/256 255/255/255 254/254/254
f 255/255/255 256/256/256 257/257/257
f 256/256/256 258/258/258 257/257/257
f 258/258/258 259/259/259 257/257/257
f 259/259/259 260/260/260 257/257/257
f 260/260/260 259/259/259 261/261/261
f 259/259/259 262/262/262 261/261/261
f 263/263/263 261/261/261 262/262/262
f 264/264/264 263/263/263 262/262/262
f 263/263/263 264/264/264 265/265/265
f 264/264/264 266/266/266 265/265/265
f 267/267/267 265/265/265 266/266/266
f 268/268/268 267/267/267 266/266/266
f 271/271/271 270/270/270 269/269/269
f 270/270/270 272/272/272 269/269/269
f 269/269/269 272/272/272 273/273/273
f 272/272/272 274/274/274 273/273/273
f 273/273/273 274/274/274 275/275/275
f 274/274/274 276/276/276 275/275/275
f 275/275/275 276/276/276 277/277/277
f 276/276/276 278/278/278 277/277/277
f 277/277/277 278/278/278 279/279/279
f 278/278/278 280/280/280 279/279/279
f 279/279/279 280/280/280 281/281/281
f 280/280/280 282/282/282 281/281/281
f 281/281/281 282/282/282 283/283/283
f 282/282/282 284/284/284 283/283/283
f 283/283/283 284/284/284 285/285/285
f 284/284/284 286/286/286 285/285/285
f 289/289/289 288/288/288 287/287/287
f 288/288/288 290/290/290 287/287/287
f 291/291/291 287/287/287 290/290/290
f 292/292/292 291/291/291 290/290/290
f 291/291/291 292/292/292 293/293/293
f 292/292/292 294/294/294 293/293/293
f 294/294/294 295/295/295 293/293/293
f 295/295/295 296/296/296 293/293/293
f 296/296/296 295/295/295 297/297/297
f 295/295/295 298/298/298 297/297/297
f 299/299/299 297/297/297 298/298/298
f 300/300/300 299/299/299 298/298/298
f 299/299/299 300/300/300 301/301/301
f 300/300/300 302/302/302 301/301/301
f 303/303/303 301/301/301 302/302/302
f 304/304/304 303/303/303 302/302/302
f 307/307/307 306/306/306 305/305/305
f 306/306/306 308/308/308 305/305/305
f 305/305/305 308/308/308 309/309/309
f 308/308/308 310/310/310 309/309/309
f 309/309/309 310/310/310 311/311/311
f 310/310/310 312/312/312 311/311/311
f 311/311/311 312/312/312 313/313/313
f 312/312/312 314/314/314 313/313/313
f 313/313/313 314/314/314 315/315/315
f 314/314/314 316/316/316 315/315/315
f 315/315/315 316/316/316 317/317/317
f 316/316/316 318/318/318 317/317/317
f 317/317/317 318/318/318 319/319/319
f 318/318/318 320/320/320 319/319/319
f 319/319/319 320/320/320 321/321/321
f 320/320/320 322/322/322 321/321/321
f 325/325/325 324/324/324 323/323/323
f 324/324/324 326/326/326 323/323/323
f 327/327/327 323/323/323 326/326/326
f 328/328/328 327/327/327 326/326/326
f 327/327/327 328/328/328 329/329/329
f 328/328/328 330/330/330 329/329/329
f 330/330/330 331/331/331 329/329/329
f 331/331/331 332/332/332 329/329/329
f 332/332/332 331/331/331 333/333/333
f 331/331/331 334/334/334 333/333/333
f 335/335/335 333/333/333 334/334/334
f 336/336/336 335/335/335 334/334/334
f 335/335/335 336/336/336 337/337/337
f 336/336/336 338/338/338 337/337/337
f 339/339/339 337/337/337 338/338/338
f 340/340/340 339/339/339 338/338/338
f 343/343/343 342/342/342 341/341/341
f 342/342/342 344/344/344 341/341/341
f 341/341/341 344/344/344 345/345/345
f 344/344/344 346/346/346 345/345/345
f 345/345/345 346/346/346 347/347/347
f 346/346/346 348/348/348 347/347/347
f 347/347/347 348/348/348 349/349/349
f 348/348/348 350/350/350 349/349/349
f 349/349/349 350/350/350 351/351/351
f 350/350/350 352/352/352 351/351/351
f 351/351/351 352/352/352 353/353/353
f 352/352/352 354/354/354 353/353/353
f 353/353/353 354/354/354 355/355/355
f 354/354/354 356/356/356 355/355/355
f 355/355/355 356/356/356 357/357/357
f 356/356/356 358/358/358 357/357/357
f 361/361/361 360/360/360 359/359/359
f 359/359/359 362/362/362 361/361/361
f 359/359/359 363/363/363 362/362/362
f 359/359/359 364/364/364 363/363/363
f 364/364/364 365/365/365 363/363/363
f 365/365/365 366/366/366 363/363/363
f 369/369/369 368/368/368 367/367/367
f 367/367/367 370/370/370 369/369/369
f 367/367/367 371/371/371 370/370/370
f 371/371/371 372/372/372 370/370/370
f 371/371/371 373/373/373 372/372/372
f 371/371/371 374/374/374 373/373/373
f 377/377/377 376/376/376 375/375/375
f 375/375/375 378/378/378 377/377/377
f 375/375/375 379/379/379 378/378/378
f 375/375/375 380/380/380 379/379/379
f 380/380/380 381/381/381 379/379/379
f 380/380/380 382/382/382 381/381/381
f 385/385/385 384/384/384 383/383/383
f 383/383/383 386/386/386 385/385/385
f 386/386/386 387/387/387 385/385/385
f 387/387/387 388/388/388 385/385/385
f 387/387/387 389/389/389 388/388/388
f 389/389/389 390/390/390 388/388/388
f 393/393/393 392/392/392 391/391/391
f 391/391/391 394/394/394 393/393/393
f 391/391/391 395/395/395 394/394/394
f 391/391/391 396/396/396 395/395/395
f 396/396/396 397/397/397 395/395/395
f 397/397/397 398/398/398 395/395/395
f 401/401/401 400/400/400 399/399/399
f 402/402/402 400/400/400 401/401/401
f 400/400/400 403/403/403 399/399/399
f 399/399/399 403/403/403 404/404/404
f 404/404/404 403/403/403 405/405/405
f 406/406/406 400/400/400 402/402/402
f 403/403/403 400/400/400 406/406/406
f 407/407/407 406/406/406 402/402/402
f 408/408/408 406/406/406 407/407/407
f 403/403/403 409/409/409 405/405/405
f 409/409/409 403/403/403 406/406/406
f 409/409/409 406/406/406 408/408/408
f 405/405/405 409/409/409 410/410/410
f 410/410/410 409/409/409 408/408/408
f 413/413/413 412/412/412 411/411/411
f 411/411/411 412/412/412 414/414/414
f 411/411/411 415/415/415 413/413/413
f 416/416/416 411/411/411 414/414/414
f 415/415/415 411/411/411 417/417/417
f 416/416/416 417/417/417 411/411/411
f 420/420/420 419/419/419 418/418/418
f 421/421/421 420/420/420 418/418/418
f 419/419/419 420/420/420 422/422/422
f 420/420/420 421/421/421 423/423/423
f 424/424/424 422/422/422 420/420/420
f 423/423/423 424/424/424 420/420/420
f 427/427/427 426/426/426 425/425/425
f 425/425/425 428/428/428 427/427/427
f 426/426/426 427/427/427 429/429/429
f 427/427/427 428/428/428 430/430/430
f 427/427/427 431/431/431 429/429/429
f 427/427/427 430/430/430 431/431/431
f 434/434/434 433/433/433 432/432/432
f 435/435/435 434/434/434 432/432/432
f 433/433/433 434/434/434 436/436/436
f 434/434/434 435/435/435 437/437/437
f 434/434/434 438/438/438 436/436/436
f 437/437/437 438/438/438 434/434/434
f 441/441/441 440/440/440 439/439/439
f 441/441/441 439/439/439 442/442/442
f 443/443/443 439/439/439 440/440/440
f 439/439/439 444/444/444 442/442/442
f 439/439/439 443/443/443 445/445/445
f 445/445/445 444/444/444 439/439/439
f 448/448/448 447/447/447 446/446/446
f 449/449/449 448/448/448 446/446/446
f 448/448/448 450/450/450 447/447/447
f 448/448/448 449/449/449 451/451/451
f 448/448/448 452/452/452 450/450/450
f 451/451/451 452/452/452 448/448/448
f 455/455/455 454/454/454 453/453/453
f 456/456/456 455/455/455 453/453/453
f 454/454/454 455/455/455 457/457/457
f 455/455/455 456/456/456 458/458/458
f 455/455/455 459/459/459 457/457/457
f 458/458/458 459/459/459 455/455/455
f 462/462/462 461/461/461 460/460/460
f 460/460/460 461/461/461 463/463/463
f 460/460/460 464/464/464 462/462/462
f 465/465/465 460/460/460 463/463/463
f 464/464/464 460/460/460 466/466/466
f 460/460/460 465/465/465 466/466/466
f 469/469/469 468/468/468 467/467/467
f 468/468/468 470/470/470 467/467/467
f 471/471/471 468/468/468 469/469/469
f 467/467/467 470/470/470 472/472/472
f 473/473/473 471/471/471 469/469/469
f 470/470/470 474/474/474 472/472/472
f 475/475/475 471/471/471 473/473/473
f 472/472/472 474/474/474 476/476/476
f 477/477/477 475/475/475 473/473/473
f 474/474/474 478/478/478 476/476/476
f 479/479/479 475/475/475 477/477/477
f 476/476/476 478/478/478 480/480/480
f 481/481/481 479/479/479 477/477/477
f 478/478/478 482/482/482 480/480/480
f 482/482/482 479/479/479 481/481/481
f 480/480/480 482/482/482 481/481/481
f 485/485/485 484/484/484 483/483/483
f 484/484/484 486/486/486 483/483/483
f 487/487/487 484/484/484 485/485/485
f 483/483/483 486/486/486 488/488/488
f 489/489/489 487/487/487 485/485/485
f 486/486/486 490/490/490 488/488/488
f 491/491/491 487/487/487 489/489/489
f 488/488/488 490/490/490 492/492/492
f 493/493/493 491/491/491 489/489/489
f 490/490/490 494/494/494 492/492/492
f 495/495/495 491/491/491 493/493/493
f 492/492/492 494/494/494 496/496/496
f 497/497/497 495/495/495 493/493/493
f 494/494/494 498/498/498 496/496/496
f 498/498/498 495/495/495 497/497/497
f 496/496/496 498/498/498 497/497/497
f 501/501/501 500/500/500 499/499/499
f 500/500/500 502/502/502 499/499/499
f 503/503/503 500/500/500 501/501/501
f 499/499/499 502/502/502 504/504/504
f 505/505/505 503/503/503 501/501/501
f 502/502/502 506/506/506 504/504/504
f 507/507/507 503/503/503 505/505/505
f 504/504/504 506/506/506 508/508/508
f 509/509/509 507/507/507 505/505/505
f 506/506/506 510/510/510 508/508/508
f 511/511/511 507/507/507 509/509/509
f 508/508/508 510/510/510 512/512/512
f 513/513/513 511/511/511 509/509/509
f 510/510/510 514/514/514 512/512/512
f 514/514/514 511/511/511 513/513/513
f 512/512/512 514/514/514 513/513/513
f 517/517/517 516/516/516 515/515/515
f 516/516/516 518/518/518 515/515/515
f 519/519/519 516/516/516 517/517/517
f 515/515/515 518/518/518 520/520/520
f 521/521/521 519/519/519 517/517/517
f 518/518/518 522/522/522 520/520/520
f 523/523/523 519/519/519 521/521/521
f 520/520/520 522/522/522 524/524/524
f 525/525/525 523/523/523 521/521/521
f 522/522/522 526/526/526 524/524/524
f 527/527/527 523/523/523 525/525/525
f 524/524/524 526/526/526 528/528/528
f 529/529/529 527/527/527 525/525/525
f 526/526/526 530/530/530 528/528/528
f 530/530/530 527/527/527 529/529/529
f 528/528/528 530/530/530 529/529/529
f 533/533/533 532/532/532 531/531/531
f 532/532/532 534/534/534 531/531/531
f 535/535/535 532/532/532 533/533/533
f 531/531/531 534/534/534 536/536/536
f 537/537/537 535/535/535 533/533/533
f 534/534/534 538/538/538 536/536/536
f 539/539/539 535/535/535 537/537/537
f 536/536/536 538/538/538 540/540/540
f 541/541/541 539/539/539 537/537/537
f 538/538/538 542/542/542 540/540/540
f 543/543/543 539/539/539 541/541/541
f 540/540/540 542/542/542 544/544/544
f 545/545/545 543/543/543 541/541/541
f 542/542/542 546/546/546 544/544/544
f 546/546/546 543/543/543 545/545/545
f 544/544/544 546/546/546 545/545/545
f 549/549/549 548/548/548 547/547/547
f 548/548/548 550/550/550 547/547/547
f 551/551/551 548/548/548 549/549/549
f 547/547/547 550/550/550 552/552/552
f 553/553/553 551/551/551 549/549/549
f 550/550/550 554/554/554 552/552/552
f 555/555/555 551/551/551 553/553/553
f 552/552/552 554/554/554 556/556/556
f 557/557/557 555/555/555 553/553/553
f 554/554/554 558/558/558 556/556/556
f 559/559/559 555/555/555 557/557/557
f 556/556/556 558/558/558 560/560/560
f 561/561/561 559/559/559 557/557/557
f 558/558/558 562/562/562 560/560/560
f 562/562/562 559/559/559 561/561/561
f 560/560/560 562/562/562 561/561/561
f 565/565/565 564/564/564 563/563/563
f 564/564/564 566/566/566 563/563/563
f 567/567/567 564/564/564 565/565/565
f 563/563/563 566/566/566 568/568/568
f 569/569/569 567/567/567 565/565/565
f 566/566/566 570/570/570 568/568/568
f 571/571/571 567/567/567 569/569/569
f 568/568/568 570/570/570 572/572/572
f 573/573/573 571/571/571 569/569/569
f 570/570/570 574/574/574 572/572/572
f 575/575/575 571/571/571 573/573/573
f 572/572/572 574/574/574 576/576/576
f 577/577/577 575/575/575 573/573/573
f 574/574/574 578/578/578 576/576/576
f 578/578/578 575/575/575 577/577/577
f 576/576/576 578/578/578 577/577/577
f 581/581/581 580/580/580 579/579/579
f 580/580/580 582/582/582 579/579/579
f 583/583/583 580/580/580 581/581/581
f 579/579/579 582/582/582 584/584/584
f 585/585/585 583/583/583 581/581/581
f 582/582/582 586/586/586 584/584/584
f 587/587/587 583/583/583 585/585/585
f 584/584/584 586/586/586 588/588/588
f 589/589/589 587/587/587 585/585/585
f 586/586/586 590/590/590 588/588/588
f 591/591/591 587/587/587 589/589/589
f 588/588/588 590/590/590 592/592/592
f 593/593/593 591/591/591 589/589/589
f 590/590/590 594/594/594 592/592/592
f 594/594/594 591/591/591 593/593/593
f 592/592/592 594/594/594 593/593/593
f 597/597/597 596/596/596 595/595/595
f 596/596/596 598/598/598 595/595/595
f 599/599/599 596/596/596 597/597/597
f 595/595/595 598/598/598 600/600/600
f 601/601/601 599/599/599 597/597/597
f 598/598/598 602/602/602 600/600/600
f 603/603/603 599/599/599 601/601/601
f 600/600/600 602/602/602 604/604/604
f 605/605/605 603/603/603 601/601/601
f 602/602/602 606/606/606 604/604/604
f 607/607/607 603/603/603 605/605/605
f 604/604/604 606/606/606 608/608/608
f 609/609/609 607/607/607 605/605/605
f 606/606/606 610/610/610 608/608/608
f 610/610/610 607/607/607 609/609/609
f 608/608/608 610/610/610 609/609/609
f 613/613/613 612/612/612 611/611/611
f 612/612/612 614/614/614 611/611/611
f 615/615/615 612/612/612 613/613/613
f 611/611/611 614/614/614 616/616/616
f 617/617/617 615/615/615 613/613/613
f 614/614/614 618/618/618 616/616/616
f 619/619/619 615/615/615 617/617/617
f 616/616/616 618/618/618 620/620/620
f 621/621/621 619/619/619 617/617/617
f 618/618/618 622/622/622 620/620/620
f 623/623/623 619/619/619 621/621/621
f 620/620/620 622/622/622 624/624/624
f 625/625/625 623/623/623 621/621/621
f 622/622/622 626/626/626 624/624/624
f 626/626/626 623/623/623 625/625/625
f 624/624/624 626/626/626 625/625/625
f 629/629/629 628/628/628 627/627/627
f 628/628/628 630/630/630 627/627/627
f 631/631/631 628/628/628 629/629/629
f 627/627/627 630/630/630 632/632/632
f 633/633/633 631/631/631 629/629/629
f 630/630/630 634/634/634 632/632/632
f 635/635/635 631/631/631 633/633/633
f 632/632/632 634/634/634 636/636/636
f 637/637/637 635/635/635 633/633/633
f 634/634/634 638/638/638 636/636/636
f 639/639/639 635/635/635 637/637/637
f 636/636/636 638/638/638 640/640/640
f 641/641/641 639/639/639 637/637/637
f 638/638/638 642/642/642 640/640/640
f 642/642/642 639/639/639 641/641/641
f 640/640/640 642/642/642 641/641/641
f 645/645/645 644/644/644 643/643/643
f 644/644/644 646/646/646 643/643/643
f 647/647/647 644/644/644 645/645/645
f 643/643/643 646/646/646 648/648/648
f 649/649/649 647/647/647 645/645/645
f 646/646/646 650/650/650 648/648/648
f 651/651/651 647/647/647 649/649/649
f 648/648/648 650/650/650 652/652/652
f 653/653/653 651/651/651 649/649/649
f 650/650/650 654/654/654 652/652/652
f 655/655/655 651/651/651 653/653/653
f 652/652/652 654/654/654 656/656/656
f 657/657/657 655/655/655 653/653/653
f 654/654/654 658/658/658 656/656/656
f 658/658/658 655/655/655 657/657/657
f 656/656/656 658/658/658 657/657/657
f 661/661/661 660/660/660 659/659/659
f 662/662/662 661/661/661 659/659/659
f 659/659/659 660/660/660 663/663/663
f 664/664/664 661/661/661 662/662/662
f 660/660/660 665/665/665 663/663/663
f 666/666/666 664/664/664 662/662/662
f 663/663/663 665/665/665 667/667/667
f 668/668/668 664/664/664 666/666/666
f 665/665/665 669/669/669 667/667/667
f 670/670/670 668/668/668 666/666/666
f 667/667/667 669/669/669 671/671/671
f 672/672/672 668/668/668 670/670/670
f 669/669/669 673/673/673 671/671/671
f 674/674/674 672/672/672 670/670/670
f 671/671/671 673/673/673 674/674/674
f 673/673/673 672/672/672 674/674/674
f 677/677/677 676/676/676 675/675/675
f 678/678/678 677/677/677 675/675/675
f 675/675/675 676/676/676 679/679/679
f 680/680/680 677/677/677 678/678/678
f 676/676/676 681/681/681 679/679/679
f 682/682/682 680/680/680 678/678/678
f 679/679/679 681/681/681 683/683/683
f 684/684/684 680/680/680 682/682/682
f 681/681/681 685/685/685 683/683/683
f 686/686/686 684/684/684 682/682/682
f 683/683/683 685/685/685 687/687/687
f 688/688/688 684/684/684 686/686/686
f 685/685/685 689/689/689 687/687/687
f 690/690/690 688/688/688 686/686/686
f 687/687/687 689/689/689 690/690/690
f 689/689/689 688/688/688 690/690/690
f 693/693/693 692/692/692 691/691/691
f 694/694/694 693/693/693 691/691/691
f 691/691/691 692/692/692 695/695/695
f 696/696/696 693/693/693 694/694/694
f 692/692/692 697/697/697 695/695/695
f 698/698/698 696/696/696 694/694/694
f 695/695/695 697/697/697 699/699/699
f 700/700/700 696/696/696 698/698/698
f 697/697/697 701/701/701 699/699/699
f 702/702/702 700/700/700 698/698/698
f 699/699/699 701/701/701 703/703/703
f 704/704/704 700/700/700 702/702/702
f 701/701/701 705/705/705 703/703/703
f 706/706/706 704/704/704 702/702/702
f 703/703/703 705/705/705 706/706/706
f 705/705/705 704/704/704 706/706/706
