g P_Bend_B
v 0.0630043373 -0.315964669 0.0630307347
v 0.0344580226 -0.344510645 0.0630307347
v 0.0630043373 -0.344510674 0.0344847105
v 0.0344580226 -0.218503013 0.0630307496
v 0.0630043373 -0.247049138 0.0630307496
v 0.0630043373 -0.218503013 0.034484718
v -0.063003473 -0.247048929 0.0630307347
v -0.0344575383 -0.218503013 0.0630307496
v -0.063003473 -0.21850279 0.034484718
v -0.0344575383 -0.344510645 0.0630307347
v -0.063003473 -0.31596449 0.0630307347
v -0.063003473 -0.344510406 0.0344847105
v -0.063003473 -0.315964401 -0.0629770681
v -0.0344575383 -0.344510615 -0.0629771575
v -0.063003473 -0.344510406 -0.0344309434
v -0.0344575383 -0.218502939 -0.0629770681
v -0.063003473 -0.247048885 -0.0629770681
v -0.063003473 -0.21850279 -0.0344309434
v 0.0630043373 -0.247049078 -0.0629769713
v 0.0344580226 -0.218502939 -0.0629770681
v 0.0630043373 -0.218503013 -0.0344308428
v 0.0344580226 -0.344510615 -0.0629771575
v 0.0630043373 -0.315964609 -0.0629769713
v 0.0630043373 -0.344510674 -0.0344309434
v 0.039210476 -0.366866529 0.499999076
v 0.0392106809 -0.366891086 0.218748972
v -0.0392101407 -0.366891176 0.218748465
v -0.0392103456 -0.366866678 0.499998659
v -0.0856159776 -0.320484877 0.218748465
v -0.0856164545 -0.32046026 0.499998659
v 0.0856165737 -0.32046032 0.499999136
v 0.0856167898 -0.320484906 0.218748942
v 0.0392106809 -0.366891086 0.218748972
v 0.039210476 -0.366866529 0.499999076
v 0.0856167227 -0.242039219 0.499998659
v 0.0856169239 -0.242063805 0.218748465
v 0.0856167898 -0.320484906 0.218748942
v 0.0856165737 -0.32046032 0.499999136
v 0.0392107405 -0.195632994 0.499998033
v 0.0856169239 -0.242063805 0.218748465
v 0.0856167227 -0.242039219 0.499998659
v 0.0392109416 -0.195657611 0.218747899
v -0.0392104685 -0.195632994 0.499998629
v -0.0392102748 -0.195657611 0.218748465
v -0.0856164545 -0.242039561 0.499998629
v -0.0856159776 -0.242064148 0.218748465
v -0.0856164545 -0.32046026 0.499998659
v -0.0856159776 -0.320484877 0.218748465
v -0.0856159776 -0.242064148 0.218748465
v -0.0856164545 -0.242039561 0.499998629
v -0.0640856028 -0.310599536 0.499998659
v -0.0641306266 -0.310643524 0.218748465
v -0.0293706618 -0.34540236 0.218748465
v -0.0293500125 -0.345335603 0.499998659
v 0.0293708965 -0.345402151 0.218748465
v 0.0293500274 -0.345335424 0.499998659
v 0.0641312674 -0.310643524 0.218748465
v 0.06408602 -0.310599625 0.499998659
v -0.0640853569 -0.251900047 0.499999106
v -0.0641303584 -0.251905292 0.218748972
v -0.0641306266 -0.310643524 0.218748465
v -0.0640856028 -0.310599536 0.499998659
v -0.0293497574 -0.217164189 0.499999106
v -0.0641303584 -0.251905292 0.218748972
v -0.0640853569 -0.251900047 0.499999106
v -0.0293703973 -0.217146561 0.218748972
v 0.0293496307 -0.217164338 0.499998629
v 0.0293705035 -0.21714668 0.218748465
v 0.06408602 -0.251900107 0.499998033
v 0.0641312674 -0.251905322 0.218747899
v 0.06408602 -0.310599625 0.499998659
v 0.0641312674 -0.310643524 0.218748465
v 0.0641312674 -0.251905322 0.218747899
v 0.06408602 -0.251900107 0.499998033
v 0.0852342397 0.500000358 -0.0392111763
v 0.0852588043 -0.0628826916 -0.0392113663
v 0.0852589384 -0.0628832206 0.0392094254
v 0.0852343738 0.499999911 0.039209716
v 0.038852606 -0.0628832206 0.0856154114
v 0.0388280004 0.499999911 0.0856157988
v 0.0388280675 0.500000358 -0.0856172517
v 0.038852673 -0.0628826916 -0.0856174454
v 0.0852588043 -0.0628826916 -0.0392113663
v 0.0852342397 0.500000358 -0.0392111763
v -0.0395930521 0.499999911 -0.0856173486
v -0.0395684429 -0.0628832206 -0.0856175423
v 0.038852673 -0.0628826916 -0.0856174454
v 0.0388280675 0.500000358 -0.0856172517
v -0.0859992355 0.499999374 -0.0392114632
v -0.0395684429 -0.0628832206 -0.0856175423
v -0.0395930521 0.499999911 -0.0856173486
v -0.0859746411 -0.0628837422 -0.0392116569
v -0.0859992355 0.499999911 0.039209716
v -0.0859746411 -0.0628832206 0.0392095223
v -0.0395927131 0.499999911 0.0856157988
v -0.0395681001 -0.0628832206 0.0856154114
v 0.0388280004 0.499999911 0.0856157988
v 0.038852606 -0.0628832206 0.0856154114
v -0.0395681001 -0.0628832206 0.0856154114
v -0.0395927131 0.499999911 0.0856157988
v 0.0289672948 0.499999911 0.0640849471
v 0.0290112346 -0.0628832206 0.0641300976
v 0.0637700856 -0.0628832206 0.0293700062
v 0.0637033507 0.499999911 0.0293493643
v 0.0637698919 -0.0628832206 -0.0293715596
v 0.063703157 0.499999911 -0.0293506235
v 0.0290113017 -0.0628832206 -0.0641318411
v 0.02896736 0.499999911 -0.0640866831
v -0.0297322311 0.500000358 0.0640847459
v -0.0297269877 -0.0628826916 0.0641297027
v 0.0290112346 -0.0628832206 0.0641300976
v 0.0289672948 0.499999911 0.0640849471
v -0.0644680932 0.500000358 0.0293490794
v -0.0297269877 -0.0628826916 0.0641297027
v -0.0297322311 0.500000358 0.0640847459
v -0.0644857213 -0.0628826916 0.0293697156
v -0.0644679591 0.499999911 -0.0293502416
v -0.0644855872 -0.0628832206 -0.0293711703
v -0.0297321472 0.499999374 -0.0640866831
v -0.0297269281 -0.0628837496 -0.0641318411
v 0.02896736 0.499999911 -0.0640866831
v 0.0290113017 -0.0628832206 -0.0641318411
v -0.0297269281 -0.0628837496 -0.0641318411
v -0.0297321472 0.499999374 -0.0640866831
v -0.0605410226 -0.192086175 0.0950464234
v -0.0894092172 -0.220954314 0.0950464308
v -0.0819166526 -0.199578583 0.0819324926
v -0.0946478546 -0.220954314 0.0894248635
v -0.0946478546 -0.19208619 0.06055687
v -0.0894092172 -0.187088624 0.06055687
v -0.0605410226 -0.187088594 0.0894248635
v -0.0605410226 -0.192086175 0.0950464234
v 0.0605415031 -0.376645714 -0.0893939063
v 0.0605415031 -0.376645893 -0.0893939063
v 0.0894095078 -0.376645774 -0.0605258532
v 0.0819173306 -0.363412619 -0.0819015354
v 0.0605415031 -0.370904922 -0.0942664295
v 0.0946483389 -0.370904922 -0.0605258532
v 0.0894095078 -0.342036843 -0.0942664295
v 0.0946483389 -0.342036903 -0.0893939063
v -0.0894092172 -0.376645774 0.06055687
v -0.0894092172 -0.376645774 -0.0605258532
v -0.0946478546 -0.370904922 -0.0605258532
v -0.0946478546 -0.370904922 0.06055687
v -0.0605410226 -0.376645714 -0.0893939063
v 0.0605415031 -0.376645714 -0.0893939063
v 0.0605415031 -0.370904922 -0.0942664295
v -0.0605410226 -0.370904922 -0.0942664295
v 0.0894095078 -0.376645774 -0.0605258532
v 0.0894095078 -0.376645774 0.06055687
v 0.0946483389 -0.370904922 0.06055687
v 0.0946483389 -0.370904922 -0.0605258532
v 0.0605415031 -0.376645774 0.0894248784
v -0.0605410226 -0.376645774 0.0894248784
v -0.0605410226 -0.370904922 0.0950464234
v 0.0605415031 -0.370904922 0.0950464234
v -0.0605410226 -0.187088594 0.0894248635
v 0.0605415031 -0.187088594 0.0894248635
v 0.0605415031 -0.192086175 0.0950464234
v -0.0605410226 -0.192086175 0.0950464234
v 0.0894095078 -0.187088624 0.06055687
v 0.0894095078 -0.187088624 -0.0605258606
v 0.0946471766 -0.192086324 -0.0605258606
v 0.0946471766 -0.192086324 0.06055687
v 0.0605415031 -0.187088624 -0.0893939063
v -0.0605410226 -0.187088624 -0.0893939063
v -0.0605410226 -0.19208619 -0.0942664295
v 0.0605415031 -0.19208619 -0.0942664295
v -0.0894092172 -0.187088624 -0.0605258606
v -0.0894092172 -0.187088624 0.06055687
v -0.0946478546 -0.19208619 0.06055687
v -0.0946478546 -0.19208619 -0.0605258606
v 0.0946483389 -0.220954314 0.0894248635
v 0.0946483389 -0.342036903 0.0894248784
v 0.0894095078 -0.342036903 0.0950464234
v 0.0894095078 -0.220954314 0.0950464308
v -0.0946478546 -0.342036903 0.0894248784
v -0.0946478546 -0.220954314 0.0894248635
v -0.0894092172 -0.220954314 0.0950464308
v -0.0894092172 -0.342036903 0.0950464234
v 0.0946483389 -0.342036903 -0.0893939063
v 0.0946483389 -0.220954314 -0.0893939063
v 0.0894095078 -0.220954344 -0.0942663327
v 0.0894095078 -0.342036843 -0.0942664295
v -0.0946478546 -0.220954314 -0.0893939063
v -0.0946478546 -0.342036903 -0.0893939063
v -0.0894092172 -0.342036843 -0.0942664295
v -0.0894092172 -0.220954314 -0.0942664295
v 0.0630043373 -0.247049138 -0.0629769713
v -0.0344575383 -0.218503013 -0.0629768744
v 0.0344580226 -0.218503013 -0.0629768744
v -0.063003473 -0.247048855 -0.0629770681
v -0.063003473 -0.315964401 -0.0629770681
v 0.0630043373 -0.315964609 -0.0629768744
v 0.0344580226 -0.344510645 -0.0629772618
v -0.0344575383 -0.344510615 -0.0629772618
v 0.0605415031 -0.187088698 -0.0893941596
v -0.0606160164 -0.108757071 -0.0895193815
v -0.0605410226 -0.187088698 -0.0893941596
v 0.0606166981 -0.108757071 -0.0895193815
v 0.0894095078 -0.187088698 -0.0605261512
v 0.0895201638 -0.108757071 -0.060615778
v 0.0894095078 -0.187088698 0.0605564788
v 0.0895201638 -0.108757071 0.0606172271
v 0.0606166981 -0.108757071 0.0895209834
v 0.0605415031 -0.187088698 0.0894244835
v -0.0605410226 -0.187088698 0.0894244835
v -0.0606160164 -0.108757071 0.0895209834
v -0.0894092172 -0.187088698 0.0605564788
v -0.0895200744 -0.108757071 0.0606172271
v -0.0894092172 -0.187088698 -0.0605261512
v -0.0895200744 -0.108757071 -0.060615778
v -0.0605410226 -0.187088698 -0.0893941596
v -0.0606160164 -0.108757071 -0.0895193815
v 0.0505799092 -0.0957132727 -0.101753578
v -0.0501550287 -0.0643874928 -0.100900963
v -0.0505792275 -0.0957132727 -0.101753578
v 0.050156679 -0.0643874928 -0.100900963
v 0.10175468 -0.0957132429 -0.0505789854
v 0.10090261 -0.0643874928 -0.0501548834
v 0.10175468 -0.0957132503 0.0505805388
v 0.10090261 -0.0643874928 0.0501567274
v 0.0505799092 -0.0957132503 0.101755217
v 0.050156679 -0.0643874928 0.100902848
v -0.0505792275 -0.0957132503 0.101755217
v -0.0501550287 -0.0643874928 0.100902848
v -0.101754203 -0.0957132503 0.0505805388
v -0.100901157 -0.0643874928 0.0501567274
v -0.101754203 -0.0957132429 -0.0505789854
v -0.100901157 -0.0643874928 -0.0501548834
v -0.0505792275 -0.0957132727 -0.101753578
v -0.0501550287 -0.0643874928 -0.100900963
v -0.0788916498 -0.0529498085 -0.0431295373
v -0.0630015284 -0.218502954 0.0344850048
v -0.0788916498 -0.0529498085 0.0431313775
v -0.063003473 -0.218502685 -0.0344310366
v -0.0431298763 -0.0529498085 -0.0788910165
v -0.0344552137 -0.218502879 -0.0629783198
v 0.0431309417 -0.0529498085 -0.0788910165
v 0.03445841 -0.218503028 -0.0629775524
v 0.0788927078 -0.0529498085 -0.0431294441
v 0.0630047321 -0.21850273 -0.0344317146
v 0.0788927078 -0.0529498085 0.0431313775
v 0.0630039498 -0.218504086 0.0344850048
v 0.0431309417 -0.0529498085 0.0788930506
v 0.0344576351 -0.218503207 0.0630306527
v -0.0431298763 -0.0529498085 0.0788930506
v -0.0344581194 -0.218502924 0.0630306527
v -0.0788916498 -0.0529498085 0.0431313775
v -0.0630015284 -0.218502954 0.0344850048
v -0.0605410226 -0.376645684 -0.0893933848
v 0.0606166981 -0.454204857 -0.0895193815
v 0.0605413131 -0.376645684 -0.0893933848
v -0.0606158227 -0.454204857 -0.0895193815
v -0.0894092172 -0.376645684 -0.0605253763
v -0.0895198733 -0.454204857 -0.060615778
v -0.0894092172 -0.376645684 0.0605574399
v -0.0895198733 -0.454204857 0.0606172346
v -0.0606158227 -0.454204857 0.0895209834
v -0.0605410226 -0.376645684 0.0894252583
v 0.0605413131 -0.376645684 0.0894252583
v 0.0606166981 -0.454204857 0.0895209834
v 0.0894095078 -0.376645684 0.0605574399
v 0.0895205513 -0.454204857 0.0606172346
v 0.0894095078 -0.376645684 -0.0605253763
v 0.0895205513 -0.454204857 -0.060615778
v 0.0605413131 -0.376645684 -0.0893933848
v 0.0606166981 -0.454204857 -0.0895193815
v -0.0505792275 -0.467248917 -0.101753525
v 0.0501559004 -0.498574704 -0.100900918
v 0.0505799092 -0.467248917 -0.101753525
v -0.0501557998 -0.498574704 -0.100900918
v -0.101753816 -0.467248917 -0.0505789854
v -0.100901924 -0.498574704 -0.0501548834
v -0.101753816 -0.467248917 0.0505805388
v -0.100901924 -0.498574704 0.0501567274
v -0.0505792275 -0.467248917 0.101755217
v -0.0501557998 -0.498574704 0.10090284
v 0.0505799092 -0.467248917 0.101755217
v 0.0501559004 -0.498574704 0.10090284
v 0.101754881 -0.467248917 0.0505805388
v 0.100901641 -0.498574704 0.0501567274
v 0.101754881 -0.467248917 -0.0505789854
v 0.100901641 -0.498574704 -0.0501548834
v 0.0505799092 -0.467248917 -0.101753525
v 0.0501559004 -0.498574704 -0.100900918
v 0.0788919404 -0.510012209 -0.0431295373
v 0.0630043373 -0.344510913 0.034485016
v 0.0788919404 -0.510012209 0.0431313701
v 0.0630043373 -0.344510794 -0.0344302654
v 0.0431305543 -0.510012209 -0.0788910165
v 0.0344580226 -0.344510674 -0.0629798695
v -0.0431304537 -0.510012209 -0.0788910165
v -0.0344575383 -0.344510615 -0.0629775524
v -0.0788918361 -0.510012209 -0.0431294441
v -0.063003473 -0.344510406 -0.0344309434
v -0.0788918361 -0.510012209 0.0431313701
v -0.063003473 -0.344510108 0.0344857797
v -0.0431304537 -0.510012209 0.0788930506
v -0.0344575383 -0.344510496 0.0630314276
v 0.0431305543 -0.510012209 0.0788930506
v 0.0344607346 -0.344511241 0.0630329698
v 0.0788919404 -0.510012209 0.0431313701
v 0.0630043373 -0.344510913 0.034485016
v -0.0894094184 -0.220954433 0.0950462297
v -0.0895220041 -0.342097282 0.17352207
v -0.0894094184 -0.342036903 0.0950462297
v -0.0895220041 -0.220864594 0.17352207
v -0.06054122 -0.192086324 0.0950462297
v -0.060618151 -0.191960707 0.17352207
v 0.0605415031 -0.192086324 0.0950462297
v 0.0606145673 -0.191960707 0.17352207
v 0.0895184204 -0.220864594 0.17352207
v 0.0894095078 -0.220954433 0.0950462297
v 0.0894095078 -0.342036903 0.0950462297
v 0.0895184204 -0.342097282 0.17352207
v 0.0605415031 -0.370905042 0.0950462297
v 0.0606145673 -0.371001124 0.17352207
v -0.06054122 -0.370905042 0.0950462297
v -0.060618151 -0.371001124 0.17352207
v -0.0894094184 -0.342036903 0.0950462297
v -0.0895220041 -0.342097282 0.17352207
v -0.101755939 -0.230901375 0.184710041
v -0.100903481 -0.331636369 0.215294197
v -0.101755939 -0.332060575 0.184710041
v -0.100903481 -0.231324643 0.215294227
v -0.0505811684 -0.179726571 0.184710041
v -0.0501573533 -0.180578634 0.215294227
v 0.0505779684 -0.179726571 0.184710041
v 0.0501545407 -0.180578634 0.215294227
v 0.101752557 -0.230901375 0.184710041
v 0.100900479 -0.231324643 0.215294227
v 0.101752557 -0.332060575 0.184710041
v 0.100900479 -0.331636369 0.215294197
v 0.0505779684 -0.383235395 0.184710026
v 0.0501545407 -0.382382423 0.215294197
v -0.0505811684 -0.383235395 0.184710026
v -0.0501573533 -0.382382423 0.215294197
v -0.101755939 -0.332060575 0.184710041
v -0.100903481 -0.331636369 0.215294197
v -0.0431320071 -0.360372543 0.228531092
v 0.0344607346 -0.344511628 0.063032873
v 0.0431290045 -0.360372543 0.228531092
v -0.0344575383 -0.344510615 0.0630313307
v -0.0788933858 -0.324610978 0.228531107
v -0.0630030781 -0.315964431 0.0630313307
v -0.0788933858 -0.238350078 0.228531107
v -0.063003473 -0.247048885 0.0630305558
v -0.0431318134 -0.202588558 0.228531107
v -0.0344579257 -0.218502834 0.0630305484
v 0.0431290045 -0.202588558 0.228531107
v 0.0344576351 -0.218503132 0.0630305484
v 0.078890577 -0.238350078 0.228531107
v 0.0630045384 -0.247049063 0.0630305484
v 0.078890577 -0.324610978 0.228531107
v 0.0630043373 -0.315964669 0.0630313307
v 0.0431290045 -0.360372543 0.228531092
v 0.0344607346 -0.344511628 0.063032873
v 0.063004151 -0.344510674 0.0344844237
v 0.0630039498 -0.247049034 0.0630305558
v 0.0630039498 -0.315964609 0.0630305484
v 0.0630043373 -0.218502924 0.034484718
v 0.0630043373 -0.218502924 -0.0344309434
v 0.0630039498 -0.344510674 -0.0344311334
v 0.0630043373 -0.315964609 -0.0629770681
v 0.0630043373 -0.247049034 -0.0629770681
v -0.0630032718 -0.344510823 -0.0344309434
v -0.0630030781 -0.247049198 -0.0629769713
v -0.0630030781 -0.315964758 -0.0629769713
v -0.0630032718 -0.218503058 -0.0344311334
v -0.0630032718 -0.218503058 0.0344844237
v -0.0630030781 -0.344510823 0.0344846137
v -0.0630036592 -0.315964758 0.0630305484
v -0.0630036592 -0.247049198 0.0630305558
v -0.0946478546 -0.370904833 -0.0605256632
v -0.117374383 -0.324792713 0.0433123782
v -0.0946478546 -0.370905101 0.06055687
v -0.0946478546 -0.342036903 0.0894248784
v -0.117374383 -0.324792713 -0.0433226489
v -0.0946478546 -0.342036903 -0.0893938169
v -0.0946478546 -0.220954433 -0.0893938169
v -0.117374383 -0.238157794 0.0433123782
v -0.0946478546 -0.220954433 0.0894248784
v -0.0946478546 -0.192086309 0.06055687
v -0.117374383 -0.238157794 -0.0433226451
v -0.0946478546 -0.192086309 -0.0605258606
v 0.0946483389 -0.370904833 0.06055687
v 0.117375046 -0.324792445 -0.0433226489
v 0.0946485326 -0.370904833 -0.0605256632
v 0.0946485326 -0.342036724 -0.0893939063
v 0.117375046 -0.324792445 0.0433123782
v 0.0946485326 -0.342036784 0.0894248784
v 0.0946485326 -0.220954314 0.0894248635
v 0.117375046 -0.238157675 -0.0433226451
v 0.0946485326 -0.220954314 -0.0893939063
v 0.0946485326 -0.19208616 -0.0605256632
v 0.117375046 -0.238157675 0.0433123782
v 0.0946485326 -0.19208616 0.06055687
v -0.0894103795 -0.342036933 -0.0942664295
v -0.0433172695 -0.238157749 -0.116953813
v -0.0894103795 -0.220954433 -0.0942664295
v -0.0605421811 -0.192086324 -0.0942664295
v -0.0433172695 -0.324792624 -0.116953902
v -0.0605421811 -0.370905101 -0.0942664295
v 0.0605401509 -0.370905101 -0.0942664295
v 0.0433179475 -0.238157749 -0.116953813
v 0.0605401509 -0.192086324 -0.0942664295
v 0.0894083455 -0.220954493 -0.0942663327
v 0.0433179475 -0.324792624 -0.116953902
v 0.0894085467 -0.342036933 -0.0942664295
v -0.0819166526 -0.199578583 -0.0819015354
v -0.0894092172 -0.220954314 -0.0942664295
v -0.0605410226 -0.19208619 -0.0942664295
v -0.0946478546 -0.220954314 -0.0893939063
v -0.0605410226 -0.187088624 -0.0893939063
v -0.0946478546 -0.19208619 -0.0605258606
v -0.0894092172 -0.187088624 -0.0605258606
v 0.0605415031 -0.19208619 -0.0942664295
v 0.0819173306 -0.199578583 -0.0819015354
v 0.0605415031 -0.187088624 -0.0893939063
v 0.0894095078 -0.220954344 -0.0942663327
v 0.0894095078 -0.187088624 -0.0605258606
v 0.0946483389 -0.220954314 -0.0893939063
v 0.0946471766 -0.192086324 -0.0605258606
v 0.0946471766 -0.192086324 0.06055687
v 0.0819173306 -0.199578583 0.0819324926
v 0.0894095078 -0.187088624 0.06055687
v 0.0946483389 -0.220954314 0.0894248635
v 0.0605415031 -0.187088594 0.0894248635
v 0.0894095078 -0.220954314 0.0950464308
v 0.0605415031 -0.192086175 0.0950464234
v -0.0605410226 -0.376645774 0.0894248784
v -0.0894092172 -0.376645774 0.06055687
v -0.0819166526 -0.363412648 0.0819325075
v -0.0605410226 -0.370904922 0.0950464234
v -0.0946478546 -0.370904922 0.06055687
v -0.0894092172 -0.342036903 0.0950464234
v -0.0946478546 -0.342036903 0.0894248784
v 0.0894095078 -0.376645774 0.06055687
v 0.0605415031 -0.376645774 0.0894248784
v 0.0819173306 -0.363412648 0.0819325075
v 0.0946483389 -0.370904922 0.06055687
v 0.0605415031 -0.370904922 0.0950464234
v 0.0946483389 -0.342036903 0.0894248784
v 0.0894095078 -0.342036903 0.0950464234
v -0.0894092172 -0.376645774 -0.0605258532
v -0.0605410226 -0.376645714 -0.0893939063
v -0.0819166526 -0.363412619 -0.0819015354
v -0.0946478546 -0.370904922 -0.0605258532
v -0.0605410226 -0.370904922 -0.0942664295
v -0.0946478546 -0.342036903 -0.0893939063
v -0.0894092172 -0.342036843 -0.0942664295
v -0.100903481 -0.231324643 0.215294227
v -0.0788933858 -0.324610978 0.228531107
v -0.100903481 -0.331636369 0.215294197
v -0.0788933858 -0.238350078 0.228531107
v -0.0431320071 -0.360372543 0.228531092
v -0.0501573533 -0.180578634 0.215294227
v -0.0501573533 -0.382382423 0.215294197
v -0.0431318134 -0.202588558 0.228531107
v 0.0431290045 -0.360372543 0.228531092
v 0.0501545407 -0.180578634 0.215294227
v 0.0501545407 -0.382382423 0.215294197
v 0.0431290045 -0.202588558 0.228531107
v 0.078890577 -0.324610978 0.228531107
v 0.100900479 -0.231324643 0.215294227
v 0.100900479 -0.331636369 0.215294197
v 0.078890577 -0.238350078 0.228531107
v -0.0895220041 -0.220864594 0.17352207
v -0.101755939 -0.332060575 0.184710041
v -0.0895220041 -0.342097282 0.17352207
v -0.101755939 -0.230901375 0.184710041
v -0.0505811684 -0.383235395 0.184710026
v -0.060618151 -0.191960707 0.17352207
v -0.060618151 -0.371001124 0.17352207
v -0.0505811684 -0.179726571 0.184710041
v 0.0505779684 -0.383235395 0.184710026
v 0.0606145673 -0.191960707 0.17352207
v 0.0606145673 -0.371001124 0.17352207
v 0.0505779684 -0.179726571 0.184710041
v 0.101752557 -0.332060575 0.184710041
v 0.0895184204 -0.220864594 0.17352207
v 0.0895184204 -0.342097282 0.17352207
v 0.101752557 -0.230901375 0.184710041
v -0.0501557998 -0.498574704 -0.100900918
v 0.0431305543 -0.510012209 -0.0788910165
v 0.0501559004 -0.498574704 -0.100900918
v -0.0431304537 -0.510012209 -0.0788910165
v 0.0788919404 -0.510012209 -0.0431295373
v -0.100901924 -0.498574704 -0.0501548834
v 0.100901641 -0.498574704 -0.0501548834
v -0.0788918361 -0.510012209 -0.0431294441
v 0.0788919404 -0.510012209 0.0431313701
v -0.100901924 -0.498574704 0.0501567274
v 0.100901641 -0.498574704 0.0501567274
v -0.0788918361 -0.510012209 0.0431313701
v 0.0431305543 -0.510012209 0.0788930506
v -0.0501557998 -0.498574704 0.10090284
v 0.0501559004 -0.498574704 0.10090284
v -0.0431304537 -0.510012209 0.0788930506
v -0.0606158227 -0.454204857 -0.0895193815
v 0.0505799092 -0.467248917 -0.101753525
v 0.0606166981 -0.454204857 -0.0895193815
v -0.0505792275 -0.467248917 -0.101753525
v 0.101754881 -0.467248917 -0.0505789854
v -0.0895198733 -0.454204857 -0.060615778
v 0.0895205513 -0.454204857 -0.060615778
v -0.101753816 -0.467248917 -0.0505789854
v 0.101754881 -0.467248917 0.0505805388
v -0.0895198733 -0.454204857 0.0606172346
v 0.0895205513 -0.454204857 0.0606172346
v -0.101753816 -0.467248917 0.0505805388
v 0.0505799092 -0.467248917 0.101755217
v -0.0606158227 -0.454204857 0.0895209834
v 0.0606166981 -0.454204857 0.0895209834
v -0.0505792275 -0.467248917 0.101755217
v 0.050156679 -0.0643874928 -0.100900963
v -0.0431298763 -0.0529498085 -0.0788910165
v -0.0501550287 -0.0643874928 -0.100900963
v 0.0431309417 -0.0529498085 -0.0788910165
v -0.0788916498 -0.0529498085 -0.0431295373
v 0.10090261 -0.0643874928 -0.0501548834
v -0.100901157 -0.0643874928 -0.0501548834
v 0.0788927078 -0.0529498085 -0.0431294441
v -0.0788916498 -0.0529498085 0.0431313775
v 0.10090261 -0.0643874928 0.0501567274
v -0.100901157 -0.0643874928 0.0501567274
v 0.0788927078 -0.0529498085 0.0431313775
v -0.0431298763 -0.0529498085 0.0788930506
v 0.050156679 -0.0643874928 0.100902848
v -0.0501550287 -0.0643874928 0.100902848
v 0.0431309417 -0.0529498085 0.0788930506
v 0.0606166981 -0.108757071 -0.0895193815
v -0.0505792275 -0.0957132727 -0.101753578
v -0.0606160164 -0.108757071 -0.0895193815
v 0.0505799092 -0.0957132727 -0.101753578
v -0.101754203 -0.0957132429 -0.0505789854
v 0.0895201638 -0.108757071 -0.060615778
v -0.0895200744 -0.108757071 -0.060615778
v 0.10175468 -0.0957132429 -0.0505789854
v -0.101754203 -0.0957132503 0.0505805388
v 0.0895201638 -0.108757071 0.0606172271
v -0.0895200744 -0.108757071 0.0606172271
v 0.10175468 -0.0957132503 0.0505805388
v -0.0505792275 -0.0957132503 0.101755217
v 0.0606166981 -0.108757071 0.0895209834
v -0.0606160164 -0.108757071 0.0895209834
v 0.0505799092 -0.0957132503 0.101755217
v -0.0395927131 0.499999911 0.0856157988
v -0.0297322311 0.500000358 0.0640847459
v 0.0289672948 0.499999911 0.0640849471
v 0.0388280004 0.499999911 0.0856157988
v -0.0859992355 0.499999911 0.039209716
v 0.0637033507 0.499999911 0.0293493643
v -0.0644680932 0.500000358 0.0293490794
v 0.0852343738 0.499999911 0.039209716
v -0.0859992355 0.499999374 -0.0392114632
v 0.063703157 0.499999911 -0.0293506235
v -0.0644679591 0.499999911 -0.0293502416
v 0.0852342397 0.500000358 -0.0392111763
v -0.0395930521 0.499999911 -0.0856173486
v 0.02896736 0.499999911 -0.0640866831
v -0.0297321472 0.499999374 -0.0640866831
v 0.0388280675 0.500000358 -0.0856172517
v -0.0856164545 -0.242039561 0.499998629
v -0.0640853569 -0.251900047 0.499999106
v -0.0640856028 -0.310599536 0.499998659
v -0.0856164545 -0.32046026 0.499998659
v -0.0392104685 -0.195632994 0.499998629
v -0.0293500125 -0.345335603 0.499998659
v -0.0293497574 -0.217164189 0.499999106
v -0.0392103456 -0.366866678 0.499998659
v 0.0392107405 -0.195632994 0.499998033
v 0.0293500274 -0.345335424 0.499998659
v 0.0293496307 -0.217164338 0.499998629
v 0.039210476 -0.366866529 0.499999076
v 0.0856167227 -0.242039219 0.499998659
v 0.06408602 -0.310599625 0.499998659
v 0.06408602 -0.251900107 0.499998033
v 0.0856165737 -0.32046032 0.499999136
vt 0.903180361 0.563888371
vt 0.891462803 0.563888133
vt 0.903180361 0.552170753
vt 0.891461968 0.563900948
vt 0.903179467 0.55218327
vt 0.903179467 0.563900948
vt 0.903180242 0.55218327
vt 0.891462684 0.563900948
vt 0.903180242 0.563900948
vt 0.903179467 0.563888133
vt 0.903179467 0.552170515
vt 0.891461968 0.563888133
vt 0.903180361 0.552170515
vt 0.903180361 0.563888133
vt 0.891462684 0.563888133
vt 0.891462684 0.563900948
vt 0.903180242 0.563900948
vt 0.903180242 0.55218327
vt 0.903179467 0.55218327
vt 0.903179467 0.563900948
vt 0.891461849 0.563900948
vt 0.891462803 0.563900948
vt 0.903180361 0.563900948
vt 0.903180361 0.55218327
vt 0.628699541 0.764062047
vt 0.628699541 0.809399128
vt 0.646167994 0.809399128
vt 0.646167994 0.764061928
vt 0.661713779 0.809399128
vt 0.661713779 0.764061928
vt 0.745886803 0.764062345
vt 0.745886803 0.809399128
vt 0.761307597 0.809399128
vt 0.761307597 0.764062047
vt 0.728265285 0.764063001
vt 0.728265285 0.809399128
vt 0.745886803 0.809399128
vt 0.745886803 0.764062345
vt 0.712555885 0.76406312
vt 0.728265285 0.809399128
vt 0.728265285 0.764063001
vt 0.712555885 0.809399128
vt 0.694801271 0.764063597
vt 0.694801271 0.809399128
vt 0.679043651 0.764063776
vt 0.679043651 0.809399128
vt 0.661713779 0.764064014
vt 0.661713779 0.809399128
vt 0.679043651 0.809399128
vt 0.679043651 0.764063776
vt 0.783017457 0.689810395
vt 0.783017457 0.735067368
vt 0.794824243 0.735067368
vt 0.794824243 0.689810932
vt 0.808211207 0.735067368
vt 0.808211207 0.689811289
vt 0.819846153 0.735067368
vt 0.819846153 0.68981266
vt 0.770330966 0.689808726
vt 0.770313263 0.735067368
vt 0.783017457 0.735067368
vt 0.783017457 0.689810395
vt 0.857721567 0.689814746
vt 0.869286537 0.735067368
vt 0.869275033 0.689813673
vt 0.857721567 0.735067368
vt 0.844322979 0.689814329
vt 0.844322979 0.735067368
vt 0.832521677 0.689813972
vt 0.832521677 0.735067368
vt 0.819846153 0.68981266
vt 0.819846153 0.735067368
vt 0.832521677 0.735067368
vt 0.832521677 0.689813972
vt 0.628699541 0.764062047
vt 0.628699541 0.809399128
vt 0.646167994 0.809399128
vt 0.646167994 0.764061928
vt 0.661713779 0.809399128
vt 0.661713779 0.764061928
vt 0.745886803 0.764062345
vt 0.745886803 0.809399128
vt 0.761307597 0.809399128
vt 0.761307597 0.764062047
vt 0.728265285 0.764063001
vt 0.728265285 0.809399128
vt 0.745886803 0.809399128
vt 0.745886803 0.764062345
vt 0.712555885 0.76406312
vt 0.728265285 0.809399128
vt 0.728265285 0.764063001
vt 0.712555885 0.809399128
vt 0.694801271 0.764063597
vt 0.694801271 0.809399128
vt 0.679043651 0.764063776
vt 0.679043651 0.809399128
vt 0.661713779 0.764064014
vt 0.661713779 0.809399128
vt 0.679043651 0.809399128
vt 0.679043651 0.764063776
vt 0.783017457 0.689810395
vt 0.783017457 0.735067368
vt 0.794824243 0.735067368
vt 0.794824243 0.689810932
vt 0.808211207 0.735067368
vt 0.808211207 0.689811289
vt 0.819846153 0.735067368
vt 0.819846153 0.68981266
vt 0.770330966 0.689808726
vt 0.770313263 0.735067368
vt 0.783017457 0.735067368
vt 0.783017457 0.689810395
vt 0.857721567 0.689814746
vt 0.869286537 0.735067368
vt 0.869275033 0.689813673
vt 0.857721567 0.735067368
vt 0.844322979 0.689814329
vt 0.844322979 0.735067368
vt 0.832521677 0.689813972
vt 0.832521677 0.735067368
vt 0.819846153 0.68981266
vt 0.819846153 0.735067368
vt 0.832521677 0.735067368
vt 0.832521677 0.689813972
vt 0.928692877 0.587294877
vt 0.934966326 0.578166962
vt 0.939443827 0.586763442
vt 0.943921387 0.578166962
vt 0.950194955 0.587294877
vt 0.945717394 0.594816923
vt 0.933170438 0.594816923
vt 0.928692877 0.587294877
vt 0.93316704 0.594829857
vt 0.93316704 0.594829857
vt 0.945714116 0.594829857
vt 0.939440668 0.586776257
vt 0.928689599 0.587307751
vt 0.950191677 0.587307751
vt 0.934963167 0.578180075
vt 0.943918288 0.578179896
vt 0.943912506 0.578163147
vt 0.943911135 0.525642037
vt 0.93497622 0.525646925
vt 0.93497622 0.578163147
vt 0.943912506 0.578163147
vt 0.943911135 0.525642037
vt 0.93497622 0.525646925
vt 0.93497622 0.578163147
vt 0.943912506 0.578163147
vt 0.943911135 0.525642037
vt 0.93497622 0.525646925
vt 0.93497622 0.578163147
vt 0.943912506 0.578163147
vt 0.943911135 0.525642037
vt 0.93497622 0.525646925
vt 0.93497622 0.578163147
vt 0.93497622 0.525646925
vt 0.93497622 0.578163147
vt 0.943912506 0.578163147
vt 0.943911135 0.525642037
vt 0.93497622 0.525647461
vt 0.93497622 0.578163147
vt 0.943912506 0.578163147
vt 0.94391036 0.525650144
vt 0.934976339 0.525647461
vt 0.93497622 0.578163147
vt 0.943912506 0.578163147
vt 0.943914354 0.525652587
vt 0.934976339 0.525647223
vt 0.93497622 0.578163147
vt 0.943912506 0.578163147
vt 0.943914592 0.525645137
vt 0.943912506 0.578163147
vt 0.94391036 0.525650144
vt 0.93497622 0.525647461
vt 0.93497622 0.578163147
vt 0.93497622 0.525647461
vt 0.93497622 0.578163147
vt 0.943912506 0.578163147
vt 0.94391036 0.525650144
vt 0.943912506 0.578163147
vt 0.943914592 0.525645137
vt 0.934976339 0.525647223
vt 0.93497622 0.578163147
vt 0.943912506 0.578163147
vt 0.94391036 0.525650144
vt 0.93497622 0.525647461
vt 0.93497622 0.578163147
vt 0.918774724 0.57104075
vt 0.885423064 0.580809474
vt 0.909006238 0.580809474
vt 0.875654399 0.57104075
vt 0.875654399 0.547457635
vt 0.918774724 0.547457635
vt 0.909006238 0.53768903
vt 0.885423064 0.537689269
vt 0.957827508 0.513191104
vt 0.994250894 0.488644063
vt 0.994250894 0.513191104
vt 0.957827508 0.488644063
vt 0.946188986 0.513191104
vt 0.946188986 0.488644063
vt 0.909765601 0.513191104
vt 0.909765601 0.488644063
vt 0.89812696 0.488644063
vt 0.89812696 0.513191104
vt 0.861703634 0.513191104
vt 0.861703634 0.488644063
vt 0.850065172 0.513191104
vt 0.850065172 0.488644063
vt 0.813641727 0.513191104
vt 0.813641727 0.488644063
vt 0.802003145 0.513191104
vt 0.802003145 0.488644063
vt 0.962158561 0.516360402
vt 0.990387857 0.523758531
vt 0.990387857 0.516360402
vt 0.962158442 0.523758531
vt 0.94232595 0.516360402
vt 0.94232583 0.523758531
vt 0.914096653 0.516360402
vt 0.914096653 0.523758531
vt 0.894263983 0.516360402
vt 0.894263983 0.523758531
vt 0.866034687 0.516360402
vt 0.866034806 0.523758531
vt 0.846202075 0.516360402
vt 0.846202195 0.523758531
vt 0.817972779 0.516360402
vt 0.817972779 0.523758531
vt 0.798140109 0.516360402
vt 0.798140109 0.523758531
vt 0.775357723 0.51321584
vt 0.80052954 0.508930504
vt 0.783148289 0.498072833
vt 0.794297934 0.521042943
vt 0.771999359 0.522620738
vt 0.791614532 0.528556764
vt 0.768438518 0.539277673
vt 0.788766921 0.541874588
vt 0.767659009 0.549230695
vt 0.788144231 0.549832225
vt 0.768567502 0.566230536
vt 0.788870573 0.563441396
vt 0.770404041 0.576041341
vt 0.790339231 0.571288407
vt 0.77571398 0.592220068
vt 0.794586897 0.584232092
vt 0.780050159 0.601213336
vt 0.79805249 0.591420114
vt 0.957827508 0.513191104
vt 0.994250894 0.488644063
vt 0.994250894 0.513191104
vt 0.957827508 0.488644063
vt 0.946188986 0.513191104
vt 0.946188986 0.488644063
vt 0.909765601 0.513191104
vt 0.909765601 0.488644063
vt 0.89812696 0.488644063
vt 0.89812696 0.513191104
vt 0.861703634 0.513191104
vt 0.861703634 0.488644063
vt 0.850065172 0.513191104
vt 0.850065172 0.488644063
vt 0.813641727 0.513191104
vt 0.813641727 0.488644063
vt 0.802003145 0.513191104
vt 0.802003145 0.488644063
vt 0.962158561 0.516360402
vt 0.990387857 0.523758531
vt 0.990387857 0.516360402
vt 0.962158442 0.523758531
vt 0.94232595 0.516360402
vt 0.94232583 0.523758531
vt 0.914096653 0.516360402
vt 0.914096653 0.523758531
vt 0.894263983 0.516360402
vt 0.894263983 0.523758531
vt 0.866034687 0.516360402
vt 0.866034806 0.523758531
vt 0.846202075 0.516360402
vt 0.846202195 0.523758531
vt 0.817972779 0.516360402
vt 0.817972779 0.523758531
vt 0.798140109 0.516360402
vt 0.798140109 0.523758531
vt 0.775357723 0.51321584
vt 0.80052954 0.508930504
vt 0.783148289 0.498072833
vt 0.794297934 0.521042943
vt 0.771999359 0.522620738
vt 0.791614532 0.528556764
vt 0.768438518 0.539277673
vt 0.788766921 0.541874588
vt 0.767659009 0.549230695
vt 0.788144231 0.549832225
vt 0.768567502 0.566230536
vt 0.788870573 0.563441396
vt 0.770404041 0.576041341
vt 0.790339231 0.571288407
vt 0.77571398 0.592220068
vt 0.794586897 0.584232092
vt 0.780050159 0.601213336
vt 0.79805249 0.591420114
vt 0.957827508 0.513191104
vt 0.994250894 0.488644063
vt 0.994250894 0.513191104
vt 0.957827508 0.488644063
vt 0.946188986 0.513191104
vt 0.946188986 0.488644063
vt 0.909765601 0.513191104
vt 0.909765601 0.488644063
vt 0.89812696 0.488644063
vt 0.89812696 0.513191104
vt 0.861703634 0.513191104
vt 0.861703634 0.488644063
vt 0.850065172 0.513191104
vt 0.850065172 0.488644063
vt 0.813641727 0.513191104
vt 0.813641727 0.488644063
vt 0.802003145 0.513191104
vt 0.802003145 0.488644063
vt 0.962158561 0.516360402
vt 0.990387857 0.523758531
vt 0.990387857 0.516360402
vt 0.962158442 0.523758531
vt 0.94232595 0.516360402
vt 0.94232583 0.523758531
vt 0.914096653 0.516360402
vt 0.914096653 0.523758531
vt 0.894263983 0.516360402
vt 0.894263983 0.523758531
vt 0.866034687 0.516360402
vt 0.866034806 0.523758531
vt 0.846202075 0.516360402
vt 0.846202195 0.523758531
vt 0.817972779 0.516360402
vt 0.817972779 0.523758531
vt 0.798140109 0.516360402
vt 0.798140109 0.523758531
vt 0.775357723 0.51321584
vt 0.80052954 0.508930504
vt 0.783148289 0.498072833
vt 0.794297934 0.521042943
vt 0.771999359 0.522620738
vt 0.791614532 0.528556764
vt 0.768438518 0.539277673
vt 0.788766921 0.541874588
vt 0.767659009 0.549230695
vt 0.788144231 0.549832225
vt 0.768567502 0.566230536
vt 0.788870573 0.563441396
vt 0.770404041 0.576041341
vt 0.790339231 0.571288407
vt 0.77571398 0.592220068
vt 0.794586897 0.584232092
vt 0.780050159 0.601213336
vt 0.79805249 0.591420114
vt 0.918774724 0.57104075
vt 0.885423064 0.580809474
vt 0.909006238 0.580809474
vt 0.875654399 0.57104075
vt 0.875654399 0.547457635
vt 0.918774724 0.547457635
vt 0.909006238 0.53768903
vt 0.885423064 0.537689269
vt 0.918774724 0.57104075
vt 0.885423064 0.580809474
vt 0.909006238 0.580809474
vt 0.875654399 0.57104075
vt 0.875654399 0.547457635
vt 0.918774724 0.547457635
vt 0.909006238 0.53768903
vt 0.885423064 0.537689269
vt 0.852595985 0.575076818
vt 0.839953721 0.546085
vt 0.852595985 0.541497648
vt 0.844590127 0.533491671
vt 0.840003014 0.570439875
vt 0.844590127 0.583082795
vt 0.811010838 0.583082795
vt 0.815598488 0.546133757
vt 0.811010838 0.533491671
vt 0.803004861 0.541497648
vt 0.815647602 0.570489407
vt 0.803004861 0.575076818
vt 0.852595985 0.575076818
vt 0.83995384 0.546085119
vt 0.852595985 0.541497648
vt 0.844590127 0.533491671
vt 0.840002716 0.570440412
vt 0.844590127 0.583082795
vt 0.811010838 0.583082795
vt 0.815598071 0.546134114
vt 0.811010838 0.533491671
vt 0.803004861 0.541497648
vt 0.815647721 0.570489824
vt 0.803004861 0.575076818
vt 0.803004861 0.541497648
vt 0.815647602 0.570488751
vt 0.803004861 0.575076818
vt 0.811010838 0.583082795
vt 0.815598726 0.546134412
vt 0.811010838 0.533491671
vt 0.844590127 0.533491671
vt 0.840002239 0.570439517
vt 0.844590127 0.583082795
vt 0.852595985 0.575076818
vt 0.839952946 0.546085119
vt 0.852595985 0.541497648
vt 0.939448595 0.586768448
vt 0.934971213 0.578171849
vt 0.928697586 0.587299585
vt 0.943926394 0.578171849
vt 0.933175325 0.594821692
vt 0.950199783 0.587299585
vt 0.945722222 0.594821692
vt 0.928689599 0.587307751
vt 0.939440668 0.586776257
vt 0.93316704 0.594829857
vt 0.934963167 0.578180075
vt 0.945714116 0.594829857
vt 0.943918288 0.578179896
vt 0.950191677 0.587307751
vt 0.950186968 0.587302744
vt 0.939435899 0.586771607
vt 0.945709169 0.594825149
vt 0.94391346 0.578175068
vt 0.933162332 0.594825149
vt 0.934958279 0.578175068
vt 0.928684771 0.587302744
vt 0.933170438 0.594816923
vt 0.945717394 0.594816923
vt 0.939443827 0.586763442
vt 0.928692877 0.587294877
vt 0.950194955 0.587294877
vt 0.934966326 0.578166962
vt 0.943921387 0.578166962
vt 0.945709169 0.594825149
vt 0.933162332 0.594825149
vt 0.939435899 0.586771607
vt 0.950186968 0.587302744
vt 0.928684771 0.587302744
vt 0.94391346 0.578175068
vt 0.934958279 0.578175068
vt 0.945722222 0.594821692
vt 0.933175325 0.594821692
vt 0.939448595 0.586768448
vt 0.950199783 0.587299585
vt 0.928697586 0.587299585
vt 0.943926394 0.578171849
vt 0.934971213 0.578171849
vt 0.863500953 0.576442778
vt 0.871729791 0.544753969
vt 0.863498151 0.542043209
vt 0.87172842 0.573625863
vt 0.883023143 0.534130514
vt 0.880637527 0.591980636
vt 0.880455256 0.526143134
vt 0.883103907 0.58394134
vt 0.912024915 0.533686697
vt 0.915000618 0.591181159
vt 0.914463699 0.526071608
vt 0.912341595 0.583941102
vt 0.924078286 0.544708669
vt 0.931822419 0.575492918
vt 0.9317981 0.541983068
vt 0.92407912 0.5727337
vt 0.846397221 0.585678875
vt 0.811323225 0.59243983
vt 0.80982095 0.585678875
vt 0.844895065 0.59243983
vt 0.794339657 0.575456321
vt 0.85511744 0.576958537
vt 0.801100671 0.576958537
vt 0.861878514 0.575456321
vt 0.794339657 0.541884542
vt 0.85511744 0.540382206
vt 0.801100671 0.540382206
vt 0.861878514 0.541884542
vt 0.811323225 0.524900913
vt 0.846397221 0.531661987
vt 0.80982095 0.531661987
vt 0.844895065 0.524900913
vt 0.863500953 0.576442778
vt 0.871729791 0.544753969
vt 0.863498151 0.542043209
vt 0.87172842 0.573625863
vt 0.883023143 0.534130514
vt 0.880637527 0.591980636
vt 0.880455256 0.526143134
vt 0.883103907 0.58394134
vt 0.912024915 0.533686697
vt 0.915000618 0.591181159
vt 0.914463699 0.526071608
vt 0.912341595 0.583941102
vt 0.924078286 0.544708669
vt 0.931822419 0.575492918
vt 0.9317981 0.541983068
vt 0.92407912 0.5727337
vt 0.846397221 0.585678875
vt 0.811323225 0.59243983
vt 0.80982095 0.585678875
vt 0.844895065 0.59243983
vt 0.794339657 0.575456321
vt 0.85511744 0.576958537
vt 0.801100671 0.576958537
vt 0.861878514 0.575456321
vt 0.794339657 0.541884542
vt 0.85511744 0.540382206
vt 0.801100671 0.540382206
vt 0.861878514 0.541884542
vt 0.811323225 0.524900913
vt 0.846397221 0.531661987
vt 0.80982095 0.531661987
vt 0.844895065 0.524900913
vt 0.863500953 0.576442778
vt 0.871729791 0.544753969
vt 0.863498151 0.542043209
vt 0.87172842 0.573625863
vt 0.883023143 0.534130514
vt 0.880637527 0.591980636
vt 0.880455256 0.526143134
vt 0.883103907 0.58394134
vt 0.912024915 0.533686697
vt 0.915000618 0.591181159
vt 0.914463699 0.526071608
vt 0.912341595 0.583941102
vt 0.924078286 0.544708669
vt 0.931822419 0.575492918
vt 0.9317981 0.541983068
vt 0.92407912 0.5727337
vt 0.846397221 0.585678875
vt 0.811323225 0.59243983
vt 0.80982095 0.585678875
vt 0.844895065 0.59243983
vt 0.794339657 0.575456321
vt 0.85511744 0.576958537
vt 0.801100671 0.576958537
vt 0.861878514 0.575456321
vt 0.794339657 0.541884542
vt 0.85511744 0.540382206
vt 0.801100671 0.540382206
vt 0.861878514 0.541884542
vt 0.811323225 0.524900913
vt 0.846397221 0.531661987
vt 0.80982095 0.531661987
vt 0.844895065 0.524900913
vt 0.811390936 0.922434986
vt 0.81744945 0.919713497
vt 0.817506194 0.903370261
vt 0.811430693 0.900571227
vt 0.824485123 0.935384214
vt 0.827288508 0.893567264
vt 0.827275038 0.929398358
vt 0.824529409 0.887520969
vt 0.846483886 0.935384214
vt 0.843766689 0.893562496
vt 0.843739629 0.929398358
vt 0.846528053 0.887539923
vt 0.859563768 0.922462285
vt 0.853507638 0.903330207
vt 0.853561461 0.919794679
vt 0.859570205 0.900560141
vt 0.811390936 0.922434986
vt 0.81744945 0.919713497
vt 0.817506194 0.903370261
vt 0.811430693 0.900571227
vt 0.824485123 0.935384214
vt 0.827288508 0.893567264
vt 0.827275038 0.929398358
vt 0.824529409 0.887520969
vt 0.846483886 0.935384214
vt 0.843766689 0.893562496
vt 0.843739629 0.929398358
vt 0.846528053 0.887539923
vt 0.859563768 0.922462285
vt 0.853507638 0.903330207
vt 0.853561461 0.919794679
vt 0.859570205 0.900560141
vn -0.577345669 0.577352643 -0.577352643
vn -0.577345669 0.577352524 -0.577352524
vn -0.57734561 0.577352643 -0.577352643
vn -0.577346981 -0.577350914 -0.577352881
vn -0.57734704 -0.577350914 -0.577352881
vn -0.57734704 -0.577350914 -0.577352941
vn 0.577349246 -0.577349782 -0.577351809
vn 0.577349305 -0.577349842 -0.577351809
vn 0.577349305 -0.577349842 -0.577351809
vn 0.577354193 0.577349246 -0.577347279
vn 0.577354193 0.577349246 -0.577347279
vn 0.577354193 0.577349246 -0.577347398
vn 0.5773561 0.577348351 0.577346325
vn 0.57735616 0.577348292 0.577346325
vn 0.57735616 0.577348292 0.577346325
vn 0.577350676 -0.577350259 0.577349842
vn 0.577350676 -0.577350259 0.577349842
vn 0.577350676 -0.577350259 0.577349842
vn -0.577349603 -0.577351034 0.577350199
vn -0.577349603 -0.577351034 0.577350199
vn -0.577349663 -0.577351034 0.57735008
vn -0.577347994 0.577350914 0.577351928
vn -0.577347994 0.577350914 0.577351928
vn -0.577347994 0.577350914 0.577351928
vn 0.382692456 -0.923875749 8.09490448E-05
vn 0.382676303 -0.923882484 8.0949605E-05
vn -0.382677555 -0.923881948 8.01773349E-05
vn -0.382691354 -0.923876286 8.01768183E-05
vn -0.707109392 -0.707104146 6.09007693E-05
vn -0.707109392 -0.707104146 6.09007657E-05
vn 0.707107186 -0.707106352 6.23278975E-05
vn 0.707107186 -0.707106352 6.23278756E-05
vn 0.382676303 -0.923882484 8.0949605E-05
vn 0.382692456 -0.923875749 8.09490448E-05
vn 1 -1.7374897E-06 7.21468609E-07
vn 1 -1.7374897E-06 7.21468609E-07
vn 1 -1.73748981E-06 7.21468609E-07
vn 1 -1.7374897E-06 7.21468609E-07
vn 0.382677019 0.923882186 -8.05573291E-05
vn 0.707108498 0.707104981 -6.13445955E-05
vn 0.707108498 0.707104981 -6.13445955E-05
vn 0.382692128 0.923875868 -8.05567906E-05
vn -0.382680386 0.923880756 -8.12805811E-05
vn -0.38269344 0.923875332 -8.12801227E-05
vn -0.707112074 0.707101405 -6.26809124E-05
vn -0.707112074 0.707101405 -6.26809124E-05
vn -1 0 -1.67948315E-06
vn -1 0 -1.67948315E-06
vn -1 0 -1.67948315E-06
vn -1 0 -1.67948315E-06
vn 0.707103312 0.707110107 -0.00022177225
vn 0.707103312 0.707110167 -0.000221772236
vn 0.382674515 0.9238832 -0.000248484401
vn 0.382684857 0.923878908 -0.000248484139
vn -0.382673383 0.923883677 -0.000248718599
vn -0.382683456 0.923879445 -0.000248718366
vn -0.707096696 0.707116783 -0.00022220648
vn -0.707096696 0.707116783 -0.00022220648
vn 1 -4.43338149E-06 -0.000160045747
vn 1 -4.43338149E-06 -0.000160045747
vn 1 -4.43338149E-06 -0.000160045747
vn 1 -4.43338149E-06 -0.000160045747
vn 0.382670313 -0.923884988 -8.70532822E-05
vn 0.707101762 -0.707111776 -9.81107369E-05
vn 0.707101882 -0.707111716 -9.8110715E-05
vn 0.382687986 -0.923877597 -8.70541844E-05
vn -0.382662982 -0.923887968 -8.73884128E-05
vn -0.382687956 -0.923877597 -8.73896861E-05
vn -0.707092881 -0.707120597 -9.87308595E-05
vn -0.707092941 -0.707120538 -9.8730874E-05
vn -1 0 -0.000160864336
vn -1 0 -0.000160864351
vn -1 0 -0.000160864365
vn -1 0 -0.000160864336
vn 0.92387718 4.04682978E-05 -0.382688999
vn 0.923880935 4.04684542E-05 -0.382680118
vn 0.923880458 4.01070538E-05 0.38268131
vn 0.923877895 4.01069337E-05 0.382687449
vn 0.707104266 3.04603527E-05 0.707109272
vn 0.707104266 3.04603509E-05 0.707109272
vn 0.707106173 3.11281874E-05 -0.707107306
vn 0.707106113 3.11281874E-05 -0.707107365
vn 0.923880935 4.04684542E-05 -0.382680118
vn 0.92387718 4.04682978E-05 -0.382688999
vn 1.23554889E-06 3.44329095E-07 -1
vn 1.23554889E-06 3.44329152E-07 -1
vn 1.23554889E-06 3.44329095E-07 -1
vn 1.23554889E-06 3.44329095E-07 -1
vn -0.923880458 -4.02474725E-05 -0.38268137
vn -0.707104325 -3.0666044E-05 -0.707109153
vn -0.707104325 -3.0666044E-05 -0.707109272
vn -0.923877358 -4.02473306E-05 -0.382688612
vn -0.923879504 -4.05766841E-05 0.382683277
vn -0.92387718 -4.05765823E-05 0.382689029
vn -0.707102537 -3.12743432E-05 0.707110941
vn -0.707102537 -3.12743505E-05 0.707110941
vn -0 -6.88550131E-07 1
vn -0 -6.88550131E-07 1
vn -0 -6.88550131E-07 1
vn -0 -6.88550131E-07 1
vn -0.707110524 -0.000110841182 -0.707102954
vn -0.707110524 -0.000110841182 -0.707102954
vn -0.923882246 -0.000124153739 -0.38267684
vn -0.9238801 -0.00012415371 -0.382681996
vn -0.923882544 -0.000124254497 0.382675976
vn -0.923880517 -0.000124254409 0.382680923
vn -0.707116663 -0.000111028057 0.707096875
vn -0.707116723 -0.00011102805 0.707096815
vn 4.94966935E-06 -8.00437265E-05 -1
vn 4.94966935E-06 -8.00437265E-05 -1
vn 4.9496698E-06 -8.00437265E-05 -1
vn 4.94966935E-06 -8.00437265E-05 -1
vn 0.92388308 -4.34492176E-05 -0.382674903
vn 0.707112193 -4.89764388E-05 -0.707101345
vn 0.707112074 -4.89764388E-05 -0.707101405
vn 0.923879802 -4.34494068E-05 -0.382682651
vn 0.923885822 -4.36217815E-05 0.382668346
vn 0.923879623 -4.36221562E-05 0.382683158
vn 0.70712018 -4.92957261E-05 0.707093358
vn 0.70712018 -4.92957224E-05 0.707093358
vn -0 -8.02160866E-05 1
vn -0 -8.02160866E-05 1
vn -0 -8.02160866E-05 1
vn -0 -8.02160866E-05 1
vn -0.56606859 0.56607008 0.59927547
vn -0.682564974 0.334095448 0.649988711
vn -0.578269005 0.58365041 0.57005018
vn -0.690070391 0.335373491 0.641348302
vn -0.659011364 0.67551595 0.330729604
vn -0.64791286 0.685770929 0.331552684
vn -0.334081054 0.703815818 0.62692368
vn -0.382198244 0.673107505 0.633127809
vn 0.403237492 -0.620328128 -0.672749937
vn 0.56789875 -0.595804632 -0.567897797
vn 0.688533366 -0.643460095 -0.334486097
vn 0.578119695 -0.567418218 -0.586356819
vn 0.334026426 -0.612724721 -0.716236472
vn 0.695425868 -0.635126531 -0.336150587
vn 0.640214562 -0.330921829 -0.693264723
vn 0.652117848 -0.329668909 -0.682686329
vn -0.688543022 -0.643448055 0.334489286
vn -0.688543141 -0.643448234 -0.33448875
vn -0.695433795 -0.635115743 -0.336154312
vn -0.695433617 -0.635115743 0.336154908
vn -0.331164867 -0.623457968 -0.70825839
vn 0.403237492 -0.620328128 -0.672749937
vn 0.334026426 -0.612724721 -0.716236472
vn -0.334028453 -0.612725616 -0.716234863
vn 0.688533366 -0.643460095 -0.334486097
vn 0.688532889 -0.643460453 0.334486276
vn 0.695425689 -0.635126352 0.336151183
vn 0.695425868 -0.635126531 -0.336150587
vn 0.337593168 -0.662494361 0.668679357
vn -0.337595046 -0.662492394 0.66868031
vn -0.337989718 -0.656426907 0.674438
vn 0.33798781 -0.656425893 0.674439967
vn -0.334081054 0.703815818 0.62692368
vn 0.334079117 0.703817487 0.626922667
vn 0.331997991 0.695616484 0.637099028
vn -0.382198244 0.673107505 0.633127809
vn 0.647976041 0.685717285 0.331540138
vn 0.647976041 0.685717583 -0.331539482
vn 0.659075916 0.675457299 -0.330721259
vn 0.659075618 0.67545718 0.330721796
vn 0.328776479 0.666588962 -0.669003248
vn -0.328778327 0.666587114 -0.669004083
vn -0.32921198 0.654132187 -0.680977583
vn 0.329210013 0.654130936 -0.680979729
vn -0.64791292 0.685771167 -0.331552058
vn -0.64791286 0.685770929 0.331552684
vn -0.659011364 0.67551595 0.330729604
vn -0.659011602 0.675516129 -0.330729067
vn 0.690066397 0.335368961 0.641354859
vn 0.690062761 -0.335369259 0.641358614
vn 0.682554543 -0.334091961 0.650001526
vn 0.682554841 0.334092408 0.65000087
vn -0.690070808 -0.335372984 0.641347945
vn -0.690070391 0.335373491 0.641348302
vn -0.682564974 0.334095448 0.649988711
vn -0.682564676 -0.334095031 0.649989128
vn 0.652117848 -0.329668909 -0.682686329
vn 0.652118683 0.329668462 -0.682685852
vn 0.64021194 0.330921322 -0.693267405
vn 0.640214562 -0.330921829 -0.693264723
vn -0.652127683 0.32967326 -0.682674825
vn -0.65212822 -0.329672754 -0.682674706
vn -0.64022702 -0.330925167 -0.69325161
vn -0.640227318 0.330925703 -0.693251073
vn -4.97091662E-07 -5.09143638E-06 1
vn -4.97091662E-07 -5.09143729E-06 1
vn -4.97091662E-07 -5.09143729E-06 1
vn -4.97091662E-07 -5.09143638E-06 1
vn -1.15341902E-06 7.02986313E-07 1
vn -1.15341902E-06 7.02986313E-07 1
vn -9.94183551E-07 -1.018281E-05 1
vn -9.94183551E-07 -1.018281E-05 1
vn 0.382621378 -0.0018440308 -0.923903406
vn -0.38274157 -0.0018440634 -0.923853576
vn -0.382618874 -0.00184402696 -0.923904479
vn 0.382745236 -0.00184406783 -0.923852146
vn 0.923926532 -0.00174323295 -0.382565916
vn 0.923830271 -0.00174336357 -0.382798463
vn 0.923895299 -0.00160258065 0.38264215
vn 0.923862398 -0.00160259579 0.382721364
vn 0.382777631 -0.00150489353 0.923839331
vn 0.382590711 -0.00150481006 0.923916757
vn -0.382587999 -0.00150481053 0.92391777
vn -0.382773995 -0.00150489376 0.923840761
vn -0.923893869 -0.00160392444 0.382645518
vn -0.923861206 -0.0016039391 0.382724255
vn -0.923925221 -0.00174457347 -0.382569253
vn -0.923829079 -0.00174470281 -0.382801414
vn -0.382618874 -0.00184402696 -0.923904479
vn -0.38274157 -0.0018440634 -0.923853576
vn 0.382967174 0.0303052608 -0.923264742
vn -0.382030189 0.0303149428 -0.92365247
vn -0.382972449 0.0303170793 -0.923262119
vn 0.382037669 0.0303031746 -0.923649728
vn 0.923261881 0.0302961078 -0.382974803
vn 0.923652947 0.0302939694 -0.382030785
vn 0.923262894 0.0302928332 0.382972538
vn 0.923652351 0.0302907079 0.382032424
vn 0.382968247 0.0302978363 0.923264563
vn 0.382037491 0.030295752 0.923650146
vn -0.382973611 0.030309679 0.923261881
vn -0.38202998 0.0303075332 0.923652768
vn -0.923262835 0.0303213745 0.382970452
vn -0.923650146 0.0303192809 0.382035673
vn -0.923261821 0.0303246323 -0.382972717
vn -0.923650622 0.0303225201 -0.382034004
vn -0.382972449 0.0303170793 -0.923262119
vn -0.382030189 0.0303149428 -0.92365247
vn 0.917407274 0.108170137 0.382966012
vn 0.919578075 0.107986704 -0.377776504
vn 0.917446136 0.108050056 -0.382907122
vn 0.919594288 0.108103573 0.377703637
vn 0.382916898 0.108245373 0.917419016
vn 0.37773788 0.108180888 0.919571102
vn -0.382920563 0.108242534 0.917417705
vn -0.377748221 0.108178183 0.919567168
vn -0.917407572 0.108164519 0.382966995
vn -0.919594407 0.108097933 0.377704948
vn -0.917442977 0.108048066 -0.38291499
vn -0.919575751 0.107984677 -0.377782613
vn -0.382955372 0.107965656 -0.917435884
vn -0.3777318 0.107899994 -0.919606566
vn 0.382964462 0.10796617 -0.91743207
vn 0.377741784 0.107900523 -0.919602454
vn 0.917446136 0.108050056 -0.382907122
vn 0.919578075 0.107986704 -0.377776504
vn -0.382619619 0.00187067082 -0.923904061
vn 0.38274321 0.00187310018 -0.923852861
vn 0.382618815 0.00187306339 -0.923904479
vn -0.382740825 0.0018707061 -0.923853874
vn -0.923926532 0.00176346162 -0.382565767
vn -0.923827648 0.00176359853 -0.382804751
vn -0.923892617 0.00161328597 0.382648259
vn -0.923861742 0.00161329948 0.382722974
vn -0.382774472 0.00150921161 0.923840523
vn -0.382586002 0.00150912639 0.923918724
vn 0.382585198 0.00151151768 0.923919022
vn 0.382776827 0.00151160569 0.923839629
vn 0.923892856 0.00161838217 0.382647872
vn 0.923862219 0.00161839556 0.382721752
vn 0.923926711 0.0017685584 -0.382565439
vn 0.923828125 0.00176869461 -0.382803589
vn 0.382618815 0.00187306339 -0.923904479
vn 0.38274321 0.00187310018 -0.923852861
vn -0.382968277 -0.0303052254 -0.923264205
vn 0.382032156 -0.0303149149 -0.923651636
vn 0.382971942 -0.0303170569 -0.923262417
vn -0.382036209 -0.0303031318 -0.923650324
vn -0.923261702 -0.0302927177 -0.382975459
vn -0.923653305 -0.0302905701 -0.382030427
vn -0.923262835 -0.0302894562 0.382973045
vn -0.923652649 -0.0302873217 0.382031858
vn -0.382969618 -0.0302978083 0.923263907
vn -0.38203615 -0.0302957091 0.923650622
vn 0.382973254 -0.0303096492 0.923262
vn 0.382032186 -0.0303075109 0.923651934
vn 0.923263311 -0.0303246565 0.382969022
vn 0.923650146 -0.0303225778 0.382035255
vn 0.923262179 -0.0303279124 -0.382971466
vn 0.923650622 -0.0303258095 -0.382033855
vn 0.382971942 -0.0303170569 -0.923262417
vn 0.382032156 -0.0303149149 -0.923651636
vn -0.917408705 -0.108193487 0.382956177
vn -0.919583678 -0.10800723 -0.377756804
vn -0.917449117 -0.108070642 -0.382894069
vn -0.919597328 -0.108126804 0.37768954
vn -0.382926702 -0.108273245 0.917411625
vn -0.377750546 -0.108208813 0.919562638
vn 0.3829301 -0.108275153 0.917410016
vn 0.377757102 -0.108210713 0.919559717
vn 0.91740489 -0.108199209 0.382963777
vn 0.919592857 -0.108132556 0.377698839
vn 0.917442024 -0.108078785 -0.382908881
vn 0.919574916 -0.108015388 -0.377775759
vn 0.382962316 -0.107991479 -0.917429984
vn 0.377737105 -0.107925728 -0.91960144
vn -0.382967472 -0.107987583 -0.917428255
vn -0.377745897 -0.107921951 -0.919598222
vn -0.917449117 -0.108070642 -0.382894069
vn -0.919583678 -0.10800723 -0.377756804
vn -0.9239254 0.382568598 -0.00176384987
vn -0.923863113 -0.382719636 -0.00162010605
vn -0.923893273 -0.382646918 -0.00162009359
vn -0.923830569 0.382797539 -0.00176397641
vn -0.382616431 0.923905373 -0.00185376534
vn -0.382748336 0.923850715 -0.00185380713
vn 0.382627547 0.923900902 -0.00183534389
vn 0.382738948 0.923854709 -0.00183537323
vn 0.923829257 0.382800817 -0.00172015955
vn 0.923927426 0.3825638 -0.00172002462
vn 0.923895299 -0.38264218 -0.00157627091
vn 0.923861802 -0.382723033 -0.00157628662
vn 0.38259533 -0.92391485 -0.00148803869
vn 0.382771522 -0.923841894 -0.00148811343
vn -0.382584214 -0.92391938 -0.0015064578
vn -0.38278088 -0.9238379 -0.00150655082
vn -0.923893273 -0.382646918 -0.00162009359
vn -0.923863113 -0.382719636 -0.00162010605
vn -0.923238933 0.38297087 0.0310344305
vn -0.923636377 -0.382010758 0.0310434066
vn -0.923236191 -0.38297677 0.0310456567
vn -0.923634052 0.382017106 0.0310322419
vn -0.382975042 0.923237503 0.0310271624
vn -0.382012069 0.923636377 0.0310249366
vn 0.382973433 0.923238337 0.0310223196
vn 0.382015705 0.923635066 0.0310201161
vn 0.923239231 0.382971227 0.0310227312
vn 0.923635304 0.382015288 0.031020537
vn 0.92323637 -0.382977158 0.0310339574
vn 0.92363739 -0.382009029 0.0310317036
vn 0.382970542 -0.923238635 0.0310493503
vn 0.382017881 -0.923633218 0.0310471598
vn -0.382972211 -0.923237681 0.0310541838
vn -0.382014275 -0.923634648 0.0310519803
vn -0.923236191 -0.38297677 0.0310456567
vn -0.923636377 -0.382010758 0.0310434066
vn 0.382964879 0.917427838 0.10800036
vn -0.377746761 0.919597805 0.107922524
vn -0.38296172 0.91743058 0.107987985
vn 0.37773633 0.919600725 0.107934527
vn 0.917441428 0.382907003 0.108090855
vn 0.919574797 0.377772719 0.108027436
vn 0.917403996 -0.382962942 0.108210042
vn 0.919590652 -0.377701044 0.108143426
vn 0.382921517 -0.917412102 0.108287163
vn 0.377745628 -0.919563055 0.108222701
vn -0.38291508 -0.917415619 0.108279988
vn -0.377745628 -0.91956383 0.108215719
vn -0.917402565 -0.382971555 0.108190812
vn -0.919591069 -0.377705663 0.1081241
vn -0.917446792 0.382901073 0.108064897
vn -0.919583797 0.377758205 0.108001396
vn -0.38296172 0.91743058 0.107987985
vn -0.377746761 0.919597805 0.107922524
vn -1 9.94183551E-07 -1.01828664E-05
vn -1 9.94183551E-07 -1.01828664E-05
vn -1 9.94183551E-07 -1.01828664E-05
vn -1 9.94183551E-07 -1.01828664E-05
vn -1 2.3068385E-06 1.40597069E-06
vn -1 2.30683872E-06 1.40597069E-06
vn -1 1.98834323E-06 -6.78856895E-06
vn -1 1.98834323E-06 -6.78856895E-06
vn 1 0 6.78859078E-06
vn 1 0 6.78859078E-06
vn 1 0 6.78859033E-06
vn 1 0 6.78859078E-06
vn 1 7.68944858E-07 -1.40597137E-06
vn 1 7.68944858E-07 -1.40597137E-06
vn 1 9.94185143E-07 1.69714149E-05
vn 1 9.94184916E-07 1.69714167E-05
vn -0.907810867 -0.388406813 -0.158175677
vn -0.965170324 -0.184995472 0.184994549
vn -0.907861471 -0.388284296 0.158185959
vn -0.90786165 -0.158184692 0.388284534
vn -0.965137661 -0.184993774 -0.185166657
vn -0.907737195 -0.158306971 -0.388525605
vn -0.907687664 0.158295661 -0.388645738
vn -0.965138137 0.185165226 0.184992552
vn -0.907812238 0.158174783 0.388403922
vn -0.907738447 0.388523072 0.158305749
vn -0.965105593 0.18516314 -0.185164467
vn -0.907688439 0.38864398 -0.158295617
vn 0.907860637 -0.38828668 0.158185124
vn 0.96513778 -0.184993565 -0.185165972
vn 0.907811224 -0.388406426 -0.158174321
vn 0.907737553 -0.158306554 -0.388524681
vn 0.965170205 -0.184996039 0.184994683
vn 0.907861769 -0.158187404 0.388283104
vn 0.907812238 0.158174723 0.388403982
vn 0.965105593 0.1851632 -0.185164243
vn 0.907687962 0.158296108 -0.388644934
vn 0.907688379 0.388644725 -0.158294842
vn 0.965138137 0.185165137 0.184992611
vn 0.907738566 0.388522893 0.158305719
vn -0.387846828 -0.158017099 -0.908077836
vn -0.184800297 0.184891775 -0.965227306
vn -0.387966067 0.158007115 -0.908028603
vn -0.158075228 0.388029546 -0.907989681
vn -0.184802592 -0.184720933 -0.965259612
vn -0.15795587 -0.387790769 -0.908112466
vn 0.157954663 -0.387798935 -0.908109188
vn 0.18481186 0.184891805 -0.96522516
vn 0.15807578 0.388037026 -0.907986462
vn 0.387983143 0.158014685 -0.908020079
vn 0.184813708 -0.18472071 -0.965257645
vn 0.387862146 -0.158024684 -0.908069968
vn -0.572831869 0.578176439 -0.581012607
vn -0.640227318 0.330925703 -0.693251073
vn -0.32921198 0.654132187 -0.680977583
vn -0.652127683 0.32967326 -0.682674825
vn -0.328778327 0.666587114 -0.669004083
vn -0.659011602 0.675516129 -0.330729067
vn -0.64791292 0.685771167 -0.331552058
vn 0.329210013 0.654130936 -0.680979729
vn 0.57284081 0.578173816 -0.581006527
vn 0.328776479 0.666588962 -0.669003248
vn 0.64021194 0.330921322 -0.693267405
vn 0.647976041 0.685717583 -0.331539482
vn 0.652118683 0.329668462 -0.682685852
vn 0.659075916 0.675457299 -0.330721259
vn 0.659075618 0.67545718 0.330721796
vn 0.578278184 0.583648384 0.570042968
vn 0.647976041 0.685717285 0.331540138
vn 0.690066397 0.335368961 0.641354859
vn 0.334079117 0.703817487 0.626922667
vn 0.682554841 0.334092408 0.65000087
vn 0.331997991 0.695616484 0.637099028
vn -0.337595046 -0.662492394 0.66868031
vn -0.688543022 -0.643448055 0.334489286
vn -0.583683789 -0.57290554 0.575406373
vn -0.337989718 -0.656426907 0.674438
vn -0.695433617 -0.635115743 0.336154908
vn -0.682564676 -0.334095031 0.649989128
vn -0.690070808 -0.335372984 0.641347945
vn 0.688532889 -0.643460453 0.334486276
vn 0.337593168 -0.662494361 0.668679357
vn 0.58368361 -0.5729056 0.575406492
vn 0.695425689 -0.635126352 0.336151183
vn 0.33798781 -0.656425893 0.674439967
vn 0.690062761 -0.335369259 0.641358614
vn 0.682554543 -0.334091961 0.650001526
vn -0.688543141 -0.643448234 -0.33448875
vn -0.331164867 -0.623457968 -0.70825839
vn -0.578119457 -0.567418873 -0.586356282
vn -0.695433795 -0.635115743 -0.336154312
vn -0.334028453 -0.612725616 -0.716234863
vn -0.65212822 -0.329672754 -0.682674706
vn -0.64022702 -0.330925167 -0.69325161
vn -0.462666839 0.18434301 0.867154479
vn -0.45627591 -0.202929422 0.866390169
vn -0.462667733 -0.184343264 0.867154062
vn -0.456275076 0.202929065 0.866390705
vn -0.202929705 -0.45627743 0.866389394
vn -0.184343904 0.462668419 0.867153585
vn -0.184343636 -0.462669313 0.867153049
vn -0.202928081 0.456277132 0.86638993
vn 0.202928916 -0.456277698 0.866389394
vn 0.184344366 0.462668806 0.867153227
vn 0.18434459 -0.462669075 0.867153049
vn 0.202928782 0.45627743 0.866389573
vn 0.456277728 -0.202929333 0.866389275
vn 0.462669224 0.18434383 0.867153168
vn 0.462669432 -0.184343755 0.867153049
vn 0.456277519 0.202929124 0.866389453
vn -0.763042569 0.547944307 -0.342816293
vn -0.738098204 -0.172634423 -0.652233303
vn -0.763041556 -0.547942996 -0.342820793
vn -0.7380988 0.17263402 -0.652232826
vn -0.172631279 -0.738090754 -0.652242601
vn -0.547946215 0.763041019 -0.342816889
vn -0.547945321 -0.76303941 -0.342821956
vn -0.172631785 0.738093674 -0.652239203
vn 0.172634035 -0.738089323 -0.652243495
vn 0.547941089 0.763037384 -0.342833012
vn 0.547940254 -0.763035774 -0.34283796
vn 0.172634467 0.738092244 -0.652240098
vn 0.738091648 -0.172633052 -0.65224123
vn 0.763038337 0.547940671 -0.342831671
vn 0.763037384 -0.54793936 -0.342835933
vn 0.738092124 0.172632635 -0.652240694
vn -0.164396256 -0.895764589 -0.413012773
vn 0.181697562 -0.895106137 -0.407149822
vn 0.164397329 -0.895764053 -0.413013637
vn -0.181696132 -0.895106912 -0.407148868
vn 0.407152265 -0.895105302 -0.181696415
vn -0.413011163 -0.895765483 -0.164396062
vn 0.413015932 -0.89576298 -0.164397344
vn -0.407147557 -0.895107567 -0.18169558
vn 0.407152832 -0.895105064 0.181696221
vn -0.413011968 -0.895765066 0.164395854
vn 0.413016319 -0.895762801 0.164397314
vn -0.407148182 -0.89510721 0.181696117
vn 0.181698143 -0.89510566 0.407150567
vn -0.164396986 -0.895764053 0.413013905
vn 0.16439797 -0.895763576 0.413014501
vn -0.181696758 -0.895106256 0.40715
vn -0.538333952 0.317818016 -0.780505061
vn 0.190937877 0.589340091 -0.784997404
vn 0.538333833 0.317820221 -0.780504286
vn -0.190940008 0.589338362 -0.784998298
vn 0.784992635 0.589346111 -0.190939069
vn -0.780503213 0.31781441 -0.538338959
vn 0.780499518 0.317822844 -0.538339376
vn -0.785001397 0.58933413 -0.190940037
vn 0.784992278 0.589346468 0.190939248
vn -0.780503213 0.317818671 0.538336396
vn 0.780499399 0.317827255 0.538336694
vn -0.78500104 0.589334548 0.190940201
vn 0.190937772 0.589343965 0.784994543
vn -0.53833437 0.317822963 0.780502737
vn 0.538334429 0.317825139 0.780501902
vn -0.190939844 0.589341998 0.784995496
vn 0.164399162 0.895762682 -0.413015902
vn -0.181700066 0.895103157 -0.407155335
vn -0.164398357 0.895761132 -0.413019449
vn 0.181695879 0.895105064 -0.407152921
vn -0.407158524 0.895101666 -0.181699991
vn 0.413016617 0.895762622 -0.164398
vn -0.413022369 0.895759463 -0.164400786
vn 0.407152921 0.895104885 -0.18169713
vn -0.40715915 0.895101368 0.181699991
vn 0.413017422 0.895762205 0.16439797
vn -0.413022816 0.895759225 0.164400876
vn 0.407153577 0.895104408 0.181697845
vn -0.181700602 0.895102441 0.407156616
vn 0.164400041 0.895761728 0.413017422
vn -0.164399117 0.895760417 0.413020819
vn 0.181696564 0.89510411 0.40715462
vn 0.538336575 -0.317828208 -0.78049922
vn -0.19093591 -0.589347482 -0.784992337
vn -0.538335145 -0.317820579 -0.780503273
vn 0.190936327 -0.589349747 -0.784990609
vn -0.784992695 -0.589346349 -0.190937996
vn 0.780497253 -0.317832232 -0.538337111
vn -0.78049922 -0.317820191 -0.538341284
vn 0.784983993 -0.589358807 -0.190935627
vn -0.784992635 -0.589346349 0.190938443
vn 0.780497313 -0.317835569 0.538334966
vn -0.780499279 -0.317823559 0.538339138
vn 0.784983814 -0.589358866 0.190936089
vn -0.190935969 -0.589349031 0.784991264
vn 0.538336813 -0.317831278 0.78049773
vn -0.538335443 -0.317823827 0.780501842
vn 0.190936461 -0.589351416 0.784989357
vn -6.2457998E-06 1 1.34069987E-05
vn -5.77235551E-06 1 1.33025906E-05
vn 1.79965582E-06 1 5.73058605E-06
vn 1.71142665E-06 1 5.44964041E-06
vn -1.94014319E-05 1 4.36324854E-06
vn -5.73049283E-06 1 1.7996482E-06
vn -1.96059536E-05 1 3.79276298E-06
vn -5.4497068E-06 1 1.71146758E-06
vn -1.14439863E-05 1 -3.59398769E-06
vn -1.33025933E-05 1 9.37171353E-06
vn -1.20341192E-05 1 -3.77931951E-06
vn -1.34070024E-05 1 9.66876451E-06
vn -3.59397291E-06 1 1.14443428E-05
vn -1.13513115E-05 1 1.96064502E-05
vn -3.77929427E-06 1 1.20344639E-05
vn -1.15514313E-05 1 1.94018394E-05
vn -1.34069824E-05 6.24577069E-06 1
vn -1.33025724E-05 5.77232549E-06 1
vn -5.7305856E-06 -1.79965548E-06 1
vn -5.44962859E-06 -1.71142278E-06 1
vn -4.19210664E-06 1.99463411E-05 1
vn -1.79964786E-06 5.73048874E-06 1
vn -3.61277898E-06 2.01789553E-05 1
vn -1.71146939E-06 5.44970726E-06 1
vn 3.76514481E-06 1.19889764E-05 1
vn -9.371739E-06 1.33026033E-05 1
vn 3.95927373E-06 1.26071218E-05 1
vn -9.66875996E-06 1.34070051E-05 1
vn -1.19893184E-05 3.76512321E-06 1
vn -2.01795265E-05 1.15312923E-05 1
vn -1.26075147E-05 3.95926099E-06 1
vn -1.9946825E-05 1.17225864E-05 1
g P_Bend_B_0
f 3/3/3 2/2/2 1/1/1
f 6/6/6 5/5/5 4/4/4
f 9/9/9 8/8/8 7/7/7
f 12/12/12 11/11/11 10/10/10
f 15/15/15 14/14/14 13/13/13
f 18/18/18 17/17/17 16/16/16
f 21/21/21 20/20/20 19/19/19
f 24/24/24 23/23/23 22/22/22
f 27/27/27 26/26/26 25/25/25
f 28/28/28 27/27/27 25/25/25
f 29/29/29 27/27/27 28/28/28
f 30/30/30 29/29/29 28/28/28
f 33/33/33 32/32/32 31/31/31
f 34/34/34 33/33/33 31/31/31
f 37/37/37 36/36/36 35/35/35
f 38/38/38 37/37/37 35/35/35
f 41/41/41 40/40/40 39/39/39
f 40/40/40 42/42/42 39/39/39
f 39/39/39 42/42/42 43/43/43
f 42/42/42 44/44/44 43/43/43
f 43/43/43 44/44/44 45/45/45
f 44/44/44 46/46/46 45/45/45
f 49/49/49 48/48/48 47/47/47
f 50/50/50 49/49/49 47/47/47
f 53/53/53 52/52/52 51/51/51
f 54/54/54 53/53/53 51/51/51
f 55/55/55 53/53/53 54/54/54
f 56/56/56 55/55/55 54/54/54
f 57/57/57 55/55/55 56/56/56
f 58/58/58 57/57/57 56/56/56
f 61/61/61 60/60/60 59/59/59
f 62/62/62 61/61/61 59/59/59
f 65/65/65 64/64/64 63/63/63
f 64/64/64 66/66/66 63/63/63
f 63/63/63 66/66/66 67/67/67
f 66/66/66 68/68/68 67/67/67
f 67/67/67 68/68/68 69/69/69
f 68/68/68 70/70/70 69/69/69
f 73/73/73 72/72/72 71/71/71
f 74/74/74 73/73/73 71/71/71
f 77/77/77 76/76/76 75/75/75
f 78/78/78 77/77/77 75/75/75
f 79/79/79 77/77/77 78/78/78
f 80/80/80 79/79/79 78/78/78
f 83/83/83 82/82/82 81/81/81
f 84/84/84 83/83/83 81/81/81
f 87/87/87 86/86/86 85/85/85
f 88/88/88 87/87/87 85/85/85
f 91/91/91 90/90/90 89/89/89
f 90/90/90 92/92/92 89/89/89
f 89/89/89 92/92/92 93/93/93
f 92/92/92 94/94/94 93/93/93
f 93/93/93 94/94/94 95/95/95
f 94/94/94 96/96/96 95/95/95
f 99/99/99 98/98/98 97/97/97
f 100/100/100 99/99/99 97/97/97
f 103/103/103 102/102/102 101/101/101
f 104/104/104 103/103/103 101/101/101
f 105/105/105 103/103/103 104/104/104
f 106/106/106 105/105/105 104/104/104
f 107/107/107 105/105/105 106/106/106
f 108/108/108 107/107/107 106/106/106
f 111/111/111 110/110/110 109/109/109
f 112/112/112 111/111/111 109/109/109
f 115/115/115 114/114/114 113/113/113
f 114/114/114 116/116/116 113/113/113
f 113/113/113 116/116/116 117/117/117
f 116/116/116 118/118/118 117/117/117
f 117/117/117 118/118/118 119/119/119
f 118/118/118 120/120/120 119/119/119
f 123/123/123 122/122/122 121/121/121
f 124/124/124 123/123/123 121/121/121
f 127/127/127 126/126/126 125/125/125
f 126/126/126 127/127/127 128/128/128
f 127/127/127 129/129/129 128/128/128
f 130/130/130 129/129/129 127/127/127
f 127/127/127 131/131/131 130/130/130
f 131/131/131 127/127/127 132/132/132
f 135/135/135 134/134/134 133/133/133
f 136/136/136 135/135/135 133/133/133
f 137/137/137 136/136/136 133/133/133
f 135/135/135 136/136/136 138/138/138
f 136/136/136 137/137/137 139/139/139
f 136/136/136 140/140/140 138/138/138
f 139/139/139 140/140/140 136/136/136
f 143/143/143 142/142/142 141/141/141
f 144/144/144 143/143/143 141/141/141
f 147/147/147 146/146/146 145/145/145
f 148/148/148 147/147/147 145/145/145
f 151/151/151 150/150/150 149/149/149
f 152/152/152 151/151/151 149/149/149
f 155/155/155 154/154/154 153/153/153
f 156/156/156 155/155/155 153/153/153
f 159/159/159 158/158/158 157/157/157
f 160/160/160 159/159/159 157/157/157
f 163/163/163 162/162/162 161/161/161
f 164/164/164 163/163/163 161/161/161
f 167/167/167 166/166/166 165/165/165
f 168/168/168 167/167/167 165/165/165
f 171/171/171 170/170/170 169/169/169
f 172/172/172 171/171/171 169/169/169
f 175/175/175 174/174/174 173/173/173
f 176/176/176 175/175/175 173/173/173
f 179/179/179 178/178/178 177/177/177
f 180/180/180 179/179/179 177/177/177
f 183/183/183 182/182/182 181/181/181
f 184/184/184 183/183/183 181/181/181
f 187/187/187 186/186/186 185/185/185
f 188/188/188 187/187/187 185/185/185
f 191/191/191 190/190/190 189/189/189
f 190/190/190 192/192/192 189/189/189
f 192/192/192 193/193/193 189/189/189
f 193/193/193 194/194/194 189/189/189
f 195/195/195 194/194/194 193/193/193
f 196/196/196 195/195/195 193/193/193
f 199/199/199 198/198/198 197/197/197
f 198/198/198 200/200/200 197/197/197
f 201/201/201 197/197/197 200/200/200
f 202/202/202 201/201/201 200/200/200
f 201/201/201 202/202/202 203/203/203
f 202/202/202 204/204/204 203/203/203
f 204/204/204 205/205/205 203/203/203
f 205/205/205 206/206/206 203/203/203
f 206/206/206 205/205/205 207/207/207
f 205/205/205 208/208/208 207/207/207
f 209/209/209 207/207/207 208/208/208
f 210/210/210 209/209/209 208/208/208
f 209/209/209 210/210/210 211/211/211
f 210/210/210 212/212/212 211/211/211
f 213/213/213 211/211/211 212/212/212
f 214/214/214 213/213/213 212/212/212
f 217/217/217 216/216/216 215/215/215
f 216/216/216 218/218/218 215/215/215
f 215/215/215 218/218/218 219/219/219
f 218/218/218 220/220/220 219/219/219
f 219/219/219 220/220/220 221/221/221
f 220/220/220 222/222/222 221/221/221
f 221/221/221 222/222/222 223/223/223
f 222/222/222 224/224/224 223/223/223
f 223/223/223 224/224/224 225/225/225
f 224/224/224 226/226/226 225/225/225
f 225/225/225 226/226/226 227/227/227
f 226/226/226 228/228/228 227/227/227
f 227/227/227 228/228/228 229/229/229
f 228/228/228 230/230/230 229/229/229
f 229/229/229 230/230/230 231/231/231
f 230/230/230 232/232/232 231/231/231
f 235/235/235 234/234/234 233/233/233
f 234/234/234 236/236/236 233/233/233
f 233/233/233 236/236/236 237/237/237
f 236/236/236 238/238/238 237/237/237
f 237/237/237 238/238/238 239/239/239
f 238/238/238 240/240/240 239/239/239
f 239/239/239 240/240/240 241/241/241
f 240/240/240 242/242/242 241/241/241
f 241/241/241 242/242/242 243/243/243
f 242/242/242 244/244/244 243/243/243
f 243/243/243 244/244/244 245/245/245
f 244/244/244 246/246/246 245/245/245
f 245/245/245 246/246/246 247/247/247
f 246/246/246 248/248/248 247/247/247
f 247/247/247 248/248/248 249/249/249
f 248/248/248 250/250/250 249/249/249
f 253/253/253 252/252/252 251/251/251
f 252/252/252 254/254/254 251/251/251
f 255/255/255 251/251/251 254/254/254
f 256/256/256 255/255/255 254/254/254
f 255/255/255 256/256/256 257/257/257
f 256/256/256 258/258/258 257/257/257
f 258/258/258 259/259/259 257/257/257
f 259/259/259 260/260/260 257/257/257
f 260/260/260 259/259/259 261/261/261
f 259/259/259 262/262/262 261/261/261
f 263/263/263 261/261/261 262/262/262
f 264/264/264 263/263/263 262/262/262
f 263/263/263 264/264/264 265/265/265
f 264/264/264 266/266/266 265/265/265
f 267/267/267 265/265/265 266/266/266
f 268/268/268 267/267/267 266/266/266
f 271/271/271 270/270/270 269/269/269
f 270/270/270 272/272/272 269/269/269
f 269/269/269 272/272/272 273/273/273
f 272/272/272 274/274/274 273/273/273
f 273/273/273 274/274/274 275/275/275
f 274/274/274 276/276/276 275/275/275
f 275/275/275 276/276/276 277/277/277
f 276/276/276 278/278/278 277/277/277
f 277/277/277 278/278/278 279/279/279
f 278/278/278 280/280/280 279/279/279
f 279/279/279 280/280/280 281/281/281
f 280/280/280 282/282/282 281/281/281
f 281/281/281 282/282/282 283/283/283
f 282/282/282 284/284/284 283/283/283
f 283/283/283 284/284/284 285/285/285
f 284/284/284 286/286/286 285/285/285
f 289/289/289 288/288/288 287/287/287
f 288/288/288 290/290/290 287/287/287
f 287/287/287 290/290/290 291/291/291
f 290/290/290 292/292/292 291/291/291
f 291/291/291 292/292/292 293/293/293
f 292/292/292 294/294/294 293/293/293
f 293/293/293 294/294/294 295/295/295
f 294/294/294 296/296/296 295/295/295
f 295/295/295 296/296/296 297/297/297
f 296/296/296 298/298/298 297/297/297
f 297/297/297 298/298/298 299/299/299
f 298/298/298 300/300/300 299/299/299
f 299/299/299 300/300/300 301/301/301
f 300/300/300 302/302/302 301/301/301
f 301/301/301 302/302/302 303/303/303
f 302/302/302 304/304/304 303/303/303
f 307/307/307 306/306/306 305/305/305
f 306/306/306 308/308/308 305/305/305
f 309/309/309 305/305/305 308/308/308
f 310/310/310 309/309/309 308/308/308
f 309/309/309 310/310/310 311/311/311
f 310/310/310 312/312/312 311/311/311
f 312/312/312 313/313/313 311/311/311
f 313/313/313 314/314/314 311/311/311
f 314/314/314 313/313/313 315/315/315
f 313/313/313 316/316/316 315/315/315
f 317/317/317 315/315/315 316/316/316
f 318/318/318 317/317/317 316/316/316
f 317/317/317 318/318/318 319/319/319
f 318/318/318 320/320/320 319/319/319
f 321/321/321 319/319/319 320/320/320
f 322/322/322 321/321/321 320/320/320
f 325/325/325 324/324/324 323/323/323
f 324/324/324 326/326/326 323/323/323
f 323/323/323 326/326/326 327/327/327
f 326/326/326 328/328/328 327/327/327
f 327/327/327 328/328/328 329/329/329
f 328/328/328 330/330/330 329/329/329
f 329/329/329 330/330/330 331/331/331
f 330/330/330 332/332/332 331/331/331
f 331/331/331 332/332/332 333/333/333
f 332/332/332 334/334/334 333/333/333
f 333/333/333 334/334/334 335/335/335
f 334/334/334 336/336/336 335/335/335
f 335/335/335 336/336/336 337/337/337
f 336/336/336 338/338/338 337/337/337
f 337/337/337 338/338/338 339/339/339
f 338/338/338 340/340/340 339/339/339
f 343/343/343 342/342/342 341/341/341
f 342/342/342 344/344/344 341/341/341
f 341/341/341 344/344/344 345/345/345
f 344/344/344 346/346/346 345/345/345
f 345/345/345 346/346/346 347/347/347
f 346/346/346 348/348/348 347/347/347
f 347/347/347 348/348/348 349/349/349
f 348/348/348 350/350/350 349/349/349
f 349/349/349 350/350/350 351/351/351
f 350/350/350 352/352/352 351/351/351
f 351/351/351 352/352/352 353/353/353
f 352/352/352 354/354/354 353/353/353
f 353/353/353 354/354/354 355/355/355
f 354/354/354 356/356/356 355/355/355
f 355/355/355 356/356/356 357/357/357
f 356/356/356 358/358/358 357/357/357
f 361/361/361 360/360/360 359/359/359
f 360/360/360 362/362/362 359/359/359
f 362/362/362 363/363/363 359/359/359
f 363/363/363 364/364/364 359/359/359
f 365/365/365 364/364/364 363/363/363
f 366/366/366 365/365/365 363/363/363
f 369/369/369 368/368/368 367/367/367
f 368/368/368 370/370/370 367/367/367
f 370/370/370 371/371/371 367/367/367
f 371/371/371 372/372/372 367/367/367
f 373/373/373 372/372/372 371/371/371
f 374/374/374 373/373/373 371/371/371
f 377/377/377 376/376/376 375/375/375
f 378/378/378 376/376/376 377/377/377
f 376/376/376 379/379/379 375/375/375
f 375/375/375 379/379/379 380/380/380
f 380/380/380 379/379/379 381/381/381
f 382/382/382 376/376/376 378/378/378
f 379/379/379 376/376/376 382/382/382
f 383/383/383 382/382/382 378/378/378
f 384/384/384 382/382/382 383/383/383
f 379/379/379 385/385/385 381/381/381
f 385/385/385 379/379/379 382/382/382
f 385/385/385 382/382/382 384/384/384
f 381/381/381 385/385/385 386/386/386
f 386/386/386 385/385/385 384/384/384
f 389/389/389 388/388/388 387/387/387
f 390/390/390 388/388/388 389/389/389
f 388/388/388 391/391/391 387/387/387
f 387/387/387 391/391/391 392/392/392
f 392/392/392 391/391/391 393/393/393
f 394/394/394 388/388/388 390/390/390
f 391/391/391 388/388/388 394/394/394
f 395/395/395 394/394/394 390/390/390
f 396/396/396 394/394/394 395/395/395
f 391/391/391 397/397/397 393/393/393
f 397/397/397 391/391/391 394/394/394
f 397/397/397 394/394/394 396/396/396
f 393/393/393 397/397/397 398/398/398
f 398/398/398 397/397/397 396/396/396
f 401/401/401 400/400/400 399/399/399
f 402/402/402 400/400/400 401/401/401
f 400/400/400 403/403/403 399/399/399
f 399/399/399 403/403/403 404/404/404
f 404/404/404 403/403/403 405/405/405
f 406/406/406 400/400/400 402/402/402
f 400/400/400 406/406/406 403/403/403
f 407/407/407 406/406/406 402/402/402
f 408/408/408 406/406/406 407/407/407
f 403/403/403 409/409/409 405/405/405
f 406/406/406 409/409/409 403/403/403
f 409/409/409 406/406/406 408/408/408
f 405/405/405 409/409/409 410/410/410
f 410/410/410 409/409/409 408/408/408
f 413/413/413 412/412/412 411/411/411
f 414/414/414 411/411/411 412/412/412
f 415/415/415 413/413/413 411/411/411
f 411/411/411 414/414/414 416/416/416
f 411/411/411 417/417/417 415/415/415
f 417/417/417 411/411/411 416/416/416
f 420/420/420 419/419/419 418/418/418
f 419/419/419 421/421/421 418/418/418
f 419/419/419 420/420/420 422/422/422
f 421/421/421 419/419/419 423/423/423
f 422/422/422 424/424/424 419/419/419
f 419/419/419 424/424/424 423/423/423
f 427/427/427 426/426/426 425/425/425
f 426/426/426 428/428/428 425/425/425
f 426/426/426 427/427/427 429/429/429
f 428/428/428 426/426/426 430/430/430
f 429/429/429 431/431/431 426/426/426
f 426/426/426 431/431/431 430/430/430
f 434/434/434 433/433/433 432/432/432
f 434/434/434 432/432/432 435/435/435
f 436/436/436 433/433/433 434/434/434
f 434/434/434 435/435/435 437/437/437
f 434/434/434 438/438/438 436/436/436
f 438/438/438 434/434/434 437/437/437
f 441/441/441 440/440/440 439/439/439
f 442/442/442 441/441/441 439/439/439
f 441/441/441 443/443/443 440/440/440
f 441/441/441 442/442/442 444/444/444
f 441/441/441 445/445/445 443/443/443
f 444/444/444 445/445/445 441/441/441
f 448/448/448 447/447/447 446/446/446
f 449/449/449 448/448/448 446/446/446
f 450/450/450 447/447/447 448/448/448
f 448/448/448 449/449/449 451/451/451
f 448/448/448 452/452/452 450/450/450
f 452/452/452 448/448/448 451/451/451
f 455/455/455 454/454/454 453/453/453
f 454/454/454 456/456/456 453/453/453
f 457/457/457 454/454/454 455/455/455
f 453/453/453 456/456/456 458/458/458
f 459/459/459 457/457/457 455/455/455
f 456/456/456 460/460/460 458/458/458
f 461/461/461 457/457/457 459/459/459
f 458/458/458 460/460/460 462/462/462
f 463/463/463 461/461/461 459/459/459
f 460/460/460 464/464/464 462/462/462
f 465/465/465 461/461/461 463/463/463
f 462/462/462 464/464/464 466/466/466
f 467/467/467 465/465/465 463/463/463
f 464/464/464 468/468/468 466/466/466
f 468/468/468 465/465/465 467/467/467
f 466/466/466 468/468/468 467/467/467
f 471/471/471 470/470/470 469/469/469
f 470/470/470 472/472/472 469/469/469
f 473/473/473 470/470/470 471/471/471
f 469/469/469 472/472/472 474/474/474
f 475/475/475 473/473/473 471/471/471
f 472/472/472 476/476/476 474/474/474
f 477/477/477 473/473/473 475/475/475
f 474/474/474 476/476/476 478/478/478
f 479/479/479 477/477/477 475/475/475
f 476/476/476 480/480/480 478/478/478
f 481/481/481 477/477/477 479/479/479
f 478/478/478 480/480/480 482/482/482
f 483/483/483 481/481/481 479/479/479
f 480/480/480 484/484/484 482/482/482
f 484/484/484 481/481/481 483/483/483
f 482/482/482 484/484/484 483/483/483
f 487/487/487 486/486/486 485/485/485
f 486/486/486 488/488/488 485/485/485
f 489/489/489 486/486/486 487/487/487
f 485/485/485 488/488/488 490/490/490
f 491/491/491 489/489/489 487/487/487
f 488/488/488 492/492/492 490/490/490
f 493/493/493 489/489/489 491/491/491
f 490/490/490 492/492/492 494/494/494
f 495/495/495 493/493/493 491/491/491
f 492/492/492 496/496/496 494/494/494
f 497/497/497 493/493/493 495/495/495
f 494/494/494 496/496/496 498/498/498
f 499/499/499 497/497/497 495/495/495
f 496/496/496 500/500/500 498/498/498
f 500/500/500 497/497/497 499/499/499
f 498/498/498 500/500/500 499/499/499
f 503/503/503 502/502/502 501/501/501
f 502/502/502 504/504/504 501/501/501
f 505/505/505 502/502/502 503/503/503
f 501/501/501 504/504/504 506/506/506
f 507/507/507 505/505/505 503/503/503
f 504/504/504 508/508/508 506/506/506
f 509/509/509 505/505/505 507/507/507
f 506/506/506 508/508/508 510/510/510
f 511/511/511 509/509/509 507/507/507
f 508/508/508 512/512/512 510/510/510
f 513/513/513 509/509/509 511/511/511
f 510/510/510 512/512/512 514/514/514
f 515/515/515 513/513/513 511/511/511
f 512/512/512 516/516/516 514/514/514
f 516/516/516 513/513/513 515/515/515
f 514/514/514 516/516/516 515/515/515
f 519/519/519 518/518/518 517/517/517
f 518/518/518 520/520/520 517/517/517
f 521/521/521 518/518/518 519/519/519
f 517/517/517 520/520/520 522/522/522
f 523/523/523 521/521/521 519/519/519
f 520/520/520 524/524/524 522/522/522
f 525/525/525 521/521/521 523/523/523
f 522/522/522 524/524/524 526/526/526
f 527/527/527 525/525/525 523/523/523
f 524/524/524 528/528/528 526/526/526
f 529/529/529 525/525/525 527/527/527
f 526/526/526 528/528/528 530/530/530
f 531/531/531 529/529/529 527/527/527
f 528/528/528 532/532/532 530/530/530
f 532/532/532 529/529/529 531/531/531
f 530/530/530 532/532/532 531/531/531
f 535/535/535 534/534/534 533/533/533
f 534/534/534 536/536/536 533/533/533
f 537/537/537 534/534/534 535/535/535
f 533/533/533 536/536/536 538/538/538
f 539/539/539 537/537/537 535/535/535
f 536/536/536 540/540/540 538/538/538
f 541/541/541 537/537/537 539/539/539
f 538/538/538 540/540/540 542/542/542
f 543/543/543 541/541/541 539/539/539
f 540/540/540 544/544/544 542/542/542
f 545/545/545 541/541/541 543/543/543
f 542/542/542 544/544/544 546/546/546
f 547/547/547 545/545/545 543/543/543
f 544/544/544 548/548/548 546/546/546
f 548/548/548 545/545/545 547/547/547
f 546/546/546 548/548/548 547/547/547
f 551/551/551 550/550/550 549/549/549
f 552/552/552 551/551/551 549/549/549
f 549/549/549 550/550/550 553/553/553
f 554/554/554 551/551/551 552/552/552
f 550/550/550 555/555/555 553/553/553
f 556/556/556 554/554/554 552/552/552
f 553/553/553 555/555/555 557/557/557
f 558/558/558 554/554/554 556/556/556
f 555/555/555 559/559/559 557/557/557
f 560/560/560 558/558/558 556/556/556
f 557/557/557 559/559/559 561/561/561
f 562/562/562 558/558/558 560/560/560
f 559/559/559 563/563/563 561/561/561
f 564/564/564 562/562/562 560/560/560
f 561/561/561 563/563/563 564/564/564
f 563/563/563 562/562/562 564/564/564
f 567/567/567 566/566/566 565/565/565
f 568/568/568 567/567/567 565/565/565
f 565/565/565 566/566/566 569/569/569
f 570/570/570 567/567/567 568/568/568
f 566/566/566 571/571/571 569/569/569
f 572/572/572 570/570/570 568/568/568
f 569/569/569 571/571/571 573/573/573
f 574/574/574 570/570/570 572/572/572
f 571/571/571 575/575/575 573/573/573
f 576/576/576 574/574/574 572/572/572
f 573/573/573 575/575/575 577/577/577
f 578/578/578 574/574/574 576/576/576
f 575/575/575 579/579/579 577/577/577
f 580/580/580 578/578/578 576/576/576
f 577/577/577 579/579/579 580/580/580
f 579/579/579 578/578/578 580/580/580
