g P_Straight_B
v 0.039210137 -0.367016464 -0.500001311
v -0.0392101556 -0.367041171 -0.21875146
v 0.0392101333 -0.367041171 -0.21875146
v -0.0392100103 -0.367016464 -0.500000775
v -0.0856162608 -0.320634693 -0.218751937
v -0.0856162608 -0.320609957 -0.500001252
v 0.0856171772 -0.320610374 -0.500000775
v 0.039210137 -0.367016464 -0.500001311
v 0.0392101333 -0.367041171 -0.21875146
v 0.0856171623 -0.320634991 -0.218750954
v 0.0856170356 -0.242189214 -0.500000179
v 0.0856171772 -0.320610374 -0.500000775
v 0.0856171623 -0.320634991 -0.218750954
v 0.0856170356 -0.24221386 -0.218750417
v 0.0392107964 -0.195783034 -0.500000179
v 0.0856170356 -0.242189214 -0.500000179
v 0.0856170356 -0.24221386 -0.218750417
v 0.0392107964 -0.195807725 -0.218750417
v -0.0392101556 -0.195783034 -0.500000179
v -0.0392103009 -0.195807725 -0.218750954
v -0.0856165141 -0.242189363 -0.500000775
v -0.085616529 -0.242214009 -0.21875146
v -0.0856162608 -0.320609957 -0.500001252
v -0.0856165141 -0.242189363 -0.500000775
v -0.085616529 -0.242214009 -0.21875146
v -0.0856162608 -0.320634693 -0.218751937
v 0.039210476 -0.366866529 0.499999076
v 0.0392106809 -0.366891086 0.218748972
v -0.0392101407 -0.366891176 0.218748465
v -0.0392103456 -0.366866678 0.499998659
v -0.0856159776 -0.320484877 0.218748465
v -0.0856164545 -0.32046026 0.499998659
v 0.0856165737 -0.32046032 0.499999136
v 0.0856167898 -0.320484906 0.218748942
v 0.0392106809 -0.366891086 0.218748972
v 0.039210476 -0.366866529 0.499999076
v 0.0856167227 -0.242039219 0.499998659
v 0.0856169239 -0.242063805 0.218748465
v 0.0856167898 -0.320484906 0.218748942
v 0.0856165737 -0.32046032 0.499999136
v 0.0392107405 -0.195632994 0.499998033
v 0.0856169239 -0.242063805 0.218748465
v 0.0856167227 -0.242039219 0.499998659
v 0.0392109416 -0.195657611 0.218747899
v -0.0392104685 -0.195632994 0.499998629
v -0.0392102748 -0.195657611 0.218748465
v -0.0856164545 -0.242039561 0.499998629
v -0.0856159776 -0.242064148 0.218748465
v -0.0856164545 -0.32046026 0.499998659
v -0.0856159776 -0.320484877 0.218748465
v -0.0856159776 -0.242064148 0.218748465
v -0.0856164545 -0.242039561 0.499998629
v -0.0894096047 -0.376645774 0.0605571531
v -0.0894096047 -0.376645774 -0.0605256632
v -0.094648242 -0.370904863 -0.0605257601
v -0.094648242 -0.370905042 0.06055687
v -0.06054141 -0.376645774 -0.0893936679
v 0.060540922 -0.376645774 -0.0893937647
v 0.060540542 -0.370904922 -0.0942664295
v -0.0605419911 -0.370904922 -0.0942664295
v 0.0894091204 -0.376645774 -0.0605256632
v 0.0894091204 -0.376645774 0.0605571531
v 0.0946479514 -0.370904863 0.06055687
v 0.0946481526 -0.370904863 -0.0605257601
v 0.060540922 -0.376645774 0.0894250646
v -0.06054141 -0.376645774 0.0894250646
v -0.0605416037 -0.370904952 0.0950463265
v 0.0605411194 -0.370904952 0.0950463265
v -0.06054141 -0.187088579 0.0894248784
v 0.0605411194 -0.187088579 0.0894248784
v 0.0605411194 -0.19208625 0.095046334
v -0.0605416037 -0.192086235 0.0950464234
v 0.0894091204 -0.187088624 0.06055687
v 0.0894091204 -0.187088624 -0.0605257601
v 0.0946473703 -0.192086235 -0.0605257601
v 0.0946473703 -0.192086235 0.06055687
v 0.0605411194 -0.187088624 -0.0893939063
v -0.06054141 -0.187088624 -0.0893939063
v -0.0605419911 -0.19208619 -0.0942664295
v 0.060540542 -0.19208619 -0.0942664295
v -0.0894096047 -0.187088624 -0.0605257601
v -0.0894096047 -0.187088624 0.06055687
v -0.094648242 -0.192086235 0.06055687
v -0.094648242 -0.192086235 -0.0605258606
v 0.0946481526 -0.220954314 0.0894248635
v 0.0946481526 -0.342036813 0.0894248784
v 0.0894091204 -0.342036903 0.0950463265
v 0.0894091204 -0.220954388 0.0950463265
v -0.094648242 -0.342036903 0.0894248784
v -0.094648242 -0.220954388 0.0894248784
v -0.0894096047 -0.220954388 0.0950463265
v -0.0894096047 -0.342036903 0.0950463265
v 0.0946481526 -0.342036813 -0.0893939063
v 0.0946481526 -0.220954314 -0.0893939063
v 0.0894085467 -0.220954344 -0.0942663327
v 0.0894085467 -0.342036813 -0.0942664295
v -0.094648242 -0.220954388 -0.0893938616
v -0.094648242 -0.342036933 -0.0893938616
v -0.0894103795 -0.342036813 -0.0942664295
v -0.0894103795 -0.220954344 -0.0942664295
v -0.06054141 -0.376645774 -0.0893936679
v 0.0606163107 -0.454204857 -0.0895193815
v 0.060540922 -0.376645774 -0.0893937647
v -0.0606162101 -0.454204857 -0.0895193815
v -0.0894096047 -0.376645774 -0.0605256632
v -0.0895202607 -0.454204857 -0.060615778
v -0.0894096047 -0.376645774 0.0605571531
v -0.0895202607 -0.454204857 0.0606172346
v -0.0606162101 -0.454204857 0.0895209834
v -0.06054141 -0.376645774 0.0894250646
v 0.060540922 -0.376645774 0.0894250646
v 0.0606163107 -0.454204857 0.0895209834
v 0.0894091204 -0.376645774 0.0605571531
v 0.0895201638 -0.454204857 0.0606172346
v 0.0894091204 -0.376645774 -0.0605256632
v 0.0895201638 -0.454204857 -0.060615778
v 0.060540922 -0.376645774 -0.0893937647
v 0.0606163107 -0.454204857 -0.0895193815
v -0.0505796149 -0.467248917 -0.101753525
v 0.050155513 -0.498574704 -0.100900918
v 0.0505795181 -0.467248917 -0.101753525
v -0.050156191 -0.498574704 -0.100900918
v -0.101754203 -0.467248917 -0.0505789854
v -0.100902319 -0.498574704 -0.0501548834
v -0.101754203 -0.467248917 0.0505805388
v -0.100902319 -0.498574704 0.0501567274
v -0.0505796149 -0.467248917 0.101755217
v -0.050156191 -0.498574704 0.10090284
v 0.0505795181 -0.467248917 0.101755217
v 0.050155513 -0.498574704 0.10090284
v 0.101754494 -0.467248917 0.0505805388
v 0.100901261 -0.498574704 0.0501567274
v 0.101754494 -0.467248917 -0.0505789854
v 0.100901261 -0.498574704 -0.0501548834
v 0.0505795181 -0.467248917 -0.101753525
v 0.050155513 -0.498574704 -0.100900918
v -0.0894096047 -0.220954388 0.0950463265
v -0.089522399 -0.342097282 0.17352207
v -0.0894096047 -0.342036903 0.0950463265
v -0.089522399 -0.220864594 0.17352207
v -0.0605416037 -0.192086235 0.0950464234
v -0.0606185384 -0.191960707 0.17352207
v 0.0605411194 -0.19208625 0.095046334
v 0.0606141761 -0.191960707 0.17352207
v 0.089518033 -0.220864594 0.17352207
v 0.0894091204 -0.220954388 0.0950463265
v 0.0894091204 -0.342036903 0.0950463265
v 0.089518033 -0.342097282 0.17352207
v 0.0605411194 -0.370904952 0.0950463265
v 0.0606141761 -0.371001124 0.17352207
v -0.0605416037 -0.370904952 0.0950463265
v -0.0606185384 -0.371001124 0.17352207
v -0.0894096047 -0.342036903 0.0950463265
v -0.089522399 -0.342097282 0.17352207
v -0.101756342 -0.230901375 0.184710041
v -0.100903869 -0.331636369 0.215294197
v -0.101756342 -0.332060575 0.184710041
v -0.100903869 -0.231324643 0.215294227
v -0.0505815484 -0.179726571 0.184710041
v -0.0501577407 -0.180578634 0.215294227
v 0.0505775809 -0.179726571 0.184710041
v 0.050154157 -0.180578634 0.215294227
v 0.101752162 -0.230901375 0.184710041
v 0.100900091 -0.231324643 0.215294227
v 0.101752162 -0.332060575 0.184710041
v 0.100900091 -0.331636369 0.215294197
v 0.0505775809 -0.383235395 0.184710026
v 0.050154157 -0.382382423 0.215294197
v -0.0505815484 -0.383235395 0.184710026
v -0.0501577407 -0.382382423 0.215294197
v -0.101756342 -0.332060575 0.184710041
v -0.100903869 -0.331636369 0.215294197
v -0.0894103795 -0.342036813 -0.0942664295
v -0.0895235613 -0.220864609 -0.175578043
v -0.0894103795 -0.220954344 -0.0942664295
v -0.0895235613 -0.342097193 -0.175578043
v -0.0605419911 -0.370904922 -0.0942664295
v -0.0606198981 -0.371001124 -0.175578043
v 0.060540542 -0.370904922 -0.0942664295
v 0.0606130101 -0.371001124 -0.175578043
v 0.0895168632 -0.342097193 -0.175578043
v 0.0894085467 -0.342036813 -0.0942664295
v 0.0894085467 -0.220954344 -0.0942663327
v 0.0895168632 -0.220864609 -0.175578043
v 0.060540542 -0.19208619 -0.0942664295
v 0.0606130101 -0.191960692 -0.175578043
v -0.0605419911 -0.19208619 -0.0942664295
v -0.0606198981 -0.191960692 -0.175578043
v -0.0894103795 -0.220954344 -0.0942664295
v -0.0895235613 -0.220864609 -0.175578043
v -0.101757698 -0.332060605 -0.188546285
v -0.100905418 -0.231325313 -0.219130471
v -0.101757698 -0.230901331 -0.188546285
v -0.100905418 -0.331637025 -0.219130471
v -0.0505829081 -0.383235246 -0.188546285
v -0.0501591004 -0.382383198 -0.219130471
v 0.0505762249 -0.383235246 -0.188546285
v 0.0501524135 -0.382383198 -0.219130471
v 0.101751 -0.332060605 -0.188546285
v 0.100898728 -0.331637025 -0.219130471
v 0.101751 -0.230901331 -0.188546285
v 0.100898728 -0.231325313 -0.219130471
v 0.0505762249 -0.179726437 -0.188546285
v 0.0501524135 -0.180579409 -0.219130471
v -0.0505829081 -0.179726437 -0.188546285
v -0.0501591004 -0.180579409 -0.219130471
v -0.101757698 -0.230901331 -0.188546285
v -0.100905418 -0.231325313 -0.219130471
v 0.0293496307 -0.217164338 0.499998629
v 0.06408602 -0.251900107 0.499998033
v 0.06408602 -0.310599625 0.499998659
v 0.0293500274 -0.345335424 0.499998659
v -0.0293500125 -0.345335603 0.499998659
v -0.0293497574 -0.217164189 0.499999106
v -0.0640853569 -0.251900047 0.499999106
v -0.0640856028 -0.310599536 0.499998659
v 0.0788915455 -0.510012209 -0.0431295373
v 0.0431301668 -0.510012209 -0.0788910165
v -0.0431308448 -0.510012209 -0.0788910165
v -0.078892231 -0.510012209 -0.0431294441
v 0.0788915455 -0.510012209 0.0431313701
v -0.078892231 -0.510012209 0.0431313701
v 0.0431301668 -0.510012209 0.0788930506
v -0.0431308448 -0.510012209 0.0788930506
v 0.0294275749 -0.345834672 -0.500000775
v 0.0642554164 -0.309139729 -0.500000775
v 0.0642554164 -0.254020125 -0.500000775
v 0.0294277091 -0.221402615 -0.500000775
v -0.0294269081 -0.221402615 -0.500000775
v -0.0294270311 -0.345834672 -0.500000775
v -0.0642546192 -0.252152145 -0.500000775
v -0.0642547533 -0.311007023 -0.500000775
v -0.094648242 -0.370904863 -0.0605257601
v -0.117374763 -0.324792713 0.0433123782
v -0.094648242 -0.370905042 0.06055687
v -0.094648242 -0.342036903 0.0894248784
v -0.117374763 -0.324792713 -0.0433226489
v -0.094648242 -0.342036933 -0.0893938616
v -0.094648242 -0.220954388 -0.0893938616
v -0.117374763 -0.238157794 0.0433123782
v -0.094648242 -0.220954388 0.0894248784
v -0.094648242 -0.192086235 0.06055687
v -0.117374763 -0.238157794 -0.0433226451
v -0.094648242 -0.192086235 -0.0605258606
v 0.0946479514 -0.370904863 0.06055687
v 0.117374666 -0.324792445 -0.0433226489
v 0.0946481526 -0.370904863 -0.0605257601
v 0.0946481526 -0.342036813 -0.0893939063
v 0.117374666 -0.324792445 0.0433123782
v 0.0946481526 -0.342036813 0.0894248784
v 0.0946481526 -0.220954314 0.0894248635
v 0.117374666 -0.238157675 -0.0433226451
v 0.0946481526 -0.220954314 -0.0893939063
v 0.0946473703 -0.192086235 -0.0605257601
v 0.117374666 -0.238157675 0.0433123782
v 0.0946473703 -0.192086235 0.06055687
v 0.0894091204 -0.187088624 0.06055687
v 0.0433175564 -0.164371505 -0.0433226489
v 0.0894091204 -0.187088624 -0.0605257601
v 0.0605411194 -0.187088624 -0.0893939063
v 0.0433175564 -0.16437152 0.0433123782
v 0.0605411194 -0.187088579 0.0894248784
v -0.06054141 -0.187088579 0.0894248784
v -0.043317657 -0.164371505 -0.0433226489
v -0.06054141 -0.187088624 -0.0893939063
v -0.0894096047 -0.187088624 -0.0605257601
v -0.043317657 -0.16437152 0.0433123782
v -0.0894096047 -0.187088624 0.06055687
v -0.094648242 -0.370905042 0.06055687
v -0.094648242 -0.342036903 0.0894248784
v -0.0819170326 -0.363412648 0.0819325075
v -0.0894096047 -0.376645774 0.0605571531
v -0.0894096047 -0.342036903 0.0950463265
v -0.06054141 -0.376645774 0.0894250646
v -0.0605416037 -0.370904952 0.0950463265
v -0.094648242 -0.342036933 -0.0893938616
v -0.094648242 -0.370904863 -0.0605257601
v -0.0819170326 -0.363412619 -0.0819015354
v -0.0894103795 -0.342036813 -0.0942664295
v -0.0894096047 -0.376645774 -0.0605256632
v -0.0605419911 -0.370904922 -0.0942664295
v -0.06054141 -0.376645774 -0.0893936679
v -0.094648242 -0.192086235 -0.0605258606
v -0.094648242 -0.220954388 -0.0893938616
v -0.0819170326 -0.199578583 -0.0819015354
v -0.0894096047 -0.187088624 -0.0605257601
v -0.0894103795 -0.220954344 -0.0942664295
v -0.06054141 -0.187088624 -0.0893939063
v -0.0605419911 -0.19208619 -0.0942664295
v -0.0819170326 -0.199578583 0.0819324926
v -0.094648242 -0.192086235 0.06055687
v -0.0894096047 -0.187088624 0.06055687
v -0.094648242 -0.220954388 0.0894248784
v -0.06054141 -0.187088579 0.0894248784
v -0.0894096047 -0.220954388 0.0950463265
v -0.0605416037 -0.192086235 0.0950464234
v 0.0819169432 -0.199578583 -0.0819015354
v 0.0946473703 -0.192086235 -0.0605257601
v 0.0894091204 -0.187088624 -0.0605257601
v 0.0946481526 -0.220954314 -0.0893939063
v 0.0605411194 -0.187088624 -0.0893939063
v 0.0894085467 -0.220954344 -0.0942663327
v 0.060540542 -0.19208619 -0.0942664295
v 0.0946473703 -0.192086235 0.06055687
v 0.0819169432 -0.199578583 0.0819324926
v 0.0894091204 -0.187088624 0.06055687
v 0.0946481526 -0.220954314 0.0894248635
v 0.0605411194 -0.187088579 0.0894248784
v 0.0894091204 -0.220954388 0.0950463265
v 0.0605411194 -0.19208625 0.095046334
v 0.0894085467 -0.342036813 -0.0942664295
v 0.060540542 -0.370904922 -0.0942664295
v 0.0819169432 -0.363412619 -0.0819015354
v 0.0946481526 -0.342036813 -0.0893939063
v 0.060540922 -0.376645774 -0.0893937647
v 0.0946481526 -0.370904863 -0.0605257601
v 0.0894091204 -0.376645774 -0.0605256632
v 0.0894091204 -0.376645774 0.0605571531
v 0.060540922 -0.376645774 0.0894250646
v 0.0819169432 -0.363412648 0.0819325075
v 0.0946479514 -0.370904863 0.06055687
v 0.0605411194 -0.370904952 0.0950463265
v 0.0946481526 -0.342036813 0.0894248784
v 0.0894091204 -0.342036903 0.0950463265
v -0.100905418 -0.331637025 -0.219130471
v -0.0788953304 -0.238350824 -0.228530914
v -0.100905418 -0.231325313 -0.219130471
v -0.0788953304 -0.324611723 -0.228530914
v -0.0431339443 -0.202589378 -0.228530914
v -0.0501591004 -0.382383198 -0.219130471
v -0.0501591004 -0.180579409 -0.219130471
v -0.0431335568 -0.360373169 -0.228530914
v 0.0431272611 -0.202589378 -0.228530914
v 0.0501524135 -0.382383198 -0.219130471
v 0.0501524135 -0.180579409 -0.219130471
v 0.0431272611 -0.360373169 -0.228530914
v 0.0788886398 -0.238350824 -0.228530914
v 0.100898728 -0.331637025 -0.219130471
v 0.100898728 -0.231325313 -0.219130471
v 0.0788886398 -0.324611723 -0.228530914
v -0.0895235613 -0.342097193 -0.175578043
v -0.101757698 -0.230901331 -0.188546285
v -0.0895235613 -0.220864609 -0.175578043
v -0.101757698 -0.332060605 -0.188546285
v -0.0505829081 -0.179726437 -0.188546285
v -0.0606198981 -0.371001124 -0.175578043
v -0.0606198981 -0.191960692 -0.175578043
v -0.0505829081 -0.383235246 -0.188546285
v 0.0505762249 -0.179726437 -0.188546285
v 0.0606130101 -0.371001124 -0.175578043
v 0.0606130101 -0.191960692 -0.175578043
v 0.0505762249 -0.383235246 -0.188546285
v 0.101751 -0.230901331 -0.188546285
v 0.0895168632 -0.342097193 -0.175578043
v 0.0895168632 -0.220864609 -0.175578043
v 0.101751 -0.332060605 -0.188546285
v -0.100903869 -0.231324643 0.215294227
v -0.0788937807 -0.324610978 0.228531107
v -0.100903869 -0.331636369 0.215294197
v -0.0788937807 -0.238350078 0.228531107
v -0.0431323946 -0.360372543 0.228531092
v -0.0501577407 -0.180578634 0.215294227
v -0.0501577407 -0.382382423 0.215294197
v -0.0431322008 -0.202588558 0.228531107
v 0.0431286134 -0.360372543 0.228531092
v 0.050154157 -0.180578634 0.215294227
v 0.050154157 -0.382382423 0.215294197
v 0.0431286134 -0.202588558 0.228531107
v 0.0788901895 -0.324610978 0.228531107
v 0.100900091 -0.231324643 0.215294227
v 0.100900091 -0.331636369 0.215294197
v 0.0788901895 -0.238350078 0.228531107
v -0.089522399 -0.220864594 0.17352207
v -0.101756342 -0.332060575 0.184710041
v -0.089522399 -0.342097282 0.17352207
v -0.101756342 -0.230901375 0.184710041
v -0.0505815484 -0.383235395 0.184710026
v -0.0606185384 -0.191960707 0.17352207
v -0.0606185384 -0.371001124 0.17352207
v -0.0505815484 -0.179726571 0.184710041
v 0.0505775809 -0.383235395 0.184710026
v 0.0606141761 -0.191960707 0.17352207
v 0.0606141761 -0.371001124 0.17352207
v 0.0505775809 -0.179726571 0.184710041
v 0.101752162 -0.332060575 0.184710041
v 0.089518033 -0.220864594 0.17352207
v 0.089518033 -0.342097282 0.17352207
v 0.101752162 -0.230901375 0.184710041
v -0.050156191 -0.498574704 -0.100900918
v 0.0431301668 -0.510012209 -0.0788910165
v 0.050155513 -0.498574704 -0.100900918
v -0.0431308448 -0.510012209 -0.0788910165
v 0.0788915455 -0.510012209 -0.0431295373
v -0.100902319 -0.498574704 -0.0501548834
v 0.100901261 -0.498574704 -0.0501548834
v -0.078892231 -0.510012209 -0.0431294441
v 0.0788915455 -0.510012209 0.0431313701
v -0.100902319 -0.498574704 0.0501567274
v 0.100901261 -0.498574704 0.0501567274
v -0.078892231 -0.510012209 0.0431313701
v 0.0431301668 -0.510012209 0.0788930506
v -0.050156191 -0.498574704 0.10090284
v 0.050155513 -0.498574704 0.10090284
v -0.0431308448 -0.510012209 0.0788930506
v -0.0606162101 -0.454204857 -0.0895193815
v 0.0505795181 -0.467248917 -0.101753525
v 0.0606163107 -0.454204857 -0.0895193815
v -0.0505796149 -0.467248917 -0.101753525
v 0.101754494 -0.467248917 -0.0505789854
v -0.0895202607 -0.454204857 -0.060615778
v 0.0895201638 -0.454204857 -0.060615778
v -0.101754203 -0.467248917 -0.0505789854
v 0.101754494 -0.467248917 0.0505805388
v -0.0895202607 -0.454204857 0.0606172346
v 0.0895201638 -0.454204857 0.0606172346
v -0.101754203 -0.467248917 0.0505805388
v 0.0505795181 -0.467248917 0.101755217
v -0.0606162101 -0.454204857 0.0895209834
v 0.0606163107 -0.454204857 0.0895209834
v -0.0505796149 -0.467248917 0.101755217
v -0.0856162608 -0.320609957 -0.500001252
v -0.0642546192 -0.252152145 -0.500000775
v -0.0856165141 -0.242189363 -0.500000775
v -0.0642547533 -0.311007023 -0.500000775
v -0.0294269081 -0.221402615 -0.500000775
v -0.0392100103 -0.367016464 -0.500000775
v -0.0392101556 -0.195783034 -0.500000179
v -0.0294270311 -0.345834672 -0.500000775
v 0.0294277091 -0.221402615 -0.500000775
v 0.039210137 -0.367016464 -0.500001311
v 0.0392107964 -0.195783034 -0.500000179
v 0.0294275749 -0.345834672 -0.500000775
v 0.0642554164 -0.254020125 -0.500000775
v 0.0856171772 -0.320610374 -0.500000775
v 0.0856170356 -0.242189214 -0.500000179
v 0.0642554164 -0.309139729 -0.500000775
v -0.0856164545 -0.242039561 0.499998629
v -0.0640853569 -0.251900047 0.499999106
v -0.0640856028 -0.310599536 0.499998659
v -0.0856164545 -0.32046026 0.499998659
v -0.0392104685 -0.195632994 0.499998629
v -0.0293500125 -0.345335603 0.499998659
v -0.0293497574 -0.217164189 0.499999106
v -0.0392103456 -0.366866678 0.499998659
v 0.0392107405 -0.195632994 0.499998033
v 0.0293500274 -0.345335424 0.499998659
v 0.0293496307 -0.217164338 0.499998629
v 0.039210476 -0.366866529 0.499999076
v 0.0856167227 -0.242039219 0.499998659
v 0.06408602 -0.310599625 0.499998659
v 0.06408602 -0.251900107 0.499998033
v 0.0856165737 -0.32046032 0.499999136
vt 0.628699541 0.764061928
vt 0.646167994 0.809399128
vt 0.628699541 0.809399009
vt 0.646167994 0.764061928
vt 0.661713779 0.809399128
vt 0.661713779 0.764061928
vt 0.745886803 0.764061928
vt 0.761307597 0.764061928
vt 0.761307597 0.809399009
vt 0.745886803 0.809398711
vt 0.728265285 0.764061928
vt 0.745886803 0.764061928
vt 0.745886803 0.809398711
vt 0.728265285 0.809398055
vt 0.712555885 0.764061928
vt 0.728265285 0.764061928
vt 0.728265285 0.809398055
vt 0.712555885 0.809397936
vt 0.694801271 0.764061928
vt 0.694801271 0.809397459
vt 0.679043651 0.764061928
vt 0.679043651 0.80939728
vt 0.661713779 0.764061928
vt 0.679043651 0.764061928
vt 0.679043651 0.80939728
vt 0.661713779 0.809397042
vt 0.628699541 0.764062047
vt 0.628699541 0.809399128
vt 0.646167994 0.809399128
vt 0.646167994 0.764061928
vt 0.661713779 0.809399128
vt 0.661713779 0.764061928
vt 0.745886803 0.764062345
vt 0.745886803 0.809399128
vt 0.761307597 0.809399128
vt 0.761307597 0.764062047
vt 0.728265285 0.764063001
vt 0.728265285 0.809399128
vt 0.745886803 0.809399128
vt 0.745886803 0.764062345
vt 0.712555885 0.76406312
vt 0.728265285 0.809399128
vt 0.728265285 0.764063001
vt 0.712555885 0.809399128
vt 0.694801271 0.764063597
vt 0.694801271 0.809399128
vt 0.679043651 0.764063776
vt 0.679043651 0.809399128
vt 0.661713779 0.764064014
vt 0.661713779 0.809399128
vt 0.679043651 0.809399128
vt 0.679043651 0.764063776
vt 0.943912506 0.578163147
vt 0.943911135 0.525642037
vt 0.93497622 0.525646925
vt 0.93497622 0.578163147
vt 0.943912506 0.578163147
vt 0.943911135 0.525642037
vt 0.93497622 0.525646925
vt 0.93497622 0.578163147
vt 0.943912506 0.578163147
vt 0.943911135 0.525642037
vt 0.93497622 0.525646925
vt 0.93497622 0.578163147
vt 0.943912506 0.578163147
vt 0.943911135 0.525642037
vt 0.93497622 0.525646925
vt 0.93497622 0.578163147
vt 0.93497622 0.525646925
vt 0.93497622 0.578163147
vt 0.943912506 0.578163147
vt 0.943911135 0.525642037
vt 0.93497622 0.525647461
vt 0.93497622 0.578163147
vt 0.943912506 0.578163147
vt 0.94391036 0.525650144
vt 0.934976339 0.525647461
vt 0.93497622 0.578163147
vt 0.943912506 0.578163147
vt 0.943914354 0.525652587
vt 0.934976339 0.525647223
vt 0.93497622 0.578163147
vt 0.943912506 0.578163147
vt 0.943914592 0.525645137
vt 0.943912506 0.578163147
vt 0.94391036 0.525650144
vt 0.93497622 0.525647461
vt 0.93497622 0.578163147
vt 0.93497622 0.525647461
vt 0.93497622 0.578163147
vt 0.943912506 0.578163147
vt 0.94391036 0.525650144
vt 0.943912506 0.578163147
vt 0.943914592 0.525645137
vt 0.934976339 0.525647223
vt 0.93497622 0.578163147
vt 0.943912506 0.578163147
vt 0.94391036 0.525650144
vt 0.93497622 0.525647461
vt 0.93497622 0.578163147
vt 0.957827508 0.513191104
vt 0.994250894 0.488644063
vt 0.994250894 0.513191104
vt 0.957827508 0.488644063
vt 0.946188986 0.513191104
vt 0.946188986 0.488644063
vt 0.909765601 0.513191104
vt 0.909765601 0.488644063
vt 0.89812696 0.488644063
vt 0.89812696 0.513191104
vt 0.861703634 0.513191104
vt 0.861703634 0.488644063
vt 0.850065172 0.513191104
vt 0.850065172 0.488644063
vt 0.813641727 0.513191104
vt 0.813641727 0.488644063
vt 0.802003145 0.513191104
vt 0.802003145 0.488644063
vt 0.962158561 0.516360402
vt 0.990387857 0.523758531
vt 0.990387857 0.516360402
vt 0.962158442 0.523758531
vt 0.94232595 0.516360402
vt 0.94232583 0.523758531
vt 0.914096653 0.516360402
vt 0.914096653 0.523758531
vt 0.894263983 0.516360402
vt 0.894263983 0.523758531
vt 0.866034687 0.516360402
vt 0.866034806 0.523758531
vt 0.846202075 0.516360402
vt 0.846202195 0.523758531
vt 0.817972779 0.516360402
vt 0.817972779 0.523758531
vt 0.798140109 0.516360402
vt 0.798140109 0.523758531
vt 0.957827508 0.513191104
vt 0.994250894 0.488644063
vt 0.994250894 0.513191104
vt 0.957827508 0.488644063
vt 0.946188986 0.513191104
vt 0.946188986 0.488644063
vt 0.909765601 0.513191104
vt 0.909765601 0.488644063
vt 0.89812696 0.488644063
vt 0.89812696 0.513191104
vt 0.861703634 0.513191104
vt 0.861703634 0.488644063
vt 0.850065172 0.513191104
vt 0.850065172 0.488644063
vt 0.813641727 0.513191104
vt 0.813641727 0.488644063
vt 0.802003145 0.513191104
vt 0.802003145 0.488644063
vt 0.962158561 0.516360402
vt 0.990387857 0.523758531
vt 0.990387857 0.516360402
vt 0.962158442 0.523758531
vt 0.94232595 0.516360402
vt 0.94232583 0.523758531
vt 0.914096653 0.516360402
vt 0.914096653 0.523758531
vt 0.894263983 0.516360402
vt 0.894263983 0.523758531
vt 0.866034687 0.516360402
vt 0.866034806 0.523758531
vt 0.846202075 0.516360402
vt 0.846202195 0.523758531
vt 0.817972779 0.516360402
vt 0.817972779 0.523758531
vt 0.798140109 0.516360402
vt 0.798140109 0.523758531
vt 0.957827508 0.513191104
vt 0.994250894 0.488644063
vt 0.994250894 0.513191104
vt 0.957827508 0.488644063
vt 0.946188986 0.513191104
vt 0.946188986 0.488644063
vt 0.909765601 0.513191104
vt 0.909765601 0.488644063
vt 0.89812696 0.488644063
vt 0.89812696 0.513191104
vt 0.861703634 0.513191104
vt 0.861703634 0.488644063
vt 0.850065172 0.513191104
vt 0.850065172 0.488644063
vt 0.813641727 0.513191104
vt 0.813641727 0.488644063
vt 0.802003145 0.513191104
vt 0.802003145 0.488644063
vt 0.962158561 0.516360402
vt 0.990387857 0.523758531
vt 0.990387857 0.516360402
vt 0.962158442 0.523758531
vt 0.94232595 0.516360402
vt 0.94232583 0.523758531
vt 0.914096653 0.516360402
vt 0.914096653 0.523758531
vt 0.894263983 0.516360402
vt 0.894263983 0.523758531
vt 0.866034687 0.516360402
vt 0.866034806 0.523758531
vt 0.846202075 0.516360402
vt 0.846202195 0.523758531
vt 0.817972779 0.516360402
vt 0.817972779 0.523758531
vt 0.798140109 0.516360402
vt 0.798140109 0.523758531
vt 0.783121228 0.0539056063
vt 0.78299582 0.0537802279
vt 0.782783866 0.0537802279
vt 0.782658398 0.0539056063
vt 0.782658398 0.05411762
vt 0.783121228 0.05411762
vt 0.78299582 0.0542430282
vt 0.782783866 0.0542430282
vt 0.782659292 0.053335458
vt 0.782530189 0.0532063246
vt 0.782218695 0.0532063246
vt 0.782089531 0.053335458
vt 0.782659292 0.0536469519
vt 0.782089531 0.0536469519
vt 0.782530189 0.0537760556
vt 0.782218695 0.0537760556
vt 0.78311646 0.0533320904
vt 0.782983959 0.0532063544
vt 0.782784939 0.0532063544
vt 0.78266716 0.0533320606
vt 0.78266716 0.0535446107
vt 0.78311646 0.0535446107
vt 0.782778144 0.0536703765
vt 0.782990694 0.0536703765
vt 0.852595985 0.575076818
vt 0.839953721 0.546085
vt 0.852595985 0.541497648
vt 0.844590127 0.533491671
vt 0.840003014 0.570439875
vt 0.844590127 0.583082795
vt 0.811010838 0.583082795
vt 0.815598488 0.546133757
vt 0.811010838 0.533491671
vt 0.803004861 0.541497648
vt 0.815647602 0.570489407
vt 0.803004861 0.575076818
vt 0.852595985 0.575076818
vt 0.83995384 0.546085119
vt 0.852595985 0.541497648
vt 0.844590127 0.533491671
vt 0.840002716 0.570440412
vt 0.844590127 0.583082795
vt 0.811010838 0.583082795
vt 0.815598071 0.546134114
vt 0.811010838 0.533491671
vt 0.803004861 0.541497648
vt 0.815647721 0.570489824
vt 0.803004861 0.575076818
vt 0.852595985 0.575076818
vt 0.839953601 0.546085119
vt 0.852595985 0.541497648
vt 0.844590127 0.533491671
vt 0.840002358 0.570440412
vt 0.844590127 0.583082795
vt 0.811010838 0.583082795
vt 0.815597951 0.546134412
vt 0.811010838 0.533491671
vt 0.803004861 0.541497648
vt 0.815647483 0.570489407
vt 0.803004861 0.575076818
vt 0.950194955 0.587294877
vt 0.943921387 0.578166962
vt 0.939443827 0.586763442
vt 0.945717394 0.594816923
vt 0.934966326 0.578166962
vt 0.933170438 0.594816923
vt 0.928692877 0.587294877
vt 0.943926394 0.578171849
vt 0.950199783 0.587299585
vt 0.939448595 0.586768448
vt 0.934971213 0.578171849
vt 0.945722222 0.594821692
vt 0.928697586 0.587299585
vt 0.933175325 0.594821692
vt 0.950199783 0.587299585
vt 0.943926394 0.578171849
vt 0.939448595 0.586768448
vt 0.945722222 0.594821692
vt 0.934971213 0.578171849
vt 0.933175325 0.594821692
vt 0.928697586 0.587299585
vt 0.939443827 0.586763442
vt 0.950194955 0.587294877
vt 0.945717394 0.594816923
vt 0.943921387 0.578166962
vt 0.933170438 0.594816923
vt 0.934966326 0.578166962
vt 0.928692877 0.587294877
vt 0.939440668 0.586776257
vt 0.950191677 0.587307751
vt 0.945714116 0.594829857
vt 0.943918288 0.578179896
vt 0.93316704 0.594829857
vt 0.934963167 0.578180075
vt 0.928689599 0.587307751
vt 0.950186968 0.587302744
vt 0.939435899 0.586771607
vt 0.945709169 0.594825149
vt 0.94391346 0.578175068
vt 0.933162332 0.594825149
vt 0.934958279 0.578175068
vt 0.928684771 0.587302744
vt 0.934963167 0.578180075
vt 0.928689599 0.587307751
vt 0.939440668 0.586776257
vt 0.943918288 0.578179896
vt 0.93316704 0.594829857
vt 0.950191677 0.587307751
vt 0.945714116 0.594829857
vt 0.945709169 0.594825149
vt 0.933162332 0.594825149
vt 0.939435899 0.586771607
vt 0.950186968 0.587302744
vt 0.928684771 0.587302744
vt 0.94391346 0.578175068
vt 0.934958279 0.578175068
vt 0.863500953 0.576442778
vt 0.871729791 0.544753969
vt 0.863498151 0.542043209
vt 0.87172842 0.573625863
vt 0.883023143 0.534130514
vt 0.880637527 0.591980636
vt 0.880455256 0.526143134
vt 0.883103907 0.58394134
vt 0.912024915 0.533686697
vt 0.915000618 0.591181159
vt 0.914463699 0.526071608
vt 0.912341595 0.583941102
vt 0.924078286 0.544708669
vt 0.931822419 0.575492918
vt 0.9317981 0.541983068
vt 0.92407912 0.5727337
vt 0.846397221 0.585678875
vt 0.811323225 0.59243983
vt 0.80982095 0.585678875
vt 0.844895065 0.59243983
vt 0.794339657 0.575456321
vt 0.85511744 0.576958537
vt 0.801100671 0.576958537
vt 0.861878514 0.575456321
vt 0.794339657 0.541884542
vt 0.85511744 0.540382206
vt 0.801100671 0.540382206
vt 0.861878514 0.541884542
vt 0.811323225 0.524900913
vt 0.846397221 0.531661987
vt 0.80982095 0.531661987
vt 0.844895065 0.524900913
vt 0.863500953 0.576442778
vt 0.871729791 0.544753969
vt 0.863498151 0.542043209
vt 0.87172842 0.573625863
vt 0.883023143 0.534130514
vt 0.880637527 0.591980636
vt 0.880455256 0.526143134
vt 0.883103907 0.58394134
vt 0.912024915 0.533686697
vt 0.915000618 0.591181159
vt 0.914463699 0.526071608
vt 0.912341595 0.583941102
vt 0.924078286 0.544708669
vt 0.931822419 0.575492918
vt 0.9317981 0.541983068
vt 0.92407912 0.5727337
vt 0.846397221 0.585678875
vt 0.811323225 0.59243983
vt 0.80982095 0.585678875
vt 0.844895065 0.59243983
vt 0.794339657 0.575456321
vt 0.85511744 0.576958537
vt 0.801100671 0.576958537
vt 0.861878514 0.575456321
vt 0.794339657 0.541884542
vt 0.85511744 0.540382206
vt 0.801100671 0.540382206
vt 0.861878514 0.541884542
vt 0.811323225 0.524900913
vt 0.846397221 0.531661987
vt 0.80982095 0.531661987
vt 0.844895065 0.524900913
vt 0.863500953 0.576442778
vt 0.871729791 0.544753969
vt 0.863498151 0.542043209
vt 0.87172842 0.573625863
vt 0.883023143 0.534130514
vt 0.880637527 0.591980636
vt 0.880455256 0.526143134
vt 0.883103907 0.58394134
vt 0.912024915 0.533686697
vt 0.915000618 0.591181159
vt 0.914463699 0.526071608
vt 0.912341595 0.583941102
vt 0.924078286 0.544708669
vt 0.931822419 0.575492918
vt 0.9317981 0.541983068
vt 0.92407912 0.5727337
vt 0.846397221 0.585678875
vt 0.811323225 0.59243983
vt 0.80982095 0.585678875
vt 0.844895065 0.59243983
vt 0.794339657 0.575456321
vt 0.85511744 0.576958537
vt 0.801100671 0.576958537
vt 0.861878514 0.575456321
vt 0.794339657 0.541884542
vt 0.85511744 0.540382206
vt 0.801100671 0.540382206
vt 0.861878514 0.541884542
vt 0.811323225 0.524900913
vt 0.846397221 0.531661987
vt 0.80982095 0.531661987
vt 0.844895065 0.524900913
vt 0.859570205 0.900560141
vt 0.853561461 0.919794679
vt 0.859563768 0.922462285
vt 0.853507638 0.903330207
vt 0.843739629 0.929398358
vt 0.846528053 0.887539923
vt 0.846483886 0.935384214
vt 0.843766689 0.893562496
vt 0.827275038 0.929398358
vt 0.824529409 0.887520969
vt 0.824485123 0.935384214
vt 0.827288508 0.893567264
vt 0.81744945 0.919713497
vt 0.811430693 0.900571227
vt 0.811390936 0.922434986
vt 0.817505658 0.903369725
vt 0.811390936 0.922434986
vt 0.81744945 0.919713497
vt 0.817506194 0.903370261
vt 0.811430693 0.900571227
vt 0.824485123 0.935384214
vt 0.827288508 0.893567264
vt 0.827275038 0.929398358
vt 0.824529409 0.887520969
vt 0.846483886 0.935384214
vt 0.843766689 0.893562496
vt 0.843739629 0.929398358
vt 0.846528053 0.887539923
vt 0.859563768 0.922462285
vt 0.853507638 0.903330207
vt 0.853561461 0.919794679
vt 0.859570205 0.900560141
vn 0.382686496 -0.923878312 -8.09591147E-05
vn -0.382676661 -0.923882365 -8.11360369E-05
vn 0.382672489 -0.923884094 -8.09596168E-05
vn -0.382692575 -0.923875749 -8.11354475E-05
vn -0.707109153 -0.707104325 -6.22413427E-05
vn -0.707109153 -0.707104325 -6.22413427E-05
vn 0.707100093 -0.707113385 -6.19158964E-05
vn 0.382686496 -0.923878312 -8.09591147E-05
vn 0.382672489 -0.923884094 -8.09596168E-05
vn 0.707100093 -0.707113385 -6.19158964E-05
vn 1 1.69888244E-06 0
vn 1 1.69888244E-06 0
vn 1 1.69888244E-06 0
vn 1 1.69888222E-06 0
vn 0.382675469 0.923882902 8.10529164E-05
vn 0.707106113 0.707107425 6.200184E-05
vn 0.707106113 0.707107425 6.20018254E-05
vn 0.382691354 0.923876286 8.10523343E-05
vn -0.382676899 0.923882246 8.09435296E-05
vn -0.382689267 0.92387706 8.09430712E-05
vn -0.707106769 0.707106769 6.17997357E-05
vn -0.707106769 0.707106769 6.17997357E-05
vn -1 -3.32056334E-06 0
vn -1 -3.32056334E-06 0
vn -1 -3.32056334E-06 0
vn -1 -3.32056288E-06 0
vn 0.382692456 -0.923875749 8.09490448E-05
vn 0.382676303 -0.923882484 8.0949605E-05
vn -0.382677555 -0.923881948 8.01773494E-05
vn -0.382691354 -0.923876286 8.01768183E-05
vn -0.707109392 -0.707104146 6.09007693E-05
vn -0.707109392 -0.707104146 6.09007657E-05
vn 0.707107186 -0.707106352 6.23278975E-05
vn 0.707107186 -0.707106352 6.23278756E-05
vn 0.382676303 -0.923882484 8.0949605E-05
vn 0.382692456 -0.923875749 8.09490448E-05
vn 1 -1.7374897E-06 7.21468609E-07
vn 1 -1.7374897E-06 7.21468609E-07
vn 1 -1.73748981E-06 7.21468609E-07
vn 1 -1.7374897E-06 7.21468609E-07
vn 0.382677019 0.923882186 -8.05573291E-05
vn 0.707108498 0.707104981 -6.13445955E-05
vn 0.707108498 0.707104981 -6.13445955E-05
vn 0.382692128 0.923875868 -8.05567906E-05
vn -0.382680386 0.923880756 -8.12805811E-05
vn -0.38269344 0.923875332 -8.12801227E-05
vn -0.707112074 0.707101405 -6.26809124E-05
vn -0.707112074 0.707101405 -6.26809124E-05
vn -1 0 -1.67948315E-06
vn -1 0 -1.67948315E-06
vn -1 0 -1.67948315E-06
vn -1 0 -1.67948315E-06
vn -0.846890509 -0.372623265 0.379379034
vn -0.846932292 -0.372562885 -0.379344761
vn -0.794540107 -0.544514596 -0.268719226
vn -0.794570386 -0.544467866 0.268724024
vn -0.375743955 -0.358341724 -0.854638994
vn 0.375747293 -0.3583242 -0.854644835
vn 0.386432499 -0.817285299 -0.427451313
vn -0.386442125 -0.817300916 -0.427412927
vn 0.846927464 -0.372573584 -0.379345357
vn 0.846888542 -0.37262857 0.379377991
vn 0.79456687 -0.544474244 0.268721372
vn 0.794533372 -0.544525325 -0.26871711
vn 0.38291505 -0.386492252 0.839046955
vn -0.382917583 -0.386491388 0.83904624
vn -0.384324759 -0.834260881 0.395352036
vn 0.384325892 -0.834255397 0.395362526
vn -0.267285615 0.798716664 0.539082646
vn 0.26728633 0.798713744 0.539086521
vn 0.377368122 0.849801302 0.368009537
vn -0.377367884 0.849808514 0.367993087
vn 0.552713275 0.789733469 0.266137332
vn 0.552757084 0.789705753 -0.266128927
vn 0.776588202 0.570978165 -0.266260624
vn 0.77661705 0.570934713 0.266269565
vn 0.264905423 0.780275404 -0.56656456
vn -0.264893949 0.780289948 -0.566549838
vn -0.379757941 0.834055066 -0.400170028
vn 0.379746825 0.834040403 -0.400211155
vn -0.552740872 0.789716005 -0.266131967
vn -0.552698433 0.78974247 0.266141385
vn -0.776609778 0.570941985 0.266275346
vn -0.776579678 0.570986211 -0.266268373
vn 0.791871786 0.268355668 0.548565626
vn 0.791900754 -0.268358469 0.548522532
vn 0.844623148 -0.379720837 0.377390712
vn 0.844663739 0.379692256 0.377328873
vn -0.791908145 -0.268360525 0.54851073
vn -0.791880906 0.268352717 0.548554122
vn -0.844679117 0.379696488 0.37729004
vn -0.844637692 -0.379724264 0.37735489
vn 0.773242593 -0.265797108 -0.575715005
vn 0.773213208 0.265792817 -0.575756371
vn 0.828443229 0.382007182 -0.409575731
vn 0.828402817 -0.382031947 -0.40963456
vn -0.773260057 0.265794665 -0.575692773
vn -0.773287117 -0.265804946 -0.575651586
vn -0.828451693 -0.38203302 -0.409534603
vn -0.828494489 0.382009447 -0.409469932
vn -0.375743955 -0.358341724 -0.854638994
vn 0.382743865 0.00186906022 -0.923852682
vn 0.375747293 -0.3583242 -0.854644835
vn -0.382741392 0.00186690933 -0.923853695
vn -0.846932292 -0.372562885 -0.379344761
vn -0.923827946 0.00176216708 -0.382804036
vn -0.846890509 -0.372623265 0.379379034
vn -0.923861504 0.00161449704 0.382723421
vn -0.382774621 0.00151176145 0.923840523
vn -0.382917583 -0.386491388 0.83904624
vn 0.38291505 -0.386492252 0.839046955
vn 0.382776976 0.00151415542 0.923839509
vn 0.846888542 -0.37262857 0.379377991
vn 0.92386204 0.00161959301 0.382722229
vn 0.846927464 -0.372573584 -0.379345357
vn 0.923828542 0.00176701893 -0.382802457
vn 0.375747293 -0.3583242 -0.854644835
vn 0.382743865 0.00186906022 -0.923852682
vn -0.382968277 -0.0303052254 -0.923264205
vn 0.382032156 -0.0303149149 -0.923651636
vn 0.382971972 -0.0303170569 -0.923262417
vn -0.382036209 -0.0303031318 -0.923650324
vn -0.923261702 -0.0302927177 -0.382975459
vn -0.923653305 -0.0302905701 -0.382030457
vn -0.923262835 -0.0302894562 0.382973045
vn -0.923652649 -0.0302873217 0.382031858
vn -0.382969618 -0.0302978083 0.923263907
vn -0.38203615 -0.0302957091 0.923650622
vn 0.382973254 -0.0303096492 0.923262
vn 0.382032186 -0.0303075109 0.923651934
vn 0.923263311 -0.0303246565 0.382969022
vn 0.923650146 -0.0303225778 0.382035255
vn 0.923262179 -0.0303279124 -0.382971466
vn 0.923650622 -0.0303258095 -0.382033855
vn 0.382971972 -0.0303170569 -0.923262417
vn 0.382032156 -0.0303149149 -0.923651636
vn -0.844679117 0.379696488 0.37729004
vn -0.923863471 -0.382718891 -0.00162203179
vn -0.844637692 -0.379724264 0.37735489
vn -0.923831105 0.382796317 -0.00176543219
vn -0.377367884 0.849808514 0.367993087
vn -0.382749408 0.923850298 -0.00185334519
vn 0.377368122 0.849801302 0.368009537
vn 0.382739127 0.923854589 -0.00183449767
vn 0.923829436 0.382800609 -0.00171986769
vn 0.844663739 0.379692256 0.377328873
vn 0.844623148 -0.379720837 0.377390712
vn 0.923861742 -0.382723123 -0.00157640735
vn 0.384325892 -0.834255397 0.395362526
vn 0.382771224 -0.923841953 -0.00148856791
vn -0.384324759 -0.834260881 0.395352036
vn -0.382781506 -0.923837721 -0.00150747469
vn -0.844637692 -0.379724264 0.37735489
vn -0.923863471 -0.382718891 -0.00162203179
vn -0.923238933 0.38297087 0.0310344305
vn -0.923636377 -0.382010758 0.0310434066
vn -0.923236191 -0.38297677 0.0310456567
vn -0.923634052 0.382017106 0.0310322419
vn -0.382975042 0.923237503 0.0310271624
vn -0.382012069 0.923636377 0.0310249366
vn 0.382973433 0.923238337 0.0310223196
vn 0.382015705 0.923635066 0.0310201161
vn 0.923239231 0.382971227 0.0310227312
vn 0.923635304 0.382015288 0.031020537
vn 0.92323637 -0.382977158 0.0310339555
vn 0.92363739 -0.382009029 0.0310317036
vn 0.382970542 -0.923238635 0.0310493503
vn 0.382017881 -0.923633218 0.0310471598
vn -0.382972211 -0.923237681 0.0310541838
vn -0.382014275 -0.923634648 0.0310519803
vn -0.923236191 -0.38297677 0.0310456567
vn -0.923636377 -0.382010758 0.0310434066
vn -0.828451693 -0.38203302 -0.409534603
vn -0.923832893 0.382792264 0.00170940324
vn -0.828494489 0.382009447 -0.409469932
vn -0.923864067 -0.382717431 0.00157134456
vn -0.386442125 -0.817300916 -0.427412927
vn -0.382780254 -0.923838198 0.00145852601
vn 0.386432499 -0.817285299 -0.427451313
vn 0.382767141 -0.923843682 0.00143434899
vn 0.923862338 -0.382721871 0.0015149347
vn 0.828402817 -0.382031947 -0.40963456
vn 0.828443229 0.382007182 -0.409575731
vn 0.923831165 0.382796645 0.00165299163
vn 0.379746825 0.834040403 -0.400211155
vn 0.382735997 0.92385602 0.00176725234
vn -0.379757941 0.834055066 -0.400170028
vn -0.38274911 0.923850536 0.00179143006
vn -0.828494489 0.382009447 -0.409469932
vn -0.923832893 0.382792264 0.00170940324
vn -0.923238039 -0.382973433 -0.031031318
vn -0.9236359 0.382012397 -0.0310374163
vn -0.923236489 0.382976443 -0.0310396608
vn -0.923634768 -0.382015526 -0.0310290996
vn -0.382974565 -0.923237622 -0.0310278777
vn -0.382011712 -0.923636496 -0.0310256518
vn 0.382974565 -0.923237622 -0.0310278777
vn 0.382011712 -0.923636496 -0.0310256518
vn 0.923238039 -0.382973373 -0.0310313143
vn 0.923634768 -0.382015496 -0.0310290996
vn 0.923236489 0.382976413 -0.0310396645
vn 0.9236359 0.382012337 -0.03103742
vn 0.382971853 0.923238039 -0.0310516004
vn 0.382013857 0.923634768 -0.0310494006
vn -0.382971853 0.923238039 -0.0310516004
vn -0.382013857 0.923634768 -0.0310494006
vn -0.923236489 0.382976443 -0.0310396608
vn -0.9236359 0.382012397 -0.0310374163
vn 4.35506809E-06 -1.20966354E-06 1
vn 4.35506763E-06 -1.20966354E-06 1
vn 4.35506809E-06 -1.20966354E-06 1
vn 4.35506809E-06 -1.20966342E-06 1
vn 4.35506809E-06 -1.20966354E-06 1
vn 4.35506809E-06 -1.20966354E-06 1
vn 4.35506809E-06 -1.20966342E-06 1
vn 4.35506809E-06 -1.20966365E-06 1
vn -0 -1 0
vn -0 -1 0
vn -0 -1 0
vn -0 -1 0
vn -0 -1 0
vn -0 -1 0
vn -0 -1 0
vn -0 -1 0
vn -2.23705896E-07 -3.10660909E-07 -1
vn -2.23705925E-07 -3.10660909E-07 -1
vn -2.23705896E-07 -3.10660937E-07 -1
vn -2.23705896E-07 -3.10660909E-07 -1
vn -2.23705896E-07 -3.1066088E-07 -1
vn -2.23705896E-07 -3.1066088E-07 -1
vn -2.23705925E-07 -3.10660937E-07 -1
vn -2.23705925E-07 -3.10660937E-07 -1
vn -0.794540107 -0.544514596 -0.268719226
vn -0.965170324 -0.184995666 0.184994563
vn -0.794570386 -0.544467866 0.268724024
vn -0.791908145 -0.268360525 0.54851073
vn -0.965137661 -0.184993714 -0.185166389
vn -0.773287117 -0.265804946 -0.575651586
vn -0.773260057 0.265794665 -0.575692773
vn -0.965138137 0.185164943 0.184992567
vn -0.791880906 0.268352717 0.548554122
vn -0.776609778 0.570941985 0.266275346
vn -0.965105712 0.185162857 -0.185164303
vn -0.776579678 0.570986211 -0.266268373
vn 0.79456687 -0.544474244 0.268721372
vn 0.965137899 -0.184993342 -0.185165986
vn 0.794533372 -0.544525325 -0.26871711
vn 0.773242593 -0.265797108 -0.575715005
vn 0.965170205 -0.184995815 0.184994668
vn 0.791900754 -0.268358469 0.548522532
vn 0.791871786 0.268355668 0.548565626
vn 0.965104461 0.185169592 -0.185163364
vn 0.773213208 0.265792817 -0.575756371
vn 0.776588202 0.570978165 -0.266260624
vn 0.965137005 0.185171574 0.184991777
vn 0.77661705 0.570934713 0.266269565
vn 0.552713275 0.789733469 0.266137332
vn 0.18501395 0.965146661 -0.185099378
vn 0.552757084 0.789705753 -0.266128927
vn 0.264905423 0.780275404 -0.56656456
vn 0.185015962 0.965179205 0.184927523
vn 0.26728633 0.798713744 0.539086521
vn -0.267285615 0.798716664 0.539082646
vn -0.18501243 0.965146899 -0.185099512
vn -0.264893949 0.780289948 -0.566549838
vn -0.552740872 0.789716005 -0.266131967
vn -0.185014442 0.965179563 0.184927672
vn -0.552698433 0.78974247 0.266141385
vn -0.794570386 -0.544467866 0.268724024
vn -0.791908145 -0.268360525 0.54851073
vn -0.58368504 -0.57290262 0.575408101
vn -0.846890509 -0.372623265 0.379379034
vn -0.844637692 -0.379724264 0.37735489
vn -0.382917583 -0.386491388 0.83904624
vn -0.384324759 -0.834260881 0.395352036
vn -0.773287117 -0.265804946 -0.575651586
vn -0.794540107 -0.544514596 -0.268719226
vn -0.578123212 -0.567426383 -0.586345375
vn -0.828451693 -0.38203302 -0.409534603
vn -0.846932292 -0.372562885 -0.379344761
vn -0.386442125 -0.817300916 -0.427412927
vn -0.375743955 -0.358341724 -0.854638994
vn -0.776579678 0.570986211 -0.266268373
vn -0.773260057 0.265794665 -0.575692773
vn -0.572837055 0.578181207 -0.581002712
vn -0.552740872 0.789716005 -0.266131967
vn -0.828494489 0.382009447 -0.409469932
vn -0.264893949 0.780289948 -0.566549838
vn -0.379757941 0.834055066 -0.400170028
vn -0.578270495 0.583649099 0.570050001
vn -0.776609778 0.570941985 0.266275346
vn -0.552698433 0.78974247 0.266141385
vn -0.791880906 0.268352717 0.548554122
vn -0.267285615 0.798716664 0.539082646
vn -0.844679117 0.379696488 0.37729004
vn -0.377367884 0.849808514 0.367993087
vn 0.572831035 0.578172386 -0.581017375
vn 0.776588202 0.570978165 -0.266260624
vn 0.552757084 0.789705753 -0.266128927
vn 0.773213208 0.265792817 -0.575756371
vn 0.264905423 0.780275404 -0.56656456
vn 0.828443229 0.382007182 -0.409575731
vn 0.379746825 0.834040403 -0.400211155
vn 0.77661705 0.570934713 0.266269565
vn 0.578270793 0.583649278 0.570049465
vn 0.552713275 0.789733469 0.266137332
vn 0.791871786 0.268355668 0.548565626
vn 0.26728633 0.798713744 0.539086521
vn 0.844663739 0.379692256 0.377328873
vn 0.377368122 0.849801302 0.368009537
vn 0.828402817 -0.382031947 -0.40963456
vn 0.386432499 -0.817285299 -0.427451313
vn 0.578111589 -0.567419291 -0.586363792
vn 0.773242593 -0.265797108 -0.575715005
vn 0.375747293 -0.3583242 -0.854644835
vn 0.794533372 -0.544525325 -0.26871711
vn 0.846927464 -0.372573584 -0.379345357
vn 0.846888542 -0.37262857 0.379377991
vn 0.38291505 -0.386492252 0.839046955
vn 0.583682895 -0.57290411 0.575408757
vn 0.79456687 -0.544474244 0.268721372
vn 0.384325892 -0.834255397 0.395362526
vn 0.791900754 -0.268358469 0.548522532
vn 0.844623148 -0.379720837 0.377390712
vn -0.350928634 -0.139541209 -0.925946712
vn -0.345809162 0.154894009 -0.925431669
vn -0.350929022 0.139542207 -0.925946414
vn -0.345808238 -0.154894263 -0.925432026
vn -0.154894397 0.345810264 -0.925431192
vn -0.139541641 -0.350929737 -0.925946236
vn -0.139540642 0.35093084 -0.925945938
vn -0.154892474 -0.345810115 -0.925431609
vn 0.154894397 0.345810264 -0.925431192
vn 0.139540985 -0.35093081 -0.925945938
vn 0.139540642 0.35093084 -0.925945938
vn 0.154895008 -0.345810235 -0.925431192
vn 0.345809162 0.154893979 -0.925431669
vn 0.350929767 -0.139541686 -0.925946236
vn 0.350929022 0.139542207 -0.925946414
vn 0.345809489 -0.154894605 -0.92543149
vn -0.779851198 -0.538727283 0.318755448
vn -0.783343375 0.190241098 0.591761291
vn -0.779851556 0.538727641 0.318754047
vn -0.783343375 -0.190242246 0.591760933
vn -0.190239474 0.783340394 0.591765761
vn -0.538731515 -0.77984941 0.318752676
vn -0.53873235 0.779848516 0.318753421
vn -0.190239459 -0.783342421 0.591763139
vn 0.190240636 0.783340216 0.591765642
vn 0.538728595 -0.77984935 0.318757713
vn 0.538729429 0.779848516 0.318758458
vn 0.190240636 -0.783342183 0.5917629
vn 0.783342481 0.190241069 0.591762424
vn 0.779849648 -0.538727283 0.318759143
vn 0.779850006 0.538727522 0.318757772
vn 0.783342481 -0.190242246 0.591762066
vn -0.462666839 0.18434301 0.867154479
vn -0.45627591 -0.202929422 0.866390169
vn -0.462667733 -0.184343249 0.867154062
vn -0.456275076 0.202929065 0.866390705
vn -0.202929705 -0.45627743 0.866389394
vn -0.184343904 0.462668419 0.867153585
vn -0.184343651 -0.462669373 0.867153049
vn -0.202928081 0.456277132 0.86638993
vn 0.202928916 -0.456277698 0.866389394
vn 0.184344366 0.462668806 0.867153227
vn 0.18434459 -0.462669075 0.867153049
vn 0.202928782 0.45627743 0.866389573
vn 0.456277668 -0.202929333 0.866389275
vn 0.462669283 0.18434383 0.867153168
vn 0.462669432 -0.184343755 0.867153049
vn 0.456277549 0.202929124 0.866389453
vn -0.763042569 0.547944307 -0.342816293
vn -0.738098204 -0.172634423 -0.652233303
vn -0.763041556 -0.547942996 -0.342820793
vn -0.7380988 0.17263402 -0.652232826
vn -0.172631279 -0.738090754 -0.652242601
vn -0.547946215 0.763041019 -0.342816889
vn -0.547945321 -0.76303941 -0.342821956
vn -0.172631785 0.738093674 -0.652239203
vn 0.172634035 -0.738089323 -0.652243495
vn 0.547941089 0.763037384 -0.342833012
vn 0.547940254 -0.763035774 -0.34283796
vn 0.172634467 0.738092244 -0.652240098
vn 0.738091648 -0.172633052 -0.65224123
vn 0.763038337 0.547940671 -0.342831671
vn 0.763037384 -0.54793936 -0.342835933
vn 0.738092124 0.172632635 -0.652240694
vn -0.164396256 -0.895764589 -0.413012773
vn 0.181697562 -0.895106137 -0.407149822
vn 0.164397329 -0.895764053 -0.413013637
vn -0.181696132 -0.895106912 -0.407148868
vn 0.407152295 -0.895105302 -0.18169643
vn -0.413011104 -0.895765483 -0.164396062
vn 0.413015872 -0.89576298 -0.164397329
vn -0.407147557 -0.895107567 -0.18169558
vn 0.407152832 -0.895105064 0.181696236
vn -0.413011909 -0.895765066 0.164395839
vn 0.413016319 -0.895762801 0.164397314
vn -0.407148182 -0.89510721 0.181696117
vn 0.181698143 -0.89510566 0.407150567
vn -0.164396986 -0.895764053 0.413013905
vn 0.16439797 -0.895763576 0.413014501
vn -0.181696758 -0.895106256 0.40715
vn -0.538333952 0.317818016 -0.780505061
vn 0.190937877 0.589340091 -0.784997404
vn 0.538333833 0.317820221 -0.780504286
vn -0.190940008 0.589338362 -0.784998298
vn 0.784992635 0.589346111 -0.190939054
vn -0.780503213 0.31781441 -0.538338959
vn 0.780499518 0.317822874 -0.538339376
vn -0.785001397 0.58933413 -0.190940037
vn 0.784992278 0.589346468 0.190939248
vn -0.780503213 0.317818671 0.538336396
vn 0.780499399 0.317827255 0.538336694
vn -0.78500104 0.589334548 0.190940201
vn 0.190937772 0.589343965 0.784994543
vn -0.53833437 0.317822963 0.780502737
vn 0.538334429 0.317825139 0.780501902
vn -0.190939844 0.589341998 0.784995496
vn 1.1071068E-05 4.19276876E-06 -1
vn 3.45225658E-06 7.90765989E-06 -1
vn 3.1062591E-06 8.09901394E-06 -1
vn 1.10828314E-05 4.16659486E-06 -1
vn -2.27919281E-06 1.75253826E-05 -1
vn 3.87203681E-06 8.01763235E-06 -1
vn -2.22878407E-06 1.76396497E-05 -1
vn 3.48344133E-06 8.19710931E-06 -1
vn 8.39725999E-06 1.99108308E-05 -1
vn -4.11566998E-06 1.08946142E-05 -1
vn 8.14985651E-06 1.99927708E-05 -1
vn -4.08870665E-06 1.09195007E-05 -1
vn 1.50568467E-05 1.04451237E-05 -1
vn 3.67904158E-06 7.6274755E-06 -1
vn 1.5283129E-05 1.13727265E-05 -1
vn 4.98241116E-06 7.19607988E-06 -1
vn -1.34069824E-05 6.24577069E-06 1
vn -1.33025724E-05 5.77232549E-06 1
vn -5.7305856E-06 -1.79965548E-06 1
vn -5.44962859E-06 -1.71142278E-06 1
vn -4.19210664E-06 1.99463411E-05 1
vn -1.79964786E-06 5.73048874E-06 1
vn -3.61277898E-06 2.01789553E-05 1
vn -1.71146939E-06 5.44970726E-06 1
vn 3.76514481E-06 1.19889764E-05 1
vn -9.371739E-06 1.33026033E-05 1
vn 3.95927373E-06 1.26071218E-05 1
vn -9.66875996E-06 1.34070051E-05 1
vn -1.19893184E-05 3.76512321E-06 1
vn -2.01795265E-05 1.15312923E-05 1
vn -1.26075147E-05 3.95926099E-06 1
vn -1.9946825E-05 1.17225864E-05 1
g P_Straight_B_0
f 3/3/3 2/2/2 1/1/1
f 2/2/2 4/4/4 1/1/1
f 2/2/2 5/5/5 4/4/4
f 5/5/5 6/6/6 4/4/4
f 9/9/9 8/8/8 7/7/7
f 10/10/10 9/9/9 7/7/7
f 13/13/13 12/12/12 11/11/11
f 14/14/14 13/13/13 11/11/11
f 17/17/17 16/16/16 15/15/15
f 18/18/18 17/17/17 15/15/15
f 18/18/18 15/15/15 19/19/19
f 20/20/20 18/18/18 19/19/19
f 20/20/20 19/19/19 21/21/21
f 22/22/22 20/20/20 21/21/21
f 25/25/25 24/24/24 23/23/23
f 26/26/26 25/25/25 23/23/23
f 29/29/29 28/28/28 27/27/27
f 30/30/30 29/29/29 27/27/27
f 31/31/31 29/29/29 30/30/30
f 32/32/32 31/31/31 30/30/30
f 35/35/35 34/34/34 33/33/33
f 36/36/36 35/35/35 33/33/33
f 39/39/39 38/38/38 37/37/37
f 40/40/40 39/39/39 37/37/37
f 43/43/43 42/42/42 41/41/41
f 42/42/42 44/44/44 41/41/41
f 41/41/41 44/44/44 45/45/45
f 44/44/44 46/46/46 45/45/45
f 45/45/45 46/46/46 47/47/47
f 46/46/46 48/48/48 47/47/47
f 51/51/51 50/50/50 49/49/49
f 52/52/52 51/51/51 49/49/49
f 55/55/55 54/54/54 53/53/53
f 56/56/56 55/55/55 53/53/53
f 59/59/59 58/58/58 57/57/57
f 60/60/60 59/59/59 57/57/57
f 63/63/63 62/62/62 61/61/61
f 64/64/64 63/63/63 61/61/61
f 67/67/67 66/66/66 65/65/65
f 68/68/68 67/67/67 65/65/65
f 71/71/71 70/70/70 69/69/69
f 72/72/72 71/71/71 69/69/69
f 75/75/75 74/74/74 73/73/73
f 76/76/76 75/75/75 73/73/73
f 79/79/79 78/78/78 77/77/77
f 80/80/80 79/79/79 77/77/77
f 83/83/83 82/82/82 81/81/81
f 84/84/84 83/83/83 81/81/81
f 87/87/87 86/86/86 85/85/85
f 88/88/88 87/87/87 85/85/85
f 91/91/91 90/90/90 89/89/89
f 92/92/92 91/91/91 89/89/89
f 95/95/95 94/94/94 93/93/93
f 96/96/96 95/95/95 93/93/93
f 99/99/99 98/98/98 97/97/97
f 100/100/100 99/99/99 97/97/97
f 103/103/103 102/102/102 101/101/101
f 102/102/102 104/104/104 101/101/101
f 105/105/105 101/101/101 104/104/104
f 106/106/106 105/105/105 104/104/104
f 105/105/105 106/106/106 107/107/107
f 106/106/106 108/108/108 107/107/107
f 108/108/108 109/109/109 107/107/107
f 109/109/109 110/110/110 107/107/107
f 110/110/110 109/109/109 111/111/111
f 109/109/109 112/112/112 111/111/111
f 113/113/113 111/111/111 112/112/112
f 114/114/114 113/113/113 112/112/112
f 113/113/113 114/114/114 115/115/115
f 114/114/114 116/116/116 115/115/115
f 117/117/117 115/115/115 116/116/116
f 118/118/118 117/117/117 116/116/116
f 121/121/121 120/120/120 119/119/119
f 120/120/120 122/122/122 119/119/119
f 119/119/119 122/122/122 123/123/123
f 122/122/122 124/124/124 123/123/123
f 123/123/123 124/124/124 125/125/125
f 124/124/124 126/126/126 125/125/125
f 125/125/125 126/126/126 127/127/127
f 126/126/126 128/128/128 127/127/127
f 127/127/127 128/128/128 129/129/129
f 128/128/128 130/130/130 129/129/129
f 129/129/129 130/130/130 131/131/131
f 130/130/130 132/132/132 131/131/131
f 131/131/131 132/132/132 133/133/133
f 132/132/132 134/134/134 133/133/133
f 133/133/133 134/134/134 135/135/135
f 134/134/134 136/136/136 135/135/135
f 139/139/139 138/138/138 137/137/137
f 138/138/138 140/140/140 137/137/137
f 141/141/141 137/137/137 140/140/140
f 142/142/142 141/141/141 140/140/140
f 141/141/141 142/142/142 143/143/143
f 142/142/142 144/144/144 143/143/143
f 144/144/144 145/145/145 143/143/143
f 145/145/145 146/146/146 143/143/143
f 146/146/146 145/145/145 147/147/147
f 145/145/145 148/148/148 147/147/147
f 149/149/149 147/147/147 148/148/148
f 150/150/150 149/149/149 148/148/148
f 149/149/149 150/150/150 151/151/151
f 150/150/150 152/152/152 151/151/151
f 153/153/153 151/151/151 152/152/152
f 154/154/154 153/153/153 152/152/152
f 157/157/157 156/156/156 155/155/155
f 156/156/156 158/158/158 155/155/155
f 155/155/155 158/158/158 159/159/159
f 158/158/158 160/160/160 159/159/159
f 159/159/159 160/160/160 161/161/161
f 160/160/160 162/162/162 161/161/161
f 161/161/161 162/162/162 163/163/163
f 162/162/162 164/164/164 163/163/163
f 163/163/163 164/164/164 165/165/165
f 164/164/164 166/166/166 165/165/165
f 165/165/165 166/166/166 167/167/167
f 166/166/166 168/168/168 167/167/167
f 167/167/167 168/168/168 169/169/169
f 168/168/168 170/170/170 169/169/169
f 169/169/169 170/170/170 171/171/171
f 170/170/170 172/172/172 171/171/171
f 175/175/175 174/174/174 173/173/173
f 174/174/174 176/176/176 173/173/173
f 177/177/177 173/173/173 176/176/176
f 178/178/178 177/177/177 176/176/176
f 177/177/177 178/178/178 179/179/179
f 178/178/178 180/180/180 179/179/179
f 180/180/180 181/181/181 179/179/179
f 181/181/181 182/182/182 179/179/179
f 182/182/182 181/181/181 183/183/183
f 181/181/181 184/184/184 183/183/183
f 185/185/185 183/183/183 184/184/184
f 186/186/186 185/185/185 184/184/184
f 185/185/185 186/186/186 187/187/187
f 186/186/186 188/188/188 187/187/187
f 189/189/189 187/187/187 188/188/188
f 190/190/190 189/189/189 188/188/188
f 193/193/193 192/192/192 191/191/191
f 192/192/192 194/194/194 191/191/191
f 191/191/191 194/194/194 195/195/195
f 194/194/194 196/196/196 195/195/195
f 195/195/195 196/196/196 197/197/197
f 196/196/196 198/198/198 197/197/197
f 197/197/197 198/198/198 199/199/199
f 198/198/198 200/200/200 199/199/199
f 199/199/199 200/200/200 201/201/201
f 200/200/200 202/202/202 201/201/201
f 201/201/201 202/202/202 203/203/203
f 202/202/202 204/204/204 203/203/203
f 203/203/203 204/204/204 205/205/205
f 204/204/204 206/206/206 205/205/205
f 205/205/205 206/206/206 207/207/207
f 206/206/206 208/208/208 207/207/207
f 211/211/211 210/210/210 209/209/209
f 209/209/209 212/212/212 211/211/211
f 209/209/209 213/213/213 212/212/212
f 209/209/209 214/214/214 213/213/213
f 214/214/214 215/215/215 213/213/213
f 215/215/215 216/216/216 213/213/213
f 219/219/219 218/218/218 217/217/217
f 217/217/217 220/220/220 219/219/219
f 217/217/217 221/221/221 220/220/220
f 221/221/221 222/222/222 220/220/220
f 221/221/221 223/223/223 222/222/222
f 223/223/223 224/224/224 222/222/222
f 227/227/227 226/226/226 225/225/225
f 225/225/225 228/228/228 227/227/227
f 225/225/225 229/229/229 228/228/228
f 225/225/225 230/230/230 229/229/229
f 230/230/230 231/231/231 229/229/229
f 230/230/230 232/232/232 231/231/231
f 235/235/235 234/234/234 233/233/233
f 236/236/236 234/234/234 235/235/235
f 234/234/234 237/237/237 233/233/233
f 233/233/233 237/237/237 238/238/238
f 238/238/238 237/237/237 239/239/239
f 240/240/240 234/234/234 236/236/236
f 237/237/237 234/234/234 240/240/240
f 241/241/241 240/240/240 236/236/236
f 242/242/242 240/240/240 241/241/241
f 237/237/237 243/243/243 239/239/239
f 243/243/243 237/237/237 240/240/240
f 243/243/243 240/240/240 242/242/242
f 239/239/239 243/243/243 244/244/244
f 244/244/244 243/243/243 242/242/242
f 247/247/247 246/246/246 245/245/245
f 248/248/248 246/246/246 247/247/247
f 246/246/246 249/249/249 245/245/245
f 245/245/245 249/249/249 250/250/250
f 250/250/250 249/249/249 251/251/251
f 252/252/252 246/246/246 248/248/248
f 249/249/249 246/246/246 252/252/252
f 253/253/253 252/252/252 248/248/248
f 254/254/254 252/252/252 253/253/253
f 249/249/249 255/255/255 251/251/251
f 255/255/255 249/249/249 252/252/252
f 255/255/255 252/252/252 254/254/254
f 251/251/251 255/255/255 256/256/256
f 256/256/256 255/255/255 254/254/254
f 259/259/259 258/258/258 257/257/257
f 260/260/260 258/258/258 259/259/259
f 258/258/258 261/261/261 257/257/257
f 257/257/257 261/261/261 262/262/262
f 262/262/262 261/261/261 263/263/263
f 264/264/264 258/258/258 260/260/260
f 261/261/261 258/258/258 264/264/264
f 265/265/265 264/264/264 260/260/260
f 266/266/266 264/264/264 265/265/265
f 261/261/261 267/267/267 263/263/263
f 267/267/267 261/261/261 264/264/264
f 267/267/267 264/264/264 266/266/266
f 263/263/263 267/267/267 268/268/268
f 268/268/268 267/267/267 266/266/266
f 271/271/271 270/270/270 269/269/269
f 269/269/269 272/272/272 271/271/271
f 270/270/270 271/271/271 273/273/273
f 271/271/271 272/272/272 274/274/274
f 271/271/271 275/275/275 273/273/273
f 271/271/271 274/274/274 275/275/275
f 278/278/278 277/277/277 276/276/276
f 279/279/279 278/278/278 276/276/276
f 277/277/277 278/278/278 280/280/280
f 278/278/278 279/279/279 281/281/281
f 278/278/278 282/282/282 280/280/280
f 281/281/281 282/282/282 278/278/278
f 285/285/285 284/284/284 283/283/283
f 286/286/286 285/285/285 283/283/283
f 284/284/284 285/285/285 287/287/287
f 285/285/285 286/286/286 288/288/288
f 289/289/289 287/287/287 285/285/285
f 288/288/288 289/289/289 285/285/285
f 292/292/292 291/291/291 290/290/290
f 290/290/290 291/291/291 293/293/293
f 290/290/290 294/294/294 292/292/292
f 295/295/295 290/290/290 293/293/293
f 294/294/294 290/290/290 296/296/296
f 295/295/295 296/296/296 290/290/290
f 299/299/299 298/298/298 297/297/297
f 297/297/297 298/298/298 300/300/300
f 297/297/297 301/301/301 299/299/299
f 302/302/302 297/297/297 300/300/300
f 301/301/301 297/297/297 303/303/303
f 297/297/297 302/302/302 303/303/303
f 306/306/306 305/305/305 304/304/304
f 305/305/305 307/307/307 304/304/304
f 305/305/305 306/306/306 308/308/308
f 307/307/307 305/305/305 309/309/309
f 308/308/308 310/310/310 305/305/305
f 305/305/305 310/310/310 309/309/309
f 313/313/313 312/312/312 311/311/311
f 311/311/311 314/314/314 313/313/313
f 312/312/312 313/313/313 315/315/315
f 313/313/313 314/314/314 316/316/316
f 317/317/317 315/315/315 313/313/313
f 317/317/317 313/313/313 316/316/316
f 320/320/320 319/319/319 318/318/318
f 321/321/321 320/320/320 318/318/318
f 320/320/320 322/322/322 319/319/319
f 320/320/320 321/321/321 323/323/323
f 320/320/320 324/324/324 322/322/322
f 323/323/323 324/324/324 320/320/320
f 327/327/327 326/326/326 325/325/325
f 326/326/326 328/328/328 325/325/325
f 329/329/329 326/326/326 327/327/327
f 325/325/325 328/328/328 330/330/330
f 331/331/331 329/329/329 327/327/327
f 328/328/328 332/332/332 330/330/330
f 333/333/333 329/329/329 331/331/331
f 330/330/330 332/332/332 334/334/334
f 335/335/335 333/333/333 331/331/331
f 332/332/332 336/336/336 334/334/334
f 337/337/337 333/333/333 335/335/335
f 334/334/334 336/336/336 338/338/338
f 339/339/339 337/337/337 335/335/335
f 336/336/336 340/340/340 338/338/338
f 340/340/340 337/337/337 339/339/339
f 338/338/338 340/340/340 339/339/339
f 343/343/343 342/342/342 341/341/341
f 342/342/342 344/344/344 341/341/341
f 345/345/345 342/342/342 343/343/343
f 341/341/341 344/344/344 346/346/346
f 347/347/347 345/345/345 343/343/343
f 344/344/344 348/348/348 346/346/346
f 349/349/349 345/345/345 347/347/347
f 346/346/346 348/348/348 350/350/350
f 351/351/351 349/349/349 347/347/347
f 348/348/348 352/352/352 350/350/350
f 353/353/353 349/349/349 351/351/351
f 350/350/350 352/352/352 354/354/354
f 355/355/355 353/353/353 351/351/351
f 352/352/352 356/356/356 354/354/354
f 356/356/356 353/353/353 355/355/355
f 354/354/354 356/356/356 355/355/355
f 359/359/359 358/358/358 357/357/357
f 358/358/358 360/360/360 357/357/357
f 361/361/361 358/358/358 359/359/359
f 357/357/357 360/360/360 362/362/362
f 363/363/363 361/361/361 359/359/359
f 360/360/360 364/364/364 362/362/362
f 365/365/365 361/361/361 363/363/363
f 362/362/362 364/364/364 366/366/366
f 367/367/367 365/365/365 363/363/363
f 364/364/364 368/368/368 366/366/366
f 369/369/369 365/365/365 367/367/367
f 366/366/366 368/368/368 370/370/370
f 371/371/371 369/369/369 367/367/367
f 368/368/368 372/372/372 370/370/370
f 372/372/372 369/369/369 371/371/371
f 370/370/370 372/372/372 371/371/371
f 375/375/375 374/374/374 373/373/373
f 374/374/374 376/376/376 373/373/373
f 377/377/377 374/374/374 375/375/375
f 373/373/373 376/376/376 378/378/378
f 379/379/379 377/377/377 375/375/375
f 376/376/376 380/380/380 378/378/378
f 381/381/381 377/377/377 379/379/379
f 378/378/378 380/380/380 382/382/382
f 383/383/383 381/381/381 379/379/379
f 380/380/380 384/384/384 382/382/382
f 385/385/385 381/381/381 383/383/383
f 382/382/382 384/384/384 386/386/386
f 387/387/387 385/385/385 383/383/383
f 384/384/384 388/388/388 386/386/386
f 388/388/388 385/385/385 387/387/387
f 386/386/386 388/388/388 387/387/387
f 391/391/391 390/390/390 389/389/389
f 390/390/390 392/392/392 389/389/389
f 393/393/393 390/390/390 391/391/391
f 389/389/389 392/392/392 394/394/394
f 395/395/395 393/393/393 391/391/391
f 392/392/392 396/396/396 394/394/394
f 397/397/397 393/393/393 395/395/395
f 394/394/394 396/396/396 398/398/398
f 399/399/399 397/397/397 395/395/395
f 396/396/396 400/400/400 398/398/398
f 401/401/401 397/397/397 399/399/399
f 398/398/398 400/400/400 402/402/402
f 403/403/403 401/401/401 399/399/399
f 400/400/400 404/404/404 402/402/402
f 404/404/404 401/401/401 403/403/403
f 402/402/402 404/404/404 403/403/403
f 407/407/407 406/406/406 405/405/405
f 406/406/406 408/408/408 405/405/405
f 409/409/409 406/406/406 407/407/407
f 405/405/405 408/408/408 410/410/410
f 411/411/411 409/409/409 407/407/407
f 408/408/408 412/412/412 410/410/410
f 413/413/413 409/409/409 411/411/411
f 410/410/410 412/412/412 414/414/414
f 415/415/415 413/413/413 411/411/411
f 412/412/412 416/416/416 414/414/414
f 417/417/417 413/413/413 415/415/415
f 414/414/414 416/416/416 418/418/418
f 419/419/419 417/417/417 415/415/415
f 416/416/416 420/420/420 418/418/418
f 420/420/420 417/417/417 419/419/419
f 418/418/418 420/420/420 419/419/419
f 423/423/423 422/422/422 421/421/421
f 422/422/422 424/424/424 421/421/421
f 425/425/425 422/422/422 423/423/423
f 421/421/421 424/424/424 426/426/426
f 427/427/427 425/425/425 423/423/423
f 424/424/424 428/428/428 426/426/426
f 429/429/429 425/425/425 427/427/427
f 426/426/426 428/428/428 430/430/430
f 431/431/431 429/429/429 427/427/427
f 428/428/428 432/432/432 430/430/430
f 433/433/433 429/429/429 431/431/431
f 430/430/430 432/432/432 434/434/434
f 435/435/435 433/433/433 431/431/431
f 432/432/432 436/436/436 434/434/434
f 436/436/436 433/433/433 435/435/435
f 434/434/434 436/436/436 435/435/435
f 439/439/439 438/438/438 437/437/437
f 440/440/440 439/439/439 437/437/437
f 437/437/437 438/438/438 441/441/441
f 442/442/442 439/439/439 440/440/440
f 438/438/438 443/443/443 441/441/441
f 444/444/444 442/442/442 440/440/440
f 441/441/441 443/443/443 445/445/445
f 446/446/446 442/442/442 444/444/444
f 443/443/443 447/447/447 445/445/445
f 448/448/448 446/446/446 444/444/444
f 445/445/445 447/447/447 449/449/449
f 450/450/450 446/446/446 448/448/448
f 447/447/447 451/451/451 449/449/449
f 452/452/452 450/450/450 448/448/448
f 449/449/449 451/451/451 452/452/452
f 451/451/451 450/450/450 452/452/452
