g P_Straight_Simple
v -0.0392104089 -0.366866916 -0.50000006
v 0.0392101742 -0.366866916 0.5
v 0.0392105654 -0.366866916 -0.5
v -0.0392108075 -0.366866916 0.5
v -0.0856166705 -0.320460588 -0.50000006
v -0.0856170803 -0.320460618 0.5
v 0.0392105654 -0.366866916 -0.5
v 0.0392101742 -0.366866916 0.5
v 0.085616447 -0.320460618 0.5
v 0.0856168345 -0.320460618 -0.5
v 0.0856168345 -0.320460618 -0.5
v 0.085616447 -0.320460618 0.5
v 0.085616447 -0.242039576 0.5
v 0.0856168345 -0.242039606 -0.5
v 0.0856168345 -0.242039606 -0.5
v 0.085616447 -0.242039576 0.5
v 0.0392101742 -0.195633292 0.5
v 0.0392105654 -0.195633307 -0.5
v -0.0392108075 -0.195633292 0.5
v -0.0392104089 -0.195633292 -0.5
v -0.0856170803 -0.242039576 0.5
v -0.0856166705 -0.242039576 -0.5
v -0.0856166705 -0.242039576 -0.5
v -0.0856170803 -0.242039576 0.5
v -0.0856170803 -0.320460618 0.5
v -0.0856166705 -0.320460588 -0.50000006
v 0.0294273756 -0.345505089 -0.5
v 0.0642550811 -0.310677439 -0.5
v 0.0642550811 -0.251822799 -0.5
v 0.0294273756 -0.216995075 -0.5
v -0.0294272248 -0.345505148 -0.50000006
v -0.0294272248 -0.216995105 -0.5
v -0.0642549396 -0.310677439 -0.500000119
v -0.0642549396 -0.251822799 -0.500000119
v 0.0293494221 -0.217164457 0.5
v 0.0640853271 -0.251900375 0.5
v 0.0640853271 -0.310599893 0.5
v 0.0293494221 -0.345335841 0.5
v -0.0293500479 -0.217164457 0.499999911
v -0.0293500479 -0.345335841 0.499999911
v -0.0640859753 -0.251900375 0.499999911
v -0.0640859753 -0.310599893 0.499999911
v -0.0856166705 -0.320460588 -0.50000006
v -0.0642549396 -0.251822799 -0.500000119
v -0.0856166705 -0.242039576 -0.5
v -0.0642549396 -0.310677439 -0.500000119
v -0.0294272248 -0.216995105 -0.5
v -0.0392104089 -0.366866916 -0.50000006
v -0.0392104089 -0.195633292 -0.5
v -0.0294272248 -0.345505148 -0.50000006
v 0.0294273756 -0.216995075 -0.5
v 0.0392105654 -0.366866916 -0.5
v 0.0392105654 -0.195633307 -0.5
v 0.0294273756 -0.345505089 -0.5
v 0.0642550811 -0.251822799 -0.5
v 0.0856168345 -0.320460618 -0.5
v 0.0856168345 -0.242039606 -0.5
v 0.0642550811 -0.310677439 -0.5
v 0.085616447 -0.320460618 0.5
v 0.0640853271 -0.310599893 0.5
v 0.0640853271 -0.251900375 0.5
v 0.085616447 -0.242039576 0.5
v 0.0392101742 -0.366866916 0.5
v 0.0293494221 -0.217164457 0.5
v 0.0293494221 -0.345335841 0.5
v 0.0392101742 -0.195633292 0.5
v -0.0392108075 -0.366866916 0.5
v -0.0293500479 -0.217164457 0.499999911
v -0.0293500479 -0.345335841 0.499999911
v -0.0392108075 -0.195633292 0.5
v -0.0856170803 -0.320460618 0.5
v -0.0640859753 -0.251900375 0.499999911
v -0.0640859753 -0.310599893 0.499999911
v -0.0856170803 -0.242039576 0.5
vt 0.646167874 0.641822755
vt 0.628699481 0.487325013
vt 0.628699481 0.641822755
vt 0.646167874 0.487325013
vt 0.66171366 0.641822755
vt 0.66171366 0.487325013
vt 0.761307657 0.641822755
vt 0.761307657 0.487325013
vt 0.745886803 0.487325013
vt 0.745886803 0.641822755
vt 0.745886803 0.641822755
vt 0.745886803 0.487325013
vt 0.728265285 0.487325013
vt 0.728265285 0.641822755
vt 0.728265285 0.641822755
vt 0.728265285 0.487325013
vt 0.712555826 0.487325013
vt 0.712555826 0.641822755
vt 0.694801211 0.487325013
vt 0.694801211 0.641822755
vt 0.679043531 0.487325013
vt 0.679043531 0.641822755
vt 0.679043531 0.641822755
vt 0.679043531 0.487325013
vt 0.66171366 0.487325013
vt 0.66171366 0.641822755
vt 0.781550765 0.0537216961
vt 0.781891227 0.0533812344
vt 0.781891227 0.0528059304
vt 0.781550765 0.052465409
vt 0.780975461 0.0537216961
vt 0.780975461 0.052465409
vt 0.78063494 0.0533812344
vt 0.78063494 0.0528059304
vt 0.782603145 0.0549839139
vt 0.782942712 0.0546443462
vt 0.782942712 0.0540704727
vt 0.782603145 0.0537309349
vt 0.782029271 0.0549839139
vt 0.782029271 0.0537309349
vt 0.781689763 0.0546443462
vt 0.781689763 0.0540704727
vt 0.859570205 0.900560141
vt 0.853561461 0.919794858
vt 0.859563768 0.922462404
vt 0.853507638 0.903330207
vt 0.843739629 0.929398358
vt 0.846528053 0.887539923
vt 0.846483886 0.935384214
vt 0.843766689 0.893562376
vt 0.827275038 0.929398358
vt 0.824529409 0.887520969
vt 0.824485123 0.935384214
vt 0.827288508 0.893567264
vt 0.81744945 0.919713497
vt 0.811430693 0.900571227
vt 0.811390936 0.922434986
vt 0.817503154 0.903364241
vt 0.859570205 0.900560141
vt 0.853507638 0.903330207
vt 0.853561461 0.919794858
vt 0.859563768 0.922462404
vt 0.846528053 0.887539923
vt 0.843739629 0.929398358
vt 0.843766689 0.893562376
vt 0.846483886 0.935384214
vt 0.824529409 0.887520969
vt 0.827275038 0.929398358
vt 0.827288508 0.893567264
vt 0.824485123 0.935384214
vt 0.811430693 0.900571227
vt 0.81744945 0.919713497
vt 0.817503154 0.903364241
vt 0.811390936 0.922434986
vn -0.382683456 -0.923879504 -1.55066999E-07
vn 0.382683426 -0.923879504 1.4872478E-07
vn 0.382683516 -0.923879504 1.48724794E-07
vn -0.382683545 -0.923879445 -1.55067042E-07
vn -0.707106829 -0.70710665 -2.86526415E-07
vn -0.707106769 -0.707106769 -2.86526415E-07
vn 0.382683516 -0.923879504 1.48724794E-07
vn 0.382683426 -0.923879504 1.4872478E-07
vn 0.707106829 -0.70710665 2.74807547E-07
vn 0.707106769 -0.707106769 2.74807547E-07
vn 1 0 3.87573323E-07
vn 1 0 3.87573323E-07
vn 1 0 3.87573323E-07
vn 1 0 3.87573323E-07
vn 0.707106829 0.70710665 2.74807547E-07
vn 0.707106888 0.70710665 2.74807547E-07
vn 0.382683426 0.923879504 1.48724752E-07
vn 0.382683516 0.923879504 1.48724766E-07
vn -0.382683545 0.923879445 -1.5522555E-07
vn -0.382683516 0.923879504 -1.55225536E-07
vn -0.707106829 0.70710665 -2.86819414E-07
vn -0.707106888 0.70710665 -2.86819358E-07
vn -1 0 -4.11796577E-07
vn -1 0 -4.11796577E-07
vn -1 0 -4.11796577E-07
vn -1 0 -4.11796577E-07
vn 9.20581215E-07 1.26826762E-07 -1
vn 9.20581272E-07 1.26826748E-07 -1
vn 9.20581215E-07 1.26826748E-07 -1
vn 9.20581272E-07 1.26826762E-07 -1
vn 9.20581158E-07 1.26826748E-07 -1
vn 9.20581215E-07 1.26826748E-07 -1
vn 9.20581158E-07 1.26826748E-07 -1
vn 9.20581215E-07 1.26826748E-07 -1
vn -7.62137802E-07 0 1
vn -7.62137802E-07 0 1
vn -7.62137915E-07 0 1
vn -7.62137915E-07 0 1
vn -7.62137859E-07 0 1
vn -7.62137915E-07 0 1
vn -7.62137859E-07 0 1
vn -7.62137859E-07 0 1
vn -2.26791849E-06 0 -1
vn -2.26791849E-06 0 -1
vn -2.26791849E-06 0 -1
vn -2.26791849E-06 0 -1
vn 1.24229871E-07 5.27902046E-07 -1
vn -0 -5.54766757E-07 -1
vn -0 5.54765961E-07 -1
vn 1.24229743E-07 -5.27902728E-07 -1
vn 3.59523995E-07 0 -1
vn 3.41900915E-07 0 -1
vn 3.41900972E-07 0 -1
vn 3.5952408E-07 0 -1
vn -0 0 -1
vn -0 0 -1
vn -0 0 -1
vn -0 0 -1
vn -0 0 1
vn -0 0 1
vn -0 0 1
vn -0 0 1
vn -3.42287279E-07 1.08992799E-06 1
vn -3.59930681E-07 -1.14610316E-06 1
vn -3.5993105E-07 1.14610987E-06 1
vn -3.42287819E-07 -1.08992447E-06 1
vn 1.24916983E-06 2.68138388E-06 1
vn 1.15445516E-06 -2.66048914E-06 1
vn 1.15445755E-06 2.66049778E-06 1
vn 1.24916255E-06 -2.68137501E-06 1
vn 4.50015341E-06 0 1
vn 4.50015341E-06 0 1
vn 4.50015341E-06 0 1
vn 4.50015341E-06 0 1
g P_Straight_Simple_0
f 3/3/3 2/2/2 1/1/1
f 2/2/2 4/4/4 1/1/1
f 1/1/1 4/4/4 5/5/5
f 4/4/4 6/6/6 5/5/5
f 9/9/9 8/8/8 7/7/7
f 10/10/10 9/9/9 7/7/7
f 13/13/13 12/12/12 11/11/11
f 14/14/14 13/13/13 11/11/11
f 17/17/17 16/16/16 15/15/15
f 18/18/18 17/17/17 15/15/15
f 19/19/19 17/17/17 18/18/18
f 20/20/20 19/19/19 18/18/18
f 21/21/21 19/19/19 20/20/20
f 22/22/22 21/21/21 20/20/20
f 25/25/25 24/24/24 23/23/23
f 26/26/26 25/25/25 23/23/23
f 29/29/29 28/28/28 27/27/27
f 27/27/27 30/30/30 29/29/29
f 27/27/27 31/31/31 30/30/30
f 31/31/31 32/32/32 30/30/30
f 31/31/31 33/33/33 32/32/32
f 33/33/33 34/34/34 32/32/32
f 37/37/37 36/36/36 35/35/35
f 35/35/35 38/38/38 37/37/37
f 35/35/35 39/39/39 38/38/38
f 39/39/39 40/40/40 38/38/38
f 39/39/39 41/41/41 40/40/40
f 41/41/41 42/42/42 40/40/40
f 45/45/45 44/44/44 43/43/43
f 44/44/44 46/46/46 43/43/43
f 47/47/47 44/44/44 45/45/45
f 43/43/43 46/46/46 48/48/48
f 49/49/49 47/47/47 45/45/45
f 46/46/46 50/50/50 48/48/48
f 51/51/51 47/47/47 49/49/49
f 48/48/48 50/50/50 52/52/52
f 53/53/53 51/51/51 49/49/49
f 50/50/50 54/54/54 52/52/52
f 55/55/55 51/51/51 53/53/53
f 52/52/52 54/54/54 56/56/56
f 57/57/57 55/55/55 53/53/53
f 54/54/54 58/58/58 56/56/56
f 58/58/58 55/55/55 57/57/57
f 56/56/56 58/58/58 57/57/57
f 61/61/61 60/60/60 59/59/59
f 62/62/62 61/61/61 59/59/59
f 59/59/59 60/60/60 63/63/63
f 64/64/64 61/61/61 62/62/62
f 60/60/60 65/65/65 63/63/63
f 66/66/66 64/64/64 62/62/62
f 63/63/63 65/65/65 67/67/67
f 68/68/68 64/64/64 66/66/66
f 65/65/65 69/69/69 67/67/67
f 70/70/70 68/68/68 66/66/66
f 67/67/67 69/69/69 71/71/71
f 72/72/72 68/68/68 70/70/70
f 69/69/69 73/73/73 71/71/71
f 74/74/74 72/72/72 70/70/70
f 71/71/71 73/73/73 74/74/74
f 73/73/73 72/72/72 74/74/74
