g P_T_B
v 0.039210476 -0.366866529 0.499999076
v 0.0392106809 -0.366891086 0.218748972
v -0.0392101407 -0.366891176 0.218748465
v -0.0392103456 -0.366866678 0.499998659
v -0.0856159776 -0.320484877 0.218748465
v -0.0856164545 -0.32046026 0.499998659
v 0.0856165737 -0.32046032 0.499999136
v 0.0856167898 -0.320484906 0.218748942
v 0.0392106809 -0.366891086 0.218748972
v 0.039210476 -0.366866529 0.499999076
v 0.0856167227 -0.242039219 0.499998659
v 0.0856169239 -0.242063805 0.218748465
v 0.0856167898 -0.320484906 0.218748942
v 0.0856165737 -0.32046032 0.499999136
v 0.0392107405 -0.195632994 0.499998033
v 0.0856169239 -0.242063805 0.218748465
v 0.0856167227 -0.242039219 0.499998659
v 0.0392109416 -0.195657611 0.218747899
v -0.0392104685 -0.195632994 0.499998629
v -0.0392102748 -0.195657611 0.218748465
v -0.0856164545 -0.242039561 0.499998629
v -0.0856159776 -0.242064148 0.218748465
v -0.0856164545 -0.32046026 0.499998659
v -0.0856159776 -0.320484877 0.218748465
v -0.0856159776 -0.242064148 0.218748465
v -0.0856164545 -0.242039561 0.499998629
v -0.499999762 -0.367016464 -0.039210692
v -0.21875 -0.367041171 0.0392095186
v -0.21875 -0.367041171 -0.039210692
v -0.499999255 -0.367016464 0.0392094217
v -0.218750492 -0.320634693 0.0856156126
v -0.499999762 -0.320609957 0.0856156126
v -0.499999255 -0.320610344 -0.0856177881
v -0.499999762 -0.367016464 -0.039210692
v -0.21875 -0.367041171 -0.039210692
v -0.218749464 -0.320634991 -0.0856177285
v -0.499998719 -0.242189214 -0.0856176913
v -0.499999255 -0.320610344 -0.0856177881
v -0.218749464 -0.320634991 -0.0856177285
v -0.218748927 -0.24221383 -0.0856176391
v -0.499998719 -0.195783034 -0.0392114632
v -0.499998719 -0.242189214 -0.0856176913
v -0.218748927 -0.24221383 -0.0856176391
v -0.218748927 -0.195807725 -0.0392114632
v -0.499998719 -0.195783034 0.039209526
v -0.218749464 -0.195807725 0.039209716
v -0.499999255 -0.242189348 0.0856158882
v -0.21875 -0.242213994 0.0856159925
v -0.499999762 -0.320609957 0.0856156126
v -0.499999255 -0.242189348 0.0856158882
v -0.21875 -0.242213994 0.0856159925
v -0.218750492 -0.320634693 0.0856156126
v 0.500000715 -0.366866499 -0.0392111689
v 0.218750417 -0.366891056 -0.0392113663
v 0.218749881 -0.366891176 0.0392094217
v 0.500000119 -0.366866648 0.0392097272
v 0.218749881 -0.320484877 0.085615404
v 0.500000119 -0.32046026 0.0856158063
v 0.500000715 -0.32046032 -0.0856172517
v 0.218750417 -0.320484966 -0.0856174454
v 0.218750417 -0.366891056 -0.0392113663
v 0.500000715 -0.366866499 -0.0392111689
v 0.500000119 -0.242039219 -0.0856173486
v 0.218749881 -0.242063805 -0.0856175423
v 0.218750417 -0.320484966 -0.0856174454
v 0.500000715 -0.32046032 -0.0856172517
v 0.499999613 -0.195632994 -0.0392114632
v 0.218749881 -0.242063805 -0.0856175423
v 0.500000119 -0.242039219 -0.0856173486
v 0.218749389 -0.195657611 -0.0392116569
v 0.500000119 -0.195632994 0.039209716
v 0.218749881 -0.195657611 0.039209526
v 0.500000119 -0.242039561 0.0856157988
v 0.218749881 -0.242064148 0.085615404
v 0.500000119 -0.32046026 0.0856158063
v 0.218749881 -0.320484877 0.085615404
v 0.218749881 -0.242064148 0.085615404
v 0.500000119 -0.242039561 0.0856157988
v -0.0946478546 -0.220954388 -0.0893938169
v -0.172983393 -0.342097312 -0.0895193815
v -0.0946478546 -0.342036903 -0.0893938169
v -0.172983393 -0.220864594 -0.0895193815
v -0.0946478546 -0.19208625 -0.0605258606
v -0.172983393 -0.191960707 -0.060615778
v -0.0946478546 -0.19208625 0.06055687
v -0.172983393 -0.191960707 0.0606172271
v -0.172983393 -0.220864594 0.0895209983
v -0.0946478546 -0.220954388 0.0894248784
v -0.0946478546 -0.342036903 0.0894248784
v -0.172983393 -0.342097282 0.0895209834
v -0.0946478546 -0.370904952 0.06055687
v -0.172983393 -0.371001124 0.0606172346
v -0.0946478546 -0.370904952 -0.0605258532
v -0.172983393 -0.371001124 -0.060615778
v -0.0946478546 -0.342036903 -0.0893938169
v -0.172983393 -0.342097312 -0.0895193815
v -0.0894092172 -0.376645774 0.0605571531
v -0.0894092172 -0.376645774 -0.0605256632
v -0.0946478546 -0.370904952 -0.0605258532
v -0.0946478546 -0.370904952 0.06055687
v -0.0605410226 -0.376645774 -0.0893936679
v 0.0605413131 -0.376645774 -0.0893937647
v 0.060540922 -0.370905042 -0.0942664295
v -0.0605416037 -0.370905042 -0.0942664295
v 0.0894095078 -0.376645774 -0.0605256632
v 0.0894095078 -0.376645774 0.0605571531
v 0.0946477577 -0.370905071 0.06055687
v 0.0946477577 -0.370905071 -0.0605258532
v 0.0605413131 -0.376645774 0.0894250646
v -0.0605410226 -0.376645774 0.0894250646
v -0.06054122 -0.370904952 0.0950463265
v 0.0605415031 -0.370904952 0.0950463265
v -0.0605410226 -0.187088579 0.0894248784
v 0.0605415031 -0.187088579 0.0894248784
v 0.0605415031 -0.19208625 0.095046334
v -0.06054122 -0.192086235 0.0950464234
v 0.0894095078 -0.187088624 0.06055687
v 0.0894095078 -0.187088624 -0.0605257601
v 0.0946471766 -0.192086354 -0.0605258606
v 0.0946471766 -0.192086354 0.06055687
v 0.0605415031 -0.187088624 -0.0893939063
v -0.0605410226 -0.187088624 -0.0893939063
v -0.0605416037 -0.19208625 -0.0942664295
v 0.060540922 -0.19208625 -0.0942664295
v -0.0894092172 -0.187088624 -0.0605257601
v -0.0894092172 -0.187088624 0.06055687
v -0.0946478546 -0.19208625 0.06055687
v -0.0946478546 -0.19208625 -0.0605258606
v 0.0946477577 -0.220954433 0.0894249678
v 0.0946477577 -0.342036903 0.0894249678
v 0.0894095078 -0.342036903 0.0950463265
v 0.0894095078 -0.220954388 0.0950463265
v -0.0946478546 -0.342036903 0.0894248784
v -0.0946478546 -0.220954388 0.0894248784
v -0.0894092172 -0.220954388 0.0950463265
v -0.0894092172 -0.342036903 0.0950463265
v 0.0946477577 -0.342036933 -0.0893938616
v 0.0946477577 -0.220954433 -0.0893938616
v 0.0894089267 -0.220954418 -0.0942663327
v 0.0894089267 -0.342036933 -0.0942664295
v -0.0946478546 -0.220954388 -0.0893938169
v -0.0946478546 -0.342036903 -0.0893938169
v -0.0894098058 -0.342036933 -0.0942664295
v -0.0894098058 -0.220954388 -0.0942664295
v -0.18594189 -0.230901346 -0.101753578
v -0.216765016 -0.331636429 -0.100900963
v -0.18594189 -0.332060575 -0.101753578
v -0.216765016 -0.231324673 -0.100900963
v -0.18594189 -0.179726571 -0.0505789854
v -0.216765016 -0.180578634 -0.0501548834
v -0.18594189 -0.179726571 0.0505805388
v -0.216765016 -0.180578634 0.0501567274
v -0.18594189 -0.230901346 0.101755217
v -0.216765016 -0.231324673 0.100902848
v -0.18594189 -0.332060575 0.101755217
v -0.216765016 -0.331636369 0.10090284
v -0.18594189 -0.383235365 0.0505805388
v -0.216765016 -0.382382423 0.0501567274
v -0.18594189 -0.383235365 -0.0505789854
v -0.216765016 -0.382382423 -0.0501548834
v -0.18594189 -0.332060575 -0.101753578
v -0.216765016 -0.331636429 -0.100900963
v 0.0946477577 -0.342036933 -0.0893938616
v 0.172984257 -0.220864505 -0.0895190537
v 0.0946477577 -0.220954433 -0.0893938616
v 0.172984257 -0.342097014 -0.0895190537
v 0.0946477577 -0.370905071 -0.0605258532
v 0.172984257 -0.371001005 -0.0606151
v 0.0946477577 -0.370905071 0.06055687
v 0.172984257 -0.371001005 0.0606177114
v 0.172984257 -0.342097014 0.0895215794
v 0.0946477577 -0.342036903 0.0894249678
v 0.0946477577 -0.220954433 0.0894249678
v 0.172984257 -0.220864505 0.0895215645
v 0.0946471766 -0.192086354 0.06055687
v 0.172984257 -0.191960543 0.0606177114
v 0.0946471766 -0.192086354 -0.0605258606
v 0.172984257 -0.191960543 -0.0606151
v 0.0946477577 -0.220954433 -0.0893938616
v 0.172984257 -0.220864505 -0.0895190537
v 0.185942188 -0.332060337 -0.101753183
v 0.216764525 -0.231325179 -0.100900523
v 0.185942188 -0.230901167 -0.101753183
v 0.216764525 -0.331636965 -0.100900523
v 0.185942188 -0.383235127 -0.0505784005
v 0.216764525 -0.382382989 -0.0501544923
v 0.185942188 -0.383235127 0.0505809188
v 0.216764525 -0.382382989 0.0501572974
v 0.185942188 -0.332060337 0.1017555
v 0.216764525 -0.331636965 0.100903243
v 0.185942188 -0.230901167 0.1017555
v 0.216764525 -0.231325179 0.100903235
v 0.185942188 -0.179726318 0.0505809188
v 0.216764525 -0.18057926 0.0501573086
v 0.185942188 -0.179726318 -0.0505784005
v 0.216764525 -0.18057926 -0.0501544923
v 0.185942188 -0.230901167 -0.101753183
v 0.216764525 -0.231325179 -0.100900523
v -0.0605410226 -0.376645774 -0.0893936679
v 0.0606166981 -0.454204857 -0.0895193815
v 0.0605413131 -0.376645774 -0.0893937647
v -0.0606158227 -0.454204857 -0.0895193815
v -0.0894092172 -0.376645774 -0.0605256632
v -0.0895198733 -0.454204857 -0.060615778
v -0.0894092172 -0.376645774 0.0605571531
v -0.0895198733 -0.454204857 0.0606172346
v -0.0606158227 -0.454204857 0.0895209834
v -0.0605410226 -0.376645774 0.0894250646
v 0.0605413131 -0.376645774 0.0894250646
v 0.0606166981 -0.454204857 0.0895209834
v 0.0894095078 -0.376645774 0.0605571531
v 0.0895205513 -0.454204857 0.0606172346
v 0.0894095078 -0.376645774 -0.0605256632
v 0.0895205513 -0.454204857 -0.060615778
v 0.0605413131 -0.376645774 -0.0893937647
v 0.0606166981 -0.454204857 -0.0895193815
v -0.0505792275 -0.467248917 -0.101753525
v 0.0501559004 -0.498574704 -0.100900918
v 0.0505799092 -0.467248917 -0.101753525
v -0.0501557998 -0.498574704 -0.100900918
v -0.101753816 -0.467248917 -0.0505789854
v -0.100901924 -0.498574704 -0.0501548834
v -0.101753816 -0.467248917 0.0505805388
v -0.100901924 -0.498574704 0.0501567274
v -0.0505792275 -0.467248917 0.101755217
v -0.0501557998 -0.498574704 0.10090284
v 0.0505799092 -0.467248917 0.101755217
v 0.0501559004 -0.498574704 0.10090284
v 0.101754881 -0.467248917 0.0505805388
v 0.100901641 -0.498574704 0.0501567274
v 0.101754881 -0.467248917 -0.0505789854
v 0.100901641 -0.498574704 -0.0501548834
v 0.0505799092 -0.467248917 -0.101753525
v 0.0501559004 -0.498574704 -0.100900918
v -0.0894092172 -0.220954388 0.0950463265
v -0.0895220041 -0.342097282 0.17352207
v -0.0894092172 -0.342036903 0.0950463265
v -0.0895220041 -0.220864594 0.17352207
v -0.06054122 -0.192086235 0.0950464234
v -0.060618151 -0.191960707 0.17352207
v 0.0605415031 -0.19208625 0.095046334
v 0.0606145673 -0.191960707 0.17352207
v 0.0895184204 -0.220864594 0.17352207
v 0.0894095078 -0.220954388 0.0950463265
v 0.0894095078 -0.342036903 0.0950463265
v 0.0895184204 -0.342097282 0.17352207
v 0.0605415031 -0.370904952 0.0950463265
v 0.0606145673 -0.371001124 0.17352207
v -0.06054122 -0.370904952 0.0950463265
v -0.060618151 -0.371001124 0.17352207
v -0.0894092172 -0.342036903 0.0950463265
v -0.0895220041 -0.342097282 0.17352207
v -0.101755939 -0.230901375 0.184710041
v -0.100903481 -0.331636369 0.215294197
v -0.101755939 -0.332060575 0.184710041
v -0.100903481 -0.231324643 0.215294227
v -0.0505811684 -0.179726571 0.184710041
v -0.0501573533 -0.180578634 0.215294227
v 0.0505779684 -0.179726571 0.184710041
v 0.0501545407 -0.180578634 0.215294227
v 0.101752557 -0.230901375 0.184710041
v 0.100900479 -0.231324643 0.215294227
v 0.101752557 -0.332060575 0.184710041
v 0.100900479 -0.331636369 0.215294197
v 0.0505779684 -0.383235395 0.184710026
v 0.0501545407 -0.382382423 0.215294197
v -0.0505811684 -0.383235395 0.184710026
v -0.0501573533 -0.382382423 0.215294197
v -0.101755939 -0.332060575 0.184710041
v -0.100903481 -0.331636369 0.215294197
v 0.0293496307 -0.217164338 0.499998629
v 0.06408602 -0.251900107 0.499998033
v 0.06408602 -0.310599625 0.499998659
v 0.0293500274 -0.345335424 0.499998659
v -0.0293500125 -0.345335603 0.499998659
v -0.0293497574 -0.217164189 0.499999106
v -0.0640853569 -0.251900047 0.499999106
v -0.0640856028 -0.310599536 0.499998659
v -0.499999315 -0.311007023 0.0642541125
v -0.499999315 -0.345834672 0.0294264015
v -0.499999315 -0.345834672 -0.0294282436
v -0.499999315 -0.309139729 -0.0642560571
v -0.499999315 -0.252152145 0.0642539188
v -0.499999315 -0.254020125 -0.0642560571
v -0.499999315 -0.221402645 -0.0294283386
v -0.499999315 -0.221402645 0.0294263065
v 0.0788919404 -0.510012209 -0.0431295373
v 0.0431305543 -0.510012209 -0.0788910165
v -0.0431304537 -0.510012209 -0.0788910165
v -0.0788918361 -0.510012209 -0.0431294441
v 0.0788919404 -0.510012209 0.0431313701
v -0.0788918361 -0.510012209 0.0431313701
v 0.0431305543 -0.510012209 0.0788930506
v -0.0431304537 -0.510012209 0.0788930506
v 0.500000119 -0.345335424 -0.0293506328
v 0.500000119 -0.345335603 0.0293493643
v 0.500000119 -0.310599536 0.0640849471
v 0.500000119 -0.310599625 -0.0640866905
v 0.499999613 -0.251900107 -0.0640866905
v 0.500000715 -0.251900047 0.0640847459
v 0.500000119 -0.217164338 -0.0293502416
v 0.500000715 -0.217164189 0.0293490794
v 0.0894095078 -0.187088624 0.06055687
v 0.0433179475 -0.164371505 -0.0433226489
v 0.0894095078 -0.187088624 -0.0605257601
v 0.0605415031 -0.187088624 -0.0893939063
v 0.0433179475 -0.16437152 0.0433123782
v 0.0605415031 -0.187088579 0.0894248784
v -0.0605410226 -0.187088579 0.0894248784
v -0.0433172695 -0.164371505 -0.0433226489
v -0.0605410226 -0.187088624 -0.0893939063
v -0.0894092172 -0.187088624 -0.0605257601
v -0.0433172695 -0.16437152 0.0433123782
v -0.0894092172 -0.187088624 0.06055687
v 0.0894089267 -0.220954418 -0.0942663327
v 0.0433179475 -0.324792624 -0.116953902
v 0.0894089267 -0.342036933 -0.0942664295
v 0.060540922 -0.370905042 -0.0942664295
v 0.0433179475 -0.238157749 -0.116953813
v 0.060540922 -0.19208625 -0.0942664295
v -0.0605416037 -0.19208625 -0.0942664295
v -0.0433172695 -0.324792624 -0.116953902
v -0.0605416037 -0.370905042 -0.0942664295
v -0.0894098058 -0.342036933 -0.0942664295
v -0.0433172695 -0.238157749 -0.116953813
v -0.0894098058 -0.220954388 -0.0942664295
v -0.0819166526 -0.199578583 0.0819324926
v -0.0946478546 -0.19208625 0.06055687
v -0.0894092172 -0.187088624 0.06055687
v -0.0946478546 -0.220954388 0.0894248784
v -0.0605410226 -0.187088579 0.0894248784
v -0.0894092172 -0.220954388 0.0950463265
v -0.06054122 -0.192086235 0.0950464234
v -0.0946478546 -0.19208625 -0.0605258606
v -0.0946478546 -0.220954388 -0.0893938169
v -0.0819166526 -0.199578583 -0.0819015354
v -0.0894092172 -0.187088624 -0.0605257601
v -0.0894098058 -0.220954388 -0.0942664295
v -0.0605410226 -0.187088624 -0.0893939063
v -0.0605416037 -0.19208625 -0.0942664295
v -0.0946478546 -0.370904952 0.06055687
v -0.0946478546 -0.342036903 0.0894248784
v -0.0819166526 -0.363412648 0.0819325075
v -0.0894092172 -0.376645774 0.0605571531
v -0.0894092172 -0.342036903 0.0950463265
v -0.0605410226 -0.376645774 0.0894250646
v -0.06054122 -0.370904952 0.0950463265
v -0.0946478546 -0.342036903 -0.0893938169
v -0.0946478546 -0.370904952 -0.0605258532
v -0.0819166526 -0.363412619 -0.0819015354
v -0.0894098058 -0.342036933 -0.0942664295
v -0.0894092172 -0.376645774 -0.0605256632
v -0.0605416037 -0.370905042 -0.0942664295
v -0.0605410226 -0.376645774 -0.0893936679
v 0.0819173306 -0.199578583 -0.0819015354
v 0.0946471766 -0.192086354 -0.0605258606
v 0.0894095078 -0.187088624 -0.0605257601
v 0.0946477577 -0.220954433 -0.0893938616
v 0.0605415031 -0.187088624 -0.0893939063
v 0.0894089267 -0.220954418 -0.0942663327
v 0.060540922 -0.19208625 -0.0942664295
v 0.0894095078 -0.220954388 0.0950463265
v 0.0819173306 -0.199578583 0.0819324926
v 0.0946477577 -0.220954433 0.0894249678
v 0.0605415031 -0.19208625 0.095046334
v 0.0946471766 -0.192086354 0.06055687
v 0.0605415031 -0.187088579 0.0894248784
v 0.0894095078 -0.187088624 0.06055687
v 0.0819173306 -0.363412619 -0.0819015354
v 0.0605413131 -0.376645774 -0.0893937647
v 0.0894095078 -0.376645774 -0.0605256632
v 0.0946477577 -0.370905071 -0.0605258532
v 0.060540922 -0.370905042 -0.0942664295
v 0.0946477577 -0.342036933 -0.0893938616
v 0.0894089267 -0.342036933 -0.0942664295
v 0.0894095078 -0.376645774 0.0605571531
v 0.0605413131 -0.376645774 0.0894250646
v 0.0819173306 -0.363412648 0.0819325075
v 0.0946477577 -0.370905071 0.06055687
v 0.0605415031 -0.370904952 0.0950463265
v 0.0946477577 -0.342036903 0.0894249678
v 0.0894095078 -0.342036903 0.0950463265
v -0.100903481 -0.231324643 0.215294227
v -0.0788933858 -0.324610978 0.228531107
v -0.100903481 -0.331636369 0.215294197
v -0.0788933858 -0.238350078 0.228531107
v -0.0431320071 -0.360372543 0.228531092
v -0.0501573533 -0.180578634 0.215294227
v -0.0501573533 -0.382382423 0.215294197
v -0.0431318134 -0.202588558 0.228531107
v 0.0431290045 -0.360372543 0.228531092
v 0.0501545407 -0.180578634 0.215294227
v 0.0501545407 -0.382382423 0.215294197
v 0.0431290045 -0.202588558 0.228531107
v 0.078890577 -0.324610978 0.228531107
v 0.100900479 -0.231324643 0.215294227
v 0.100900479 -0.331636369 0.215294197
v 0.078890577 -0.238350078 0.228531107
v -0.0895220041 -0.220864594 0.17352207
v -0.101755939 -0.332060575 0.184710041
v -0.0895220041 -0.342097282 0.17352207
v -0.101755939 -0.230901375 0.184710041
v -0.0505811684 -0.383235395 0.184710026
v -0.060618151 -0.191960707 0.17352207
v -0.060618151 -0.371001124 0.17352207
v -0.0505811684 -0.179726571 0.184710041
v 0.0505779684 -0.383235395 0.184710026
v 0.0606145673 -0.191960707 0.17352207
v 0.0606145673 -0.371001124 0.17352207
v 0.0505779684 -0.179726571 0.184710041
v 0.101752557 -0.332060575 0.184710041
v 0.0895184204 -0.220864594 0.17352207
v 0.0895184204 -0.342097282 0.17352207
v 0.101752557 -0.230901375 0.184710041
v -0.0501557998 -0.498574704 -0.100900918
v 0.0431305543 -0.510012209 -0.0788910165
v 0.0501559004 -0.498574704 -0.100900918
v -0.0431304537 -0.510012209 -0.0788910165
v 0.0788919404 -0.510012209 -0.0431295373
v -0.100901924 -0.498574704 -0.0501548834
v 0.100901641 -0.498574704 -0.0501548834
v -0.0788918361 -0.510012209 -0.0431294441
v 0.0788919404 -0.510012209 0.0431313701
v -0.100901924 -0.498574704 0.0501567274
v 0.100901641 -0.498574704 0.0501567274
v -0.0788918361 -0.510012209 0.0431313701
v 0.0431305543 -0.510012209 0.0788930506
v -0.0501557998 -0.498574704 0.10090284
v 0.0501559004 -0.498574704 0.10090284
v -0.0431304537 -0.510012209 0.0788930506
v -0.0606158227 -0.454204857 -0.0895193815
v 0.0505799092 -0.467248917 -0.101753525
v 0.0606166981 -0.454204857 -0.0895193815
v -0.0505792275 -0.467248917 -0.101753525
v 0.101754881 -0.467248917 -0.0505789854
v -0.0895198733 -0.454204857 -0.060615778
v 0.0895205513 -0.454204857 -0.060615778
v -0.101753816 -0.467248917 -0.0505789854
v 0.101754881 -0.467248917 0.0505805388
v -0.0895198733 -0.454204857 0.0606172346
v 0.0895205513 -0.454204857 0.0606172346
v -0.101753816 -0.467248917 0.0505805388
v 0.0505799092 -0.467248917 0.101755217
v -0.0606158227 -0.454204857 0.0895209834
v 0.0606166981 -0.454204857 0.0895209834
v -0.0505792275 -0.467248917 0.101755217
v 0.216764525 -0.331636965 -0.100900523
v 0.228531644 -0.238350704 -0.0788906291
v 0.216764525 -0.231325179 -0.100900523
v 0.228531644 -0.324611604 -0.0788906291
v 0.228531644 -0.202589214 -0.0431291461
v 0.216764525 -0.382382989 -0.0501544923
v 0.216764525 -0.18057926 -0.0501544923
v 0.228531644 -0.36037299 -0.043129053
v 0.228531644 -0.202589214 0.0431318656
v 0.216764525 -0.382382989 0.0501572974
v 0.216764525 -0.18057926 0.0501573086
v 0.228531644 -0.36037299 0.0431318656
v 0.228531644 -0.238350704 0.0788933337
v 0.216764525 -0.331636965 0.100903243
v 0.216764525 -0.231325179 0.100903235
v 0.228531644 -0.324611604 0.0788933337
v 0.172984257 -0.342097014 -0.0895190537
v 0.185942188 -0.230901167 -0.101753183
v 0.172984257 -0.220864505 -0.0895190537
v 0.185942188 -0.332060337 -0.101753183
v 0.185942188 -0.179726318 -0.0505784005
v 0.172984257 -0.371001005 -0.0606151
v 0.172984257 -0.191960543 -0.0606151
v 0.185942188 -0.383235127 -0.0505784005
v 0.185942188 -0.179726318 0.0505809188
v 0.172984257 -0.371001005 0.0606177114
v 0.172984257 -0.191960543 0.0606177114
v 0.185942188 -0.383235127 0.0505809188
v 0.185942188 -0.230901167 0.1017555
v 0.172984257 -0.342097014 0.0895215794
v 0.172984257 -0.220864505 0.0895215645
v 0.185942188 -0.332060337 0.1017555
v -0.216765016 -0.231324673 -0.100900963
v -0.228530377 -0.324611008 -0.0788910165
v -0.216765016 -0.331636429 -0.100900963
v -0.228530377 -0.238350078 -0.0788910165
v -0.228530377 -0.360372543 -0.0431295373
v -0.216765016 -0.180578634 -0.0501548834
v -0.216765016 -0.382382423 -0.0501548834
v -0.228530377 -0.202588558 -0.0431294441
v -0.228530377 -0.360372543 0.0431313701
v -0.216765016 -0.180578634 0.0501567274
v -0.216765016 -0.382382423 0.0501567274
v -0.228530377 -0.202588558 0.0431313775
v -0.228530377 -0.324610978 0.0788930506
v -0.216765016 -0.231324673 0.100902848
v -0.216765016 -0.331636369 0.10090284
v -0.228530377 -0.238350078 0.0788930506
v -0.172983393 -0.220864594 -0.0895193815
v -0.18594189 -0.332060575 -0.101753578
v -0.172983393 -0.342097312 -0.0895193815
v -0.18594189 -0.230901346 -0.101753578
v -0.18594189 -0.383235365 -0.0505789854
v -0.172983393 -0.191960707 -0.060615778
v -0.172983393 -0.371001124 -0.060615778
v -0.18594189 -0.179726571 -0.0505789854
v -0.18594189 -0.383235365 0.0505805388
v -0.172983393 -0.191960707 0.0606172271
v -0.172983393 -0.371001124 0.0606172346
v -0.18594189 -0.179726571 0.0505805388
v -0.18594189 -0.332060575 0.101755217
v -0.172983393 -0.220864594 0.0895209983
v -0.172983393 -0.342097282 0.0895209834
v -0.18594189 -0.230901346 0.101755217
v -0.499999762 -0.320609957 0.0856156126
v -0.499999315 -0.252152145 0.0642539188
v -0.499999255 -0.242189348 0.0856158882
v -0.499999315 -0.311007023 0.0642541125
v -0.499999315 -0.221402645 0.0294263065
v -0.499999255 -0.367016464 0.0392094217
v -0.499998719 -0.195783034 0.039209526
v -0.499999315 -0.345834672 0.0294264015
v -0.499999315 -0.221402645 -0.0294283386
v -0.499999762 -0.367016464 -0.039210692
v -0.499998719 -0.195783034 -0.0392114632
v -0.499999315 -0.345834672 -0.0294282436
v -0.499999315 -0.254020125 -0.0642560571
v -0.499999255 -0.320610344 -0.0856177881
v -0.499998719 -0.242189214 -0.0856176913
v -0.499999315 -0.309139729 -0.0642560571
v 0.500000119 -0.242039561 0.0856157988
v 0.500000715 -0.251900047 0.0640847459
v 0.500000119 -0.310599536 0.0640849471
v 0.500000119 -0.32046026 0.0856158063
v 0.500000119 -0.195632994 0.039209716
v 0.500000119 -0.345335603 0.0293493643
v 0.500000715 -0.217164189 0.0293490794
v 0.500000119 -0.366866648 0.0392097272
v 0.499999613 -0.195632994 -0.0392114632
v 0.500000119 -0.345335424 -0.0293506328
v 0.500000119 -0.217164338 -0.0293502416
v 0.500000715 -0.366866499 -0.0392111689
v 0.500000119 -0.242039219 -0.0856173486
v 0.500000119 -0.310599625 -0.0640866905
v 0.499999613 -0.251900107 -0.0640866905
v 0.500000715 -0.32046032 -0.0856172517
v -0.0856164545 -0.242039561 0.499998629
v -0.0640853569 -0.251900047 0.499999106
v -0.0640856028 -0.310599536 0.499998659
v -0.0856164545 -0.32046026 0.499998659
v -0.0392104685 -0.195632994 0.499998629
v -0.0293500125 -0.345335603 0.499998659
v -0.0293497574 -0.217164189 0.499999106
v -0.0392103456 -0.366866678 0.499998659
v 0.0392107405 -0.195632994 0.499998033
v 0.0293500274 -0.345335424 0.499998659
v 0.0293496307 -0.217164338 0.499998629
v 0.039210476 -0.366866529 0.499999076
v 0.0856167227 -0.242039219 0.499998659
v 0.06408602 -0.310599625 0.499998659
v 0.06408602 -0.251900107 0.499998033
v 0.0856165737 -0.32046032 0.499999136
vt 0.628699541 0.764062047
vt 0.628699541 0.809399128
vt 0.646167994 0.809399128
vt 0.646167994 0.764061928
vt 0.661713779 0.809399128
vt 0.661713779 0.764061928
vt 0.745886803 0.764062345
vt 0.745886803 0.809399128
vt 0.761307597 0.809399128
vt 0.761307597 0.764062047
vt 0.728265285 0.764063001
vt 0.728265285 0.809399128
vt 0.745886803 0.809399128
vt 0.745886803 0.764062345
vt 0.712555885 0.76406312
vt 0.728265285 0.809399128
vt 0.728265285 0.764063001
vt 0.712555885 0.809399128
vt 0.694801271 0.764063597
vt 0.694801271 0.809399128
vt 0.679043651 0.764063776
vt 0.679043651 0.809399128
vt 0.661713779 0.764064014
vt 0.661713779 0.809399128
vt 0.679043651 0.809399128
vt 0.679043651 0.764063776
vt 0.628699541 0.764061928
vt 0.646167994 0.809399128
vt 0.628699541 0.809399009
vt 0.646167994 0.764061928
vt 0.661713779 0.809399128
vt 0.661713779 0.764061928
vt 0.745886803 0.764061928
vt 0.761307597 0.764061928
vt 0.761307597 0.809399009
vt 0.745886803 0.809398711
vt 0.728265285 0.764061928
vt 0.745886803 0.764061928
vt 0.745886803 0.809398711
vt 0.728265285 0.809398055
vt 0.712555885 0.764061928
vt 0.728265285 0.764061928
vt 0.728265285 0.809398055
vt 0.712555885 0.809397936
vt 0.694801271 0.764061928
vt 0.694801271 0.809397459
vt 0.679043651 0.764061928
vt 0.679043651 0.80939728
vt 0.661713779 0.764061928
vt 0.679043651 0.764061928
vt 0.679043651 0.80939728
vt 0.661713779 0.809397042
vt 0.628699541 0.764062047
vt 0.628699541 0.809399128
vt 0.646167994 0.809399128
vt 0.646167994 0.764061928
vt 0.661713779 0.809399128
vt 0.661713779 0.764061928
vt 0.745886803 0.764062345
vt 0.745886803 0.809399128
vt 0.761307597 0.809399128
vt 0.761307597 0.764062047
vt 0.728265285 0.764063001
vt 0.728265285 0.809399128
vt 0.745886803 0.809399128
vt 0.745886803 0.764062345
vt 0.712555885 0.76406312
vt 0.728265285 0.809399128
vt 0.728265285 0.764063001
vt 0.712555885 0.809399128
vt 0.694801271 0.764063597
vt 0.694801271 0.809399128
vt 0.679043651 0.764063776
vt 0.679043651 0.809399128
vt 0.661713779 0.764064014
vt 0.661713779 0.809399128
vt 0.679043651 0.809399128
vt 0.679043651 0.764063776
vt 0.957827508 0.513191104
vt 0.994250894 0.488644063
vt 0.994250894 0.513191104
vt 0.957827508 0.488644063
vt 0.946188986 0.513191104
vt 0.946188986 0.488644063
vt 0.909765601 0.513191104
vt 0.909765601 0.488644063
vt 0.89812696 0.488644063
vt 0.89812696 0.513191104
vt 0.861703634 0.513191104
vt 0.861703634 0.488644063
vt 0.850065172 0.513191104
vt 0.850065172 0.488644063
vt 0.813641727 0.513191104
vt 0.813641727 0.488644063
vt 0.802003145 0.513191104
vt 0.802003145 0.488644063
vt 0.943912506 0.578163147
vt 0.943911135 0.525642037
vt 0.93497622 0.525646925
vt 0.93497622 0.578163147
vt 0.943912506 0.578163147
vt 0.943911135 0.525642037
vt 0.93497622 0.525646925
vt 0.93497622 0.578163147
vt 0.943912506 0.578163147
vt 0.943911135 0.525642037
vt 0.93497622 0.525646925
vt 0.93497622 0.578163147
vt 0.943912506 0.578163147
vt 0.943911135 0.525642037
vt 0.93497622 0.525646925
vt 0.93497622 0.578163147
vt 0.93497622 0.525646925
vt 0.93497622 0.578163147
vt 0.943912506 0.578163147
vt 0.943911135 0.525642037
vt 0.93497622 0.525647461
vt 0.93497622 0.578163147
vt 0.943912506 0.578163147
vt 0.94391036 0.525650144
vt 0.934976339 0.525647461
vt 0.93497622 0.578163147
vt 0.943912506 0.578163147
vt 0.943914354 0.525652587
vt 0.934976339 0.525647223
vt 0.93497622 0.578163147
vt 0.943912506 0.578163147
vt 0.943914592 0.525645137
vt 0.943912506 0.578163147
vt 0.94391036 0.525650144
vt 0.93497622 0.525647461
vt 0.93497622 0.578163147
vt 0.93497622 0.525647461
vt 0.93497622 0.578163147
vt 0.943912506 0.578163147
vt 0.94391036 0.525650144
vt 0.943912506 0.578163147
vt 0.943914592 0.525645137
vt 0.934976339 0.525647223
vt 0.93497622 0.578163147
vt 0.943912506 0.578163147
vt 0.94391036 0.525650144
vt 0.93497622 0.525647461
vt 0.93497622 0.578163147
vt 0.962158561 0.516360402
vt 0.990387857 0.523758531
vt 0.990387857 0.516360402
vt 0.962158442 0.523758531
vt 0.94232595 0.516360402
vt 0.94232583 0.523758531
vt 0.914096653 0.516360402
vt 0.914096653 0.523758531
vt 0.894263983 0.516360402
vt 0.894263983 0.523758531
vt 0.866034687 0.516360402
vt 0.866034806 0.523758531
vt 0.846202075 0.516360402
vt 0.846202195 0.523758531
vt 0.817972779 0.516360402
vt 0.817972779 0.523758531
vt 0.798140109 0.516360402
vt 0.798140109 0.523758531
vt 0.957827508 0.513191104
vt 0.994250894 0.488644063
vt 0.994250894 0.513191104
vt 0.957827508 0.488644063
vt 0.946188986 0.513191104
vt 0.946188986 0.488644063
vt 0.909765601 0.513191104
vt 0.909765601 0.488644063
vt 0.89812696 0.488644063
vt 0.89812696 0.513191104
vt 0.861703634 0.513191104
vt 0.861703634 0.488644063
vt 0.850065172 0.513191104
vt 0.850065172 0.488644063
vt 0.813641727 0.513191104
vt 0.813641727 0.488644063
vt 0.802003145 0.513191104
vt 0.802003145 0.488644063
vt 0.962158561 0.516360402
vt 0.990387857 0.523758531
vt 0.990387857 0.516360402
vt 0.962158442 0.523758531
vt 0.94232595 0.516360402
vt 0.94232583 0.523758531
vt 0.914096653 0.516360402
vt 0.914096653 0.523758531
vt 0.894263983 0.516360402
vt 0.894263983 0.523758531
vt 0.866034687 0.516360402
vt 0.866034806 0.523758531
vt 0.846202075 0.516360402
vt 0.846202195 0.523758531
vt 0.817972779 0.516360402
vt 0.817972779 0.523758531
vt 0.798140109 0.516360402
vt 0.798140109 0.523758531
vt 0.957827508 0.513191104
vt 0.994250894 0.488644063
vt 0.994250894 0.513191104
vt 0.957827508 0.488644063
vt 0.946188986 0.513191104
vt 0.946188986 0.488644063
vt 0.909765601 0.513191104
vt 0.909765601 0.488644063
vt 0.89812696 0.488644063
vt 0.89812696 0.513191104
vt 0.861703634 0.513191104
vt 0.861703634 0.488644063
vt 0.850065172 0.513191104
vt 0.850065172 0.488644063
vt 0.813641727 0.513191104
vt 0.813641727 0.488644063
vt 0.802003145 0.513191104
vt 0.802003145 0.488644063
vt 0.962158561 0.516360402
vt 0.990387857 0.523758531
vt 0.990387857 0.516360402
vt 0.962158442 0.523758531
vt 0.94232595 0.516360402
vt 0.94232583 0.523758531
vt 0.914096653 0.516360402
vt 0.914096653 0.523758531
vt 0.894263983 0.516360402
vt 0.894263983 0.523758531
vt 0.866034687 0.516360402
vt 0.866034806 0.523758531
vt 0.846202075 0.516360402
vt 0.846202195 0.523758531
vt 0.817972779 0.516360402
vt 0.817972779 0.523758531
vt 0.798140109 0.516360402
vt 0.798140109 0.523758531
vt 0.957827508 0.513191104
vt 0.994250894 0.488644063
vt 0.994250894 0.513191104
vt 0.957827508 0.488644063
vt 0.946188986 0.513191104
vt 0.946188986 0.488644063
vt 0.909765601 0.513191104
vt 0.909765601 0.488644063
vt 0.89812696 0.488644063
vt 0.89812696 0.513191104
vt 0.861703634 0.513191104
vt 0.861703634 0.488644063
vt 0.850065172 0.513191104
vt 0.850065172 0.488644063
vt 0.813641727 0.513191104
vt 0.813641727 0.488644063
vt 0.802003145 0.513191104
vt 0.802003145 0.488644063
vt 0.962158561 0.516360402
vt 0.990387857 0.523758531
vt 0.990387857 0.516360402
vt 0.962158442 0.523758531
vt 0.94232595 0.516360402
vt 0.94232583 0.523758531
vt 0.914096653 0.516360402
vt 0.914096653 0.523758531
vt 0.894263983 0.516360402
vt 0.894263983 0.523758531
vt 0.866034687 0.516360402
vt 0.866034806 0.523758531
vt 0.846202075 0.516360402
vt 0.846202195 0.523758531
vt 0.817972779 0.516360402
vt 0.817972779 0.523758531
vt 0.798140109 0.516360402
vt 0.798140109 0.523758531
vt 0.782360792 0.0548084676
vt 0.782233119 0.0546808243
vt 0.78201741 0.0546808243
vt 0.781889796 0.0548084676
vt 0.781889796 0.0550242066
vt 0.782360792 0.0550242066
vt 0.782233119 0.0551518202
vt 0.78201741 0.0551518202
vt 0.781934023 0.0542039871
vt 0.781805992 0.0543319881
vt 0.781805992 0.0545482635
vt 0.781940818 0.0546762347
vt 0.782150269 0.0542039871
vt 0.782143354 0.0546762347
vt 0.782263279 0.0545482635
vt 0.782263279 0.0543319881
vt 0.781797171 0.0543354154
vt 0.781665683 0.0542039871
vt 0.781348705 0.0542039871
vt 0.781217277 0.0543354452
vt 0.781797171 0.0546523929
vt 0.781217277 0.0546523929
vt 0.781665683 0.0547838211
vt 0.781348705 0.0547838211
vt 0.781411767 0.0549160242
vt 0.781411767 0.0551317334
vt 0.781539321 0.0552594066
vt 0.781539321 0.0547883809
vt 0.78175509 0.0547883809
vt 0.78175509 0.0552594066
vt 0.781882644 0.0549160838
vt 0.781882644 0.055131793
vt 0.852595985 0.575076818
vt 0.839953601 0.546085119
vt 0.852595985 0.541497648
vt 0.844590127 0.533491671
vt 0.840002358 0.570440412
vt 0.844590127 0.583082795
vt 0.811010838 0.583082795
vt 0.815597951 0.546134412
vt 0.811010838 0.533491671
vt 0.803004861 0.541497648
vt 0.815647483 0.570489407
vt 0.803004861 0.575076818
vt 0.852595985 0.575076818
vt 0.839952946 0.546085119
vt 0.852595985 0.541497648
vt 0.844590127 0.533491671
vt 0.840002239 0.570439517
vt 0.844590127 0.583082795
vt 0.811010838 0.583082795
vt 0.815598726 0.546134412
vt 0.811010838 0.533491671
vt 0.803004861 0.541497648
vt 0.815647602 0.570488751
vt 0.803004861 0.575076818
vt 0.939443827 0.586763442
vt 0.950194955 0.587294877
vt 0.945717394 0.594816923
vt 0.943921387 0.578166962
vt 0.933170438 0.594816923
vt 0.934966326 0.578166962
vt 0.928692877 0.587294877
vt 0.950199783 0.587299585
vt 0.943926394 0.578171849
vt 0.939448595 0.586768448
vt 0.945722222 0.594821692
vt 0.934971213 0.578171849
vt 0.933175325 0.594821692
vt 0.928697586 0.587299585
vt 0.950194955 0.587294877
vt 0.943921387 0.578166962
vt 0.939443827 0.586763442
vt 0.945717394 0.594816923
vt 0.934966326 0.578166962
vt 0.933170438 0.594816923
vt 0.928692877 0.587294877
vt 0.943926394 0.578171849
vt 0.950199783 0.587299585
vt 0.939448595 0.586768448
vt 0.934971213 0.578171849
vt 0.945722222 0.594821692
vt 0.928697586 0.587299585
vt 0.933175325 0.594821692
vt 0.939440668 0.586776257
vt 0.950191677 0.587307751
vt 0.945714116 0.594829857
vt 0.943918288 0.578179896
vt 0.93316704 0.594829857
vt 0.934963167 0.578180075
vt 0.928689599 0.587307751
vt 0.934958279 0.578175068
vt 0.939435899 0.586771607
vt 0.94391346 0.578175068
vt 0.928684771 0.587302744
vt 0.950186968 0.587302744
vt 0.933162332 0.594825149
vt 0.945709169 0.594825149
vt 0.939440668 0.586776257
vt 0.93316704 0.594829857
vt 0.945714116 0.594829857
vt 0.950191677 0.587307751
vt 0.928689599 0.587307751
vt 0.943918288 0.578179896
vt 0.934963167 0.578180075
vt 0.945709169 0.594825149
vt 0.933162332 0.594825149
vt 0.939435899 0.586771607
vt 0.950186968 0.587302744
vt 0.928684771 0.587302744
vt 0.94391346 0.578175068
vt 0.934958279 0.578175068
vt 0.863500953 0.576442778
vt 0.871729791 0.544753969
vt 0.863498151 0.542043209
vt 0.87172842 0.573625863
vt 0.883023143 0.534130514
vt 0.880637527 0.591980636
vt 0.880455256 0.526143134
vt 0.883103907 0.58394134
vt 0.912024915 0.533686697
vt 0.915000618 0.591181159
vt 0.914463699 0.526071608
vt 0.912341595 0.583941102
vt 0.924078286 0.544708669
vt 0.931822419 0.575492918
vt 0.9317981 0.541983068
vt 0.92407912 0.5727337
vt 0.846397221 0.585678875
vt 0.811323225 0.59243983
vt 0.80982095 0.585678875
vt 0.844895065 0.59243983
vt 0.794339657 0.575456321
vt 0.85511744 0.576958537
vt 0.801100671 0.576958537
vt 0.861878514 0.575456321
vt 0.794339657 0.541884542
vt 0.85511744 0.540382206
vt 0.801100671 0.540382206
vt 0.861878514 0.541884542
vt 0.811323225 0.524900913
vt 0.846397221 0.531661987
vt 0.80982095 0.531661987
vt 0.844895065 0.524900913
vt 0.863500953 0.576442778
vt 0.871729791 0.544753969
vt 0.863498151 0.542043209
vt 0.87172842 0.573625863
vt 0.883023143 0.534130514
vt 0.880637527 0.591980636
vt 0.880455256 0.526143134
vt 0.883103907 0.58394134
vt 0.912024915 0.533686697
vt 0.915000618 0.591181159
vt 0.914463699 0.526071608
vt 0.912341595 0.583941102
vt 0.924078286 0.544708669
vt 0.931822419 0.575492918
vt 0.9317981 0.541983068
vt 0.92407912 0.5727337
vt 0.846397221 0.585678875
vt 0.811323225 0.59243983
vt 0.80982095 0.585678875
vt 0.844895065 0.59243983
vt 0.794339657 0.575456321
vt 0.85511744 0.576958537
vt 0.801100671 0.576958537
vt 0.861878514 0.575456321
vt 0.794339657 0.541884542
vt 0.85511744 0.540382206
vt 0.801100671 0.540382206
vt 0.861878514 0.541884542
vt 0.811323225 0.524900913
vt 0.846397221 0.531661987
vt 0.80982095 0.531661987
vt 0.844895065 0.524900913
vt 0.863500953 0.576442778
vt 0.871729791 0.544753969
vt 0.863498151 0.542043209
vt 0.87172842 0.573625863
vt 0.883023143 0.534130514
vt 0.880637527 0.591980636
vt 0.880455256 0.526143134
vt 0.883103907 0.58394134
vt 0.912024915 0.533686697
vt 0.915000618 0.591181159
vt 0.914463699 0.526071608
vt 0.912341595 0.583941102
vt 0.924078286 0.544708669
vt 0.931822419 0.575492918
vt 0.9317981 0.541983068
vt 0.92407912 0.5727337
vt 0.846397221 0.585678875
vt 0.811323225 0.59243983
vt 0.80982095 0.585678875
vt 0.844895065 0.59243983
vt 0.794339657 0.575456321
vt 0.85511744 0.576958537
vt 0.801100671 0.576958537
vt 0.861878514 0.575456321
vt 0.794339657 0.541884542
vt 0.85511744 0.540382206
vt 0.801100671 0.540382206
vt 0.861878514 0.541884542
vt 0.811323225 0.524900913
vt 0.846397221 0.531661987
vt 0.80982095 0.531661987
vt 0.844895065 0.524900913
vt 0.863500953 0.576442778
vt 0.871729791 0.544753969
vt 0.863498151 0.542043209
vt 0.87172842 0.573625863
vt 0.883023143 0.534130514
vt 0.880637527 0.591980636
vt 0.880455256 0.526143134
vt 0.883103907 0.58394134
vt 0.912024915 0.533686697
vt 0.915000618 0.591181159
vt 0.914463699 0.526071608
vt 0.912341595 0.583941102
vt 0.924078286 0.544708669
vt 0.931822419 0.575492918
vt 0.9317981 0.541983068
vt 0.92407912 0.5727337
vt 0.846397221 0.585678875
vt 0.811323225 0.59243983
vt 0.80982095 0.585678875
vt 0.844895065 0.59243983
vt 0.794339657 0.575456321
vt 0.85511744 0.576958537
vt 0.801100671 0.576958537
vt 0.861878514 0.575456321
vt 0.794339657 0.541884542
vt 0.85511744 0.540382206
vt 0.801100671 0.540382206
vt 0.861878514 0.541884542
vt 0.811323225 0.524900913
vt 0.846397221 0.531661987
vt 0.80982095 0.531661987
vt 0.844895065 0.524900913
vt 0.859570205 0.900560141
vt 0.853561461 0.919794679
vt 0.859563768 0.922462285
vt 0.853507638 0.903330207
vt 0.843739629 0.929398358
vt 0.846528053 0.887539923
vt 0.846483886 0.935384214
vt 0.843766689 0.893562496
vt 0.827275038 0.929398358
vt 0.824529409 0.887520969
vt 0.824485123 0.935384214
vt 0.827288508 0.893567264
vt 0.81744945 0.919713497
vt 0.811430693 0.900571227
vt 0.811390936 0.922434986
vt 0.817505658 0.903369725
vt 0.811390936 0.922434986
vt 0.81744945 0.919713497
vt 0.817506194 0.903370261
vt 0.811430693 0.900571227
vt 0.824485123 0.935384214
vt 0.827288508 0.893567264
vt 0.827275038 0.929398358
vt 0.824529409 0.887520969
vt 0.846483886 0.935384214
vt 0.843766689 0.893562496
vt 0.843739629 0.929398358
vt 0.846528053 0.887539923
vt 0.859563768 0.922462285
vt 0.853507638 0.903330207
vt 0.853561461 0.919794679
vt 0.859570205 0.900560141
vt 0.811390936 0.922434986
vt 0.81744945 0.919713497
vt 0.817506194 0.903370261
vt 0.811430693 0.900571227
vt 0.824485123 0.935384214
vt 0.827288508 0.893567264
vt 0.827275038 0.929398358
vt 0.824529409 0.887520969
vt 0.846483886 0.935384214
vt 0.843766689 0.893562496
vt 0.843739629 0.929398358
vt 0.846528053 0.887539923
vt 0.859563768 0.922462285
vt 0.853507638 0.903330207
vt 0.853561461 0.919794679
vt 0.859570205 0.900560141
vn 0.382692456 -0.923875749 8.09490448E-05
vn 0.382676303 -0.923882484 8.0949605E-05
vn -0.382677555 -0.923881948 8.01773494E-05
vn -0.382691354 -0.923876286 8.01768183E-05
vn -0.707109392 -0.707104146 6.09007693E-05
vn -0.707109392 -0.707104146 6.09007657E-05
vn 0.707107186 -0.707106352 6.23278975E-05
vn 0.707107186 -0.707106352 6.23278756E-05
vn 0.382676303 -0.923882484 8.0949605E-05
vn 0.382692456 -0.923875749 8.09490448E-05
vn 1 -1.7374897E-06 7.21468609E-07
vn 1 -1.7374897E-06 7.21468609E-07
vn 1 -1.73748981E-06 7.21468609E-07
vn 1 -1.7374897E-06 7.21468609E-07
vn 0.382677019 0.923882186 -8.05573291E-05
vn 0.707108498 0.707104981 -6.13445955E-05
vn 0.707108498 0.707104981 -6.13445955E-05
vn 0.382692128 0.923875868 -8.05567906E-05
vn -0.382680386 0.923880756 -8.12805811E-05
vn -0.38269344 0.923875332 -8.12801227E-05
vn -0.707112074 0.707101405 -6.26809124E-05
vn -0.707112074 0.707101405 -6.26809124E-05
vn -1 0 -1.67948315E-06
vn -1 0 -1.67948315E-06
vn -1 0 -1.67948315E-06
vn -1 0 -1.67948315E-06
vn -8.09376579E-05 -0.923878312 -0.382686257
vn -8.11022473E-05 -0.923882246 0.382676899
vn -8.09381745E-05 -0.923884213 -0.38267228
vn -8.11016653E-05 -0.92387563 0.382692903
vn -6.21788931E-05 -0.707103908 0.707109571
vn -6.21788786E-05 -0.707103908 0.707109571
vn -6.18762861E-05 -0.707113802 -0.707099795
vn -8.09376579E-05 -0.923878312 -0.382686257
vn -8.09381745E-05 -0.923884213 -0.38267228
vn -6.18762933E-05 -0.707113802 -0.707099795
vn 1.72363059E-07 1.23554958E-06 -1
vn 1.72363059E-07 1.23554946E-06 -1
vn 1.72363059E-07 1.23554946E-06 -1
vn 1.72363059E-07 1.23554946E-06 -1
vn 8.10839338E-05 0.923882782 -0.382675558
vn 6.20591527E-05 0.707107186 -0.707106352
vn 6.20591527E-05 0.707107186 -0.707106352
vn 8.1083359E-05 0.923876166 -0.382691503
vn 8.08527475E-05 0.923882365 0.382676631
vn 8.08522818E-05 0.92387706 0.382689238
vn 6.16320031E-05 0.707106888 0.70710659
vn 6.16320031E-05 0.707107008 0.707106531
vn -1.72634586E-07 -4.32445358E-06 1
vn -1.72634572E-07 -4.32445358E-06 1
vn -1.72634572E-07 -4.32445358E-06 1
vn -1.72634572E-07 -4.32445358E-06 1
vn 8.09343401E-05 -0.92387563 -0.382692754
vn 8.09349294E-05 -0.923882484 -0.382676303
vn 8.01772694E-05 -0.923882067 0.382677257
vn 8.01767601E-05 -0.923876345 0.382690996
vn 6.09007038E-05 -0.707104564 0.707108974
vn 6.09007075E-05 -0.707104504 0.707109034
vn 6.23007945E-05 -0.707106233 -0.707107306
vn 6.23007945E-05 -0.707106173 -0.707107306
vn 8.09349294E-05 -0.923882484 -0.382676303
vn 8.09343401E-05 -0.92387563 -0.382692754
vn 6.89126637E-07 -1.23554628E-06 -1
vn 6.89126637E-07 -1.23554628E-06 -1
vn 6.89126637E-07 -1.23554628E-06 -1
vn 6.89126637E-07 -1.23554628E-06 -1
vn -8.05641321E-05 0.923881948 -0.382677495
vn -6.13571392E-05 0.707104325 -0.707109272
vn -6.13571319E-05 0.707104266 -0.707109272
vn -8.05635646E-05 0.923875749 -0.382692546
vn -8.12235667E-05 0.923881054 0.382679731
vn -8.12230865E-05 0.92387563 0.382692903
vn -6.25756074E-05 0.707102418 0.70711112
vn -6.25756074E-05 0.707102358 0.70711112
vn -1.37803693E-06 0 1
vn -1.37803715E-06 0 1
vn -1.37803715E-06 0 1
vn -1.37803715E-06 0 1
vn -0.378841758 0.377298772 -0.845058858
vn 0.00177624659 -0.382703662 -0.923869431
vn -0.378906727 -0.377326459 -0.845017433
vn 0.00191994815 0.382781148 -0.923837006
vn -0.383824974 0.842248082 -0.378545463
vn 0.001919784 0.923835456 -0.382785022
vn -0.383891523 0.842205942 0.378571481
vn 0.0017756056 0.923868418 0.382706046
vn 0.00157235493 0.382814556 0.923823893
vn -0.407111734 0.384338766 0.828579366
vn -0.407175452 -0.384365529 0.828535676
vn 0.00142862729 -0.382736981 0.923856199
vn -0.41127339 -0.826022685 0.385409683
vn 0.0014289628 -0.923855841 0.382738173
vn -0.411201298 -0.826069117 -0.385387123
vn 0.00157316693 -0.923822761 -0.382817179
vn -0.378906727 -0.377326459 -0.845017433
vn 0.00177624659 -0.382703662 -0.923869431
vn -0.846890688 -0.372622937 0.379378796
vn -0.846930802 -0.372566521 -0.379344761
vn -0.411201298 -0.826069117 -0.385387123
vn -0.41127339 -0.826022685 0.385409683
vn -0.37574473 -0.358344913 -0.854637206
vn 0.375748158 -0.358327508 -0.854643047
vn 0.266963422 -0.52977401 -0.805027962
vn -0.266982734 -0.52978915 -0.805011511
vn 0.846938372 -0.372554868 -0.379339337
vn 0.846898019 -0.372611463 0.379373699
vn 0.411288798 -0.826016188 0.385407299
vn 0.411218971 -0.82606113 -0.385385454
vn 0.38291505 -0.386492252 0.839046955
vn -0.382917583 -0.386491388 0.83904624
vn -0.384324759 -0.834260881 0.395352036
vn 0.384325892 -0.834255397 0.395362526
vn -0.267285615 0.798716664 0.539082646
vn 0.26728633 0.798713744 0.539086521
vn 0.377368122 0.849801302 0.368009537
vn -0.377367884 0.849808514 0.367993087
vn 0.552739143 0.789716065 0.266135037
vn 0.552781701 0.7896896 -0.26612556
vn 0.383872718 0.842226088 -0.378545821
vn 0.383936852 0.842185497 0.378571123
vn 0.264905185 0.780273497 -0.566567361
vn -0.264893621 0.780288041 -0.566552699
vn -0.264797807 0.556636453 -0.787424922
vn 0.264776409 0.556620002 -0.787443697
vn -0.552741826 0.789715409 -0.266131878
vn -0.552699387 0.789741874 0.266141266
vn -0.383891523 0.842205942 0.378571481
vn -0.383824974 0.842248082 -0.378545463
vn 0.407125086 0.384338468 0.828572929
vn 0.407188475 -0.384364694 0.828529716
vn 0.844637215 -0.379713625 0.377366722
vn 0.8446787 0.379686356 0.377301008
vn -0.407175452 -0.384365529 0.828535676
vn -0.407111734 0.384338766 0.828579366
vn -0.844679117 0.379696488 0.37729004
vn -0.844637692 -0.379724264 0.37735489
vn 0.378881097 -0.377314001 -0.84503454
vn 0.378814459 0.377286375 -0.84507668
vn 0.547558844 0.265538543 -0.793516576
vn 0.547516584 -0.265546411 -0.79354316
vn -0.378841758 0.377298772 -0.845058858
vn -0.378906727 -0.377326459 -0.845017433
vn -0.547546268 -0.265553832 -0.793520153
vn -0.54758954 0.265546054 -0.793492913
vn -0.0307993051 0.382969081 -0.923247576
vn -0.0308082476 -0.382017225 -0.923641562
vn -0.0308104604 -0.382974952 -0.923244834
vn -0.0307971537 0.382023513 -0.923639238
vn -0.0307895765 0.923244715 -0.382976741
vn -0.0307873636 0.923642218 -0.382017374
vn -0.0307862684 0.923245728 0.382974535
vn -0.0307840724 0.923641562 0.382018924
vn -0.0307917725 0.382970184 0.923247337
vn -0.0307896119 0.382023245 0.923639774
vn -0.0308028907 -0.382976055 0.923244536
vn -0.0308006853 -0.382017046 0.92364186
vn -0.0308130663 -0.923246026 0.382971734
vn -0.0308108963 -0.923639774 0.382021248
vn -0.0308163986 -0.923244953 -0.382973999
vn -0.0308142118 -0.92364037 -0.38201955
vn -0.0308104604 -0.382974952 -0.923244834
vn -0.0308082476 -0.382017225 -0.923641562
vn 0.378881097 -0.377314001 -0.84503454
vn -0.00191564928 0.382783443 -0.923836172
vn 0.378814459 0.377286375 -0.84507668
vn -0.00176964211 -0.382703871 -0.923869371
vn 0.411218971 -0.82606113 -0.385385454
vn -0.00156756653 -0.923823655 -0.382815093
vn 0.411288798 -0.826016188 0.385407299
vn -0.00142833765 -0.923855126 0.382739842
vn -0.00143302092 -0.38273555 0.923856854
vn 0.407188475 -0.384364694 0.828529716
vn 0.407125086 0.384338468 0.828572929
vn -0.00157905463 0.382815063 0.923823655
vn 0.383936852 0.842185497 0.378571123
vn -0.00178078923 0.923868299 0.382706285
vn 0.383872718 0.842226088 -0.378545821
vn -0.00191999204 0.923836887 -0.382781506
vn 0.378814459 0.377286375 -0.84507668
vn -0.00191564928 0.382783443 -0.923836172
vn 0.0308009367 -0.382969767 -0.923247278
vn 0.0308079254 0.382018894 -0.923640847
vn 0.0308101233 0.382974118 -0.923245132
vn 0.0307987798 -0.382023454 -0.923639238
vn 0.0307916123 -0.92324543 -0.382974893
vn 0.0307894126 -0.923641682 -0.382018447
vn 0.0307874102 -0.923246145 0.382973671
vn 0.0307852291 -0.923640668 0.382021099
vn 0.030789936 -0.382970244 0.923247337
vn 0.0307877697 -0.382021874 0.92364037
vn 0.0307991039 0.382974625 0.923245251
vn 0.0307968967 0.382017374 0.92364186
vn 0.0308109783 0.923246324 0.382971019
vn 0.0308088288 0.923639059 0.382023185
vn 0.0308152065 0.923245728 -0.3829723
vn 0.0308130253 0.923640072 -0.382020444
vn 0.0308101233 0.382974118 -0.923245132
vn 0.0308079254 0.382018894 -0.923640847
vn -0.37574473 -0.358344913 -0.854637206
vn 0.382743865 0.00186906022 -0.923852682
vn 0.375748158 -0.358327508 -0.854643047
vn -0.382741392 0.00186690933 -0.923853695
vn -0.846930802 -0.372566521 -0.379344761
vn -0.923827946 0.00176216708 -0.382804036
vn -0.846890688 -0.372622937 0.379378796
vn -0.923861504 0.00161449704 0.382723421
vn -0.382774621 0.00151176145 0.923840523
vn -0.382917583 -0.386491388 0.83904624
vn 0.38291505 -0.386492252 0.839046955
vn 0.382776976 0.00151415542 0.923839509
vn 0.846898019 -0.372611463 0.379373699
vn 0.92386204 0.00161959301 0.382722229
vn 0.846938372 -0.372554868 -0.379339337
vn 0.923828542 0.00176701893 -0.382802457
vn 0.375748158 -0.358327508 -0.854643047
vn 0.382743865 0.00186906022 -0.923852682
vn -0.382968277 -0.0303052254 -0.923264205
vn 0.382032156 -0.0303149149 -0.923651636
vn 0.382971972 -0.0303170569 -0.923262417
vn -0.382036209 -0.0303031318 -0.923650324
vn -0.923261702 -0.0302927177 -0.382975459
vn -0.923653305 -0.0302905701 -0.382030457
vn -0.923262835 -0.0302894562 0.382973045
vn -0.923652649 -0.0302873217 0.382031858
vn -0.382969618 -0.0302978083 0.923263907
vn -0.38203615 -0.0302957091 0.923650622
vn 0.382973254 -0.0303096492 0.923262
vn 0.382032186 -0.0303075109 0.923651934
vn 0.923263311 -0.0303246565 0.382969022
vn 0.923650146 -0.0303225778 0.382035255
vn 0.923262179 -0.0303279124 -0.382971466
vn 0.923650622 -0.0303258095 -0.382033855
vn 0.382971972 -0.0303170569 -0.923262417
vn 0.382032156 -0.0303149149 -0.923651636
vn -0.844679117 0.379696488 0.37729004
vn -0.923863471 -0.382718891 -0.00162203179
vn -0.844637692 -0.379724264 0.37735489
vn -0.923831105 0.382796317 -0.00176543219
vn -0.377367884 0.849808514 0.367993087
vn -0.382749408 0.923850298 -0.00185334519
vn 0.377368122 0.849801302 0.368009537
vn 0.382739127 0.923854589 -0.00183449767
vn 0.923829436 0.382800609 -0.00171986769
vn 0.8446787 0.379686356 0.377301008
vn 0.844637215 -0.379713625 0.377366722
vn 0.923861742 -0.382723123 -0.00157640735
vn 0.384325892 -0.834255397 0.395362526
vn 0.382771224 -0.923841953 -0.00148856791
vn -0.384324759 -0.834260881 0.395352036
vn -0.382781506 -0.923837721 -0.00150747469
vn -0.844637692 -0.379724264 0.37735489
vn -0.923863471 -0.382718891 -0.00162203179
vn -0.923238933 0.38297087 0.0310344305
vn -0.923636377 -0.382010758 0.0310434066
vn -0.923236191 -0.38297677 0.0310456567
vn -0.923634052 0.382017106 0.0310322419
vn -0.382975042 0.923237503 0.0310271624
vn -0.382012069 0.923636377 0.0310249366
vn 0.382973433 0.923238337 0.0310223196
vn 0.382015705 0.923635066 0.0310201161
vn 0.923239231 0.382971227 0.0310227312
vn 0.923635304 0.382015288 0.031020537
vn 0.92323637 -0.382977158 0.0310339555
vn 0.92363739 -0.382009029 0.0310317036
vn 0.382970542 -0.923238635 0.0310493503
vn 0.382017881 -0.923633218 0.0310471598
vn -0.382972211 -0.923237681 0.0310541838
vn -0.382014275 -0.923634648 0.0310519803
vn -0.923236191 -0.38297677 0.0310456567
vn -0.923636377 -0.382010758 0.0310434066
vn 4.35506809E-06 -1.20966354E-06 1
vn 4.35506763E-06 -1.20966354E-06 1
vn 4.35506809E-06 -1.20966354E-06 1
vn 4.35506809E-06 -1.20966342E-06 1
vn 4.35506809E-06 -1.20966354E-06 1
vn 4.35506809E-06 -1.20966354E-06 1
vn 4.35506809E-06 -1.20966342E-06 1
vn 4.35506809E-06 -1.20966365E-06 1
vn -1 -2.2370601E-07 0
vn -1 -2.2370601E-07 0
vn -1 -2.2370601E-07 0
vn -1 -2.2370601E-07 0
vn -1 -2.23705996E-07 0
vn -1 -2.2370601E-07 0
vn -1 -2.23706024E-07 0
vn -1 -2.2370601E-07 0
vn -0 -1 0
vn -0 -1 0
vn -0 -1 0
vn -0 -1 0
vn -0 -1 0
vn -0 -1 0
vn -0 -1 0
vn -0 -1 0
vn 1 -2.06865707E-06 -4.39679525E-06
vn 1 -2.06865707E-06 -4.3967957E-06
vn 1 -2.0686573E-06 -4.3967957E-06
vn 1 -2.0686573E-06 -4.39679616E-06
vn 1 -2.0686573E-06 -4.3967957E-06
vn 1 -2.06865752E-06 -4.3967957E-06
vn 1 -2.06865707E-06 -4.3967957E-06
vn 1 -2.0686573E-06 -4.3967957E-06
vn 0.552739143 0.789716065 0.266135037
vn 0.18501395 0.965146661 -0.185099378
vn 0.552781701 0.7896896 -0.26612556
vn 0.264905185 0.780273497 -0.566567361
vn 0.185015962 0.965179205 0.184927523
vn 0.26728633 0.798713744 0.539086521
vn -0.267285615 0.798716664 0.539082646
vn -0.18501243 0.965146899 -0.185099512
vn -0.264893621 0.780288041 -0.566552699
vn -0.552741826 0.789715409 -0.266131878
vn -0.185014442 0.965179563 0.184927672
vn -0.552699387 0.789741874 0.266141266
vn 0.547558844 0.265538543 -0.793516576
vn 0.184811532 -0.184720948 -0.965257943
vn 0.547516584 -0.265546411 -0.79354316
vn 0.266963422 -0.52977401 -0.805027962
vn 0.184809625 0.184891298 -0.965225756
vn 0.264776409 0.556620002 -0.787443697
vn -0.264797807 0.556636453 -0.787424922
vn -0.184804961 -0.184721291 -0.965259194
vn -0.266982734 -0.52978915 -0.805011511
vn -0.547546268 -0.265553832 -0.793520153
vn -0.184802756 0.184891462 -0.965226948
vn -0.54758954 0.265546054 -0.793492913
vn -0.578270614 0.583649039 0.570049942
vn -0.383891523 0.842205942 0.378571481
vn -0.552699387 0.789741874 0.266141266
vn -0.407111734 0.384338766 0.828579366
vn -0.267285615 0.798716664 0.539082646
vn -0.844679117 0.379696488 0.37729004
vn -0.377367884 0.849808514 0.367993087
vn -0.383824974 0.842248082 -0.378545463
vn -0.378841758 0.377298772 -0.845058858
vn -0.572836876 0.578179598 -0.581004679
vn -0.552741826 0.789715409 -0.266131878
vn -0.54758954 0.265546054 -0.793492913
vn -0.264893621 0.780288041 -0.566552699
vn -0.264797807 0.556636453 -0.787424922
vn -0.41127339 -0.826022685 0.385409683
vn -0.407175452 -0.384365529 0.828535676
vn -0.583685338 -0.572902441 0.575407863
vn -0.846890688 -0.372622937 0.379378796
vn -0.844637692 -0.379724264 0.37735489
vn -0.382917583 -0.386491388 0.83904624
vn -0.384324759 -0.834260881 0.395352036
vn -0.378906727 -0.377326459 -0.845017433
vn -0.411201298 -0.826069117 -0.385387123
vn -0.578122675 -0.567426026 -0.586346328
vn -0.547546268 -0.265553832 -0.793520153
vn -0.846930802 -0.372566521 -0.379344761
vn -0.266982734 -0.52978915 -0.805011511
vn -0.37574473 -0.358344913 -0.854637206
vn 0.572841823 0.57816577 -0.581013441
vn 0.383872718 0.842226088 -0.378545821
vn 0.552781701 0.7896896 -0.26612556
vn 0.378814459 0.377286375 -0.84507668
vn 0.264905185 0.780273497 -0.566567361
vn 0.547558844 0.265538543 -0.793516576
vn 0.264776409 0.556620002 -0.787443697
vn 0.8446787 0.379686356 0.377301008
vn 0.57828176 0.583643556 0.57004416
vn 0.407125086 0.384338468 0.828572929
vn 0.377368122 0.849801302 0.368009537
vn 0.383936852 0.842185497 0.378571123
vn 0.26728633 0.798713744 0.539086521
vn 0.552739143 0.789716065 0.266135037
vn 0.578121245 -0.56741488 -0.586358249
vn 0.375748158 -0.358327508 -0.854643047
vn 0.846938372 -0.372554868 -0.379339337
vn 0.411218971 -0.82606113 -0.385385454
vn 0.266963422 -0.52977401 -0.805027962
vn 0.378881097 -0.377314001 -0.84503454
vn 0.547516584 -0.265546411 -0.79354316
vn 0.846898019 -0.372611463 0.379373699
vn 0.38291505 -0.386492252 0.839046955
vn 0.583690166 -0.572899997 0.575405419
vn 0.411288798 -0.826016188 0.385407299
vn 0.384325892 -0.834255397 0.395362526
vn 0.407188475 -0.384364694 0.828529716
vn 0.844637215 -0.379713625 0.377366722
vn -0.462666839 0.18434301 0.867154479
vn -0.45627591 -0.202929422 0.866390169
vn -0.462667733 -0.184343249 0.867154062
vn -0.456275076 0.202929065 0.866390705
vn -0.202929705 -0.45627743 0.866389394
vn -0.184343904 0.462668419 0.867153585
vn -0.184343651 -0.462669373 0.867153049
vn -0.202928081 0.456277132 0.86638993
vn 0.202928916 -0.456277698 0.866389394
vn 0.184344366 0.462668806 0.867153227
vn 0.18434459 -0.462669075 0.867153049
vn 0.202928782 0.45627743 0.866389573
vn 0.456277668 -0.202929333 0.866389275
vn 0.462669283 0.18434383 0.867153168
vn 0.462669432 -0.184343755 0.867153049
vn 0.456277549 0.202929124 0.866389453
vn -0.763042569 0.547944307 -0.342816293
vn -0.738098204 -0.172634423 -0.652233303
vn -0.763041556 -0.547942996 -0.342820793
vn -0.7380988 0.17263402 -0.652232826
vn -0.172631279 -0.738090754 -0.652242601
vn -0.547946215 0.763041019 -0.342816889
vn -0.547945321 -0.76303941 -0.342821956
vn -0.172631785 0.738093674 -0.652239203
vn 0.172634035 -0.738089323 -0.652243495
vn 0.547941089 0.763037384 -0.342833012
vn 0.547940254 -0.763035774 -0.34283796
vn 0.172634467 0.738092244 -0.652240098
vn 0.738091648 -0.172633052 -0.65224123
vn 0.763038337 0.547940671 -0.342831671
vn 0.763037384 -0.54793936 -0.342835933
vn 0.738092124 0.172632635 -0.652240694
vn -0.164396256 -0.895764589 -0.413012773
vn 0.181697562 -0.895106137 -0.407149822
vn 0.164397329 -0.895764053 -0.413013637
vn -0.181696132 -0.895106912 -0.407148868
vn 0.407152295 -0.895105302 -0.18169643
vn -0.413011104 -0.895765483 -0.164396062
vn 0.413015872 -0.89576298 -0.164397329
vn -0.407147557 -0.895107567 -0.18169558
vn 0.407152832 -0.895105064 0.181696236
vn -0.413011909 -0.895765066 0.164395839
vn 0.413016319 -0.895762801 0.164397314
vn -0.407148182 -0.89510721 0.181696117
vn 0.181698143 -0.89510566 0.407150567
vn -0.164396986 -0.895764053 0.413013905
vn 0.16439797 -0.895763576 0.413014501
vn -0.181696758 -0.895106256 0.40715
vn -0.538333952 0.317818016 -0.780505061
vn 0.190937877 0.589340091 -0.784997404
vn 0.538333833 0.317820221 -0.780504286
vn -0.190940008 0.589338362 -0.784998298
vn 0.784992635 0.589346111 -0.190939054
vn -0.780503213 0.31781441 -0.538338959
vn 0.780499518 0.317822874 -0.538339376
vn -0.785001397 0.58933413 -0.190940037
vn 0.784992278 0.589346468 0.190939248
vn -0.780503213 0.317818671 0.538336396
vn 0.780499399 0.317827255 0.538336694
vn -0.78500104 0.589334548 0.190940201
vn 0.190937772 0.589343965 0.784994543
vn -0.53833437 0.317822963 0.780502737
vn 0.538334429 0.317825139 0.780501902
vn -0.190939844 0.589341998 0.784995496
vn 0.89063406 -0.168191299 -0.422472119
vn 0.889955282 0.185755149 -0.416502804
vn 0.89063406 0.168191895 -0.422471792
vn 0.889955163 -0.185756087 -0.416502595
vn 0.889955461 0.416502178 -0.185755581
vn 0.890634358 -0.422471523 -0.168191209
vn 0.890634358 0.422471553 -0.168190777
vn 0.88995558 -0.416502327 -0.185755223
vn 0.889955759 0.416501969 0.185755163
vn 0.890634358 -0.422471285 0.168191329
vn 0.890634477 0.422471255 0.168191135
vn 0.88995558 -0.416502059 0.185755461
vn 0.889955461 0.185754836 0.416502684
vn 0.890634 -0.16819112 0.422472268
vn 0.890634179 0.168191671 0.422471732
vn 0.889955163 -0.185755819 0.416502804
vn -0.3188878 -0.53878063 -0.779760182
vn -0.592093647 0.190146044 -0.783115208
vn -0.318889022 0.538780391 -0.779759824
vn -0.592093349 -0.190146402 -0.783115506
vn -0.592096746 0.783113003 -0.190145716
vn -0.318887502 -0.779759824 -0.538781345
vn -0.318890095 0.779758811 -0.538781226
vn -0.592093647 -0.783115268 -0.190146074
vn -0.592095912 0.783113778 0.190145656
vn -0.318881303 -0.779760361 0.538784385
vn -0.318883866 0.779759407 0.538784206
vn -0.592092812 -0.783115923 0.19014594
vn -0.592086732 0.190146595 0.783120394
vn -0.318879843 -0.53878051 0.779763579
vn -0.318881065 0.538780272 0.779763162
vn -0.592086256 -0.190146819 0.783120692
vn -0.890661597 0.168171436 -0.422422022
vn -0.889982581 -0.185734585 -0.416453689
vn -0.890661299 -0.168171495 -0.422422439
vn -0.88998282 0.185734317 -0.416453212
vn -0.889982462 -0.416454017 -0.185734764
vn -0.890661418 0.42242232 -0.168171465
vn -0.89066112 -0.422422916 -0.168171406
vn -0.88998276 0.4164536 -0.185733914
vn -0.889982104 -0.416454643 0.185734749
vn -0.890661001 0.422423184 0.168171376
vn -0.890660822 -0.422423452 0.16817151
vn -0.889982283 0.416454285 0.185734615
vn -0.889981806 -0.185735166 0.41645506
vn -0.890660524 0.16817233 0.422423691
vn -0.890660524 -0.1681723 0.42242384
vn -0.889981866 0.185734972 0.416454911
vn 0.318877071 0.53877759 -0.779766738
vn 0.592076182 -0.190150723 -0.783127367
vn 0.318880767 -0.538776517 -0.779765844
vn 0.592075646 0.190150335 -0.783127964
vn 0.592078388 -0.783125579 -0.190150887
vn 0.318876445 0.779764414 -0.538781345
vn 0.318880856 -0.779763103 -0.53878057
vn 0.592074811 0.783128202 -0.190151364
vn 0.592078567 -0.78312552 0.19015123
vn 0.318879843 0.779764533 0.53877914
vn 0.318884254 -0.779763162 0.538778365
vn 0.59207499 0.783128083 0.190151662
vn 0.592078328 -0.190150738 0.783125639
vn 0.318880409 0.538777947 0.779765129
vn 0.318884283 -0.538776934 0.779764175
vn 0.592077851 0.190150261 0.783126235
vn -1 3.3907022E-06 -9.16370027E-06
vn -1 8.13541737E-06 -1.7984778E-06
vn -1 8.33671493E-06 -1.47933213E-06
vn -1 3.39616349E-06 -9.161241E-06
vn -1 1.77542133E-05 2.7942508E-06
vn -1 6.10401003E-06 -3.06321317E-06
vn -1 1.78634255E-05 2.73244677E-06
vn -1 6.2638801E-06 -2.71706949E-06
vn -1 1.99108254E-05 -8.39724908E-06
vn -1 9.01338444E-06 3.32139552E-06
vn -1 1.99927599E-05 -8.14985833E-06
vn -1 9.01960902E-06 3.33094658E-06
vn -1 1.02548638E-05 -1.56531223E-05
vn -1 6.64673234E-06 -5.03273759E-06
vn -1 1.12087382E-05 -1.57970644E-05
vn -1 6.29675878E-06 -6.30756085E-06
vn 1 7.49495393E-06 1.60883937E-05
vn 1 6.92681124E-06 1.59631018E-05
vn 1 -2.15958903E-06 6.87670581E-06
vn 1 -2.05371043E-06 6.53956158E-06
vn 1 2.20827642E-05 5.61240086E-06
vn 1 6.87658303E-06 2.15957766E-06
vn 1 2.2266393E-05 4.94723827E-06
vn 1 6.53964298E-06 2.05376227E-06
vn 1 1.25338693E-05 -3.93627806E-06
vn 1 1.59631036E-05 1.12460557E-05
vn 1 1.31801844E-05 -4.13925318E-06
vn 1 1.60883974E-05 1.1602513E-05
vn 1 3.93625805E-06 1.25342885E-05
vn 1 1.322565E-05 2.2266986E-05
vn 1 4.13922453E-06 1.31805955E-05
vn 1 1.34852007E-05 2.20832662E-05
vn -1.34069824E-05 6.24577069E-06 1
vn -1.33025724E-05 5.77232549E-06 1
vn -5.7305856E-06 -1.79965548E-06 1
vn -5.44962859E-06 -1.71142278E-06 1
vn -4.19210664E-06 1.99463411E-05 1
vn -1.79964786E-06 5.73048874E-06 1
vn -3.61277898E-06 2.01789553E-05 1
vn -1.71146939E-06 5.44970726E-06 1
vn 3.76514481E-06 1.19889764E-05 1
vn -9.371739E-06 1.33026033E-05 1
vn 3.95927373E-06 1.26071218E-05 1
vn -9.66875996E-06 1.34070051E-05 1
vn -1.19893184E-05 3.76512321E-06 1
vn -2.01795265E-05 1.15312923E-05 1
vn -1.26075147E-05 3.95926099E-06 1
vn -1.9946825E-05 1.17225864E-05 1
g P_T_B_0
f 3/3/3 2/2/2 1/1/1
f 4/4/4 3/3/3 1/1/1
f 5/5/5 3/3/3 4/4/4
f 6/6/6 5/5/5 4/4/4
f 9/9/9 8/8/8 7/7/7
f 10/10/10 9/9/9 7/7/7
f 13/13/13 12/12/12 11/11/11
f 14/14/14 13/13/13 11/11/11
f 17/17/17 16/16/16 15/15/15
f 16/16/16 18/18/18 15/15/15
f 15/15/15 18/18/18 19/19/19
f 18/18/18 20/20/20 19/19/19
f 19/19/19 20/20/20 21/21/21
f 20/20/20 22/22/22 21/21/21
f 25/25/25 24/24/24 23/23/23
f 26/26/26 25/25/25 23/23/23
f 29/29/29 28/28/28 27/27/27
f 28/28/28 30/30/30 27/27/27
f 28/28/28 31/31/31 30/30/30
f 31/31/31 32/32/32 30/30/30
f 35/35/35 34/34/34 33/33/33
f 36/36/36 35/35/35 33/33/33
f 39/39/39 38/38/38 37/37/37
f 40/40/40 39/39/39 37/37/37
f 43/43/43 42/42/42 41/41/41
f 44/44/44 43/43/43 41/41/41
f 44/44/44 41/41/41 45/45/45
f 46/46/46 44/44/44 45/45/45
f 46/46/46 45/45/45 47/47/47
f 48/48/48 46/46/46 47/47/47
f 51/51/51 50/50/50 49/49/49
f 52/52/52 51/51/51 49/49/49
f 55/55/55 54/54/54 53/53/53
f 56/56/56 55/55/55 53/53/53
f 57/57/57 55/55/55 56/56/56
f 58/58/58 57/57/57 56/56/56
f 61/61/61 60/60/60 59/59/59
f 62/62/62 61/61/61 59/59/59
f 65/65/65 64/64/64 63/63/63
f 66/66/66 65/65/65 63/63/63
f 69/69/69 68/68/68 67/67/67
f 68/68/68 70/70/70 67/67/67
f 67/67/67 70/70/70 71/71/71
f 70/70/70 72/72/72 71/71/71
f 71/71/71 72/72/72 73/73/73
f 72/72/72 74/74/74 73/73/73
f 77/77/77 76/76/76 75/75/75
f 78/78/78 77/77/77 75/75/75
f 81/81/81 80/80/80 79/79/79
f 80/80/80 82/82/82 79/79/79
f 83/83/83 79/79/79 82/82/82
f 84/84/84 83/83/83 82/82/82
f 83/83/83 84/84/84 85/85/85
f 84/84/84 86/86/86 85/85/85
f 86/86/86 87/87/87 85/85/85
f 87/87/87 88/88/88 85/85/85
f 88/88/88 87/87/87 89/89/89
f 87/87/87 90/90/90 89/89/89
f 91/91/91 89/89/89 90/90/90
f 92/92/92 91/91/91 90/90/90
f 91/91/91 92/92/92 93/93/93
f 92/92/92 94/94/94 93/93/93
f 95/95/95 93/93/93 94/94/94
f 96/96/96 95/95/95 94/94/94
f 99/99/99 98/98/98 97/97/97
f 100/100/100 99/99/99 97/97/97
f 103/103/103 102/102/102 101/101/101
f 104/104/104 103/103/103 101/101/101
f 107/107/107 106/106/106 105/105/105
f 108/108/108 107/107/107 105/105/105
f 111/111/111 110/110/110 109/109/109
f 112/112/112 111/111/111 109/109/109
f 115/115/115 114/114/114 113/113/113
f 116/116/116 115/115/115 113/113/113
f 119/119/119 118/118/118 117/117/117
f 120/120/120 119/119/119 117/117/117
f 123/123/123 122/122/122 121/121/121
f 124/124/124 123/123/123 121/121/121
f 127/127/127 126/126/126 125/125/125
f 128/128/128 127/127/127 125/125/125
f 131/131/131 130/130/130 129/129/129
f 132/132/132 131/131/131 129/129/129
f 135/135/135 134/134/134 133/133/133
f 136/136/136 135/135/135 133/133/133
f 139/139/139 138/138/138 137/137/137
f 140/140/140 139/139/139 137/137/137
f 143/143/143 142/142/142 141/141/141
f 144/144/144 143/143/143 141/141/141
f 147/147/147 146/146/146 145/145/145
f 146/146/146 148/148/148 145/145/145
f 145/145/145 148/148/148 149/149/149
f 148/148/148 150/150/150 149/149/149
f 149/149/149 150/150/150 151/151/151
f 150/150/150 152/152/152 151/151/151
f 151/151/151 152/152/152 153/153/153
f 152/152/152 154/154/154 153/153/153
f 153/153/153 154/154/154 155/155/155
f 154/154/154 156/156/156 155/155/155
f 155/155/155 156/156/156 157/157/157
f 156/156/156 158/158/158 157/157/157
f 157/157/157 158/158/158 159/159/159
f 158/158/158 160/160/160 159/159/159
f 159/159/159 160/160/160 161/161/161
f 160/160/160 162/162/162 161/161/161
f 165/165/165 164/164/164 163/163/163
f 164/164/164 166/166/166 163/163/163
f 167/167/167 163/163/163 166/166/166
f 168/168/168 167/167/167 166/166/166
f 167/167/167 168/168/168 169/169/169
f 168/168/168 170/170/170 169/169/169
f 170/170/170 171/171/171 169/169/169
f 171/171/171 172/172/172 169/169/169
f 172/172/172 171/171/171 173/173/173
f 171/171/171 174/174/174 173/173/173
f 175/175/175 173/173/173 174/174/174
f 176/176/176 175/175/175 174/174/174
f 175/175/175 176/176/176 177/177/177
f 176/176/176 178/178/178 177/177/177
f 179/179/179 177/177/177 178/178/178
f 180/180/180 179/179/179 178/178/178
f 183/183/183 182/182/182 181/181/181
f 182/182/182 184/184/184 181/181/181
f 181/181/181 184/184/184 185/185/185
f 184/184/184 186/186/186 185/185/185
f 185/185/185 186/186/186 187/187/187
f 186/186/186 188/188/188 187/187/187
f 187/187/187 188/188/188 189/189/189
f 188/188/188 190/190/190 189/189/189
f 189/189/189 190/190/190 191/191/191
f 190/190/190 192/192/192 191/191/191
f 191/191/191 192/192/192 193/193/193
f 192/192/192 194/194/194 193/193/193
f 193/193/193 194/194/194 195/195/195
f 194/194/194 196/196/196 195/195/195
f 195/195/195 196/196/196 197/197/197
f 196/196/196 198/198/198 197/197/197
f 201/201/201 200/200/200 199/199/199
f 200/200/200 202/202/202 199/199/199
f 203/203/203 199/199/199 202/202/202
f 204/204/204 203/203/203 202/202/202
f 203/203/203 204/204/204 205/205/205
f 204/204/204 206/206/206 205/205/205
f 206/206/206 207/207/207 205/205/205
f 207/207/207 208/208/208 205/205/205
f 208/208/208 207/207/207 209/209/209
f 207/207/207 210/210/210 209/209/209
f 211/211/211 209/209/209 210/210/210
f 212/212/212 211/211/211 210/210/210
f 211/211/211 212/212/212 213/213/213
f 212/212/212 214/214/214 213/213/213
f 215/215/215 213/213/213 214/214/214
f 216/216/216 215/215/215 214/214/214
f 219/219/219 218/218/218 217/217/217
f 218/218/218 220/220/220 217/217/217
f 217/217/217 220/220/220 221/221/221
f 220/220/220 222/222/222 221/221/221
f 221/221/221 222/222/222 223/223/223
f 222/222/222 224/224/224 223/223/223
f 223/223/223 224/224/224 225/225/225
f 224/224/224 226/226/226 225/225/225
f 225/225/225 226/226/226 227/227/227
f 226/226/226 228/228/228 227/227/227
f 227/227/227 228/228/228 229/229/229
f 228/228/228 230/230/230 229/229/229
f 229/229/229 230/230/230 231/231/231
f 230/230/230 232/232/232 231/231/231
f 231/231/231 232/232/232 233/233/233
f 232/232/232 234/234/234 233/233/233
f 237/237/237 236/236/236 235/235/235
f 236/236/236 238/238/238 235/235/235
f 239/239/239 235/235/235 238/238/238
f 240/240/240 239/239/239 238/238/238
f 239/239/239 240/240/240 241/241/241
f 240/240/240 242/242/242 241/241/241
f 242/242/242 243/243/243 241/241/241
f 243/243/243 244/244/244 241/241/241
f 244/244/244 243/243/243 245/245/245
f 243/243/243 246/246/246 245/245/245
f 247/247/247 245/245/245 246/246/246
f 248/248/248 247/247/247 246/246/246
f 247/247/247 248/248/248 249/249/249
f 248/248/248 250/250/250 249/249/249
f 251/251/251 249/249/249 250/250/250
f 252/252/252 251/251/251 250/250/250
f 255/255/255 254/254/254 253/253/253
f 254/254/254 256/256/256 253/253/253
f 253/253/253 256/256/256 257/257/257
f 256/256/256 258/258/258 257/257/257
f 257/257/257 258/258/258 259/259/259
f 258/258/258 260/260/260 259/259/259
f 259/259/259 260/260/260 261/261/261
f 260/260/260 262/262/262 261/261/261
f 261/261/261 262/262/262 263/263/263
f 262/262/262 264/264/264 263/263/263
f 263/263/263 264/264/264 265/265/265
f 264/264/264 266/266/266 265/265/265
f 265/265/265 266/266/266 267/267/267
f 266/266/266 268/268/268 267/267/267
f 267/267/267 268/268/268 269/269/269
f 268/268/268 270/270/270 269/269/269
f 273/273/273 272/272/272 271/271/271
f 271/271/271 274/274/274 273/273/273
f 271/271/271 275/275/275 274/274/274
f 271/271/271 276/276/276 275/275/275
f 276/276/276 277/277/277 275/275/275
f 277/277/277 278/278/278 275/275/275
f 281/281/281 280/280/280 279/279/279
f 279/279/279 282/282/282 281/281/281
f 279/279/279 283/283/283 282/282/282
f 283/283/283 284/284/284 282/282/282
f 283/283/283 285/285/285 284/284/284
f 283/283/283 286/286/286 285/285/285
f 289/289/289 288/288/288 287/287/287
f 287/287/287 290/290/290 289/289/289
f 287/287/287 291/291/291 290/290/290
f 291/291/291 292/292/292 290/290/290
f 291/291/291 293/293/293 292/292/292
f 293/293/293 294/294/294 292/292/292
f 297/297/297 296/296/296 295/295/295
f 295/295/295 298/298/298 297/297/297
f 298/298/298 299/299/299 297/297/297
f 299/299/299 300/300/300 297/297/297
f 299/299/299 301/301/301 300/300/300
f 301/301/301 302/302/302 300/300/300
f 305/305/305 304/304/304 303/303/303
f 306/306/306 304/304/304 305/305/305
f 304/304/304 307/307/307 303/303/303
f 303/303/303 307/307/307 308/308/308
f 308/308/308 307/307/307 309/309/309
f 310/310/310 304/304/304 306/306/306
f 307/307/307 304/304/304 310/310/310
f 311/311/311 310/310/310 306/306/306
f 312/312/312 310/310/310 311/311/311
f 307/307/307 313/313/313 309/309/309
f 313/313/313 307/307/307 310/310/310
f 313/313/313 310/310/310 312/312/312
f 309/309/309 313/313/313 314/314/314
f 314/314/314 313/313/313 312/312/312
f 317/317/317 316/316/316 315/315/315
f 318/318/318 316/316/316 317/317/317
f 316/316/316 319/319/319 315/315/315
f 315/315/315 319/319/319 320/320/320
f 320/320/320 319/319/319 321/321/321
f 322/322/322 316/316/316 318/318/318
f 319/319/319 316/316/316 322/322/322
f 323/323/323 322/322/322 318/318/318
f 324/324/324 322/322/322 323/323/323
f 319/319/319 325/325/325 321/321/321
f 325/325/325 319/319/319 322/322/322
f 325/325/325 322/322/322 324/324/324
f 321/321/321 325/325/325 326/326/326
f 326/326/326 325/325/325 324/324/324
f 329/329/329 328/328/328 327/327/327
f 327/327/327 328/328/328 330/330/330
f 327/327/327 331/331/331 329/329/329
f 332/332/332 327/327/327 330/330/330
f 331/331/331 327/327/327 333/333/333
f 332/332/332 333/333/333 327/327/327
f 336/336/336 335/335/335 334/334/334
f 337/337/337 336/336/336 334/334/334
f 335/335/335 336/336/336 338/338/338
f 336/336/336 337/337/337 339/339/339
f 340/340/340 338/338/338 336/336/336
f 339/339/339 340/340/340 336/336/336
f 343/343/343 342/342/342 341/341/341
f 341/341/341 344/344/344 343/343/343
f 342/342/342 343/343/343 345/345/345
f 343/343/343 344/344/344 346/346/346
f 343/343/343 347/347/347 345/345/345
f 343/343/343 346/346/346 347/347/347
f 350/350/350 349/349/349 348/348/348
f 351/351/351 350/350/350 348/348/348
f 349/349/349 350/350/350 352/352/352
f 350/350/350 351/351/351 353/353/353
f 350/350/350 354/354/354 352/352/352
f 353/353/353 354/354/354 350/350/350
f 357/357/357 356/356/356 355/355/355
f 355/355/355 356/356/356 358/358/358
f 355/355/355 359/359/359 357/357/357
f 360/360/360 355/355/355 358/358/358
f 359/359/359 355/355/355 361/361/361
f 355/355/355 360/360/360 361/361/361
f 364/364/364 363/363/363 362/362/362
f 363/363/363 365/365/365 362/362/362
f 363/363/363 364/364/364 366/366/366
f 367/367/367 365/365/365 363/363/363
f 368/368/368 363/363/363 366/366/366
f 363/363/363 368/368/368 367/367/367
f 371/371/371 370/370/370 369/369/369
f 371/371/371 369/369/369 372/372/372
f 373/373/373 369/369/369 370/370/370
f 369/369/369 374/374/374 372/372/372
f 369/369/369 373/373/373 375/375/375
f 375/375/375 374/374/374 369/369/369
f 378/378/378 377/377/377 376/376/376
f 379/379/379 378/378/378 376/376/376
f 378/378/378 380/380/380 377/377/377
f 378/378/378 379/379/379 381/381/381
f 378/378/378 382/382/382 380/380/380
f 381/381/381 382/382/382 378/378/378
f 385/385/385 384/384/384 383/383/383
f 384/384/384 386/386/386 383/383/383
f 387/387/387 384/384/384 385/385/385
f 383/383/383 386/386/386 388/388/388
f 389/389/389 387/387/387 385/385/385
f 386/386/386 390/390/390 388/388/388
f 391/391/391 387/387/387 389/389/389
f 388/388/388 390/390/390 392/392/392
f 393/393/393 391/391/391 389/389/389
f 390/390/390 394/394/394 392/392/392
f 395/395/395 391/391/391 393/393/393
f 392/392/392 394/394/394 396/396/396
f 397/397/397 395/395/395 393/393/393
f 394/394/394 398/398/398 396/396/396
f 398/398/398 395/395/395 397/397/397
f 396/396/396 398/398/398 397/397/397
f 401/401/401 400/400/400 399/399/399
f 400/400/400 402/402/402 399/399/399
f 403/403/403 400/400/400 401/401/401
f 399/399/399 402/402/402 404/404/404
f 405/405/405 403/403/403 401/401/401
f 402/402/402 406/406/406 404/404/404
f 407/407/407 403/403/403 405/405/405
f 404/404/404 406/406/406 408/408/408
f 409/409/409 407/407/407 405/405/405
f 406/406/406 410/410/410 408/408/408
f 411/411/411 407/407/407 409/409/409
f 408/408/408 410/410/410 412/412/412
f 413/413/413 411/411/411 409/409/409
f 410/410/410 414/414/414 412/412/412
f 414/414/414 411/411/411 413/413/413
f 412/412/412 414/414/414 413/413/413
f 417/417/417 416/416/416 415/415/415
f 416/416/416 418/418/418 415/415/415
f 419/419/419 416/416/416 417/417/417
f 415/415/415 418/418/418 420/420/420
f 421/421/421 419/419/419 417/417/417
f 418/418/418 422/422/422 420/420/420
f 423/423/423 419/419/419 421/421/421
f 420/420/420 422/422/422 424/424/424
f 425/425/425 423/423/423 421/421/421
f 422/422/422 426/426/426 424/424/424
f 427/427/427 423/423/423 425/425/425
f 424/424/424 426/426/426 428/428/428
f 429/429/429 427/427/427 425/425/425
f 426/426/426 430/430/430 428/428/428
f 430/430/430 427/427/427 429/429/429
f 428/428/428 430/430/430 429/429/429
f 433/433/433 432/432/432 431/431/431
f 432/432/432 434/434/434 431/431/431
f 435/435/435 432/432/432 433/433/433
f 431/431/431 434/434/434 436/436/436
f 437/437/437 435/435/435 433/433/433
f 434/434/434 438/438/438 436/436/436
f 439/439/439 435/435/435 437/437/437
f 436/436/436 438/438/438 440/440/440
f 441/441/441 439/439/439 437/437/437
f 438/438/438 442/442/442 440/440/440
f 443/443/443 439/439/439 441/441/441
f 440/440/440 442/442/442 444/444/444
f 445/445/445 443/443/443 441/441/441
f 442/442/442 446/446/446 444/444/444
f 446/446/446 443/443/443 445/445/445
f 444/444/444 446/446/446 445/445/445
f 449/449/449 448/448/448 447/447/447
f 448/448/448 450/450/450 447/447/447
f 451/451/451 448/448/448 449/449/449
f 447/447/447 450/450/450 452/452/452
f 453/453/453 451/451/451 449/449/449
f 450/450/450 454/454/454 452/452/452
f 455/455/455 451/451/451 453/453/453
f 452/452/452 454/454/454 456/456/456
f 457/457/457 455/455/455 453/453/453
f 454/454/454 458/458/458 456/456/456
f 459/459/459 455/455/455 457/457/457
f 456/456/456 458/458/458 460/460/460
f 461/461/461 459/459/459 457/457/457
f 458/458/458 462/462/462 460/460/460
f 462/462/462 459/459/459 461/461/461
f 460/460/460 462/462/462 461/461/461
f 465/465/465 464/464/464 463/463/463
f 464/464/464 466/466/466 463/463/463
f 467/467/467 464/464/464 465/465/465
f 463/463/463 466/466/466 468/468/468
f 469/469/469 467/467/467 465/465/465
f 466/466/466 470/470/470 468/468/468
f 471/471/471 467/467/467 469/469/469
f 468/468/468 470/470/470 472/472/472
f 473/473/473 471/471/471 469/469/469
f 470/470/470 474/474/474 472/472/472
f 475/475/475 471/471/471 473/473/473
f 472/472/472 474/474/474 476/476/476
f 477/477/477 475/475/475 473/473/473
f 474/474/474 478/478/478 476/476/476
f 478/478/478 475/475/475 477/477/477
f 476/476/476 478/478/478 477/477/477
f 481/481/481 480/480/480 479/479/479
f 480/480/480 482/482/482 479/479/479
f 483/483/483 480/480/480 481/481/481
f 479/479/479 482/482/482 484/484/484
f 485/485/485 483/483/483 481/481/481
f 482/482/482 486/486/486 484/484/484
f 487/487/487 483/483/483 485/485/485
f 484/484/484 486/486/486 488/488/488
f 489/489/489 487/487/487 485/485/485
f 486/486/486 490/490/490 488/488/488
f 491/491/491 487/487/487 489/489/489
f 488/488/488 490/490/490 492/492/492
f 493/493/493 491/491/491 489/489/489
f 490/490/490 494/494/494 492/492/492
f 494/494/494 491/491/491 493/493/493
f 492/492/492 494/494/494 493/493/493
f 497/497/497 496/496/496 495/495/495
f 496/496/496 498/498/498 495/495/495
f 499/499/499 496/496/496 497/497/497
f 495/495/495 498/498/498 500/500/500
f 501/501/501 499/499/499 497/497/497
f 498/498/498 502/502/502 500/500/500
f 503/503/503 499/499/499 501/501/501
f 500/500/500 502/502/502 504/504/504
f 505/505/505 503/503/503 501/501/501
f 502/502/502 506/506/506 504/504/504
f 507/507/507 503/503/503 505/505/505
f 504/504/504 506/506/506 508/508/508
f 509/509/509 507/507/507 505/505/505
f 506/506/506 510/510/510 508/508/508
f 510/510/510 507/507/507 509/509/509
f 508/508/508 510/510/510 509/509/509
f 513/513/513 512/512/512 511/511/511
f 512/512/512 514/514/514 511/511/511
f 515/515/515 512/512/512 513/513/513
f 511/511/511 514/514/514 516/516/516
f 517/517/517 515/515/515 513/513/513
f 514/514/514 518/518/518 516/516/516
f 519/519/519 515/515/515 517/517/517
f 516/516/516 518/518/518 520/520/520
f 521/521/521 519/519/519 517/517/517
f 518/518/518 522/522/522 520/520/520
f 523/523/523 519/519/519 521/521/521
f 520/520/520 522/522/522 524/524/524
f 525/525/525 523/523/523 521/521/521
f 522/522/522 526/526/526 524/524/524
f 526/526/526 523/523/523 525/525/525
f 524/524/524 526/526/526 525/525/525
f 529/529/529 528/528/528 527/527/527
f 530/530/530 529/529/529 527/527/527
f 527/527/527 528/528/528 531/531/531
f 532/532/532 529/529/529 530/530/530
f 528/528/528 533/533/533 531/531/531
f 534/534/534 532/532/532 530/530/530
f 531/531/531 533/533/533 535/535/535
f 536/536/536 532/532/532 534/534/534
f 533/533/533 537/537/537 535/535/535
f 538/538/538 536/536/536 534/534/534
f 535/535/535 537/537/537 539/539/539
f 540/540/540 536/536/536 538/538/538
f 537/537/537 541/541/541 539/539/539
f 542/542/542 540/540/540 538/538/538
f 539/539/539 541/541/541 542/542/542
f 541/541/541 540/540/540 542/542/542
f 545/545/545 544/544/544 543/543/543
f 546/546/546 545/545/545 543/543/543
f 543/543/543 544/544/544 547/547/547
f 548/548/548 545/545/545 546/546/546
f 544/544/544 549/549/549 547/547/547
f 550/550/550 548/548/548 546/546/546
f 547/547/547 549/549/549 551/551/551
f 552/552/552 548/548/548 550/550/550
f 549/549/549 553/553/553 551/551/551
f 554/554/554 552/552/552 550/550/550
f 551/551/551 553/553/553 555/555/555
f 556/556/556 552/552/552 554/554/554
f 553/553/553 557/557/557 555/555/555
f 558/558/558 556/556/556 554/554/554
f 555/555/555 557/557/557 558/558/558
f 557/557/557 556/556/556 558/558/558
