g P_Vert_OneCap_Upsidedown
v -0.0393075086 -0.499999404 0.0854052529
v 0.0391132794 0.499999851 0.085405156
v 0.0391134359 -0.499999404 0.0854052529
v -0.0393076651 0.499999851 0.085405156
v -0.0857136622 -0.499999404 0.0389989838
v -0.0857138261 0.499999851 0.0389989763
v 0.0391134359 -0.499999404 0.0854052529
v 0.0391132794 0.499999851 0.085405156
v 0.0855197385 0.499999851 0.0389989763
v 0.0855197385 -0.499999404 0.0389989838
v 0.0855197385 -0.499999404 0.0389989838
v 0.0855197385 0.499999851 0.0389989763
v 0.0855197385 0.499999851 -0.0394221097
v 0.0855197385 -0.499999404 -0.0394221097
v 0.0855197385 -0.499999404 -0.0394221097
v 0.0855197385 0.499999851 -0.0394221097
v 0.0391132794 0.499999851 -0.0858283788
v 0.0391134359 -0.499999404 -0.0858283788
v -0.0393076651 0.499999851 -0.0858283788
v -0.0393075086 -0.499999404 -0.0858283788
v -0.0857138261 0.499999851 -0.0394221097
v -0.0857136622 -0.499999404 -0.0394221097
v -0.0857136622 -0.499999404 -0.0394221097
v -0.0857138261 0.499999851 -0.0394221097
v -0.0857138261 0.499999851 0.0389989763
v -0.0857136622 -0.499999404 0.0389989838
v 0.0455790795 -0.516179502 0.0995176658
v 0.0391151384 -0.516179144 0.0854041874
v -0.039305497 -0.516179204 0.0854041874
v -0.0457691289 -0.516179502 0.0995176658
v -0.0457691289 -0.516179502 -0.09994293
v -0.039305497 -0.516179204 -0.0858294442
v 0.0391151384 -0.516179144 -0.0858294442
v 0.0455790795 -0.516179502 -0.09994293
v -0.0998252109 -0.516179502 0.0454616547
v -0.085712105 -0.516179144 0.0389980115
v -0.085711956 -0.516179144 -0.039423082
v -0.0998252109 -0.516179502 -0.0458868295
v 0.0996353105 -0.516179502 -0.0458868295
v 0.0855216011 -0.516179144 -0.0394231789
v 0.0855216011 -0.516179144 0.0389980115
v 0.0996353105 -0.516179502 0.0454616547
v 0.0996353105 -0.516179502 0.0454616547
v 0.0855216011 -0.516179144 0.0389980115
v 0.0391151384 -0.516179144 0.0854041874
v 0.0455790795 -0.516179502 0.0995176658
v -0.0457691289 -0.516179502 0.0995176658
v -0.039305497 -0.516179204 0.0854041874
v -0.085712105 -0.516179144 0.0389980115
v -0.0998252109 -0.516179502 0.0454616547
v 0.0455790795 -0.516179502 -0.09994293
v 0.0391151384 -0.516179144 -0.0858294442
v 0.0855216011 -0.516179144 -0.0394231789
v 0.0996353105 -0.516179502 -0.0458868295
v -0.0998252109 -0.516179502 -0.0458868295
v -0.085711956 -0.516179144 -0.039423082
v -0.039305497 -0.516179204 -0.0858294442
v -0.0457691289 -0.516179502 -0.09994293
v -0.0545282364 -0.505593717 0.118643433
v -0.0545282364 -0.45309782 0.11864353
v 0.0543382876 -0.45309782 0.11864353
v 0.0543382876 -0.505593717 0.118643433
v 0.0543382876 -0.505593717 -0.119068697
v 0.0543382876 -0.453097463 -0.119068645
v -0.0545282364 -0.45309782 -0.119068645
v -0.0545282364 -0.505593717 -0.119068697
v -0.118951052 -0.505593717 -0.0546459854
v -0.118951052 -0.45309782 -0.0546457954
v -0.118951052 -0.45309782 0.0542208105
v -0.118951052 -0.505593717 0.0542207137
v 0.118760914 -0.505593717 0.0542207137
v 0.118760914 -0.45309782 0.0542207137
v 0.118760914 -0.453098178 -0.0546459854
v 0.118760914 -0.505593717 -0.0546459854
v 0.0543382876 -0.505593717 0.118643433
v 0.0543382876 -0.45309782 0.11864353
v 0.118760914 -0.45309782 0.0542207137
v 0.118760914 -0.505593717 0.0542207137
v -0.118951052 -0.505593717 0.0542207137
v -0.118951052 -0.45309782 0.0542208105
v -0.0545282364 -0.45309782 0.11864353
v -0.0545282364 -0.505593717 0.118643433
v 0.118760914 -0.505593717 -0.0546459854
v 0.118760914 -0.453098178 -0.0546459854
v 0.0543382876 -0.453097463 -0.119068645
v 0.0543382876 -0.505593717 -0.119068697
v -0.0545282364 -0.505593717 -0.119068697
v -0.0545282364 -0.45309782 -0.119068645
v -0.118951052 -0.45309782 -0.0546457954
v -0.118951052 -0.505593717 -0.0546459854
v 0.0543382876 -0.45309782 0.11864353
v -0.0545282364 -0.45309782 0.11864353
v -0.0471470244 -0.443728626 0.103591442
v 0.0469565205 -0.443728626 0.103591248
v -0.0545282364 -0.45309782 -0.119068645
v 0.0543382876 -0.453097463 -0.119068645
v 0.0469565205 -0.443728626 -0.104016609
v -0.0471470244 -0.443728626 -0.104016572
v -0.118951052 -0.45309782 0.0542208105
v -0.118951052 -0.45309782 -0.0546457954
v -0.103899211 -0.443728626 -0.0472646505
v -0.103899375 -0.443728626 0.0468394831
v 0.118760914 -0.453098178 -0.0546459854
v 0.118760914 -0.45309782 0.0542207137
v 0.103708714 -0.443728626 0.0468394831
v 0.103708714 -0.443728626 -0.0472646505
v 0.118760914 -0.45309782 0.0542207137
v 0.0543382876 -0.45309782 0.11864353
v 0.0469565205 -0.443728626 0.103591248
v 0.103708714 -0.443728626 0.0468394831
v -0.0545282364 -0.45309782 0.11864353
v -0.118951052 -0.45309782 0.0542208105
v -0.103899375 -0.443728626 0.0468394831
v -0.0471470244 -0.443728626 0.103591442
v 0.0543382876 -0.453097463 -0.119068645
v 0.118760914 -0.453098178 -0.0546459854
v 0.103708714 -0.443728626 -0.0472646505
v 0.0469565205 -0.443728626 -0.104016609
v -0.118951052 -0.45309782 -0.0546457954
v -0.0545282364 -0.45309782 -0.119068645
v -0.0471470244 -0.443728626 -0.104016572
v -0.103899211 -0.443728626 -0.0472646505
v 0.0455790795 -0.516179502 0.0995176658
v -0.0457691289 -0.516179502 0.0995176658
v -0.0545282364 -0.505593717 0.118643433
v 0.0543382876 -0.505593717 0.118643433
v -0.0457691289 -0.516179502 -0.09994293
v 0.0455790795 -0.516179502 -0.09994293
v 0.0543382876 -0.505593717 -0.119068697
v -0.0545282364 -0.505593717 -0.119068697
v -0.0998252109 -0.516179502 0.0454616547
v -0.0998252109 -0.516179502 -0.0458868295
v -0.118951052 -0.505593717 -0.0546459854
v -0.118951052 -0.505593717 0.0542207137
v 0.0996353105 -0.516179502 -0.0458868295
v 0.0996353105 -0.516179502 0.0454616547
v 0.118760914 -0.505593717 0.0542207137
v 0.118760914 -0.505593717 -0.0546459854
v 0.0996353105 -0.516179502 0.0454616547
v 0.0455790795 -0.516179502 0.0995176658
v 0.0543382876 -0.505593717 0.118643433
v 0.118760914 -0.505593717 0.0542207137
v -0.0457691289 -0.516179502 0.0995176658
v -0.0998252109 -0.516179502 0.0454616547
v -0.118951052 -0.505593717 0.0542207137
v -0.0545282364 -0.505593717 0.118643433
v 0.0455790795 -0.516179502 -0.09994293
v 0.0996353105 -0.516179502 -0.0458868295
v 0.118760914 -0.505593717 -0.0546459854
v 0.0543382876 -0.505593717 -0.119068697
v -0.0998252109 -0.516179502 -0.0458868295
v -0.0457691289 -0.516179502 -0.09994293
v -0.0545282364 -0.505593717 -0.119068697
v -0.118951052 -0.505593717 -0.0546459854
v 0.0391151384 -0.425888628 0.0854040906
v 0.0469565205 -0.443728626 0.103591248
v -0.0471470244 -0.443728626 0.103591442
v -0.039305497 -0.425888628 0.0854041874
v -0.039305497 -0.425888628 0.0854041874
v -0.0471470244 -0.443728626 0.103591442
v -0.103899375 -0.443728626 0.0468394831
v -0.085712105 -0.425888628 0.0389979146
v -0.085712105 -0.425888628 0.0389979146
v -0.103899375 -0.443728626 0.0468394831
v -0.103899211 -0.443728626 -0.0472646505
v -0.085711956 -0.425888628 -0.0394231789
v -0.085711956 -0.425888628 -0.0394231789
v -0.103899211 -0.443728626 -0.0472646505
v -0.0471470244 -0.443728626 -0.104016572
v -0.039305497 -0.425888628 -0.0858294442
v -0.039305497 -0.425888628 -0.0858294442
v -0.0471470244 -0.443728626 -0.104016572
v 0.0469565205 -0.443728626 -0.104016609
v 0.0391151384 -0.425888628 -0.0858295411
v 0.0391151384 -0.425888628 -0.0858295411
v 0.0469565205 -0.443728626 -0.104016609
v 0.103708714 -0.443728626 -0.0472646505
v 0.0855216011 -0.425888628 -0.0394231789
v 0.0855216011 -0.425888628 -0.0394231789
v 0.103708714 -0.443728626 -0.0472646505
v 0.103708714 -0.443728626 0.0468394831
v 0.0855216011 -0.425888628 0.0389979146
v 0.0855216011 -0.425888628 0.0389979146
v 0.103708714 -0.443728626 0.0468394831
v 0.0469565205 -0.443728626 0.103591248
v 0.0391151384 -0.425888628 0.0854040906
v 0.0855216011 -0.516179144 -0.0394231789
v 0.0391151384 -0.516179144 -0.0858294442
v -0.039305497 -0.516179204 -0.0858294442
v -0.085711956 -0.516179144 -0.039423082
v 0.0855216011 -0.516179144 0.0389980115
v -0.085712105 -0.516179144 0.0389980115
v 0.0391151384 -0.516179144 0.0854041874
v -0.039305497 -0.516179204 0.0854041874
v -0.064182736 0.499999851 -0.0295612719
v -0.0294468682 0.499999851 -0.0642973334
v 0.0292526409 0.499999851 -0.0642973334
v 0.0639884993 0.499999851 -0.0295612719
v -0.064182736 0.499999851 0.0291381441
v 0.0639884993 0.499999851 0.0291381441
v -0.0294468682 0.499999851 0.0638741031
v 0.0292526409 0.499999851 0.0638741031
v 0.0855197385 0.499999851 0.0389989763
v 0.0639884993 0.499999851 0.0291381441
v 0.0639884993 0.499999851 -0.0295612719
v 0.0855197385 0.499999851 -0.0394221097
v 0.0391132794 0.499999851 0.085405156
v 0.0292526409 0.499999851 -0.0642973334
v 0.0292526409 0.499999851 0.0638741031
v 0.0391132794 0.499999851 -0.0858283788
v -0.0393076651 0.499999851 0.085405156
v -0.0294468682 0.499999851 -0.0642973334
v -0.0294468682 0.499999851 0.0638741031
v -0.0393076651 0.499999851 -0.0858283788
v -0.0857138261 0.499999851 0.0389989763
v -0.064182736 0.499999851 -0.0295612719
v -0.064182736 0.499999851 0.0291381441
v -0.0857138261 0.499999851 -0.0394221097
vt 0.646167874 0.641823113
vt 0.628699481 0.487325311
vt 0.628699481 0.641823113
vt 0.646167874 0.487325311
vt 0.66171366 0.641823113
vt 0.66171366 0.487325311
vt 0.761307657 0.641823113
vt 0.761307657 0.487325311
vt 0.745886803 0.487325311
vt 0.745886803 0.641823113
vt 0.745886803 0.641823113
vt 0.745886803 0.487325311
vt 0.728265285 0.487325311
vt 0.728265285 0.641823113
vt 0.728265285 0.641823113
vt 0.728265285 0.487325311
vt 0.712555826 0.487325311
vt 0.712555826 0.641823113
vt 0.694801211 0.487325311
vt 0.694801211 0.641823113
vt 0.679043531 0.487325311
vt 0.679043531 0.641823113
vt 0.679043531 0.641823113
vt 0.679043531 0.487325311
vt 0.66171366 0.487325311
vt 0.66171366 0.641823113
vt 0.809641063 0.867051542
vt 0.81721288 0.863548517
vt 0.817213118 0.845929682
vt 0.809639037 0.842419565
vt 0.863234699 0.842419565
vt 0.855625808 0.845930219
vt 0.85567677 0.863509774
vt 0.863235474 0.866985977
vt 0.824202478 0.827788055
vt 0.827640235 0.835522473
vt 0.845178783 0.835522473
vt 0.848657548 0.827718258
vt 0.848647356 0.881613791
vt 0.845210195 0.873935342
vt 0.827651501 0.873932242
vt 0.824221313 0.881635189
vt 0.824221313 0.881635189
vt 0.827651501 0.873932242
vt 0.81721288 0.863548517
vt 0.809641063 0.867051542
vt 0.809639037 0.842419565
vt 0.817213118 0.845929682
vt 0.827640235 0.835522473
vt 0.824202478 0.827788055
vt 0.863235474 0.866985977
vt 0.85567677 0.863509774
vt 0.845210195 0.873935342
vt 0.848647356 0.881613791
vt 0.848657548 0.827718258
vt 0.845178783 0.835522473
vt 0.855625808 0.845930219
vt 0.863234699 0.842419565
vt 0.987108707 0.884949565
vt 0.973068118 0.885115147
vt 0.973068118 0.910952628
vt 0.987108707 0.910764635
vt 0.987108707 0.791189849
vt 0.973068118 0.791127861
vt 0.973068118 0.816743255
vt 0.987108707 0.816744924
vt 0.987108707 0.838062286
vt 0.973068118 0.838078499
vt 0.973068118 0.863704085
vt 0.987108707 0.8636204
vt 0.987108707 0.744359791
vt 0.973068118 0.743715644
vt 0.973068118 0.769724965
vt 0.987108707 0.769877672
vt 0.987108946 0.722877681
vt 0.973068833 0.721765161
vt 0.973068118 0.743715644
vt 0.987108707 0.744359791
vt 0.987108707 0.8636204
vt 0.973068118 0.863704085
vt 0.973068118 0.885115147
vt 0.987108707 0.884949565
vt 0.987108707 0.769877672
vt 0.973068118 0.769724965
vt 0.973068118 0.791127861
vt 0.987108707 0.791189849
vt 0.987108707 0.816744924
vt 0.973068118 0.816743255
vt 0.973068118 0.838078499
vt 0.987108707 0.838062286
vt 0.863235474 0.866985977
vt 0.863234699 0.842419565
vt 0.855625808 0.845930219
vt 0.85567677 0.863509774
vt 0.809639037 0.842419565
vt 0.809641063 0.867051542
vt 0.81721288 0.863548517
vt 0.817213118 0.845929682
vt 0.848657548 0.827718258
vt 0.824202478 0.827788055
vt 0.827640235 0.835522473
vt 0.845178783 0.835522473
vt 0.824221313 0.881635189
vt 0.848647356 0.881613791
vt 0.845210195 0.873935342
vt 0.827651501 0.873932242
vt 0.848647356 0.881613791
vt 0.863235474 0.866985977
vt 0.85567677 0.863509774
vt 0.845210195 0.873935342
vt 0.863234699 0.842419565
vt 0.848657548 0.827718258
vt 0.845178783 0.835522473
vt 0.855625808 0.845930219
vt 0.809641063 0.867051542
vt 0.824221313 0.881635189
vt 0.827651501 0.873932242
vt 0.81721288 0.863548517
vt 0.824202478 0.827788055
vt 0.809639037 0.842419565
vt 0.817213118 0.845929682
vt 0.827640235 0.835522473
vt 0.993400812 0.909639895
vt 0.993400574 0.884889483
vt 0.987108707 0.884949565
vt 0.987108707 0.910764635
vt 0.993400574 0.816674829
vt 0.993400574 0.791299641
vt 0.987108707 0.791189849
vt 0.987108707 0.816744924
vt 0.993400574 0.86350441
vt 0.993400574 0.838126421
vt 0.987108707 0.838062286
vt 0.987108707 0.8636204
vt 0.993400574 0.769903004
vt 0.993400574 0.744787395
vt 0.987108707 0.744359791
vt 0.987108707 0.769877672
vt 0.993400574 0.744787395
vt 0.993400812 0.724212945
vt 0.987108946 0.722877681
vt 0.987108707 0.744359791
vt 0.993400574 0.884889483
vt 0.993400574 0.86350441
vt 0.987108707 0.8636204
vt 0.987108707 0.884949565
vt 0.993400574 0.791299641
vt 0.993400574 0.769903004
vt 0.987108707 0.769877672
vt 0.987108707 0.791189849
vt 0.993400574 0.838126421
vt 0.993400574 0.816674829
vt 0.987108707 0.816744924
vt 0.987108707 0.838062286
vt 0.646735251 0.482645184
vt 0.646735251 0.478457779
vt 0.628274739 0.478457779
vt 0.629202187 0.482645184
vt 0.761447191 0.482645184
vt 0.762374878 0.478457779
vt 0.746695638 0.478457779
vt 0.746695638 0.482645184
vt 0.746695638 0.482645184
vt 0.746695638 0.478457779
vt 0.728664398 0.478457779
vt 0.728664398 0.482645184
vt 0.728664398 0.482645184
vt 0.728664398 0.478457779
vt 0.713390887 0.478457779
vt 0.713390887 0.482645184
vt 0.713390887 0.482645184
vt 0.713390887 0.478457779
vt 0.695324779 0.478457779
vt 0.695324779 0.482645184
vt 0.695324779 0.482645184
vt 0.695324779 0.478457779
vt 0.680039525 0.478457779
vt 0.680039525 0.482645184
vt 0.680039525 0.482645184
vt 0.680039525 0.478457779
vt 0.66198498 0.478457779
vt 0.66198498 0.482645184
vt 0.66198498 0.482645184
vt 0.66198498 0.478457779
vt 0.646735251 0.478457779
vt 0.646735251 0.482645184
vt 0.783273816 0.0552132577
vt 0.783758581 0.0547284782
vt 0.783758581 0.053909272
vt 0.783273816 0.0534244776
vt 0.78245461 0.0552132577
vt 0.78245461 0.0534244776
vt 0.781969845 0.0547284782
vt 0.781969845 0.053909272
vt 0.782213688 0.0524368286
vt 0.781850696 0.0520739555
vt 0.781237543 0.0520739555
vt 0.78087467 0.0524368286
vt 0.782213688 0.0530500412
vt 0.78087467 0.0530500412
vt 0.781850696 0.0534129143
vt 0.781237543 0.0534129143
vt 0.846479297 0.935384333
vt 0.843735039 0.929398477
vt 0.827270567 0.929398477
vt 0.824480653 0.935384333
vt 0.859559238 0.922462642
vt 0.81744504 0.919713795
vt 0.853556871 0.919795096
vt 0.811386466 0.922435224
vt 0.859565675 0.90056026
vt 0.817498744 0.90336436
vt 0.853503048 0.903330386
vt 0.811426222 0.900571525
vt 0.846523404 0.887540162
vt 0.827284038 0.893567502
vt 0.8437621 0.893562675
vt 0.824524939 0.887521267
vn -0.382683724 0 0.923879445
vn 0.382682621 1.0063907E-07 0.923879921
vn 0.382682651 1.0063907E-07 0.923879802
vn -0.382683843 0 0.923879445
vn -0.707107306 0 0.707106173
vn -0.707107306 0 0.707106173
vn 0.382682651 1.0063907E-07 0.923879802
vn 0.382682621 1.0063907E-07 0.923879921
vn 0.707105517 0 0.707108021
vn 0.707105517 0 0.707108021
vn 1 0 0
vn 1 0 0
vn 1 0 0
vn 1 0 0
vn 0.707105935 0 -0.707107604
vn 0.707105935 0 -0.707107604
vn 0.3826828 0 -0.923879802
vn 0.38268289 0 -0.923879743
vn -0.382684082 0 -0.923879325
vn -0.382684082 0 -0.923879325
vn -0.707107663 -1.1132952E-07 -0.707105875
vn -0.707107663 -1.1132952E-07 -0.707105875
vn -1 -1.57451765E-07 0
vn -1 -1.57451765E-07 0
vn -1 -1.57451765E-07 0
vn -1 -1.57451765E-07 0
vn 5.70736688E-07 -1 -2.40285663E-05
vn 5.70736688E-07 -1 -2.40285717E-05
vn 5.70736745E-07 -1 -2.40285717E-05
vn 5.70736745E-07 -1 -2.40285717E-05
vn 5.70736745E-07 -1 2.40285717E-05
vn 5.70736745E-07 -1 2.40285717E-05
vn 5.70736688E-07 -1 2.40285717E-05
vn 5.70736688E-07 -1 2.40285663E-05
vn 2.74618142E-05 -1 0
vn 2.74618142E-05 -1 0
vn 2.74618142E-05 -1 0
vn 2.74618142E-05 -1 0
vn -2.74607683E-05 -1 0
vn -2.74607683E-05 -1 0
vn -2.74607683E-05 -1 0
vn -2.74607683E-05 -1 0
vn -1.88348567E-05 -1 -1.8834955E-05
vn -1.88348567E-05 -1 -1.8834955E-05
vn -1.88348567E-05 -1 -1.8834955E-05
vn -1.88348567E-05 -1 -1.8834955E-05
vn 1.59986321E-05 -1 -1.69631858E-05
vn 1.59986321E-05 -1 -1.69631876E-05
vn 1.59986321E-05 -1 -1.69631876E-05
vn 1.59986321E-05 -1 -1.69631876E-05
vn -1.88348731E-05 -1 1.88349331E-05
vn -1.88348731E-05 -1 1.88349368E-05
vn -1.88348731E-05 -1 1.88349331E-05
vn -1.88348731E-05 -1 1.88349331E-05
vn 1.59985684E-05 -1 1.69630493E-05
vn 1.59985684E-05 -1 1.69630493E-05
vn 1.59985684E-05 -1 1.69630493E-05
vn 1.59985684E-05 -1 1.69630493E-05
vn -0 -1.84573025E-06 1
vn -0 -1.84573025E-06 1
vn -0 -1.84573025E-06 1
vn -0 -1.84573025E-06 1
vn -0 9.22862228E-07 -1
vn -0 9.22862228E-07 -1
vn -0 9.22862228E-07 -1
vn -0 9.22862228E-07 -1
vn -1 0 0
vn -1 0 0
vn -1 0 0
vn -1 0 0
vn 1 0 0
vn 1 0 0
vn 1 0 0
vn 1 0 0
vn 0.707107544 -6.59298166E-07 0.707106054
vn 0.707107544 -6.59298223E-07 0.707106054
vn 0.707107544 -6.5929828E-07 0.707106054
vn 0.707107544 -6.5929828E-07 0.707106054
vn -0.707106233 -1.2864341E-06 0.707107306
vn -0.707106173 -1.2864341E-06 0.707107306
vn -0.707106233 -1.2864341E-06 0.707107306
vn -0.707106173 -1.2864341E-06 0.707107306
vn 0.707107067 3.21609065E-07 -0.707106471
vn 0.707107067 3.21609093E-07 -0.707106471
vn 0.707107008 3.21609036E-07 -0.707106471
vn 0.707107008 3.21609036E-07 -0.707106471
vn -0.70710665 1.64020298E-06 -0.707106888
vn -0.70710665 1.64020275E-06 -0.707106829
vn -0.70710665 1.64020275E-06 -0.707106829
vn -0.70710665 1.64020275E-06 -0.707106829
vn 5.04906041E-07 0.848970771 0.52843982
vn 5.04906041E-07 0.848970711 0.52843982
vn 7.75060528E-07 0.800462663 0.599382579
vn 7.75059675E-07 0.800462842 0.599382401
vn -1.54478892E-06 0.848973155 -0.528435946
vn -1.54478892E-06 0.848973155 -0.528435946
vn -1.17654349E-06 0.800463915 -0.59938097
vn -1.17654054E-06 0.800463438 -0.599381447
vn -0.528450608 0.848963976 -4.08740476E-07
vn -0.528450608 0.848963976 -4.08740505E-07
vn -0.599388599 0.800458193 -7.54380778E-07
vn -0.599388182 0.80045855 -7.54378277E-07
vn 0.528446138 0.848966837 -1.41853138E-06
vn 0.528446138 0.848966837 -1.41853138E-06
vn 0.599387169 0.800459266 -8.66055302E-07
vn 0.599387288 0.800459146 -8.66054506E-07
vn 0.35959968 0.861031651 0.359600335
vn 0.35959962 0.861031651 0.359600395
vn 0.416811317 0.807796478 0.416813195
vn 0.41681096 0.807796896 0.416812718
vn -0.359606415 0.86102587 0.359607786
vn -0.359606355 0.86102587 0.359607786
vn -0.41681388 0.807793558 0.416816205
vn -0.41681388 0.807793617 0.416816145
vn 0.359602988 0.861030996 -0.359598786
vn 0.359603047 0.861030996 -0.359598786
vn 0.416813731 0.807795882 -0.416811854
vn 0.416814178 0.807795405 -0.416812301
vn -0.359606922 0.861025691 -0.359607637
vn -0.359606922 0.861025691 -0.359607637
vn -0.416815072 0.807792842 -0.416816354
vn -0.416814834 0.80779314 -0.416816145
vn -0 -0.874926031 0.484256595
vn -0 -0.874926031 0.484256655
vn -0 -0.874926031 0.484256595
vn -0 -0.874926031 0.484256655
vn -0 -0.874926031 -0.484256655
vn -0 -0.874926031 -0.484256595
vn -0 -0.874926031 -0.484256655
vn -0 -0.874926031 -0.484256595
vn -0.484255224 -0.874926865 0
vn -0.484255224 -0.874926865 0
vn -0.484255224 -0.874926865 0
vn -0.484255224 -0.874926865 0
vn 0.484259993 -0.874924242 0
vn 0.484259993 -0.874924242 0
vn 0.484259993 -0.874924242 0
vn 0.484259993 -0.874924242 0
vn 0.334470838 -0.881055176 0.334471226
vn 0.334470838 -0.881055176 0.334471226
vn 0.334470838 -0.881055176 0.334471226
vn 0.334470868 -0.881055176 0.334471285
vn -0.334470123 -0.881055713 0.33447063
vn -0.334470123 -0.881055713 0.3344706
vn -0.334470123 -0.881055713 0.3344706
vn -0.334470123 -0.881055713 0.3344706
vn 0.33447051 -0.881055534 -0.334470659
vn 0.33447051 -0.881055534 -0.334470659
vn 0.33447051 -0.881055534 -0.334470659
vn 0.334470481 -0.881055534 -0.334470659
vn -0.334469795 -0.88105607 -0.334469944
vn -0.334469855 -0.88105607 -0.334470063
vn -0.334469825 -0.88105607 -0.334470063
vn -0.334469795 -0.88105607 -0.334469944
vn 1.18112393E-06 0.713888407 0.700259447
vn 7.75059675E-07 0.800462842 0.599382401
vn 7.75060528E-07 0.800462663 0.599382579
vn 1.18112405E-06 0.713888407 0.700259447
vn -0.492142171 0.718045115 0.492145658
vn -0.41681388 0.807793617 0.416816145
vn -0.41681388 0.807793558 0.416816205
vn -0.492142171 0.718045115 0.492145598
vn -0.700258493 0.71388942 -1.27735473E-06
vn -0.599388182 0.80045855 -7.54378277E-07
vn -0.599388599 0.800458193 -7.54380778E-07
vn -0.700258493 0.71388942 -1.27735439E-06
vn -0.492143989 0.718043506 -0.492146164
vn -0.416814834 0.80779314 -0.416816145
vn -0.416815072 0.807792842 -0.416816354
vn -0.492143989 0.718043506 -0.492146164
vn -5.90564184E-07 0.713886261 -0.700261772
vn -1.17654054E-06 0.800463438 -0.599381447
vn -1.17654349E-06 0.800463915 -0.59938097
vn -5.90564127E-07 0.713886201 -0.700261772
vn 0.492146045 0.718041122 -0.492147475
vn 0.416814178 0.807795405 -0.416812301
vn 0.416813731 0.807795882 -0.416811854
vn 0.492146045 0.718041182 -0.492147535
vn 0.700261593 0.71388638 0
vn 0.599387288 0.800459146 -8.66054506E-07
vn 0.599387169 0.800459266 -8.66055302E-07
vn 0.700261652 0.713886321 0
vn 0.492144108 0.718042433 0.492147624
vn 0.41681096 0.807796896 0.416812718
vn 0.416811317 0.807796478 0.416813195
vn 0.492144108 0.718042433 0.492147565
vn 1.41542287E-07 -1 1.22002717E-07
vn 1.41542259E-07 -1 1.22002703E-07
vn 1.41542259E-07 -1 1.22002703E-07
vn 1.41542259E-07 -1 1.22002703E-07
vn 1.41542259E-07 -1 1.22002703E-07
vn 1.41542259E-07 -1 1.22002717E-07
vn 1.41542259E-07 -1 1.22002703E-07
vn 1.41542259E-07 -1 1.22002703E-07
vn -0 1 0
vn -0 1 0
vn -0 1 0
vn -0 1 0
vn -0 1 0
vn -0 1 0
vn -0 1 0
vn -0 1 0
vn -0 1 0
vn -0 1 0
vn -0 1 0
vn -0 1 0
vn -0 1 0
vn -0 1 0
vn -0 1 0
vn -0 1 0
vn -0 1 0
vn -0 1 0
vn -0 1 0
vn -0 1 0
vn -0 1 0
vn -0 1 0
vn -0 1 0
vn -0 1 0
g P_Vert_OneCap_Upsidedown_0
f 3/3/3 2/2/2 1/1/1
f 2/2/2 4/4/4 1/1/1
f 1/1/1 4/4/4 5/5/5
f 4/4/4 6/6/6 5/5/5
f 9/9/9 8/8/8 7/7/7
f 10/10/10 9/9/9 7/7/7
f 13/13/13 12/12/12 11/11/11
f 14/14/14 13/13/13 11/11/11
f 17/17/17 16/16/16 15/15/15
f 18/18/18 17/17/17 15/15/15
f 19/19/19 17/17/17 18/18/18
f 20/20/20 19/19/19 18/18/18
f 21/21/21 19/19/19 20/20/20
f 22/22/22 21/21/21 20/20/20
f 25/25/25 24/24/24 23/23/23
f 26/26/26 25/25/25 23/23/23
f 29/29/29 28/28/28 27/27/27
f 30/30/30 29/29/29 27/27/27
f 33/33/33 32/32/32 31/31/31
f 34/34/34 33/33/33 31/31/31
f 37/37/37 36/36/36 35/35/35
f 38/38/38 37/37/37 35/35/35
f 41/41/41 40/40/40 39/39/39
f 42/42/42 41/41/41 39/39/39
f 45/45/45 44/44/44 43/43/43
f 46/46/46 45/45/45 43/43/43
f 49/49/49 48/48/48 47/47/47
f 50/50/50 49/49/49 47/47/47
f 53/53/53 52/52/52 51/51/51
f 54/54/54 53/53/53 51/51/51
f 57/57/57 56/56/56 55/55/55
f 58/58/58 57/57/57 55/55/55
f 61/61/61 60/60/60 59/59/59
f 62/62/62 61/61/61 59/59/59
f 65/65/65 64/64/64 63/63/63
f 66/66/66 65/65/65 63/63/63
f 69/69/69 68/68/68 67/67/67
f 70/70/70 69/69/69 67/67/67
f 73/73/73 72/72/72 71/71/71
f 74/74/74 73/73/73 71/71/71
f 77/77/77 76/76/76 75/75/75
f 78/78/78 77/77/77 75/75/75
f 81/81/81 80/80/80 79/79/79
f 82/82/82 81/81/81 79/79/79
f 85/85/85 84/84/84 83/83/83
f 86/86/86 85/85/85 83/83/83
f 89/89/89 88/88/88 87/87/87
f 90/90/90 89/89/89 87/87/87
f 93/93/93 92/92/92 91/91/91
f 94/94/94 93/93/93 91/91/91
f 97/97/97 96/96/96 95/95/95
f 98/98/98 97/97/97 95/95/95
f 101/101/101 100/100/100 99/99/99
f 102/102/102 101/101/101 99/99/99
f 105/105/105 104/104/104 103/103/103
f 106/106/106 105/105/105 103/103/103
f 109/109/109 108/108/108 107/107/107
f 110/110/110 109/109/109 107/107/107
f 113/113/113 112/112/112 111/111/111
f 114/114/114 113/113/113 111/111/111
f 117/117/117 116/116/116 115/115/115
f 118/118/118 117/117/117 115/115/115
f 121/121/121 120/120/120 119/119/119
f 122/122/122 121/121/121 119/119/119
f 125/125/125 124/124/124 123/123/123
f 126/126/126 125/125/125 123/123/123
f 129/129/129 128/128/128 127/127/127
f 130/130/130 129/129/129 127/127/127
f 133/133/133 132/132/132 131/131/131
f 134/134/134 133/133/133 131/131/131
f 137/137/137 136/136/136 135/135/135
f 138/138/138 137/137/137 135/135/135
f 141/141/141 140/140/140 139/139/139
f 142/142/142 141/141/141 139/139/139
f 145/145/145 144/144/144 143/143/143
f 146/146/146 145/145/145 143/143/143
f 149/149/149 148/148/148 147/147/147
f 150/150/150 149/149/149 147/147/147
f 153/153/153 152/152/152 151/151/151
f 154/154/154 153/153/153 151/151/151
f 157/157/157 156/156/156 155/155/155
f 158/158/158 157/157/157 155/155/155
f 161/161/161 160/160/160 159/159/159
f 162/162/162 161/161/161 159/159/159
f 165/165/165 164/164/164 163/163/163
f 166/166/166 165/165/165 163/163/163
f 169/169/169 168/168/168 167/167/167
f 170/170/170 169/169/169 167/167/167
f 173/173/173 172/172/172 171/171/171
f 174/174/174 173/173/173 171/171/171
f 177/177/177 176/176/176 175/175/175
f 178/178/178 177/177/177 175/175/175
f 181/181/181 180/180/180 179/179/179
f 182/182/182 181/181/181 179/179/179
f 185/185/185 184/184/184 183/183/183
f 186/186/186 185/185/185 183/183/183
f 189/189/189 188/188/188 187/187/187
f 187/187/187 190/190/190 189/189/189
f 187/187/187 191/191/191 190/190/190
f 191/191/191 192/192/192 190/190/190
f 191/191/191 193/193/193 192/192/192
f 193/193/193 194/194/194 192/192/192
f 197/197/197 196/196/196 195/195/195
f 195/195/195 198/198/198 197/197/197
f 195/195/195 199/199/199 198/198/198
f 199/199/199 200/200/200 198/198/198
f 199/199/199 201/201/201 200/200/200
f 201/201/201 202/202/202 200/200/200
f 205/205/205 204/204/204 203/203/203
f 206/206/206 205/205/205 203/203/203
f 203/203/203 204/204/204 207/207/207
f 208/208/208 205/205/205 206/206/206
f 204/204/204 209/209/209 207/207/207
f 210/210/210 208/208/208 206/206/206
f 207/207/207 209/209/209 211/211/211
f 212/212/212 208/208/208 210/210/210
f 209/209/209 213/213/213 211/211/211
f 214/214/214 212/212/212 210/210/210
f 211/211/211 213/213/213 215/215/215
f 216/216/216 212/212/212 214/214/214
f 213/213/213 217/217/217 215/215/215
f 218/218/218 216/216/216 214/214/214
f 215/215/215 217/217/217 218/218/218
f 217/217/217 216/216/216 218/218/218
