g P_Vert_OneCap
v -0.0392106138 -0.499999404 0.0856160894
v 0.0392101742 0.499999851 0.0856159925
v 0.039210327 -0.499999404 0.0856160894
v -0.0392107703 0.499999851 0.0856159925
v -0.0856167674 -0.499999404 0.0392097272
v -0.0856169313 0.499999851 0.039209716
v 0.039210327 -0.499999404 0.0856160894
v 0.0392101742 0.499999851 0.0856159925
v 0.0856166333 0.499999851 0.039209716
v 0.0856166333 -0.499999404 0.0392097272
v 0.0856166333 -0.499999404 0.0392097272
v 0.0856166333 0.499999851 0.039209716
v 0.0856166333 0.499999851 -0.0392112732
v 0.0856166333 -0.499999404 -0.0392112732
v 0.0856166333 -0.499999404 -0.0392112732
v 0.0856166333 0.499999851 -0.0392112732
v 0.0392101742 0.499999851 -0.0856175423
v 0.039210327 -0.499999404 -0.0856175423
v -0.0392107703 0.499999851 -0.0856175423
v -0.0392106138 -0.499999404 -0.0856175423
v -0.0856169313 0.499999851 -0.0392112732
v -0.0856167674 -0.499999404 -0.0392112732
v -0.0856167674 -0.499999404 -0.0392112732
v -0.0856169313 0.499999851 -0.0392112732
v -0.0856169313 0.499999851 0.039209716
v -0.0856167674 -0.499999404 0.0392097272
v -0.0458818413 0.483821273 0.099827528
v -0.0392090641 0.483451456 0.0856167674
v 0.0392115675 0.483451724 0.0856167674
v 0.0454668477 0.483821541 0.099827528
v 0.0454656035 0.483822435 -0.0996328741
v 0.0392115675 0.483451724 -0.0856167749
v -0.0392090641 0.483451456 -0.0856168717
v -0.0458818413 0.483821541 -0.0996326804
v 0.099522762 0.483822167 0.0457715318
v 0.0856181905 0.483451724 0.0392104909
v 0.085618034 0.483451724 -0.0392104909
v 0.099522762 0.483822435 -0.0455768779
v -0.0999377593 0.483821541 -0.045576971
v -0.0856155381 0.483451456 -0.0392104909
v -0.0856155381 0.483451456 0.0392104909
v -0.0999377593 0.483821541 0.0457715318
v -0.0999377593 0.483821541 0.0457715318
v -0.0856155381 0.483451456 0.0392104909
v -0.0392090641 0.483451456 0.0856167674
v -0.0458818413 0.483821273 0.099827528
v 0.0454668477 0.483821541 0.099827528
v 0.0392115675 0.483451724 0.0856167674
v 0.0856181905 0.483451724 0.0392104909
v 0.099522762 0.483822167 0.0457715318
v -0.0458818413 0.483821541 -0.0996326804
v -0.0392090641 0.483451456 -0.0856168717
v -0.0856155381 0.483451456 -0.0392104909
v -0.0999377593 0.483821541 -0.045576971
v 0.099522762 0.483822435 -0.0455768779
v 0.085618034 0.483451724 -0.0392104909
v 0.0392115675 0.483451724 -0.0856167749
v 0.0454656035 0.483822435 -0.0996328741
v 0.0434634872 0.477635413 0.0949007943
v 0.0438502915 0.376223773 0.0957456082
v -0.0438479036 0.376223773 0.0957456082
v -0.0434610918 0.477635413 0.0949007943
v -0.0434610918 0.477635413 -0.0949007049
v -0.0438479036 0.376223475 -0.0957452208
v 0.0438502915 0.376223773 -0.0957452208
v 0.0434634872 0.477635413 -0.0949007049
v 0.0949018672 0.477635413 -0.0434623696
v 0.0957465321 0.376223773 -0.0438489728
v 0.0957465321 0.376223773 0.0438493527
v 0.0949018672 0.477635413 0.0434623621
v -0.094899483 0.477635413 0.0434623621
v -0.0957441404 0.376223773 0.0438493527
v -0.0957441404 0.37622416 -0.0438490659
v -0.094899483 0.477635413 -0.0434623696
v -0.0434610918 0.477635413 0.0949007943
v -0.0438479036 0.376223773 0.0957456082
v -0.0957441404 0.376223773 0.0438493527
v -0.094899483 0.477635413 0.0434623621
v 0.0949018672 0.477635413 0.0434623621
v 0.0957465321 0.376223773 0.0438493527
v 0.0438502915 0.376223773 0.0957456082
v 0.0434634872 0.477635413 0.0949007943
v -0.094899483 0.477635413 -0.0434623696
v -0.0957441404 0.37622416 -0.0438490659
v -0.0438479036 0.376223475 -0.0957452208
v -0.0434610918 0.477635413 -0.0949007049
v 0.0434634872 0.477635413 -0.0949007049
v 0.0438502915 0.376223773 -0.0957452208
v 0.0957465321 0.376223773 -0.0438489728
v 0.0949018672 0.477635413 -0.0434623696
v -0.0438479036 0.376223773 0.0957456082
v 0.0438502915 0.376223773 0.0957456082
v 0.0398227386 0.354905814 0.0878528729
v -0.0398202203 0.354905814 0.0878528729
v 0.0438502915 0.376223773 -0.0957452208
v -0.0438479036 0.376223475 -0.0957452208
v -0.0398202203 0.354905814 -0.0878528729
v 0.0398227386 0.354905814 -0.0878527835
v 0.0957465321 0.376223773 0.0438493527
v 0.0957465321 0.376223773 -0.0438489728
v 0.0878540948 0.354905814 -0.0398216993
v 0.0878542513 0.354905814 0.0398218893
v -0.0957441404 0.37622416 -0.0438490659
v -0.0957441404 0.376223773 0.0438493527
v -0.0878515616 0.354905814 0.0398218893
v -0.0878514275 0.354905814 -0.0398216993
v -0.0957441404 0.376223773 0.0438493527
v -0.0438479036 0.376223773 0.0957456082
v -0.0398202203 0.354905814 0.0878528729
v -0.0878515616 0.354905814 0.0398218893
v 0.0438502915 0.376223773 0.0957456082
v 0.0957465321 0.376223773 0.0438493527
v 0.0878542513 0.354905814 0.0398218893
v 0.0398227386 0.354905814 0.0878528729
v -0.0438479036 0.376223475 -0.0957452208
v -0.0957441404 0.37622416 -0.0438490659
v -0.0878514275 0.354905814 -0.0398216993
v -0.0398202203 0.354905814 -0.0878528729
v 0.0957465321 0.376223773 -0.0438489728
v 0.0438502915 0.376223773 -0.0957452208
v 0.0398227386 0.354905814 -0.0878527835
v 0.0878540948 0.354905814 -0.0398216993
v -0.0458818413 0.483821273 0.099827528
v 0.0454668477 0.483821541 0.099827528
v 0.0434634872 0.477635413 0.0949007943
v -0.0434610918 0.477635413 0.0949007943
v 0.0454656035 0.483822435 -0.0996328741
v -0.0458818413 0.483821541 -0.0996326804
v -0.0434610918 0.477635413 -0.0949007049
v 0.0434634872 0.477635413 -0.0949007049
v 0.099522762 0.483822167 0.0457715318
v 0.099522762 0.483822435 -0.0455768779
v 0.0949018672 0.477635413 -0.0434623696
v 0.0949018672 0.477635413 0.0434623621
v -0.0999377593 0.483821541 -0.045576971
v -0.0999377593 0.483821541 0.0457715318
v -0.094899483 0.477635413 0.0434623621
v -0.094899483 0.477635413 -0.0434623696
v -0.0999377593 0.483821541 0.0457715318
v -0.0458818413 0.483821273 0.099827528
v -0.0434610918 0.477635413 0.0949007943
v -0.094899483 0.477635413 0.0434623621
v 0.0454668477 0.483821541 0.099827528
v 0.099522762 0.483822167 0.0457715318
v 0.0949018672 0.477635413 0.0434623621
v 0.0434634872 0.477635413 0.0949007943
v -0.0458818413 0.483821541 -0.0996326804
v -0.0999377593 0.483821541 -0.045576971
v -0.094899483 0.477635413 -0.0434623696
v -0.0434610918 0.477635413 -0.0949007049
v 0.099522762 0.483822435 -0.0455768779
v 0.0454656035 0.483822435 -0.0996328741
v 0.0434634872 0.477635413 -0.0949007049
v 0.0949018672 0.477635413 -0.0434623696
v -0.0392090641 0.339765251 0.0856167674
v -0.0398202203 0.354905814 0.0878528729
v 0.0398227386 0.354905814 0.0878528729
v 0.0392115675 0.339765251 0.0856168643
v 0.0392115675 0.339765251 0.0856168643
v 0.0398227386 0.354905814 0.0878528729
v 0.0878542513 0.354905814 0.0398218893
v 0.0856181905 0.339765251 0.039210692
v 0.0856181905 0.339765251 0.039210692
v 0.0878542513 0.354905814 0.0398218893
v 0.0878540948 0.354905814 -0.0398216993
v 0.085618034 0.339765251 -0.0392104909
v 0.085618034 0.339765251 -0.0392104909
v 0.0878540948 0.354905814 -0.0398216993
v 0.0398227386 0.354905814 -0.0878527835
v 0.0392115675 0.339765251 -0.0856167749
v 0.0392115675 0.339765251 -0.0856167749
v 0.0398227386 0.354905814 -0.0878527835
v -0.0398202203 0.354905814 -0.0878528729
v -0.0392090641 0.339765251 -0.0856168121
v -0.0392090641 0.339765251 -0.0856168121
v -0.0398202203 0.354905814 -0.0878528729
v -0.0878514275 0.354905814 -0.0398216993
v -0.0856155381 0.339765251 -0.0392104909
v -0.0856155381 0.339765251 -0.0392104909
v -0.0878514275 0.354905814 -0.0398216993
v -0.0878515616 0.354905814 0.0398218893
v -0.0856155381 0.339765251 0.039210692
v -0.0856155381 0.339765251 0.039210692
v -0.0878515616 0.354905814 0.0398218893
v -0.0398202203 0.354905814 0.0878528729
v -0.0392090641 0.339765251 0.0856167674
v -0.0640858412 0.499999851 -0.0293505285
v -0.0293499753 0.499999851 -0.0640864894
v 0.0293495338 0.499999851 -0.0640864894
v 0.0640853941 0.499999851 -0.0293505285
v -0.0640858412 0.499999851 0.0293489825
v 0.0640853941 0.499999851 0.0293489825
v -0.0293499753 0.499999851 0.0640849471
v 0.0293495338 0.499999851 0.0640849471
v 0.0642549992 -0.499999404 -0.0294280425
v 0.0294272043 -0.499999404 -0.0642557666
v -0.0294273458 -0.499999404 -0.0642557666
v -0.0642551333 -0.499999404 -0.0294280425
v 0.0642549992 -0.499999404 0.0294265933
v -0.0642551333 -0.499999404 0.0294265933
v 0.0294272043 -0.499999404 0.0642543212
v -0.0294273458 -0.499999404 0.0642543212
v -0.0856167674 -0.499999404 0.0392097272
v -0.0642551333 -0.499999404 -0.0294280425
v -0.0856167674 -0.499999404 -0.0392112732
v -0.0642551333 -0.499999404 0.0294265933
v -0.0294273458 -0.499999404 -0.0642557666
v -0.0392106138 -0.499999404 0.0856160894
v -0.0392106138 -0.499999404 -0.0856175423
v -0.0294273458 -0.499999404 0.0642543212
v 0.0294272043 -0.499999404 -0.0642557666
v 0.039210327 -0.499999404 0.0856160894
v 0.039210327 -0.499999404 -0.0856175423
v 0.0294272043 -0.499999404 0.0642543212
v 0.0642549992 -0.499999404 -0.0294280425
v 0.0856166333 -0.499999404 0.0392097272
v 0.0856166333 -0.499999404 -0.0392112732
v 0.0642549992 -0.499999404 0.0294265933
v 0.0856166333 0.499999851 0.039209716
v 0.0640853941 0.499999851 0.0293489825
v 0.0640853941 0.499999851 -0.0293505285
v 0.0856166333 0.499999851 -0.0392112732
v 0.0392101742 0.499999851 0.0856159925
v 0.0293495338 0.499999851 -0.0640864894
v 0.0293495338 0.499999851 0.0640849471
v 0.0392101742 0.499999851 -0.0856175423
v -0.0392107703 0.499999851 0.0856159925
v -0.0293499753 0.499999851 -0.0640864894
v -0.0293499753 0.499999851 0.0640849471
v -0.0392107703 0.499999851 -0.0856175423
v -0.0856169313 0.499999851 0.039209716
v -0.0640858412 0.499999851 -0.0293505285
v -0.0640858412 0.499999851 0.0293489825
v -0.0856169313 0.499999851 -0.0392112732
vt 0.646167874 0.641823113
vt 0.628699481 0.487325311
vt 0.628699481 0.641823113
vt 0.646167874 0.487325311
vt 0.66171366 0.641823113
vt 0.66171366 0.487325311
vt 0.761307657 0.641823113
vt 0.761307657 0.487325311
vt 0.745886803 0.487325311
vt 0.745886803 0.641823113
vt 0.745886803 0.641823113
vt 0.745886803 0.487325311
vt 0.728265285 0.487325311
vt 0.728265285 0.641823113
vt 0.728265285 0.641823113
vt 0.728265285 0.487325311
vt 0.712555826 0.487325311
vt 0.712555826 0.641823113
vt 0.694801211 0.487325311
vt 0.694801211 0.641823113
vt 0.679043531 0.487325311
vt 0.679043531 0.641823113
vt 0.679043531 0.641823113
vt 0.679043531 0.487325311
vt 0.66171366 0.487325311
vt 0.66171366 0.641823113
vt 0.863234699 0.842419565
vt 0.855625808 0.845930219
vt 0.85567677 0.863509774
vt 0.863235474 0.866985977
vt 0.809641063 0.867051542
vt 0.81721288 0.863548517
vt 0.817213118 0.845929682
vt 0.809639037 0.842419565
vt 0.848647356 0.881613791
vt 0.845210195 0.873935342
vt 0.827651501 0.873932242
vt 0.824221313 0.881635189
vt 0.824202478 0.827788055
vt 0.827640235 0.835522473
vt 0.845178783 0.835522473
vt 0.848657548 0.827718258
vt 0.848657548 0.827718258
vt 0.845178783 0.835522473
vt 0.855625808 0.845930219
vt 0.863234699 0.842419565
vt 0.863235474 0.866985977
vt 0.85567677 0.863509774
vt 0.845210195 0.873935342
vt 0.848647356 0.881613791
vt 0.809639037 0.842419565
vt 0.817213118 0.845929682
vt 0.827640235 0.835522473
vt 0.824202478 0.827788055
vt 0.824221313 0.881635189
vt 0.827651501 0.873932242
vt 0.81721288 0.863548517
vt 0.809641063 0.867051542
vt 0.981469929 0.692055106
vt 0.952698052 0.692220569
vt 0.952698052 0.718057632
vt 0.981469929 0.717869997
vt 0.981469929 0.598295331
vt 0.952698052 0.59823364
vt 0.952698052 0.623849034
vt 0.981469929 0.623850703
vt 0.981469929 0.645167589
vt 0.952698052 0.645183802
vt 0.952698052 0.670809388
vt 0.981469929 0.670725703
vt 0.981469929 0.551465571
vt 0.952698052 0.550821185
vt 0.952698052 0.576830506
vt 0.981469929 0.576983213
vt 0.981470406 0.529983461
vt 0.952699721 0.52887094
vt 0.952698052 0.550821185
vt 0.981469929 0.551465571
vt 0.981469929 0.670725703
vt 0.952698052 0.670809388
vt 0.952698052 0.692220569
vt 0.981469929 0.692055106
vt 0.981469929 0.576983213
vt 0.952698052 0.576830506
vt 0.952698052 0.59823364
vt 0.981469929 0.598295331
vt 0.981469929 0.623850703
vt 0.952698052 0.623849034
vt 0.952698052 0.645183802
vt 0.981469929 0.645167589
vt 0.809639037 0.842419565
vt 0.809641063 0.867051542
vt 0.81721288 0.863548517
vt 0.817213118 0.845929682
vt 0.863235474 0.866985977
vt 0.863234699 0.842419565
vt 0.855625808 0.845930219
vt 0.85567677 0.863509774
vt 0.824221313 0.881635189
vt 0.848647356 0.881613791
vt 0.845210195 0.873935342
vt 0.827651501 0.873932242
vt 0.848657548 0.827718258
vt 0.824202478 0.827788055
vt 0.827640235 0.835522473
vt 0.845178783 0.835522473
vt 0.824202478 0.827788055
vt 0.809639037 0.842419565
vt 0.817213118 0.845929682
vt 0.827640235 0.835522473
vt 0.809641063 0.867051542
vt 0.824221313 0.881635189
vt 0.827651501 0.873932242
vt 0.81721288 0.863548517
vt 0.863234699 0.842419565
vt 0.848657548 0.827718258
vt 0.845178783 0.835522473
vt 0.855625808 0.845930219
vt 0.848647356 0.881613791
vt 0.863235474 0.866985977
vt 0.85567677 0.863509774
vt 0.845210195 0.873935342
vt 0.994363606 0.716745138
vt 0.994363129 0.691994786
vt 0.981469929 0.692055106
vt 0.981469929 0.717869997
vt 0.994363129 0.62378031
vt 0.994363129 0.598405123
vt 0.981469929 0.598295331
vt 0.981469929 0.623850703
vt 0.994363129 0.670609593
vt 0.994363129 0.645231605
vt 0.981469929 0.645167589
vt 0.981469929 0.670725703
vt 0.994363129 0.577008486
vt 0.994363129 0.551893175
vt 0.981469929 0.551465571
vt 0.981469929 0.576983213
vt 0.994363129 0.551893175
vt 0.994363606 0.53128159
vt 0.981470406 0.529983461
vt 0.981469929 0.551465571
vt 0.994363129 0.691994786
vt 0.994363129 0.670609593
vt 0.981469929 0.670725703
vt 0.981469929 0.692055106
vt 0.994363129 0.598405123
vt 0.994363129 0.577008486
vt 0.981469929 0.576983213
vt 0.981469929 0.598295331
vt 0.994363129 0.645231605
vt 0.994363129 0.62378031
vt 0.981469929 0.623850703
vt 0.981469929 0.645167589
vt 0.6467188 0.482692748
vt 0.6467188 0.478505343
vt 0.628258228 0.478505343
vt 0.629185677 0.482692748
vt 0.761430919 0.48269251
vt 0.762358665 0.478505075
vt 0.746679187 0.478505075
vt 0.746679187 0.48269251
vt 0.746679187 0.48269251
vt 0.746679187 0.478505075
vt 0.728648186 0.478505343
vt 0.728648186 0.482692748
vt 0.728648186 0.482692748
vt 0.728648186 0.478505343
vt 0.713374913 0.478505343
vt 0.713374913 0.482692748
vt 0.713374913 0.482692748
vt 0.713374913 0.478505343
vt 0.695308626 0.478505582
vt 0.695308626 0.482692748
vt 0.695308626 0.482692748
vt 0.695308626 0.478505582
vt 0.680023313 0.478505582
vt 0.680023313 0.482692748
vt 0.680023313 0.482692748
vt 0.680023313 0.478505582
vt 0.661968529 0.478505343
vt 0.661968529 0.482692748
vt 0.661968529 0.482692748
vt 0.661968529 0.478505343
vt 0.6467188 0.478505343
vt 0.6467188 0.482692748
vt 0.781635046 0.0549727678
vt 0.782125831 0.0554634929
vt 0.78295517 0.0554634929
vt 0.783445895 0.0549727678
vt 0.781635046 0.0541433692
vt 0.783445895 0.0541433692
vt 0.782125831 0.0536526442
vt 0.78295517 0.0536526442
vt 0.780602634 0.0518235713
vt 0.780110598 0.0523156524
vt 0.780110598 0.0531471968
vt 0.780602634 0.0536392629
vt 0.781434178 0.0518235713
vt 0.781434178 0.0536392629
vt 0.781926274 0.0523156524
vt 0.781926274 0.0531471968
vt 0.859565675 0.90056026
vt 0.853556871 0.919795096
vt 0.859559238 0.922462642
vt 0.853503048 0.903330386
vt 0.843735039 0.929398477
vt 0.846523404 0.887540162
vt 0.846479297 0.935384333
vt 0.8437621 0.893562675
vt 0.827270567 0.929398477
vt 0.824524939 0.887521267
vt 0.824480653 0.935384333
vt 0.827284038 0.893567502
vt 0.81744504 0.919713795
vt 0.811426222 0.900571525
vt 0.811386466 0.922435224
vt 0.817498744 0.90336436
vt 0.846479297 0.935384333
vt 0.843735039 0.929398477
vt 0.827270567 0.929398477
vt 0.824480653 0.935384333
vt 0.859559238 0.922462642
vt 0.81744504 0.919713795
vt 0.853556871 0.919795096
vt 0.811386466 0.922435224
vt 0.859565675 0.90056026
vt 0.817498744 0.90336436
vt 0.853503048 0.903330386
vt 0.811426222 0.900571525
vt 0.846523404 0.887540162
vt 0.827284038 0.893567502
vt 0.8437621 0.893562675
vt 0.824524939 0.887521267
vn -0.38268432 0 0.923879206
vn 0.382683098 1.00480491E-07 0.923879743
vn 0.382683158 1.00480484E-07 0.923879623
vn -0.38268429 0 0.923879087
vn -0.70710814 0 0.707105398
vn -0.70710814 0 0.707105398
vn 0.382683158 1.00480484E-07 0.923879623
vn 0.382683098 1.00480491E-07 0.923879743
vn 0.707106233 0 0.707107306
vn 0.707106233 0 0.707107306
vn 1 0 0
vn 1 0 0
vn 1 0 0
vn 1 0 0
vn 0.707105935 0 -0.707107604
vn 0.707105935 0 -0.707107604
vn 0.3826828 0 -0.923879802
vn 0.38268289 0 -0.923879743
vn -0.382684082 0 -0.923879325
vn -0.382684082 0 -0.923879325
vn -0.707107663 -1.1132952E-07 -0.707105875
vn -0.707107663 -1.1132952E-07 -0.707105875
vn -1 -1.57451765E-07 0
vn -1 -1.57451765E-07 0
vn -1 -1.57451765E-07 0
vn -1 -1.57451765E-07 0
vn -3.42331373E-06 0.999661446 -0.0260167141
vn -3.4233135E-06 0.999661446 -0.0260167122
vn -3.42331327E-06 0.999661446 -0.0260167141
vn -3.42331327E-06 0.999661446 -0.0260167141
vn -6.83139024E-06 0.999650955 0.0264195465
vn -6.83138978E-06 0.999650955 0.0264195465
vn -6.83139024E-06 0.999650955 0.0264195465
vn -6.83138978E-06 0.999650955 0.0264195465
vn -0.0266412329 0.999645114 1.73537819E-06
vn -0.026641231 0.999645114 1.73537819E-06
vn -0.0266412366 0.999645114 1.73537842E-06
vn -0.0266412385 0.999645114 1.73537853E-06
vn 0.0258345995 0.999666214 0
vn 0.0258345995 0.999666214 0
vn 0.0258345995 0.999666214 0
vn 0.0258345995 0.999666214 0
vn 0.0177126769 0.999686241 -0.0177098047
vn 0.0177126788 0.999686241 -0.0177098028
vn 0.0177126788 0.999686241 -0.0177098028
vn 0.0177126769 0.999686241 -0.0177098047
vn -0.0180823933 0.999673009 -0.0180766508
vn -0.0180823915 0.999673009 -0.0180766489
vn -0.0180823896 0.999673009 -0.0180766508
vn -0.0180823896 0.999673009 -0.0180766508
vn 0.0178848598 0.999680042 0.0178849138
vn 0.0178848598 0.999680042 0.0178849138
vn 0.0178848617 0.999680042 0.0178849138
vn 0.0178848598 0.999680042 0.0178849138
vn -0.0182819925 0.999665737 0.0182822384
vn -0.0182819925 0.999665737 0.0182822403
vn -0.0182819925 0.999665737 0.0182822384
vn -0.0182819925 0.999665737 0.0182822403
vn -0 0.00833024178 0.99996531
vn -0 0.00833024271 0.99996531
vn -0 0.00833024271 0.99996531
vn -0 0.00833024085 0.99996531
vn -0 0.00832736213 -0.99996531
vn -0 0.00832736306 -0.99996531
vn -0 0.00832736213 -0.99996531
vn -0 0.00832736213 -0.99996531
vn 0.99996531 0.0083288094 0
vn 0.99996531 0.00832880847 0
vn 0.99996531 0.00832880847 0
vn 0.99996531 0.00832880847 0
vn -0.99996531 0.00832882524 0
vn -0.99996531 0.00832882524 0
vn -0.99996531 0.00832882524 0
vn -0.99996531 0.00832882524 0
vn -0.70708096 0.00858747214 0.707080424
vn -0.70708096 0.00858747307 0.707080424
vn -0.707080901 0.00858747307 0.707080424
vn -0.707080901 0.00858747214 0.707080424
vn 0.707080841 0.00858746096 0.707080543
vn 0.707080781 0.00858746096 0.707080543
vn 0.707080841 0.00858746096 0.707080543
vn 0.707080841 0.00858746096 0.707080543
vn -0.707080185 0.00858545117 -0.707081199
vn -0.707080185 0.00858545024 -0.707081139
vn -0.707080185 0.00858544931 -0.707081139
vn -0.707080185 0.00858544931 -0.707081139
vn 0.707080543 0.00858509447 -0.707080841
vn 0.707080424 0.00858509447 -0.707080901
vn 0.707080543 0.00858509354 -0.707080901
vn 0.707080543 0.00858509354 -0.707080841
vn -0 -0.34720546 0.937789023
vn -0 -0.34720543 0.937789083
vn -0 -0.34720543 0.937789083
vn -0 -0.34720546 0.937789023
vn 1.14484544E-06 -0.347194493 -0.937793076
vn 1.14484544E-06 -0.347194493 -0.937793076
vn 1.14484544E-06 -0.347194433 -0.937793076
vn 1.14484544E-06 -0.347194493 -0.937793076
vn 0.937794447 -0.347191006 -8.16294573E-07
vn 0.937794447 -0.347191006 -8.16294744E-07
vn 0.937794447 -0.347191006 -8.16294573E-07
vn 0.937794447 -0.347191006 -8.16294573E-07
vn -0.937791288 -0.347199231 -1.55043426E-06
vn -0.937791407 -0.347199231 -1.55043449E-06
vn -0.937791407 -0.347199231 -1.55043449E-06
vn -0.937791288 -0.347199231 -1.55043426E-06
vn -0.657571554 -0.367690593 0.657573819
vn -0.657571554 -0.367690533 0.657573879
vn -0.657571554 -0.367690593 0.657573819
vn -0.657571554 -0.367690533 0.657573819
vn 0.657572508 -0.367684901 0.657575905
vn 0.657572508 -0.367684901 0.657575905
vn 0.657572508 -0.367684931 0.657575905
vn 0.657572508 -0.367684871 0.657575965
vn -0.657575071 -0.367685169 -0.657573402
vn -0.657575071 -0.367685199 -0.657573402
vn -0.657575071 -0.367685169 -0.657573402
vn -0.657575071 -0.367685169 -0.657573402
vn 0.657574594 -0.367680371 -0.657576442
vn 0.657574654 -0.367680341 -0.657576323
vn 0.657574594 -0.367680371 -0.657576442
vn 0.657574654 -0.367680341 -0.657576323
vn 1.01518731E-06 -0.622991681 0.78222847
vn 1.01518731E-06 -0.622991681 0.78222847
vn 1.01518731E-06 -0.622991681 0.78222847
vn 1.01518731E-06 -0.622991681 0.78222847
vn 2.10822691E-06 -0.607543528 -0.794286311
vn 2.10822691E-06 -0.607543528 -0.794286311
vn 2.10822714E-06 -0.607543588 -0.794286311
vn 2.10822645E-06 -0.607543588 -0.794286311
vn 0.8011958 -0.598402202 -9.75497528E-07
vn 0.8011958 -0.598402321 -9.75497642E-07
vn 0.8011958 -0.598402202 -9.75497528E-07
vn 0.8011958 -0.598402321 -9.75497642E-07
vn -0.775375366 -0.631500602 0
vn -0.775375366 -0.631500602 0
vn -0.775375307 -0.631500721 0
vn -0.775375307 -0.631500661 0
vn -0.541471124 -0.643133581 0.541468561
vn -0.541471124 -0.643133521 0.54146862
vn -0.541471124 -0.643133581 0.541468561
vn -0.541471124 -0.643133521 0.54146862
vn 0.554288447 -0.620913267 0.554284215
vn 0.554288447 -0.620913267 0.554284275
vn 0.554288447 -0.620913386 0.554284215
vn 0.554288447 -0.620913267 0.554284275
vn -0.547425985 -0.632967651 -0.547427356
vn -0.547425985 -0.632967651 -0.547427356
vn -0.547425985 -0.632967651 -0.547427356
vn -0.547425985 -0.632967651 -0.547427356
vn 0.56033504 -0.609952569 -0.560341477
vn 0.56033504 -0.609952509 -0.560341537
vn 0.56033498 -0.609952509 -0.560341537
vn 0.56033504 -0.609952509 -0.560341537
vn -6.06532922E-07 -0.146101773 0.989269555
vn -6.06532922E-07 -0.146101788 0.989269555
vn -6.06532922E-07 -0.146101773 0.989269555
vn -6.06533035E-07 -0.146101803 0.989269555
vn 0.700933397 -0.131813064 0.70094049
vn 0.700933397 -0.131813064 0.70094049
vn 0.700933397 -0.131813064 0.700940609
vn 0.700933278 -0.131813094 0.700940609
vn 0.989269435 -0.146102354 -1.85733802E-06
vn 0.989269435 -0.146102369 -1.85733802E-06
vn 0.989269435 -0.146102354 -1.85733791E-06
vn 0.989269435 -0.146102354 -1.85733791E-06
vn 0.700935185 -0.131813213 -0.700938761
vn 0.700935185 -0.131813213 -0.700938761
vn 0.700935185 -0.131813213 -0.700938761
vn 0.700935185 -0.131813213 -0.700938761
vn 9.09054563E-07 -0.146100253 -0.989269793
vn 9.09054563E-07 -0.146100253 -0.989269793
vn 9.09054563E-07 -0.146100253 -0.989269793
vn 9.09054563E-07 -0.146100238 -0.989269793
vn -0.700936556 -0.131810129 -0.700937927
vn -0.700936556 -0.131810129 -0.700937927
vn -0.700936556 -0.131810129 -0.700937927
vn -0.700936556 -0.131810129 -0.700937927
vn -0.989270329 -0.146095991 -8.3403944E-07
vn -0.989270329 -0.146096006 -8.3403944E-07
vn -0.989270329 -0.146095991 -8.34039326E-07
vn -0.989270329 -0.146095991 -8.3403944E-07
vn -0.700934112 -0.131814241 0.700939655
vn -0.700934112 -0.131814256 0.700939655
vn -0.700934172 -0.131814271 0.700939655
vn -0.700934172 -0.131814256 0.700939655
vn -0 1 0
vn -0 1 0
vn -0 1 0
vn -0 1 0
vn -0 1 0
vn -0 1 0
vn -0 1 0
vn -0 1 0
vn -0 -1 -2.16607162E-07
vn -0 -1 -2.16607205E-07
vn -0 -1 -2.16607205E-07
vn -0 -1 -2.16607162E-07
vn -0 -1 -2.16607162E-07
vn -0 -1 -2.16607162E-07
vn -0 -1 -2.16607205E-07
vn -0 -1 -2.16607205E-07
vn -0 -1 0
vn -0 -1 0
vn -0 -1 0
vn -0 -1 0
vn -0 -1 0
vn -0 -1 0
vn -0 -1 0
vn -0 -1 0
vn -0 -1 0
vn -0 -1 0
vn -0 -1 0
vn -0 -1 0
vn -0 -1 0
vn -0 -1 0
vn -0 -1 0
vn -0 -1 0
vn -0 1 0
vn -0 1 0
vn -0 1 0
vn -0 1 0
vn -0 1 0
vn -0 1 0
vn -0 1 0
vn -0 1 0
vn -0 1 0
vn -0 1 0
vn -0 1 0
vn -0 1 0
vn -0 1 0
vn -0 1 0
vn -0 1 0
vn -0 1 0
g P_Vert_OneCap_0
f 3/3/3 2/2/2 1/1/1
f 2/2/2 4/4/4 1/1/1
f 1/1/1 4/4/4 5/5/5
f 4/4/4 6/6/6 5/5/5
f 9/9/9 8/8/8 7/7/7
f 10/10/10 9/9/9 7/7/7
f 13/13/13 12/12/12 11/11/11
f 14/14/14 13/13/13 11/11/11
f 17/17/17 16/16/16 15/15/15
f 18/18/18 17/17/17 15/15/15
f 19/19/19 17/17/17 18/18/18
f 20/20/20 19/19/19 18/18/18
f 21/21/21 19/19/19 20/20/20
f 22/22/22 21/21/21 20/20/20
f 25/25/25 24/24/24 23/23/23
f 26/26/26 25/25/25 23/23/23
f 29/29/29 28/28/28 27/27/27
f 30/30/30 29/29/29 27/27/27
f 33/33/33 32/32/32 31/31/31
f 34/34/34 33/33/33 31/31/31
f 37/37/37 36/36/36 35/35/35
f 38/38/38 37/37/37 35/35/35
f 41/41/41 40/40/40 39/39/39
f 42/42/42 41/41/41 39/39/39
f 45/45/45 44/44/44 43/43/43
f 46/46/46 45/45/45 43/43/43
f 49/49/49 48/48/48 47/47/47
f 50/50/50 49/49/49 47/47/47
f 53/53/53 52/52/52 51/51/51
f 54/54/54 53/53/53 51/51/51
f 57/57/57 56/56/56 55/55/55
f 58/58/58 57/57/57 55/55/55
f 61/61/61 60/60/60 59/59/59
f 62/62/62 61/61/61 59/59/59
f 65/65/65 64/64/64 63/63/63
f 66/66/66 65/65/65 63/63/63
f 69/69/69 68/68/68 67/67/67
f 70/70/70 69/69/69 67/67/67
f 73/73/73 72/72/72 71/71/71
f 74/74/74 73/73/73 71/71/71
f 77/77/77 76/76/76 75/75/75
f 78/78/78 77/77/77 75/75/75
f 81/81/81 80/80/80 79/79/79
f 82/82/82 81/81/81 79/79/79
f 85/85/85 84/84/84 83/83/83
f 86/86/86 85/85/85 83/83/83
f 89/89/89 88/88/88 87/87/87
f 90/90/90 89/89/89 87/87/87
f 93/93/93 92/92/92 91/91/91
f 94/94/94 93/93/93 91/91/91
f 97/97/97 96/96/96 95/95/95
f 98/98/98 97/97/97 95/95/95
f 101/101/101 100/100/100 99/99/99
f 102/102/102 101/101/101 99/99/99
f 105/105/105 104/104/104 103/103/103
f 106/106/106 105/105/105 103/103/103
f 109/109/109 108/108/108 107/107/107
f 110/110/110 109/109/109 107/107/107
f 113/113/113 112/112/112 111/111/111
f 114/114/114 113/113/113 111/111/111
f 117/117/117 116/116/116 115/115/115
f 118/118/118 117/117/117 115/115/115
f 121/121/121 120/120/120 119/119/119
f 122/122/122 121/121/121 119/119/119
f 125/125/125 124/124/124 123/123/123
f 126/126/126 125/125/125 123/123/123
f 129/129/129 128/128/128 127/127/127
f 130/130/130 129/129/129 127/127/127
f 133/133/133 132/132/132 131/131/131
f 134/134/134 133/133/133 131/131/131
f 137/137/137 136/136/136 135/135/135
f 138/138/138 137/137/137 135/135/135
f 141/141/141 140/140/140 139/139/139
f 142/142/142 141/141/141 139/139/139
f 145/145/145 144/144/144 143/143/143
f 146/146/146 145/145/145 143/143/143
f 149/149/149 148/148/148 147/147/147
f 150/150/150 149/149/149 147/147/147
f 153/153/153 152/152/152 151/151/151
f 154/154/154 153/153/153 151/151/151
f 157/157/157 156/156/156 155/155/155
f 158/158/158 157/157/157 155/155/155
f 161/161/161 160/160/160 159/159/159
f 162/162/162 161/161/161 159/159/159
f 165/165/165 164/164/164 163/163/163
f 166/166/166 165/165/165 163/163/163
f 169/169/169 168/168/168 167/167/167
f 170/170/170 169/169/169 167/167/167
f 173/173/173 172/172/172 171/171/171
f 174/174/174 173/173/173 171/171/171
f 177/177/177 176/176/176 175/175/175
f 178/178/178 177/177/177 175/175/175
f 181/181/181 180/180/180 179/179/179
f 182/182/182 181/181/181 179/179/179
f 185/185/185 184/184/184 183/183/183
f 186/186/186 185/185/185 183/183/183
f 189/189/189 188/188/188 187/187/187
f 187/187/187 190/190/190 189/189/189
f 187/187/187 191/191/191 190/190/190
f 191/191/191 192/192/192 190/190/190
f 191/191/191 193/193/193 192/192/192
f 193/193/193 194/194/194 192/192/192
f 197/197/197 196/196/196 195/195/195
f 195/195/195 198/198/198 197/197/197
f 195/195/195 199/199/199 198/198/198
f 199/199/199 200/200/200 198/198/198
f 199/199/199 201/201/201 200/200/200
f 201/201/201 202/202/202 200/200/200
f 205/205/205 204/204/204 203/203/203
f 204/204/204 206/206/206 203/203/203
f 207/207/207 204/204/204 205/205/205
f 203/203/203 206/206/206 208/208/208
f 209/209/209 207/207/207 205/205/205
f 206/206/206 210/210/210 208/208/208
f 211/211/211 207/207/207 209/209/209
f 208/208/208 210/210/210 212/212/212
f 213/213/213 211/211/211 209/209/209
f 210/210/210 214/214/214 212/212/212
f 215/215/215 211/211/211 213/213/213
f 212/212/212 214/214/214 216/216/216
f 217/217/217 215/215/215 213/213/213
f 214/214/214 218/218/218 216/216/216
f 218/218/218 215/215/215 217/217/217
f 216/216/216 218/218/218 217/217/217
f 221/221/221 220/220/220 219/219/219
f 222/222/222 221/221/221 219/219/219
f 219/219/219 220/220/220 223/223/223
f 224/224/224 221/221/221 222/222/222
f 220/220/220 225/225/225 223/223/223
f 226/226/226 224/224/224 222/222/222
f 223/223/223 225/225/225 227/227/227
f 228/228/228 224/224/224 226/226/226
f 225/225/225 229/229/229 227/227/227
f 230/230/230 228/228/228 226/226/226
f 227/227/227 229/229/229 231/231/231
f 232/232/232 228/228/228 230/230/230
f 229/229/229 233/233/233 231/231/231
f 234/234/234 232/232/232 230/230/230
f 231/231/231 233/233/233 234/234/234
f 233/233/233 232/232/232 234/234/234
