g P_Bend_Vert1
v 0.0630039498 -0.315964669 0.0630309507
v 0.0344595723 -0.344511241 0.0630322024
v 0.0630039498 -0.344510794 0.0344847105
v -0.0344579257 -0.344510615 0.063031137
v -0.063003853 -0.31596458 0.0630309507
v -0.0630036592 -0.344510466 0.034485016
v -0.0630036592 -0.31596455 -0.0629770681
v -0.0344579257 -0.344510615 -0.0629772618
v -0.063003853 -0.344510555 -0.0344309434
v 0.0344576351 -0.344510645 -0.0629780293
v 0.063004151 -0.315964639 -0.0629768744
v 0.0630039498 -0.344510764 -0.0344307497
v 0.039210476 -0.366866529 0.499999076
v 0.0392106809 -0.366891086 0.218748972
v -0.0392101407 -0.366891176 0.218748465
v -0.0392103456 -0.366866678 0.499998659
v -0.0856159776 -0.320484877 0.218748465
v -0.0856164545 -0.32046026 0.499998659
v 0.0856165737 -0.32046032 0.499999136
v 0.0856167898 -0.320484906 0.218748942
v 0.0392106809 -0.366891086 0.218748972
v 0.039210476 -0.366866529 0.499999076
v 0.0856167227 -0.242039219 0.499998659
v 0.0856169239 -0.242063805 0.218748465
v 0.0856167898 -0.320484906 0.218748942
v 0.0856165737 -0.32046032 0.499999136
v 0.0392107405 -0.195632994 0.499998033
v 0.0856169239 -0.242063805 0.218748465
v 0.0856167227 -0.242039219 0.499998659
v 0.0392109416 -0.195657611 0.218747899
v -0.0392104685 -0.195632994 0.499998629
v -0.0392102748 -0.195657611 0.218748465
v -0.0856164545 -0.242039561 0.499998629
v -0.0856159776 -0.242064148 0.218748465
v -0.0856164545 -0.32046026 0.499998659
v -0.0856159776 -0.320484877 0.218748465
v -0.0856159776 -0.242064148 0.218748465
v -0.0856164545 -0.242039561 0.499998629
v -0.0894096047 -0.376645774 0.0605571531
v -0.0894096047 -0.376645774 -0.0605256632
v -0.094648242 -0.370904863 -0.0605257601
v -0.094648242 -0.370905042 0.06055687
v -0.06054141 -0.376645774 -0.0893936679
v 0.060540922 -0.376645774 -0.0893937647
v 0.060540542 -0.370905042 -0.0942664295
v -0.0605419911 -0.370905042 -0.0942664295
v 0.0894091204 -0.376645774 -0.0605256632
v 0.0894091204 -0.376645774 0.0605571531
v 0.0946479514 -0.370904863 0.06055687
v 0.0946481526 -0.370904863 -0.0605257601
v 0.060540922 -0.376645774 0.0894250646
v -0.06054141 -0.376645774 0.0894250646
v -0.0605416037 -0.370904952 0.0950463265
v 0.0605411194 -0.370904952 0.0950463265
v -0.06054141 -0.187088579 0.0894248784
v 0.0605411194 -0.187088579 0.0894248784
v 0.0605411194 -0.19208625 0.095046334
v -0.0605416037 -0.192086235 0.0950464234
v 0.0894091204 -0.187088624 0.06055687
v 0.0894091204 -0.187088624 -0.0605257601
v 0.0946473703 -0.192086235 -0.0605257601
v 0.0946473703 -0.192086235 0.06055687
v 0.0605411194 -0.187088624 -0.0893939063
v -0.06054141 -0.187088624 -0.0893939063
v -0.0605419911 -0.19208625 -0.0942664295
v 0.060540542 -0.19208625 -0.0942664295
v -0.0894096047 -0.187088624 -0.0605257601
v -0.0894096047 -0.187088624 0.06055687
v -0.094648242 -0.192086235 0.06055687
v -0.094648242 -0.192086235 -0.0605258606
v 0.0946481526 -0.220954314 0.0894248635
v 0.0946481526 -0.342036813 0.0894248784
v 0.0894091204 -0.342036903 0.0950463265
v 0.0894091204 -0.220954388 0.0950463265
v -0.094648242 -0.342036903 0.0894248784
v -0.094648242 -0.220954388 0.0894248784
v -0.0894096047 -0.220954388 0.0950463265
v -0.0894096047 -0.342036903 0.0950463265
v 0.0946481526 -0.342036813 -0.0893939063
v 0.0946481526 -0.220954314 -0.0893939063
v 0.0894085467 -0.220954418 -0.0942663327
v 0.0894085467 -0.342036933 -0.0942664295
v -0.094648242 -0.220954388 -0.0893938616
v -0.094648242 -0.342036933 -0.0893938616
v -0.0894101858 -0.342036933 -0.0942664295
v -0.0894101858 -0.220954388 -0.0942664295
v -0.06054141 -0.376645774 -0.0893936679
v 0.0606163107 -0.454204857 -0.0895193815
v 0.060540922 -0.376645774 -0.0893937647
v -0.0606162101 -0.454204857 -0.0895193815
v -0.0894096047 -0.376645774 -0.0605256632
v -0.0895202607 -0.454204857 -0.060615778
v -0.0894096047 -0.376645774 0.0605571531
v -0.0895202607 -0.454204857 0.0606172346
v -0.0606162101 -0.454204857 0.0895209834
v -0.06054141 -0.376645774 0.0894250646
v 0.060540922 -0.376645774 0.0894250646
v 0.0606163107 -0.454204857 0.0895209834
v 0.0894091204 -0.376645774 0.0605571531
v 0.0895201638 -0.454204857 0.0606172346
v 0.0894091204 -0.376645774 -0.0605256632
v 0.0895201638 -0.454204857 -0.060615778
v 0.060540922 -0.376645774 -0.0893937647
v 0.0606163107 -0.454204857 -0.0895193815
v -0.0505796149 -0.467248917 -0.101753525
v 0.050155513 -0.498574704 -0.100900918
v 0.0505795181 -0.467248917 -0.101753525
v -0.050156191 -0.498574704 -0.100900918
v -0.101754203 -0.467248917 -0.0505789854
v -0.100902319 -0.498574704 -0.0501548834
v -0.101754203 -0.467248917 0.0505805388
v -0.100902319 -0.498574704 0.0501567274
v -0.0505796149 -0.467248917 0.101755217
v -0.050156191 -0.498574704 0.10090284
v 0.0505795181 -0.467248917 0.101755217
v 0.050155513 -0.498574704 0.10090284
v 0.101754494 -0.467248917 0.0505805388
v 0.100901261 -0.498574704 0.0501567274
v 0.101754494 -0.467248917 -0.0505789854
v 0.100901261 -0.498574704 -0.0501548834
v 0.0505795181 -0.467248917 -0.101753525
v 0.050155513 -0.498574704 -0.100900918
v -0.0894096047 -0.220954388 0.0950463265
v -0.089522399 -0.342097282 0.17352207
v -0.0894096047 -0.342036903 0.0950463265
v -0.089522399 -0.220864594 0.17352207
v -0.0605416037 -0.192086235 0.0950464234
v -0.0606185384 -0.191960707 0.17352207
v 0.0605411194 -0.19208625 0.095046334
v 0.0606141761 -0.191960707 0.17352207
v 0.089518033 -0.220864594 0.17352207
v 0.0894091204 -0.220954388 0.0950463265
v 0.0894091204 -0.342036903 0.0950463265
v 0.089518033 -0.342097282 0.17352207
v 0.0605411194 -0.370904952 0.0950463265
v 0.0606141761 -0.371001124 0.17352207
v -0.0605416037 -0.370904952 0.0950463265
v -0.0606185384 -0.371001124 0.17352207
v -0.0894096047 -0.342036903 0.0950463265
v -0.089522399 -0.342097282 0.17352207
v -0.101756342 -0.230901375 0.184710041
v -0.100903869 -0.331636369 0.215294197
v -0.101756342 -0.332060575 0.184710041
v -0.100903869 -0.231324643 0.215294227
v -0.0505815484 -0.179726571 0.184710041
v -0.0501577407 -0.180578634 0.215294227
v 0.0505775809 -0.179726571 0.184710041
v 0.050154157 -0.180578634 0.215294227
v 0.101752162 -0.230901375 0.184710041
v 0.100900091 -0.231324643 0.215294227
v 0.101752162 -0.332060575 0.184710041
v 0.100900091 -0.331636369 0.215294197
v 0.0505775809 -0.383235395 0.184710026
v 0.050154157 -0.382382423 0.215294197
v -0.0505815484 -0.383235395 0.184710026
v -0.0501577407 -0.382382423 0.215294197
v -0.101756342 -0.332060575 0.184710041
v -0.100903869 -0.331636369 0.215294197
v 0.0293496307 -0.217164338 0.499998629
v 0.06408602 -0.251900107 0.499998033
v 0.06408602 -0.310599625 0.499998659
v 0.0293500274 -0.345335424 0.499998659
v -0.0293500125 -0.345335603 0.499998659
v -0.0293497574 -0.217164189 0.499999106
v -0.0640853569 -0.251900047 0.499999106
v -0.0640856028 -0.310599536 0.499998659
v 0.0788915455 -0.510012209 -0.0431295373
v 0.0431301668 -0.510012209 -0.0788910165
v -0.0431308448 -0.510012209 -0.0788910165
v -0.078892231 -0.510012209 -0.0431294441
v 0.0788915455 -0.510012209 0.0431313701
v -0.078892231 -0.510012209 0.0431313701
v 0.0431301668 -0.510012209 0.0788930506
v -0.0431308448 -0.510012209 0.0788930506
v -0.094648242 -0.370904863 -0.0605257601
v -0.117374763 -0.324792713 0.0433123782
v -0.094648242 -0.370905042 0.06055687
v -0.094648242 -0.342036903 0.0894248784
v -0.117374763 -0.324792713 -0.0433226489
v -0.094648242 -0.342036933 -0.0893938616
v -0.094648242 -0.220954388 -0.0893938616
v -0.117374763 -0.238157794 0.0433123782
v -0.094648242 -0.220954388 0.0894248784
v -0.094648242 -0.192086235 0.06055687
v -0.117374763 -0.238157794 -0.0433226451
v -0.094648242 -0.192086235 -0.0605258606
v 0.0946479514 -0.370904863 0.06055687
v 0.117374666 -0.324792445 -0.0433226489
v 0.0946481526 -0.370904863 -0.0605257601
v 0.0946481526 -0.342036813 -0.0893939063
v 0.117374666 -0.324792445 0.0433123782
v 0.0946481526 -0.342036813 0.0894248784
v 0.0946481526 -0.220954314 0.0894248635
v 0.117374666 -0.238157675 -0.0433226451
v 0.0946481526 -0.220954314 -0.0893939063
v 0.0946473703 -0.192086235 -0.0605257601
v 0.117374666 -0.238157675 0.0433123782
v 0.0946473703 -0.192086235 0.06055687
v 0.0894091204 -0.187088624 0.06055687
v 0.0433175564 -0.164371505 -0.0433226489
v 0.0894091204 -0.187088624 -0.0605257601
v 0.0605411194 -0.187088624 -0.0893939063
v 0.0433175564 -0.16437152 0.0433123782
v 0.0605411194 -0.187088579 0.0894248784
v -0.06054141 -0.187088579 0.0894248784
v -0.043317657 -0.164371505 -0.0433226489
v -0.06054141 -0.187088624 -0.0893939063
v -0.0894096047 -0.187088624 -0.0605257601
v -0.043317657 -0.16437152 0.0433123782
v -0.0894096047 -0.187088624 0.06055687
v 0.0894085467 -0.220954418 -0.0942663327
v 0.0433175564 -0.324792624 -0.116953902
v 0.0894085467 -0.342036933 -0.0942664295
v 0.060540542 -0.370905042 -0.0942664295
v 0.0433175564 -0.238157749 -0.116953813
v 0.060540542 -0.19208625 -0.0942664295
v -0.0605419911 -0.19208625 -0.0942664295
v -0.043317657 -0.324792624 -0.116953902
v -0.0605419911 -0.370905042 -0.0942664295
v -0.0894101858 -0.342036933 -0.0942664295
v -0.043317657 -0.238157749 -0.116953813
v -0.0894101858 -0.220954388 -0.0942664295
v -0.094648242 -0.370905042 0.06055687
v -0.094648242 -0.342036903 0.0894248784
v -0.0819170326 -0.363412648 0.0819325075
v -0.0894096047 -0.376645774 0.0605571531
v -0.0894096047 -0.342036903 0.0950463265
v -0.06054141 -0.376645774 0.0894250646
v -0.0605416037 -0.370904952 0.0950463265
v -0.094648242 -0.342036933 -0.0893938616
v -0.094648242 -0.370904863 -0.0605257601
v -0.0819170326 -0.363412619 -0.0819015354
v -0.0894101858 -0.342036933 -0.0942664295
v -0.0894096047 -0.376645774 -0.0605256632
v -0.0605419911 -0.370905042 -0.0942664295
v -0.06054141 -0.376645774 -0.0893936679
v -0.094648242 -0.192086235 -0.0605258606
v -0.094648242 -0.220954388 -0.0893938616
v -0.0819170326 -0.199578583 -0.0819015354
v -0.0894096047 -0.187088624 -0.0605257601
v -0.0894101858 -0.220954388 -0.0942664295
v -0.06054141 -0.187088624 -0.0893939063
v -0.0605419911 -0.19208625 -0.0942664295
v -0.0819170326 -0.199578583 0.0819324926
v -0.094648242 -0.192086235 0.06055687
v -0.0894096047 -0.187088624 0.06055687
v -0.094648242 -0.220954388 0.0894248784
v -0.06054141 -0.187088579 0.0894248784
v -0.0894096047 -0.220954388 0.0950463265
v -0.0605416037 -0.192086235 0.0950464234
v 0.0819169432 -0.199578583 -0.0819015354
v 0.0946473703 -0.192086235 -0.0605257601
v 0.0894091204 -0.187088624 -0.0605257601
v 0.0946481526 -0.220954314 -0.0893939063
v 0.0605411194 -0.187088624 -0.0893939063
v 0.0894085467 -0.220954418 -0.0942663327
v 0.060540542 -0.19208625 -0.0942664295
v 0.0946473703 -0.192086235 0.06055687
v 0.0819169432 -0.199578583 0.0819324926
v 0.0894091204 -0.187088624 0.06055687
v 0.0946481526 -0.220954314 0.0894248635
v 0.0605411194 -0.187088579 0.0894248784
v 0.0894091204 -0.220954388 0.0950463265
v 0.0605411194 -0.19208625 0.095046334
v 0.0819169432 -0.363412619 -0.0819015354
v 0.060540922 -0.376645774 -0.0893937647
v 0.0894091204 -0.376645774 -0.0605256632
v 0.0946481526 -0.370904863 -0.0605257601
v 0.060540542 -0.370905042 -0.0942664295
v 0.0946481526 -0.342036813 -0.0893939063
v 0.0894085467 -0.342036933 -0.0942664295
v 0.0894091204 -0.376645774 0.0605571531
v 0.060540922 -0.376645774 0.0894250646
v 0.0819169432 -0.363412648 0.0819325075
v 0.0946479514 -0.370904863 0.06055687
v 0.0605411194 -0.370904952 0.0950463265
v 0.0946481526 -0.342036813 0.0894248784
v 0.0894091204 -0.342036903 0.0950463265
v -0.100903869 -0.231324643 0.215294227
v -0.0788937807 -0.324610978 0.228531107
v -0.100903869 -0.331636369 0.215294197
v -0.0788937807 -0.238350078 0.228531107
v -0.0431323946 -0.360372543 0.228531092
v -0.0501577407 -0.180578634 0.215294227
v -0.0501577407 -0.382382423 0.215294197
v -0.0431322008 -0.202588558 0.228531107
v 0.0431286134 -0.360372543 0.228531092
v 0.050154157 -0.180578634 0.215294227
v 0.050154157 -0.382382423 0.215294197
v 0.0431286134 -0.202588558 0.228531107
v 0.0788901895 -0.324610978 0.228531107
v 0.100900091 -0.231324643 0.215294227
v 0.100900091 -0.331636369 0.215294197
v 0.0788901895 -0.238350078 0.228531107
v -0.089522399 -0.220864594 0.17352207
v -0.101756342 -0.332060575 0.184710041
v -0.089522399 -0.342097282 0.17352207
v -0.101756342 -0.230901375 0.184710041
v -0.0505815484 -0.383235395 0.184710026
v -0.0606185384 -0.191960707 0.17352207
v -0.0606185384 -0.371001124 0.17352207
v -0.0505815484 -0.179726571 0.184710041
v 0.0505775809 -0.383235395 0.184710026
v 0.0606141761 -0.191960707 0.17352207
v 0.0606141761 -0.371001124 0.17352207
v 0.0505775809 -0.179726571 0.184710041
v 0.101752162 -0.332060575 0.184710041
v 0.089518033 -0.220864594 0.17352207
v 0.089518033 -0.342097282 0.17352207
v 0.101752162 -0.230901375 0.184710041
v -0.050156191 -0.498574704 -0.100900918
v 0.0431301668 -0.510012209 -0.0788910165
v 0.050155513 -0.498574704 -0.100900918
v -0.0431308448 -0.510012209 -0.0788910165
v 0.0788915455 -0.510012209 -0.0431295373
v -0.100902319 -0.498574704 -0.0501548834
v 0.100901261 -0.498574704 -0.0501548834
v -0.078892231 -0.510012209 -0.0431294441
v 0.0788915455 -0.510012209 0.0431313701
v -0.100902319 -0.498574704 0.0501567274
v 0.100901261 -0.498574704 0.0501567274
v -0.078892231 -0.510012209 0.0431313701
v 0.0431301668 -0.510012209 0.0788930506
v -0.050156191 -0.498574704 0.10090284
v 0.050155513 -0.498574704 0.10090284
v -0.0431308448 -0.510012209 0.0788930506
v -0.0606162101 -0.454204857 -0.0895193815
v 0.0505795181 -0.467248917 -0.101753525
v 0.0606163107 -0.454204857 -0.0895193815
v -0.0505796149 -0.467248917 -0.101753525
v 0.101754494 -0.467248917 -0.0505789854
v -0.0895202607 -0.454204857 -0.060615778
v 0.0895201638 -0.454204857 -0.060615778
v -0.101754203 -0.467248917 -0.0505789854
v 0.101754494 -0.467248917 0.0505805388
v -0.0895202607 -0.454204857 0.0606172346
v 0.0895201638 -0.454204857 0.0606172346
v -0.101754203 -0.467248917 0.0505805388
v 0.0505795181 -0.467248917 0.101755217
v -0.0606162101 -0.454204857 0.0895209834
v 0.0606163107 -0.454204857 0.0895209834
v -0.0505796149 -0.467248917 0.101755217
v -0.0856164545 -0.242039561 0.499998629
v -0.0640853569 -0.251900047 0.499999106
v -0.0640856028 -0.310599536 0.499998659
v -0.0856164545 -0.32046026 0.499998659
v -0.0392104685 -0.195632994 0.499998629
v -0.0293500125 -0.345335603 0.499998659
v -0.0293497574 -0.217164189 0.499999106
v -0.0392103456 -0.366866678 0.499998659
v 0.0392107405 -0.195632994 0.499998033
v 0.0293500274 -0.345335424 0.499998659
v 0.0293496307 -0.217164338 0.499998629
v 0.039210476 -0.366866529 0.499999076
v 0.0856167227 -0.242039219 0.499998659
v 0.06408602 -0.310599625 0.499998659
v 0.06408602 -0.251900107 0.499998033
v 0.0856165737 -0.32046032 0.499999136
vt 0.903180361 0.563888371
vt 0.891462803 0.563888133
vt 0.903180361 0.552170753
vt 0.903179467 0.563888133
vt 0.903179467 0.552170515
vt 0.891461968 0.563888133
vt 0.903180361 0.552170515
vt 0.903180361 0.563888133
vt 0.891462684 0.563888133
vt 0.891462803 0.563900948
vt 0.903180361 0.563900948
vt 0.903180361 0.55218327
vt 0.628699541 0.764062047
vt 0.628699541 0.809399128
vt 0.646167994 0.809399128
vt 0.646167994 0.764061928
vt 0.661713779 0.809399128
vt 0.661713779 0.764061928
vt 0.745886803 0.764062345
vt 0.745886803 0.809399128
vt 0.761307597 0.809399128
vt 0.761307597 0.764062047
vt 0.728265285 0.764063001
vt 0.728265285 0.809399128
vt 0.745886803 0.809399128
vt 0.745886803 0.764062345
vt 0.712555885 0.76406312
vt 0.728265285 0.809399128
vt 0.728265285 0.764063001
vt 0.712555885 0.809399128
vt 0.694801271 0.764063597
vt 0.694801271 0.809399128
vt 0.679043651 0.764063776
vt 0.679043651 0.809399128
vt 0.661713779 0.764064014
vt 0.661713779 0.809399128
vt 0.679043651 0.809399128
vt 0.679043651 0.764063776
vt 0.943912506 0.578163147
vt 0.943911135 0.525642037
vt 0.93497622 0.525646925
vt 0.93497622 0.578163147
vt 0.943912506 0.578163147
vt 0.943911135 0.525642037
vt 0.93497622 0.525646925
vt 0.93497622 0.578163147
vt 0.943912506 0.578163147
vt 0.943911135 0.525642037
vt 0.93497622 0.525646925
vt 0.93497622 0.578163147
vt 0.943912506 0.578163147
vt 0.943911135 0.525642037
vt 0.93497622 0.525646925
vt 0.93497622 0.578163147
vt 0.93497622 0.525646925
vt 0.93497622 0.578163147
vt 0.943912506 0.578163147
vt 0.943911135 0.525642037
vt 0.93497622 0.525647461
vt 0.93497622 0.578163147
vt 0.943912506 0.578163147
vt 0.94391036 0.525650144
vt 0.934976339 0.525647461
vt 0.93497622 0.578163147
vt 0.943912506 0.578163147
vt 0.943914354 0.525652587
vt 0.934976339 0.525647223
vt 0.93497622 0.578163147
vt 0.943912506 0.578163147
vt 0.943914592 0.525645137
vt 0.943912506 0.578163147
vt 0.94391036 0.525650144
vt 0.93497622 0.525647461
vt 0.93497622 0.578163147
vt 0.93497622 0.525647461
vt 0.93497622 0.578163147
vt 0.943912506 0.578163147
vt 0.94391036 0.525650144
vt 0.943912506 0.578163147
vt 0.943914592 0.525645137
vt 0.934976339 0.525647223
vt 0.93497622 0.578163147
vt 0.943912506 0.578163147
vt 0.94391036 0.525650144
vt 0.93497622 0.525647461
vt 0.93497622 0.578163147
vt 0.957827508 0.513191104
vt 0.994250894 0.488644063
vt 0.994250894 0.513191104
vt 0.957827508 0.488644063
vt 0.946188986 0.513191104
vt 0.946188986 0.488644063
vt 0.909765601 0.513191104
vt 0.909765601 0.488644063
vt 0.89812696 0.488644063
vt 0.89812696 0.513191104
vt 0.861703634 0.513191104
vt 0.861703634 0.488644063
vt 0.850065172 0.513191104
vt 0.850065172 0.488644063
vt 0.813641727 0.513191104
vt 0.813641727 0.488644063
vt 0.802003145 0.513191104
vt 0.802003145 0.488644063
vt 0.962158561 0.516360402
vt 0.990387857 0.523758531
vt 0.990387857 0.516360402
vt 0.962158442 0.523758531
vt 0.94232595 0.516360402
vt 0.94232583 0.523758531
vt 0.914096653 0.516360402
vt 0.914096653 0.523758531
vt 0.894263983 0.516360402
vt 0.894263983 0.523758531
vt 0.866034687 0.516360402
vt 0.866034806 0.523758531
vt 0.846202075 0.516360402
vt 0.846202195 0.523758531
vt 0.817972779 0.516360402
vt 0.817972779 0.523758531
vt 0.798140109 0.516360402
vt 0.798140109 0.523758531
vt 0.957827508 0.513191104
vt 0.994250894 0.488644063
vt 0.994250894 0.513191104
vt 0.957827508 0.488644063
vt 0.946188986 0.513191104
vt 0.946188986 0.488644063
vt 0.909765601 0.513191104
vt 0.909765601 0.488644063
vt 0.89812696 0.488644063
vt 0.89812696 0.513191104
vt 0.861703634 0.513191104
vt 0.861703634 0.488644063
vt 0.850065172 0.513191104
vt 0.850065172 0.488644063
vt 0.813641727 0.513191104
vt 0.813641727 0.488644063
vt 0.802003145 0.513191104
vt 0.802003145 0.488644063
vt 0.962158561 0.516360402
vt 0.990387857 0.523758531
vt 0.990387857 0.516360402
vt 0.962158442 0.523758531
vt 0.94232595 0.516360402
vt 0.94232583 0.523758531
vt 0.914096653 0.516360402
vt 0.914096653 0.523758531
vt 0.894263983 0.516360402
vt 0.894263983 0.523758531
vt 0.866034687 0.516360402
vt 0.866034806 0.523758531
vt 0.846202075 0.516360402
vt 0.846202195 0.523758531
vt 0.817972779 0.516360402
vt 0.817972779 0.523758531
vt 0.798140109 0.516360402
vt 0.798140109 0.523758531
vt 0.78204453 0.0534926653
vt 0.781988859 0.0534370244
vt 0.781894803 0.0534370244
vt 0.781839073 0.0534926653
vt 0.781839073 0.053586781
vt 0.78204453 0.0535868406
vt 0.781988859 0.0536424518
vt 0.781894803 0.0536424518
vt 0.781875312 0.0532397926
vt 0.781818032 0.0531824529
vt 0.781679749 0.0531824529
vt 0.781622469 0.0532397926
vt 0.781875312 0.0533780456
vt 0.781622469 0.0533780456
vt 0.781818032 0.0534353554
vt 0.781679749 0.0534353554
vt 0.852595985 0.575076818
vt 0.839953721 0.546085
vt 0.852595985 0.541497648
vt 0.844590127 0.533491671
vt 0.840003014 0.570439875
vt 0.844590127 0.583082795
vt 0.811010838 0.583082795
vt 0.815598488 0.546133757
vt 0.811010838 0.533491671
vt 0.803004861 0.541497648
vt 0.815647602 0.570489407
vt 0.803004861 0.575076818
vt 0.852595985 0.575076818
vt 0.83995384 0.546085119
vt 0.852595985 0.541497648
vt 0.844590127 0.533491671
vt 0.840002716 0.570440412
vt 0.844590127 0.583082795
vt 0.811010838 0.583082795
vt 0.815598071 0.546134114
vt 0.811010838 0.533491671
vt 0.803004861 0.541497648
vt 0.815647721 0.570489824
vt 0.803004861 0.575076818
vt 0.852595985 0.575076818
vt 0.839953601 0.546085119
vt 0.852595985 0.541497648
vt 0.844590127 0.533491671
vt 0.840002358 0.570440412
vt 0.844590127 0.583082795
vt 0.811010838 0.583082795
vt 0.815597951 0.546134412
vt 0.811010838 0.533491671
vt 0.803004861 0.541497648
vt 0.815647483 0.570489407
vt 0.803004861 0.575076818
vt 0.852595985 0.575076818
vt 0.839952946 0.546085119
vt 0.852595985 0.541497648
vt 0.844590127 0.533491671
vt 0.840002239 0.570439517
vt 0.844590127 0.583082795
vt 0.811010838 0.583082795
vt 0.815598726 0.546134412
vt 0.811010838 0.533491671
vt 0.803004861 0.541497648
vt 0.815647602 0.570488751
vt 0.803004861 0.575076818
vt 0.950194955 0.587294877
vt 0.943921387 0.578166962
vt 0.939443827 0.586763442
vt 0.945717394 0.594816923
vt 0.934966326 0.578166962
vt 0.933170438 0.594816923
vt 0.928692877 0.587294877
vt 0.943926394 0.578171849
vt 0.950199783 0.587299585
vt 0.939448595 0.586768448
vt 0.934971213 0.578171849
vt 0.945722222 0.594821692
vt 0.928697586 0.587299585
vt 0.933175325 0.594821692
vt 0.950199783 0.587299585
vt 0.943926394 0.578171849
vt 0.939448595 0.586768448
vt 0.945722222 0.594821692
vt 0.934971213 0.578171849
vt 0.933175325 0.594821692
vt 0.928697586 0.587299585
vt 0.939443827 0.586763442
vt 0.950194955 0.587294877
vt 0.945717394 0.594816923
vt 0.943921387 0.578166962
vt 0.933170438 0.594816923
vt 0.934966326 0.578166962
vt 0.928692877 0.587294877
vt 0.939440668 0.586776257
vt 0.950191677 0.587307751
vt 0.945714116 0.594829857
vt 0.943918288 0.578179896
vt 0.93316704 0.594829857
vt 0.934963167 0.578180075
vt 0.928689599 0.587307751
vt 0.950186968 0.587302744
vt 0.939435899 0.586771607
vt 0.945709169 0.594825149
vt 0.94391346 0.578175068
vt 0.933162332 0.594825149
vt 0.934958279 0.578175068
vt 0.928684771 0.587302744
vt 0.939440668 0.586776257
vt 0.93316704 0.594829857
vt 0.945714116 0.594829857
vt 0.950191677 0.587307751
vt 0.928689599 0.587307751
vt 0.943918288 0.578179896
vt 0.934963167 0.578180075
vt 0.945709169 0.594825149
vt 0.933162332 0.594825149
vt 0.939435899 0.586771607
vt 0.950186968 0.587302744
vt 0.928684771 0.587302744
vt 0.94391346 0.578175068
vt 0.934958279 0.578175068
vt 0.863500953 0.576442778
vt 0.871729791 0.544753969
vt 0.863498151 0.542043209
vt 0.87172842 0.573625863
vt 0.883023143 0.534130514
vt 0.880637527 0.591980636
vt 0.880455256 0.526143134
vt 0.883103907 0.58394134
vt 0.912024915 0.533686697
vt 0.915000618 0.591181159
vt 0.914463699 0.526071608
vt 0.912341595 0.583941102
vt 0.924078286 0.544708669
vt 0.931822419 0.575492918
vt 0.9317981 0.541983068
vt 0.92407912 0.5727337
vt 0.846397221 0.585678875
vt 0.811323225 0.59243983
vt 0.80982095 0.585678875
vt 0.844895065 0.59243983
vt 0.794339657 0.575456321
vt 0.85511744 0.576958537
vt 0.801100671 0.576958537
vt 0.861878514 0.575456321
vt 0.794339657 0.541884542
vt 0.85511744 0.540382206
vt 0.801100671 0.540382206
vt 0.861878514 0.541884542
vt 0.811323225 0.524900913
vt 0.846397221 0.531661987
vt 0.80982095 0.531661987
vt 0.844895065 0.524900913
vt 0.863500953 0.576442778
vt 0.871729791 0.544753969
vt 0.863498151 0.542043209
vt 0.87172842 0.573625863
vt 0.883023143 0.534130514
vt 0.880637527 0.591980636
vt 0.880455256 0.526143134
vt 0.883103907 0.58394134
vt 0.912024915 0.533686697
vt 0.915000618 0.591181159
vt 0.914463699 0.526071608
vt 0.912341595 0.583941102
vt 0.924078286 0.544708669
vt 0.931822419 0.575492918
vt 0.9317981 0.541983068
vt 0.92407912 0.5727337
vt 0.846397221 0.585678875
vt 0.811323225 0.59243983
vt 0.80982095 0.585678875
vt 0.844895065 0.59243983
vt 0.794339657 0.575456321
vt 0.85511744 0.576958537
vt 0.801100671 0.576958537
vt 0.861878514 0.575456321
vt 0.794339657 0.541884542
vt 0.85511744 0.540382206
vt 0.801100671 0.540382206
vt 0.861878514 0.541884542
vt 0.811323225 0.524900913
vt 0.846397221 0.531661987
vt 0.80982095 0.531661987
vt 0.844895065 0.524900913
vt 0.811390936 0.922434986
vt 0.81744945 0.919713497
vt 0.817506194 0.903370261
vt 0.811430693 0.900571227
vt 0.824485123 0.935384214
vt 0.827288508 0.893567264
vt 0.827275038 0.929398358
vt 0.824529409 0.887520969
vt 0.846483886 0.935384214
vt 0.843766689 0.893562496
vt 0.843739629 0.929398358
vt 0.846528053 0.887539923
vt 0.859563768 0.922462285
vt 0.853507638 0.903330207
vt 0.853561461 0.919794679
vt 0.859570205 0.900560141
vn -0.577397406 0.577327728 -0.577325702
vn -0.577397406 0.577327728 -0.577325702
vn -0.577397406 0.577327728 -0.577325702
vn 0.577355742 0.577349901 -0.577345014
vn 0.885721326 0.458154559 -0.0747813582
vn 0.885721385 0.0747906715 -0.458152652
vn 0.577356815 0.577346027 0.577347994
vn 0.458149284 0.074628666 0.885736823
vn 0.885755241 0.07469365 0.45810321
vn -0.577360392 0.577347636 0.577342749
vn -0.577360392 0.577347636 0.577342749
vn -0.885756373 0.0746976137 0.458100319
vn 0.382692456 -0.923875749 8.09490448E-05
vn 0.382676303 -0.923882484 8.0949605E-05
vn -0.382677555 -0.923881948 8.01773494E-05
vn -0.382691354 -0.923876286 8.01768183E-05
vn -0.707109392 -0.707104146 6.09007693E-05
vn -0.707109392 -0.707104146 6.09007657E-05
vn 0.707107186 -0.707106352 6.23278975E-05
vn 0.707107186 -0.707106352 6.23278756E-05
vn 0.382676303 -0.923882484 8.0949605E-05
vn 0.382692456 -0.923875749 8.09490448E-05
vn 1 -1.7374897E-06 7.21468609E-07
vn 1 -1.7374897E-06 7.21468609E-07
vn 1 -1.73748981E-06 7.21468609E-07
vn 1 -1.7374897E-06 7.21468609E-07
vn 0.382677019 0.923882186 -8.05573291E-05
vn 0.707108498 0.707104981 -6.13445955E-05
vn 0.707108498 0.707104981 -6.13445955E-05
vn 0.382692128 0.923875868 -8.05567906E-05
vn -0.382680386 0.923880756 -8.12805811E-05
vn -0.38269344 0.923875332 -8.12801227E-05
vn -0.707112074 0.707101405 -6.26809124E-05
vn -0.707112074 0.707101405 -6.26809124E-05
vn -1 0 -1.67948315E-06
vn -1 0 -1.67948315E-06
vn -1 0 -1.67948315E-06
vn -1 0 -1.67948315E-06
vn -0.846890509 -0.372623265 0.379379034
vn -0.846932292 -0.372562885 -0.379344761
vn -0.794540107 -0.544514596 -0.268719226
vn -0.794570386 -0.544467866 0.268724024
vn -0.37574473 -0.358344913 -0.854637206
vn 0.375748158 -0.358327508 -0.854643047
vn 0.266963422 -0.52977401 -0.805027962
vn -0.266982734 -0.52978915 -0.805011511
vn 0.846927464 -0.372573584 -0.379345357
vn 0.846888542 -0.37262857 0.379377991
vn 0.79456687 -0.544474244 0.268721372
vn 0.794533372 -0.544525325 -0.26871711
vn 0.38291505 -0.386492252 0.839046955
vn -0.382917583 -0.386491388 0.83904624
vn -0.384324759 -0.834260881 0.395352036
vn 0.384325892 -0.834255397 0.395362526
vn -0.267285615 0.798716664 0.539082646
vn 0.26728633 0.798713744 0.539086521
vn 0.377368122 0.849801302 0.368009537
vn -0.377367884 0.849808514 0.367993087
vn 0.552713275 0.789733469 0.266137332
vn 0.552757084 0.789705753 -0.266128927
vn 0.776588202 0.570978165 -0.266260624
vn 0.77661705 0.570934713 0.266269565
vn 0.264905185 0.780273497 -0.566567361
vn -0.264893621 0.780288041 -0.566552699
vn -0.264797807 0.556636453 -0.787424922
vn 0.264776409 0.556620002 -0.787443697
vn -0.552740872 0.789716005 -0.266131967
vn -0.552698433 0.78974247 0.266141385
vn -0.776609778 0.570941985 0.266275346
vn -0.776579678 0.570986211 -0.266268373
vn 0.791871786 0.268355668 0.548565626
vn 0.791900754 -0.268358469 0.548522532
vn 0.844623148 -0.379720837 0.377390712
vn 0.844663739 0.379692256 0.377328873
vn -0.791908145 -0.268360525 0.54851073
vn -0.791880906 0.268352717 0.548554122
vn -0.844679117 0.379696488 0.37729004
vn -0.844637692 -0.379724264 0.37735489
vn 0.773243785 -0.265796095 -0.575713813
vn 0.773212433 0.265793562 -0.575757265
vn 0.547526836 0.265539795 -0.793538272
vn 0.547487319 -0.265550017 -0.793562055
vn -0.773254573 0.265794426 -0.575700223
vn -0.773283422 -0.265803277 -0.575657248
vn -0.54754436 -0.265554011 -0.793521464
vn -0.547587514 0.265546292 -0.793494225
vn -0.37574473 -0.358344913 -0.854637206
vn 0.382743865 0.00186906022 -0.923852682
vn 0.375748158 -0.358327508 -0.854643047
vn -0.382741392 0.00186690933 -0.923853695
vn -0.846932292 -0.372562885 -0.379344761
vn -0.923827946 0.00176216708 -0.382804036
vn -0.846890509 -0.372623265 0.379379034
vn -0.923861504 0.00161449704 0.382723421
vn -0.382774621 0.00151176145 0.923840523
vn -0.382917583 -0.386491388 0.83904624
vn 0.38291505 -0.386492252 0.839046955
vn 0.382776976 0.00151415542 0.923839509
vn 0.846888542 -0.37262857 0.379377991
vn 0.92386204 0.00161959301 0.382722229
vn 0.846927464 -0.372573584 -0.379345357
vn 0.923828542 0.00176701893 -0.382802457
vn 0.375748158 -0.358327508 -0.854643047
vn 0.382743865 0.00186906022 -0.923852682
vn -0.382968277 -0.0303052254 -0.923264205
vn 0.382032156 -0.0303149149 -0.923651636
vn 0.382971972 -0.0303170569 -0.923262417
vn -0.382036209 -0.0303031318 -0.923650324
vn -0.923261702 -0.0302927177 -0.382975459
vn -0.923653305 -0.0302905701 -0.382030457
vn -0.923262835 -0.0302894562 0.382973045
vn -0.923652649 -0.0302873217 0.382031858
vn -0.382969618 -0.0302978083 0.923263907
vn -0.38203615 -0.0302957091 0.923650622
vn 0.382973254 -0.0303096492 0.923262
vn 0.382032186 -0.0303075109 0.923651934
vn 0.923263311 -0.0303246565 0.382969022
vn 0.923650146 -0.0303225778 0.382035255
vn 0.923262179 -0.0303279124 -0.382971466
vn 0.923650622 -0.0303258095 -0.382033855
vn 0.382971972 -0.0303170569 -0.923262417
vn 0.382032156 -0.0303149149 -0.923651636
vn -0.844679117 0.379696488 0.37729004
vn -0.923863471 -0.382718891 -0.00162203179
vn -0.844637692 -0.379724264 0.37735489
vn -0.923831105 0.382796317 -0.00176543219
vn -0.377367884 0.849808514 0.367993087
vn -0.382749408 0.923850298 -0.00185334519
vn 0.377368122 0.849801302 0.368009537
vn 0.382739127 0.923854589 -0.00183449767
vn 0.923829436 0.382800609 -0.00171986769
vn 0.844663739 0.379692256 0.377328873
vn 0.844623148 -0.379720837 0.377390712
vn 0.923861742 -0.382723123 -0.00157640735
vn 0.384325892 -0.834255397 0.395362526
vn 0.382771224 -0.923841953 -0.00148856791
vn -0.384324759 -0.834260881 0.395352036
vn -0.382781506 -0.923837721 -0.00150747469
vn -0.844637692 -0.379724264 0.37735489
vn -0.923863471 -0.382718891 -0.00162203179
vn -0.923238933 0.38297087 0.0310344305
vn -0.923636377 -0.382010758 0.0310434066
vn -0.923236191 -0.38297677 0.0310456567
vn -0.923634052 0.382017106 0.0310322419
vn -0.382975042 0.923237503 0.0310271624
vn -0.382012069 0.923636377 0.0310249366
vn 0.382973433 0.923238337 0.0310223196
vn 0.382015705 0.923635066 0.0310201161
vn 0.923239231 0.382971227 0.0310227312
vn 0.923635304 0.382015288 0.031020537
vn 0.92323637 -0.382977158 0.0310339555
vn 0.92363739 -0.382009029 0.0310317036
vn 0.382970542 -0.923238635 0.0310493503
vn 0.382017881 -0.923633218 0.0310471598
vn -0.382972211 -0.923237681 0.0310541838
vn -0.382014275 -0.923634648 0.0310519803
vn -0.923236191 -0.38297677 0.0310456567
vn -0.923636377 -0.382010758 0.0310434066
vn 4.35506809E-06 -1.20966354E-06 1
vn 4.35506763E-06 -1.20966354E-06 1
vn 4.35506809E-06 -1.20966354E-06 1
vn 4.35506809E-06 -1.20966342E-06 1
vn 4.35506809E-06 -1.20966354E-06 1
vn 4.35506809E-06 -1.20966354E-06 1
vn 4.35506809E-06 -1.20966342E-06 1
vn 4.35506809E-06 -1.20966365E-06 1
vn -0 -1 0
vn -0 -1 0
vn -0 -1 0
vn -0 -1 0
vn -0 -1 0
vn -0 -1 0
vn -0 -1 0
vn -0 -1 0
vn -0.794540107 -0.544514596 -0.268719226
vn -0.965170324 -0.184995666 0.184994563
vn -0.794570386 -0.544467866 0.268724024
vn -0.791908145 -0.268360525 0.54851073
vn -0.965137661 -0.184993714 -0.185166389
vn -0.773283422 -0.265803277 -0.575657248
vn -0.773254573 0.265794426 -0.575700223
vn -0.965138137 0.185164943 0.184992567
vn -0.791880906 0.268352717 0.548554122
vn -0.776609778 0.570941985 0.266275346
vn -0.965105712 0.185162857 -0.185164303
vn -0.776579678 0.570986211 -0.266268373
vn 0.79456687 -0.544474244 0.268721372
vn 0.965137899 -0.184993342 -0.185165986
vn 0.794533372 -0.544525325 -0.26871711
vn 0.773243785 -0.265796095 -0.575713813
vn 0.965170205 -0.184995815 0.184994668
vn 0.791900754 -0.268358469 0.548522532
vn 0.791871786 0.268355668 0.548565626
vn 0.965104461 0.185169592 -0.185163364
vn 0.773212433 0.265793562 -0.575757265
vn 0.776588202 0.570978165 -0.266260624
vn 0.965137005 0.185171574 0.184991777
vn 0.77661705 0.570934713 0.266269565
vn 0.552713275 0.789733469 0.266137332
vn 0.18501395 0.965146661 -0.185099378
vn 0.552757084 0.789705753 -0.266128927
vn 0.264905185 0.780273497 -0.566567361
vn 0.185015962 0.965179205 0.184927523
vn 0.26728633 0.798713744 0.539086521
vn -0.267285615 0.798716664 0.539082646
vn -0.18501243 0.965146899 -0.185099512
vn -0.264893621 0.780288041 -0.566552699
vn -0.552740872 0.789716005 -0.266131967
vn -0.185014442 0.965179563 0.184927672
vn -0.552698433 0.78974247 0.266141385
vn 0.547526836 0.265539795 -0.793538272
vn 0.184811532 -0.184720948 -0.965257943
vn 0.547487319 -0.265550017 -0.793562055
vn 0.266963422 -0.52977401 -0.805027962
vn 0.184809625 0.184891298 -0.965225756
vn 0.264776409 0.556620002 -0.787443697
vn -0.264797807 0.556636453 -0.787424922
vn -0.184804961 -0.184721291 -0.965259194
vn -0.266982734 -0.52978915 -0.805011511
vn -0.54754436 -0.265554011 -0.793521464
vn -0.184802756 0.184891462 -0.965226948
vn -0.547587514 0.265546292 -0.793494225
vn -0.794570386 -0.544467866 0.268724024
vn -0.791908145 -0.268360525 0.54851073
vn -0.58368504 -0.57290262 0.575408101
vn -0.846890509 -0.372623265 0.379379034
vn -0.844637692 -0.379724264 0.37735489
vn -0.382917583 -0.386491388 0.83904624
vn -0.384324759 -0.834260881 0.395352036
vn -0.773283422 -0.265803277 -0.575657248
vn -0.794540107 -0.544514596 -0.268719226
vn -0.578123569 -0.567425966 -0.586345375
vn -0.54754436 -0.265554011 -0.793521464
vn -0.846932292 -0.372562885 -0.379344761
vn -0.266982734 -0.52978915 -0.805011511
vn -0.37574473 -0.358344913 -0.854637206
vn -0.776579678 0.570986211 -0.266268373
vn -0.773254573 0.265794426 -0.575700223
vn -0.57283628 0.578179836 -0.581004858
vn -0.552740872 0.789716005 -0.266131967
vn -0.547587514 0.265546292 -0.793494225
vn -0.264893621 0.780288041 -0.566552699
vn -0.264797807 0.556636453 -0.787424922
vn -0.578270495 0.583649099 0.570050001
vn -0.776609778 0.570941985 0.266275346
vn -0.552698433 0.78974247 0.266141385
vn -0.791880906 0.268352717 0.548554122
vn -0.267285615 0.798716664 0.539082646
vn -0.844679117 0.379696488 0.37729004
vn -0.377367884 0.849808514 0.367993087
vn 0.572830498 0.578171968 -0.581018388
vn 0.776588202 0.570978165 -0.266260624
vn 0.552757084 0.789705753 -0.266128927
vn 0.773212433 0.265793562 -0.575757265
vn 0.264905185 0.780273497 -0.566567361
vn 0.547526836 0.265539795 -0.793538272
vn 0.264776409 0.556620002 -0.787443697
vn 0.77661705 0.570934713 0.266269565
vn 0.578270793 0.583649278 0.570049465
vn 0.552713275 0.789733469 0.266137332
vn 0.791871786 0.268355668 0.548565626
vn 0.26728633 0.798713744 0.539086521
vn 0.844663739 0.379692256 0.377328873
vn 0.377368122 0.849801302 0.368009537
vn 0.578112185 -0.567419946 -0.586362422
vn 0.375748158 -0.358327508 -0.854643047
vn 0.846927464 -0.372573584 -0.379345357
vn 0.794533372 -0.544525325 -0.26871711
vn 0.266963422 -0.52977401 -0.805027962
vn 0.773243785 -0.265796095 -0.575713813
vn 0.547487319 -0.265550017 -0.793562055
vn 0.846888542 -0.37262857 0.379377991
vn 0.38291505 -0.386492252 0.839046955
vn 0.583682895 -0.57290411 0.575408757
vn 0.79456687 -0.544474244 0.268721372
vn 0.384325892 -0.834255397 0.395362526
vn 0.791900754 -0.268358469 0.548522532
vn 0.844623148 -0.379720837 0.377390712
vn -0.462666839 0.18434301 0.867154479
vn -0.45627591 -0.202929422 0.866390169
vn -0.462667733 -0.184343249 0.867154062
vn -0.456275076 0.202929065 0.866390705
vn -0.202929705 -0.45627743 0.866389394
vn -0.184343904 0.462668419 0.867153585
vn -0.184343651 -0.462669373 0.867153049
vn -0.202928081 0.456277132 0.86638993
vn 0.202928916 -0.456277698 0.866389394
vn 0.184344366 0.462668806 0.867153227
vn 0.18434459 -0.462669075 0.867153049
vn 0.202928782 0.45627743 0.866389573
vn 0.456277668 -0.202929333 0.866389275
vn 0.462669283 0.18434383 0.867153168
vn 0.462669432 -0.184343755 0.867153049
vn 0.456277549 0.202929124 0.866389453
vn -0.763042569 0.547944307 -0.342816293
vn -0.738098204 -0.172634423 -0.652233303
vn -0.763041556 -0.547942996 -0.342820793
vn -0.7380988 0.17263402 -0.652232826
vn -0.172631279 -0.738090754 -0.652242601
vn -0.547946215 0.763041019 -0.342816889
vn -0.547945321 -0.76303941 -0.342821956
vn -0.172631785 0.738093674 -0.652239203
vn 0.172634035 -0.738089323 -0.652243495
vn 0.547941089 0.763037384 -0.342833012
vn 0.547940254 -0.763035774 -0.34283796
vn 0.172634467 0.738092244 -0.652240098
vn 0.738091648 -0.172633052 -0.65224123
vn 0.763038337 0.547940671 -0.342831671
vn 0.763037384 -0.54793936 -0.342835933
vn 0.738092124 0.172632635 -0.652240694
vn -0.164396256 -0.895764589 -0.413012773
vn 0.181697562 -0.895106137 -0.407149822
vn 0.164397329 -0.895764053 -0.413013637
vn -0.181696132 -0.895106912 -0.407148868
vn 0.407152295 -0.895105302 -0.18169643
vn -0.413011104 -0.895765483 -0.164396062
vn 0.413015872 -0.89576298 -0.164397329
vn -0.407147557 -0.895107567 -0.18169558
vn 0.407152832 -0.895105064 0.181696236
vn -0.413011909 -0.895765066 0.164395839
vn 0.413016319 -0.895762801 0.164397314
vn -0.407148182 -0.89510721 0.181696117
vn 0.181698143 -0.89510566 0.407150567
vn -0.164396986 -0.895764053 0.413013905
vn 0.16439797 -0.895763576 0.413014501
vn -0.181696758 -0.895106256 0.40715
vn -0.538333952 0.317818016 -0.780505061
vn 0.190937877 0.589340091 -0.784997404
vn 0.538333833 0.317820221 -0.780504286
vn -0.190940008 0.589338362 -0.784998298
vn 0.784992635 0.589346111 -0.190939054
vn -0.780503213 0.31781441 -0.538338959
vn 0.780499518 0.317822874 -0.538339376
vn -0.785001397 0.58933413 -0.190940037
vn 0.784992278 0.589346468 0.190939248
vn -0.780503213 0.317818671 0.538336396
vn 0.780499399 0.317827255 0.538336694
vn -0.78500104 0.589334548 0.190940201
vn 0.190937772 0.589343965 0.784994543
vn -0.53833437 0.317822963 0.780502737
vn 0.538334429 0.317825139 0.780501902
vn -0.190939844 0.589341998 0.784995496
vn -1.34069824E-05 6.24577069E-06 1
vn -1.33025724E-05 5.77232549E-06 1
vn -5.7305856E-06 -1.79965548E-06 1
vn -5.44962859E-06 -1.71142278E-06 1
vn -4.19210664E-06 1.99463411E-05 1
vn -1.79964786E-06 5.73048874E-06 1
vn -3.61277898E-06 2.01789553E-05 1
vn -1.71146939E-06 5.44970726E-06 1
vn 3.76514481E-06 1.19889764E-05 1
vn -9.371739E-06 1.33026033E-05 1
vn 3.95927373E-06 1.26071218E-05 1
vn -9.66875996E-06 1.34070051E-05 1
vn -1.19893184E-05 3.76512321E-06 1
vn -2.01795265E-05 1.15312923E-05 1
vn -1.26075147E-05 3.95926099E-06 1
vn -1.9946825E-05 1.17225864E-05 1
g P_Bend_Vert1_0
f 3/3/3 2/2/2 1/1/1
f 6/6/6 5/5/5 4/4/4
f 9/9/9 8/8/8 7/7/7
f 12/12/12 11/11/11 10/10/10
f 15/15/15 14/14/14 13/13/13
f 16/16/16 15/15/15 13/13/13
f 17/17/17 15/15/15 16/16/16
f 18/18/18 17/17/17 16/16/16
f 21/21/21 20/20/20 19/19/19
f 22/22/22 21/21/21 19/19/19
f 25/25/25 24/24/24 23/23/23
f 26/26/26 25/25/25 23/23/23
f 29/29/29 28/28/28 27/27/27
f 28/28/28 30/30/30 27/27/27
f 27/27/27 30/30/30 31/31/31
f 30/30/30 32/32/32 31/31/31
f 31/31/31 32/32/32 33/33/33
f 32/32/32 34/34/34 33/33/33
f 37/37/37 36/36/36 35/35/35
f 38/38/38 37/37/37 35/35/35
f 41/41/41 40/40/40 39/39/39
f 42/42/42 41/41/41 39/39/39
f 45/45/45 44/44/44 43/43/43
f 46/46/46 45/45/45 43/43/43
f 49/49/49 48/48/48 47/47/47
f 50/50/50 49/49/49 47/47/47
f 53/53/53 52/52/52 51/51/51
f 54/54/54 53/53/53 51/51/51
f 57/57/57 56/56/56 55/55/55
f 58/58/58 57/57/57 55/55/55
f 61/61/61 60/60/60 59/59/59
f 62/62/62 61/61/61 59/59/59
f 65/65/65 64/64/64 63/63/63
f 66/66/66 65/65/65 63/63/63
f 69/69/69 68/68/68 67/67/67
f 70/70/70 69/69/69 67/67/67
f 73/73/73 72/72/72 71/71/71
f 74/74/74 73/73/73 71/71/71
f 77/77/77 76/76/76 75/75/75
f 78/78/78 77/77/77 75/75/75
f 81/81/81 80/80/80 79/79/79
f 82/82/82 81/81/81 79/79/79
f 85/85/85 84/84/84 83/83/83
f 86/86/86 85/85/85 83/83/83
f 89/89/89 88/88/88 87/87/87
f 88/88/88 90/90/90 87/87/87
f 91/91/91 87/87/87 90/90/90
f 92/92/92 91/91/91 90/90/90
f 91/91/91 92/92/92 93/93/93
f 92/92/92 94/94/94 93/93/93
f 94/94/94 95/95/95 93/93/93
f 95/95/95 96/96/96 93/93/93
f 96/96/96 95/95/95 97/97/97
f 95/95/95 98/98/98 97/97/97
f 99/99/99 97/97/97 98/98/98
f 100/100/100 99/99/99 98/98/98
f 99/99/99 100/100/100 101/101/101
f 100/100/100 102/102/102 101/101/101
f 103/103/103 101/101/101 102/102/102
f 104/104/104 103/103/103 102/102/102
f 107/107/107 106/106/106 105/105/105
f 106/106/106 108/108/108 105/105/105
f 105/105/105 108/108/108 109/109/109
f 108/108/108 110/110/110 109/109/109
f 109/109/109 110/110/110 111/111/111
f 110/110/110 112/112/112 111/111/111
f 111/111/111 112/112/112 113/113/113
f 112/112/112 114/114/114 113/113/113
f 113/113/113 114/114/114 115/115/115
f 114/114/114 116/116/116 115/115/115
f 115/115/115 116/116/116 117/117/117
f 116/116/116 118/118/118 117/117/117
f 117/117/117 118/118/118 119/119/119
f 118/118/118 120/120/120 119/119/119
f 119/119/119 120/120/120 121/121/121
f 120/120/120 122/122/122 121/121/121
f 125/125/125 124/124/124 123/123/123
f 124/124/124 126/126/126 123/123/123
f 127/127/127 123/123/123 126/126/126
f 128/128/128 127/127/127 126/126/126
f 127/127/127 128/128/128 129/129/129
f 128/128/128 130/130/130 129/129/129
f 130/130/130 131/131/131 129/129/129
f 131/131/131 132/132/132 129/129/129
f 132/132/132 131/131/131 133/133/133
f 131/131/131 134/134/134 133/133/133
f 135/135/135 133/133/133 134/134/134
f 136/136/136 135/135/135 134/134/134
f 135/135/135 136/136/136 137/137/137
f 136/136/136 138/138/138 137/137/137
f 139/139/139 137/137/137 138/138/138
f 140/140/140 139/139/139 138/138/138
f 143/143/143 142/142/142 141/141/141
f 142/142/142 144/144/144 141/141/141
f 141/141/141 144/144/144 145/145/145
f 144/144/144 146/146/146 145/145/145
f 145/145/145 146/146/146 147/147/147
f 146/146/146 148/148/148 147/147/147
f 147/147/147 148/148/148 149/149/149
f 148/148/148 150/150/150 149/149/149
f 149/149/149 150/150/150 151/151/151
f 150/150/150 152/152/152 151/151/151
f 151/151/151 152/152/152 153/153/153
f 152/152/152 154/154/154 153/153/153
f 153/153/153 154/154/154 155/155/155
f 154/154/154 156/156/156 155/155/155
f 155/155/155 156/156/156 157/157/157
f 156/156/156 158/158/158 157/157/157
f 161/161/161 160/160/160 159/159/159
f 159/159/159 162/162/162 161/161/161
f 159/159/159 163/163/163 162/162/162
f 159/159/159 164/164/164 163/163/163
f 164/164/164 165/165/165 163/163/163
f 165/165/165 166/166/166 163/163/163
f 169/169/169 168/168/168 167/167/167
f 167/167/167 170/170/170 169/169/169
f 167/167/167 171/171/171 170/170/170
f 171/171/171 172/172/172 170/170/170
f 171/171/171 173/173/173 172/172/172
f 173/173/173 174/174/174 172/172/172
f 177/177/177 176/176/176 175/175/175
f 178/178/178 176/176/176 177/177/177
f 176/176/176 179/179/179 175/175/175
f 175/175/175 179/179/179 180/180/180
f 180/180/180 179/179/179 181/181/181
f 182/182/182 176/176/176 178/178/178
f 179/179/179 176/176/176 182/182/182
f 183/183/183 182/182/182 178/178/178
f 184/184/184 182/182/182 183/183/183
f 179/179/179 185/185/185 181/181/181
f 185/185/185 179/179/179 182/182/182
f 185/185/185 182/182/182 184/184/184
f 181/181/181 185/185/185 186/186/186
f 186/186/186 185/185/185 184/184/184
f 189/189/189 188/188/188 187/187/187
f 190/190/190 188/188/188 189/189/189
f 188/188/188 191/191/191 187/187/187
f 187/187/187 191/191/191 192/192/192
f 192/192/192 191/191/191 193/193/193
f 194/194/194 188/188/188 190/190/190
f 191/191/191 188/188/188 194/194/194
f 195/195/195 194/194/194 190/190/190
f 196/196/196 194/194/194 195/195/195
f 191/191/191 197/197/197 193/193/193
f 197/197/197 191/191/191 194/194/194
f 197/197/197 194/194/194 196/196/196
f 193/193/193 197/197/197 198/198/198
f 198/198/198 197/197/197 196/196/196
f 201/201/201 200/200/200 199/199/199
f 202/202/202 200/200/200 201/201/201
f 200/200/200 203/203/203 199/199/199
f 199/199/199 203/203/203 204/204/204
f 204/204/204 203/203/203 205/205/205
f 206/206/206 200/200/200 202/202/202
f 203/203/203 200/200/200 206/206/206
f 207/207/207 206/206/206 202/202/202
f 208/208/208 206/206/206 207/207/207
f 203/203/203 209/209/209 205/205/205
f 209/209/209 203/203/203 206/206/206
f 209/209/209 206/206/206 208/208/208
f 205/205/205 209/209/209 210/210/210
f 210/210/210 209/209/209 208/208/208
f 213/213/213 212/212/212 211/211/211
f 214/214/214 212/212/212 213/213/213
f 212/212/212 215/215/215 211/211/211
f 211/211/211 215/215/215 216/216/216
f 216/216/216 215/215/215 217/217/217
f 218/218/218 212/212/212 214/214/214
f 215/215/215 212/212/212 218/218/218
f 219/219/219 218/218/218 214/214/214
f 220/220/220 218/218/218 219/219/219
f 215/215/215 221/221/221 217/217/217
f 221/221/221 215/215/215 218/218/218
f 221/221/221 218/218/218 220/220/220
f 217/217/217 221/221/221 222/222/222
f 222/222/222 221/221/221 220/220/220
f 225/225/225 224/224/224 223/223/223
f 223/223/223 226/226/226 225/225/225
f 224/224/224 225/225/225 227/227/227
f 225/225/225 226/226/226 228/228/228
f 225/225/225 229/229/229 227/227/227
f 225/225/225 228/228/228 229/229/229
f 232/232/232 231/231/231 230/230/230
f 233/233/233 232/232/232 230/230/230
f 231/231/231 232/232/232 234/234/234
f 232/232/232 233/233/233 235/235/235
f 232/232/232 236/236/236 234/234/234
f 235/235/235 236/236/236 232/232/232
f 239/239/239 238/238/238 237/237/237
f 240/240/240 239/239/239 237/237/237
f 238/238/238 239/239/239 241/241/241
f 239/239/239 240/240/240 242/242/242
f 243/243/243 241/241/241 239/239/239
f 242/242/242 243/243/243 239/239/239
f 246/246/246 245/245/245 244/244/244
f 244/244/244 245/245/245 247/247/247
f 244/244/244 248/248/248 246/246/246
f 249/249/249 244/244/244 247/247/247
f 248/248/248 244/244/244 250/250/250
f 249/249/249 250/250/250 244/244/244
f 253/253/253 252/252/252 251/251/251
f 251/251/251 252/252/252 254/254/254
f 251/251/251 255/255/255 253/253/253
f 256/256/256 251/251/251 254/254/254
f 255/255/255 251/251/251 257/257/257
f 251/251/251 256/256/256 257/257/257
f 260/260/260 259/259/259 258/258/258
f 259/259/259 261/261/261 258/258/258
f 259/259/259 260/260/260 262/262/262
f 261/261/261 259/259/259 263/263/263
f 262/262/262 264/264/264 259/259/259
f 259/259/259 264/264/264 263/263/263
f 267/267/267 266/266/266 265/265/265
f 267/267/267 265/265/265 268/268/268
f 269/269/269 265/265/265 266/266/266
f 265/265/265 270/270/270 268/268/268
f 265/265/265 269/269/269 271/271/271
f 271/271/271 270/270/270 265/265/265
f 274/274/274 273/273/273 272/272/272
f 275/275/275 274/274/274 272/272/272
f 274/274/274 276/276/276 273/273/273
f 274/274/274 275/275/275 277/277/277
f 274/274/274 278/278/278 276/276/276
f 277/277/277 278/278/278 274/274/274
f 281/281/281 280/280/280 279/279/279
f 280/280/280 282/282/282 279/279/279
f 283/283/283 280/280/280 281/281/281
f 279/279/279 282/282/282 284/284/284
f 285/285/285 283/283/283 281/281/281
f 282/282/282 286/286/286 284/284/284
f 287/287/287 283/283/283 285/285/285
f 284/284/284 286/286/286 288/288/288
f 289/289/289 287/287/287 285/285/285
f 286/286/286 290/290/290 288/288/288
f 291/291/291 287/287/287 289/289/289
f 288/288/288 290/290/290 292/292/292
f 293/293/293 291/291/291 289/289/289
f 290/290/290 294/294/294 292/292/292
f 294/294/294 291/291/291 293/293/293
f 292/292/292 294/294/294 293/293/293
f 297/297/297 296/296/296 295/295/295
f 296/296/296 298/298/298 295/295/295
f 299/299/299 296/296/296 297/297/297
f 295/295/295 298/298/298 300/300/300
f 301/301/301 299/299/299 297/297/297
f 298/298/298 302/302/302 300/300/300
f 303/303/303 299/299/299 301/301/301
f 300/300/300 302/302/302 304/304/304
f 305/305/305 303/303/303 301/301/301
f 302/302/302 306/306/306 304/304/304
f 307/307/307 303/303/303 305/305/305
f 304/304/304 306/306/306 308/308/308
f 309/309/309 307/307/307 305/305/305
f 306/306/306 310/310/310 308/308/308
f 310/310/310 307/307/307 309/309/309
f 308/308/308 310/310/310 309/309/309
f 313/313/313 312/312/312 311/311/311
f 312/312/312 314/314/314 311/311/311
f 315/315/315 312/312/312 313/313/313
f 311/311/311 314/314/314 316/316/316
f 317/317/317 315/315/315 313/313/313
f 314/314/314 318/318/318 316/316/316
f 319/319/319 315/315/315 317/317/317
f 316/316/316 318/318/318 320/320/320
f 321/321/321 319/319/319 317/317/317
f 318/318/318 322/322/322 320/320/320
f 323/323/323 319/319/319 321/321/321
f 320/320/320 322/322/322 324/324/324
f 325/325/325 323/323/323 321/321/321
f 322/322/322 326/326/326 324/324/324
f 326/326/326 323/323/323 325/325/325
f 324/324/324 326/326/326 325/325/325
f 329/329/329 328/328/328 327/327/327
f 328/328/328 330/330/330 327/327/327
f 331/331/331 328/328/328 329/329/329
f 327/327/327 330/330/330 332/332/332
f 333/333/333 331/331/331 329/329/329
f 330/330/330 334/334/334 332/332/332
f 335/335/335 331/331/331 333/333/333
f 332/332/332 334/334/334 336/336/336
f 337/337/337 335/335/335 333/333/333
f 334/334/334 338/338/338 336/336/336
f 339/339/339 335/335/335 337/337/337
f 336/336/336 338/338/338 340/340/340
f 341/341/341 339/339/339 337/337/337
f 338/338/338 342/342/342 340/340/340
f 342/342/342 339/339/339 341/341/341
f 340/340/340 342/342/342 341/341/341
f 345/345/345 344/344/344 343/343/343
f 346/346/346 345/345/345 343/343/343
f 343/343/343 344/344/344 347/347/347
f 348/348/348 345/345/345 346/346/346
f 344/344/344 349/349/349 347/347/347
f 350/350/350 348/348/348 346/346/346
f 347/347/347 349/349/349 351/351/351
f 352/352/352 348/348/348 350/350/350
f 349/349/349 353/353/353 351/351/351
f 354/354/354 352/352/352 350/350/350
f 351/351/351 353/353/353 355/355/355
f 356/356/356 352/352/352 354/354/354
f 353/353/353 357/357/357 355/355/355
f 358/358/358 356/356/356 354/354/354
f 355/355/355 357/357/357 358/358/358
f 357/357/357 356/356/356 358/358/358
