g P_Bend_Vert
v -0.0856168717 -0.242039442 0.499999911
v -0.0856168717 -0.320460439 0.499999911
v -0.0856168717 -0.320460439 0.25050348
v -0.0856168717 -0.242039442 0.25050348
v -0.0856168717 -0.225855976 0.169143498
v -0.0856168717 -0.298307568 0.139133081
v 0.0856167227 -0.242039442 0.499999911
v 0.0856166855 -0.320460439 0.25050348
v 0.0856167227 -0.320460439 0.499999911
v 0.0856166855 -0.242039442 0.25050348
v 0.0856166855 -0.298307568 0.139133081
v 0.0856166855 -0.225855976 0.169143498
v 0.0856167227 -0.030746378 -0.0392107107
v 0.0856167227 -0.112106189 0.0553939342
v 0.0856167227 -0.030746378 0.0392103456
v 0.0856167227 -0.142116606 -0.017057607
v 0.0856166855 -0.179769322 0.100169949
v 0.0856166855 -0.235221356 0.0447179303
v 0.0856166855 -0.225855976 0.169143498
v 0.0856166855 -0.298307568 0.139133081
v -0.0856168345 -0.0307463873 0.0392103456
v -0.0856168345 -0.142116606 -0.017057607
v -0.0856168345 -0.0307463873 -0.0392107107
v -0.0856168345 -0.112106189 0.0553939342
v -0.0856168717 -0.235221356 0.0447179303
v -0.0856168717 -0.179769337 0.100169942
v -0.0856168717 -0.298307568 0.139133081
v -0.0856168717 -0.225855976 0.169143498
v -0.0856168345 0.500000358 -0.0392103754
v -0.0856168345 0.500000358 0.039210692
v -0.0856168345 -0.0307463873 0.0392103456
v -0.0856168345 -0.0307463873 -0.0392107107
v 0.0856167227 0.500000358 -0.0392102823
v 0.0856167227 -0.030746378 -0.0392107107
v 0.0856167227 -0.030746378 0.0392103456
v 0.0856167227 0.500000417 0.039210692
v -0.0856168717 -0.320460439 0.25050348
v -0.0856168717 -0.320460439 0.499999911
v -0.0392106064 -0.366866678 0.499999911
v -0.0392106064 -0.366866708 0.25050348
v -0.0856168717 -0.298307568 0.139133081
v 0.0392104127 -0.366866708 0.25050348
v 0.0392104462 -0.366866678 0.499999911
v 0.0856167227 -0.320460439 0.499999911
v 0.0856166855 -0.320460439 0.25050348
v -0.0392106064 -0.341181278 0.121374182
v -0.0856168717 -0.235221356 0.0447179303
v 0.0392104127 -0.341181278 0.121374182
v 0.0856166855 -0.298307568 0.139133081
v -0.0392106064 -0.268035591 0.0119037526
v -0.0856168345 -0.142116606 -0.017057607
v 0.0392104127 -0.268035591 0.0119037526
v 0.0856166855 -0.235221356 0.0447179303
v -0.0392105654 -0.159875527 -0.0599314198
v -0.0856168345 -0.0307463873 -0.0392107107
v -0.0392105654 -0.0307463873 -0.0856170058
v 0.0392104462 -0.159875527 -0.0599314198
v 0.0856167227 -0.142116606 -0.017057607
v 0.0392104462 -0.0307463743 -0.0856170058
v 0.0856167227 -0.030746378 -0.0392107107
v 0.0856166855 -0.242039442 0.25050348
v 0.0856167227 -0.242039442 0.499999911
v 0.0392104462 -0.195633173 0.499999881
v 0.0392104127 -0.195633203 0.250503451
v 0.0856166855 -0.225855976 0.169143498
v 0.0392104127 -0.182982191 0.186902419
v -0.0392106064 -0.195633203 0.250503451
v -0.0392106064 -0.195633173 0.499999881
v -0.0856168717 -0.242039442 0.499999911
v -0.0392106064 -0.182982191 0.186902419
v -0.0856168717 -0.242039442 0.25050348
v -0.0856168717 -0.225855976 0.169143498
v -0.0392105654 -0.0307463873 0.0856166258
v -0.0856168345 -0.112106189 0.0553939342
v -0.0856168345 -0.0307463873 0.0392103456
v -0.0392105654 -0.0943472832 0.0982677415
v 0.0392104462 -0.0307464022 0.0856166258
v -0.0856168717 -0.179769337 0.100169942
v 0.0392104462 -0.0943472832 0.0982677341
v 0.0856167227 -0.030746378 0.0392103456
v 0.0856167227 -0.112106189 0.0553939342
v -0.0392106064 -0.146955132 0.132984161
v -0.0856168717 -0.225855976 0.169143498
v -0.0392106064 -0.182982191 0.186902419
v 0.0392104127 -0.146955132 0.132984161
v 0.0856166855 -0.179769322 0.100169949
v 0.0392104127 -0.182982191 0.186902419
v 0.0856166855 -0.225855976 0.169143498
v -0.0856168345 0.500000358 -0.0392103754
v -0.0856168345 -0.0307463873 -0.0392107107
v -0.0392105654 -0.0307463873 -0.0856170058
v -0.0392105654 0.500000298 -0.0856166258
v 0.0392104462 0.500000358 -0.0856166258
v 0.0392104462 -0.0307463743 -0.0856170058
v 0.0856167227 -0.030746378 -0.0392107107
v 0.0856167227 0.500000358 -0.0392102823
v -0.0856168345 -0.0307463873 0.0392103456
v -0.0856168345 0.500000358 0.039210692
v -0.0392105654 0.500000358 0.0856169611
v -0.0392105654 -0.0307463873 0.0856166258
v 0.0392104462 -0.0307464022 0.0856166258
v 0.0392104462 0.500000358 0.0856169611
v 0.0856167227 0.500000417 0.039210692
v 0.0856167227 -0.030746378 0.0392103456
v -0.0640857369 0.500000417 0.0293499567
v -0.0640857369 0.500000417 -0.0293496121
v -0.0642126501 -0.0307464786 -0.0294080637
v -0.0642126501 -0.0307464264 0.0294077247
v 0.0640855879 0.500000417 -0.0293495562
v 0.0640855879 0.500000417 0.0293499567
v 0.064212516 -0.0307464395 0.0294077247
v 0.064212516 -0.0307464693 -0.0294080153
v 0.0293496978 0.500000417 0.0640858412
v -0.0294079445 -0.0307464451 0.0642124042
v 0.0294078365 -0.0307464451 0.0642124042
v -0.029349817 0.500000417 0.0640858412
v -0.0642126501 -0.0307464264 0.0294077247
v -0.0640857369 0.500000417 0.0293499567
v -0.0640857369 0.500000417 -0.0293496121
v -0.0294079445 -0.0307464786 -0.0642126948
v -0.0642126501 -0.0307464786 -0.0294080637
v -0.029349817 0.500000417 -0.0640854836
v 0.0294078365 -0.0307464786 -0.0642126948
v 0.0293496978 0.500000417 -0.0640854836
v 0.064212516 -0.0307464693 -0.0294080153
v 0.0640855879 0.500000417 -0.0293495562
v 0.0640855879 0.500000417 0.0293499567
v 0.0293496978 0.500000417 0.0640858412
v 0.0294078365 -0.0307464451 0.0642124042
v 0.064212516 -0.0307464395 0.0294077247
v -0.0640857741 -0.310599715 0.499999911
v -0.0640857741 -0.251900166 0.499999911
v -0.0642127246 -0.251842022 0.250525922
v -0.0642127246 -0.310657769 0.250525922
v -0.0642127246 -0.235221148 0.165497407
v -0.0642127246 -0.289554715 0.142977163
v 0.0640855879 -0.251900166 0.499999911
v 0.0640855879 -0.310599715 0.499999911
v 0.0642124936 -0.310657769 0.250525922
v 0.0642124936 -0.251842022 0.250525922
v 0.0642124936 -0.289554715 0.142977163
v 0.0642124936 -0.235221148 0.165497407
v -0.0293498561 -0.345335603 0.499999911
v -0.0640857741 -0.310599715 0.499999911
v -0.0642127246 -0.310657769 0.250525922
v -0.0294079911 -0.345462501 0.250525951
v 0.0293496642 -0.345335603 0.499999911
v -0.0642127246 -0.289554715 0.142977163
v 0.0294077862 -0.345462501 0.250525951
v 0.0640855879 -0.310599715 0.499999911
v 0.0642124936 -0.310657769 0.250525922
v -0.0294080004 -0.32170698 0.129650593
v -0.0642127246 -0.228359789 0.051815033
v 0.0294077862 -0.32170698 0.129650593
v 0.0642124936 -0.289554715 0.142977163
v -0.0294080004 -0.253087878 0.0273224339
v -0.0642127246 -0.138576537 -0.00792841427
v 0.0294077788 -0.253087878 0.0273224339
v 0.0642124936 -0.228359789 0.051815033
v -0.0294079911 -0.151930109 -0.0400694758
v -0.0642126501 -0.0307464786 -0.0294080637
v -0.0294079445 -0.0307464786 -0.0642126948
v 0.0294077862 -0.151930109 -0.0400694758
v 0.0642124936 -0.138576537 -0.00792841427
v 0.0294078365 -0.0307464786 -0.0642126948
v 0.064212516 -0.0307464693 -0.0294080153
v 0.0293496549 -0.217164263 0.499999911
v 0.0640855879 -0.251900166 0.499999911
v 0.0642124936 -0.251842022 0.250525922
v 0.0294077862 -0.217037335 0.250525922
v 0.0642124936 -0.235221148 0.165497407
v -0.0293498561 -0.217164263 0.499999911
v 0.0294077862 -0.203068882 0.178823963
v -0.0294079911 -0.217037335 0.250525922
v -0.0640857741 -0.251900166 0.499999911
v -0.0294079911 -0.203068882 0.178823963
v -0.0642127246 -0.251842022 0.250525922
v -0.0642127246 -0.235221148 0.165497407
v -0.0642127246 -0.289554715 0.142977163
v -0.0642127246 -0.235221148 0.165497407
v -0.0642127246 -0.186572343 0.0932046324
v -0.0642127246 -0.228359789 0.051815033
v -0.0642127246 -0.116010644 0.0463861451
v -0.0642127246 -0.138576537 -0.00792841427
v -0.0642126501 -0.0307464264 0.0294077247
v -0.0642126501 -0.0307464786 -0.0294080637
v 0.0642124936 -0.235221148 0.165497407
v 0.0642124936 -0.289554715 0.142977163
v 0.0642124936 -0.228359789 0.051815033
v 0.0642124936 -0.186572343 0.0932046324
v 0.0642124936 -0.138576537 -0.00792841427
v 0.0642124936 -0.116010666 0.0463861413
v 0.064212516 -0.0307464693 -0.0294080153
v 0.064212516 -0.0307464395 0.0294077247
v 0.0294077862 -0.203068882 0.178823963
v 0.0642124936 -0.235221148 0.165497407
v 0.0642124936 -0.186572343 0.0932046324
v 0.0294077862 -0.161844254 0.117697306
v -0.0294079911 -0.203068882 0.178823963
v 0.0642124936 -0.116010666 0.0463861413
v -0.0294079911 -0.161844254 0.117697306
v -0.0642127246 -0.235221148 0.165497407
v -0.0642127246 -0.186572343 0.0932046324
v 0.0294077862 -0.102657087 0.0785272345
v 0.064212516 -0.0307464395 0.0294077247
v 0.0294078365 -0.0307464451 0.0642124042
v -0.0294079911 -0.102657117 0.0785272345
v -0.0642127246 -0.116010644 0.0463861451
v -0.0294079445 -0.0307464451 0.0642124042
v -0.0642126501 -0.0307464264 0.0294077247
v -0.0982587785 0.0138239963 -0.0450001843
v -0.0982587785 0.0138239972 0.0450002812
v -0.0982587785 -0.0156502668 0.0450000353
v -0.0982587785 -0.0156502668 -0.0450004265
v 0.0982586518 0.0138239898 -0.0450001359
v 0.0982586294 -0.0156502593 0.0450000353
v 0.0982586518 0.0138239907 0.0450002812
v 0.0982586294 -0.0156502575 -0.0450004227
v 0.0450001508 0.0138239972 -0.0982585922
v 0.0450001694 -0.0156502668 -0.0982589349
v -0.0450002663 -0.0156502668 -0.0982589349
v 0.0450001694 -0.0156502668 -0.0982589349
v 0.0450001508 0.0138239972 -0.0982585922
v -0.0450002663 0.0138239972 -0.0982585922
v -0.0982587785 0.0138239963 -0.0450001843
v -0.0982587785 -0.0156502668 -0.0450004265
v -0.0982587785 -0.0156502668 0.0450000353
v -0.0982587785 0.0138239972 0.0450002812
v -0.0450002663 0.0138239954 0.0982587487
v -0.0450002663 -0.0156502668 0.0982585326
v 0.0450001694 -0.0156502668 0.0982585326
v 0.0450001508 0.0138239954 0.0982587487
v 0.0982586518 0.0138239907 0.0450002812
v 0.0982586294 -0.0156502593 0.0450000353
v -0.0982587785 -0.23624973 0.29609713
v -0.0982587785 -0.326250136 0.265370935
v -0.0982587785 -0.23624973 0.265370935
v -0.0982587785 -0.326250136 0.29609713
v -0.0450002998 -0.379508585 0.29609713
v -0.0450002998 -0.379508615 0.265370935
v 0.0450001173 -0.379508615 0.265370935
v 0.0450001508 -0.379508585 0.29609713
v 0.0982586294 -0.23624973 0.29609713
v 0.0982586071 -0.23624973 0.265370935
v 0.0982586071 -0.326250136 0.265370935
v 0.0982586294 -0.326250136 0.29609713
v -0.0982587785 -0.23624973 0.29609713
v -0.0982587785 -0.23624973 0.265370935
v -0.0450002998 -0.182991266 0.265370935
v -0.0450002998 -0.182991266 0.29609713
v 0.0450001359 -0.182991266 0.29609713
v 0.0450001359 -0.182991266 0.265370935
v 0.0982586071 -0.23624973 0.265370935
v 0.0982586294 -0.23624973 0.29609713
v 0.0982586294 -0.326250136 0.29609713
v 0.0982586071 -0.326250136 0.265370935
v 0.0450001173 -0.379508615 0.265370935
v 0.0450001508 -0.379508585 0.29609713
v -0.0856168345 -0.0307463929 -0.0392107107
v -0.0982587785 -0.0156502668 -0.0450004265
v -0.0982587785 -0.0156502668 0.0450000353
v -0.0856168345 -0.030746391 0.0392103456
v -0.0450002663 -0.0156502668 0.0982585326
v -0.0392105654 -0.030746391 0.0856166258
v 0.0450001694 -0.0156502668 0.0982585326
v 0.0392104462 -0.0307464059 0.0856166258
v 0.0982586294 -0.0156502593 0.0450000353
v 0.0856167227 -0.0307463836 0.0392103456
v 0.0982586294 -0.0156502575 -0.0450004227
v 0.0856167227 -0.0307463836 -0.0392107107
v 0.0450001694 -0.0156502668 -0.0982589349
v 0.0392104462 -0.0307463743 -0.0856170058
v -0.0450002663 -0.0156502668 -0.0982589349
v -0.0392105654 -0.0307463929 -0.0856170058
v -0.0982587785 -0.0156502668 -0.0450004265
v -0.0856168345 -0.0307463929 -0.0392107107
v -0.0856168345 0.0289201736 0.0392105915
v -0.0982587785 0.0138239963 -0.0450001843
v -0.0856168345 0.0289201736 -0.0392104723
v -0.0982587785 0.0138239972 0.0450002812
v -0.0392105654 0.0289201736 0.0856168643
v -0.0450002663 0.0138239954 0.0982587487
v 0.0392104462 0.0289201923 0.0856168643
v 0.0450001508 0.0138239954 0.0982587487
v 0.0856167227 0.0289201923 0.0392105915
v 0.0982586518 0.0138239907 0.0450002812
v 0.0856167227 0.0289201941 -0.0392103717
v 0.0982586518 0.0138239898 -0.0450001359
v 0.0392104462 0.0289201941 -0.0856166631
v 0.0450001508 0.0138239972 -0.0982585922
v -0.0392105654 0.0289201736 -0.0856166705
v -0.0450002663 0.0138239972 -0.0982585922
v -0.0856168345 0.0289201736 -0.0392104723
v -0.0982587785 0.0138239963 -0.0450001843
v -0.0392106064 -0.366866678 0.25050351
v 0.0450001173 -0.379508615 0.265370935
v 0.0392104127 -0.366866678 0.25050351
v -0.0450002998 -0.379508615 0.265370935
v -0.0856168717 -0.320460439 0.25050351
v -0.0982587785 -0.326250136 0.265370935
v -0.0856168717 -0.242039442 0.25050351
v -0.0982587785 -0.23624973 0.265370935
v -0.0392106064 -0.195633203 0.25050351
v -0.0450002998 -0.182991266 0.265370935
v 0.0392104127 -0.195633203 0.25050351
v 0.0450001359 -0.182991266 0.265370935
v 0.0856166855 -0.242039442 0.25050351
v 0.0982586071 -0.23624973 0.265370935
v 0.0856166855 -0.320460439 0.25050351
v 0.0982586071 -0.326250136 0.265370935
v 0.0392104127 -0.366866678 0.25050351
v 0.0450001173 -0.379508615 0.265370935
v 0.0856167227 -0.320460439 0.310964823
v 0.0450001508 -0.379508585 0.29609713
v 0.0392104462 -0.366866678 0.310964823
v 0.0982586294 -0.326250136 0.29609713
v 0.0856167227 -0.242039442 0.310964823
v 0.0982586294 -0.23624973 0.29609713
v 0.0392104462 -0.195633173 0.310964793
v 0.0450001359 -0.182991266 0.29609713
v -0.0392106064 -0.195633173 0.310964793
v -0.0450002998 -0.182991266 0.29609713
v -0.0856168717 -0.242039442 0.310964823
v -0.0982587785 -0.23624973 0.29609713
v -0.0856168717 -0.320460439 0.310964823
v -0.0982587785 -0.326250136 0.29609713
v -0.0392106064 -0.366866678 0.310964823
v -0.0450002998 -0.379508585 0.29609713
v 0.0392104462 -0.366866678 0.310964823
v 0.0450001508 -0.379508585 0.29609713
v 0.0392104462 0.500000358 -0.0856166258
v -0.029349817 0.500000417 -0.0640854836
v -0.0392105654 0.500000298 -0.0856166258
v 0.0293496978 0.500000417 -0.0640854836
v -0.0640857369 0.500000417 -0.0293496121
v 0.0856167227 0.500000358 -0.0392102823
v -0.0856168345 0.500000358 -0.0392103754
v 0.0640855879 0.500000417 -0.0293495562
v -0.0640857369 0.500000417 0.0293499567
v 0.0856167227 0.500000417 0.039210692
v -0.0856168345 0.500000358 0.039210692
v 0.0640855879 0.500000417 0.0293499567
v -0.029349817 0.500000417 0.0640858412
v 0.0392104462 0.500000358 0.0856169611
v -0.0392105654 0.500000358 0.0856169611
v 0.0293496978 0.500000417 0.0640858412
v 0.0392104462 -0.195633173 0.499999881
v -0.0293498561 -0.217164263 0.499999911
v -0.0392106064 -0.195633173 0.499999881
v 0.0293496549 -0.217164263 0.499999911
v -0.0640857741 -0.251900166 0.499999911
v 0.0856167227 -0.242039442 0.499999911
v -0.0856168717 -0.242039442 0.499999911
v 0.0640855879 -0.251900166 0.499999911
v -0.0640857741 -0.310599715 0.499999911
v 0.0856167227 -0.320460439 0.499999911
v -0.0856168717 -0.320460439 0.499999911
v 0.0640855879 -0.310599715 0.499999911
v -0.0293498561 -0.345335603 0.499999911
v 0.0392104462 -0.366866678 0.499999911
v -0.0392106064 -0.366866678 0.499999911
v 0.0293496642 -0.345335603 0.499999911
vt 0.745018661 0.816297889
vt 0.729760826 0.815868974
vt 0.728888512 0.848869264
vt 0.744263947 0.849412978
vt 0.74554801 0.859397709
vt 0.731271982 0.864618778
vt 0.785642505 0.816575289
vt 0.801325083 0.84936434
vt 0.800904989 0.816355228
vt 0.785943925 0.849697351
vt 0.798726201 0.86507988
vt 0.784523189 0.859663844
vt 0.794928014 0.875589013
vt 0.785644054 0.893448591
vt 0.782385647 0.883919716
vt 0.800760686 0.890256345
vt 0.785990417 0.903362095
vt 0.801279068 0.905616403
vt 0.783332705 0.913076043
vt 0.796365261 0.920614362
vt 0.746134102 0.885126889
vt 0.728221178 0.892670929
vt 0.733066022 0.877648354
vt 0.743516386 0.894851565
vt 0.728725135 0.908031523
vt 0.743830085 0.904766023
vt 0.734625041 0.92266947
vt 0.747127652 0.914281607
vt 0.711555958 0.993921697
vt 0.726860583 0.993991792
vt 0.727184474 0.923556745
vt 0.711879551 0.92348671
vt 0.783080995 0.994252145
vt 0.783414781 0.923817337
vt 0.768109143 0.923744678
vt 0.767777681 0.994179308
vt 0.785470784 0.850341439
vt 0.785897374 0.816526353
vt 0.77281338 0.816171169
vt 0.772683978 0.849053502
vt 0.785197318 0.867980897
vt 0.757285476 0.849095583
vt 0.756994069 0.816211939
vt 0.743912935 0.816633046
vt 0.744506359 0.850446284
vt 0.772575498 0.867749035
vt 0.785235465 0.886085451
vt 0.757478118 0.867795587
vt 0.744858146 0.868097782
vt 0.772629619 0.886183202
vt 0.785244644 0.903735876
vt 0.75753957 0.886236548
vt 0.744933963 0.886227608
vt 0.772653103 0.90451616
vt 0.786552906 0.920519233
vt 0.773482025 0.923666775
vt 0.757659614 0.904574931
vt 0.745060444 0.903905272
vt 0.757019699 0.923735261
vt 0.743923903 0.92071557
vt 0.785943925 0.849697351
vt 0.785642505 0.816575289
vt 0.772927344 0.816681683
vt 0.772903562 0.849806905
vt 0.784523189 0.859663844
vt 0.772489727 0.856324196
vt 0.75730145 0.849700511
vt 0.757731438 0.816577613
vt 0.745018661 0.816297889
vt 0.757626116 0.856222749
vt 0.744263947 0.849412978
vt 0.74554801 0.859397709
vt 0.757298589 0.889693022
vt 0.743516386 0.894851565
vt 0.746134102 0.885126889
vt 0.756706238 0.896165907
vt 0.771549165 0.889218092
vt 0.743830085 0.904766023
vt 0.772570789 0.895637333
vt 0.782385647 0.883919716
vt 0.785644054 0.893448591
vt 0.756908774 0.902529716
vt 0.747127652 0.914281607
vt 0.75794214 0.908946395
vt 0.772791922 0.902000666
vt 0.785990417 0.903362095
vt 0.772187769 0.908471704
vt 0.783332705 0.913076043
vt 0.82400018 0.994449437
vt 0.824336886 0.924014688
vt 0.811528683 0.923952997
vt 0.811192274 0.994388044
vt 0.795888126 0.994314015
vt 0.796224058 0.923879027
vt 0.783414781 0.923817337
vt 0.783080995 0.994252145
vt 0.727184474 0.923556745
vt 0.726860583 0.993991792
vt 0.739667773 0.994049728
vt 0.739993215 0.923614979
vt 0.755299389 0.923685074
vt 0.754971325 0.994119823
vt 0.767777681 0.994179308
vt 0.768109143 0.923744678
vt 0.783842981 0.75508517
vt 0.770439327 0.755084515
vt 0.770426214 0.672706127
vt 0.783845723 0.672706664
vt 0.833107233 0.755097091
vt 0.819702983 0.755094051
vt 0.819703817 0.672715604
vt 0.833122611 0.672718704
vt 0.808477163 0.755090117
vt 0.795069337 0.672708511
vt 0.808481991 0.67271167
vt 0.795066833 0.755086958
vt 0.783845723 0.672706664
vt 0.783842981 0.75508517
vt 0.86892885 0.755125046
vt 0.857784688 0.672735095
vt 0.869019806 0.67274642
vt 0.857716322 0.755113661
vt 0.84435904 0.672724724
vt 0.844318509 0.755103469
vt 0.833122611 0.672718704
vt 0.833107233 0.755097091
vt 0.819702983 0.755094051
vt 0.808477163 0.755090117
vt 0.808481991 0.67271167
vt 0.819703817 0.672715604
vt 0.792443693 0.673287511
vt 0.805777311 0.673841834
vt 0.804500878 0.712559819
vt 0.791000724 0.711830795
vt 0.805742502 0.725119472
vt 0.793141365 0.729398549
vt 0.841132402 0.674360037
vt 0.854476392 0.674196839
vt 0.854789317 0.712765932
vt 0.841273725 0.713098645
vt 0.852135003 0.730263174
vt 0.839664638 0.725616693
vt 0.829173505 0.674964905
vt 0.840549588 0.675380826
vt 0.839657545 0.714681208
vt 0.828466415 0.713448763
vt 0.815449178 0.674751878
vt 0.839072943 0.734019756
vt 0.814964592 0.713240206
vt 0.804065883 0.674814641
vt 0.803741217 0.714121222
vt 0.828018725 0.733670652
vt 0.838789344 0.753834903
vt 0.814769804 0.733467817
vt 0.803709984 0.733473718
vt 0.827729642 0.753649533
vt 0.838397205 0.773192167
vt 0.814454019 0.753448009
vt 0.803394079 0.753299117
vt 0.827364445 0.773498893
vt 0.839123368 0.791858137
vt 0.827637255 0.794138491
vt 0.814226329 0.773301005
vt 0.803207695 0.772663832
vt 0.813337624 0.793924153
vt 0.801924765 0.791300952
vt 0.830061376 0.674443662
vt 0.841132402 0.674360037
vt 0.841273725 0.713098645
vt 0.829768836 0.713220716
vt 0.839664638 0.725616693
vt 0.816841185 0.674249887
vt 0.829190612 0.722756922
vt 0.815997124 0.713018954
vt 0.805777311 0.673841834
vt 0.816295564 0.722567976
vt 0.804500878 0.712559819
vt 0.805742502 0.725119472
vt 0.795383692 0.682381451
vt 0.80681771 0.688852251
vt 0.803738356 0.701175034
vt 0.790276766 0.699109912
vt 0.803984582 0.713547528
vt 0.790589273 0.715987682
vt 0.807512641 0.725704312
vt 0.796303272 0.732560873
vt 0.837671459 0.688250244
vt 0.848844767 0.681338727
vt 0.854599774 0.697855711
vt 0.841228843 0.700443864
vt 0.85494554 0.714732826
vt 0.841465175 0.712816358
vt 0.849882126 0.731515765
vt 0.838413715 0.725101769
vt 0.828340411 0.692553937
vt 0.837671459 0.688250244
vt 0.841228843 0.700443864
vt 0.829572558 0.702183545
vt 0.816309512 0.692788839
vt 0.841465175 0.712816358
vt 0.815453887 0.702458918
vt 0.80681771 0.688852251
vt 0.803738356 0.701175034
vt 0.829749763 0.711622775
vt 0.838413715 0.725101769
vt 0.828902543 0.721200407
vt 0.815644622 0.71189791
vt 0.803984582 0.713547528
vt 0.816864431 0.721435189
vt 0.807512641 0.725704312
vt 0.805004179 0.60257417
vt 0.822360396 0.60257417
vt 0.822360694 0.598273516
vt 0.805004299 0.598273516
vt 0.884386599 0.60257417
vt 0.867455542 0.598273516
vt 0.867454767 0.60257417
vt 0.884387136 0.598273516
vt 0.898444593 0.60257417
vt 0.898445129 0.598273516
vt 0.91544199 0.598273516
vt 0.898445129 0.598273516
vt 0.898444593 0.60257417
vt 0.915441215 0.60257417
vt 0.929914713 0.60257417
vt 0.929915726 0.598273516
vt 0.822360694 0.598273516
vt 0.822360396 0.60257417
vt 0.836466372 0.60257417
vt 0.836466908 0.598273516
vt 0.853407621 0.598273516
vt 0.853406727 0.60257417
vt 0.867454767 0.60257417
vt 0.867455542 0.598273516
vt 0.856635213 0.598273516
vt 0.838668168 0.60257417
vt 0.856635213 0.60257417
vt 0.838668168 0.598273516
vt 0.823802471 0.598273516
vt 0.823802471 0.60257417
vt 0.805860519 0.60257417
vt 0.805860519 0.598273516
vt 0.904383719 0.598273516
vt 0.904383719 0.60257417
vt 0.922350883 0.60257417
vt 0.922350883 0.598273516
vt 0.856635213 0.598273516
vt 0.856635213 0.60257417
vt 0.871526003 0.60257417
vt 0.871526003 0.598273516
vt 0.889492989 0.598273516
vt 0.889492989 0.60257417
vt 0.904383719 0.60257417
vt 0.904383719 0.598273516
vt 0.922350883 0.598273516
vt 0.922350883 0.60257417
vt 0.937241375 0.60257417
vt 0.937241375 0.598273516
vt 0.806366086 0.595376134
vt 0.805004299 0.598273516
vt 0.822360694 0.598273516
vt 0.822382748 0.595376134
vt 0.836466908 0.598273516
vt 0.836563468 0.595376134
vt 0.853407621 0.598273516
vt 0.853315473 0.595376134
vt 0.867455542 0.598273516
vt 0.867549181 0.595376134
vt 0.884387136 0.598273516
vt 0.884296834 0.595376134
vt 0.898445129 0.598273516
vt 0.898531079 0.595376134
vt 0.91544199 0.598273516
vt 0.915213406 0.595376134
vt 0.929915726 0.598273516
vt 0.92870754 0.595376134
vt 0.822382092 0.605594397
vt 0.805004179 0.60257417
vt 0.806365728 0.605594635
vt 0.822360396 0.60257417
vt 0.836562455 0.605594397
vt 0.836466372 0.60257417
vt 0.853313148 0.605594635
vt 0.853406727 0.60257417
vt 0.867546618 0.605594635
vt 0.867454767 0.60257417
vt 0.884295464 0.605594635
vt 0.884386599 0.60257417
vt 0.898530066 0.605594397
vt 0.898444593 0.60257417
vt 0.915211558 0.605594397
vt 0.915441215 0.60257417
vt 0.928704381 0.605594635
vt 0.929914713 0.60257417
vt 0.823802471 0.605594397
vt 0.805860519 0.60257417
vt 0.805860519 0.605594397
vt 0.823802471 0.60257417
vt 0.838668168 0.605594397
vt 0.838668168 0.60257417
vt 0.856635213 0.605594397
vt 0.856635213 0.60257417
vt 0.871526003 0.605594397
vt 0.871526003 0.60257417
vt 0.889492989 0.605594397
vt 0.889492989 0.60257417
vt 0.904383719 0.605594397
vt 0.904383719 0.60257417
vt 0.922350883 0.605594397
vt 0.922350883 0.60257417
vt 0.937241375 0.605594397
vt 0.937241375 0.60257417
vt 0.922350883 0.595376134
vt 0.937241375 0.598273516
vt 0.937241375 0.595376134
vt 0.922350883 0.598273516
vt 0.904383719 0.595376134
vt 0.904383719 0.598273516
vt 0.889492989 0.595376134
vt 0.889492989 0.598273516
vt 0.871526003 0.595376134
vt 0.871526003 0.598273516
vt 0.856635213 0.595376134
vt 0.856635213 0.598273516
vt 0.838668168 0.595376134
vt 0.838668168 0.598273516
vt 0.823802471 0.595376134
vt 0.823802471 0.598273516
vt 0.805860519 0.595376134
vt 0.805860519 0.598273516
vt 0.846479297 0.935384333
vt 0.827270567 0.929398477
vt 0.824480653 0.935384333
vt 0.843735039 0.929398477
vt 0.81744504 0.919713795
vt 0.859559119 0.922462523
vt 0.811386466 0.922434986
vt 0.853556871 0.919794977
vt 0.817498863 0.903333962
vt 0.859565437 0.90056026
vt 0.811426222 0.900571406
vt 0.85350287 0.903330386
vt 0.827284038 0.893567502
vt 0.846523404 0.887540162
vt 0.824524939 0.887521267
vt 0.8437621 0.893562675
vt 0.846479297 0.935384333
vt 0.827270567 0.929398477
vt 0.824480653 0.935384333
vt 0.843735039 0.929398477
vt 0.81744504 0.919713795
vt 0.859559119 0.922462523
vt 0.811386466 0.922434986
vt 0.853556871 0.919794977
vt 0.817512751 0.903329849
vt 0.859565675 0.90056026
vt 0.811426342 0.900571406
vt 0.853503048 0.903330386
vt 0.827284038 0.893567502
vt 0.846523404 0.887540162
vt 0.824524939 0.887521267
vt 0.8437621 0.893562675
vn -1 0 0
vn -1 0 0
vn -1 0 0
vn -1 0 0
vn -1 0 0
vn -1 0 0
vn 1 0 -1.45633308E-07
vn 1 0 0
vn 1 0 -1.45633308E-07
vn 1 0 0
vn 1 0 0
vn 1 0 0
vn 1 0 0
vn 1 -1.56443306E-07 1.04532099E-07
vn 1 0 0
vn 1 -1.56825294E-07 1.04787333E-07
vn 1 -1.56838439E-07 1.04796108E-07
vn 1 -1.56456366E-07 1.04540838E-07
vn 1 0 0
vn 1 0 0
vn -1 0 0
vn -1 1.56825251E-07 -1.0478729E-07
vn -1 0 0
vn -1 1.56443306E-07 -1.04532091E-07
vn -1 1.56456409E-07 -1.04540838E-07
vn -1 1.56838439E-07 -1.04796094E-07
vn -1 0 0
vn -1 0 0
vn -1 0 0
vn -1 0 0
vn -1 0 0
vn -1 0 0
vn 1 0 0
vn 1 0 0
vn 1 0 0
vn 1 0 0
vn -0.70523268 -0.705232859 -0.0727560371
vn -0.707106769 -0.707106769 0
vn -0.382683367 -0.923879504 0
vn -0.373505175 -0.923309684 -0.0894050151
vn -0.707106531 -0.653281808 -0.270597875
vn 0.373505145 -0.923309684 -0.0894050375
vn 0.382683367 -0.923879504 0
vn 0.707106769 -0.707106769 0
vn 0.70523268 -0.705232859 -0.0727560669
vn -0.366829932 -0.859474182 -0.356005579
vn -0.707211733 -0.499109983 -0.500740349
vn 0.366829932 -0.859474182 -0.356005549
vn 0.70710659 -0.653281748 -0.270597875
vn -0.366789401 -0.656915665 -0.65873158
vn -0.70700103 -0.269574791 -0.653818727
vn 0.366789281 -0.656915784 -0.65873158
vn 0.707211792 -0.499110132 -0.500740111
vn -0.366870135 -0.35481301 -0.859950066
vn -0.705232859 -0.0727565512 -0.70523262
vn -0.373505235 -0.0894054994 -0.923309565
vn 0.366870195 -0.354813039 -0.859949946
vn 0.70700115 -0.269575 -0.653818548
vn 0.373505294 -0.0894054696 -0.923309565
vn 0.705233037 -0.0727564991 -0.705232501
vn 0.705536962 0.705537319 0.0665934384
vn 0.707106531 0.707107008 0
vn 0.382683367 0.923879504 0
vn 0.390120208 0.91615057 0.0920564011
vn 0.707106769 0.65328151 0.270597935
vn 0.400588512 0.846512198 0.350636631
vn -0.390120208 0.91615057 0.0920564234
vn -0.382683367 0.923879504 0
vn -0.70710659 0.707106948 0
vn -0.400588483 0.846512198 0.350636572
vn -0.705536962 0.705537319 0.0665934831
vn -0.70710665 0.653281569 0.270597875
vn -0.390120506 0.0920571312 0.916150331
vn -0.706929207 0.26916635 0.654064536
vn -0.70553714 0.0665939376 0.70553714
vn -0.400184035 0.348322362 0.847658038
vn 0.390120506 0.0920571536 0.916150331
vn -0.707282186 0.498730123 0.50101912
vn 0.400184125 0.348322213 0.847658038
vn 0.70553726 0.0665939152 0.705537021
vn 0.706929207 0.269166112 0.654064655
vn -0.400992185 0.645941138 0.649588585
vn -0.70710665 0.653281569 0.270597875
vn -0.400588483 0.846512198 0.350636572
vn 0.400991976 0.645941079 0.649588823
vn 0.707282186 0.498729885 0.501019418
vn 0.400588512 0.846512198 0.350636631
vn 0.707106769 0.65328151 0.270597935
vn -0.707106769 4.83551389E-07 -0.707106769
vn -0.705232859 -0.0727565512 -0.70523262
vn -0.373505235 -0.0894054994 -0.923309565
vn -0.382683516 6.56899886E-07 -0.923879504
vn 0.382683694 6.92151048E-07 -0.923879445
vn 0.373505294 -0.0894054696 -0.923309565
vn 0.705233037 -0.0727564991 -0.705232501
vn 0.707107067 5.48686955E-07 -0.707106411
vn -0.70553714 0.0665939376 0.70553714
vn -0.707106769 -4.50431287E-07 0.707106769
vn -0.382683367 -5.89575052E-07 0.923879504
vn -0.390120506 0.0920571312 0.916150331
vn 0.390120506 0.0920571536 0.916150331
vn 0.382683516 -5.89575052E-07 0.923879504
vn 0.707106769 -4.50431259E-07 0.707106769
vn 0.70553726 0.0665939152 0.705537021
vn 1 -0.000239108354 0
vn 1 -0.00023910834 0
vn 1 -0.000127869964 0
vn 1 -0.000112893831 0
vn -1 -0.000239154004 0
vn -1 -0.000239154033 0
vn -1 -0.000112404239 0
vn -1 -0.000127443913 0
vn -0 -0.000238469423 -1
vn 0.390111983 -0.0922646001 -0.916133165
vn -0.39011234 -0.0922643542 -0.916132927
vn 0.382680953 -0.000262221467 -0.923880517
vn 0.705515921 -0.0667845681 -0.705540299
vn 0.707106411 -0.000246052834 -0.707107067
vn 0.707105994 -0.000246939948 0.707107484
vn 0.373489857 0.0894086212 0.923315465
vn 0.705223262 0.0727547929 0.705242455
vn 0.382680833 -0.000263368507 0.923880637
vn -0.373490334 0.089408718 0.923315227
vn -0.3826814 -0.00026338271 0.923880339
vn -0.705223858 0.0727549344 0.70524174
vn -0.707106829 -0.000246966112 0.70710665
vn -0.707106769 -0.000246079086 -0.707106769
vn -0.707106769 -0.000246079086 -0.707106769
vn -0.39011234 -0.0922643542 -0.916132927
vn -0.705516219 -0.066784136 -0.705540001
vn 0.999999881 0 -0.000508839963
vn 0.999999881 0 -0.000508839963
vn 1 0 -0.000239672896
vn 1 0 -0.00027112395
vn 1 0 0
vn 1 0 0
vn -0.999999881 0 -0.000508694386
vn -0.999999881 0 -0.000508694386
vn -1 0 -0.00027104633
vn -1 0 -0.000239604298
vn -1 0 0
vn -1 0 0
vn 0.382678598 0.923881352 -0.000559070497
vn 0.707106531 0.707106829 -0.00052443071
vn 0.705200076 0.705385923 0.0715792552
vn 0.373577595 0.923407853 0.0880782232
vn -0.382678658 0.923881352 -0.000559030799
vn 0.707340658 0.653156817 0.270287663
vn -0.373577595 0.923407853 0.0880782232
vn -0.707106531 0.707106769 -0.000524357019
vn -0.705200195 0.705385745 0.0715792626
vn 0.366825402 0.859578907 0.355757236
vn 0.707115233 0.498817831 0.501167476
vn -0.366825521 0.859578907 0.355757207
vn -0.707340777 0.653156638 0.270287603
vn 0.36684683 0.656898558 0.658716738
vn 0.70695287 0.270130545 0.653641403
vn -0.366846859 0.656898499 0.658716679
vn -0.707115352 0.498817742 0.501167238
vn 0.366797954 0.355565667 0.859669864
vn 0.705223262 0.0727547929 0.705242455
vn 0.373489857 0.0894086212 0.923315465
vn -0.366798103 0.355565846 0.859669805
vn -0.706953168 0.270130664 0.653641045
vn -0.373490334 0.089408718 0.923315227
vn -0.705223858 0.0727549344 0.70524174
vn -0.382678658 -0.923881352 -0.000559217588
vn -0.707106531 -0.707106769 -0.000524508243
vn -0.705454171 -0.705702245 -0.0657160133
vn -0.389890134 -0.916399658 -0.090539135
vn -0.707446575 -0.652947664 -0.270515651
vn 0.382678598 -0.923881352 -0.000559249776
vn -0.401227742 -0.846212208 -0.350629717
vn 0.389889926 -0.916399658 -0.0905391648
vn 0.707106531 -0.707106829 -0.000524567731
vn 0.401227534 -0.846212268 -0.350629658
vn 0.705453992 -0.705702484 -0.0657160655
vn 0.707446277 -0.652947843 -0.27051571
vn 1 0 0
vn 1 0 0
vn 1 0 0
vn 1 0 0
vn 1 -3.62494092E-07 0
vn 1 -3.61468182E-07 0
vn 1 -0.000112893831 0
vn 1 -0.000127869964 0
vn -1 0 0
vn -1 0 0
vn -1 0 0
vn -1 0 0
vn -1 1.20489389E-07 0
vn -1 1.20831359E-07 0
vn -1 -0.000127443913 0
vn -1 -0.000112404239 0
vn -0.401227742 -0.846212208 -0.350629717
vn -0.707446575 -0.652947664 -0.270515651
vn -0.707122922 -0.498474747 -0.501497805
vn -0.4006055 -0.645002007 -0.650759399
vn 0.401227534 -0.846212268 -0.350629658
vn -0.706879973 -0.26968044 -0.653906107
vn 0.400605291 -0.645002007 -0.650759459
vn 0.707446277 -0.652947843 -0.27051571
vn 0.707122624 -0.498475045 -0.501497984
vn -0.400207341 -0.34892419 -0.847399652
vn -0.705516219 -0.066784136 -0.705540001
vn -0.39011234 -0.0922643542 -0.916132927
vn 0.400207281 -0.348924488 -0.847399473
vn 0.706879616 -0.269680947 -0.653906286
vn 0.390111983 -0.0922646001 -0.916133165
vn 0.705515921 -0.0667845681 -0.705540299
vn -1 0 0
vn -1 0 0
vn -1 0 0
vn -1 0 0
vn 0.923880339 3.57692466E-06 -0.38268137
vn 1 -8.21847152E-07 0
vn 1 -8.21847152E-07 0
vn 0.92387861 3.57697445E-06 -0.382685691
vn 0.70710665 7.4311879E-06 -0.707106829
vn 0.707106769 7.4311879E-06 -0.707106829
vn -0.382682204 1.00142925E-05 -0.923880041
vn -0 1.15058556E-05 -1
vn -0 1.15058556E-05 -1
vn -0.382684201 1.00142752E-05 -0.923879206
vn -0.707106352 6.99813154E-06 -0.707107186
vn -0.707106352 6.99813199E-06 -0.707107186
vn -0.70710659 -5.50842833E-06 0.707106948
vn -0.70710659 -5.50842833E-06 0.707106888
vn -0.382682651 -6.98416306E-06 0.923879802
vn -0.382683992 -6.98416034E-06 0.923879325
vn 0.382684201 -7.04978402E-06 0.923879206
vn 0.382682651 -7.04978856E-06 0.923879802
vn 0.707106769 -5.6296858E-06 0.707106769
vn 0.707106769 -5.62968535E-06 0.707106769
vn -1 0 0
vn -0.923879504 -0.382683516 0
vn -1 0 0
vn -0.923879504 -0.382683516 0
vn -0.382683426 -0.923879504 0
vn -0.382683426 -0.923879504 0
vn 0.382683098 -0.923879743 -3.41722E-07
vn 0.382683605 -0.923879445 -3.41722313E-07
vn 1 0 -7.88360751E-07
vn 1 0 -7.88360751E-07
vn 1 0 -7.88360751E-07
vn 1 0 -7.88360751E-07
vn -0.70710659 0.707106948 0
vn -0.70710659 0.707106948 0
vn -0.382683367 0.923879504 0
vn -0.382683367 0.923879504 0
vn 0.382683367 0.923879504 -1.52875728E-07
vn 0.382683367 0.923879504 -1.52875728E-07
vn 0.70710659 0.707106948 -2.82477544E-07
vn 0.70710659 0.707106948 -2.82477544E-07
vn 0.70710665 -0.707106829 -6.31420221E-07
vn 0.70710665 -0.707106888 -6.31420278E-07
vn 0.382683098 -0.923879743 -3.41722E-07
vn 0.382683605 -0.923879445 -3.41722313E-07
vn -0.682100713 -0.677116275 -0.276138216
vn -0.678320587 -0.677298009 -0.284866124
vn -0.678320706 -0.677297771 0.284866035
vn -0.682100713 -0.677116096 0.276138425
vn -0.284866184 -0.677297413 0.678321064
vn -0.276138335 -0.677115619 0.68210119
vn 0.284866571 -0.677297354 0.678321123
vn 0.276138306 -0.67711556 0.682101309
vn 0.678321123 -0.677297413 0.284866124
vn 0.68210119 -0.677115619 0.276138395
vn 0.678320765 -0.677297652 -0.284866124
vn 0.682101071 -0.677115917 -0.276138008
vn 0.284866363 -0.677297831 -0.678320587
vn 0.276138186 -0.677116036 -0.682100892
vn -0.284866095 -0.677297652 -0.678320765
vn -0.276138216 -0.677115917 -0.682100952
vn -0.678320587 -0.677298009 -0.284866124
vn -0.682100713 -0.677116275 -0.276138216
vn -0.682101786 0.677114666 0.276139081
vn -0.678321421 0.677296638 -0.28486684
vn -0.682101548 0.677115023 -0.276139051
vn -0.678322017 0.6772964 0.284866571
vn -0.276138783 0.677113771 0.682102799
vn -0.284866869 0.677295625 0.678322673
vn 0.276138872 0.677113593 0.682102978
vn 0.284867048 0.677295268 0.678322792
vn 0.682102382 0.677114129 0.27613923
vn 0.678322494 0.677295804 0.284866691
vn 0.682102263 0.677114487 -0.276138365
vn 0.678321779 0.6772964 -0.284866989
vn 0.276138574 0.677114427 -0.682102263
vn 0.284866631 0.677296221 -0.678322136
vn -0.276138395 0.677114367 -0.682102382
vn -0.284866363 0.677296102 -0.678322256
vn -0.682101548 0.677115023 -0.276139051
vn -0.678321421 0.677296638 -0.28486684
vn -0.274137527 -0.677330136 -0.682694972
vn 0.282883674 -0.673539102 -0.682877719
vn 0.274137318 -0.677330017 -0.68269515
vn -0.282883674 -0.673539162 -0.682877541
vn -0.677330434 -0.274137408 -0.682694852
vn -0.673539221 -0.282884002 -0.682877421
vn -0.677330434 0.274137527 -0.682694852
vn -0.673539162 0.282884091 -0.682877481
vn -0.274137437 0.677330196 -0.682695031
vn -0.282883704 0.673539281 -0.682877481
vn 0.27413705 0.677330077 -0.68269527
vn 0.282883763 0.673538923 -0.682877839
vn 0.677329719 0.274137348 -0.682695568
vn 0.673538625 0.282883734 -0.682878137
vn 0.677329779 -0.274137318 -0.682695448
vn 0.673538804 -0.282883823 -0.682877898
vn 0.274137318 -0.677330017 -0.68269515
vn 0.282883674 -0.673539102 -0.682877719
vn 0.67733568 -0.274139702 0.682688653
vn 0.282886147 -0.673544586 0.682871163
vn 0.274139732 -0.67733568 0.682688653
vn 0.673544586 -0.282886237 0.682871163
vn 0.67733562 0.274139822 0.682688594
vn 0.673544586 0.282886297 0.682871163
vn 0.274139762 0.677335739 0.682688594
vn 0.282885879 0.673544824 0.682870984
vn -0.274139792 0.677335918 0.682688475
vn -0.282886058 0.673544884 0.682870984
vn -0.677335978 0.274139822 0.682688355
vn -0.673544943 0.282886446 0.682870865
vn -0.677335978 -0.274139702 0.682688355
vn -0.673544943 -0.282886356 0.682870865
vn -0.274139911 -0.67733568 0.682688475
vn -0.282886058 -0.673544884 0.682870984
vn 0.274139732 -0.67733568 0.682688653
vn 0.282886147 -0.673544586 0.682871163
vn 1.17636841E-06 1 -2.67455289E-06
vn -1.69435168E-06 1 -3.23354402E-06
vn -1.76259482E-06 1 -3.22633969E-06
vn 1.10229598E-06 1 -2.70847613E-06
vn -3.3751171E-06 1 -3.53314164E-07
vn 2.25007511E-06 1 -7.0662901E-07
vn -3.37511688E-06 1 -3.53314164E-07
vn 2.25007489E-06 1 -7.0662901E-07
vn -3.3751171E-06 1 -3.53314164E-07
vn 2.25007511E-06 1 -7.0662901E-07
vn -3.37511733E-06 1 -3.53314221E-07
vn 2.25007511E-06 1 -7.0662901E-07
vn -7.57194016E-07 1 1.9032999E-06
vn 2.43939922E-07 1 1.6417124E-06
vn -7.95726578E-07 1 1.88565275E-06
vn 2.32127263E-07 1 1.67117196E-06
vn -0 0 1
vn -0 0 1
vn -0 0 1
vn -0 0 1
vn -0 0 1
vn -0 0 1
vn -0 0 1
vn -0 0 1
vn -0 0 1
vn -0 0 1
vn -0 0 1
vn -0 0 1
vn 2.32127562E-07 1.67117355E-06 1
vn -2.43940377E-07 1.6417124E-06 1
vn 2.43940377E-07 1.64171365E-06 1
vn -2.32127192E-07 1.671174E-06 1
g P_Bend_Vert_0
f 3/3/3 2/2/2 1/1/1
f 4/4/4 3/3/3 1/1/1
f 3/3/3 4/4/4 5/5/5
f 6/6/6 3/3/3 5/5/5
f 9/9/9 8/8/8 7/7/7
f 8/8/8 10/10/10 7/7/7
f 10/10/10 8/8/8 11/11/11
f 12/12/12 10/10/10 11/11/11
f 15/15/15 14/14/14 13/13/13
f 14/14/14 16/16/16 13/13/13
f 14/14/14 17/17/17 16/16/16
f 17/17/17 18/18/18 16/16/16
f 17/17/17 19/19/19 18/18/18
f 19/19/19 20/20/20 18/18/18
f 23/23/23 22/22/22 21/21/21
f 22/22/22 24/24/24 21/21/21
f 22/22/22 25/25/25 24/24/24
f 25/25/25 26/26/26 24/24/24
f 25/25/25 27/27/27 26/26/26
f 27/27/27 28/28/28 26/26/26
f 31/31/31 30/30/30 29/29/29
f 32/32/32 31/31/31 29/29/29
f 35/35/35 34/34/34 33/33/33
f 36/36/36 35/35/35 33/33/33
f 39/39/39 38/38/38 37/37/37
f 40/40/40 39/39/39 37/37/37
f 37/37/37 41/41/41 40/40/40
f 40/40/40 42/42/42 39/39/39
f 42/42/42 43/43/43 39/39/39
f 43/43/43 42/42/42 44/44/44
f 42/42/42 45/45/45 44/44/44
f 41/41/41 46/46/46 40/40/40
f 42/42/42 40/40/40 46/46/46
f 41/41/41 47/47/47 46/46/46
f 45/45/45 42/42/42 48/48/48
f 48/48/48 42/42/42 46/46/46
f 49/49/49 45/45/45 48/48/48
f 47/47/47 50/50/50 46/46/46
f 48/48/48 46/46/46 50/50/50
f 47/47/47 51/51/51 50/50/50
f 49/49/49 48/48/48 52/52/52
f 52/52/52 48/48/48 50/50/50
f 53/53/53 49/49/49 52/52/52
f 51/51/51 54/54/54 50/50/50
f 52/52/52 50/50/50 54/54/54
f 51/51/51 55/55/55 54/54/54
f 55/55/55 56/56/56 54/54/54
f 53/53/53 52/52/52 57/57/57
f 57/57/57 52/52/52 54/54/54
f 57/57/57 54/54/54 56/56/56
f 58/58/58 53/53/53 57/57/57
f 59/59/59 57/57/57 56/56/56
f 58/58/58 57/57/57 59/59/59
f 60/60/60 58/58/58 59/59/59
f 63/63/63 62/62/62 61/61/61
f 64/64/64 63/63/63 61/61/61
f 64/64/64 61/61/61 65/65/65
f 66/66/66 64/64/64 65/65/65
f 63/63/63 64/64/64 67/67/67
f 67/67/67 64/64/64 66/66/66
f 68/68/68 63/63/63 67/67/67
f 68/68/68 67/67/67 69/69/69
f 70/70/70 67/67/67 66/66/66
f 67/67/67 71/71/71 69/69/69
f 71/71/71 67/67/67 70/70/70
f 72/72/72 71/71/71 70/70/70
f 75/75/75 74/74/74 73/73/73
f 74/74/74 76/76/76 73/73/73
f 73/73/73 76/76/76 77/77/77
f 74/74/74 78/78/78 76/76/76
f 76/76/76 79/79/79 77/77/77
f 77/77/77 79/79/79 80/80/80
f 79/79/79 81/81/81 80/80/80
f 78/78/78 82/82/82 76/76/76
f 76/76/76 82/82/82 79/79/79
f 78/78/78 83/83/83 82/82/82
f 83/83/83 84/84/84 82/82/82
f 79/79/79 85/85/85 81/81/81
f 82/82/82 85/85/85 79/79/79
f 82/82/82 84/84/84 85/85/85
f 85/85/85 86/86/86 81/81/81
f 84/84/84 87/87/87 85/85/85
f 85/85/85 87/87/87 86/86/86
f 87/87/87 88/88/88 86/86/86
f 91/91/91 90/90/90 89/89/89
f 92/92/92 91/91/91 89/89/89
f 92/92/92 93/93/93 91/91/91
f 93/93/93 94/94/94 91/91/91
f 94/94/94 93/93/93 95/95/95
f 93/93/93 96/96/96 95/95/95
f 99/99/99 98/98/98 97/97/97
f 100/100/100 99/99/99 97/97/97
f 100/100/100 101/101/101 99/99/99
f 101/101/101 102/102/102 99/99/99
f 102/102/102 101/101/101 103/103/103
f 101/101/101 104/104/104 103/103/103
f 107/107/107 106/106/106 105/105/105
f 108/108/108 107/107/107 105/105/105
f 111/111/111 110/110/110 109/109/109
f 112/112/112 111/111/111 109/109/109
f 115/115/115 114/114/114 113/113/113
f 114/114/114 116/116/116 113/113/113
f 114/114/114 117/117/117 116/116/116
f 117/117/117 118/118/118 116/116/116
f 121/121/121 120/120/120 119/119/119
f 120/120/120 122/122/122 119/119/119
f 120/120/120 123/123/123 122/122/122
f 123/123/123 124/124/124 122/122/122
f 123/123/123 125/125/125 124/124/124
f 125/125/125 126/126/126 124/124/124
f 129/129/129 128/128/128 127/127/127
f 130/130/130 129/129/129 127/127/127
f 133/133/133 132/132/132 131/131/131
f 134/134/134 133/133/133 131/131/131
f 135/135/135 133/133/133 134/134/134
f 136/136/136 135/135/135 134/134/134
f 139/139/139 138/138/138 137/137/137
f 140/140/140 139/139/139 137/137/137
f 141/141/141 139/139/139 140/140/140
f 142/142/142 141/141/141 140/140/140
f 145/145/145 144/144/144 143/143/143
f 146/146/146 145/145/145 143/143/143
f 146/146/146 143/143/143 147/147/147
f 148/148/148 145/145/145 146/146/146
f 149/149/149 146/146/146 147/147/147
f 149/149/149 147/147/147 150/150/150
f 151/151/151 149/149/149 150/150/150
f 152/152/152 148/148/148 146/146/146
f 152/152/152 146/146/146 149/149/149
f 153/153/153 148/148/148 152/152/152
f 154/154/154 149/149/149 151/151/151
f 154/154/154 152/152/152 149/149/149
f 155/155/155 154/154/154 151/151/151
f 156/156/156 153/153/153 152/152/152
f 156/156/156 152/152/152 154/154/154
f 157/157/157 153/153/153 156/156/156
f 158/158/158 154/154/154 155/155/155
f 158/158/158 156/156/156 154/154/154
f 159/159/159 158/158/158 155/155/155
f 160/160/160 157/157/157 156/156/156
f 160/160/160 156/156/156 158/158/158
f 161/161/161 157/157/157 160/160/160
f 162/162/162 161/161/161 160/160/160
f 163/163/163 158/158/158 159/159/159
f 163/163/163 160/160/160 158/158/158
f 162/162/162 160/160/160 163/163/163
f 164/164/164 163/163/163 159/159/159
f 165/165/165 162/162/162 163/163/163
f 165/165/165 163/163/163 164/164/164
f 166/166/166 165/165/165 164/164/164
f 169/169/169 168/168/168 167/167/167
f 170/170/170 169/169/169 167/167/167
f 171/171/171 169/169/169 170/170/170
f 170/170/170 167/167/167 172/172/172
f 173/173/173 171/171/171 170/170/170
f 174/174/174 170/170/170 172/172/172
f 173/173/173 170/170/170 174/174/174
f 174/174/174 172/172/172 175/175/175
f 176/176/176 173/173/173 174/174/174
f 177/177/177 174/174/174 175/175/175
f 176/176/176 174/174/174 177/177/177
f 178/178/178 176/176/176 177/177/177
f 181/181/181 180/180/180 179/179/179
f 182/182/182 181/181/181 179/179/179
f 183/183/183 181/181/181 182/182/182
f 184/184/184 183/183/183 182/182/182
f 185/185/185 183/183/183 184/184/184
f 186/186/186 185/185/185 184/184/184
f 189/189/189 188/188/188 187/187/187
f 190/190/190 189/189/189 187/187/187
f 191/191/191 189/189/189 190/190/190
f 192/192/192 191/191/191 190/190/190
f 193/193/193 191/191/191 192/192/192
f 194/194/194 193/193/193 192/192/192
f 197/197/197 196/196/196 195/195/195
f 198/198/198 197/197/197 195/195/195
f 198/198/198 195/195/195 199/199/199
f 200/200/200 197/197/197 198/198/198
f 201/201/201 198/198/198 199/199/199
f 201/201/201 199/199/199 202/202/202
f 203/203/203 201/201/201 202/202/202
f 204/204/204 200/200/200 198/198/198
f 204/204/204 198/198/198 201/201/201
f 205/205/205 200/200/200 204/204/204
f 206/206/206 205/205/205 204/204/204
f 207/207/207 201/201/201 203/203/203
f 207/207/207 204/204/204 201/201/201
f 206/206/206 204/204/204 207/207/207
f 208/208/208 207/207/207 203/203/203
f 209/209/209 206/206/206 207/207/207
f 209/209/209 207/207/207 208/208/208
f 210/210/210 209/209/209 208/208/208
f 213/213/213 212/212/212 211/211/211
f 214/214/214 213/213/213 211/211/211
f 217/217/217 216/216/216 215/215/215
f 216/216/216 218/218/218 215/215/215
f 219/219/219 215/215/215 218/218/218
f 220/220/220 219/219/219 218/218/218
f 223/223/223 222/222/222 221/221/221
f 224/224/224 223/223/223 221/221/221
f 224/224/224 221/221/221 225/225/225
f 221/221/221 226/226/226 225/225/225
f 229/229/229 228/228/228 227/227/227
f 230/230/230 229/229/229 227/227/227
f 230/230/230 231/231/231 229/229/229
f 231/231/231 232/232/232 229/229/229
f 232/232/232 231/231/231 233/233/233
f 231/231/231 234/234/234 233/233/233
f 237/237/237 236/236/236 235/235/235
f 236/236/236 238/238/238 235/235/235
f 239/239/239 238/238/238 236/236/236
f 240/240/240 239/239/239 236/236/236
f 240/240/240 241/241/241 239/239/239
f 241/241/241 242/242/242 239/239/239
f 245/245/245 244/244/244 243/243/243
f 246/246/246 245/245/245 243/243/243
f 249/249/249 248/248/248 247/247/247
f 250/250/250 249/249/249 247/247/247
f 250/250/250 251/251/251 249/249/249
f 251/251/251 252/252/252 249/249/249
f 252/252/252 251/251/251 253/253/253
f 251/251/251 254/254/254 253/253/253
f 257/257/257 256/256/256 255/255/255
f 258/258/258 257/257/257 255/255/255
f 261/261/261 260/260/260 259/259/259
f 262/262/262 261/261/261 259/259/259
f 263/263/263 261/261/261 262/262/262
f 264/264/264 263/263/263 262/262/262
f 265/265/265 263/263/263 264/264/264
f 266/266/266 265/265/265 264/264/264
f 267/267/267 265/265/265 266/266/266
f 268/268/268 267/267/267 266/266/266
f 269/269/269 267/267/267 268/268/268
f 270/270/270 269/269/269 268/268/268
f 271/271/271 269/269/269 270/270/270
f 272/272/272 271/271/271 270/270/270
f 273/273/273 271/271/271 272/272/272
f 274/274/274 273/273/273 272/272/272
f 275/275/275 273/273/273 274/274/274
f 276/276/276 275/275/275 274/274/274
f 279/279/279 278/278/278 277/277/277
f 278/278/278 280/280/280 277/277/277
f 277/277/277 280/280/280 281/281/281
f 280/280/280 282/282/282 281/281/281
f 281/281/281 282/282/282 283/283/283
f 282/282/282 284/284/284 283/283/283
f 283/283/283 284/284/284 285/285/285
f 284/284/284 286/286/286 285/285/285
f 285/285/285 286/286/286 287/287/287
f 286/286/286 288/288/288 287/287/287
f 287/287/287 288/288/288 289/289/289
f 288/288/288 290/290/290 289/289/289
f 289/289/289 290/290/290 291/291/291
f 290/290/290 292/292/292 291/291/291
f 291/291/291 292/292/292 293/293/293
f 292/292/292 294/294/294 293/293/293
f 297/297/297 296/296/296 295/295/295
f 296/296/296 298/298/298 295/295/295
f 295/295/295 298/298/298 299/299/299
f 298/298/298 300/300/300 299/299/299
f 299/299/299 300/300/300 301/301/301
f 300/300/300 302/302/302 301/301/301
f 301/301/301 302/302/302 303/303/303
f 302/302/302 304/304/304 303/303/303
f 303/303/303 304/304/304 305/305/305
f 304/304/304 306/306/306 305/305/305
f 305/305/305 306/306/306 307/307/307
f 306/306/306 308/308/308 307/307/307
f 307/307/307 308/308/308 309/309/309
f 308/308/308 310/310/310 309/309/309
f 309/309/309 310/310/310 311/311/311
f 310/310/310 312/312/312 311/311/311
f 315/315/315 314/314/314 313/313/313
f 314/314/314 316/316/316 313/313/313
f 313/313/313 316/316/316 317/317/317
f 316/316/316 318/318/318 317/317/317
f 317/317/317 318/318/318 319/319/319
f 318/318/318 320/320/320 319/319/319
f 319/319/319 320/320/320 321/321/321
f 320/320/320 322/322/322 321/321/321
f 321/321/321 322/322/322 323/323/323
f 322/322/322 324/324/324 323/323/323
f 323/323/323 324/324/324 325/325/325
f 324/324/324 326/326/326 325/325/325
f 325/325/325 326/326/326 327/327/327
f 326/326/326 328/328/328 327/327/327
f 327/327/327 328/328/328 329/329/329
f 328/328/328 330/330/330 329/329/329
f 333/333/333 332/332/332 331/331/331
f 332/332/332 334/334/334 331/331/331
f 335/335/335 332/332/332 333/333/333
f 331/331/331 334/334/334 336/336/336
f 337/337/337 335/335/335 333/333/333
f 334/334/334 338/338/338 336/336/336
f 339/339/339 335/335/335 337/337/337
f 336/336/336 338/338/338 340/340/340
f 341/341/341 339/339/339 337/337/337
f 338/338/338 342/342/342 340/340/340
f 343/343/343 339/339/339 341/341/341
f 340/340/340 342/342/342 344/344/344
f 345/345/345 343/343/343 341/341/341
f 342/342/342 346/346/346 344/344/344
f 346/346/346 343/343/343 345/345/345
f 344/344/344 346/346/346 345/345/345
f 349/349/349 348/348/348 347/347/347
f 348/348/348 350/350/350 347/347/347
f 351/351/351 348/348/348 349/349/349
f 347/347/347 350/350/350 352/352/352
f 353/353/353 351/351/351 349/349/349
f 350/350/350 354/354/354 352/352/352
f 355/355/355 351/351/351 353/353/353
f 352/352/352 354/354/354 356/356/356
f 357/357/357 355/355/355 353/353/353
f 354/354/354 358/358/358 356/356/356
f 359/359/359 355/355/355 357/357/357
f 356/356/356 358/358/358 360/360/360
f 361/361/361 359/359/359 357/357/357
f 358/358/358 362/362/362 360/360/360
f 362/362/362 359/359/359 361/361/361
f 360/360/360 362/362/362 361/361/361
