g T_Wall
v -0.28125 0.5 -0.225006
v -0.28125 0.5 -0.0625
v -0.28125 -0.5 -0.0625
v -0.28125 -0.5 -0.225006
v 0.281246 -0.5 -0.225006
v 0.281246 -0.5 0.225006
v 0.281246 0.5 0.225006
v 0.281246 0.5 -0.225006
v -0.225006 -0.5 -0.28125
v -0.225006 0.5 -0.28125
v -0.28125 0.5 -0.225006
v -0.28125 -0.5 -0.225006
v -0.28125 -0.5 0.225006
v -0.28125 0.5 0.225006
v -0.225006 0.5 0.28125
v -0.225006 -0.5 0.28125
v 0.225002 0.5 -0.28125
v 0.225002 -0.5 -0.28125
v 0.281246 -0.5 -0.225006
v 0.281246 0.5 -0.225006
v 0.281246 0.5 0.225006
v 0.281246 -0.5 0.225006
v 0.225002 -0.5 0.28125
v 0.225002 0.5 0.28125
v 0.0625 0.5 0.5
v 0.0625 -0.5 0.5
v -0.0625 -0.5 0.5
v -0.0625 0.5 0.5
v -0.0625 0.5 -0.5
v -0.0625 -0.5 -0.5
v 0.0625 -0.5 -0.5
v 0.0625 0.5 -0.5
v -0.225006 0.5 0.28125
v -0.0625 0.5 0.28125
v -0.0625 -0.5 0.28125
v -0.225006 -0.5 0.28125
v 0.225002 0.5 -0.28125
v 0.0625 0.5 -0.28125
v 0.0625 -0.5 -0.28125
v 0.225002 -0.5 -0.28125
v -0.28125 0.5 -0.0625
v -0.28125 0.5 -0.225006
v -0.225006 0.5 -0.28125
v -0.0625 0.5 -0.28125
v 0 0.5 0
v -0.28125 0.5 0.0625
v -0.5 0.5 -0.0625
v -0.5 0.5 0.0625
v 0.0625 0.5 -0.28125
v 0.0625 0.5 -0.5
v -0.0625 0.5 -0.5
v 0.225002 0.5 -0.28125
v 0.281246 0.5 0.225006
v 0.281246 0.5 -0.225006
v 0.0625 0.5 0.28125
v 0.225002 0.5 0.28125
v -0.0625 0.5 0.28125
v -0.225006 0.5 0.28125
v -0.28125 0.5 0.225006
v 0.0625 0.5 0.28125
v 0.225002 0.5 0.28125
v 0.225002 -0.5 0.28125
v 0.0625 -0.5 0.28125
v -0.0625 0.5 -0.28125
v -0.225006 0.5 -0.28125
v -0.225006 -0.5 -0.28125
v -0.0625 -0.5 -0.28125
v -0.225006 -0.5 -0.28125
v -0.28125 -0.5 -0.225006
v -0.28125 -0.5 -0.0625
v -0.0625 -0.5 -0.28125
v 0 -0.5 0
v 0.0625 -0.5 -0.28125
v 0.225002 -0.5 -0.28125
v -0.0625 -0.5 -0.5
v 0.0625 -0.5 -0.5
v 0.281246 -0.5 -0.225006
v 0.281246 -0.5 0.225006
v 0.225002 -0.5 0.28125
v 0.0625 -0.5 0.28125
v -0.0625 -0.5 0.28125
v -0.28125 -0.5 0.0625
v -0.225006 -0.5 0.28125
v -0.28125 -0.5 0.225006
v -0.5 -0.5 0.0625
v -0.5 -0.5 -0.0625
v 0.0625 0.5 -0.28125
v 0.0625 0.5 -0.5
v 0.0625 -0.5 -0.5
v 0.0625 -0.5 -0.28125
v -0.0625 -0.5 -0.28125
v -0.0625 -0.5 -0.5
v -0.0625 0.5 -0.5
v -0.0625 0.5 -0.28125
v 0.0625 0.5 0.28125
v 0.0625 0.5 0.5
v -0.0625 0.5 0.5
v -0.0625 0.5 0.28125
v -0.0625 0.5 0.28125
v -0.0625 0.5 0.5
v -0.0625 -0.5 0.5
v -0.0625 -0.5 0.28125
v -0.0625 -0.5 0.28125
v -0.0625 -0.5 0.5
v 0.0625 -0.5 0.5
v 0.0625 -0.5 0.28125
v 0.0625 -0.5 0.28125
v 0.0625 -0.5 0.5
v 0.0625 0.5 0.5
v 0.0625 0.5 0.28125
v -0.28125 0.5 0.0625
v -0.28125 0.5 0.225006
v -0.28125 -0.5 0.225006
v -0.28125 -0.5 0.0625
v -0.5 0.5 -0.0625
v -0.5 0.5 0.0625
v -0.5 -0.5 0.0625
v -0.5 -0.5 -0.0625
v -0.28125 0.5 -0.0625
v -0.5 0.5 -0.0625
v -0.5 -0.5 -0.0625
v -0.28125 -0.5 -0.0625
v -0.28125 -0.5 0.0625
v -0.5 -0.5 0.0625
v -0.5 0.5 0.0625
v -0.28125 0.5 0.0625
vt 0.923621178 0.50885433
vt 0.988599241 0.50885421
vt 0.988598645 0.109013319
vt 0.923624039 0.109013557
vt 0.715755045 0.109013557
vt 0.535822093 0.109013677
vt 0.53582269 0.508854747
vt 0.715755165 0.50885421
vt 0.891820252 0.109013438
vt 0.891817272 0.50885433
vt 0.923621178 0.50885433
vt 0.923624039 0.109013557
vt 0.891829789 0.109013438
vt 0.891829789 0.50885421
vt 0.923633695 0.50885433
vt 0.923633695 0.109013438
vt 0.74755913 0.508854747
vt 0.74755913 0.109013557
vt 0.715755045 0.109013557
vt 0.715755165 0.50885421
vt 0.53582269 0.508854747
vt 0.535822093 0.109013677
vt 0.504018247 0.109013855
vt 0.504018605 0.508854747
vt 0.58933568 0.520472109
vt 0.989974439 0.520472229
vt 0.989974439 0.57055217
vt 0.58933568 0.57055223
vt 0.589335799 0.520575345
vt 0.989974439 0.520575285
vt 0.989974439 0.570655107
vt 0.589335799 0.570655107
vt 0.923633695 0.50885433
vt 0.988610327 0.50885433
vt 0.988610327 0.109013438
vt 0.923633695 0.109013438
vt 0.74755913 0.508854747
vt 0.812534153 0.508854747
vt 0.812534153 0.109013557
vt 0.74755913 0.109013557
vt 0.851591468 0.762293577
vt 0.786139727 0.762293577
vt 0.763486385 0.78494668
vt 0.763486385 0.850398362
vt 0.876764297 0.875571489
vt 0.901937008 0.762293577
vt 0.851591468 0.674188316
vt 0.901937008 0.674188316
vt 0.763486385 0.900744081
vt 0.67538166 0.900744081
vt 0.67538166 0.850398362
vt 0.763486385 0.966194272
vt 0.967388868 0.988847196
vt 0.786139727 0.988847196
vt 0.99004209 0.900744081
vt 0.99004209 0.966194272
vt 0.99004209 0.850398362
vt 0.99004209 0.78494668
vt 0.967388868 0.762293577
vt 0.439043701 0.508854747
vt 0.504018605 0.508854747
vt 0.504018247 0.109013855
vt 0.439043283 0.109013855
vt 0.826842129 0.50885433
vt 0.891817272 0.50885433
vt 0.891820252 0.109013438
vt 0.826842487 0.109013438
vt 0.763486385 0.78494668
vt 0.786139727 0.762293577
vt 0.851591468 0.762293577
vt 0.763486385 0.850398362
vt 0.876764297 0.875571489
vt 0.763486385 0.900744081
vt 0.763486385 0.966194272
vt 0.67538166 0.850398362
vt 0.67538166 0.900744081
vt 0.786139727 0.988847196
vt 0.967388868 0.988847196
vt 0.99004209 0.966193914
vt 0.99004209 0.900744081
vt 0.99004209 0.850398362
vt 0.901937008 0.762293577
vt 0.99004209 0.78494668
vt 0.967388868 0.762293577
vt 0.901937008 0.674188554
vt 0.851591468 0.674188554
vt 0.832063258 0.0316959918
vt 0.829462111 0.0316959918
vt 0.829462111 0.0435867906
vt 0.832063258 0.0435867906
vt 0.834779859 0.0316959918
vt 0.832178771 0.0316959918
vt 0.832178771 0.0435867906
vt 0.834779859 0.0435867906
vt 0.901937068 0.762473583
vt 0.901937068 0.674368322
vt 0.851591766 0.67436856
vt 0.851591647 0.762473524
vt 0.834891796 0.0435867906
vt 0.837492943 0.0435867906
vt 0.837492943 0.0316959918
vt 0.834891796 0.0316959918
vt 0.851591647 0.762473524
vt 0.851591766 0.67436856
vt 0.901937068 0.674368322
vt 0.901937068 0.762473583
vt 0.837605 0.0435867906
vt 0.840206027 0.0435867906
vt 0.840206027 0.0316959918
vt 0.837605 0.0316959918
vt 0.826853335 0.50885421
vt 0.891829789 0.50885421
vt 0.891829789 0.109013438
vt 0.826853335 0.109013438
vt 0.58933568 0.570706725
vt 0.58933568 0.520626962
vt 0.989974499 0.520627081
vt 0.989974499 0.570706666
vt 0.840318084 0.0435867906
vt 0.842919171 0.0435867906
vt 0.842919171 0.0316959918
vt 0.840318084 0.0316959918
vt 0.845632315 0.0316959918
vt 0.843031168 0.0316959918
vt 0.843031168 0.0435867906
vt 0.845632315 0.0435867906
vn -1 0 0
vn -1 0 0
vn -1 0 0
vn -1 0 0
vn 1 0 0
vn 1 0 0
vn 1 0 0
vn 1 0 0
vn -0.70711 0 -0.707104
vn -0.70711 0 -0.707104
vn -0.70711 0 -0.707104
vn -0.70711 0 -0.707104
vn -0.70711 0 0.707104
vn -0.70711 0 0.707104
vn -0.70711 0 0.707104
vn -0.70711 0 0.707104
vn 0.707109 0 -0.707104
vn 0.707109 0 -0.707104
vn 0.707109 0 -0.707104
vn 0.707109 0 -0.707104
vn 0.707109 -1.53468e-07 0.707105
vn 0.707109 -1.53468e-07 0.707105
vn 0.707109 -1.53468e-07 0.707105
vn 0.707109 -1.53468e-07 0.707105
vn 0 0 1
vn 0 0 1
vn 0 0 1
vn 0 0 1
vn 0 0 -1
vn 0 0 -1
vn 0 0 -1
vn 0 0 -1
vn 0 0 1
vn 0 0 1
vn 0 0 1
vn 0 0 1
vn 0 0 -1
vn 0 0 -1
vn 0 0 -1
vn 0 0 -1
vn 0 1 0
vn 0 1 0
vn 0 1 0
vn 0 1 0
vn 0 1 0
vn 0 1 0
vn 0 1 0
vn 0 1 0
vn 1.34258e-07 1 0
vn 0 1 0
vn 0 1 0
vn 1.52024e-07 1 0
vn 1.25813e-07 1 0
vn 1.52024e-07 1 0
vn 0 1 0
vn 0 1 0
vn 0 1 0
vn 0 1 0
vn 0 1 0
vn 0 0 1
vn 0 0 1
vn 0 0 1
vn 0 0 1
vn 0 0 -1
vn 0 0 -1
vn 0 0 -1
vn 0 0 -1
vn 0 -1 0
vn 0 -1 0
vn 0 -1 0
vn 0 -1 0
vn 0 -1 0
vn 1.07406e-07 -1 0
vn 1.2162e-07 -1 0
vn 0 -1 0
vn 0 -1 0
vn 1.2162e-07 -1 0
vn 0 -1 0
vn 0 -1 0
vn 0 -1 0
vn 0 -1 0
vn 0 -1 0
vn 0 -1 0
vn 0 -1 0
vn 0 -1 0
vn 0 -1 0
vn 1 0 0
vn 1 0 0
vn 1 0 0
vn 1 0 0
vn -1 0 0
vn -1 0 0
vn -1 0 0
vn -1 0 0
vn 0 1 0
vn 0 1 0
vn 0 1 0
vn 0 1 0
vn -1 0 0
vn -1 0 0
vn -1 0 0
vn -1 0 0
vn 0 -1 0
vn 0 -1 0
vn 0 -1 0
vn 0 -1 0
vn 1 0 0
vn 1 0 0
vn 1 0 0
vn 1 0 0
vn -1 0 0
vn -1 0 0
vn -1 0 0
vn -1 0 0
vn -1 0 0
vn -1 0 0
vn -1 0 0
vn -1 0 0
vn 0 0 -1
vn 0 0 -1
vn 0 0 -1
vn 0 0 -1
vn 0 0 1
vn 0 0 1
vn 0 0 1
vn 0 0 1
g T_Wall_0
f 3/3/3 2/2/2 1/1/1
f 4/4/4 3/3/3 1/1/1
f 7/7/7 6/6/6 5/5/5
f 8/8/8 7/7/7 5/5/5
f 11/11/11 10/10/10 9/9/9
f 12/12/12 11/11/11 9/9/9
f 15/15/15 14/14/14 13/13/13
f 16/16/16 15/15/15 13/13/13
f 19/19/19 18/18/18 17/17/17
f 20/20/20 19/19/19 17/17/17
f 23/23/23 22/22/22 21/21/21
f 24/24/24 23/23/23 21/21/21
f 27/27/27 26/26/26 25/25/25
f 28/28/28 27/27/27 25/25/25
f 31/31/31 30/30/30 29/29/29
f 32/32/32 31/31/31 29/29/29
f 35/35/35 34/34/34 33/33/33
f 36/36/36 35/35/35 33/33/33
f 39/39/39 38/38/38 37/37/37
f 40/40/40 39/39/39 37/37/37
f 43/43/43 42/42/42 41/41/41
f 44/44/44 43/43/43 41/41/41
f 41/41/41 45/45/45 44/44/44
f 41/41/41 46/46/46 45/45/45
f 41/41/41 47/47/47 46/46/46
f 47/47/47 48/48/48 46/46/46
f 49/49/49 44/44/44 45/45/45
f 49/49/49 50/50/50 44/44/44
f 50/50/50 51/51/51 44/44/44
f 52/52/52 49/49/49 45/45/45
f 52/52/52 45/45/45 53/53/53
f 53/53/53 54/54/54 52/52/52
f 45/45/45 55/55/55 53/53/53
f 55/55/55 56/56/56 53/53/53
f 55/55/55 45/45/45 57/57/57
f 57/57/57 45/45/45 46/46/46
f 46/46/46 58/58/58 57/57/57
f 46/46/46 59/59/59 58/58/58
f 62/62/62 61/61/61 60/60/60
f 63/63/63 62/62/62 60/60/60
f 66/66/66 65/65/65 64/64/64
f 67/67/67 66/66/66 64/64/64
f 70/70/70 69/69/69 68/68/68
f 70/70/70 68/68/68 71/71/71
f 71/71/71 72/72/72 70/70/70
f 71/71/71 73/73/73 72/72/72
f 72/72/72 73/73/73 74/74/74
f 71/71/71 75/75/75 73/73/73
f 75/75/75 76/76/76 73/73/73
f 72/72/72 74/74/74 77/77/77
f 77/77/77 78/78/78 72/72/72
f 78/78/78 79/79/79 72/72/72
f 79/79/79 80/80/80 72/72/72
f 81/81/81 72/72/72 80/80/80
f 82/82/82 72/72/72 81/81/81
f 72/72/72 82/82/82 70/70/70
f 81/81/81 83/83/83 82/82/82
f 83/83/83 84/84/84 82/82/82
f 82/82/82 85/85/85 70/70/70
f 85/85/85 86/86/86 70/70/70
f 89/89/89 88/88/88 87/87/87
f 90/90/90 89/89/89 87/87/87
f 93/93/93 92/92/92 91/91/91
f 94/94/94 93/93/93 91/91/91
f 97/97/97 96/96/96 95/95/95
f 98/98/98 97/97/97 95/95/95
f 101/101/101 100/100/100 99/99/99
f 102/102/102 101/101/101 99/99/99
f 105/105/105 104/104/104 103/103/103
f 106/106/106 105/105/105 103/103/103
f 109/109/109 108/108/108 107/107/107
f 110/110/110 109/109/109 107/107/107
f 113/113/113 112/112/112 111/111/111
f 114/114/114 113/113/113 111/111/111
f 117/117/117 116/116/116 115/115/115
f 118/118/118 117/117/117 115/115/115
f 121/121/121 120/120/120 119/119/119
f 122/122/122 121/121/121 119/119/119
f 125/125/125 124/124/124 123/123/123
f 126/126/126 125/125/125 123/123/123
