g FloorThreeEdge
v -0.4375 -0.375 -0.4375
v 0.4375 -0.375 -0.4375
v 0.4375 0.375 -0.4375
v -0.4375 0.375 -0.4375
v -0.5 -0.375 -0.5
v 0.5 -0.375 -0.5
v 0.4375 -0.375 -0.4375
v -0.4375 -0.375 -0.4375
v -0.5 -0.5 -0.5
v 0.5 -0.5 -0.5
v 0.5 -0.375 -0.5
v -0.5 -0.375 -0.5
v -0.5 0.375 -0.5
v 0.5 0.375 -0.5
v 0.5 0.5 -0.5
v -0.5 0.5 -0.5
v -0.4375 -0.5 -0.4375
v 0.4375 -0.5 -0.4375
v 0.5 -0.5 -0.5
v -0.5 -0.5 -0.5
v -0.5 0.5 -0.5
v 0.5 0.5 -0.5
v 0.4375 0.5 -0.4375
v -0.4375 0.5 -0.4375
v -0.4375 0.375 -0.4375
v 0.4375 0.375 -0.4375
v 0.5 0.375 -0.5
v -0.5 0.375 -0.5
v -0.4375 -0.375 0.5
v -0.4375 -0.375 -0.4375
v -0.4375 0.375 -0.4375
v -0.4375 0.375 0.5
v -0.5 -0.375 0.5
v -0.5 -0.375 -0.5
v -0.4375 -0.375 -0.4375
v -0.4375 -0.375 0.5
v -0.5 -0.5 0.5
v -0.5 -0.5 -0.5
v -0.5 -0.375 -0.5
v -0.5 -0.375 0.5
v -0.5 0.375 0.5
v -0.5 0.375 -0.5
v -0.5 0.5 -0.5
v -0.5 0.5 0.5
v -0.4375 -0.5 0.5
v -0.4375 -0.5 -0.4375
v -0.5 -0.5 -0.5
v -0.5 -0.5 0.5
v -0.5 0.5 0.5
v -0.5 0.5 -0.5
v -0.4375 0.5 -0.4375
v -0.4375 0.5 0.5
v -0.4375 0.375 0.5
v -0.4375 0.375 -0.4375
v -0.5 0.375 -0.5
v -0.5 0.375 0.5
v 0.4375 -0.375 -0.4375
v 0.4375 -0.375 0.5
v 0.4375 0.375 0.5
v 0.4375 0.375 -0.4375
v 0.5 -0.375 -0.5
v 0.5 -0.375 0.5
v 0.4375 -0.375 0.5
v 0.4375 -0.375 -0.4375
v 0.5 -0.5 -0.5
v 0.5 -0.5 0.5
v 0.5 -0.375 0.5
v 0.5 -0.375 -0.5
v 0.5 0.375 -0.5
v 0.5 0.375 0.5
v 0.5 0.5 0.5
v 0.5 0.5 -0.5
v 0.4375 -0.5 -0.4375
v 0.4375 -0.5 0.5
v 0.5 -0.5 0.5
v 0.5 -0.5 -0.5
v 0.5 0.5 -0.5
v 0.5 0.5 0.5
v 0.4375 0.5 0.5
v 0.4375 0.5 -0.4375
v 0.4375 0.375 -0.4375
v 0.4375 0.375 0.5
v 0.5 0.375 0.5
v 0.5 0.375 -0.5
v -0.4375 -0.5 0.5
v 0.4375 -0.5 0.5
v 0.4375 -0.5 -0.4375
v -0.4375 -0.5 -0.4375
v -0.4375 0.5 -0.4375
v 0.4375 0.5 -0.4375
v 0.4375 0.5 0.5
v -0.4375 0.5 0.5
v -0.5 -0.0625 -0.5
v 0.5 -0.0625 -0.5
v 0.5 0.0625 -0.5
v -0.5 0.0625 -0.5
v -0.5 0.0625 -0.5
v 0.5 0.0625 -0.5
v 0.4375 0.125 -0.4375
v -0.4375 0.125 -0.4375
v -0.4375 -0.125 -0.4375
v 0.4375 -0.125 -0.4375
v 0.5 -0.0625 -0.5
v -0.5 -0.0625 -0.5
v 0.5 0.0625 0.5
v 0.5 0.0625 -0.5
v 0.5 -0.0625 -0.5
v 0.5 -0.0625 0.5
v 0.5 -0.0625 0.5
v 0.5 -0.0625 -0.5
v 0.4375 -0.125 -0.4375
v 0.4375 -0.125 0.5
v 0.4375 0.125 0.5
v 0.4375 0.125 -0.4375
v 0.5 0.0625 -0.5
v 0.5 0.0625 0.5
v -0.5 -0.0625 0.5
v -0.5 -0.0625 -0.5
v -0.5 0.0625 -0.5
v -0.5 0.0625 0.5
v -0.5 0.0625 0.5
v -0.5 0.0625 -0.5
v -0.4375 0.125 -0.4375
v -0.4375 0.125 0.5
v -0.4375 -0.125 0.5
v -0.4375 -0.125 -0.4375
v -0.5 -0.0625 -0.5
v -0.5 -0.0625 0.5
vt 0.519737959 0.435695589
vt 0.51973784 0.176405504
vt 0.741986513 0.17640537
vt 0.741986513 0.435695589
vt 0.0762599707 0.0107462853
vt 0.0763428211 0.505104601
vt 0.0454388261 0.474212885
vt 0.04536587 0.0416492969
vt 0.0762786269 0.504832387
vt 0.0762814283 0.0106523186
vt 0.138053983 0.0106512755
vt 0.138051122 0.504831433
vt 0.138051718 0.0106472522
vt 0.138054699 0.504836679
vt 0.0762810111 0.504837275
vt 0.0762780309 0.0106478184
vt 0.0454460382 0.474214971
vt 0.0453792214 0.0416155308
vt 0.0762487054 0.0107099265
vt 0.076338768 0.505109489
vt 0.0762469769 0.0107508451
vt 0.0763524175 0.50515604
vt 0.0454439521 0.474262714
vt 0.0453511477 0.0416584462
vt 0.0454459786 0.474214792
vt 0.045379281 0.0416156799
vt 0.076248765 0.0107102841
vt 0.0763388276 0.50510937
vt 0.520387411 0.454216331
vt 0.520387411 0.177217245
vt 0.741986513 0.177217245
vt 0.741986513 0.454216331
vt 0.0398255289 0.504933774
vt 0.039922148 0.01068829
vt 0.00903537869 0.0415712446
vt 0.0089495182 0.504938185
vt 0.0762832165 0.504831851
vt 0.0762813687 0.0106450319
vt 0.138054758 0.0106474906
vt 0.138056546 0.504834235
vt 0.138052344 0.0106442422
vt 0.138054371 0.50483495
vt 0.0762805343 0.50483644
vt 0.0762785673 0.0106457025
vt 0.00911775231 0.504967272
vt 0.00904038548 0.0416041911
vt 0.039909631 0.0107081681
vt 0.0399991572 0.504953086
vt 0.0398128927 0.504918277
vt 0.03992033 0.0106849223
vt 0.00903341174 0.0415664911
vt 0.00893762708 0.504922092
vt 0.00911810994 0.504966676
vt 0.00904008746 0.0416048169
vt 0.0399094522 0.0107087344
vt 0.0399995744 0.50495255
vt 0.520387411 0.177217245
vt 0.520387411 0.454216331
vt 0.741986513 0.454216331
vt 0.741986513 0.177217245
vt 0.0399207175 0.0106859654
vt 0.0399915278 0.504934967
vt 0.00911387801 0.504948318
vt 0.00905075669 0.0415813178
vt 0.0762839913 0.504844069
vt 0.0762869716 0.010654524
vt 0.138060689 0.01065512
vt 0.138057649 0.504844725
vt 0.138054788 0.0106541216
vt 0.138056636 0.504841685
vt 0.0762832165 0.504842639
vt 0.0762813687 0.0106551796
vt 0.00902682543 0.0416104645
vt 0.00894808769 0.504971683
vt 0.0398288667 0.50496763
vt 0.0399195254 0.0107265562
vt 0.0398947895 0.0107550323
vt 0.0400011241 0.504984975
vt 0.00912413001 0.504999936
vt 0.00902989507 0.0416514575
vt 0.009026438 0.0416105986
vt 0.00894835591 0.504972041
vt 0.0398292989 0.504967928
vt 0.0399192572 0.0107266754
vt 0.956965923 0.0465374514
vt 0.956965923 0.0480612144
vt 0.96052146 0.0480612144
vt 0.96052146 0.0465374514
vt 0.957473993 0.0465374514
vt 0.957473993 0.0480612144
vt 0.96102941 0.0480612144
vt 0.961029291 0.0465374514
vt 0.289255023 0.109881371
vt 0.289243102 0.440286785
vt 0.333018064 0.4402861
vt 0.333030701 0.109881222
vt 0.86597985 0.41518873
vt 0.866008699 0.116766743
vt 0.892383039 0.154051274
vt 0.892356336 0.415179759
vt 0.924482942 0.452438325
vt 0.924486995 0.191321447
vt 0.950863481 0.191329598
vt 0.950859427 0.489737123
vt 0.33301878 0.440291733
vt 0.33303225 0.109965026
vt 0.289256513 0.109966293
vt 0.289243877 0.440292478
vt 0.950880527 0.116767786
vt 0.950849175 0.415190607
vt 0.92447412 0.415181607
vt 0.924501777 0.135415852
vt 0.892369449 0.172759458
vt 0.892365873 0.452459782
vt 0.865987957 0.489740819
vt 0.86599201 0.191421002
vt 0.289252758 0.10993892
vt 0.289238572 0.440318406
vt 0.333013713 0.440318406
vt 0.333028436 0.109938532
vt 0.86597985 0.415173382
vt 0.866007864 0.116748981
vt 0.892381966 0.154053912
vt 0.892355025 0.43381092
vt 0.924480915 0.471085578
vt 0.924490094 0.191358238
vt 0.950868607 0.191344738
vt 0.950857878 0.489737123
vn -0 0 -1
vn -0 0 -1
vn -0 0 -1
vn -0 0 -1
vn -0 1 0
vn -0 1 0
vn -0 1 0
vn -0 1 0
vn -0 0 -1
vn -0 0 -1
vn -0 0 -1
vn -0 0 -1
vn -0 0 -1
vn -0 0 -1
vn -0 0 -1
vn -0 0 -1
vn -0 -1 0
vn -0 -1 0
vn -0 -1 0
vn -0 -1 0
vn -0 1 0
vn -0 1 0
vn -0 1 0
vn -0 1 0
vn -0 -1 0
vn -0 -1 0
vn -0 -1 0
vn -0 -1 0
vn -1 0 0
vn -1 0 0
vn -1 0 0
vn -1 0 0
vn -0 1 0
vn -0 1 0
vn -0 1 0
vn -0 1 0
vn -1 0 0
vn -1 0 0
vn -1 0 0
vn -1 0 0
vn -1 0 0
vn -1 0 0
vn -1 0 0
vn -1 0 0
vn -0 -1 0
vn -0 -1 0
vn -0 -1 0
vn -0 -1 0
vn -0 1 0
vn -0 1 0
vn -0 1 0
vn -0 1 0
vn -0 -1 0
vn -0 -1 0
vn -0 -1 0
vn -0 -1 0
vn 1 0 0
vn 1 0 0
vn 1 0 0
vn 1 0 0
vn -0 1 0
vn -0 1 0
vn -0 1 0
vn -0 1 0
vn 1 0 0
vn 1 0 0
vn 1 0 0
vn 1 0 0
vn 1 0 0
vn 1 0 0
vn 1 0 0
vn 1 0 0
vn -0 -1 0
vn -0 -1 0
vn -0 -1 0
vn -0 -1 0
vn -0 1 0
vn -0 1 0
vn -0 1 0
vn -0 1 0
vn -0 -1 0
vn -0 -1 0
vn -0 -1 0
vn -0 -1 0
vn -0 -1 0
vn -0 -1 0
vn -0 -1 0
vn -0 -1 0
vn -0 1 0
vn -0 1 0
vn -0 1 0
vn -0 1 0
vn -0 0 -1
vn -0 0 -1
vn -0 0 -1
vn -0 0 -1
vn -0 0.707106769 -0.707106769
vn -0 0.707106769 -0.707106769
vn -0 0.707106769 -0.707106769
vn -0 0.707106769 -0.707106769
vn -0 -0.707106769 -0.707106769
vn -0 -0.707106769 -0.707106769
vn -0 -0.707106769 -0.707106769
vn -0 -0.707106769 -0.707106769
vn 1 0 0
vn 1 0 0
vn 1 0 0
vn 1 0 0
vn 0.707106769 -0.707106769 0
vn 0.707106769 -0.707106769 0
vn 0.707106769 -0.707106769 0
vn 0.707106769 -0.707106769 0
vn 0.707106769 0.707106769 0
vn 0.707106769 0.707106769 0
vn 0.707106769 0.707106769 0
vn 0.707106769 0.707106769 0
vn -1 0 0
vn -1 0 0
vn -1 0 0
vn -1 0 0
vn -0.707106769 0.707106769 0
vn -0.707106769 0.707106769 0
vn -0.707106769 0.707106769 0
vn -0.707106769 0.707106769 0
vn -0.707106769 -0.707106769 0
vn -0.707106769 -0.707106769 0
vn -0.707106769 -0.707106769 0
vn -0.707106769 -0.707106769 0
g FloorThreeEdge_0
f 3/3/3 2/2/2 1/1/1
f 4/4/4 3/3/3 1/1/1
f 7/7/7 6/6/6 5/5/5
f 8/8/8 7/7/7 5/5/5
f 11/11/11 10/10/10 9/9/9
f 12/12/12 11/11/11 9/9/9
f 15/15/15 14/14/14 13/13/13
f 16/16/16 15/15/15 13/13/13
f 19/19/19 18/18/18 17/17/17
f 20/20/20 19/19/19 17/17/17
f 23/23/23 22/22/22 21/21/21
f 24/24/24 23/23/23 21/21/21
f 27/27/27 26/26/26 25/25/25
f 28/28/28 27/27/27 25/25/25
f 31/31/31 30/30/30 29/29/29
f 32/32/32 31/31/31 29/29/29
f 35/35/35 34/34/34 33/33/33
f 36/36/36 35/35/35 33/33/33
f 39/39/39 38/38/38 37/37/37
f 40/40/40 39/39/39 37/37/37
f 43/43/43 42/42/42 41/41/41
f 44/44/44 43/43/43 41/41/41
f 47/47/47 46/46/46 45/45/45
f 48/48/48 47/47/47 45/45/45
f 51/51/51 50/50/50 49/49/49
f 52/52/52 51/51/51 49/49/49
f 55/55/55 54/54/54 53/53/53
f 56/56/56 55/55/55 53/53/53
f 59/59/59 58/58/58 57/57/57
f 60/60/60 59/59/59 57/57/57
f 63/63/63 62/62/62 61/61/61
f 64/64/64 63/63/63 61/61/61
f 67/67/67 66/66/66 65/65/65
f 68/68/68 67/67/67 65/65/65
f 71/71/71 70/70/70 69/69/69
f 72/72/72 71/71/71 69/69/69
f 75/75/75 74/74/74 73/73/73
f 76/76/76 75/75/75 73/73/73
f 79/79/79 78/78/78 77/77/77
f 80/80/80 79/79/79 77/77/77
f 83/83/83 82/82/82 81/81/81
f 84/84/84 83/83/83 81/81/81
f 87/87/87 86/86/86 85/85/85
f 88/88/88 87/87/87 85/85/85
f 91/91/91 90/90/90 89/89/89
f 92/92/92 91/91/91 89/89/89
f 95/95/95 94/94/94 93/93/93
f 96/96/96 95/95/95 93/93/93
f 99/99/99 98/98/98 97/97/97
f 100/100/100 99/99/99 97/97/97
f 103/103/103 102/102/102 101/101/101
f 104/104/104 103/103/103 101/101/101
f 107/107/107 106/106/106 105/105/105
f 108/108/108 107/107/107 105/105/105
f 111/111/111 110/110/110 109/109/109
f 112/112/112 111/111/111 109/109/109
f 115/115/115 114/114/114 113/113/113
f 116/116/116 115/115/115 113/113/113
f 119/119/119 118/118/118 117/117/117
f 120/120/120 119/119/119 117/117/117
f 123/123/123 122/122/122 121/121/121
f 124/124/124 123/123/123 121/121/121
f 127/127/127 126/126/126 125/125/125
f 128/128/128 127/127/127 125/125/125
