g FloorCorner
v -0.5 -0.375 -0.4375
v 0.4375 -0.375 -0.4375
v 0.4375 0.375 -0.4375
v -0.5 0.375 -0.4375
v -0.5 -0.375 -0.5
v 0.5 -0.375 -0.5
v 0.4375 -0.375 -0.4375
v -0.5 -0.375 -0.4375
v -0.5 -0.5 -0.5
v 0.5 -0.5 -0.5
v 0.5 -0.375 -0.5
v -0.5 -0.375 -0.5
v -0.5 0.375 -0.5
v 0.5 0.375 -0.5
v 0.5 0.5 -0.5
v -0.5 0.5 -0.5
v -0.5 -0.5 -0.4375
v 0.4375 -0.5 -0.4375
v 0.5 -0.5 -0.5
v -0.5 -0.5 -0.5
v -0.5 0.5 -0.5
v 0.5 0.5 -0.5
v 0.4375 0.5 -0.4375
v -0.5 0.5 -0.4375
v -0.5 0.375 -0.4375
v 0.4375 0.375 -0.4375
v 0.5 0.375 -0.5
v -0.5 0.375 -0.5
v 0.4375 -0.375 -0.4375
v 0.4375 -0.375 0.5
v 0.4375 0.375 0.5
v 0.4375 0.375 -0.4375
v 0.5 -0.375 -0.5
v 0.5 -0.375 0.5
v 0.4375 -0.375 0.5
v 0.4375 -0.375 -0.4375
v 0.5 -0.5 -0.5
v 0.5 -0.5 0.5
v 0.5 -0.375 0.5
v 0.5 -0.375 -0.5
v 0.5 0.375 -0.5
v 0.5 0.375 0.5
v 0.5 0.5 0.5
v 0.5 0.5 -0.5
v 0.4375 -0.5 -0.4375
v 0.4375 -0.5 0.5
v 0.5 -0.5 0.5
v 0.5 -0.5 -0.5
v 0.5 0.5 -0.5
v 0.5 0.5 0.5
v 0.4375 0.5 0.5
v 0.4375 0.5 -0.4375
v 0.4375 0.375 -0.4375
v 0.4375 0.375 0.5
v 0.5 0.375 0.5
v 0.5 0.375 -0.5
v -0.5 -0.5 0.5
v 0.4375 -0.5 0.5
v 0.4375 -0.5 -0.4375
v -0.5 -0.5 -0.4375
v -0.5 0.5 -0.4375
v 0.4375 0.5 -0.4375
v 0.4375 0.5 0.5
v -0.5 0.5 0.5
v -0.5 -0.0625 -0.5
v 0.5 -0.0625 -0.5
v 0.5 0.0625 -0.5
v -0.5 0.0625 -0.5
v -0.5 0.0625 -0.5
v 0.5 0.0625 -0.5
v 0.4375 0.125 -0.4375
v -0.5 0.125 -0.4375
v -0.5 -0.125 -0.4375
v 0.4375 -0.125 -0.4375
v 0.5 -0.0625 -0.5
v -0.5 -0.0625 -0.5
v 0.5 0.0625 0.5
v 0.5 0.0625 -0.5
v 0.5 -0.0625 -0.5
v 0.5 -0.0625 0.5
v 0.5 -0.0625 0.5
v 0.5 -0.0625 -0.5
v 0.4375 -0.125 -0.4375
v 0.4375 -0.125 0.5
v 0.4375 0.125 0.5
v 0.4375 0.125 -0.4375
v 0.5 0.0625 -0.5
v 0.5 0.0625 0.5
vt 0.51973784 0.454216331
vt 0.51973784 0.176405504
vt 0.741986513 0.17640537
vt 0.741986513 0.454216331
vt 0.0398271531 0.50491792
vt 0.0399104357 0.0107357949
vt 0.00902888179 0.0416157395
vt 0.0089545548 0.504923165
vt 0.076279521 0.504833281
vt 0.0762824416 0.0106487721
vt 0.138055563 0.0106477886
vt 0.138052583 0.504832268
vt 0.138051063 0.0106484741
vt 0.138053685 0.50483793
vt 0.0762799978 0.504838526
vt 0.0762773156 0.0106490105
vt 0.00911805034 0.504966736
vt 0.00904002786 0.0416046828
vt 0.0399094522 0.0107086301
vt 0.0399995744 0.50495255
vt 0.0398136675 0.504915059
vt 0.0399202704 0.0106845349
vt 0.00903308392 0.0415659994
vt 0.00893804431 0.504919112
vt 0.00911805034 0.504966915
vt 0.00904008746 0.0416048467
vt 0.0399095714 0.0107088536
vt 0.0399995744 0.504952729
vt 0.520387411 0.177217245
vt 0.520387411 0.454216331
vt 0.741986513 0.454216331
vt 0.741986513 0.177217245
vt 0.0399205387 0.0106845647
vt 0.0399906933 0.504930258
vt 0.00911363959 0.50494355
vt 0.00905075669 0.0415796787
vt 0.0762786865 0.504829347
vt 0.0762819648 0.0106452554
vt 0.138054997 0.0106454641
vt 0.138051689 0.504829526
vt 0.138050497 0.0106454343
vt 0.13805306 0.504835725
vt 0.0762792826 0.504836798
vt 0.0762767196 0.010646522
vt 0.00902682543 0.0416104645
vt 0.00894808769 0.504971683
vt 0.0398288071 0.50496757
vt 0.0399196148 0.010726437
vt 0.0398944914 0.0107534677
vt 0.0400002301 0.504980385
vt 0.0091240108 0.504995167
vt 0.00902983546 0.0416498631
vt 0.009026438 0.0416105986
vt 0.00894847512 0.504972041
vt 0.0398292243 0.504967868
vt 0.0399192572 0.0107266754
vt 0.956966043 0.046283491
vt 0.956966043 0.0480612144
vt 0.96052146 0.0480612144
vt 0.96052146 0.046283491
vt 0.957473993 0.046283491
vt 0.957473993 0.0480612144
vt 0.961029291 0.0480611995
vt 0.961029291 0.0462834761
vt 0.289255023 0.1099087
vt 0.289240122 0.44034791
vt 0.333015084 0.440348238
vt 0.333029926 0.109909296
vt 0.865980089 0.415173382
vt 0.866010725 0.116751604
vt 0.892384231 0.15405941
vt 0.892355025 0.43382445
vt 0.924484968 0.471101493
vt 0.924487233 0.191308975
vt 0.950864434 0.191289127
vt 0.950862169 0.489757806
vt 0.333017349 0.440325439
vt 0.333031476 0.109939262
vt 0.289255798 0.109939486
vt 0.289241612 0.440325379
vt 0.950884104 0.116714858
vt 0.950853467 0.415160149
vt 0.924476624 0.415162772
vt 0.924505353 0.135364786
vt 0.892368734 0.172698513
vt 0.892365873 0.452480435
vt 0.865988791 0.489779204
vt 0.865991294 0.191349268
vn -0 0 -1
vn -0 0 -1
vn -0 0 -1
vn -0 0 -1
vn -0 1 0
vn -0 1 0
vn -0 1 0
vn -0 1 0
vn -0 0 -1
vn -0 0 -1
vn -0 0 -1
vn -0 0 -1
vn -0 0 -1
vn -0 0 -1
vn -0 0 -1
vn -0 0 -1
vn -0 -1 0
vn -0 -1 0
vn -0 -1 0
vn -0 -1 0
vn -0 1 0
vn -0 1 0
vn -0 1 0
vn -0 1 0
vn -0 -1 0
vn -0 -1 0
vn -0 -1 0
vn -0 -1 0
vn 1 0 0
vn 1 0 0
vn 1 0 0
vn 1 0 0
vn -0 1 0
vn -0 1 0
vn -0 1 0
vn -0 1 0
vn 1 0 0
vn 1 0 0
vn 1 0 0
vn 1 0 0
vn 1 0 0
vn 1 0 0
vn 1 0 0
vn 1 0 0
vn -0 -1 0
vn -0 -1 0
vn -0 -1 0
vn -0 -1 0
vn -0 1 0
vn -0 1 0
vn -0 1 0
vn -0 1 0
vn -0 -1 0
vn -0 -1 0
vn -0 -1 0
vn -0 -1 0
vn -0 -1 0
vn -0 -1 0
vn -0 -1 0
vn -0 -1 0
vn -0 1 0
vn -0 1 0
vn -0 1 0
vn -0 1 0
vn -0 0 -1
vn -0 0 -1
vn -0 0 -1
vn -0 0 -1
vn -0 0.707106769 -0.707106769
vn -0 0.707106769 -0.707106769
vn -0 0.707106769 -0.707106769
vn -0 0.707106769 -0.707106769
vn -0 -0.707106769 -0.707106769
vn -0 -0.707106769 -0.707106769
vn -0 -0.707106769 -0.707106769
vn -0 -0.707106769 -0.707106769
vn 1 0 0
vn 1 0 0
vn 1 0 0
vn 1 0 0
vn 0.707106769 -0.707106769 0
vn 0.707106769 -0.707106769 0
vn 0.707106769 -0.707106769 0
vn 0.707106769 -0.707106769 0
vn 0.707106769 0.707106769 0
vn 0.707106769 0.707106769 0
vn 0.707106769 0.707106769 0
vn 0.707106769 0.707106769 0
g FloorCorner_0
f 3/3/3 2/2/2 1/1/1
f 4/4/4 3/3/3 1/1/1
f 7/7/7 6/6/6 5/5/5
f 8/8/8 7/7/7 5/5/5
f 11/11/11 10/10/10 9/9/9
f 12/12/12 11/11/11 9/9/9
f 15/15/15 14/14/14 13/13/13
f 16/16/16 15/15/15 13/13/13
f 19/19/19 18/18/18 17/17/17
f 20/20/20 19/19/19 17/17/17
f 23/23/23 22/22/22 21/21/21
f 24/24/24 23/23/23 21/21/21
f 27/27/27 26/26/26 25/25/25
f 28/28/28 27/27/27 25/25/25
f 31/31/31 30/30/30 29/29/29
f 32/32/32 31/31/31 29/29/29
f 35/35/35 34/34/34 33/33/33
f 36/36/36 35/35/35 33/33/33
f 39/39/39 38/38/38 37/37/37
f 40/40/40 39/39/39 37/37/37
f 43/43/43 42/42/42 41/41/41
f 44/44/44 43/43/43 41/41/41
f 47/47/47 46/46/46 45/45/45
f 48/48/48 47/47/47 45/45/45
f 51/51/51 50/50/50 49/49/49
f 52/52/52 51/51/51 49/49/49
f 55/55/55 54/54/54 53/53/53
f 56/56/56 55/55/55 53/53/53
f 59/59/59 58/58/58 57/57/57
f 60/60/60 59/59/59 57/57/57
f 63/63/63 62/62/62 61/61/61
f 64/64/64 63/63/63 61/61/61
f 67/67/67 66/66/66 65/65/65
f 68/68/68 67/67/67 65/65/65
f 71/71/71 70/70/70 69/69/69
f 72/72/72 71/71/71 69/69/69
f 75/75/75 74/74/74 73/73/73
f 76/76/76 75/75/75 73/73/73
f 79/79/79 78/78/78 77/77/77
f 80/80/80 79/79/79 77/77/77
f 83/83/83 82/82/82 81/81/81
f 84/84/84 83/83/83 81/81/81
f 87/87/87 86/86/86 85/85/85
f 88/88/88 87/87/87 85/85/85
