g X_Wall
v -0.225005642 0.5 0.28125
v -0.0625 0.5 0.28125
v -0.0625 -0.5 0.28125
v -0.225005642 -0.5 0.28125
v -0.225005642 -0.5 -0.281245947
v -0.0625 -0.5 -0.281245708
v -0.0625 0.5 -0.281245708
v -0.225005642 0.5 -0.281245947
v -0.28125 -0.5 0.225006104
v -0.28125 0.5 0.225006104
v -0.225005642 0.5 0.28125
v -0.225005642 -0.5 0.28125
v 0.225005642 -0.5 0.28125
v 0.225005642 0.5 0.28125
v 0.28125 0.5 0.225006104
v 0.28125 -0.5 0.225006104
v -0.28125 0.5 -0.22500205
v -0.28125 -0.5 -0.22500205
v -0.225005642 -0.5 -0.281245947
v -0.225005642 0.5 -0.281245947
v 0.225005642 0.5 -0.281245947
v 0.225005642 -0.5 -0.281245947
v 0.28125 -0.5 -0.225001901
v 0.28125 0.5 -0.22500205
v 0.5 0.5 -0.0625
v 0.5 -0.5 -0.0625
v 0.5 -0.5 0.0625
v 0.5 0.5 0.0625
v -0.499999762 0.5 0.0625
v -0.499999762 -0.5 0.0625
v -0.499999762 -0.5 -0.0625
v -0.499999762 0.5 -0.0625
v 0.28125 0.5 0.225006104
v 0.28125 0.5 0.0625
v 0.28125 -0.5 0.0625
v 0.28125 -0.5 0.225006104
v -0.28125 0.5 -0.22500205
v -0.28125 0.5 -0.0625
v -0.28125 -0.5 -0.0625
v -0.28125 -0.5 -0.22500205
v -0.0625 0.5 0.28125
v -0.225005642 0.5 0.28125
v -0.28125 0.5 0.225006104
v -0.28125 0.5 0.0625
v -0 0.5 0
v 0.0625 0.5 0.28125
v -0.28125 0.5 -0.0625
v -0.0625 0.5 0.5
v 0.0625 0.5 0.5
v -0.499999762 0.5 -0.0625
v -0.499999762 0.5 0.0625
v -0.28125 0.5 -0.22500205
v -0.0625 0.5 -0.281245708
v -0.225005642 0.5 -0.281245947
v 0.0625 0.5 -0.281245708
v 0.28125 0.5 -0.22500205
v 0.225005642 0.5 -0.281245947
v 0.28125 0.5 -0.0625
v 0.28125 0.5 0.0625
v 0.28125 0.5 0.225006104
v 0.225005642 0.5 0.28125
v -0.0625 -0.5 -0.281245708
v -0.225005642 -0.5 -0.281245947
v -0.28125 -0.5 -0.22500205
v -0 -0.5 0
v 0.0625 -0.5 -0.281245708
v -0.28125 -0.5 -0.0625
v 0.28125 -0.5 -0.225001901
v 0.225005642 -0.5 -0.281245947
v 0.28125 -0.5 -0.0625
v 0.28125 -0.5 0.0625
v 0.0625 -0.5 0.28125
v 0.28125 -0.5 0.225006104
v 0.225005642 -0.5 0.28125
v -0.0625 -0.5 0.28125
v 0.0625 -0.5 0.5
v -0.0625 -0.5 0.5
v -0.28125 -0.5 0.0625
v -0.499999762 -0.5 0.0625
v -0.499999762 -0.5 -0.0625
v -0.28125 -0.5 0.225006104
v -0.225005642 -0.5 0.28125
v 0.28125 0.5 -0.0625
v 0.28125 0.5 -0.22500205
v 0.28125 -0.5 -0.225001901
v 0.28125 -0.5 -0.0625
v -0.28125 0.5 0.0625
v -0.28125 0.5 0.225006104
v -0.28125 -0.5 0.225006104
v -0.28125 -0.5 0.0625
v -0.28125 0.5 -0.0625
v -0.499999762 0.5 -0.0625
v -0.499999762 -0.5 -0.0625
v -0.28125 -0.5 -0.0625
v -0.28125 -0.5 0.0625
v -0.499999762 -0.5 0.0625
v -0.499999762 0.5 0.0625
v -0.28125 0.5 0.0625
v 0.28125 0.5 -0.0625
v 0.5 0.5 -0.0625
v 0.5 0.5 0.0625
v 0.28125 0.5 0.0625
v 0.28125 0.5 0.0625
v 0.5 0.5 0.0625
v 0.5 -0.5 0.0625
v 0.28125 -0.5 0.0625
v 0.28125 -0.5 0.0625
v 0.5 -0.5 0.0625
v 0.5 -0.5 -0.0625
v 0.28125 -0.5 -0.0625
v 0.28125 -0.5 -0.0625
v 0.5 -0.5 -0.0625
v 0.5 0.5 -0.0625
v 0.28125 0.5 -0.0625
v 0.0625 0.5 0.28125
v 0.225005642 0.5 0.28125
v 0.225005642 -0.5 0.28125
v 0.0625 -0.5 0.28125
v 0.0625 -0.5 -0.281245708
v 0.225005642 -0.5 -0.281245947
v 0.225005642 0.5 -0.281245947
v 0.0625 0.5 -0.281245708
v -0.0625 0.5 0.5
v 0.0625 0.5 0.5
v 0.0625 -0.5 0.5
v -0.0625 -0.5 0.5
v -0.0625 -0.5 -0.5
v 0.0625 -0.5 -0.5
v 0.0625 0.5 -0.5
v -0.0625 0.5 -0.5
v -0.0625 0.5 0.28125
v -0.0625 0.5 0.5
v -0.0625 -0.5 0.5
v -0.0625 -0.5 0.28125
v 0.0625 -0.5 0.28125
v 0.0625 -0.5 0.5
v 0.0625 0.5 0.5
v 0.0625 0.5 0.28125
v -0.0625 -0.5 -0.281245708
v -0.0625 -0.5 -0.5
v -0.0625 0.5 -0.5
v -0.0625 0.5 -0.281245708
v -0.0625 0.5 -0.281245708
v -0.0625 0.5 -0.5
v 0.0625 0.5 -0.5
v 0.0625 0.5 -0.281245708
v 0.0625 0.5 -0.281245708
v 0.0625 0.5 -0.5
v 0.0625 -0.5 -0.5
v 0.0625 -0.5 -0.281245708
v 0.0625 -0.5 -0.281245708
v 0.0625 -0.5 -0.5
v -0.0625 -0.5 -0.5
v -0.0625 -0.5 -0.281245708
vt 0.923625886 0.508874714
vt 0.988607585 0.508874953
vt 0.988607585 0.108992875
vt 0.923625886 0.108992994
vt 0.891818106 0.108992994
vt 0.826834857 0.108993232
vt 0.826834977 0.508875191
vt 0.891818345 0.508874953
vt 0.891818702 0.108992994
vt 0.891818702 0.508874714
vt 0.923625886 0.508874714
vt 0.923625886 0.108992994
vt 0.891824782 0.108992875
vt 0.891824663 0.508874953
vt 0.923631847 0.508875191
vt 0.923631847 0.108992875
vt 0.923624992 0.508874953
vt 0.923625231 0.108992994
vt 0.891818106 0.108992994
vt 0.891818345 0.508874953
vt 0.923631489 0.508875191
vt 0.923631012 0.108993232
vt 0.891823947 0.108993232
vt 0.891823947 0.508874953
vt 0.589335799 0.520366848
vt 0.989973962 0.520366907
vt 0.989973962 0.570446551
vt 0.589335799 0.57044661
vt 0.589335799 0.520368516
vt 0.989973962 0.520368516
vt 0.989973962 0.57044816
vt 0.589335799 0.570448279
vt 0.923631847 0.508875191
vt 0.988615453 0.508875191
vt 0.988615453 0.108992875
vt 0.923631847 0.108992875
vt 0.923624992 0.508874953
vt 0.988606751 0.508874953
vt 0.988606513 0.108992994
vt 0.923625231 0.108992994
vt 0.851591468 0.762293577
vt 0.786139727 0.762293577
vt 0.763486385 0.78494668
vt 0.763486385 0.850398481
vt 0.876764536 0.875571489
vt 0.901936889 0.762293577
vt 0.763486385 0.900744081
vt 0.851591468 0.674188554
vt 0.901936889 0.674188554
vt 0.67538166 0.900744081
vt 0.67538166 0.850398481
vt 0.763486385 0.96619451
vt 0.851591468 0.988847435
vt 0.786139727 0.988847435
vt 0.901936889 0.988847435
vt 0.990041733 0.96619451
vt 0.967388868 0.988847435
vt 0.990041733 0.900744081
vt 0.990041733 0.850398481
vt 0.990041733 0.78494668
vt 0.967388868 0.762293577
vt 0.851591468 0.988847435
vt 0.786139727 0.988847435
vt 0.763486385 0.96619451
vt 0.876764536 0.875571489
vt 0.901936889 0.988847435
vt 0.763486385 0.900744081
vt 0.990041733 0.966194272
vt 0.967388868 0.988847435
vt 0.990041733 0.900744081
vt 0.990041733 0.850398481
vt 0.901936889 0.762293577
vt 0.990041733 0.78494668
vt 0.967388868 0.762293577
vt 0.851591468 0.762293577
vt 0.901936889 0.674188554
vt 0.851591468 0.674188554
vt 0.763486385 0.850398481
vt 0.67538166 0.850398481
vt 0.67538166 0.900744081
vt 0.763486385 0.78494668
vt 0.786139727 0.762293577
vt 0.826842368 0.508874953
vt 0.891823947 0.508874953
vt 0.891823947 0.108993232
vt 0.826842487 0.108993232
vt 0.826834023 0.508874714
vt 0.891818702 0.508874714
vt 0.891818702 0.108992994
vt 0.826834023 0.108992994
vt 0.831221461 0.031704545
vt 0.82945925 0.031704545
vt 0.82945925 0.039760083
vt 0.831221461 0.039760083
vt 0.833099842 0.031704545
vt 0.831337631 0.031704545
vt 0.831337631 0.039760083
vt 0.833099842 0.039760083
vt 0.901937306 0.762473822
vt 0.901937425 0.674369276
vt 0.851592064 0.674369276
vt 0.851591766 0.762473762
vt 0.833213151 0.039760083
vt 0.834975302 0.039760083
vt 0.834975302 0.031704545
vt 0.833213151 0.031704545
vt 0.851591766 0.762473762
vt 0.851592064 0.674369276
vt 0.901937425 0.674369276
vt 0.901937306 0.762473822
vt 0.83508867 0.039760083
vt 0.836850762 0.039760083
vt 0.836850762 0.031704545
vt 0.83508867 0.031704545
vt 0.826841414 0.508874953
vt 0.891824663 0.508874953
vt 0.891824782 0.108992875
vt 0.826841772 0.108992994
vt 0.988613963 0.108992994
vt 0.923631012 0.108993232
vt 0.923631489 0.508875191
vt 0.9886145 0.508875191
vt 0.589335799 0.570396781
vt 0.589335799 0.52031678
vt 0.989973843 0.52031678
vt 0.989973962 0.570396721
vt 0.989973962 0.570551813
vt 0.989973962 0.52047199
vt 0.58933562 0.520471871
vt 0.58933568 0.570551753
vt 0.83696413 0.039760083
vt 0.838726282 0.039760083
vt 0.838726282 0.031704545
vt 0.83696413 0.031704545
vt 0.840601683 0.031704545
vt 0.838839531 0.031704545
vt 0.838839531 0.039760083
vt 0.840601683 0.039760083
vt 0.842477262 0.031704545
vt 0.840715051 0.031704545
vt 0.840715051 0.039760083
vt 0.842477262 0.039760083
vt 0.901937366 0.762474298
vt 0.901937366 0.674367726
vt 0.851591587 0.674367726
vt 0.851591825 0.762474298
vt 0.842442811 0.0478746891
vt 0.844205022 0.0478746891
vt 0.844205022 0.039819181
vt 0.842442811 0.039819181
vt 0.851591825 0.762474298
vt 0.851591587 0.674367726
vt 0.901937366 0.674367726
vt 0.901937366 0.762474298
vn -0 0 1
vn -0 0 1
vn -0 0 1
vn -0 0 1
vn 1.50235178E-06 0 -1
vn 1.50235178E-06 0 -1
vn 1.50235178E-06 0 -1
vn 1.50235178E-06 0 -1
vn -0.707104146 0 0.707109332
vn -0.707104146 0 0.707109332
vn -0.707104146 0 0.707109332
vn -0.707104146 0 0.707109332
vn 0.707104146 0 0.707109332
vn 0.707104146 0 0.707109332
vn 0.707104146 0 0.707109332
vn 0.707104146 0 0.707109332
vn -0.707103848 0 -0.70710969
vn -0.707103848 0 -0.70710969
vn -0.707103848 0 -0.70710969
vn -0.707103848 0 -0.70710969
vn 0.707104146 0 -0.707109332
vn 0.707104146 0 -0.707109332
vn 0.707104146 0 -0.707109332
vn 0.707104206 0 -0.707109332
vn 1 0 0
vn 1 0 0
vn 1 0 0
vn 1 0 0
vn -1 0 0
vn -1 0 0
vn -1 0 0
vn -1 0 0
vn 1 0 0
vn 1 0 0
vn 1 0 0
vn 1 0 0
vn -1 0 0
vn -1 0 0
vn -1 0 0
vn -1 0 0
vn -0 1 0
vn -0 1 0
vn -0 1 0
vn -0 1 0
vn -0 1 0
vn -0 1 0
vn -0 1 0
vn -0 1 0
vn -0 1 0
vn -0 1 0
vn -0 1 0
vn -0 1 0
vn -0 1 0
vn -0 1 0
vn -0 1 0
vn -0 1 0
vn -0 1 0
vn -0 1 0
vn -0 1 0
vn -0 1 0
vn -0 1 0
vn -0 -1 0
vn -0 -1 0
vn -0 -1 0
vn -0 -1 0
vn -0 -1 0
vn -0 -1 0
vn -0 -1 0
vn -0 -1 0
vn -0 -1 0
vn -0 -1 0
vn -0 -1 0
vn -0 -1 0
vn -0 -1 0
vn -0 -1 0
vn -0 -1 0
vn -0 -1 0
vn -0 -1 0
vn -0 -1 0
vn -0 -1 0
vn -0 -1 0
vn -0 -1 0
vn 1 0 0
vn 1 0 0
vn 1 0 0
vn 1 0 0
vn -1 0 0
vn -1 0 0
vn -1 0 0
vn -1 0 0
vn -0 0 -1
vn -0 0 -1
vn -0 0 -1
vn -0 0 -1
vn -0 0 1
vn -0 0 1
vn -0 0 1
vn -0 0 1
vn -0 1 0
vn -0 1 0
vn -0 1 0
vn -0 1 0
vn -0 0 1
vn -0 0 1
vn -0 0 1
vn -0 0 1
vn -0 -1 0
vn -0 -1 0
vn -0 -1 0
vn -0 -1 0
vn -0 0 -1
vn -0 0 -1
vn -0 0 -1
vn -0 0 -1
vn -0 0 1
vn -0 0 1
vn -0 0 1
vn -0 0 1
vn -1.50235178E-06 0 -1
vn -1.50235178E-06 0 -1
vn -1.50235178E-06 0 -1
vn -1.50235178E-06 0 -1
vn -0 0 1
vn -0 0 1
vn -0 0 1
vn -0 0 1
vn -0 0 -1
vn -0 0 -1
vn -0 0 -1
vn -0 0 -1
vn -1 0 0
vn -1 0 0
vn -1 0 0
vn -1 0 0
vn 1 0 0
vn 1 0 0
vn 1 0 0
vn 1 0 0
vn -1 0 0
vn -1 0 0
vn -1 0 0
vn -1 0 0
vn -0 1 0
vn -0 1 0
vn -0 1 0
vn -0 1 0
vn 1 0 0
vn 1 0 0
vn 1 0 0
vn 1 0 0
vn -0 -1 0
vn -0 -1 0
vn -0 -1 0
vn -0 -1 0
g X_Wall_0
f 3/3/3 2/2/2 1/1/1
f 4/4/4 3/3/3 1/1/1
f 7/7/7 6/6/6 5/5/5
f 8/8/8 7/7/7 5/5/5
f 11/11/11 10/10/10 9/9/9
f 12/12/12 11/11/11 9/9/9
f 15/15/15 14/14/14 13/13/13
f 16/16/16 15/15/15 13/13/13
f 19/19/19 18/18/18 17/17/17
f 20/20/20 19/19/19 17/17/17
f 23/23/23 22/22/22 21/21/21
f 24/24/24 23/23/23 21/21/21
f 27/27/27 26/26/26 25/25/25
f 28/28/28 27/27/27 25/25/25
f 31/31/31 30/30/30 29/29/29
f 32/32/32 31/31/31 29/29/29
f 35/35/35 34/34/34 33/33/33
f 36/36/36 35/35/35 33/33/33
f 39/39/39 38/38/38 37/37/37
f 40/40/40 39/39/39 37/37/37
f 43/43/43 42/42/42 41/41/41
f 44/44/44 43/43/43 41/41/41
f 41/41/41 45/45/45 44/44/44
f 41/41/41 46/46/46 45/45/45
f 47/47/47 44/44/44 45/45/45
f 41/41/41 48/48/48 46/46/46
f 48/48/48 49/49/49 46/46/46
f 47/47/47 50/50/50 44/44/44
f 50/50/50 51/51/51 44/44/44
f 52/52/52 47/47/47 45/45/45
f 52/52/52 45/45/45 53/53/53
f 53/53/53 54/54/54 52/52/52
f 45/45/45 55/55/55 53/53/53
f 55/55/55 45/45/45 56/56/56
f 56/56/56 57/57/57 55/55/55
f 45/45/45 58/58/58 56/56/56
f 58/58/58 45/45/45 59/59/59
f 59/59/59 45/45/45 46/46/46
f 46/46/46 60/60/60 59/59/59
f 46/46/46 61/61/61 60/60/60
f 64/64/64 63/63/63 62/62/62
f 62/62/62 65/65/65 64/64/64
f 62/62/62 66/66/66 65/65/65
f 65/65/65 67/67/67 64/64/64
f 68/68/68 65/65/65 66/66/66
f 66/66/66 69/69/69 68/68/68
f 68/68/68 70/70/70 65/65/65
f 71/71/71 65/65/65 70/70/70
f 72/72/72 65/65/65 71/71/71
f 71/71/71 73/73/73 72/72/72
f 73/73/73 74/74/74 72/72/72
f 65/65/65 72/72/72 75/75/75
f 72/72/72 76/76/76 75/75/75
f 76/76/76 77/77/77 75/75/75
f 78/78/78 67/67/67 65/65/65
f 78/78/78 65/65/65 75/75/75
f 78/78/78 79/79/79 67/67/67
f 79/79/79 80/80/80 67/67/67
f 75/75/75 81/81/81 78/78/78
f 75/75/75 82/82/82 81/81/81
f 85/85/85 84/84/84 83/83/83
f 86/86/86 85/85/85 83/83/83
f 89/89/89 88/88/88 87/87/87
f 90/90/90 89/89/89 87/87/87
f 93/93/93 92/92/92 91/91/91
f 94/94/94 93/93/93 91/91/91
f 97/97/97 96/96/96 95/95/95
f 98/98/98 97/97/97 95/95/95
f 101/101/101 100/100/100 99/99/99
f 102/102/102 101/101/101 99/99/99
f 105/105/105 104/104/104 103/103/103
f 106/106/106 105/105/105 103/103/103
f 109/109/109 108/108/108 107/107/107
f 110/110/110 109/109/109 107/107/107
f 113/113/113 112/112/112 111/111/111
f 114/114/114 113/113/113 111/111/111
f 117/117/117 116/116/116 115/115/115
f 118/118/118 117/117/117 115/115/115
f 121/121/121 120/120/120 119/119/119
f 122/122/122 121/121/121 119/119/119
f 125/125/125 124/124/124 123/123/123
f 126/126/126 125/125/125 123/123/123
f 129/129/129 128/128/128 127/127/127
f 130/130/130 129/129/129 127/127/127
f 133/133/133 132/132/132 131/131/131
f 134/134/134 133/133/133 131/131/131
f 137/137/137 136/136/136 135/135/135
f 138/138/138 137/137/137 135/135/135
f 141/141/141 140/140/140 139/139/139
f 142/142/142 141/141/141 139/139/139
f 145/145/145 144/144/144 143/143/143
f 146/146/146 145/145/145 143/143/143
f 149/149/149 148/148/148 147/147/147
f 150/150/150 149/149/149 147/147/147
f 153/153/153 152/152/152 151/151/151
f 154/154/154 153/153/153 151/151/151
