g Slope_CorrugatedSteel_Point_Simple_90
v -0.500001 0.0727741 4.59487e-07
v -0.5 0.450596 -0.377822
v -0.5 0.450596 0.377822
v 0.5 0.0727734 4.59487e-07
v 0.5 0.450595 0.377822
v 0.5 0.450595 -0.377822
v 0.5 1.35103e-07 4.76837e-07
v 0.5 0.5 -0.5
v -0.5 0.500001 -0.5
v -0.500001 3.41735e-07 4.76837e-07
v 0.5 0.5 0.5
v 0.5 1.35103e-07 4.76837e-07
v -0.500001 3.41735e-07 4.76837e-07
v -0.5 0.5 0.5
v -0.41365 0.5 0.41365
v -0.41365 0.5 -0.41365
v 0.41365 0.5 -0.41365
v 0.41365 0.5 0.41365
v 0.41365 0.5 0.41365
v 0.5 0.5 0.5
v -0.5 0.5 0.5
v -0.41365 0.5 0.41365
v 0.41365 0.5 -0.41365
v 0.5 0.5 -0.5
v 0.5 0.5 0.5
v 0.41365 0.5 0.41365
v -0.41365 0.5 0.41365
v -0.5 0.5 0.5
v -0.5 0.500001 -0.5
v -0.41365 0.5 -0.41365
v -0.41365 0.5 -0.41365
v -0.5 0.500001 -0.5
v 0.5 0.5 -0.5
v 0.41365 0.5 -0.41365
v -0.500001 3.41735e-07 4.76837e-07
v -0.500001 0.0727741 4.59487e-07
v -0.5 0.450596 0.377822
v -0.5 0.5 0.5
v -0.5 0.450596 0.377822
v -0.5 0.450596 -0.377822
v -0.5 0.500001 -0.5
v -0.5 0.5 0.5
v -0.500001 0.0727741 4.59487e-07
v -0.500001 3.41735e-07 4.76837e-07
v -0.5 0.500001 -0.5
v -0.5 0.450596 -0.377822
v 0.5 1.35103e-07 4.76837e-07
v 0.5 0.5 0.5
v 0.5 0.450595 0.377822
v 0.5 0.0727734 4.59487e-07
v 0.5 0.450595 0.377822
v 0.5 0.5 0.5
v 0.5 0.5 -0.5
v 0.5 0.450595 -0.377822
v 0.5 0.0727734 4.59487e-07
v 0.5 0.450595 -0.377822
v 0.5 0.5 -0.5
v 0.5 1.35103e-07 4.76837e-07
vt 0.627303421 0.219456404
vt 0.692705572 0.284858465
vt 0.561901271 0.284858435
vt 0.627303421 0.219456404
vt 0.561901271 0.284858435
vt 0.692705572 0.284858465
vt 0.916457474 0.0516375899
vt 0.911806881 0.0869643092
vt 0.98246032 0.0869643092
vt 0.987110913 0.0516375899
vt 0.911806881 0.0163108706
vt 0.916457474 0.0516375899
vt 0.987110913 0.0516375899
vt 0.98246032 0.0163108706
vt 0.713816762 0.486022353
vt 0.713816762 0.293410599
vt 0.539917231 0.293410599
vt 0.539917231 0.486022353
vt 0.0462974086 0.445492446
vt 0.0757484436 0.46257472
vt 0.0757483542 0.0689415187
vt 0.0462973118 0.0860239714
vt 0.0462972149 0.107956067
vt 0.0765564367 0.0929885507
vt 0.0765564367 0.437886924
vt 0.0462974086 0.422919273
vt 0.0462975055 0.107956216
vt 0.0765563399 0.0929885507
vt 0.0765563399 0.437886924
vt 0.0462974086 0.422919452
vt 0.0462974086 0.445492059
vt 0.0757484436 0.46257472
vt 0.0757483542 0.0689413249
vt 0.0462973118 0.0860239714
vt 0.0687530562 0.145089284
vt 0.0509859249 0.162856415
vt 0.0509858802 0.347341299
vt 0.0687530562 0.389231861
vt 0.0687530562 0.398830712
vt 0.0687530339 0.137929544
vt 0.05169506 0.0957453698
vt 0.0516952202 0.441015154
vt 0.0509858802 0.371464729
vt 0.0687530562 0.389231861
vt 0.0687529221 0.145089149
vt 0.0509860143 0.186979681
vt 0.0687530562 0.145089284
vt 0.0687530562 0.389231861
vt 0.0509858802 0.347341299
vt 0.0509859249 0.162856415
vt 0.0687530562 0.398830712
vt 0.0516952202 0.441015154
vt 0.05169506 0.0957453698
vt 0.0687530339 0.137929544
vt 0.0509858802 0.371464729
vt 0.0509860143 0.186979681
vt 0.0687529221 0.145089149
vt 0.0687530562 0.389231861
vn -1 2.9908e-07 9.97473e-07
vn -1 2.4386e-06 0
vn -1 1.57038e-06 1.2136e-06
vn 1 -7.99156e-07 8.26761e-07
vn 1 -2.76156e-06 8.70574e-07
vn 1 -1.89334e-06 1.32973e-07
vn -3.58248e-07 -0.707107 -0.707107
vn -3.58248e-07 -0.707107 -0.707107
vn -3.58248e-07 -0.707107 -0.707107
vn -3.58248e-07 -0.707107 -0.707107
vn -1.68587e-07 -0.707107 0.707107
vn -1.68587e-07 -0.707107 0.707107
vn -1.68587e-07 -0.707107 0.707107
vn -1.68587e-07 -0.707107 0.707107
vn 0 1 3.24213e-07
vn 0 1 3.24213e-07
vn 0 1 3.24213e-07
vn 0 1 3.24213e-07
vn 0 1 1.63095e-07
vn 0 1 1.63094e-07
vn 1.88876e-06 1 3.58809e-07
vn 1.88876e-06 1 3.58809e-07
vn 1.88876e-07 1 2.57903e-06
vn 1.88876e-07 1 2.57903e-06
vn 0 1 1.63094e-07
vn 0 1 1.63095e-07
vn 1.88876e-06 1 3.58809e-07
vn 1.88876e-06 1 3.58809e-07
vn 2.07764e-06 1 2.77474e-06
vn 2.07763e-06 1 2.77474e-06
vn 2.07763e-06 1 2.77474e-06
vn 2.07764e-06 1 2.77474e-06
vn 1.88876e-07 1 2.57903e-06
vn 1.88876e-07 1 2.57903e-06
vn -1 0 1.39956e-06
vn -1 2.9908e-07 9.97473e-07
vn -1 1.57038e-06 1.2136e-06
vn -1 1.57327e-06 1.45064e-06
vn -1 1.57038e-06 1.2136e-06
vn -1 2.4386e-06 0
vn -1 2.58998e-06 0
vn -1 1.57327e-06 1.45064e-06
vn -1 2.9908e-07 9.97473e-07
vn -1 0 1.39956e-06
vn -1 2.58998e-06 0
vn -1 2.4386e-06 0
vn 1 -1.2233e-06 1.13714e-06
vn 1 -3.19908e-06 1.03367e-06
vn 1 -2.76156e-06 8.70574e-07
vn 1 -7.99156e-07 8.26761e-07
vn 1 -2.76156e-06 8.70574e-07
vn 1 -3.19908e-06 1.03367e-06
vn 1 -2.18241e-06 1.69933e-07
vn 1 -1.89334e-06 1.32973e-07
vn 1 -7.99156e-07 8.26761e-07
vn 1 -1.89334e-06 1.32973e-07
vn 1 -2.18241e-06 1.69933e-07
vn 1 -1.2233e-06 1.13714e-06
g Slope_CorrugatedSteel_Point_Simple_90_0
f 3/3/3 2/2/2 1/1/1
f 6/6/6 5/5/5 4/4/4
f 9/9/9 8/8/8 7/7/7
f 10/10/10 9/9/9 7/7/7
f 13/13/13 12/12/12 11/11/11
f 14/14/14 13/13/13 11/11/11
f 17/17/17 16/16/16 15/15/15
f 18/18/18 17/17/17 15/15/15
f 21/21/21 20/20/20 19/19/19
f 22/22/22 21/21/21 19/19/19
f 25/25/25 24/24/24 23/23/23
f 26/26/26 25/25/25 23/23/23
f 29/29/29 28/28/28 27/27/27
f 30/30/30 29/29/29 27/27/27
f 33/33/33 32/32/32 31/31/31
f 34/34/34 33/33/33 31/31/31
f 37/37/37 36/36/36 35/35/35
f 38/38/38 37/37/37 35/35/35
f 41/41/41 40/40/40 39/39/39
f 42/42/42 41/41/41 39/39/39
f 45/45/45 44/44/44 43/43/43
f 46/46/46 45/45/45 43/43/43
f 49/49/49 48/48/48 47/47/47
f 50/50/50 49/49/49 47/47/47
f 53/53/53 52/52/52 51/51/51
f 54/54/54 53/53/53 51/51/51
f 57/57/57 56/56/56 55/55/55
f 58/58/58 57/57/57 55/55/55
