g FloorSolo
v -0.4375 -0.375 -0.4375
v 0.4375 -0.375 -0.4375
v 0.4375 0.375 -0.4375
v -0.4375 0.375 -0.4375
v -0.5 -0.375 -0.5
v 0.5 -0.375 -0.5
v 0.4375 -0.375 -0.4375
v -0.4375 -0.375 -0.4375
v -0.5 -0.5 -0.5
v 0.5 -0.5 -0.5
v 0.5 -0.375 -0.5
v -0.5 -0.375 -0.5
v -0.5 0.375 -0.5
v 0.5 0.375 -0.5
v 0.5 0.5 -0.5
v -0.5 0.5 -0.5
v -0.4375 -0.5 -0.4375
v 0.4375 -0.5 -0.4375
v 0.5 -0.5 -0.5
v -0.5 -0.5 -0.5
v -0.5 0.5 -0.5
v 0.5 0.5 -0.5
v 0.4375 0.5 -0.4375
v -0.4375 0.5 -0.4375
v -0.4375 0.375 -0.4375
v 0.4375 0.375 -0.4375
v 0.5 0.375 -0.5
v -0.5 0.375 -0.5
v -0.4375 -0.375 0.4375
v -0.4375 -0.375 -0.4375
v -0.4375 0.375 -0.4375
v -0.4375 0.375 0.4375
v -0.5 -0.375 0.5
v -0.5 -0.375 -0.5
v -0.4375 -0.375 -0.4375
v -0.4375 -0.375 0.4375
v -0.5 -0.5 0.5
v -0.5 -0.5 -0.5
v -0.5 -0.375 -0.5
v -0.5 -0.375 0.5
v -0.5 0.375 0.5
v -0.5 0.375 -0.5
v -0.5 0.5 -0.5
v -0.5 0.5 0.5
v -0.4375 -0.5 0.4375
v -0.4375 -0.5 -0.4375
v -0.5 -0.5 -0.5
v -0.5 -0.5 0.5
v -0.5 0.5 0.5
v -0.5 0.5 -0.5
v -0.4375 0.5 -0.4375
v -0.4375 0.5 0.4375
v -0.4375 0.375 0.4375
v -0.4375 0.375 -0.4375
v -0.5 0.375 -0.5
v -0.5 0.375 0.5
v 0.4375 -0.375 0.4375
v -0.4375 -0.375 0.4375
v -0.4375 0.375 0.4375
v 0.4375 0.375 0.4375
v 0.5 -0.375 0.5
v -0.5 -0.375 0.5
v -0.4375 -0.375 0.4375
v 0.4375 -0.375 0.4375
v 0.5 -0.5 0.5
v -0.5 -0.5 0.5
v -0.5 -0.375 0.5
v 0.5 -0.375 0.5
v 0.5 0.375 0.5
v -0.5 0.375 0.5
v -0.5 0.5 0.5
v 0.5 0.5 0.5
v 0.4375 -0.5 0.4375
v -0.4375 -0.5 0.4375
v -0.5 -0.5 0.5
v 0.5 -0.5 0.5
v 0.5 0.5 0.5
v -0.5 0.5 0.5
v -0.4375 0.5 0.4375
v 0.4375 0.5 0.4375
v 0.4375 0.375 0.4375
v -0.4375 0.375 0.4375
v -0.5 0.375 0.5
v 0.5 0.375 0.5
v 0.4375 -0.375 -0.4375
v 0.4375 -0.375 0.4375
v 0.4375 0.375 0.4375
v 0.4375 0.375 -0.4375
v 0.5 -0.375 -0.5
v 0.5 -0.375 0.5
v 0.4375 -0.375 0.4375
v 0.4375 -0.375 -0.4375
v 0.5 -0.5 -0.5
v 0.5 -0.5 0.5
v 0.5 -0.375 0.5
v 0.5 -0.375 -0.5
v 0.5 0.375 -0.5
v 0.5 0.375 0.5
v 0.5 0.5 0.5
v 0.5 0.5 -0.5
v 0.4375 -0.5 -0.4375
v 0.4375 -0.5 0.4375
v 0.5 -0.5 0.5
v 0.5 -0.5 -0.5
v 0.5 0.5 -0.5
v 0.5 0.5 0.5
v 0.4375 0.5 0.4375
v 0.4375 0.5 -0.4375
v 0.4375 0.375 -0.4375
v 0.4375 0.375 0.4375
v 0.5 0.375 0.5
v 0.5 0.375 -0.5
v -0.4375 -0.5 0.4375
v 0.4375 -0.5 0.4375
v 0.4375 -0.5 -0.4375
v -0.4375 -0.5 -0.4375
v -0.4375 0.5 -0.4375
v 0.4375 0.5 -0.4375
v 0.4375 0.5 0.4375
v -0.4375 0.5 0.4375
v 0.5 -0.0625 0.5
v -0.5 -0.0625 0.5
v -0.5 0.0625 0.5
v 0.5 0.0625 0.5
v 0.5 0.0625 0.5
v -0.5 0.0625 0.5
v -0.4375 0.125 0.4375
v 0.4375 0.125 0.4375
v 0.4375 -0.125 0.4375
v -0.4375 -0.125 0.4375
v -0.5 -0.0625 0.5
v 0.5 -0.0625 0.5
v -0.5 0.0625 -0.5
v -0.5 0.0625 0.5
v -0.5 -0.0625 0.5
v -0.5 -0.0625 -0.5
v -0.5 -0.0625 -0.5
v -0.5 -0.0625 0.5
v -0.4375 -0.125 0.4375
v -0.4375 -0.125 -0.4375
v -0.4375 0.125 -0.4375
v -0.4375 0.125 0.4375
v -0.5 0.0625 0.5
v -0.5 0.0625 -0.5
v -0.5 -0.0625 -0.5
v 0.5 -0.0625 -0.5
v 0.5 0.0625 -0.5
v -0.5 0.0625 -0.5
v -0.5 0.0625 -0.5
v 0.5 0.0625 -0.5
v 0.4375 0.125 -0.4375
v -0.4375 0.125 -0.4375
v -0.4375 -0.125 -0.4375
v 0.4375 -0.125 -0.4375
v 0.5 -0.0625 -0.5
v -0.5 -0.0625 -0.5
v 0.5 0.0625 0.5
v 0.5 0.0625 -0.5
v 0.5 -0.0625 -0.5
v 0.5 -0.0625 0.5
v 0.5 -0.0625 0.5
v 0.5 -0.0625 -0.5
v 0.4375 -0.125 -0.4375
v 0.4375 -0.125 0.4375
v 0.4375 0.125 0.4375
v 0.4375 0.125 -0.4375
v 0.5 0.0625 -0.5
v 0.5 0.0625 0.5
vt 0.519737959 0.435695589
vt 0.51973784 0.176405504
vt 0.741986513 0.17640537
vt 0.741986513 0.435695589
vt 0.0762599707 0.0107462853
vt 0.0763428211 0.505104601
vt 0.0454388261 0.474212885
vt 0.04536587 0.0416492969
vt 0.0762799978 0.504834235
vt 0.0762825012 0.0106518418
vt 0.138055325 0.0106507987
vt 0.138052821 0.504833341
vt 0.138051271 0.0106473565
vt 0.138053834 0.504838705
vt 0.0762799382 0.504839182
vt 0.0762773156 0.0106479079
vt 0.0454460382 0.474214971
vt 0.0453792214 0.0416155308
vt 0.0762487054 0.0107099265
vt 0.076338768 0.505109489
vt 0.0762469769 0.0107508451
vt 0.0763524175 0.50515604
vt 0.0454439521 0.474262714
vt 0.0453511477 0.0416584462
vt 0.0454459786 0.474214792
vt 0.045379281 0.0416156799
vt 0.076248765 0.0107102841
vt 0.0763388276 0.50510937
vt 0.520387411 0.43574959
vt 0.520387411 0.177217245
vt 0.741986513 0.177217245
vt 0.741986513 0.43574959
vt 0.0762591958 0.0107347369
vt 0.0763546228 0.505154073
vt 0.0454459786 0.474259317
vt 0.0453619957 0.0416423678
vt 0.0762844682 0.504835963
vt 0.0762809515 0.0106467754
vt 0.138054609 0.010648489
vt 0.138058126 0.504837751
vt 0.138054729 0.0106468201
vt 0.138055444 0.504835367
vt 0.0762818456 0.5048365
vt 0.0762811899 0.0106479675
vt 0.0454457998 0.474215508
vt 0.0453796387 0.041615054
vt 0.0762488246 0.0107094496
vt 0.07633847 0.505110204
vt 0.0762469172 0.0107506961
vt 0.0763528943 0.505157471
vt 0.0454443693 0.474264324
vt 0.0453510284 0.0416584164
vt 0.045445919 0.474214852
vt 0.0453793406 0.0416155308
vt 0.0762488842 0.0107101649
vt 0.076338768 0.505109429
vt 0.51973784 0.176405504
vt 0.519737959 0.435695589
vt 0.741986513 0.435695589
vt 0.741986513 0.17640537
vt 0.076274693 0.0106476247
vt 0.0763619542 0.505177855
vt 0.0454469323 0.474275649
vt 0.0453701019 0.0415616184
vt 0.0762806535 0.50483489
vt 0.0762791038 0.0106490403
vt 0.138052344 0.0106486231
vt 0.138053894 0.504834414
vt 0.138051867 0.0106497854
vt 0.138053596 0.504838407
vt 0.0762799978 0.504838705
vt 0.0762782693 0.0106500238
vt 0.045445919 0.474215806
vt 0.0453796983 0.041614607
vt 0.0762488246 0.0107090026
vt 0.07633847 0.505110562
vt 0.0762531757 0.0107217133
vt 0.0763506293 0.505146563
vt 0.0454415083 0.474251628
vt 0.0453557372 0.041629985
vt 0.0454458594 0.474215031
vt 0.0453795791 0.0416153222
vt 0.0762488246 0.0107098371
vt 0.0763385296 0.505109727
vt 0.520387411 0.177217245
vt 0.520387411 0.43574959
vt 0.741986513 0.43574959
vt 0.741986513 0.177217245
vt 0.0762727261 0.0106816739
vt 0.0763430595 0.505100667
vt 0.0454360247 0.474204242
vt 0.0453742743 0.0415876657
vt 0.0762783885 0.504832089
vt 0.0762815475 0.0106478035
vt 0.138054609 0.0106480271
vt 0.13805145 0.504832268
vt 0.138050497 0.0106433779
vt 0.138052672 0.504835367
vt 0.0762786269 0.50483644
vt 0.0762764812 0.0106443912
vt 0.0454463363 0.474214852
vt 0.0453790426 0.0416156501
vt 0.0762483478 0.0107102096
vt 0.076339066 0.505109549
vt 0.0762472749 0.0107507259
vt 0.0763521194 0.505155563
vt 0.0454438329 0.474262476
vt 0.0453515053 0.0416582376
vt 0.0454459786 0.474214792
vt 0.045379281 0.0416156799
vt 0.076248765 0.0107102841
vt 0.0763388276 0.50510937
vt 0.957473993 0.0465374514
vt 0.957473993 0.0480612144
vt 0.96052146 0.0480612144
vt 0.96052146 0.0465374514
vt 0.957473993 0.0465374514
vt 0.957473993 0.0480612144
vt 0.96052146 0.0480612144
vt 0.96052146 0.0465374514
vt 0.289254248 0.109921351
vt 0.289239347 0.440316617
vt 0.333015025 0.440316349
vt 0.333029926 0.109921232
vt 0.86597985 0.415180802
vt 0.866009414 0.116757981
vt 0.892383039 0.154053912
vt 0.892357171 0.415179759
vt 0.924487829 0.452483088
vt 0.924490094 0.191359073
vt 0.950868011 0.191360891
vt 0.950865269 0.489790887
vt 0.333015025 0.440340161
vt 0.333028436 0.109921932
vt 0.289253473 0.109921932
vt 0.289240181 0.440339863
vt 0.950881839 0.116749771
vt 0.950852633 0.41518876
vt 0.924475551 0.415185094
vt 0.924500823 0.154061034
vt 0.892370522 0.191377878
vt 0.892367661 0.452497423
vt 0.865989745 0.489799887
vt 0.865993321 0.191387653
vt 0.289255738 0.109930322
vt 0.289239347 0.440328598
vt 0.333015025 0.440328956
vt 0.333030641 0.109930873
vt 0.865981042 0.415196687
vt 0.866011202 0.116769411
vt 0.892384708 0.154072776
vt 0.892358243 0.415195107
vt 0.92448771 0.452492893
vt 0.924490571 0.191368878
vt 0.950868011 0.191364422
vt 0.950864196 0.489795387
vt 0.3330158 0.440316021
vt 0.333029926 0.109947875
vt 0.289254248 0.109947875
vt 0.289240897 0.440316707
vt 0.950885534 0.116777606
vt 0.950855851 0.415225565
vt 0.924478412 0.415209383
vt 0.92450428 0.154071108
vt 0.892370284 0.191374362
vt 0.892367661 0.452502698
vt 0.865989745 0.489810497
vt 0.865993083 0.191377908
vn -0 0 -1
vn -0 0 -1
vn -0 0 -1
vn -0 0 -1
vn -0 1 0
vn -0 1 0
vn -0 1 0
vn -0 1 0
vn -0 0 -1
vn -0 0 -1
vn -0 0 -1
vn -0 0 -1
vn -0 0 -1
vn -0 0 -1
vn -0 0 -1
vn -0 0 -1
vn -0 -1 0
vn -0 -1 0
vn -0 -1 0
vn -0 -1 0
vn -0 1 0
vn -0 1 0
vn -0 1 0
vn -0 1 0
vn -0 -1 0
vn -0 -1 0
vn -0 -1 0
vn -0 -1 0
vn -1 0 0
vn -1 0 0
vn -1 0 0
vn -1 0 0
vn -0 1 0
vn -0 1 0
vn -0 1 0
vn -0 1 0
vn -1 0 0
vn -1 0 0
vn -1 0 0
vn -1 0 0
vn -1 0 0
vn -1 0 0
vn -1 0 0
vn -1 0 0
vn -0 -1 0
vn -0 -1 0
vn -0 -1 0
vn -0 -1 0
vn -0 1 0
vn -0 1 0
vn -0 1 0
vn -0 1 0
vn -0 -1 0
vn -0 -1 0
vn -0 -1 0
vn -0 -1 0
vn -0 0 1
vn -0 0 1
vn -0 0 1
vn -0 0 1
vn -0 1 0
vn -0 1 0
vn -0 1 0
vn -0 1 0
vn -0 0 1
vn -0 0 1
vn -0 0 1
vn -0 0 1
vn -0 0 1
vn -0 0 1
vn -0 0 1
vn -0 0 1
vn -0 -1 0
vn -0 -1 0
vn -0 -1 0
vn -0 -1 0
vn -0 1 0
vn -0 1 0
vn -0 1 0
vn -0 1 0
vn -0 -1 0
vn -0 -1 0
vn -0 -1 0
vn -0 -1 0
vn 1 0 0
vn 1 0 0
vn 1 0 0
vn 1 0 0
vn -0 1 0
vn -0 1 0
vn -0 1 0
vn -0 1 0
vn 1 0 0
vn 1 0 0
vn 1 0 0
vn 1 0 0
vn 1 0 0
vn 1 0 0
vn 1 0 0
vn 1 0 0
vn -0 -1 0
vn -0 -1 0
vn -0 -1 0
vn -0 -1 0
vn -0 1 0
vn -0 1 0
vn -0 1 0
vn -0 1 0
vn -0 -1 0
vn -0 -1 0
vn -0 -1 0
vn -0 -1 0
vn -0 -1 0
vn -0 -1 0
vn -0 -1 0
vn -0 -1 0
vn -0 1 0
vn -0 1 0
vn -0 1 0
vn -0 1 0
vn -0 0 1
vn -0 0 1
vn -0 0 1
vn -0 0 1
vn -0 0.707106769 0.707106769
vn -0 0.707106769 0.707106769
vn -0 0.707106769 0.707106769
vn -0 0.707106769 0.707106769
vn -0 -0.707106769 0.707106769
vn -0 -0.707106769 0.707106769
vn -0 -0.707106769 0.707106769
vn -0 -0.707106769 0.707106769
vn -1 0 0
vn -1 0 0
vn -1 0 0
vn -1 0 0
vn -0.707106769 -0.707106769 0
vn -0.707106769 -0.707106769 0
vn -0.707106769 -0.707106769 0
vn -0.707106769 -0.707106769 0
vn -0.707106769 0.707106769 0
vn -0.707106769 0.707106769 0
vn -0.707106769 0.707106769 0
vn -0.707106769 0.707106769 0
vn -0 0 -1
vn -0 0 -1
vn -0 0 -1
vn -0 0 -1
vn -0 0.707106769 -0.707106769
vn -0 0.707106769 -0.707106769
vn -0 0.707106769 -0.707106769
vn -0 0.707106769 -0.707106769
vn -0 -0.707106769 -0.707106769
vn -0 -0.707106769 -0.707106769
vn -0 -0.707106769 -0.707106769
vn -0 -0.707106769 -0.707106769
vn 1 0 0
vn 1 0 0
vn 1 0 0
vn 1 0 0
vn 0.707106769 -0.707106769 0
vn 0.707106769 -0.707106769 0
vn 0.707106769 -0.707106769 0
vn 0.707106769 -0.707106769 0
vn 0.707106769 0.707106769 0
vn 0.707106769 0.707106769 0
vn 0.707106769 0.707106769 0
vn 0.707106769 0.707106769 0
g FloorSolo_0
f 3/3/3 2/2/2 1/1/1
f 4/4/4 3/3/3 1/1/1
f 7/7/7 6/6/6 5/5/5
f 8/8/8 7/7/7 5/5/5
f 11/11/11 10/10/10 9/9/9
f 12/12/12 11/11/11 9/9/9
f 15/15/15 14/14/14 13/13/13
f 16/16/16 15/15/15 13/13/13
f 19/19/19 18/18/18 17/17/17
f 20/20/20 19/19/19 17/17/17
f 23/23/23 22/22/22 21/21/21
f 24/24/24 23/23/23 21/21/21
f 27/27/27 26/26/26 25/25/25
f 28/28/28 27/27/27 25/25/25
f 31/31/31 30/30/30 29/29/29
f 32/32/32 31/31/31 29/29/29
f 35/35/35 34/34/34 33/33/33
f 36/36/36 35/35/35 33/33/33
f 39/39/39 38/38/38 37/37/37
f 40/40/40 39/39/39 37/37/37
f 43/43/43 42/42/42 41/41/41
f 44/44/44 43/43/43 41/41/41
f 47/47/47 46/46/46 45/45/45
f 48/48/48 47/47/47 45/45/45
f 51/51/51 50/50/50 49/49/49
f 52/52/52 51/51/51 49/49/49
f 55/55/55 54/54/54 53/53/53
f 56/56/56 55/55/55 53/53/53
f 59/59/59 58/58/58 57/57/57
f 60/60/60 59/59/59 57/57/57
f 63/63/63 62/62/62 61/61/61
f 64/64/64 63/63/63 61/61/61
f 67/67/67 66/66/66 65/65/65
f 68/68/68 67/67/67 65/65/65
f 71/71/71 70/70/70 69/69/69
f 72/72/72 71/71/71 69/69/69
f 75/75/75 74/74/74 73/73/73
f 76/76/76 75/75/75 73/73/73
f 79/79/79 78/78/78 77/77/77
f 80/80/80 79/79/79 77/77/77
f 83/83/83 82/82/82 81/81/81
f 84/84/84 83/83/83 81/81/81
f 87/87/87 86/86/86 85/85/85
f 88/88/88 87/87/87 85/85/85
f 91/91/91 90/90/90 89/89/89
f 92/92/92 91/91/91 89/89/89
f 95/95/95 94/94/94 93/93/93
f 96/96/96 95/95/95 93/93/93
f 99/99/99 98/98/98 97/97/97
f 100/100/100 99/99/99 97/97/97
f 103/103/103 102/102/102 101/101/101
f 104/104/104 103/103/103 101/101/101
f 107/107/107 106/106/106 105/105/105
f 108/108/108 107/107/107 105/105/105
f 111/111/111 110/110/110 109/109/109
f 112/112/112 111/111/111 109/109/109
f 115/115/115 114/114/114 113/113/113
f 116/116/116 115/115/115 113/113/113
f 119/119/119 118/118/118 117/117/117
f 120/120/120 119/119/119 117/117/117
f 123/123/123 122/122/122 121/121/121
f 124/124/124 123/123/123 121/121/121
f 127/127/127 126/126/126 125/125/125
f 128/128/128 127/127/127 125/125/125
f 131/131/131 130/130/130 129/129/129
f 132/132/132 131/131/131 129/129/129
f 135/135/135 134/134/134 133/133/133
f 136/136/136 135/135/135 133/133/133
f 139/139/139 138/138/138 137/137/137
f 140/140/140 139/139/139 137/137/137
f 143/143/143 142/142/142 141/141/141
f 144/144/144 143/143/143 141/141/141
f 147/147/147 146/146/146 145/145/145
f 148/148/148 147/147/147 145/145/145
f 151/151/151 150/150/150 149/149/149
f 152/152/152 151/151/151 149/149/149
f 155/155/155 154/154/154 153/153/153
f 156/156/156 155/155/155 153/153/153
f 159/159/159 158/158/158 157/157/157
f 160/160/160 159/159/159 157/157/157
f 163/163/163 162/162/162 161/161/161
f 164/164/164 163/163/163 161/161/161
f 167/167/167 166/166/166 165/165/165
f 168/168/168 167/167/167 165/165/165
