g CS_Window1
v 0.0625 0.49999997 -0.50000006
v 0.0625 0.50000006 0.49999997
v -0.0625 0.50000006 0.49999997
v -0.0625 0.49999997 -0.50000006
v -0.0625 0.49999997 -0.50000006
v -0.0625 0.50000006 0.49999997
v -0.0625 0.43750003 0.43749997
v -0.0625 0.43749997 -0.43750003
v 0.0625 0.43749997 -0.43750003
v 0.0625 0.43750003 0.43749997
v 0.0625 0.50000006 0.49999997
v 0.0625 0.49999997 -0.50000006
v 0.0625 -0.50000006 -0.49999997
v 0.0625 0.49999997 -0.50000006
v -0.0625 0.49999997 -0.50000006
v -0.0625 -0.50000006 -0.49999997
v -0.0625 -0.50000006 -0.49999997
v -0.0625 0.49999997 -0.50000006
v -0.0625 0.43749997 -0.43750003
v -0.0625 -0.43750003 -0.43749997
v 0.0625 -0.43750003 -0.43749997
v 0.0625 0.43749997 -0.43750003
v 0.0625 0.49999997 -0.50000006
v 0.0625 -0.50000006 -0.49999997
v 0.0625 -0.49999997 0.50000006
v 0.0625 -0.50000006 -0.49999997
v -0.0625 -0.50000006 -0.49999997
v -0.0625 -0.49999997 0.50000006
v -0.0625 -0.49999997 0.50000006
v -0.0625 -0.50000006 -0.49999997
v -0.0625 -0.43750003 -0.43749997
v -0.0625 -0.43749997 0.43750003
v 0.0625 -0.43749997 0.43750003
v 0.0625 -0.43750003 -0.43749997
v 0.0625 -0.50000006 -0.49999997
v 0.0625 -0.49999997 0.50000006
v 0.0625 0.50000006 0.49999997
v 0.0625 -0.49999997 0.50000006
v -0.0625 -0.49999997 0.50000006
v -0.0625 0.50000006 0.49999997
v -0.0625 0.50000006 0.49999997
v -0.0625 -0.49999997 0.50000006
v -0.0625 -0.43749997 0.43750003
v -0.0625 0.43750003 0.43749997
v 0.0625 0.43750003 0.43749997
v 0.0625 -0.43749997 0.43750003
v 0.0625 -0.49999997 0.50000006
v 0.0625 0.50000006 0.49999997
v -0.0625 0.43750003 0.43749997
v 0.0625 0.43750003 0.43749997
v 0.0625 0.43749997 -0.43750003
v -0.0625 0.43749997 -0.43750003
v -0.0625 0.43749997 -0.43750003
v 0.0625 0.43749997 -0.43750003
v 0.0625 -0.43750003 -0.43749997
v -0.0625 -0.43750003 -0.43749997
v -0.0625 -0.43750003 -0.43749997
v 0.0625 -0.43750003 -0.43749997
v 0.0625 -0.43749997 0.43750003
v -0.0625 -0.43749997 0.43750003
v -0.0625 -0.43749997 0.43750003
v 0.0625 -0.43749997 0.43750003
v 0.0625 0.43750003 0.43749997
v -0.0625 0.43750003 0.43749997
v 0.0280879736 -0.463814676 -0.463814616
v 0.0280879736 -0.463814616 0.463814676
v 0.0280879736 0.463814676 0.463814616
v 0.0280879736 0.463814616 -0.463814676
v -0.0280880332 0.463814616 -0.463814676
v -0.0280880332 0.463814676 0.463814616
v -0.0280880332 -0.463814616 0.463814676
v -0.0280880332 -0.463814676 -0.463814616
vt 0.138050497 0.0106473565
vt 0.138050497 0.504838705
vt 0.0762799382 0.504839182
vt 0.0762773156 0.0106479079
vt 0.0762469769 0.0107508451
vt 0.0763524175 0.50515604
vt 0.0454439521 0.474262714
vt 0.0453511477 0.0416584462
vt 0.0454459786 0.474214792
vt 0.045379281 0.0416156799
vt 0.076248765 0.0107102841
vt 0.0763388276 0.50510937
vt 0.138050497 0.0106468201
vt 0.138050497 0.504835367
vt 0.0762818456 0.5048365
vt 0.0762811899 0.0106479675
vt 0.0762469172 0.0107506961
vt 0.0763528943 0.505157471
vt 0.0454443693 0.474264324
vt 0.0453510284 0.0416584164
vt 0.045445919 0.474214852
vt 0.0453793406 0.0416155308
vt 0.0762488842 0.0107101649
vt 0.076338768 0.505109429
vt 0.138050497 0.0106497854
vt 0.138050497 0.504838407
vt 0.0762799978 0.504838705
vt 0.0762782693 0.0106500238
vt 0.0762531757 0.0107217133
vt 0.0763506293 0.505146563
vt 0.0454415083 0.474251628
vt 0.0453557372 0.041629985
vt 0.0454458594 0.474215031
vt 0.0453795791 0.0416153222
vt 0.0762488246 0.0107098371
vt 0.0763385296 0.505109727
vt 0.138050497 0.0106433779
vt 0.138050497 0.504835367
vt 0.0762786269 0.50483644
vt 0.0762764812 0.0106443912
vt 0.0762472749 0.0107507259
vt 0.0763521194 0.505155563
vt 0.0454438329 0.474262476
vt 0.0453515053 0.0416582376
vt 0.0454459786 0.474214792
vt 0.045379281 0.0416156799
vt 0.076248765 0.0107102841
vt 0.0763388276 0.50510937
vt 0.138050497 0.0108570158
vt 0.0763528347 0.0108570158
vt 0.0763528347 0.50515753
vt 0.138050497 0.50515753
vt 0.138050497 0.0108570755
vt 0.0763528943 0.0108570755
vt 0.0763528943 0.505157471
vt 0.138050497 0.505157471
vt 0.0763528347 0.50515753
vt 0.138050497 0.50515753
vt 0.138050497 0.0108570457
vt 0.0763528347 0.0108570457
vt 0.138050497 0.0108570755
vt 0.0763528943 0.0108570755
vt 0.0763528943 0.505157471
vt 0.138050497 0.505157471
vt 0.625 0
vt 0.625 0.25
vt 0.875 0.25
vt 0.875 0
vt 0.125 0
vt 0.125 0.25
vt 0.375 0.25
vt 0.375 0
vn -0 1 0
vn -0 1 0
vn -0 1 0
vn -0 1 0
vn -1 0 0
vn -1 0 0
vn -1 0 0
vn -1 0 0
vn 1 0 0
vn 1 0 0
vn 1 0 0
vn 1 0 0
vn -0 0 -1
vn -0 0 -1
vn -0 0 -1
vn -0 0 -1
vn -1 0 0
vn -1 0 0
vn -1 0 0
vn -1 0 0
vn 1 0 0
vn 1 0 0
vn 1 0 0
vn 1 0 0
vn -0 -1 0
vn -0 -1 0
vn -0 -1 0
vn -0 -1 0
vn -1 0 0
vn -1 0 0
vn -1 0 0
vn -1 0 0
vn 1 0 0
vn 1 0 0
vn 1 0 0
vn 1 0 0
vn -0 0 1
vn -0 0 1
vn -0 0 1
vn -0 0 1
vn -1 0 0
vn -1 0 0
vn -1 0 0
vn -1 0 0
vn 1 0 0
vn 1 0 0
vn 1 0 0
vn 1 0 0
vn -0 -1 0
vn -0 -1 0
vn -0 -1 0
vn -0 -1 0
vn -0 0 1
vn -0 0 1
vn -0 0 1
vn -0 0 1
vn -0 1 0
vn -0 1 0
vn -0 1 0
vn -0 1 0
vn -0 0 -1
vn -0 0 -1
vn -0 0 -1
vn -0 0 -1
vn 1 0 0
vn 1 0 0
vn 1 0 0
vn 1 0 0
vn -1 0 0
vn -1 0 0
vn -1 0 0
vn -1 0 0
g CS_Window1_0
f 3/3/3 2/2/2 1/1/1
f 4/4/4 3/3/3 1/1/1
f 7/7/7 6/6/6 5/5/5
f 8/8/8 7/7/7 5/5/5
f 11/11/11 10/10/10 9/9/9
f 12/12/12 11/11/11 9/9/9
f 15/15/15 14/14/14 13/13/13
f 16/16/16 15/15/15 13/13/13
f 19/19/19 18/18/18 17/17/17
f 20/20/20 19/19/19 17/17/17
f 23/23/23 22/22/22 21/21/21
f 24/24/24 23/23/23 21/21/21
f 27/27/27 26/26/26 25/25/25
f 28/28/28 27/27/27 25/25/25
f 31/31/31 30/30/30 29/29/29
f 32/32/32 31/31/31 29/29/29
f 35/35/35 34/34/34 33/33/33
f 36/36/36 35/35/35 33/33/33
f 39/39/39 38/38/38 37/37/37
f 40/40/40 39/39/39 37/37/37
f 43/43/43 42/42/42 41/41/41
f 44/44/44 43/43/43 41/41/41
f 47/47/47 46/46/46 45/45/45
f 48/48/48 47/47/47 45/45/45
f 51/51/51 50/50/50 49/49/49
f 52/52/52 51/51/51 49/49/49
f 55/55/55 54/54/54 53/53/53
f 56/56/56 55/55/55 53/53/53
f 59/59/59 58/58/58 57/57/57
f 60/60/60 59/59/59 57/57/57
f 63/63/63 62/62/62 61/61/61
f 64/64/64 63/63/63 61/61/61
g CS_Window1_1
f 67/67/67 66/66/66 65/65/65
f 68/68/68 67/67/67 65/65/65
f 71/71/71 70/70/70 69/69/69
f 72/72/72 71/71/71 69/69/69
