g Fence_CorrugatedSteel_Wall
v -0.290758938 0.448630631 0.0381593779
v -0.290758878 -0.448631197 0.0381601006
v -0.36167559 -0.448631197 0.0381593741
v -0.361675709 0.448630631 0.0381601006
v -0.361675709 0.448630631 0.0381601006
v -0.36167559 -0.448631197 0.0381593741
v -0.397134036 -0.448631167 0.00270154234
v -0.397134095 0.448630631 0.00270154281
v -0.255300581 0.448630661 0.00270137843
v -0.255300522 -0.448631197 0.00270153047
v -0.290758878 -0.448631197 0.0381601006
v -0.290758938 0.448630631 0.0381593779
v 0.035458304 0.448630691 0.0381593667
v 0.0354583859 -0.448631167 0.038160082
v -0.0354583524 -0.448631167 0.0381593704
v -0.0354584344 0.448630691 0.0381600857
v -0.0354584344 0.448630691 0.0381600857
v -0.0354583524 -0.448631167 0.0381593704
v -0.0709167644 -0.448631078 0.00270152208
v -0.0709168538 0.448630691 0.00270152302
v 0.0709166974 0.448630691 0.00270137237
v 0.070916757 -0.448631167 0.00270151976
v 0.0354583859 -0.448631167 0.038160082
v 0.035458304 0.448630691 0.0381593667
v 0.36167559 0.44863075 0.038159363
v 0.36167565 -0.448631078 0.0381600894
v 0.290758878 -0.448631078 0.038159363
v 0.290758848 0.44863075 0.0381600671
v 0.290758848 0.44863075 0.0381600671
v 0.290758878 -0.448631078 0.038159363
v 0.255300462 -0.448631078 0.00270151184
v 0.255300462 0.448630691 0.00270151184
v 0.397133976 0.44863075 0.00270136655
v 0.397134036 -0.448631078 0.00270151859
v 0.36167565 -0.448631078 0.0381600894
v 0.36167559 0.44863075 0.038159363
v -0.5 -0.43750006 -0.0625
v 0.499999911 -0.437500179 -0.0625
v 0.499999911 -0.4375 0.0625
v -0.5 -0.43750006 0.0625
v 0.499999911 -0.4375 0.0625
v 0.5 -0.500000238 0.0625
v -0.499999911 -0.50000006 0.0625
v -0.5 -0.43750006 0.0625
v 0.499999881 -0.500000238 -0.0625
v 0.499999911 -0.437500179 -0.0625
v -0.5 -0.43750006 -0.0625
v -0.499999911 -0.50000006 -0.0625
v 0.5 -0.500000238 0.0625
v 0.499999881 -0.500000238 -0.0625
v -0.499999911 -0.50000006 -0.0625
v -0.499999911 -0.50000006 0.0625
v -0.499999911 -0.50000006 0.0625
v -0.499999911 -0.50000006 -0.0625
v -0.5 -0.43750006 -0.0625
v -0.5 -0.43750006 0.0625
v 0.499999911 -0.437500179 -0.0625
v 0.499999881 -0.500000238 -0.0625
v 0.5 -0.500000238 0.0625
v 0.499999911 -0.4375 0.0625
v -0.5 0.499999881 -0.0625
v 0.499999911 0.499999791 -0.0625
v 0.499999911 0.5 0.0625
v -0.5 0.499999881 0.0625
v 0.499999911 0.5 0.0625
v 0.5 0.437499762 0.0625
v -0.499999911 0.437499911 0.0625
v -0.5 0.499999881 0.0625
v 0.499999881 0.437499762 -0.0625
v 0.499999911 0.499999791 -0.0625
v -0.5 0.499999881 -0.0625
v -0.499999911 0.437499911 -0.0625
v 0.5 0.437499762 0.0625
v 0.499999881 0.437499762 -0.0625
v -0.499999911 0.437499911 -0.0625
v -0.499999911 0.437499911 0.0625
v -0.499999911 0.437499911 0.0625
v -0.499999911 0.437499911 -0.0625
v -0.5 0.499999881 -0.0625
v -0.5 0.499999881 0.0625
v 0.499999911 0.499999791 -0.0625
v 0.499999881 0.437499762 -0.0625
v 0.5 0.437499762 0.0625
v 0.499999911 0.5 0.0625
v -0.290758967 0.448630631 -0.0327562429
v -0.36167568 0.448630631 -0.0327569507
v -0.36167559 -0.448631197 -0.032756228
v -0.290758878 -0.448631197 -0.0327569507
v -0.36167568 0.448630631 -0.0327569507
v -0.397134095 0.448630631 0.00270154281
v -0.397134036 -0.448631167 0.00270154234
v -0.36167559 -0.448631197 -0.032756228
v -0.255300581 0.448630661 0.00270137843
v -0.290758967 0.448630631 -0.0327562429
v -0.290758878 -0.448631197 -0.0327569507
v -0.255300522 -0.448631197 0.00270153047
v 0.035458304 0.448630691 -0.0327562392
v -0.0354584344 0.448630691 -0.0327569507
v -0.0354583524 -0.448631167 -0.0327562355
v 0.0354583859 -0.448631167 -0.0327569544
v -0.0354584344 0.448630691 -0.0327569507
v -0.0709168538 0.448630691 0.00270152302
v -0.0709167644 -0.448631078 0.00270152208
v -0.0354583524 -0.448631167 -0.0327562355
v 0.0709166974 0.448630691 0.00270137237
v 0.035458304 0.448630691 -0.0327562392
v 0.0354583859 -0.448631167 -0.0327569544
v 0.070916757 -0.448631167 0.00270151976
v 0.36167559 0.44863075 -0.0327562355
v 0.290758818 0.44863075 -0.0327569656
v 0.290758878 -0.448631078 -0.0327562392
v 0.36167568 -0.448631078 -0.0327569619
v 0.290758818 0.44863075 -0.0327569656
v 0.255300462 0.448630691 0.00270151184
v 0.255300462 -0.448631078 0.00270151184
v 0.290758878 -0.448631078 -0.0327562392
v 0.397133976 0.44863075 0.00270136655
v 0.36167559 0.44863075 -0.0327562355
v 0.36167568 -0.448631078 -0.0327569619
v 0.397134036 -0.448631078 0.00270151859
vt 0.289255738 0.109930322
vt 0.289239347 0.440328598
vt 0.333015025 0.440328956
vt 0.333030641 0.109930873
vt 0.865981042 0.415196687
vt 0.866011202 0.116769411
vt 0.892384708 0.154072776
vt 0.892358243 0.415195107
vt 0.92448771 0.452492893
vt 0.924490571 0.191368878
vt 0.950868011 0.191364422
vt 0.950864196 0.489795387
vt 0.289255738 0.109930322
vt 0.289239347 0.440328598
vt 0.333015025 0.440328956
vt 0.333030641 0.109930873
vt 0.865981042 0.415196687
vt 0.866011202 0.116769411
vt 0.892384708 0.154072776
vt 0.892358243 0.415195107
vt 0.92448771 0.452492893
vt 0.924490571 0.191368878
vt 0.950868011 0.191364422
vt 0.950864196 0.489795387
vt 0.289255738 0.109930322
vt 0.289239347 0.440328598
vt 0.333015025 0.440328956
vt 0.333030641 0.109930873
vt 0.865981042 0.415196687
vt 0.866011202 0.116769411
vt 0.892384708 0.154072776
vt 0.892358243 0.415195107
vt 0.92448771 0.452492893
vt 0.924490571 0.191368878
vt 0.950868011 0.191364422
vt 0.950864196 0.489795387
vt 0.818720996 0.0953065977
vt 0.818720996 0.00192226516
vt 0.807047963 0.00192228006
vt 0.807048023 0.0953065977
vt 0.837109268 0.00343464315
vt 0.831337333 0.00343464315
vt 0.831337452 0.0957843661
vt 0.837109327 0.0957843661
vt 0.837109268 0.0957843661
vt 0.831337392 0.0957843661
vt 0.831337392 0.00343456492
vt 0.837109268 0.00343456492
vt 0.818720996 0.0953065977
vt 0.807047963 0.0953065977
vt 0.807047904 0.00192220556
vt 0.818720937 0.00192219066
vt 0.865262449 0.0519854985
vt 0.853718758 0.0519854985
vt 0.853718758 0.046213638
vt 0.865262449 0.046213638
vt 0.865262568 0.0519855581
vt 0.865262568 0.0462136976
vt 0.853718817 0.0462136976
vt 0.853718758 0.051985573
vt 0.818720996 0.0953065977
vt 0.818720996 0.00192226516
vt 0.807047963 0.00192228006
vt 0.807048023 0.0953065977
vt 0.837109268 0.00343464315
vt 0.831337333 0.00343464315
vt 0.831337452 0.0957843661
vt 0.837109327 0.0957843661
vt 0.837109268 0.0957843661
vt 0.831337392 0.0957843661
vt 0.831337392 0.00343456492
vt 0.837109268 0.00343456492
vt 0.818720996 0.0953065977
vt 0.807047963 0.0953065977
vt 0.807047904 0.00192220556
vt 0.818720937 0.00192219066
vt 0.865262449 0.0519854985
vt 0.853718758 0.0519854985
vt 0.853718758 0.046213638
vt 0.865262449 0.046213638
vt 0.865262568 0.0519855581
vt 0.865262568 0.0462136976
vt 0.853718817 0.0462136976
vt 0.853718758 0.051985573
vt 0.289255738 0.109930322
vt 0.333030641 0.109930873
vt 0.333015025 0.440328956
vt 0.289239347 0.440328598
vt 0.865981042 0.415196687
vt 0.892358243 0.415195107
vt 0.892384708 0.154072776
vt 0.866011202 0.116769411
vt 0.92448771 0.452492893
vt 0.950864196 0.489795387
vt 0.950868011 0.191364422
vt 0.924490571 0.191368878
vt 0.289255738 0.109930322
vt 0.333030641 0.109930873
vt 0.333015025 0.440328956
vt 0.289239347 0.440328598
vt 0.865981042 0.415196687
vt 0.892358243 0.415195107
vt 0.892384708 0.154072776
vt 0.866011202 0.116769411
vt 0.92448771 0.452492893
vt 0.950864196 0.489795387
vt 0.950868011 0.191364422
vt 0.924490571 0.191368878
vt 0.289255738 0.109930322
vt 0.333030641 0.109930873
vt 0.333015025 0.440328956
vt 0.289239347 0.440328598
vt 0.865981042 0.415196687
vt 0.892358243 0.415195107
vt 0.892384708 0.154072776
vt 0.866011202 0.116769411
vt 0.92448771 0.452492893
vt 0.950864196 0.489795387
vt 0.950868011 0.191364422
vt 0.924490571 0.191368878
vn -0 0 1
vn -0 0 1
vn -0 0 1
vn -0 0 1
vn -0.707104445 -3.10483813E-07 0.707109034
vn -0.707104445 -3.10483813E-07 0.707109034
vn -0.707104445 -3.10483813E-07 0.707109034
vn -0.707104445 -3.10483813E-07 0.707109034
vn 0.707105756 3.93279379E-07 0.707107723
vn 0.707105756 3.93279379E-07 0.707107723
vn 0.707105756 3.93279379E-07 0.707107723
vn 0.707105756 3.93279379E-07 0.707107723
vn -0 0 1
vn -0 0 1
vn -0 0 1
vn -0 0 1
vn -0.707104623 -3.44119655E-07 0.707108855
vn -0.707104623 -3.44119655E-07 0.707108855
vn -0.707104623 -3.44119655E-07 0.707108855
vn -0.707104623 -3.44119655E-07 0.707108855
vn 0.707105756 3.98454119E-07 0.707107723
vn 0.707105756 3.98454119E-07 0.707107723
vn 0.707105756 3.98454119E-07 0.707107723
vn 0.707105756 3.98454119E-07 0.707107723
vn -0 0 1
vn -0 0 1
vn -0 0 1
vn -0 0 1
vn -0.707104623 -2.89784992E-07 0.707108855
vn -0.707104623 -2.89784992E-07 0.707108855
vn -0.707104623 -2.89784992E-07 0.707108855
vn -0.707104623 -2.89784992E-07 0.707108855
vn 0.707105756 3.93279379E-07 0.707107723
vn 0.707105756 3.93279379E-07 0.707107723
vn 0.707105756 3.93279379E-07 0.707107723
vn 0.707105756 3.93279379E-07 0.707107723
vn -0 1 -4.76837215E-07
vn -0 1 -4.76837215E-07
vn -0 1 -4.76837215E-07
vn -0 1 -4.76837215E-07
vn -0 0 1
vn -0 0 1
vn -0 0 1
vn -0 0 1
vn -0 0 -1
vn -0 0 -1
vn -0 0 -1
vn -0 0 -1
vn -1.78813977E-07 -1 0
vn -1.78813977E-07 -1 0
vn -1.78813977E-07 -1 0
vn -1.78813977E-07 -1 0
vn -1 -9.53674771E-07 0
vn -1 -9.53674771E-07 0
vn -1 -9.53674771E-07 0
vn -1 -9.53674771E-07 0
vn 1 0 -4.76836931E-07
vn 1 0 -4.76836931E-07
vn 1 0 -4.76836931E-07
vn 1 0 -4.76836931E-07
vn -0 1 -7.15255908E-07
vn -0 1 -7.15255908E-07
vn -0 1 -7.15255908E-07
vn -0 1 -7.15255908E-07
vn -0 0 1
vn -0 0 1
vn -0 0 1
vn -0 0 1
vn -0 0 -1
vn -0 0 -1
vn -0 0 -1
vn -0 0 -1
vn -1.78813977E-07 -1 0
vn -1.78813977E-07 -1 0
vn -1.78813977E-07 -1 0
vn -1.78813977E-07 -1 0
vn -1 -9.53675226E-07 0
vn -1 -9.53675226E-07 0
vn -1 -9.53675226E-07 0
vn -1 -9.53675226E-07 0
vn 1 0 -4.76836931E-07
vn 1 0 -4.76836931E-07
vn 1 0 -4.76836931E-07
vn 1 0 -4.76836931E-07
vn -0 0 -1
vn -0 0 -1
vn -0 0 -1
vn -0 0 -1
vn -0.707103491 -3.31183145E-07 -0.707109988
vn -0.707103491 -3.31183145E-07 -0.707109988
vn -0.707103491 -3.31183145E-07 -0.707109988
vn -0.707103491 -3.31183145E-07 -0.707109988
vn 0.707103372 2.75355632E-07 -0.707110167
vn 0.707103372 2.75355632E-07 -0.707110167
vn 0.707103372 2.75355632E-07 -0.707110167
vn 0.707103372 2.75355632E-07 -0.707110167
vn -0 0 -1
vn -0 0 -1
vn -0 0 -1
vn -0 0 -1
vn -0.707103789 -3.44120139E-07 -0.707109749
vn -0.707103789 -3.44120139E-07 -0.707109749
vn -0.707103789 -3.44120139E-07 -0.707109749
vn -0.707103789 -3.44120139E-07 -0.707109749
vn 0.707103372 2.79808688E-07 -0.707110167
vn 0.707103372 2.79808688E-07 -0.707110167
vn 0.707103372 2.79808688E-07 -0.707110167
vn 0.707103372 2.79808688E-07 -0.707110167
vn -0 0 -1
vn -0 0 -1
vn -0 0 -1
vn -0 0 -1
vn -0.707103789 -2.89785362E-07 -0.707109749
vn -0.707103789 -2.89785362E-07 -0.707109749
vn -0.707103789 -2.89785362E-07 -0.707109749
vn -0.707103789 -2.89785362E-07 -0.707109749
vn 0.707103372 2.7391161E-07 -0.707110167
vn 0.707103372 2.7391161E-07 -0.707110167
vn 0.707103372 2.7391161E-07 -0.707110167
vn 0.707103372 2.7391161E-07 -0.707110167
g Fence_CorrugatedSteel_Wall_0
f 3/3/3 2/2/2 1/1/1
f 4/4/4 3/3/3 1/1/1
f 7/7/7 6/6/6 5/5/5
f 8/8/8 7/7/7 5/5/5
f 11/11/11 10/10/10 9/9/9
f 12/12/12 11/11/11 9/9/9
f 15/15/15 14/14/14 13/13/13
f 16/16/16 15/15/15 13/13/13
f 19/19/19 18/18/18 17/17/17
f 20/20/20 19/19/19 17/17/17
f 23/23/23 22/22/22 21/21/21
f 24/24/24 23/23/23 21/21/21
f 27/27/27 26/26/26 25/25/25
f 28/28/28 27/27/27 25/25/25
f 31/31/31 30/30/30 29/29/29
f 32/32/32 31/31/31 29/29/29
f 35/35/35 34/34/34 33/33/33
f 36/36/36 35/35/35 33/33/33
f 39/39/39 38/38/38 37/37/37
f 40/40/40 39/39/39 37/37/37
f 43/43/43 42/42/42 41/41/41
f 44/44/44 43/43/43 41/41/41
f 47/47/47 46/46/46 45/45/45
f 48/48/48 47/47/47 45/45/45
f 51/51/51 50/50/50 49/49/49
f 52/52/52 51/51/51 49/49/49
f 55/55/55 54/54/54 53/53/53
f 56/56/56 55/55/55 53/53/53
f 59/59/59 58/58/58 57/57/57
f 60/60/60 59/59/59 57/57/57
f 63/63/63 62/62/62 61/61/61
f 64/64/64 63/63/63 61/61/61
f 67/67/67 66/66/66 65/65/65
f 68/68/68 67/67/67 65/65/65
f 71/71/71 70/70/70 69/69/69
f 72/72/72 71/71/71 69/69/69
f 75/75/75 74/74/74 73/73/73
f 76/76/76 75/75/75 73/73/73
f 79/79/79 78/78/78 77/77/77
f 80/80/80 79/79/79 77/77/77
f 83/83/83 82/82/82 81/81/81
f 84/84/84 83/83/83 81/81/81
f 87/87/87 86/86/86 85/85/85
f 88/88/88 87/87/87 85/85/85
f 91/91/91 90/90/90 89/89/89
f 92/92/92 91/91/91 89/89/89
f 95/95/95 94/94/94 93/93/93
f 96/96/96 95/95/95 93/93/93
f 99/99/99 98/98/98 97/97/97
f 100/100/100 99/99/99 97/97/97
f 103/103/103 102/102/102 101/101/101
f 104/104/104 103/103/103 101/101/101
f 107/107/107 106/106/106 105/105/105
f 108/108/108 107/107/107 105/105/105
f 111/111/111 110/110/110 109/109/109
f 112/112/112 111/111/111 109/109/109
f 115/115/115 114/114/114 113/113/113
f 116/116/116 115/115/115 113/113/113
f 119/119/119 118/118/118 117/117/117
f 120/120/120 119/119/119 117/117/117
