g Stairs_CorrugatedSteel_Corner
v -0.5 -0.500000715 0.499999911
v 0.5 -0.500000715 0.499999911
v -0.5 -0.500000536 -0.50000006
v -0.210942432 0.499999344 -0.210942358
v -0.455724388 0.499999344 -0.210942358
v -0.455724388 0.499999374 -0.455724329
v 0.5 -0.500000715 0.499999911
v 0.5 -0.500000536 -0.50000006
v -0.5 -0.500000536 -0.50000006
v -0.455724388 0.499999374 -0.455724329
v -0.210942432 0.499999374 -0.455724329
v -0.210942432 0.499999344 -0.210942358
v -0.5 -0.141799435 0.49999994
v -0.5 -0.188021496 0.49999994
v -0.5 -0.188021466 0.166666836
v -0.5 -0.14179939 0.166666836
v 0.5 -0.141799435 0.49999994
v 0.5 -0.188021496 0.49999994
v -0.5 -0.188021496 0.49999994
v -0.5 -0.141799435 0.49999994
v -0.5 0.453777254 -0.166666791
v -0.5 0.137917131 -0.166666836
v -0.5 0.137917146 -0.49999994
v -0.5 0.453777343 -0.499999911
v -0.5 0.137917131 -0.166666836
v -0.5 0.453777254 -0.166666791
v -0.166666865 0.453777254 -0.166666791
v -0.166666865 0.137917131 -0.166666836
v -0.5 -0.188021496 0.49999994
v -0.5 -0.500000715 0.499999911
v -0.5 -0.500000536 -0.50000006
v -0.5 -0.188021377 -0.50000006
v -0.5 -0.500000715 0.499999911
v -0.5 -0.188021496 0.49999994
v 0.5 -0.188021496 0.49999994
v 0.5 -0.500000715 0.499999911
v -0.5 0.499999344 -0.166666791
v -0.5 0.453777254 -0.166666791
v -0.5 0.453777343 -0.499999911
v -0.5 0.499999374 -0.499999911
v -0.5 0.184139147 0.166666269
v -0.5 0.137917072 0.166666269
v -0.5 0.137917131 -0.166666836
v -0.5 0.184139207 -0.166666836
v -0.5 0.137917072 0.166666269
v -0.5 -0.188021466 0.166666836
v -0.5 -0.188021377 -0.50000006
v -0.5 0.137917146 -0.49999994
v -0.5 -0.188021466 0.166666836
v -0.5 0.137917072 0.166666269
v 0.166666254 0.137917072 0.166666269
v 0.166666865 -0.188021466 0.166666836
v 0.455724388 -0.141799435 0.455724359
v -0.455724388 -0.141799435 0.455724359
v -0.455724388 -0.14179939 0.210942417
v 0.210942432 -0.14179939 0.210942417
v -0.166666865 0.453777254 -0.166666791
v -0.5 0.453777254 -0.166666791
v -0.5 0.499999344 -0.166666791
v -0.166666865 0.499999344 -0.166666791
v 0.122390665 0.184139147 0.122390695
v -0.455724388 0.184139147 0.122390695
v -0.455724388 0.184139192 -0.122391246
v -0.122391276 0.184139192 -0.122391246
v 0.166666254 0.137917072 0.166666269
v -0.5 0.137917072 0.166666269
v -0.5 0.184139147 0.166666269
v 0.166666254 0.184139147 0.166666269
v 0.210942432 -0.141799286 -0.455724388
v 0.455724388 -0.141799286 -0.455724388
v 0.455724388 -0.141799435 0.455724359
v 0.210942432 -0.14179939 0.210942417
v 0.166666865 -0.141799286 -0.5
v 0.166666865 -0.188021347 -0.50000006
v 0.5 -0.188021347 -0.50000006
v 0.5 -0.141799286 -0.5
v 0.5 -0.141799286 -0.5
v 0.5 -0.188021347 -0.50000006
v 0.5 -0.188021496 0.49999994
v 0.5 -0.141799435 0.49999994
v -0.166666865 0.137917176 -0.49999994
v -0.166666865 0.453777343 -0.499999911
v -0.5 0.453777343 -0.499999911
v -0.5 0.137917146 -0.49999994
v 0.5 -0.500000715 0.499999911
v 0.5 -0.188021496 0.49999994
v 0.5 -0.188021347 -0.50000006
v 0.5 -0.500000536 -0.50000006
v 0.5 -0.500000536 -0.50000006
v 0.5 -0.188021347 -0.50000006
v -0.5 -0.188021377 -0.50000006
v -0.5 -0.500000536 -0.50000006
v -0.5 0.499999374 -0.499999911
v -0.5 0.453777343 -0.499999911
v -0.166666865 0.453777343 -0.499999911
v -0.166666865 0.499999374 -0.499999911
v -0.166666865 0.499999374 -0.499999911
v -0.166666865 0.453777343 -0.499999911
v -0.166666865 0.453777254 -0.166666791
v -0.166666865 0.499999344 -0.166666791
v -0.122391276 0.184139252 -0.455724359
v 0.122390665 0.184139252 -0.455724359
v 0.122390665 0.184139147 0.122390695
v -0.122391276 0.184139192 -0.122391246
v -0.166666865 0.184139252 -0.49999994
v -0.166666865 0.137917176 -0.49999994
v 0.166666254 0.137917176 -0.49999994
v 0.166666254 0.184139252 -0.49999994
v 0.166666254 0.184139252 -0.49999994
v 0.166666254 0.137917176 -0.49999994
v 0.166666254 0.137917072 0.166666269
v 0.166666254 0.184139147 0.166666269
v 0.166666865 -0.188021347 -0.50000006
v 0.166666254 0.137917176 -0.49999994
v -0.5 0.137917146 -0.49999994
v -0.5 -0.188021377 -0.50000006
v -0.166666865 0.453777254 -0.166666791
v -0.166666865 0.453777343 -0.499999911
v -0.166666865 0.137917176 -0.49999994
v -0.166666865 0.137917131 -0.166666836
v 0.166666254 0.137917072 0.166666269
v 0.166666254 0.137917176 -0.49999994
v 0.166666865 -0.188021347 -0.50000006
v 0.166666865 -0.188021466 0.166666836
v -0.455724388 -0.141799435 0.455724359
v -0.5 -0.141799435 0.49999994
v -0.5 -0.14179939 0.166666836
v -0.455724388 -0.14179939 0.210942417
v 0.455724388 -0.141799435 0.455724359
v 0.5 -0.141799435 0.49999994
v -0.5 -0.141799435 0.49999994
v -0.455724388 -0.141799435 0.455724359
v -0.210942432 0.499999344 -0.210942358
v -0.166666865 0.499999344 -0.166666791
v -0.5 0.499999344 -0.166666791
v -0.455724388 0.499999344 -0.210942358
v -0.455724388 0.184139147 0.122390695
v -0.5 0.184139147 0.166666269
v -0.5 0.184139207 -0.166666836
v -0.455724388 0.184139192 -0.122391246
v 0.122390665 0.184139147 0.122390695
v 0.166666254 0.184139147 0.166666269
v -0.5 0.184139147 0.166666269
v -0.455724388 0.184139147 0.122390695
v -0.455724388 -0.14179939 0.210942417
v -0.5 -0.14179939 0.166666836
v 0.166666865 -0.14179939 0.166666836
v 0.210942432 -0.14179939 0.210942417
v -0.455724388 0.499999344 -0.210942358
v -0.5 0.499999344 -0.166666791
v -0.5 0.499999374 -0.499999911
v -0.455724388 0.499999374 -0.455724329
v -0.455724388 0.184139192 -0.122391246
v -0.5 0.184139207 -0.166666836
v -0.166666865 0.184139207 -0.166666836
v -0.122391276 0.184139192 -0.122391246
v 0.210942432 -0.14179939 0.210942417
v 0.166666865 -0.14179939 0.166666836
v 0.166666865 -0.141799286 -0.5
v 0.210942432 -0.141799286 -0.455724388
v 0.455724388 -0.141799286 -0.455724388
v 0.5 -0.141799286 -0.5
v 0.5 -0.141799435 0.49999994
v 0.455724388 -0.141799435 0.455724359
v 0.210942432 -0.141799286 -0.455724388
v 0.166666865 -0.141799286 -0.5
v 0.5 -0.141799286 -0.5
v 0.455724388 -0.141799286 -0.455724388
v -0.455724388 0.499999374 -0.455724329
v -0.5 0.499999374 -0.499999911
v -0.166666865 0.499999374 -0.499999911
v -0.210942432 0.499999374 -0.455724329
v -0.122391276 0.184139192 -0.122391246
v -0.166666865 0.184139207 -0.166666836
v -0.166666865 0.184139252 -0.49999994
v -0.122391276 0.184139252 -0.455724359
v -0.122391276 0.184139252 -0.455724359
v -0.166666865 0.184139252 -0.49999994
v 0.166666254 0.184139252 -0.49999994
v 0.122390665 0.184139252 -0.455724359
v -0.210942432 0.499999374 -0.455724329
v -0.166666865 0.499999374 -0.499999911
v -0.166666865 0.499999344 -0.166666791
v -0.210942432 0.499999344 -0.210942358
v 0.122390665 0.184139252 -0.455724359
v 0.166666254 0.184139252 -0.49999994
v 0.166666254 0.184139147 0.166666269
v 0.122390665 0.184139147 0.122390695
vt 0.92307663 0.0576168709
vt 0.959558785 0.0576168709
vt 0.92307663 0.0230154879
vt 0.934692562 0.0899442062
vt 0.912922621 0.0899442062
vt 0.912922621 0.071232982
vt 0.92307663 0.0576168709
vt 0.959558785 0.0576168709
vt 0.959558785 0.0230154973
vt 0.91292274 0.0899438187
vt 0.9129228 0.071232602
vt 0.934692562 0.071232602
vt 0.103910752 0.191338658
vt 0.124487668 0.191338688
vt 0.124487668 0.339729846
vt 0.103910752 0.339729846
vt 0.103910953 0.0429473594
vt 0.124487564 0.0429473594
vt 0.124487504 0.488121092
vt 0.103910662 0.488121033
vt 0.842693686 0.0486638248
vt 0.842693806 0.0400334895
vt 0.852133393 0.0400334895
vt 0.852133393 0.0486638248
vt 0.823273659 0.0581617653
vt 0.823273361 0.0731042624
vt 0.839038968 0.0731042624
vt 0.839039207 0.0581617579
vt 0.842688203 0.0486906767
vt 0.842688203 0.0399682522
vt 0.875969172 0.0399682522
vt 0.875969112 0.0486906767
vt 0.823298454 0.0581367612
vt 0.823298454 0.0731292665
vt 0.870545208 0.0731292665
vt 0.870545268 0.0581367612
vt 0.103910699 0.191338688
vt 0.124487564 0.191338688
vt 0.124487609 0.339729846
vt 0.103910752 0.339729846
vt 0.103910744 0.339729905
vt 0.124487624 0.339729935
vt 0.124487624 0.191338748
vt 0.103910767 0.191338748
vt 0.8760252 0.0485675335
vt 0.8760252 0.0399362147
vt 0.854700327 0.0399362147
vt 0.854700327 0.0485675633
vt 0.823276401 0.0581193268
vt 0.823276401 0.0735271275
vt 0.85479176 0.0735271052
vt 0.85479176 0.0581193641
vt 0.99398303 0.0899438187
vt 0.912922621 0.0899442062
vt 0.912922621 0.071232982
vt 0.972213209 0.071232602
vt 0.124487713 0.191338658
vt 0.124487668 0.339729846
vt 0.103910863 0.339729846
vt 0.103910863 0.191338658
vt 0.964337766 0.0899438187
vt 0.912922621 0.0899441838
vt 0.912922621 0.071232982
vt 0.942567945 0.071232602
vt 0.124487445 0.339729309
vt 0.124487445 0.0429475382
vt 0.103910357 0.0429475382
vt 0.103910595 0.339729309
vt 0.9129228 0.071232602
vt 0.9129228 0.0899438187
vt 0.99398303 0.0899438187
vt 0.972213209 0.071232602
vt 0.103910767 0.339729846
vt 0.124487668 0.339729846
vt 0.124487653 0.191338658
vt 0.103910767 0.191338658
vt 0.103911042 0.488122404
vt 0.124487713 0.488122404
vt 0.124487683 0.0429475382
vt 0.103910729 0.0429475382
vt 0.852133393 0.0486638248
vt 0.852133393 0.0400334895
vt 0.842693746 0.0400334895
vt 0.842693746 0.0486638248
vt 0.823298454 0.0581367612
vt 0.823298454 0.0731292665
vt 0.870545208 0.0731292665
vt 0.870545268 0.0581367612
vt 0.875969112 0.0486906767
vt 0.875969112 0.0399682522
vt 0.842688203 0.0399682522
vt 0.842688143 0.0486906767
vt 0.103910848 0.339729905
vt 0.124487653 0.339729905
vt 0.124487653 0.191338688
vt 0.103910796 0.191338688
vt 0.103910796 0.339729935
vt 0.124487653 0.339729905
vt 0.124487653 0.191338658
vt 0.103910767 0.191338658
vt 0.91292274 0.071232602
vt 0.91292274 0.0899437964
vt 0.964337766 0.0899438187
vt 0.942567945 0.071232602
vt 0.103910752 0.191338658
vt 0.124487609 0.191338658
vt 0.124487668 0.339729846
vt 0.103910804 0.339729846
vt 0.10391058 0.339729309
vt 0.124487668 0.339729369
vt 0.124487683 0.0429475382
vt 0.103910848 0.0429475382
vt 0.854700327 0.0485675633
vt 0.854700327 0.0399362147
vt 0.87602514 0.0399362147
vt 0.8760252 0.0485675633
vt 0.854804575 0.0731042624
vt 0.870570183 0.0731042624
vt 0.870570362 0.0581617355
vt 0.854804754 0.058161743
vt 0.83903414 0.0735271201
vt 0.87054944 0.0735270977
vt 0.87054944 0.0581193864
vt 0.839034081 0.0581193492
vt 0.0842004046 0.21104905
vt 0.103910752 0.191338658
vt 0.103910752 0.339729846
vt 0.0842004269 0.320019513
vt 0.0842003077 0.0626579598
vt 0.103910953 0.0429473594
vt 0.103910662 0.488121033
vt 0.0842003003 0.468410671
vt 0.0842005089 0.21104899
vt 0.103910863 0.191338658
vt 0.103910863 0.339729846
vt 0.0842005089 0.320019484
vt 0.0842004418 0.320019633
vt 0.103910744 0.339729905
vt 0.103910767 0.191338748
vt 0.0842004195 0.21104911
vt 0.0842003003 0.320019126
vt 0.103910595 0.339729309
vt 0.103910357 0.0429475382
vt 0.0842000321 0.0626579002
vt 0.123620808 0.0626558438
vt 0.103910461 0.0429455712
vt 0.103910461 0.339728117
vt 0.123620808 0.359438419
vt 0.0842003673 0.21104899
vt 0.103910699 0.191338688
vt 0.103910752 0.339729846
vt 0.0842003673 0.320019513
vt 0.103910744 0.191338539
vt 0.0842003897 0.171628267
vt 0.0842003897 0.320019513
vt 0.103910744 0.339729816
vt 0.103910461 0.0429455712
vt 0.084200114 0.0626559332
vt 0.0842000544 0.35943827
vt 0.103910439 0.339727879
vt 0.0842008591 0.46841234
vt 0.103911042 0.488122404
vt 0.103910729 0.0429475382
vt 0.0842003077 0.0626579598
vt 0.0842004046 0.320019513
vt 0.103910767 0.339729846
vt 0.103910767 0.191338658
vt 0.0842004269 0.21104905
vt 0.0842004716 0.320019573
vt 0.103910848 0.339729905
vt 0.103910796 0.191338688
vt 0.0842004195 0.21104908
vt 0.103910804 0.339729846
vt 0.0842004865 0.320019513
vt 0.0842004865 0.171628267
vt 0.103910863 0.191338658
vt 0.0842004567 0.211048961
vt 0.103910752 0.191338658
vt 0.103910804 0.339729846
vt 0.0842004567 0.320019484
vt 0.084200494 0.320019662
vt 0.103910796 0.339729935
vt 0.103910767 0.191338658
vt 0.0842004418 0.21104908
vt 0.0842003003 0.320019126
vt 0.10391058 0.339729309
vt 0.103910848 0.0429475382
vt 0.0842004865 0.0626578405
vn -0 -1 -1.78813934E-07
vn -0 -1 -1.78813934E-07
vn -0 -1 -1.78813934E-07
vn -0 1 2.43500978E-07
vn -0 1 2.43501006E-07
vn -0 1 2.43500978E-07
vn -0 -1 -1.78813934E-07
vn -0 -1 -1.78813934E-07
vn -0 -1 -1.78813934E-07
vn -0 1 2.43500978E-07
vn -0 1 2.43500921E-07
vn -0 1 2.43500978E-07
vn -1 0 0
vn -1 0 0
vn -1 0 0
vn -1 0 0
vn -0 0 1
vn -0 0 1
vn -0 0 1
vn -0 0 1
vn -1 0 0
vn -1 0 0
vn -1 0 0
vn -1 0 0
vn -0 -1.41529441E-07 1
vn -0 -1.41529441E-07 1
vn -0 -1.41529441E-07 1
vn -0 -1.41529441E-07 1
vn -1 0 0
vn -1 0 0
vn -1 0 0
vn -1 0 0
vn -0 -1.9105326E-07 1
vn -0 -1.9105326E-07 1
vn -0 -1.9105326E-07 1
vn -0 -1.9105326E-07 1
vn -1 0 0
vn -1 0 0
vn -1 0 0
vn -1 0 0
vn -1 0 0
vn -1 0 0
vn -1 0 0
vn -1 0 0
vn -1 0 0
vn -1 0 0
vn -1 0 0
vn -1 0 0
vn -0 1.64583764E-06 1
vn -0 1.64583764E-06 1
vn -0 1.64583764E-06 1
vn -0 1.64583764E-06 1
vn -0 1 1.71573063E-07
vn -0 1 1.82625712E-07
vn -0 1 1.82625712E-07
vn -0 1 1.71573063E-07
vn -0 0 1
vn -0 0 1
vn -0 0 1
vn -0 0 1
vn -0 1 1.42619655E-07
vn -0 1 1.21750489E-07
vn -0 1 1.21750489E-07
vn -0 1 1.42619655E-07
vn -0 0 1
vn -0 0 1
vn -0 0 1
vn -0 0 1
vn -0 1 1.60520415E-07
vn -0 1 1.60520415E-07
vn -0 1 1.71573063E-07
vn -0 1 1.71573063E-07
vn -0 9.6714632E-07 -1
vn -0 9.6714632E-07 -1
vn -0 9.6714632E-07 -1
vn -0 9.6714632E-07 -1
vn 1 0 0
vn 1 0 0
vn 1 0 0
vn 1 0 0
vn -0 0 -1
vn -0 0 -1
vn -0 0 -1
vn -0 0 -1
vn 1 0 0
vn 1 0 0
vn 1 0 0
vn 1 0 0
vn -0 0 -1
vn -0 0 -1
vn -0 0 -1
vn -0 0 -1
vn -0 9.67146661E-07 -1
vn -0 9.67146661E-07 -1
vn -0 9.67146661E-07 -1
vn -0 9.67146661E-07 -1
vn 1 0 0
vn 1 0 0
vn 1 0 0
vn 1 0 0
vn -0 1 1.63488835E-07
vn -0 1 1.63488835E-07
vn -0 1 1.42619655E-07
vn -0 1 1.42619655E-07
vn -0 0 -1
vn -0 0 -1
vn -0 0 -1
vn -0 0 -1
vn 1 0 0
vn 1 0 0
vn 1 0 0
vn 1 0 0
vn -0 2.74306274E-07 -1
vn -0 2.74306274E-07 -1
vn -0 2.74306274E-07 -1
vn -0 2.74306274E-07 -1
vn 1 0 0
vn 1 0 0
vn 1 0 0
vn 1 0 0
vn 1 1.87442561E-06 0
vn 1 1.87442561E-06 0
vn 1 1.87442561E-06 0
vn 1 1.87442561E-06 0
vn -0 1 0
vn -0 1 0
vn -0 1 0
vn -0 1 0
vn -0 1 0
vn -0 1 0
vn -0 1 0
vn -0 1 0
vn -5.82158862E-07 1 1.03101684E-07
vn -5.82158918E-07 1 1.03101705E-07
vn 5.82158918E-07 1 1.03101705E-07
vn 5.82158862E-07 1 1.03101684E-07
vn 1.4553973E-07 1 2.45603616E-07
vn 1.4553973E-07 1 2.45603616E-07
vn 1.45539744E-07 1 2.45603673E-07
vn 1.4553973E-07 1 2.45603644E-07
vn 2.70372652E-07 1 2.46088291E-07
vn 2.70372652E-07 1 2.46088263E-07
vn 1.4553973E-07 1 2.45603616E-07
vn 1.4553973E-07 1 2.45603616E-07
vn -0 1 0
vn -0 1 0
vn -1.26208036E-07 1 0
vn -1.2620805E-07 1 0
vn 5.82158862E-07 1 1.03101684E-07
vn 5.82158918E-07 1 1.03101705E-07
vn 5.82158918E-07 1 1.03101705E-07
vn 5.82158862E-07 1 1.03101684E-07
vn 1.4553973E-07 1 2.45603644E-07
vn 1.45539744E-07 1 2.45603673E-07
vn -1.2620815E-07 1 2.46508534E-07
vn -1.26208164E-07 1 2.46508591E-07
vn -1.2620805E-07 1 0
vn -1.26208036E-07 1 0
vn -1.26208036E-07 1 0
vn -1.26208036E-07 1 0
vn -0 1 0
vn -0 1 0
vn -0 1 0
vn -0 1 0
vn -1.26208036E-07 1 0
vn -1.26208036E-07 1 0
vn -0 1 0
vn -0 1 0
vn 5.82158862E-07 1 1.03101684E-07
vn 5.82158918E-07 1 1.03101705E-07
vn -5.82158918E-07 1 1.03101705E-07
vn -5.82158862E-07 1 1.03101684E-07
vn -1.26208164E-07 1 2.46508591E-07
vn -1.2620815E-07 1 2.46508534E-07
vn -1.2620815E-07 1 0
vn -1.2620815E-07 1 0
vn -1.2620815E-07 1 0
vn -1.2620815E-07 1 0
vn 2.70372652E-07 1 0
vn 2.70372652E-07 1 0
vn -5.82158862E-07 1 1.03101684E-07
vn -5.82158918E-07 1 1.03101705E-07
vn -5.82158918E-07 1 1.03101705E-07
vn -5.82158862E-07 1 1.03101684E-07
vn 2.70372652E-07 1 0
vn 2.70372652E-07 1 0
vn 2.70372652E-07 1 2.46088263E-07
vn 2.70372652E-07 1 2.46088291E-07
g Stairs_CorrugatedSteel_Corner_0
f 3/3/3 2/2/2 1/1/1
f 6/6/6 5/5/5 4/4/4
f 9/9/9 8/8/8 7/7/7
f 12/12/12 11/11/11 10/10/10
f 15/15/15 14/14/14 13/13/13
f 16/16/16 15/15/15 13/13/13
f 19/19/19 18/18/18 17/17/17
f 20/20/20 19/19/19 17/17/17
f 23/23/23 22/22/22 21/21/21
f 24/24/24 23/23/23 21/21/21
f 27/27/27 26/26/26 25/25/25
f 28/28/28 27/27/27 25/25/25
f 31/31/31 30/30/30 29/29/29
f 32/32/32 31/31/31 29/29/29
f 35/35/35 34/34/34 33/33/33
f 36/36/36 35/35/35 33/33/33
f 39/39/39 38/38/38 37/37/37
f 40/40/40 39/39/39 37/37/37
f 43/43/43 42/42/42 41/41/41
f 44/44/44 43/43/43 41/41/41
f 47/47/47 46/46/46 45/45/45
f 48/48/48 47/47/47 45/45/45
f 51/51/51 50/50/50 49/49/49
f 52/52/52 51/51/51 49/49/49
f 55/55/55 54/54/54 53/53/53
f 56/56/56 55/55/55 53/53/53
f 59/59/59 58/58/58 57/57/57
f 60/60/60 59/59/59 57/57/57
f 63/63/63 62/62/62 61/61/61
f 64/64/64 63/63/63 61/61/61
f 67/67/67 66/66/66 65/65/65
f 68/68/68 67/67/67 65/65/65
f 71/71/71 70/70/70 69/69/69
f 72/72/72 71/71/71 69/69/69
f 75/75/75 74/74/74 73/73/73
f 76/76/76 75/75/75 73/73/73
f 79/79/79 78/78/78 77/77/77
f 80/80/80 79/79/79 77/77/77
f 83/83/83 82/82/82 81/81/81
f 84/84/84 83/83/83 81/81/81
f 87/87/87 86/86/86 85/85/85
f 88/88/88 87/87/87 85/85/85
f 91/91/91 90/90/90 89/89/89
f 92/92/92 91/91/91 89/89/89
f 95/95/95 94/94/94 93/93/93
f 96/96/96 95/95/95 93/93/93
f 99/99/99 98/98/98 97/97/97
f 100/100/100 99/99/99 97/97/97
f 103/103/103 102/102/102 101/101/101
f 104/104/104 103/103/103 101/101/101
f 107/107/107 106/106/106 105/105/105
f 108/108/108 107/107/107 105/105/105
f 111/111/111 110/110/110 109/109/109
f 112/112/112 111/111/111 109/109/109
f 115/115/115 114/114/114 113/113/113
f 116/116/116 115/115/115 113/113/113
f 119/119/119 118/118/118 117/117/117
f 120/120/120 119/119/119 117/117/117
f 123/123/123 122/122/122 121/121/121
f 124/124/124 123/123/123 121/121/121
f 127/127/127 126/126/126 125/125/125
f 128/128/128 127/127/127 125/125/125
f 131/131/131 130/130/130 129/129/129
f 132/132/132 131/131/131 129/129/129
f 135/135/135 134/134/134 133/133/133
f 136/136/136 135/135/135 133/133/133
f 139/139/139 138/138/138 137/137/137
f 140/140/140 139/139/139 137/137/137
f 143/143/143 142/142/142 141/141/141
f 144/144/144 143/143/143 141/141/141
f 147/147/147 146/146/146 145/145/145
f 148/148/148 147/147/147 145/145/145
f 151/151/151 150/150/150 149/149/149
f 152/152/152 151/151/151 149/149/149
f 155/155/155 154/154/154 153/153/153
f 156/156/156 155/155/155 153/153/153
f 159/159/159 158/158/158 157/157/157
f 160/160/160 159/159/159 157/157/157
f 163/163/163 162/162/162 161/161/161
f 164/164/164 163/163/163 161/161/161
f 167/167/167 166/166/166 165/165/165
f 168/168/168 167/167/167 165/165/165
f 171/171/171 170/170/170 169/169/169
f 172/172/172 171/171/171 169/169/169
f 175/175/175 174/174/174 173/173/173
f 176/176/176 175/175/175 173/173/173
f 179/179/179 178/178/178 177/177/177
f 180/180/180 179/179/179 177/177/177
f 183/183/183 182/182/182 181/181/181
f 184/184/184 183/183/183 181/181/181
f 187/187/187 186/186/186 185/185/185
f 188/188/188 187/187/187 185/185/185
