g MS_RoofInnerCorner
v 0.5 -0.375 0.5
v -0.375 0.5 0.5
v -0.375 0.5 -0.375
v 0.5 0.5 -0.375
v 0.5 -0.375 0.5
v -0.375 0.5 -0.375
v 0.5 -0.5 -0.5
v 0.5 -0.5 0.375
v 0.5 0.375 -0.5
v 0.375 -0.5 0.5
v -0.5 -0.5 0.5
v -0.5 0.375 0.5
v -0.5 0.5 -0.5
v -0.5 0.5 0.5
v -0.5 0.375 0.5
v -0.5 -0.5 -0.5
v -0.5 -0.5 0.5
v -0.375 0.5 0.5
v 0.5 -0.375 0.5
v 0.5 -0.5 0.5
v 0.375 -0.5 0.5
v -0.5 0.375 0.5
v -0.5 0.5 0.5
v 0.5 0.375 -0.5
v 0.5 0.5 -0.5
v -0.5 0.5 -0.5
v 0.5 -0.5 -0.5
v -0.5 -0.5 -0.5
v 0.5 0.375 -0.5
v 0.5 -0.5 0.375
v 0.5 -0.5 0.5
v 0.5 -0.375 0.5
v 0.5 0.5 -0.375
v 0.5 0.5 -0.5
v 0.375 -0.5 0.5
v 0.5 -0.5 0.5
v 0.5 -0.5 0.375
v 0.375 -0.5 0.375
v -0.5 0.5 0.5
v -0.5 0.5 -0.5
v -0.375 0.5 -0.375
v -0.375 0.5 0.5
v 0.5 0.5 -0.5
v 0.5 0.5 -0.375
v -0.375 0.5 -0.375
v -0.5 0.5 -0.5
v 0.5 -0.5 0.375
v 0.5 -0.5 -0.5
v -0.5 -0.5 -0.5
v 0.375 -0.5 0.375
v -0.5 -0.5 0.5
v 0.375 -0.5 0.5
v -0.280827016 0.5 -0.165446773
v -0.374998778 0.5 -0.0832434073
v -0.374998778 0.5 -0.3332434
v -0.280827016 0.5 -0.251040041
v -0.374998778 0.5 -0.0832434073
v -0.280827016 0.5 -0.165446773
v -0.18245849 0.401631564 -0.165446758
v -0.100256346 0.225256681 -0.0832433999
v -0.280827016 0.5 -0.165446773
v -0.280827016 0.5 -0.251040041
v -0.268052369 0.487225026 -0.251040012
v -0.18245849 0.401631564 -0.165446758
v -0.280827016 0.5 -0.251040041
v -0.374998778 0.5 -0.3332434
v -0.350255728 0.475257218 -0.33324337
v -0.268052369 0.487225026 -0.251040012
v -0.280827016 0.5 0.292796612
v -0.374998778 0.5 0.375
v -0.374998778 0.5 0.125
v -0.280827016 0.5 0.207203358
v -0.374998778 0.5 0.375
v -0.280827016 0.5 0.292796612
v 0.27578491 -0.0566124916 0.292796612
v 0.357987046 -0.232988626 0.375
v -0.280827016 0.5 0.292796612
v -0.280827016 0.5 0.207203358
v 0.190191641 0.0289809611 0.207203358
v 0.27578491 -0.0566124916 0.292796612
v -0.280827016 0.5 0.207203358
v -0.374998778 0.5 0.125
v 0.107987672 0.0170118716 0.125
v 0.190191641 0.0289809611 0.207203358
v -0.100256346 0.225256681 -0.0832433999
v -0.18245849 0.401631564 -0.165446758
v -0.268052369 0.487225026 -0.251040012
v -0.350255728 0.475257218 -0.33324337
v 0.357987046 -0.232988626 0.375
v 0.27578491 -0.0566124916 0.292796612
v 0.190191641 0.0289809611 0.207203358
v 0.107987672 0.0170118716 0.125
v -0.165446773 0.5 -0.280827016
v -0.3332434 0.5 -0.374998629
v -0.0832434073 0.5 -0.374998629
v -0.251040041 0.5 -0.280827016
v -0.0832434073 0.5 -0.374998629
v -0.0832434073 0.225256681 -0.100256391
v -0.165446773 0.401631564 -0.182458743
v -0.165446773 0.5 -0.280827016
v -0.165446773 0.5 -0.280827016
v -0.165446773 0.401631564 -0.182458743
v -0.251040041 0.487225026 -0.268052071
v -0.251040041 0.5 -0.280827016
v -0.251040041 0.5 -0.280827016
v -0.251040041 0.487225026 -0.268052071
v -0.3332434 0.475257218 -0.350255907
v -0.3332434 0.5 -0.374998629
v 0.292796612 0.5 -0.280827016
v 0.125 0.5 -0.374998629
v 0.375 0.5 -0.374998629
v 0.207203358 0.5 -0.280827016
v 0.375 0.5 -0.374998629
v 0.375 -0.232988626 0.357987136
v 0.292796612 -0.0566124916 0.275784761
v 0.292796612 0.5 -0.280827016
v 0.292796612 0.5 -0.280827016
v 0.292796612 -0.0566124916 0.275784761
v 0.207203358 0.0289809611 0.190191418
v 0.207203358 0.5 -0.280827016
v 0.207203358 0.5 -0.280827016
v 0.207203358 0.0289809611 0.190191418
v 0.125 0.0170118716 0.107987612
v 0.125 0.5 -0.374998629
v -0.0832434073 0.225256681 -0.100256391
v -0.3332434 0.475257218 -0.350255907
v -0.251040041 0.487225026 -0.268052071
v -0.165446773 0.401631564 -0.182458743
v 0.375 -0.232988626 0.357987136
v 0.125 0.0170118716 0.107987612
v 0.207203358 0.0289809611 0.190191418
v 0.292796612 -0.0566124916 0.275784761
vt 0.465891153 0.249264583
vt 0.465891153 0.613438249
vt 0.731879592 0.613438249
vt 0.465891153 0.613438249
vt 0.465891153 0.249264583
vt 0.731879592 0.613438249
vt 0.848795772 0.0465707779
vt 0.848795772 0.0491803885
vt 0.851405263 0.0465707779
vt 0.846147537 0.0465707779
vt 0.846147537 0.0491803885
vt 0.848757148 0.0491803885
vt 0.848130107 0.0465457141
vt 0.848130107 0.043563351
vt 0.84775722 0.043563351
vt 0.84514761 0.0465457141
vt 0.84514761 0.043563351
vt 0.399898231 0.0556559265
vt 0.0393269658 0.0556558669
vt 0.0135723948 0.0311478823
vt 0.0393274426 0.00732012093
vt 0.399897754 0.00732013583
vt 0.425652385 0.031147927
vt 0.848546028 0.043563351
vt 0.848173261 0.043563351
vt 0.848173261 0.0465457439
vt 0.851155639 0.043563351
vt 0.851155639 0.0465457439
vt 0.0393269658 0.0556558669
vt 0.399898231 0.0556559265
vt 0.425652385 0.031147927
vt 0.399897754 0.00732013583
vt 0.0393274426 0.00732012093
vt 0.0135723948 0.0311478823
vt 0.838102579 0.286312819
vt 0.881259084 0.286312521
vt 0.881259203 0.329469025
vt 0.838102579 0.329469085
vt 0.79143858 0.0475780368
vt 0.502451539 0.0475780368
vt 0.538574278 0.00974553823
vt 0.79143858 0.00974577665
vt 0.502451301 0.0475780368
vt 0.50245136 0.00974553823
vt 0.755315125 0.00974556804
vt 0.791438699 0.0475780368
vt 0.949725509 0.0451227129
vt 0.949758887 0.0451227129
vt 0.949758887 0.0450848937
vt 0.949725628 0.0451179855
vt 0.949720979 0.0450848937
vt 0.949720979 0.0451179743
vt 0.0904022306 0.556324542
vt 0.131776586 0.622703731
vt 0.00632519275 0.622703731
vt 0.0474892147 0.556421936
vt 0.12932685 0.992430687
vt 0.0824478418 0.962825
vt 0.0824478418 0.922826111
vt 0.12932685 0.878686547
vt 0.0824478418 0.962825
vt 0.0551311895 0.962825
vt 0.0551311895 0.957630396
vt 0.0824478418 0.922826111
vt 0.0551311895 0.962825
vt 0.00652889907 0.992133677
vt 0.00652889907 0.981890082
vt 0.0551311895 0.957630396
vt 0.0904022306 0.556324542
vt 0.131776586 0.622703731
vt 0.00632519275 0.622703731
vt 0.0474892147 0.556421936
vt 0.12932685 0.992430687
vt 0.0824478418 0.962825
vt 0.0824478418 0.736493468
vt 0.12932685 0.688972175
vt 0.0824478418 0.962825
vt 0.0551311895 0.962825
vt 0.0551311895 0.771297753
vt 0.0824478418 0.736493468
vt 0.0551311895 0.962825
vt 0.00652889907 0.992133677
vt 0.00652889907 0.792175591
vt 0.0551311895 0.771297753
vt 0.12932685 0.878686547
vt 0.0824478418 0.922826111
vt 0.0551311895 0.957630396
vt 0.00652889907 0.981890082
vt 0.12932685 0.688972175
vt 0.0824478418 0.736493468
vt 0.0551311895 0.771297753
vt 0.00652889907 0.792175591
vt 0.0904022306 0.556324542
vt 0.00632519275 0.622703731
vt 0.131776586 0.622703731
vt 0.0474892147 0.556421936
vt 0.12932685 0.992430687
vt 0.12932685 0.878686547
vt 0.0824478418 0.922826111
vt 0.0824478418 0.962825
vt 0.0824478418 0.962825
vt 0.0824478418 0.922826111
vt 0.0551311895 0.957630396
vt 0.0551311895 0.962825
vt 0.0551311895 0.962825
vt 0.0551311895 0.957630396
vt 0.00652889907 0.981890082
vt 0.00652889907 0.992133677
vt 0.0904022306 0.556324542
vt 0.00632519275 0.622703731
vt 0.131776586 0.622703731
vt 0.0474892147 0.556421936
vt 0.12932685 0.992430687
vt 0.12932685 0.688972175
vt 0.0824478418 0.736493468
vt 0.0824478418 0.962825
vt 0.0824478418 0.962825
vt 0.0824478418 0.736493468
vt 0.0551311895 0.771297753
vt 0.0551311895 0.962825
vt 0.0551311895 0.962825
vt 0.0551311895 0.771297753
vt 0.00652889907 0.792175591
vt 0.00652889907 0.992133677
vt 0.12932685 0.878686547
vt 0.00652889907 0.981890082
vt 0.0551311895 0.957630396
vt 0.0824478418 0.922826111
vt 0.12932685 0.688972175
vt 0.00652889907 0.792175591
vt 0.0551311895 0.771297753
vt 0.0824478418 0.736493468
vn 0.707106769 0.707106769 0
vn 0.707106769 0.707106769 0
vn 0.707106769 0.707106769 0
vn -0 0.707106769 0.707106769
vn -0 0.707106769 0.707106769
vn -0 0.707106769 0.707106769
vn 1 0 0
vn 1 0 0
vn 1 0 0
vn -0 0 1
vn -0 0 1
vn -0 0 1
vn -1 0 0
vn -1 0 0
vn -1 0 0
vn -1 0 0
vn -1 0 0
vn -0 0 1
vn -0 0 1
vn -0 0 1
vn -0 0 1
vn -0 0 1
vn -0 0 1
vn -0 0 -1
vn -0 0 -1
vn -0 0 -1
vn -0 0 -1
vn -0 0 -1
vn 1 0 0
vn 1 0 0
vn 1 0 0
vn 1 0 0
vn 1 0 0
vn 1 0 0
vn -0 -1 0
vn -0 -1 0
vn -0 -1 0
vn -0 -1 0
vn -0 1 0
vn -0 1 0
vn -0 1 0
vn -0 1 0
vn -0 1 0
vn -0 1 0
vn -0 1 0
vn -0 1 0
vn -0 -1 0
vn -0 -1 0
vn -0 -1 0
vn -0 -1 0
vn -0 -1 0
vn -0 -1 0
vn -0 1 0
vn -0 1 0
vn -0 1 0
vn -0 1 0
vn 0.54945153 0.549449146 0.629451156
vn 0.54945153 0.549449027 0.629451036
vn 0.54945153 0.549449146 0.629451096
vn 0.54945153 0.549449146 0.629451156
vn 0.707104445 0.707109094 -2.268353E-06
vn 0.707104445 0.707109094 -2.26835277E-06
vn 0.707104445 0.707109034 -2.26835277E-06
vn 0.707104445 0.707109094 -2.26835255E-06
vn 0.549458206 0.549440145 -0.629453063
vn 0.549458206 0.549440145 -0.629453123
vn 0.549458206 0.549440145 -0.629453063
vn 0.549458146 0.549440205 -0.629453123
vn -0 1 0
vn -0 1 0
vn -0 1 0
vn -0 1 0
vn 0.54945004 0.549448192 0.629453301
vn 0.54945004 0.549448133 0.629453242
vn 0.54945004 0.549448133 0.629453242
vn 0.54945004 0.549448133 0.629453242
vn 0.707106888 0.70710665 3.92534787E-07
vn 0.707106888 0.70710665 3.92534787E-07
vn 0.707106829 0.70710665 3.92534787E-07
vn 0.707106829 0.707106769 3.92534787E-07
vn 0.549450517 0.549448967 -0.629452169
vn 0.549450576 0.549448907 -0.629452109
vn 0.549450576 0.549448907 -0.629452169
vn 0.549450576 0.549448907 -0.629452169
vn 0.707104325 -1.5295007E-05 -0.707109272
vn 0.707104325 -1.5295007E-05 -0.707109213
vn 0.707104325 -1.52950051E-05 -0.707109213
vn 0.707104325 -1.52950088E-05 -0.707109213
vn 0.707104027 -1.31098195E-05 -0.707109451
vn 0.707104027 -1.31098213E-05 -0.707109451
vn 0.707104087 -1.31098195E-05 -0.707109451
vn 0.707104027 -1.31098195E-05 -0.707109451
vn -0 1 0
vn -0 1 0
vn -0 1 0
vn -0 1 0
vn 0.629448593 0.549452245 0.549451172
vn 0.629448652 0.549452245 0.549451232
vn 0.629448712 0.549452245 0.549451232
vn 0.629448593 0.549452245 0.549451232
vn -0 0.707105398 0.70710814
vn -0 0.707105398 0.70710814
vn -0 0.707105398 0.70710814
vn -0 0.707105398 0.70710814
vn -0.629448473 0.549451828 0.549451828
vn -0.629448533 0.549451768 0.549451768
vn -0.629448533 0.549451768 0.549451768
vn -0.629448473 0.549451828 0.549451828
vn -0 1 0
vn -0 1 0
vn -0 1 0
vn -0 1 0
vn 0.629451931 0.549449384 0.549450219
vn 0.629451931 0.549449444 0.549450338
vn 0.62945199 0.549449384 0.549450278
vn 0.629451931 0.549449384 0.549450219
vn -0 0.707107723 0.707105815
vn -0 0.707107723 0.707105815
vn -0 0.707107782 0.707105696
vn -0 0.707107723 0.707105815
vn -0.629450679 0.549450755 0.549450397
vn -0.629450679 0.549450755 0.549450338
vn -0.629450679 0.549450755 0.549450397
vn -0.629450619 0.549450755 0.549450338
vn -0.707108915 -8.74000125E-06 0.707104683
vn -0.707108974 -8.74000034E-06 0.707104564
vn -0.707108915 -8.74000034E-06 0.707104564
vn -0.707108915 -8.74000034E-06 0.707104564
vn -0.707109094 0 0.707104445
vn -0.707109153 0 0.707104325
vn -0.707109094 0 0.707104385
vn -0.707109153 0 0.707104325
g MS_RoofInnerCorner_0
f 3/3/3 2/2/2 1/1/1
f 6/6/6 5/5/5 4/4/4
f 9/9/9 8/8/8 7/7/7
f 12/12/12 11/11/11 10/10/10
f 15/15/15 14/14/14 13/13/13
f 13/13/13 16/16/16 15/15/15
f 16/16/16 17/17/17 15/15/15
f 20/20/20 19/19/19 18/18/18
f 18/18/18 21/21/21 20/20/20
f 18/18/18 22/22/22 21/21/21
f 18/18/18 23/23/23 22/22/22
f 26/26/26 25/25/25 24/24/24
f 26/26/26 24/24/24 27/27/27
f 28/28/28 26/26/26 27/27/27
f 31/31/31 30/30/30 29/29/29
f 29/29/29 32/32/32 31/31/31
f 29/29/29 33/33/33 32/32/32
f 29/29/29 34/34/34 33/33/33
f 37/37/37 36/36/36 35/35/35
f 38/38/38 37/37/37 35/35/35
f 41/41/41 40/40/40 39/39/39
f 42/42/42 41/41/41 39/39/39
f 45/45/45 44/44/44 43/43/43
f 46/46/46 45/45/45 43/43/43
f 49/49/49 48/48/48 47/47/47
f 47/47/47 50/50/50 49/49/49
f 50/50/50 51/51/51 49/49/49
f 50/50/50 52/52/52 51/51/51
f 55/55/55 54/54/54 53/53/53
f 55/55/55 53/53/53 56/56/56
f 59/59/59 58/58/58 57/57/57
f 60/60/60 59/59/59 57/57/57
f 63/63/63 62/62/62 61/61/61
f 64/64/64 63/63/63 61/61/61
f 67/67/67 66/66/66 65/65/65
f 68/68/68 67/67/67 65/65/65
f 71/71/71 70/70/70 69/69/69
f 71/71/71 69/69/69 72/72/72
f 75/75/75 74/74/74 73/73/73
f 76/76/76 75/75/75 73/73/73
f 79/79/79 78/78/78 77/77/77
f 80/80/80 79/79/79 77/77/77
f 83/83/83 82/82/82 81/81/81
f 84/84/84 83/83/83 81/81/81
f 87/87/87 86/86/86 85/85/85
f 88/88/88 87/87/87 85/85/85
f 91/91/91 90/90/90 89/89/89
f 92/92/92 91/91/91 89/89/89
f 95/95/95 94/94/94 93/93/93
f 93/93/93 94/94/94 96/96/96
f 99/99/99 98/98/98 97/97/97
f 100/100/100 99/99/99 97/97/97
f 103/103/103 102/102/102 101/101/101
f 104/104/104 103/103/103 101/101/101
f 107/107/107 106/106/106 105/105/105
f 108/108/108 107/107/107 105/105/105
f 111/111/111 110/110/110 109/109/109
f 109/109/109 110/110/110 112/112/112
f 115/115/115 114/114/114 113/113/113
f 116/116/116 115/115/115 113/113/113
f 119/119/119 118/118/118 117/117/117
f 120/120/120 119/119/119 117/117/117
f 123/123/123 122/122/122 121/121/121
f 124/124/124 123/123/123 121/121/121
f 127/127/127 126/126/126 125/125/125
f 128/128/128 127/127/127 125/125/125
f 131/131/131 130/130/130 129/129/129
f 132/132/132 131/131/131 129/129/129
