g Stairs_CorrugatedSteel
v 0.466120452 -0.141798735 0.200546369
v 0.466120452 -0.141798779 0.466120392
v -0.466120452 -0.141798779 0.466120392
v -0.466120452 -0.141798735 0.200546369
v 0.5 -0.141798735 0.166666836
v 0.5 -0.188020796 0.166666836
v 0.5 -0.188020855 0.49999994
v 0.5 -0.141798779 0.49999994
v -0.5 -0.141798779 0.49999994
v -0.5 -0.188020855 0.49999994
v -0.5 -0.188020796 0.166666836
v -0.5 -0.141798735 0.166666836
v 0.5 -0.141798779 0.49999994
v 0.5 -0.188020855 0.49999994
v -0.5 -0.188020855 0.49999994
v -0.5 -0.141798779 0.49999994
v 0.5 0.137917817 -0.49999994
v 0.5 0.453777999 -0.499999911
v -0.5 0.453777999 -0.499999911
v -0.5 0.137917817 -0.49999994
v -0.5 -0.188020721 -0.50000006
v 0.5 -0.188020721 -0.50000006
v 0.5 -0.499999911 -0.50000006
v -0.5 -0.499999911 -0.50000006
v 0.5 0.137917817 -0.49999994
v 0.5 0.137917787 -0.166666836
v 0.5 0.184139863 -0.166666806
v 0.5 0.453777999 -0.499999911
v 0.5 0.453777909 -0.166666791
v -0.5 0.184139863 -0.166666836
v -0.5 0.137917787 -0.166666657
v -0.5 0.137917817 -0.49999994
v -0.5 0.453777999 -0.499999911
v -0.5 0.453777909 -0.166666791
v -0.5 0.453777909 -0.166666791
v 0.5 0.453777909 -0.166666791
v 0.5 0.184139863 -0.166666806
v -0.5 0.184139863 -0.166666836
v -0.5 0.50000006 -0.499999911
v -0.5 0.453777999 -0.499999911
v 0.5 0.453777999 -0.499999911
v 0.5 0.50000006 -0.499999911
v -0.5 -0.50000006 0.499999911
v 0.5 -0.50000006 0.499999911
v 0.5 -0.499999911 -0.50000006
v -0.5 -0.499999911 -0.50000006
v -0.5 -0.188020855 0.49999994
v -0.5 -0.50000006 0.499999911
v -0.5 -0.499999911 -0.50000006
v -0.5 -0.188020721 -0.50000006
v -0.5 -0.188020796 0.166666836
v -0.5 -0.141798735 0.166666836
v -0.5 -0.188020796 0.166666836
v -0.5 0.137917817 -0.49999994
v -0.5 0.137917727 0.166666269
v -0.5 -0.50000006 0.499999911
v -0.5 -0.188020855 0.49999994
v 0.5 -0.188020855 0.49999994
v 0.5 -0.50000006 0.499999911
v 0.5 -0.499999911 -0.50000006
v 0.5 -0.50000006 0.499999911
v 0.5 -0.188020855 0.49999994
v 0.5 -0.188020721 -0.50000006
v 0.5 -0.188020796 0.166666836
v 0.466120452 0.50000006 -0.466120362
v 0.466120452 0.5 -0.200546339
v -0.466120452 0.5 -0.200546339
v -0.466120452 0.50000006 -0.466120362
v 0.5 0.50000006 -0.499999911
v 0.5 0.453777999 -0.499999911
v 0.5 0.453777909 -0.166666791
v 0.5 0.5 -0.166666791
v -0.5 0.5 -0.166666791
v -0.5 0.453777909 -0.166666791
v -0.5 0.453777999 -0.499999911
v -0.5 0.50000006 -0.499999911
v 0.5 0.5 -0.166666791
v 0.5 0.453777909 -0.166666791
v -0.5 0.453777909 -0.166666791
v -0.5 0.5 -0.166666791
v 0.466120452 0.184139863 -0.132787287
v 0.466120452 0.184139803 0.132786736
v -0.466120452 0.184139803 0.132786736
v -0.466120452 0.184139863 -0.132787287
v 0.5 0.184139863 -0.166666806
v 0.5 0.137917787 -0.166666836
v 0.5 0.137917727 0.166666269
v 0.5 0.184139803 0.166666269
v -0.5 0.184139803 0.166666269
v -0.5 0.137917727 0.166666269
v -0.5 0.137917787 -0.166666657
v -0.5 0.184139863 -0.166666836
v 0.5 0.184139803 0.166666269
v 0.5 0.137917727 0.166666269
v -0.5 0.137917727 0.166666269
v -0.5 0.184139803 0.166666269
v 0.5 -0.188020721 -0.50000006
v 0.5 -0.188020796 0.166666836
v 0.5 -0.141798735 0.166666836
v 0.5 0.137917817 -0.49999994
v 0.5 0.137917727 0.166666269
v 0.5 0.137917787 -0.166666836
v -0.5 -0.141798735 0.166666836
v -0.5 0.137917727 0.166666269
v 0.5 0.137917727 0.166666269
v 0.5 -0.141798735 0.166666836
v -0.466120452 -0.141798735 0.200546369
v -0.5 -0.141798735 0.166666836
v 0.5 -0.141798735 0.166666836
v 0.466120452 -0.141798735 0.200546369
v -0.466120452 -0.141798779 0.466120392
v -0.5 -0.141798779 0.49999994
v -0.5 -0.141798735 0.166666836
v -0.466120452 -0.141798735 0.200546369
v 0.466120452 -0.141798779 0.466120392
v 0.5 -0.141798779 0.49999994
v -0.5 -0.141798779 0.49999994
v -0.466120452 -0.141798779 0.466120392
v 0.466120452 -0.141798735 0.200546369
v 0.5 -0.141798735 0.166666836
v 0.5 -0.141798779 0.49999994
v 0.466120452 -0.141798779 0.466120392
v -0.466120452 0.50000006 -0.466120362
v -0.5 0.50000006 -0.499999911
v 0.5 0.50000006 -0.499999911
v 0.466120452 0.50000006 -0.466120362
v -0.466120452 0.5 -0.200546339
v -0.5 0.5 -0.166666791
v -0.5 0.50000006 -0.499999911
v -0.466120452 0.50000006 -0.466120362
v 0.466120452 0.5 -0.200546339
v 0.5 0.5 -0.166666791
v -0.5 0.5 -0.166666791
v -0.466120452 0.5 -0.200546339
v 0.466120452 0.50000006 -0.466120362
v 0.5 0.50000006 -0.499999911
v 0.5 0.5 -0.166666791
v 0.466120452 0.5 -0.200546339
v -0.466120452 0.184139863 -0.132787287
v -0.5 0.184139863 -0.166666836
v 0.5 0.184139863 -0.166666806
v 0.466120452 0.184139863 -0.132787287
v -0.466120452 0.184139803 0.132786736
v -0.5 0.184139803 0.166666269
v -0.5 0.184139863 -0.166666836
v -0.466120452 0.184139863 -0.132787287
v 0.466120452 0.184139803 0.132786736
v 0.5 0.184139803 0.166666269
v -0.5 0.184139803 0.166666269
v -0.466120452 0.184139803 0.132786736
v 0.466120452 0.184139863 -0.132787287
v 0.5 0.184139863 -0.166666806
v 0.5 0.184139803 0.166666269
v 0.466120452 0.184139803 0.132786736
vt 0.94788599 0.0842346251
vt 0.988716841 0.0842346251
vt 0.988716841 0.0425807498
vt 0.94788599 0.0425807498
vt 0.0949543267 0.345595539
vt 0.113186315 0.345595539
vt 0.113186315 0.214114249
vt 0.0949543267 0.214114249
vt 0.0949543267 0.345593929
vt 0.113186315 0.345593929
vt 0.113186315 0.214112699
vt 0.0949543267 0.214112699
vt 0.0949541479 0.468653798
vt 0.113185987 0.468653798
vt 0.113185987 0.0742085651
vt 0.0949539095 0.0742086247
vt 0.819512129 0.0508963466
vt 0.819512129 0.0652947128
vt 0.865096807 0.0652947277
vt 0.865096807 0.0508963466
vt 0.865096807 0.0360385478
vt 0.819512129 0.0360385478
vt 0.819512129 0.0218170881
vt 0.865096807 0.0218170881
vt 0.850425243 0.0517135859
vt 0.83523035 0.0517135859
vt 0.83523035 0.0538206249
vt 0.850425243 0.066111967
vt 0.83523035 0.066111967
vt 0.83041209 0.0344471633
vt 0.828305066 0.0344471335
vt 0.828305066 0.0496420264
vt 0.842703462 0.0496420264
vt 0.842703462 0.0344471633
vt 0.819512129 0.0218170881
vt 0.819512129 0.067401737
vt 0.831803501 0.067401737
vt 0.831803501 0.0218170881
vt 0.0949540883 0.468653858
vt 0.113186017 0.468653858
vt 0.113186017 0.0742085651
vt 0.0949539095 0.0742085651
vt 0.928401768 0.0753992796
vt 0.973986447 0.0753992796
vt 0.973986447 0.0298146326
vt 0.928401768 0.0298146326
vt 0.844537258 0.0701016188
vt 0.858758688 0.0701016039
vt 0.858758688 0.0245169699
vt 0.844537258 0.0245169699
vt 0.844537258 0.0549067408
vt 0.842430234 0.0549067408
vt 0.844537258 0.0549067408
vt 0.82967943 0.0245169699
vt 0.82967943 0.054906711
vt 0.819512129 0.067401737
vt 0.819512129 0.0816231966
vt 0.865096807 0.0816231966
vt 0.865096807 0.067401737
vt 0.865096807 0.0652947277
vt 0.819512129 0.0652947277
vt 0.819512129 0.0795161873
vt 0.865096807 0.0795161873
vt 0.834707022 0.0795161873
vt 0.94788599 0.0842346102
vt 0.988716841 0.0842346251
vt 0.988716841 0.0425807498
vt 0.94788599 0.0425807498
vt 0.0949543267 0.345595419
vt 0.113186315 0.345595539
vt 0.113186315 0.21411413
vt 0.0949542075 0.21411413
vt 0.0949543267 0.345595539
vt 0.113186315 0.345595539
vt 0.113186374 0.214114189
vt 0.0949543864 0.214114249
vt 0.0949542075 0.468653977
vt 0.113186017 0.468653977
vt 0.113186017 0.0742085651
vt 0.0949539095 0.0742086247
vt 0.94788599 0.0842346251
vt 0.988716841 0.0842346251
vt 0.988716841 0.0425807498
vt 0.94788599 0.0425807498
vt 0.0949543267 0.345595539
vt 0.113186315 0.345595539
vt 0.113186315 0.21411413
vt 0.0949542075 0.21411413
vt 0.0949542075 0.345595539
vt 0.113186315 0.345595539
vt 0.113186315 0.214114308
vt 0.0949542075 0.214114249
vt 0.0949541777 0.468653798
vt 0.113185987 0.468653798
vt 0.113186076 0.0742092207
vt 0.0949540287 0.0742092207
vt 0.859679639 0.0472387373
vt 0.829289854 0.0472387373
vt 0.829289854 0.0493457615
vt 0.859679639 0.0620965511
vt 0.829289854 0.0620965511
vt 0.844484746 0.0620965511
vt 0.865773976 0.0712283403
vt 0.865773976 0.0584775656
vt 0.820189297 0.0584775507
vt 0.820189297 0.0712283403
vt 0.0949544758 0.45529002
vt 0.108317897 0.468653381
vt 0.108317897 0.0742083862
vt 0.0949541777 0.0875721648
vt 0.0815906674 0.33223027
vt 0.0949543267 0.345593929
vt 0.0949543267 0.214112699
vt 0.0815906674 0.227476299
vt 0.0815906972 0.455290437
vt 0.0949541479 0.468653798
vt 0.0949539095 0.0742086247
vt 0.0815901905 0.087572284
vt 0.0815906674 0.332231939
vt 0.0949543267 0.345595539
vt 0.0949543267 0.214114249
vt 0.0815906674 0.227477908
vt 0.0815906674 0.455290437
vt 0.0949540883 0.468653858
vt 0.0949539095 0.0742085651
vt 0.0815902501 0.087572284
vt 0.081590727 0.332231998
vt 0.0949543267 0.345595539
vt 0.0949543864 0.214114249
vt 0.081590727 0.227477849
vt 0.0815906674 0.455290437
vt 0.0949542075 0.468653977
vt 0.0949539095 0.0742086247
vt 0.0815902501 0.0875723436
vt 0.081590727 0.332231939
vt 0.0949543267 0.345595419
vt 0.0949542075 0.21411413
vt 0.0815906674 0.22747767
vt 0.0815906972 0.455290437
vt 0.0949541181 0.468653977
vt 0.0949541777 0.0742083862
vt 0.0815905184 0.0875720456
vt 0.0815906674 0.332232058
vt 0.0949542075 0.345595539
vt 0.0949542075 0.214114249
vt 0.0815906674 0.227477789
vt 0.0815906972 0.455290437
vt 0.0949541777 0.468653798
vt 0.0949540287 0.0742092207
vt 0.0815903693 0.0875729993
vt 0.081590727 0.332232058
vt 0.0949543267 0.345595539
vt 0.0949542075 0.21411413
vt 0.0815906078 0.227477789
vn -0 1 1.68327773E-07
vn -0 1 1.68327773E-07
vn -0 1 1.68327773E-07
vn -0 1 1.68327773E-07
vn 1 0 0
vn 1 0 0
vn 1 0 0
vn 1 0 0
vn -1 0 0
vn -1 0 0
vn -1 0 0
vn -1 0 0
vn -0 0 1
vn -0 0 1
vn -0 0 1
vn -0 0 1
vn -0 0 -1
vn -0 0 -1
vn -0 0 -1
vn -0 0 -1
vn -0 0 -1
vn -0 0 -1
vn -0 0 -1
vn -0 0 -1
vn 1 0 0
vn 1 0 0
vn 1 0 0
vn 1 0 0
vn 1 0 0
vn -1 0 0
vn -1 0 0
vn -1 0 0
vn -1 0 0
vn -1 0 0
vn -0 -1.10527132E-07 1
vn -0 -1.10527132E-07 1
vn -0 -1.10527132E-07 1
vn -0 -1.10527132E-07 1
vn -0 6.447641E-07 -1
vn -0 6.447641E-07 -1
vn -0 6.447641E-07 -1
vn -0 6.447641E-07 -1
vn -0 -1 -1.49011612E-07
vn -0 -1 -1.49011612E-07
vn -0 -1 -1.49011612E-07
vn -0 -1 -1.49011612E-07
vn -1 0 0
vn -1 0 0
vn -1 0 0
vn -1 0 0
vn -1 0 0
vn -1 0 0
vn -1 0 0
vn -1 0 0
vn -1 0 0
vn -0 -1.9105326E-07 1
vn -0 -1.9105326E-07 1
vn -0 -1.9105326E-07 1
vn -0 -1.9105326E-07 1
vn 1 0 0
vn 1 0 0
vn 1 0 0
vn 1 0 0
vn 1 0 0
vn -0 1 2.24437031E-07
vn -0 1 2.24437031E-07
vn -0 1 2.24437031E-07
vn -0 1 2.24437031E-07
vn 1 0 0
vn 1 0 0
vn 1 0 0
vn 1 0 0
vn -1 0 0
vn -1 0 0
vn -1 0 0
vn -1 0 0
vn -0 0 1
vn -0 0 1
vn -0 0 1
vn -0 0 1
vn -0 1 2.24437031E-07
vn -0 1 2.24437031E-07
vn -0 1 2.24437031E-07
vn -0 1 2.24437031E-07
vn 1 0 0
vn 1 0 0
vn 1 0 0
vn 1 0 0
vn -1 0 0
vn -1 0 0
vn -1 0 0
vn -1 0 0
vn -0 0 1
vn -0 0 1
vn -0 0 1
vn -0 0 1
vn 1 0 0
vn 1 0 0
vn 1 0 0
vn 1 0 0
vn 1 0 0
vn 1 0 0
vn -0 1.97107806E-06 1
vn -0 1.97107806E-06 1
vn -0 1.97107806E-06 1
vn -0 1.97107806E-06 1
vn -0 1 0
vn -0 1 0
vn -0 1 0
vn -0 1 0
vn -0 1 0
vn -0 1 0
vn -0 1 0
vn -0 1 0
vn -0 1 0
vn -0 1 0
vn -0 1 0
vn -0 1 0
vn -0 1 0
vn -0 1 0
vn -0 1 0
vn -0 1 0
vn -0 1 0
vn -0 1 0
vn -0 1 0
vn -0 1 0
vn -0 1 0
vn -0 1 0
vn -0 1 0
vn -0 1 0
vn -0 1 0
vn -0 1 0
vn -0 1 0
vn -0 1 0
vn -0 1 0
vn -0 1 0
vn -0 1 0
vn -0 1 0
vn 1.85125643E-07 1 0
vn 1.85125643E-07 1 0
vn -0 1 0
vn -0 1 0
vn 1.8359593E-07 1 0
vn 1.83595944E-07 1 0
vn 1.85125643E-07 1 0
vn 1.85125643E-07 1 0
vn -0 1 0
vn -0 1 0
vn 1.83595944E-07 1 0
vn 1.8359593E-07 1 0
vn -0 1 0
vn -0 1 0
vn -0 1 0
vn -0 1 0
g Stairs_CorrugatedSteel_0
f 3/3/3 2/2/2 1/1/1
f 4/4/4 3/3/3 1/1/1
f 7/7/7 6/6/6 5/5/5
f 8/8/8 7/7/7 5/5/5
f 11/11/11 10/10/10 9/9/9
f 12/12/12 11/11/11 9/9/9
f 15/15/15 14/14/14 13/13/13
f 16/16/16 15/15/15 13/13/13
f 19/19/19 18/18/18 17/17/17
f 20/20/20 19/19/19 17/17/17
f 21/21/21 20/20/20 17/17/17
f 22/22/22 21/21/21 17/17/17
f 21/21/21 22/22/22 23/23/23
f 24/24/24 21/21/21 23/23/23
f 27/27/27 26/26/26 25/25/25
f 25/25/25 28/28/28 27/27/27
f 28/28/28 29/29/29 27/27/27
f 32/32/32 31/31/31 30/30/30
f 30/30/30 33/33/33 32/32/32
f 30/30/30 34/34/34 33/33/33
f 37/37/37 36/36/36 35/35/35
f 38/38/38 37/37/37 35/35/35
f 41/41/41 40/40/40 39/39/39
f 42/42/42 41/41/41 39/39/39
f 45/45/45 44/44/44 43/43/43
f 46/46/46 45/45/45 43/43/43
f 49/49/49 48/48/48 47/47/47
f 47/47/47 50/50/50 49/49/49
f 47/47/47 51/51/51 50/50/50
f 50/50/50 53/53/53 52/52/52
f 52/52/52 54/54/54 50/50/50
f 52/52/52 55/55/55 54/54/54
f 58/58/58 57/57/57 56/56/56
f 59/59/59 58/58/58 56/56/56
f 62/62/62 61/61/61 60/60/60
f 60/60/60 63/63/63 62/62/62
f 63/63/63 64/64/64 62/62/62
f 67/67/67 66/66/66 65/65/65
f 68/68/68 67/67/67 65/65/65
f 71/71/71 70/70/70 69/69/69
f 72/72/72 71/71/71 69/69/69
f 75/75/75 74/74/74 73/73/73
f 76/76/76 75/75/75 73/73/73
f 79/79/79 78/78/78 77/77/77
f 80/80/80 79/79/79 77/77/77
f 83/83/83 82/82/82 81/81/81
f 84/84/84 83/83/83 81/81/81
f 87/87/87 86/86/86 85/85/85
f 88/88/88 87/87/87 85/85/85
f 91/91/91 90/90/90 89/89/89
f 92/92/92 91/91/91 89/89/89
f 95/95/95 94/94/94 93/93/93
f 96/96/96 95/95/95 93/93/93
f 99/99/99 98/98/98 97/97/97
f 97/97/97 100/100/100 99/99/99
f 100/100/100 101/101/101 99/99/99
f 100/100/100 102/102/102 101/101/101
f 105/105/105 104/104/104 103/103/103
f 106/106/106 105/105/105 103/103/103
f 109/109/109 108/108/108 107/107/107
f 110/110/110 109/109/109 107/107/107
f 113/113/113 112/112/112 111/111/111
f 114/114/114 113/113/113 111/111/111
f 117/117/117 116/116/116 115/115/115
f 118/118/118 117/117/117 115/115/115
f 121/121/121 120/120/120 119/119/119
f 122/122/122 121/121/121 119/119/119
f 125/125/125 124/124/124 123/123/123
f 126/126/126 125/125/125 123/123/123
f 129/129/129 128/128/128 127/127/127
f 130/130/130 129/129/129 127/127/127
f 133/133/133 132/132/132 131/131/131
f 134/134/134 133/133/133 131/131/131
f 137/137/137 136/136/136 135/135/135
f 138/138/138 137/137/137 135/135/135
f 141/141/141 140/140/140 139/139/139
f 142/142/142 141/141/141 139/139/139
f 145/145/145 144/144/144 143/143/143
f 146/146/146 145/145/145 143/143/143
f 149/149/149 148/148/148 147/147/147
f 150/150/150 149/149/149 147/147/147
f 153/153/153 152/152/152 151/151/151
f 154/154/154 153/153/153 151/151/151
