g MS_RoofCorner
v -0.5 -0.5 0.375
v -0.5 -0.5 -0.5
v -0.5 0.375 -0.5
v 0.375 -0.375 0.5
v -0.5 -0.375 0.5
v -0.5 0.5 -0.375
v -0.5 -0.5 -0.5
v 0.375 -0.5 -0.5
v -0.5 0.375 -0.5
v 0.5 -0.375 -0.5
v 0.5 -0.375 0.375
v -0.375 0.5 -0.5
v 0.375 -0.5 -0.5
v -0.5 -0.5 -0.5
v -0.5 -0.5 0.375
v 0.375 -0.5 0.375
v 0.5 -0.5 -0.5
v 0.5 -0.375 0.375
v 0.5 -0.375 -0.5
v 0.5 -0.5 0.5
v 0.5 -0.375 0.5
v 0.5 -0.5 0.5
v -0.5 -0.5 0.5
v -0.5 -0.375 0.5
v 0.375 -0.375 0.5
v 0.5 -0.375 0.5
v 0.375 -0.5 -0.5
v 0.5 -0.5 -0.5
v 0.5 -0.375 -0.5
v -0.375 0.5 -0.5
v -0.5 0.375 -0.5
v -0.5 0.5 -0.5
v -0.5 -0.375 0.5
v -0.5 -0.5 0.5
v -0.5 -0.5 0.375
v -0.5 0.375 -0.5
v -0.5 0.5 -0.375
v -0.5 0.5 -0.5
v 0.5 -0.375 0.5
v 0.5 -0.292655259 0.5
v 0.5 -0.231642425 0.375
v 0.5 -0.375 0.375
v 0.375 -0.375 0.5
v 0.375 -0.231642425 0.5
v 0.5 -0.292655259 0.5
v 0.5 -0.375 0.5
v -0.5 -0.5 0.5
v 0.5 -0.5 0.5
v 0.375 -0.5 0.375
v -0.5 -0.5 0.375
v 0.5 -0.5 0.5
v 0.5 -0.5 -0.5
v 0.375 -0.5 -0.5
v 0.375 -0.5 0.375
v -0 -0.37500006 0.5
v 0.0822033659 -0.280829191 0.5
v 0.167796627 -0.280829191 0.5
v 0.25 -0.37500006 0.5
v -0 -0.0364822224 0.161483765
v 0.0822033659 0.0148700234 0.20430176
v 0.0822033659 -0.280829191 0.5
v -0 -0.37500006 0.5
v 0.167796627 -0.280829191 0.5
v 0.167796627 -0.0689892769 0.28816101
v 0.25 -0.207006082 0.332006216
v 0.25 -0.37500006 0.5
v 0.0822033659 0.0148700234 0.20430176
v 0.167796627 -0.0689892769 0.28816101
v 0.167796627 -0.280829191 0.5
v 0.0822033659 -0.280829191 0.5
v 0.5 -0.37500006 0
v 0.5 -0.37500006 0.25
v 0.5 -0.280829191 0.167796627
v 0.5 -0.280829191 0.0822033659
v 0.161483154 -0.0364822224 0
v 0.5 -0.37500006 0
v 0.5 -0.280829191 0.0822033659
v 0.20430176 0.0148700234 0.0822033659
v 0.5 -0.280829191 0.167796627
v 0.5 -0.37500006 0.25
v 0.332006216 -0.207006082 0.25
v 0.28816101 -0.0689892769 0.167796627
v 0.20430176 0.0148700234 0.0822033659
v 0.5 -0.280829191 0.0822033659
v 0.5 -0.280829191 0.167796627
v 0.28816101 -0.0689892769 0.167796627
v -0.5 0.5 -0.375
v -0.35584715 0.5 -0.230847165
v 0.375 -0.231642425 0.5
v 0.375 -0.375 0.5
v -0.35584715 0.5 -0.230847165
v -0.231416017 0.5 -0.356416017
v 0.5 -0.231642425 0.375
v 0.375 -0.231642425 0.5
v 0.5 -0.292655259 0.5
v 0.5 -0.375 0.375
v 0.5 -0.231642425 0.375
v -0.231416017 0.5 -0.356416017
v -0.375 0.5 -0.5
v -0.5 0.5 -0.375
v -0.5 0.5 -0.5
v -0.375 0.5 -0.5
v -0.231416017 0.5 -0.356416017
v -0.35584715 0.5 -0.230847165
v 0.499998152 -0.37500006 -0.375
v 0.499998152 -0.37500006 -0.125
v 0.500001192 -0.280829191 -0.207203358
v 0.500001192 -0.280829191 -0.292796612
v -0.266707748 0.391708702 -0.375
v 0.499998152 -0.37500006 -0.375
v 0.500001192 -0.280829191 -0.292796612
v -0.188204348 0.407377094 -0.292796314
v -0.188204348 0.407377094 -0.292796314
v 0.500001192 -0.280829191 -0.292796612
v 0.500001192 -0.280829191 -0.207203358
v -0.10648559 0.3256585 -0.207203358
v -0.10648559 0.3256585 -0.207203358
v 0.500001192 -0.280829191 -0.207203358
v 0.499998152 -0.37500006 -0.125
v -0.0280255117 0.15302518 -0.125
v -0.375 -0.37500006 0.499998152
v -0.292796612 -0.280829191 0.500001192
v -0.207203358 -0.280829191 0.500001192
v -0.125 -0.37500006 0.499998152
v -0.375 0.391708702 -0.266707748
v -0.292796612 0.407377094 -0.188204348
v -0.292796612 -0.280829191 0.500001192
v -0.375 -0.37500006 0.499998152
v -0.292796612 0.407377094 -0.188204348
v -0.207203358 0.3256585 -0.10648559
v -0.207203358 -0.280829191 0.500001192
v -0.292796612 -0.280829191 0.500001192
v -0.207203358 0.3256585 -0.10648559
v -0.125 0.15302518 -0.0280255117
v -0.125 -0.37500006 0.499998152
v -0.207203358 -0.280829191 0.500001192
v 0.390632302 -0.144076541 0.42620483
v 0.414513528 -0.156017184 0.419310898
v 0.386940897 -0.197376698 0.395431817
v 0.36305967 -0.18543604 0.402325749
v 0.36305967 -0.157863036 0.354567856
v 0.386940897 -0.169803694 0.347673953
v 0.414513528 -0.128444195 0.371553034
v 0.390632302 -0.116503529 0.378446966
v 0.426452011 -0.155093759 0.403926373
v 0.426452011 -0.141305879 0.380044848
v 0.398878783 -0.182665378 0.356166065
v 0.398878783 -0.196453258 0.380047292
v 0.378694445 -0.117426962 0.393831462
v 0.378694445 -0.131214842 0.417712688
v 0.351121217 -0.172574341 0.393833905
v 0.351121217 -0.158786461 0.369952381
v 0.390632302 -0.116503529 0.378446966
v 0.414513528 -0.128444195 0.371553034
v 0.426452011 -0.141305879 0.380044848
v 0.378694445 -0.117426962 0.393831462
v 0.426452011 -0.155093759 0.403926373
v 0.378694445 -0.131214842 0.417712688
v 0.414513528 -0.156017184 0.419310898
v 0.390632302 -0.144076541 0.42620483
v 0.351121217 -0.172574341 0.393833905
v 0.378694445 -0.131214842 0.417712688
v 0.390632302 -0.144076541 0.42620483
v 0.36305967 -0.18543604 0.402325749
v 0.386940897 -0.197376698 0.395431817
v 0.414513528 -0.156017184 0.419310898
v 0.426452011 -0.155093759 0.403926373
v 0.398878783 -0.196453258 0.380047292
v 0.378694445 -0.117426962 0.393831462
v 0.351121217 -0.158786461 0.369952381
v 0.36305967 -0.157863036 0.354567856
v 0.390632302 -0.116503529 0.378446966
v 0.414513528 -0.128444195 0.371553034
v 0.386940897 -0.169803694 0.347673953
v 0.398878783 -0.182665378 0.356166065
v 0.426452011 -0.141305879 0.380044848
v -0.451287836 0.555146039 -0.40992704
v -0.423712134 0.555146039 -0.40992704
v -0.423712134 0.5 -0.40992704
v -0.451287836 0.5 -0.40992704
v -0.451287836 0.5 -0.46507293
v -0.423712134 0.5 -0.46507293
v -0.423712134 0.555146039 -0.46507293
v -0.451287836 0.555146039 -0.46507293
v -0.409926742 0.555146039 -0.423712134
v -0.409926742 0.555146039 -0.451287836
v -0.409926742 0.5 -0.451287836
v -0.409926742 0.5 -0.423712134
v -0.465073228 0.555146039 -0.451287836
v -0.465073228 0.555146039 -0.423712134
v -0.465073228 0.5 -0.423712134
v -0.465073228 0.5 -0.451287836
v -0.465073228 0.555146039 -0.451287836
v -0.451287836 0.555146039 -0.46507293
v -0.423712134 0.555146039 -0.46507293
v -0.409926742 0.555146039 -0.451287836
v -0.465073228 0.555146039 -0.423712134
v -0.409926742 0.555146039 -0.423712134
v -0.451287836 0.555146039 -0.40992704
v -0.423712134 0.555146039 -0.40992704
v -0.465073228 0.5 -0.423712134
v -0.465073228 0.555146039 -0.423712134
v -0.451287836 0.555146039 -0.40992704
v -0.451287836 0.5 -0.40992704
v -0.423712134 0.5 -0.40992704
v -0.423712134 0.555146039 -0.40992704
v -0.409926742 0.555146039 -0.423712134
v -0.409926742 0.5 -0.423712134
v -0.465073228 0.555146039 -0.451287836
v -0.465073228 0.5 -0.451287836
v -0.451287836 0.5 -0.46507293
v -0.451287836 0.555146039 -0.46507293
v -0.423712134 0.555146039 -0.46507293
v -0.423712134 0.5 -0.46507293
v -0.409926742 0.5 -0.451287836
v -0.409926742 0.555146039 -0.451287836
vt 0.845146656 0.0435646325
vt 0.845146656 0.0466819406
vt 0.84826386 0.0466819406
vt 0.465981156 0.249237284
vt 0.731890559 0.249237284
vt 0.731890559 0.613407493
vt 0.847763181 0.0498222113
vt 0.850880504 0.0498222113
vt 0.847763181 0.0467048883
vt 0.731890559 0.249237284
vt 0.465981156 0.249237284
vt 0.731890559 0.613407493
vt 0.949758887 0.0451179743
vt 0.949758887 0.0450848937
vt 0.949725509 0.0450848937
vt 0.949725509 0.0451175198
vt 0.792130888 0.0473193824
vt 0.538574278 0.00993460417
vt 0.792193592 0.00993460417
vt 0.502549291 0.0473193824
vt 0.502624154 0.00993460417
vt 0.792130888 0.0473193824
vt 0.502549291 0.0473193824
vt 0.502624154 0.00993460417
vt 0.755314946 0.00993460417
vt 0.792193592 0.00993460417
vt 0.0393274426 0.00732012093
vt 0.0135723948 0.0311478823
vt 0.0393269658 0.0556558669
vt 0.399898231 0.0556559265
vt 0.399897873 0.00732013583
vt 0.425652385 0.0311478674
vt 0.0393274426 0.00732012093
vt 0.0135723948 0.0311478823
vt 0.0393269658 0.0556558669
vt 0.399898231 0.0556559265
vt 0.399897873 0.00732013583
vt 0.425652385 0.0311478674
vt 0.960309923 0.427892148
vt 0.8919186 0.427892148
vt 0.8919186 0.385601223
vt 0.960309923 0.385601223
vt 0.8919186 0.427892148
vt 0.960309923 0.427892148
vt 0.960309923 0.385601223
vt 0.8919186 0.385601223
vt 0.728411674 0.0470821261
vt 0.433953941 0.0470821261
vt 0.470750511 0.0101138949
vt 0.728412092 0.0101138949
vt 0.433953941 0.0470821261
vt 0.728411674 0.0470821261
vt 0.728412092 0.0101138949
vt 0.470750511 0.0101138949
vt 0.266717702 0.570263565
vt 0.225872874 0.637365818
vt 0.182110518 0.637365818
vt 0.14126569 0.570263565
vt 0.264137834 0.982076168
vt 0.21645157 0.995596945
vt 0.21645157 0.859980404
vt 0.264137834 0.82684201
vt 0.188575625 0.859980404
vt 0.188575625 0.957154691
vt 0.140895188 0.903918087
vt 0.140895188 0.826859713
vt 0.21645157 0.995596945
vt 0.188575625 0.957154691
vt 0.188575625 0.859980404
vt 0.21645157 0.859980404
vt 0.266717702 0.570263565
vt 0.14126569 0.570263565
vt 0.182110518 0.637365818
vt 0.225872874 0.637365818
vt 0.264138281 0.982076406
vt 0.264138401 0.826842189
vt 0.21645157 0.859980404
vt 0.21645157 0.995596945
vt 0.188575625 0.859980404
vt 0.140895188 0.826859891
vt 0.140895188 0.903918505
vt 0.188575625 0.957154691
vt 0.21645157 0.995596945
vt 0.21645157 0.859980404
vt 0.188575625 0.859980404
vt 0.188575625 0.957154691
vt 0.966553807 0.956531107
vt 0.99093473 0.88963604
vt 0.99093473 0.508571208
vt 0.966553807 0.487469226
vt 0.892805099 0.953562498
vt 0.960955858 0.955521047
vt 0.960955858 0.539681971
vt 0.892907619 0.53968209
vt 0.926853001 0.514340281
vt 0.99093473 0.977633476
vt 0.966553807 0.956531107
vt 0.966553807 0.575161755
vt 0.99093473 0.508571208
vt 0.60831809 0.199791923
vt 0.608230829 0.239042297
vt 0.56988728 0.239042297
vt 0.519768834 0.188863233
vt 0.557877183 0.150526628
vt 0.266717702 0.570263565
vt 0.14126569 0.570263565
vt 0.182110518 0.637365818
vt 0.225872874 0.637365818
vt 0.12932685 0.947597921
vt 0.12932685 0.630179167
vt 0.0824478418 0.645321727
vt 0.0824478418 0.925162375
vt 0.0824478418 0.925162375
vt 0.0824478418 0.645321727
vt 0.0551311895 0.645321727
vt 0.0551311895 0.89193368
vt 0.0551311895 0.89193368
vt 0.0551311895 0.645321727
vt 0.00652889907 0.629881918
vt 0.00652889907 0.84848547
vt 0.266717702 0.570263565
vt 0.225872874 0.637365818
vt 0.182110518 0.637365818
vt 0.14126569 0.570263565
vt 0.12932685 0.947597921
vt 0.0824478418 0.925162375
vt 0.0824478418 0.645321727
vt 0.12932685 0.630179167
vt 0.0824478418 0.925162375
vt 0.0551311895 0.89193368
vt 0.0551311895 0.645321727
vt 0.0824478418 0.645321727
vt 0.0551311895 0.89193368
vt 0.00652889907 0.84848547
vt 0.00652889907 0.629881918
vt 0.0551311895 0.645321727
vt 0.469265938 0.188849673
vt 0.493963242 0.188849673
vt 0.493963242 0.139459968
vt 0.469265938 0.139459968
vt 0.469265938 0.139459968
vt 0.493963301 0.139459968
vt 0.493963301 0.188849673
vt 0.469265938 0.188849673
vt 0.469265938 0.188849673
vt 0.493963242 0.188849673
vt 0.493963242 0.139459968
vt 0.469265938 0.139459968
vt 0.469265878 0.188849673
vt 0.493963242 0.188849673
vt 0.493963242 0.139459968
vt 0.469265878 0.139459968
vt 0.46874243 0.238912538
vt 0.493439764 0.238912538
vt 0.505785942 0.2265663
vt 0.456396222 0.2265663
vt 0.505785942 0.201869041
vt 0.456396222 0.201869041
vt 0.493439764 0.189522818
vt 0.46874243 0.189522818
vt 0.493963242 0.139459968
vt 0.493963242 0.188849673
vt 0.50630945 0.188849673
vt 0.50630945 0.139459968
vt 0.4569197 0.139459968
vt 0.4569197 0.188849673
vt 0.469265938 0.188849673
vt 0.469265938 0.139459968
vt 0.469265878 0.188849673
vt 0.469265878 0.139459968
vt 0.4569197 0.139459968
vt 0.4569197 0.188849673
vt 0.50630945 0.188849673
vt 0.50630945 0.139459968
vt 0.493963242 0.139459968
vt 0.493963242 0.188849673
vt 0.469265938 0.188849673
vt 0.493963242 0.188849673
vt 0.493963242 0.139459968
vt 0.469265938 0.139459968
vt 0.469265938 0.139459968
vt 0.493963301 0.139459968
vt 0.493963301 0.188849673
vt 0.469265938 0.188849673
vt 0.469265938 0.188849673
vt 0.493963242 0.188849673
vt 0.493963242 0.139459968
vt 0.469265938 0.139459968
vt 0.469265878 0.188849673
vt 0.493963242 0.188849673
vt 0.493963242 0.139459968
vt 0.469265878 0.139459968
vt 0.456396222 0.2265663
vt 0.46874243 0.238912538
vt 0.493439764 0.238912538
vt 0.505785942 0.2265663
vt 0.456396222 0.201869041
vt 0.505785942 0.201869041
vt 0.46874243 0.189522818
vt 0.493439764 0.189522818
vt 0.493963242 0.139459968
vt 0.493963242 0.188849673
vt 0.50630945 0.188849673
vt 0.50630945 0.139459968
vt 0.4569197 0.139459968
vt 0.4569197 0.188849673
vt 0.469265938 0.188849673
vt 0.469265938 0.139459968
vt 0.469265878 0.188849673
vt 0.469265878 0.139459968
vt 0.4569197 0.139459968
vt 0.4569197 0.188849673
vt 0.50630945 0.188849673
vt 0.50630945 0.139459968
vt 0.493963242 0.139459968
vt 0.493963242 0.188849673
vn -1 0 0
vn -1 0 0
vn -1 0 0
vn -0 0.707106769 0.707106769
vn -0 0.707106769 0.707106769
vn -0 0.707106769 0.707106769
vn -0 0 -1
vn -0 0 -1
vn -0 0 -1
vn 0.707106769 0.707106769 0
vn 0.707106769 0.707106769 0
vn 0.707106769 0.707106769 0
vn -0 -1 0
vn -0 -1 0
vn -0 -1 0
vn -0 -1 0
vn 1 0 0
vn 1 0 0
vn 1 0 0
vn 1 0 0
vn 1 0 0
vn -0 0 1
vn -0 0 1
vn -0 0 1
vn -0 0 1
vn -0 0 1
vn -0 0 -1
vn -0 0 -1
vn -0 0 -1
vn -0 0 -1
vn -0 0 -1
vn -0 0 -1
vn -1 0 0
vn -1 0 0
vn -1 0 0
vn -1 0 0
vn -1 0 0
vn -1 0 0
vn 1 0 0
vn 1 0 0
vn 1 0 0
vn 1 0 0
vn -0 0 1
vn -0 0 1
vn -0 0 1
vn -0 0 1
vn -0 -1 0
vn -0 -1 0
vn -0 -1 0
vn -0 -1 0
vn -0 -1 0
vn -0 -1 0
vn -0 -1 0
vn -0 -1 0
vn -0 0 1
vn -0 0 1
vn -0 0 1
vn -0 0 1
vn -0.629444063 0.549453497 0.549455285
vn -0.629444063 0.549453497 0.549455225
vn -0.629444063 0.549453497 0.549455166
vn -0.629444063 0.549453497 0.549455225
vn 0.629446924 0.549451113 0.549454331
vn 0.629446924 0.549451113 0.549454391
vn 0.629446924 0.549451113 0.549454331
vn 0.629446924 0.549450994 0.549454331
vn -7.94779282E-07 0.707105637 0.707107842
vn -7.94779282E-07 0.707105637 0.707107842
vn -7.94779339E-07 0.707105696 0.707107842
vn -7.94779339E-07 0.707105696 0.707107842
vn 1 0 0
vn 1 0 0
vn 1 0 0
vn 1 0 0
vn 0.549456179 0.549452007 -0.629444599
vn 0.54945606 0.549452007 -0.62944454
vn 0.54945612 0.549452007 -0.629444599
vn 0.549456179 0.549452007 -0.629444659
vn 0.549454749 0.549451351 0.629446387
vn 0.549454689 0.549451292 0.629446387
vn 0.549454689 0.549451292 0.629446387
vn 0.549454749 0.549451292 0.629446447
vn 0.707109153 0.707104325 -1.09282212E-06
vn 0.707109094 0.707104385 -1.092822E-06
vn 0.707109094 0.707104385 -1.092822E-06
vn 0.707109153 0.707104325 -1.09282212E-06
vn -0.707107425 -5.98107135E-07 0.707106113
vn -0.707107425 -5.98107192E-07 0.707106113
vn -0.707107425 -5.98107192E-07 0.707106113
vn -0.707107365 -5.98107135E-07 0.707106113
vn 0.409056336 0.816579223 0.407272995
vn 0.409056336 0.816579223 0.407272965
vn 0.409056395 0.816579223 0.407272965
vn 0.409056395 0.816579223 0.407272995
vn 0.409056395 0.816579223 0.407272965
vn 0.707107008 0 -0.707106531
vn 0.707107008 0 -0.707106531
vn 0.707107008 0 -0.707106531
vn 0.707107008 0 -0.707106471
vn -0 1 0
vn -0 1 0
vn -0 1 0
vn -0 1 0
vn -0 1 0
vn 1 -2.47206935E-05 0
vn 1 -2.47206935E-05 0
vn 1 -2.47206935E-05 0
vn 1 -2.47206935E-05 0
vn 0.549449205 0.549449205 -0.629453123
vn 0.549449146 0.549449146 -0.629453063
vn 0.549449146 0.549449146 -0.629453063
vn 0.549449146 0.549449146 -0.629453123
vn 0.707108259 0.707105219 -1.05153231E-06
vn 0.707108319 0.707105219 -1.05153219E-06
vn 0.707108259 0.707105219 -1.05153231E-06
vn 0.707108259 0.707105219 -1.05153231E-06
vn 0.549447298 0.549447834 0.629455984
vn 0.549447358 0.549447834 0.629455984
vn 0.549447298 0.549447834 0.629455984
vn 0.549447298 0.549447834 0.629455924
vn -0 -3.24066568E-05 1
vn -0 -3.24066532E-05 1
vn -0 -3.24066532E-05 1
vn -0 -3.24066568E-05 1
vn -0.629454494 0.54944706 0.549449682
vn -0.629454434 0.54944706 0.549449682
vn -0.629454494 0.54944706 0.549449682
vn -0.629454494 0.549447 0.549449682
vn 9.34693787E-07 0.707107067 0.707106471
vn 9.34693787E-07 0.707107008 0.707106471
vn 9.34693787E-07 0.707107067 0.707106471
vn 9.34693787E-07 0.707107067 0.707106471
vn 0.629457951 0.549443603 0.549449146
vn 0.62945801 0.549443662 0.549449086
vn 0.62945801 0.549443662 0.549449086
vn 0.629457951 0.549443662 0.549449027
vn -0 -0.500016809 0.866015673
vn -0 -0.500016809 0.866015792
vn -0 -0.500016809 0.866015792
vn -0 -0.500016809 0.866015792
vn -2.00681802E-06 0.500010729 -0.866019249
vn -2.00681779E-06 0.500010729 -0.866019249
vn -2.00681779E-06 0.500010669 -0.866019249
vn -2.00681779E-06 0.500010669 -0.866019249
vn 0.866023839 -0.433014899 -0.250001729
vn 0.866023839 -0.433014959 -0.250001758
vn 0.866023839 -0.433014899 -0.250001729
vn 0.866023839 -0.433014959 -0.250001758
vn -0.866020799 0.433021456 0.250000864
vn -0.866020799 0.433021456 0.250000894
vn -0.866020799 0.433021456 0.250000864
vn -0.866020799 0.433021456 0.250000864
vn 0.499998391 0.750002801 0.433009803
vn 0.499998391 0.750002742 0.433009803
vn 0.49999845 0.750002801 0.433009803
vn 0.499998391 0.750002801 0.433009833
vn 0.499998391 0.750002742 0.433009803
vn 0.499998391 0.750002742 0.433009803
vn 0.499998391 0.750002801 0.433009803
vn 0.499998391 0.750002801 0.433009833
vn -0.612368524 -0.0473716706 0.789151788
vn -0.612368584 -0.0473716743 0.789151907
vn -0.612368524 -0.0473716781 0.789151907
vn -0.612368524 -0.0473716743 0.789151907
vn 0.612374365 -0.659735084 0.435600013
vn 0.612374365 -0.659735084 0.435600013
vn 0.612374306 -0.659735024 0.435600013
vn 0.612374306 -0.659735024 0.435600013
vn -0.612376809 0.659736872 -0.435593665
vn -0.612376809 0.659736872 -0.435593665
vn -0.612376809 0.659736812 -0.435593724
vn -0.612376809 0.659736872 -0.435593665
vn 0.612369061 0.0473603457 -0.789152086
vn 0.612369001 0.0473603532 -0.789152086
vn 0.612369001 0.0473603532 -0.789152205
vn 0.612369061 0.0473603606 -0.789152205
vn -0 0 1
vn -0 0 1
vn -0 0 1
vn -0 0 1
vn -0 0 -1
vn -0 0 -1
vn -0 0 -1
vn -0 0 -1
vn 1 0 0
vn 1 0 0
vn 1 0 0
vn 1 0 0
vn -1 0 0
vn -1 0 0
vn -1 0 0
vn -1 0 0
vn -0 1 2.86707774E-07
vn -0 1 2.86707774E-07
vn -0 1 2.86707774E-07
vn -0 1 2.86707774E-07
vn -0 1 2.86707774E-07
vn -0 1 2.86707774E-07
vn -0 1 2.86707774E-07
vn -0 1 2.86707774E-07
vn -0.707098603 0 0.707114935
vn -0.707098603 0 0.707114935
vn -0.707098603 0 0.707114935
vn -0.707098603 0 0.707114935
vn 0.707098603 0 0.707114935
vn 0.707098603 0 0.707114935
vn 0.707098603 0 0.707114935
vn 0.707098603 0 0.707114935
vn -0.707098603 0 -0.707114935
vn -0.707098603 0 -0.707114935
vn -0.707098603 0 -0.707114935
vn -0.707098603 0 -0.707114935
vn 0.707098603 0 -0.707114935
vn 0.707098603 0 -0.707114935
vn 0.707098603 0 -0.707114935
vn 0.707098603 0 -0.707114935
g MS_RoofCorner_0
f 3/3/3 2/2/2 1/1/1
f 6/6/6 5/5/5 4/4/4
f 9/9/9 8/8/8 7/7/7
f 12/12/12 11/11/11 10/10/10
f 15/15/15 14/14/14 13/13/13
f 16/16/16 15/15/15 13/13/13
f 19/19/19 18/18/18 17/17/17
f 18/18/18 20/20/20 17/17/17
f 18/18/18 21/21/21 20/20/20
f 24/24/24 23/23/23 22/22/22
f 25/25/25 24/24/24 22/22/22
f 26/26/26 25/25/25 22/22/22
f 29/29/29 28/28/28 27/27/27
f 27/27/27 30/30/30 29/29/29
f 27/27/27 31/31/31 30/30/30
f 31/31/31 32/32/32 30/30/30
f 35/35/35 34/34/34 33/33/33
f 33/33/33 36/36/36 35/35/35
f 33/33/33 37/37/37 36/36/36
f 37/37/37 38/38/38 36/36/36
f 41/41/41 40/40/40 39/39/39
f 42/42/42 41/41/41 39/39/39
f 45/45/45 44/44/44 43/43/43
f 46/46/46 45/45/45 43/43/43
f 49/49/49 48/48/48 47/47/47
f 50/50/50 49/49/49 47/47/47
f 53/53/53 52/52/52 51/51/51
f 54/54/54 53/53/53 51/51/51
f 57/57/57 56/56/56 55/55/55
f 58/58/58 57/57/57 55/55/55
f 61/61/61 60/60/60 59/59/59
f 62/62/62 61/61/61 59/59/59
f 65/65/65 64/64/64 63/63/63
f 66/66/66 65/65/65 63/63/63
f 69/69/69 68/68/68 67/67/67
f 70/70/70 69/69/69 67/67/67
f 73/73/73 72/72/72 71/71/71
f 74/74/74 73/73/73 71/71/71
f 77/77/77 76/76/76 75/75/75
f 78/78/78 77/77/77 75/75/75
f 81/81/81 80/80/80 79/79/79
f 82/82/82 81/81/81 79/79/79
f 85/85/85 84/84/84 83/83/83
f 86/86/86 85/85/85 83/83/83
f 89/89/89 88/88/88 87/87/87
f 90/90/90 89/89/89 87/87/87
f 93/93/93 92/92/92 91/91/91
f 91/91/91 94/94/94 93/93/93
f 94/94/94 95/95/95 93/93/93
f 98/98/98 97/97/97 96/96/96
f 99/99/99 98/98/98 96/96/96
f 102/102/102 101/101/101 100/100/100
f 100/100/100 103/103/103 102/102/102
f 100/100/100 104/104/104 103/103/103
f 107/107/107 106/106/106 105/105/105
f 108/108/108 107/107/107 105/105/105
f 111/111/111 110/110/110 109/109/109
f 112/112/112 111/111/111 109/109/109
f 115/115/115 114/114/114 113/113/113
f 116/116/116 115/115/115 113/113/113
f 119/119/119 118/118/118 117/117/117
f 120/120/120 119/119/119 117/117/117
f 123/123/123 122/122/122 121/121/121
f 124/124/124 123/123/123 121/121/121
f 127/127/127 126/126/126 125/125/125
f 128/128/128 127/127/127 125/125/125
f 131/131/131 130/130/130 129/129/129
f 132/132/132 131/131/131 129/129/129
f 135/135/135 134/134/134 133/133/133
f 136/136/136 135/135/135 133/133/133
f 139/139/139 138/138/138 137/137/137
f 140/140/140 139/139/139 137/137/137
f 143/143/143 142/142/142 141/141/141
f 144/144/144 143/143/143 141/141/141
f 147/147/147 146/146/146 145/145/145
f 148/148/148 147/147/147 145/145/145
f 151/151/151 150/150/150 149/149/149
f 152/152/152 151/151/151 149/149/149
f 155/155/155 154/154/154 153/153/153
f 153/153/153 156/156/156 155/155/155
f 156/156/156 157/157/157 155/155/155
f 156/156/156 158/158/158 157/157/157
f 158/158/158 159/159/159 157/157/157
f 158/158/158 160/160/160 159/159/159
f 163/163/163 162/162/162 161/161/161
f 164/164/164 163/163/163 161/161/161
f 167/167/167 166/166/166 165/165/165
f 168/168/168 167/167/167 165/165/165
f 171/171/171 170/170/170 169/169/169
f 172/172/172 171/171/171 169/169/169
f 175/175/175 174/174/174 173/173/173
f 176/176/176 175/175/175 173/173/173
f 179/179/179 178/178/178 177/177/177
f 180/180/180 179/179/179 177/177/177
f 183/183/183 182/182/182 181/181/181
f 184/184/184 183/183/183 181/181/181
f 187/187/187 186/186/186 185/185/185
f 188/188/188 187/187/187 185/185/185
f 191/191/191 190/190/190 189/189/189
f 192/192/192 191/191/191 189/189/189
f 195/195/195 194/194/194 193/193/193
f 193/193/193 196/196/196 195/195/195
f 193/193/193 197/197/197 196/196/196
f 197/197/197 198/198/198 196/196/196
f 197/197/197 199/199/199 198/198/198
f 199/199/199 200/200/200 198/198/198
f 203/203/203 202/202/202 201/201/201
f 204/204/204 203/203/203 201/201/201
f 207/207/207 206/206/206 205/205/205
f 208/208/208 207/207/207 205/205/205
f 211/211/211 210/210/210 209/209/209
f 212/212/212 211/211/211 209/209/209
f 215/215/215 214/214/214 213/213/213
f 216/216/216 215/215/215 213/213/213
