g Slope_CorrugatedSteel_Simple_90
v 0.286724 0.413649 0.5
v -0.41365 -0.286725 0.5
v -0.41365 0.413649 0.5
v 0.286724 0.413649 -0.5
v -0.41365 0.413649 -0.5
v -0.41365 -0.286725 -0.5
v 0.5 0.5 0.5
v 0.286724 0.413649 0.5
v -0.41365 0.413649 0.5
v -0.5 0.5 0.5
v 0.5 0.5 0.5
v 0.5 0.5 -0.5
v -0.5 -0.5 -0.5
v -0.5 -0.5 0.5
v -0.41365 0.5 -0.41365
v 0.41365 0.5 -0.41365
v 0.41365 0.5 0.41365
v -0.41365 0.5 0.41365
v -0.41365 0.5 0.41365
v -0.5 0.5 0.5
v -0.5 0.5 -0.5
v -0.41365 0.5 -0.41365
v 0.41365 0.5 0.41365
v 0.5 0.5 0.5
v -0.5 0.5 0.5
v -0.41365 0.5 0.41365
v -0.41365 0.5 -0.41365
v -0.5 0.5 -0.5
v 0.5 0.5 -0.5
v 0.41365 0.5 -0.41365
v 0.41365 0.5 -0.41365
v 0.5 0.5 -0.5
v 0.5 0.5 0.5
v 0.41365 0.5 0.41365
v -0.5 -0.41365 -0.41365
v -0.5 0.413649 -0.41365
v -0.5 0.413649 0.41365
v -0.5 -0.41365 0.41365
v -0.5 -0.41365 0.41365
v -0.5 -0.5 0.5
v -0.5 -0.5 -0.5
v -0.5 -0.41365 -0.41365
v -0.5 0.413649 0.41365
v -0.5 0.5 0.5
v -0.5 -0.5 0.5
v -0.5 -0.41365 0.41365
v -0.5 -0.41365 -0.41365
v -0.5 -0.5 -0.5
v -0.5 0.5 -0.5
v -0.5 0.413649 -0.41365
v -0.5 0.413649 -0.41365
v -0.5 0.5 -0.5
v -0.5 0.5 0.5
v -0.5 0.413649 0.41365
v 0.5 0.5 0.5
v -0.5 -0.5 0.5
v -0.41365 -0.286725 0.5
v 0.286724 0.413649 0.5
v -0.41365 -0.286725 0.5
v -0.5 -0.5 0.5
v -0.5 0.5 0.5
v -0.41365 0.413649 0.5
v 0.5 0.5 -0.5
v -0.5 0.5 -0.5
v -0.41365 0.413649 -0.5
v 0.286724 0.413649 -0.5
v 0.5 0.5 -0.5
v 0.286724 0.413649 -0.5
v -0.41365 -0.286725 -0.5
v -0.5 -0.5 -0.5
v -0.41365 -0.286725 -0.5
v -0.41365 0.413649 -0.5
v -0.5 0.5 -0.5
v -0.5 -0.5 -0.5
vt 0.683055043 0.280955881
vt 0.582037091 0.179938018
vt 0.58203721 0.280955911
vt 0.683055043 0.280955881
vt 0.58203721 0.280955911
vt 0.582037091 0.179938018
vt 0.0498276204 0.411837637
vt 0.074542895 0.35079366
vt 0.074542895 0.150332272
vt 0.0498276353 0.125617027
vt 0.917695761 0.0247764662
vt 0.917695761 0.0893416926
vt 0.982260942 0.0893416926
vt 0.982260942 0.0247764662
vt 0.713816762 0.486022353
vt 0.713816762 0.293410599
vt 0.539917231 0.293410599
vt 0.539917231 0.486022353
vt 0.0462974086 0.445492446
vt 0.0757484436 0.46257472
vt 0.0757483542 0.0689415187
vt 0.0462973118 0.0860239714
vt 0.0462972149 0.107956067
vt 0.0765564367 0.0929885507
vt 0.0765564367 0.437886924
vt 0.0462974086 0.422919273
vt 0.0462975055 0.107956216
vt 0.0765563399 0.0929885507
vt 0.0765563399 0.437886924
vt 0.0462974086 0.422919452
vt 0.0462974086 0.445492059
vt 0.0757484436 0.46257472
vt 0.0757483542 0.0689413249
vt 0.0462973118 0.0860239714
vt 0.713816762 0.486022353
vt 0.713816762 0.293410599
vt 0.539917231 0.293410599
vt 0.539917231 0.486022353
vt 0.0462974086 0.445492446
vt 0.0757484436 0.46257472
vt 0.0757483542 0.0689415187
vt 0.0462973118 0.0860239714
vt 0.0462972149 0.107956067
vt 0.0765564367 0.0929885507
vt 0.0765564367 0.437886924
vt 0.0462974086 0.422919273
vt 0.0462975055 0.107956216
vt 0.0765563399 0.0929885507
vt 0.0765563399 0.437886924
vt 0.0462974086 0.422919452
vt 0.0462974086 0.445492059
vt 0.0757484436 0.46257472
vt 0.0757483542 0.0689413249
vt 0.0462973118 0.0860239714
vt 0.0690548569 0.448576242
vt 0.0690547526 0.0973635763
vt 0.0467659682 0.149979711
vt 0.0467659533 0.395959914
vt 0.0732027367 0.170578554
vt 0.0473486632 0.106721476
vt 0.0473486781 0.406132638
vt 0.0732029453 0.380278349
vt 0.0498276204 0.411837637
vt 0.0498276353 0.125617027
vt 0.074542895 0.150332272
vt 0.074542895 0.35079366
vt 0.0690548569 0.448576242
vt 0.0467659533 0.395959914
vt 0.0467659682 0.149979711
vt 0.0690547526 0.0973635763
vt 0.0732027367 0.170578554
vt 0.0732029453 0.380278349
vt 0.0473486781 0.406132638
vt 0.0473486632 0.106721476
vn 0 0 1
vn 0 0 1
vn 0 0 1
vn 0 0 -1
vn 0 0 -1
vn 0 0 -1
vn 0 0 1
vn 0 0 1
vn 0 0 1
vn 0 0 1
vn 0.707107 -0.707107 0
vn 0.707107 -0.707107 0
vn 0.707107 -0.707107 0
vn 0.707107 -0.707107 0
vn -3.24213e-07 1 0
vn -3.24213e-07 1 0
vn -3.24213e-07 1 0
vn -3.24213e-07 1 0
vn -3.73016e-07 1 3.54142e-07
vn -3.73016e-07 1 3.54142e-07
vn -3.73016e-07 1 -7.79113e-07
vn -3.73016e-07 1 -7.79112e-07
vn 8.34947e-07 1 3.54143e-07
vn 8.34949e-07 1 3.54142e-07
vn -3.73016e-07 1 3.54142e-07
vn -3.73016e-07 1 3.54142e-07
vn -3.73016e-07 1 -7.79112e-07
vn -3.73016e-07 1 -7.79113e-07
vn 8.34948e-07 1 -7.79112e-07
vn 8.34948e-07 1 -7.79112e-07
vn 8.34948e-07 1 -7.79112e-07
vn 8.34948e-07 1 -7.79112e-07
vn 8.34949e-07 1 3.54142e-07
vn 8.34947e-07 1 3.54143e-07
vn -1 -4.7898e-07 0
vn -1 -4.7898e-07 0
vn -1 -4.7898e-07 0
vn -1 -4.7898e-07 0
vn -1 9.67992e-07 -6.03982e-07
vn -1 9.6799e-07 -6.03983e-07
vn -1 9.6799e-07 6.03983e-07
vn -1 9.67993e-07 6.03981e-07
vn -1 -1.65266e-07 -6.03982e-07
vn -1 -1.65266e-07 -6.03982e-07
vn -1 9.6799e-07 -6.03983e-07
vn -1 9.67992e-07 -6.03982e-07
vn -1 9.67993e-07 6.03981e-07
vn -1 9.6799e-07 6.03983e-07
vn -1 -1.65266e-07 6.03982e-07
vn -1 -1.65266e-07 6.03981e-07
vn -1 -1.65266e-07 6.03981e-07
vn -1 -1.65266e-07 6.03982e-07
vn -1 -1.65266e-07 -6.03982e-07
vn -1 -1.65266e-07 -6.03982e-07
vn 0 0 1
vn 0 0 1
vn 0 0 1
vn 0 0 1
vn 0 0 1
vn 0 0 1
vn 0 0 1
vn 0 0 1
vn 0 0 -1
vn 0 0 -1
vn 0 0 -1
vn 0 0 -1
vn 0 0 -1
vn 0 0 -1
vn 0 0 -1
vn 0 0 -1
vn 0 0 -1
vn 0 0 -1
vn 0 0 -1
vn 0 0 -1
g Slope_CorrugatedSteel_Simple_90_0
f 3/3/3 2/2/2 1/1/1
f 6/6/6 5/5/5 4/4/4
f 9/9/9 8/8/8 7/7/7
f 10/10/10 9/9/9 7/7/7
f 13/13/13 12/12/12 11/11/11
f 14/14/14 13/13/13 11/11/11
f 17/17/17 16/16/16 15/15/15
f 18/18/18 17/17/17 15/15/15
f 21/21/21 20/20/20 19/19/19
f 22/22/22 21/21/21 19/19/19
f 25/25/25 24/24/24 23/23/23
f 26/26/26 25/25/25 23/23/23
f 29/29/29 28/28/28 27/27/27
f 30/30/30 29/29/29 27/27/27
f 33/33/33 32/32/32 31/31/31
f 34/34/34 33/33/33 31/31/31
f 37/37/37 36/36/36 35/35/35
f 38/38/38 37/37/37 35/35/35
f 41/41/41 40/40/40 39/39/39
f 42/42/42 41/41/41 39/39/39
f 45/45/45 44/44/44 43/43/43
f 46/46/46 45/45/45 43/43/43
f 49/49/49 48/48/48 47/47/47
f 50/50/50 49/49/49 47/47/47
f 53/53/53 52/52/52 51/51/51
f 54/54/54 53/53/53 51/51/51
f 57/57/57 56/56/56 55/55/55
f 58/58/58 57/57/57 55/55/55
f 61/61/61 60/60/60 59/59/59
f 62/62/62 61/61/61 59/59/59
f 65/65/65 64/64/64 63/63/63
f 66/66/66 65/65/65 63/63/63
f 69/69/69 68/68/68 67/67/67
f 70/70/70 69/69/69 67/67/67
f 73/73/73 72/72/72 71/71/71
f 74/74/74 73/73/73 71/71/71
