g FloorEdge
v 0.5 0.375 -0.4375
v -0.5 0.375 -0.4375
v -0.5 -0.375 -0.4375
v 0.5 -0.375 -0.4375
v -0.5 -0.375 -0.5
v 0.5 -0.375 -0.5
v 0.5 -0.375 -0.4375
v -0.5 -0.375 -0.4375
v -0.5 -0.5 -0.5
v 0.5 -0.5 -0.5
v 0.5 -0.375 -0.5
v -0.5 -0.375 -0.5
v -0.5 0.375 -0.5
v 0.5 0.375 -0.5
v 0.5 0.5 -0.5
v -0.5 0.5 -0.5
v -0.5 -0.5 -0.4375
v 0.5 -0.5 -0.4375
v 0.5 -0.5 -0.5
v -0.5 -0.5 -0.5
v -0.5 0.5 -0.5
v 0.5 0.5 -0.5
v 0.5 0.5 -0.4375
v -0.5 0.5 -0.4375
v -0.5 0.375 -0.4375
v 0.5 0.375 -0.4375
v 0.5 0.375 -0.5
v -0.5 0.375 -0.5
v -0.5 -0.5 0.5
v 0.5 -0.5 0.5
v 0.5 -0.5 -0.4375
v -0.5 -0.5 -0.4375
v -0.5 0.5 -0.4375
v 0.5 0.5 -0.4375
v 0.5 0.5 0.5
v -0.5 0.5 0.5
v 0.5 0.0625 -0.5
v -0.5 0.0625 -0.5
v -0.5 -0.0625 -0.5
v 0.5 -0.0625 -0.5
v 0.5 -0.0625 -0.5
v -0.5 -0.0625 -0.5
v -0.5 -0.125 -0.4375
v 0.5 -0.125 -0.4375
v 0.5 0.125 -0.4375
v -0.5 0.125 -0.4375
v -0.5 0.0625 -0.5
v 0.5 0.0625 -0.5
vt 0.741986513 0.157884717
vt 0.741986513 0.454216331
vt 0.51973784 0.454216331
vt 0.51973784 0.157884851
vt 0.0399200022 0.054399237
vt 0.0400026143 0.548436522
vt 0.00913050771 0.548441768
vt 0.00904676318 0.0544044822
vt 0.0762796998 0.504832268
vt 0.076282084 0.0106488913
vt 0.138055056 0.0106480271
vt 0.138052613 0.504831254
vt 0.138050586 0.0106471032
vt 0.138053566 0.504836917
vt 0.0762797594 0.504837513
vt 0.0762768388 0.0106476396
vt 0.00913026929 0.548467517
vt 0.00904098153 0.0543636978
vt 0.0399216712 0.0543411821
vt 0.0400117338 0.548444986
vt 0.0399063528 0.0544018596
vt 0.0400126278 0.548485398
vt 0.00913760066 0.548491955
vt 0.00903043151 0.0544086546
vt 0.00913026929 0.548467636
vt 0.00904104114 0.054363817
vt 0.0399217308 0.0543413013
vt 0.0400117934 0.548445225
vt 0.956966043 0.0462834761
vt 0.956966043 0.04831516
vt 0.96052146 0.04831516
vt 0.96052146 0.046283491
vt 0.957473993 0.046283491
vt 0.957473993 0.04831516
vt 0.961029291 0.04831516
vt 0.961029291 0.0462834761
vt 0.333015025 0.44033587
vt 0.333028495 0.109914035
vt 0.289253533 0.109914362
vt 0.289239347 0.440336227
vt 0.950882316 0.116730966
vt 0.950853229 0.415173441
vt 0.924474001 0.433825165
vt 0.924503446 0.135382742
vt 0.892367184 0.172689497
vt 0.892364919 0.471123189
vt 0.86598748 0.489773929
vt 0.865989745 0.191341251
vn -0 0 -1
vn -0 0 -1
vn -0 0 -1
vn -0 0 -1
vn -0 1 0
vn -0 1 0
vn -0 1 0
vn -0 1 0
vn -0 0 -1
vn -0 0 -1
vn -0 0 -1
vn -0 0 -1
vn -0 0 -1
vn -0 0 -1
vn -0 0 -1
vn -0 0 -1
vn -0 -1 0
vn -0 -1 0
vn -0 -1 0
vn -0 -1 0
vn -0 1 0
vn -0 1 0
vn -0 1 0
vn -0 1 0
vn -0 -1 0
vn -0 -1 0
vn -0 -1 0
vn -0 -1 0
vn -0 -1 0
vn -0 -1 0
vn -0 -1 0
vn -0 -1 0
vn -0 1 0
vn -0 1 0
vn -0 1 0
vn -0 1 0
vn -0 0 -1
vn -0 0 -1
vn -0 0 -1
vn -0 0 -1
vn -0 -0.707106769 -0.707106769
vn -0 -0.707106769 -0.707106769
vn -0 -0.707106769 -0.707106769
vn -0 -0.707106769 -0.707106769
vn -0 0.707106769 -0.707106769
vn -0 0.707106769 -0.707106769
vn -0 0.707106769 -0.707106769
vn -0 0.707106769 -0.707106769
g FloorEdge_0
f 3/3/3 2/2/2 1/1/1
f 4/4/4 3/3/3 1/1/1
f 7/7/7 6/6/6 5/5/5
f 8/8/8 7/7/7 5/5/5
f 11/11/11 10/10/10 9/9/9
f 12/12/12 11/11/11 9/9/9
f 15/15/15 14/14/14 13/13/13
f 16/16/16 15/15/15 13/13/13
f 19/19/19 18/18/18 17/17/17
f 20/20/20 19/19/19 17/17/17
f 23/23/23 22/22/22 21/21/21
f 24/24/24 23/23/23 21/21/21
f 27/27/27 26/26/26 25/25/25
f 28/28/28 27/27/27 25/25/25
f 31/31/31 30/30/30 29/29/29
f 32/32/32 31/31/31 29/29/29
f 35/35/35 34/34/34 33/33/33
f 36/36/36 35/35/35 33/33/33
f 39/39/39 38/38/38 37/37/37
f 40/40/40 39/39/39 37/37/37
f 43/43/43 42/42/42 41/41/41
f 44/44/44 43/43/43 41/41/41
f 47/47/47 46/46/46 45/45/45
f 48/48/48 47/47/47 45/45/45
