g FloatStairs_CorrugatedSteel_Turn
v 0.5 -0.573078513 0.500000417
v 0.500000298 -0.573078811 0.500000417
v -0.5 0.426220566 0.500000656
v 0.395903319 0.426220775 -0.499999315
v 0.5 0.426220775 -0.499999315
v 0.5 0.550257623 -0.499999255
v 0.395903319 0.550257623 -0.499999255
v 0.5 0.426220775 -0.499999315
v 0.5 -0.573078513 0.500000417
v 0.5 -0.449905843 0.500000536
v 0.5 0.550257623 -0.499999255
v 0.5 -0.573078513 0.500000417
v 0.5 0.426220775 -0.499999315
v 0.395903319 0.426220775 -0.499999315
v 0.395903319 -0.469055206 0.395903796
v 0.499999374 -0.573078513 0.500000417
v 0.395903319 0.550257623 -0.499999255
v 0.5 0.550257623 -0.499999255
v 0.5 -0.449905843 0.500000536
v 0.499999374 -0.449905843 0.500000536
v 0.395903319 -0.345792353 0.395903856
v 0.395903319 -0.469055206 0.395903796
v 0.395903319 0.426220775 -0.499999315
v 0.395903319 0.550257623 -0.499999255
v 0.395903319 -0.345792353 0.395903856
v -0.5 0.426220626 0.395903975
v -0.5 0.550257504 0.395904005
v -0.5 0.550257504 0.500000715
v -0.5 0.426220566 0.500000656
v -0.5 0.550257504 0.500000715
v 0.5 -0.449905843 0.500000536
v 0.5 -0.573078513 0.500000417
v -0.5 0.426220566 0.500000656
v 0.395903915 -0.469055444 0.395903796
v -0.5 0.426220626 0.395903975
v -0.5 0.426220566 0.500000656
v 0.500000298 -0.573078811 0.500000417
v 0.5 -0.449905843 0.500000536
v -0.5 0.550257504 0.500000715
v -0.5 0.550257504 0.395904005
v 0.395903915 -0.345792502 0.395903856
v 0.395903915 -0.345792502 0.395903856
v -0.5 0.550257504 0.395904005
v -0.5 0.426220626 0.395903975
v 0.395903915 -0.469055444 0.395903796
v -0.500000596 0.344564348 -0.395902634
v -0.500000596 0.550094247 -0.395902574
v -0.395903319 0.550094247 -0.395902574
v -0.395903319 0.344564348 -0.395902634
v -0.500000596 0.550094247 -0.395902574
v -0.500000596 0.550094247 -0.499999255
v -0.395903319 0.550094247 -0.499999255
v -0.395903319 0.550094247 -0.395902574
v -0.500000596 0.550094247 -0.499999255
v -0.500000596 0.344564348 -0.499999315
v -0.395903319 0.344564348 -0.499999315
v -0.395903319 0.550094247 -0.499999255
v -0.500000596 0.344564348 -0.499999315
v -0.500000596 0.344564348 -0.395902634
v -0.395903319 0.344564348 -0.395902634
v -0.395903319 0.344564348 -0.499999315
v -0.395903319 0.344564348 -0.395902634
v -0.395903319 0.550094247 -0.395902574
v -0.395903319 0.550094247 -0.499999255
v -0.395903319 0.344564348 -0.499999315
v -0.500000596 0.344564348 -0.499999315
v -0.500000596 0.550094247 -0.499999255
v -0.500000596 0.550094247 -0.395902574
v -0.500000596 0.344564348 -0.395902634
v -0.500000596 0.251503736 -0.500000536
v 0.395902693 0.251503736 -0.500000536
v 0.395902693 0.344564348 -0.500000536
v -0.500000596 0.344564348 -0.500000536
v -0.395903915 0.344564348 -0.395903856
v -0.500000596 0.344564348 -0.500000536
v 0.395902693 0.344564348 -0.500000536
v 0.395902693 0.344564348 -0.149900749
v -0.149900511 0.344564348 -0.149900451
v 0.395902693 0.344564348 -0.500000536
v 0.395902693 0.251503736 -0.500000536
v 0.395902693 0.251503795 -0.149900466
v 0.395902693 0.344564348 -0.149900749
v 0.395902693 0.251503795 -0.149900466
v 0.395902693 0.251503736 -0.500000536
v -0.500000596 0.251503736 -0.500000536
v -0.395903915 0.251503706 -0.395903885
v -0.149900198 0.251503795 -0.149900466
v -0.149900511 0.344564348 -0.149900451
v 0.395902693 0.344564348 -0.149900749
v 0.395902693 0.251503795 -0.149900466
v -0.149900198 0.251503795 -0.149900466
v -0.149900511 0.251503915 0.395902693
v -0.149900511 0.344564497 0.395902753
v -0.149900511 0.344564348 -0.149900451
v -0.149900198 0.251503795 -0.149900466
v -0.500000596 0.251503915 0.395902693
v -0.500000596 0.251503736 -0.500000536
v -0.500000596 0.344564348 -0.500000536
v -0.500000596 0.344564497 0.395902753
v -0.500000596 0.251503915 0.395902693
v -0.500000596 0.344564497 0.395902753
v -0.149900511 0.344564497 0.395902753
v -0.149900511 0.251503915 0.395902693
v -0.500000596 0.344564497 0.395902753
v -0.500000596 0.344564348 -0.500000536
v -0.395903915 0.344564348 -0.395903856
v -0.149900511 0.344564348 -0.149900451
v -0.149900511 0.344564497 0.395902753
v -0.395903915 0.251503706 -0.395903885
v -0.500000596 0.251503736 -0.500000536
v -0.500000596 0.251503915 0.395902693
v -0.149900198 0.251503795 -0.149900466
v -0.149900511 0.251503915 0.395902693
v 0.395898432 0.0206532851 -0.175051883
v 0.395898432 -0.0744907111 -0.175051898
v 0.395898432 -0.0744906515 0.175048187
v 0.395898432 0.020653341 0.175048217
v 0.395898432 -0.0744907111 -0.175051898
v -0.175051883 -0.0744907111 -0.175051898
v 0.175047904 -0.0744906515 0.175048187
v 0.395898432 -0.0744906515 0.175048187
v 0.175047606 0.020653341 0.175048217
v 0.395898432 0.020653341 0.175048217
v 0.395898432 -0.0744906515 0.175048187
v 0.175047904 -0.0744906515 0.175048187
v -0.175051883 -0.0744907111 -0.175051898
v 0.395898432 -0.0744907111 -0.175051898
v 0.395898432 0.0206532851 -0.175051883
v -0.175052181 0.0206532851 -0.175051883
v -0.175052181 0.0206532851 -0.175051883
v 0.395898432 0.0206532851 -0.175051883
v 0.395898432 0.020653341 0.175048217
v 0.175047606 0.020653341 0.175048217
v 0.175047606 -0.0744906217 0.395898998
v 0.175047606 0.0206533857 0.395898998
v 0.175047606 0.020653341 0.175048217
v 0.175047904 -0.0744906515 0.175048187
v -0.175052464 -0.0744906217 0.395898998
v -0.175051883 -0.0744907111 -0.175051898
v -0.175052181 0.0206532851 -0.175051883
v -0.175052464 0.0206533857 0.395898998
v -0.175052464 -0.0744906217 0.395898998
v -0.175052464 0.0206533857 0.395898998
v 0.175047606 0.0206533857 0.395898998
v 0.175047606 -0.0744906217 0.395898998
v -0.175052464 0.0206533857 0.395898998
v -0.175052181 0.0206532851 -0.175051883
v 0.175047606 0.020653341 0.175048217
v 0.175047606 0.0206533857 0.395898998
v -0.175051883 -0.0744907111 -0.175051898
v -0.175052464 -0.0744906217 0.395898998
v 0.175047606 -0.0744906217 0.395898998
v 0.175047904 -0.0744906515 0.175048187
v 0.149905398 -0.305340916 0.39590323
v 0.149905398 -0.398401529 0.39590323
v 0.149905086 -0.398401469 0.149904728
v 0.149905086 -0.305340886 0.149904743
v 0.395903319 -0.398401529 0.39590323
v 0.149905398 -0.398401529 0.39590323
v 0.149905398 -0.305340916 0.39590323
v 0.395903915 -0.305340916 0.39590323
v 0.395903915 -0.398401469 0.149904728
v 0.395903319 -0.398401529 0.39590323
v 0.395903915 -0.305340916 0.39590323
v 0.395903915 -0.305340886 0.149904743
v 0.395903915 -0.398401469 0.149904728
v 0.395903915 -0.305340886 0.149904743
v 0.149905086 -0.305340886 0.149904743
v 0.149905086 -0.398401469 0.149904728
v 0.175636292 -0.398401529 0.370172352
v 0.370172411 -0.398401529 0.370172352
v 0.370173037 -0.398401469 0.175635621
v 0.175635979 -0.398401469 0.175635621
v 0.370173037 -0.305340886 0.175635636
v 0.370173037 -0.305340916 0.370172352
v 0.175636292 -0.305340916 0.370172352
v 0.175635979 -0.305340886 0.175635636
v 0.175636292 -0.398401529 0.370172352
v 0.149905398 -0.398401529 0.39590323
v 0.395903319 -0.398401529 0.39590323
v 0.370172411 -0.398401529 0.370172352
v 0.370173037 -0.305340886 0.175635636
v 0.395903915 -0.305340886 0.149904743
v 0.395903915 -0.305340916 0.39590323
v 0.370173037 -0.305340916 0.370172352
v 0.370173037 -0.398401469 0.175635621
v 0.395903915 -0.398401469 0.149904728
v 0.149905086 -0.398401469 0.149904728
v 0.175635979 -0.398401469 0.175635621
v 0.175635979 -0.305340886 0.175635636
v 0.149905086 -0.305340886 0.149904743
v 0.395903915 -0.305340886 0.149904743
v 0.370173037 -0.305340886 0.175635636
v 0.175636292 -0.305340916 0.370172352
v 0.149905398 -0.305340916 0.39590323
v 0.149905086 -0.305340886 0.149904743
v 0.175635979 -0.305340886 0.175635636
v 0.175635979 -0.398401469 0.175635621
v 0.149905086 -0.398401469 0.149904728
v 0.149905398 -0.398401529 0.39590323
v 0.175636292 -0.398401529 0.370172352
v 0.370173037 -0.305340916 0.370172352
v 0.395903915 -0.305340916 0.39590323
v 0.149905398 -0.305340916 0.39590323
v 0.175636292 -0.305340916 0.370172352
v 0.370172411 -0.398401529 0.370172352
v 0.395903319 -0.398401529 0.39590323
v 0.395903915 -0.398401469 0.149904728
v 0.370173037 -0.398401469 0.175635621
vt 0.924474835 0.14771606
vt 0.924474835 0.147715941
vt 0.924256206 0.47053507
vt 0.892064095 0.478198677
vt 0.866276264 0.478198677
vt 0.866276324 0.508926272
vt 0.892064095 0.508926272
vt 0.892259717 0.157714054
vt 0.892041147 0.480533034
vt 0.924256146 0.47053507
vt 0.924558282 0.149006799
vt 0.861115813 0.154031634
vt 0.861115932 0.461852252
vt 0.830375791 0.461852252
vt 0.830375552 0.186074585
vt 0.861115634 0.154031634
vt 0.860850215 0.474447221
vt 0.891769528 0.474447221
vt 0.891769409 0.15884389
vt 0.89176935 0.15884389
vt 0.860850096 0.19169718
vt 0.924558401 0.166652307
vt 0.924362481 0.455867082
vt 0.892063856 0.464574337
vt 0.89233458 0.176516011
vt 0.866276264 0.478198677
vt 0.866276324 0.508926272
vt 0.892064095 0.508926272
vt 0.892064095 0.478198677
vt 0.891957641 0.479242325
vt 0.892259717 0.157714054
vt 0.924474835 0.14771606
vt 0.924256206 0.47053507
vt 0.891855955 0.186075643
vt 0.891856134 0.461852342
vt 0.861115932 0.461852252
vt 0.861115813 0.154032797
vt 0.891769528 0.158844307
vt 0.891769409 0.474447161
vt 0.860850096 0.474447161
vt 0.860850215 0.19169715
vt 0.924287558 0.454710722
vt 0.924558401 0.166652307
vt 0.892259717 0.175359562
vt 0.892063856 0.464574397
vt 0.892146945 0.350952625
vt 0.892146945 0.413490355
vt 0.924400091 0.413490385
vt 0.924400091 0.350952625
vt 0.253908217 0.619744897
vt 0.233683303 0.619744897
vt 0.233683303 0.639607072
vt 0.253908217 0.639607012
vt 0.892146945 0.350952625
vt 0.892146945 0.413490385
vt 0.924400091 0.413490355
vt 0.924400091 0.350952625
vt 0.253908217 0.619744897
vt 0.233683303 0.619744956
vt 0.233683303 0.639607072
vt 0.253908217 0.639607072
vt 0.924399972 0.413490444
vt 0.924399972 0.350952536
vt 0.892147064 0.350952536
vt 0.892147005 0.413490444
vt 0.924399972 0.413490444
vt 0.924400032 0.350952536
vt 0.892147064 0.350952536
vt 0.892147064 0.413490444
vt 0.306793213 0.63564074
vt 0.152723998 0.63564074
vt 0.152724043 0.617840886
vt 0.306793213 0.617840886
vt 0.288891613 0.597930193
vt 0.306793213 0.617840886
vt 0.152724043 0.617840886
vt 0.152724043 0.550877452
vt 0.246586174 0.550877452
vt 0.23363924 0.533852875
vt 0.233639121 0.549856544
vt 0.166675568 0.549856603
vt 0.166675806 0.533852875
vt 0.152723998 0.550877452
vt 0.152724043 0.617840886
vt 0.306793213 0.617840886
vt 0.288891613 0.597930193
vt 0.246586084 0.550877213
vt 0.246586174 0.550877452
vt 0.152724043 0.550877452
vt 0.152724043 0.533077717
vt 0.246586174 0.533077717
vt 0.152724043 0.533077717
vt 0.152724072 0.550877452
vt 0.246586174 0.550877452
vt 0.246586174 0.533077717
vt 0.152723998 0.63564074
vt 0.306793213 0.63564074
vt 0.306793213 0.617841125
vt 0.152723998 0.617840767
vt 0.23363924 0.549856603
vt 0.233639121 0.533852875
vt 0.166675806 0.533852816
vt 0.166675806 0.549856544
vt 0.152723998 0.617840767
vt 0.306793213 0.617841125
vt 0.288891613 0.597930312
vt 0.246586174 0.550877452
vt 0.152724072 0.550877452
vt 0.288891613 0.597930431
vt 0.306793213 0.617841125
vt 0.152724072 0.617841125
vt 0.246586204 0.550877452
vt 0.152724028 0.550877571
vt 0.180119783 0.635808587
vt 0.180119783 0.618333578
vt 0.247171372 0.618333578
vt 0.247171372 0.635808647
vt 0.152723998 0.617840707
vt 0.274344534 0.617840707
vt 0.199768215 0.550789118
vt 0.152723998 0.550789118
vt 0.199768394 0.550789058
vt 0.152724117 0.550789118
vt 0.152724057 0.532566965
vt 0.199768394 0.532566965
vt 0.274344712 0.636062801
vt 0.152724117 0.63606292
vt 0.152724057 0.617840707
vt 0.274344772 0.617840827
vt 0.274344772 0.617840827
vt 0.152724057 0.617840707
vt 0.152724117 0.550789118
vt 0.199768394 0.550789058
vt 0.152723998 0.532567024
vt 0.152723998 0.550789118
vt 0.199768394 0.550789118
vt 0.199768394 0.532566965
vt 0.152723998 0.636062682
vt 0.274344653 0.636062682
vt 0.274344593 0.617840648
vt 0.152723998 0.617840707
vt 0.180119842 0.618333459
vt 0.180119783 0.635808527
vt 0.247171372 0.635808527
vt 0.247171372 0.618333399
vt 0.152723998 0.617840707
vt 0.274344593 0.617840648
vt 0.199768394 0.550789118
vt 0.152723998 0.550789118
vt 0.274344772 0.617840707
vt 0.152724057 0.617840707
vt 0.152724117 0.550789118
vt 0.199768394 0.550789118
vt 0.152724057 0.617840707
vt 0.152724057 0.643433452
vt 0.213550359 0.643433452
vt 0.213550359 0.617840648
vt 0.129713714 0.550188601
vt 0.129713714 0.617840648
vt 0.152724057 0.617840707
vt 0.152724132 0.550188363
vt 0.152724057 0.643433332
vt 0.213550299 0.643433332
vt 0.213550359 0.617840707
vt 0.152723983 0.617840648
vt 0.129713714 0.617840648
vt 0.152723983 0.617840648
vt 0.152723983 0.550188184
vt 0.129713625 0.550188243
vt 0.366668612 0.557355404
vt 0.419362068 0.557355404
vt 0.419362277 0.610759735
vt 0.366668612 0.610759735
vt 0.419362277 0.610759735
vt 0.419362277 0.557355404
vt 0.366668612 0.557355404
vt 0.366668612 0.610759735
vt 0.419362277 0.557110727
vt 0.426452994 0.550020158
vt 0.426452994 0.617809176
vt 0.419362277 0.610718608
vt 0.160583675 0.557110488
vt 0.153493077 0.550019801
vt 0.153493106 0.617809117
vt 0.16058369 0.610718429
vt 0.159851402 0.610718548
vt 0.152760699 0.617809117
vt 0.152760699 0.55001986
vt 0.159851402 0.557110488
vt 0.419362277 0.610718548
vt 0.426452994 0.617809176
vt 0.426452994 0.55001992
vt 0.419362277 0.557110488
vt 0.160583675 0.557110548
vt 0.153493077 0.550019801
vt 0.153493106 0.617809117
vt 0.16058369 0.610718489
vt 0.16058369 0.610718489
vt 0.153493106 0.617809117
vt 0.153493077 0.550019801
vt 0.160583675 0.557110548
vt 0.419362277 0.610718787
vt 0.426452994 0.617809415
vt 0.426452994 0.550020158
vt 0.419362277 0.557110727
vt 0.160583884 0.610718429
vt 0.153493285 0.617809117
vt 0.153493077 0.550019801
vt 0.160583675 0.557110488
vn -3.03275812E-07 -4.82219548E-07 1
vn -3.03275812E-07 -4.82219548E-07 1
vn -3.03275812E-07 -4.82219548E-07 1
vn -0 2.88517782E-07 -1
vn -0 2.88517782E-07 -1
vn -0 2.88517782E-07 -1
vn -0 2.88517782E-07 -1
vn 1 0 -1.20554901E-07
vn 1 0 -1.20554901E-07
vn 1 0 -1.20554901E-07
vn 1 0 -1.20554901E-07
vn 1.50876826E-06 -0.707354426 -0.706859112
vn 1.50876826E-06 -0.707354426 -0.706859112
vn 1.50876826E-06 -0.707354426 -0.706859112
vn 1.50876826E-06 -0.707354426 -0.706859112
vn 1.50876826E-06 -0.707354426 -0.706859112
vn -8.00769897E-07 0.707048953 0.707164586
vn -8.00769897E-07 0.707048953 0.707164586
vn -8.00769897E-07 0.707048953 0.707164586
vn -8.00769897E-07 0.707048953 0.707164586
vn -8.00769897E-07 0.707048953 0.707164586
vn -1 0 2.35398346E-07
vn -1 0 2.35398346E-07
vn -1 0 2.35398346E-07
vn -1 0 2.35398346E-07
vn -1 0 0
vn -1 0 0
vn -1 0 0
vn -1 0 0
vn -3.03275812E-07 -4.82219548E-07 1
vn -3.03275812E-07 -4.82219548E-07 1
vn -3.03275812E-07 -4.82219548E-07 1
vn -3.03275812E-07 -4.82219548E-07 1
vn -0.706858933 -0.707354605 1.06067141E-07
vn -0.706858933 -0.707354605 1.06067141E-07
vn -0.706858933 -0.707354605 1.06067141E-07
vn -0.706858933 -0.707354605 1.06067141E-07
vn 0.707164645 0.707048833 9.34231537E-07
vn 0.707164645 0.707048833 9.34231537E-07
vn 0.707164645 0.707048833 9.34231537E-07
vn 0.707164645 0.707048833 9.34231537E-07
vn -0 2.69026401E-07 -1
vn -0 2.69026401E-07 -1
vn -0 2.69026401E-07 -1
vn -0 2.69026401E-07 -1
vn -0 -1.74118838E-07 1
vn -0 -1.74118838E-07 1
vn -0 -1.74118838E-07 1
vn -0 -1.74118838E-07 1
vn -0 1 0
vn -0 1 0
vn -0 1 0
vn -0 1 0
vn -0 1.7411891E-07 -1
vn -0 1.7411891E-07 -1
vn -0 1.7411891E-07 -1
vn -0 1.7411891E-07 -1
vn -0 -1 -2.86294664E-07
vn -0 -1 -2.86294664E-07
vn -0 -1 -2.86294664E-07
vn -0 -1 -2.86294664E-07
vn 1 0 -3.48239666E-07
vn 1 0 -3.48239666E-07
vn 1 0 -3.48239666E-07
vn 1 0 -3.48239666E-07
vn -1 0 0
vn -1 0 0
vn -1 0 0
vn -1 0 0
vn -0 0 -1
vn -0 0 -1
vn -0 0 -1
vn -0 0 -1
vn -0 1 0
vn -0 1 0
vn -0 1 0
vn -0 1 0
vn -0 1 0
vn 1 0 0
vn 1 0 0
vn 1 0 0
vn 1 0 0
vn -0 -1 1.37286008E-07
vn -0 -1 1.37286008E-07
vn -0 -1 1.37286008E-07
vn -0 -1 1.37286008E-07
vn -0 -1 1.37286008E-07
vn 2.73013711E-07 1.4668592E-06 1
vn 2.73013711E-07 1.4668592E-06 1
vn 2.73013711E-07 1.4668592E-06 1
vn 2.73013711E-07 1.4668592E-06 1
vn 1 1.68129498E-06 3.11999514E-07
vn 1 1.68129498E-06 3.11999514E-07
vn 1 1.68129498E-06 3.11999514E-07
vn 1 1.68129498E-06 3.11999514E-07
vn -1 0 0
vn -1 0 0
vn -1 0 0
vn -1 0 0
vn -0 -4.57364052E-07 1
vn -0 -4.57364052E-07 1
vn -0 -4.57364052E-07 1
vn -0 -4.57364052E-07 1
vn 1.32850616E-07 1 -2.27387147E-07
vn 1.32850616E-07 1 -2.27387147E-07
vn 1.32850616E-07 1 -2.27387147E-07
vn 1.32850616E-07 1 -2.27387147E-07
vn 1.32850616E-07 1 -2.27387147E-07
vn -0 -1 2.39679906E-07
vn -0 -1 2.39679906E-07
vn -0 -1 2.39679906E-07
vn -0 -1 2.39679906E-07
vn -0 -1 2.39679906E-07
vn 1 0 0
vn 1 0 0
vn 1 0 0
vn 1 0 0
vn -0 -1 1.64314486E-07
vn -0 -1 1.64314486E-07
vn -0 -1 1.64314486E-07
vn -0 -1 1.64314486E-07
vn -0 -1.77288257E-07 1
vn -0 -1.77288257E-07 1
vn -0 -1.77288257E-07 1
vn -0 -1.77288257E-07 1
vn -0 1.37154572E-07 -1
vn -0 1.37154572E-07 -1
vn -0 1.37154572E-07 -1
vn -0 1.37154572E-07 -1
vn -0 1 -1.59609669E-07
vn -0 1 -1.59609669E-07
vn -0 1 -1.59609669E-07
vn -0 1 -1.59609669E-07
vn 1 1.56616909E-06 6.38338634E-07
vn 1 1.56616909E-06 6.38338634E-07
vn 1 1.56616909E-06 6.38338634E-07
vn 1 1.56616909E-06 6.38338634E-07
vn -1 -1.5661692E-06 -7.88638147E-07
vn -1 -1.5661692E-06 -7.88638147E-07
vn -1 -1.5661692E-06 -7.88638147E-07
vn -1 -1.5661692E-06 -7.88638147E-07
vn -0 0 1
vn -0 0 1
vn -0 0 1
vn -0 0 1
vn -0 1 -1.8348824E-07
vn -0 1 -1.8348824E-07
vn -0 1 -1.8348824E-07
vn -0 1 -1.8348824E-07
vn -0 -1 1.5055447E-07
vn -0 -1 1.5055447E-07
vn -0 -1 1.5055447E-07
vn -0 -1 1.5055447E-07
vn -1 0 1.26940063E-06
vn -1 0 1.26940063E-06
vn -1 0 1.26940063E-06
vn -1 0 1.26940063E-06
vn -0 3.25455972E-07 1
vn -0 3.25455972E-07 1
vn -0 3.25455972E-07 1
vn -0 3.25455972E-07 1
vn 1 -3.20246568E-06 1.30182275E-06
vn 1 -3.20246568E-06 1.30182275E-06
vn 1 -3.20246568E-06 1.30182275E-06
vn 1 -3.20246568E-06 1.30182275E-06
vn -0 1.62727574E-07 -1
vn -0 1.62727574E-07 -1
vn -0 1.62727574E-07 -1
vn -0 1.62727574E-07 -1
vn -0 -1 -1.53196382E-07
vn -0 -1 -1.53196382E-07
vn -0 -1 -1.53196382E-07
vn -0 -1 -1.53196382E-07
vn -0 1 1.53196368E-07
vn -0 1 1.53196368E-07
vn -0 1 1.53196368E-07
vn -0 1 1.53196368E-07
vn -0 -1 0
vn -0 -1 0
vn -0 -1 0
vn -0 -1 0
vn -0 1 0
vn -0 1 0
vn -0 1 0
vn -0 1 0
vn -0 -1 0
vn -0 -1 0
vn -0 -1 0
vn -0 -1 0
vn -0 1 0
vn -0 1 0
vn -0 1 0
vn -0 1 0
vn -0 1 0
vn -0 1 0
vn -0 1 0
vn -0 1 0
vn -0 -1 0
vn -0 -1 0
vn -0 -1 0
vn -0 -1 0
vn -0 1 0
vn -0 1 0
vn -0 1 0
vn -0 1 0
vn -0 -1 0
vn -0 -1 0
vn -0 -1 0
vn -0 -1 0
g FloatStairs_CorrugatedSteel_Turn_0
f 3/3/3 2/2/2 1/1/1
f 6/6/6 5/5/5 4/4/4
f 7/7/7 6/6/6 4/4/4
f 10/10/10 9/9/9 8/8/8
f 11/11/11 10/10/10 8/8/8
f 14/14/14 13/13/13 12/12/12
f 12/12/12 15/15/15 14/14/14
f 12/12/12 16/16/16 15/15/15
f 19/19/19 18/18/18 17/17/17
f 17/17/17 20/20/20 19/19/19
f 17/17/17 21/21/21 20/20/20
f 24/24/24 23/23/23 22/22/22
f 25/25/25 24/24/24 22/22/22
f 28/28/28 27/27/27 26/26/26
f 29/29/29 28/28/28 26/26/26
f 32/32/32 31/31/31 30/30/30
f 32/32/32 30/30/30 33/33/33
f 36/36/36 35/35/35 34/34/34
f 37/37/37 36/36/36 34/34/34
f 40/40/40 39/39/39 38/38/38
f 41/41/41 40/40/40 38/38/38
f 44/44/44 43/43/43 42/42/42
f 45/45/45 44/44/44 42/42/42
f 48/48/48 47/47/47 46/46/46
f 49/49/49 48/48/48 46/46/46
f 52/52/52 51/51/51 50/50/50
f 53/53/53 52/52/52 50/50/50
f 56/56/56 55/55/55 54/54/54
f 57/57/57 56/56/56 54/54/54
f 60/60/60 59/59/59 58/58/58
f 61/61/61 60/60/60 58/58/58
f 64/64/64 63/63/63 62/62/62
f 65/65/65 64/64/64 62/62/62
f 68/68/68 67/67/67 66/66/66
f 69/69/69 68/68/68 66/66/66
f 72/72/72 71/71/71 70/70/70
f 73/73/73 72/72/72 70/70/70
f 76/76/76 75/75/75 74/74/74
f 74/74/74 77/77/77 76/76/76
f 74/74/74 78/78/78 77/77/77
f 81/81/81 80/80/80 79/79/79
f 82/82/82 81/81/81 79/79/79
f 85/85/85 84/84/84 83/83/83
f 83/83/83 86/86/86 85/85/85
f 83/83/83 87/87/87 86/86/86
f 90/90/90 89/89/89 88/88/88
f 91/91/91 90/90/90 88/88/88
f 94/94/94 93/93/93 92/92/92
f 95/95/95 94/94/94 92/92/92
f 98/98/98 97/97/97 96/96/96
f 99/99/99 98/98/98 96/96/96
f 102/102/102 101/101/101 100/100/100
f 103/103/103 102/102/102 100/100/100
f 106/106/106 105/105/105 104/104/104
f 104/104/104 107/107/107 106/106/106
f 104/104/104 108/108/108 107/107/107
f 111/111/111 110/110/110 109/109/109
f 109/109/109 112/112/112 111/111/111
f 112/112/112 113/113/113 111/111/111
f 116/116/116 115/115/115 114/114/114
f 117/117/117 116/116/116 114/114/114
f 120/120/120 119/119/119 118/118/118
f 121/121/121 120/120/120 118/118/118
f 124/124/124 123/123/123 122/122/122
f 125/125/125 124/124/124 122/122/122
f 128/128/128 127/127/127 126/126/126
f 129/129/129 128/128/128 126/126/126
f 132/132/132 131/131/131 130/130/130
f 133/133/133 132/132/132 130/130/130
f 136/136/136 135/135/135 134/134/134
f 137/137/137 136/136/136 134/134/134
f 140/140/140 139/139/139 138/138/138
f 141/141/141 140/140/140 138/138/138
f 144/144/144 143/143/143 142/142/142
f 145/145/145 144/144/144 142/142/142
f 148/148/148 147/147/147 146/146/146
f 149/149/149 148/148/148 146/146/146
f 152/152/152 151/151/151 150/150/150
f 153/153/153 152/152/152 150/150/150
f 156/156/156 155/155/155 154/154/154
f 157/157/157 156/156/156 154/154/154
f 160/160/160 159/159/159 158/158/158
f 161/161/161 160/160/160 158/158/158
f 164/164/164 163/163/163 162/162/162
f 165/165/165 164/164/164 162/162/162
f 168/168/168 167/167/167 166/166/166
f 169/169/169 168/168/168 166/166/166
f 172/172/172 171/171/171 170/170/170
f 173/173/173 172/172/172 170/170/170
f 176/176/176 175/175/175 174/174/174
f 177/177/177 176/176/176 174/174/174
f 180/180/180 179/179/179 178/178/178
f 181/181/181 180/180/180 178/178/178
f 184/184/184 183/183/183 182/182/182
f 185/185/185 184/184/184 182/182/182
f 188/188/188 187/187/187 186/186/186
f 189/189/189 188/188/188 186/186/186
f 192/192/192 191/191/191 190/190/190
f 193/193/193 192/192/192 190/190/190
f 196/196/196 195/195/195 194/194/194
f 197/197/197 196/196/196 194/194/194
f 200/200/200 199/199/199 198/198/198
f 201/201/201 200/200/200 198/198/198
f 204/204/204 203/203/203 202/202/202
f 205/205/205 204/204/204 202/202/202
f 208/208/208 207/207/207 206/206/206
f 209/209/209 208/208/208 206/206/206
