g Floor1I
v 0.4375 0.5 -0.5
v 0.5 0.5 -0.5
v 0.5 0.5 -0.4375
v 0.5 -0.375 -0.4375
v 0.4375 -0.375 -0.5
v 0.5 -0.375 -0.5
v 0.4375 0.375 -0.5
v 0.5 0.375 -0.4375
v 0.5 0.375 -0.5
v 0.4375 -0.5 -0.5
v 0.5 -0.5 -0.4375
v 0.5 -0.5 -0.5
v 0.5 -0.5 -0.4375
v 0.4375 -0.5 -0.5
v -0.5 -0.5 -0.5
v -0.5 -0.5 0.5
v 0.5 -0.5 0.5
v -0.5 0.5 0.5
v -0.5 0.5 -0.5
v 0.4375 0.5 -0.5
v 0.5 0.5 -0.4375
v 0.5 0.5 0.5
v 0.4375 -0.375 -0.5
v 0.5 -0.375 -0.4375
v 0.5 0.375 -0.4375
v 0.4375 0.375 -0.5
vt 0.428262204 0.12555334
vt 0.411724895 0.108437717
vt 0.394238442 0.125602052
vt 0.394238442 0.125602052
vt 0.428262204 0.12555334
vt 0.411724895 0.108437717
vt 0.428262204 0.12555334
vt 0.394238442 0.125602052
vt 0.411724895 0.108437717
vt 0.428262204 0.12555334
vt 0.394238442 0.125602052
vt 0.411724895 0.108437717
vt 0.96815443 0.047265701
vt 0.968210816 0.0472092852
vt 0.968605042 0.0472093895
vt 0.968604922 0.0476665124
vt 0.968154311 0.0476663634
vt 0.968604922 0.0476665124
vt 0.968605042 0.0472093895
vt 0.968210816 0.0472092852
vt 0.96815443 0.047265701
vt 0.968154311 0.0476663634
vt 0.394238472 0.41171661
vt 0.428108573 0.411702901
vt 0.428108543 0.125553355
vt 0.394238442 0.125602052
vn -0 1 0
vn -0 1 0
vn -0 1 0
vn -0 1 0
vn -0 1 0
vn -0 1 0
vn -0 -1 0
vn -0 -1 0
vn -0 -1 0
vn -0 -1 0
vn -0 -1 0
vn -0 -1 0
vn -0 -1 0
vn -0 -1 0
vn -0 -1 0
vn -0 -1 0
vn -0 -1 0
vn -0 1 0
vn -0 1 0
vn -0 1 0
vn -0 1 0
vn -0 1 0
vn 0.707106769 0 -0.707106769
vn 0.707106769 0 -0.707106769
vn 0.707106769 0 -0.707106769
vn 0.707106769 0 -0.707106769
g Floor1I_0
f 3/3/3 2/2/2 1/1/1
f 6/6/6 5/5/5 4/4/4
f 9/9/9 8/8/8 7/7/7
f 12/12/12 11/11/11 10/10/10
f 15/15/15 14/14/14 13/13/13
f 13/13/13 16/16/16 15/15/15
f 13/13/13 17/17/17 16/16/16
f 20/20/20 19/19/19 18/18/18
f 18/18/18 21/21/21 20/20/20
f 18/18/18 22/22/22 21/21/21
f 25/25/25 24/24/24 23/23/23
f 26/26/26 25/25/25 23/23/23
