g WallCorner
v -0.225005642 -0.5 -0.281245947
v -0.0625 -0.5 -0.281245708
v -0.0625 0.5 -0.281245708
v -0.225005642 0.5 -0.281245947
v -0.28125 -0.5 0.225006104
v -0.28125 0.5 0.225006104
v -0.225005642 0.5 0.28125
v -0.225005642 -0.5 0.28125
v 0.225005493 -0.5 0.28125
v 0.225005493 0.5 0.28125
v 0.28125 0.5 0.225006104
v 0.28125 -0.5 0.225006104
v -0.28125 0.5 -0.22500205
v -0.28125 -0.5 -0.22500205
v -0.225005642 -0.5 -0.281245947
v -0.225005642 0.5 -0.281245947
v 0.225005493 0.5 -0.281245947
v 0.225005493 -0.5 -0.281245947
v 0.28125 -0.5 -0.225001901
v 0.28125 0.5 -0.22500205
v -0.499999672 0.5 0.0625
v -0.499999672 -0.5 0.0625
v -0.499999672 -0.5 -0.0625
v -0.499999672 0.5 -0.0625
v 0.28125 0.5 0.225006104
v 0.28125 0.5 -0.22500205
v 0.28125 -0.5 -0.225001901
v 0.28125 -0.5 0.225006104
v -0.28125 0.5 -0.22500205
v -0.28125 0.5 -0.0625
v -0.28125 -0.5 -0.0625
v -0.28125 -0.5 -0.22500205
v -0.0625 -0.5 -0.281245708
v -0.225005642 -0.5 -0.281245947
v -0.28125 -0.5 -0.22500205
v -0 -0.5 0
v 0.0625 -0.5 -0.281245708
v 0.225005493 -0.5 -0.281245947
v 0.28125 -0.5 -0.225001901
v 0.28125 -0.5 0.225006104
v -0.28125 -0.5 -0.0625
v -0.225005642 -0.5 0.28125
v 0.225005493 -0.5 0.28125
v -0.28125 -0.5 0.0625
v -0.28125 -0.5 0.225006104
v -0.499999672 -0.5 0.0625
v -0.499999672 -0.5 -0.0625
v -0.28125 0.5 0.0625
v -0.28125 0.5 0.225006104
v -0.28125 -0.5 0.225006104
v -0.28125 -0.5 0.0625
v -0.28125 0.5 -0.22500205
v -0.225005642 0.5 -0.281245947
v -0.0625 0.5 -0.281245708
v -0 0.5 0
v 0.0625 0.5 -0.281245708
v -0.28125 0.5 -0.0625
v 0.28125 0.5 -0.22500205
v 0.225005493 0.5 -0.281245947
v 0.28125 0.5 0.225006104
v -0.225005642 0.5 0.28125
v 0.225005493 0.5 0.28125
v -0.28125 0.5 0.225006104
v -0.28125 0.5 0.0625
v -0.499999672 0.5 -0.0625
v -0.499999672 0.5 0.0625
v -0.28125 0.5 -0.0625
v -0.499999672 0.5 -0.0625
v -0.499999672 -0.5 -0.0625
v -0.28125 -0.5 -0.0625
v -0.28125 -0.5 0.0625
v -0.499999672 -0.5 0.0625
v -0.499999672 0.5 0.0625
v -0.28125 0.5 0.0625
v -0.225005642 0.5 0.28125
v 0.225005493 0.5 0.28125
v 0.225005493 -0.5 0.28125
v -0.225005642 -0.5 0.28125
v 0.0625 -0.5 -0.281245708
v 0.225005493 -0.5 -0.281245947
v 0.225005493 0.5 -0.281245947
v 0.0625 0.5 -0.281245708
v -0.0625 -0.5 -0.5
v 0.0625 -0.5 -0.5
v 0.0625 0.5 -0.5
v -0.0625 0.5 -0.5
v -0.0625 -0.5 -0.281245708
v -0.0625 -0.5 -0.5
v -0.0625 0.5 -0.5
v -0.0625 0.5 -0.281245708
v -0.0625 0.5 -0.281245708
v -0.0625 0.5 -0.5
v 0.0625 0.5 -0.5
v 0.0625 0.5 -0.281245708
v 0.0625 0.5 -0.281245708
v 0.0625 0.5 -0.5
v 0.0625 -0.5 -0.5
v 0.0625 -0.5 -0.281245708
v 0.0625 -0.5 -0.281245708
v 0.0625 -0.5 -0.5
v -0.0625 -0.5 -0.5
v -0.0625 -0.5 -0.281245708
vt 0.891825259 0.109086692
vt 0.826872766 0.109086692
vt 0.826872766 0.508781254
vt 0.891825259 0.508781254
vt 0.50399667 0.109160244
vt 0.50399667 0.508854747
vt 0.535788476 0.508854747
vt 0.535788834 0.109160244
vt 0.504063725 0.109086692
vt 0.504063725 0.508781254
vt 0.535855114 0.508781254
vt 0.535855114 0.109086692
vt 0.923617542 0.508781254
vt 0.923617542 0.109086454
vt 0.891825259 0.109086692
vt 0.891825259 0.508781254
vt 0.747513711 0.508781254
vt 0.747514069 0.109086692
vt 0.715720475 0.109086692
vt 0.71572113 0.508781254
vt 0.58933568 0.520576775
vt 0.989973962 0.520576894
vt 0.989973962 0.570656657
vt 0.58933568 0.570656657
vt 0.535855114 0.508781254
vt 0.71572113 0.508781254
vt 0.715720475 0.109086692
vt 0.535855114 0.109086692
vt 0.923617542 0.508781254
vt 0.988568842 0.508781254
vt 0.988568842 0.109086454
vt 0.923617542 0.109086454
vt 0.851591468 0.988847435
vt 0.786139727 0.988847673
vt 0.763486385 0.96619451
vt 0.876764297 0.875571489
vt 0.901937008 0.988847435
vt 0.967388868 0.988847673
vt 0.99004209 0.966194391
vt 0.99004209 0.78494668
vt 0.763486385 0.900744081
vt 0.786139727 0.762293577
vt 0.967388868 0.762293577
vt 0.763486385 0.850398481
vt 0.763486385 0.78494668
vt 0.67538166 0.850398481
vt 0.67538166 0.900744081
vt 0.43904376 0.508854747
vt 0.50399667 0.508854747
vt 0.50399667 0.109160244
vt 0.43904376 0.109160244
vt 0.763486385 0.96619451
vt 0.786139727 0.988847435
vt 0.851591468 0.988847435
vt 0.876764297 0.875571489
vt 0.901937008 0.988847435
vt 0.763486385 0.900744081
vt 0.99004209 0.96619451
vt 0.967388868 0.988847435
vt 0.99004209 0.78494668
vt 0.786139727 0.762293577
vt 0.967388868 0.762293577
vt 0.763486385 0.78494668
vt 0.763486385 0.850398481
vt 0.67538166 0.900744081
vt 0.67538166 0.850398481
vt 0.832995892 0.031704545
vt 0.829458654 0.031704545
vt 0.829458654 0.0478747487
vt 0.832995892 0.0478747487
vt 0.836632609 0.031704545
vt 0.833095372 0.031704545
vt 0.833095372 0.0478746891
vt 0.836632609 0.0478746891
vt 0.535788476 0.508854747
vt 0.715655327 0.508854985
vt 0.715656281 0.109160602
vt 0.535788834 0.109160244
vt 0.923657715 0.50885433
vt 0.988610327 0.50885433
vt 0.988610327 0.109159827
vt 0.923657715 0.109159827
vt 0.989973962 0.570645034
vt 0.989973962 0.520565212
vt 0.58933568 0.520565212
vt 0.58933568 0.570644975
vt 0.840266347 0.031704545
vt 0.836729169 0.031704545
vt 0.836729169 0.0478746891
vt 0.840266347 0.0478746891
vt 0.901937366 0.762474298
vt 0.901937366 0.674367726
vt 0.851591468 0.674367726
vt 0.851591587 0.762474298
vt 0.840362906 0.0478746891
vt 0.843900204 0.0478746891
vt 0.843900204 0.031704545
vt 0.840362906 0.031704545
vt 0.851591587 0.762474298
vt 0.851591468 0.674367726
vt 0.901937366 0.674367726
vt 0.901937366 0.762474298
vn 1.50235178E-06 0 -1
vn 1.50235178E-06 0 -1
vn 1.50235178E-06 0 -1
vn 1.50235178E-06 0 -1
vn -0.707104146 0 0.707109332
vn -0.707104146 0 0.707109332
vn -0.707104146 0 0.707109332
vn -0.707104146 0 0.707109332
vn 0.707103252 0 0.707110286
vn 0.707103252 0 0.707110286
vn 0.707103252 0 0.707110286
vn 0.707103252 0 0.707110286
vn -0.707103848 0 -0.70710969
vn -0.707103848 0 -0.70710969
vn -0.707103848 0 -0.70710969
vn -0.707103848 0 -0.70710969
vn 0.707103252 0 -0.707110286
vn 0.707103252 0 -0.707110286
vn 0.707103193 0 -0.707110345
vn 0.707103193 0 -0.707110286
vn -1 0 0
vn -1 0 0
vn -1 0 0
vn -1 0 0
vn 1 0 0
vn 1 0 0
vn 1 0 0
vn 1 0 0
vn -1 0 0
vn -1 0 0
vn -1 0 0
vn -1 0 0
vn -0 -1 0
vn -0 -1 0
vn -0 -1 0
vn -0 -1 0
vn -0 -1 0
vn -0 -1 0
vn -0 -1 0
vn -0 -1 0
vn -0 -1 0
vn -0 -1 0
vn -0 -1 0
vn -0 -1 0
vn -0 -1 0
vn -0 -1 0
vn -0 -1 0
vn -1 0 0
vn -1 0 0
vn -1 0 0
vn -1 0 0
vn -0 1 0
vn -0 1 0
vn -0 1 0
vn -0 1 0
vn -0 1 0
vn -0 1 0
vn -0 1 0
vn -0 1 0
vn -0 1 0
vn -0 1 0
vn -0 1 0
vn -0 1 0
vn -0 1 0
vn -0 1 0
vn -0 1 0
vn -0 0 -1
vn -0 0 -1
vn -0 0 -1
vn -0 0 -1
vn -0 0 1
vn -0 0 1
vn -0 0 1
vn -0 0 1
vn -0 0 1
vn -0 0 1
vn -0 0 1
vn -0 0 1
vn -1.50235326E-06 0 -1
vn -1.50235326E-06 0 -1
vn -1.50235326E-06 0 -1
vn -1.50235326E-06 0 -1
vn -0 0 -1
vn -0 0 -1
vn -0 0 -1
vn -0 0 -1
vn -1 0 0
vn -1 0 0
vn -1 0 0
vn -1 0 0
vn -0 1 0
vn -0 1 0
vn -0 1 0
vn -0 1 0
vn 1 0 0
vn 1 0 0
vn 1 0 0
vn 1 0 0
vn -0 -1 0
vn -0 -1 0
vn -0 -1 0
vn -0 -1 0
g WallCorner_0
f 3/3/3 2/2/2 1/1/1
f 4/4/4 3/3/3 1/1/1
f 7/7/7 6/6/6 5/5/5
f 8/8/8 7/7/7 5/5/5
f 11/11/11 10/10/10 9/9/9
f 12/12/12 11/11/11 9/9/9
f 15/15/15 14/14/14 13/13/13
f 16/16/16 15/15/15 13/13/13
f 19/19/19 18/18/18 17/17/17
f 20/20/20 19/19/19 17/17/17
f 23/23/23 22/22/22 21/21/21
f 24/24/24 23/23/23 21/21/21
f 27/27/27 26/26/26 25/25/25
f 28/28/28 27/27/27 25/25/25
f 31/31/31 30/30/30 29/29/29
f 32/32/32 31/31/31 29/29/29
f 35/35/35 34/34/34 33/33/33
f 33/33/33 36/36/36 35/35/35
f 33/33/33 37/37/37 36/36/36
f 37/37/37 38/38/38 36/36/36
f 38/38/38 39/39/39 36/36/36
f 36/36/36 39/39/39 40/40/40
f 36/36/36 41/41/41 35/35/35
f 40/40/40 42/42/42 36/36/36
f 40/40/40 43/43/43 42/42/42
f 36/36/36 42/42/42 44/44/44
f 44/44/44 41/41/41 36/36/36
f 42/42/42 45/45/45 44/44/44
f 44/44/44 46/46/46 41/41/41
f 46/46/46 47/47/47 41/41/41
f 50/50/50 49/49/49 48/48/48
f 51/51/51 50/50/50 48/48/48
f 54/54/54 53/53/53 52/52/52
f 52/52/52 55/55/55 54/54/54
f 55/55/55 56/56/56 54/54/54
f 52/52/52 57/57/57 55/55/55
f 55/55/55 58/58/58 56/56/56
f 58/58/58 59/59/59 56/56/56
f 60/60/60 58/58/58 55/55/55
f 55/55/55 61/61/61 60/60/60
f 61/61/61 62/62/62 60/60/60
f 61/61/61 55/55/55 63/63/63
f 55/55/55 64/64/64 63/63/63
f 57/57/57 64/64/64 55/55/55
f 57/57/57 65/65/65 64/64/64
f 65/65/65 66/66/66 64/64/64
f 69/69/69 68/68/68 67/67/67
f 70/70/70 69/69/69 67/67/67
f 73/73/73 72/72/72 71/71/71
f 74/74/74 73/73/73 71/71/71
f 77/77/77 76/76/76 75/75/75
f 78/78/78 77/77/77 75/75/75
f 81/81/81 80/80/80 79/79/79
f 82/82/82 81/81/81 79/79/79
f 85/85/85 84/84/84 83/83/83
f 86/86/86 85/85/85 83/83/83
f 89/89/89 88/88/88 87/87/87
f 90/90/90 89/89/89 87/87/87
f 93/93/93 92/92/92 91/91/91
f 94/94/94 93/93/93 91/91/91
f 97/97/97 96/96/96 95/95/95
f 98/98/98 97/97/97 95/95/95
f 101/101/101 100/100/100 99/99/99
f 102/102/102 101/101/101 99/99/99
