g CS_ColumnTop
v -0.297151178 0.5 -0.290821224
v -0.286515206 0.5 -0.311166078
v 0.299794316 0.5 -0.311166078
v 0.318011314 0.5 -0.294311821
v 0.318011314 0.5 0.293764949
v -0.297151178 0.5 0.298557431
v 0.296428978 0.5 0.31719023
v -0.261943042 0.5 0.31719023
v -0.433845401 0.391095042 0.34708038
v -0.433845401 0.302615106 0.34708038
v -0.433845401 0.302615106 -0.347084045
v -0.433845401 0.391095042 -0.347084045
v -0.347084939 0.391095042 -0.433844298
v -0.347084939 0.302615106 -0.433844298
v 0.347084641 0.302615106 -0.433844298
v 0.347084641 0.391095042 -0.433844298
v -0.347084939 0.391095042 0.433843672
v -0.347084939 0.302615106 0.433843672
v -0.433845401 0.302615106 0.34708038
v -0.433845401 0.391095042 0.34708038
v 0.433845371 0.391095042 0.347084045
v 0.433845371 0.302615106 0.347084045
v 0.347084641 0.302615106 0.433843672
v 0.347084641 0.391095042 0.433843672
v -0.433845401 0.391095042 -0.347084045
v -0.433845401 0.302615106 -0.347084045
v -0.347084939 0.302615106 -0.433844298
v -0.347084939 0.391095042 -0.433844298
v 0.347084641 0.391095042 -0.433844298
v 0.347084641 0.302615106 -0.433844298
v 0.433845371 0.302615106 -0.347080976
v 0.433845371 0.391095042 -0.347080976
v 0.433845371 0.391095042 -0.347080976
v 0.433845371 0.302615106 -0.347080976
v 0.433845371 0.302615106 0.347084045
v 0.433845371 0.391095042 0.347084045
v 0.347084641 0.391095042 0.433843672
v 0.347084641 0.302615106 0.433843672
v -0.347084939 0.302615106 0.433843672
v -0.347084939 0.391095042 0.433843672
v -0.433845401 0.391095042 -0.347084045
v -0.297151178 0.5 -0.290821224
v -0.297151178 0.5 0.298557431
v -0.433845401 0.391095042 0.34708038
v -0.433845401 0.391095042 0.34708038
v -0.297151178 0.5 0.298557431
v -0.261943042 0.5 0.31719023
v -0.347084939 0.391095042 0.433843672
v -0.347084939 0.391095042 0.433843672
v -0.261943042 0.5 0.31719023
v 0.296428978 0.5 0.31719023
v 0.347084641 0.391095042 0.433843672
v 0.347084641 0.391095042 0.433843672
v 0.296428978 0.5 0.31719023
v 0.318011314 0.5 0.293764949
v 0.433845371 0.391095042 0.347084045
v 0.433845371 0.391095042 0.347084045
v 0.318011314 0.5 0.293764949
v 0.318011314 0.5 -0.294311821
v 0.433845371 0.391095042 -0.347080976
v 0.433845371 0.391095042 -0.347080976
v 0.318011314 0.5 -0.294311821
v 0.299794316 0.5 -0.311166078
v 0.347084641 0.391095042 -0.433844298
v 0.347084641 0.391095042 -0.433844298
v 0.299794316 0.5 -0.311166078
v -0.286515206 0.5 -0.311166078
v -0.347084939 0.391095042 -0.433844298
v -0.347084939 0.391095042 -0.433844298
v -0.286515206 0.5 -0.311166078
v -0.297151178 0.5 -0.290821224
v -0.433845401 0.391095042 -0.347084045
v 0.433845371 0.302615106 -0.347080976
v 0.347084641 0.302615106 -0.433844298
v -0.347084939 0.302615106 -0.433844298
v -0.433845401 0.302615106 -0.347084045
v -0.433845401 0.302615106 0.34708038
v 0.433845371 0.302615106 0.347084045
v -0.347084939 0.302615106 0.433843672
v 0.347084641 0.302615106 0.433843672
v -0.28125 0.302615106 -0.22500518
v -0.28125 0.302615106 0.225002736
v -0.28125 -0.5 0.225002736
v -0.28125 -0.5 -0.22500518
v 0.225005567 0.302615106 -0.281249076
v -0.225005567 0.302615106 -0.281249076
v -0.225005567 -0.5 -0.281249076
v 0.225005567 -0.5 -0.281249076
v -0.28125 -0.5 0.225002736
v -0.28125 0.302615106 0.225002736
v -0.225005642 0.302615106 0.281249076
v -0.225005642 -0.5 0.281249076
v 0.225005493 -0.5 0.281249076
v 0.225005493 0.302615106 0.281249076
v 0.28125 0.302615106 0.22500518
v 0.28125 -0.5 0.22500518
v -0.28125 0.302615106 -0.22500518
v -0.28125 -0.5 -0.22500518
v -0.225005567 -0.5 -0.281249076
v -0.225005567 0.302615106 -0.281249076
v 0.225005567 0.302615106 -0.281249076
v 0.225005567 -0.5 -0.281249076
v 0.28125 -0.5 -0.225002736
v 0.28125 0.302615106 -0.225003049
v 0.28125 0.302615106 0.22500518
v 0.28125 0.302615106 -0.225003049
v 0.28125 -0.5 -0.225002736
v 0.28125 -0.5 0.22500518
v -0.225005642 0.302615106 0.281249076
v 0.225005493 0.302615106 0.281249076
v 0.225005493 -0.5 0.281249076
v -0.225005642 -0.5 0.281249076
v -0.34375 0.302615106 0.0624990836
v -0.34375 -0.5 0.0624990836
v -0.34375 -0.5 -0.0625009164
v -0.34375 0.302615106 -0.0625009164
v -0.34375 0.302615106 -0.0625009164
v -0.34375 -0.5 -0.0625009164
v -0.28125 -0.5 -0.125000909
v -0.28125 0.302615106 -0.125000909
v -0.28125 0.302615106 0.124999084
v -0.28125 -0.5 0.124999084
v -0.34375 -0.5 0.0624990836
v -0.34375 0.302615106 0.0624990836
v 0.0625 0.302615106 0.343749076
v 0.0625 -0.5 0.343749076
v -0.0625 -0.5 0.343749076
v -0.0625 0.302615106 0.343749076
v -0.0625 0.302615106 0.343749076
v -0.0625 -0.5 0.343749076
v -0.125 -0.5 0.281249076
v -0.125 0.302615106 0.281249076
v 0.125 0.302615106 0.281249076
v 0.125 -0.5 0.281249076
v 0.0625 -0.5 0.343749076
v 0.0625 0.302615106 0.343749076
v 0.34375 0.302615106 -0.0625009164
v 0.34375 -0.5 -0.0625009164
v 0.34375 -0.5 0.0624990836
v 0.34375 0.302615106 0.0624990836
v 0.34375 0.302615106 0.0624990836
v 0.34375 -0.5 0.0624990836
v 0.28125 -0.5 0.124999084
v 0.28125 0.302615106 0.124999084
v 0.28125 0.302615106 -0.125000909
v 0.28125 -0.5 -0.125000909
v 0.34375 -0.5 -0.0625009164
v 0.34375 0.302615106 -0.0625009164
v -0.0625 0.302615106 -0.343750894
v -0.0625 -0.5 -0.343750894
v 0.0625 -0.5 -0.343750894
v 0.0625 0.302615106 -0.343750894
v 0.0625 0.302615106 -0.343750894
v 0.0625 -0.5 -0.343750894
v 0.125 -0.5 -0.281250924
v 0.125 0.302615106 -0.281250924
v -0.125 0.302615106 -0.281250924
v -0.125 -0.5 -0.281250924
v -0.0625 -0.5 -0.343750894
v -0.0625 0.302615106 -0.343750894
vt 0.80721724 0.944186389
vt 0.809717894 0.948969841
vt 0.947566986 0.948969901
vt 0.951849997 0.945007324
vt 0.951850116 0.806742787
vt 0.807217479 0.805615962
vt 0.946775854 0.801235199
vt 0.815495372 0.801235139
vt 0.92545706 0.149709165
vt 0.892666161 0.149709165
vt 0.892666161 0.275919378
vt 0.92545706 0.275919378
vt 0.892666101 0.275919437
vt 0.92545712 0.275919437
vt 0.92545712 0.14970839
vt 0.892666101 0.14970839
vt 0.92545706 0.1339342
vt 0.892666161 0.1339342
vt 0.892666161 0.149709165
vt 0.92545706 0.149709165
vt 0.92545706 0.275919378
vt 0.892666101 0.275919378
vt 0.892666101 0.291693628
vt 0.92545706 0.291693628
vt 0.92545706 0.275919378
vt 0.892666161 0.275919378
vt 0.892666161 0.291693628
vt 0.92545706 0.291693628
vt 0.92545706 0.1339342
vt 0.892666101 0.1339342
vt 0.892666101 0.149709105
vt 0.92545706 0.149709105
vt 0.92545706 0.149709105
vt 0.892666101 0.149709105
vt 0.892666101 0.275919378
vt 0.92545706 0.275919378
vt 0.92545706 0.14970839
vt 0.892666101 0.14970839
vt 0.892666101 0.275919437
vt 0.92545706 0.275919437
vt 0.763748348 0.966343403
vt 0.80721724 0.944186389
vt 0.807217479 0.805615962
vt 0.763748348 0.785432696
vt 0.763748348 0.785432696
vt 0.807217479 0.805615962
vt 0.815495372 0.801235139
vt 0.786359429 0.76282078
vt 0.786359429 0.76282078
vt 0.815495372 0.801235139
vt 0.946775854 0.801235199
vt 0.967271507 0.76282078
vt 0.967271507 0.76282078
vt 0.946775854 0.801235199
vt 0.951850116 0.806742787
vt 0.989882648 0.785431683
vt 0.989882648 0.785431683
vt 0.951850116 0.806742787
vt 0.951849997 0.945007324
vt 0.989882648 0.966342568
vt 0.989882648 0.966342568
vt 0.951849997 0.945007324
vt 0.947566986 0.948969901
vt 0.967271507 0.988954544
vt 0.967271507 0.988954544
vt 0.947566986 0.948969901
vt 0.809717894 0.948969841
vt 0.786359429 0.988954544
vt 0.786359429 0.988954544
vt 0.809717894 0.948969841
vt 0.80721724 0.944186389
vt 0.763748348 0.966343403
vt 0.989902973 0.96606642
vt 0.967200994 0.988768995
vt 0.785562932 0.988768995
vt 0.762860954 0.966067255
vt 0.762860954 0.784430444
vt 0.989902973 0.784429431
vt 0.785562932 0.76172775
vt 0.967200994 0.76172775
vt 0.535855234 0.429887623
vt 0.715720892 0.429887623
vt 0.715720475 0.109086692
vt 0.535855114 0.109086692
vt 0.53578788 0.429960936
vt 0.715655029 0.429961234
vt 0.715656281 0.109160602
vt 0.535788834 0.109160244
vt 0.50399667 0.1091602
vt 0.503996849 0.429961443
vt 0.535788536 0.429961085
vt 0.535788834 0.109160244
vt 0.504063725 0.109086692
vt 0.50406307 0.429887861
vt 0.535855174 0.429887593
vt 0.535855114 0.109086692
vt 0.923618436 0.429887623
vt 0.923617482 0.109086528
vt 0.891825199 0.109086633
vt 0.891826034 0.429887652
vt 0.747512877 0.429887295
vt 0.747513711 0.109086588
vt 0.715720475 0.109086692
vt 0.715720952 0.429887593
vt 0.535855174 0.429887593
vt 0.715720952 0.429887593
vt 0.715720475 0.109086692
vt 0.535855114 0.109086692
vt 0.535788536 0.429961085
vt 0.715655684 0.429961562
vt 0.715656281 0.109160602
vt 0.535788834 0.109160244
vt 0.333017677 0.37512055
vt 0.333028436 0.109921932
vt 0.289253473 0.109921932
vt 0.289242804 0.375120401
vt 0.950876534 0.181303009
vt 0.950852633 0.41518876
vt 0.924475551 0.415185094
vt 0.924497545 0.19995679
vt 0.892370462 0.237276554
vt 0.892367661 0.452497423
vt 0.865989745 0.489799887
vt 0.865992963 0.255932629
vt 0.333017498 0.375120133
vt 0.333028436 0.109921932
vt 0.289253473 0.109921932
vt 0.289242625 0.375119984
vt 0.95087564 0.181303352
vt 0.950852633 0.41518876
vt 0.924475551 0.415185094
vt 0.924496591 0.199957132
vt 0.892369926 0.23727636
vt 0.892367661 0.452497423
vt 0.865989745 0.489799887
vt 0.865992367 0.25593245
vt 0.333017647 0.37512055
vt 0.333028436 0.109921932
vt 0.289253473 0.109921932
vt 0.289242774 0.375120401
vt 0.950875759 0.181302875
vt 0.950852633 0.41518876
vt 0.924475551 0.415185094
vt 0.92449671 0.199956641
vt 0.892371058 0.237276569
vt 0.892367661 0.452497423
vt 0.865989745 0.489799887
vt 0.8659935 0.255932659
vt 0.333017468 0.37512058
vt 0.333028436 0.109921932
vt 0.289253473 0.109921932
vt 0.289242595 0.375120431
vt 0.950874925 0.181303382
vt 0.950852633 0.41518876
vt 0.924475551 0.415185094
vt 0.924495876 0.199957147
vt 0.892371297 0.237276286
vt 0.892367661 0.452497423
vt 0.865989745 0.489799887
vt 0.865993738 0.255932391
vn -0 1 0
vn -0 1 0
vn -0 1 0
vn -0 1 0
vn -0 1 0
vn -0 1 0
vn -0 1 0
vn -0 1 0
vn -1 0 0
vn -1 0 0
vn -1 0 0
vn -1 0 0
vn -0 0 -1
vn -0 0 -1
vn -0 0 -1
vn -0 0 -1
vn -0.707118332 0 0.707095206
vn -0.707118332 0 0.707095206
vn -0.707118332 0 0.707095206
vn -0.707118332 0 0.707095206
vn 0.707102776 0 0.707110763
vn 0.707102776 0 0.707110763
vn 0.707102776 0 0.707110763
vn 0.707102776 0 0.707110763
vn -0.707105935 0 -0.707107604
vn -0.707105935 0 -0.707107604
vn -0.707105935 0 -0.707107604
vn -0.707105935 0 -0.707107604
vn 0.707117319 0 -0.707096219
vn 0.707117319 0 -0.707096219
vn 0.707117319 0 -0.707096219
vn 0.707117319 0 -0.707096219
vn 1 0 0
vn 1 0 0
vn 1 0 0
vn 1 0 0
vn -0 0 1
vn -0 0 1
vn -0 0 1
vn -0 0 1
vn -0.623122334 0.782124341 0
vn -0.623122454 0.782124341 0
vn -0.623122454 0.782124341 0
vn -0.623122454 0.782124341 0
vn -0.410500318 0.778343141 0.47504881
vn -0.410500318 0.778343141 0.47504881
vn -0.410500377 0.778343141 0.47504884
vn -0.410500348 0.778343201 0.475048751
vn -0 0.730966628 0.68241322
vn -0 0.730966568 0.68241334
vn -0 0.730966628 0.68241322
vn -0 0.730966628 0.68241322
vn 0.481517643 0.737542689 0.473467529
vn 0.481517613 0.737542689 0.473467529
vn 0.481517613 0.737542689 0.473467529
vn 0.481517643 0.737542689 0.473467529
vn 0.684979796 0.728562057 0
vn 0.684979796 0.728562117 0
vn 0.684979796 0.728562057 0
vn 0.684979916 0.728562057 0
vn 0.47268337 0.739754796 -0.478887558
vn 0.47268337 0.739754796 -0.478887558
vn 0.47268334 0.739754736 -0.478887558
vn 0.47268337 0.739754796 -0.478887498
vn -0 0.747840106 -0.663878858
vn -0 0.747840226 -0.663878858
vn -0 0.747840106 -0.663878858
vn -0 0.747840106 -0.663878858
vn -0.468371153 0.774096608 -0.425914139
vn -0.468371183 0.774096608 -0.425914168
vn -0.468371153 0.774096608 -0.425914139
vn -0.468371183 0.774096608 -0.425914168
vn -0 -1 0
vn -0 -1 0
vn -0 -1 0
vn -0 -1 0
vn -0 -1 0
vn -0 -1 0
vn -0 -1 0
vn -0 -1 0
vn -1 0 0
vn -1 0 0
vn -1 0 0
vn -1 0 0
vn -0 0 -1
vn -0 0 -1
vn -0 0 -1
vn -0 0 -1
vn -0.707119167 0 0.707094371
vn -0.707119167 0 0.707094371
vn -0.707119167 0 0.707094371
vn -0.707119167 0 0.707094371
vn 0.707102776 0 0.707110703
vn 0.707102776 0 0.707110703
vn 0.707102776 0 0.707110703
vn 0.707102776 0 0.707110703
vn -0.707103312 0 -0.707110167
vn -0.707103312 0 -0.707110167
vn -0.707103312 0 -0.707110167
vn -0.707103312 0 -0.707110167
vn 0.707118571 -1.91205743E-07 -0.707094908
vn 0.707118571 -1.91205743E-07 -0.707094908
vn 0.70711863 -1.91205757E-07 -0.707094908
vn 0.70711863 -1.91205743E-07 -0.707094908
vn 1 0 0
vn 1 0 0
vn 1 0 0
vn 1 0 0
vn -0 0 1
vn -0 0 1
vn -0 0 1
vn -0 0 1
vn -1 0 0
vn -1 0 0
vn -1 0 0
vn -1 0 0
vn -0.707106888 0 -0.70710659
vn -0.707106888 0 -0.70710659
vn -0.707106888 0 -0.70710659
vn -0.707106888 0 -0.70710659
vn -0.707106888 0 0.70710659
vn -0.707106888 0 0.70710659
vn -0.707106888 0 0.70710659
vn -0.707106888 0 0.70710659
vn -0 0 1
vn -0 0 1
vn -0 0 1
vn -0 0 1
vn -0.707105637 0 0.707107902
vn -0.707105637 0 0.707107902
vn -0.707105637 0 0.707107902
vn -0.707105637 0 0.707107902
vn 0.707105637 0 0.707107902
vn 0.707105637 0 0.707107902
vn 0.707105637 0 0.707107902
vn 0.707105637 0 0.707107902
vn 1 0 0
vn 1 0 0
vn 1 0 0
vn 1 0 0
vn 0.707106888 0 0.70710659
vn 0.707106888 0 0.70710659
vn 0.707106888 0 0.70710659
vn 0.707106888 0 0.70710659
vn 0.707106888 0 -0.70710659
vn 0.707106888 0 -0.70710659
vn 0.707106888 0 -0.70710659
vn 0.707106888 0 -0.70710659
vn -0 0 -1
vn -0 0 -1
vn -0 0 -1
vn -0 0 -1
vn 0.707106888 0 -0.70710659
vn 0.707106888 0 -0.70710659
vn 0.707106888 0 -0.70710659
vn 0.707106888 0 -0.70710659
vn -0.707106888 0 -0.70710659
vn -0.707106888 0 -0.70710659
vn -0.707106888 0 -0.70710659
vn -0.707106888 0 -0.70710659
g CS_ColumnTop_0
f 3/3/3 2/2/2 1/1/1
f 1/1/1 4/4/4 3/3/3
f 1/1/1 5/5/5 4/4/4
f 1/1/1 6/6/6 5/5/5
f 6/6/6 7/7/7 5/5/5
f 6/6/6 8/8/8 7/7/7
f 11/11/11 10/10/10 9/9/9
f 12/12/12 11/11/11 9/9/9
f 15/15/15 14/14/14 13/13/13
f 16/16/16 15/15/15 13/13/13
f 19/19/19 18/18/18 17/17/17
f 20/20/20 19/19/19 17/17/17
f 23/23/23 22/22/22 21/21/21
f 24/24/24 23/23/23 21/21/21
f 27/27/27 26/26/26 25/25/25
f 28/28/28 27/27/27 25/25/25
f 31/31/31 30/30/30 29/29/29
f 32/32/32 31/31/31 29/29/29
f 35/35/35 34/34/34 33/33/33
f 36/36/36 35/35/35 33/33/33
f 39/39/39 38/38/38 37/37/37
f 40/40/40 39/39/39 37/37/37
f 43/43/43 42/42/42 41/41/41
f 44/44/44 43/43/43 41/41/41
f 47/47/47 46/46/46 45/45/45
f 48/48/48 47/47/47 45/45/45
f 51/51/51 50/50/50 49/49/49
f 52/52/52 51/51/51 49/49/49
f 55/55/55 54/54/54 53/53/53
f 56/56/56 55/55/55 53/53/53
f 59/59/59 58/58/58 57/57/57
f 60/60/60 59/59/59 57/57/57
f 63/63/63 62/62/62 61/61/61
f 64/64/64 63/63/63 61/61/61
f 67/67/67 66/66/66 65/65/65
f 68/68/68 67/67/67 65/65/65
f 71/71/71 70/70/70 69/69/69
f 72/72/72 71/71/71 69/69/69
f 75/75/75 74/74/74 73/73/73
f 73/73/73 76/76/76 75/75/75
f 73/73/73 77/77/77 76/76/76
f 73/73/73 78/78/78 77/77/77
f 78/78/78 79/79/79 77/77/77
f 78/78/78 80/80/80 79/79/79
f 83/83/83 82/82/82 81/81/81
f 84/84/84 83/83/83 81/81/81
f 87/87/87 86/86/86 85/85/85
f 88/88/88 87/87/87 85/85/85
f 91/91/91 90/90/90 89/89/89
f 92/92/92 91/91/91 89/89/89
f 95/95/95 94/94/94 93/93/93
f 96/96/96 95/95/95 93/93/93
f 99/99/99 98/98/98 97/97/97
f 100/100/100 99/99/99 97/97/97
f 103/103/103 102/102/102 101/101/101
f 104/104/104 103/103/103 101/101/101
f 107/107/107 106/106/106 105/105/105
f 108/108/108 107/107/107 105/105/105
f 111/111/111 110/110/110 109/109/109
f 112/112/112 111/111/111 109/109/109
f 115/115/115 114/114/114 113/113/113
f 116/116/116 115/115/115 113/113/113
f 119/119/119 118/118/118 117/117/117
f 120/120/120 119/119/119 117/117/117
f 123/123/123 122/122/122 121/121/121
f 124/124/124 123/123/123 121/121/121
f 127/127/127 126/126/126 125/125/125
f 128/128/128 127/127/127 125/125/125
f 131/131/131 130/130/130 129/129/129
f 132/132/132 131/131/131 129/129/129
f 135/135/135 134/134/134 133/133/133
f 136/136/136 135/135/135 133/133/133
f 139/139/139 138/138/138 137/137/137
f 140/140/140 139/139/139 137/137/137
f 143/143/143 142/142/142 141/141/141
f 144/144/144 143/143/143 141/141/141
f 147/147/147 146/146/146 145/145/145
f 148/148/148 147/147/147 145/145/145
f 151/151/151 150/150/150 149/149/149
f 152/152/152 151/151/151 149/149/149
f 155/155/155 154/154/154 153/153/153
f 156/156/156 155/155/155 153/153/153
f 159/159/159 158/158/158 157/157/157
f 160/160/160 159/159/159 157/157/157
