g Fence_CorrugatedSteel_X_2
v -0.290758967 0.448630631 0.0381593332
v -0.290758818 -0.448631197 0.0381600931
v -0.361675709 -0.448631197 0.0381593332
v -0.361675739 0.448630631 0.0381600931
v -0.361675739 0.448630631 0.0381600931
v -0.361675709 -0.448631197 0.0381593332
v -0.397134095 -0.448631167 0.00270156865
v -0.397134244 0.448630631 0.00270156865
v -0.255300611 0.448630661 0.00270141591
v -0.255300462 -0.448631197 0.00270156865
v -0.290758818 -0.448631197 0.0381600931
v -0.290758967 0.448630631 0.0381593332
v -0 0.499999911 0.0625
v -0 0.437499851 0.0625
v -0.5 0.437499911 0.0625
v -0.5 0.499999881 0.0625
v -0 0.437499851 -0.0625
v -0 0.499999851 -0.0625
v -0.5 0.499999881 -0.0625
v -0.5 0.437499911 -0.0625
v -0 0.437499851 0.0625
v -0 0.437499851 -0.0625
v -0.5 0.437499911 -0.0625
v -0.5 0.437499911 0.0625
v -0.5 0.437499911 0.0625
v -0.5 0.437499911 -0.0625
v -0.5 0.499999881 -0.0625
v -0.5 0.499999881 0.0625
v -0.290758997 0.448630631 -0.0327561945
v -0.361675709 0.448630631 -0.0327569582
v -0.361675709 -0.448631197 -0.0327561945
v -0.290758818 -0.448631197 -0.0327569582
v -0.361675709 0.448630631 -0.0327569582
v -0.397134244 0.448630631 0.00270156865
v -0.397134095 -0.448631167 0.00270156865
v -0.361675709 -0.448631197 -0.0327561945
v -0.255300611 0.448630661 0.00270141591
v -0.290758997 0.448630631 -0.0327561945
v -0.290758818 -0.448631197 -0.0327569582
v -0.255300462 -0.448631197 0.00270156865
v -0.0625 0.499999791 -0.5
v -0.0625 0.437499762 -0.499999851
v 0.0625 0.437499762 -0.5
v 0.0625 0.5 -0.5
v -0.0625 0.499999851 0
v -0.0625 0.499999791 -0.5
v 0.0625 0.5 -0.5
v 0.0625 0.499999911 0
v 0.0354579203 0.448630691 -0.358974129
v 0.0354585275 -0.448631078 -0.358974129
v 0.0354579352 -0.448631078 -0.288057387
v 0.0354585275 0.448630691 -0.288057238
v 0.0354585275 0.448630691 -0.288057238
v 0.0354579352 -0.448631078 -0.288057387
v 7.74860354E-09 -0.448631048 -0.252598882
v 7.74860354E-09 0.448630691 -0.252598882
v -1.56760208E-07 0.448630691 -0.394432515
v -4.76837148E-09 -0.448631078 -0.394432515
v 0.0354585275 -0.448631078 -0.358974129
v 0.0354579203 0.448630691 -0.358974129
v -0.0354577564 0.448630691 -0.358974129
v -0.0354585275 0.448630691 -0.288057238
v -0.0354577638 -0.448631078 -0.288057387
v -0.0354585238 -0.448631078 -0.358974129
v -0.0354585275 0.448630691 -0.288057238
v 7.74860354E-09 0.448630691 -0.252598882
v 7.74860354E-09 -0.448631048 -0.252598882
v -0.0354577638 -0.448631078 -0.288057387
v -1.56760208E-07 0.448630691 -0.394432515
v -0.0354577564 0.448630691 -0.358974129
v -0.0354585238 -0.448631078 -0.358974129
v -4.76837148E-09 -0.448631078 -0.394432515
v -0.216666564 -0.437499911 0.0625
v -0.5 -0.499999881 0.0625
v -0.5 -0.437499911 0.0625
v -0.216666564 -0.499999911 0.0625
v -0.166666716 -0.410562098 0.0625
v -0.166666716 -0.473062098 0.0625
v -0.216666564 -0.499999911 -0.0625
v -0.5 -0.437499911 -0.0625
v -0.5 -0.499999881 -0.0625
v -0.216666564 -0.437499911 -0.0625
v -0.166666716 -0.473062098 -0.0625
v -0.166666716 -0.410562098 -0.0625
v -0.216666564 -0.499999911 0.0625
v -0.216666564 -0.499999911 -0.0625
v -0.5 -0.499999881 -0.0625
v -0.5 -0.499999881 0.0625
v -0.5 -0.499999881 0.0625
v -0.5 -0.499999881 -0.0625
v -0.5 -0.437499911 -0.0625
v -0.5 -0.437499911 0.0625
v -0.0624999925 -0.5 -0.216666564
v -0.0625 -0.410562128 -0.166666567
v -0.0625 -0.473062158 -0.166666567
v -0.0624999925 -0.43749994 -0.216666564
v -0.0625 -0.50000006 -0.499999851
v -0.0625 -0.4375 -0.5
v 0.0625 -0.5 -0.216666713
v -0.0624999925 -0.5 -0.216666564
v -0.0625 -0.473062158 -0.166666567
v 0.0624999925 -0.473062158 -0.166666716
v -0.0625 -0.4375 -0.5
v -0.0625 -0.50000006 -0.499999851
v 0.0625 -0.50000006 -0.5
v 0.0625 -0.437499791 -0.5
v -0.0624999925 -0.43749994 -0.216666564
v -0.0625 -0.4375 -0.5
v 0.0625 -0.437499791 -0.5
v 0.0625 -0.437499881 -0.216666564
v -0.216666564 -0.437499911 -0.0625
v -0.166666716 -0.410562098 -0.0625
v -0.166666716 -0.410562098 0.0625
v -0.216666564 -0.437499911 0.0625
v -0.5 -0.437499911 -0.0625
v -0.216666564 -0.437499911 -0.0625
v -0.216666564 -0.437499911 0.0625
v -0.5 -0.437499911 0.0625
v -0.166666716 -0.473062098 0.0625
v -0.166666716 -0.473062098 -0.0625
v -0.216666564 -0.499999911 -0.0625
v -0.216666564 -0.499999911 0.0625
v 0.0625 -0.437499881 -0.216666564
v 0.0624999925 -0.473062158 -0.166666716
v 0.0624999925 -0.410562038 -0.166666567
v 0.0625 -0.5 -0.216666713
v 0.0625 -0.437499791 -0.5
v 0.0625 -0.50000006 -0.5
v 0.0625 -0.50000006 -0.5
v -0.0625 -0.50000006 -0.499999851
v -0.0624999925 -0.5 -0.216666564
v 0.0625 -0.5 -0.216666713
v -0.0625 -0.410562128 -0.166666567
v -0.0624999925 -0.43749994 -0.216666564
v 0.0625 -0.437499881 -0.216666564
v 0.0624999925 -0.410562038 -0.166666567
v -0.170968935 -0.48769778 0.110623017
v -0.170968935 -0.48769778 -0.110623017
v -0.170968935 -0.390106618 -0.110623017
v -0.170968935 -0.390106618 0.110623017
v 0.110620879 -0.48769778 0.170966789
v -0.110625148 -0.48769778 0.170966789
v -0.110625148 -0.390106618 0.170966789
v 0.110620879 -0.390106618 0.170966789
v -0.170968935 -0.390106618 -0.110623017
v -0.110625148 -0.390106618 -0.170966789
v 0.110620879 -0.390106618 -0.170966789
v 0.170964658 -0.390106618 -0.110623017
v -0.170968935 -0.390106618 0.110623017
v 0.170964658 -0.390106618 0.11062286
v 0.110620879 -0.390106618 0.170966789
v -0.110625148 -0.390106618 0.170966789
v -0.110625148 -0.48769778 -0.170966789
v 0.110620879 -0.48769778 -0.170966789
v 0.110620879 -0.390106618 -0.170966789
v -0.110625148 -0.390106618 -0.170966789
v 0.170964658 -0.48769778 -0.110623017
v 0.170964658 -0.48769778 0.11062286
v 0.170964658 -0.390106618 0.11062286
v 0.170964658 -0.390106618 -0.110623017
v -0.170968935 -0.48769778 -0.110623017
v -0.110625148 -0.48769778 -0.170966789
v -0.110625148 -0.390106618 -0.170966789
v -0.170968935 -0.390106618 -0.110623017
v 0.170964658 -0.390106618 -0.110623017
v 0.110620879 -0.390106618 -0.170966789
v 0.110620879 -0.48769778 -0.170966789
v 0.170964658 -0.48769778 -0.110623017
v 0.110620879 -0.390106618 0.170966789
v 0.170964658 -0.390106618 0.11062286
v 0.170964658 -0.48769778 0.11062286
v 0.110620879 -0.48769778 0.170966789
v -0.170968935 -0.390106618 0.110623017
v -0.110625148 -0.390106618 0.170966789
v -0.110625148 -0.48769778 0.170966789
v -0.170968935 -0.48769778 0.110623017
v 0.170964658 -0.48769778 -0.110623017
v 0.110620879 -0.48769778 -0.170966789
v -0.110625148 -0.48769778 -0.170966789
v -0.170968935 -0.48769778 -0.110623017
v 0.170964658 -0.48769778 0.11062286
v -0.170968935 -0.48769778 0.110623017
v 0.110620879 -0.48769778 0.170966789
v -0.110625148 -0.48769778 0.170966789
v -0.170968935 0.414711058 0.110623017
v -0.170968935 0.414711058 -0.110623017
v -0.170968935 0.51230222 -0.110623017
v -0.170968935 0.51230222 0.110623017
v 0.110620879 0.414711058 0.170966789
v -0.110625148 0.414711058 0.170966789
v -0.110625148 0.51230222 0.170966789
v 0.110620879 0.51230222 0.170966789
v -0.170968935 0.51230222 -0.110623017
v -0.110625148 0.51230222 -0.170966789
v 0.110620879 0.51230222 -0.170966789
v 0.170964658 0.51230222 -0.110623017
v -0.170968935 0.51230222 0.110623017
v 0.170964658 0.51230222 0.11062286
v 0.110620879 0.51230222 0.170966789
v -0.110625148 0.51230222 0.170966789
v -0.110625148 0.414711058 -0.170966789
v 0.110620879 0.414711058 -0.170966789
v 0.110620879 0.51230222 -0.170966789
v -0.110625148 0.51230222 -0.170966789
v 0.170964658 0.414711058 -0.110623017
v 0.170964658 0.414711058 0.11062286
v 0.170964658 0.51230222 0.11062286
v 0.170964658 0.51230222 -0.110623017
v -0.170968935 0.414711058 -0.110623017
v -0.110625148 0.414711058 -0.170966789
v -0.110625148 0.51230222 -0.170966789
v -0.170968935 0.51230222 -0.110623017
v 0.170964658 0.51230222 -0.110623017
v 0.110620879 0.51230222 -0.170966789
v 0.110620879 0.414711058 -0.170966789
v 0.170964658 0.414711058 -0.110623017
v 0.110620879 0.51230222 0.170966789
v 0.170964658 0.51230222 0.11062286
v 0.170964658 0.414711058 0.11062286
v 0.110620879 0.414711058 0.170966789
v -0.170968935 0.51230222 0.110623017
v -0.110625148 0.51230222 0.170966789
v -0.110625148 0.414711058 0.170966789
v -0.170968935 0.414711058 0.110623017
v 0.170964658 0.414711058 -0.110623017
v 0.110620879 0.414711058 -0.170966789
v -0.110625148 0.414711058 -0.170966789
v -0.170968935 0.414711058 -0.110623017
v 0.170964658 0.414711058 0.11062286
v -0.170968935 0.414711058 0.110623017
v 0.110620879 0.414711058 0.170966789
v -0.110625148 0.414711058 0.170966789
v 0.0684535131 0.414711058 0.0855680853
v 0.0684535131 -0.390106648 0.0855680853
v -0.0684577972 -0.390106648 0.0855680853
v -0.0684577972 0.414711058 0.0855680853
v 0.068453528 0.414711058 -0.0855680853
v 0.068453528 -0.390106648 -0.0855680853
v 0.0855654925 -0.390106648 -0.0684562698
v 0.0855654925 0.414711058 -0.0684562698
v -0.0684577972 0.414711058 0.0855680853
v -0.0684577972 -0.390106648 0.0855680853
v -0.0855697617 -0.390106648 0.0684562698
v -0.0855697617 0.414711058 0.0684562698
v -0.0684577897 0.414711058 -0.0855680853
v -0.0684577897 -0.390106648 -0.0855680853
v 0.068453528 -0.390106648 -0.0855680853
v 0.068453528 0.414711058 -0.0855680853
v 0.0855654925 0.414711058 0.0684562698
v 0.0855654925 -0.390106648 0.0684562698
v 0.0684535131 -0.390106648 0.0855680853
v 0.0684535131 0.414711058 0.0855680853
v 0.0855654925 0.414711058 -0.0684562698
v 0.0855654925 -0.390106648 -0.0684562698
v 0.0855654925 -0.390106648 0.0684562698
v 0.0855654925 0.414711058 0.0684562698
v -0.0855697617 0.414711058 -0.0684562698
v -0.0855697617 -0.390106648 -0.0684562698
v -0.0684577897 -0.390106648 -0.0855680853
v -0.0684577897 0.414711058 -0.0855680853
v -0.0855697617 0.414711058 -0.0684562698
v -0.0855697617 0.414711058 0.0684562698
v -0.0855697617 -0.390106648 0.0684562698
v -0.0855697617 -0.390106648 -0.0684562698
v -0.099539943 0.533611596 -0.0796328709
v -0.0796345472 0.533611596 -0.0995385721
v 0.0796302706 0.533611655 -0.0995385721
v 0.0995356813 0.533611655 -0.0796328709
v -0.0995399579 0.533611596 0.0796328709
v 0.0995356739 0.533611655 0.0796328709
v -0.0796345398 0.533611596 0.0995385721
v 0.0796302781 0.533611655 0.0995385721
v -0.5 0.499999881 -0.0625
v -0 0.499999851 -0.0625
v -0 0.499999911 0.0625
v -0.5 0.499999881 0.0625
v 0.0625 0.5 -0.5
v 0.0625 0.437499762 -0.5
v 0.0625 0.437499851 0
v 0.0625 0.499999911 0
v -0.0625 0.437499762 -0.499999851
v -0.0625 0.499999791 -0.5
v -0.0625 0.499999851 0
v -0.0625 0.437499851 0
v 0.0625 0.437499762 -0.5
v -0.0625 0.437499762 -0.499999851
v -0.0625 0.437499851 0
v 0.0625 0.437499851 0
v -0.138850257 0.51230222 0.111081995
v -0.0995399579 0.533611596 0.0796328709
v -0.0796345398 0.533611596 0.0995385721
v -0.099539943 0.533611596 -0.0796328709
v -0.111083373 0.51230222 0.13884902
v -0.138850242 0.51230222 -0.111081995
v 0.0796302781 0.533611655 0.0995385721
v -0.111083373 0.51230222 -0.13884902
v 0.111079097 0.51230222 0.13884902
v -0.0796345472 0.533611596 -0.0995385721
v 0.0995356739 0.533611655 0.0796328709
v 0.111079097 0.51230222 -0.13884902
v 0.138845816 0.51230222 0.111081995
v 0.0796302706 0.533611655 -0.0995385721
v 0.0995356813 0.533611655 -0.0796328709
v 0.138845831 0.51230222 -0.111081995
vt 0.289255738 0.109930322
vt 0.289239347 0.440328598
vt 0.333015025 0.440328956
vt 0.333030641 0.109930873
vt 0.865981042 0.415196687
vt 0.866011202 0.116769411
vt 0.892384708 0.154072776
vt 0.892358243 0.415195107
vt 0.92448771 0.452492893
vt 0.924490571 0.191368878
vt 0.950868011 0.191364422
vt 0.950864196 0.489795387
vt 0.837109327 0.0496095009
vt 0.831337392 0.0496094935
vt 0.831337452 0.0957843661
vt 0.837109327 0.0957843661
vt 0.837109268 0.0496094562
vt 0.831337392 0.0496094562
vt 0.831337392 0.00343456492
vt 0.837109268 0.00343456492
vt 0.818720937 0.0486143902
vt 0.807047904 0.0486143902
vt 0.807047904 0.00192220556
vt 0.818720937 0.00192219066
vt 0.865262449 0.0519854985
vt 0.853718758 0.0519854985
vt 0.853718758 0.046213638
vt 0.865262449 0.046213638
vt 0.289255738 0.109930322
vt 0.333030641 0.109930873
vt 0.333015025 0.440328956
vt 0.289239347 0.440328598
vt 0.865981042 0.415196687
vt 0.892358243 0.415195107
vt 0.892384708 0.154072776
vt 0.866011202 0.116769411
vt 0.92448771 0.452492893
vt 0.950864196 0.489795387
vt 0.950868011 0.191364422
vt 0.924490571 0.191368878
vt 0.865262568 0.0519855581
vt 0.865262568 0.0462136976
vt 0.853718817 0.0462136976
vt 0.853718758 0.051985573
vt 0.818720996 0.0486144274
vt 0.818720996 0.00192226516
vt 0.807047963 0.00192228006
vt 0.807047963 0.0486144386
vt 0.289255738 0.109930322
vt 0.289239347 0.440328598
vt 0.333015025 0.440328956
vt 0.333030641 0.109930873
vt 0.865981042 0.415196687
vt 0.866011202 0.116769411
vt 0.892384708 0.154072776
vt 0.892358243 0.415195107
vt 0.92448771 0.452492893
vt 0.924490571 0.191368878
vt 0.950868011 0.191364422
vt 0.950864196 0.489795387
vt 0.289255738 0.109930322
vt 0.333030641 0.109930873
vt 0.333015025 0.440328956
vt 0.289239347 0.440328598
vt 0.865981042 0.415196687
vt 0.892358243 0.415195107
vt 0.892384708 0.154072776
vt 0.866011202 0.116769411
vt 0.92448771 0.452492893
vt 0.950864196 0.489795387
vt 0.950868011 0.191364422
vt 0.924490571 0.191368878
vt 0.837109327 0.0696185976
vt 0.831337452 0.0957843661
vt 0.837109327 0.0957843661
vt 0.831337452 0.0696185976
vt 0.837109327 0.0650011152
vt 0.831337452 0.0650011152
vt 0.837109268 0.0296003409
vt 0.831337392 0.00343456492
vt 0.837109268 0.00343456492
vt 0.831337392 0.0296003334
vt 0.837109268 0.034217827
vt 0.831337392 0.034217827
vt 0.818720937 0.0283810943
vt 0.807047904 0.0283811092
vt 0.807047904 0.00192220556
vt 0.818720937 0.00192219066
vt 0.865262449 0.0519854985
vt 0.853718758 0.0519854985
vt 0.853718758 0.046213638
vt 0.865262449 0.046213638
vt 0.837109268 0.0696185678
vt 0.831337392 0.0650010854
vt 0.837109268 0.0650010854
vt 0.831337392 0.0696185827
vt 0.837109268 0.0957843661
vt 0.831337392 0.0957843661
vt 0.818720937 0.0688476786
vt 0.807047963 0.0688476637
vt 0.807047963 0.0641784444
vt 0.818720937 0.0641784593
vt 0.865262568 0.0519855581
vt 0.865262568 0.0462136976
vt 0.853718817 0.0462136976
vt 0.853718758 0.051985573
vt 0.818720996 0.0283811539
vt 0.818720996 0.00192226516
vt 0.807047963 0.00192228006
vt 0.807047963 0.0283811688
vt 0.818720996 0.0688476935
vt 0.818720996 0.0641784742
vt 0.807047963 0.0641784742
vt 0.807047963 0.0688476935
vt 0.818720996 0.0953065977
vt 0.818720996 0.0688476935
vt 0.807047963 0.0688476935
vt 0.807048023 0.0953065977
vt 0.818720937 0.033050321
vt 0.807047904 0.0330503285
vt 0.807047904 0.0283811092
vt 0.818720937 0.0283810943
vt 0.837109327 0.0296004005
vt 0.831337392 0.0342178717
vt 0.837109327 0.0342178792
vt 0.831337392 0.0296003856
vt 0.837109268 0.00343464315
vt 0.831337333 0.00343464315
vt 0.818720996 0.0953065977
vt 0.807047963 0.0953065977
vt 0.807047963 0.0688476637
vt 0.818720937 0.0688476786
vt 0.818720996 0.0330503695
vt 0.818720996 0.0283811539
vt 0.807047963 0.0283811688
vt 0.807047963 0.0330503806
vt 0.958302498 0.51742065
vt 0.876239717 0.51742065
vt 0.876239717 0.574734271
vt 0.958302498 0.574734271
vt 0.844586432 0.51742059
vt 0.76252377 0.51742059
vt 0.76252389 0.574734211
vt 0.844586432 0.574734211
vt 0.410106093 0.515752554
vt 0.421790391 0.504068196
vt 0.421790391 0.46122846
vt 0.410106033 0.449544132
vt 0.367266357 0.515752554
vt 0.367266357 0.449544132
vt 0.355582029 0.46122846
vt 0.355582029 0.504068196
vt 0.844586551 0.51742065
vt 0.76252389 0.51742065
vt 0.76252389 0.574734211
vt 0.844586551 0.574734271
vt 0.958302379 0.51742065
vt 0.876239717 0.51742065
vt 0.876239717 0.574734211
vt 0.958302379 0.574734211
vt 0.876239717 0.51742065
vt 0.844586551 0.51742065
vt 0.844586551 0.574734271
vt 0.876239717 0.574734271
vt 0.958302379 0.574734211
vt 0.989955544 0.574734211
vt 0.989955544 0.51742065
vt 0.958302379 0.51742065
vt 0.844586432 0.574734211
vt 0.876239717 0.574734211
vt 0.876239717 0.51742065
vt 0.844586432 0.51742059
vt 0.958302498 0.574734271
vt 0.989955664 0.574734211
vt 0.989955664 0.51742059
vt 0.958302498 0.51742065
vt 0.367266387 0.449544132
vt 0.355582029 0.46122846
vt 0.355582029 0.504068196
vt 0.367266387 0.515752554
vt 0.410106093 0.449544132
vt 0.410106093 0.515752554
vt 0.421790391 0.46122846
vt 0.421790391 0.504068196
vt 0.958302498 0.51742065
vt 0.876239717 0.51742065
vt 0.876239717 0.574734271
vt 0.958302498 0.574734271
vt 0.844586432 0.51742059
vt 0.76252377 0.51742059
vt 0.76252389 0.574734211
vt 0.844586432 0.574734211
vt 0.413772225 0.521418512
vt 0.427456349 0.507734299
vt 0.427456349 0.457562327
vt 0.413772136 0.443878174
vt 0.363600254 0.521418512
vt 0.363600254 0.443878174
vt 0.349916071 0.457562327
vt 0.349916071 0.507734299
vt 0.844586551 0.51742065
vt 0.76252389 0.51742065
vt 0.76252389 0.574734211
vt 0.844586551 0.574734271
vt 0.958302379 0.51742065
vt 0.876239717 0.51742065
vt 0.876239717 0.574734211
vt 0.958302379 0.574734211
vt 0.876239717 0.51742065
vt 0.844586551 0.51742065
vt 0.844586551 0.574734271
vt 0.876239717 0.574734271
vt 0.958302379 0.574734211
vt 0.989955544 0.574734211
vt 0.989955544 0.51742065
vt 0.958302379 0.51742065
vt 0.844586432 0.574734211
vt 0.876239717 0.574734211
vt 0.876239717 0.51742065
vt 0.844586432 0.51742059
vt 0.958302498 0.574734271
vt 0.989955664 0.574734211
vt 0.989955664 0.51742059
vt 0.958302498 0.51742065
vt 0.363600284 0.443878174
vt 0.349916071 0.457562327
vt 0.349916071 0.507734299
vt 0.363600284 0.521418512
vt 0.413772225 0.443878174
vt 0.413772225 0.521418512
vt 0.427456349 0.457562327
vt 0.427456349 0.507734299
vt 0.0739825591 0.110828206
vt 0.0739827007 0.448354006
vt 0.132665813 0.448354006
vt 0.132665858 0.110828206
vt 0.0636099875 0.110828206
vt 0.0636097193 0.448354006
vt 0.0739825219 0.448354006
vt 0.0739825517 0.110828206
vt 0.0636102036 0.448354006
vt 0.0636099875 0.110828221
vt 0.0739827901 0.110828221
vt 0.073982805 0.448354006
vt 0.0739828199 0.448354006
vt 0.0739829242 0.110828206
vt 0.132666111 0.110828206
vt 0.132666156 0.448354006
vt 0.0636099726 0.110828206
vt 0.063609913 0.448354006
vt 0.0739827007 0.448354006
vt 0.0739825591 0.110828206
vt 0.0739825517 0.110828206
vt 0.0739825219 0.448354006
vt 0.132666156 0.448354006
vt 0.1326662 0.110828221
vt 0.0636102259 0.448354006
vt 0.0636101514 0.110828206
vt 0.0739829242 0.110828206
vt 0.0739828199 0.448354006
vt 0.132666469 0.448354006
vt 0.073982805 0.448354006
vt 0.0739827901 0.110828221
vt 0.132666394 0.110828221
vt 0.953338623 0.945139825
vt 0.946972251 0.953135967
vt 0.810840607 0.953135967
vt 0.805897295 0.94558239
vt 0.953338623 0.806957543
vt 0.805897295 0.806957543
vt 0.947081864 0.800574183
vt 0.814957142 0.800574183
vt 0.818720996 0.0953065977
vt 0.818720996 0.0486144274
vt 0.807047963 0.0486144349
vt 0.807048023 0.0953065977
vt 0.837109268 0.00343464315
vt 0.831337333 0.00343464315
vt 0.831337392 0.0496094935
vt 0.837109327 0.0496095084
vt 0.837109268 0.0957843661
vt 0.831337392 0.0957843661
vt 0.831337392 0.0496094562
vt 0.837109268 0.0496094637
vt 0.818720996 0.0953065977
vt 0.807047963 0.0953065977
vt 0.807047904 0.0486143939
vt 0.818720937 0.0486143902
vt 0.982417762 0.797332883
vt 0.953338623 0.806957543
vt 0.947081864 0.800574183
vt 0.953338623 0.945139825
vt 0.958947241 0.771697402
vt 0.982417762 0.957993388
vt 0.814957142 0.800574183
vt 0.961660385 0.980270505
vt 0.796345174 0.771697402
vt 0.946972251 0.953135967
vt 0.805897295 0.806957543
vt 0.791017175 0.980608702
vt 0.77403748 0.792532563
vt 0.810840607 0.953135967
vt 0.805897295 0.94558239
vt 0.77303201 0.962280393
vn -0 0 1
vn -0 0 1
vn -0 0 1
vn -0 0 1
vn -0.707104445 -3.10483813E-07 0.707109034
vn -0.707104445 -3.10483813E-07 0.707109034
vn -0.707104445 -3.10483813E-07 0.707109034
vn -0.707104445 -3.10483813E-07 0.707109034
vn 0.707105756 3.93279379E-07 0.707107723
vn 0.707105756 3.93279379E-07 0.707107723
vn 0.707105756 3.93279379E-07 0.707107723
vn 0.707105756 3.93279379E-07 0.707107723
vn -0 0 1
vn -0 0 1
vn -0 0 1
vn -0 0 1
vn -0 0 -1
vn -0 0 -1
vn -0 0 -1
vn -0 0 -1
vn -1.78813977E-07 -1 0
vn -1.78813977E-07 -1 0
vn -1.78813977E-07 -1 0
vn -1.78813977E-07 -1 0
vn -1 -9.53675226E-07 0
vn -1 -9.53675226E-07 0
vn -1 -9.53675226E-07 0
vn -1 -9.53675226E-07 0
vn -0 0 -1
vn -0 0 -1
vn -0 0 -1
vn -0 0 -1
vn -0.707103491 -3.31183145E-07 -0.707109988
vn -0.707103491 -3.31183145E-07 -0.707109988
vn -0.707103491 -3.31183145E-07 -0.707109988
vn -0.707103491 -3.31183145E-07 -0.707109988
vn 0.707103372 2.75355632E-07 -0.707110167
vn 0.707103372 2.75355632E-07 -0.707110167
vn 0.707103372 2.75355632E-07 -0.707110167
vn 0.707103372 2.75355632E-07 -0.707110167
vn -4.76836249E-07 0 -1
vn -4.76836249E-07 0 -1
vn -4.76836249E-07 0 -1
vn -4.76836249E-07 0 -1
vn -1.07288383E-06 1 0
vn -1.07288383E-06 1 0
vn -1.07288383E-06 1 0
vn -1.07288383E-06 1 0
vn 1 0 0
vn 1 0 0
vn 1 0 0
vn 1 0 0
vn 0.707109094 -3.05309101E-07 0.707104385
vn 0.707109094 -3.05309101E-07 0.707104385
vn 0.707109094 -3.05309101E-07 0.707104385
vn 0.707109094 -3.05309101E-07 0.707104385
vn 0.707107365 3.88104581E-07 -0.707106113
vn 0.707107365 3.88104581E-07 -0.707106113
vn 0.707107365 3.88104581E-07 -0.707106113
vn 0.707107365 3.88104581E-07 -0.707106113
vn -1 0 4.20244191E-07
vn -1 0 4.20244191E-07
vn -1 0 4.20244191E-07
vn -1 0 4.20244191E-07
vn -0.707110107 -3.04015771E-07 0.707103431
vn -0.707110107 -3.04015771E-07 0.707103431
vn -0.707110107 -3.04015771E-07 0.707103431
vn -0.707110107 -3.04015771E-07 0.707103431
vn -0.707109988 2.70780475E-07 -0.70710361
vn -0.707109988 2.70780475E-07 -0.70710361
vn -0.707109988 2.70780475E-07 -0.70710361
vn -0.707109988 2.70780475E-07 -0.70710361
vn -0 0 1
vn -0 0 1
vn -0 0 1
vn -0 0 1
vn -0 0 1
vn -0 0 1
vn -0 0 -1
vn -0 0 -1
vn -0 0 -1
vn -0 0 -1
vn -0 0 -1
vn -0 0 -1
vn -2.10369365E-07 -1 4.20738729E-07
vn -2.10369365E-07 -1 4.20738729E-07
vn -2.10369365E-07 -1 4.20738729E-07
vn -2.10369365E-07 -1 4.20738729E-07
vn -1 -9.53675226E-07 0
vn -1 -9.53675226E-07 0
vn -1 -9.53675226E-07 0
vn -1 -9.53675226E-07 0
vn -1 0 0
vn -1 0 2.98022968E-07
vn -1 0 2.98022968E-07
vn -1 0 1.46542973E-07
vn -1 1.05184611E-07 0
vn -1 1.05184611E-07 0
vn 3.27960691E-07 -0.880362988 0.474300534
vn 3.27960691E-07 -0.880362988 0.474300534
vn 3.27960691E-07 -0.880362988 0.474300534
vn 3.27960691E-07 -0.880362988 0.474300534
vn -4.76836249E-07 0 -1
vn -4.76836249E-07 0 -1
vn -4.76836249E-07 0 -1
vn -4.76836249E-07 0 -1
vn -1.07288361E-06 1 0
vn -1.07288361E-06 1 0
vn -1.07288361E-06 1 0
vn -1.07288361E-06 1 0
vn -0.474300891 0.880362749 0
vn -0.474300891 0.880362749 0
vn -0.474300891 0.880362749 0
vn -0.474300891 0.880362749 0
vn -0 1 0
vn -0 1 0
vn -0 1 0
vn -0 1 0
vn 0.474300891 -0.880362749 0
vn 0.474300891 -0.880362749 0
vn 0.474300891 -0.880362749 0
vn 0.474300891 -0.880362749 0
vn 1 0 -1.07354637E-07
vn 1 0 -1.49011669E-07
vn 1 0 -1.49011669E-07
vn 1 0 0
vn 1 0 0
vn 1 0 0
vn -0 -1 2.10369365E-07
vn -0 -1 2.10369365E-07
vn -0 -1 2.10369365E-07
vn -0 -1 2.10369365E-07
vn -6.29683996E-07 0.88036257 -0.474301308
vn -6.29683996E-07 0.88036257 -0.474301308
vn -6.29683996E-07 0.88036257 -0.474301308
vn -6.29683996E-07 0.88036257 -0.474301308
vn -1 0 0
vn -1 0 0
vn -1 0 0
vn -1 0 0
vn -0 0 1
vn -0 0 1
vn -0 0 1
vn -0 0 1
vn -0 1 0
vn -0 1 0
vn -0 1 0
vn -0 1 0
vn -0 1 0
vn -0 1 0
vn -0 1 0
vn -0 1 0
vn -0 0 -1
vn -0 0 -1
vn -0 0 -1
vn -0 0 -1
vn 1 0 0
vn 1 0 0
vn 1 0 0
vn 1 0 0
vn -0.707106769 0 -0.707106829
vn -0.707106769 0 -0.707106829
vn -0.707106769 0 -0.707106829
vn -0.707106769 0 -0.707106829
vn 0.707106769 0 -0.707106829
vn 0.707106769 0 -0.707106829
vn 0.707106769 0 -0.707106829
vn 0.707106769 0 -0.707106829
vn 0.707106769 0 0.707106829
vn 0.707106769 0 0.707106829
vn 0.707106769 0 0.707106829
vn 0.707106769 0 0.707106829
vn -0.707106769 0 0.707106829
vn -0.707106769 0 0.707106829
vn -0.707106769 0 0.707106829
vn -0.707106769 0 0.707106829
vn -0 -1 0
vn -0 -1 0
vn -0 -1 0
vn -0 -1 0
vn -0 -1 0
vn -0 -1 0
vn -0 -1 0
vn -0 -1 0
vn -1 0 0
vn -1 0 0
vn -1 0 0
vn -1 0 0
vn -0 0 1
vn -0 0 1
vn -0 0 1
vn -0 0 1
vn -0 1 0
vn -0 1 0
vn -0 1 0
vn -0 1 0
vn -0 1 0
vn -0 1 0
vn -0 1 0
vn -0 1 0
vn -0 0 -1
vn -0 0 -1
vn -0 0 -1
vn -0 0 -1
vn 1 0 0
vn 1 0 0
vn 1 0 0
vn 1 0 0
vn -0.707106769 0 -0.707106829
vn -0.707106769 0 -0.707106829
vn -0.707106769 0 -0.707106829
vn -0.707106769 0 -0.707106829
vn 0.707106769 0 -0.707106829
vn 0.707106769 0 -0.707106829
vn 0.707106769 0 -0.707106829
vn 0.707106769 0 -0.707106829
vn 0.707106769 0 0.707106829
vn 0.707106769 0 0.707106829
vn 0.707106769 0 0.707106829
vn 0.707106769 0 0.707106829
vn -0.707106769 0 0.707106829
vn -0.707106769 0 0.707106829
vn -0.707106769 0 0.707106829
vn -0.707106769 0 0.707106829
vn -0 -1 0
vn -0 -1 0
vn -0 -1 0
vn -0 -1 0
vn -0 -1 0
vn -0 -1 0
vn -0 -1 0
vn -0 -1 0
vn -0 0 1
vn -0 0 1
vn -0 0 1
vn -0 0 1
vn 0.707109094 0 -0.707104385
vn 0.707109094 0 -0.707104385
vn 0.707109094 0 -0.707104385
vn 0.707109094 0 -0.707104385
vn -0.707109571 0 0.707103908
vn -0.707109571 0 0.707103908
vn -0.707109571 0 0.707103908
vn -0.707109571 0 0.707103908
vn -0 0 -1
vn -0 0 -1
vn -0 0 -1
vn -0 0 -1
vn 0.707109094 0 0.707104385
vn 0.707109094 0 0.707104385
vn 0.707109094 0 0.707104385
vn 0.707109094 0 0.707104385
vn 1 0 0
vn 1 0 0
vn 1 0 0
vn 1 0 0
vn -0.707109571 0 -0.707103908
vn -0.707109571 0 -0.707103908
vn -0.707109571 0 -0.707103908
vn -0.707109571 0 -0.707103908
vn -1 0 0
vn -1 0 0
vn -1 0 0
vn -1 0 0
vn -3.10494784E-07 1 6.96348309E-07
vn -3.32670567E-07 1 2.08903521E-06
vn -3.32670567E-07 1 2.08903521E-06
vn -3.10494727E-07 1 6.96347684E-07
vn -3.10494784E-07 1 -6.96348309E-07
vn -3.10494727E-07 1 -6.96347684E-07
vn -3.32670567E-07 1 -2.08903521E-06
vn -3.32670567E-07 1 -2.08903521E-06
vn -0 1 -2.38418608E-07
vn -0 1 -2.38418608E-07
vn -0 1 -2.38418608E-07
vn -0 1 -2.38418608E-07
vn 1 0 0
vn 1 0 0
vn 1 0 0
vn 1 0 0
vn -1 0 0
vn -1 0 0
vn -1 0 0
vn -1 0 0
vn -0 -1 1.63912787E-07
vn -0 -1 1.63912787E-07
vn -0 -1 1.63912787E-07
vn -0 -1 1.63912787E-07
vn -0.360946149 0.916936696 0.170132548
vn -0.395829171 0.910189748 0.121958442
vn -0.12196026 0.910190225 0.395827502
vn -0.395829171 0.910189807 -0.121958219
vn -0.170132652 0.916936755 0.360945642
vn -0.360946089 0.916936755 -0.170132264
vn 0.121960126 0.910189927 0.395828187
vn -0.170132667 0.916937053 -0.360945106
vn 0.170132667 0.916936457 0.360946566
vn -0.12196026 0.910190523 -0.395826966
vn 0.395829946 0.910189331 0.121959135
vn 0.170132741 0.916936696 -0.360946059
vn 0.360946864 0.916936278 0.170133457
vn 0.121960193 0.910190225 -0.395827621
vn 0.395829916 0.910189331 -0.121958934
vn 0.360946864 0.916936278 -0.170133173
g Fence_CorrugatedSteel_X_2_0
f 3/3/3 2/2/2 1/1/1
f 4/4/4 3/3/3 1/1/1
f 7/7/7 6/6/6 5/5/5
f 8/8/8 7/7/7 5/5/5
f 11/11/11 10/10/10 9/9/9
f 12/12/12 11/11/11 9/9/9
f 15/15/15 14/14/14 13/13/13
f 16/16/16 15/15/15 13/13/13
f 19/19/19 18/18/18 17/17/17
f 20/20/20 19/19/19 17/17/17
f 23/23/23 22/22/22 21/21/21
f 24/24/24 23/23/23 21/21/21
f 27/27/27 26/26/26 25/25/25
f 28/28/28 27/27/27 25/25/25
f 31/31/31 30/30/30 29/29/29
f 32/32/32 31/31/31 29/29/29
f 35/35/35 34/34/34 33/33/33
f 36/36/36 35/35/35 33/33/33
f 39/39/39 38/38/38 37/37/37
f 40/40/40 39/39/39 37/37/37
f 43/43/43 42/42/42 41/41/41
f 44/44/44 43/43/43 41/41/41
f 47/47/47 46/46/46 45/45/45
f 48/48/48 47/47/47 45/45/45
f 51/51/51 50/50/50 49/49/49
f 52/52/52 51/51/51 49/49/49
f 55/55/55 54/54/54 53/53/53
f 56/56/56 55/55/55 53/53/53
f 59/59/59 58/58/58 57/57/57
f 60/60/60 59/59/59 57/57/57
f 63/63/63 62/62/62 61/61/61
f 64/64/64 63/63/63 61/61/61
f 67/67/67 66/66/66 65/65/65
f 68/68/68 67/67/67 65/65/65
f 71/71/71 70/70/70 69/69/69
f 72/72/72 71/71/71 69/69/69
f 75/75/75 74/74/74 73/73/73
f 74/74/74 76/76/76 73/73/73
f 73/73/73 76/76/76 77/77/77
f 76/76/76 78/78/78 77/77/77
f 81/81/81 80/80/80 79/79/79
f 80/80/80 82/82/82 79/79/79
f 79/79/79 82/82/82 83/83/83
f 82/82/82 84/84/84 83/83/83
f 87/87/87 86/86/86 85/85/85
f 88/88/88 87/87/87 85/85/85
f 91/91/91 90/90/90 89/89/89
f 92/92/92 91/91/91 89/89/89
f 95/95/95 94/94/94 93/93/93
f 94/94/94 96/96/96 93/93/93
f 93/93/93 96/96/96 97/97/97
f 96/96/96 98/98/98 97/97/97
f 101/101/101 100/100/100 99/99/99
f 102/102/102 101/101/101 99/99/99
f 105/105/105 104/104/104 103/103/103
f 106/106/106 105/105/105 103/103/103
f 109/109/109 108/108/108 107/107/107
f 110/110/110 109/109/109 107/107/107
f 113/113/113 112/112/112 111/111/111
f 114/114/114 113/113/113 111/111/111
f 117/117/117 116/116/116 115/115/115
f 118/118/118 117/117/117 115/115/115
f 121/121/121 120/120/120 119/119/119
f 122/122/122 121/121/121 119/119/119
f 125/125/125 124/124/124 123/123/123
f 124/124/124 126/126/126 123/123/123
f 123/123/123 126/126/126 127/127/127
f 126/126/126 128/128/128 127/127/127
f 131/131/131 130/130/130 129/129/129
f 132/132/132 131/131/131 129/129/129
f 135/135/135 134/134/134 133/133/133
f 136/136/136 135/135/135 133/133/133
f 139/139/139 138/138/138 137/137/137
f 140/140/140 139/139/139 137/137/137
f 143/143/143 142/142/142 141/141/141
f 144/144/144 143/143/143 141/141/141
f 147/147/147 146/146/146 145/145/145
f 145/145/145 148/148/148 147/147/147
f 145/145/145 149/149/149 148/148/148
f 149/149/149 150/150/150 148/148/148
f 149/149/149 151/151/151 150/150/150
f 149/149/149 152/152/152 151/151/151
f 155/155/155 154/154/154 153/153/153
f 156/156/156 155/155/155 153/153/153
f 159/159/159 158/158/158 157/157/157
f 160/160/160 159/159/159 157/157/157
f 163/163/163 162/162/162 161/161/161
f 164/164/164 163/163/163 161/161/161
f 167/167/167 166/166/166 165/165/165
f 168/168/168 167/167/167 165/165/165
f 171/171/171 170/170/170 169/169/169
f 172/172/172 171/171/171 169/169/169
f 175/175/175 174/174/174 173/173/173
f 176/176/176 175/175/175 173/173/173
f 179/179/179 178/178/178 177/177/177
f 177/177/177 180/180/180 179/179/179
f 177/177/177 181/181/181 180/180/180
f 181/181/181 182/182/182 180/180/180
f 181/181/181 183/183/183 182/182/182
f 183/183/183 184/184/184 182/182/182
f 187/187/187 186/186/186 185/185/185
f 188/188/188 187/187/187 185/185/185
f 191/191/191 190/190/190 189/189/189
f 192/192/192 191/191/191 189/189/189
f 195/195/195 194/194/194 193/193/193
f 193/193/193 196/196/196 195/195/195
f 193/193/193 197/197/197 196/196/196
f 197/197/197 198/198/198 196/196/196
f 197/197/197 199/199/199 198/198/198
f 197/197/197 200/200/200 199/199/199
f 203/203/203 202/202/202 201/201/201
f 204/204/204 203/203/203 201/201/201
f 207/207/207 206/206/206 205/205/205
f 208/208/208 207/207/207 205/205/205
f 211/211/211 210/210/210 209/209/209
f 212/212/212 211/211/211 209/209/209
f 215/215/215 214/214/214 213/213/213
f 216/216/216 215/215/215 213/213/213
f 219/219/219 218/218/218 217/217/217
f 220/220/220 219/219/219 217/217/217
f 223/223/223 222/222/222 221/221/221
f 224/224/224 223/223/223 221/221/221
f 227/227/227 226/226/226 225/225/225
f 225/225/225 228/228/228 227/227/227
f 225/225/225 229/229/229 228/228/228
f 229/229/229 230/230/230 228/228/228
f 229/229/229 231/231/231 230/230/230
f 231/231/231 232/232/232 230/230/230
f 235/235/235 234/234/234 233/233/233
f 236/236/236 235/235/235 233/233/233
f 239/239/239 238/238/238 237/237/237
f 240/240/240 239/239/239 237/237/237
f 243/243/243 242/242/242 241/241/241
f 244/244/244 243/243/243 241/241/241
f 247/247/247 246/246/246 245/245/245
f 248/248/248 247/247/247 245/245/245
f 251/251/251 250/250/250 249/249/249
f 252/252/252 251/251/251 249/249/249
f 255/255/255 254/254/254 253/253/253
f 256/256/256 255/255/255 253/253/253
f 259/259/259 258/258/258 257/257/257
f 260/260/260 259/259/259 257/257/257
f 263/263/263 262/262/262 261/261/261
f 264/264/264 263/263/263 261/261/261
f 267/267/267 266/266/266 265/265/265
f 268/268/268 267/267/267 265/265/265
f 268/268/268 265/265/265 269/269/269
f 270/270/270 268/268/268 269/269/269
f 270/270/270 269/269/269 271/271/271
f 272/272/272 270/270/270 271/271/271
f 275/275/275 274/274/274 273/273/273
f 276/276/276 275/275/275 273/273/273
f 279/279/279 278/278/278 277/277/277
f 280/280/280 279/279/279 277/277/277
f 283/283/283 282/282/282 281/281/281
f 284/284/284 283/283/283 281/281/281
f 287/287/287 286/286/286 285/285/285
f 288/288/288 287/287/287 285/285/285
f 291/291/291 290/290/290 289/289/289
f 290/290/290 292/292/292 289/289/289
f 293/293/293 291/291/291 289/289/289
f 292/292/292 294/294/294 289/289/289
f 295/295/295 291/291/291 293/293/293
f 294/294/294 292/292/292 296/296/296
f 297/297/297 295/295/295 293/293/293
f 292/292/292 298/298/298 296/296/296
f 299/299/299 295/295/295 297/297/297
f 296/296/296 298/298/298 300/300/300
f 301/301/301 299/299/299 297/297/297
f 298/298/298 302/302/302 300/300/300
f 303/303/303 299/299/299 301/301/301
f 300/300/300 302/302/302 304/304/304
f 304/304/304 303/303/303 301/301/301
f 302/302/302 303/303/303 304/304/304
