g FloorTwoEdge
v -0.5 -0.375 -0.4375
v 0.5 -0.375 -0.4375
v 0.5 0.375 -0.4375
v -0.5 0.375 -0.4375
v -0.5 -0.375 -0.5
v 0.5 -0.375 -0.5
v 0.5 -0.375 -0.4375
v -0.5 -0.375 -0.4375
v -0.5 -0.5 -0.5
v 0.5 -0.5 -0.5
v 0.5 -0.375 -0.5
v -0.5 -0.375 -0.5
v -0.5 0.375 -0.5
v 0.5 0.375 -0.5
v 0.5 0.5 -0.5
v -0.5 0.5 -0.5
v -0.5 -0.5 -0.4375
v 0.5 -0.5 -0.4375
v 0.5 -0.5 -0.5
v -0.5 -0.5 -0.5
v -0.5 0.5 -0.5
v 0.5 0.5 -0.5
v 0.5 0.5 -0.4375
v -0.5 0.5 -0.4375
v -0.5 0.375 -0.4375
v 0.5 0.375 -0.4375
v 0.5 0.375 -0.5
v -0.5 0.375 -0.5
v -0.5 -0.5 0.4375
v 0.5 -0.5 0.4375
v 0.5 -0.5 -0.4375
v -0.5 -0.5 -0.4375
v -0.5 0.5 -0.4375
v 0.5 0.5 -0.4375
v 0.5 0.5 0.4375
v -0.5 0.5 0.4375
v 0.5 -0.375 0.4375
v -0.5 -0.375 0.4375
v -0.5 0.375 0.4375
v 0.5 0.375 0.4375
v 0.5 -0.375 0.5
v -0.5 -0.375 0.5
v -0.5 -0.375 0.4375
v 0.5 -0.375 0.4375
v 0.5 -0.5 0.5
v -0.5 -0.5 0.5
v -0.5 -0.375 0.5
v 0.5 -0.375 0.5
v 0.5 0.375 0.5
v -0.5 0.375 0.5
v -0.5 0.5 0.5
v 0.5 0.5 0.5
v 0.5 -0.5 0.4375
v -0.5 -0.5 0.4375
v -0.5 -0.5 0.5
v 0.5 -0.5 0.5
v 0.5 0.5 0.5
v -0.5 0.5 0.5
v -0.5 0.5 0.4375
v 0.5 0.5 0.4375
v 0.5 0.375 0.4375
v -0.5 0.375 0.4375
v -0.5 0.375 0.5
v 0.5 0.375 0.5
v 0.5 -0.0625 0.5
v -0.5 -0.0625 0.5
v -0.5 0.0625 0.5
v 0.5 0.0625 0.5
v 0.5 0.0625 0.5
v -0.5 0.0625 0.5
v -0.5 0.125 0.4375
v 0.5 0.125 0.4375
v 0.5 -0.125 0.4375
v -0.5 -0.125 0.4375
v -0.5 -0.0625 0.5
v 0.5 -0.0625 0.5
v -0.5 -0.0625 -0.5
v 0.5 -0.0625 -0.5
v 0.5 0.0625 -0.5
v -0.5 0.0625 -0.5
v -0.5 0.0625 -0.5
v 0.5 0.0625 -0.5
v 0.5 0.125 -0.4375
v -0.5 0.125 -0.4375
v -0.5 -0.125 -0.4375
v 0.5 -0.125 -0.4375
v 0.5 -0.0625 -0.5
v -0.5 -0.0625 -0.5
vt 0.51973784 0.454216331
vt 0.51973784 0.157884851
vt 0.741986513 0.157884717
vt 0.741986513 0.454216331
vt 0.0399200022 0.054399237
vt 0.0400026143 0.548436522
vt 0.00913050771 0.548441768
vt 0.00904676318 0.0544044822
vt 0.0762802362 0.504835308
vt 0.076282382 0.0106523633
vt 0.138055295 0.0106513947
vt 0.138053119 0.504834414
vt 0.138051718 0.0106478184
vt 0.138054192 0.504838049
vt 0.0762804151 0.504838526
vt 0.0762779117 0.0106483549
vt 0.00913026929 0.548467517
vt 0.00904098153 0.0543636978
vt 0.0399216712 0.0543411821
vt 0.0400117338 0.548444986
vt 0.0399063528 0.0544018596
vt 0.0400126278 0.548485398
vt 0.00913760066 0.548491955
vt 0.00903043151 0.0544085205
vt 0.00913026929 0.548467636
vt 0.00904104114 0.054363817
vt 0.0399217308 0.0543413013
vt 0.0400117934 0.548445225
vt 0.957473993 0.046283491
vt 0.957473993 0.04831516
vt 0.96052146 0.04831516
vt 0.96052146 0.046283491
vt 0.957473993 0.046283491
vt 0.957473993 0.04831516
vt 0.96052146 0.04831516
vt 0.96052146 0.0462834761
vt 0.51973784 0.157884851
vt 0.51973784 0.454216331
vt 0.741986513 0.454216331
vt 0.741986513 0.157884717
vt 0.0399201214 0.0543992221
vt 0.0400028527 0.548436522
vt 0.00913032889 0.548441768
vt 0.00904658437 0.0544044673
vt 0.0762804747 0.504834533
vt 0.0762830377 0.01065211
vt 0.138055831 0.0106511265
vt 0.138053298 0.504833519
vt 0.138051629 0.0106476396
vt 0.138053834 0.504838049
vt 0.0762800574 0.504838645
vt 0.0762777925 0.0106481761
vt 0.0091303885 0.548467517
vt 0.00904098153 0.0543632209
vt 0.0399217308 0.054341048
vt 0.0400116742 0.548445344
vt 0.0399065912 0.0544018447
vt 0.0400126874 0.548485637
vt 0.00913736224 0.548492312
vt 0.0090302527 0.0544085205
vt 0.00913026929 0.548467636
vt 0.00904104114 0.054363817
vt 0.0399217308 0.0543413013
vt 0.0400117338 0.548445225
vt 0.289255023 0.109928057
vt 0.289239347 0.440321267
vt 0.333015084 0.440321237
vt 0.333029926 0.109928533
vt 0.865981281 0.415169924
vt 0.866009891 0.116746314
vt 0.892385542 0.135398671
vt 0.892356217 0.433821529
vt 0.924485207 0.471151859
vt 0.92448926 0.172742441
vt 0.950865746 0.191393226
vt 0.950862646 0.48980251
vt 0.289255798 0.109910026
vt 0.289240122 0.440307081
vt 0.3330158 0.440306783
vt 0.333030641 0.109910116
vt 0.865981638 0.415228218
vt 0.866011679 0.116803609
vt 0.892387331 0.135455295
vt 0.892356694 0.433879763
vt 0.924482942 0.471142799
vt 0.924486041 0.172737926
vt 0.950862885 0.191389516
vt 0.950860381 0.489795417
vn -0 0 -1
vn -0 0 -1
vn -0 0 -1
vn -0 0 -1
vn -0 1 0
vn -0 1 0
vn -0 1 0
vn -0 1 0
vn -0 0 -1
vn -0 0 -1
vn -0 0 -1
vn -0 0 -1
vn -0 0 -1
vn -0 0 -1
vn -0 0 -1
vn -0 0 -1
vn -0 -1 0
vn -0 -1 0
vn -0 -1 0
vn -0 -1 0
vn -0 1 0
vn -0 1 0
vn -0 1 0
vn -0 1 0
vn -0 -1 0
vn -0 -1 0
vn -0 -1 0
vn -0 -1 0
vn -0 -1 0
vn -0 -1 0
vn -0 -1 0
vn -0 -1 0
vn -0 1 0
vn -0 1 0
vn -0 1 0
vn -0 1 0
vn -0 0 1
vn -0 0 1
vn -0 0 1
vn -0 0 1
vn -0 1 0
vn -0 1 0
vn -0 1 0
vn -0 1 0
vn -0 0 1
vn -0 0 1
vn -0 0 1
vn -0 0 1
vn -0 0 1
vn -0 0 1
vn -0 0 1
vn -0 0 1
vn -0 -1 0
vn -0 -1 0
vn -0 -1 0
vn -0 -1 0
vn -0 1 0
vn -0 1 0
vn -0 1 0
vn -0 1 0
vn -0 -1 0
vn -0 -1 0
vn -0 -1 0
vn -0 -1 0
vn -0 0 1
vn -0 0 1
vn -0 0 1
vn -0 0 1
vn -0 0.707106769 0.707106769
vn -0 0.707106769 0.707106769
vn -0 0.707106769 0.707106769
vn -0 0.707106769 0.707106769
vn -0 -0.707106769 0.707106769
vn -0 -0.707106769 0.707106769
vn -0 -0.707106769 0.707106769
vn -0 -0.707106769 0.707106769
vn -0 0 -1
vn -0 0 -1
vn -0 0 -1
vn -0 0 -1
vn -0 0.707106769 -0.707106769
vn -0 0.707106769 -0.707106769
vn -0 0.707106769 -0.707106769
vn -0 0.707106769 -0.707106769
vn -0 -0.707106769 -0.707106769
vn -0 -0.707106769 -0.707106769
vn -0 -0.707106769 -0.707106769
vn -0 -0.707106769 -0.707106769
g FloorTwoEdge_0
f 3/3/3 2/2/2 1/1/1
f 4/4/4 3/3/3 1/1/1
f 7/7/7 6/6/6 5/5/5
f 8/8/8 7/7/7 5/5/5
f 11/11/11 10/10/10 9/9/9
f 12/12/12 11/11/11 9/9/9
f 15/15/15 14/14/14 13/13/13
f 16/16/16 15/15/15 13/13/13
f 19/19/19 18/18/18 17/17/17
f 20/20/20 19/19/19 17/17/17
f 23/23/23 22/22/22 21/21/21
f 24/24/24 23/23/23 21/21/21
f 27/27/27 26/26/26 25/25/25
f 28/28/28 27/27/27 25/25/25
f 31/31/31 30/30/30 29/29/29
f 32/32/32 31/31/31 29/29/29
f 35/35/35 34/34/34 33/33/33
f 36/36/36 35/35/35 33/33/33
f 39/39/39 38/38/38 37/37/37
f 40/40/40 39/39/39 37/37/37
f 43/43/43 42/42/42 41/41/41
f 44/44/44 43/43/43 41/41/41
f 47/47/47 46/46/46 45/45/45
f 48/48/48 47/47/47 45/45/45
f 51/51/51 50/50/50 49/49/49
f 52/52/52 51/51/51 49/49/49
f 55/55/55 54/54/54 53/53/53
f 56/56/56 55/55/55 53/53/53
f 59/59/59 58/58/58 57/57/57
f 60/60/60 59/59/59 57/57/57
f 63/63/63 62/62/62 61/61/61
f 64/64/64 63/63/63 61/61/61
f 67/67/67 66/66/66 65/65/65
f 68/68/68 67/67/67 65/65/65
f 71/71/71 70/70/70 69/69/69
f 72/72/72 71/71/71 69/69/69
f 75/75/75 74/74/74 73/73/73
f 76/76/76 75/75/75 73/73/73
f 79/79/79 78/78/78 77/77/77
f 80/80/80 79/79/79 77/77/77
f 83/83/83 82/82/82 81/81/81
f 84/84/84 83/83/83 81/81/81
f 87/87/87 86/86/86 85/85/85
f 88/88/88 87/87/87 85/85/85
