g Wall
v -0.0625 0.5 -0.125
v -0.125 0.5 -0.0625
v -0.125 -0.5 -0.0625
v -0.0625 -0.5 -0.125
v -0.125 -0.5 0.0625
v -0.125 0.5 0.0625
v -0.0625 0.5 0.125
v -0.0625 -0.5 0.125
v -0.5 -0.5 0.0625
v -0.5 0.5 0.0625
v -0.125 0.5 0.0625
v -0.125 -0.5 0.0625
v -0.5 -0.5 0.0625
v -0.125 -0.5 -0.0625
v -0.5 -0.5 -0.0625
v -0.125 -0.5 0.0625
v -0.0625 -0.5 -0.125
v -0.0625 -0.5 0.125
v 0.0625 -0.5 0.125
v 0.0625 -0.5 -0.125
v 0.125 -0.5 -0.0625
v 0.125 -0.5 0.0625
v 0.5 -0.5 -0.0625
v 0.5 -0.5 0.0625
v -0.125 0.5 0.0625
v -0.5 0.5 0.0625
v -0.5 0.5 -0.0625
v -0.125 0.5 -0.0625
v -0.0625 0.5 0.125
v -0.0625 0.5 -0.125
v 0.0625 0.5 -0.125
v 0.0625 0.5 0.125
v 0.125 0.5 0.0625
v 0.125 0.5 -0.0625
v 0.5 0.5 0.0625
v 0.5 0.5 -0.0625
v -0.5 -0.5 -0.0625
v -0.125 -0.5 -0.0625
v -0.125 0.5 -0.0625
v -0.5 0.5 -0.0625
v -0.5 0.5 0.0625
v -0.5 -0.5 0.0625
v -0.5 -0.5 -0.0625
v -0.5 0.5 -0.0625
v 0.0625 0.5 0.125
v 0.125 0.5 0.0625
v 0.125 -0.5 0.0625
v 0.0625 -0.5 0.125
v 0.125 -0.5 -0.0625
v 0.125 0.5 -0.0625
v 0.0625 0.5 -0.125
v 0.0625 -0.5 -0.125
v 0.5 -0.5 -0.0625
v 0.5 0.5 -0.0625
v 0.125 0.5 -0.0625
v 0.125 -0.5 -0.0625
v 0.5 -0.5 0.0625
v 0.125 -0.5 0.0625
v 0.125 0.5 0.0625
v 0.5 0.5 0.0625
v 0.5 0.5 -0.0625
v 0.5 -0.5 -0.0625
v 0.5 -0.5 0.0625
v 0.5 0.5 0.0625
v -0.0625 -0.5 0.125
v -0.0625 0.5 0.125
v 0.0625 0.5 0.125
v 0.0625 -0.5 0.125
v -0.0625 0.5 -0.125
v -0.0625 -0.5 -0.125
v 0.0625 -0.5 -0.125
v 0.0625 0.5 -0.125
vt 0.829459429 0.0362357199
vt 0.829459429 0.0367391706
vt 0.837514818 0.0367391706
vt 0.837514818 0.0362357199
vt 0.839241624 0.03981933
vt 0.839241624 0.0478746891
vt 0.839745104 0.0478746891
vt 0.839745104 0.03981933
vt 0.83622086 0.03981933
vt 0.83622086 0.0478747487
vt 0.839241624 0.0478746891
vt 0.839241624 0.03981933
vt 0.989505053 0.608094215
vt 0.839617491 0.658056617
vt 0.989505053 0.658056676
vt 0.83961761 0.608094215
vt 0.81463629 0.683037996
vt 0.81463629 0.583112955
vt 0.764673948 0.583112836
vt 0.764673829 0.683037996
vt 0.73969245 0.658056617
vt 0.739692569 0.608094096
vt 0.589805126 0.658056736
vt 0.589805007 0.608094096
vt 0.839617491 0.658056736
vt 0.989505053 0.658056915
vt 0.989505053 0.608094394
vt 0.83961755 0.608094394
vt 0.81463629 0.683037996
vt 0.81463629 0.583112955
vt 0.764673948 0.583112836
vt 0.764673829 0.683037996
vt 0.73969245 0.658056855
vt 0.739692569 0.608094335
vt 0.589804888 0.658056855
vt 0.589804888 0.608094335
vt 0.837514818 0.0397599339
vt 0.837514818 0.0367391706
vt 0.829459429 0.0367391706
vt 0.829459429 0.0397599339
vt 0.989505053 0.520530462
vt 0.589805067 0.520530522
vt 0.589805126 0.570492983
vt 0.989505053 0.570492983
vt 0.840752006 0.0478746891
vt 0.841255486 0.0478746891
vt 0.841255486 0.03981933
vt 0.840752006 0.03981933
vt 0.837514818 0.0347253084
vt 0.829459429 0.0347253084
vt 0.829459429 0.0352288187
vt 0.837514818 0.0352288187
vt 0.837514818 0.031704545
vt 0.829459429 0.031704545
vt 0.829459429 0.0347253084
vt 0.837514818 0.0347253084
vt 0.844276249 0.03981933
vt 0.841255486 0.03981933
vt 0.841255486 0.0478746891
vt 0.844276249 0.0478747487
vt 0.989505053 0.520530462
vt 0.589805067 0.520530522
vt 0.589805126 0.570492983
vt 0.989505053 0.570492983
vt 0.839745104 0.03981933
vt 0.839745104 0.0478746891
vt 0.840752006 0.0478746891
vt 0.840752006 0.03981933
vt 0.829459429 0.0362357199
vt 0.837514818 0.0362357199
vt 0.837514818 0.0352288187
vt 0.829459429 0.0352288187
vn -0.707106769 0 -0.707106829
vn -0.707106769 0 -0.707106829
vn -0.707106769 0 -0.707106829
vn -0.707106769 0 -0.707106829
vn -0.707106769 0 0.707106829
vn -0.707106769 0 0.707106829
vn -0.707106769 0 0.707106829
vn -0.707106769 0 0.707106829
vn -0 0 1
vn -0 0 1
vn -0 0 1
vn -0 0 1
vn -1.0172527E-07 -1 0
vn -0 -1 0
vn -1.0172527E-07 -1 0
vn -0 -1 0
vn -0 -1 0
vn -0 -1 0
vn -0 -1 0
vn -0 -1 0
vn -0 -1 0
vn -0 -1 0
vn 1.0172527E-07 -1 0
vn 1.0172527E-07 -1 0
vn -0 1 0
vn -1.0172527E-07 1 0
vn -1.0172527E-07 1 0
vn -0 1 0
vn -0 1 0
vn -0 1 0
vn -0 1 0
vn -0 1 0
vn -0 1 0
vn -0 1 0
vn 1.0172527E-07 1 0
vn 1.0172527E-07 1 0
vn -0 0 -1
vn -0 0 -1
vn -0 0 -1
vn -0 0 -1
vn -1 0 0
vn -1 0 0
vn -1 0 0
vn -1 0 0
vn 0.707106769 0 0.707106829
vn 0.707106769 0 0.707106829
vn 0.707106769 0 0.707106829
vn 0.707106769 0 0.707106829
vn 0.707106769 0 -0.707106829
vn 0.707106769 0 -0.707106829
vn 0.707106769 0 -0.707106829
vn 0.707106769 0 -0.707106829
vn -0 0 -1
vn -0 0 -1
vn -0 0 -1
vn -0 0 -1
vn -0 0 1
vn -0 0 1
vn -0 0 1
vn -0 0 1
vn 1 0 0
vn 1 0 0
vn 1 0 0
vn 1 0 0
vn -0 0 1
vn -0 0 1
vn -0 0 1
vn -0 0 1
vn -0 0 -1
vn -0 0 -1
vn -0 0 -1
vn -0 0 -1
g Wall_0
f 3/3/3 2/2/2 1/1/1
f 4/4/4 3/3/3 1/1/1
f 7/7/7 6/6/6 5/5/5
f 8/8/8 7/7/7 5/5/5
f 11/11/11 10/10/10 9/9/9
f 12/12/12 11/11/11 9/9/9
f 15/15/15 14/14/14 13/13/13
f 14/14/14 16/16/16 13/13/13
f 16/16/16 14/14/14 17/17/17
f 18/18/18 16/16/16 17/17/17
f 19/19/19 18/18/18 17/17/17
f 20/20/20 19/19/19 17/17/17
f 20/20/20 21/21/21 19/19/19
f 21/21/21 22/22/22 19/19/19
f 22/22/22 21/21/21 23/23/23
f 24/24/24 22/22/22 23/23/23
f 27/27/27 26/26/26 25/25/25
f 28/28/28 27/27/27 25/25/25
f 28/28/28 25/25/25 29/29/29
f 30/30/30 28/28/28 29/29/29
f 31/31/31 30/30/30 29/29/29
f 32/32/32 31/31/31 29/29/29
f 32/32/32 33/33/33 31/31/31
f 33/33/33 34/34/34 31/31/31
f 33/33/33 35/35/35 34/34/34
f 35/35/35 36/36/36 34/34/34
f 39/39/39 38/38/38 37/37/37
f 40/40/40 39/39/39 37/37/37
f 43/43/43 42/42/42 41/41/41
f 44/44/44 43/43/43 41/41/41
f 47/47/47 46/46/46 45/45/45
f 48/48/48 47/47/47 45/45/45
f 51/51/51 50/50/50 49/49/49
f 52/52/52 51/51/51 49/49/49
f 55/55/55 54/54/54 53/53/53
f 56/56/56 55/55/55 53/53/53
f 59/59/59 58/58/58 57/57/57
f 60/60/60 59/59/59 57/57/57
f 63/63/63 62/62/62 61/61/61
f 64/64/64 63/63/63 61/61/61
f 67/67/67 66/66/66 65/65/65
f 68/68/68 67/67/67 65/65/65
f 71/71/71 70/70/70 69/69/69
f 72/72/72 71/71/71 69/69/69
