g Stairs_CorrugatedSteel_Turn
v 0.5 -0.188021496 0.49999994
v 0.5 -0.500000715 0.499999911
v -0.499999642 -0.500000715 0.499999911
v 0.166666865 -0.188021496 0.49999994
v 0.166666865 -0.141799435 0.49999994
v 0.166666254 0.137917027 0.5
v -0.166666865 0.137917012 0.5
v -0.166666865 0.184139132 0.50000006
v -0.166666865 0.453777105 0.50000006
v -0.5 0.453777105 0.50000006
v -0.166666865 0.499999225 0.50000006
v -0.166666865 0.453777105 0.50000006
v -0.5 0.453777105 0.50000006
v -0.5 0.499999225 0.50000006
v 0.166666254 0.184139118 0.50000006
v 0.166666254 0.137917027 0.5
v -0.166666865 0.137917012 0.5
v -0.166666865 0.184139132 0.50000006
v 0.5 -0.141799435 0.49999994
v 0.5 -0.188021496 0.49999994
v 0.166666865 -0.188021496 0.49999994
v 0.166666865 -0.141799435 0.49999994
v -0.5 0.453777313 -0.499999911
v -0.5 0.499999374 -0.499999911
v -0.5 0.499999225 0.50000006
v -0.5 0.453777105 0.50000006
v -0.133343503 0.184139207 -0.133343473
v 0.133342892 0.184139118 0.466676652
v -0.133343503 0.184139132 0.466676652
v 0.133342892 0.184139147 0.133342922
v 0.466676623 0.184139192 -0.133343473
v 0.466676623 0.184139147 0.133342922
v 0.166666254 0.184139147 0.166666269
v 0.166666254 0.137917072 0.166666269
v 0.166666254 0.137917027 0.5
v 0.166666254 0.184139118 0.50000006
v -0.466676623 0.499999374 -0.466676503
v -0.199990228 0.499999225 0.466676652
v -0.466676623 0.499999225 0.466676652
v -0.199990228 0.499999315 -0.199990153
v 0.466676623 0.499999374 -0.466676503
v 0.466676623 0.499999315 -0.199990153
v 0.499999911 -0.14179939 0.166666836
v 0.5 -0.188021466 0.166666836
v 0.5 -0.188021496 0.49999994
v 0.5 -0.141799435 0.49999994
v -0.166666865 0.499999315 -0.166666791
v -0.166666865 0.453777224 -0.166666791
v -0.166666865 0.453777105 0.50000006
v -0.166666865 0.499999225 0.50000006
v 0.5 -0.500000715 0.499999911
v 0.5 -0.188021496 0.49999994
v 0.5 -0.500000596 -0.50000006
v 0.5 -0.188021466 0.166666836
v 0.499999911 -0.14179939 0.166666836
v 0.5 0.137917012 0.166666269
v 0.5 0.137917057 -0.166666836
v 0.5 0.184139192 -0.166666836
v 0.5 0.453777313 -0.499999911
v 0.5 0.453777224 -0.166666791
v 0.5 0.184139147 0.166666269
v 0.5 0.137917012 0.166666269
v 0.166666254 0.137917072 0.166666269
v 0.166666254 0.184139147 0.166666269
v 0.5 0.184139192 -0.166666836
v 0.5 0.137917057 -0.166666836
v 0.5 0.137917012 0.166666269
v 0.5 0.184139147 0.166666269
v -0.166666865 0.453777224 -0.166666791
v -0.166666865 0.499999315 -0.166666791
v 0.5 0.499999315 -0.166666791
v 0.5 0.453777224 -0.166666791
v -0.5 0.499999374 -0.499999911
v -0.5 0.453777313 -0.499999911
v 0.5 0.453777313 -0.499999911
v 0.5 0.499999374 -0.499999911
v 0.5 0.499999374 -0.499999911
v 0.5 0.453777313 -0.499999911
v 0.5 0.453777224 -0.166666791
v 0.5 0.499999315 -0.166666791
v 0.166666254 0.137917072 0.166666269
v 0.166666865 -0.14179939 0.166666836
v 0.166666865 -0.141799435 0.49999994
v 0.166666254 0.137917027 0.5
v 0.199990228 -0.14179939 0.199990198
v 0.466676593 -0.14179939 0.199990213
v 0.466676623 -0.141799435 0.466676593
v 0.199990228 -0.141799435 0.466676593
v 0.5 0.137917012 0.166666269
v 0.499999911 -0.14179939 0.166666836
v 0.166666865 -0.14179939 0.166666836
v 0.166666254 0.137917072 0.166666269
v -0.166666865 0.184139132 0.50000006
v -0.166666865 0.453777105 0.50000006
v -0.166666865 0.453777224 -0.166666791
v -0.166666865 0.184139207 -0.166666836
v -0.166666865 0.184139207 -0.166666836
v -0.166666865 0.453777224 -0.166666791
v 0.5 0.453777224 -0.166666791
v 0.5 0.184139192 -0.166666836
v -0.5 0.453777105 0.50000006
v -0.499999642 -0.500000715 0.499999911
v -0.5 -0.500000596 -0.50000006
v -0.5 0.453777313 -0.499999911
v -0.5 0.453777313 -0.499999911
v -0.5 -0.500000596 -0.50000006
v 0.5 -0.500000596 -0.50000006
v 0.5 0.453777313 -0.499999911
v -0.5 -0.500000596 -0.50000006
v -0.499999642 -0.500000715 0.499999911
v 0.5 -0.500000715 0.499999911
v 0.5 -0.500000596 -0.50000006
v -0.199990228 0.499999225 0.466676652
v -0.166666865 0.499999225 0.50000006
v -0.5 0.499999225 0.50000006
v -0.466676623 0.499999225 0.466676652
v 0.133342892 0.184139118 0.466676652
v 0.166666254 0.184139118 0.50000006
v -0.166666865 0.184139132 0.50000006
v -0.133343503 0.184139132 0.466676652
v 0.466676623 -0.141799435 0.466676593
v 0.5 -0.141799435 0.49999994
v 0.166666865 -0.141799435 0.49999994
v 0.199990228 -0.141799435 0.466676593
v -0.466676623 0.499999225 0.466676652
v -0.5 0.499999225 0.50000006
v -0.5 0.499999374 -0.499999911
v -0.466676623 0.499999374 -0.466676503
v -0.133343503 0.184139132 0.466676652
v -0.166666865 0.184139132 0.50000006
v -0.166666865 0.184139207 -0.166666836
v -0.133343503 0.184139207 -0.133343473
v 0.133342892 0.184139147 0.133342922
v 0.166666254 0.184139147 0.166666269
v 0.166666254 0.184139118 0.50000006
v 0.133342892 0.184139118 0.466676652
v -0.199990228 0.499999315 -0.199990153
v -0.166666865 0.499999315 -0.166666791
v -0.166666865 0.499999225 0.50000006
v -0.199990228 0.499999225 0.466676652
v 0.466676593 -0.14179939 0.199990213
v 0.499999911 -0.14179939 0.166666836
v 0.5 -0.141799435 0.49999994
v 0.466676623 -0.141799435 0.466676593
v 0.466676623 0.184139147 0.133342922
v 0.5 0.184139147 0.166666269
v 0.166666254 0.184139147 0.166666269
v 0.133342892 0.184139147 0.133342922
v -0.133343503 0.184139207 -0.133343473
v -0.166666865 0.184139207 -0.166666836
v 0.5 0.184139192 -0.166666836
v 0.466676623 0.184139192 -0.133343473
v 0.466676623 0.184139192 -0.133343473
v 0.5 0.184139192 -0.166666836
v 0.5 0.184139147 0.166666269
v 0.466676623 0.184139147 0.133342922
v 0.466676623 0.499999315 -0.199990153
v 0.5 0.499999315 -0.166666791
v -0.166666865 0.499999315 -0.166666791
v -0.199990228 0.499999315 -0.199990153
v 0.466676623 0.499999374 -0.466676503
v 0.5 0.499999374 -0.499999911
v 0.5 0.499999315 -0.166666791
v 0.466676623 0.499999315 -0.199990153
v -0.466676623 0.499999374 -0.466676503
v -0.5 0.499999374 -0.499999911
v 0.5 0.499999374 -0.499999911
v 0.466676623 0.499999374 -0.466676503
v 0.199990228 -0.141799435 0.466676593
v 0.166666865 -0.141799435 0.49999994
v 0.166666865 -0.14179939 0.166666836
v 0.199990228 -0.14179939 0.199990198
v 0.199990228 -0.14179939 0.199990198
v 0.166666865 -0.14179939 0.166666836
v 0.499999911 -0.14179939 0.166666836
v 0.466676593 -0.14179939 0.199990213
vt 0.88702482 0.0365009904
vt 0.88702482 0.0128920032
vt 0.811350107 0.0128920032
vt 0.861799955 0.0365009904
vt 0.861799955 0.0399988778
vt 0.861799896 0.0611663796
vt 0.836574972 0.0611663423
vt 0.836574972 0.0646640956
vt 0.836574972 0.0850688517
vt 0.811350048 0.0850688517
vt 0.108258955 0.331544578
vt 0.127390668 0.331544578
vt 0.127390727 0.193575442
vt 0.108259097 0.193575442
vt 0.108259112 0.331545025
vt 0.127390742 0.331545025
vt 0.127390742 0.193576455
vt 0.108259112 0.193576455
vt 0.108259186 0.331544906
vt 0.127390742 0.331544816
vt 0.127390742 0.193576455
vt 0.108259186 0.193576455
vt 0.127390593 0.0562807322
vt 0.108259186 0.0562807322
vt 0.108259387 0.470187694
vt 0.127391025 0.470187694
vt 0.95542419 0.04024598
vt 0.94123733 0.0721651018
vt 0.95542419 0.0721651018
vt 0.94123733 0.0544328094
vt 0.923505068 0.0402459502
vt 0.923505068 0.0544328094
vt 0.108259112 0.331544787
vt 0.127390668 0.331544787
vt 0.127390668 0.193575919
vt 0.10825903 0.193575919
vt 0.916890502 0.0332120061
vt 0.966541886 0.0473988652
vt 0.966541886 0.0332120061
vt 0.931077361 0.0473988354
vt 0.916890502 0.0828633457
vt 0.931077361 0.0828633457
vt 0.108259186 0.331544787
vt 0.127390668 0.331544787
vt 0.127390668 0.193576217
vt 0.108259112 0.193576217
vt 0.108259186 0.388081014
vt 0.127390742 0.388081014
vt 0.127390742 0.112144426
vt 0.108259186 0.112144351
vt 0.88702482 0.0128920032
vt 0.88702482 0.036501009
vt 0.811349988 0.0128920032
vt 0.861799896 0.036501009
vt 0.861799896 0.0399988592
vt 0.861799836 0.0611663051
vt 0.836574912 0.0611663051
vt 0.836574912 0.0646640062
vt 0.811350048 0.0850687921
vt 0.836574912 0.0850687921
vt 0.10825903 0.193576068
vt 0.127390593 0.193576068
vt 0.127390668 0.331544995
vt 0.10825903 0.331544995
vt 0.108258955 0.331544518
vt 0.127390593 0.331544518
vt 0.127390593 0.193576068
vt 0.108258955 0.193576068
vt 0.127390668 0.388081014
vt 0.108259112 0.388081014
vt 0.108259112 0.1121445
vt 0.127390593 0.1121445
vt 0.108259499 0.470188379
vt 0.127390981 0.470188379
vt 0.127390906 0.0562806576
vt 0.108259186 0.0562807322
vt 0.10825903 0.331544429
vt 0.127390593 0.331544518
vt 0.127390668 0.193575919
vt 0.10825903 0.193575919
vt 0.894171178 0.0683608949
vt 0.894171119 0.0329073146
vt 0.851921737 0.0329072401
vt 0.851921618 0.0683608055
vt 0.943731666 0.0473164618
vt 0.929544806 0.0473164618
vt 0.929544806 0.0615033209
vt 0.943731666 0.0615033209
vt 0.851921618 0.0683607087
vt 0.851921737 0.0329071842
vt 0.894171119 0.0329073146
vt 0.894171119 0.0683608949
vt 0.809672177 0.0329072773
vt 0.809672236 0.0670834929
vt 0.894171178 0.0670835301
vt 0.894171119 0.0329073146
vt 0.894171119 0.0329073146
vt 0.894171119 0.0670835301
vt 0.809672236 0.0670835301
vt 0.809672236 0.0329073146
vt 0.811349988 0.0850689411
vt 0.811349988 0.0128920404
vt 0.88702476 0.0128920591
vt 0.88702476 0.0850689411
vt 0.88702476 0.0850689411
vt 0.88702476 0.0128920032
vt 0.811349988 0.0128920032
vt 0.811349988 0.0850689411
vt 0.918280244 0.0928646252
vt 0.986128926 0.0928645954
vt 0.986128926 0.0250159465
vt 0.918280244 0.0250159316
vt 0.0944662541 0.317751825
vt 0.108258955 0.331544578
vt 0.108259097 0.193575442
vt 0.0944662467 0.207368135
vt 0.094466418 0.317752242
vt 0.108259112 0.331545025
vt 0.108259112 0.193576455
vt 0.0944662541 0.207369238
vt 0.094466418 0.317752123
vt 0.108259186 0.331544906
vt 0.108259186 0.193576455
vt 0.094466418 0.207369238
vt 0.0944669247 0.456395388
vt 0.108259387 0.470187694
vt 0.108259186 0.0562807322
vt 0.0944664925 0.0700735897
vt 0.0944668874 0.388084382
vt 0.108259268 0.401876688
vt 0.108259268 0.125937596
vt 0.094466418 0.139730439
vt 0.094466649 0.345338047
vt 0.108259343 0.331545353
vt 0.108259268 0.193576455
vt 0.0944664925 0.207369238
vt 0.0944662541 0.401873857
vt 0.108259186 0.388081014
vt 0.108259186 0.112144351
vt 0.094466418 0.125937119
vt 0.0944665745 0.317752331
vt 0.108259268 0.331545025
vt 0.108259186 0.193576455
vt 0.094466418 0.207369238
vt 0.0944663361 0.207368612
vt 0.10825903 0.193576068
vt 0.10825903 0.331544995
vt 0.0944663361 0.345337689
vt 0.0944663361 0.388081014
vt 0.108259186 0.401873857
vt 0.108259186 0.12593767
vt 0.094466418 0.139730439
vt 0.0944662541 0.317751825
vt 0.108258955 0.331544518
vt 0.108258955 0.193576068
vt 0.0944662541 0.207368612
vt 0.0944662541 0.125937358
vt 0.108259112 0.1121445
vt 0.108259112 0.388081014
vt 0.0944662541 0.401873857
vt 0.0944662541 0.317751825
vt 0.10825903 0.331544429
vt 0.10825903 0.193575919
vt 0.0944662541 0.207368612
vt 0.0944670439 0.456396103
vt 0.108259499 0.470188379
vt 0.108259186 0.0562807322
vt 0.0944664925 0.0700735152
vt 0.094466269 0.317752182
vt 0.108259037 0.331545025
vt 0.108258955 0.193576545
vt 0.0944662541 0.207369238
vt 0.0944663361 0.317751944
vt 0.108259186 0.331544787
vt 0.108259186 0.193576455
vt 0.0944664925 0.207369238
vn -0 -1.91053317E-07 1
vn -0 -1.91053317E-07 1
vn -0 -1.91053317E-07 1
vn -0 0 1
vn -0 0 1
vn -0 0 1
vn 2.19961703E-06 -1.93429219E-06 1
vn 2.33130763E-07 -3.41680618E-07 1
vn -0 0 1
vn -0 0 1
vn -0 0 1
vn -0 0 1
vn -0 0 1
vn -0 0 1
vn -0 -9.67145752E-07 1
vn -0 -9.67145752E-07 1
vn -0 -9.67145752E-07 1
vn -0 -9.67145752E-07 1
vn -0 0 1
vn -0 0 1
vn -0 0 1
vn -0 0 1
vn -1 0 0
vn -1 0 0
vn -1 0 0
vn -1 0 0
vn 1.49662483E-07 1 1.43686606E-07
vn 1.49662483E-07 1 1.43686606E-07
vn 1.49662483E-07 1 1.43686606E-07
vn 1.49662483E-07 1 1.43686606E-07
vn -0 1 1.51660487E-07
vn -0 1 1.51660487E-07
vn 1 0 0
vn 1 1.09208315E-06 0
vn 1 1.09208338E-06 0
vn 1 0 0
vn -1.39686307E-07 1 1.49009736E-07
vn -1.39686307E-07 1 1.49009736E-07
vn -1.39686307E-07 1 1.49009736E-07
vn -1.39686307E-07 1 1.49009736E-07
vn -0 1 2.23500905E-07
vn -0 1 2.23500905E-07
vn 1 6.44763986E-07 -1.20893318E-07
vn 1 6.44763986E-07 -1.20893318E-07
vn 1 6.44763986E-07 -1.20893318E-07
vn 1 6.44763986E-07 -1.20893318E-07
vn 1 0 0
vn 1 0 0
vn 1 0 0
vn 1 0 0
vn 1 0 0
vn 1 0 0
vn 1 0 0
vn 1 1.28952729E-06 0
vn 1 -2.13089194E-07 4.79450819E-07
vn 1 -2.13089194E-07 4.79450819E-07
vn 1 0 0
vn 1 0 0
vn 1 0 0
vn 1 0 0
vn -0 0 1
vn -0 9.98857217E-07 1
vn -0 9.98856422E-07 1
vn -0 0 1
vn 1 0 0
vn 1 0 0
vn 1 0 0
vn 1 0 0
vn -0 0 1
vn -0 0 1
vn -0 0 1
vn -0 0 1
vn -0 6.447641E-07 -1
vn -0 6.447641E-07 -1
vn -0 6.447641E-07 -1
vn -0 6.447641E-07 -1
vn 1 0 0
vn 1 0 0
vn 1 0 0
vn 1 0 0
vn 1 1.09208315E-06 0
vn 1 2.18416767E-06 0
vn 1 2.18416767E-06 0
vn 1 1.09208338E-06 0
vn -0 1 1.67625672E-07
vn 1.04758335E-07 1 1.67625714E-07
vn -0 1 1.67625672E-07
vn -0 1 1.67625643E-07
vn -0 9.98857217E-07 1
vn -0 1.99771443E-06 1
vn -0 1.99771443E-06 1
vn -0 9.98856422E-07 1
vn 1 0 0
vn 1 0 0
vn 1 0 0
vn 1 0 0
vn -0 -1.65790667E-07 1
vn -0 0 1
vn -0 0 1
vn -0 -1.65790667E-07 1
vn -1 -1.71856371E-07 1.87479614E-07
vn -1 -1.71856371E-07 1.87479614E-07
vn -1 -1.71856371E-07 1.87479614E-07
vn -1 -1.71856371E-07 1.87479614E-07
vn -0 1.24986428E-07 -1
vn -0 1.24986428E-07 -1
vn -0 1.24986428E-07 -1
vn -0 1.24986428E-07 -1
vn -0 -1 -1.1920929E-07
vn -0 -1 -1.1920929E-07
vn -0 -1 -1.1920929E-07
vn -0 -1 -1.1920929E-07
vn 6.70752854E-07 1 0
vn 6.7075257E-07 1 0
vn -0 1 0
vn -0 1 0
vn -0 1 0
vn -0 1 0
vn -0 1 0
vn -0 1 0
vn 1.86314196E-07 1 0
vn 1.86314168E-07 1 0
vn -1.86314125E-07 1 0
vn -1.86314196E-07 1 0
vn -0 1 0
vn -0 1 0
vn -0 1 0
vn -0 1 0
vn -0 1 0
vn -0 1 0
vn -0 1 0
vn -0 1 0
vn -0 1 0
vn -0 1 0
vn -0 1 0
vn -0 1 0
vn 6.70752854E-07 1 0
vn 6.70752854E-07 1 0
vn 6.7075257E-07 1 0
vn 6.70752854E-07 1 0
vn 1.86314224E-07 1 0
vn 1.86314125E-07 1 0
vn 1.86314168E-07 1 0
vn 1.86314196E-07 1 0
vn -1.86314082E-07 1 0
vn -1.86314153E-07 1 0
vn -0 1 0
vn -0 1 0
vn -0 1 0
vn -0 1 0
vn -1.64250281E-07 1 0
vn -1.64250196E-07 1 0
vn -1.64250196E-07 1 0
vn -1.64250281E-07 1 0
vn -1.86314153E-07 1 0
vn -1.86314082E-07 1 0
vn -0 1 0
vn -0 1 0
vn 6.70752854E-07 1 0
vn 6.70752854E-07 1 0
vn -0 1 0
vn -0 1 0
vn -0 1 0
vn -0 1 0
vn -0 1 0
vn -0 1 0
vn -0 1 0
vn -0 1 0
vn -1.86314196E-07 1 0
vn -1.86314125E-07 1 0
vn -1.8631421E-07 1 0
vn -1.86314153E-07 1 0
vn -1.86314153E-07 1 0
vn -1.8631421E-07 1 0
vn 1.86314125E-07 1 0
vn 1.86314224E-07 1 0
g Stairs_CorrugatedSteel_Turn_0
f 3/3/3 2/2/2 1/1/1
f 4/4/4 3/3/3 1/1/1
f 4/4/4 5/5/5 3/3/3
f 6/6/6 3/3/3 5/5/5
f 7/7/7 3/3/3 6/6/6
f 3/3/3 7/7/7 8/8/8
f 3/3/3 8/8/8 9/9/9
f 10/10/10 3/3/3 9/9/9
f 13/13/13 12/12/12 11/11/11
f 14/14/14 13/13/13 11/11/11
f 17/17/17 16/16/16 15/15/15
f 18/18/18 17/17/17 15/15/15
f 21/21/21 20/20/20 19/19/19
f 22/22/22 21/21/21 19/19/19
f 25/25/25 24/24/24 23/23/23
f 26/26/26 25/25/25 23/23/23
f 29/29/29 28/28/28 27/27/27
f 28/28/28 30/30/30 27/27/27
f 27/27/27 30/30/30 31/31/31
f 30/30/30 32/32/32 31/31/31
f 35/35/35 34/34/34 33/33/33
f 36/36/36 35/35/35 33/33/33
f 39/39/39 38/38/38 37/37/37
f 38/38/38 40/40/40 37/37/37
f 41/41/41 37/37/37 40/40/40
f 42/42/42 41/41/41 40/40/40
f 45/45/45 44/44/44 43/43/43
f 46/46/46 45/45/45 43/43/43
f 49/49/49 48/48/48 47/47/47
f 50/50/50 49/49/49 47/47/47
f 53/53/53 52/52/52 51/51/51
f 52/52/52 53/53/53 54/54/54
f 54/54/54 53/53/53 55/55/55
f 56/56/56 55/55/55 53/53/53
f 56/56/56 53/53/53 57/57/57
f 53/53/53 58/58/58 57/57/57
f 53/53/53 59/59/59 58/58/58
f 59/59/59 60/60/60 58/58/58
f 63/63/63 62/62/62 61/61/61
f 64/64/64 63/63/63 61/61/61
f 67/67/67 66/66/66 65/65/65
f 68/68/68 67/67/67 65/65/65
f 71/71/71 70/70/70 69/69/69
f 72/72/72 71/71/71 69/69/69
f 75/75/75 74/74/74 73/73/73
f 76/76/76 75/75/75 73/73/73
f 79/79/79 78/78/78 77/77/77
f 80/80/80 79/79/79 77/77/77
f 83/83/83 82/82/82 81/81/81
f 84/84/84 83/83/83 81/81/81
f 87/87/87 86/86/86 85/85/85
f 88/88/88 87/87/87 85/85/85
f 91/91/91 90/90/90 89/89/89
f 92/92/92 91/91/91 89/89/89
f 95/95/95 94/94/94 93/93/93
f 96/96/96 95/95/95 93/93/93
f 99/99/99 98/98/98 97/97/97
f 100/100/100 99/99/99 97/97/97
f 103/103/103 102/102/102 101/101/101
f 104/104/104 103/103/103 101/101/101
f 107/107/107 106/106/106 105/105/105
f 108/108/108 107/107/107 105/105/105
f 111/111/111 110/110/110 109/109/109
f 112/112/112 111/111/111 109/109/109
f 115/115/115 114/114/114 113/113/113
f 116/116/116 115/115/115 113/113/113
f 119/119/119 118/118/118 117/117/117
f 120/120/120 119/119/119 117/117/117
f 123/123/123 122/122/122 121/121/121
f 124/124/124 123/123/123 121/121/121
f 127/127/127 126/126/126 125/125/125
f 128/128/128 127/127/127 125/125/125
f 131/131/131 130/130/130 129/129/129
f 132/132/132 131/131/131 129/129/129
f 135/135/135 134/134/134 133/133/133
f 136/136/136 135/135/135 133/133/133
f 139/139/139 138/138/138 137/137/137
f 140/140/140 139/139/139 137/137/137
f 143/143/143 142/142/142 141/141/141
f 144/144/144 143/143/143 141/141/141
f 147/147/147 146/146/146 145/145/145
f 148/148/148 147/147/147 145/145/145
f 151/151/151 150/150/150 149/149/149
f 152/152/152 151/151/151 149/149/149
f 155/155/155 154/154/154 153/153/153
f 156/156/156 155/155/155 153/153/153
f 159/159/159 158/158/158 157/157/157
f 160/160/160 159/159/159 157/157/157
f 163/163/163 162/162/162 161/161/161
f 164/164/164 163/163/163 161/161/161
f 167/167/167 166/166/166 165/165/165
f 168/168/168 167/167/167 165/165/165
f 171/171/171 170/170/170 169/169/169
f 172/172/172 171/171/171 169/169/169
f 175/175/175 174/174/174 173/173/173
f 176/176/176 175/175/175 173/173/173
