g CS_ColumnMiddle
v -0.28125 0.5 -0.225004271
v -0.28125 0.5 0.22500366
v -0.28125 -0.5 0.22500366
v -0.28125 -0.5 -0.225004271
v 0.225005567 0.5 -0.281248152
v -0.225005567 0.5 -0.281248152
v -0.225005567 -0.5 -0.281248152
v 0.225005567 -0.5 -0.281248152
v -0.28125 -0.5 0.22500366
v -0.28125 0.5 0.22500366
v -0.225005642 0.5 0.28125
v -0.225005642 -0.5 0.28125
v 0.225005493 -0.5 0.28125
v 0.225005493 0.5 0.28125
v 0.28125 0.5 0.225006104
v 0.28125 -0.5 0.225006104
v -0.28125 0.5 -0.225004271
v -0.28125 -0.5 -0.225004271
v -0.225005567 -0.5 -0.281248152
v -0.225005567 0.5 -0.281248152
v 0.225005567 0.5 -0.281248152
v 0.225005567 -0.5 -0.281248152
v 0.28125 -0.5 -0.225001827
v 0.28125 0.5 -0.225002125
v 0.28125 0.5 0.225006104
v 0.28125 0.5 -0.225002125
v 0.28125 -0.5 -0.225001827
v 0.28125 -0.5 0.225006104
v -0.225005642 0.5 0.28125
v 0.225005493 0.5 0.28125
v 0.225005493 -0.5 0.28125
v -0.225005642 -0.5 0.28125
v -0.34375 0.5 0.0625
v -0.34375 -0.5 0.0625
v -0.34375 -0.5 -0.0625
v -0.34375 0.5 -0.0625
v -0.34375 0.5 -0.0625
v -0.34375 -0.5 -0.0625
v -0.28125 -0.5 -0.125
v -0.28125 0.5 -0.125
v -0.28125 0.5 0.125
v -0.28125 -0.5 0.125
v -0.34375 -0.5 0.0625
v -0.34375 0.5 0.0625
v 0.0625 0.5 0.34375
v 0.0625 -0.5 0.34375
v -0.0625 -0.5 0.34375
v -0.0625 0.5 0.34375
v -0.0625 0.5 0.34375
v -0.0625 -0.5 0.34375
v -0.125 -0.5 0.28125
v -0.125 0.5 0.28125
v 0.125 0.5 0.28125
v 0.125 -0.5 0.28125
v 0.0625 -0.5 0.34375
v 0.0625 0.5 0.34375
v 0.34375 0.5 -0.0625
v 0.34375 -0.5 -0.0625
v 0.34375 -0.5 0.0625
v 0.34375 0.5 0.0625
v 0.34375 0.5 0.0625
v 0.34375 -0.5 0.0625
v 0.28125 -0.5 0.125
v 0.28125 0.5 0.125
v 0.28125 0.5 -0.125
v 0.28125 -0.5 -0.125
v 0.34375 -0.5 -0.0625
v 0.34375 0.5 -0.0625
v -0.0625 0.5 -0.34375
v -0.0625 -0.5 -0.34375
v 0.0625 -0.5 -0.34375
v 0.0625 0.5 -0.34375
v 0.0625 0.5 -0.34375
v 0.0625 -0.5 -0.34375
v 0.125 -0.5 -0.28125
v 0.125 0.5 -0.28125
v -0.125 0.5 -0.28125
v -0.125 -0.5 -0.28125
v -0.0625 -0.5 -0.34375
v -0.0625 0.5 -0.34375
vt 0.535855114 0.508781254
vt 0.71572113 0.508781254
vt 0.715720475 0.109086692
vt 0.535855114 0.109086692
vt 0.535788476 0.508854747
vt 0.715655327 0.508854985
vt 0.715656281 0.109160602
vt 0.535788834 0.109160244
vt 0.50399667 0.1091602
vt 0.503996491 0.508854747
vt 0.535788476 0.508854747
vt 0.535788834 0.109160244
vt 0.504063725 0.109086692
vt 0.504063725 0.508781254
vt 0.535855114 0.508781254
vt 0.535855114 0.109086692
vt 0.923617721 0.508781195
vt 0.923617482 0.109086528
vt 0.891825199 0.109086633
vt 0.89182508 0.508781135
vt 0.747513652 0.508781195
vt 0.747513711 0.109086588
vt 0.715720475 0.109086692
vt 0.71572113 0.508781254
vt 0.535855114 0.508781254
vt 0.71572113 0.508781254
vt 0.715720475 0.109086692
vt 0.535855114 0.109086692
vt 0.535788476 0.508854747
vt 0.715655327 0.508854985
vt 0.715656281 0.109160602
vt 0.535788834 0.109160244
vt 0.333015025 0.440340161
vt 0.333028436 0.109921932
vt 0.289253473 0.109921932
vt 0.289240181 0.440339863
vt 0.950881839 0.116749771
vt 0.950852633 0.41518876
vt 0.924475551 0.415185094
vt 0.924500823 0.154061034
vt 0.892370522 0.191377878
vt 0.892367661 0.452497423
vt 0.865989745 0.489799887
vt 0.865993321 0.191387653
vt 0.333015025 0.440340161
vt 0.333028436 0.109921932
vt 0.289253473 0.109921932
vt 0.289240181 0.440339863
vt 0.950881839 0.116749771
vt 0.950852633 0.41518876
vt 0.924475551 0.415185094
vt 0.924500823 0.154061034
vt 0.892370522 0.191377878
vt 0.892367661 0.452497423
vt 0.865989745 0.489799887
vt 0.865993321 0.191387653
vt 0.333015025 0.440340161
vt 0.333028436 0.109921932
vt 0.289253473 0.109921932
vt 0.289240181 0.440339863
vt 0.950881839 0.116749771
vt 0.950852633 0.41518876
vt 0.924475551 0.415185094
vt 0.924500823 0.154061034
vt 0.892370522 0.191377878
vt 0.892367661 0.452497423
vt 0.865989745 0.489799887
vt 0.865993321 0.191387653
vt 0.333015025 0.440340161
vt 0.333028436 0.109921932
vt 0.289253473 0.109921932
vt 0.289240181 0.440339863
vt 0.950881839 0.116749771
vt 0.950852633 0.41518876
vt 0.924475551 0.415185094
vt 0.924500823 0.154061034
vt 0.892370522 0.191377878
vt 0.892367661 0.452497423
vt 0.865989745 0.489799887
vt 0.865993321 0.191387653
vn -1 0 0
vn -1 0 0
vn -1 0 0
vn -1 0 0
vn -0 0 -1
vn -0 0 -1
vn -0 0 -1
vn -0 0 -1
vn -0.707120121 0 0.707093358
vn -0.707120121 0 0.707093358
vn -0.707120121 0 0.707093358
vn -0.707120121 0 0.707093358
vn 0.707102001 0 0.707111537
vn 0.707102001 0 0.707111537
vn 0.707102001 0 0.707111537
vn 0.707102001 0 0.707111537
vn -0.707102537 0 -0.707111001
vn -0.707102537 0 -0.707111001
vn -0.707102537 0 -0.707111001
vn -0.707102537 0 -0.707111001
vn 0.7071172 -1.5346491E-07 -0.707096279
vn 0.7071172 -1.5346491E-07 -0.707096279
vn 0.7071172 -1.5346491E-07 -0.707096279
vn 0.7071172 -1.5346491E-07 -0.707096279
vn 1 0 0
vn 1 0 0
vn 1 0 0
vn 1 0 0
vn -0 0 1
vn -0 0 1
vn -0 0 1
vn -0 0 1
vn -1 0 0
vn -1 0 0
vn -1 0 0
vn -1 0 0
vn -0.707106769 0 -0.707106769
vn -0.707106769 0 -0.707106769
vn -0.707106769 0 -0.707106769
vn -0.707106769 0 -0.707106769
vn -0.707106769 0 0.707106769
vn -0.707106769 0 0.707106769
vn -0.707106769 0 0.707106769
vn -0.707106769 0 0.707106769
vn -0 0 1
vn -0 0 1
vn -0 0 1
vn -0 0 1
vn -0.707106769 0 0.707106769
vn -0.707106769 0 0.707106769
vn -0.707106769 0 0.707106769
vn -0.707106769 0 0.707106769
vn 0.707106769 0 0.707106769
vn 0.707106769 0 0.707106769
vn 0.707106769 0 0.707106769
vn 0.707106769 0 0.707106769
vn 1 0 0
vn 1 0 0
vn 1 0 0
vn 1 0 0
vn 0.707106769 0 0.707106769
vn 0.707106769 0 0.707106769
vn 0.707106769 0 0.707106769
vn 0.707106769 0 0.707106769
vn 0.707106769 0 -0.707106769
vn 0.707106769 0 -0.707106769
vn 0.707106769 0 -0.707106769
vn 0.707106769 0 -0.707106769
vn -0 0 -1
vn -0 0 -1
vn -0 0 -1
vn -0 0 -1
vn 0.707106769 0 -0.707106769
vn 0.707106769 0 -0.707106769
vn 0.707106769 0 -0.707106769
vn 0.707106769 0 -0.707106769
vn -0.707106769 0 -0.707106769
vn -0.707106769 0 -0.707106769
vn -0.707106769 0 -0.707106769
vn -0.707106769 0 -0.707106769
g CS_ColumnMiddle_0
f 3/3/3 2/2/2 1/1/1
f 4/4/4 3/3/3 1/1/1
f 7/7/7 6/6/6 5/5/5
f 8/8/8 7/7/7 5/5/5
f 11/11/11 10/10/10 9/9/9
f 12/12/12 11/11/11 9/9/9
f 15/15/15 14/14/14 13/13/13
f 16/16/16 15/15/15 13/13/13
f 19/19/19 18/18/18 17/17/17
f 20/20/20 19/19/19 17/17/17
f 23/23/23 22/22/22 21/21/21
f 24/24/24 23/23/23 21/21/21
f 27/27/27 26/26/26 25/25/25
f 28/28/28 27/27/27 25/25/25
f 31/31/31 30/30/30 29/29/29
f 32/32/32 31/31/31 29/29/29
f 35/35/35 34/34/34 33/33/33
f 36/36/36 35/35/35 33/33/33
f 39/39/39 38/38/38 37/37/37
f 40/40/40 39/39/39 37/37/37
f 43/43/43 42/42/42 41/41/41
f 44/44/44 43/43/43 41/41/41
f 47/47/47 46/46/46 45/45/45
f 48/48/48 47/47/47 45/45/45
f 51/51/51 50/50/50 49/49/49
f 52/52/52 51/51/51 49/49/49
f 55/55/55 54/54/54 53/53/53
f 56/56/56 55/55/55 53/53/53
f 59/59/59 58/58/58 57/57/57
f 60/60/60 59/59/59 57/57/57
f 63/63/63 62/62/62 61/61/61
f 64/64/64 63/63/63 61/61/61
f 67/67/67 66/66/66 65/65/65
f 68/68/68 67/67/67 65/65/65
f 71/71/71 70/70/70 69/69/69
f 72/72/72 71/71/71 69/69/69
f 75/75/75 74/74/74 73/73/73
f 76/76/76 75/75/75 73/73/73
f 79/79/79 78/78/78 77/77/77
f 80/80/80 79/79/79 77/77/77
