g flatsteel_BasicUnderSlopeInnerPoint
v -0 -6.10351549E-07 -0.5
v -0.5 0.499999374 -0.5
v -0.5 -0.500000596 -0.5
v 0.5 0.499999404 -0.499999374
v 0.5 -0.500000596 -0.5
v -0.500000119 0.499999404 0.500000596
v -0 -6.10351549E-07 0.5
v -0.5 -0.500000596 0.5
v 0.5 0.499999374 0.5
v 0.5 -0.500000596 0.5
v -0.5 -0.500000596 -0.5
v -0.5 0.499999374 -0.5
v -0.500000119 0.499999404 0.500000596
v -0.5 -0.500000596 0.5
v -0.5 -0.500000596 0.5
v -0 -6.10351549E-07 0.5
v -0 -6.10351549E-07 -0.5
v -0.5 -0.500000596 -0.5
v 0.5 -0.500000596 -0.5
v -0 -6.10351549E-07 -0.5
v -0 -6.10351549E-07 0.5
v 0.5 -0.500000596 0.5
v 0.5 0.499999404 -0.499999374
v 0.5 0.499999374 0.5
v -0.500000119 0.499999404 0.500000596
v -0.5 0.499999374 -0.5
v 0.5 -0.500000596 0.5
v 0.5 0.499999374 0.5
v 0.5 0.499999404 -0.499999374
v 0.5 -0.500000596 -0.5
vt 0.884882092 0.928389549
vt 0.953600049 0.997107387
vt 0.953600049 0.859671474
vt 0.816164136 0.997107387
vt 0.816164136 0.859671474
vt 0.816164136 0.997107387
vt 0.884882092 0.928389549
vt 0.816164136 0.859671474
vt 0.953600049 0.997107387
vt 0.953600049 0.859671474
vt 0.787447155 0.687026262
vt 0.65001142 0.687026262
vt 0.65001142 0.824462354
vt 0.787447155 0.824462235
vt 0.85893333 0.585743845
vt 0.85893321 0.68292588
vt 0.996369123 0.682925999
vt 0.996369123 0.585744083
vt 0.85893321 0.585744083
vt 0.85893321 0.682925999
vt 0.996369123 0.68292588
vt 0.996369123 0.585743845
vt 0.65001142 0.687026381
vt 0.65001142 0.824462354
vt 0.787447155 0.824462354
vt 0.787447155 0.687026262
vt 0.65001142 0.824462354
vt 0.787447155 0.824462354
vt 0.787447155 0.687026501
vt 0.65001142 0.687026381
vn -0 0 -1
vn -0 0 -1
vn -0 0 -1
vn -0 0 -1
vn -0 0 -1
vn -0 0 1
vn -0 0 1
vn -0 0 1
vn -0 0 1
vn -0 0 1
vn -1 0 0
vn -1 0 0
vn -1 0 0
vn -1 0 0
vn 0.707106769 -0.707106769 0
vn 0.707106769 -0.707106769 0
vn 0.707106769 -0.707106769 0
vn 0.707106769 -0.707106769 0
vn -0.707106769 -0.707106769 0
vn -0.707106769 -0.707106769 0
vn -0.707106769 -0.707106769 0
vn -0.707106769 -0.707106769 0
vn -0 1 0
vn -0 1 0
vn -0 1 0
vn -0 1 0
vn 1 0 0
vn 1 0 0
vn 1 0 0
vn 1 0 0
g flatsteel_BasicUnderSlopeInnerPoint_0
f 3/3/3 2/2/2 1/1/1
f 2/2/2 4/4/4 1/1/1
f 5/5/5 1/1/1 4/4/4
f 8/8/8 7/7/7 6/6/6
f 6/6/6 7/7/7 9/9/9
f 10/10/10 9/9/9 7/7/7
f 13/13/13 12/12/12 11/11/11
f 14/14/14 13/13/13 11/11/11
f 17/17/17 16/16/16 15/15/15
f 18/18/18 17/17/17 15/15/15
f 21/21/21 20/20/20 19/19/19
f 22/22/22 21/21/21 19/19/19
f 25/25/25 24/24/24 23/23/23
f 26/26/26 25/25/25 23/23/23
f 29/29/29 28/28/28 27/27/27
f 30/30/30 29/29/29 27/27/27
