g flatsteel_wall_13
v -0.2 -0.5 -0.2
v -0.2 -0.5 -0.500001
v -0.2 0.5 -0.500001
v -0.2 0.5 -0.2
v 0.2 0.5 -0.500001
v -0.2 0.5 -0.500001
v -0.2 -0.5 -0.500001
v 0.2 -0.5 -0.500001
v -0.5 -0.5 -0.200001
v -0.2 -0.5 -0.2
v -0.2 0.5 -0.2
v -0.5 0.5 -0.200001
v -0.5 0.5 -0.200001
v -0.5 0.5 0.2
v -0.5 -0.5 0.2
v -0.5 -0.5 -0.200001
v 0.2 -0.5 -0.0385973
v 0.2 0.5 -0.0385973
v 0.2 0.5 -0.500001
v 0.2 -0.5 -0.500001
v -0.5 0.5 0.2
v -0.0385967 0.5 0.2
v -0.0385968 -0.5 0.2
v -0.5 -0.5 0.2
v 0.2 0.5 -0.500001
v -0.2 0.5 -0.2
v -0.2 0.5 -0.500001
v 0.2 0.5 -0.0385973
v -0.0385969 0.5 -0.0385973
v -0.0385967 0.5 0.2
v -0.5 0.5 0.2
v -0.5 0.5 -0.200001
v -0.5 -0.5 0.2
v -0.2 -0.5 -0.2
v -0.5 -0.5 -0.200001
v -0.0385968 -0.5 0.2
v -0.0385961 -0.5 -0.0385969
v 0.2 -0.5 -0.0385973
v 0.2 -0.5 -0.500001
v -0.2 -0.5 -0.500001
v 0.256275 -0.5 -0.0385973
v -0.0385968 -0.5 -0.0385972
v -0.0385967 -0.5 0.256275
v 0.256275 -0.5 0.256274
v 0.256275 0.5 -0.0385973
v 0.256275 0.5 0.256274
v -0.0385967 0.5 0.256274
v -0.0385968 0.5 -0.0385973
v 0.256275 -0.5 -0.0385973
v 0.256275 0.5 -0.0385973
v -0.0385968 0.5 -0.0385973
v -0.0385968 -0.5 -0.0385972
v -0.0385968 -0.5 -0.0385972
v -0.0385968 0.5 -0.0385973
v -0.0385967 0.5 0.256274
v -0.0385967 -0.5 0.256275
v -0.0385967 -0.5 0.256275
v -0.0385967 0.5 0.256274
v 0.256275 0.5 0.256274
v 0.256275 -0.5 0.256274
v 0.256275 -0.5 0.256274
v 0.256275 0.5 0.256274
v 0.256275 0.5 -0.0385973
v 0.256275 -0.5 -0.0385973
vt 0.935741901 0.0341585949
vt 0.928774059 0.0341585949
vt 0.928774059 0.0573845878
vt 0.935741901 0.0573845878
vt 0.962013662 0.0571584776
vt 0.971304059 0.0571584776
vt 0.971304059 0.0339324698
vt 0.962013662 0.0339324698
vt 0.935741901 0.0574488863
vt 0.928774059 0.0574488863
vt 0.928774059 0.0806748942
vt 0.935741901 0.0806748942
vt 0.952516615 0.0571584776
vt 0.961807013 0.0571584776
vt 0.961807013 0.0339324698
vt 0.952516615 0.0339324698
vt 0.948917389 0.0572227761
vt 0.946568072 0.0804487839
vt 0.952494264 0.0804487839
vt 0.952494264 0.0572227761
vt 0.936009884 0.0571584776
vt 0.941956639 0.0571584776
vt 0.939586759 0.0339324698
vt 0.936009884 0.0339324698
vt 0.294486403 0.624028027
vt 0.362143457 0.674770772
vt 0.362143457 0.624028027
vt 0.294486403 0.702070892
vt 0.334843308 0.702070892
vt 0.334843278 0.742427886
vt 0.412886322 0.742427886
vt 0.412886262 0.674770713
vt 0.412886262 0.742427826
vt 0.362143457 0.674770772
vt 0.412886262 0.674770653
vt 0.334843308 0.742427826
vt 0.334843189 0.702070951
vt 0.294486374 0.702070892
vt 0.294486374 0.624027967
vt 0.362143457 0.624027967
vt 0.445629895 0.421317428
vt 0.445629895 0.381864399
vt 0.406176776 0.381864399
vt 0.406176776 0.421317428
vt 0.445629895 0.421317428
vt 0.445629895 0.381864399
vt 0.406176776 0.381864399
vt 0.406176776 0.421317428
vt 0.536783516 0.297199905
vt 0.402986169 0.297199965
vt 0.402986169 0.336653024
vt 0.536783516 0.336653024
vt 0.402986169 0.376106143
vt 0.536783516 0.376106113
vt 0.536783516 0.336653024
vt 0.402986169 0.336653024
vt 0.402986169 0.376106143
vt 0.536783516 0.376106024
vt 0.536783516 0.336652994
vt 0.402986169 0.336653024
vt 0.402986169 0.336653024
vt 0.536783516 0.336652994
vt 0.536783516 0.297199905
vt 0.402986169 0.297199965
vn -1 -1.74845e-07 -4.45048e-07
vn -1 -1.74845e-07 -4.45048e-07
vn -1 -1.74845e-07 -4.45048e-07
vn -1 -1.74845e-07 -4.45048e-07
vn 0 0 -1
vn 0 0 -1
vn 0 0 -1
vn 0 0 -1
vn 1.27157e-06 0 -1
vn 1.27157e-06 0 -1
vn 1.27157e-06 0 -1
vn 1.27157e-06 0 -1
vn -1 -1.74846e-07 -1.90735e-07
vn -1 -1.74846e-07 -1.90735e-07
vn -1 -1.74846e-07 -1.90735e-07
vn -1 -1.74846e-07 -1.90735e-07
vn 1 2.03456e-07 -1.44683e-07
vn 1 2.03456e-07 -1.44683e-07
vn 1 2.03456e-07 -1.44683e-07
vn 1 2.03456e-07 -1.44683e-07
vn -2.89366e-07 -3.05176e-07 1
vn -2.89366e-07 -3.05176e-07 1
vn -2.89366e-07 -3.05176e-07 1
vn -2.89366e-07 -3.05176e-07 1
vn -1.1991e-07 1 2.00403e-07
vn 0 1 1.25371e-07
vn -1.1991e-07 1 2.00403e-07
vn -1.33323e-07 1 2.66886e-07
vn 1.4144e-07 1 1.56406e-07
vn 0 1 0
vn -1.24745e-07 1 0
vn -1.24745e-07 1 0
vn 1.74846e-07 -1 0
vn 2.41665e-07 -1 0
vn 1.74846e-07 -1 0
vn 1.74846e-07 -1 0
vn 3.34726e-07 -1 -1.59881e-07
vn 3.25001e-07 -1 0
vn 2.70213e-07 -1 0
vn 2.70213e-07 -1 0
vn 0 -1 1.29368e-07
vn 0 -1 1.29368e-07
vn 0 -1 1.29368e-07
vn 0 -1 1.29368e-07
vn 0 1 -1.29368e-07
vn 0 1 -1.29368e-07
vn 0 1 -1.29368e-07
vn 0 1 -1.29368e-07
vn -2.58736e-07 0 -1
vn -2.58736e-07 0 -1
vn -2.58736e-07 0 -1
vn -2.58736e-07 0 -1
vn -1 0 2.58736e-07
vn -1 0 2.58736e-07
vn -1 0 2.58736e-07
vn -1 0 2.58736e-07
vn 2.58736e-07 0 1
vn 2.58736e-07 0 1
vn 2.58736e-07 0 1
vn 2.58736e-07 0 1
vn 1 0 -2.58736e-07
vn 1 0 -2.58736e-07
vn 1 0 -2.58736e-07
vn 1 0 -2.58736e-07
g flatsteel_wall_13_0
f 3/3/3 2/2/2 1/1/1
f 4/4/4 3/3/3 1/1/1
f 7/7/7 6/6/6 5/5/5
f 8/8/8 7/7/7 5/5/5
f 11/11/11 10/10/10 9/9/9
f 12/12/12 11/11/11 9/9/9
f 15/15/15 14/14/14 13/13/13
f 16/16/16 15/15/15 13/13/13
f 19/19/19 18/18/18 17/17/17
f 20/20/20 19/19/19 17/17/17
f 23/23/23 22/22/22 21/21/21
f 24/24/24 23/23/23 21/21/21
f 27/27/27 26/26/26 25/25/25
f 26/26/26 28/28/28 25/25/25
f 26/26/26 29/29/29 28/28/28
f 30/30/30 29/29/29 26/26/26
f 31/31/31 30/30/30 26/26/26
f 32/32/32 31/31/31 26/26/26
f 35/35/35 34/34/34 33/33/33
f 34/34/34 36/36/36 33/33/33
f 34/34/34 37/37/37 36/36/36
f 38/38/38 37/37/37 34/34/34
f 39/39/39 38/38/38 34/34/34
f 40/40/40 39/39/39 34/34/34
f 43/43/43 42/42/42 41/41/41
f 44/44/44 43/43/43 41/41/41
f 47/47/47 46/46/46 45/45/45
f 48/48/48 47/47/47 45/45/45
f 51/51/51 50/50/50 49/49/49
f 52/52/52 51/51/51 49/49/49
f 55/55/55 54/54/54 53/53/53
f 56/56/56 55/55/55 53/53/53
f 59/59/59 58/58/58 57/57/57
f 60/60/60 59/59/59 57/57/57
f 63/63/63 62/62/62 61/61/61
f 64/64/64 63/63/63 61/61/61
