g flatsteel_window_01
v 0.5 -0.5 0.138666108
v -0.5 -0.5 0.138666108
v -0.476999998 -0.476999998 0.138666108
v 0.476999998 -0.476999998 0.138666108
v 0.5 0.5 0.138666108
v 0.5 -0.5 0.138666108
v 0.476999998 -0.476999998 0.138666108
v 0.476999998 0.476999968 0.138666108
v -0.5 0.5 0.138666108
v 0.5 0.5 0.138666108
v 0.476999998 0.476999968 0.138666108
v -0.476999998 0.476999968 0.138666108
v -0.5 -0.5 0.138666108
v -0.5 0.5 0.138666108
v -0.476999998 0.476999968 0.138666108
v -0.476999998 -0.476999998 0.138666108
v -0.399999976 -0.399999976 -0.0791769996
v 0.399999976 -0.399999976 -0.0791769996
v 0.399999976 -0.399999976 0.0791769996
v -0.399999976 -0.399999976 0.0791769996
v -0.399999976 0.399999976 -0.0791769996
v -0.399999976 -0.399999976 -0.0791769996
v -0.399999976 -0.399999976 0.0791769996
v -0.399999976 0.399999976 0.0791769996
v 0.476999998 -0.476999998 0.0791769996
v 0.476999998 -0.476999998 0.138666108
v -0.476999998 -0.476999998 0.138666108
v -0.476999998 -0.476999998 0.0791769996
v -0.476999998 -0.476999998 0.0791769996
v -0.476999998 -0.476999998 0.138666108
v -0.476999998 0.476999968 0.138666108
v -0.476999998 0.476999968 0.0791769996
v -0.476999998 0.476999968 0.0791769996
v -0.476999998 0.476999968 0.138666108
v 0.476999998 0.476999968 0.138666108
v 0.476999998 0.476999968 0.0791769996
v 0.476999998 0.476999968 0.0791769996
v 0.476999998 0.476999968 0.138666108
v 0.476999998 -0.476999998 0.138666108
v 0.476999998 -0.476999998 0.0791769996
v -0.476999998 -0.476999998 -0.138667181
v -0.5 -0.5 -0.138667181
v 0.5 -0.5 -0.138667181
v 0.476999998 -0.476999998 -0.138667181
v 0.476999998 -0.476999998 -0.138667181
v 0.5 -0.5 -0.138667181
v 0.5 0.5 -0.138667181
v 0.476999998 0.476999968 -0.138667181
v 0.476999998 0.476999968 -0.138667181
v 0.5 0.5 -0.138667181
v -0.5 0.5 -0.138667181
v -0.476999998 0.476999968 -0.138667181
v -0.476999998 0.476999968 -0.138667181
v -0.5 0.5 -0.138667181
v -0.5 -0.5 -0.138667181
v -0.476999998 -0.476999998 -0.138667181
v 0.399999976 -0.399999976 -0.0791769996
v 0.399999976 0.399999976 -0.0791769996
v 0.399999976 0.399999976 0.0791769996
v 0.399999976 -0.399999976 0.0791769996
v 0.399999976 0.399999976 -0.0791769996
v -0.399999976 0.399999976 -0.0791769996
v -0.399999976 0.399999976 0.0791769996
v 0.399999976 0.399999976 0.0791769996
v 0.5 -0.5 -0.138667181
v -0.5 -0.5 -0.138667181
v -0.5 -0.5 0.138666108
v 0.5 -0.5 0.138666108
v 0.5 -0.5 -0.138667181
v 0.5 -0.5 0.138666108
v 0.5 0.5 0.138666108
v 0.5 0.5 -0.138667181
v 0.5 0.5 -0.138667181
v 0.5 0.5 0.138666108
v -0.5 0.5 0.138666108
v -0.5 0.5 -0.138667181
v -0.5 -0.5 -0.138667181
v -0.5 0.5 -0.138667181
v -0.5 0.5 0.138666108
v -0.5 -0.5 0.138666108
v 0.476999998 -0.476999998 -0.0791769996
v -0.476999998 -0.476999998 -0.0791769996
v -0.476999998 -0.476999998 -0.138667181
v 0.476999998 -0.476999998 -0.138667181
v -0.476999998 -0.476999998 -0.0791769996
v -0.476999998 0.476999968 -0.0791769996
v -0.476999998 0.476999968 -0.138667181
v -0.476999998 -0.476999998 -0.138667181
v -0.476999998 0.476999968 -0.0791769996
v 0.476999998 0.476999968 -0.0791769996
v 0.476999998 0.476999968 -0.138667181
v -0.476999998 0.476999968 -0.138667181
v 0.476999998 0.476999968 -0.0791769996
v 0.476999998 -0.476999998 -0.0791769996
v 0.476999998 -0.476999998 -0.138667181
v 0.476999998 0.476999968 -0.138667181
v 0.476999998 0.476999968 -0.0791769996
v -0.476999998 0.476999968 -0.0791769996
v -0.399999976 0.399999976 -0.0791769996
v 0.399999976 0.399999976 -0.0791769996
v -0.399999976 -0.399999976 -0.0791769996
v 0.476999998 -0.476999998 -0.0791769996
v -0.476999998 -0.476999998 -0.0791769996
v 0.399999976 -0.399999976 -0.0791769996
v -0.399999976 0.399999976 0.0791769996
v -0.476999998 0.476999968 0.0791769996
v 0.476999998 0.476999968 0.0791769996
v 0.399999976 0.399999976 0.0791769996
v -0.399999976 -0.399999976 0.0791769996
v 0.476999998 -0.476999998 0.0791769996
v -0.476999998 -0.476999998 0.0791769996
v 0.399999976 -0.399999976 0.0791769996
v -0.399999976 -0.399999976 0.0395892337
v -0.399999976 0.399999976 0.03958923
v 0.399999976 0.399999976 0.03958923
v 0.399999976 -0.399999976 0.0395892337
v 0.399999976 -0.399999976 -0.0395884663
v 0.399999976 0.399999976 -0.0395884737
v -0.399999976 0.399999976 -0.0395884737
v -0.399999976 -0.399999976 -0.0395884663
vt 0.0187067445 0.0043049911
vt 0.018706752 0.177643105
vt 0.0147205144 0.173656806
vt 0.014720507 0.0082925437
vt 0.018706752 0.177643403
vt 0.0187067445 0.0043049911
vt 0.0147204474 0.00829290133
vt 0.0147204548 0.173657164
vt 0.0187067445 0.0043049911
vt 0.018706752 0.177643105
vt 0.0147205144 0.173656806
vt 0.014720507 0.0082925437
vt 0.018706752 0.177643403
vt 0.0187067445 0.0043049911
vt 0.0147204474 0.00829290133
vt 0.0147204548 0.173657164
vt 0.0428011492 0.0972148106
vt 0.198804989 0.0972147956
vt 0.198804989 0.0697660819
vt 0.0428011492 0.0697660968
vt 0.0428011492 0.0972148106
vt 0.198804989 0.0972147956
vt 0.198804989 0.0697660819
vt 0.0428011492 0.0697660968
vt 0.197352394 0.161229581
vt 0.197352365 0.152838424
vt 0.0240143277 0.152838424
vt 0.0240143277 0.161229566
vt 0.197352394 0.161229581
vt 0.197352365 0.152838424
vt 0.0240143277 0.152838424
vt 0.0240143277 0.161229566
vt 0.197352394 0.161229581
vt 0.197352365 0.152838424
vt 0.024016235 0.152840331
vt 0.024016235 0.161229566
vt 0.197352394 0.161229581
vt 0.197352365 0.152840331
vt 0.024016235 0.152840331
vt 0.024016235 0.161229566
vt 0.0147205144 0.173656806
vt 0.018706752 0.177643105
vt 0.0187067445 0.0043049911
vt 0.014720507 0.0082925437
vt 0.0147204474 0.00829290133
vt 0.0187067445 0.0043049911
vt 0.018706752 0.177643403
vt 0.0147204548 0.173657164
vt 0.0147205144 0.173656806
vt 0.018706752 0.177643105
vt 0.0187067445 0.0043049911
vt 0.014720507 0.0082925437
vt 0.0147204474 0.00829290133
vt 0.0187067445 0.0043049911
vt 0.018706752 0.177643403
vt 0.0147204548 0.173657164
vt 0.0428011492 0.0972148106
vt 0.198804989 0.0972147956
vt 0.198804989 0.0697660819
vt 0.0428011492 0.0697660968
vt 0.0428011492 0.0972148106
vt 0.198804989 0.0972147956
vt 0.198804989 0.0697660819
vt 0.0428011492 0.0697660968
vt 0.199133351 0.00572689017
vt 0.0257949401 0.00572690507
vt 0.0257949475 0.049954284
vt 0.199133351 0.0499542691
vt 0.0257949401 0.00572690507
vt 0.0257949475 0.049954284
vt 0.199133351 0.0499542691
vt 0.199133351 0.00572689017
vt 0.0257949401 0.00572690507
vt 0.0257949475 0.049954284
vt 0.199133351 0.0499542691
vt 0.199133351 0.00572689017
vt 0.199133351 0.00572689017
vt 0.0257949401 0.00572690507
vt 0.0257949475 0.049954284
vt 0.199133351 0.0499542691
vt 0.197352365 0.152838424
vt 0.0240143277 0.152838424
vt 0.0240143277 0.161229566
vt 0.197352394 0.161229581
vt 0.197352365 0.152840331
vt 0.0240143277 0.152838424
vt 0.0240143277 0.161229566
vt 0.197352394 0.161229581
vt 0.197352365 0.152838424
vt 0.0240143277 0.152838424
vt 0.0240143277 0.161229566
vt 0.197352394 0.161229581
vt 0.197352365 0.152838424
vt 0.0240143277 0.152838424
vt 0.0240143277 0.161229566
vt 0.197352394 0.161229581
vt 0.584948957 0.631393969
vt 0.584948957 0.466029733
vt 0.598295569 0.479376704
vt 0.598295569 0.618047774
vt 0.73696667 0.479376704
vt 0.750313222 0.631393969
vt 0.750313222 0.466029733
vt 0.73696667 0.618047774
vt 0.598295569 0.479376704
vt 0.584948957 0.466029733
vt 0.584948957 0.631393969
vt 0.598295569 0.618047774
vt 0.73696667 0.479376704
vt 0.750313222 0.631393969
vt 0.750313222 0.466029733
vt 0.73696667 0.618047774
vt 0.113310941 0.924933732
vt 0.113310941 0.957172334
vt 0.145549476 0.957172334
vt 0.145549476 0.924933732
vt 0.113310941 0.924933732
vt 0.113310941 0.957172334
vt 0.145549476 0.957172334
vt 0.145549476 0.924933732
vn -0 0 1
vn -0 0 1
vn -0 0 1
vn -0 0 1
vn -0 0 1
vn -0 0 1
vn -0 0 1
vn -0 0 1
vn -0 0 1
vn -0 0 1
vn -0 0 1
vn -0 0 1
vn -0 0 1
vn -0 0 1
vn -0 0 1
vn -0 0 1
vn -0 1 0
vn -0 1 0
vn -0 1 0
vn -0 1 0
vn 1 0 0
vn 1 0 0
vn 1 0 0
vn 1 0 0
vn -0 1 1.2023304E-07
vn -0 1 1.2023304E-07
vn -0 1 1.2023304E-07
vn -0 1 1.2023304E-07
vn 1 0 0
vn 1 0 0
vn 1 0 0
vn 1 0 0
vn -0 -1 0
vn -0 -1 0
vn -0 -1 0
vn -0 -1 0
vn -1 0 0
vn -1 0 0
vn -1 0 0
vn -1 0 0
vn -0 0 -1
vn -0 0 -1
vn -0 0 -1
vn -0 0 -1
vn -0 0 -1
vn -0 0 -1
vn -0 0 -1
vn -0 0 -1
vn -0 0 -1
vn -0 0 -1
vn -0 0 -1
vn -0 0 -1
vn -0 0 -1
vn -0 0 -1
vn -0 0 -1
vn -0 0 -1
vn -1 0 0
vn -1 0 0
vn -1 0 0
vn -1 0 0
vn -0 -1 0
vn -0 -1 0
vn -0 -1 0
vn -0 -1 0
vn -0 -1 0
vn -0 -1 0
vn -0 -1 0
vn -0 -1 0
vn 1 0 0
vn 1 0 0
vn 1 0 0
vn 1 0 0
vn -0 1 0
vn -0 1 0
vn -0 1 0
vn -0 1 0
vn -1 0 0
vn -1 0 0
vn -1 0 0
vn -1 0 0
vn -0 1 -1.20230879E-07
vn -0 1 -1.20230879E-07
vn -0 1 -1.20230879E-07
vn -0 1 -1.20230879E-07
vn 1 0 0
vn 1 0 0
vn 1 0 0
vn 1 0 0
vn -0 -1 0
vn -0 -1 0
vn -0 -1 0
vn -0 -1 0
vn -1 0 0
vn -1 0 0
vn -1 0 0
vn -1 0 0
vn -0 0 -1
vn -0 0 -1
vn -0 0 -1
vn -0 0 -1
vn -0 0 -1
vn -0 0 -1
vn -0 0 -1
vn -0 0 -1
vn -0 0 1
vn -0 0 1
vn -0 0 1
vn -0 0 1
vn -0 0 1
vn -0 0 1
vn -0 0 1
vn -0 0 1
vn -0 0 1
vn -0 0 1
vn -0 0 1
vn -0 0 1
vn -0 0 -1
vn -0 0 -1
vn -0 0 -1
vn -0 0 -1
g flatsteel_window_01_0
f 3/3/3 2/2/2 1/1/1
f 4/4/4 3/3/3 1/1/1
f 7/7/7 6/6/6 5/5/5
f 8/8/8 7/7/7 5/5/5
f 11/11/11 10/10/10 9/9/9
f 12/12/12 11/11/11 9/9/9
f 15/15/15 14/14/14 13/13/13
f 16/16/16 15/15/15 13/13/13
f 19/19/19 18/18/18 17/17/17
f 20/20/20 19/19/19 17/17/17
f 23/23/23 22/22/22 21/21/21
f 24/24/24 23/23/23 21/21/21
f 27/27/27 26/26/26 25/25/25
f 28/28/28 27/27/27 25/25/25
f 31/31/31 30/30/30 29/29/29
f 32/32/32 31/31/31 29/29/29
f 35/35/35 34/34/34 33/33/33
f 36/36/36 35/35/35 33/33/33
f 39/39/39 38/38/38 37/37/37
f 40/40/40 39/39/39 37/37/37
f 43/43/43 42/42/42 41/41/41
f 44/44/44 43/43/43 41/41/41
f 47/47/47 46/46/46 45/45/45
f 48/48/48 47/47/47 45/45/45
f 51/51/51 50/50/50 49/49/49
f 52/52/52 51/51/51 49/49/49
f 55/55/55 54/54/54 53/53/53
f 56/56/56 55/55/55 53/53/53
f 59/59/59 58/58/58 57/57/57
f 60/60/60 59/59/59 57/57/57
f 63/63/63 62/62/62 61/61/61
f 64/64/64 63/63/63 61/61/61
f 67/67/67 66/66/66 65/65/65
f 68/68/68 67/67/67 65/65/65
f 71/71/71 70/70/70 69/69/69
f 72/72/72 71/71/71 69/69/69
f 75/75/75 74/74/74 73/73/73
f 76/76/76 75/75/75 73/73/73
f 79/79/79 78/78/78 77/77/77
f 80/80/80 79/79/79 77/77/77
f 83/83/83 82/82/82 81/81/81
f 84/84/84 83/83/83 81/81/81
f 87/87/87 86/86/86 85/85/85
f 88/88/88 87/87/87 85/85/85
f 91/91/91 90/90/90 89/89/89
f 92/92/92 91/91/91 89/89/89
f 95/95/95 94/94/94 93/93/93
f 96/96/96 95/95/95 93/93/93
f 99/99/99 98/98/98 97/97/97
f 100/100/100 99/99/99 97/97/97
f 99/99/99 101/101/101 98/98/98
f 100/100/100 97/97/97 102/102/102
f 101/101/101 103/103/103 98/98/98
f 104/104/104 100/100/100 102/102/102
f 104/104/104 102/102/102 103/103/103
f 101/101/101 104/104/104 103/103/103
f 107/107/107 106/106/106 105/105/105
f 108/108/108 107/107/107 105/105/105
f 105/105/105 106/106/106 109/109/109
f 110/110/110 107/107/107 108/108/108
f 106/106/106 111/111/111 109/109/109
f 112/112/112 110/110/110 108/108/108
f 109/109/109 111/111/111 112/112/112
f 111/111/111 110/110/110 112/112/112
g flatsteel_window_01_1
f 115/115/115 114/114/114 113/113/113
f 116/116/116 115/115/115 113/113/113
f 119/119/119 118/118/118 117/117/117
f 120/120/120 119/119/119 117/117/117
