g flatsteel_column_large_01
v -0.0692419782 -0.460000128 0.26000008
v -0.069241941 -0.460000217 0.0692420453
v -0.0692416355 0.500000298 0.069241941
v -0.0692419782 0.500000358 0.259999961
v -0.069241941 -0.460000217 0.0692420453
v -0.25999999 -0.460000217 0.0692420453
v -0.25999999 0.500000298 0.069241941
v -0.0692416355 0.500000298 0.069241941
v -0.099999994 -0.500000238 0.100000091
v -0.099999994 -0.460000217 0.100000046
v -0.099999994 -0.460000128 0.26000008
v -0.099999994 -0.5 0.300000072
v -0.099999994 0.500000358 0.259999961
v -0.099999994 0.500000358 0.299999952
v -0.299999982 0.500000298 0.0999999568
v -0.25999999 0.500000298 0.0999999568
v -0.25999999 -0.460000217 0.100000046
v -0.299999982 -0.500000238 0.100000091
v -0.099999994 -0.460000217 0.100000046
v -0.099999994 -0.500000238 0.100000091
v -0.099999994 -0.460000217 0.100000046
v -0.0692419782 -0.460000128 0.26000008
v -0.099999994 -0.460000128 0.26000008
v -0.069241941 -0.460000217 0.0692420453
v -0.25999999 -0.460000217 0.100000046
v -0.25999999 -0.460000217 0.0692420453
v -0.099999994 -0.460000128 0.26000008
v -0.0692419782 -0.460000128 0.26000008
v -0.0692419782 0.500000358 0.259999961
v -0.099999994 0.500000358 0.259999961
v -0.25999999 0.500000298 0.0999999568
v -0.25999999 0.500000298 0.069241941
v -0.25999999 -0.460000217 0.0692420453
v -0.25999999 -0.460000217 0.100000046
v 0.299999982 0.500000298 0.0999999568
v 0.299999982 0.500000298 -0.100000039
v 0.299999982 -0.500000238 -0.0999998674
v 0.299999982 -0.500000238 0.100000091
v 0.0692416355 0.500000298 0.069241941
v 0.069241941 -0.460000217 0.0692420453
v 0.0692419782 -0.460000128 0.26000008
v 0.0692419782 0.500000358 0.259999961
v 0.069241941 -0.460000217 0.0692420453
v 0.0692416355 0.500000298 0.069241941
v 0.25999999 0.500000298 0.069241941
v 0.25999999 -0.460000217 0.0692420453
v 0.099999994 -0.500000238 0.100000091
v 0.099999994 -0.460000128 0.26000008
v 0.099999994 -0.460000217 0.100000046
v 0.099999994 -0.5 0.300000072
v 0.099999994 0.500000358 0.259999961
v 0.099999994 0.500000358 0.299999952
v 0.299999982 0.500000298 0.0999999568
v 0.25999999 -0.460000217 0.100000046
v 0.25999999 0.500000298 0.0999999568
v 0.299999982 -0.500000238 0.100000091
v 0.099999994 -0.460000217 0.100000046
v 0.099999994 -0.500000238 0.100000091
v 0.099999994 -0.460000217 0.100000046
v 0.099999994 -0.460000128 0.26000008
v 0.0692419782 -0.460000128 0.26000008
v 0.069241941 -0.460000217 0.0692420453
v 0.25999999 -0.460000217 0.100000046
v 0.25999999 -0.460000217 0.0692420453
v 0.099999994 -0.460000128 0.26000008
v 0.099999994 0.500000358 0.259999961
v 0.0692419782 0.500000358 0.259999961
v 0.0692419782 -0.460000128 0.26000008
v 0.25999999 0.500000298 0.0999999568
v 0.25999999 -0.460000217 0.100000046
v 0.25999999 -0.460000217 0.0692420453
v 0.25999999 0.500000298 0.069241941
v 0.299999982 -0.500000238 -0.0999998674
v 0.099999994 -0.500000238 0.100000091
v 0.299999982 -0.500000238 0.100000091
v 0.099999994 -0.500000238 -0.0999998674
v -0.099999994 -0.500000238 -0.0999998674
v 0.099999994 -0.500000119 -0.299999833
v -0.099999994 -0.500000119 -0.299999833
v -0.099999994 -0.500000238 0.100000091
v 0.099999994 -0.5 0.300000072
v -0.099999994 -0.5 0.300000072
v -0.299999982 -0.500000238 0.100000091
v -0.299999982 -0.500000238 -0.0999998674
v -0.099999994 -0.5 0.300000072
v -0.099999994 0.500000358 0.299999952
v 0.099999994 0.500000358 0.299999952
v 0.099999994 -0.5 0.300000072
v -0.299999982 0.500000298 -0.100000039
v -0.299999982 0.500000298 0.0999999568
v -0.299999982 -0.500000238 0.100000091
v -0.299999982 -0.500000238 -0.0999998674
v -0.0692416355 0.500000298 -0.0692420155
v -0.069241941 -0.460000217 -0.0692418292
v -0.0692419782 -0.460000306 -0.259999841
v -0.0692419782 0.500000238 -0.26000002
v -0.069241941 -0.460000217 -0.0692418292
v -0.0692416355 0.500000298 -0.0692420155
v -0.25999999 0.500000238 -0.0692420155
v -0.25999999 -0.460000217 -0.0692418292
v -0.099999994 -0.500000238 -0.0999998674
v -0.099999994 -0.460000306 -0.259999841
v -0.099999994 -0.460000217 -0.0999998376
v -0.099999994 -0.500000119 -0.299999833
v -0.099999994 0.500000238 -0.26000002
v -0.099999994 0.500000238 -0.300000042
v -0.299999982 0.500000298 -0.100000039
v -0.25999999 -0.460000217 -0.0999998376
v -0.25999999 0.500000238 -0.100000039
v -0.299999982 -0.500000238 -0.0999998674
v -0.099999994 -0.460000217 -0.0999998376
v -0.099999994 -0.500000238 -0.0999998674
v -0.099999994 -0.460000217 -0.0999998376
v -0.099999994 -0.460000306 -0.259999841
v -0.0692419782 -0.460000306 -0.259999841
v -0.069241941 -0.460000217 -0.0692418292
v -0.25999999 -0.460000217 -0.0999998376
v -0.25999999 -0.460000217 -0.0692418292
v -0.099999994 -0.460000306 -0.259999841
v -0.099999994 0.500000238 -0.26000002
v -0.0692419782 0.500000238 -0.26000002
v -0.0692419782 -0.460000306 -0.259999841
v -0.25999999 0.500000238 -0.100000039
v -0.25999999 -0.460000217 -0.0999998376
v -0.25999999 -0.460000217 -0.0692418292
v -0.25999999 0.500000238 -0.0692420155
v 0.0692419782 -0.460000306 -0.259999841
v 0.069241941 -0.460000217 -0.0692418292
v 0.0692416355 0.500000298 -0.0692420155
v 0.0692419782 0.500000238 -0.26000002
v 0.069241941 -0.460000217 -0.0692418292
v 0.25999999 -0.460000217 -0.0692418292
v 0.25999999 0.500000238 -0.0692420155
v 0.0692416355 0.500000298 -0.0692420155
v 0.099999994 -0.500000238 -0.0999998674
v 0.099999994 -0.460000217 -0.0999998376
v 0.099999994 -0.460000306 -0.259999841
v 0.099999994 -0.500000119 -0.299999833
v 0.099999994 0.500000238 -0.26000002
v 0.099999994 0.500000238 -0.300000042
v 0.299999982 0.500000298 -0.100000039
v 0.25999999 0.500000238 -0.100000039
v 0.25999999 -0.460000217 -0.0999998376
v 0.299999982 -0.500000238 -0.0999998674
v 0.099999994 -0.460000217 -0.0999998376
v 0.099999994 -0.500000238 -0.0999998674
v 0.099999994 -0.460000217 -0.0999998376
v 0.0692419782 -0.460000306 -0.259999841
v 0.099999994 -0.460000306 -0.259999841
v 0.069241941 -0.460000217 -0.0692418292
v 0.25999999 -0.460000217 -0.0999998376
v 0.25999999 -0.460000217 -0.0692418292
v 0.099999994 -0.460000306 -0.259999841
v 0.0692419782 -0.460000306 -0.259999841
v 0.0692419782 0.500000238 -0.26000002
v 0.099999994 0.500000238 -0.26000002
v 0.25999999 0.500000238 -0.100000039
v 0.25999999 0.500000238 -0.0692420155
v 0.25999999 -0.460000217 -0.0692418292
v 0.25999999 -0.460000217 -0.0999998376
v 0.099999994 0.500000238 -0.300000042
v -0.099999994 0.500000238 -0.300000042
v -0.099999994 -0.500000119 -0.299999833
v 0.099999994 -0.500000119 -0.299999833
vt 0.635034382 0.21598123
vt 0.650019228 0.21598123
vt 0.650019228 0.140570834
vt 0.635034382 0.140570834
vt 0.650019228 0.21598123
vt 0.665003359 0.21598123
vt 0.665003359 0.140570834
vt 0.650019228 0.140570834
vt 0.310855299 0.00633138465
vt 0.310855299 0.0139071941
vt 0.341158777 0.0139072537
vt 0.348734707 0.00633138465
vt 0.341158777 0.195728481
vt 0.348734707 0.195728481
vt 0.386614174 0.195728496
vt 0.394190043 0.195728496
vt 0.394190043 0.0139071941
vt 0.386614174 0.00633132504
vt 0.424493581 0.0139071941
vt 0.424493581 0.00633132504
vt 0.533832252 0.0088881664
vt 0.503528595 0.00306270644
vt 0.503528595 0.0088881664
vt 0.539657533 0.00306270644
vt 0.533832252 0.0391917042
vt 0.539657533 0.0391917042
vt 0.533832014 0.0391914658
vt 0.539657295 0.0391914658
vt 0.539657295 0.221012726
vt 0.533831894 0.221012726
vt 0.533832133 0.221012965
vt 0.539657533 0.221012965
vt 0.539657533 0.0391917042
vt 0.533832252 0.0391917042
vt 0.348734707 0.195728421
vt 0.386614114 0.195728436
vt 0.386614114 0.00633132504
vt 0.348734707 0.00633132504
vt 0.650019228 0.140570834
vt 0.650019228 0.21598123
vt 0.665003359 0.21598123
vt 0.665003359 0.140570834
vt 0.650019228 0.21598123
vt 0.650019228 0.140570834
vt 0.635034382 0.140570834
vt 0.635034382 0.21598123
vt 0.424493581 0.00633132504
vt 0.394190043 0.0139071941
vt 0.424493581 0.0139071941
vt 0.386614114 0.00633138465
vt 0.394190043 0.195728496
vt 0.386614174 0.195728496
vt 0.348734707 0.195728421
vt 0.341158837 0.0139071941
vt 0.341158837 0.195728421
vt 0.348734707 0.00633132504
vt 0.310855299 0.0139071941
vt 0.310855299 0.00633132504
vt 0.533832014 0.00888792798
vt 0.503528357 0.00888792798
vt 0.503528357 0.00306246802
vt 0.539657295 0.00306246802
vt 0.533832014 0.0391914658
vt 0.539657295 0.0391914658
vt 0.539657295 0.0391914658
vt 0.539657295 0.221012726
vt 0.533831894 0.221012726
vt 0.533832014 0.0391914658
vt 0.533831894 0.221012726
vt 0.533832014 0.0391914658
vt 0.539657295 0.0391914658
vt 0.539657295 0.221012726
vt 0.728336334 0.52695787
vt 0.687857628 0.567436814
vt 0.728336334 0.567436814
vt 0.687857628 0.526958108
vt 0.647378802 0.526958108
vt 0.687857628 0.486479282
vt 0.647378802 0.486479282
vt 0.647378802 0.567436814
vt 0.687857628 0.607915759
vt 0.647378802 0.607915759
vt 0.606899738 0.567436814
vt 0.606899738 0.526958108
vt 0.348734707 0.00633138465
vt 0.348734707 0.195728481
vt 0.386614174 0.195728496
vt 0.386614114 0.00633138465
vt 0.348734766 0.195728481
vt 0.386614174 0.195728496
vt 0.386614174 0.00633132504
vt 0.348734766 0.00633126544
vt 0.650019228 0.140570834
vt 0.650019228 0.21598123
vt 0.665003359 0.21598123
vt 0.665003359 0.140570834
vt 0.650019228 0.21598123
vt 0.650019228 0.140570834
vt 0.635034382 0.140570834
vt 0.635034382 0.21598123
vt 0.424493581 0.00633132504
vt 0.394190043 0.0139071941
vt 0.424493581 0.0139071941
vt 0.386614114 0.00633132504
vt 0.394190043 0.195728436
vt 0.386614114 0.195728436
vt 0.348734766 0.195728481
vt 0.341158956 0.0139071345
vt 0.341158956 0.195728481
vt 0.348734766 0.00633126544
vt 0.310855359 0.0139071345
vt 0.310855359 0.00633126544
vt 0.533832133 0.00888810679
vt 0.533832014 0.0391916446
vt 0.539657295 0.0391916446
vt 0.539657533 0.00306270644
vt 0.503528476 0.00888798758
vt 0.503528595 0.00306258723
vt 0.533832014 0.0391916446
vt 0.533831894 0.221012905
vt 0.539657295 0.221012905
vt 0.539657295 0.0391916446
vt 0.533831775 0.221012726
vt 0.533832014 0.0391914658
vt 0.539657176 0.0391914658
vt 0.539657176 0.221012726
vt 0.635034382 0.21598123
vt 0.650019228 0.21598123
vt 0.650019228 0.140570834
vt 0.635034382 0.140570834
vt 0.650019228 0.21598123
vt 0.665003359 0.21598123
vt 0.665003359 0.140570834
vt 0.650019228 0.140570834
vt 0.310855359 0.00633132504
vt 0.310855359 0.0139071345
vt 0.341158897 0.0139071345
vt 0.348734707 0.00633132504
vt 0.341158956 0.195728421
vt 0.348734766 0.195728421
vt 0.386614114 0.195728436
vt 0.394190043 0.195728436
vt 0.394190043 0.0139071941
vt 0.386614114 0.00633132504
vt 0.424493581 0.0139071941
vt 0.424493581 0.00633132504
vt 0.533832133 0.0088881664
vt 0.539657176 0.0391918831
vt 0.533831894 0.0391918831
vt 0.539657533 0.00306270644
vt 0.503528357 0.00888792798
vt 0.503528357 0.00306246802
vt 0.533831894 0.0391918831
vt 0.539657176 0.0391918831
vt 0.539657176 0.221013144
vt 0.533831656 0.221013144
vt 0.539657295 0.221012726
vt 0.533831894 0.221012726
vt 0.533832014 0.0391914658
vt 0.539657295 0.0391914658
vt 0.348734766 0.195728421
vt 0.386614114 0.195728436
vt 0.386614114 0.00633132504
vt 0.348734707 0.00633132504
vn -1 1.58945525E-07 -9.99878694E-07
vn -1 1.58945525E-07 -9.99878807E-07
vn -1 1.58945525E-07 -9.99878694E-07
vn -1 1.58945525E-07 -9.99878694E-07
vn -0 1.04308086E-07 1
vn -0 1.04308064E-07 1
vn -0 1.04308064E-07 1
vn -0 1.04308086E-07 1
vn -1 0 0
vn -1 0 0
vn -1 0 0
vn -1 0 0
vn -1 0 0
vn -1 0 0
vn 5.40091037E-07 1.11910701E-07 1
vn 5.40091037E-07 1.11910701E-07 1
vn 5.40091037E-07 1.11910701E-07 1
vn 5.40091037E-07 1.11910701E-07 1
vn -0 1.1920929E-06 1
vn -0 1.1920929E-06 1
vn -2.17511428E-07 1 -4.35023225E-07
vn -2.17511428E-07 1 -4.35023253E-07
vn -2.17511399E-07 1 -4.35023225E-07
vn -2.17511399E-07 1 -4.35023225E-07
vn -0 1 0
vn -0 1 0
vn -0 -1.19209233E-07 -1
vn -0 -1.19209233E-07 -1
vn -0 -1.19209233E-07 -1
vn -0 -1.19209233E-07 -1
vn 1 0 0
vn 1 0 0
vn 1 0 0
vn 1 0 0
vn 1 0 0
vn 1 0 0
vn 1 0 0
vn 1 0 0
vn 1 1.58945525E-07 -9.9987858E-07
vn 1 1.58945525E-07 -9.9987858E-07
vn 1 1.58945525E-07 -9.9987858E-07
vn 1 1.58945525E-07 -9.9987858E-07
vn -0 1.04308086E-07 1
vn -0 1.04308086E-07 1
vn -0 1.04308064E-07 1
vn -0 1.04308064E-07 1
vn 1 0 0
vn 1 0 0
vn 1 0 0
vn 1 0 0
vn 1 0 0
vn 1 0 0
vn -5.40091094E-07 1.11910701E-07 1
vn -5.40091094E-07 1.11910701E-07 1
vn -5.40091094E-07 1.11910701E-07 1
vn -5.40091094E-07 1.11910701E-07 1
vn -0 1.1920929E-06 1
vn -0 1.1920929E-06 1
vn 2.17511428E-07 1 -4.35023225E-07
vn 2.17511399E-07 1 -4.35023225E-07
vn 2.17511428E-07 1 -4.35023253E-07
vn 2.17511399E-07 1 -4.35023225E-07
vn -0 1 0
vn -0 1 0
vn -0 -1.19209233E-07 -1
vn -0 -1.19209233E-07 -1
vn -0 -1.19209233E-07 -1
vn -0 -1.19209233E-07 -1
vn -1 0 0
vn -1 0 0
vn -1 0 0
vn -1 0 0
vn -0 -1 0
vn -0 -1 0
vn -0 -1 0
vn -0 -1 0
vn -0 -1 0
vn -0 -1 -3.81469761E-07
vn -0 -1 -3.81469761E-07
vn -0 -1 5.72204613E-07
vn -0 -1 1.14440923E-06
vn -0 -1 1.14440923E-06
vn -0 -1 0
vn -0 -1 0
vn -0 1.1444088E-07 1
vn -0 1.1444088E-07 1
vn -0 1.1444088E-07 1
vn -0 1.1444088E-07 1
vn -1 0 0
vn -1 0 0
vn -1 0 0
vn -1 0 0
vn -1 1.58945824E-07 9.9987858E-07
vn -1 1.58945809E-07 9.9987858E-07
vn -1 1.58945824E-07 9.9987858E-07
vn -1 1.58945824E-07 9.9987858E-07
vn -0 -1.9371501E-07 -1
vn -0 -1.93714982E-07 -1
vn -0 -1.93714996E-07 -1
vn -0 -1.93714982E-07 -1
vn -1 0 0
vn -1 0 0
vn -1 0 0
vn -1 0 0
vn -1 0 0
vn -1 0 0
vn 4.52508601E-07 -1.89761607E-07 -1
vn 4.52508601E-07 -1.89761607E-07 -1
vn 4.52508601E-07 -1.89761636E-07 -1
vn 4.52508573E-07 -1.89761607E-07 -1
vn -0 7.15255737E-07 -1
vn -0 7.15255737E-07 -1
vn 2.17511428E-07 1 -4.35023281E-07
vn 2.17511399E-07 1 -4.35023281E-07
vn 2.17511428E-07 1 -4.35023281E-07
vn 2.17511428E-07 1 -4.35023281E-07
vn -0 1 0
vn -0 1 0
vn -0 1.98682017E-07 1
vn -0 1.98682017E-07 1
vn -0 1.98682017E-07 1
vn -0 1.98682017E-07 1
vn 1 0 0
vn 1 0 0
vn 1 0 0
vn 1 0 0
vn 1 1.58945824E-07 9.9987858E-07
vn 1 1.58945809E-07 9.9987858E-07
vn 1 1.58945824E-07 9.9987858E-07
vn 1 1.58945824E-07 9.9987858E-07
vn -0 -1.9371501E-07 -1
vn -0 -1.93714982E-07 -1
vn -0 -1.93714996E-07 -1
vn -0 -1.93714982E-07 -1
vn 1 0 0
vn 1 0 0
vn 1 0 0
vn 1 0 0
vn 1 0 0
vn 1 0 0
vn -4.52508601E-07 -1.8976165E-07 -1
vn -4.52508601E-07 -1.8976165E-07 -1
vn -4.52508658E-07 -1.89761636E-07 -1
vn -4.52508601E-07 -1.89761636E-07 -1
vn -0 7.15255737E-07 -1
vn -0 7.15255737E-07 -1
vn -2.17511428E-07 1 -4.35023281E-07
vn -2.17511428E-07 1 -4.35023281E-07
vn -2.17511399E-07 1 -4.35023281E-07
vn -2.17511428E-07 1 -4.35023281E-07
vn -0 1 0
vn -0 1 0
vn -0 1.98682017E-07 1
vn -0 1.98682017E-07 1
vn -0 1.98682017E-07 1
vn -0 1.98682017E-07 1
vn -1 0 0
vn -1 0 0
vn -1 0 0
vn -1 0 0
vn -0 -1.90734795E-07 -1
vn -0 -1.90734795E-07 -1
vn -0 -1.90734795E-07 -1
vn -0 -1.90734795E-07 -1
g flatsteel_column_large_01_0
f 3/3/3 2/2/2 1/1/1
f 4/4/4 3/3/3 1/1/1
f 7/7/7 6/6/6 5/5/5
f 8/8/8 7/7/7 5/5/5
f 11/11/11 10/10/10 9/9/9
f 12/12/12 11/11/11 9/9/9
f 13/13/13 11/11/11 12/12/12
f 14/14/14 13/13/13 12/12/12
f 17/17/17 16/16/16 15/15/15
f 18/18/18 17/17/17 15/15/15
f 19/19/19 17/17/17 18/18/18
f 20/20/20 19/19/19 18/18/18
f 23/23/23 22/22/22 21/21/21
f 22/22/22 24/24/24 21/21/21
f 21/21/21 24/24/24 25/25/25
f 24/24/24 26/26/26 25/25/25
f 29/29/29 28/28/28 27/27/27
f 30/30/30 29/29/29 27/27/27
f 33/33/33 32/32/32 31/31/31
f 34/34/34 33/33/33 31/31/31
f 37/37/37 36/36/36 35/35/35
f 38/38/38 37/37/37 35/35/35
f 41/41/41 40/40/40 39/39/39
f 42/42/42 41/41/41 39/39/39
f 45/45/45 44/44/44 43/43/43
f 46/46/46 45/45/45 43/43/43
f 49/49/49 48/48/48 47/47/47
f 48/48/48 50/50/50 47/47/47
f 48/48/48 51/51/51 50/50/50
f 51/51/51 52/52/52 50/50/50
f 55/55/55 54/54/54 53/53/53
f 54/54/54 56/56/56 53/53/53
f 54/54/54 57/57/57 56/56/56
f 57/57/57 58/58/58 56/56/56
f 61/61/61 60/60/60 59/59/59
f 62/62/62 61/61/61 59/59/59
f 62/62/62 59/59/59 63/63/63
f 64/64/64 62/62/62 63/63/63
f 67/67/67 66/66/66 65/65/65
f 68/68/68 67/67/67 65/65/65
f 71/71/71 70/70/70 69/69/69
f 72/72/72 71/71/71 69/69/69
f 75/75/75 74/74/74 73/73/73
f 74/74/74 76/76/76 73/73/73
f 77/77/77 76/76/76 74/74/74
f 76/76/76 77/77/77 78/78/78
f 77/77/77 79/79/79 78/78/78
f 80/80/80 77/77/77 74/74/74
f 74/74/74 81/81/81 80/80/80
f 81/81/81 82/82/82 80/80/80
f 77/77/77 80/80/80 83/83/83
f 84/84/84 77/77/77 83/83/83
f 87/87/87 86/86/86 85/85/85
f 88/88/88 87/87/87 85/85/85
f 91/91/91 90/90/90 89/89/89
f 92/92/92 91/91/91 89/89/89
f 95/95/95 94/94/94 93/93/93
f 96/96/96 95/95/95 93/93/93
f 99/99/99 98/98/98 97/97/97
f 100/100/100 99/99/99 97/97/97
f 103/103/103 102/102/102 101/101/101
f 102/102/102 104/104/104 101/101/101
f 102/102/102 105/105/105 104/104/104
f 105/105/105 106/106/106 104/104/104
f 109/109/109 108/108/108 107/107/107
f 108/108/108 110/110/110 107/107/107
f 108/108/108 111/111/111 110/110/110
f 111/111/111 112/112/112 110/110/110
f 115/115/115 114/114/114 113/113/113
f 116/116/116 115/115/115 113/113/113
f 116/116/116 113/113/113 117/117/117
f 118/118/118 116/116/116 117/117/117
f 121/121/121 120/120/120 119/119/119
f 122/122/122 121/121/121 119/119/119
f 125/125/125 124/124/124 123/123/123
f 126/126/126 125/125/125 123/123/123
f 129/129/129 128/128/128 127/127/127
f 130/130/130 129/129/129 127/127/127
f 133/133/133 132/132/132 131/131/131
f 134/134/134 133/133/133 131/131/131
f 137/137/137 136/136/136 135/135/135
f 138/138/138 137/137/137 135/135/135
f 139/139/139 137/137/137 138/138/138
f 140/140/140 139/139/139 138/138/138
f 143/143/143 142/142/142 141/141/141
f 144/144/144 143/143/143 141/141/141
f 145/145/145 143/143/143 144/144/144
f 146/146/146 145/145/145 144/144/144
f 149/149/149 148/148/148 147/147/147
f 148/148/148 150/150/150 147/147/147
f 147/147/147 150/150/150 151/151/151
f 150/150/150 152/152/152 151/151/151
f 155/155/155 154/154/154 153/153/153
f 156/156/156 155/155/155 153/153/153
f 159/159/159 158/158/158 157/157/157
f 160/160/160 159/159/159 157/157/157
f 163/163/163 162/162/162 161/161/161
f 164/164/164 163/163/163 161/161/161
