g flatsteel_wall_10
v 0.200000226 -0.5 0.199999735
v 0.200000033 -0.5 0.50000006
v 0.200000033 0.5 0.50000006
v 0.200000226 0.5 0.199999735
v 0.200000182 -0.5 -0.499999911
v 0.200000316 -0.5 -0.200000212
v 0.200000316 0.5 -0.200000212
v 0.200000182 0.5 -0.499999911
v 0.200000316 -0.5 -0.200000212
v 0.500000358 -0.5 -0.20000051
v 0.500000358 0.5 -0.20000051
v 0.200000316 0.5 -0.200000212
v 0.500000238 -0.5 0.200000167
v 0.200000226 -0.5 0.199999735
v 0.200000226 0.5 0.199999735
v 0.500000238 0.5 0.200000167
v 0.500000358 0.5 -0.20000051
v 0.500000238 0.5 0.200000167
v 0.200000226 0.5 0.199999735
v 0.200000316 0.5 -0.200000212
v -0.200000226 0.5 -0.19999969
v 0.200000182 0.5 -0.499999911
v -0.200000048 0.5 -0.5
v -0.200000316 0.5 0.200000241
v 0.200000033 0.5 0.50000006
v -0.200000167 0.5 0.5
v -0.500000358 0.5 0.200000569
v -0.500000238 0.5 -0.200000107
v 0.500000358 -0.5 -0.20000051
v 0.200000226 -0.5 0.199999735
v 0.500000238 -0.5 0.200000167
v 0.200000316 -0.5 -0.200000212
v -0.200000226 -0.5 -0.19999969
v 0.200000182 -0.5 -0.499999911
v -0.200000048 -0.5 -0.5
v -0.200000316 -0.5 0.200000241
v 0.200000033 -0.5 0.50000006
v -0.200000167 -0.5 0.5
v -0.500000358 -0.5 0.200000569
v -0.500000238 -0.5 -0.200000107
v 0.500000238 0.5 0.200000167
v 0.500000358 0.5 -0.20000051
v 0.500000358 -0.5 -0.20000051
v 0.500000238 -0.5 0.200000167
v -0.200000226 -0.5 -0.19999969
v -0.200000048 -0.5 -0.5
v -0.200000048 0.5 -0.5
v -0.200000226 0.5 -0.19999969
v -0.200000167 -0.5 0.5
v -0.200000167 0.5 0.5
v 0.200000033 0.5 0.50000006
v 0.200000033 -0.5 0.50000006
v -0.200000167 -0.5 0.5
v -0.200000316 -0.5 0.200000241
v -0.200000316 0.5 0.200000241
v -0.200000167 0.5 0.5
v -0.200000316 -0.5 0.200000241
v -0.500000358 -0.5 0.200000569
v -0.500000358 0.5 0.200000569
v -0.200000316 0.5 0.200000241
v -0.500000238 -0.5 -0.200000107
v -0.200000226 -0.5 -0.19999969
v -0.200000226 0.5 -0.19999969
v -0.500000238 0.5 -0.200000107
v -0.500000238 0.5 -0.200000107
v -0.500000358 0.5 0.200000569
v -0.500000358 -0.5 0.200000569
v -0.500000238 -0.5 -0.200000107
v -0.200000048 -0.5 -0.5
v 0.200000182 -0.5 -0.499999911
v 0.200000182 0.5 -0.499999911
v -0.200000048 0.5 -0.5
vt 0.939805448 0.0362022892
vt 0.931847095 0.0362022892
vt 0.931847095 0.062730141
vt 0.939805448 0.062730141
vt 0.977570593 0.0446668938
vt 0.9696123 0.0446668938
vt 0.9696123 0.0711947605
vt 0.977570593 0.0711947605
vt 0.931015313 0.032621108
vt 0.92305696 0.032621108
vt 0.92305696 0.0591489598
vt 0.931015313 0.0591489598
vt 0.922225118 0.032621108
vt 0.914266765 0.032621108
vt 0.914266765 0.0591489598
vt 0.922225118 0.0591489598
vt 0.575506389 0.529966652
vt 0.575506389 0.460422277
vt 0.523348212 0.460422337
vt 0.523348212 0.529966652
vt 0.453803748 0.529966474
vt 0.523348153 0.58212477
vt 0.453803807 0.58212477
vt 0.453803748 0.460422277
vt 0.523348153 0.408264101
vt 0.453803807 0.408264101
vt 0.401645571 0.460422218
vt 0.401645571 0.529966533
vt 0.575506389 0.460422218
vt 0.523348153 0.529966474
vt 0.575506389 0.529966533
vt 0.523348153 0.460422218
vt 0.453803688 0.460422337
vt 0.523348153 0.408264101
vt 0.453803748 0.408264101
vt 0.453803688 0.529966533
vt 0.523348153 0.58212477
vt 0.453803748 0.58212477
vt 0.401645452 0.529966652
vt 0.401645452 0.460422277
vt 0.967984438 0.0438475534
vt 0.978595614 0.0438475534
vt 0.978595614 0.0173197016
vt 0.967984438 0.0173197016
vt 0.967803776 0.0173197016
vt 0.959845424 0.0173197016
vt 0.959845424 0.0438475534
vt 0.967803776 0.0438475534
vt 0.958868742 0.0446668938
vt 0.958868742 0.0711947605
vt 0.969479859 0.0711947605
vt 0.969479859 0.0446668938
vt 0.986686349 0.0173197016
vt 0.978727996 0.0173197016
vt 0.978727996 0.0438475534
vt 0.986686349 0.0438475534
vt 0.986686349 0.0440157726
vt 0.978727996 0.0440157726
vt 0.978727996 0.0705436245
vt 0.986686349 0.0705436245
vt 0.95868808 0.0446668938
vt 0.950729668 0.0446668938
vt 0.950729668 0.0711947605
vt 0.95868808 0.0711947605
vt 0.939986169 0.0711947605
vt 0.950597346 0.0711947605
vt 0.950597346 0.0446668938
vt 0.939986169 0.0446668938
vt 0.924877942 0.059317179
vt 0.914266765 0.059317179
vt 0.914266765 0.0858450308
vt 0.924877942 0.0858450308
vn 1 0 6.35782214E-07
vn 1 0 6.35782214E-07
vn 1 0 6.35782214E-07
vn 1 0 6.35782214E-07
vn 1 0 -4.45048414E-07
vn 1 0 -4.45048414E-07
vn 1 0 -4.45048414E-07
vn 1 0 -4.45048414E-07
vn -1.01725232E-06 0 -1
vn -1.01725232E-06 0 -1
vn -1.01725232E-06 0 -1
vn -1.01725232E-06 0 -1
vn -1.46230047E-06 0 1
vn -1.46230047E-06 0 1
vn -1.46230047E-06 0 1
vn -1.46230047E-06 0 1
vn -0 1 0
vn -0 1 0
vn -0 1 0
vn -0 1 0
vn -0 1 0
vn -0 1 0
vn -0 1 0
vn -0 1 0
vn -0 1 0
vn -0 1 0
vn -0 1 0
vn -0 1 0
vn -0 -1 0
vn -0 -1 0
vn -0 -1 0
vn -0 -1 0
vn -0 -1 0
vn -0 -1 0
vn -0 -1 0
vn -0 -1 0
vn -0 -1 0
vn -0 -1 0
vn -0 -1 0
vn -0 -1 0
vn 1 0 3.81469079E-07
vn 1 0 3.81469079E-07
vn 1 0 3.81469079E-07
vn 1 0 3.81469079E-07
vn -1 0 -5.72203987E-07
vn -1 0 -5.72203987E-07
vn -1 0 -5.72203987E-07
vn -1 0 -5.72203987E-07
vn -1.90734767E-07 0 1
vn -1.90734767E-07 0 1
vn -1.90734767E-07 0 1
vn -1.90734767E-07 0 1
vn -1 0 5.08626783E-07
vn -1 0 5.08626783E-07
vn -1 0 5.08626783E-07
vn -1 0 5.08626783E-07
vn 1.08083054E-06 0 1
vn 1.08083054E-06 0 1
vn 1.08083054E-06 0 1
vn 1.08083054E-06 0 1
vn 1.39872236E-06 0 -1
vn 1.39872236E-06 0 -1
vn 1.39872236E-06 0 -1
vn 1.39872236E-06 0 -1
vn -1 0 -3.81469079E-07
vn -1 0 -3.81469079E-07
vn -1 0 -3.81469079E-07
vn -1 0 -3.81469079E-07
vn 1.90734767E-07 0 -1
vn 1.90734767E-07 0 -1
vn 1.90734767E-07 0 -1
vn 1.90734767E-07 0 -1
g flatsteel_wall_10_0
f 3/3/3 2/2/2 1/1/1
f 4/4/4 3/3/3 1/1/1
f 7/7/7 6/6/6 5/5/5
f 8/8/8 7/7/7 5/5/5
f 11/11/11 10/10/10 9/9/9
f 12/12/12 11/11/11 9/9/9
f 15/15/15 14/14/14 13/13/13
f 16/16/16 15/15/15 13/13/13
f 19/19/19 18/18/18 17/17/17
f 20/20/20 19/19/19 17/17/17
f 20/20/20 21/21/21 19/19/19
f 21/21/21 20/20/20 22/22/22
f 23/23/23 21/21/21 22/22/22
f 21/21/21 24/24/24 19/19/19
f 25/25/25 19/19/19 24/24/24
f 26/26/26 25/25/25 24/24/24
f 24/24/24 21/21/21 27/27/27
f 21/21/21 28/28/28 27/27/27
f 31/31/31 30/30/30 29/29/29
f 30/30/30 32/32/32 29/29/29
f 33/33/33 32/32/32 30/30/30
f 32/32/32 33/33/33 34/34/34
f 33/33/33 35/35/35 34/34/34
f 36/36/36 33/33/33 30/30/30
f 30/30/30 37/37/37 36/36/36
f 37/37/37 38/38/38 36/36/36
f 33/33/33 36/36/36 39/39/39
f 40/40/40 33/33/33 39/39/39
f 43/43/43 42/42/42 41/41/41
f 44/44/44 43/43/43 41/41/41
f 47/47/47 46/46/46 45/45/45
f 48/48/48 47/47/47 45/45/45
f 51/51/51 50/50/50 49/49/49
f 52/52/52 51/51/51 49/49/49
f 55/55/55 54/54/54 53/53/53
f 56/56/56 55/55/55 53/53/53
f 59/59/59 58/58/58 57/57/57
f 60/60/60 59/59/59 57/57/57
f 63/63/63 62/62/62 61/61/61
f 64/64/64 63/63/63 61/61/61
f 67/67/67 66/66/66 65/65/65
f 68/68/68 67/67/67 65/65/65
f 71/71/71 70/70/70 69/69/69
f 72/72/72 71/71/71 69/69/69
