g flatsteel_Simple_Corner_Slope
v -0.5 -0.500000596 -0.5
v 0.5 -0.500000596 -0.5
v 0.5 0.499999374 -0.5
v 0.5 -0.500000596 0.5
v 0.5 0.499999374 -0.5
v 0.5 -0.500000596 -0.5
v -0.5 -0.500000596 0.5
v -0.5 -0.500000596 -0.5
v 0.5 0.499999374 -0.5
v 0.5 -0.500000596 0.5
v -0.5 -0.500000596 0.5
v 0.5 0.499999374 -0.5
v -0.5 -0.500000596 -0.5
v -0.5 -0.500000596 0.5
v 0.5 -0.500000596 0.5
v 0.5 -0.500000596 -0.5
vt 0.650011361 0.549590468
vt 0.65001142 0.687026381
vt 0.787447393 0.687026441
vt 0.787447393 0.687026441
vt 0.65001148 0.549590588
vt 0.65001142 0.687026381
vt 0.650011539 0.824462295
vt 0.650011539 0.687026381
vt 0.455647707 0.687026381
vt 0.65001142 0.687026381
vt 0.650011539 0.824462295
vt 0.455647707 0.687026381
vt 0.65001142 0.824462235
vt 0.787447155 0.824462235
vt 0.787447155 0.687026262
vt 0.65001142 0.687026262
vn -0 0 -1
vn -0 0 -1
vn -0 0 -1
vn 1 0 0
vn 1 0 0
vn 1 0 0
vn -0.707064152 0.707149386 0.000160190903
vn -0.707150459 0.707063079 0
vn -0.707021534 0.707192063 0.000239302361
vn -0 0.707064271 0.707149267
vn -0.000155412461 0.707147598 0.70706588
vn -0.000232028324 0.707188725 0.707024753
vn -0 -1 0
vn -0 -1 0
vn -0 -1 0
vn -0 -1 0
g flatsteel_Simple_Corner_Slope_0
f 3/3/3 2/2/2 1/1/1
f 6/6/6 5/5/5 4/4/4
f 9/9/9 8/8/8 7/7/7
f 12/12/12 11/11/11 10/10/10
f 15/15/15 14/14/14 13/13/13
f 16/16/16 15/15/15 13/13/13
