g flatsteel_column_large_03
v 0.0692418441 0.33514452 0.259999931
v 0.0692418218 0.33514452 0.0692419037
v 0.0692416579 -0.5 0.069241941
v 0.0692419782 -0.5 0.259999961
v 0.0692418218 0.33514452 0.0692419037
v 0.259999871 0.335144579 0.0692419261
v 0.26000002 -0.5 0.0692419633
v 0.0692416579 -0.5 0.069241941
v 0.0999998674 0.375144541 0.0999999493
v 0.0999998748 0.33514452 0.0999999121
v 0.0999998674 0.33514452 0.259999931
v 0.099999845 0.375144392 0.299999923
v 0.099999845 0.375144392 0.299999923
v 0.0999998674 0.33514452 0.259999931
v 0.099999994 -0.5 0.259999961
v 0.0999999866 -0.5 0.299999952
v 0.300000012 -0.5 0.0999999791
v 0.26000002 -0.49999994 0.0999999717
v 0.259999871 0.335144579 0.0999999195
v 0.299999893 0.375144571 0.0999999717
v 0.299999893 0.375144571 0.0999999717
v 0.259999871 0.335144579 0.0999999195
v 0.0999998748 0.33514452 0.0999999121
v 0.0999998674 0.375144541 0.0999999493
v 0.0999998748 0.33514452 0.0999999121
v 0.0692418441 0.33514452 0.259999931
v 0.0999998674 0.33514452 0.259999931
v 0.0692418218 0.33514452 0.0692419037
v 0.259999871 0.335144579 0.0999999195
v 0.259999871 0.335144579 0.0692419261
v 0.0999998674 0.33514452 0.259999931
v 0.0692418441 0.33514452 0.259999931
v 0.0692419782 -0.5 0.259999961
v 0.099999994 -0.5 0.259999961
v 0.26000002 -0.49999994 0.0999999717
v 0.26000002 -0.5 0.0692419633
v 0.259999871 0.335144579 0.0692419261
v 0.259999871 0.335144579 0.0999999195
v -0.299999982 -0.500000119 0.0999999195
v -0.299999982 -0.50000006 -0.100000076
v -0.300000101 0.375144482 -0.100000046
v -0.300000101 0.375144482 0.0999999121
v -0.0692416206 -0.50000006 0.0692419335
v -0.0692420602 0.33514452 0.0692418963
v -0.0692421198 0.33514452 0.259999931
v -0.0692419782 -0.5 0.259999961
v -0.0692420602 0.33514452 0.0692418963
v -0.0692416206 -0.50000006 0.0692419335
v -0.259999961 -0.50000006 0.0692419112
v -0.26000011 0.33514449 0.0692418739
v -0.100000128 0.375144541 0.0999999344
v -0.100000151 0.375144392 0.299999923
v -0.100000128 0.33514452 0.259999931
v -0.100000121 0.33514452 0.0999998897
v -0.100000151 0.375144392 0.299999923
v -0.100000009 -0.5 0.299999952
v -0.099999994 -0.5 0.259999961
v -0.100000128 0.33514452 0.259999931
v -0.299999982 -0.500000119 0.0999999195
v -0.300000101 0.375144482 0.0999999121
v -0.26000011 0.33514449 0.0999998823
v -0.259999961 -0.50000006 0.0999999344
v -0.300000101 0.375144482 0.0999999121
v -0.100000128 0.375144541 0.0999999344
v -0.100000121 0.33514452 0.0999998897
v -0.26000011 0.33514449 0.0999998823
v -0.100000121 0.33514452 0.0999998897
v -0.100000128 0.33514452 0.259999931
v -0.0692421198 0.33514452 0.259999931
v -0.0692420602 0.33514452 0.0692418963
v -0.26000011 0.33514449 0.0999998823
v -0.26000011 0.33514449 0.0692418739
v -0.100000128 0.33514452 0.259999931
v -0.099999994 -0.5 0.259999961
v -0.0692419782 -0.5 0.259999961
v -0.0692421198 0.33514452 0.259999931
v -0.259999961 -0.50000006 0.0999999344
v -0.26000011 0.33514449 0.0999998823
v -0.26000011 0.33514449 0.0692418739
v -0.259999961 -0.50000006 0.0692419112
v -0.300000101 0.375144482 -0.100000046
v -0.100000113 0.375144541 -0.100000024
v -0.100000128 0.375144541 0.0999999344
v -0.300000101 0.375144482 0.0999999121
v 0.099999845 0.375144392 0.299999923
v 0.0999999866 -0.5 0.299999952
v -0.100000009 -0.5 0.299999952
v -0.100000151 0.375144392 0.299999923
v 0.0999998674 0.375144541 0.0999999493
v 0.099999845 0.375144392 0.299999923
v -0.100000151 0.375144392 0.299999923
v -0.100000128 0.375144541 0.0999999344
v 0.300000012 -0.49999994 -0.100000016
v 0.300000012 -0.5 0.0999999791
v 0.299999893 0.375144571 0.0999999717
v 0.299999893 0.375144571 -0.0999999866
v 0.0692416653 -0.5 -0.0692420155
v 0.0692418292 0.33514452 -0.0692419708
v 0.0692418888 0.33514452 -0.25999999
v 0.0692420304 -0.5 -0.26000002
v 0.0692418292 0.33514452 -0.0692419708
v 0.0692416653 -0.5 -0.0692420155
v 0.26000002 -0.5 -0.0692420006
v 0.259999871 0.335144579 -0.0692419484
v 0.0999998823 0.375144541 -0.100000009
v 0.0999999046 0.375144392 -0.299999982
v 0.0999999046 0.33514452 -0.25999999
v 0.0999998897 0.33514452 -0.0999999717
v 0.0999999046 0.375144392 -0.299999982
v 0.100000046 -0.5 -0.300000042
v 0.100000039 -0.5 -0.26000002
v 0.0999999046 0.33514452 -0.25999999
v 0.300000012 -0.49999994 -0.100000016
v 0.299999893 0.375144571 -0.0999999866
v 0.259999871 0.335144579 -0.0999999568
v 0.26000002 -0.49999994 -0.100000024
v 0.299999893 0.375144571 -0.0999999866
v 0.0999998823 0.375144541 -0.100000009
v 0.0999998897 0.33514452 -0.0999999717
v 0.259999871 0.335144579 -0.0999999568
v 0.0999998897 0.33514452 -0.0999999717
v 0.0999999046 0.33514452 -0.25999999
v 0.0692418888 0.33514452 -0.25999999
v 0.0692418292 0.33514452 -0.0692419708
v 0.259999871 0.335144579 -0.0999999568
v 0.259999871 0.335144579 -0.0692419484
v 0.0999999046 0.33514452 -0.25999999
v 0.100000039 -0.5 -0.26000002
v 0.0692420304 -0.5 -0.26000002
v 0.0692418888 0.33514452 -0.25999999
v 0.26000002 -0.49999994 -0.100000024
v 0.259999871 0.335144579 -0.0999999568
v 0.259999871 0.335144579 -0.0692419484
v 0.26000002 -0.5 -0.0692420006
v 0.299999893 0.375144571 0.0999999717
v 0.0999998674 0.375144541 0.0999999493
v 0.0999998823 0.375144541 -0.100000009
v 0.299999893 0.375144571 -0.0999999866
v -0.0692420676 0.33514452 -0.25999999
v -0.0692420527 0.33514452 -0.0692419782
v -0.0692416057 -0.5 -0.0692420304
v -0.0692419335 -0.5 -0.26000002
v -0.0692420527 0.33514452 -0.0692419782
v -0.26000011 0.33514449 -0.0692420006
v -0.259999961 -0.50000006 -0.0692420453
v -0.0692416057 -0.5 -0.0692420304
v -0.100000113 0.375144541 -0.100000024
v -0.100000106 0.33514452 -0.0999999866
v -0.100000091 0.33514452 -0.25999999
v -0.100000091 0.375144392 -0.299999982
v -0.100000091 0.375144392 -0.299999982
v -0.100000091 0.33514452 -0.25999999
v -0.0999999568 -0.5 -0.26000002
v -0.0999999493 -0.5 -0.300000042
v -0.299999982 -0.50000006 -0.100000076
v -0.259999961 -0.50000006 -0.100000061
v -0.26000011 0.33514449 -0.099999994
v -0.300000101 0.375144482 -0.100000046
v -0.300000101 0.375144482 -0.100000046
v -0.26000011 0.33514449 -0.099999994
v -0.100000106 0.33514452 -0.0999999866
v -0.100000113 0.375144541 -0.100000024
v -0.100000106 0.33514452 -0.0999999866
v -0.0692420676 0.33514452 -0.25999999
v -0.100000091 0.33514452 -0.25999999
v -0.0692420527 0.33514452 -0.0692419782
v -0.26000011 0.33514449 -0.099999994
v -0.26000011 0.33514449 -0.0692420006
v -0.100000091 0.33514452 -0.25999999
v -0.0692420676 0.33514452 -0.25999999
v -0.0692419335 -0.5 -0.26000002
v -0.0999999568 -0.5 -0.26000002
v -0.259999961 -0.50000006 -0.100000061
v -0.259999961 -0.50000006 -0.0692420453
v -0.26000011 0.33514449 -0.0692420006
v -0.26000011 0.33514449 -0.099999994
v -0.0999999493 -0.5 -0.300000042
v 0.100000046 -0.5 -0.300000042
v 0.0999999046 0.375144392 -0.299999982
v -0.100000091 0.375144392 -0.299999982
v -0.100000091 0.375144392 -0.299999982
v 0.0999999046 0.375144392 -0.299999982
v 0.0999998823 0.375144541 -0.100000009
v -0.100000113 0.375144541 -0.100000024
v -0.100000128 0.375144541 0.0999999344
v -0.100000113 0.375144541 -0.100000024
v 0.0999998823 0.375144541 -0.100000009
v 0.0999998674 0.375144541 0.0999999493
v -0.0894272998 0.375144452 0.0894269645
v -0.0894272998 0.41971454 0.0894269645
v 0.0894268751 0.41971454 0.0894269794
v 0.0894268751 0.375144452 0.0894269794
v 0.0894268751 0.375144452 0.0894269794
v 0.0894268751 0.41971454 0.0894269794
v 0.0894268975 0.41971454 -0.0894271955
v 0.0894268975 0.375144452 -0.0894271955
v 0.0894268975 0.375144452 -0.0894271955
v 0.0894268975 0.41971454 -0.0894271955
v -0.0894272774 0.41971454 -0.0894272104
v -0.0894272774 0.375144452 -0.0894272104
v -0.0894272774 0.375144452 -0.0894272104
v -0.0894272774 0.41971454 -0.0894272104
v -0.0894272998 0.41971454 0.0894269645
v -0.0894272998 0.375144452 0.0894269645
v -0.0716211721 0.41971454 0.0716208369
v -0.071621187 0.464989811 0.0716208294
v 0.0716207325 0.464989811 0.0716208369
v 0.0716207474 0.41971454 0.0716208443
v 0.0716207474 0.41971454 0.0716208443
v 0.0716207325 0.464989811 0.0716208369
v 0.07162074 0.464989811 -0.0716210753
v 0.0716207549 0.41971454 -0.0716210753
v 0.0716207549 0.41971454 -0.0716210753
v 0.07162074 0.464989811 -0.0716210753
v -0.0716211796 0.464989811 -0.0716210902
v -0.0716211647 0.41971454 -0.0716210827
v -0.0716211647 0.41971454 -0.0716210827
v -0.0716211796 0.464989811 -0.0716210902
v -0.071621187 0.464989811 0.0716208294
v -0.0716211721 0.41971454 0.0716208369
v -0.166196093 0.464989752 0.166195735
v -0.166196108 0.499999851 0.16619572
v 0.166195616 0.499999911 0.16619575
v 0.166195631 0.464989841 0.166195765
v 0.166195631 0.464989841 0.166195765
v 0.166195616 0.499999911 0.16619575
v 0.166195661 0.499999911 -0.166195974
v 0.166195676 0.464989841 -0.166195959
v 0.166195676 0.464989841 -0.166195959
v 0.166195661 0.499999911 -0.166195974
v -0.166196078 0.499999851 -0.166196018
v -0.166196063 0.464989752 -0.166196004
v -0.166196063 0.464989752 -0.166196004
v -0.166196078 0.499999851 -0.166196018
v -0.166196108 0.499999851 0.16619572
v -0.166196093 0.464989752 0.166195735
v 0.166195661 0.499999911 -0.166195974
v 0.166195616 0.499999911 0.16619575
v -0.166196108 0.499999851 0.16619572
v -0.166196078 0.499999851 -0.166196018
v 0.07162074 0.464989811 -0.0716210753
v -0.166196063 0.464989752 -0.166196004
v -0.0716211796 0.464989811 -0.0716210902
v 0.166195676 0.464989841 -0.166195959
v -0.166196093 0.464989752 0.166195735
v 0.0716207325 0.464989811 0.0716208369
v -0.071621187 0.464989811 0.0716208294
v 0.166195631 0.464989841 0.166195765
v 0.0894268975 0.41971454 -0.0894271955
v -0.0716211647 0.41971454 -0.0716210827
v -0.0894272774 0.41971454 -0.0894272104
v 0.0716207549 0.41971454 -0.0716210753
v -0.0716211721 0.41971454 0.0716208369
v 0.0894268751 0.41971454 0.0894269794
v -0.0894272998 0.41971454 0.0894269645
v 0.0716207474 0.41971454 0.0716208443
vt 0.635034382 0.21598123
vt 0.650019228 0.21598123
vt 0.650019228 0.140570834
vt 0.635034382 0.140570834
vt 0.650019228 0.21598123
vt 0.665003359 0.21598123
vt 0.665003359 0.140570834
vt 0.650019228 0.140570834
vt 0.424493343 0.574522376
vt 0.424493343 0.566946566
vt 0.394189864 0.566946566
vt 0.386613995 0.574522376
vt 0.386613995 0.574522376
vt 0.394189864 0.566946566
vt 0.394189954 0.385125428
vt 0.386614084 0.385125428
vt 0.348734736 0.385125399
vt 0.341158867 0.385125399
vt 0.341158718 0.566946626
vt 0.348734647 0.574522495
vt 0.348734647 0.574522495
vt 0.341158718 0.566946626
vt 0.31085518 0.566946685
vt 0.31085518 0.574522555
vt 0.533832014 0.00888792798
vt 0.539657414 0.0391914658
vt 0.533832014 0.0391914658
vt 0.539657414 0.00306246802
vt 0.503528357 0.00888792798
vt 0.503528357 0.00306246802
vt 0.533832014 0.0391914658
vt 0.539657414 0.0391914658
vt 0.539657295 0.221012905
vt 0.533831775 0.221012905
vt 0.533832014 0.0391914658
vt 0.539657295 0.0391914658
vt 0.539657176 0.22101368
vt 0.533831775 0.22101368
vt 0.386614084 0.385125428
vt 0.348734736 0.385125399
vt 0.348734647 0.574522495
vt 0.386613995 0.574522495
vt 0.650019228 0.140570834
vt 0.650019228 0.21598123
vt 0.665003359 0.21598123
vt 0.665003359 0.140570834
vt 0.650019228 0.21598123
vt 0.650019228 0.140570834
vt 0.635034382 0.140570834
vt 0.635034382 0.21598123
vt 0.31085518 0.574522555
vt 0.348734587 0.574522376
vt 0.341158718 0.566946626
vt 0.31085518 0.566946685
vt 0.348734587 0.574522376
vt 0.348734677 0.385125399
vt 0.341158748 0.385125399
vt 0.341158718 0.566946626
vt 0.386614084 0.385125428
vt 0.386613995 0.574522495
vt 0.394189864 0.566946626
vt 0.394189954 0.385125428
vt 0.386613995 0.574522495
vt 0.424493343 0.574522495
vt 0.424493343 0.566946626
vt 0.394189864 0.566946626
vt 0.533832014 0.00888798758
vt 0.503528476 0.00888798758
vt 0.503528476 0.00306252763
vt 0.539657414 0.00306252763
vt 0.533832014 0.0391915254
vt 0.539657414 0.0391915254
vt 0.533831775 0.22101368
vt 0.533832014 0.0391914658
vt 0.539657295 0.0391914658
vt 0.539657176 0.22101368
vt 0.533831775 0.221012905
vt 0.533832014 0.0391915254
vt 0.539657414 0.0391915254
vt 0.539657295 0.221012905
vt 0.386613995 0.574522495
vt 0.348734647 0.574522316
vt 0.348734647 0.611125529
vt 0.386613995 0.611125708
vt 0.386613995 0.574522376
vt 0.386614084 0.385125428
vt 0.348734677 0.385125399
vt 0.348734587 0.574522376
vt 0.386613995 0.611125708
vt 0.386613995 0.574522614
vt 0.348734528 0.574522436
vt 0.348734528 0.611125529
vt 0.386614084 0.385125428
vt 0.348734736 0.385125399
vt 0.348734647 0.574522495
vt 0.386613995 0.574522495
vt 0.650019228 0.140570834
vt 0.650019228 0.21598123
vt 0.665003359 0.21598123
vt 0.665003359 0.140570834
vt 0.650019228 0.21598123
vt 0.650019228 0.140570834
vt 0.635034382 0.140570834
vt 0.635034382 0.21598123
vt 0.31085518 0.574522555
vt 0.348734587 0.574522495
vt 0.341158718 0.566946626
vt 0.31085518 0.566946685
vt 0.348734587 0.574522495
vt 0.348734677 0.385125399
vt 0.341158748 0.385125399
vt 0.341158718 0.566946626
vt 0.386614084 0.385125428
vt 0.386613995 0.574522495
vt 0.394189864 0.566946626
vt 0.394189954 0.385125428
vt 0.386613995 0.574522495
vt 0.424493402 0.574522495
vt 0.424493402 0.566946626
vt 0.394189864 0.566946626
vt 0.533832014 0.00888673589
vt 0.503528476 0.00888673589
vt 0.503528476 0.00306121632
vt 0.539657414 0.00306121632
vt 0.533832014 0.0391902737
vt 0.539657414 0.0391902737
vt 0.533831775 0.22101368
vt 0.533832014 0.0391914658
vt 0.539657295 0.0391914658
vt 0.539657176 0.22101368
vt 0.533831775 0.221012905
vt 0.533832014 0.0391902737
vt 0.539657414 0.0391902737
vt 0.539657295 0.221012905
vt 0.348734528 0.574522436
vt 0.348734647 0.611125648
vt 0.386613995 0.611125708
vt 0.386613995 0.574522614
vt 0.635034382 0.21598123
vt 0.650019228 0.21598123
vt 0.650019228 0.140570834
vt 0.635034382 0.140570834
vt 0.650019228 0.21598123
vt 0.665003359 0.21598123
vt 0.665003359 0.140570834
vt 0.650019228 0.140570834
vt 0.424493343 0.574522495
vt 0.424493343 0.566946626
vt 0.394189805 0.566946626
vt 0.386613995 0.574522495
vt 0.386613995 0.574522495
vt 0.394189805 0.566946626
vt 0.394189894 0.385125488
vt 0.386614084 0.385125428
vt 0.348734736 0.385125399
vt 0.341158748 0.385125399
vt 0.341158718 0.566946626
vt 0.348734647 0.574522495
vt 0.348734647 0.574522495
vt 0.341158718 0.566946626
vt 0.31085518 0.566946685
vt 0.31085518 0.574522555
vt 0.533832014 0.00888715312
vt 0.539657414 0.039190691
vt 0.533832014 0.039190691
vt 0.539657414 0.00306163356
vt 0.503528476 0.00888715312
vt 0.503528476 0.00306163356
vt 0.533832014 0.039190691
vt 0.539657414 0.039190691
vt 0.539657295 0.221012905
vt 0.533831775 0.221012905
vt 0.533832014 0.0391914658
vt 0.539657295 0.0391914658
vt 0.539657176 0.22101368
vt 0.533831775 0.22101368
vt 0.386614084 0.385125428
vt 0.348734677 0.385125399
vt 0.348734587 0.574522495
vt 0.386613995 0.574522495
vt 0.386613876 0.574522614
vt 0.348734528 0.574522436
vt 0.348734528 0.611125648
vt 0.386613876 0.611125827
vt 0.348734587 0.574522495
vt 0.348734587 0.611125648
vt 0.386613876 0.611125827
vt 0.386613876 0.574522674
vt 0.507883549 0.249485567
vt 0.498505443 0.249485567
vt 0.498505443 0.287118644
vt 0.507883549 0.287118644
vt 0.507883549 0.249485567
vt 0.498505443 0.249485567
vt 0.498505443 0.287118644
vt 0.507883549 0.287118644
vt 0.507883549 0.249485567
vt 0.498505443 0.249485567
vt 0.498505443 0.287118644
vt 0.507883549 0.287118644
vt 0.507883549 0.249485567
vt 0.498505443 0.249485567
vt 0.498505443 0.287118644
vt 0.507883549 0.287118644
vt 0.525051236 0.253563911
vt 0.515524745 0.253563911
vt 0.515524745 0.283703715
vt 0.525051236 0.283703715
vt 0.525051236 0.253563911
vt 0.515524745 0.253563911
vt 0.515524745 0.283703715
vt 0.525051236 0.283703715
vt 0.525051236 0.253563911
vt 0.515524745 0.253563911
vt 0.515524745 0.283703715
vt 0.525051236 0.283703715
vt 0.525051236 0.253563911
vt 0.515524745 0.253563911
vt 0.515524745 0.283703715
vt 0.525051236 0.283703715
vt 0.410545647 0.279446036
vt 0.410545647 0.286812574
vt 0.480484813 0.286812574
vt 0.480484813 0.279446036
vt 0.480484813 0.279446036
vt 0.487851232 0.279446036
vt 0.487851232 0.209506765
vt 0.480484694 0.209506765
vt 0.480484694 0.209506765
vt 0.480484694 0.202140227
vt 0.410545647 0.202140227
vt 0.410545647 0.209506765
vt 0.410545647 0.209506765
vt 0.403179079 0.209506765
vt 0.403179079 0.279446036
vt 0.410545647 0.279446036
vt 0.751789093 0.422399133
vt 0.751789033 0.352459908
vt 0.681849957 0.352459908
vt 0.681849897 0.422399133
vt 0.460584968 0.229406431
vt 0.410545647 0.209506765
vt 0.430445284 0.229406431
vt 0.480484694 0.209506765
vt 0.410545647 0.279446036
vt 0.460584968 0.25954631
vt 0.430445284 0.25954631
vt 0.480484813 0.279446036
vt 0.491541475 0.240014806
vt 0.495288104 0.206128374
vt 0.491541475 0.202381745
vt 0.495288104 0.236268178
vt 0.525428057 0.206128374
vt 0.529174685 0.240014806
vt 0.529174685 0.202381745
vt 0.525428057 0.236268178
vn 1 0 -8.99890665E-07
vn 1 0 -8.99890665E-07
vn 1 0 -8.99890665E-07
vn 1 0 -8.99890665E-07
vn -0 0 1
vn -0 0 1
vn -0 0 1
vn -0 0 1
vn 1 2.54318536E-07 0
vn 1 2.54318536E-07 0
vn 1 2.54318536E-07 0
vn 1 2.54318536E-07 0
vn 1 1.63693372E-07 2.43994691E-07
vn 1 1.63693372E-07 2.43994691E-07
vn 1 1.63693372E-07 2.43994691E-07
vn 1 1.63693386E-07 2.43994691E-07
vn -7.31984073E-07 0 1
vn -7.31984187E-07 0 1
vn -7.3198413E-07 0 1
vn -7.3198413E-07 0 1
vn -0 -1.03314721E-06 1
vn -0 -1.03314721E-06 1
vn -0 -1.03314721E-06 1
vn -0 -1.03314721E-06 1
vn 1.74845567E-07 -1 0
vn 1.74845567E-07 -1 0
vn 1.74845567E-07 -1 0
vn 1.74845567E-07 -1 0
vn 1.74845567E-07 -1 0
vn 1.74845567E-07 -1 0
vn -0 0 -1
vn -0 0 -1
vn -0 0 -1
vn -0 0 -1
vn -1 -1.52007019E-07 0
vn -1 -1.52007019E-07 0
vn -1 -1.52007019E-07 0
vn -1 -1.52007019E-07 0
vn -1 -1.53050891E-07 0
vn -1 -1.53050891E-07 0
vn -1 -1.53050891E-07 0
vn -1 -1.53050891E-07 0
vn -1 -3.46134726E-07 -1.09986638E-06
vn -1 -3.46134726E-07 -1.09986638E-06
vn -1 -3.46134726E-07 -1.09986638E-06
vn -1 -3.46134726E-07 -1.09986638E-06
vn -0 0 1
vn -0 0 1
vn -0 0 1
vn -0 0 1
vn -1 -2.54318536E-07 0
vn -1 -2.54318536E-07 0
vn -1 -2.54318536E-07 0
vn -1 -2.54318536E-07 0
vn -1 -1.63693372E-07 -2.43994691E-07
vn -1 -1.63693386E-07 -2.43994691E-07
vn -1 -1.63693372E-07 -2.43994691E-07
vn -1 -1.63693372E-07 -2.43994691E-07
vn 2.5514683E-07 0 1
vn 2.5514683E-07 0 1
vn 2.5514683E-07 0 1
vn 2.5514683E-07 0 1
vn -0 -8.74201532E-07 1
vn -0 -8.74201532E-07 1
vn -0 -8.74201532E-07 1
vn -0 -8.74201532E-07 1
vn 1.74845567E-07 -1 0
vn 1.74845567E-07 -1 0
vn 1.74845567E-07 -1 0
vn 1.74845567E-07 -1 0
vn 1.74845567E-07 -1 0
vn 1.74845567E-07 -1 0
vn -0 0 -1
vn -0 0 -1
vn -0 0 -1
vn -0 0 -1
vn 1 1.52007019E-07 0
vn 1 1.52007019E-07 0
vn 1 1.52007019E-07 0
vn 1 1.52007019E-07 0
vn -1.74845567E-07 1 0
vn -1.74845567E-07 1 0
vn -1.74845567E-07 1 0
vn -1.74845567E-07 1 0
vn -0 0 1
vn -0 0 1
vn -0 0 1
vn -0 0 1
vn -1.74845596E-07 1 3.81469761E-07
vn -1.7484561E-07 1 7.62939521E-07
vn -1.7484561E-07 1 7.62939521E-07
vn -1.74845596E-07 1 3.81469761E-07
vn 1 1.53050891E-07 0
vn 1 1.53050891E-07 0
vn 1 1.53050891E-07 0
vn 1 1.53050891E-07 0
vn 1 0 1.09986649E-06
vn 1 0 1.09986649E-06
vn 1 0 1.09986649E-06
vn 1 0 1.09986649E-06
vn -0 0 -1
vn -0 0 -1
vn -0 0 -1
vn -0 0 -1
vn 1 0 0
vn 1 0 0
vn 1 0 0
vn 1 0 0
vn 1 1.63693372E-07 2.32842552E-07
vn 1 1.63693372E-07 2.32842538E-07
vn 1 1.63693372E-07 2.32842552E-07
vn 1 1.63693372E-07 2.32842538E-07
vn -2.66299054E-07 0 -1
vn -2.66299054E-07 0 -1
vn -2.66299054E-07 0 -1
vn -2.66299054E-07 0 -1
vn -0 -8.74201532E-07 -1
vn -0 -8.74201532E-07 -1
vn -0 -8.74201532E-07 -1
vn -0 -8.74201532E-07 -1
vn 1.74845567E-07 -1 0
vn 1.74845567E-07 -1 0
vn 1.74845567E-07 -1 0
vn 1.74845567E-07 -1 0
vn 1.74845567E-07 -1 0
vn 1.74845567E-07 -1 0
vn -0 0 1
vn -0 0 1
vn -0 0 1
vn -0 0 1
vn -1 -1.52007019E-07 0
vn -1 -1.52007019E-07 0
vn -1 -1.52007019E-07 0
vn -1 -1.52007019E-07 0
vn -1.74845567E-07 1 0
vn -1.74845567E-07 1 0
vn -1.74845567E-07 1 0
vn -1.74845567E-07 1 0
vn -1 -3.46134698E-07 8.99890665E-07
vn -1 -3.46134726E-07 8.99890665E-07
vn -1 -3.46134726E-07 8.99890665E-07
vn -1 -3.46134698E-07 8.99890665E-07
vn -0 0 -1
vn -0 0 -1
vn -0 0 -1
vn -0 0 -1
vn -1 0 0
vn -1 0 0
vn -1 0 0
vn -1 0 0
vn -1 -1.63693372E-07 -2.32842552E-07
vn -1 -1.63693372E-07 -2.32842538E-07
vn -1 -1.63693372E-07 -2.32842552E-07
vn -1 -1.63693372E-07 -2.32842538E-07
vn 7.43136184E-07 0 -1
vn 7.43136184E-07 0 -1
vn 7.43136184E-07 0 -1
vn 7.43136184E-07 0 -1
vn -0 -1.03314721E-06 -1
vn -0 -1.03314721E-06 -1
vn -0 -1.03314721E-06 -1
vn -0 -1.03314721E-06 -1
vn 1.74845567E-07 -1 0
vn 1.74845567E-07 -1 0
vn 1.74845567E-07 -1 0
vn 1.74845567E-07 -1 0
vn 1.74845567E-07 -1 0
vn 1.74845567E-07 -1 0
vn -0 0 1
vn -0 0 1
vn -0 0 1
vn -0 0 1
vn 1 1.52007019E-07 0
vn 1 1.52007019E-07 0
vn 1 1.52007019E-07 0
vn 1 1.52007019E-07 0
vn -0 0 -1
vn -0 0 -1
vn -0 0 -1
vn -0 0 -1
vn -1.74845539E-07 1 -7.62939521E-07
vn -1.74845539E-07 1 -7.62939521E-07
vn -1.74845553E-07 1 -3.81469761E-07
vn -1.74845553E-07 1 -3.81469761E-07
vn -1.74845596E-07 1 3.81469761E-07
vn -1.74845553E-07 1 -3.81469761E-07
vn -1.74845553E-07 1 -3.81469761E-07
vn -1.74845596E-07 1 3.81469761E-07
vn -1.06642695E-07 0 1
vn -1.06642695E-07 0 1
vn -1.06642695E-07 0 1
vn -1.06642695E-07 0 1
vn 1 1.74845567E-07 1.06642695E-07
vn 1 1.74845567E-07 1.06642695E-07
vn 1 1.74845567E-07 1.06642695E-07
vn 1 1.74845567E-07 1.06642695E-07
vn 1.06642695E-07 0 -1
vn 1.06642695E-07 0 -1
vn 1.06642695E-07 0 -1
vn 1.06642695E-07 0 -1
vn -1 -1.74845567E-07 -1.06642695E-07
vn -1 -1.74845567E-07 -1.06642695E-07
vn -1 -1.74845567E-07 -1.06642695E-07
vn -1 -1.74845567E-07 -1.06642695E-07
vn -0 1.05319558E-07 1
vn -0 1.0531955E-07 1
vn -0 1.05319558E-07 1
vn -0 1.0531955E-07 1
vn 1 2.80165125E-07 0
vn 1 2.80165153E-07 0
vn 1 2.80165125E-07 0
vn 1 2.80165153E-07 0
vn -0 -1.0531955E-07 -1
vn -0 -1.05319558E-07 -1
vn -0 -1.0531955E-07 -1
vn -0 -1.05319558E-07 -1
vn -1 -2.80165153E-07 0
vn -1 -2.80165125E-07 0
vn -1 -2.80165153E-07 0
vn -1 -2.80165125E-07 0
vn -1.14765228E-07 5.44800002E-07 1
vn -1.14765228E-07 5.44800002E-07 1
vn -1.14765228E-07 5.44800002E-07 1
vn -1.14765228E-07 5.44800002E-07 1
vn 1 7.19645641E-07 1.14765136E-07
vn 1 7.19645641E-07 1.14765136E-07
vn 1 7.19645641E-07 1.14765136E-07
vn 1 7.19645641E-07 1.14765136E-07
vn 1.14765228E-07 -5.44800002E-07 -1
vn 1.14765228E-07 -5.44800002E-07 -1
vn 1.14765228E-07 -5.44800002E-07 -1
vn 1.14765228E-07 -5.44800002E-07 -1
vn -1 -7.19645641E-07 -1.14765136E-07
vn -1 -7.19645641E-07 -1.14765136E-07
vn -1 -7.19645641E-07 -1.14765136E-07
vn -1 -7.19645641E-07 -1.14765136E-07
vn -1.74845567E-07 1 0
vn -1.74845567E-07 1 0
vn -1.74845567E-07 1 0
vn -1.74845567E-07 1 0
vn 1.74845567E-07 -1 0
vn 1.74845567E-07 -1 0
vn 1.74845567E-07 -1 0
vn 1.74845567E-07 -1 0
vn 1.74845567E-07 -1 0
vn 1.74845567E-07 -1 0
vn 1.74845567E-07 -1 0
vn 1.74845567E-07 -1 0
vn -1.74845567E-07 1 0
vn -1.74845567E-07 1 0
vn -1.74845567E-07 1 0
vn -1.74845567E-07 1 0
vn -1.74845567E-07 1 0
vn -1.74845567E-07 1 0
vn -1.74845567E-07 1 0
vn -1.74845567E-07 1 0
g flatsteel_column_large_03_0
f 3/3/3 2/2/2 1/1/1
f 4/4/4 3/3/3 1/1/1
f 7/7/7 6/6/6 5/5/5
f 8/8/8 7/7/7 5/5/5
f 11/11/11 10/10/10 9/9/9
f 12/12/12 11/11/11 9/9/9
f 15/15/15 14/14/14 13/13/13
f 16/16/16 15/15/15 13/13/13
f 19/19/19 18/18/18 17/17/17
f 20/20/20 19/19/19 17/17/17
f 23/23/23 22/22/22 21/21/21
f 24/24/24 23/23/23 21/21/21
f 27/27/27 26/26/26 25/25/25
f 26/26/26 28/28/28 25/25/25
f 25/25/25 28/28/28 29/29/29
f 28/28/28 30/30/30 29/29/29
f 33/33/33 32/32/32 31/31/31
f 34/34/34 33/33/33 31/31/31
f 37/37/37 36/36/36 35/35/35
f 38/38/38 37/37/37 35/35/35
f 41/41/41 40/40/40 39/39/39
f 42/42/42 41/41/41 39/39/39
f 45/45/45 44/44/44 43/43/43
f 46/46/46 45/45/45 43/43/43
f 49/49/49 48/48/48 47/47/47
f 50/50/50 49/49/49 47/47/47
f 53/53/53 52/52/52 51/51/51
f 54/54/54 53/53/53 51/51/51
f 57/57/57 56/56/56 55/55/55
f 58/58/58 57/57/57 55/55/55
f 61/61/61 60/60/60 59/59/59
f 62/62/62 61/61/61 59/59/59
f 65/65/65 64/64/64 63/63/63
f 66/66/66 65/65/65 63/63/63
f 69/69/69 68/68/68 67/67/67
f 70/70/70 69/69/69 67/67/67
f 70/70/70 67/67/67 71/71/71
f 72/72/72 70/70/70 71/71/71
f 75/75/75 74/74/74 73/73/73
f 76/76/76 75/75/75 73/73/73
f 79/79/79 78/78/78 77/77/77
f 80/80/80 79/79/79 77/77/77
f 83/83/83 82/82/82 81/81/81
f 84/84/84 83/83/83 81/81/81
f 87/87/87 86/86/86 85/85/85
f 88/88/88 87/87/87 85/85/85
f 91/91/91 90/90/90 89/89/89
f 92/92/92 91/91/91 89/89/89
f 95/95/95 94/94/94 93/93/93
f 96/96/96 95/95/95 93/93/93
f 99/99/99 98/98/98 97/97/97
f 100/100/100 99/99/99 97/97/97
f 103/103/103 102/102/102 101/101/101
f 104/104/104 103/103/103 101/101/101
f 107/107/107 106/106/106 105/105/105
f 108/108/108 107/107/107 105/105/105
f 111/111/111 110/110/110 109/109/109
f 112/112/112 111/111/111 109/109/109
f 115/115/115 114/114/114 113/113/113
f 116/116/116 115/115/115 113/113/113
f 119/119/119 118/118/118 117/117/117
f 120/120/120 119/119/119 117/117/117
f 123/123/123 122/122/122 121/121/121
f 124/124/124 123/123/123 121/121/121
f 124/124/124 121/121/121 125/125/125
f 126/126/126 124/124/124 125/125/125
f 129/129/129 128/128/128 127/127/127
f 130/130/130 129/129/129 127/127/127
f 133/133/133 132/132/132 131/131/131
f 134/134/134 133/133/133 131/131/131
f 137/137/137 136/136/136 135/135/135
f 138/138/138 137/137/137 135/135/135
f 141/141/141 140/140/140 139/139/139
f 142/142/142 141/141/141 139/139/139
f 145/145/145 144/144/144 143/143/143
f 146/146/146 145/145/145 143/143/143
f 149/149/149 148/148/148 147/147/147
f 150/150/150 149/149/149 147/147/147
f 153/153/153 152/152/152 151/151/151
f 154/154/154 153/153/153 151/151/151
f 157/157/157 156/156/156 155/155/155
f 158/158/158 157/157/157 155/155/155
f 161/161/161 160/160/160 159/159/159
f 162/162/162 161/161/161 159/159/159
f 165/165/165 164/164/164 163/163/163
f 164/164/164 166/166/166 163/163/163
f 163/163/163 166/166/166 167/167/167
f 166/166/166 168/168/168 167/167/167
f 171/171/171 170/170/170 169/169/169
f 172/172/172 171/171/171 169/169/169
f 175/175/175 174/174/174 173/173/173
f 176/176/176 175/175/175 173/173/173
f 179/179/179 178/178/178 177/177/177
f 180/180/180 179/179/179 177/177/177
f 183/183/183 182/182/182 181/181/181
f 184/184/184 183/183/183 181/181/181
f 187/187/187 186/186/186 185/185/185
f 188/188/188 187/187/187 185/185/185
f 191/191/191 190/190/190 189/189/189
f 192/192/192 191/191/191 189/189/189
f 195/195/195 194/194/194 193/193/193
f 196/196/196 195/195/195 193/193/193
f 199/199/199 198/198/198 197/197/197
f 200/200/200 199/199/199 197/197/197
f 203/203/203 202/202/202 201/201/201
f 204/204/204 203/203/203 201/201/201
f 207/207/207 206/206/206 205/205/205
f 208/208/208 207/207/207 205/205/205
f 211/211/211 210/210/210 209/209/209
f 212/212/212 211/211/211 209/209/209
f 215/215/215 214/214/214 213/213/213
f 216/216/216 215/215/215 213/213/213
f 219/219/219 218/218/218 217/217/217
f 220/220/220 219/219/219 217/217/217
f 223/223/223 222/222/222 221/221/221
f 224/224/224 223/223/223 221/221/221
f 227/227/227 226/226/226 225/225/225
f 228/228/228 227/227/227 225/225/225
f 231/231/231 230/230/230 229/229/229
f 232/232/232 231/231/231 229/229/229
f 235/235/235 234/234/234 233/233/233
f 236/236/236 235/235/235 233/233/233
f 239/239/239 238/238/238 237/237/237
f 240/240/240 239/239/239 237/237/237
f 243/243/243 242/242/242 241/241/241
f 242/242/242 244/244/244 241/241/241
f 245/245/245 242/242/242 243/243/243
f 241/241/241 244/244/244 246/246/246
f 247/247/247 245/245/245 243/243/243
f 244/244/244 248/248/248 246/246/246
f 248/248/248 245/245/245 247/247/247
f 246/246/246 248/248/248 247/247/247
f 251/251/251 250/250/250 249/249/249
f 250/250/250 252/252/252 249/249/249
f 253/253/253 250/250/250 251/251/251
f 249/249/249 252/252/252 254/254/254
f 255/255/255 253/253/253 251/251/251
f 252/252/252 256/256/256 254/254/254
f 256/256/256 253/253/253 255/255/255
f 254/254/254 256/256/256 255/255/255
