g flatsteel_SimpleSlopePoint_Corner
v -0.5 0.124991 -0.124995
v -0.125001 0.124992 -0.124996
v -0.5 0.499997 -0.5
v -0.125001 0.124992 -0.124996
v -0.125001 0.124992 -0.5
v -0.5 0.499997 -0.5
v -0.5 0.499997 -0.5
v -0.125001 0.124992 -0.5
v 0.124996 0.12499 -0.5
v 0.5 0.499997 -0.5
v -0.5 0.499997 0.5
v -0.5 0.12499 0.124995
v -0.5 0.124991 -0.124995
v -0.5 0.499997 -0.5
v -0.5 0.499997 0.5
v -0.5 0.499997 -0.5
v 0.5 0.499997 -0.5
v 0.5 0.499997 0.5
v 0.5 0.499997 -0.5
v 0.124996 0.12499 -0.5
v 0.124999 0.124993 0.124998
v 0.5 0.499997 0.5
v -0.5 0.499997 0.5
v 0.5 0.499997 0.5
v 0.124999 0.124993 0.124998
v -0.5 0.12499 0.124995
v -0.5 0.124991 -0.124995
v -0.5 0.12499 0.124995
v -0.5 0.0427044 0.124998
v -0.5 0.0427044 -0.124995
v -0.125001 0.124992 -0.5
v -0.125002 0.0427045 -0.500001
v 0.124997 0.0427045 -0.500001
v 0.124996 0.12499 -0.5
v 0.124999 0.124993 0.124998
v 0.124996 0.12499 -0.5
v 0.124997 0.0427045 -0.500001
v 0.124997 0.0427044 0.124998
v -0.125002 0.0427045 -0.500001
v 0.124997 0.0427044 0.124998
v 0.124997 0.0427045 -0.500001
v -0.125002 0.0427044 -0.124995
v -0.5 0.0427044 0.124998
v -0.5 0.0427044 -0.124995
v -0.125001 0.124992 -0.5
v -0.125001 0.124992 -0.124996
v -0.125002 0.0427044 -0.124995
v -0.125002 0.0427045 -0.500001
v -0.125001 0.124992 -0.124996
v -0.5 0.124991 -0.124995
v -0.5 0.0427044 -0.124995
v -0.125002 0.0427044 -0.124995
v 0.124997 0.0427044 0.124998
v -0.5 0.0427044 0.124998
v -0.5 0.12499 0.124995
v 0.124999 0.124993 0.124998
vt 0.447727978 0.691704214
vt 0.418166935 0.733922124
vt 0.507433832 0.733510852
vt 0.418166935 0.733922124
vt 0.448116601 0.775865912
vt 0.507433832 0.733510852
vt 0.648997903 0.834580481
vt 0.70053637 0.886119187
vt 0.734894753 0.886120021
vt 0.786434114 0.834580362
vt 0.648998141 0.834580481
vt 0.700537443 0.886120021
vt 0.734894753 0.886119545
vt 0.786434114 0.834580362
vt 0.787447155 0.824462354
vt 0.787447155 0.687026381
vt 0.65001142 0.687026381
vt 0.65001142 0.824462354
vt 0.854073405 0.585985482
vt 0.854073405 0.658873022
vt 0.768176079 0.65887183
vt 0.716637492 0.585985482
vt 0.854073405 0.585985482
vt 0.716637492 0.585985482
vt 0.768175721 0.658872068
vt 0.854073286 0.658873141
vt 0.428204954 0.676576793
vt 0.463306129 0.676576674
vt 0.463306487 0.66502291
vt 0.428204954 0.66502291
vt 0.363996506 0.612369478
vt 0.375550389 0.612369597
vt 0.375550389 0.577267349
vt 0.363996744 0.577267349
vt 0.463306367 0.565713227
vt 0.375550389 0.565713704
vt 0.375550389 0.577267349
vt 0.463306367 0.57726723
vt 0.375550389 0.612369597
vt 0.463306367 0.57726723
vt 0.375550389 0.577267349
vt 0.428204834 0.612369597
vt 0.463306487 0.66502291
vt 0.428204954 0.66502291
vt 0.503388345 0.679264128
vt 0.503388226 0.626609862
vt 0.491834104 0.626609862
vt 0.491834223 0.679264128
vt 0.503388107 0.679263175
vt 0.503387868 0.626609743
vt 0.491834104 0.626609862
vt 0.491834342 0.679263175
vt 0.463306367 0.57726723
vt 0.463306487 0.66502291
vt 0.474860251 0.66502291
vt 0.47486037 0.577266991
vn 6.90714e-06 -0.707107 -0.707107
vn -9.64989e-06 -0.707111 -0.707102
vn 7.93184e-06 -0.707106 -0.707107
vn -0.707095 -0.707119 -2.41001e-05
vn -0.707107 -0.707106 1.15875e-05
vn -0.707107 -0.707106 1.15746e-05
vn 0 0 -1
vn -4.63882e-07 0 -1
vn 0 0 -1
vn 0 0 -1
vn -1 1.06027e-07 0
vn -1 1.04169e-06 0
vn -1 0 0
vn -1 0 0
vn -2.23546e-06 1 -2.22126e-06
vn 0 1 0
vn -2.3696e-06 1 -2.38971e-06
vn 0 1 0
vn 0.70712 -0.707094 -7.79682e-06
vn 0.707107 -0.707107 -2.27499e-05
vn 0.707119 -0.707094 -5.28727e-07
vn 0.707128 -0.707086 -2.68114e-06
vn -7.35674e-06 -0.707094 0.707119
vn -1.59174e-06 -0.707087 0.707126
vn 5.97736e-07 -0.707095 0.707119
vn -2.5915e-05 -0.707106 0.707107
vn -1 0 0
vn -1 0 0
vn -1 0 0
vn -1 0 0
vn 0 3.70869e-06 -1
vn 0 3.70869e-06 -1
vn 0 3.70869e-06 -1
vn 0 3.70869e-06 -1
vn 1 -7.41734e-06 -1.95311e-06
vn 1 -7.41734e-06 -1.95311e-06
vn 1 -7.41734e-06 -1.95311e-06
vn 1 -7.41734e-06 -1.95311e-06
vn 0 -1 -1.52587e-07
vn 0 -1 -1.52587e-07
vn 0 -1 -1.52587e-07
vn 0 -1 -1.52587e-07
vn 0 -1 -1.52592e-07
vn 0 -1 -1.52592e-07
vn -1 7.41729e-06 0
vn -1 7.41729e-06 0
vn -1 7.41729e-06 0
vn -1 7.41729e-06 0
vn -8.13803e-07 -1.85433e-06 -1
vn -8.13803e-07 -1.85433e-06 -1
vn -8.13804e-07 -1.85433e-06 -1
vn -8.13803e-07 -1.85433e-06 -1
vn -2.44145e-06 1.48347e-05 1
vn -2.44145e-06 1.48347e-05 1
vn -2.44145e-06 1.48347e-05 1
vn -2.44145e-06 1.48347e-05 1
g flatsteel_SimpleSlopePoint_Corner_0
f 3/3/3 2/2/2 1/1/1
f 6/6/6 5/5/5 4/4/4
f 9/9/9 8/8/8 7/7/7
f 10/10/10 9/9/9 7/7/7
f 13/13/13 12/12/12 11/11/11
f 14/14/14 13/13/13 11/11/11
f 17/17/17 16/16/16 15/15/15
f 18/18/18 17/17/17 15/15/15
f 21/21/21 20/20/20 19/19/19
f 22/22/22 21/21/21 19/19/19
f 25/25/25 24/24/24 23/23/23
f 26/26/26 25/25/25 23/23/23
f 29/29/29 28/28/28 27/27/27
f 30/30/30 29/29/29 27/27/27
f 33/33/33 32/32/32 31/31/31
f 34/34/34 33/33/33 31/31/31
f 37/37/37 36/36/36 35/35/35
f 38/38/38 37/37/37 35/35/35
f 41/41/41 40/40/40 39/39/39
f 40/40/40 42/42/42 39/39/39
f 40/40/40 43/43/43 42/42/42
f 43/43/43 44/44/44 42/42/42
f 47/47/47 46/46/46 45/45/45
f 48/48/48 47/47/47 45/45/45
f 51/51/51 50/50/50 49/49/49
f 52/52/52 51/51/51 49/49/49
f 55/55/55 54/54/54 53/53/53
f 56/56/56 55/55/55 53/53/53
