g MetalRoofPeak
v -0.099999994 0.0250050016 -0.099999994
v 0.099999994 0.0250050016 -0.099999994
v -0.099999994 0.0250050016 0.099999994
v 0.099999994 0.0250050016 0.099999994
v -0.5 -0.499994993 -0.5
v -0.5 -0.499994993 0.5
v 0.5 -0.499994993 -0.5
v 0.5 -0.499994993 0.5
v 0.099999994 0.0250050016 0.099999994
v 0.5 -0.374994993 0.5
v -0.099999994 0.0250050016 0.099999994
v -0.5 -0.374994993 0.5
v 0.099999994 0.0250050016 -0.099999994
v 0.5 -0.374994993 -0.5
v 0.099999994 0.0250050016 0.099999994
v 0.5 -0.374994993 0.5
v -0.099999994 0.0250050016 -0.099999994
v -0.5 -0.374994993 -0.5
v 0.099999994 0.0250050016 -0.099999994
v 0.5 -0.374994993 -0.5
v -0.099999994 0.0250050016 0.099999994
v -0.5 -0.374994993 0.5
v -0.099999994 0.0250050016 -0.099999994
v -0.5 -0.374994993 -0.5
v -0.5 -0.374994993 -0.5
v -0.5 -0.499994993 -0.5
v 0.5 -0.374994993 -0.5
v 0.5 -0.499994993 -0.5
v -0.5 -0.374994993 0.5
v -0.5 -0.499994993 0.5
v -0.5 -0.374994993 -0.5
v -0.5 -0.499994993 -0.5
v 0.5 -0.374994993 -0.5
v 0.5 -0.499994993 -0.5
v 0.5 -0.374994993 0.5
v 0.5 -0.499994993 0.5
v 0.5 -0.374994993 0.5
v 0.5 -0.499994993 0.5
v -0.5 -0.374994993 0.5
v -0.5 -0.499994993 0.5
vt 0.936845183 0.0384042263
vt 0.941354275 0.0384042263
vt 0.936845183 0.0338951945
vt 0.941354275 0.0338951945
vt 0.950724125 0.0248773061
vt 0.950724125 0.0474221706
vt 0.973269165 0.0248773061
vt 0.973269165 0.0474221706
vt 0.976767242 0.0566362143
vt 0.967749298 0.0476182997
vt 0.976767242 0.0611450672
vt 0.967749298 0.07016325
vt 0.941354275 0.0384042263
vt 0.9503721 0.0474221706
vt 0.941354275 0.0338951945
vt 0.9503721 0.0248773061
vt 0.952793598 0.0611450672
vt 0.961811543 0.07016325
vt 0.952793598 0.0566362143
vt 0.961811543 0.0476182997
vt 0.936845183 0.0338951945
vt 0.92782712 0.0248773061
vt 0.936845183 0.0384042263
vt 0.92782712 0.0474221706
vt 0.961811543 0.07016325
vt 0.96462965 0.07016325
vt 0.961811543 0.0476182997
vt 0.96462965 0.0476182997
vt 0.952492237 0.0476182997
vt 0.94967401 0.0476182997
vt 0.952492237 0.07016325
vt 0.94967401 0.07016325
vt 0.94937259 0.0476182997
vt 0.946554482 0.0476182997
vt 0.94937259 0.07016325
vt 0.946554482 0.07016325
vt 0.967749298 0.0476182997
vt 0.964931071 0.0476182997
vt 0.967749298 0.07016325
vt 0.964931071 0.07016325
vn -0 1 0
vn -0 1 0
vn -0 1 0
vn -0 1 0
vn -0 -1 0
vn -0 -1 0
vn -0 -1 0
vn -0 -1 0
vn -0 0.707106769 0.707106769
vn -0 0.707106769 0.707106769
vn -0 0.707106769 0.707106769
vn -0 0.707106769 0.707106769
vn 0.707106769 0.707106769 0
vn 0.707106769 0.707106769 0
vn 0.707106769 0.707106769 0
vn 0.707106769 0.707106769 0
vn -0 0.707106769 -0.707106769
vn -0 0.707106769 -0.707106769
vn -0 0.707106769 -0.707106769
vn -0 0.707106769 -0.707106769
vn -0.707106769 0.707106769 0
vn -0.707106769 0.707106769 0
vn -0.707106769 0.707106769 0
vn -0.707106769 0.707106769 0
vn -0 0 -1
vn -0 0 -1
vn -0 0 -1
vn -0 0 -1
vn -1 0 0
vn -1 0 0
vn -1 0 0
vn -1 0 0
vn 1 0 0
vn 1 0 0
vn 1 0 0
vn 1 0 0
vn -0 0 1
vn -0 0 1
vn -0 0 1
vn -0 0 1
g MetalRoofPeak_0
f 3/3/3 2/2/2 1/1/1
f 3/3/3 4/4/4 2/2/2
f 7/7/7 6/6/6 5/5/5
f 7/7/7 8/8/8 6/6/6
f 11/11/11 10/10/10 9/9/9
f 11/11/11 12/12/12 10/10/10
f 15/15/15 14/14/14 13/13/13
f 15/15/15 16/16/16 14/14/14
f 19/19/19 18/18/18 17/17/17
f 19/19/19 20/20/20 18/18/18
f 23/23/23 22/22/22 21/21/21
f 23/23/23 24/24/24 22/22/22
f 27/27/27 26/26/26 25/25/25
f 27/27/27 28/28/28 26/26/26
f 31/31/31 30/30/30 29/29/29
f 31/31/31 32/32/32 30/30/30
f 35/35/35 34/34/34 33/33/33
f 35/35/35 36/36/36 34/34/34
f 39/39/39 38/38/38 37/37/37
f 39/39/39 40/40/40 38/38/38
