g flat_steel_flatroof_01
v 0.5 -0.5 0.5
v 0.5 -0.5 -0.5
v -0.5 -0.5 -0.5
v -0.5 -0.5 0.5
v -0.5 0.5 0.5
v -0.5 0.5 -0.5
v 0.5 0.5 -0.5
v 0.5 0.5 0.5
v 0.5 -0.5 0.5
v -0.5 -0.5 0.5
v -0.5 0.159450457 0.5
v 0.5 0.159450457 0.5
v 0.5 -0.5 -0.5
v 0.5 -0.5 0.5
v 0.5 0.159450457 0.5
v 0.5 0.159450382 -0.5
v -0.5 -0.5 -0.5
v 0.5 -0.5 -0.5
v 0.5 0.159450382 -0.5
v -0.5 0.159450382 -0.5
v -0.5 -0.5 0.5
v -0.5 -0.5 -0.5
v -0.5 0.159450382 -0.5
v -0.5 0.159450457 0.5
v 0.5 0.5 0.5
v 0.5 0.399999976 0.5
v -0.5 0.399999976 0.5
v -0.5 0.5 0.5
v 0.5 0.5 -0.5
v 0.5 0.399999976 -0.5
v 0.5 0.399999976 0.5
v 0.5 0.5 0.5
v -0.5 0.5 -0.5
v -0.5 0.399999976 -0.5
v 0.5 0.399999976 -0.5
v 0.5 0.5 -0.5
v -0.5 0.5 0.5
v -0.5 0.399999976 0.5
v -0.5 0.399999976 -0.5
v -0.5 0.5 -0.5
v 0.461661756 0.400000155 0.461661696
v 0.461661667 0.159450531 0.461661667
v -0.461661875 0.159450457 0.461661696
v -0.461661756 0.400000155 0.461661816
v 0.461661756 0.400000155 -0.461661905
v 0.461661667 0.159450457 -0.461661875
v 0.461661667 0.159450531 0.461661667
v 0.461661756 0.400000155 0.461661696
v -0.461661756 0.400000155 -0.461662024
v -0.461661875 0.159450457 -0.461661816
v 0.461661667 0.159450457 -0.461661875
v 0.461661756 0.400000155 -0.461661905
v -0.461661756 0.400000155 0.461661816
v -0.461661875 0.159450457 0.461661696
v -0.461661875 0.159450457 -0.461661816
v -0.461661756 0.400000155 -0.461662024
v 0.5 0.399999976 0.5
v 0.461661756 0.400000155 0.461661696
v -0.461661756 0.400000155 0.461661816
v -0.5 0.399999976 0.5
v 0.5 0.399999976 -0.5
v 0.461661756 0.400000155 -0.461661905
v 0.461661756 0.400000155 0.461661696
v 0.5 0.399999976 0.5
v -0.5 0.399999976 -0.5
v -0.461661756 0.400000155 -0.461662024
v 0.461661756 0.400000155 -0.461661905
v 0.5 0.399999976 -0.5
v -0.5 0.399999976 0.5
v -0.461661756 0.400000155 0.461661816
v -0.461661756 0.400000155 -0.461662024
v -0.5 0.399999976 -0.5
v 0.5 0.159450382 -0.5
v -0.461661875 0.159450457 -0.461661816
v -0.5 0.159450382 -0.5
v 0.461661667 0.159450457 -0.461661875
v -0.461661875 0.159450457 0.461661696
v 0.5 0.159450457 0.5
v -0.5 0.159450457 0.5
v 0.461661667 0.159450531 0.461661667
vt 0.177634209 0.540378809
vt 0.177634209 0.367040068
vt 0.00429520849 0.367040068
vt 0.00429520849 0.540378809
vt 0.845351934 0.031118501
vt 0.830124617 0.031118501
vt 0.830124617 0.0463457592
vt 0.845351934 0.0463457592
vt 0.727330744 0.521081865
vt 0.607595205 0.521081865
vt 0.607595205 0.600041509
vt 0.727330744 0.600041509
vt 0.727330863 0.521081805
vt 0.607595325 0.521081805
vt 0.607595325 0.600041509
vt 0.727330863 0.600041509
vt 0.727330863 0.521081865
vt 0.607595205 0.521081865
vt 0.607595205 0.600041509
vt 0.727330863 0.600041509
vt 0.727330863 0.521081805
vt 0.607595205 0.521081805
vt 0.607595205 0.600041509
vt 0.727330863 0.600041509
vt 0.312687546 0.188854426
vt 0.329568952 0.188854426
vt 0.329568952 0.0200408809
vt 0.312687665 0.0200408809
vt 0.312687665 0.0200408809
vt 0.329568952 0.0200408809
vt 0.329568952 0.188854426
vt 0.312687546 0.188854426
vt 0.312687665 0.0200408809
vt 0.329568952 0.0200408809
vt 0.329568952 0.188854426
vt 0.312687546 0.188854426
vt 0.312687546 0.188854426
vt 0.329568952 0.188854426
vt 0.329568952 0.0200408809
vt 0.312687665 0.0200408809
vt 0.0448359214 0.644151032
vt 0.00313984742 0.644151032
vt 0.00313984742 0.817489207
vt 0.0448359214 0.817489207
vt 0.0448359214 0.817489207
vt 0.00313984742 0.817489207
vt 0.00313984742 0.644151032
vt 0.0448359214 0.644151032
vt 0.0448359214 0.984183729
vt 0.00313984742 0.984181821
vt 0.00313984742 0.817489207
vt 0.0448359214 0.817489207
vt 0.0448359214 0.817489207
vt 0.00313984742 0.817489207
vt 0.00313984742 0.984183729
vt 0.0448359214 0.984183729
vt 0.329568952 0.188854426
vt 0.336041063 0.182382315
vt 0.336041063 0.0265127532
vt 0.329568952 0.0200408809
vt 0.329568952 0.0200408809
vt 0.336041063 0.0265127532
vt 0.336041063 0.182382554
vt 0.329568952 0.188854426
vt 0.329568952 0.0200408809
vt 0.336041063 0.0265127532
vt 0.336041063 0.182382554
vt 0.329568952 0.188854426
vt 0.329568952 0.188854426
vt 0.336041063 0.182382554
vt 0.336041063 0.0265127532
vt 0.329568952 0.0200408809
vt 0.941835105 0.0388301611
vt 0.97041291 0.0399694592
vt 0.971552312 0.0388301462
vt 0.942974508 0.0399694741
vt 0.970413029 0.0674079582
vt 0.941835344 0.0685472712
vt 0.971552312 0.0685472712
vt 0.942974508 0.0674079731
vn -0 -1 0
vn -0 -1 0
vn -0 -1 0
vn -0 -1 0
vn -0 1 0
vn -0 1 0
vn -0 1 0
vn -0 1 0
vn -0 0 1
vn -0 0 1
vn -0 0 1
vn -0 0 1
vn 1 0 0
vn 1 0 0
vn 1 0 0
vn 1 0 0
vn -0 0 -1
vn -0 0 -1
vn -0 0 -1
vn -0 0 -1
vn -1 0 0
vn -1 0 0
vn -1 0 0
vn -1 0 0
vn -0 0 1
vn -0 0 1
vn -0 0 1
vn -0 0 1
vn 1 0 0
vn 1 0 0
vn 1 0 0
vn 1 0 0
vn -0 0 -1
vn -0 0 -1
vn -0 0 -1
vn -0 0 -1
vn -1 0 0
vn -1 0 0
vn -1 0 0
vn -1 0 0
vn -0 -3.17165131E-07 1
vn -0 -3.17165131E-07 1
vn -0 -3.17165075E-07 1
vn -0 -3.17165103E-07 1
vn 1 -3.17165018E-07 0
vn 1 -3.17165018E-07 0
vn 1 -3.17165046E-07 0
vn 1 -3.17165018E-07 0
vn -0 -4.75747498E-07 -1
vn -0 -4.75747555E-07 -1
vn -0 -4.75747498E-07 -1
vn -0 -4.75747498E-07 -1
vn -1 4.75747555E-07 0
vn -1 4.75747555E-07 0
vn -1 4.75747498E-07 0
vn -1 4.75747555E-07 0
vn -0 -1 -3.98004613E-06
vn -0 -1 -3.98004613E-06
vn -0 -1 -3.98004613E-06
vn -0 -1 -3.98004613E-06
vn -3.98004431E-06 -1 0
vn -3.98004431E-06 -1 0
vn -3.98004431E-06 -1 0
vn -3.98004431E-06 -1 0
vn -0 -1 3.98006569E-06
vn -0 -1 3.98006569E-06
vn -0 -1 3.98006569E-06
vn -0 -1 3.98006569E-06
vn 3.98004431E-06 -1 0
vn 3.98004431E-06 -1 0
vn 3.98004431E-06 -1 0
vn 3.98004431E-06 -1 0
vn 1.99001852E-06 1 0
vn -0 1 -1.99002693E-06
vn -0 1 -1.99002693E-06
vn 1.99001875E-06 1 0
vn -0 1 9.950096E-07
vn -0 1 9.950096E-07
vn -0 1 9.950096E-07
vn -0 1 9.950096E-07
g flat_steel_flatroof_01_0
f 3/3/3 2/2/2 1/1/1
f 4/4/4 3/3/3 1/1/1
f 7/7/7 6/6/6 5/5/5
f 8/8/8 7/7/7 5/5/5
f 11/11/11 10/10/10 9/9/9
f 12/12/12 11/11/11 9/9/9
f 15/15/15 14/14/14 13/13/13
f 16/16/16 15/15/15 13/13/13
f 19/19/19 18/18/18 17/17/17
f 20/20/20 19/19/19 17/17/17
f 23/23/23 22/22/22 21/21/21
f 24/24/24 23/23/23 21/21/21
f 27/27/27 26/26/26 25/25/25
f 28/28/28 27/27/27 25/25/25
f 31/31/31 30/30/30 29/29/29
f 32/32/32 31/31/31 29/29/29
f 35/35/35 34/34/34 33/33/33
f 36/36/36 35/35/35 33/33/33
f 39/39/39 38/38/38 37/37/37
f 40/40/40 39/39/39 37/37/37
f 43/43/43 42/42/42 41/41/41
f 44/44/44 43/43/43 41/41/41
f 47/47/47 46/46/46 45/45/45
f 48/48/48 47/47/47 45/45/45
f 51/51/51 50/50/50 49/49/49
f 52/52/52 51/51/51 49/49/49
f 55/55/55 54/54/54 53/53/53
f 56/56/56 55/55/55 53/53/53
f 59/59/59 58/58/58 57/57/57
f 60/60/60 59/59/59 57/57/57
f 63/63/63 62/62/62 61/61/61
f 64/64/64 63/63/63 61/61/61
f 67/67/67 66/66/66 65/65/65
f 68/68/68 67/67/67 65/65/65
f 71/71/71 70/70/70 69/69/69
f 72/72/72 71/71/71 69/69/69
f 75/75/75 74/74/74 73/73/73
f 74/74/74 76/76/76 73/73/73
f 77/77/77 74/74/74 75/75/75
f 73/73/73 76/76/76 78/78/78
f 79/79/79 77/77/77 75/75/75
f 76/76/76 80/80/80 78/78/78
f 80/80/80 77/77/77 79/79/79
f 78/78/78 80/80/80 79/79/79
