g flatsteel_column_large_02
v -0.0692419782 0.499999911 -0.259999961
v -0.069241941 0.500000238 -0.0692419484
v -0.0692416355 -0.5 -0.0692419782
v -0.0692419782 -0.5 -0.25999999
v -0.0692416355 -0.5 -0.0692419782
v -0.069241941 0.500000238 -0.0692419484
v -0.25999999 0.499999911 -0.0692419484
v -0.25999999 -0.5 -0.0692419782
v -0.099999994 -0.5 -0.299999982
v -0.099999994 0.499999911 -0.299999952
v -0.099999994 0.499999911 -0.259999961
v -0.099999994 -0.5 -0.25999999
v -0.299999982 -0.5 -0.099999994
v -0.25999999 -0.5 -0.099999994
v -0.25999999 0.499999911 -0.0999999568
v -0.299999982 0.499999911 -0.0999999791
v -0.099999994 -0.5 -0.25999999
v -0.099999994 0.499999911 -0.259999961
v -0.0692419782 0.499999911 -0.259999961
v -0.0692419782 -0.5 -0.25999999
v -0.25999999 0.499999911 -0.0999999568
v -0.25999999 -0.5 -0.099999994
v -0.25999999 -0.5 -0.0692419782
v -0.25999999 0.499999911 -0.0692419484
v 0.299999982 -0.5 -0.099999994
v 0.299999982 -0.5 0.099999994
v 0.299999982 0.499999911 0.0999999791
v 0.299999982 0.499999911 -0.0999999791
v 0.0692416355 -0.5 -0.0692419782
v 0.069241941 0.500000238 -0.0692419484
v 0.0692419782 0.499999911 -0.259999961
v 0.0692419782 -0.5 -0.25999999
v 0.25999999 0.499999911 -0.0692419484
v 0.069241941 0.500000238 -0.0692419484
v 0.0692416355 -0.5 -0.0692419782
v 0.25999999 -0.5 -0.0692419782
v 0.099999994 0.499999911 -0.259999961
v 0.099999994 0.499999911 -0.299999952
v 0.099999994 -0.5 -0.299999982
v 0.099999994 -0.5 -0.25999999
v 0.299999982 -0.5 -0.099999994
v 0.299999982 0.499999911 -0.0999999791
v 0.25999999 0.499999911 -0.0999999568
v 0.25999999 -0.5 -0.099999994
v 0.0692419782 0.499999911 -0.259999961
v 0.099999994 0.499999911 -0.259999961
v 0.099999994 -0.5 -0.25999999
v 0.0692419782 -0.5 -0.25999999
v 0.25999999 -0.5 -0.0692419782
v 0.25999999 -0.5 -0.099999994
v 0.25999999 0.499999911 -0.0999999568
v 0.25999999 0.499999911 -0.0692419484
v -0.099999994 -0.5 -0.299999982
v 0.099999994 -0.5 -0.299999982
v 0.099999994 0.499999911 -0.299999952
v -0.099999994 0.499999911 -0.299999952
v -0.299999982 -0.5 0.099999994
v -0.299999982 -0.5 -0.099999994
v -0.299999982 0.499999911 -0.0999999791
v -0.299999982 0.499999911 0.0999999791
v -0.0692416355 -0.5 0.0692419782
v -0.069241941 0.500000238 0.0692419484
v -0.0692419782 0.499999911 0.259999961
v -0.0692419782 -0.5 0.25999999
v -0.25999999 0.499999911 0.0692419484
v -0.069241941 0.500000238 0.0692419484
v -0.0692416355 -0.5 0.0692419782
v -0.25999999 -0.5 0.0692419782
v -0.099999994 0.499999911 0.259999961
v -0.099999994 0.499999911 0.299999952
v -0.099999994 -0.5 0.299999982
v -0.099999994 -0.5 0.25999999
v -0.299999982 -0.5 0.099999994
v -0.299999982 0.499999911 0.0999999791
v -0.25999999 0.499999911 0.0999999568
v -0.25999999 -0.5 0.099999994
v -0.0692419782 0.499999911 0.259999961
v -0.099999994 0.499999911 0.259999961
v -0.099999994 -0.5 0.25999999
v -0.0692419782 -0.5 0.25999999
v -0.25999999 -0.5 0.0692419782
v -0.25999999 -0.5 0.099999994
v -0.25999999 0.499999911 0.0999999568
v -0.25999999 0.499999911 0.0692419484
v 0.0692419782 0.499999911 0.259999961
v 0.069241941 0.500000238 0.0692419484
v 0.0692416355 -0.5 0.0692419782
v 0.0692419782 -0.5 0.25999999
v 0.0692416355 -0.5 0.0692419782
v 0.069241941 0.500000238 0.0692419484
v 0.25999999 0.499999911 0.0692419484
v 0.25999999 -0.5 0.0692419782
v 0.099999994 -0.5 0.299999982
v 0.099999994 0.499999911 0.299999952
v 0.099999994 0.499999911 0.259999961
v 0.099999994 -0.5 0.25999999
v 0.299999982 -0.5 0.099999994
v 0.25999999 -0.5 0.099999994
v 0.25999999 0.499999911 0.0999999568
v 0.299999982 0.499999911 0.0999999791
v 0.099999994 -0.5 0.25999999
v 0.099999994 0.499999911 0.259999961
v 0.0692419782 0.499999911 0.259999961
v 0.0692419782 -0.5 0.25999999
v 0.25999999 0.499999911 0.0999999568
v 0.25999999 -0.5 0.099999994
v 0.25999999 -0.5 0.0692419782
v 0.25999999 0.499999911 0.0692419484
v 0.099999994 -0.5 0.299999982
v -0.099999994 -0.5 0.299999982
v -0.099999994 0.499999911 0.299999952
v 0.099999994 0.499999911 0.299999952
vt 0.635034382 0.21598123
vt 0.650019228 0.21598129
vt 0.650019228 0.140570834
vt 0.635034382 0.140570834
vt 0.650019228 0.140570834
vt 0.650019228 0.21598129
vt 0.665003359 0.21598123
vt 0.665003359 0.140570834
vt 0.386614025 0.385125458
vt 0.386613995 0.195728406
vt 0.394189924 0.195728406
vt 0.394189954 0.385125458
vt 0.348734617 0.385125458
vt 0.341158748 0.385125458
vt 0.341158718 0.195728436
vt 0.348734587 0.195728436
vt 0.533831656 0.221012905
vt 0.533831775 0.0391913466
vt 0.539657295 0.0391913466
vt 0.539657295 0.221012905
vt 0.539657295 0.0391914658
vt 0.539657295 0.221012905
vt 0.533831775 0.221012905
vt 0.533831775 0.0391914658
vt 0.386614025 0.385125518
vt 0.348734617 0.385125458
vt 0.348734587 0.195728436
vt 0.386613995 0.195728406
vt 0.650019228 0.140570834
vt 0.650019228 0.21598123
vt 0.665003359 0.21598123
vt 0.665003359 0.140570834
vt 0.635034382 0.21598123
vt 0.650019228 0.21598123
vt 0.650019228 0.140570834
vt 0.635034382 0.140570834
vt 0.341158718 0.195728436
vt 0.348734587 0.195728436
vt 0.348734617 0.385125458
vt 0.341158748 0.385125518
vt 0.386614025 0.385125518
vt 0.386613995 0.195728406
vt 0.394189924 0.195728406
vt 0.394189954 0.385125518
vt 0.533831894 0.0391914658
vt 0.539657295 0.0391914658
vt 0.539657295 0.221012905
vt 0.533831775 0.221012905
vt 0.539657295 0.221012905
vt 0.533831775 0.221012905
vt 0.533831894 0.0391914062
vt 0.539657295 0.0391914062
vt 0.386614025 0.385125458
vt 0.348734617 0.385125458
vt 0.348734587 0.195728436
vt 0.386613995 0.195728406
vt 0.386614025 0.385125399
vt 0.348734617 0.385125458
vt 0.348734587 0.195728436
vt 0.386613995 0.195728406
vt 0.650019228 0.140570834
vt 0.650019228 0.21598123
vt 0.665003359 0.21598123
vt 0.665003359 0.140570834
vt 0.635034382 0.21598123
vt 0.650019228 0.21598123
vt 0.650019228 0.140570834
vt 0.635034382 0.140570834
vt 0.341158718 0.195728436
vt 0.348734468 0.195728436
vt 0.348734498 0.385125399
vt 0.341158748 0.385125399
vt 0.386614025 0.385125399
vt 0.386613995 0.195728406
vt 0.394189924 0.195728406
vt 0.394189954 0.385125399
vt 0.533831894 0.0391914062
vt 0.539657295 0.0391914062
vt 0.539657295 0.221012905
vt 0.533831775 0.221012905
vt 0.539657295 0.221012905
vt 0.533831775 0.221012905
vt 0.533831894 0.0391914062
vt 0.539657295 0.0391914062
vt 0.635034382 0.21598123
vt 0.650019228 0.21598123
vt 0.650019228 0.140570834
vt 0.635034382 0.140570834
vt 0.650019228 0.140570834
vt 0.650019228 0.21598123
vt 0.665003359 0.21598123
vt 0.665003359 0.140570834
vt 0.386613905 0.385125399
vt 0.386613876 0.195728406
vt 0.394189805 0.195728406
vt 0.394189835 0.385125399
vt 0.348734617 0.385125458
vt 0.341158748 0.385125458
vt 0.341158718 0.195728436
vt 0.348734587 0.195728436
vt 0.533831656 0.221012905
vt 0.533831775 0.0391914062
vt 0.539657295 0.0391914062
vt 0.539657295 0.221012905
vt 0.539657176 0.0391914062
vt 0.539657295 0.221012905
vt 0.533831775 0.221012905
vt 0.533831775 0.0391914062
vt 0.386613905 0.385125399
vt 0.348734498 0.385125399
vt 0.348734468 0.195728436
vt 0.386613876 0.195728406
vn -1 -1.52587916E-07 9.99878807E-07
vn -1 -1.52587901E-07 9.99878694E-07
vn -1 -1.52587916E-07 9.99878694E-07
vn -1 -1.52587887E-07 9.99878694E-07
vn -0 0 -1
vn -0 0 -1
vn -0 0 -1
vn -0 0 -1
vn -1 0 0
vn -1 0 0
vn -1 0 0
vn -1 0 0
vn 2.38418579E-07 0 -1
vn 2.38418579E-07 0 -1
vn 2.38418579E-07 0 -1
vn 2.38418579E-07 0 -1
vn -0 0 1
vn -0 0 1
vn -0 0 1
vn -0 0 1
vn 1 0 0
vn 1 0 0
vn 1 0 0
vn 1 0 0
vn 1 0 0
vn 1 0 0
vn 1 0 0
vn 1 0 0
vn 1 -1.52587916E-07 9.99878694E-07
vn 1 -1.52587901E-07 9.99878694E-07
vn 1 -1.52587916E-07 9.99878807E-07
vn 1 -1.52587887E-07 9.99878694E-07
vn -0 0 -1
vn -0 0 -1
vn -0 0 -1
vn -0 0 -1
vn 1 0 0
vn 1 0 0
vn 1 0 0
vn 1 0 0
vn -2.38418579E-07 0 -1
vn -2.38418579E-07 0 -1
vn -2.38418579E-07 0 -1
vn -2.38418579E-07 0 -1
vn -0 0 1
vn -0 0 1
vn -0 0 1
vn -0 0 1
vn -1 0 0
vn -1 0 0
vn -1 0 0
vn -1 0 0
vn -0 0 -1
vn -0 0 -1
vn -0 0 -1
vn -0 0 -1
vn -1 0 0
vn -1 0 0
vn -1 0 0
vn -1 0 0
vn -1 -1.52587916E-07 -9.99878694E-07
vn -1 -1.52587901E-07 -9.99878694E-07
vn -1 -1.52587916E-07 -9.99878807E-07
vn -1 -1.52587887E-07 -9.99878694E-07
vn -0 0 1
vn -0 0 1
vn -0 0 1
vn -0 0 1
vn -1 0 0
vn -1 0 0
vn -1 0 0
vn -1 0 0
vn 2.38418579E-07 0 1
vn 2.38418579E-07 0 1
vn 2.38418579E-07 0 1
vn 2.38418579E-07 0 1
vn -0 0 -1
vn -0 0 -1
vn -0 0 -1
vn -0 0 -1
vn 1 0 0
vn 1 0 0
vn 1 0 0
vn 1 0 0
vn 1 -1.52587916E-07 -9.99878807E-07
vn 1 -1.52587901E-07 -9.99878694E-07
vn 1 -1.52587916E-07 -9.99878694E-07
vn 1 -1.52587887E-07 -9.99878694E-07
vn -0 0 1
vn -0 0 1
vn -0 0 1
vn -0 0 1
vn 1 0 0
vn 1 0 0
vn 1 0 0
vn 1 0 0
vn -2.38418579E-07 0 1
vn -2.38418579E-07 0 1
vn -2.38418579E-07 0 1
vn -2.38418579E-07 0 1
vn -0 0 -1
vn -0 0 -1
vn -0 0 -1
vn -0 0 -1
vn -1 0 0
vn -1 0 0
vn -1 0 0
vn -1 0 0
vn -0 0 1
vn -0 0 1
vn -0 0 1
vn -0 0 1
g flatsteel_column_large_02_0
f 3/3/3 2/2/2 1/1/1
f 4/4/4 3/3/3 1/1/1
f 7/7/7 6/6/6 5/5/5
f 8/8/8 7/7/7 5/5/5
f 11/11/11 10/10/10 9/9/9
f 12/12/12 11/11/11 9/9/9
f 15/15/15 14/14/14 13/13/13
f 16/16/16 15/15/15 13/13/13
f 19/19/19 18/18/18 17/17/17
f 20/20/20 19/19/19 17/17/17
f 23/23/23 22/22/22 21/21/21
f 24/24/24 23/23/23 21/21/21
f 27/27/27 26/26/26 25/25/25
f 28/28/28 27/27/27 25/25/25
f 31/31/31 30/30/30 29/29/29
f 32/32/32 31/31/31 29/29/29
f 35/35/35 34/34/34 33/33/33
f 36/36/36 35/35/35 33/33/33
f 39/39/39 38/38/38 37/37/37
f 40/40/40 39/39/39 37/37/37
f 43/43/43 42/42/42 41/41/41
f 44/44/44 43/43/43 41/41/41
f 47/47/47 46/46/46 45/45/45
f 48/48/48 47/47/47 45/45/45
f 51/51/51 50/50/50 49/49/49
f 52/52/52 51/51/51 49/49/49
f 55/55/55 54/54/54 53/53/53
f 56/56/56 55/55/55 53/53/53
f 59/59/59 58/58/58 57/57/57
f 60/60/60 59/59/59 57/57/57
f 63/63/63 62/62/62 61/61/61
f 64/64/64 63/63/63 61/61/61
f 67/67/67 66/66/66 65/65/65
f 68/68/68 67/67/67 65/65/65
f 71/71/71 70/70/70 69/69/69
f 72/72/72 71/71/71 69/69/69
f 75/75/75 74/74/74 73/73/73
f 76/76/76 75/75/75 73/73/73
f 79/79/79 78/78/78 77/77/77
f 80/80/80 79/79/79 77/77/77
f 83/83/83 82/82/82 81/81/81
f 84/84/84 83/83/83 81/81/81
f 87/87/87 86/86/86 85/85/85
f 88/88/88 87/87/87 85/85/85
f 91/91/91 90/90/90 89/89/89
f 92/92/92 91/91/91 89/89/89
f 95/95/95 94/94/94 93/93/93
f 96/96/96 95/95/95 93/93/93
f 99/99/99 98/98/98 97/97/97
f 100/100/100 99/99/99 97/97/97
f 103/103/103 102/102/102 101/101/101
f 104/104/104 103/103/103 101/101/101
f 107/107/107 106/106/106 105/105/105
f 108/108/108 107/107/107 105/105/105
f 111/111/111 110/110/110 109/109/109
f 112/112/112 111/111/111 109/109/109
