g flat_steel_cube
v -0.5 -0.5 0.5
v 0.5 -0.5 0.5
v 0.5 -0.5 -0.5
v -0.5 -0.5 -0.5
v -0.5 0.5 0.5
v -0.5 0.5 -0.5
v 0.5 0.5 -0.5
v 0.5 0.5 0.5
v -0.5 -0.5 0.5
v -0.5 0.5 0.5
v 0.5 0.5 0.5
v 0.5 -0.5 0.5
v 0.5 -0.5 0.5
v 0.5 0.5 0.5
v 0.5 0.5 -0.5
v 0.5 -0.5 -0.5
v 0.5 -0.5 -0.5
v 0.5 0.5 -0.5
v -0.5 0.5 -0.5
v -0.5 -0.5 -0.5
v -0.5 -0.5 -0.5
v -0.5 0.5 -0.5
v -0.5 0.5 0.5
v -0.5 -0.5 0.5
vt 0.905045211 0.0890273526
vt 0.985510647 0.0890273526
vt 0.985510647 0.00856214389
vt 0.905045211 0.00856214389
vt 0.950519502 0.0385519117
vt 0.950519502 0.0601346493
vt 0.972102344 0.0601346493
vt 0.972102344 0.0385519117
vt 0.922721684 0.0105184875
vt 0.922721684 0.0321012288
vt 0.944304407 0.0321012288
vt 0.944304407 0.0105184875
vt 0.953817546 0.0100473426
vt 0.953817546 0.0316300839
vt 0.975400388 0.0316300839
vt 0.975400388 0.0100473426
vt 0.921779335 0.0684699193
vt 0.921779335 0.0900526568
vt 0.943362176 0.0900526568
vt 0.943362176 0.0684699193
vt 0.923192918 0.0397297889
vt 0.923192918 0.0613125265
vt 0.944775641 0.0613125265
vt 0.944775641 0.0397297889
vn -0 -1 0
vn -0 -1 0
vn -0 -1 0
vn -0 -1 0
vn -0 1 0
vn -0 1 0
vn -0 1 0
vn -0 1 0
vn -0 0 1
vn -0 0 1
vn -0 0 1
vn -0 0 1
vn 1 0 0
vn 1 0 0
vn 1 0 0
vn 1 0 0
vn -0 0 -1
vn -0 0 -1
vn -0 0 -1
vn -0 0 -1
vn -1 0 0
vn -1 0 0
vn -1 0 0
vn -1 0 0
g flat_steel_cube_0
f 3/3/3 2/2/2 1/1/1
f 4/4/4 3/3/3 1/1/1
f 7/7/7 6/6/6 5/5/5
f 8/8/8 7/7/7 5/5/5
f 11/11/11 10/10/10 9/9/9
f 12/12/12 11/11/11 9/9/9
f 15/15/15 14/14/14 13/13/13
f 16/16/16 15/15/15 13/13/13
f 19/19/19 18/18/18 17/17/17
f 20/20/20 19/19/19 17/17/17
f 23/23/23 22/22/22 21/21/21
f 24/24/24 23/23/23 21/21/21
