g flatsteel_Simple_Corner_Slope
v 0.5 0.500001 -0.5
v -0.5 0.500001 -0.5
v -0.5 -0.499999 -0.5
v -0.5 0.500001 0.5
v -0.5 -0.499999 -0.5
v -0.5 0.500001 -0.5
v 0.5 0.500001 0.5
v 0.5 0.500001 -0.5
v -0.5 -0.499999 -0.5
v -0.5 0.500001 0.5
v 0.5 0.500001 0.5
v -0.5 -0.499999 -0.5
v 0.5 0.500001 -0.5
v 0.5 0.500001 0.5
v -0.5 0.500001 0.5
v -0.5 0.500001 -0.5
vt 0.650011361 0.549590468
vt 0.65001142 0.687026381
vt 0.787447393 0.687026441
vt 0.787447393 0.687026441
vt 0.65001148 0.549590588
vt 0.65001142 0.687026381
vt 0.650011539 0.824462295
vt 0.650011539 0.687026381
vt 0.455647707 0.687026381
vt 0.65001142 0.687026381
vt 0.650011539 0.824462295
vt 0.455647707 0.687026381
vt 0.65001142 0.824462235
vt 0.787447155 0.824462235
vt 0.787447155 0.687026262
vt 0.65001142 0.687026262
vn 0 0 -1
vn 0 0 -1
vn 0 0 -1
vn -1 0 0
vn -1 0 0
vn -1 0 0
vn 0.707064 -0.707149 0.000160191
vn 0.70715 -0.707063 0
vn 0.707022 -0.707192 0.000239302
vn 0 -0.707064 0.707149
vn 0.000155412 -0.707148 0.707066
vn 0.000232028 -0.707189 0.707025
vn 0 1 0
vn 0 1 0
vn 0 1 0
vn 0 1 0
g flatsteel_Simple_Corner_Slope_0
f 3/3/3 2/2/2 1/1/1
f 6/6/6 5/5/5 4/4/4
f 9/9/9 8/8/8 7/7/7
f 12/12/12 11/11/11 10/10/10
f 15/15/15 14/14/14 13/13/13
f 16/16/16 15/15/15 13/13/13
