g flatsteel_column_large_solo
v -0.099999994 -0.500000238 0.100000091
v -0.099999994 -0.460000217 0.100000046
v -0.099999994 -0.460000128 0.26000008
v -0.099999994 -0.5 0.300000072
v -0.099999994 0.5 0.300000072
v -0.099999994 0.460000128 0.26000008
v -0.099999994 0.500000238 0.100000091
v -0.099999994 0.460000217 0.100000046
v -0.299999982 -0.500000238 0.100000091
v -0.099999994 -0.460000217 0.100000046
v -0.099999994 -0.500000238 0.100000091
v -0.25999999 -0.460000217 0.100000046
v -0.299999982 0.500000238 0.100000091
v -0.25999999 0.460000217 0.100000046
v -0.099999994 0.460000217 0.100000046
v -0.099999994 0.500000238 0.100000091
v -0.099999994 -0.460000217 0.100000046
v -0.0692419782 -0.460000128 0.26000008
v -0.099999994 -0.460000128 0.26000008
v -0.069241941 -0.460000217 0.0692420453
v -0.25999999 -0.460000217 0.100000046
v -0.25999999 -0.460000217 0.0692420453
v -0.099999994 0.460000128 0.26000008
v -0.099999994 -0.460000128 0.26000008
v -0.0692419782 -0.460000128 0.26000008
v -0.0692419782 0.460000128 0.26000008
v 0.099999994 -0.500000238 0.100000091
v 0.099999994 -0.460000128 0.26000008
v 0.099999994 -0.460000217 0.100000046
v 0.099999994 -0.5 0.300000072
v 0.099999994 0.5 0.300000072
v 0.099999994 0.460000128 0.26000008
v 0.099999994 0.500000238 0.100000091
v 0.099999994 0.460000217 0.100000046
v 0.299999982 -0.500000238 0.100000091
v 0.099999994 -0.500000238 0.100000091
v 0.099999994 -0.460000217 0.100000046
v 0.25999999 -0.460000217 0.100000046
v 0.299999982 0.500000238 0.100000091
v 0.25999999 0.460000217 0.100000046
v 0.099999994 0.460000217 0.100000046
v 0.099999994 0.500000238 0.100000091
v 0.099999994 -0.460000217 0.100000046
v 0.099999994 -0.460000128 0.26000008
v 0.0692419782 -0.460000128 0.26000008
v 0.069241941 -0.460000217 0.0692420453
v 0.25999999 -0.460000217 0.100000046
v 0.25999999 -0.460000217 0.0692420453
v 0.299999982 -0.500000238 -0.0999998674
v 0.099999994 -0.500000238 0.100000091
v 0.299999982 -0.500000238 0.100000091
v 0.099999994 -0.500000238 -0.0999998674
v -0.099999994 -0.500000238 -0.0999998674
v 0.099999994 -0.500000119 -0.299999833
v -0.099999994 -0.500000119 -0.299999833
v -0.099999994 -0.500000238 0.100000091
v 0.099999994 -0.5 0.300000072
v -0.099999994 -0.5 0.300000072
v -0.299999982 -0.500000238 0.100000091
v -0.299999982 -0.500000238 -0.0999998674
v -0.099999994 -0.500000238 -0.0999998674
v -0.099999994 -0.460000306 -0.259999841
v -0.099999994 -0.460000217 -0.0999998376
v -0.099999994 -0.500000119 -0.299999833
v -0.099999994 0.500000119 -0.299999833
v -0.099999994 0.460000306 -0.259999841
v -0.099999994 0.500000238 -0.0999998674
v -0.099999994 0.460000217 -0.0999998376
v -0.299999982 -0.500000238 -0.0999998674
v -0.099999994 -0.500000238 -0.0999998674
v -0.099999994 -0.460000217 -0.0999998376
v -0.25999999 -0.460000217 -0.0999998376
v -0.299999982 0.500000238 -0.0999998674
v -0.25999999 0.460000217 -0.0999998376
v -0.099999994 0.460000217 -0.0999998376
v -0.099999994 0.500000238 -0.0999998674
v -0.099999994 -0.460000217 -0.0999998376
v -0.099999994 -0.460000306 -0.259999841
v -0.0692419782 -0.460000306 -0.259999841
v -0.069241941 -0.460000217 -0.0692418292
v -0.25999999 -0.460000217 -0.0999998376
v -0.25999999 -0.460000217 -0.0692418292
v 0.099999994 -0.500000238 -0.0999998674
v 0.099999994 -0.460000217 -0.0999998376
v 0.099999994 -0.460000306 -0.259999841
v 0.099999994 -0.500000119 -0.299999833
v 0.099999994 0.500000119 -0.299999833
v 0.099999994 0.460000306 -0.259999841
v 0.099999994 0.500000238 -0.0999998674
v 0.099999994 0.460000217 -0.0999998376
v 0.299999982 -0.500000238 -0.0999998674
v 0.099999994 -0.460000217 -0.0999998376
v 0.099999994 -0.500000238 -0.0999998674
v 0.25999999 -0.460000217 -0.0999998376
v 0.299999982 0.500000238 -0.0999998674
v 0.25999999 0.460000217 -0.0999998376
v 0.099999994 0.460000217 -0.0999998376
v 0.099999994 0.500000238 -0.0999998674
v 0.099999994 -0.460000217 -0.0999998376
v 0.0692419782 -0.460000306 -0.259999841
v 0.099999994 -0.460000306 -0.259999841
v 0.069241941 -0.460000217 -0.0692418292
v 0.25999999 -0.460000217 -0.0999998376
v 0.25999999 -0.460000217 -0.0692418292
v 0.299999982 -0.500000238 0.100000091
v 0.299999982 0.500000238 0.100000091
v 0.299999982 0.500000238 -0.0999998674
v 0.299999982 -0.500000238 -0.0999998674
v -0.099999994 -0.5 0.300000072
v -0.099999994 0.5 0.300000072
v 0.099999994 0.5 0.300000072
v 0.099999994 -0.5 0.300000072
v -0.299999982 -0.500000238 -0.0999998674
v -0.299999982 0.500000238 -0.0999998674
v -0.299999982 0.500000238 0.100000091
v -0.299999982 -0.500000238 0.100000091
v 0.099999994 -0.500000119 -0.299999833
v 0.099999994 0.500000119 -0.299999833
v -0.099999994 0.500000119 -0.299999833
v -0.099999994 -0.500000119 -0.299999833
v -0.069241941 -0.460000217 0.0692420453
v -0.069241941 0.460000217 0.0692420453
v -0.0692419782 0.460000128 0.26000008
v -0.0692419782 -0.460000128 0.26000008
v -0.25999999 0.460000217 0.0692420453
v -0.069241941 0.460000217 0.0692420453
v -0.069241941 -0.460000217 0.0692420453
v -0.25999999 -0.460000217 0.0692420453
v -0.099999994 0.460000217 0.100000046
v -0.099999994 0.460000128 0.26000008
v -0.0692419782 0.460000128 0.26000008
v -0.069241941 0.460000217 0.0692420453
v -0.25999999 0.460000217 0.100000046
v -0.25999999 0.460000217 0.0692420453
v 0.0692419782 0.460000128 0.26000008
v 0.069241941 0.460000217 0.0692420453
v 0.069241941 -0.460000217 0.0692420453
v 0.0692419782 -0.460000128 0.26000008
v 0.069241941 -0.460000217 0.0692420453
v 0.069241941 0.460000217 0.0692420453
v 0.25999999 0.460000217 0.0692420453
v 0.25999999 -0.460000217 0.0692420453
v 0.099999994 0.460000217 0.100000046
v 0.0692419782 0.460000128 0.26000008
v 0.099999994 0.460000128 0.26000008
v 0.069241941 0.460000217 0.0692420453
v 0.25999999 0.460000217 0.100000046
v 0.25999999 0.460000217 0.0692420453
v 0.099999994 -0.460000128 0.26000008
v 0.099999994 0.460000128 0.26000008
v 0.0692419782 0.460000128 0.26000008
v 0.0692419782 -0.460000128 0.26000008
v 0.099999994 0.500000238 0.100000091
v 0.299999982 0.500000238 -0.0999998674
v 0.299999982 0.500000238 0.100000091
v 0.099999994 0.500000238 -0.0999998674
v -0.099999994 0.500000238 -0.0999998674
v 0.099999994 0.500000119 -0.299999833
v -0.099999994 0.500000119 -0.299999833
v -0.099999994 0.500000238 0.100000091
v 0.099999994 0.5 0.300000072
v -0.099999994 0.5 0.300000072
v -0.299999982 0.500000238 0.100000091
v -0.299999982 0.500000238 -0.0999998674
v -0.0692419782 0.460000306 -0.259999841
v -0.069241941 0.460000217 -0.0692418292
v -0.069241941 -0.460000217 -0.0692418292
v -0.0692419782 -0.460000306 -0.259999841
v -0.069241941 -0.460000217 -0.0692418292
v -0.069241941 0.460000217 -0.0692418292
v -0.25999999 0.460000217 -0.0692418292
v -0.25999999 -0.460000217 -0.0692418292
v -0.099999994 0.460000217 -0.0999998376
v -0.0692419782 0.460000306 -0.259999841
v -0.099999994 0.460000306 -0.259999841
v -0.069241941 0.460000217 -0.0692418292
v -0.25999999 0.460000217 -0.0999998376
v -0.25999999 0.460000217 -0.0692418292
v -0.099999994 -0.460000306 -0.259999841
v -0.099999994 0.460000306 -0.259999841
v -0.0692419782 0.460000306 -0.259999841
v -0.0692419782 -0.460000306 -0.259999841
v 0.069241941 -0.460000217 -0.0692418292
v 0.069241941 0.460000217 -0.0692418292
v 0.0692419782 0.460000306 -0.259999841
v 0.0692419782 -0.460000306 -0.259999841
v 0.25999999 0.460000217 -0.0692418292
v 0.069241941 0.460000217 -0.0692418292
v 0.069241941 -0.460000217 -0.0692418292
v 0.25999999 -0.460000217 -0.0692418292
v 0.099999994 0.460000217 -0.0999998376
v 0.099999994 0.460000306 -0.259999841
v 0.0692419782 0.460000306 -0.259999841
v 0.069241941 0.460000217 -0.0692418292
v 0.25999999 0.460000217 -0.0999998376
v 0.25999999 0.460000217 -0.0692418292
v 0.0692419782 0.460000306 -0.259999841
v 0.099999994 0.460000306 -0.259999841
v 0.099999994 -0.460000306 -0.259999841
v 0.0692419782 -0.460000306 -0.259999841
v -0.25999999 -0.460000217 0.0692420453
v -0.25999999 -0.460000217 0.100000046
v -0.25999999 0.460000217 0.100000046
v -0.25999999 0.460000217 0.0692420453
v 0.25999999 -0.460000217 0.100000046
v 0.25999999 -0.460000217 0.0692420453
v 0.25999999 0.460000217 0.0692420453
v 0.25999999 0.460000217 0.100000046
v -0.25999999 -0.460000217 -0.0999998376
v -0.25999999 -0.460000217 -0.0692418292
v -0.25999999 0.460000217 -0.0692418292
v -0.25999999 0.460000217 -0.0999998376
v 0.25999999 -0.460000217 -0.0692418292
v 0.25999999 -0.460000217 -0.0999998376
v 0.25999999 0.460000217 -0.0999998376
v 0.25999999 0.460000217 -0.0692418292
vt 0.803802788 0.381313801
vt 0.811123431 0.381313801
vt 0.81112355 0.352031291
vt 0.803802907 0.344710648
vt 0.986818612 0.344710648
vt 0.979497969 0.352031291
vt 0.986818612 0.38131386
vt 0.979497969 0.38131386
vt 0.803802788 0.308107436
vt 0.811123431 0.271504343
vt 0.803802788 0.271504343
vt 0.811123431 0.300786853
vt 0.986818612 0.308107436
vt 0.979497969 0.300786853
vt 0.979497969 0.271504343
vt 0.986818612 0.271504343
vt 0.533832133 0.0088881664
vt 0.539657295 0.0391914658
vt 0.533832014 0.0391914658
vt 0.539657533 0.00306270644
vt 0.503528357 0.00888792798
vt 0.503528357 0.00306246802
vt 0.533831894 0.221012786
vt 0.533832014 0.0391914658
vt 0.539657295 0.0391914658
vt 0.539657414 0.221012786
vt 0.803802788 0.271504462
vt 0.81112355 0.300786912
vt 0.811123431 0.271504343
vt 0.803802907 0.308107495
vt 0.986818612 0.308107495
vt 0.979497969 0.300786912
vt 0.986818612 0.271504462
vt 0.979497969 0.271504343
vt 0.803802788 0.344710648
vt 0.803802788 0.381313801
vt 0.811123431 0.381313801
vt 0.811123431 0.352031291
vt 0.986818612 0.344710648
vt 0.979497969 0.352031291
vt 0.979497969 0.38131386
vt 0.986818612 0.38131386
vt 0.533832133 0.0088881664
vt 0.533832014 0.0391914658
vt 0.539657295 0.0391914658
vt 0.539657533 0.00306258723
vt 0.503528237 0.00888792798
vt 0.503528237 0.00306234881
vt 0.920718074 0.181269228
vt 0.957321286 0.217872381
vt 0.957321286 0.181269228
vt 0.920718074 0.217872381
vt 0.920718074 0.254475534
vt 0.884114981 0.217872381
vt 0.884114981 0.254475534
vt 0.957321286 0.254475534
vt 0.993924379 0.217872381
vt 0.993924379 0.254475534
vt 0.957321286 0.291078627
vt 0.920718074 0.291078627
vt 0.803802788 0.271504343
vt 0.811123431 0.300786853
vt 0.811123431 0.271504343
vt 0.803802788 0.308107495
vt 0.986818612 0.308107495
vt 0.979498088 0.300786853
vt 0.986818731 0.271504343
vt 0.979498088 0.271504343
vt 0.803802788 0.344710588
vt 0.803802788 0.381313682
vt 0.811123431 0.381313682
vt 0.811123431 0.352031171
vt 0.986818612 0.344710588
vt 0.979497969 0.352031171
vt 0.979497969 0.381313741
vt 0.986818612 0.381313741
vt 0.533832133 0.00888828561
vt 0.503528237 0.00888792798
vt 0.503528237 0.00306246802
vt 0.539657533 0.00306270644
vt 0.533832014 0.039191585
vt 0.539657295 0.039191585
vt 0.803802788 0.381313741
vt 0.811123431 0.381313741
vt 0.811123431 0.352031291
vt 0.803802788 0.344710648
vt 0.986818612 0.344710648
vt 0.979498088 0.352031291
vt 0.986818612 0.381313741
vt 0.979497969 0.381313741
vt 0.803802788 0.308107495
vt 0.811123431 0.271504343
vt 0.803802788 0.271504343
vt 0.811123431 0.300786912
vt 0.986818612 0.308107495
vt 0.979497969 0.300786912
vt 0.979497969 0.271504343
vt 0.986818612 0.271504343
vt 0.533832133 0.0088881664
vt 0.503528237 0.00306234881
vt 0.503528237 0.00888792798
vt 0.539657533 0.00306258723
vt 0.533832014 0.0391914658
vt 0.539657176 0.0391914658
vt 0.803802788 0.344710648
vt 0.986818612 0.344710648
vt 0.986818612 0.308107495
vt 0.803802788 0.308107495
vt 0.803802907 0.344710648
vt 0.986818612 0.344710648
vt 0.986818612 0.308107495
vt 0.803802907 0.308107495
vt 0.803802788 0.344710588
vt 0.986818612 0.344710588
vt 0.986818612 0.308107436
vt 0.803802788 0.308107436
vt 0.803802788 0.344710648
vt 0.986818612 0.344710648
vt 0.986818612 0.308107495
vt 0.803802788 0.308107495
vt 0.650019228 0.140570834
vt 0.650019228 0.21598123
vt 0.66500324 0.21598123
vt 0.665003359 0.140570834
vt 0.650019228 0.21598123
vt 0.66500324 0.21598126
vt 0.665003359 0.140570834
vt 0.650019228 0.140570834
vt 0.533832133 0.0088881664
vt 0.503528237 0.00888792798
vt 0.503528237 0.00306246802
vt 0.539657414 0.00306270644
vt 0.533832014 0.039191585
vt 0.539657176 0.039191585
vt 0.650019228 0.2159812
vt 0.665003359 0.21598123
vt 0.665003359 0.140570834
vt 0.650019228 0.140570804
vt 0.650019228 0.140570804
vt 0.650019228 0.21598123
vt 0.66500324 0.21598123
vt 0.66500324 0.140570834
vt 0.533832252 0.0088881664
vt 0.503528237 0.00306234881
vt 0.503528237 0.00888792798
vt 0.539657533 0.00306258723
vt 0.533832133 0.0391914658
vt 0.539657295 0.0391914658
vt 0.533832014 0.0391914658
vt 0.533831894 0.221012786
vt 0.539657414 0.221012786
vt 0.539657295 0.0391914658
vt 0.920718074 0.217872381
vt 0.957321286 0.181269288
vt 0.920718074 0.181269288
vt 0.957321286 0.217872381
vt 0.957321286 0.254475534
vt 0.993924379 0.217872381
vt 0.993924379 0.254475534
vt 0.920718074 0.254475534
vt 0.884114981 0.217872381
vt 0.884114981 0.254475534
vt 0.920718074 0.291078687
vt 0.957321286 0.291078687
vt 0.650019228 0.21598126
vt 0.66500324 0.21598126
vt 0.66500324 0.140570834
vt 0.650019228 0.140570804
vt 0.650019228 0.140570804
vt 0.650019228 0.21598123
vt 0.66500324 0.21598123
vt 0.66500324 0.140570834
vt 0.533832133 0.0088881664
vt 0.539657176 0.039191585
vt 0.533832014 0.039191585
vt 0.539657414 0.00306270644
vt 0.503528237 0.00888792798
vt 0.503528237 0.00306246802
vt 0.533831894 0.221012905
vt 0.533832014 0.039191585
vt 0.539657176 0.039191585
vt 0.539657295 0.221012905
vt 0.650019228 0.140570804
vt 0.650019228 0.21598126
vt 0.66500324 0.21598126
vt 0.66500324 0.140570834
vt 0.650019228 0.21598123
vt 0.66500324 0.21598123
vt 0.66500324 0.140570834
vt 0.650019228 0.140570804
vt 0.533832252 0.0088881664
vt 0.533832133 0.0391917042
vt 0.539657295 0.0391917042
vt 0.539657533 0.00306258723
vt 0.503528237 0.00888792798
vt 0.503528237 0.00306234881
vt 0.539657295 0.0391917042
vt 0.533832133 0.0391917042
vt 0.533831894 0.221013024
vt 0.539657414 0.221013024
vt 0.539657295 0.221012905
vt 0.533831894 0.221012905
vt 0.533832014 0.039191585
vt 0.539657176 0.039191585
vt 0.533832014 0.221012786
vt 0.539657533 0.221012786
vt 0.539657295 0.0391914658
vt 0.533832133 0.0391914658
vt 0.533832014 0.039191585
vt 0.539657295 0.039191585
vt 0.539657414 0.221012905
vt 0.533831894 0.221012905
vt 0.539657176 0.0391914658
vt 0.533832014 0.0391914658
vt 0.533831894 0.221012786
vt 0.539657295 0.221012786
vn -1 0 0
vn -1 0 0
vn -1 0 0
vn -1 0 0
vn -1 0 0
vn -1 0 0
vn -1 0 0
vn -1 0 0
vn -0 1.1920929E-06 1
vn -0 1.1920929E-06 1
vn -0 1.1920929E-06 1
vn -0 1.1920929E-06 1
vn -0 -1.1920929E-06 1
vn -0 -1.1920929E-06 1
vn -0 -1.1920929E-06 1
vn -0 -1.1920929E-06 1
vn -2.17511428E-07 1 -4.35023225E-07
vn -2.17511428E-07 1 -4.35023253E-07
vn -2.17511399E-07 1 -4.35023225E-07
vn -2.17511399E-07 1 -4.35023225E-07
vn -0 1 0
vn -0 1 0
vn -0 0 -1
vn -0 0 -1
vn -0 0 -1
vn -0 0 -1
vn 1 0 0
vn 1 0 0
vn 1 0 0
vn 1 0 0
vn 1 0 0
vn 1 0 0
vn 1 0 0
vn 1 0 0
vn -0 1.1920929E-06 1
vn -0 1.1920929E-06 1
vn -0 1.1920929E-06 1
vn -0 1.1920929E-06 1
vn -1.19209278E-06 0 1
vn -1.1920929E-06 0 1
vn -0 -1.1920929E-06 1
vn -0 -1.1920929E-06 1
vn 2.17511428E-07 1 -4.35023225E-07
vn 2.17511399E-07 1 -4.35023225E-07
vn 2.17511428E-07 1 -4.35023253E-07
vn 2.17511399E-07 1 -4.35023225E-07
vn -0 1 0
vn -0 1 0
vn -0 -1 0
vn -0 -1 0
vn -0 -1 0
vn -0 -1 0
vn -0 -1 0
vn -0 -1 -3.81469761E-07
vn -0 -1 -3.81469761E-07
vn -0 -1 5.72204613E-07
vn -0 -1 1.14440923E-06
vn -0 -1 1.14440923E-06
vn -0 -1 0
vn -0 -1 0
vn -1 0 0
vn -1 0 0
vn -1 0 0
vn -1 0 0
vn -1 0 0
vn -1 0 0
vn -1 0 0
vn -1 0 0
vn -0 7.15255737E-07 -1
vn -0 7.15255737E-07 -1
vn -0 7.15255737E-07 -1
vn -0 7.15255737E-07 -1
vn -0 -7.15255737E-07 -1
vn -0 -7.15255737E-07 -1
vn -0 -7.15255737E-07 -1
vn -0 -7.15255737E-07 -1
vn 2.17511428E-07 1 -4.35023281E-07
vn 2.17511399E-07 1 -4.35023281E-07
vn 2.17511428E-07 1 -4.35023281E-07
vn 2.17511428E-07 1 -4.35023281E-07
vn -0 1 0
vn -0 1 0
vn 1 0 0
vn 1 0 0
vn 1 0 0
vn 1 0 0
vn 1 0 0
vn 1 0 0
vn 1 0 0
vn 1 0 0
vn -0 7.15255737E-07 -1
vn -0 7.15255737E-07 -1
vn -0 7.15255737E-07 -1
vn -0 7.15255737E-07 -1
vn -7.15255737E-07 0 -1
vn -7.15255794E-07 0 -1
vn -0 -7.15255737E-07 -1
vn -0 -7.15255737E-07 -1
vn -2.17511428E-07 1 -4.35023281E-07
vn -2.17511428E-07 1 -4.35023281E-07
vn -2.17511399E-07 1 -4.35023281E-07
vn -2.17511428E-07 1 -4.35023281E-07
vn -0 1 0
vn -0 1 0
vn 1 0 0
vn 1 0 0
vn 1 0 0
vn 1 0 0
vn -0 0 1
vn -0 0 1
vn -0 0 1
vn -0 0 1
vn -1 0 0
vn -1 0 0
vn -1 0 0
vn -1 0 0
vn -0 0 -1
vn -0 0 -1
vn -0 0 -1
vn -0 0 -1
vn -1 0 -1.99975702E-07
vn -1 0 -1.99975702E-07
vn -1 0 -1.99975716E-07
vn -1 0 -1.99975716E-07
vn -0 0 1
vn -0 0 1
vn -0 0 1
vn -0 0 1
vn -2.17511428E-07 -1 -4.35023225E-07
vn -2.17511399E-07 -1 -4.35023225E-07
vn -2.17511428E-07 -1 -4.35023253E-07
vn -2.17511399E-07 -1 -4.35023225E-07
vn -0 -1 0
vn -0 -1 0
vn 1 0 -1.99975688E-07
vn 1 0 -1.99975688E-07
vn 1 0 -1.99975688E-07
vn 1 0 -1.99975688E-07
vn -0 0 1
vn -0 0 1
vn -0 0 1
vn -0 0 1
vn 2.17511428E-07 -1 -4.35023225E-07
vn 2.17511428E-07 -1 -4.35023253E-07
vn 2.17511399E-07 -1 -4.35023225E-07
vn 2.17511399E-07 -1 -4.35023225E-07
vn -0 -1 0
vn -0 -1 0
vn -0 0 -1
vn -0 0 -1
vn -0 0 -1
vn -0 0 -1
vn -0 1 0
vn -0 1 0
vn -0 1 0
vn -0 1 0
vn -0 1 0
vn -0 1 -3.81469704E-07
vn -0 1 -3.81469704E-07
vn -0 1 5.72204556E-07
vn -0 1 1.14440911E-06
vn -0 1 1.14440911E-06
vn -0 1 0
vn -0 1 0
vn -1 0 1.99975759E-07
vn -1 0 1.99975773E-07
vn -1 0 1.99975773E-07
vn -1 0 1.99975759E-07
vn -0 0 -1
vn -0 0 -1
vn -0 0 -1
vn -0 0 -1
vn 2.17511428E-07 -1 -4.35023281E-07
vn 2.17511428E-07 -1 -4.35023281E-07
vn 2.17511399E-07 -1 -4.35023281E-07
vn 2.17511428E-07 -1 -4.35023281E-07
vn -0 -1 0
vn -0 -1 0
vn -0 0 1
vn -0 0 1
vn -0 0 1
vn -0 0 1
vn 1 0 1.9997573E-07
vn 1 0 1.9997573E-07
vn 1 0 1.9997573E-07
vn 1 0 1.9997573E-07
vn -0 0 -1
vn -0 0 -1
vn -0 0 -1
vn -0 0 -1
vn -2.17511428E-07 -1 -4.35023281E-07
vn -2.17511399E-07 -1 -4.35023281E-07
vn -2.17511428E-07 -1 -4.35023281E-07
vn -2.17511428E-07 -1 -4.35023281E-07
vn -0 -1 0
vn -0 -1 0
vn -0 0 1
vn -0 0 1
vn -0 0 1
vn -0 0 1
vn 1 0 0
vn 1 0 0
vn 1 0 0
vn 1 0 0
vn -1 0 0
vn -1 0 0
vn -1 0 0
vn -1 0 0
vn 1 0 0
vn 1 0 0
vn 1 0 0
vn 1 0 0
vn -1 0 0
vn -1 0 0
vn -1 0 0
vn -1 0 0
g flatsteel_column_large_solo_0
f 3/3/3 2/2/2 1/1/1
f 4/4/4 3/3/3 1/1/1
f 3/3/3 4/4/4 5/5/5
f 6/6/6 3/3/3 5/5/5
f 6/6/6 5/5/5 7/7/7
f 8/8/8 6/6/6 7/7/7
f 11/11/11 10/10/10 9/9/9
f 10/10/10 12/12/12 9/9/9
f 13/13/13 9/9/9 12/12/12
f 14/14/14 13/13/13 12/12/12
f 14/14/14 15/15/15 13/13/13
f 15/15/15 16/16/16 13/13/13
f 19/19/19 18/18/18 17/17/17
f 18/18/18 20/20/20 17/17/17
f 17/17/17 20/20/20 21/21/21
f 20/20/20 22/22/22 21/21/21
f 25/25/25 24/24/24 23/23/23
f 26/26/26 25/25/25 23/23/23
f 29/29/29 28/28/28 27/27/27
f 28/28/28 30/30/30 27/27/27
f 30/30/30 28/28/28 31/31/31
f 28/28/28 32/32/32 31/31/31
f 31/31/31 32/32/32 33/33/33
f 32/32/32 34/34/34 33/33/33
f 37/37/37 36/36/36 35/35/35
f 38/38/38 37/37/37 35/35/35
f 35/35/35 39/39/39 38/38/38
f 39/39/39 40/40/40 38/38/38
f 41/41/41 40/40/40 39/39/39
f 42/42/42 41/41/41 39/39/39
f 45/45/45 44/44/44 43/43/43
f 46/46/46 45/45/45 43/43/43
f 46/46/46 43/43/43 47/47/47
f 48/48/48 46/46/46 47/47/47
f 51/51/51 50/50/50 49/49/49
f 50/50/50 52/52/52 49/49/49
f 53/53/53 52/52/52 50/50/50
f 52/52/52 53/53/53 54/54/54
f 53/53/53 55/55/55 54/54/54
f 56/56/56 53/53/53 50/50/50
f 50/50/50 57/57/57 56/56/56
f 57/57/57 58/58/58 56/56/56
f 53/53/53 56/56/56 59/59/59
f 60/60/60 53/53/53 59/59/59
f 63/63/63 62/62/62 61/61/61
f 62/62/62 64/64/64 61/61/61
f 65/65/65 64/64/64 62/62/62
f 66/66/66 65/65/65 62/62/62
f 65/65/65 66/66/66 67/67/67
f 66/66/66 68/68/68 67/67/67
f 71/71/71 70/70/70 69/69/69
f 72/72/72 71/71/71 69/69/69
f 69/69/69 73/73/73 72/72/72
f 73/73/73 74/74/74 72/72/72
f 75/75/75 74/74/74 73/73/73
f 76/76/76 75/75/75 73/73/73
f 79/79/79 78/78/78 77/77/77
f 80/80/80 79/79/79 77/77/77
f 80/80/80 77/77/77 81/81/81
f 82/82/82 80/80/80 81/81/81
f 85/85/85 84/84/84 83/83/83
f 86/86/86 85/85/85 83/83/83
f 85/85/85 86/86/86 87/87/87
f 88/88/88 85/85/85 87/87/87
f 88/88/88 87/87/87 89/89/89
f 90/90/90 88/88/88 89/89/89
f 93/93/93 92/92/92 91/91/91
f 92/92/92 94/94/94 91/91/91
f 95/95/95 91/91/91 94/94/94
f 96/96/96 95/95/95 94/94/94
f 96/96/96 97/97/97 95/95/95
f 97/97/97 98/98/98 95/95/95
f 101/101/101 100/100/100 99/99/99
f 100/100/100 102/102/102 99/99/99
f 99/99/99 102/102/102 103/103/103
f 102/102/102 104/104/104 103/103/103
f 107/107/107 106/106/106 105/105/105
f 108/108/108 107/107/107 105/105/105
f 111/111/111 110/110/110 109/109/109
f 112/112/112 111/111/111 109/109/109
f 115/115/115 114/114/114 113/113/113
f 116/116/116 115/115/115 113/113/113
f 119/119/119 118/118/118 117/117/117
f 120/120/120 119/119/119 117/117/117
f 123/123/123 122/122/122 121/121/121
f 124/124/124 123/123/123 121/121/121
f 127/127/127 126/126/126 125/125/125
f 128/128/128 127/127/127 125/125/125
f 131/131/131 130/130/130 129/129/129
f 132/132/132 131/131/131 129/129/129
f 132/132/132 129/129/129 133/133/133
f 134/134/134 132/132/132 133/133/133
f 137/137/137 136/136/136 135/135/135
f 138/138/138 137/137/137 135/135/135
f 141/141/141 140/140/140 139/139/139
f 142/142/142 141/141/141 139/139/139
f 145/145/145 144/144/144 143/143/143
f 144/144/144 146/146/146 143/143/143
f 143/143/143 146/146/146 147/147/147
f 146/146/146 148/148/148 147/147/147
f 151/151/151 150/150/150 149/149/149
f 152/152/152 151/151/151 149/149/149
f 155/155/155 154/154/154 153/153/153
f 154/154/154 156/156/156 153/153/153
f 153/153/153 156/156/156 157/157/157
f 157/157/157 156/156/156 158/158/158
f 159/159/159 157/157/157 158/158/158
f 160/160/160 153/153/153 157/157/157
f 153/153/153 160/160/160 161/161/161
f 160/160/160 162/162/162 161/161/161
f 163/163/163 160/160/160 157/157/157
f 164/164/164 163/163/163 157/157/157
f 167/167/167 166/166/166 165/165/165
f 168/168/168 167/167/167 165/165/165
f 171/171/171 170/170/170 169/169/169
f 172/172/172 171/171/171 169/169/169
f 175/175/175 174/174/174 173/173/173
f 174/174/174 176/176/176 173/173/173
f 173/173/173 176/176/176 177/177/177
f 176/176/176 178/178/178 177/177/177
f 181/181/181 180/180/180 179/179/179
f 182/182/182 181/181/181 179/179/179
f 185/185/185 184/184/184 183/183/183
f 186/186/186 185/185/185 183/183/183
f 189/189/189 188/188/188 187/187/187
f 190/190/190 189/189/189 187/187/187
f 193/193/193 192/192/192 191/191/191
f 194/194/194 193/193/193 191/191/191
f 194/194/194 191/191/191 195/195/195
f 196/196/196 194/194/194 195/195/195
f 199/199/199 198/198/198 197/197/197
f 200/200/200 199/199/199 197/197/197
f 203/203/203 202/202/202 201/201/201
f 204/204/204 203/203/203 201/201/201
f 207/207/207 206/206/206 205/205/205
f 208/208/208 207/207/207 205/205/205
f 211/211/211 210/210/210 209/209/209
f 212/212/212 211/211/211 209/209/209
f 215/215/215 214/214/214 213/213/213
f 216/216/216 215/215/215 213/213/213
