g flatsteel_wall_01
v 0.5 -0.5 0.2
v 0.5 -0.5 -0.2
v -0.5 -0.5 -0.2
v -0.5 -0.5 0.2
v 0.5 0.5 0.2
v -0.5 0.5 0.2
v -0.5 0.5 -0.2
v 0.5 0.5 -0.2
v 0.5 -0.5 0.2
v 0.5 0.5 0.2
v 0.5 0.5 -0.2
v 0.5 -0.5 -0.2
v 0.5 -0.5 -0.2
v 0.5 0.5 -0.2
v -0.5 0.5 -0.2
v -0.5 -0.5 -0.2
v -0.5 -0.5 -0.2
v -0.5 0.5 -0.2
v -0.5 0.5 0.2
v -0.5 -0.5 0.2
v -0.5 -0.5 0.2
v -0.5 0.5 0.2
v 0.5 0.5 0.2
v 0.5 -0.5 0.2
vt 0.178810209 0.31441915
vt 0.178810209 0.24487482
vt 0.00494962186 0.24487482
vt 0.00494962186 0.31441915
vt 0.00494962186 0.31441915
vt 0.178810209 0.31441915
vt 0.178810209 0.24487482
vt 0.00494962186 0.24487482
vt 0.950174034 0.0738690123
vt 0.911119401 0.0738690123
vt 0.911119401 0.0894908682
vt 0.950174034 0.0894908905
vt 0.950442612 0.0185939297
vt 0.950442612 0.0576486066
vt 0.989497244 0.0576486066
vt 0.989497244 0.0185939297
vt 0.950174034 0.0579171404
vt 0.911119401 0.0579171404
vt 0.911119401 0.0735390037
vt 0.950174034 0.0735390112
vt 0.911119401 0.0185939297
vt 0.911119401 0.0576486066
vt 0.950174034 0.0576486066
vt 0.950174034 0.0185939297
vn 0 -1 0
vn 0 -1 0
vn 0 -1 0
vn 0 -1 0
vn 0 1 0
vn 0 1 0
vn 0 1 0
vn 0 1 0
vn 1 0 0
vn 1 0 0
vn 1 0 0
vn 1 0 0
vn 0 0 -1
vn 0 0 -1
vn 0 0 -1
vn 0 0 -1
vn -1 0 0
vn -1 0 0
vn -1 0 0
vn -1 0 0
vn 0 0 1
vn 0 0 1
vn 0 0 1
vn 0 0 1
g flatsteel_wall_01_0
f 3/3/3 2/2/2 1/1/1
f 4/4/4 3/3/3 1/1/1
f 7/7/7 6/6/6 5/5/5
f 8/8/8 7/7/7 5/5/5
f 11/11/11 10/10/10 9/9/9
f 12/12/12 11/11/11 9/9/9
f 15/15/15 14/14/14 13/13/13
f 16/16/16 15/15/15 13/13/13
f 19/19/19 18/18/18 17/17/17
f 20/20/20 19/19/19 17/17/17
f 23/23/23 22/22/22 21/21/21
f 24/24/24 23/23/23 21/21/21
