g FG_ColumnMiddle
v 0.3515625 -0.5 -0.3828125
v 0.3515625 0.5 -0.3828125
v 0.3515625 0.5 -0.3515625
v 0.3515625 -0.5 -0.3515625
v 0.3515625 0.5 -0.3828125
v 0.3828125 0.5 -0.3828125
v 0.3828125 0.5 -0.3515625
v 0.3515625 0.5 -0.3515625
v 0.3828125 0.5 -0.3828125
v 0.3828125 -0.5 -0.3828125
v 0.3828125 -0.5 -0.3515625
v 0.3828125 0.5 -0.3515625
v 0.3515625 -0.5 -0.3515625
v 0.3515625 0.5 -0.3515625
v 0.3828125 0.5 -0.3515625
v 0.3828125 -0.5 -0.3515625
v 0.3828125 -0.5 -0.3828125
v 0.3828125 0.5 -0.3828125
v 0.3515625 0.5 -0.3828125
v 0.3515625 -0.5 -0.3828125
v 0.3828125 -0.5 0.3515625
v 0.3828125 0.5 0.3515625
v 0.3515625 0.5 0.3515625
v 0.3515625 -0.5 0.3515625
v 0.3828125 0.5 0.3515625
v 0.3828125 0.5 0.3828125
v 0.3515625 0.5 0.3828125
v 0.3515625 0.5 0.3515625
v 0.3828125 0.5 0.3828125
v 0.3828125 -0.5 0.3828125
v 0.3515625 -0.5 0.3828125
v 0.3515625 0.5 0.3828125
v 0.3515625 -0.5 0.3515625
v 0.3515625 0.5 0.3515625
v 0.3515625 0.5 0.3828125
v 0.3515625 -0.5 0.3828125
v 0.3828125 -0.5 0.3828125
v 0.3828125 0.5 0.3828125
v 0.3828125 0.5 0.3515625
v 0.3828125 -0.5 0.3515625
v -0.3515625 -0.5 0.3828125
v -0.3515625 0.5 0.3828125
v -0.3515625 0.5 0.3515625
v -0.3515625 -0.5 0.3515625
v -0.3515625 0.5 0.3828125
v -0.3828125 0.5 0.3828125
v -0.3828125 0.5 0.3515625
v -0.3515625 0.5 0.3515625
v -0.3828125 0.5 0.3828125
v -0.3828125 -0.5 0.3828125
v -0.3828125 -0.5 0.3515625
v -0.3828125 0.5 0.3515625
v -0.3515625 -0.5 0.3515625
v -0.3515625 0.5 0.3515625
v -0.3828125 0.5 0.3515625
v -0.3828125 -0.5 0.3515625
v -0.3828125 -0.5 0.3828125
v -0.3828125 0.5 0.3828125
v -0.3515625 0.5 0.3828125
v -0.3515625 -0.5 0.3828125
v -0.3828125 -0.5 -0.3515625
v -0.3828125 0.5 -0.3515625
v -0.3515625 0.5 -0.3515625
v -0.3515625 -0.5 -0.3515625
v -0.3828125 0.5 -0.3515625
v -0.3828125 0.5 -0.3828125
v -0.3515625 0.5 -0.3828125
v -0.3515625 0.5 -0.3515625
v -0.3828125 0.5 -0.3828125
v -0.3828125 -0.5 -0.3828125
v -0.3515625 -0.5 -0.3828125
v -0.3515625 0.5 -0.3828125
v -0.3515625 -0.5 -0.3515625
v -0.3515625 0.5 -0.3515625
v -0.3515625 0.5 -0.3828125
v -0.3515625 -0.5 -0.3828125
v -0.3828125 -0.5 -0.3828125
v -0.3828125 0.5 -0.3828125
v -0.3828125 0.5 -0.3515625
v -0.3828125 -0.5 -0.3515625
v 0.357677609 0.5 0.37626037
v 0.357677609 -0.5 0.37626037
v -0.360316753 -0.5 0.37626037
v -0.360316753 0.5 0.37626037
v -0.37626037 0.5 0.360316753
v -0.37626037 -0.5 0.360316753
v -0.37626037 -0.5 -0.361484975
v -0.37626037 0.5 -0.361484975
v 0.357896119 -0.5 0.359215677
v 0.357896119 0.5 0.359215677
v -0.359215677 0.5 0.359215677
v -0.359215677 -0.5 0.359215677
v 0.359215677 -0.5 -0.360383898
v 0.359215677 0.5 -0.360383898
v 0.357896119 0.5 0.359215677
v 0.357896119 -0.5 0.359215677
v -0.357896119 -0.5 -0.360383898
v -0.357896119 0.5 -0.360383898
v 0.359215677 0.5 -0.360383898
v 0.359215677 -0.5 -0.360383898
v -0.359215677 -0.5 0.359215677
v -0.359215677 0.5 0.359215677
v -0.357896119 0.5 -0.360383898
v -0.357896119 -0.5 -0.360383898
v 0.37626037 0.5 -0.361484975
v 0.37626037 -0.5 -0.361484975
v 0.37626037 -0.5 0.360316753
v 0.37626037 0.5 0.360316753
v -0.357677609 0.5 -0.377427965
v -0.357677609 -0.5 -0.377427965
v 0.360316753 -0.5 -0.377427965
v 0.360316753 0.5 -0.377427965
vt 0.95125562 0.0419145152
vt 0.95125562 0.0502508134
vt 0.951564372 0.0502508134
vt 0.951564372 0.0419145152
vt 0.949876845 0.059925992
vt 0.950185716 0.059925992
vt 0.950185716 0.0596171804
vt 0.949876845 0.0596171804
vt 0.951057255 0.0502508134
vt 0.951057255 0.0419145152
vt 0.950748503 0.0419145152
vt 0.950748503 0.0502508134
vt 0.950241148 0.0419145152
vt 0.950241148 0.0502508134
vt 0.95055002 0.0502508134
vt 0.95055002 0.0419145152
vt 0.950042665 0.0502508134
vt 0.950042665 0.0419145264
vt 0.949734032 0.0419145264
vt 0.949734032 0.0502508134
vt 0.949535549 0.0502508134
vt 0.949535549 0.0419145264
vt 0.949226797 0.0419145264
vt 0.949226797 0.0502508134
vt 0.949678361 0.059925992
vt 0.949678361 0.0596171804
vt 0.949369729 0.0596171804
vt 0.949369729 0.059925992
vt 0.949028313 0.0502508134
vt 0.949028313 0.0419145152
vt 0.948719561 0.0419145152
vt 0.948719561 0.0502508134
vt 0.948212326 0.0419145152
vt 0.948212326 0.0502508134
vt 0.948521078 0.0502508134
vt 0.948521078 0.0419145152
vt 0.947704971 0.0419145152
vt 0.947704971 0.0502508134
vt 0.948013842 0.0502508134
vt 0.948013842 0.0419145152
vt 0.947197855 0.0419145152
vt 0.947197855 0.0502508134
vt 0.947506607 0.0502508134
vt 0.947506607 0.0419145152
vt 0.949171126 0.0580734722
vt 0.948862493 0.0580734722
vt 0.948862493 0.0583821982
vt 0.949171126 0.0583821982
vt 0.946999371 0.0502508134
vt 0.946999371 0.0419145152
vt 0.946690619 0.0419145152
vt 0.946690619 0.0502508134
vt 0.946492136 0.0502508134
vt 0.946492136 0.0419145152
vt 0.946183383 0.0419145152
vt 0.946183383 0.0502508134
vt 0.945676148 0.0419145152
vt 0.945676148 0.0502508134
vt 0.9459849 0.0502508134
vt 0.9459849 0.0419145152
vt 0.945168793 0.0419145152
vt 0.945168793 0.0502508134
vt 0.945477664 0.0502508134
vt 0.945477664 0.0419145152
vt 0.948355138 0.0580734722
vt 0.948355138 0.0583821982
vt 0.94866389 0.0583821982
vt 0.94866389 0.0580734722
vt 0.944661677 0.0419145152
vt 0.944661677 0.0502508134
vt 0.944970429 0.0502508134
vt 0.944970429 0.0419145152
vt 0.944154441 0.0419145152
vt 0.944154441 0.0502508134
vt 0.944463193 0.0502508134
vt 0.944463193 0.0419145152
vt 0.943647206 0.0419145152
vt 0.943647206 0.0502508134
vt 0.943955839 0.0502508134
vt 0.943955839 0.0419145152
vt 0.970135272 0.070544064
vt 0.970135272 0.0651900023
vt 0.966182768 0.0651900023
vt 0.966182768 0.070544064
vt 0.974230051 0.070544064
vt 0.974230051 0.0651900023
vt 0.970256567 0.0651900023
vt 0.970256567 0.070544064
vt 0.978309155 0.070544064
vt 0.978309155 0.0651900023
vt 0.974361479 0.0651900023
vt 0.974361479 0.070544064
vt 0.97843188 0.0651900023
vt 0.97843188 0.070544064
vt 0.982393146 0.070544064
vt 0.982393146 0.0651900023
vt 0.979863763 0.0706147105
vt 0.979863763 0.0759687722
vt 0.983811378 0.0759687722
vt 0.983811378 0.0706147105
vt 0.975793839 0.0706147105
vt 0.975793839 0.0759687722
vt 0.979755163 0.0759687722
vt 0.979755163 0.0706147105
vt 0.975685239 0.0759687722
vt 0.975685239 0.0706147105
vt 0.971711755 0.0706147105
vt 0.971711755 0.0759687722
vt 0.967650712 0.0706147105
vt 0.967650712 0.0759687722
vt 0.971603155 0.0759687722
vt 0.971603155 0.0706147105
vn -1 0 0
vn -1 0 0
vn -1 0 0
vn -1 0 0
vn -0 1 0
vn -0 1 0
vn -0 1 0
vn -0 1 0
vn 1 0 0
vn 1 0 0
vn 1 0 0
vn 1 0 0
vn -0 0 1
vn -0 0 1
vn -0 0 1
vn -0 0 1
vn -0 0 -1
vn -0 0 -1
vn -0 0 -1
vn -0 0 -1
vn -0 0 -1
vn -0 0 -1
vn -0 0 -1
vn -0 0 -1
vn -0 1 0
vn -0 1 0
vn -0 1 0
vn -0 1 0
vn -0 0 1
vn -0 0 1
vn -0 0 1
vn -0 0 1
vn -1 0 0
vn -1 0 0
vn -1 0 0
vn -1 0 0
vn 1 0 0
vn 1 0 0
vn 1 0 0
vn 1 0 0
vn 1 0 0
vn 1 0 0
vn 1 0 0
vn 1 0 0
vn -0 1 0
vn -0 1 0
vn -0 1 0
vn -0 1 0
vn -1 0 0
vn -1 0 0
vn -1 0 0
vn -1 0 0
vn -0 0 -1
vn -0 0 -1
vn -0 0 -1
vn -0 0 -1
vn -0 0 1
vn -0 0 1
vn -0 0 1
vn -0 0 1
vn -0 0 1
vn -0 0 1
vn -0 0 1
vn -0 0 1
vn -0 1 0
vn -0 1 0
vn -0 1 0
vn -0 1 0
vn -0 0 -1
vn -0 0 -1
vn -0 0 -1
vn -0 0 -1
vn 1 0 0
vn 1 0 0
vn 1 0 0
vn 1 0 0
vn -1 0 0
vn -1 0 0
vn -1 0 0
vn -1 0 0
vn -0 0 1
vn -0 0 1
vn -0 0 1
vn -0 0 1
vn -1 0 0
vn -1 0 0
vn -1 0 0
vn -1 0 0
vn -0 0 -1
vn -0 0 -1
vn -0 0 -1
vn -0 0 -1
vn -1 0 0
vn -1 0 0
vn -1 0 0
vn -1 0 0
vn -0 0 1
vn -0 0 1
vn -0 0 1
vn -0 0 1
vn 1 0 0
vn 1 0 0
vn 1 0 0
vn 1 0 0
vn 1 0 0
vn 1 0 0
vn 1 0 0
vn 1 0 0
vn -0 0 -1
vn -0 0 -1
vn -0 0 -1
vn -0 0 -1
g FG_ColumnMiddle_0
f 3/3/3 2/2/2 1/1/1
f 4/4/4 3/3/3 1/1/1
f 7/7/7 6/6/6 5/5/5
f 8/8/8 7/7/7 5/5/5
f 11/11/11 10/10/10 9/9/9
f 12/12/12 11/11/11 9/9/9
f 15/15/15 14/14/14 13/13/13
f 16/16/16 15/15/15 13/13/13
f 19/19/19 18/18/18 17/17/17
f 20/20/20 19/19/19 17/17/17
f 23/23/23 22/22/22 21/21/21
f 24/24/24 23/23/23 21/21/21
f 27/27/27 26/26/26 25/25/25
f 28/28/28 27/27/27 25/25/25
f 31/31/31 30/30/30 29/29/29
f 32/32/32 31/31/31 29/29/29
f 35/35/35 34/34/34 33/33/33
f 36/36/36 35/35/35 33/33/33
f 39/39/39 38/38/38 37/37/37
f 40/40/40 39/39/39 37/37/37
f 43/43/43 42/42/42 41/41/41
f 44/44/44 43/43/43 41/41/41
f 47/47/47 46/46/46 45/45/45
f 48/48/48 47/47/47 45/45/45
f 51/51/51 50/50/50 49/49/49
f 52/52/52 51/51/51 49/49/49
f 55/55/55 54/54/54 53/53/53
f 56/56/56 55/55/55 53/53/53
f 59/59/59 58/58/58 57/57/57
f 60/60/60 59/59/59 57/57/57
f 63/63/63 62/62/62 61/61/61
f 64/64/64 63/63/63 61/61/61
f 67/67/67 66/66/66 65/65/65
f 68/68/68 67/67/67 65/65/65
f 71/71/71 70/70/70 69/69/69
f 72/72/72 71/71/71 69/69/69
f 75/75/75 74/74/74 73/73/73
f 76/76/76 75/75/75 73/73/73
f 79/79/79 78/78/78 77/77/77
f 80/80/80 79/79/79 77/77/77
g FG_ColumnMiddle_1
f 83/83/83 82/82/82 81/81/81
f 84/84/84 83/83/83 81/81/81
f 87/87/87 86/86/86 85/85/85
f 88/88/88 87/87/87 85/85/85
f 91/91/91 90/90/90 89/89/89
f 92/92/92 91/91/91 89/89/89
f 95/95/95 94/94/94 93/93/93
f 96/96/96 95/95/95 93/93/93
f 99/99/99 98/98/98 97/97/97
f 100/100/100 99/99/99 97/97/97
f 103/103/103 102/102/102 101/101/101
f 104/104/104 103/103/103 101/101/101
f 107/107/107 106/106/106 105/105/105
f 108/108/108 107/107/107 105/105/105
f 111/111/111 110/110/110 109/109/109
f 112/112/112 111/111/111 109/109/109
