g flatsteel_window_01
v -0.4375 -0.4375 -0.0416666642
v 0.4375 -0.4375 -0.0416666642
v 0.4375 -0.4375 0.0416666642
v -0.4375 -0.4375 0.0416666642
v -0.4375 0.4375 -0.0416666642
v -0.4375 -0.4375 -0.0416666642
v -0.4375 -0.4375 0.0416666642
v -0.4375 0.4375 0.0416666642
v 0.46875 -0.46875 0.0416666642
v 0.46875 -0.46875 0.0625
v -0.46875 -0.46875 0.0625
v -0.46875 -0.46875 0.0416666642
v -0.46875 -0.46875 0.0416666642
v -0.46875 -0.46875 0.0625
v -0.46875 0.46875 0.0625
v -0.46875 0.46875 0.0416666642
v -0.46875 0.46875 0.0416666642
v -0.46875 0.46875 0.0625
v 0.46875 0.46875 0.0625
v 0.46875 0.46875 0.0416666642
v 0.46875 0.46875 0.0416666642
v 0.46875 0.46875 0.0625
v 0.46875 -0.46875 0.0625
v 0.46875 -0.46875 0.0416666642
v 0.4375 -0.4375 -0.0416666642
v 0.4375 0.4375 -0.0416666642
v 0.4375 0.4375 0.0416666642
v 0.4375 -0.4375 0.0416666642
v 0.4375 0.4375 -0.0416666642
v -0.4375 0.4375 -0.0416666642
v -0.4375 0.4375 0.0416666642
v 0.4375 0.4375 0.0416666642
v 0.5 -0.5 -0.0625
v -0.5 -0.5 -0.0625
v -0.5 -0.5 0.0625
v 0.5 -0.5 0.0625
v 0.5 -0.5 -0.0625
v 0.5 -0.5 0.0625
v 0.5 0.5 0.0625
v 0.5 0.5 -0.0625
v 0.5 0.5 -0.0625
v 0.5 0.5 0.0625
v -0.5 0.5 0.0625
v -0.5 0.5 -0.0625
v -0.5 -0.5 -0.0625
v -0.5 0.5 -0.0625
v -0.5 0.5 0.0625
v -0.5 -0.5 0.0625
v 0.46875 -0.46875 -0.0416666642
v -0.46875 -0.46875 -0.0416666642
v -0.46875 -0.46875 -0.0625
v 0.46875 -0.46875 -0.0625
v -0.46875 -0.46875 -0.0416666642
v -0.46875 0.46875 -0.0416666642
v -0.46875 0.46875 -0.0625
v -0.46875 -0.46875 -0.0625
v -0.46875 0.46875 -0.0416666642
v 0.46875 0.46875 -0.0416666642
v 0.46875 0.46875 -0.0625
v -0.46875 0.46875 -0.0625
v 0.46875 0.46875 -0.0416666642
v 0.46875 -0.46875 -0.0416666642
v 0.46875 -0.46875 -0.0625
v 0.46875 0.46875 -0.0625
v 0.46875 0.46875 -0.0416666642
v -0.46875 0.46875 -0.0416666642
v -0.4375 0.4375 -0.0416666642
v 0.4375 0.4375 -0.0416666642
v -0.4375 -0.4375 -0.0416666642
v 0.46875 -0.46875 -0.0416666642
v -0.46875 -0.46875 -0.0416666642
v 0.4375 -0.4375 -0.0416666642
v -0.4375 0.4375 0.0416666642
v -0.46875 0.46875 0.0416666642
v 0.46875 0.46875 0.0416666642
v 0.4375 0.4375 0.0416666642
v -0.4375 -0.4375 0.0416666642
v 0.46875 -0.46875 0.0416666642
v -0.46875 -0.46875 0.0416666642
v 0.4375 -0.4375 0.0416666642
v 0.46875 0.46875 -0.0625
v -0.5 0.5 -0.0625
v -0.46875 0.46875 -0.0625
v 0.5 0.5 -0.0625
v -0.5 -0.5 -0.0625
v 0.46875 -0.46875 -0.0625
v -0.46875 -0.46875 -0.0625
v 0.5 -0.5 -0.0625
v 0.5 0.5 0.0625
v 0.46875 -0.46875 0.0625
v 0.46875 0.46875 0.0625
v 0.5 -0.5 0.0625
v -0.5 0.5 0.0625
v -0.46875 -0.46875 0.0625
v -0.46875 0.46875 0.0625
v -0.5 -0.5 0.0625
v -0.4375 -0.4375 0.0208333321
v -0.4375 0.4375 0.0208333321
v 0.4375 0.4375 0.0208333321
v 0.4375 -0.4375 0.0208333321
v 0.4375 -0.4375 -0.0208333321
v 0.4375 0.4375 -0.0208333321
v -0.4375 0.4375 -0.0208333321
v -0.4375 -0.4375 -0.0208333321
vt 0.853687644 0.0570634007
vt 0.853687644 0.0475006104
vt 0.851794779 0.0475006104
vt 0.851794779 0.0570634007
vt 0.851657152 0.0570634007
vt 0.851657152 0.0475006104
vt 0.849764228 0.0475006104
vt 0.849764228 0.0570634007
vt 0.961470008 0.0403209925
vt 0.960270166 0.0403209925
vt 0.960270166 0.0595633984
vt 0.961470008 0.0595633984
vt 0.959997773 0.0403209329
vt 0.958797753 0.0403209329
vt 0.958797753 0.0595633984
vt 0.959997773 0.0595633984
vt 0.957325459 0.0595633984
vt 0.95852536 0.0595633984
vt 0.95852536 0.0403209329
vt 0.957325459 0.0403209329
vt 0.955853224 0.0595633984
vt 0.957053125 0.0595633984
vt 0.957053125 0.0403209329
vt 0.955853224 0.0403209329
vt 0.847733796 0.0475006104
vt 0.847733796 0.0570634007
vt 0.84962666 0.0570634007
vt 0.84962666 0.0475006104
vt 0.845703363 0.0475006104
vt 0.845703363 0.0570634604
vt 0.847596169 0.0570634604
vt 0.847596169 0.0475006104
vt 0.97934109 0.0403208733
vt 0.97934109 0.0604912043
vt 0.984935105 0.0604912043
vt 0.984935105 0.0403208733
vt 0.979068816 0.0403208733
vt 0.97347492 0.0403208733
vt 0.97347492 0.0604912043
vt 0.979068816 0.0604912043
vt 0.973202407 0.0403208733
vt 0.967608571 0.0403208733
vt 0.967608571 0.0604912043
vt 0.973202407 0.0604912043
vt 0.961742342 0.0403208733
vt 0.961742342 0.0604912043
vt 0.967336178 0.0604912043
vt 0.967336178 0.0403208733
vt 0.954380751 0.0403209925
vt 0.954380751 0.0595633984
vt 0.955580831 0.0595633984
vt 0.955580831 0.0403209925
vt 0.952908635 0.0403209329
vt 0.952908635 0.0595633984
vt 0.954108477 0.0595633984
vt 0.954108477 0.0403209329
vt 0.952636242 0.0595633984
vt 0.952636242 0.0403209329
vt 0.951436281 0.0403209329
vt 0.951436281 0.0595633984
vt 0.951163948 0.0595633984
vt 0.951163948 0.0403209329
vt 0.949964046 0.0403209329
vt 0.949964046 0.0595633984
vt 0.853825331 0.0475006104
vt 0.853825331 0.0589042306
vt 0.854745686 0.0579838753
vt 0.854745686 0.0484210551
vt 0.864308596 0.0579838753
vt 0.865229011 0.0475006104
vt 0.865229011 0.0589042306
vt 0.864308596 0.0484210551
vt 0.843809009 0.0464906693
vt 0.842888594 0.0474110842
vt 0.854292333 0.0474110842
vt 0.853371918 0.0464906693
vt 0.843809009 0.0369277894
vt 0.854292333 0.0360074341
vt 0.842888594 0.0360074341
vt 0.853371918 0.0369277894
vt 0.961697459 0.0204373896
vt 0.961233497 0.0401437283
vt 0.961697459 0.0396798253
vt 0.961233497 0.0199734569
vt 0.981403649 0.0401437283
vt 0.980939925 0.0204373896
vt 0.980939925 0.0396798253
vt 0.981403649 0.0199734569
vt 0.960890591 0.0401437879
vt 0.960426629 0.0204373896
vt 0.960426629 0.0396798253
vt 0.960890591 0.0199734569
vt 0.94072026 0.0401437879
vt 0.941184223 0.0204373896
vt 0.941184223 0.0396798253
vt 0.94072026 0.0199734569
vt 0.93005842 0.0726702064
vt 0.93005842 0.0739861876
vt 0.931374371 0.0739861876
vt 0.931374371 0.0726702064
vt 0.93005842 0.0726702064
vt 0.93005842 0.0739861876
vt 0.931374371 0.0739861876
vt 0.931374371 0.0726702064
vn -0 1 0
vn -0 1 0
vn -0 1 0
vn -0 1 0
vn 1 0 0
vn 1 0 0
vn 1 0 0
vn 1 0 0
vn -0 1 1.63944435E-07
vn -0 1 1.63944435E-07
vn -0 1 1.63944435E-07
vn -0 1 1.63944435E-07
vn 1 0 0
vn 1 0 0
vn 1 0 0
vn 1 0 0
vn -0 -1 0
vn -0 -1 0
vn -0 -1 0
vn -0 -1 0
vn -1 0 0
vn -1 0 0
vn -1 0 0
vn -1 0 0
vn -1 0 0
vn -1 0 0
vn -1 0 0
vn -1 0 0
vn -0 -1 0
vn -0 -1 0
vn -0 -1 0
vn -0 -1 0
vn -0 -1 0
vn -0 -1 0
vn -0 -1 0
vn -0 -1 0
vn 1 0 0
vn 1 0 0
vn 1 0 0
vn 1 0 0
vn -0 1 0
vn -0 1 0
vn -0 1 0
vn -0 1 0
vn -1 0 0
vn -1 0 0
vn -1 0 0
vn -1 0 0
vn -0 1 0
vn -0 1 0
vn -0 1 0
vn -0 1 0
vn 1 0 0
vn 1 0 0
vn 1 0 0
vn 1 0 0
vn -0 -1 0
vn -0 -1 0
vn -0 -1 0
vn -0 -1 0
vn -1 0 0
vn -1 0 0
vn -1 0 0
vn -1 0 0
vn -0 0 -1
vn -0 0 -1
vn -0 0 -1
vn -0 0 -1
vn -0 0 -1
vn -0 0 -1
vn -0 0 -1
vn -0 0 -1
vn -0 0 1
vn -0 0 1
vn -0 0 1
vn -0 0 1
vn -0 0 1
vn -0 0 1
vn -0 0 1
vn -0 0 1
vn -0 0 -1
vn -0 0 -1
vn -0 0 -1
vn -0 0 -1
vn -0 0 -1
vn -0 0 -1
vn -0 0 -1
vn -0 0 -1
vn -0 0 1
vn -0 0 1
vn -0 0 1
vn -0 0 1
vn -0 0 1
vn -0 0 1
vn -0 0 1
vn -0 0 1
vn -0 0 1
vn -0 0 1
vn -0 0 1
vn -0 0 1
vn -0 0 -1
vn -0 0 -1
vn -0 0 -1
vn -0 0 -1
g flatsteel_window_01_0
f 3/3/3 2/2/2 1/1/1
f 4/4/4 3/3/3 1/1/1
f 7/7/7 6/6/6 5/5/5
f 8/8/8 7/7/7 5/5/5
f 11/11/11 10/10/10 9/9/9
f 12/12/12 11/11/11 9/9/9
f 15/15/15 14/14/14 13/13/13
f 16/16/16 15/15/15 13/13/13
f 19/19/19 18/18/18 17/17/17
f 20/20/20 19/19/19 17/17/17
f 23/23/23 22/22/22 21/21/21
f 24/24/24 23/23/23 21/21/21
f 27/27/27 26/26/26 25/25/25
f 28/28/28 27/27/27 25/25/25
f 31/31/31 30/30/30 29/29/29
f 32/32/32 31/31/31 29/29/29
f 35/35/35 34/34/34 33/33/33
f 36/36/36 35/35/35 33/33/33
f 39/39/39 38/38/38 37/37/37
f 40/40/40 39/39/39 37/37/37
f 43/43/43 42/42/42 41/41/41
f 44/44/44 43/43/43 41/41/41
f 47/47/47 46/46/46 45/45/45
f 48/48/48 47/47/47 45/45/45
f 51/51/51 50/50/50 49/49/49
f 52/52/52 51/51/51 49/49/49
f 55/55/55 54/54/54 53/53/53
f 56/56/56 55/55/55 53/53/53
f 59/59/59 58/58/58 57/57/57
f 60/60/60 59/59/59 57/57/57
f 63/63/63 62/62/62 61/61/61
f 64/64/64 63/63/63 61/61/61
f 67/67/67 66/66/66 65/65/65
f 68/68/68 67/67/67 65/65/65
f 67/67/67 69/69/69 66/66/66
f 68/68/68 65/65/65 70/70/70
f 69/69/69 71/71/71 66/66/66
f 72/72/72 68/68/68 70/70/70
f 72/72/72 70/70/70 71/71/71
f 69/69/69 72/72/72 71/71/71
f 75/75/75 74/74/74 73/73/73
f 76/76/76 75/75/75 73/73/73
f 73/73/73 74/74/74 77/77/77
f 78/78/78 75/75/75 76/76/76
f 74/74/74 79/79/79 77/77/77
f 80/80/80 78/78/78 76/76/76
f 77/77/77 79/79/79 80/80/80
f 79/79/79 78/78/78 80/80/80
f 83/83/83 82/82/82 81/81/81
f 82/82/82 84/84/84 81/81/81
f 85/85/85 82/82/82 83/83/83
f 81/81/81 84/84/84 86/86/86
f 87/87/87 85/85/85 83/83/83
f 84/84/84 88/88/88 86/86/86
f 88/88/88 85/85/85 87/87/87
f 86/86/86 88/88/88 87/87/87
f 91/91/91 90/90/90 89/89/89
f 90/90/90 92/92/92 89/89/89
f 91/91/91 89/89/89 93/93/93
f 90/90/90 94/94/94 92/92/92
f 95/95/95 91/91/91 93/93/93
f 94/94/94 96/96/96 92/92/92
f 95/95/95 93/93/93 96/96/96
f 94/94/94 95/95/95 96/96/96
g flatsteel_window_01_1
f 99/99/99 98/98/98 97/97/97
f 100/100/100 99/99/99 97/97/97
f 103/103/103 102/102/102 101/101/101
f 104/104/104 103/103/103 101/101/101
