g MS_RoofCorner
v 0.4375 -0.5 -0.438668
v 0.5 -0.5 -0.438668
v 0.5 -0.5 -0.501168
v 0.5 -0.46862 -0.501168
v 0.5 -0.468556 -0.451285
v 0.450117 -0.468556 -0.451285
v 0.4375 -0.5 -0.438668
v 0.5 -0.5 -0.501168
v 0.4375 -0.5 -0.501168
v 0.5 -0.46862 -0.501168
v 0.450117 -0.468556 -0.451285
v 0.450117 -0.468556 -0.501168
v 0.5 0.5 0.469788
v 0.5 0.450054 0.469788
v 0.5 0.4375 0.501168
v 0.498831 0.5 0.5
v 0.5 0.4375 0.501168
v -0.5 0.4375 0.501168
v -0.498831 0.5 0.5
v 0.498831 0.5 0.5
v 0.5 0.450054 0.469788
v 0.5 0.5 0.469788
v -0.46862 0.5 0.469788
v -0.46862 0.450054 0.469788
v -0.5 0.4375 0.501168
v 0.5 0.4375 0.501168
v 0.46875 0.415403 0.479071
v -0.477903 0.415403 0.479071
v 0.5 0.450054 0.469788
v 0.5 -0.468556 -0.451285
v 0.5 -0.5 -0.438668
v 0.5 0.4375 0.501168
v 0.5 0.4375 0.501168
v 0.5 -0.5 -0.438668
v 0.46875 -0.477903 -0.416571
v 0.46875 0.415403 0.479071
v 0.5 0.450054 0.469788
v 0.46875 0.4375 0.456974
v 0.46875 -0.455806 -0.438668
v 0.5 -0.468556 -0.451285
v 0.5 -0.5 -0.438668
v 0.4375 -0.5 -0.438668
v 0.415403 -0.477903 -0.416571
v 0.46875 -0.477903 -0.416571
v 0.5 -0.468556 -0.451285
v 0.46875 -0.455806 -0.438668
v 0.4375 -0.455806 -0.438668
v 0.450117 -0.468556 -0.451285
v 0.46875 0.415403 0.479071
v 0.46875 0.4375 0.456974
v -0.455806 0.4375 0.456974
v -0.477903 0.415403 0.479071
v 0.46875 -0.477903 -0.416571
v 0.46875 -0.455806 -0.438668
v 0.46875 0.4375 0.456974
v 0.46875 0.415403 0.479071
v 0.5 -0.5 -0.501168
v 0.5 -0.5 -0.438668
v 0.5 -0.468556 -0.451285
v 0.5 -0.46862 -0.501168
v -0.46862 0.5 0.469788
v 0.5 0.5 0.469788
v 0.498831 0.5 0.5
v -0.498831 0.5 0.5
v -0.455806 0.4375 0.456974
v 0.46875 0.4375 0.456974
v 0.5 0.450054 0.469788
v -0.46862 0.450054 0.469788
v 0.4375 -0.455806 -0.438668
v 0.46875 -0.455806 -0.438668
v 0.46875 -0.477903 -0.416571
v 0.415403 -0.477903 -0.416571
v -0.46862 0.5 -0.5
v -0.498831 0.5 -0.5
v -0.5 0.4375 -0.501168
v -0.46862 0.450054 -0.501168
v -0.5 0.4375 -0.501168
v -0.498831 0.5 -0.5
v -0.498831 0.5 0.5
v -0.5 0.4375 0.501168
v -0.46862 0.450054 -0.501168
v -0.46862 0.450054 0.469788
v -0.46862 0.5 0.469788
v -0.46862 0.5 -0.5
v -0.5 0.4375 0.501168
v -0.477903 0.415403 0.479071
v -0.477903 0.415403 -0.469918
v -0.5 0.4375 -0.501168
v -0.46862 0.450054 -0.501168
v -0.5 0.4375 -0.501168
v 0.4375 -0.5 -0.501168
v 0.450117 -0.468556 -0.501168
v -0.5 0.4375 -0.501168
v -0.477903 0.415403 -0.469918
v 0.415403 -0.477903 -0.469918
v 0.4375 -0.5 -0.501168
v -0.46862 0.450054 -0.501168
v 0.450117 -0.468556 -0.501168
v 0.4375 -0.455806 -0.469918
v -0.455806 0.4375 -0.469918
v 0.4375 -0.5 -0.501168
v 0.415403 -0.477903 -0.469918
v 0.415403 -0.477903 -0.416571
v 0.4375 -0.5 -0.438668
v 0.450117 -0.468556 -0.501168
v 0.450117 -0.468556 -0.451285
v 0.4375 -0.455806 -0.438668
v 0.4375 -0.455806 -0.469918
v -0.455806 0.4375 0.456974
v -0.455806 0.4375 -0.469918
v -0.477903 0.415403 -0.469918
v -0.477903 0.415403 0.479071
v -0.46875 0.424556 0.469918
v 0.415403 -0.477903 -0.469918
v -0.477903 0.415403 -0.469918
v -0.455806 0.4375 -0.469918
v 0.4375 -0.455806 -0.469918
v 0.5 -0.5 -0.501168
v 0.5 -0.46862 -0.501168
v 0.450117 -0.468556 -0.501168
v 0.4375 -0.5 -0.501168
v -0.46862 0.5 0.469788
v -0.498831 0.5 0.5
v -0.498831 0.5 -0.5
v -0.46862 0.5 -0.5
v -0.455806 0.4375 0.456974
v -0.46862 0.450054 0.469788
v -0.46862 0.450054 -0.501168
v -0.455806 0.4375 -0.469918
v 0.4375 -0.455806 -0.438668
v 0.415403 -0.477903 -0.416571
v 0.415403 -0.477903 -0.469918
v 0.4375 -0.455806 -0.469918
v -0.461511 0.425905 0.484777
v 0.439997 -0.478359 -0.419068
v 0.431259 -0.491538 -0.432427
v -0.481205 0.423757 0.482372
v -0.483608 0.425905 0.462679
v 0.4179 -0.478359 -0.441165
v 0.440362 -0.46387 -0.463628
v -0.470868 0.450072 0.449939
v -0.468426 0.447417 0.469595
v -0.470868 0.450072 0.449939
v 0.440362 -0.46387 -0.463628
v 0.444056 -0.467842 -0.445225
v -0.461511 0.425905 0.484777
v -0.448695 0.450222 0.47196
v 0.462498 -0.463793 -0.441569
v 0.439997 -0.478359 -0.419068
v 0.431259 -0.491538 -0.432427
v 0.4179 -0.478359 -0.441165
v -0.483608 0.425905 0.462679
v -0.481205 0.423757 0.482372
v -0.448695 0.450222 0.47196
v -0.468426 0.447417 0.469595
v 0.444056 -0.467842 -0.445225
v 0.462498 -0.463793 -0.441569
v 0.5 0.5 0.469788
v 0.498831 0.5 -0.5
v 0.5 0.46875 -0.501168
v 0.5 0.46875 0.469788
v 0.5 0.46875 0.469788
v 0.5 0.46875 -0.501168
v 0.46875 0.46875 -0.469918
v 0.46875 0.46875 0.469788
v 0.5 0.5 0.469788
v 0.46875 0.5 0.469788
v 0.46875 0.5 -0.469918
v 0.498831 0.5 -0.5
v 0.498831 0.5 -0.5
v -0.46862 0.5 -0.5
v -0.46862 0.46875 -0.501168
v 0.5 0.46875 -0.501168
v 0.5 0.46875 -0.501168
v -0.46862 0.46875 -0.501168
v -0.46862 0.46875 -0.469918
v 0.46875 0.46875 -0.469918
v 0.498831 0.5 -0.5
v 0.46875 0.5 -0.469918
v -0.46862 0.5 -0.469918
v -0.46862 0.5 -0.5
v 0.46875 0.46875 -0.469918
v 0.46875 0.5 -0.469918
v 0.46875 0.5 0.469788
v 0.46875 0.46875 0.469788
v -0.46862 0.46875 -0.469918
v -0.46862 0.5 -0.469918
v 0.46875 0.5 -0.469918
v 0.46875 0.46875 -0.469918
v 0.5 0.46875 -0.501168
v 0.5 -0.468556 -0.501168
v 0.5 -0.468556 -0.469918
v 0.5 0.46875 -0.469918
v 0.46875 0.46875 -0.469918
v 0.5 0.46875 -0.469918
v 0.5 -0.468556 -0.469918
v 0.46875 -0.468556 -0.469918
v 0.46875 0.46875 -0.469918
v 0.46875 -0.468556 -0.469918
v 0.46875 -0.468556 -0.501168
v 0.46875 0.46875 -0.501168
v 0.46875 0.46875 -0.501168
v 0.46875 -0.468556 -0.501168
v 0.5 -0.468556 -0.501168
v 0.5 0.46875 -0.501168
v 0.477504 0.432898 0.467797
v -0.466629 0.432898 0.467797
v 0.439057 -0.472788 -0.440225
v 0.477504 -0.472788 -0.440225
v -0.477994 0.419089 0.479162
v 0.477504 0.420067 0.480628
v 0.477504 -0.485619 -0.427394
v 0.426226 -0.485619 -0.427394
v -0.466629 0.432898 -0.478672
v 0.439057 -0.472788 -0.478672
v 0.439057 -0.472788 -0.440225
v -0.466629 0.432898 0.467797
v -0.477994 0.419089 0.479162
v 0.426226 -0.485619 -0.427394
v 0.426226 -0.485619 -0.478672
v -0.47946 0.420067 -0.478672
v 0.49103 0.485619 -0.492198
v 0.49103 0.485619 0.492198
v -0.49103 0.485619 0.492198
v -0.49103 0.485619 -0.492198
v 0.49103 0.469177 0.492198
v 0.49103 0.469177 -0.492198
v -0.49103 0.469177 -0.492198
v -0.49103 0.469177 0.492198
v 0.477504 -0.472788 -0.440225
v 0.477504 -0.472788 -0.494894
v 0.477504 0.432898 -0.494894
v 0.477504 0.432898 0.467797
v 0.492418 0.420067 0.480628
v 0.492418 0.420067 -0.482062
v 0.492418 -0.485619 -0.482062
v 0.492418 -0.485619 -0.427394
v 0.477504 0.432898 -0.494894
v 0.477504 0.475085 -0.494894
v 0.477504 0.475085 0.467797
v 0.477504 0.432898 0.467797
v 0.492418 0.420067 0.480628
v 0.492418 0.474549 0.480628
v 0.492418 0.474549 -0.482062
v 0.492418 0.420067 -0.482062
v 0.439057 -0.472788 -0.478672
v -0.466629 0.432898 -0.478672
v 0.493726 0.432898 -0.478672
v 0.493726 -0.472788 -0.478672
v -0.47946 0.420067 -0.493586
v 0.426226 -0.485619 -0.493586
v 0.480894 -0.485619 -0.493586
v 0.480894 0.420067 -0.493586
v 0.493726 0.432898 -0.478672
v -0.466629 0.432898 -0.478672
v -0.466629 0.475085 -0.478672
v 0.493726 0.475085 -0.478672
v -0.47946 0.420067 -0.493586
v 0.480894 0.420067 -0.493586
v 0.480894 0.474549 -0.493586
v -0.47946 0.474549 -0.493586
vt 0.960253417 0.0488280952
vt 0.96029824 0.0488280952
vt 0.96029824 0.0487832427
vt 0.96029824 0.0487832427
vt 0.96029824 0.0488191843
vt 0.960262418 0.0488191843
vt 0.960253417 0.0488280952
vt 0.96029824 0.0487832427
vt 0.96029824 0.0488280952
vt 0.96029824 0.0487832427
vt 0.960262418 0.0488191843
vt 0.96029824 0.0488191843
vt 0.959988534 0.0486621261
vt 0.959954917 0.0486621261
vt 0.959954917 0.0486384928
vt 0.959996641 0.0486384928
vt 0.95993942 0.0488280952
vt 0.96029824 0.0488280952
vt 0.96029824 0.0487832427
vt 0.95993942 0.0487832427
vt 0.95993942 0.0488191843
vt 0.95993942 0.0487832427
vt 0.96027571 0.0487832427
vt 0.96027571 0.0488191843
vt 0.960285902 0.0486384928
vt 0.959954917 0.0486384928
vt 0.959954917 0.0486621261
vt 0.960280657 0.0486621261
vt 0.960285902 0.0486621261
vt 0.959963918 0.0486621559
vt 0.959954917 0.0486384928
vt 0.960285902 0.0486384928
vt 0.960285902 0.0486384928
vt 0.959954917 0.0486384928
vt 0.959954917 0.0486621261
vt 0.960285902 0.0486621261
vt 0.959954917 0.0486384928
vt 0.959954917 0.0486621261
vt 0.960285902 0.0486621261
vt 0.96028024 0.0486384928
vt 0.960285902 0.0486384928
vt 0.960244536 0.0486384928
vt 0.96024555 0.0486621261
vt 0.960285902 0.0486621261
vt 0.959955573 0.048648566
vt 0.959954917 0.0486621261
vt 0.959978521 0.0486621261
vt 0.959988475 0.048648566
vt 0.960287929 0.0487363338
vt 0.960287929 0.0487122834
vt 0.959961236 0.0487122834
vt 0.959944189 0.0487363338
vt 0.959951222 0.0487122834
vt 0.959951222 0.0487363338
vt 0.960287929 0.0487363338
vt 0.960287929 0.0487122834
vt 0.959996641 0.0486384928
vt 0.959954917 0.0486384928
vt 0.959954917 0.0486621261
vt 0.959988534 0.0486621261
vt 0.95997566 0.0486621261
vt 0.960285902 0.0486621261
vt 0.960285902 0.0486384928
vt 0.959954917 0.0486384928
vt 0.959964693 0.0486621261
vt 0.960285902 0.0486621261
vt 0.960285902 0.0486384928
vt 0.95997566 0.0486384928
vt 0.960263848 0.0487363338
vt 0.960287929 0.0487363338
vt 0.960287929 0.0487122834
vt 0.960246861 0.0487122834
vt 0.959988534 0.0486621261
vt 0.959996641 0.0486384928
vt 0.959954917 0.0486384928
vt 0.959954917 0.0486621261
vt 0.95993942 0.0488280952
vt 0.95993942 0.0487832427
vt 0.96029824 0.0487832427
vt 0.96029824 0.0488280952
vt 0.95993942 0.0488191843
vt 0.96027571 0.0488191843
vt 0.96027571 0.0487832427
vt 0.95993942 0.0487832427
vt 0.960285902 0.0486384928
vt 0.960280657 0.0486621261
vt 0.959954917 0.0486621261
vt 0.959954917 0.0486384928
vt 0.960285902 0.0486621261
vt 0.960285902 0.0486384928
vt 0.959954917 0.0486384928
vt 0.959963918 0.0486621559
vt 0.960285902 0.0486384928
vt 0.960285902 0.0486621261
vt 0.959954917 0.0486621261
vt 0.959954917 0.0486384928
vt 0.959954917 0.0486384928
vt 0.96028024 0.0486384928
vt 0.960285902 0.0486621261
vt 0.959954917 0.0486621261
vt 0.960285902 0.0486384928
vt 0.960285902 0.0486621261
vt 0.96024555 0.0486621261
vt 0.960244536 0.0486384928
vt 0.959955573 0.048648566
vt 0.959988475 0.048648566
vt 0.959978521 0.0486621261
vt 0.959954917 0.0486621261
vt 0.959961236 0.0487122834
vt 0.960287929 0.0487122834
vt 0.960287929 0.0487363338
vt 0.959944189 0.0487363338
vt 0.959951222 0.0487263799
vt 0.959951222 0.0487122834
vt 0.960287929 0.0487122834
vt 0.960287929 0.0487363338
vt 0.959951222 0.0487363338
vt 0.959996641 0.0486384928
vt 0.959988534 0.0486621261
vt 0.959954917 0.0486621261
vt 0.959954917 0.0486384928
vt 0.95997566 0.0486621261
vt 0.959954917 0.0486384928
vt 0.960285902 0.0486384928
vt 0.960285902 0.0486621261
vt 0.959964693 0.0486621261
vt 0.95997566 0.0486384928
vt 0.960285902 0.0486384928
vt 0.960285902 0.0486621261
vt 0.960263848 0.0487363338
vt 0.960246861 0.0487122834
vt 0.960287929 0.0487122834
vt 0.960287929 0.0487363338
vt 0.960285902 0.0486384928
vt 0.959954917 0.0486384928
vt 0.959954917 0.0486503243
vt 0.960285902 0.0486503243
vt 0.960285902 0.0486384928
vt 0.959954917 0.0486384928
vt 0.959963918 0.0486621559
vt 0.960285902 0.0486621261
vt 0.959954917 0.0486503243
vt 0.959954917 0.0486621261
vt 0.96028024 0.0486621261
vt 0.960283041 0.0486503243
vt 0.959951222 0.0487122834
vt 0.959951222 0.0487363338
vt 0.960287929 0.0487363338
vt 0.960287929 0.0487122834
vt 0.959954917 0.0486503243
vt 0.959954917 0.0486621261
vt 0.960285902 0.0486621261
vt 0.960285902 0.0486503243
vt 0.959954917 0.0486384928
vt 0.959954917 0.0486503243
vt 0.960283041 0.0486503243
vt 0.960285902 0.0486384928
vt 0.96026516 0.0486621261
vt 0.959954917 0.0486621261
vt 0.959954917 0.0486384928
vt 0.96026516 0.0486384928
vt 0.960281849 0.0486384928
vt 0.959954917 0.0486384928
vt 0.959954917 0.0486621261
vt 0.960265338 0.0486621261
vt 0.959958971 0.0486384928
vt 0.959975481 0.0486621261
vt 0.960285902 0.0486621261
vt 0.960285902 0.0486384928
vt 0.959954917 0.0486621261
vt 0.96026516 0.0486621261
vt 0.96026516 0.0486384928
vt 0.959954917 0.0486384928
vt 0.960285902 0.0486384928
vt 0.959966719 0.0486384928
vt 0.959966719 0.0486621261
vt 0.960285902 0.0486621261
vt 0.959954917 0.0486384928
vt 0.959954917 0.0486621261
vt 0.9602741 0.0486621261
vt 0.9602741 0.0486384928
vt 0.959951222 0.0487122834
vt 0.959951222 0.0487363338
vt 0.960287809 0.0487363338
vt 0.960287809 0.0487122834
vt 0.959951341 0.0487122834
vt 0.959951341 0.0487363338
vt 0.960287929 0.0487363338
vt 0.960287929 0.0487122834
vt 0.960294724 0.0487131774
vt 0.959995091 0.0487131774
vt 0.959995091 0.0487368405
vt 0.960294724 0.0487368405
vt 0.960294724 0.0486895442
vt 0.960294724 0.0487131774
vt 0.959995091 0.0487131774
vt 0.959995091 0.0486895442
vt 0.960294724 0.048665911
vt 0.959995091 0.048665911
vt 0.959995091 0.0486895442
vt 0.960294724 0.0486895442
vt 0.960294724 0.0486895442
vt 0.959995091 0.0486895442
vt 0.959995091 0.0487131774
vt 0.960294724 0.0487131774
vt 0.960318923 0.0490137339
vt 0.960318923 0.0490140021
vt 0.960319161 0.0490137637
vt 0.960319161 0.0490137339
vt 0.960318923 0.0490143001
vt 0.960318923 0.0490145683
vt 0.960319161 0.0490145683
vt 0.960319161 0.0490145385
vt 0.960318923 0.0490137339
vt 0.960319161 0.0490137339
vt 0.960319161 0.0490137637
vt 0.960318923 0.0490140021
vt 0.960318923 0.0490143001
vt 0.960319161 0.0490145385
vt 0.960319161 0.0490145683
vt 0.960318923 0.0490145683
vt 0.96006602 0.0486097336
vt 0.96006602 0.0487115681
vt 0.960167825 0.0487115681
vt 0.960167825 0.0486097336
vt 0.96006602 0.0488133729
vt 0.96006602 0.0489151776
vt 0.960167825 0.0489151776
vt 0.960167825 0.0488133729
vt 0.959913313 0.0486097336
vt 0.959913313 0.0490170121
vt 0.960320532 0.0490170121
vt 0.960320532 0.0486097336
vt 0.959913313 0.0486097336
vt 0.959913313 0.0490170121
vt 0.960320532 0.0490170121
vt 0.960320532 0.0486097336
vt 0.959913313 0.0486097336
vt 0.959913313 0.0490170121
vt 0.960320532 0.0490170121
vt 0.960320532 0.0486097336
vt 0.959913313 0.0486097336
vt 0.959913313 0.0490170121
vt 0.960320532 0.0490170121
vt 0.960320532 0.0486097336
vt 0.959913313 0.0486097336
vt 0.960320532 0.0486097336
vt 0.960320532 0.0490170121
vt 0.959913313 0.0490170121
vt 0.959913313 0.0486097336
vt 0.960320532 0.0486097336
vt 0.960320532 0.0490170121
vt 0.959913313 0.0490170121
vt 0.959913313 0.0486097336
vt 0.960320532 0.0486097336
vt 0.960320532 0.0490170121
vt 0.959913313 0.0490170121
vt 0.959913313 0.0486097336
vt 0.960320532 0.0486097336
vt 0.960320532 0.0490170121
vt 0.959913313 0.0490170121
vn 0 -1 0
vn 0 -1 0
vn 0 -1 0
vn 0.000638743 1 -0.000638672
vn 0 0.999999 -0.00127734
vn 0.000638743 1 -0.000638672
vn 0 -1 0
vn 0 -1 0
vn 0 -1 0
vn 0.000638743 1 -0.000638672
vn 0.000638743 1 -0.000638672
vn 0.00127749 0.999999 0
vn 0.99972 0.0106125 0.0211345
vn 0.999998 0.000881849 0.00175618
vn 0.999998 0.000895942 0.00178424
vn 0.99972 0.0106125 0.0211345
vn 0 0.0186881 0.999825
vn 0 0.0186881 0.999825
vn 0 0.0186881 0.999825
vn 0 0.0186881 0.999825
vn 0 0 -1
vn 0 0 -1
vn 0 0 -1
vn 0 0 -1
vn 0 -0.707108 0.707106
vn 0 -0.707108 0.707106
vn 0 -0.707108 0.707106
vn 0 -0.707108 0.707106
vn 0.999998 0.000881849 0.00175618
vn 1 0 0
vn 1 0 0
vn 0.999998 0.000895942 0.00178424
vn 0 -0.707107 0.707107
vn 0 -0.707107 0.707107
vn 0 -0.707107 0.707107
vn 0 -0.707107 0.707107
vn 0.00445571 0.707156 -0.707044
vn 0.00445571 0.707156 -0.707044
vn 0.00445571 0.707156 -0.707044
vn 0.00445571 0.707156 -0.707044
vn 0 -0.707108 0.707106
vn 0 -0.707108 0.707106
vn 0 -0.707108 0.707106
vn 0 -0.707108 0.707106
vn 0 0.703382 -0.710812
vn 0 0.703382 -0.710812
vn 0 0.703382 -0.710812
vn 0 0.703382 -0.710812
vn 0 -0.707108 -0.707106
vn 0 -0.707108 -0.707106
vn 0 -0.707108 -0.707106
vn 0 -0.707108 -0.707106
vn -1 1.93129e-06 0
vn -1 1.93129e-06 0
vn -1 1.93129e-06 0
vn -1 1.93129e-06 0
vn 1 0 0
vn 1 0 0
vn 1 0 0
vn 1 0 0
vn 0 1 0
vn 0 1 0
vn 0 1 0
vn 0 1 0
vn 0 0.714333 -0.699806
vn 0 0.714333 -0.699806
vn 0 0.714333 -0.699806
vn 0 0.714333 -0.699806
vn 0 0.707108 0.707105
vn 0 0.707108 0.707105
vn 0 0.707108 0.707105
vn 0 0.707108 0.707105
vn -0.0042417 0.0208176 -0.999774
vn -0.0042417 0.0208176 -0.999774
vn -0.000359487 0.00175739 -0.999998
vn -0.00035384 0.00172966 -0.999998
vn -0.999825 0.0186916 0
vn -0.999825 0.0186915 0
vn -0.999825 0.0186915 0
vn -0.999825 0.0186916 0
vn 1 0 0
vn 1 0 0
vn 1 0 0
vn 1 0 0
vn -0.707104 -0.707109 0
vn -0.707104 -0.707109 0
vn -0.707104 -0.707109 0
vn -0.707104 -0.707109 0
vn -0.00035384 0.00172966 -0.999998
vn -0.000359487 0.00175739 -0.999998
vn -1.40508e-06 0 -1
vn -1.40879e-06 0 -1
vn -0.707107 -0.707107 0
vn -0.707107 -0.707107 0
vn -0.707107 -0.707107 0
vn -0.707107 -0.707107 0
vn 0.707044 0.707155 -0.00445605
vn 0.707044 0.707155 -0.00445605
vn 0.707044 0.707155 -0.00445605
vn 0.707044 0.707155 -0.00445605
vn -0.707104 -0.707109 0
vn -0.707104 -0.707109 0
vn -0.707104 -0.707109 0
vn -0.707104 -0.707109 0
vn 0.710815 0.703379 0
vn 0.710815 0.703379 0
vn 0.710815 0.703379 0
vn 0.710815 0.703379 0
vn 0.707107 -0.707107 0
vn 0.707107 -0.707107 0
vn 0.707107 -0.707107 0
vn 0.707107 -0.707107 0
vn 0.707107 -0.707107 0
vn 0 0 1
vn 0 0 1
vn 0 0 1
vn 0 0 1
vn 0 0 -1
vn 0 0 -1
vn -1.40879e-06 0 -1
vn -1.40508e-06 0 -1
vn 0 1 0
vn 0 1 0
vn 0 1 0
vn 0 1 0
vn 0.699809 0.71433 0
vn 0.699809 0.71433 0
vn 0.699809 0.71433 0
vn 0.699809 0.71433 0
vn -0.707103 0.70711 0
vn -0.707103 0.70711 0
vn -0.707103 0.70711 0
vn -0.707103 0.70711 0
vn -0.00873456 -0.709012 0.705142
vn -0.00873456 -0.709012 0.705142
vn -0.00873456 -0.709012 0.705142
vn -0.00873456 -0.709012 0.705142
vn -0.707107 0 -0.707106
vn -0.707107 0 -0.707106
vn -0.707107 0 -0.707106
vn -0.707107 0 -0.707106
vn 0.71297 0.701158 0.00713898
vn 0.71297 0.701158 0.00713898
vn 0.71297 0.701158 0.00713898
vn 0.71297 0.701158 0.00713898
vn 0.707109 9.27373e-07 0.707105
vn 0.707109 9.27373e-07 0.707105
vn 0.707109 9.27373e-07 0.707105
vn 0.707109 9.27373e-07 0.707105
vn -0.705144 -0.70901 0.00873667
vn -0.705144 -0.70901 0.00873667
vn -0.705144 -0.70901 0.00873667
vn -0.705144 -0.70901 0.00873667
vn -0.0125023 0.698376 -0.715622
vn -0.0125023 0.698376 -0.715622
vn -0.0125023 0.698376 -0.715622
vn -0.0125023 0.698376 -0.715622
vn 1 0 0
vn 1 0 0
vn 1 0 0
vn 1 0 0
vn 0 -1 0
vn 0 -1 0
vn 0 -1 0
vn 0 -1 0
vn 0 1 0
vn 0 1 0
vn 0 1 0
vn 0 1 0
vn 0 0 -1
vn 0 0 -1
vn 0 0 -1
vn 0 0 -1
vn 0 -1 0
vn 0 -1 0
vn 0 -1 0
vn 0 -1 0
vn 0 1 0
vn 0 1 0
vn 0 1 0
vn 0 1 0
vn -1 0 0
vn -1 0 0
vn -1 0 0
vn -1 0 0
vn 0 0 1
vn 0 0 1
vn 0 0 1
vn 0 0 1
vn 1 0 0
vn 1 0 0
vn 1 0 0
vn 1 0 0
vn 0 0 1
vn 0 0 1
vn 0 0 1
vn 0 0 1
vn -1 0 0
vn -1 0 0
vn -1 0 0
vn -1 0 0
vn 0 0 -1
vn 0 0 -1
vn 0 0 -1
vn 0 0 -1
vn 0 0.707107 -0.707107
vn 0 0.707107 -0.707107
vn 0 0.707107 -0.707107
vn 0 0.707107 -0.707107
vn -0.000682323 -0.707064 0.70715
vn -0.000682323 -0.707064 0.70715
vn -0.000682323 -0.707064 0.70715
vn -0.000682323 -0.707064 0.70715
vn 0.707107 0.707107 0
vn 0.707107 0.707107 0
vn 0.707107 0.707107 0
vn 0.707107 0.707107 0
vn -0.70715 -0.707064 0.000682062
vn -0.70715 -0.707064 0.000682062
vn -0.70715 -0.707064 0.000682062
vn -0.70715 -0.707064 0.000682062
vn 0 1 0
vn 0 1 0
vn 0 1 0
vn 0 1 0
vn 0 -1 0
vn 0 -1 0
vn 0 -1 0
vn 0 -1 0
vn -1 2.33697e-07 0
vn -1 2.33697e-07 0
vn -1 2.33697e-07 0
vn -1 2.33697e-07 0
vn 1 0 0
vn 1 0 0
vn 1 0 0
vn 1 0 0
vn -1 0 0
vn -1 0 0
vn -1 0 0
vn -1 0 0
vn 1 0 0
vn 1 0 0
vn 1 0 0
vn 1 0 0
vn 0 2.33697e-07 1
vn 0 2.33697e-07 1
vn 0 2.33697e-07 1
vn 0 2.33697e-07 1
vn 0 0 -1
vn 0 0 -1
vn 0 0 -1
vn 0 0 -1
vn 0 0 1
vn 0 0 1
vn 0 0 1
vn 0 0 1
vn 0 0 -1
vn 0 0 -1
vn 0 0 -1
vn 0 0 -1
g MS_RoofCorner_0
f 3/3/3 2/2/2 1/1/1
f 6/6/6 5/5/5 4/4/4
f 9/9/9 8/8/8 7/7/7
f 12/12/12 11/11/11 10/10/10
f 15/15/15 14/14/14 13/13/13
f 16/16/16 15/15/15 13/13/13
f 19/19/19 18/18/18 17/17/17
f 20/20/20 19/19/19 17/17/17
f 23/23/23 22/22/22 21/21/21
f 24/24/24 23/23/23 21/21/21
f 27/27/27 26/26/26 25/25/25
f 28/28/28 27/27/27 25/25/25
f 31/31/31 30/30/30 29/29/29
f 32/32/32 31/31/31 29/29/29
f 35/35/35 34/34/34 33/33/33
f 36/36/36 35/35/35 33/33/33
f 39/39/39 38/38/38 37/37/37
f 40/40/40 39/39/39 37/37/37
f 43/43/43 42/42/42 41/41/41
f 44/44/44 43/43/43 41/41/41
f 47/47/47 46/46/46 45/45/45
f 48/48/48 47/47/47 45/45/45
f 51/51/51 50/50/50 49/49/49
f 52/52/52 51/51/51 49/49/49
f 55/55/55 54/54/54 53/53/53
f 56/56/56 55/55/55 53/53/53
f 59/59/59 58/58/58 57/57/57
f 60/60/60 59/59/59 57/57/57
f 63/63/63 62/62/62 61/61/61
f 64/64/64 63/63/63 61/61/61
f 67/67/67 66/66/66 65/65/65
f 68/68/68 67/67/67 65/65/65
f 71/71/71 70/70/70 69/69/69
f 72/72/72 71/71/71 69/69/69
f 75/75/75 74/74/74 73/73/73
f 76/76/76 75/75/75 73/73/73
f 79/79/79 78/78/78 77/77/77
f 80/80/80 79/79/79 77/77/77
f 83/83/83 82/82/82 81/81/81
f 84/84/84 83/83/83 81/81/81
f 87/87/87 86/86/86 85/85/85
f 88/88/88 87/87/87 85/85/85
f 91/91/91 90/90/90 89/89/89
f 92/92/92 91/91/91 89/89/89
f 95/95/95 94/94/94 93/93/93
f 96/96/96 95/95/95 93/93/93
f 99/99/99 98/98/98 97/97/97
f 100/100/100 99/99/99 97/97/97
f 103/103/103 102/102/102 101/101/101
f 104/104/104 103/103/103 101/101/101
f 107/107/107 106/106/106 105/105/105
f 108/108/108 107/107/107 105/105/105
f 111/111/111 110/110/110 109/109/109
f 109/109/109 112/112/112 111/111/111
f 109/109/109 113/113/113 112/112/112
f 116/116/116 115/115/115 114/114/114
f 117/117/117 116/116/116 114/114/114
f 120/120/120 119/119/119 118/118/118
f 121/121/121 120/120/120 118/118/118
f 124/124/124 123/123/123 122/122/122
f 125/125/125 124/124/124 122/122/122
f 128/128/128 127/127/127 126/126/126
f 129/129/129 128/128/128 126/126/126
f 132/132/132 131/131/131 130/130/130
f 133/133/133 132/132/132 130/130/130
f 136/136/136 135/135/135 134/134/134
f 137/137/137 136/136/136 134/134/134
f 140/140/140 139/139/139 138/138/138
f 141/141/141 140/140/140 138/138/138
f 144/144/144 143/143/143 142/142/142
f 145/145/145 144/144/144 142/142/142
f 148/148/148 147/147/147 146/146/146
f 149/149/149 148/148/148 146/146/146
f 152/152/152 151/151/151 150/150/150
f 153/153/153 152/152/152 150/150/150
f 156/156/156 155/155/155 154/154/154
f 157/157/157 156/156/156 154/154/154
f 160/160/160 159/159/159 158/158/158
f 161/161/161 160/160/160 158/158/158
f 164/164/164 163/163/163 162/162/162
f 165/165/165 164/164/164 162/162/162
f 168/168/168 167/167/167 166/166/166
f 169/169/169 168/168/168 166/166/166
f 172/172/172 171/171/171 170/170/170
f 173/173/173 172/172/172 170/170/170
f 176/176/176 175/175/175 174/174/174
f 177/177/177 176/176/176 174/174/174
f 180/180/180 179/179/179 178/178/178
f 181/181/181 180/180/180 178/178/178
f 184/184/184 183/183/183 182/182/182
f 185/185/185 184/184/184 182/182/182
f 188/188/188 187/187/187 186/186/186
f 189/189/189 188/188/188 186/186/186
f 192/192/192 191/191/191 190/190/190
f 193/193/193 192/192/192 190/190/190
f 196/196/196 195/195/195 194/194/194
f 197/197/197 196/196/196 194/194/194
f 200/200/200 199/199/199 198/198/198
f 201/201/201 200/200/200 198/198/198
f 204/204/204 203/203/203 202/202/202
f 205/205/205 204/204/204 202/202/202
g MS_RoofCorner_1
f 208/208/208 207/207/207 206/206/206
f 209/209/209 208/208/208 206/206/206
f 212/212/212 211/211/211 210/210/210
f 213/213/213 212/212/212 210/210/210
f 216/216/216 215/215/215 214/214/214
f 217/217/217 216/216/216 214/214/214
f 220/220/220 219/219/219 218/218/218
f 221/221/221 220/220/220 218/218/218
f 224/224/224 223/223/223 222/222/222
f 225/225/225 224/224/224 222/222/222
f 228/228/228 227/227/227 226/226/226
f 229/229/229 228/228/228 226/226/226
f 232/232/232 231/231/231 230/230/230
f 233/233/233 232/232/232 230/230/230
f 236/236/236 235/235/235 234/234/234
f 237/237/237 236/236/236 234/234/234
f 240/240/240 239/239/239 238/238/238
f 241/241/241 240/240/240 238/238/238
f 244/244/244 243/243/243 242/242/242
f 245/245/245 244/244/244 242/242/242
f 248/248/248 247/247/247 246/246/246
f 249/249/249 248/248/248 246/246/246
f 252/252/252 251/251/251 250/250/250
f 253/253/253 252/252/252 250/250/250
f 256/256/256 255/255/255 254/254/254
f 257/257/257 256/256/256 254/254/254
f 260/260/260 259/259/259 258/258/258
f 261/261/261 260/260/260 258/258/258
