g GlassPaneHorizontal
v -0.5 0.125 -0.5
v 0.5 0.125 -0.5
v 0.5 0.125 0.5
v -0.5 0.125 0.5
v 0.5 -0.125 -0.5
v -0.5 -0.125 -0.5
v 0.5 -0.125 0.5
v -0.5 -0.125 0.5
v -0.5 -0.125 0.5
v -0.5 0.125 0.5
v 0.5 -0.125 0.5
v 0.5 0.125 0.5
v -0.5 -0.125 -0.5
v -0.5 0.125 -0.5
v -0.5 -0.125 0.5
v -0.5 0.125 0.5
v 0.5 -0.125 0.5
v 0.5 0.125 0.5
v 0.5 -0.125 -0.5
v 0.5 0.125 -0.5
v 0.5 -0.125 -0.5
v 0.5 0.125 -0.5
v -0.5 -0.125 -0.5
v -0.5 0.125 -0.5
vt 1 1
vt 1 1.49046073E-08
vt 1.48390349E-08 1.49046073E-08
vt 1.48390402E-08 1
vt 1.5403451E-08 1.5074674E-08
vt 7.79325049E-09 1
vt 1 8.73013395E-09
vt 1 1
vt 0.443927467 0.992576599
vt 0.505726159 0.992576659
vt 0.44393301 0.00369157223
vt 0.505726159 0.0037804544
vt 0.443927437 0.992576599
vt 0.505726159 0.992576659
vt 0.44393301 0.00369157083
vt 0.505726159 0.0037804544
vt 0.443927437 0.992576599
vt 0.505726159 0.992576659
vt 0.44393301 0.00369156711
vt 0.505726159 0.0037804544
vt 0.443927437 0.992576599
vt 0.505726159 0.992576659
vt 0.44393301 0.0036915692
vt 0.505726159 0.0037804544
vn -0 1 0
vn -0 1 0
vn -0 1 0
vn -0 1 0
vn -0 -1 0
vn -0 -1 0
vn -0 -1 0
vn -0 -1 0
vn -0 0 1
vn -0 0 1
vn -0 0 1
vn -0 0 1
vn -1 0 0
vn -1 0 0
vn -1 0 0
vn -1 0 0
vn 1 0 0
vn 1 0 0
vn 1 0 0
vn 1 0 0
vn -0 0 -1
vn -0 0 -1
vn -0 0 -1
vn -0 0 -1
g GlassPaneHorizontal_0
f 3/3/3 2/2/2 1/1/1
f 1/1/1 4/4/4 3/3/3
f 7/7/7 6/6/6 5/5/5
f 7/7/7 8/8/8 6/6/6
f 11/11/11 10/10/10 9/9/9
f 11/11/11 12/12/12 10/10/10
f 15/15/15 14/14/14 13/13/13
f 15/15/15 16/16/16 14/14/14
f 19/19/19 18/18/18 17/17/17
f 19/19/19 20/20/20 18/18/18
f 23/23/23 22/22/22 21/21/21
f 23/23/23 24/24/24 22/22/22
