g MS_RoofInnerCorner
v 0.5 -0.375 0.5
v -0.375 0.5 0.5
v -0.375 0.5 -0.375
v 0.5 0.5 -0.375
v 0.5 -0.375 0.5
v -0.375 0.5 -0.375
v 0.5 -0.5 -0.5
v 0.5 -0.5 0.375
v 0.5 0.375 -0.5
v 0.375 -0.5 0.5
v -0.5 -0.5 0.5
v -0.5 0.375 0.5
v -0.5 0.5 -0.5
v -0.5 0.5 0.5
v -0.5 0.375 0.5
v -0.5 -0.5 -0.5
v -0.5 -0.5 0.5
v -0.375 0.5 0.5
v 0.5 -0.375 0.5
v 0.5 -0.5 0.5
v 0.375 -0.5 0.5
v -0.5 0.375 0.5
v -0.5 0.5 0.5
v 0.5 0.375 -0.5
v 0.5 0.5 -0.5
v -0.5 0.5 -0.5
v 0.5 -0.5 -0.5
v -0.5 -0.5 -0.5
v 0.5 0.375 -0.5
v 0.5 -0.5 0.375
v 0.5 -0.5 0.5
v 0.5 -0.375 0.5
v 0.5 0.5 -0.375
v 0.5 0.5 -0.5
v 0.375 -0.5 0.5
v 0.5 -0.5 0.5
v 0.5 -0.5 0.375
v 0.375 -0.5 0.375
v -0.5 0.5 0.5
v -0.5 0.5 -0.5
v -0.375 0.5 -0.375
v -0.375 0.5 0.5
v 0.5 0.5 -0.5
v 0.5 0.5 -0.375
v -0.375 0.5 -0.375
v -0.5 0.5 -0.5
v 0.5 -0.5 0.375
v 0.5 -0.5 -0.5
v -0.5 -0.5 -0.5
v 0.375 -0.5 0.375
v -0.5 -0.5 0.5
v 0.375 -0.5 0.5
vt 0.314125538 0.62867856
vt 0.314125538 0.992852271
vt 0.580113947 0.992852271
vt 0.314125538 0.992852271
vt 0.314125538 0.62867856
vt 0.580113947 0.992852271
vt 0.848795772 0.0465707779
vt 0.848795772 0.0491803885
vt 0.851405263 0.0465707779
vt 0.846147537 0.0465707779
vt 0.846147537 0.0491803885
vt 0.848757148 0.0491803885
vt 0.848130107 0.0465457141
vt 0.848130107 0.043563351
vt 0.84775722 0.043563351
vt 0.84514761 0.0465457141
vt 0.84514761 0.043563351
vt 0.399898231 0.0556559265
vt 0.0393269658 0.0556558669
vt 0.0135723948 0.0311478823
vt 0.0393274426 0.00732012093
vt 0.399897754 0.00732013583
vt 0.425652385 0.031147927
vt 0.848546028 0.043563351
vt 0.848173261 0.043563351
vt 0.848173261 0.0465457439
vt 0.851155639 0.043563351
vt 0.851155639 0.0465457439
vt 0.0393269658 0.0556558669
vt 0.399898231 0.0556559265
vt 0.425652385 0.031147927
vt 0.399897754 0.00732013583
vt 0.0393274426 0.00732012093
vt 0.0135723948 0.0311478823
vt 0.838102579 0.286312819
vt 0.881259084 0.286312521
vt 0.881259203 0.329469025
vt 0.838102579 0.329469085
vt 0.79143858 0.0475780368
vt 0.502451539 0.0475780368
vt 0.538574278 0.00974553823
vt 0.79143858 0.00974577665
vt 0.502451301 0.0475780368
vt 0.50245136 0.00974553823
vt 0.755315125 0.00974556804
vt 0.791438699 0.0475780368
vt 0.949725509 0.0451227129
vt 0.949758887 0.0451227129
vt 0.949758887 0.0450848937
vt 0.949725628 0.0451179855
vt 0.949720979 0.0450848937
vt 0.949720979 0.0451179743
vn 0.707106769 0.707106769 0
vn 0.707106769 0.707106769 0
vn 0.707106769 0.707106769 0
vn -0 0.707106769 0.707106769
vn -0 0.707106769 0.707106769
vn -0 0.707106769 0.707106769
vn 1 0 0
vn 1 0 0
vn 1 0 0
vn -0 0 1
vn -0 0 1
vn -0 0 1
vn -1 0 0
vn -1 0 0
vn -1 0 0
vn -1 0 0
vn -1 0 0
vn -0 0 1
vn -0 0 1
vn -0 0 1
vn -0 0 1
vn -0 0 1
vn -0 0 1
vn -0 0 -1
vn -0 0 -1
vn -0 0 -1
vn -0 0 -1
vn -0 0 -1
vn 1 0 0
vn 1 0 0
vn 1 0 0
vn 1 0 0
vn 1 0 0
vn 1 0 0
vn -0 -1 0
vn -0 -1 0
vn -0 -1 0
vn -0 -1 0
vn -0 1 0
vn -0 1 0
vn -0 1 0
vn -0 1 0
vn -0 1 0
vn -0 1 0
vn -0 1 0
vn -0 1 0
vn -0 -1 0
vn -0 -1 0
vn -0 -1 0
vn -0 -1 0
vn -0 -1 0
vn -0 -1 0
g MS_RoofInnerCorner_0
f 3/3/3 2/2/2 1/1/1
f 6/6/6 5/5/5 4/4/4
f 9/9/9 8/8/8 7/7/7
f 12/12/12 11/11/11 10/10/10
f 15/15/15 14/14/14 13/13/13
f 13/13/13 16/16/16 15/15/15
f 16/16/16 17/17/17 15/15/15
f 20/20/20 19/19/19 18/18/18
f 18/18/18 21/21/21 20/20/20
f 18/18/18 22/22/22 21/21/21
f 18/18/18 23/23/23 22/22/22
f 26/26/26 25/25/25 24/24/24
f 26/26/26 24/24/24 27/27/27
f 28/28/28 26/26/26 27/27/27
f 31/31/31 30/30/30 29/29/29
f 29/29/29 32/32/32 31/31/31
f 29/29/29 33/33/33 32/32/32
f 29/29/29 34/34/34 33/33/33
f 37/37/37 36/36/36 35/35/35
f 38/38/38 37/37/37 35/35/35
f 41/41/41 40/40/40 39/39/39
f 42/42/42 41/41/41 39/39/39
f 45/45/45 44/44/44 43/43/43
f 46/46/46 45/45/45 43/43/43
f 49/49/49 48/48/48 47/47/47
f 47/47/47 50/50/50 49/49/49
f 50/50/50 51/51/51 49/49/49
f 50/50/50 52/52/52 51/51/51
