g FloorEdge
v -0.5 0.5 0.5
v -0.5 0.5 -0.257909954
v 0.5 0.5 -0.257909954
v 0.5 0.5 -0.251414776
v 0.5 0.5 0.5
v 0.5 -0.5 -0.25
v 0.5 -0.5 -0.257909954
v -0.5 -0.5 -0.257909954
v -0.5 -0.5 0.5
v 0.5 -0.5 0.5
v -0.5 0.5 -0.257909954
v -0.5 0.5 -0.419313908
v 0.5 0.5 -0.419991612
v 0.5 0.5 -0.257909954
v -0.5 -0.5 -0.419313908
v -0.5 -0.5 -0.257909954
v 0.5 -0.5 -0.257909954
v 0.5 -0.5 -0.419314176
v 0.5 -0.0666766465 -0.5
v -0.5 -0.166666642 -0.446204036
v 0.5 -0.166666642 -0.446204036
v -0.5 -0.0666766465 -0.5
v -0.5 0.0666766837 -0.5
v 0.5 0.0666766837 -0.5
v 0.5 0.166666672 -0.446204036
v -0.5 0.166666672 -0.446204036
v 0.5 -0.166666642 -0.446204036
v -0.5 -0.166666642 -0.446204036
v -0.5 -0.266656637 -0.5
v 0.5 -0.266656637 -0.5
v 0.5 -0.406259388 -0.5
v -0.5 -0.406259388 -0.5
v -0.5 0.406259388 -0.5
v 0.5 0.266656667 -0.498505086
v 0.5 0.406259388 -0.498505086
v -0.5 0.266656667 -0.5
v -0.5 0.166666672 -0.446204036
v 0.5 0.166666672 -0.446204036
v -0.5 -0.5 -0.419313908
v 0.5 -0.5 -0.419314176
v 0.5 -0.406259388 -0.5
v -0.5 -0.406259388 -0.5
v -0.5 0.406259388 -0.5
v 0.5 0.406259388 -0.498505086
v 0.5 0.5 -0.419991612
v -0.5 0.5 -0.419313908
vt 0.953674674 0.050488174
vt 0.953726947 0.050488174
vt 0.953726411 0.0504370518
vt 0.9537251 0.0504359603
vt 0.953674674 0.0504359603
vt 0.953725576 0.0504364222
vt 0.953726947 0.0504378155
vt 0.953726947 0.050488174
vt 0.953674674 0.050488174
vt 0.953674674 0.0504359603
vt 0.412764877 0.953254461
vt 0.412708759 0.878564179
vt 0.0326741338 0.878564239
vt 0.0327304304 0.953568041
vt 0.412708759 0.878564179
vt 0.412764877 0.953254461
vt 0.0327304602 0.953567982
vt 0.0326743722 0.878877699
vt 0.853103817 0.0490761921
vt 0.848021626 0.0495977178
vt 0.853094995 0.0495977178
vt 0.848021626 0.0490761958
vt 0.848021626 0.0483806692
vt 0.853103817 0.0483806692
vt 0.853094876 0.0478591509
vt 0.848021626 0.0478591509
vt 0.853094995 0.0495977178
vt 0.848021626 0.0495977178
vt 0.848021626 0.0501192361
vt 0.853103876 0.0501192361
vt 0.853103817 0.050847359
vt 0.848021686 0.0508473627
vt 0.848021686 0.046609506
vt 0.853103817 0.0473376326
vt 0.853103876 0.046609506
vt 0.848021686 0.0473376326
vt 0.848021626 0.0478591509
vt 0.853094876 0.0478591509
vt 0.847893834 0.0491110682
vt 0.847893834 0.0491110682
vt 0.847858667 0.0490759611
vt 0.847858727 0.0490759611
vt 0.847858727 0.0487715006
vt 0.847858667 0.0487715006
vt 0.847890377 0.0487399027
vt 0.847893834 0.0487363935
vn -0 1 0
vn -0 1 0
vn -0 1 0
vn -0 1 0
vn -0 1 0
vn -0 -1 0
vn -0 -1 0
vn -0 -1 0
vn -0 -1 0
vn -0 -1 0
vn -0 1 0
vn -0 1 0
vn -0 1 0
vn -0 1 0
vn -0 -1 0
vn -0 -1 0
vn -0 -1 0
vn -0 -1 0
vn -0 -0.224651381 -0.974439204
vn -0 -0.473793954 -0.880635679
vn -0 -0.473793954 -0.880635679
vn -0 -0.224651381 -0.974439204
vn -0 0.224651381 -0.974439204
vn -0 0.224651381 -0.974439204
vn -0 0.473793954 -0.880635679
vn -0 0.473793954 -0.880635679
vn -0 0.473793954 -0.880635798
vn -0 0.473793954 -0.880635798
vn -0 0.219076529 -0.97570771
vn -0 0.219076529 -0.97570771
vn -0 -0.32679671 -0.945094645
vn -0 -0.32679671 -0.945094645
vn 0.00100201892 0.322751373 -0.946483314
vn 0.00115489704 -0.216228679 -0.976342082
vn 0.00100163755 0.322964489 -0.946410596
vn 0.0011550833 -0.216121599 -0.976365805
vn 0.000660279416 -0.468664706 -0.883375883
vn 0.000660279416 -0.468664706 -0.883375883
vn -0 -0.652359903 -0.757909358
vn -0 -0.652359962 -0.757909358
vn -0 -0.32679671 -0.945094645
vn -0 -0.32679671 -0.945094645
vn 0.00100201892 0.322751373 -0.946483314
vn 0.00100163755 0.322964489 -0.946410596
vn 0.000311485492 0.647271872 -0.762259245
vn 0.000311485463 0.647271872 -0.762259245
g FloorEdge_0
f 3/3/3 2/2/2 1/1/1
f 1/1/1 4/4/4 3/3/3
f 1/1/1 5/5/5 4/4/4
f 8/8/8 7/7/7 6/6/6
f 6/6/6 9/9/9 8/8/8
f 6/6/6 10/10/10 9/9/9
f 13/13/13 12/12/12 11/11/11
f 14/14/14 13/13/13 11/11/11
f 17/17/17 16/16/16 15/15/15
f 18/18/18 17/17/17 15/15/15
f 21/21/21 20/20/20 19/19/19
f 20/20/20 22/22/22 19/19/19
f 19/19/19 22/22/22 23/23/23
f 24/24/24 19/19/19 23/23/23
f 24/24/24 23/23/23 25/25/25
f 23/23/23 26/26/26 25/25/25
f 29/29/29 28/28/28 27/27/27
f 30/30/30 29/29/29 27/27/27
f 30/30/30 31/31/31 29/29/29
f 31/31/31 32/32/32 29/29/29
f 35/35/35 34/34/34 33/33/33
f 34/34/34 36/36/36 33/33/33
f 37/37/37 36/36/36 34/34/34
f 38/38/38 37/37/37 34/34/34
f 41/41/41 40/40/40 39/39/39
f 42/42/42 41/41/41 39/39/39
f 45/45/45 44/44/44 43/43/43
f 46/46/46 45/45/45 43/43/43
