g T_Wall
v 0.1875 0.0666766837 -0.5
v 0.125 0.166666672 0.5
v 0.125 0.166666672 -0.5
v 0.1875 0.0666766837 0.5
v 0.1875 -0.0666766465 0.5
v 0.1875 -0.0666766465 -0.5
v 0.125 -0.166666642 -0.5
v 0.125 -0.166666642 0.5
v 0.125 0.166666672 -0.5
v 0.125 0.166666672 0.5
v 0.1875 0.266656667 0.5
v 0.1875 0.266656667 -0.5
v 0.1875 0.406259388 -0.5
v 0.1875 0.406259388 0.5
v -0.1875 0.0666766837 0.5
v -0.125 0.166666672 0.125
v -0.125 0.166666672 0.5
v -0.1875 0.0666766837 0.1875
v -0.1875 -0.0666766465 0.1875
v -0.1875 -0.0666766465 0.5
v -0.125 -0.166666642 0.5
v -0.125 -0.166666642 0.125
v -0.125 0.166666672 0.5
v -0.125 0.166666672 0.125
v -0.1875 0.266656667 0.1875
v -0.1875 0.266656667 0.5
v -0.1875 0.406259388 0.5
v -0.1875 0.406259388 0.1875
v 0.1875 -0.266656637 -0.5
v 0.125 -0.166666642 0.5
v 0.125 -0.166666642 -0.5
v 0.1875 -0.266656637 0.5
v 0.1875 -0.406259388 0.5
v 0.1875 -0.406259388 -0.5
v 0.0937597603 0.5 0.5
v 0.1875 0.406259388 0.5
v 0.1875 0.266656667 0.5
v -0.1875 0.266656667 0.5
v -0.0937594548 0.5 0.5
v -0.1875 0.406259388 0.5
v 0.125 0.166666672 0.5
v -0.125 0.166666672 0.5
v 0.1875 0.0666766837 0.5
v -0.1875 0.0666766837 0.5
v -0.1875 -0.0666766465 0.5
v 0.1875 -0.0666766465 0.5
v 0.125 -0.166666642 0.5
v -0.125 -0.166666642 0.5
v 0.1875 -0.266656637 0.5
v -0.1875 -0.266656637 0.5
v 0.1875 -0.406259388 0.5
v 0.0937594548 -0.5 0.5
v -0.0937594548 -0.5 0.5
v -0.1875 -0.406259388 0.5
v -0.5 0.406259388 -0.1875
v -0.5 0.5 -0.0937593803
v -0.5 0.5 0.0937593803
v -0.5 0.406259388 0.1875
v -0.5 0.266656667 -0.1875
v -0.5 0.266656667 0.1875
v -0.5 0.166666672 0.125
v -0.5 0.166666672 -0.125
v -0.5 0.0666766837 0.1875
v -0.5 0.0666766837 -0.1875
v -0.5 -0.0666766465 -0.1875
v -0.5 -0.0666766465 0.1875
v -0.5 -0.166666642 0.125
v -0.5 -0.166666642 -0.125
v -0.5 -0.266656637 0.1875
v -0.5 -0.266656637 -0.1875
v -0.5 -0.406259388 -0.1875
v -0.5 -0.406259388 0.1875
v -0.5 -0.5 -0.0937593803
v -0.5 -0.5 0.0937593803
v -0.0937594548 0.5 -0.5
v -0.1875 0.406259388 -0.5
v -0.1875 0.266656667 -0.5
v 0.0937597603 0.5 -0.5
v 0.1875 0.406259388 -0.5
v 0.1875 0.266656667 -0.5
v -0.125 0.166666672 -0.5
v 0.125 0.166666672 -0.5
v -0.1875 0.0666766837 -0.5
v 0.1875 0.0666766837 -0.5
v 0.1875 -0.0666766465 -0.5
v -0.1875 -0.0666766465 -0.5
v -0.125 -0.166666642 -0.5
v 0.125 -0.166666642 -0.5
v -0.1875 -0.266656637 -0.5
v 0.1875 -0.266656637 -0.5
v 0.0937594548 -0.5 -0.5
v 0.1875 -0.406259388 -0.5
v -0.0937594548 -0.5 -0.5
v -0.1875 -0.406259388 -0.5
v -0.1875 0.0666766837 0.1875
v -0.5 0.166666672 0.125
v -0.125 0.166666672 0.125
v -0.5 0.0666766837 0.1875
v -0.5 -0.0666766465 0.1875
v -0.1875 -0.0666766465 0.1875
v -0.125 -0.166666642 0.125
v -0.5 -0.166666642 0.125
v -0.125 0.166666672 0.125
v -0.5 0.166666672 0.125
v -0.5 0.266656667 0.1875
v -0.1875 0.266656667 0.1875
v -0.1875 0.406259388 0.1875
v -0.5 0.406259388 0.1875
v -0.5 0.0666766837 -0.1875
v -0.125 0.166666672 -0.125
v -0.5 0.166666672 -0.125
v -0.1875 0.0666766837 -0.1875
v -0.1875 -0.0666766465 -0.1875
v -0.5 -0.0666766465 -0.1875
v -0.5 -0.166666642 -0.125
v -0.125 -0.166666642 -0.125
v -0.5 0.166666672 -0.125
v -0.125 0.166666672 -0.125
v -0.1875 0.266656667 -0.1875
v -0.5 0.266656667 -0.1875
v -0.5 0.406259388 -0.1875
v -0.1875 0.406259388 -0.1875
v -0.1875 0.0666766837 -0.1875
v -0.125 0.166666672 -0.5
v -0.125 0.166666672 -0.125
v -0.1875 0.0666766837 -0.5
v -0.1875 -0.0666766465 -0.5
v -0.1875 -0.0666766465 -0.1875
v -0.125 -0.166666642 -0.125
v -0.125 -0.166666642 -0.5
v -0.125 0.166666672 -0.125
v -0.125 0.166666672 -0.5
v -0.1875 0.266656667 -0.5
v -0.1875 0.266656667 -0.1875
v -0.1875 0.406259388 -0.1875
v -0.1875 0.406259388 -0.5
v -0.1875 -0.266656637 0.5
v -0.125 -0.166666642 0.125
v -0.125 -0.166666642 0.5
v -0.1875 -0.266656637 0.1875
v -0.1875 -0.406259388 0.1875
v -0.1875 -0.406259388 0.5
v -0.1875 -0.266656637 0.1875
v -0.5 -0.166666642 0.125
v -0.125 -0.166666642 0.125
v -0.5 -0.266656637 0.1875
v -0.5 -0.406259388 0.1875
v -0.1875 -0.406259388 0.1875
v -0.5 -0.266656637 -0.1875
v -0.125 -0.166666642 -0.125
v -0.5 -0.166666642 -0.125
v -0.1875 -0.266656637 -0.1875
v -0.1875 -0.406259388 -0.1875
v -0.5 -0.406259388 -0.1875
v -0.1875 -0.266656637 -0.1875
v -0.125 -0.166666642 -0.5
v -0.125 -0.166666642 -0.125
v -0.1875 -0.266656637 -0.5
v -0.1875 -0.406259388 -0.1875
v -0.1875 -0.406259388 -0.5
v 0.1875 -0.406259388 0.5
v 0.1875 -0.406259388 -0.5
v 0.0937594548 -0.5 -0.5
v 0.0937594548 -0.5 0.5
v 0.0937597603 0.5 0.5
v 0.0937597603 0.5 -0.5
v 0.1875 0.406259388 -0.5
v 0.1875 0.406259388 0.5
v -0.1875 0.406259388 0.5
v -0.1875 0.406259388 0.1875
v -0.0937594548 0.5 0.0937593803
v -0.0937594548 0.5 0.5
v -0.1875 0.406259388 0.1875
v -0.5 0.406259388 0.1875
v -0.5 0.5 0.0937593803
v -0.0937594548 0.5 0.0937593803
v -0.0937594548 -0.5 0.5
v -0.0937594548 -0.5 0.0937593803
v -0.1875 -0.406259388 0.1875
v -0.1875 -0.406259388 0.5
v -0.0937594548 -0.5 0.0937593803
v -0.5 -0.5 0.0937593803
v -0.5 -0.406259388 0.1875
v -0.1875 -0.406259388 0.1875
v -0.0937594548 0.5 -0.5
v -0.0937594548 0.5 -0.0937593803
v -0.1875 0.406259388 -0.1875
v -0.1875 0.406259388 -0.5
v -0.0937594548 0.5 -0.0937593803
v -0.5 0.5 -0.0937593803
v -0.5 0.406259388 -0.1875
v -0.1875 0.406259388 -0.1875
v -0.1875 -0.406259388 -0.5
v -0.1875 -0.406259388 -0.1875
v -0.0937594548 -0.5 -0.0937593803
v -0.0937594548 -0.5 -0.5
v -0.1875 -0.406259388 -0.1875
v -0.5 -0.406259388 -0.1875
v -0.5 -0.5 -0.0937593803
v -0.0937594548 -0.5 -0.0937593803
v -0.0937594548 -0.5 0.5
v 0.0937594548 -0.5 0.5
v -0.0937594548 -0.5 0.0937593803
v 0.0937594548 -0.5 -0.5
v -0.0937594548 -0.5 -0.0937593803
v -0.0937594548 -0.5 -0.5
v -0.0937594548 0.5 -0.0937593803
v -0.0937594548 0.5 -0.5
v 0.0937597603 0.5 -0.5
v 0.0937597603 0.5 0.5
v -0.0937594548 0.5 0.0937593803
v -0.0937594548 0.5 0.5
v -0.5 0.5 0.0937593803
v -0.5 0.5 -0.0937593803
v -0.0937594548 0.5 -0.0937593803
v -0.0937594548 0.5 0.0937593803
v -0.5 -0.5 -0.0937593803
v -0.5 -0.5 0.0937593803
v -0.0937594548 -0.5 0.0937593803
v -0.0937594548 -0.5 -0.0937593803
vt 0.853236914 0.0490761958
vt 0.848023534 0.0495977513
vt 0.853238821 0.0495977513
vt 0.848021626 0.0490761958
vt 0.848021626 0.0483806692
vt 0.853236914 0.0483806692
vt 0.85324043 0.0478593968
vt 0.848025203 0.0478593968
vt 0.853238821 0.0495977513
vt 0.848023534 0.0495977513
vt 0.848021626 0.0501192361
vt 0.853236973 0.0501192361
vt 0.853236973 0.0508473627
vt 0.848021686 0.0508473665
vt 0.847811759 0.0483806729
vt 0.845858514 0.0478592105
vt 0.847813189 0.0478592031
vt 0.846182823 0.0483806729
vt 0.846182764 0.0490761921
vt 0.847811759 0.0490762107
vt 0.84781003 0.0495975427
vt 0.845854878 0.049597472
vt 0.847813189 0.0478592031
vt 0.845858514 0.0478592105
vt 0.846182883 0.0473376364
vt 0.847811699 0.0473376364
vt 0.847811699 0.0466095097
vt 0.846182883 0.0466095097
vt 0.853236914 0.0473376326
vt 0.848025203 0.0478593968
vt 0.85324043 0.0478593968
vt 0.848021686 0.0473376326
vt 0.848021686 0.046609506
vt 0.853236973 0.046609506
vt 0.573676884 0.673119247
vt 0.597289681 0.647009015
vt 0.597289622 0.608124554
vt 0.502828598 0.608124495
vt 0.526441574 0.673119247
vt 0.502828658 0.647009015
vt 0.581546187 0.58027333
vt 0.518572152 0.580273211
vt 0.597289562 0.552422166
vt 0.502828479 0.552422106
vt 0.502828181 0.51527828
vt 0.597289264 0.51527828
vt 0.577778459 0.487427115
vt 0.518571794 0.487427145
vt 0.597289741 0.459576219
vt 0.502828598 0.459576219
vt 0.597289741 0.420691609
vt 0.573676884 0.394581318
vt 0.526441574 0.394581318
vt 0.502828658 0.420691609
vt 0.502828777 0.647008955
vt 0.526441634 0.673119247
vt 0.573676825 0.673119247
vt 0.597289801 0.647009015
vt 0.502828836 0.608124435
vt 0.59728992 0.608124554
vt 0.581543505 0.58027178
vt 0.518569231 0.580271363
vt 0.597289145 0.552422881
vt 0.502827942 0.552422643
vt 0.502828002 0.515279233
vt 0.597289145 0.515279412
vt 0.577776968 0.487427771
vt 0.518569946 0.487427086
vt 0.597289145 0.459577411
vt 0.502827823 0.459577054
vt 0.50282836 0.420691937
vt 0.597289503 0.420692086
vt 0.526441634 0.394581318
vt 0.573676825 0.394581318
vt 0.573676884 0.673119247
vt 0.597289681 0.647009254
vt 0.597289562 0.60812515
vt 0.526441395 0.673119247
vt 0.502828658 0.647009313
vt 0.502828598 0.60812521
vt 0.581546247 0.580274045
vt 0.51857245 0.580274463
vt 0.597290397 0.552422762
vt 0.502829552 0.552423
vt 0.502828836 0.515277803
vt 0.597289801 0.515277803
vt 0.577778757 0.48742792
vt 0.518572569 0.48742789
vt 0.597290039 0.459576339
vt 0.502829134 0.459576339
vt 0.526441872 0.394581199
vt 0.502828896 0.420691669
vt 0.573676884 0.394581318
vt 0.59728986 0.420691639
vt 0.846182883 0.0490761995
vt 0.847811818 0.0495977327
vt 0.845857263 0.0495977327
vt 0.847811639 0.0490761958
vt 0.847811699 0.0483806692
vt 0.846182883 0.0483806692
vt 0.845856786 0.0478591509
vt 0.847811341 0.0478591509
vt 0.845857263 0.0495977327
vt 0.847811818 0.0495977327
vt 0.847811699 0.0501192361
vt 0.846182883 0.0501192361
vt 0.846182883 0.0508473665
vt 0.847811759 0.0508473627
vt 0.847799182 0.0483806804
vt 0.845874906 0.0478591621
vt 0.847795248 0.0478591919
vt 0.846308827 0.0483806543
vt 0.846289456 0.0490761809
vt 0.847807586 0.0490762033
vt 0.847796857 0.0495976582
vt 0.845872283 0.0495976657
vt 0.847795248 0.0478591919
vt 0.845874906 0.0478591621
vt 0.846307516 0.0473376215
vt 0.84780705 0.0473376401
vt 0.847809851 0.0466095097
vt 0.846232951 0.046609506
vt 0.846308827 0.0483806543
vt 0.847793758 0.0478590652
vt 0.845873296 0.0478590578
vt 0.847799182 0.0483806767
vt 0.847807705 0.0490762033
vt 0.846289456 0.0490761809
vt 0.845869601 0.0495976433
vt 0.847794473 0.0495976508
vt 0.845873296 0.0478590578
vt 0.847793758 0.0478590652
vt 0.847807109 0.0473376364
vt 0.846307516 0.0473376215
vt 0.846232951 0.046609506
vt 0.847809911 0.0466095097
vt 0.847811818 0.0501192547
vt 0.845854878 0.049597472
vt 0.84781003 0.0495975427
vt 0.846182764 0.0501192249
vt 0.846182823 0.050847359
vt 0.847811818 0.0508473702
vt 0.846182942 0.0473376326
vt 0.847811341 0.0478591509
vt 0.845856786 0.0478591509
vt 0.847811699 0.0473376326
vt 0.847811759 0.046609506
vt 0.846182942 0.046609506
vt 0.847811639 0.0501192361
vt 0.845872283 0.0495976657
vt 0.847796857 0.0495976582
vt 0.846303582 0.0501192175
vt 0.846231341 0.0508473553
vt 0.847811699 0.0508473627
vt 0.846303582 0.0501192175
vt 0.847794473 0.0495976508
vt 0.845869601 0.0495976433
vt 0.847811699 0.0501192398
vt 0.846231341 0.0508473553
vt 0.847811759 0.0508473665
vt 0.847741723 0.0490759611
vt 0.847366989 0.0490759611
vt 0.847366989 0.0491110682
vt 0.847741723 0.0491110682
vt 0.847741723 0.0487363935
vt 0.847366989 0.0487363935
vt 0.847366989 0.0487715006
vt 0.847741723 0.0487715006
vt 0.847741723 0.0487715006
vt 0.84762454 0.0487715006
vt 0.847589374 0.0487363935
vt 0.847741723 0.0487363935
vt 0.84762454 0.0487715006
vt 0.84762454 0.0487715006
vt 0.847589374 0.0487363935
vt 0.847589374 0.0487363935
vt 0.847741723 0.0491110682
vt 0.847589374 0.0491110682
vt 0.84762454 0.0490759611
vt 0.847741723 0.0490759611
vt 0.847589374 0.0491110682
vt 0.847589374 0.0491110682
vt 0.84762454 0.0490759611
vt 0.84762454 0.0490759611
vt 0.847366989 0.0487363935
vt 0.847519159 0.0487363935
vt 0.847484052 0.0487715006
vt 0.847366989 0.0487715006
vt 0.847519159 0.0487363935
vt 0.847519159 0.0487363935
vt 0.847484052 0.0487715006
vt 0.847484052 0.0487715006
vt 0.847366989 0.0490759611
vt 0.847484052 0.0490759611
vt 0.847519159 0.0491110682
vt 0.847366989 0.0491110682
vt 0.847484052 0.0490759611
vt 0.847484052 0.0490759611
vt 0.847519159 0.0491110682
vt 0.847519159 0.0491110682
vt 0.0159510002 0.879145384
vt 0.0159288943 0.953377426
vt 0.17670761 0.879145324
vt 0.41205138 0.953377366
vt 0.251018435 0.879145384
vt 0.412056983 0.879145384
vt 0.251018435 0.879145384
vt 0.412056983 0.879145384
vt 0.412058204 0.953377545
vt 0.0155725274 0.953377545
vt 0.1766776 0.879145384
vt 0.0155668193 0.879145384
vt 0.126743078 0.707423806
vt 0.0523056127 0.707423866
vt 0.0437190346 0.831474006
vt 0.100979932 0.831474006
vt 0.126743227 0.707424283
vt 0.0523055829 0.707423985
vt 0.043719057 0.831474245
vt 0.100979999 0.831474006
vn 0.965950847 0.258725762 0
vn 0.847974479 0.530037045 0
vn 0.847974479 0.530037045 0
vn 0.965950847 0.258725762 0
vn 0.965950847 -0.258725762 0
vn 0.965950847 -0.258725762 0
vn 0.847974479 -0.530037045 0
vn 0.847974479 -0.530037045 0
vn 0.847974479 -0.530037045 0
vn 0.847974479 -0.530037045 0
vn 0.967619598 -0.252412677 0
vn 0.967619598 -0.252412677 0
vn 0.927923143 0.372771502 0
vn 0.927923143 0.372771502 0
vn -0.962330818 0.271881342 0
vn -0.847974479 0.530037045 0
vn -0.847974479 0.530037045 0
vn -0.951130629 0.308788776 0
vn -0.951130629 -0.308788776 0
vn -0.962330818 -0.271881342 0
vn -0.847974479 -0.530037045 0
vn -0.847974479 -0.530037045 0
vn -0.847974479 -0.530037045 0
vn -0.847974479 -0.530037045 0
vn -0.953112364 -0.302616447 0
vn -0.96409446 -0.265559703 0
vn -0.916752577 0.399455369 0
vn -0.887936115 0.459966749 0
vn 0.967619598 0.252412617 0
vn 0.847974479 0.530037045 0
vn 0.847974479 0.530037045 0
vn 0.967619598 0.252412617 0
vn 0.927922606 -0.372772753 0
vn 0.927922606 -0.372772753 0
vn -0 0 1
vn -0 0 1
vn -0 0 1
vn -0 0 1
vn -0 0 1
vn -0 0 1
vn -0 0 1
vn -0 0 1
vn -0 0 1
vn -0 0 1
vn -0 0 1
vn -0 0 1
vn -0 0 1
vn -0 0 1
vn -0 0 1
vn -0 0 1
vn -0 0 1
vn -0 0 1
vn -0 0 1
vn -0 0 1
vn -1 6.20304036E-07 0
vn -1 6.20304036E-07 0
vn -1 6.20304036E-07 0
vn -1 6.20304036E-07 0
vn -1 4.93959078E-07 0
vn -1 4.93959078E-07 0
vn -1 0 0
vn -1 0 0
vn -1 0 0
vn -1 0 0
vn -1 0 0
vn -1 0 0
vn -1 0 0
vn -1 0 0
vn -1 0 0
vn -1 0 0
vn -1 0 0
vn -1 0 0
vn -1 0 0
vn -1 0 0
vn -0 0 -1
vn -0 0 -1
vn -0 0 -1
vn -0 0 -1
vn -0 0 -1
vn -0 0 -1
vn -0 0 -1
vn -0 0 -1
vn -0 0 -1
vn -0 0 -1
vn -0 0 -1
vn -0 0 -1
vn -0 0 -1
vn -0 0 -1
vn -0 0 -1
vn -0 0 -1
vn -0 0 -1
vn -0 0 -1
vn -0 0 -1
vn -0 0 -1
vn -0 0.308788776 0.951130629
vn -0 0.530037045 0.847974479
vn -0 0.530037045 0.847974479
vn -0 0.271881342 0.962330818
vn -0 -0.271881342 0.962330818
vn -0 -0.308788776 0.951130629
vn -0 -0.530037105 0.847974479
vn -0 -0.530037105 0.84797442
vn -0 -0.530037045 0.847974479
vn -0 -0.530037045 0.847974479
vn -0 -0.265559703 0.96409446
vn -0 -0.302616417 0.953112364
vn -0 0.459965825 0.887936592
vn -0 0.399454623 0.916752994
vn -0 0.271881342 -0.962330818
vn -0 0.530037045 -0.847974479
vn -0 0.530037045 -0.847974479
vn -0 0.308788776 -0.951130629
vn -0 -0.308788776 -0.951130629
vn -0 -0.271881372 -0.962330818
vn -0 -0.530037105 -0.84797442
vn -0 -0.530037105 -0.84797442
vn -0 -0.530037045 -0.847974479
vn -0 -0.530037045 -0.847974479
vn -0 -0.302616417 -0.953112364
vn -0 -0.265559703 -0.96409446
vn -0 0.399454623 -0.916752994
vn -0 0.459965825 -0.887936592
vn -0.951130629 0.308788776 0
vn -0.847974479 0.530037045 0
vn -0.847974479 0.530037045 0
vn -0.962330818 0.271881342 0
vn -0.962330818 -0.271881342 0
vn -0.951130629 -0.308788776 0
vn -0.847974479 -0.530037045 0
vn -0.847974479 -0.530037045 0
vn -0.847974479 -0.530037045 0
vn -0.847974479 -0.530037045 0
vn -0.96409446 -0.265559703 0
vn -0.953112364 -0.302616447 0
vn -0.887936115 0.459966749 0
vn -0.916752577 0.399455369 0
vn -0.96409446 0.265559644 0
vn -0.847974479 0.530037045 0
vn -0.847974479 0.530037045 0
vn -0.953112364 0.302616388 0
vn -0.887936115 -0.45996663 0
vn -0.916752696 -0.399455398 0
vn -0 0.302616388 0.953112364
vn -0 0.530037045 0.847974479
vn -0 0.530037045 0.847974479
vn -0 0.265559644 0.96409446
vn -0 -0.399454534 0.916752994
vn -0 -0.459965825 0.887936592
vn -0 0.265559644 -0.96409446
vn -0 0.530037045 -0.847974479
vn -0 0.530037045 -0.847974479
vn -0 0.302616388 -0.953112364
vn -0 -0.459965825 -0.887936592
vn -0 -0.399454534 -0.916752994
vn -0.953112364 0.302616388 0
vn -0.847974479 0.530037045 0
vn -0.847974479 0.530037045 0
vn -0.96409446 0.265559644 0
vn -0.887936115 -0.45996663 0
vn -0.916752696 -0.399455398 0
vn 0.927922606 -0.372772753 0
vn 0.927922606 -0.372772753 0
vn 0.707106769 -0.707106829 0
vn 0.707106769 -0.707106829 0
vn 0.7071082 0.707105279 0
vn 0.7071082 0.707105279 0
vn 0.927923143 0.372771502 0
vn 0.927923143 0.372771502 0
vn -0.916752577 0.399455369 0
vn -0.887936115 0.459966749 0
vn -0.707105696 0.707107842 0
vn -0.707105696 0.707107842 0
vn -0 0.459965825 0.887936592
vn -0 0.399454623 0.916752994
vn -0 0.707106888 0.70710665
vn -0 0.707106829 0.70710665
vn -0.707105696 -0.707107842 0
vn -0.707105696 -0.707107842 0
vn -0.887936115 -0.45996663 0
vn -0.916752696 -0.399455398 0
vn -0 -0.707106829 0.70710665
vn -0 -0.707106888 0.70710665
vn -0 -0.399454534 0.916752994
vn -0 -0.459965825 0.887936592
vn -0.707105696 0.707107842 0
vn -0.707105696 0.707107842 0
vn -0.887936115 0.459966749 0
vn -0.916752577 0.399455369 0
vn -0 0.707106829 -0.70710665
vn -0 0.707106888 -0.70710665
vn -0 0.399454623 -0.916752994
vn -0 0.459965825 -0.887936592
vn -0.916752696 -0.399455398 0
vn -0.887936115 -0.45996663 0
vn -0.707105696 -0.707107842 0
vn -0.707105696 -0.707107842 0
vn -0 -0.459965825 -0.887936592
vn -0 -0.399454534 -0.916752994
vn -0 -0.707106888 -0.70710665
vn -0 -0.707106829 -0.70710665
vn -0 -1 0
vn -0 -1 0
vn -0 -1 0
vn -0 -1 0
vn -0 -1 0
vn -0 -1 0
vn -0 1 0
vn -0 1 0
vn -0 1 0
vn -0 1 0
vn -0 1 0
vn -0 1 0
vn -0 1 0
vn -0 1 0
vn -0 1 0
vn -0 1 0
vn -0 -1 0
vn -0 -1 0
vn -0 -1 0
vn -0 -1 0
g T_Wall_0
f 3/3/3 2/2/2 1/1/1
f 2/2/2 4/4/4 1/1/1
f 1/1/1 4/4/4 5/5/5
f 6/6/6 1/1/1 5/5/5
f 6/6/6 5/5/5 7/7/7
f 5/5/5 8/8/8 7/7/7
f 11/11/11 10/10/10 9/9/9
f 12/12/12 11/11/11 9/9/9
f 12/12/12 13/13/13 11/11/11
f 13/13/13 14/14/14 11/11/11
f 17/17/17 16/16/16 15/15/15
f 16/16/16 18/18/18 15/15/15
f 18/18/18 19/19/19 15/15/15
f 19/19/19 20/20/20 15/15/15
f 20/20/20 19/19/19 21/21/21
f 19/19/19 22/22/22 21/21/21
f 25/25/25 24/24/24 23/23/23
f 26/26/26 25/25/25 23/23/23
f 25/25/25 26/26/26 27/27/27
f 28/28/28 25/25/25 27/27/27
f 31/31/31 30/30/30 29/29/29
f 30/30/30 32/32/32 29/29/29
f 29/29/29 32/32/32 33/33/33
f 34/34/34 29/29/29 33/33/33
f 37/37/37 36/36/36 35/35/35
f 35/35/35 38/38/38 37/37/37
f 35/35/35 39/39/39 38/38/38
f 39/39/39 40/40/40 38/38/38
f 37/37/37 38/38/38 41/41/41
f 38/38/38 42/42/42 41/41/41
f 41/41/41 42/42/42 43/43/43
f 42/42/42 44/44/44 43/43/43
f 43/43/43 44/44/44 45/45/45
f 46/46/46 43/43/43 45/45/45
f 46/46/46 45/45/45 47/47/47
f 45/45/45 48/48/48 47/47/47
f 47/47/47 48/48/48 49/49/49
f 48/48/48 50/50/50 49/49/49
f 51/51/51 49/49/49 50/50/50
f 50/50/50 52/52/52 51/51/51
f 50/50/50 53/53/53 52/52/52
f 50/50/50 54/54/54 53/53/53
f 57/57/57 56/56/56 55/55/55
f 58/58/58 57/57/57 55/55/55
f 58/58/58 55/55/55 59/59/59
f 59/59/59 60/60/60 58/58/58
f 60/60/60 59/59/59 61/61/61
f 59/59/59 62/62/62 61/61/61
f 61/61/61 62/62/62 63/63/63
f 62/62/62 64/64/64 63/63/63
f 63/63/63 64/64/64 65/65/65
f 66/66/66 63/63/63 65/65/65
f 66/66/66 65/65/65 67/67/67
f 65/65/65 68/68/68 67/67/67
f 67/67/67 68/68/68 69/69/69
f 68/68/68 70/70/70 69/69/69
f 69/69/69 70/70/70 71/71/71
f 72/72/72 69/69/69 71/71/71
f 72/72/72 71/71/71 73/73/73
f 73/73/73 74/74/74 72/72/72
f 77/77/77 76/76/76 75/75/75
f 77/77/77 75/75/75 78/78/78
f 77/77/77 78/78/78 79/79/79
f 79/79/79 80/80/80 77/77/77
f 81/81/81 77/77/77 80/80/80
f 82/82/82 81/81/81 80/80/80
f 83/83/83 81/81/81 82/82/82
f 84/84/84 83/83/83 82/82/82
f 83/83/83 84/84/84 85/85/85
f 86/86/86 83/83/83 85/85/85
f 87/87/87 86/86/86 85/85/85
f 88/88/88 87/87/87 85/85/85
f 89/89/89 87/87/87 88/88/88
f 90/90/90 89/89/89 88/88/88
f 91/91/91 89/89/89 90/90/90
f 90/90/90 92/92/92 91/91/91
f 91/91/91 93/93/93 89/89/89
f 93/93/93 94/94/94 89/89/89
f 97/97/97 96/96/96 95/95/95
f 96/96/96 98/98/98 95/95/95
f 95/95/95 98/98/98 99/99/99
f 100/100/100 95/95/95 99/99/99
f 100/100/100 99/99/99 101/101/101
f 99/99/99 102/102/102 101/101/101
f 105/105/105 104/104/104 103/103/103
f 106/106/106 105/105/105 103/103/103
f 106/106/106 107/107/107 105/105/105
f 107/107/107 108/108/108 105/105/105
f 111/111/111 110/110/110 109/109/109
f 110/110/110 112/112/112 109/109/109
f 112/112/112 113/113/113 109/109/109
f 113/113/113 114/114/114 109/109/109
f 114/114/114 113/113/113 115/115/115
f 113/113/113 116/116/116 115/115/115
f 119/119/119 118/118/118 117/117/117
f 120/120/120 119/119/119 117/117/117
f 119/119/119 120/120/120 121/121/121
f 122/122/122 119/119/119 121/121/121
f 125/125/125 124/124/124 123/123/123
f 124/124/124 126/126/126 123/123/123
f 123/123/123 126/126/126 127/127/127
f 128/128/128 123/123/123 127/127/127
f 128/128/128 127/127/127 129/129/129
f 127/127/127 130/130/130 129/129/129
f 133/133/133 132/132/132 131/131/131
f 134/134/134 133/133/133 131/131/131
f 134/134/134 135/135/135 133/133/133
f 135/135/135 136/136/136 133/133/133
f 139/139/139 138/138/138 137/137/137
f 138/138/138 140/140/140 137/137/137
f 140/140/140 141/141/141 137/137/137
f 141/141/141 142/142/142 137/137/137
f 145/145/145 144/144/144 143/143/143
f 144/144/144 146/146/146 143/143/143
f 143/143/143 146/146/146 147/147/147
f 148/148/148 143/143/143 147/147/147
f 151/151/151 150/150/150 149/149/149
f 150/150/150 152/152/152 149/149/149
f 152/152/152 153/153/153 149/149/149
f 153/153/153 154/154/154 149/149/149
f 157/157/157 156/156/156 155/155/155
f 156/156/156 158/158/158 155/155/155
f 155/155/155 158/158/158 159/159/159
f 158/158/158 160/160/160 159/159/159
f 163/163/163 162/162/162 161/161/161
f 164/164/164 163/163/163 161/161/161
f 167/167/167 166/166/166 165/165/165
f 168/168/168 167/167/167 165/165/165
f 171/171/171 170/170/170 169/169/169
f 172/172/172 171/171/171 169/169/169
f 175/175/175 174/174/174 173/173/173
f 176/176/176 175/175/175 173/173/173
f 179/179/179 178/178/178 177/177/177
f 180/180/180 179/179/179 177/177/177
f 183/183/183 182/182/182 181/181/181
f 184/184/184 183/183/183 181/181/181
f 187/187/187 186/186/186 185/185/185
f 188/188/188 187/187/187 185/185/185
f 191/191/191 190/190/190 189/189/189
f 192/192/192 191/191/191 189/189/189
f 195/195/195 194/194/194 193/193/193
f 196/196/196 195/195/195 193/193/193
f 199/199/199 198/198/198 197/197/197
f 200/200/200 199/199/199 197/197/197
f 203/203/203 202/202/202 201/201/201
f 202/202/202 203/203/203 204/204/204
f 203/203/203 205/205/205 204/204/204
f 205/205/205 206/206/206 204/204/204
f 209/209/209 208/208/208 207/207/207
f 209/209/209 207/207/207 210/210/210
f 207/207/207 211/211/211 210/210/210
f 211/211/211 212/212/212 210/210/210
f 215/215/215 214/214/214 213/213/213
f 216/216/216 215/215/215 213/213/213
f 219/219/219 218/218/218 217/217/217
f 220/220/220 219/219/219 217/217/217
