g Wall
v -0.5 0.5 0.0937593728
v -0.5 0.5 -0.0937593728
v 0.5 0.5 -0.0937593728
v 0.5 0.5 0.0937593728
v -0.5 -0.5 -0.0937593728
v -0.5 -0.5 0.0937593728
v 0.5 -0.5 0.0937593728
v 0.5 -0.5 -0.0937593728
v -0.5 -0.0666766465 0.1875
v 0.5 -0.166666642 0.125
v -0.5 -0.166666642 0.125
v 0.5 -0.0666766465 0.1875
v 0.5 0.0666766837 0.1875
v -0.5 0.0666766837 0.1875
v -0.5 0.166666672 0.125
v 0.5 0.166666672 0.125
v -0.5 -0.166666642 0.125
v 0.5 -0.166666642 0.125
v 0.5 -0.266656637 0.1875
v -0.5 -0.266656637 0.1875
v -0.5 -0.406259388 0.1875
v 0.5 -0.406259388 0.1875
v 0.5 -0.0666766465 -0.1875
v -0.5 -0.166666642 -0.125
v 0.5 -0.166666642 -0.125
v -0.5 -0.0666766465 -0.1875
v -0.5 0.0666766837 -0.1875
v 0.5 0.0666766837 -0.1875
v 0.5 0.166666672 -0.125
v -0.5 0.166666672 -0.125
v 0.5 -0.166666642 -0.125
v -0.5 -0.166666642 -0.125
v -0.5 -0.266656637 -0.1875
v 0.5 -0.266656637 -0.1875
v 0.5 -0.406259388 -0.1875
v -0.5 -0.406259388 -0.1875
v -0.5 0.266656667 0.1875
v 0.5 0.166666672 0.125
v -0.5 0.166666672 0.125
v 0.5 0.266656667 0.1875
v 0.5 0.406259388 0.1875
v -0.5 0.406259388 0.1875
v -0.5 0.406259388 -0.1875
v 0.5 0.266656667 -0.1875
v 0.5 0.406259388 -0.1875
v -0.5 0.266656667 -0.1875
v -0.5 0.166666672 -0.125
v 0.5 0.166666672 -0.125
v 0.5 0.406259388 0.1875
v 0.5 0.5 0.0937593728
v 0.5 0.5 -0.0937593728
v 0.5 0.406259388 -0.1875
v 0.5 0.266656667 0.1875
v 0.5 0.266656667 -0.1875
v 0.5 0.166666672 -0.125
v 0.5 0.166666672 0.125
v 0.5 0.0666766837 -0.1875
v 0.5 0.0666766837 0.1875
v 0.5 -0.0666766465 0.1875
v 0.5 -0.0666766465 -0.1875
v 0.5 -0.166666642 -0.125
v 0.5 -0.166666642 0.125
v 0.5 -0.266656637 -0.1875
v 0.5 -0.266656637 0.1875
v 0.5 -0.406259388 0.1875
v 0.5 -0.406259388 -0.1875
v 0.5 -0.5 0.0937593728
v 0.5 -0.5 -0.0937593728
v -0.5 0.406259388 -0.1875
v -0.5 0.5 -0.0937593728
v -0.5 0.5 0.0937593728
v -0.5 0.406259388 0.1875
v -0.5 0.266656667 -0.1875
v -0.5 0.266656667 0.1875
v -0.5 0.166666672 0.125
v -0.5 0.166666672 -0.125
v -0.5 0.0666766837 0.1875
v -0.5 0.0666766837 -0.1875
v -0.5 -0.0666766465 -0.1875
v -0.5 -0.0666766465 0.1875
v -0.5 -0.166666642 0.125
v -0.5 -0.166666642 -0.125
v -0.5 -0.266656637 0.1875
v -0.5 -0.266656637 -0.1875
v -0.5 -0.406259388 -0.1875
v -0.5 -0.406259388 0.1875
v -0.5 -0.5 -0.0937593728
v -0.5 -0.5 0.0937593728
v -0.5 -0.406259388 0.1875
v 0.5 -0.406259388 0.1875
v 0.5 -0.5 0.0937593728
v -0.5 -0.5 0.0937593728
v -0.5 -0.5 -0.0937593728
v 0.5 -0.5 -0.0937593728
v 0.5 -0.406259388 -0.1875
v -0.5 -0.406259388 -0.1875
v -0.5 0.5 0.0937593728
v 0.5 0.5 0.0937593728
v 0.5 0.406259388 0.1875
v -0.5 0.406259388 0.1875
v -0.5 0.406259388 -0.1875
v 0.5 0.406259388 -0.1875
v 0.5 0.5 -0.0937593728
v -0.5 0.5 -0.0937593728
vt 0.0155667895 0.953377426
vt 0.0155666703 0.879145384
vt 0.412056983 0.879145384
vt 0.412056983 0.953377426
vt 0.0155667597 0.953377426
vt 0.0155668193 0.879145384
vt 0.412056983 0.879145384
vt 0.412056983 0.953377426
vt 0.848021626 0.0483806729
vt 0.853236914 0.0478591546
vt 0.848021626 0.0478591546
vt 0.853236914 0.0483806729
vt 0.853236914 0.0490762033
vt 0.848021626 0.0490762033
vt 0.848021626 0.0495977215
vt 0.853236914 0.0495977215
vt 0.848021626 0.0478591546
vt 0.853236914 0.0478591546
vt 0.853236914 0.0473376364
vt 0.848021686 0.0473376364
vt 0.848021686 0.0466095097
vt 0.853236973 0.0466095097
vt 0.853236914 0.0490761958
vt 0.848021626 0.0495977178
vt 0.853236973 0.0495977178
vt 0.848021626 0.0490761958
vt 0.848021626 0.0483806692
vt 0.853236914 0.0483806692
vt 0.853236854 0.0478591509
vt 0.848021626 0.0478591509
vt 0.853236973 0.0495977178
vt 0.848021626 0.0495977178
vt 0.848021626 0.0501192361
vt 0.853236973 0.0501192361
vt 0.853236914 0.0508473627
vt 0.848021686 0.0508473627
vt 0.848021626 0.0501192398
vt 0.853236914 0.0495977215
vt 0.848021626 0.0495977215
vt 0.853236973 0.0501192398
vt 0.853236973 0.0508473665
vt 0.848021686 0.0508473665
vt 0.848021686 0.046609506
vt 0.853236914 0.0473376326
vt 0.853236973 0.046609506
vt 0.848021686 0.0473376326
vt 0.848021626 0.0478591509
vt 0.853236854 0.0478591509
vt 0.502828717 0.647008955
vt 0.526441336 0.673119247
vt 0.573676109 0.673119247
vt 0.597288728 0.647008896
vt 0.502828717 0.608124316
vt 0.597288728 0.608124256
vt 0.581545293 0.580273092
vt 0.518571854 0.580273032
vt 0.597288728 0.552422285
vt 0.502828717 0.552422285
vt 0.502828717 0.51527828
vt 0.597288728 0.51527828
vt 0.581545651 0.487427235
vt 0.518572092 0.487427384
vt 0.597288668 0.459576249
vt 0.502828717 0.459576309
vt 0.502828717 0.420691639
vt 0.597288728 0.420691609
vt 0.526441336 0.394581318
vt 0.57367605 0.394581318
vt 0.502828717 0.647008955
vt 0.526441336 0.673119247
vt 0.573676109 0.673119247
vt 0.597288728 0.647008896
vt 0.502828717 0.608124316
vt 0.597288728 0.608124256
vt 0.581545353 0.580273271
vt 0.518572032 0.580273271
vt 0.597288728 0.552422285
vt 0.502828717 0.552422285
vt 0.502828717 0.51527828
vt 0.597288728 0.51527828
vt 0.581545413 0.487427264
vt 0.518572032 0.487427294
vt 0.597288668 0.459576249
vt 0.502828717 0.459576309
vt 0.502828717 0.420691639
vt 0.597288728 0.420691609
vt 0.526441336 0.394581318
vt 0.57367605 0.394581318
vt 0.847999275 0.0490759611
vt 0.847999334 0.0490759611
vt 0.847964108 0.0491110682
vt 0.847964048 0.0491110682
vt 0.847893834 0.0491110682
vt 0.847893894 0.0491110682
vt 0.847858667 0.0490759611
vt 0.847858727 0.0490759611
vt 0.847964048 0.0487363935
vt 0.847964108 0.0487363935
vt 0.847999334 0.0487715006
vt 0.847999275 0.0487715006
vt 0.847858727 0.0487715006
vt 0.847858667 0.0487715006
vt 0.847893894 0.0487363935
vt 0.847893834 0.0487363935
vn -0 1 0
vn -0 1 0
vn -0 1 0
vn -0 1 0
vn -0 -1 0
vn -0 -1 0
vn -0 -1 0
vn -0 -1 0
vn -0 -0.258725762 0.965950847
vn -0 -0.530037045 0.847974479
vn -0 -0.530037045 0.847974479
vn -0 -0.258725762 0.965950847
vn -0 0.258725762 0.965950847
vn -0 0.258725762 0.965950847
vn -0 0.530037045 0.847974479
vn -0 0.530037045 0.847974479
vn -0 0.530037045 0.847974479
vn -0 0.530037045 0.847974479
vn -0 0.252412617 0.967619598
vn -0 0.252412617 0.967619598
vn -0 -0.372772753 0.927922606
vn -0 -0.372772753 0.927922606
vn -0 -0.258725762 -0.965950847
vn -0 -0.530037045 -0.847974479
vn -0 -0.530037045 -0.847974479
vn -0 -0.258725762 -0.965950847
vn -0 0.258725762 -0.965950847
vn -0 0.258725762 -0.965950847
vn -0 0.530037045 -0.847974479
vn -0 0.530037045 -0.847974479
vn -0 0.530037045 -0.847974479
vn -0 0.530037045 -0.847974479
vn -0 0.252412617 -0.967619598
vn -0 0.252412617 -0.967619598
vn -0 -0.372772753 -0.927922606
vn -0 -0.372772753 -0.927922606
vn -0 -0.252412647 0.967619598
vn -0 -0.530037045 0.847974479
vn -0 -0.530037045 0.847974479
vn -0 -0.252412647 0.967619598
vn -0 0.372772813 0.927922606
vn -0 0.372772813 0.927922606
vn -0 0.372772813 -0.927922606
vn -0 -0.252412647 -0.967619598
vn -0 0.372772813 -0.927922606
vn -0 -0.252412647 -0.967619598
vn -0 -0.530037045 -0.847974479
vn -0 -0.530037045 -0.847974479
vn 1 0 0
vn 1 0 0
vn 1 0 0
vn 1 0 0
vn 1 0 0
vn 1 0 0
vn 1 0 0
vn 1 0 0
vn 1 0 0
vn 1 0 0
vn 1 0 0
vn 1 0 0
vn 1 0 0
vn 1 0 0
vn 1 0 0
vn 1 0 0
vn 1 0 0
vn 1 0 0
vn 1 0 0
vn 1 0 0
vn -1 0 0
vn -1 0 0
vn -1 0 0
vn -1 0 0
vn -1 0 0
vn -1 0 0
vn -1 0 0
vn -1 0 0
vn -1 0 0
vn -1 0 0
vn -1 0 0
vn -1 0 0
vn -1 0 0
vn -1 0 0
vn -1 0 0
vn -1 0 0
vn -1 0 0
vn -1 0 0
vn -1 0 0
vn -1 0 0
vn -0 -0.372772753 0.927922606
vn -0 -0.372772753 0.927922606
vn -0 -0.707106769 0.707106769
vn -0 -0.707106769 0.707106769
vn -0 -0.707106769 -0.707106769
vn -0 -0.707106769 -0.707106769
vn -0 -0.372772753 -0.927922606
vn -0 -0.372772753 -0.927922606
vn -0 0.707106769 0.707106769
vn -0 0.707106769 0.707106769
vn -0 0.372772813 0.927922606
vn -0 0.372772813 0.927922606
vn -0 0.372772813 -0.927922606
vn -0 0.372772813 -0.927922606
vn -0 0.707106769 -0.707106769
vn -0 0.707106769 -0.707106769
g Wall_0
f 3/3/3 2/2/2 1/1/1
f 4/4/4 3/3/3 1/1/1
f 7/7/7 6/6/6 5/5/5
f 8/8/8 7/7/7 5/5/5
f 11/11/11 10/10/10 9/9/9
f 10/10/10 12/12/12 9/9/9
f 12/12/12 13/13/13 9/9/9
f 13/13/13 14/14/14 9/9/9
f 14/14/14 13/13/13 15/15/15
f 13/13/13 16/16/16 15/15/15
f 19/19/19 18/18/18 17/17/17
f 20/20/20 19/19/19 17/17/17
f 19/19/19 20/20/20 21/21/21
f 22/22/22 19/19/19 21/21/21
f 25/25/25 24/24/24 23/23/23
f 24/24/24 26/26/26 23/23/23
f 23/23/23 26/26/26 27/27/27
f 28/28/28 23/23/23 27/27/27
f 28/28/28 27/27/27 29/29/29
f 27/27/27 30/30/30 29/29/29
f 33/33/33 32/32/32 31/31/31
f 34/34/34 33/33/33 31/31/31
f 34/34/34 35/35/35 33/33/33
f 35/35/35 36/36/36 33/33/33
f 39/39/39 38/38/38 37/37/37
f 38/38/38 40/40/40 37/37/37
f 40/40/40 41/41/41 37/37/37
f 41/41/41 42/42/42 37/37/37
f 45/45/45 44/44/44 43/43/43
f 44/44/44 46/46/46 43/43/43
f 47/47/47 46/46/46 44/44/44
f 48/48/48 47/47/47 44/44/44
f 51/51/51 50/50/50 49/49/49
f 52/52/52 51/51/51 49/49/49
f 52/52/52 49/49/49 53/53/53
f 53/53/53 54/54/54 52/52/52
f 55/55/55 54/54/54 53/53/53
f 56/56/56 55/55/55 53/53/53
f 57/57/57 55/55/55 56/56/56
f 58/58/58 57/57/57 56/56/56
f 57/57/57 58/58/58 59/59/59
f 60/60/60 57/57/57 59/59/59
f 61/61/61 60/60/60 59/59/59
f 62/62/62 61/61/61 59/59/59
f 63/63/63 61/61/61 62/62/62
f 64/64/64 63/63/63 62/62/62
f 63/63/63 64/64/64 65/65/65
f 66/66/66 63/63/63 65/65/65
f 66/66/66 65/65/65 67/67/67
f 67/67/67 68/68/68 66/66/66
f 71/71/71 70/70/70 69/69/69
f 72/72/72 71/71/71 69/69/69
f 72/72/72 69/69/69 73/73/73
f 73/73/73 74/74/74 72/72/72
f 74/74/74 73/73/73 75/75/75
f 73/73/73 76/76/76 75/75/75
f 75/75/75 76/76/76 77/77/77
f 76/76/76 78/78/78 77/77/77
f 77/77/77 78/78/78 79/79/79
f 80/80/80 77/77/77 79/79/79
f 80/80/80 79/79/79 81/81/81
f 79/79/79 82/82/82 81/81/81
f 81/81/81 82/82/82 83/83/83
f 82/82/82 84/84/84 83/83/83
f 83/83/83 84/84/84 85/85/85
f 86/86/86 83/83/83 85/85/85
f 86/86/86 85/85/85 87/87/87
f 87/87/87 88/88/88 86/86/86
f 91/91/91 90/90/90 89/89/89
f 92/92/92 91/91/91 89/89/89
f 95/95/95 94/94/94 93/93/93
f 96/96/96 95/95/95 93/93/93
f 99/99/99 98/98/98 97/97/97
f 100/100/100 99/99/99 97/97/97
f 103/103/103 102/102/102 101/101/101
f 104/104/104 103/103/103 101/101/101
