g FloorTwoEdge
v 0.5 0.5 0.25
v 0.5 0.5 0.416677594
v -0.5 0.5 0.417377472
v -0.5 0.5 0.25
v 0.5 -0.5 0.416677594
v 0.5 -0.5 0.25
v -0.5 -0.5 0.25
v -0.5 -0.5 0.416677892
v -0.5 -0.0666766465 0.5
v 0.5 -0.166666642 0.444446295
v -0.5 -0.166666642 0.444446295
v 0.5 -0.0666766465 0.5
v 0.5 0.0666766837 0.5
v -0.5 0.0666766837 0.5
v -0.5 0.166666672 0.444446295
v 0.5 0.166666672 0.444446295
v -0.5 -0.166666642 0.444446295
v 0.5 -0.166666642 0.444446295
v 0.5 -0.266656637 0.5
v -0.5 -0.266656637 0.5
v -0.5 -0.406259388 0.5
v 0.5 -0.406259388 0.5
v 0.5 0.406259388 0.5
v -0.5 0.266656667 0.49845627
v -0.5 0.406259388 0.49845627
v 0.5 0.266656667 0.5
v 0.5 0.166666672 0.444446295
v -0.5 0.166666672 0.444446295
v 0.5 -0.5 0.416677594
v -0.5 -0.5 0.416677892
v -0.5 -0.406259388 0.5
v 0.5 -0.406259388 0.5
v 0.5 0.406259388 0.5
v -0.5 0.406259388 0.49845627
v -0.5 0.5 0.417377472
v 0.5 0.5 0.416677594
v -0.5 0.5 0.25
v -0.5 0.5 -0.257909954
v 0.5 0.5 -0.257909954
v 0.5 0.5 -0.251414776
v 0.5 0.5 0.25
v 0.5 -0.5 -0.25
v 0.5 -0.5 -0.257909954
v -0.5 -0.5 -0.257909954
v -0.5 -0.5 0.25
v 0.5 -0.5 0.25
v -0.5 0.5 -0.257909954
v -0.5 0.5 -0.419313908
v 0.5 0.5 -0.419991612
v 0.5 0.5 -0.257909954
v -0.5 -0.5 -0.419313908
v -0.5 -0.5 -0.257909954
v 0.5 -0.5 -0.257909954
v 0.5 -0.5 -0.419314176
v 0.5 -0.0666766465 -0.5
v -0.5 -0.166666642 -0.446204036
v 0.5 -0.166666642 -0.446204036
v -0.5 -0.0666766465 -0.5
v -0.5 0.0666766837 -0.5
v 0.5 0.0666766837 -0.5
v 0.5 0.166666672 -0.446204036
v -0.5 0.166666672 -0.446204036
v 0.5 -0.166666642 -0.446204036
v -0.5 -0.166666642 -0.446204036
v -0.5 -0.266656637 -0.5
v 0.5 -0.266656637 -0.5
v 0.5 -0.406259388 -0.5
v -0.5 -0.406259388 -0.5
v -0.5 0.406259388 -0.5
v 0.5 0.266656667 -0.498505086
v 0.5 0.406259388 -0.498505086
v -0.5 0.266656667 -0.5
v -0.5 0.166666672 -0.446204036
v 0.5 0.166666672 -0.446204036
v -0.5 -0.5 -0.419313908
v 0.5 -0.5 -0.419314176
v 0.5 -0.406259388 -0.5
v -0.5 -0.406259388 -0.5
v -0.5 0.406259388 -0.5
v 0.5 0.406259388 -0.498505086
v 0.5 0.5 -0.419991612
v -0.5 0.5 -0.419313908
vt 0.412764877 0.953254461
vt 0.412708759 0.878564179
vt 0.0326741338 0.878564239
vt 0.0327304304 0.953568041
vt 0.412708759 0.878564179
vt 0.412764877 0.953254461
vt 0.0327304602 0.953567982
vt 0.0326743722 0.878877699
vt 0.853103817 0.0490761921
vt 0.848021626 0.0495977178
vt 0.853094995 0.0495977178
vt 0.848021626 0.0490761958
vt 0.848021626 0.0483806692
vt 0.853103817 0.0483806692
vt 0.853094876 0.0478591509
vt 0.848021626 0.0478591509
vt 0.853094995 0.0495977178
vt 0.848021626 0.0495977178
vt 0.848021626 0.0501192361
vt 0.853103876 0.0501192361
vt 0.853103817 0.050847359
vt 0.848021686 0.0508473627
vt 0.848021686 0.046609506
vt 0.853103817 0.0473376326
vt 0.853103876 0.046609506
vt 0.848021686 0.0473376326
vt 0.848021626 0.0478591509
vt 0.853094876 0.0478591509
vt 0.847893834 0.0491110682
vt 0.847893834 0.0491110682
vt 0.847858667 0.0490759611
vt 0.847858727 0.0490759611
vt 0.847858727 0.0487715006
vt 0.847858667 0.0487715006
vt 0.847890377 0.0487399027
vt 0.847893834 0.0487363935
vt 0.953674674 0.050488174
vt 0.953726947 0.050488174
vt 0.953726411 0.0504370518
vt 0.9537251 0.0504359603
vt 0.953674674 0.0504359603
vt 0.953725576 0.0504364222
vt 0.953726947 0.0504378155
vt 0.953726947 0.050488174
vt 0.953674674 0.050488174
vt 0.953674674 0.0504359603
vt 0.412764877 0.953254461
vt 0.412708759 0.878564179
vt 0.0326741338 0.878564239
vt 0.0327304304 0.953568041
vt 0.412708759 0.878564179
vt 0.412764877 0.953254461
vt 0.0327304602 0.953567982
vt 0.0326743722 0.878877699
vt 0.853103817 0.0490761921
vt 0.848021626 0.0495977178
vt 0.853094995 0.0495977178
vt 0.848021626 0.0490761958
vt 0.848021626 0.0483806692
vt 0.853103817 0.0483806692
vt 0.853094876 0.0478591509
vt 0.848021626 0.0478591509
vt 0.853094995 0.0495977178
vt 0.848021626 0.0495977178
vt 0.848021626 0.0501192361
vt 0.853103876 0.0501192361
vt 0.853103817 0.050847359
vt 0.848021686 0.0508473627
vt 0.848021686 0.046609506
vt 0.853103817 0.0473376326
vt 0.853103876 0.046609506
vt 0.848021686 0.0473376326
vt 0.848021626 0.0478591509
vt 0.853094876 0.0478591509
vt 0.847893834 0.0491110682
vt 0.847893834 0.0491110682
vt 0.847858667 0.0490759611
vt 0.847858727 0.0490759611
vt 0.847858727 0.0487715006
vt 0.847858667 0.0487715006
vt 0.847890377 0.0487399027
vt 0.847893834 0.0487363935
vn -0 1 0
vn -0 1 0
vn -0 1 0
vn -0 1 0
vn -0 -1 0
vn -0 -1 0
vn -0 -1 0
vn -0 -1 0
vn -0 -0.231603891 0.972810149
vn -0 -0.485667765 0.874143422
vn -0 -0.485667765 0.874143422
vn -0 -0.231603891 0.972810149
vn -0 0.231603891 0.972810149
vn -0 0.231603891 0.972810149
vn -0 0.485667765 0.874143422
vn -0 0.485667765 0.874143422
vn -0 0.485667765 0.874143422
vn -0 0.485667765 0.874143422
vn -0 0.225874946 0.97415632
vn -0 0.225874946 0.97415632
vn -0 -0.336283952 0.941760659
vn -0 -0.336283952 0.941760659
vn -0.00103117735 0.33214426 0.943228066
vn -0.00119077181 -0.22295104 0.974828839
vn -0.00103075954 0.33237344 0.943147361
vn -0.00119097705 -0.222834513 0.974855602
vn -0.000676928728 -0.480485827 0.877002239
vn -0.000676928728 -0.480485827 0.877002239
vn -0 -0.664351642 0.747420132
vn -0 -0.664351642 0.747420132
vn -0 -0.336283952 0.941760659
vn -0 -0.336283952 0.941760659
vn -0.00103117735 0.33214426 0.943228066
vn -0.00103075954 0.33237344 0.943147361
vn -0.000317227008 0.659310877 0.751870394
vn -0.000317227037 0.659310877 0.751870394
vn -0 1 0
vn -0 1 0
vn -0 1 0
vn -0 1 0
vn -0 1 0
vn -0 -1 0
vn -0 -1 0
vn -0 -1 0
vn -0 -1 0
vn -0 -1 0
vn -0 1 0
vn -0 1 0
vn -0 1 0
vn -0 1 0
vn -0 -1 0
vn -0 -1 0
vn -0 -1 0
vn -0 -1 0
vn -0 -0.224651381 -0.974439204
vn -0 -0.473793954 -0.880635679
vn -0 -0.473793954 -0.880635679
vn -0 -0.224651381 -0.974439204
vn -0 0.224651381 -0.974439204
vn -0 0.224651381 -0.974439204
vn -0 0.473793954 -0.880635679
vn -0 0.473793954 -0.880635679
vn -0 0.473793954 -0.880635798
vn -0 0.473793954 -0.880635798
vn -0 0.219076529 -0.97570771
vn -0 0.219076529 -0.97570771
vn -0 -0.32679671 -0.945094645
vn -0 -0.32679671 -0.945094645
vn 0.00100201881 0.322751462 -0.946483254
vn 0.00115489704 -0.216228634 -0.976342082
vn 0.00100163755 0.322964579 -0.946410537
vn 0.0011550833 -0.216121554 -0.976365805
vn 0.000660279591 -0.468664587 -0.883375943
vn 0.000660279591 -0.468664587 -0.883375943
vn -0 -0.652359962 -0.757909358
vn -0 -0.652359962 -0.757909298
vn -0 -0.32679671 -0.945094645
vn -0 -0.32679671 -0.945094645
vn 0.00100201881 0.322751462 -0.946483254
vn 0.00100163755 0.322964579 -0.946410537
vn 0.000311485463 0.647271931 -0.762259126
vn 0.000311485463 0.647271931 -0.762259126
g FloorTwoEdge_0
f 3/3/3 2/2/2 1/1/1
f 4/4/4 3/3/3 1/1/1
f 7/7/7 6/6/6 5/5/5
f 8/8/8 7/7/7 5/5/5
f 11/11/11 10/10/10 9/9/9
f 10/10/10 12/12/12 9/9/9
f 9/9/9 12/12/12 13/13/13
f 14/14/14 9/9/9 13/13/13
f 14/14/14 13/13/13 15/15/15
f 13/13/13 16/16/16 15/15/15
f 19/19/19 18/18/18 17/17/17
f 20/20/20 19/19/19 17/17/17
f 20/20/20 21/21/21 19/19/19
f 21/21/21 22/22/22 19/19/19
f 25/25/25 24/24/24 23/23/23
f 24/24/24 26/26/26 23/23/23
f 27/27/27 26/26/26 24/24/24
f 28/28/28 27/27/27 24/24/24
f 31/31/31 30/30/30 29/29/29
f 32/32/32 31/31/31 29/29/29
f 35/35/35 34/34/34 33/33/33
f 36/36/36 35/35/35 33/33/33
f 39/39/39 38/38/38 37/37/37
f 37/37/37 40/40/40 39/39/39
f 37/37/37 41/41/41 40/40/40
f 44/44/44 43/43/43 42/42/42
f 42/42/42 45/45/45 44/44/44
f 42/42/42 46/46/46 45/45/45
f 49/49/49 48/48/48 47/47/47
f 50/50/50 49/49/49 47/47/47
f 53/53/53 52/52/52 51/51/51
f 54/54/54 53/53/53 51/51/51
f 57/57/57 56/56/56 55/55/55
f 56/56/56 58/58/58 55/55/55
f 55/55/55 58/58/58 59/59/59
f 60/60/60 55/55/55 59/59/59
f 60/60/60 59/59/59 61/61/61
f 59/59/59 62/62/62 61/61/61
f 65/65/65 64/64/64 63/63/63
f 66/66/66 65/65/65 63/63/63
f 66/66/66 67/67/67 65/65/65
f 67/67/67 68/68/68 65/65/65
f 71/71/71 70/70/70 69/69/69
f 70/70/70 72/72/72 69/69/69
f 73/73/73 72/72/72 70/70/70
f 74/74/74 73/73/73 70/70/70
f 77/77/77 76/76/76 75/75/75
f 78/78/78 77/77/77 75/75/75
f 81/81/81 80/80/80 79/79/79
f 82/82/82 81/81/81 79/79/79
