g DockPillarMid
v 0.406642586 0.500000119 -0.136981636
v 0.444651067 0.500000119 -0.0989738926
v 0.444651067 0.500000119 0.0989738926
v 0.406642586 0.500000119 0.136982381
v 0.208694786 0.500000119 -0.136977777
v 0.208694786 0.500000119 0.136982381
v 0.170686305 0.500000119 -0.098968558
v 0.170686305 0.500000119 0.0989738926
v 0.444651097 -0.5 0.0989739373
v 0.444651067 0.500000119 0.0989738926
v 0.444651067 0.500000119 -0.0989738926
v 0.444651097 -0.5 -0.0989739373
v 0.406642616 -0.5 -0.136982411
v 0.406642586 0.500000119 -0.136981636
v 0.208694786 0.500000119 -0.136977777
v 0.208694756 -0.5 -0.136982411
v 0.170686275 -0.5 -0.0989739373
v 0.170686305 0.500000119 -0.098968558
v 0.170686305 0.500000119 0.0989738926
v 0.170686275 -0.5 0.0989739373
v 0.208694756 -0.5 0.136982411
v 0.208694786 0.500000119 0.136982381
v 0.406642586 0.500000119 0.136982381
v 0.406642616 -0.5 0.136982411
v 0.444651097 -0.5 0.0989739373
v 0.444651067 0.500000119 0.0989738926
v 0.406642616 -0.5 -0.136982411
v 0.444651097 -0.5 0.0989739373
v 0.444651097 -0.5 -0.0989739373
v 0.406642616 -0.5 0.136982411
v 0.208694756 -0.5 -0.136982411
v 0.208694756 -0.5 0.136982411
v 0.170686275 -0.5 -0.0989739373
v 0.170686275 -0.5 0.0989739373
vt 0.434875607 0.432449162
vt 0.42263341 0.444691241
vt 0.42263341 0.508466601
vt 0.434875607 0.520727038
vt 0.498650551 0.432449162
vt 0.498650551 0.520727038
vt 0.510911345 0.444691241
vt 0.510911345 0.508466601
vt 0.812063038 0.009218961
vt 0.812063277 0.0809408128
vt 0.826260448 0.0809408128
vt 0.826260209 0.00921890512
vt 0.830115438 0.00921890512
vt 0.830115616 0.0809408128
vt 0.844312787 0.0809406936
vt 0.844312608 0.00921890512
vt 0.848167837 0.00921890512
vt 0.848168075 0.0809406936
vt 0.862364829 0.0809408128
vt 0.862365007 0.00921890512
vt 0.866220236 0.00921890512
vt 0.866220057 0.0809408203
vt 0.880417287 0.0809408203
vt 0.880417407 0.00921896845
vt 0.884272635 0.00921902806
vt 0.884272456 0.0809408203
vt 0.434875607 0.520727038
vt 0.42263341 0.444691241
vt 0.42263341 0.508466601
vt 0.434875607 0.432449162
vt 0.498650551 0.520727038
vt 0.498650551 0.432449162
vt 0.510911345 0.508466601
vt 0.510911345 0.444691241
vn -0 1 0
vn -0 1 0
vn -0 1 0
vn -0 1 0
vn -0 1 0
vn -0 1 0
vn -0 1 0
vn -0 1 0
vn 0.923879623 0 0.382683218
vn 0.923879623 0 0.382683218
vn 0.923878729 0 -0.382685512
vn 0.923878729 0 -0.382685542
vn 0.38267684 0 -0.923882246
vn 0.382676959 0 -0.923882186
vn -0.382690459 0 -0.923876643
vn -0.382689655 0 -0.923877001
vn -0.923880041 0 -0.382682443
vn -0.923880816 0 -0.382680118
vn -0.923879504 0 0.382683545
vn -0.923879445 0 0.382683545
vn -0.382683337 0 0.923879504
vn -0.382683307 0 0.923879504
vn 0.382683665 0 0.923879445
vn 0.382683665 0 0.923879445
vn 0.923879623 0 0.382683218
vn 0.923879623 0 0.382683218
vn -0 -1 0
vn -0 -1 0
vn -0 -1 0
vn -0 -1 0
vn -0 -1 0
vn -0 -1 0
vn -0 -1 0
vn -0 -1 0
g DockPillarMid_0
f 3/3/3 2/2/2 1/1/1
f 4/4/4 3/3/3 1/1/1
f 4/4/4 1/1/1 5/5/5
f 6/6/6 4/4/4 5/5/5
f 6/6/6 5/5/5 7/7/7
f 8/8/8 6/6/6 7/7/7
f 11/11/11 10/10/10 9/9/9
f 12/12/12 11/11/11 9/9/9
f 11/11/11 12/12/12 13/13/13
f 14/14/14 11/11/11 13/13/13
f 15/15/15 14/14/14 13/13/13
f 16/16/16 15/15/15 13/13/13
f 15/15/15 16/16/16 17/17/17
f 18/18/18 15/15/15 17/17/17
f 19/19/19 18/18/18 17/17/17
f 20/20/20 19/19/19 17/17/17
f 19/19/19 20/20/20 21/21/21
f 22/22/22 19/19/19 21/21/21
f 23/23/23 22/22/22 21/21/21
f 24/24/24 23/23/23 21/21/21
f 24/24/24 25/25/25 23/23/23
f 25/25/25 26/26/26 23/23/23
f 29/29/29 28/28/28 27/27/27
f 28/28/28 30/30/30 27/27/27
f 31/31/31 27/27/27 30/30/30
f 32/32/32 31/31/31 30/30/30
f 33/33/33 31/31/31 32/32/32
f 34/34/34 33/33/33 32/32/32
