g DockPillarBeamMidT
v 1.11758709E-08 0.5 -0.0999998823
v 0.0999999717 0.5 0.0999998152
v -0.100000016 0.5 0.0999998301
v 1.11758709E-08 0.5 -0.0999998823
v -0.5 0.5 0.100000024
v -0.5 0.5 -0.0999999642
v -0.5 0.220000014 0.100000024
v -0.5 0.220000014 -0.0999999642
v -0.5 0.5 -0.0999999642
v -0.5 0.5 0.100000024
v -4.84287739E-08 0.220000014 -0.0999998897
v 0.5 0.220000014 -0.0999999642
v 0.5 0.5 -0.0999999642
v 1.11758709E-08 0.5 -0.0999998823
v 0.5 0.220000014 -0.0999999642
v 0.5 0.220000014 0.100000024
v 0.5 0.5 0.100000024
v 0.5 0.5 -0.0999999642
v -0.100000054 0.220000014 0.100000024
v -0.5 0.220000014 0.100000024
v -0.5 0.5 0.100000024
v -0.100000016 0.5 0.0999998301
v -4.84287739E-08 0.220000014 -0.0999998897
v 0.5 0.220000014 0.100000024
v 0.5 0.220000014 -0.0999999642
v 0.100000054 0.220000014 0.100000024
v -0.100000054 0.220000014 0.100000024
v 0.5 0.5 -0.0999999642
v 0.5 0.5 0.100000024
v 0.0999999717 0.5 0.0999998152
v 1.11758709E-08 0.5 -0.0999998823
v -0.5 0.220000014 -0.0999999642
v -0.5 0.220000014 0.100000024
v -0.100000054 0.220000014 0.100000024
v -4.84287739E-08 0.220000014 -0.0999998897
v 0.5 0.220000014 0.100000024
v 0.100000054 0.220000014 0.100000024
v 0.0999999717 0.5 0.0999998152
v 0.5 0.5 0.100000024
v -0.5 0.220000014 -0.0999999642
v -4.84287739E-08 0.220000014 -0.0999998897
v 1.11758709E-08 0.5 -0.0999998823
v -0.5 0.5 -0.0999999642
v 0.100000054 0.220000014 0.100000024
v 0.100000001 0.220000014 0.5
v 0.100000001 0.5 0.5
v 0.0999999717 0.5 0.0999998152
v 0.100000001 0.220000014 0.5
v -0.0999999866 0.220000014 0.5
v -0.0999999866 0.5 0.5
v 0.100000001 0.5 0.5
v 0.100000054 0.220000014 0.100000024
v -0.100000054 0.220000014 0.100000024
v -0.0999999866 0.220000014 0.5
v 0.100000001 0.220000014 0.5
v 0.100000001 0.5 0.5
v -0.0999999866 0.5 0.5
v -0.100000016 0.5 0.0999998301
v 0.0999999717 0.5 0.0999998152
v -0.0999999866 0.220000014 0.5
v -0.100000054 0.220000014 0.100000024
v -0.100000016 0.5 0.0999998301
v -0.0999999866 0.5 0.5
vt 0.926543117 0.0598893128
vt 0.91816175 0.0459205285
vt 0.91816175 0.0598893128
vt 0.926543117 0.0598893128
vt 0.918161809 0.0738580972
vt 0.926543176 0.0738580972
vt 0.297925711 0.994299233
vt 0.362367749 0.994299173
vt 0.362367749 0.904083312
vt 0.297925711 0.904083192
vt 0.846187592 0.0449088551
vt 0.846187651 0.0309400707
vt 0.83445394 0.0309400707
vt 0.83445394 0.0449088551
vt 0.362367749 0.904083312
vt 0.297925711 0.904083192
vt 0.297925711 0.994299233
vt 0.362367749 0.994299173
vt 0.854568899 0.0588776395
vt 0.854568899 0.0728464276
vt 0.866302669 0.0728464276
vt 0.866302669 0.0588776395
vt 0.938276887 0.0459205285
vt 0.946658134 0.0319517478
vt 0.938276887 0.0319517478
vt 0.946658134 0.0459205285
vt 0.946658075 0.0598893128
vt 0.926543176 0.0319517478
vt 0.91816175 0.0319517478
vt 0.91816175 0.0459205285
vt 0.926543117 0.0459205285
vt 0.938276887 0.0738580972
vt 0.946658134 0.0738580972
vt 0.946658075 0.0598893128
vt 0.938276887 0.0598893128
vt 0.854568899 0.0309400707
vt 0.854568899 0.0449088551
vt 0.866302669 0.0449088551
vt 0.866302669 0.0309400707
vt 0.846187651 0.0728464276
vt 0.846187592 0.0588776395
vt 0.83445394 0.0588776395
vt 0.83445394 0.0728464276
vt 0.846187592 0.0449088551
vt 0.846187651 0.0309400707
vt 0.83445394 0.0309400707
vt 0.83445394 0.0449088551
vt 0.362367749 0.904083312
vt 0.297925711 0.904083192
vt 0.297925711 0.994299233
vt 0.362367749 0.994299173
vt 0.938276887 0.0459205285
vt 0.946658134 0.0459205285
vt 0.946658134 0.0319517478
vt 0.938276887 0.0319517478
vt 0.926543176 0.0319517478
vt 0.91816175 0.0319517478
vt 0.91816175 0.0459205285
vt 0.926543117 0.0459205285
vt 0.854568899 0.0309400707
vt 0.854568899 0.0449088551
vt 0.866302669 0.0449088551
vt 0.866302669 0.0309400707
vn -0 1 0
vn -0 1 0
vn -0 1 0
vn -0 1 0
vn -0 1 0
vn -0 1 0
vn -1 0 0
vn -1 0 0
vn -1 0 0
vn -1 0 0
vn -0 0 -1
vn -0 0 -1
vn -0 0 -1
vn -0 0 -1
vn 1 0 0
vn 1 0 0
vn 1 0 0
vn 1 0 0
vn -0 0 1
vn -0 0 1
vn -0 0 1
vn -0 0 1
vn -0 -1 0
vn -0 -1 0
vn -0 -1 0
vn -0 -1 0
vn -0 -1 0
vn -0 1 0
vn -0 1 0
vn -0 1 0
vn -0 1 0
vn -0 -1 0
vn -0 -1 0
vn -0 -1 0
vn -0 -1 0
vn -0 0 1
vn -0 0 1
vn -0 0 1
vn -0 0 1
vn -0 0 -1
vn -0 0 -1
vn -0 0 -1
vn -0 0 -1
vn 1 0 0
vn 1 0 0
vn 1 0 0
vn 1 0 0
vn -0 0 1
vn -0 0 1
vn -0 0 1
vn -0 0 1
vn -0 -1 0
vn -0 -1 0
vn -0 -1 0
vn -0 -1 0
vn -0 1 0
vn -0 1 0
vn -0 1 0
vn -0 1 0
vn -1 0 0
vn -1 0 0
vn -1 0 0
vn -1 0 0
g DockPillarBeamMidT_0
f 3/3/3 2/2/2 1/1/1
f 5/5/5 3/3/3 4/4/4
f 6/6/6 5/5/5 4/4/4
f 9/9/9 8/8/8 7/7/7
f 10/10/10 9/9/9 7/7/7
f 13/13/13 12/12/12 11/11/11
f 14/14/14 13/13/13 11/11/11
f 17/17/17 16/16/16 15/15/15
f 18/18/18 17/17/17 15/15/15
f 21/21/21 20/20/20 19/19/19
f 22/22/22 21/21/21 19/19/19
f 25/25/25 24/24/24 23/23/23
f 24/24/24 26/26/26 23/23/23
f 26/26/26 27/27/27 23/23/23
f 30/30/30 29/29/29 28/28/28
f 31/31/31 30/30/30 28/28/28
f 34/34/34 33/33/33 32/32/32
f 35/35/35 34/34/34 32/32/32
f 38/38/38 37/37/37 36/36/36
f 39/39/39 38/38/38 36/36/36
f 42/42/42 41/41/41 40/40/40
f 43/43/43 42/42/42 40/40/40
g DockPillarBeamMidT_1
f 46/46/46 45/45/45 44/44/44
f 47/47/47 46/46/46 44/44/44
f 50/50/50 49/49/49 48/48/48
f 51/51/51 50/50/50 48/48/48
f 54/54/54 53/53/53 52/52/52
f 55/55/55 54/54/54 52/52/52
f 58/58/58 57/57/57 56/56/56
f 59/59/59 58/58/58 56/56/56
f 62/62/62 61/61/61 60/60/60
f 63/63/63 62/62/62 60/60/60
