g MS_Roof2Way
v 0.0999902338 0.0250100698 -0.0999902338
v 0.0999902338 0.0250100698 -0.5
v 0.5 -0.375 -0.5
v 0.0999902338 0.0250100698 -0.0999902338
v 0.5 -0.375 -0.5
v 0.5 0.0250100698 -0.0999902338
v 0.5 0.0250100698 0.0999902338
v 0.5 0.0250100698 -0.0999902338
v 0.5 -0.375 -0.5
v 0.5 -0.375 0.5
v 0.5 -0.49999994 -0.375
v 0.5 -0.5 -0.5
v 0.5 -0.5 0.375
v 0.5 -0.5 0.5
v 0.0999902338 0.0250100698 -0.5
v -0.0999902338 0.0250100698 -0.5
v -0.5 -0.375 -0.5
v 0.5 -0.375 -0.5
v -0.375 -0.5 -0.5
v -0.5 -0.5 -0.5
v 0.375 -0.5 -0.5
v 0.5 -0.5 -0.5
v 0.5 -0.5 0.375
v 0.5 -0.49999994 -0.375
v 0.375 -0.5 -0.375
v -0.375 -0.5 0.375
v -0.375 -0.5 -0.5
v 0.375 -0.5 -0.5
v 0.5 0.102705918 0.0999902338
v -0.0999902338 0.102705918 0.0999902338
v -0 0.154641971 0
v 0.5 0.154641971 0
v -0.0999902338 0.102705918 -0.5
v -0 0.154641971 -0.5
v -0 0.154641971 0
v -0.0999902338 0.102705918 0.0999902338
v -0.5 -0.5 0.5
v -0.5 -0.5 -0.5
v -0.5 -0.375 -0.5
v -0.5 -0.375 0.5
v 0.5 -0.5 0.5
v -0.5 -0.5 0.5
v -0.5 -0.375 0.5
v 0.5 -0.375 0.5
v 0.5 0.0250100698 0.0999902338
v 0.5 0.102705918 0.0999902338
v 0.5 0.154641971 0
v 0.5 0.102705918 -0.0999902338
v 0.5 0.0250100698 -0.0999902338
v 0.5 0.0250100698 -0.0999902338
v 0.5 0.102705918 -0.0999902338
v 0.0999902338 0.102705918 -0.0999902338
v 0.0999902338 0.0250100698 -0.0999902338
v -0.0999902338 0.0250100698 0.0999902338
v -0.0999902338 0.102705918 0.0999902338
v 0.5 0.102705918 0.0999902338
v 0.5 0.0250100698 0.0999902338
v -0.0999902338 0.0250100698 -0.5
v -0.0999902338 0.102705918 -0.5
v -0.0999902338 0.102705918 0.0999902338
v -0.0999902338 0.0250100698 0.0999902338
v 0.0999902338 0.0250100698 -0.0999902338
v 0.0999902338 0.102705918 -0.0999902338
v 0.0999902338 0.102705918 -0.5
v 0.0999902338 0.0250100698 -0.5
v -0 0.154641971 -0.5
v -0.0999902338 0.102705918 -0.5
v -0.0999902338 0.0250100698 -0.5
v 0.0999902338 0.0250100698 -0.5
v 0.0999902338 0.102705918 -0.5
v -0 0.154641971 0
v 0.0999902338 0.102705918 -0.0999902338
v 0.5 0.102705918 -0.0999902338
v 0.5 0.154641971 0
v -0 0.154641971 -0.5
v 0.0999902338 0.102705918 -0.5
v 0.0999902338 0.102705918 -0.0999902338
v -0 0.154641971 0
v -0.5 -0.5 0.5
v 0.5 -0.5 0.5
v 0.5 -0.5 0.375
v -0.375 -0.5 0.375
v -0.5 -0.5 0.5
v -0.375 -0.5 0.375
v -0.375 -0.5 -0.5
v -0.5 -0.5 -0.5
v 0.5 -0.49999994 -0.375
v 0.5 -0.5 -0.5
v 0.375 -0.5 -0.5
v 0.375 -0.5 -0.375
v -0.125000298 -0.00494298106 0.125
v -0.125000298 0.180466101 0.125
v 0.125000298 0.180466101 0.125
v 0.125000298 -0.00494298106 0.125
v -0.0619998164 0.258161902 0.0620001219
v -0.0619998164 0.258161902 -0.0620001219
v 0.0620004274 0.258161902 -0.0620001219
v 0.0620004274 0.258161902 0.0620001219
v -0.125000298 0.180466101 -0.125000611
v -0.125000298 -0.00494298106 -0.125000611
v 0.125000298 -0.00494298106 -0.125000611
v 0.125000298 0.180466101 -0.125000611
v 0.125000298 -0.00494298106 0.125
v 0.125000298 0.180466101 0.125
v 0.125000298 0.180466101 -0.125000611
v 0.125000298 -0.00494298106 -0.125000611
v -0.125000298 -0.00494298106 -0.125000611
v -0.125000298 0.180466101 -0.125000611
v -0.125000298 0.180466101 0.125
v -0.125000298 -0.00494298106 0.125
v -0.125000298 0.180466101 0.125
v -0.0619998164 0.258161902 0.0620001219
v 0.0620004274 0.258161902 0.0620001219
v 0.125000298 0.180466101 0.125
v 0.125000298 0.180466101 0.125
v 0.0620004274 0.258161902 0.0620001219
v 0.0620004274 0.258161902 -0.0620001219
v 0.125000298 0.180466101 -0.125000611
v 0.125000298 0.180466101 -0.125000611
v 0.0620004274 0.258161902 -0.0620001219
v -0.0619998164 0.258161902 -0.0620001219
v -0.125000298 0.180466101 -0.125000611
v -0.125000298 0.180466101 -0.125000611
v -0.0619998164 0.258161902 -0.0620001219
v -0.0619998164 0.258161902 0.0620001219
v -0.125000298 0.180466101 0.125
v 0.0230249017 0.0250100698 0.0999902338
v 0.5 0.0250100698 0.0999902338
v 0.5 -0.375 0.5
v -0.375 -0.375 0.5
v -0.0999902338 0.0250100698 -0.0230249017
v -0.5 -0.375 0.375
v -0.5 -0.375 -0.5
v -0.0999902338 0.0250100698 -0.5
v -0.375 -0.287116021 0.5
v -0.5 -0.287116021 0.5
v -0.125 0.102695845 0.125
v -0 0.102695845 0.125
v -0.125 0.102695845 0.125
v -0.5 -0.287116021 0.5
v -0.5 -0.287116021 0.375
v -0.125 0.102695845 0
v -0.375 -0.375 0.5
v -0.375 -0.287116021 0.5
v -0 0.102695845 0.125
v -0 -5.03540014E-06 0.125
v -0.5 -0.375 0.5
v -0.5 -0.287116021 0.5
v -0.375 -0.287116021 0.5
v -0.375 -0.375 0.5
v -0.125 -5.03540014E-06 0
v -0.125 0.102695845 0
v -0.5 -0.287116021 0.375
v -0.5 -0.375 0.375
v -0.5 -0.375 0.375
v -0.5 -0.287116021 0.375
v -0.5 -0.287116021 0.5
v -0.5 -0.375 0.5
vt 0.753254175 0.619248569
vt 0.883993864 0.619248569
vt 0.883993864 0.434354603
vt 0.727296054 0.619634867
vt 0.58982265 0.425557584
vt 0.589982808 0.619748116
vt 0.691148758 0.202952296
vt 0.626092136 0.202952176
vt 0.519209623 0.0891059563
vt 0.793862462 0.0891059563
vt 0.5536623 0.05401548
vt 0.519280434 0.0540153682
vt 0.758985996 0.0540154278
vt 0.793921649 0.05401548
vt 0.626092136 0.202952176
vt 0.691148758 0.202952296
vt 0.793862462 0.0891059563
vt 0.519209623 0.0891059563
vt 0.758985996 0.0540154278
vt 0.793921649 0.05401548
vt 0.5536623 0.05401548
vt 0.519280434 0.0540153682
vt 0.949720979 0.0450896174
vt 0.949720979 0.0451179817
vt 0.949725747 0.0451179855
vt 0.949754238 0.0450896248
vt 0.949754119 0.0451227129
vt 0.949725747 0.0451227091
vt 0.892915308 0.110176638
vt 0.892915308 0.291515827
vt 0.926720798 0.262005985
vt 0.927044094 0.110176638
vt 0.892915189 0.413171351
vt 0.926368177 0.413171411
vt 0.92669183 0.262005687
vt 0.892915308 0.232103735
vt 0.792130828 0.0473194122
vt 0.50254935 0.0473194122
vt 0.502624094 0.00993454456
vt 0.792193353 0.00993466377
vt 0.792130828 0.0473194122
vt 0.50254935 0.0473194122
vt 0.502624094 0.00993454456
vt 0.792193353 0.00993466377
vt 0.99093473 0.260365635
vt 0.966553807 0.260365635
vt 0.966553807 0.292241126
vt 0.966553807 0.319818467
vt 0.99093473 0.319818467
vt 0.99093473 0.403373629
vt 0.966553807 0.403373629
vt 0.966553807 0.260977268
vt 0.99093473 0.260977268
vt 0.99093473 0.260136247
vt 0.966553807 0.260136247
vt 0.966553807 0.473721534
vt 0.99093473 0.473721534
vt 0.99093473 0.438738763
vt 0.966553807 0.438739061
vt 0.966553807 0.260365635
vt 0.99093473 0.260365635
vt 0.99093473 0.260682017
vt 0.966553807 0.260682255
vt 0.966553807 0.379602909
vt 0.99093473 0.379602909
vt 0.990934968 0.438343525
vt 0.990934968 0.472916812
vt 0.966553807 0.472916812
vt 0.966553807 0.401727349
vt 0.990934968 0.401727349
vt 0.926720798 0.262005985
vt 0.960822105 0.231420964
vt 0.960822344 0.110176578
vt 0.927044094 0.110176638
vt 0.926368177 0.413171411
vt 0.960822105 0.413170785
vt 0.960821986 0.292245001
vt 0.92669183 0.262005687
vt 0.433953941 0.0470821857
vt 0.728412092 0.0470821261
vt 0.728411734 0.0101139545
vt 0.470750749 0.0101138353
vt 0.433953941 0.0470821857
vt 0.470750749 0.0101138353
vt 0.728411734 0.0101139545
vt 0.728412092 0.0470821261
vt 0.881259143 0.28631264
vt 0.881259084 0.329469144
vt 0.838102281 0.329469085
vt 0.83810252 0.286312819
vt 0.884993315 0.110231519
vt 0.884993076 0.179583669
vt 0.789491653 0.179583549
vt 0.789491653 0.110231042
vt 0.814191341 0.2042588
vt 0.814191341 0.25066936
vt 0.860601664 0.25066936
vt 0.860601664 0.2042588
vt 0.884993315 0.110231519
vt 0.884993076 0.179583669
vt 0.789491653 0.179583549
vt 0.789491653 0.110231042
vt 0.884993315 0.110231519
vt 0.884993076 0.179583669
vt 0.789491653 0.179583549
vt 0.789491653 0.110231042
vt 0.884993315 0.110231519
vt 0.884993076 0.179583669
vt 0.789491653 0.179583549
vt 0.789491653 0.110231042
vt 0.789401531 0.179605484
vt 0.814191341 0.2042588
vt 0.860601664 0.2042588
vt 0.884903193 0.179605007
vt 0.884903193 0.179605007
vt 0.860601664 0.2042588
vt 0.860601664 0.25066936
vt 0.885172844 0.275376916
vt 0.885172844 0.275376916
vt 0.860601664 0.25066936
vt 0.814191341 0.25066936
vt 0.789401531 0.275376916
vt 0.789401531 0.275376916
vt 0.814191341 0.25066936
vt 0.814191341 0.2042588
vt 0.789401531 0.179605484
vt 0.591674328 0.412643492
vt 0.418896347 0.412643492
vt 0.418896347 0.235123813
vt 0.735495985 0.234345943
vt 0.591674328 0.412643492
vt 0.735495985 0.234345943
vt 0.418896347 0.235123813
vt 0.418896347 0.412643492
vt 0.960958481 0.451557755
vt 0.926855743 0.426215917
vt 0.926829755 0.642971694
vt 0.960958481 0.66681695
vt 0.926829755 0.642971694
vt 0.926855743 0.426215917
vt 0.892909706 0.451557517
vt 0.892932057 0.667504251
vt 0.99093473 0.977633357
vt 0.966553807 0.956531465
vt 0.966553807 0.487469226
vt 0.99093473 0.508571208
vt 0.990934968 0.472855479
vt 0.966553807 0.472855479
vt 0.966553807 0.432680666
vt 0.990934968 0.432680666
vt 0.966553807 0.956531465
vt 0.99093473 0.977633357
vt 0.99093473 0.508571208
vt 0.966553807 0.487469226
vt 0.966553807 0.472855479
vt 0.990934968 0.472855479
vt 0.990934968 0.432680666
vt 0.966553807 0.432680666
vn 0.707107186 0.707106352 0
vn 0.707107186 0.707106352 0
vn 0.707107186 0.707106352 0
vn -0 0.707106471 -0.707107008
vn -0 0.707106471 -0.707107008
vn -0 0.707106471 -0.707107067
vn 1 0 0
vn 1 0 0
vn 1 0 0
vn 1 0 0
vn 1 0 0
vn 1 0 0
vn 1 0 0
vn 1 0 0
vn -0 0 -1
vn -0 0 -1
vn -0 0 -1
vn -0 0 -1
vn -0 0 -1
vn -0 0 -1
vn -0 0 -1
vn -0 0 -1
vn -0 -1 0
vn -0 -1 0
vn -0 -1 0
vn -0 -1 0
vn -0 -1 0
vn -0 -1 0
vn -0 0.887430608 0.460941404
vn -0 0.887430608 0.460941464
vn -0 0.887430608 0.460941404
vn -0 0.887430608 0.460941404
vn -0.460941404 0.887430608 0
vn -0.460941404 0.887430608 0
vn -0.460941404 0.887430608 0
vn -0.460941464 0.887430608 0
vn -1 0 0
vn -1 0 0
vn -1 0 0
vn -1 0 0
vn -0 0 1
vn -0 0 1
vn -0 0 1
vn -0 0 1
vn 1 0 0
vn 1 0 0
vn 1 0 0
vn 1 0 0
vn 1 0 0
vn -0 0 -1
vn -0 0 -1
vn -0 0 -1
vn -0 0 -1
vn -0 0 1
vn -0 0 1
vn -0 0 1
vn -0 0 1
vn -1 0 0
vn -1 0 0
vn -1 0 0
vn -1 0 0
vn 1 0 0
vn 1 0 0
vn 1 0 0
vn 1 0 0
vn 5.1496329E-07 0 -1
vn -3.14256749E-06 0 -1
vn 1.74649728E-07 0 -1
vn 7.24610459E-07 0 -1
vn 7.24610459E-07 0 -1
vn -0 0.887430608 -0.460941404
vn -0 0.887430608 -0.460941404
vn -0 0.887430608 -0.460941404
vn -0 0.887430608 -0.460941404
vn 0.460941553 0.887430489 0
vn 0.460941553 0.887430489 0
vn 0.460941553 0.887430489 0
vn 0.460941553 0.887430489 0
vn -0 -1 0
vn -0 -1 0
vn -0 -1 0
vn -0 -1 0
vn -0 -1 0
vn -0 -1 0
vn -0 -1 0
vn -0 -1 0
vn -0 -1 0
vn 1.52587887E-07 -1 0
vn -0 -1 0
vn -0 -1 0
vn -0 0 1
vn -0 0 1
vn -0 0 1
vn -0 0 1
vn -0 1 0
vn -0 1 0
vn -0 1 0
vn -0 1 0
vn -0 0 -1
vn -0 0 -1
vn -0 0 -1
vn -0 0 -1
vn 1 0 0
vn 1 0 0
vn 1 0 0
vn 1 0 0
vn -1 0 0
vn -1 0 0
vn -1 0 0
vn -1 0 0
vn -0 0.629821658 0.776739717
vn -0 0.629821658 0.776739717
vn -0 0.629821718 0.776739776
vn -0 0.629821718 0.776739776
vn 0.776739061 0.629822493 0
vn 0.776739061 0.629822552 0
vn 0.776739061 0.629822552 0
vn 0.776739061 0.629822493 0
vn -0 0.629825592 -0.776736557
vn -0 0.629825592 -0.776736557
vn -0 0.629825711 -0.776736498
vn -0 0.629825711 -0.776736557
vn -0.77673775 0.629824162 0
vn -0.77673775 0.629824102 0
vn -0.77673775 0.629824102 0
vn -0.77673775 0.629824102 0
vn -0 0.70710659 0.707106948
vn -0 0.70710659 0.707106888
vn -0 0.70710659 0.707106888
vn -0 0.70710659 0.707106948
vn -0.707106948 0.70710659 0
vn -0.707106948 0.70710659 0
vn -0.707106888 0.70710659 0
vn -0.707106888 0.70710659 0
vn -0 0.693282485 0.720665872
vn -0 0.693282485 0.720666051
vn -0 0.693282485 0.720665872
vn -0 0.693282485 0.720666051
vn -0.720665753 0.693282664 0
vn -0.720665812 0.693282545 0
vn -0.720665753 0.693282664 0
vn -0.720665812 0.693282545 0
vn 0.707106829 0 0.707106769
vn 0.707106829 0 0.707106769
vn 0.707106829 0 0.707106769
vn 0.707106829 0 0.707106769
vn -0 0 1
vn -0 0 1
vn -0 0 1
vn -0 0 1
vn -0.707106829 0 -0.707106769
vn -0.707106829 0 -0.707106769
vn -0.707106829 0 -0.707106769
vn -0.707106829 0 -0.707106769
vn -1 0 0
vn -1 0 0
vn -1 0 0
vn -1 0 0
g MS_Roof2Way_0
f 3/3/3 2/2/2 1/1/1
f 6/6/6 5/5/5 4/4/4
f 9/9/9 8/8/8 7/7/7
f 10/10/10 9/9/9 7/7/7
f 9/9/9 10/10/10 11/11/11
f 9/9/9 11/11/11 12/12/12
f 10/10/10 13/13/13 11/11/11
f 10/10/10 14/14/14 13/13/13
f 17/17/17 16/16/16 15/15/15
f 18/18/18 17/17/17 15/15/15
f 17/17/17 18/18/18 19/19/19
f 17/17/17 19/19/19 20/20/20
f 18/18/18 21/21/21 19/19/19
f 18/18/18 22/22/22 21/21/21
f 25/25/25 24/24/24 23/23/23
f 25/25/25 23/23/23 26/26/26
f 25/25/25 26/26/26 27/27/27
f 27/27/27 28/28/28 25/25/25
f 31/31/31 30/30/30 29/29/29
f 32/32/32 31/31/31 29/29/29
f 35/35/35 34/34/34 33/33/33
f 36/36/36 35/35/35 33/33/33
f 39/39/39 38/38/38 37/37/37
f 40/40/40 39/39/39 37/37/37
f 43/43/43 42/42/42 41/41/41
f 44/44/44 43/43/43 41/41/41
f 47/47/47 46/46/46 45/45/45
f 48/48/48 47/47/47 45/45/45
f 49/49/49 48/48/48 45/45/45
f 52/52/52 51/51/51 50/50/50
f 53/53/53 52/52/52 50/50/50
f 56/56/56 55/55/55 54/54/54
f 57/57/57 56/56/56 54/54/54
f 60/60/60 59/59/59 58/58/58
f 61/61/61 60/60/60 58/58/58
f 64/64/64 63/63/63 62/62/62
f 65/65/65 64/64/64 62/62/62
f 68/68/68 67/67/67 66/66/66
f 68/68/68 66/66/66 69/69/69
f 66/66/66 70/70/70 69/69/69
f 73/73/73 72/72/72 71/71/71
f 74/74/74 73/73/73 71/71/71
f 77/77/77 76/76/76 75/75/75
f 78/78/78 77/77/77 75/75/75
f 81/81/81 80/80/80 79/79/79
f 82/82/82 81/81/81 79/79/79
f 85/85/85 84/84/84 83/83/83
f 86/86/86 85/85/85 83/83/83
f 89/89/89 88/88/88 87/87/87
f 90/90/90 89/89/89 87/87/87
f 93/93/93 92/92/92 91/91/91
f 94/94/94 93/93/93 91/91/91
f 97/97/97 96/96/96 95/95/95
f 98/98/98 97/97/97 95/95/95
f 101/101/101 100/100/100 99/99/99
f 102/102/102 101/101/101 99/99/99
f 105/105/105 104/104/104 103/103/103
f 106/106/106 105/105/105 103/103/103
f 109/109/109 108/108/108 107/107/107
f 110/110/110 109/109/109 107/107/107
f 113/113/113 112/112/112 111/111/111
f 114/114/114 113/113/113 111/111/111
f 117/117/117 116/116/116 115/115/115
f 118/118/118 117/117/117 115/115/115
f 121/121/121 120/120/120 119/119/119
f 122/122/122 121/121/121 119/119/119
f 125/125/125 124/124/124 123/123/123
f 126/126/126 125/125/125 123/123/123
f 129/129/129 128/128/128 127/127/127
f 130/130/130 129/129/129 127/127/127
f 133/133/133 132/132/132 131/131/131
f 134/134/134 133/133/133 131/131/131
f 137/137/137 136/136/136 135/135/135
f 138/138/138 137/137/137 135/135/135
f 141/141/141 140/140/140 139/139/139
f 142/142/142 141/141/141 139/139/139
f 145/145/145 144/144/144 143/143/143
f 146/146/146 145/145/145 143/143/143
f 149/149/149 148/148/148 147/147/147
f 150/150/150 149/149/149 147/147/147
f 153/153/153 152/152/152 151/151/151
f 154/154/154 153/153/153 151/151/151
f 157/157/157 156/156/156 155/155/155
f 158/158/158 157/157/157 155/155/155
