g ColumnMiddle
v -0.192418367 0.5 0.384797662
v 0.192418054 0.5 0.384797662
v 0.192418054 -0.5 0.384797662
v -0.192418367 -0.5 0.384797662
v -0.192418367 -0.5 -0.384797961
v 0.192418054 -0.5 -0.384797961
v 0.192418054 0.5 -0.384797961
v -0.192418367 0.5 -0.384797961
v 0.384797662 0.5 0.192417979
v 0.384797662 0.5 -0.192418441
v 0.384797662 -0.5 -0.192418441
v 0.384797662 -0.5 0.192417979
v -0.384797961 0.5 -0.192418441
v -0.384797961 0.5 0.192417979
v -0.384797961 -0.5 0.192417979
v -0.384797961 -0.5 -0.192418441
v -0.384797961 -0.5 0.192417979
v -0.384797961 0.5 0.192417979
v -0.192418367 0.5 0.384797662
v -0.192418367 -0.5 0.384797662
v 0.192418054 -0.5 0.384797662
v 0.192418054 0.5 0.384797662
v 0.384797662 0.5 0.192417979
v 0.384797662 -0.5 0.192417979
v -0.384797961 0.5 -0.192418441
v -0.384797961 -0.5 -0.192418441
v -0.192418367 -0.5 -0.384797961
v -0.192418367 0.5 -0.384797961
v 0.192418054 0.5 -0.384797961
v 0.192418054 -0.5 -0.384797961
v 0.384797662 -0.5 -0.192418441
v 0.384797662 0.5 -0.192418441
vt 0.782267928 0.953281522
vt 0.782267869 0.802680254
vt 0.42844981 0.802680254
vt 0.42844975 0.953281581
vt 0.42844975 0.953281581
vt 0.42844981 0.802680254
vt 0.782267869 0.802680254
vt 0.782267928 0.953281522
vt 0.782267928 0.953281522
vt 0.782267869 0.802680254
vt 0.42844981 0.802680254
vt 0.42844975 0.953281581
vt 0.782267928 0.953281522
vt 0.782267869 0.802680254
vt 0.42844981 0.802680254
vt 0.42844975 0.953281581
vt 0.42844981 0.802680254
vt 0.782267869 0.802680254
vt 0.782267869 0.72743541
vt 0.42844969 0.727435291
vt 0.42844981 0.802680254
vt 0.782267869 0.802680254
vt 0.782267869 0.72743541
vt 0.42844969 0.727435291
vt 0.782267869 0.72743541
vt 0.42844969 0.727435291
vt 0.42844981 0.802680254
vt 0.782267869 0.802680254
vt 0.782267869 0.72743541
vt 0.42844969 0.727435291
vt 0.42844981 0.802680254
vt 0.782267869 0.802680254
vn -0 0 1
vn -0 0 1
vn -0 0 1
vn -0 0 1
vn -0 0 -1
vn -0 0 -1
vn -0 0 -1
vn -0 0 -1
vn 1 0 0
vn 1 0 0
vn 1 0 0
vn 1 0 0
vn -1 0 0
vn -1 0 0
vn -1 0 0
vn -1 0 0
vn -0.707106829 0 0.70710665
vn -0.707106829 0 0.70710665
vn -0.707106829 0 0.70710665
vn -0.707106829 0 0.70710665
vn 0.707106829 0 0.70710665
vn 0.707106829 0 0.70710665
vn 0.707106829 0 0.70710665
vn 0.707106829 0 0.70710665
vn -0.707106829 0 -0.70710665
vn -0.707106829 0 -0.70710665
vn -0.707106829 0 -0.70710665
vn -0.707106829 0 -0.70710665
vn 0.707106829 0 -0.70710665
vn 0.707106829 0 -0.70710665
vn 0.707106829 0 -0.70710665
vn 0.707106829 0 -0.70710665
g ColumnMiddle_0
f 3/3/3 2/2/2 1/1/1
f 4/4/4 3/3/3 1/1/1
f 7/7/7 6/6/6 5/5/5
f 8/8/8 7/7/7 5/5/5
f 11/11/11 10/10/10 9/9/9
f 12/12/12 11/11/11 9/9/9
f 15/15/15 14/14/14 13/13/13
f 16/16/16 15/15/15 13/13/13
f 19/19/19 18/18/18 17/17/17
f 20/20/20 19/19/19 17/17/17
f 23/23/23 22/22/22 21/21/21
f 24/24/24 23/23/23 21/21/21
f 27/27/27 26/26/26 25/25/25
f 28/28/28 27/27/27 25/25/25
f 31/31/31 30/30/30 29/29/29
f 32/32/32 31/31/31 29/29/29
