g DockPillarBeamEndAlt
v 0.50000006 0.499999911 0.0999998152
v 0.49999997 0.499999881 -0.100000173
v 0.49999997 0.21999988 -0.100000128
v 0.50000006 0.219999909 0.0999998599
v 0.200000018 0.499999911 0.0999999121
v 0.100000054 0.219999909 0.099999994
v 0.100000054 0.399999976 0.0999999642
v 0.50000006 0.219999909 0.0999998599
v 0.50000006 0.499999911 0.0999998152
v 0.49999997 0.21999988 -0.100000128
v 0.099999994 0.399999946 -0.100000024
v 0.099999994 0.21999988 -0.099999994
v 0.199999958 0.499999881 -0.100000076
v 0.49999997 0.499999881 -0.100000173
v 0.099999994 0.399999946 -0.100000024
v 0.100000054 0.399999976 0.0999999642
v 0.100000054 0.219999909 0.099999994
v 0.099999994 0.21999988 -0.099999994
v 0.099999994 0.21999988 -0.099999994
v 0.100000054 0.219999909 0.099999994
v 0.50000006 0.219999909 0.0999998599
v 0.49999997 0.21999988 -0.100000128
v 0.200000018 0.499999911 0.0999999121
v 0.100000054 0.399999976 0.0999999642
v 0.099999994 0.399999946 -0.100000024
v 0.199999958 0.499999881 -0.100000076
v 0.49999997 0.499999881 -0.100000173
v 0.50000006 0.499999911 0.0999998152
v 0.200000018 0.499999911 0.0999999121
v 0.199999958 0.499999881 -0.100000076
vt 0.297925711 0.994299233
vt 0.362367749 0.994299173
vt 0.362367749 0.904083312
vt 0.297925711 0.904083192
vt 0.857804716 0.0580287687
vt 0.883491397 0.0488549657
vt 0.866978526 0.0488549583
vt 0.883491397 0.0855502188
vt 0.857804716 0.0855502039
vt 0.813770473 0.0855502039
vt 0.830283344 0.0488549583
vt 0.813770473 0.0488549583
vt 0.839457095 0.0580287687
vt 0.839457095 0.0855502039
vt 0.256924123 0.900269926
vt 0.256924003 0.835826993
vt 0.19892545 0.835827053
vt 0.198925555 0.900269806
vt 0.993928194 0.0498666428
vt 0.975580633 0.0498666428
vt 0.975580633 0.0865618885
vt 0.993928254 0.0865618885
vt 0.302493423 0.835827112
vt 0.256924003 0.835826993
vt 0.256924123 0.900269926
vt 0.302493483 0.900269926
vt 0.93154633 0.0865618736
vt 0.949893951 0.0865618736
vt 0.949893951 0.0590404496
vt 0.93154633 0.0590404496
vn 1 0 0
vn 1 0 0
vn 1 0 0
vn 1 0 0
vn -0 0 1
vn -0 0 1
vn -0 0 1
vn -0 0 1
vn -0 0 1
vn -0 0 -1
vn -0 0 -1
vn -0 0 -1
vn -0 0 -1
vn -0 0 -1
vn -1 0 0
vn -1 0 0
vn -1 0 0
vn -1 0 0
vn -0 -1 0
vn -0 -1 0
vn -0 -1 0
vn -0 -1 0
vn -0.70710659 0.707106948 0
vn -0.70710659 0.707106948 0
vn -0.70710659 0.707106948 0
vn -0.70710659 0.707106948 0
vn -0 1 0
vn -0 1 0
vn -0 1 0
vn -0 1 0
g DockPillarBeamEndAlt_0
f 3/3/3 2/2/2 1/1/1
f 4/4/4 3/3/3 1/1/1
f 7/7/7 6/6/6 5/5/5
f 6/6/6 8/8/8 5/5/5
f 5/5/5 8/8/8 9/9/9
f 12/12/12 11/11/11 10/10/10
f 11/11/11 13/13/13 10/10/10
f 10/10/10 13/13/13 14/14/14
f 17/17/17 16/16/16 15/15/15
f 18/18/18 17/17/17 15/15/15
f 21/21/21 20/20/20 19/19/19
f 22/22/22 21/21/21 19/19/19
f 25/25/25 24/24/24 23/23/23
f 26/26/26 25/25/25 23/23/23
f 29/29/29 28/28/28 27/27/27
f 30/30/30 29/29/29 27/27/27
