g ColumbBottom
v 0.5 -0.5 -0.400010049
v 0.5 -0.5 0.40000999
v 0.5 -0.3125 0.40000999
v 0.5 -0.3125 -0.400010049
v 0.400010049 -0.5 0.5
v -0.400010049 -0.5 0.5
v -0.400010049 -0.3125 0.5
v 0.400010049 -0.3125 0.5
v -0.5 -0.5 0.40000999
v -0.5 -0.5 -0.400010049
v -0.5 -0.3125 -0.400010049
v -0.5 -0.3125 0.40000999
v -0.400010049 -0.5 -0.5
v 0.400010049 -0.5 -0.5
v 0.400010049 -0.3125 -0.5
v -0.400010049 -0.3125 -0.5
v 0.192418054 -0.3125 0.384797722
v -0.192418367 -0.3125 0.384797722
v -0.192418367 0.5 0.384797722
v 0.192418054 0.5 0.384797722
v 0.192418054 0.5 -0.384797961
v -0.192418367 0.5 -0.384797961
v -0.192418367 -0.3125 -0.384797961
v 0.192418054 -0.3125 -0.384797961
v -0.384797961 -0.3125 0.192418128
v -0.384797961 -0.3125 -0.192418292
v -0.384797961 0.5 -0.192418292
v -0.384797961 0.5 0.192418128
v 0.384797662 -0.3125 -0.192418292
v 0.384797662 -0.3125 0.192418128
v 0.384797662 0.5 0.192418128
v 0.384797662 0.5 -0.192418292
v 0.384797662 0.5 0.192418128
v 0.384797662 -0.3125 0.192418128
v 0.192418054 -0.3125 0.384797722
v 0.192418054 0.5 0.384797722
v -0.192418367 0.5 0.384797722
v -0.192418367 -0.3125 0.384797722
v -0.384797961 -0.3125 0.192418128
v -0.384797961 0.5 0.192418128
v 0.384797662 -0.3125 -0.192418292
v 0.384797662 0.5 -0.192418292
v 0.192418054 0.5 -0.384797961
v 0.192418054 -0.3125 -0.384797961
v -0.192418367 -0.3125 -0.384797961
v -0.192418367 0.5 -0.384797961
v -0.384797961 0.5 -0.192418292
v -0.384797961 -0.3125 -0.192418292
v 0.5 -0.5 -0.400010049
v 0.400010049 -0.5 -0.5
v -0.400010049 -0.5 -0.5
v -0.5 -0.5 -0.400010049
v 0.5 -0.5 0.40000999
v -0.5 -0.5 0.40000999
v 0.400010049 -0.5 0.5
v -0.400010049 -0.5 0.5
v -0.5 -0.3125 -0.400010049
v -0.400010049 -0.3125 -0.5
v 0.400010049 -0.3125 -0.5
v 0.5 -0.3125 -0.400010049
v -0.5 -0.3125 0.40000999
v 0.5 -0.3125 0.40000999
v -0.400010049 -0.3125 0.5
v 0.400010049 -0.3125 0.5
v 0.5 -0.3125 0.40000999
v 0.5 -0.5 0.40000999
v 0.400010049 -0.5 0.5
v 0.400010049 -0.3125 0.5
v -0.400010049 -0.3125 0.5
v -0.400010049 -0.5 0.5
v -0.5 -0.5 0.40000999
v -0.5 -0.3125 0.40000999
v -0.400010049 -0.5 -0.5
v -0.400010049 -0.3125 -0.5
v -0.5 -0.3125 -0.400010049
v -0.5 -0.5 -0.400010049
v 0.5 -0.5 -0.400010049
v 0.5 -0.3125 -0.400010049
v 0.400010049 -0.3125 -0.5
v 0.400010049 -0.5 -0.5
vt 0.986280978 0.618227541
vt 0.98628062 0.258658499
vt 0.892140865 0.267592609
vt 0.892140865 0.609321833
vt 0.986280978 0.618227541
vt 0.98628056 0.25865835
vt 0.892140806 0.266468734
vt 0.892140865 0.59920609
vt 0.986280978 0.618227541
vt 0.98628056 0.25865835
vt 0.892140806 0.266468734
vt 0.892140865 0.59920603
vt 0.986280978 0.618227541
vt 0.98628056 0.25865835
vt 0.892140865 0.276584506
vt 0.892140865 0.600329936
vt 0.428449869 0.802680373
vt 0.428449869 0.953281641
vt 0.723658383 0.953281641
vt 0.723658442 0.802680314
vt 0.42844975 0.802680314
vt 0.42844981 0.953281641
vt 0.723658323 0.953281641
vt 0.723658323 0.802680373
vt 0.723658323 0.802680373
vt 0.723658323 0.953281641
vt 0.42844981 0.953281641
vt 0.42844975 0.802680314
vt 0.426076114 0.803038478
vt 0.426076323 0.953639925
vt 0.762614012 0.953639925
vt 0.762614071 0.803038597
vt 0.427230626 0.726830602
vt 0.72243911 0.726830602
vt 0.722438991 0.802075386
vt 0.427230507 0.802075505
vt 0.42844981 0.72743535
vt 0.723658323 0.72743541
vt 0.723658264 0.802680254
vt 0.42844969 0.802680314
vt 0.723658144 0.802680194
vt 0.42844969 0.802680314
vt 0.42844981 0.72743535
vt 0.723658204 0.727435291
vt 0.723658264 0.802680254
vt 0.42844969 0.802680314
vt 0.42844981 0.72743535
vt 0.723658323 0.72743535
vt 0.47618109 0.960014939
vt 0.50373435 0.9875682
vt 0.724188149 0.9875682
vt 0.751741409 0.960014939
vt 0.47618109 0.739561141
vt 0.751741409 0.739561141
vt 0.50373435 0.71200788
vt 0.724188149 0.71200788
vt 0.74485302 0.745072007
vt 0.718677282 0.71889627
vt 0.509245038 0.71889627
vt 0.483069301 0.745072007
vt 0.74485302 0.954504251
vt 0.483069301 0.954504251
vt 0.718677282 0.980679989
vt 0.509245038 0.980680048
vt 0.892140865 0.267592609
vt 0.98628062 0.258658499
vt 0.98628056 0.213717848
vt 0.892140865 0.224881798
vt 0.892140806 0.266468734
vt 0.98628056 0.25865835
vt 0.98628056 0.213717848
vt 0.892140865 0.224881798
vt 0.98628056 0.213717848
vt 0.892140865 0.224881798
vt 0.892140806 0.266468734
vt 0.98628056 0.25865835
vt 0.986280978 0.618227541
vt 0.892140865 0.609321833
vt 0.892140865 0.652032614
vt 0.986281037 0.663168192
vn 1 0 0
vn 1 0 0
vn 1 0 0
vn 1 0 0
vn -0 0 1
vn -0 0 1
vn -0 0 1
vn -0 0 1
vn -1 0 0
vn -1 0 0
vn -1 0 0
vn -1 0 0
vn -0 0 -1
vn -0 0 -1
vn -0 0 -1
vn -0 0 -1
vn -0 0 1
vn -0 0 1
vn -0 0 1
vn -0 0 1
vn -0 0 -1
vn -0 0 -1
vn -0 0 -1
vn -0 0 -1
vn -1 0 0
vn -1 0 0
vn -1 0 0
vn -1 0 0
vn 1 0 0
vn 1 0 0
vn 1 0 0
vn 1 0 0
vn 0.707106829 0 0.707106769
vn 0.707106829 0 0.707106769
vn 0.707106829 0 0.707106769
vn 0.707106829 0 0.707106769
vn -0.707106829 0 0.707106769
vn -0.707106829 0 0.707106769
vn -0.707106829 0 0.707106769
vn -0.707106829 0 0.707106769
vn 0.707106829 0 -0.707106769
vn 0.707106829 0 -0.707106769
vn 0.707106829 0 -0.707106769
vn 0.707106829 0 -0.707106769
vn -0.707106829 0 -0.707106769
vn -0.707106829 0 -0.707106769
vn -0.707106829 0 -0.707106769
vn -0.707106829 0 -0.707106769
vn -0 -1 0
vn -0 -1 0
vn -0 -1 0
vn -0 -1 0
vn -0 -1 0
vn -0 -1 0
vn -0 -1 0
vn -0 -1 0
vn -0 1 0
vn -0 1 0
vn -0 1 0
vn -0 1 0
vn -0 1 0
vn -0 1 0
vn -0 1 0
vn -0 1 0
vn 0.707106888 0 0.70710659
vn 0.707106888 0 0.70710659
vn 0.707106888 0 0.70710659
vn 0.707106888 0 0.70710659
vn -0.707106888 0 0.70710659
vn -0.707106888 0 0.70710659
vn -0.707106888 0 0.70710659
vn -0.707106888 0 0.70710659
vn -0.707106888 0 -0.70710659
vn -0.707106888 0 -0.70710659
vn -0.707106888 0 -0.70710659
vn -0.707106888 0 -0.70710659
vn 0.707106888 0 -0.70710659
vn 0.707106888 0 -0.70710659
vn 0.707106888 0 -0.70710659
vn 0.707106888 0 -0.70710659
g ColumbBottom_0
f 3/3/3 2/2/2 1/1/1
f 4/4/4 3/3/3 1/1/1
f 7/7/7 6/6/6 5/5/5
f 8/8/8 7/7/7 5/5/5
f 11/11/11 10/10/10 9/9/9
f 12/12/12 11/11/11 9/9/9
f 15/15/15 14/14/14 13/13/13
f 16/16/16 15/15/15 13/13/13
f 19/19/19 18/18/18 17/17/17
f 20/20/20 19/19/19 17/17/17
f 23/23/23 22/22/22 21/21/21
f 24/24/24 23/23/23 21/21/21
f 27/27/27 26/26/26 25/25/25
f 28/28/28 27/27/27 25/25/25
f 31/31/31 30/30/30 29/29/29
f 32/32/32 31/31/31 29/29/29
f 35/35/35 34/34/34 33/33/33
f 36/36/36 35/35/35 33/33/33
f 39/39/39 38/38/38 37/37/37
f 40/40/40 39/39/39 37/37/37
f 43/43/43 42/42/42 41/41/41
f 44/44/44 43/43/43 41/41/41
f 47/47/47 46/46/46 45/45/45
f 48/48/48 47/47/47 45/45/45
f 51/51/51 50/50/50 49/49/49
f 49/49/49 52/52/52 51/51/51
f 49/49/49 53/53/53 52/52/52
f 53/53/53 54/54/54 52/52/52
f 53/53/53 55/55/55 54/54/54
f 55/55/55 56/56/56 54/54/54
f 59/59/59 58/58/58 57/57/57
f 57/57/57 60/60/60 59/59/59
f 57/57/57 61/61/61 60/60/60
f 61/61/61 62/62/62 60/60/60
f 61/61/61 63/63/63 62/62/62
f 63/63/63 64/64/64 62/62/62
f 67/67/67 66/66/66 65/65/65
f 68/68/68 67/67/67 65/65/65
f 71/71/71 70/70/70 69/69/69
f 72/72/72 71/71/71 69/69/69
f 75/75/75 74/74/74 73/73/73
f 76/76/76 75/75/75 73/73/73
f 79/79/79 78/78/78 77/77/77
f 80/80/80 79/79/79 77/77/77
