g FloorCorner
v 0.256235957 -0.5 -0.25
v 0.419555038 -0.5 -0.4125458
v 0.417604357 -0.497543335 -0.415929973
v 0.25 0.5 -0.257909954
v 0.413553447 0.5 -0.419991612
v 0.416154772 0.493167222 -0.416587323
v 0.416154772 0.493167222 -0.416587323
v 0.256235957 0.5 -0.251414776
v 0.418756694 0.5 -0.413183063
v -0.5 0.5 0.5
v -0.5 0.5 -0.257909954
v 0.25 0.5 -0.257909954
v 0.256235957 0.5 -0.251414776
v 0.256235957 0.5 0.5
v 0.256235957 -0.5 -0.25
v 0.252766103 -0.5 -0.257909954
v -0.5 -0.5 -0.257909954
v -0.5 -0.5 0.5
v 0.256235957 -0.5 0.5
v 0.480629861 -0.266656637 -0.480965704
v 0.445831895 -0.166666642 -0.437715799
v 0.440050662 -0.166666642 -0.441959947
v 0.495926499 -0.266656637 -0.478034556
v 0.480629861 -0.406259388 -0.480965704
v 0.495926499 -0.406259388 -0.478034556
v 0.417604357 -0.497543335 -0.415929973
v 0.419555038 -0.5 -0.4125458
v 0.445831895 -0.166666642 -0.437715799
v 0.480629861 -0.0666766465 -0.480965704
v 0.440050662 -0.166666642 -0.441959947
v 0.5 -0.0666766465 -0.485422403
v 0.480629861 0.0666766837 -0.480965704
v 0.5 0.0666766837 -0.485422403
v 0.445831895 0.166666672 -0.437715799
v 0.440050662 0.166666672 -0.441959947
v 0.440050662 0.166666672 -0.441959947
v 0.445831895 0.166666672 -0.437715799
v 0.5 0.266656667 -0.472459376
v 0.480629861 0.266656667 -0.480965704
v 0.480629861 0.406259388 -0.480965704
v 0.5 0.406259388 -0.472459376
v 0.418756694 0.5 -0.413183063
v 0.416154772 0.493167222 -0.416587323
v -0.5 0.5 -0.257909954
v -0.5 0.5 -0.419313908
v 0.413553447 0.5 -0.419991612
v 0.25 0.5 -0.257909954
v -0.5 -0.5 -0.419313908
v -0.5 -0.5 -0.257909954
v 0.252766103 -0.5 -0.257909954
v 0.415653676 -0.5 -0.419314176
v 0.481087029 -0.0666766465 -0.5
v -0.5 -0.166666642 -0.446204036
v 0.434269398 -0.166666642 -0.446204036
v -0.5 -0.0666766465 -0.5
v -0.5 0.0666766837 -0.5
v 0.481087029 0.0666766837 -0.5
v 0.434269398 0.166666672 -0.446204036
v -0.5 0.166666672 -0.446204036
v 0.434269398 -0.166666642 -0.446204036
v -0.5 -0.166666642 -0.446204036
v -0.5 -0.266656637 -0.5
v 0.482462764 -0.266656637 -0.5
v 0.482462764 -0.406259388 -0.5
v -0.5 -0.406259388 -0.5
v -0.5 0.406259388 -0.5
v 0.477882683 0.266656667 -0.498505086
v 0.477882683 0.406259388 -0.498505086
v -0.5 0.266656667 -0.5
v -0.5 0.166666672 -0.446204036
v 0.434269398 0.166666672 -0.446204036
v -0.5 -0.5 -0.419313908
v 0.415653676 -0.5 -0.419314176
v 0.482462764 -0.406259388 -0.5
v -0.5 -0.406259388 -0.5
v -0.5 0.406259388 -0.5
v 0.477882683 0.406259388 -0.498505086
v 0.413553447 0.5 -0.419991612
v -0.5 0.5 -0.419313908
v 0.418756694 0.5 -0.413183063
v 0.418756098 0.5 0.5
v 0.256235957 0.5 0.5
v 0.256235957 0.5 -0.251414776
v 0.419555038 -0.5 -0.4125458
v 0.256235957 -0.5 -0.25
v 0.256235957 -0.5 0.5
v 0.418756098 -0.5 0.5
v 0.5 -0.0666766465 0.5
v 0.445831895 -0.166666642 -0.437715799
v 0.445831895 -0.166666642 0.5
v 0.5 -0.0666766465 -0.485422403
v 0.5 0.0666766837 -0.485422403
v 0.5 0.0666766837 0.5
v 0.445831895 0.166666672 0.5
v 0.445831895 0.166666672 -0.437715799
v 0.445831895 -0.166666642 0.5
v 0.445831895 -0.166666642 -0.437715799
v 0.495926499 -0.266656637 -0.478034556
v 0.5 -0.266656637 0.5
v 0.5 -0.406259388 0.5
v 0.495926499 -0.406259388 -0.478034556
v 0.5 0.406259388 -0.472459376
v 0.5 0.266656667 0.5
v 0.5 0.406259388 0.5
v 0.5 0.266656667 -0.472459376
v 0.445831895 0.166666672 -0.437715799
v 0.445831895 0.166666672 0.5
v 0.419555038 -0.5 -0.4125458
v 0.418756098 -0.5 0.5
v 0.5 -0.406259388 0.5
v 0.495926499 -0.406259388 -0.478034556
v 0.5 0.406259388 -0.472459376
v 0.5 0.406259388 0.5
v 0.418756098 0.5 0.5
v 0.418756694 0.5 -0.413183063
v 0.417604357 -0.497543335 -0.415929973
v 0.415653676 -0.5 -0.419314176
v 0.252766103 -0.5 -0.257909954
v 0.256235957 -0.5 -0.25
v 0.482462764 -0.406259388 -0.5
v 0.415653676 -0.5 -0.419314176
v 0.417604357 -0.497543335 -0.415929973
v 0.480629861 -0.406259388 -0.480965704
v 0.482462764 -0.266656637 -0.5
v 0.480629861 -0.266656637 -0.480965704
v 0.434269398 -0.166666642 -0.446204036
v 0.440050662 -0.166666642 -0.441959947
v 0.480629861 -0.0666766465 -0.480965704
v 0.434269398 -0.166666642 -0.446204036
v 0.440050662 -0.166666642 -0.441959947
v 0.481087029 -0.0666766465 -0.5
v 0.480629861 0.0666766837 -0.480965704
v 0.481087029 0.0666766837 -0.5
v 0.434269398 0.166666672 -0.446204036
v 0.440050662 0.166666672 -0.441959947
v 0.477882683 0.266656667 -0.498505086
v 0.434269398 0.166666672 -0.446204036
v 0.440050662 0.166666672 -0.441959947
v 0.480629861 0.266656667 -0.480965704
v 0.480629861 0.406259388 -0.480965704
v 0.477882683 0.406259388 -0.498505086
v 0.413553447 0.5 -0.419991612
v 0.416154772 0.493167222 -0.416587323
vt 0.0123957172 0.956197143
vt 0.0714776814 0.954676032
vt 0.0713525563 0.952682018
vt 0.411516428 0.949881792
vt 0.352466822 0.950104058
vt 0.352574766 0.953792334
vt 0.352574766 0.953792334
vt 0.411487579 0.958127975
vt 0.35268271 0.957480669
vt 0.953674674 0.050488174
vt 0.953726947 0.050488174
vt 0.953726411 0.0504370518
vt 0.9537251 0.0504359603
vt 0.953674674 0.0504359603
vt 0.953725576 0.0504364222
vt 0.953726947 0.0504378155
vt 0.953726947 0.050488174
vt 0.953674674 0.050488174
vt 0.953674674 0.0504359603
vt 0.138066441 0.953766227
vt 0.167635292 0.958004653
vt 0.167626441 0.951972961
vt 0.138075262 0.959797859
vt 0.107144967 0.953869224
vt 0.10715384 0.959900916
vt 0.0713525563 0.952682018
vt 0.0714776814 0.954676032
vt 0.167635292 0.958004653
vt 0.19718647 0.951874435
vt 0.167626441 0.951972961
vt 0.197195306 0.957906067
vt 0.226723686 0.951775908
vt 0.226732522 0.9578076
vt 0.256292522 0.957708955
vt 0.2562837 0.951677322
vt 0.2562837 0.951677322
vt 0.256292522 0.957708955
vt 0.285852551 0.959869623
vt 0.2858437 0.95383811
vt 0.316765189 0.954299688
vt 0.316774011 0.96033144
vt 0.35268271 0.957480669
vt 0.352574766 0.953792334
vt 0.0155667895 0.953377426
vt 0.0155666703 0.879145384
vt 0.401599944 0.879145384
vt 0.374277413 0.953452945
vt 0.0155667597 0.953377426
vt 0.0155668193 0.879145384
vt 0.397979259 0.879145384
vt 0.401076078 0.953377426
vt 0.853103817 0.0490761921
vt 0.848021626 0.0495977178
vt 0.853094995 0.0495977178
vt 0.848021626 0.0490761958
vt 0.848021626 0.0483806692
vt 0.853103817 0.0483806692
vt 0.853094876 0.0478591509
vt 0.848021626 0.0478591509
vt 0.853094995 0.0495977178
vt 0.848021626 0.0495977178
vt 0.848021626 0.0501192361
vt 0.853103876 0.0501192361
vt 0.853103817 0.050847359
vt 0.848021686 0.0508473627
vt 0.848021686 0.046609506
vt 0.853103817 0.0473376326
vt 0.853103876 0.046609506
vt 0.848021686 0.0473376326
vt 0.848021626 0.0478591509
vt 0.853094876 0.0478591509
vt 0.847893834 0.0491110682
vt 0.847893834 0.0491110682
vt 0.847858667 0.0490759611
vt 0.847858727 0.0490759611
vt 0.847858727 0.0487715006
vt 0.847858667 0.0487715006
vt 0.847890377 0.0487399027
vt 0.847893834 0.0487363935
vt 0.0265465472 0.879145384
vt 0.412056983 0.879145384
vt 0.412056983 0.953377426
vt 0.0296445936 0.953377426
vt 0.0260239188 0.953377426
vt 0.0296446029 0.879145384
vt 0.412056983 0.879145384
vt 0.412056983 0.953377426
vt 0.853236914 0.0490761958
vt 0.848163605 0.0495977178
vt 0.853236973 0.0495977178
vt 0.848154724 0.0490761958
vt 0.848154724 0.0483806692
vt 0.853236914 0.0483806692
vt 0.853236854 0.0478591509
vt 0.848163545 0.0478591509
vt 0.853236973 0.0495977178
vt 0.848163605 0.0495977178
vt 0.848154724 0.0501192361
vt 0.853236973 0.0501192361
vt 0.853236914 0.0508473627
vt 0.848154783 0.0508473627
vt 0.848154783 0.046609506
vt 0.853236914 0.0473376326
vt 0.853236973 0.046609506
vt 0.848154783 0.0473376326
vt 0.848163545 0.0478591509
vt 0.853236854 0.0478591509
vt 0.847893894 0.0491110682
vt 0.847893894 0.0491110682
vt 0.847858667 0.0490759611
vt 0.847858727 0.0490759611
vt 0.847863436 0.0487667844
vt 0.847858667 0.0487715006
vt 0.847893894 0.0487363935
vt 0.847893834 0.0487363935
vt 0.0713525563 0.952682018
vt 0.0712274387 0.950688064
vt 0.0124228522 0.94995141
vt 0.0123957172 0.956197143
vt 0.107136093 0.947837591
vt 0.0712274387 0.950688064
vt 0.0713525563 0.952682018
vt 0.107144967 0.953869224
vt 0.138057619 0.947734535
vt 0.138066441 0.953766227
vt 0.167617589 0.945941269
vt 0.167626441 0.951972961
vt 0.19718647 0.951874435
vt 0.167617589 0.945941269
vt 0.167626441 0.951972961
vt 0.197177619 0.945842803
vt 0.226723686 0.951775908
vt 0.226714849 0.945744216
vt 0.256274879 0.94564563
vt 0.2562837 0.951677322
vt 0.285834849 0.947806597
vt 0.256274879 0.94564563
vt 0.2562837 0.951677322
vt 0.2858437 0.95383811
vt 0.316765189 0.954299688
vt 0.316756368 0.948267996
vt 0.352466822 0.950104058
vt 0.352574766 0.953792334
vn -0.384806246 -0.838114381 -0.386637449
vn -0.384806156 -0.838114381 -0.38663739
vn -0.384806186 -0.838114381 -0.386637449
vn -0.000489828642 0.999999762 -0.000533269893
vn 0.00787428115 0.999937415 0.00794573501
vn 0.597763658 0.528055608 0.603188157
vn -0.309976578 0.889054716 -0.336892247
vn -0.000489467988 0.999999762 -0.000531969185
vn -0.309976548 0.889054716 -0.336892217
vn -0 1 0
vn -0 1 0
vn -0.000489828642 0.999999762 -0.000533269893
vn -0.000489467988 0.999999762 -0.000531969185
vn -0 1 0
vn -0 -1 0
vn 0.000276523468 -1 0.000260357454
vn -0 -1 0
vn -0 -1 0
vn -0 -1 0
vn 0.234785944 0.193456784 -0.952601731
vn 0.285729229 0.462465733 -0.83933562
vn 0.285729289 0.462465763 -0.83933562
vn 0.224186748 0.146495223 -0.963472605
vn 0.195363209 -0.283906251 -0.938738763
vn 0.194771931 -0.1911567 -0.96204114
vn 0.176746726 -0.652779877 -0.736640394
vn 0.176746681 -0.652779877 -0.736640394
vn -0.00776199717 -0.394713491 -0.918771505
vn -0.141762763 -0.160823733 -0.976749301
vn -0.00776199671 -0.394713461 -0.918771505
vn -0.17286323 -0.101839766 -0.97966671
vn -0.141762882 0.160824791 -0.976749063
vn -0.172863305 0.101840414 -0.97966671
vn -0.00776198739 0.394716382 -0.918770313
vn -0.00776198646 0.394716263 -0.918770313
vn 0.397337705 -0.477299273 -0.783778071
vn 0.397337705 -0.477299273 -0.783778071
vn 0.41146788 -0.149307802 -0.89911145
vn 0.412356287 -0.185971677 -0.891838968
vn 0.339063346 0.281243473 -0.897740662
vn 0.358027309 0.211023673 -0.909552395
vn 0.192285314 0.655197859 -0.730576634
vn 0.192285344 0.655197859 -0.730576634
vn -0 1 0
vn -0 1 0
vn 0.00787428115 0.999937415 0.00794573501
vn -0.000489828642 0.999999762 -0.000533269893
vn -0 -1 0
vn -0 -1 0
vn 0.000276523468 -1 0.000260357454
vn 0.0026307099 -0.999993443 0.00247691455
vn 0.0162537638 -0.18939814 -0.981765866
vn -0 -0.473793775 -0.880635858
vn 0.0082750693 -0.476471543 -0.879150987
vn -0 -0.22170952 -0.975112736
vn -0 0.22170952 -0.975112736
vn 0.0162537321 0.189398184 -0.981765866
vn 0.00827499852 0.476471573 -0.879150987
vn -0 0.473793775 -0.880635858
vn 0.00818285905 0.476513118 -0.879129291
vn -0 0.473793924 -0.880635798
vn -0 0.216062009 -0.976379693
vn 0.0163088366 0.183031097 -0.982971847
vn 0.0161521044 -0.258154422 -0.965968668
vn -0 -0.320756972 -0.947161496
vn 0.00104052678 0.317013472 -0.948420405
vn 0.0165337697 -0.183754474 -0.982833207
vn 0.016989667 0.256862372 -0.96629858
vn 0.00119301269 -0.213480666 -0.976946652
vn 0.000690565153 -0.468782097 -0.883313537
vn 0.00861611497 -0.471188188 -0.881990671
vn -1.039936E-07 -0.652359843 -0.757909358
vn 0.00665040966 -0.655040622 -0.755564272
vn 0.0161521044 -0.258154422 -0.965968668
vn -0 -0.320756972 -0.947161496
vn 0.00104052678 0.317013472 -0.948420405
vn 0.016989667 0.256862372 -0.96629858
vn 0.00561200269 0.649509907 -0.760332406
vn 0.000329339964 0.647337437 -0.762203455
vn -0 1 0
vn -0 1 0
vn -0 1 0
vn -0.000489467988 0.999999762 -0.000531969185
vn -0 -1 0
vn -0 -1 0
vn -0 -1 0
vn -0 -1 0
vn 0.974790215 -0.223123431 0
vn 0.879266918 -0.476329446 0
vn 0.879266918 -0.476329386 0
vn 0.98215872 -0.188054129 0
vn 0.98215872 0.188054129 0
vn 0.974790215 0.223123431 0
vn 0.879266918 0.476329386 0
vn 0.879266918 0.476329446 0
vn 0.886563957 0.462602079 -0.00188511785
vn 0.886563957 0.462602019 -0.00188511785
vn 0.983366489 0.181601033 -0.00338617433
vn 0.977661312 0.210161343 -0.00325082638
vn 0.949408054 -0.31403026 -0.00304612238
vn 0.96803242 -0.250803292 -0.0033065367
vn 0.964057028 0.265695453 0
vn 0.975878775 -0.218313217 0
vn 0.946268618 0.323381722 1.15955217E-07
vn 0.981175482 -0.193118379 0
vn 0.879270196 -0.476323247 0
vn 0.879270196 -0.476323217 0
vn 0.765212953 -0.64377588 -0.00132537377
vn 0.765212953 -0.64377594 -0.00132537377
vn 0.949408054 -0.31403026 -0.00304612238
vn 0.96803242 -0.250803292 -0.0033065367
vn 0.964057028 0.265695453 0
vn 0.946268618 0.323381722 1.15955217E-07
vn 0.755682766 0.654937744 2.34841522E-07
vn 0.755682766 0.654937804 2.34841579E-07
vn 0.14975132 -0.978618681 0.14099662
vn 0.0026307099 -0.999993443 0.00247691455
vn 0.000276523468 -1 0.000260357454
vn 0.14975132 -0.978618681 0.140996605
vn 0.0161521044 -0.258154422 -0.965968668
vn 0.00665040966 -0.655040622 -0.755564272
vn 0.837227941 -0.544059336 0.0552151948
vn 0.969318926 -0.231538221 0.0825279951
vn 0.0163088366 0.183031097 -0.982971847
vn 0.983450234 0.181161046 0.00252592936
vn 0.00818285905 0.476513118 -0.879129291
vn 0.876416743 0.458034664 -0.148653746
vn 0.979307592 -0.191462472 -0.0655653253
vn 0.0082750693 -0.476471543 -0.879150987
vn 0.861511469 -0.467945874 -0.197039604
vn 0.0162537638 -0.18939814 -0.981765866
vn 0.979307175 0.191465065 -0.0655648932
vn 0.0162537321 0.189398184 -0.981765866
vn 0.00827499852 0.476471573 -0.879150987
vn 0.861507833 0.467952937 -0.197038949
vn 0.0165337697 -0.183754474 -0.982833207
vn 0.00861611497 -0.471188188 -0.881990671
vn 0.812976658 -0.487607449 -0.318288922
vn 0.953849018 -0.197067693 -0.226575345
vn 0.95847702 0.267359585 -0.0992004648
vn 0.016989667 0.256862372 -0.96629858
vn 0.00561200269 0.649509907 -0.760332406
vn 0.808628738 0.588137388 -0.0146287754
g FloorCorner_0
f 3/3/3 2/2/2 1/1/1
f 6/6/6 5/5/5 4/4/4
f 4/4/4 8/8/8 7/7/7
f 8/8/8 9/9/9 7/7/7
f 12/12/12 11/11/11 10/10/10
f 10/10/10 13/13/13 12/12/12
f 10/10/10 14/14/14 13/13/13
f 17/17/17 16/16/16 15/15/15
f 15/15/15 18/18/18 17/17/17
f 15/15/15 19/19/19 18/18/18
f 22/22/22 21/21/21 20/20/20
f 21/21/21 23/23/23 20/20/20
f 20/20/20 23/23/23 24/24/24
f 23/23/23 25/25/25 24/24/24
f 24/24/24 25/25/25 26/26/26
f 25/25/25 27/27/27 26/26/26
f 30/30/30 29/29/29 28/28/28
f 29/29/29 31/31/31 28/28/28
f 29/29/29 32/32/32 31/31/31
f 32/32/32 33/33/33 31/31/31
f 34/34/34 33/33/33 32/32/32
f 35/35/35 34/34/34 32/32/32
f 38/38/38 37/37/37 36/36/36
f 39/39/39 38/38/38 36/36/36
f 39/39/39 40/40/40 38/38/38
f 40/40/40 41/41/41 38/38/38
f 42/42/42 41/41/41 40/40/40
f 43/43/43 42/42/42 40/40/40
f 46/46/46 45/45/45 44/44/44
f 47/47/47 46/46/46 44/44/44
f 50/50/50 49/49/49 48/48/48
f 51/51/51 50/50/50 48/48/48
f 54/54/54 53/53/53 52/52/52
f 53/53/53 55/55/55 52/52/52
f 52/52/52 55/55/55 56/56/56
f 57/57/57 52/52/52 56/56/56
f 57/57/57 56/56/56 58/58/58
f 56/56/56 59/59/59 58/58/58
f 62/62/62 61/61/61 60/60/60
f 63/63/63 62/62/62 60/60/60
f 63/63/63 64/64/64 62/62/62
f 64/64/64 65/65/65 62/62/62
f 68/68/68 67/67/67 66/66/66
f 67/67/67 69/69/69 66/66/66
f 70/70/70 69/69/69 67/67/67
f 71/71/71 70/70/70 67/67/67
f 74/74/74 73/73/73 72/72/72
f 75/75/75 74/74/74 72/72/72
f 78/78/78 77/77/77 76/76/76
f 79/79/79 78/78/78 76/76/76
f 82/82/82 81/81/81 80/80/80
f 83/83/83 82/82/82 80/80/80
f 86/86/86 85/85/85 84/84/84
f 87/87/87 86/86/86 84/84/84
f 90/90/90 89/89/89 88/88/88
f 89/89/89 91/91/91 88/88/88
f 88/88/88 91/91/91 92/92/92
f 93/93/93 88/88/88 92/92/92
f 93/93/93 92/92/92 94/94/94
f 92/92/92 95/95/95 94/94/94
f 98/98/98 97/97/97 96/96/96
f 99/99/99 98/98/98 96/96/96
f 99/99/99 100/100/100 98/98/98
f 100/100/100 101/101/101 98/98/98
f 104/104/104 103/103/103 102/102/102
f 103/103/103 105/105/105 102/102/102
f 106/106/106 105/105/105 103/103/103
f 107/107/107 106/106/106 103/103/103
f 110/110/110 109/109/109 108/108/108
f 111/111/111 110/110/110 108/108/108
f 114/114/114 113/113/113 112/112/112
f 115/115/115 114/114/114 112/112/112
f 118/118/118 117/117/117 116/116/116
f 119/119/119 118/118/118 116/116/116
f 122/122/122 121/121/121 120/120/120
f 123/123/123 122/122/122 120/120/120
f 123/123/123 120/120/120 124/124/124
f 125/125/125 123/123/123 124/124/124
f 125/125/125 124/124/124 126/126/126
f 127/127/127 125/125/125 126/126/126
f 130/130/130 129/129/129 128/128/128
f 129/129/129 131/131/131 128/128/128
f 128/128/128 131/131/131 132/132/132
f 131/131/131 133/133/133 132/132/132
f 132/132/132 133/133/133 134/134/134
f 135/135/135 132/132/132 134/134/134
f 138/138/138 137/137/137 136/136/136
f 139/139/139 138/138/138 136/136/136
f 139/139/139 136/136/136 140/140/140
f 136/136/136 141/141/141 140/140/140
f 140/140/140 141/141/141 142/142/142
f 143/143/143 140/140/140 142/142/142
