g DockPillarBeamMidCorner
v -0.0999999195 0.220000029 -0.0999998897
v 0.5 0.220000014 -0.0999999642
v 0.5 0.5 -0.0999999642
v -0.0999998599 0.5 -0.0999998823
v 0.5 0.220000014 -0.0999999642
v 0.5 0.220000014 0.100000024
v 0.5 0.5 0.100000024
v 0.5 0.5 -0.0999999642
v -0.0999999195 0.220000029 -0.0999998897
v 0.100000054 0.220000014 0.100000024
v 0.5 0.220000014 0.100000024
v 0.5 0.220000014 -0.0999999642
v 0.5 0.5 -0.0999999642
v 0.5 0.5 0.100000024
v 0.0999999717 0.5 0.0999998152
v -0.0999998599 0.5 -0.0999998823
v 0.5 0.220000014 0.100000024
v 0.100000054 0.220000014 0.100000024
v 0.0999999717 0.5 0.0999998152
v 0.5 0.5 0.100000024
v 0.100000054 0.220000014 0.100000024
v 0.100000001 0.220000014 0.5
v 0.100000001 0.5 0.5
v 0.0999999717 0.5 0.0999998152
v 0.100000001 0.220000014 0.5
v -0.0999999866 0.220000014 0.5
v -0.0999999866 0.5 0.5
v 0.100000001 0.5 0.5
v 0.100000054 0.220000014 0.100000024
v -0.0999999195 0.220000029 -0.0999998897
v -0.0999999866 0.220000014 0.5
v 0.100000001 0.220000014 0.5
v 0.100000001 0.5 0.5
v -0.0999999866 0.5 0.5
v -0.0999998599 0.5 -0.0999998823
v 0.0999999717 0.5 0.0999998152
v -0.0999999866 0.220000014 0.5
v -0.0999999195 0.220000029 -0.0999998897
v -0.0999998599 0.5 -0.0999998823
v -0.0999999866 0.5 0.5
vt 0.846187592 0.0449088551
vt 0.846187651 0.0309400707
vt 0.83445394 0.0309400707
vt 0.83445394 0.0449088551
vt 0.362367749 0.904083312
vt 0.297925711 0.904083192
vt 0.297925711 0.994299233
vt 0.362367749 0.994299173
vt 0.938276887 0.0459205285
vt 0.946658134 0.0459205285
vt 0.946658134 0.0319517478
vt 0.938276887 0.0319517478
vt 0.926543176 0.0319517478
vt 0.91816175 0.0319517478
vt 0.91816175 0.0459205285
vt 0.926543117 0.0459205285
vt 0.854568899 0.0309400707
vt 0.854568899 0.0449088551
vt 0.866302669 0.0449088551
vt 0.866302669 0.0309400707
vt 0.846187592 0.0449088551
vt 0.846187651 0.0309400707
vt 0.83445394 0.0309400707
vt 0.83445394 0.0449088551
vt 0.362367749 0.904083312
vt 0.297925711 0.904083192
vt 0.297925711 0.994299233
vt 0.362367749 0.994299173
vt 0.938276887 0.0459205285
vt 0.946658134 0.0459205285
vt 0.946658134 0.0319517478
vt 0.938276887 0.0319517478
vt 0.926543176 0.0319517478
vt 0.91816175 0.0319517478
vt 0.91816175 0.0459205285
vt 0.926543117 0.0459205285
vt 0.854568899 0.0309400707
vt 0.854568899 0.0449088551
vt 0.866302669 0.0449088551
vt 0.866302669 0.0309400707
vn -0 0 -1
vn -0 0 -1
vn -0 0 -1
vn -0 0 -1
vn 1 0 0
vn 1 0 0
vn 1 0 0
vn 1 0 0
vn -0 -1 0
vn -0 -1 0
vn -0 -1 0
vn -0 -1 0
vn -0 1 0
vn -0 1 0
vn -0 1 0
vn -0 1 0
vn -0 0 1
vn -0 0 1
vn -0 0 1
vn -0 0 1
vn 1 0 0
vn 1 0 0
vn 1 0 0
vn 1 0 0
vn -0 0 1
vn -0 0 1
vn -0 0 1
vn -0 0 1
vn -0 -1 0
vn -0 -1 0
vn -0 -1 0
vn -0 -1 0
vn -0 1 0
vn -0 1 0
vn -0 1 0
vn -0 1 0
vn -1 0 0
vn -1 0 0
vn -1 0 0
vn -1 0 0
g DockPillarBeamMidCorner_0
f 3/3/3 2/2/2 1/1/1
f 4/4/4 3/3/3 1/1/1
f 7/7/7 6/6/6 5/5/5
f 8/8/8 7/7/7 5/5/5
f 11/11/11 10/10/10 9/9/9
f 12/12/12 11/11/11 9/9/9
f 15/15/15 14/14/14 13/13/13
f 16/16/16 15/15/15 13/13/13
f 19/19/19 18/18/18 17/17/17
f 20/20/20 19/19/19 17/17/17
g DockPillarBeamMidCorner_1
f 23/23/23 22/22/22 21/21/21
f 24/24/24 23/23/23 21/21/21
f 27/27/27 26/26/26 25/25/25
f 28/28/28 27/27/27 25/25/25
f 31/31/31 30/30/30 29/29/29
f 32/32/32 31/31/31 29/29/29
f 35/35/35 34/34/34 33/33/33
f 36/36/36 35/35/35 33/33/33
f 39/39/39 38/38/38 37/37/37
f 40/40/40 39/39/39 37/37/37
