g FloorThreeEdge
v 0.256235957 -0.5 -0.257910162
v 0.419555038 -0.5 -0.41254577
v 0.417604357 -0.497543335 -0.415930152
v 0.416154772 0.493167222 -0.416587502
v 0.418756694 0.5 -0.409309059
v 0.256235957 0.5 -0.251414776
v 0.417604357 -0.497543335 -0.415930152
v 0.412962645 -0.5 -0.419313967
v 0.256235957 -0.5 -0.257910162
v 0.256235957 0.5 -0.251414776
v 0.413553447 0.5 -0.419991434
v 0.416154772 0.493167222 -0.416587502
v -0.250076294 -0.5 -0.257909834
v -0.415522456 -0.497543335 -0.415930152
v -0.417522579 -0.5 -0.41254577
v -0.414036244 0.493167222 -0.416587502
v -0.250076294 0.5 -0.251414776
v -0.416703492 0.5 -0.413182974
v -0.415522456 -0.497543335 -0.415930152
v -0.250076294 -0.5 -0.257909834
v -0.409815043 -0.5 -0.419313967
v -0.250076294 0.5 -0.251414776
v -0.414036244 0.493167222 -0.416587502
v -0.405963123 0.5 -0.419313967
v 0.256235957 0.5 0.5
v -0.250076294 0.5 0.5
v -0.250076294 0.5 -0.251414776
v 0.256235957 0.5 -0.251414776
v 0.480629861 -0.266656637 -0.480965555
v 0.445831895 -0.166666642 -0.437715739
v 0.440050662 -0.166666642 -0.441959828
v 0.495926499 -0.266656637 -0.478034645
v 0.480629861 -0.406259388 -0.480965555
v 0.495926499 -0.406259388 -0.478034645
v 0.417604357 -0.497543335 -0.415930152
v 0.419555038 -0.5 -0.41254577
v 0.445831895 -0.166666642 -0.437715739
v 0.480629861 -0.0666766465 -0.480965555
v 0.440050662 -0.166666642 -0.441959828
v 0.5 -0.0666766465 -0.485422343
v 0.480629861 0.0666766837 -0.480965555
v 0.5 0.0666766837 -0.485422343
v 0.445831895 0.166666672 -0.437715739
v 0.440050662 0.166666672 -0.441959828
v 0.440050662 0.166666672 -0.441959828
v 0.445831895 0.166666672 -0.437715739
v 0.5 0.266656667 -0.472459406
v 0.480629861 0.266656667 -0.480965555
v 0.480629861 0.406259388 -0.480965555
v 0.5 0.406259388 -0.472459406
v 0.418756694 0.5 -0.409309059
v 0.416154772 0.493167222 -0.416587502
v -0.250076294 0.5 -0.251414776
v -0.405963123 0.5 -0.419313967
v 0.413553447 0.5 -0.419991434
v 0.256235957 0.5 -0.251414776
v -0.409815043 -0.5 -0.419313967
v -0.250076294 -0.5 -0.257909834
v 0.256235957 -0.5 -0.257910162
v 0.412962645 -0.5 -0.419313967
v 0.481087029 -0.0666766465 -0.5
v -0.432608634 -0.166666642 -0.446204215
v 0.434269398 -0.166666642 -0.446204215
v -0.480609119 -0.0666766465 -0.5
v -0.480609119 0.0666766837 -0.5
v 0.481087029 0.0666766837 -0.5
v 0.434269398 0.166666672 -0.446204215
v -0.432608634 0.166666672 -0.446204215
v 0.434269398 -0.166666642 -0.446204215
v -0.432608634 -0.166666642 -0.446204215
v -0.482019633 -0.266656637 -0.5
v 0.482462764 -0.266656637 -0.5
v 0.482462764 -0.406259388 -0.5
v -0.482019633 -0.406259388 -0.5
v -0.477323592 0.406259388 -0.498505235
v 0.477882683 0.266656667 -0.498505235
v 0.477882683 0.406259388 -0.498505235
v -0.477323592 0.266656667 -0.498505235
v -0.432608634 0.166666672 -0.446204215
v 0.434269398 0.166666672 -0.446204215
v -0.409815043 -0.5 -0.419313967
v 0.412962645 -0.5 -0.419313967
v 0.482462764 -0.406259388 -0.5
v -0.482019633 -0.406259388 -0.5
v -0.477323592 0.406259388 -0.498505235
v 0.477882683 0.406259388 -0.498505235
v 0.413553447 0.5 -0.419991434
v -0.405963123 0.5 -0.419313967
v 0.418756694 0.5 -0.409309059
v 0.418756098 0.5 0.5
v 0.256235957 0.5 0.5
v 0.256235957 0.5 -0.251414776
v 0.419555038 -0.5 -0.41254577
v 0.256235957 -0.5 -0.257910162
v 0.256235957 -0.5 0.5
v 0.418756098 -0.5 0.5
v 0.5 -0.0666766465 0.5
v 0.445831895 -0.166666642 -0.437715739
v 0.445831895 -0.166666642 0.5
v 0.5 -0.0666766465 -0.485422343
v 0.5 0.0666766837 -0.485422343
v 0.5 0.0666766837 0.5
v 0.445831895 0.166666672 0.5
v 0.445831895 0.166666672 -0.437715739
v 0.445831895 -0.166666642 0.5
v 0.445831895 -0.166666642 -0.437715739
v 0.495926499 -0.266656637 -0.478034645
v 0.5 -0.266656637 0.5
v 0.5 -0.406259388 0.5
v 0.495926499 -0.406259388 -0.478034645
v 0.5 0.406259388 -0.472459406
v 0.5 0.266656667 0.5
v 0.5 0.406259388 0.5
v 0.5 0.266656667 -0.472459406
v 0.445831895 0.166666672 -0.437715739
v 0.445831895 0.166666672 0.5
v 0.419555038 -0.5 -0.41254577
v 0.418756098 -0.5 0.5
v 0.5 -0.406259388 0.5
v 0.495926499 -0.406259388 -0.478034645
v 0.5 0.406259388 -0.472459406
v 0.5 0.406259388 0.5
v 0.418756098 0.5 0.5
v 0.418756694 0.5 -0.409309059
v 0.482462764 -0.406259388 -0.5
v 0.412962645 -0.5 -0.419313967
v 0.417604357 -0.497543335 -0.415930152
v 0.480629861 -0.406259388 -0.480965555
v 0.482462764 -0.266656637 -0.5
v 0.480629861 -0.266656637 -0.480965555
v 0.434269398 -0.166666642 -0.446204215
v 0.440050662 -0.166666642 -0.441959828
v 0.480629861 -0.0666766465 -0.480965555
v 0.434269398 -0.166666642 -0.446204215
v 0.440050662 -0.166666642 -0.441959828
v 0.481087029 -0.0666766465 -0.5
v 0.480629861 0.0666766837 -0.480965555
v 0.481087029 0.0666766837 -0.5
v 0.434269398 0.166666672 -0.446204215
v 0.440050662 0.166666672 -0.441959828
v 0.477882683 0.266656667 -0.498505235
v 0.434269398 0.166666672 -0.446204215
v 0.440050662 0.166666672 -0.441959828
v 0.480629861 0.266656667 -0.480965555
v 0.480629861 0.406259388 -0.480965555
v 0.477882683 0.406259388 -0.498505235
v 0.413553447 0.5 -0.419991434
v 0.416154772 0.493167222 -0.416587502
v 0.256235957 -0.5 -0.257910162
v -0.250076294 -0.5 -0.257909834
v 0.256235957 -0.5 0.5
v -0.250076294 -0.5 0.5
v -0.480140358 -0.266656637 -0.480965555
v -0.43853575 -0.166666642 -0.441959828
v -0.444463491 -0.166666642 -0.437715739
v -0.495823354 -0.266656637 -0.478034645
v -0.480140358 -0.406259388 -0.480965555
v -0.495823354 -0.406259388 -0.478034645
v -0.415522456 -0.497543335 -0.415930152
v -0.417522579 -0.5 -0.41254577
v -0.444463491 -0.166666642 -0.437715739
v -0.43853575 -0.166666642 -0.441959828
v -0.480140358 -0.0666766465 -0.480965555
v -0.5 -0.0666766465 -0.485422343
v -0.480140358 0.0666766837 -0.480965555
v -0.5 0.0666766837 -0.485422343
v -0.444463491 0.166666672 -0.437715739
v -0.43853575 0.166666672 -0.441959828
v -0.43853575 0.166666672 -0.441959828
v -0.5 0.266656667 -0.472459406
v -0.444463491 0.166666672 -0.437715739
v -0.480140358 0.266656667 -0.480965555
v -0.480140358 0.406259388 -0.480965555
v -0.5 0.406259388 -0.472459406
v -0.416703492 0.5 -0.413182974
v -0.414036244 0.493167222 -0.416587502
v -0.416703492 0.5 -0.413182974
v -0.250076294 0.5 -0.251414776
v -0.250076294 0.5 0.5
v -0.416702867 0.5 0.5
v -0.417522579 -0.5 -0.41254577
v -0.416702867 -0.5 0.5
v -0.250076294 -0.5 0.5
v -0.250076294 -0.5 -0.257909834
v -0.5 -0.0666766465 0.5
v -0.444463491 -0.166666642 0.5
v -0.444463491 -0.166666642 -0.437715739
v -0.5 -0.0666766465 -0.485422343
v -0.5 0.0666766837 -0.485422343
v -0.5 0.0666766837 0.5
v -0.444463491 0.166666672 0.5
v -0.444463491 0.166666672 -0.437715739
v -0.444463491 -0.166666642 0.5
v -0.495823354 -0.266656637 -0.478034645
v -0.444463491 -0.166666642 -0.437715739
v -0.5 -0.266656637 0.5
v -0.5 -0.406259388 0.5
v -0.495823354 -0.406259388 -0.478034645
v -0.5 0.406259388 -0.472459406
v -0.5 0.406259388 0.5
v -0.5 0.266656667 0.5
v -0.5 0.266656667 -0.472459406
v -0.444463491 0.166666672 -0.437715739
v -0.444463491 0.166666672 0.5
v -0.417522579 -0.5 -0.41254577
v -0.495823354 -0.406259388 -0.478034645
v -0.5 -0.406259388 0.5
v -0.416702867 -0.5 0.5
v -0.5 0.406259388 -0.472459406
v -0.416703492 0.5 -0.413182974
v -0.416702867 0.5 0.5
v -0.5 0.406259388 0.5
v -0.482019633 -0.406259388 -0.5
v -0.415522456 -0.497543335 -0.415930152
v -0.409815043 -0.5 -0.419313967
v -0.480140358 -0.406259388 -0.480965555
v -0.482019633 -0.266656637 -0.5
v -0.480140358 -0.266656637 -0.480965555
v -0.432608634 -0.166666642 -0.446204215
v -0.43853575 -0.166666642 -0.441959828
v -0.480140358 -0.0666766465 -0.480965555
v -0.43853575 -0.166666642 -0.441959828
v -0.432608634 -0.166666642 -0.446204215
v -0.480609119 -0.0666766465 -0.5
v -0.480140358 0.0666766837 -0.480965555
v -0.480609119 0.0666766837 -0.5
v -0.432608634 0.166666672 -0.446204215
v -0.43853575 0.166666672 -0.441959828
v -0.477323592 0.266656667 -0.498505235
v -0.43853575 0.166666672 -0.441959828
v -0.432608634 0.166666672 -0.446204215
v -0.480140358 0.266656667 -0.480965555
v -0.480140358 0.406259388 -0.480965555
v -0.477323592 0.406259388 -0.498505235
v -0.405963123 0.5 -0.419313967
v -0.414036244 0.493167222 -0.416587502
vt 0.0124171479 0.950216055
vt 0.0714776814 0.954676032
vt 0.0713525563 0.952682018
vt 0.352574766 0.953792334
vt 0.35268271 0.957480669
vt 0.411487073 0.958069623
vt 0.0713525563 0.952682018
vt 0.0712274387 0.950688064
vt 0.0124171479 0.950216055
vt 0.411487073 0.958069623
vt 0.352466822 0.950104058
vt 0.352574766 0.953792334
vt 0.0124171656 0.950216115
vt 0.0713525563 0.952682018
vt 0.0714776814 0.954676032
vt 0.352574766 0.953792334
vt 0.411487073 0.958069623
vt 0.35268271 0.957480669
vt 0.0713525563 0.952682018
vt 0.0124171656 0.950216115
vt 0.0712274387 0.950688064
vt 0.411487073 0.958069623
vt 0.352574766 0.953792334
vt 0.35461849 0.949316144
vt 0.94652915 0.0496065319
vt 0.94661659 0.0497696102
vt 0.946530938 0.0502091199
vt 0.946443498 0.0500460863
vt 0.138066441 0.953766227
vt 0.167635292 0.958004653
vt 0.167626441 0.951972961
vt 0.138075262 0.959797859
vt 0.107144967 0.953869224
vt 0.10715384 0.959900916
vt 0.0713525563 0.952682018
vt 0.0714776814 0.954676032
vt 0.167635292 0.958004653
vt 0.19718647 0.951874435
vt 0.167626441 0.951972961
vt 0.197195306 0.957906067
vt 0.226723686 0.951775908
vt 0.226732522 0.9578076
vt 0.256292522 0.957708955
vt 0.2562837 0.951677322
vt 0.2562837 0.951677322
vt 0.256292522 0.957708955
vt 0.285852551 0.959869623
vt 0.2858437 0.95383811
vt 0.316765189 0.954299688
vt 0.316774011 0.96033144
vt 0.35268271 0.957480669
vt 0.352574766 0.953792334
vt 0.164504841 0.956352174
vt 0.0154316239 0.879154444
vt 0.401599944 0.879145384
vt 0.377868384 0.95648098
vt 0.0424006954 0.953377366
vt 0.185396269 0.879145384
vt 0.38968268 0.879145384
vt 0.401076078 0.953377426
vt 0.853103817 0.0490761921
vt 0.848021626 0.0495977178
vt 0.853094995 0.0495977178
vt 0.848021626 0.0490761958
vt 0.848021626 0.0483806692
vt 0.853103817 0.0483806692
vt 0.853094876 0.0478591509
vt 0.848021626 0.0478591509
vt 0.853094995 0.0495977178
vt 0.848021626 0.0495977178
vt 0.848021626 0.0501192361
vt 0.853103876 0.0501192361
vt 0.853103817 0.050847359
vt 0.848021686 0.0508473627
vt 0.848021686 0.046609506
vt 0.853103817 0.0473376326
vt 0.853103876 0.046609506
vt 0.848021686 0.0473376326
vt 0.848021626 0.0478591509
vt 0.853094876 0.0478591509
vt 0.847893894 0.0491110682
vt 0.847893834 0.0491110682
vt 0.847858667 0.0490759611
vt 0.847858727 0.0490759611
vt 0.847858727 0.0487715006
vt 0.847858667 0.0487715006
vt 0.847890377 0.0487399027
vt 0.847893715 0.0487364903
vt 0.0265465472 0.879145384
vt 0.412056983 0.879145384
vt 0.412056983 0.953377426
vt 0.0534760356 0.953377545
vt 0.0260239188 0.953377426
vt 0.0481660515 0.877473235
vt 0.412056983 0.879145384
vt 0.412056983 0.953377426
vt 0.853236914 0.0490761958
vt 0.848163605 0.0495977178
vt 0.853236973 0.0495977178
vt 0.848154724 0.0490761958
vt 0.848154724 0.0483806692
vt 0.853236914 0.0483806692
vt 0.853236854 0.0478591509
vt 0.848163545 0.0478591509
vt 0.853236973 0.0495977178
vt 0.848163605 0.0495977178
vt 0.848154724 0.0501192361
vt 0.853236973 0.0501192361
vt 0.853236914 0.0508473627
vt 0.848154783 0.0508473627
vt 0.848154783 0.046609506
vt 0.853236914 0.0473376326
vt 0.853236973 0.046609506
vt 0.848154783 0.0473376326
vt 0.848163545 0.0478591509
vt 0.853236854 0.0478591509
vt 0.847893894 0.0491110682
vt 0.847893894 0.0491110682
vt 0.847858667 0.0490759611
vt 0.847858727 0.0490759611
vt 0.847863436 0.0487667844
vt 0.847858667 0.0487715006
vt 0.847893894 0.0487363935
vt 0.847893834 0.0487363935
vt 0.107136093 0.947837591
vt 0.0712274387 0.950688064
vt 0.0713525563 0.952682018
vt 0.107144967 0.953869224
vt 0.138057619 0.947734535
vt 0.138066441 0.953766227
vt 0.167617589 0.945941269
vt 0.167626441 0.951972961
vt 0.19718647 0.951874435
vt 0.167617589 0.945941269
vt 0.167626441 0.951972961
vt 0.197177619 0.945842803
vt 0.226723686 0.951775908
vt 0.226714849 0.945744216
vt 0.256274879 0.94564563
vt 0.2562837 0.951677322
vt 0.285834849 0.947806597
vt 0.256274879 0.94564563
vt 0.2562837 0.951677322
vt 0.2858437 0.95383811
vt 0.316765189 0.954299688
vt 0.316756368 0.948267996
vt 0.352466822 0.950104058
vt 0.352574766 0.953792334
vt 0.946443379 0.0500522107
vt 0.94652915 0.0502123162
vt 0.94652915 0.0496065319
vt 0.94661659 0.0497696102
vt 0.138066441 0.953766227
vt 0.167626441 0.951972961
vt 0.167635292 0.958004653
vt 0.138075262 0.959797859
vt 0.107144967 0.953869224
vt 0.10715384 0.959900916
vt 0.0713525563 0.952682018
vt 0.0714776814 0.954676032
vt 0.167635292 0.958004653
vt 0.167626441 0.951972961
vt 0.19718647 0.951874435
vt 0.197195306 0.957906067
vt 0.226723686 0.951775908
vt 0.226732522 0.9578076
vt 0.256292522 0.957708955
vt 0.2562837 0.951677322
vt 0.2562837 0.951677322
vt 0.285852551 0.959869623
vt 0.256292522 0.957708955
vt 0.2858437 0.95383811
vt 0.316765189 0.954299688
vt 0.316774011 0.96033144
vt 0.35268271 0.957480669
vt 0.352574766 0.953792334
vt 0.0265465472 0.879145384
vt 0.0534760319 0.953377545
vt 0.412056983 0.953377426
vt 0.412056983 0.879145384
vt 0.0260239188 0.953377426
vt 0.412056983 0.953377426
vt 0.412056983 0.879145384
vt 0.0481662601 0.877473474
vt 0.853236914 0.0490761958
vt 0.853236973 0.0495977178
vt 0.848163605 0.0495977178
vt 0.848154724 0.0490761958
vt 0.848154724 0.0483806692
vt 0.853236914 0.0483806692
vt 0.853236854 0.0478591509
vt 0.848163545 0.0478591509
vt 0.853236973 0.0495977178
vt 0.848154724 0.0501192361
vt 0.848163605 0.0495977178
vt 0.853236973 0.0501192361
vt 0.853236914 0.0508473627
vt 0.848154783 0.0508473627
vt 0.848154783 0.046609506
vt 0.853236973 0.046609506
vt 0.853236914 0.0473376326
vt 0.848154783 0.0473376326
vt 0.848163545 0.0478591509
vt 0.853236854 0.0478591509
vt 0.847893894 0.0491110682
vt 0.847858727 0.0490759611
vt 0.847858667 0.0490759611
vt 0.847893894 0.0491110682
vt 0.847863436 0.0487667844
vt 0.847893834 0.0487363935
vt 0.847893894 0.0487363935
vt 0.847858667 0.0487715006
vt 0.107136093 0.947837591
vt 0.0713525563 0.952682018
vt 0.0712274387 0.950688064
vt 0.107144967 0.953869224
vt 0.138057619 0.947734535
vt 0.138066441 0.953766227
vt 0.167617589 0.945941269
vt 0.167626441 0.951972961
vt 0.19718647 0.951874435
vt 0.167626441 0.951972961
vt 0.167617589 0.945941269
vt 0.197177619 0.945842803
vt 0.226723686 0.951775908
vt 0.226714849 0.945744216
vt 0.256274879 0.94564563
vt 0.2562837 0.951677322
vt 0.285834849 0.947806597
vt 0.2562837 0.951677322
vt 0.256274879 0.94564563
vt 0.2858437 0.95383811
vt 0.316765189 0.954299688
vt 0.316756368 0.948267996
vt 0.35461849 0.949316144
vt 0.352574766 0.953792334
vn -0.373388737 -0.83968091 -0.394356281
vn -0.373388737 -0.83968091 -0.394356281
vn -0.373388737 -0.83968091 -0.394356281
vn -0.485527277 0.71729368 -0.499753118
vn -0.485527277 0.71729362 -0.499753118
vn -0.485527277 0.71729362 -0.499753118
vn 0.284509093 -0.918005526 0.27626127
vn 0.00387870497 -0.999985456 0.00376648759
vn 2.16560093E-05 -1 2.1255808E-05
vn 1.71590182E-05 1 1.59888004E-05
vn 0.0092703281 0.999919653 0.00865105446
vn 0.621890306 0.525776982 0.580354273
vn 1.17181944E-05 -1 -1.26891082E-05
vn 0.36540091 -0.842568934 -0.395676285
vn 0.00287227496 -0.999991059 -0.00311025837
vn 0.589538097 0.53263247 -0.607245803
vn 1.62307442E-05 1 -1.67422295E-05
vn 0.0080454126 0.999933362 -0.00828706939
vn -0.253436357 -0.934269965 0.250818253
vn -0.253436357 -0.934269965 0.250818223
vn -0.253436357 -0.934269965 0.250818223
vn -0.483894467 0.750999212 0.449273169
vn -0.483894467 0.750999212 0.449273169
vn -0.483894467 0.750999212 0.449273169
vn -0 1 0
vn -0 1 0
vn 1.62307442E-05 1 -1.67422295E-05
vn 1.71590182E-05 1 1.59888004E-05
vn 0.234774172 0.193453133 -0.952605307
vn 0.285717666 0.46245724 -0.839344263
vn 0.285717696 0.46245724 -0.839344263
vn 0.224174917 0.146491513 -0.963475883
vn 0.19535473 -0.283901393 -0.938741982
vn 0.194762453 -0.191151083 -0.96204412
vn 0.176743671 -0.652772367 -0.736647666
vn 0.176743671 -0.652772367 -0.736647666
vn -0.00777766015 -0.394698352 -0.918777823
vn -0.141771942 -0.160816401 -0.976749063
vn -0.00777765922 -0.394698322 -0.918777823
vn -0.172870755 -0.101834849 -0.979665935
vn -0.141771942 0.160816401 -0.976749063
vn -0.172870755 0.101834849 -0.979665935
vn -0.00777766015 0.394698352 -0.918777823
vn -0.00777765922 0.394698322 -0.918777823
vn 0.397333652 -0.477291226 -0.783785105
vn 0.397333711 -0.477291197 -0.783785105
vn 0.411458701 -0.149303824 -0.899116218
vn 0.412347645 -0.18596755 -0.891843915
vn 0.371433854 0.313707769 -0.873855948
vn 0.382453412 0.239709988 -0.892338753
vn 0.267959237 0.690484643 -0.671884537
vn 0.267959267 0.690484703 -0.671884537
vn 1.62307442E-05 1 -1.67422295E-05
vn -0 1 -1.09453353E-07
vn 0.0092703281 0.999919653 0.00865105446
vn 1.71590182E-05 1 1.59888004E-05
vn -0 -1 2.27615189E-07
vn -0 -1 2.27615217E-07
vn 2.16560093E-05 -1 2.1255808E-05
vn 0.00387870497 -0.999985456 0.00376648759
vn 0.0167457368 -0.186387867 -0.982333541
vn -0 -0.473792702 -0.880636454
vn 0.00866648182 -0.476596087 -0.87907964
vn -0 -0.183507457 -0.983018398
vn -0 0.183507442 -0.983018398
vn 0.0167457014 0.186387852 -0.982333541
vn 0.00866641011 0.476596057 -0.879079759
vn -0 0.473792642 -0.880636454
vn 0.00856328849 0.476637542 -0.879058182
vn -0 0.473792523 -0.880636513
vn -0 0.177048281 -0.984202147
vn 0.0167761426 0.179977641 -0.98352772
vn 0.0167938452 -0.249050051 -0.968344986
vn -0 -0.243924364 -0.969794273
vn -0.000108663728 0.239381418 -0.970925629
vn 0.0158074088 -0.178433791 -0.983824968
vn 0.0163518004 0.248034164 -0.968613327
vn -0 -0.175940186 -0.984400809
vn -0 -0.463487387 -0.886103511
vn 0.00834562909 -0.46605745 -0.884715021
vn -0 -0.652360082 -0.757909298
vn 0.00609505689 -0.654841363 -0.755741775
vn 0.0167938452 -0.249050051 -0.968344986
vn -0 -0.243924364 -0.969794273
vn -0.000108663728 0.239381418 -0.970925629
vn 0.0163518004 0.248034164 -0.968613327
vn 0.00536068575 0.646071494 -0.7632581
vn -0.000292210345 0.643726528 -0.765255511
vn -0 1 0
vn -0 1 0
vn -0 1 0
vn 1.71590182E-05 1 1.59888004E-05
vn -0 -1 0
vn -0 -1 0
vn -0 -1 0
vn -0 -1 0
vn 0.974790573 -0.223122045 0
vn 0.879268467 -0.476326555 0
vn 0.879268467 -0.476326674 0
vn 0.982158959 -0.188052937 0
vn 0.982158959 0.188052937 0
vn 0.974790573 0.223122045 0
vn 0.879268467 0.476326674 0
vn 0.879268467 0.476326555 0
vn 0.886565566 0.462599158 -0.00188512134
vn 0.886565566 0.462599158 -0.00188512134
vn 0.983366728 0.181599736 -0.00338617456
vn 0.97766155 0.210159957 -0.00325082685
vn 0.949407518 -0.31403175 -0.00304612052
vn 0.968032181 -0.250804365 -0.00330653647
vn 0.965186954 0.261560738 0
vn 0.975877404 -0.218319207 0
vn 0.946390867 0.323023766 1.16064236E-07
vn 0.981174469 -0.193123713 0
vn 0.879264235 -0.476334333 0
vn 0.879264235 -0.476334333 0
vn 0.765211284 -0.643777847 -0.00132537086
vn 0.765211344 -0.643777847 -0.00132537086
vn 0.949407518 -0.31403175 -0.00304612052
vn 0.968032181 -0.250804365 -0.00330653647
vn 0.965186954 0.261560738 0
vn 0.946390867 0.323023766 1.16064236E-07
vn 0.755679667 0.65494138 2.35324052E-07
vn 0.755679727 0.65494138 2.35324066E-07
vn 0.0167938452 -0.249050051 -0.968344986
vn 0.00609505689 -0.654841363 -0.755741775
vn 0.799423456 -0.599779844 -0.0344412625
vn 0.963103592 -0.265608758 0.0433986895
vn 0.0167761426 0.179977641 -0.98352772
vn 0.983448148 0.181172222 0.00252614426
vn 0.00856328849 0.476637542 -0.879058182
vn 0.876407325 0.458054602 -0.148648262
vn 0.979307473 -0.191463083 -0.0655641928
vn 0.00866648182 -0.476596087 -0.87907964
vn 0.861513078 -0.467944711 -0.197035313
vn 0.0167457368 -0.186387867 -0.982333541
vn 0.979307711 0.1914621 -0.0655638203
vn 0.0167457014 0.186387852 -0.982333541
vn 0.00866641011 0.476596057 -0.879079759
vn 0.861513078 0.467944711 -0.197035491
vn 0.0158074088 -0.178433791 -0.983824968
vn 0.00834562909 -0.46605745 -0.884715021
vn 0.812985957 -0.487596542 -0.318281829
vn 0.953850865 -0.197064266 -0.22657086
vn 0.958475709 0.267364472 -0.0992001519
vn 0.0163518004 0.248034164 -0.968613327
vn 0.00536068575 0.646071494 -0.7632581
vn 0.808615088 0.588156044 -0.0146284169
vn -0 -1 0
vn -0 -1 0
vn -0 -1 0
vn -0 -1 0
vn -0.229431957 0.194353566 -0.953723133
vn -0.279226124 0.463394076 -0.841010511
vn -0.880313694 0.474268407 -0.0108246394
vn -0.982087016 0.187621281 -0.0174192246
vn -0.190711394 -0.28536886 -0.939251661
vn -0.965672433 -0.259200543 -0.0170877725
vn -0.172507584 -0.653309166 -0.737175941
vn -0.755832255 -0.654742777 -0.00542786345
vn -0.872278035 -0.488904119 -0.0101836976
vn 0.00758584216 -0.394702941 -0.918777466
vn 0.138175741 -0.1612207 -0.977197707
vn -0.980649948 -0.195041642 -0.0168654956
vn 0.13817586 0.1612221 -0.977197468
vn -0.980649948 0.195041656 -0.0168654844
vn -0.872278035 0.488904178 -0.0101836668
vn 0.00758582586 0.394706577 -0.918775916
vn -0.38903442 -0.479133636 -0.786818326
vn -0.979810655 -0.199176162 -0.0173189864
vn -0.872562647 -0.488374323 -0.0111729782
vn -0.403870255 -0.187537596 -0.895387292
vn -0.331190318 0.283587635 -0.899939418
vn -0.961418808 0.274509162 -0.0178460237
vn -0.745766401 0.666186929 -0.00524613913
vn -0.187721699 0.655770242 -0.73124969
vn 0.0080454126 0.999933362 -0.00828706939
vn 1.62307442E-05 1 -1.67422295E-05
vn -0 1 0
vn -0 1 0
vn 0.00287227496 -0.999991059 -0.00311025837
vn -0 -1 0
vn -0 -1 0
vn 1.17181944E-05 -1 -1.26891082E-05
vn -0.973550856 -0.228470132 0
vn -0.874206722 -0.485553801 0
vn -0.872278035 -0.488904119 -0.0101836976
vn -0.980649948 -0.195041642 -0.0168654956
vn -0.980649948 0.195041656 -0.0168654844
vn -0.973550856 0.228470132 0
vn -0.874206722 0.485553801 0
vn -0.872278035 0.488904178 -0.0101836668
vn -0.881751597 0.471710175 -0.00192235201
vn -0.982087016 0.187621281 -0.0174192246
vn -0.880313694 0.474268407 -0.0108246394
vn -0.976560175 0.215218902 -0.00332941394
vn -0.947026253 -0.321141154 -0.00311535085
vn -0.965672433 -0.259200543 -0.0170877725
vn -0.961418808 0.274509162 -0.0178460237
vn -0.943746328 0.330670476 1.28495557E-07
vn -0.974690318 -0.22355935 0
vn -0.979810655 -0.199176162 -0.0173189864
vn -0.872562647 -0.488374323 -0.0111729782
vn -0.874207556 -0.48555246 0
vn -0.755832255 -0.654742777 -0.00542786345
vn -0.965672433 -0.259200543 -0.0170877725
vn -0.947026253 -0.321141154 -0.00311535085
vn -0.757228017 -0.653149247 -0.00134453271
vn -0.961418808 0.274509162 -0.0178460237
vn -0.745766401 0.666186929 -0.00524613913
vn -0.747521102 0.664238036 2.5811687E-07
vn -0.943746328 0.330670476 1.28495557E-07
vn -0.985658467 -0.156975031 0.0619363412
vn -0.777530313 -0.62555784 -0.0642188564
vn -0.777530253 -0.625557899 -0.0642188564
vn -0.958519638 -0.283360451 0.0307728723
vn -0.991780579 0.122969672 0.0353541784
vn -0.982619882 0.185611114 0.00257889321
vn -0.871267438 0.466841429 -0.151499972
vn -0.871267438 0.466841489 -0.151499972
vn -0.978294373 -0.196047336 -0.0671234578
vn -0.85588938 -0.476632208 -0.200686187
vn -0.855889499 -0.476632237 -0.200686172
vn -0.99012953 -0.134809613 -0.038339816
vn -0.978294373 0.196047053 -0.0671242401
vn -0.990129411 0.134809643 -0.0383404419
vn -0.855891228 0.476628751 -0.200686723
vn -0.855891228 0.47662881 -0.200686723
vn -0.965284526 -0.150073424 -0.213784218
vn -0.806016982 -0.49564904 -0.32352525
vn -0.806016982 -0.495649099 -0.32352528
vn -0.951735139 -0.201315179 -0.231673211
vn -0.929173052 0.32796365 -0.170520365
vn -0.960528791 0.221246943 -0.168624952
vn -0.720360875 0.675005019 -0.159525663
vn -0.720360816 0.675005078 -0.159525648
g FloorThreeEdge_0
f 3/3/3 2/2/2 1/1/1
f 6/6/6 5/5/5 4/4/4
f 9/9/9 8/8/8 7/7/7
f 12/12/12 11/11/11 10/10/10
f 15/15/15 14/14/14 13/13/13
f 18/18/18 17/17/17 16/16/16
f 21/21/21 20/20/20 19/19/19
f 24/24/24 23/23/23 22/22/22
f 27/27/27 26/26/26 25/25/25
f 28/28/28 27/27/27 25/25/25
f 31/31/31 30/30/30 29/29/29
f 30/30/30 32/32/32 29/29/29
f 29/29/29 32/32/32 33/33/33
f 32/32/32 34/34/34 33/33/33
f 33/33/33 34/34/34 35/35/35
f 34/34/34 36/36/36 35/35/35
f 39/39/39 38/38/38 37/37/37
f 38/38/38 40/40/40 37/37/37
f 38/38/38 41/41/41 40/40/40
f 41/41/41 42/42/42 40/40/40
f 43/43/43 42/42/42 41/41/41
f 44/44/44 43/43/43 41/41/41
f 47/47/47 46/46/46 45/45/45
f 48/48/48 47/47/47 45/45/45
f 48/48/48 49/49/49 47/47/47
f 49/49/49 50/50/50 47/47/47
f 51/51/51 50/50/50 49/49/49
f 52/52/52 51/51/51 49/49/49
f 55/55/55 54/54/54 53/53/53
f 56/56/56 55/55/55 53/53/53
f 59/59/59 58/58/58 57/57/57
f 60/60/60 59/59/59 57/57/57
f 63/63/63 62/62/62 61/61/61
f 62/62/62 64/64/64 61/61/61
f 61/61/61 64/64/64 65/65/65
f 66/66/66 61/61/61 65/65/65
f 66/66/66 65/65/65 67/67/67
f 65/65/65 68/68/68 67/67/67
f 71/71/71 70/70/70 69/69/69
f 72/72/72 71/71/71 69/69/69
f 72/72/72 73/73/73 71/71/71
f 73/73/73 74/74/74 71/71/71
f 77/77/77 76/76/76 75/75/75
f 76/76/76 78/78/78 75/75/75
f 79/79/79 78/78/78 76/76/76
f 80/80/80 79/79/79 76/76/76
f 83/83/83 82/82/82 81/81/81
f 84/84/84 83/83/83 81/81/81
f 87/87/87 86/86/86 85/85/85
f 88/88/88 87/87/87 85/85/85
f 91/91/91 90/90/90 89/89/89
f 92/92/92 91/91/91 89/89/89
f 95/95/95 94/94/94 93/93/93
f 96/96/96 95/95/95 93/93/93
f 99/99/99 98/98/98 97/97/97
f 98/98/98 100/100/100 97/97/97
f 97/97/97 100/100/100 101/101/101
f 102/102/102 97/97/97 101/101/101
f 102/102/102 101/101/101 103/103/103
f 101/101/101 104/104/104 103/103/103
f 107/107/107 106/106/106 105/105/105
f 108/108/108 107/107/107 105/105/105
f 108/108/108 109/109/109 107/107/107
f 109/109/109 110/110/110 107/107/107
f 113/113/113 112/112/112 111/111/111
f 112/112/112 114/114/114 111/111/111
f 115/115/115 114/114/114 112/112/112
f 116/116/116 115/115/115 112/112/112
f 119/119/119 118/118/118 117/117/117
f 120/120/120 119/119/119 117/117/117
f 123/123/123 122/122/122 121/121/121
f 124/124/124 123/123/123 121/121/121
f 127/127/127 126/126/126 125/125/125
f 128/128/128 127/127/127 125/125/125
f 128/128/128 125/125/125 129/129/129
f 130/130/130 128/128/128 129/129/129
f 130/130/130 129/129/129 131/131/131
f 132/132/132 130/130/130 131/131/131
f 135/135/135 134/134/134 133/133/133
f 134/134/134 136/136/136 133/133/133
f 133/133/133 136/136/136 137/137/137
f 136/136/136 138/138/138 137/137/137
f 137/137/137 138/138/138 139/139/139
f 140/140/140 137/137/137 139/139/139
f 143/143/143 142/142/142 141/141/141
f 144/144/144 143/143/143 141/141/141
f 144/144/144 141/141/141 145/145/145
f 141/141/141 146/146/146 145/145/145
f 145/145/145 146/146/146 147/147/147
f 148/148/148 145/145/145 147/147/147
f 151/151/151 150/150/150 149/149/149
f 151/151/151 152/152/152 150/150/150
f 155/155/155 154/154/154 153/153/153
f 156/156/156 155/155/155 153/153/153
f 156/156/156 153/153/153 157/157/157
f 158/158/158 156/156/156 157/157/157
f 158/158/158 157/157/157 159/159/159
f 160/160/160 158/158/158 159/159/159
f 163/163/163 162/162/162 161/161/161
f 164/164/164 163/163/163 161/161/161
f 165/165/165 163/163/163 164/164/164
f 166/166/166 165/165/165 164/164/164
f 166/166/166 167/167/167 165/165/165
f 167/167/167 168/168/168 165/165/165
f 171/171/171 170/170/170 169/169/169
f 170/170/170 172/172/172 169/169/169
f 173/173/173 172/172/172 170/170/170
f 174/174/174 173/173/173 170/170/170
f 174/174/174 175/175/175 173/173/173
f 175/175/175 176/176/176 173/173/173
f 179/179/179 178/178/178 177/177/177
f 180/180/180 179/179/179 177/177/177
f 183/183/183 182/182/182 181/181/181
f 184/184/184 183/183/183 181/181/181
f 187/187/187 186/186/186 185/185/185
f 188/188/188 187/187/187 185/185/185
f 188/188/188 185/185/185 189/189/189
f 185/185/185 190/190/190 189/189/189
f 189/189/189 190/190/190 191/191/191
f 192/192/192 189/189/189 191/191/191
f 195/195/195 194/194/194 193/193/193
f 194/194/194 196/196/196 193/193/193
f 197/197/197 196/196/196 194/194/194
f 198/198/198 197/197/197 194/194/194
f 201/201/201 200/200/200 199/199/199
f 202/202/202 201/201/201 199/199/199
f 202/202/202 203/203/203 201/201/201
f 203/203/203 204/204/204 201/201/201
f 207/207/207 206/206/206 205/205/205
f 208/208/208 207/207/207 205/205/205
f 211/211/211 210/210/210 209/209/209
f 212/212/212 211/211/211 209/209/209
f 215/215/215 214/214/214 213/213/213
f 214/214/214 216/216/216 213/213/213
f 213/213/213 216/216/216 217/217/217
f 216/216/216 218/218/218 217/217/217
f 217/217/217 218/218/218 219/219/219
f 218/218/218 220/220/220 219/219/219
f 223/223/223 222/222/222 221/221/221
f 224/224/224 223/223/223 221/221/221
f 224/224/224 221/221/221 225/225/225
f 226/226/226 224/224/224 225/225/225
f 226/226/226 225/225/225 227/227/227
f 225/225/225 228/228/228 227/227/227
f 231/231/231 230/230/230 229/229/229
f 230/230/230 232/232/232 229/229/229
f 229/229/229 232/232/232 233/233/233
f 234/234/234 229/229/229 233/233/233
f 234/234/234 233/233/233 235/235/235
f 233/233/233 236/236/236 235/235/235
