g WallCorner
v 0.125 -0.166666642 -0.125
v 0.1875 -0.0666766465 -0.1875
v 0.125 -0.166666642 -0.5
v 0.1875 -0.0666766465 -0.5
v 0.1875 0.0666766837 -0.1875
v 0.1875 0.0666766837 -0.5
v 0.125 0.166666672 -0.5
v 0.125 0.166666672 -0.125
v 0.125 -0.166666642 -0.125
v 0.125 -0.166666642 -0.5
v 0.1875 -0.266656637 -0.1875
v 0.1875 -0.266656637 -0.5
v 0.1875 -0.406259388 -0.5
v 0.1875 -0.406259388 -0.1875
v 0.0937594548 -0.5 -0.5
v 0.0937594548 -0.5 -0.0937593058
v -0.1875 -0.0666766465 -0.1875
v -0.125 -0.166666642 -0.125
v -0.125 -0.166666642 -0.5
v -0.1875 -0.0666766465 -0.5
v -0.1875 0.0666766837 -0.5
v -0.1875 0.0666766837 -0.1875
v -0.125 0.166666672 -0.5
v -0.125 0.166666672 -0.125
v -0.125 -0.166666642 -0.5
v -0.125 -0.166666642 -0.125
v -0.1875 -0.266656637 -0.1875
v -0.1875 -0.266656637 -0.5
v -0.1875 -0.406259388 -0.1875
v -0.1875 -0.406259388 -0.5
v -0.0937594548 -0.5 -0.5
v -0.0937594548 -0.5 -0.0937593058
v -0.125 -0.166666642 0.125
v -0.1875 -0.0666766465 0.1875
v -0.125 -0.166666642 0.339039922
v -0.175210565 -0.0666766465 0.3287265
v -0.1875 0.0666766837 0.1875
v -0.149161682 -0.057061851 0.518151522
v -0.0994412228 -0.142633259 0.518151522
v -0.149161682 0.057061892 0.518151522
v -0.175210565 0.0666766837 0.3287265
v -0.125 0.166666672 0.3516545
v -0.125 0.166666672 0.125
v -0.0994412228 0.142633304 0.518151522
v -0.125 -0.166666642 0.125
v -0.125 -0.166666642 0.339039922
v -0.1875 -0.266656637 0.1875
v -0.178137198 -0.266656637 0.337899923
v -0.0933065787 -0.203189611 0.551433384
v -0.139960021 -0.28126803 0.551433384
v -0.1875 -0.406259388 0.1875
v -0.178137198 -0.406259388 0.364115596
v -0.139960021 -0.390278488 0.551433384
v -0.0937594548 -0.5 0.394560546
v -0.0937594548 -0.5 0.0937593058
v -0.0699871778 -0.463477015 0.551433384
v 0.1875 0.266656667 -0.1875
v 0.125 0.166666672 -0.125
v 0.3516545 0.166666672 -0.125
v 0.342296302 0.266656667 -0.16678375
v 0.524461031 0.211517736 -0.0796010569
v 0.524461031 0.284599781 -0.119401626
v 0.1875 0.406259388 -0.1875
v 0.353599995 0.406259388 -0.16678375
v 0.524461031 0.386634499 -0.119401626
v 0.394560546 0.5 -0.0937594548
v 0.0937594548 0.5 -0.0937593058
v 0.524461031 0.455148906 -0.0597069524
v 0.3516545 0.166666672 -0.125
v 0.125 0.166666672 -0.125
v 0.1875 0.0666766837 -0.1875
v 0.3287265 0.0666766837 -0.169606313
v 0.1875 -0.0666766465 -0.1875
v 0.575187087 0.0521080866 -0.136078343
v 0.575187087 0.130250648 -0.0907189921
v 0.575187087 -0.0521080494 -0.136078343
v 0.3287265 -0.0666766465 -0.169606313
v 0.339039922 -0.166666642 -0.125
v 0.125 -0.166666642 -0.125
v 0.575187087 -0.130250618 -0.0907189921
v -0.1875 0.406259388 -0.5
v 0.0937594548 0.5 -0.5
v -0.0937594548 0.5 -0.5
v -0.1875 0.266656667 -0.5
v 0.1875 0.406259388 -0.5
v 0.1875 0.266656667 -0.5
v 0.125 0.166666672 -0.5
v -0.125 0.166666672 -0.5
v 0.1875 0.0666766837 -0.5
v -0.1875 0.0666766837 -0.5
v -0.1875 -0.0666766465 -0.5
v 0.1875 -0.0666766465 -0.5
v 0.125 -0.166666642 -0.5
v -0.125 -0.166666642 -0.5
v 0.1875 -0.266656637 -0.5
v -0.1875 -0.266656637 -0.5
v -0.1875 -0.406259388 -0.5
v -0.0937594548 -0.5 -0.5
v 0.1875 -0.406259388 -0.5
v 0.0937594548 -0.5 -0.5
v -0.0639593527 0.455148906 0.552040994
v 0.0639593527 0.455148906 0.552040994
v 0.127905577 0.386634499 0.552040994
v -0.127905577 0.386634499 0.552040994
v 0.127905577 0.284599781 0.552040994
v -0.127905577 0.284599781 0.552040994
v -0.0852703825 0.211517736 0.552040994
v 0.0852703825 0.211517736 0.552040994
v -0.5 0.406259388 0.1875
v -0.5 0.5 -0.0937593058
v -0.5 0.5 0.0937593058
v -0.5 0.266656667 0.1875
v -0.5 0.406259388 -0.1875
v -0.5 0.266656667 -0.1875
v -0.5 0.166666672 -0.125
v -0.5 0.166666672 0.125
v -0.5 0.0666766837 -0.1875
v -0.5 0.0666766837 0.1875
v -0.5 -0.0666766465 0.1875
v -0.5 -0.0666766465 -0.1875
v -0.5 -0.166666642 -0.125
v -0.5 -0.166666642 0.125
v -0.5 -0.266656637 -0.1875
v -0.5 -0.266656637 0.1875
v -0.5 -0.406259388 0.1875
v -0.5 -0.5 0.0937593058
v -0.5 -0.406259388 -0.1875
v -0.5 -0.5 -0.0937593058
v 0.339039922 -0.166666642 -0.125
v 0.125 -0.166666642 -0.125
v 0.1875 -0.266656637 -0.1875
v 0.337899923 -0.266656637 -0.175508723
v 0.1875 -0.406259388 -0.1875
v 0.552501202 -0.273158282 -0.139960021
v 0.552501202 -0.195079878 -0.0933065787
v 0.364115596 -0.406259388 -0.175508723
v 0.552501202 -0.38216877 -0.139960021
v 0.394560546 -0.5 -0.0937594548
v 0.0937594548 -0.5 -0.0937593058
v 0.552501202 -0.455367267 -0.0699871778
v -0.125 -0.166666642 -0.125
v -0.1875 -0.0666766465 -0.1875
v -0.5 -0.166666642 -0.125
v -0.5 -0.0666766465 -0.1875
v -0.1875 0.0666766837 -0.1875
v -0.5 0.0666766837 -0.1875
v -0.5 0.166666672 -0.125
v -0.125 0.166666672 -0.125
v -0.125 -0.166666642 -0.125
v -0.5 -0.166666642 -0.125
v -0.1875 -0.266656637 -0.1875
v -0.5 -0.266656637 -0.1875
v -0.5 -0.406259388 -0.1875
v -0.1875 -0.406259388 -0.1875
v -0.5 -0.5 -0.0937593058
v -0.0937594548 -0.5 -0.0937593058
v -0.1875 -0.0666766465 0.1875
v -0.125 -0.166666642 0.125
v -0.5 -0.166666642 0.125
v -0.5 -0.0666766465 0.1875
v -0.5 0.0666766837 0.1875
v -0.1875 0.0666766837 0.1875
v -0.5 0.166666672 0.125
v -0.125 0.166666672 0.125
v -0.5 -0.166666642 0.125
v -0.125 -0.166666642 0.125
v -0.1875 -0.266656637 0.1875
v -0.5 -0.266656637 0.1875
v -0.1875 -0.406259388 0.1875
v -0.5 -0.406259388 0.1875
v -0.5 -0.5 0.0937593058
v -0.0937594548 -0.5 0.0937593058
v 0.149161682 -0.057061851 0.518151522
v 0.0994412228 -0.142633259 0.518151522
v -0.0994412228 -0.142633259 0.518151522
v -0.149161682 -0.057061851 0.518151522
v -0.149161682 0.057061892 0.518151522
v 0.149161682 0.057061892 0.518151522
v 0.0994412228 0.142633304 0.518151522
v -0.0994412228 0.142633304 0.518151522
v -0.0933065787 -0.203189611 0.551433384
v 0.0933065787 -0.203189611 0.551433384
v -0.139960021 -0.28126803 0.551433384
v 0.139960021 -0.28126803 0.551433384
v 0.139960021 -0.390278488 0.551433384
v 0.0699871778 -0.463477015 0.551433384
v -0.139960021 -0.390278488 0.551433384
v -0.0699871778 -0.463477015 0.551433384
v 0.125 0.166666672 -0.125
v 0.1875 0.266656667 -0.1875
v 0.125 0.166666672 -0.5
v 0.1875 0.266656667 -0.5
v 0.1875 0.406259388 -0.1875
v 0.1875 0.406259388 -0.5
v -0.1875 0.266656667 -0.1875
v -0.125 0.166666672 -0.125
v -0.125 0.166666672 -0.5
v -0.1875 0.266656667 -0.5
v -0.1875 0.406259388 -0.5
v -0.1875 0.406259388 -0.1875
v -0.125 0.166666672 -0.125
v -0.1875 0.266656667 -0.1875
v -0.5 0.166666672 -0.125
v -0.5 0.266656667 -0.1875
v -0.1875 0.406259388 -0.1875
v -0.5 0.406259388 -0.1875
v -0.1875 0.266656667 0.1875
v -0.125 0.166666672 0.125
v -0.5 0.166666672 0.125
v -0.5 0.266656667 0.1875
v -0.5 0.406259388 0.1875
v -0.1875 0.406259388 0.1875
v -0.125 0.166666672 0.125
v -0.1875 0.266656667 0.1875
v -0.125 0.166666672 0.3516545
v -0.175104067 0.266656667 0.342296302
v -0.1875 0.406259388 0.1875
v -0.127905577 0.284599781 0.552040994
v -0.0852703825 0.211517736 0.552040994
v -0.175104067 0.406259388 0.353599995
v -0.127905577 0.386634499 0.552040994
v -0.0937594548 0.5 0.394560546
v -0.0937594548 0.5 0.0937593058
v -0.0639593527 0.455148906 0.552040994
v -0.1875 0.406259388 -0.5
v -0.0937594548 0.5 -0.5
v -0.1875 0.406259388 -0.1875
v -0.0937594548 0.5 -0.0937593058
v -0.0937594548 0.5 -0.0937593058
v -0.5 0.5 -0.0937593058
v -0.1875 0.406259388 -0.1875
v -0.5 0.406259388 -0.1875
v 0.1875 0.406259388 -0.5
v 0.1875 0.406259388 -0.1875
v 0.0937594548 0.5 -0.5
v 0.0937594548 0.5 -0.0937593058
v -0.0937594548 0.5 0.0937593058
v -0.1875 0.406259388 0.1875
v -0.5 0.5 0.0937593058
v -0.5 0.406259388 0.1875
v -0.0937594548 0.5 -0.5
v 0.0937594548 0.5 -0.5
v 0.0937594548 0.5 -0.0937593058
v -0.0937594548 0.5 -0.0937593058
v -0.0937594548 0.5 0.0937593058
v 0.0937594548 0.5 0.0937593058
v 0.0937594548 0.5 0.104230814
v -0.0937594548 0.5 0.394560546
v 0.0937594548 0.5 0.394560546
v 0.0639593527 0.455148906 0.552040994
v -0.0639593527 0.455148906 0.552040994
v 0.0937594548 -0.5 -0.5
v -0.0937594548 -0.5 -0.5
v -0.0937594548 -0.5 -0.0937593058
v 0.0937594548 -0.5 -0.0937593058
v 0.0937594548 -0.5 0.0937593058
v -0.0937594548 -0.5 0.0937593058
v 0.0937594548 -0.5 0.104230814
v 0.0937594548 -0.5 0.394560546
v -0.0937594548 -0.5 0.394560546
v -0.0699871778 -0.463477015 0.551433384
v 0.0699871778 -0.463477015 0.551433384
v 0.0937594548 0.5 -0.0937593058
v 0.394560546 0.5 -0.0937594548
v 0.0937594548 0.5 0.0937593058
v 0.1046611 0.5 0.0937593281
v 0.394560546 0.5 0.0937594548
v 0.524461031 0.455148906 -0.0597069524
v 0.524461031 0.455148906 0.0597069524
v -0.5 0.5 0.0937593058
v -0.5 0.5 -0.0937593058
v -0.0937594548 0.5 0.0937593058
v -0.0937594548 0.5 -0.0937593058
v -0.5 -0.5 -0.0937593058
v -0.5 -0.5 0.0937593058
v -0.0937594548 -0.5 -0.0937593058
v -0.0937594548 -0.5 0.0937593058
v 0.127905577 0.386634499 0.552040994
v 0.0639593527 0.455148906 0.552040994
v 0.0937594548 0.5 0.394560546
v 0.16678375 0.406259388 0.353599995
v 0.127905577 0.284599781 0.552040994
v 0.183974296 0.406259388 0.195068926
v 0.0937594548 0.5 0.104230814
v 0.16678375 0.266656667 0.342296302
v 0.0852703825 0.211517736 0.552040994
v 0.183747709 0.266656667 0.194837943
v 0.125 0.166666672 0.3516545
v 0.125 0.166666672 0.135471478
v -0.125 0.166666672 0.3516545
v -0.0852703825 0.211517736 0.552040994
v 0.125 0.166666672 0.3516545
v 0.0852703825 0.211517736 0.552040994
v -0.125 -0.166666642 0.339039922
v -0.0994412228 -0.142633259 0.518151522
v 0.125 -0.166666642 0.339039922
v 0.0994412228 -0.142633259 0.518151522
v 0.125 -0.166666642 0.339039922
v 0.0994412228 -0.142633259 0.518151522
v 0.149161682 -0.057061851 0.518151522
v 0.169606313 -0.0666766465 0.3287265
v 0.169606313 0.0666766837 0.3287265
v 0.149161682 0.057061892 0.518151522
v 0.183943018 -0.0666766465 0.194873095
v 0.125 -0.166666642 0.135471478
v 0.183943018 0.0666766837 0.194873691
v 0.125 0.166666672 0.3516545
v 0.0994412228 0.142633304 0.518151522
v 0.125 0.166666672 0.135471478
v 0.125 0.166666672 0.3516545
v 0.0994412228 0.142633304 0.518151522
v -0.125 0.166666672 0.3516545
v -0.0994412228 0.142633304 0.518151522
v 0.125 -0.166666642 0.339039922
v 0.0933065787 -0.203189611 0.551433384
v -0.125 -0.166666642 0.339039922
v -0.0933065787 -0.203189611 0.551433384
v 0.0937594548 -0.5 0.394560546
v 0.0699871778 -0.463477015 0.551433384
v 0.139960021 -0.390278488 0.551433384
v 0.175508723 -0.406259388 0.364115596
v 0.139960021 -0.28126803 0.551433384
v 0.185505211 -0.406259388 0.196180582
v 0.0937594548 -0.5 0.104230814
v 0.175508723 -0.266656637 0.337899923
v 0.0933065787 -0.203189611 0.551433384
v 0.185182035 -0.266656637 0.195873052
v 0.125 -0.166666642 0.339039922
v 0.125 -0.166666642 0.135471478
v 0.524461031 0.455148906 0.0597069524
v 0.524461031 0.455148906 -0.0597069524
v 0.524461031 0.386634499 -0.119401626
v 0.524461031 0.386634499 0.119401626
v 0.524461031 0.284599781 -0.119401626
v 0.524461031 0.284599781 0.119401626
v 0.524461031 0.211517736 0.0796010569
v 0.524461031 0.211517736 -0.0796010569
v 0.575187087 -0.0521080494 -0.136078343
v 0.575187087 -0.130250618 -0.0907189921
v 0.575187087 -0.130250618 0.0907189921
v 0.575187087 -0.0521080494 0.136078343
v 0.575187087 0.0521080866 0.136078343
v 0.575187087 0.0521080866 -0.136078343
v 0.575187087 0.130250648 -0.0907189921
v 0.575187087 0.130250648 0.0907189921
v 0.552501202 -0.195079878 0.0933065787
v 0.552501202 -0.195079878 -0.0933065787
v 0.552501202 -0.273158282 0.139960021
v 0.552501202 -0.273158282 -0.139960021
v 0.552501202 -0.38216877 -0.139960021
v 0.552501202 -0.455367267 -0.0699871778
v 0.552501202 -0.38216877 0.139960021
v 0.552501202 -0.455367267 0.0699871778
v 0.394560546 0.5 0.0937594548
v 0.524461031 0.455148906 0.0597069524
v 0.524461031 0.386634499 0.119401626
v 0.353599995 0.406259388 0.175104067
v 0.524461031 0.284599781 0.119401626
v 0.195639193 0.406259388 0.185379848
v 0.1046611 0.5 0.0937593281
v 0.342296302 0.266656667 0.175104067
v 0.195495754 0.266656667 0.185236514
v 0.3516545 0.166666672 0.125
v 0.524461031 0.211517736 0.0796010569
v 0.135901645 0.166666672 0.125
v 0.3516545 0.166666672 0.125
v 0.524461031 0.211517736 0.0796010569
v 0.3516545 0.166666672 -0.125
v 0.524461031 0.211517736 -0.0796010569
v 0.575187087 -0.0521080494 0.136078343
v 0.575187087 -0.130250618 0.0907189921
v 0.339039922 -0.166666642 0.125
v 0.3287265 -0.0666766465 0.175210565
v 0.575187087 0.0521080866 0.136078343
v 0.195472553 -0.0666766465 0.185042351
v 0.135901645 -0.166666642 0.125
v 0.195471957 0.0666766837 0.185042411
v 0.3287265 0.0666766837 0.175210565
v 0.3516545 0.166666672 0.125
v 0.575187087 0.130250648 0.0907189921
v 0.135901645 0.166666672 0.125
v 0.339039922 -0.166666642 0.125
v 0.575187087 -0.130250618 0.0907189921
v 0.339039922 -0.166666642 -0.125
v 0.575187087 -0.130250618 -0.0907189921
v 0.3516545 0.166666672 -0.125
v 0.575187087 0.130250648 -0.0907189921
v 0.3516545 0.166666672 0.125
v 0.575187087 0.130250648 0.0907189921
v 0.339039922 -0.166666642 0.125
v 0.552501202 -0.195079878 0.0933065787
v 0.552501202 -0.273158282 0.139960021
v 0.337899923 -0.266656637 0.178137198
v 0.196365803 -0.266656637 0.185686216
v 0.135901645 -0.166666642 0.125
v 0.196637109 -0.406259388 0.185941055
v 0.364115596 -0.406259388 0.178137198
v 0.552501202 -0.38216877 0.139960021
v 0.394560546 -0.5 0.0937594548
v 0.1046611 -0.5 0.0937593281
v 0.552501202 -0.455367267 0.0699871778
v 0.339039922 -0.166666642 -0.125
v 0.552501202 -0.195079878 -0.0933065787
v 0.339039922 -0.166666642 0.125
v 0.552501202 -0.195079878 0.0933065787
v 0.552501202 -0.455367267 0.0699871778
v 0.552501202 -0.455367267 -0.0699871778
v 0.394560546 -0.5 -0.0937594548
v 0.394560546 -0.5 0.0937594548
v 0.1046611 -0.5 0.0937593281
v 0.0937594548 -0.5 -0.0937593058
v 0.0937594548 -0.5 0.0937593058
v 0.0937594548 -0.5 0.0937593058
v 0.0937594548 -0.5 0.104230814
v 0.1046611 -0.5 0.0937593281
v 0.185505211 -0.406259388 0.196180582
v 0.196637109 -0.406259388 0.185941055
v 0.185182035 -0.266656637 0.195873052
v 0.196365803 -0.266656637 0.185686216
v 0.135901645 -0.166666642 0.125
v 0.125 -0.166666642 0.135471478
v 0.183943018 -0.0666766465 0.194873095
v 0.195472553 -0.0666766465 0.185042351
v 0.183943018 0.0666766837 0.194873691
v 0.195471957 0.0666766837 0.185042411
v 0.135901645 0.166666672 0.125
v 0.125 0.166666672 0.135471478
v 0.183747709 0.266656667 0.194837943
v 0.195495754 0.266656667 0.185236514
v 0.183974296 0.406259388 0.195068926
v 0.195639193 0.406259388 0.185379848
v 0.1046611 0.5 0.0937593281
v 0.0937594548 0.5 0.104230814
v 0.0937594548 0.5 0.0937593058
vt 0.845856905 0.0495977439
vt 0.846182883 0.0490761995
vt 0.84781146 0.0495977439
vt 0.847811639 0.0490761958
vt 0.846182883 0.0483806692
vt 0.847811699 0.0483806692
vt 0.847812414 0.0478591546
vt 0.845857859 0.0478591546
vt 0.852205336 0.0529431701
vt 0.852629364 0.0543893576
vt 0.852790773 0.0528842211
vt 0.853102386 0.0542622805
vt 0.853657901 0.0541311502
vt 0.853491604 0.0527368188
vt 0.854195297 0.054089129
vt 0.854147613 0.0525064468
vt 0.846182942 0.0483806729
vt 0.845857382 0.0478591621
vt 0.847811759 0.0478591621
vt 0.847811699 0.0483806729
vt 0.847811639 0.0490762033
vt 0.846182942 0.049076207
vt 0.847812712 0.0495978035
vt 0.845858574 0.0495978296
vt 0.85577482 0.0533154607
vt 0.856689751 0.0522294641
vt 0.856228769 0.0518844128
vt 0.855403483 0.0530000925
vt 0.855670333 0.0514436364
vt 0.854934454 0.0527008176
vt 0.854466915 0.0524458289
vt 0.855120063 0.0510339737
vt 0.853240907 0.0517347157
vt 0.853241205 0.0517342985
vt 0.853241801 0.0517347157
vt 0.853241801 0.0517342985
vt 0.853241205 0.0517337322
vt 0.853242576 0.0517342389
vt 0.853242576 0.0517346561
vt 0.853242576 0.0517337322
vt 0.853241801 0.0517337322
vt 0.853241861 0.0517332554
vt 0.853240907 0.0517332554
vt 0.853242576 0.0517333746
vt 0.856059015 0.0477119684
vt 0.855379999 0.0477815866
vt 0.856086552 0.0482954979
vt 0.855413377 0.0482578278
vt 0.854450405 0.0477699041
vt 0.854444206 0.0481588244
vt 0.8560251 0.0490087867
vt 0.855214953 0.0488109589
vt 0.854374707 0.0486086011
vt 0.854906917 0.0492589474
vt 0.855896711 0.0496901274
vt 0.854230225 0.0490216017
vt 0.844962239 0.0517638922
vt 0.844955206 0.0517526865
vt 0.844980657 0.0517526865
vt 0.844979644 0.0517638922
vt 0.845000148 0.0517578125
vt 0.845000148 0.0517659187
vt 0.844962239 0.0517796278
vt 0.844980896 0.0517796278
vt 0.845000148 0.051777482
vt 0.844985485 0.0517901182
vt 0.844951749 0.0517901182
vt 0.845000148 0.0517851114
vt 0.844980657 0.0517526865
vt 0.844955206 0.0517526865
vt 0.844962239 0.0517414808
vt 0.844978094 0.0517414808
vt 0.844962239 0.0517265201
vt 0.84500587 0.0517398119
vt 0.84500587 0.0517486334
vt 0.84500587 0.0517281592
vt 0.844978094 0.0517265201
vt 0.844979286 0.0517152846
vt 0.844955206 0.0517152846
vt 0.84500587 0.0517193675
vt 0.597288728 0.647008896
vt 0.526441336 0.673119247
vt 0.573676109 0.673119247
vt 0.597288728 0.608124256
vt 0.502828658 0.647008836
vt 0.502828538 0.608124077
vt 0.518571615 0.580272615
vt 0.581544816 0.58027333
vt 0.502829671 0.552422523
vt 0.597288728 0.552422285
vt 0.597288728 0.51527828
vt 0.502829075 0.515277565
vt 0.518572628 0.487428427
vt 0.577778459 0.487428278
vt 0.502829194 0.459576488
vt 0.597288668 0.459576249
vt 0.597288728 0.420691609
vt 0.573676109 0.394581318
vt 0.502828896 0.420691729
vt 0.526441336 0.394581318
vt 0.251463562 0.376634538
vt 0.303860426 0.376634538
vt 0.330053538 0.348570347
vt 0.225270435 0.348570347
vt 0.330053538 0.306775808
vt 0.225270435 0.306775808
vt 0.242734298 0.276840597
vt 0.312589645 0.276840597
vt 0.597289026 0.647009134
vt 0.526441395 0.673119247
vt 0.57367605 0.673119247
vt 0.597289443 0.608124733
vt 0.502829015 0.647009075
vt 0.502829432 0.608124733
vt 0.518572032 0.580273271
vt 0.581545472 0.580273449
vt 0.5028283 0.552422285
vt 0.59728837 0.552422404
vt 0.597288191 0.51527822
vt 0.502828181 0.51527822
vt 0.518572271 0.487427443
vt 0.577778101 0.487427503
vt 0.502828777 0.459576547
vt 0.597288787 0.459576547
vt 0.597288728 0.420691729
vt 0.57367605 0.394581318
vt 0.502828717 0.420691758
vt 0.526441395 0.394581318
vt 0.852188289 0.0522502661
vt 0.852205336 0.0529431701
vt 0.852790773 0.0528842211
vt 0.85266 0.0522188544
vt 0.853491604 0.0527368188
vt 0.852408946 0.0512695909
vt 0.852014124 0.0513297915
vt 0.853188574 0.0519524813
vt 0.852848113 0.0511452556
vt 0.853587806 0.0515913367
vt 0.854147613 0.0525064468
vt 0.85324055 0.0509485602
vt 0.845856249 0.049597688
vt 0.846182883 0.0490761995
vt 0.847810864 0.0495976843
vt 0.847811639 0.0490761958
vt 0.846182883 0.0483806692
vt 0.847811699 0.0483806692
vt 0.847809672 0.0478591062
vt 0.845855117 0.0478591062
vt 0.856689751 0.0522294641
vt 0.857494235 0.0510189533
vt 0.856228769 0.0518844128
vt 0.857093573 0.0507436395
vt 0.856639743 0.0504091978
vt 0.855670333 0.0514436364
vt 0.856267333 0.0500257611
vt 0.855120063 0.0510339737
vt 0.846182883 0.0483806729
vt 0.845858395 0.0478591844
vt 0.84781301 0.0478591844
vt 0.847811699 0.0483806729
vt 0.847811639 0.0490762033
vt 0.846182883 0.0490762033
vt 0.847811997 0.0495976917
vt 0.845857501 0.0495976917
vt 0.857508659 0.047898829
vt 0.856059015 0.0477119684
vt 0.856086552 0.0482954979
vt 0.857450604 0.0483822227
vt 0.8560251 0.0490087867
vt 0.857454658 0.0489441752
vt 0.857493043 0.0494793057
vt 0.855896711 0.0496901274
vt 0.329001009 0.182385862
vt 0.312907934 0.154688835
vt 0.248535365 0.154688835
vt 0.232442319 0.182385862
vt 0.232442319 0.21932447
vt 0.329001009 0.21932447
vt 0.312907934 0.247021526
vt 0.248535365 0.247021526
vt 0.248542458 0.122298643
vt 0.314940602 0.122298643
vt 0.231942877 0.094517827
vt 0.331540257 0.094517827
vt 0.331540257 0.0526714697
vt 0.306643426 0.0266269539
vt 0.231942877 0.0526714697
vt 0.256839693 0.0266269539
vt 0.845857859 0.0478591546
vt 0.846182942 0.0473376326
vt 0.847812414 0.0478591546
vt 0.847811699 0.0473376326
vt 0.846182883 0.046609506
vt 0.847811699 0.046609506
vt 0.846182942 0.0501192436
vt 0.845858574 0.0495978296
vt 0.847812712 0.0495978035
vt 0.847811699 0.0501192398
vt 0.847811759 0.0508473665
vt 0.846182942 0.0508473702
vt 0.845855117 0.0478591062
vt 0.846182942 0.0473376326
vt 0.847809672 0.0478591062
vt 0.847811699 0.0473376326
vt 0.846182883 0.046609506
vt 0.847811699 0.046609506
vt 0.846182883 0.0501192398
vt 0.845857501 0.0495976917
vt 0.847811997 0.0495976917
vt 0.847811699 0.0501192398
vt 0.847811759 0.0508473665
vt 0.846182883 0.0508473665
vt 0.853240907 0.0517332554
vt 0.853241205 0.0517328382
vt 0.853241861 0.0517332554
vt 0.853241801 0.0517328382
vt 0.853241205 0.0517321825
vt 0.853242815 0.0517327785
vt 0.853242815 0.0517330766
vt 0.853241861 0.0517321825
vt 0.853242815 0.0517323017
vt 0.853242099 0.0517318249
vt 0.853240728 0.0517318249
vt 0.853242815 0.0517320037
vt 0.846992373 0.0487715006
vt 0.846992373 0.0487363935
vt 0.847109377 0.0487715006
vt 0.847144485 0.0487363935
vt 0.847144485 0.0487363935
vt 0.847144485 0.0487363935
vt 0.847109377 0.0487715006
vt 0.847109377 0.0487715006
vt 0.846992373 0.0487715006
vt 0.847109377 0.0487715006
vt 0.846992373 0.0487363935
vt 0.847144485 0.0487363935
vt 0.847214758 0.0487363935
vt 0.847249866 0.0487715006
vt 0.847214758 0.0487363935
vt 0.847249866 0.0487715006
vt 0.0450379699 0.953625381
vt 0.0450379699 0.878544867
vt 0.182797477 0.878544986
vt 0.182797521 0.953625262
vt 0.246386796 0.953625262
vt 0.237364233 0.878544986
vt 0.256957352 0.878544986
vt 0.348391175 0.953625262
vt 0.348390967 0.878544986
vt 0.401794165 0.890476644
vt 0.401794165 0.941693723
vt 0.0450379699 0.878544867
vt 0.0450379699 0.953625381
vt 0.182797521 0.953625262
vt 0.182797477 0.878544986
vt 0.237364218 0.878544986
vt 0.246386796 0.953625262
vt 0.256957352 0.878544986
vt 0.348390967 0.878544986
vt 0.348391175 0.953625262
vt 0.401588202 0.944107115
vt 0.401588082 0.888063133
vt 0.158775657 0.630123496
vt 0.0714538991 0.630123436
vt 0.158775687 0.550739229
vt 0.158775687 0.550739229
vt 0.0714538693 0.55073905
vt 0.0339919627 0.611111879
vt 0.0339919031 0.569752038
vt 0.0309607834 0.877675891
vt 0.0309607834 0.953895986
vt 0.196084514 0.877675891
vt 0.196084514 0.953895986
vt 0.0309607834 0.953895986
vt 0.0309607834 0.877675891
vt 0.196084514 0.953895986
vt 0.196084514 0.877675891
vt 0.853242815 0.0517323017
vt 0.853242815 0.0517320037
vt 0.853242099 0.0517318249
vt 0.853241861 0.0517321825
vt 0.853242815 0.0517327785
vt 0.853241324 0.0517321825
vt 0.853240848 0.0517318249
vt 0.853241801 0.0517328382
vt 0.853242815 0.0517330766
vt 0.853241324 0.0517328382
vt 0.853241861 0.0517332554
vt 0.853241026 0.0517332554
vt 0.34827435 0.877437651
vt 0.409092307 0.88949573
vt 0.348274201 0.953313828
vt 0.409092486 0.941255808
vt 0.344445348 0.877437592
vt 0.398806691 0.885194778
vt 0.344445556 0.953313887
vt 0.39880693 0.9455567
vt 0.853241801 0.0517347157
vt 0.853242576 0.0517346561
vt 0.853242576 0.0517342389
vt 0.853241801 0.0517342985
vt 0.853241801 0.0517337322
vt 0.853242576 0.0517337322
vt 0.853241324 0.0517342985
vt 0.853240967 0.0517347157
vt 0.853241324 0.0517337322
vt 0.853241861 0.0517332554
vt 0.853242576 0.0517333746
vt 0.853241026 0.0517332554
vt 0.348274201 0.953313828
vt 0.39880693 0.9455567
vt 0.34827435 0.877437651
vt 0.398806691 0.885194778
vt 0.109216571 0.953313887
vt 0.0447539985 0.943694711
vt 0.109216779 0.877437592
vt 0.0447541177 0.887056708
vt 0.854825199 0.0490670204
vt 0.85495466 0.0482801199
vt 0.854473889 0.0481647849
vt 0.854206145 0.0490470529
vt 0.853973925 0.047970593
vt 0.853933394 0.0498155951
vt 0.854417384 0.0504254699
vt 0.853533924 0.0489299893
vt 0.853573143 0.0477781296
vt 0.853289664 0.0495746732
vt 0.853040874 0.0487046838
vt 0.852652371 0.0496198535
vt 0.251463562 0.376634538
vt 0.303860426 0.376634538
vt 0.330053538 0.348570347
vt 0.225270435 0.348570347
vt 0.330053538 0.306775808
vt 0.225270435 0.306775808
vt 0.242734298 0.276840597
vt 0.312589645 0.276840597
vt 0.329001009 0.182385862
vt 0.312907934 0.154688835
vt 0.248535365 0.154688835
vt 0.232442319 0.182385862
vt 0.232442319 0.21932447
vt 0.329001009 0.21932447
vt 0.312907934 0.247021526
vt 0.248535365 0.247021526
vt 0.248542458 0.122298643
vt 0.314940602 0.122298643
vt 0.231942877 0.094517827
vt 0.331540257 0.094517827
vt 0.331540257 0.0526714697
vt 0.306643426 0.0266269539
vt 0.231942877 0.0526714697
vt 0.256839693 0.0266269539
vt 0.844985485 0.0517901182
vt 0.845000148 0.0517851114
vt 0.845000148 0.051777482
vt 0.844980896 0.0517796278
vt 0.845000148 0.0517659187
vt 0.844965398 0.0517796278
vt 0.844955266 0.0517901182
vt 0.844979644 0.0517638922
vt 0.844965398 0.0517638922
vt 0.844980657 0.0517526865
vt 0.845000148 0.0517578125
vt 0.844958723 0.0517526865
vt 0.321544141 0.879054546
vt 0.373317212 0.892656207
vt 0.3215442 0.953954875
vt 0.373317093 0.940353334
vt 0.84500587 0.0517281592
vt 0.84500587 0.0517193675
vt 0.844979286 0.0517152846
vt 0.844978094 0.0517265201
vt 0.84500587 0.0517398119
vt 0.844965398 0.0517265201
vt 0.844958723 0.0517152846
vt 0.844965398 0.0517414808
vt 0.844978094 0.0517414808
vt 0.844980657 0.0517526865
vt 0.84500587 0.0517486334
vt 0.844958723 0.0517526865
vt 0.345340103 0.879054606
vt 0.416090012 0.889325202
vt 0.345340103 0.953954875
vt 0.416090012 0.94368434
vt 0.3215442 0.953954875
vt 0.416090012 0.94368434
vt 0.321544141 0.879054546
vt 0.416090012 0.889325202
vt 0.852303565 0.0498558879
vt 0.851526439 0.0505607128
vt 0.851803482 0.050896287
vt 0.852640927 0.0502753854
vt 0.853193223 0.0498906374
vt 0.853085339 0.0492712259
vt 0.853577912 0.0504487157
vt 0.852911055 0.0508862138
vt 0.852109253 0.0513269305
vt 0.85307759 0.0514788032
vt 0.854274809 0.0507664084
vt 0.852329314 0.0517604947
vt 0.109146357 0.953954875
vt 0.0451930761 0.944459558
vt 0.109146357 0.879054606
vt 0.0451930165 0.888550043
vt 0.0339919031 0.611111939
vt 0.0339919627 0.569751918
vt 0.0714538991 0.550738752
vt 0.0714538693 0.630123317
vt 0.158775687 0.630123317
vt 0.158775657 0.550739169
vt 0.158775687 0.630123317
vt 0.949729979 0.189674422
vt 0.945583999 0.207757667
vt 0.953984797 0.207782865
vt 0.9458552 0.249996096
vt 0.954256535 0.250021219
vt 0.948129535 0.312943846
vt 0.956530869 0.312968969
vt 0.956324995 0.358074635
vt 0.947924197 0.358049363
vt 0.948045313 0.403116196
vt 0.956446588 0.40314126
vt 0.94385308 0.463245928
vt 0.952254295 0.463271022
vt 0.95208478 0.508376479
vt 0.943684042 0.508351266
vt 0.943782985 0.553417921
vt 0.952183545 0.553443074
vt 0.945598662 0.616365671
vt 0.95399946 0.616390646
vt 0.953744233 0.658688486
vt 0.945343554 0.658663273
vt 0.949489415 0.676781774
vn 0.84797442 -0.530037105 0
vn 0.94860971 -0.316448301 0
vn 0.847974479 -0.530037045 0
vn 0.965950847 -0.258725703 0
vn 0.948609829 0.316448271 0
vn 0.965950847 0.258725762 0
vn 0.847974479 0.530037045 0
vn 0.84797442 0.530037105 0
vn 0.847974479 0.530037045 0
vn 0.847974479 0.530037045 0
vn 0.950626016 0.310339123 0
vn 0.967619598 0.252412617 0
vn 0.927922606 -0.372772783 0
vn 0.880720496 -0.47363627 0
vn 0.70710665 -0.707106829 0
vn 0.707106829 -0.707106769 0
vn -0.94860971 -0.316448301 0
vn -0.84797442 -0.530037105 0
vn -0.847974479 -0.530037045 0
vn -0.965950847 -0.258725762 0
vn -0.965950847 0.258725762 0
vn -0.94860971 0.316448301 0
vn -0.847974479 0.530037045 0
vn -0.84797442 0.530037105 0
vn -0.847974479 0.530037045 0
vn -0.847974479 0.530037045 0
vn -0.950626016 0.310339123 0
vn -0.967619598 0.252412617 0
vn -0.880720556 -0.473636091 0
vn -0.927922606 -0.372772843 0
vn -0.707106829 -0.70710665 0
vn -0.707107246 -0.707106233 0
vn -0.847974598 -0.530036986 0
vn -0.946587443 -0.319109648 0.0462730899
vn -0.876967013 -0.470384121 0.0983243212
vn -0.970937073 -0.208847985 0.1168916
vn -0.944279075 0.326170415 0.0441582687
vn -0.961618543 -0.225022748 0.157017946
vn -0.849319994 -0.493489623 0.18741262
vn -0.965050876 0.208472133 0.158796459
vn -0.973149717 0.198726565 0.116135769
vn -0.880801499 0.462394774 0.101880945
vn -0.8479743 0.530037344 0
vn -0.846984982 0.49213022 0.201057523
vn -0.847974598 0.530036867 0
vn -0.868714094 0.47954455 0.123987019
vn -0.949680328 0.311293811 0.0346917547
vn -0.96584022 0.224075228 0.130165234
vn -0.851269603 0.487875879 0.193176463
vn -0.95135963 0.239505798 0.193782911
vn -0.860931814 -0.508150041 0.0240816623
vn -0.941049874 -0.313083351 0.128077477
vn -0.915431917 -0.329897583 0.230546951
vn -0.739386261 -0.663188994 0.116138943
vn -0.707107127 -0.707106352 0
vn -0.697790802 -0.667041898 0.261042148
vn 0.0721770003 -0.301726013 -0.950658619
vn -0 -0.530037344 -0.8479743
vn 0.18975988 -0.404132158 -0.894800723
vn 0.204448298 -0.171505645 -0.963735819
vn 0.287203163 -0.4156591 -0.86298424
vn 0.269717425 -0.202632949 -0.941377878
vn 0.0538018122 0.498938709 -0.864965618
vn 0.191628575 0.265750021 -0.94480449
vn 0.312094182 0.273057729 -0.909965217
vn 0.168052062 0.608100533 -0.775868714
vn -3.82646704E-07 0.70710665 -0.707106829
vn 0.39072004 0.604692817 -0.694034934
vn 0.115058027 0.426293582 -0.897237659
vn -0 0.530037344 -0.8479743
vn 0.0642011911 0.319170088 -0.945520341
vn 0.134837478 0.176684856 -0.974987805
vn 0.067277573 -0.311861068 -0.94774282
vn 0.164026365 0.213366732 -0.963104367
vn 0.209654093 0.490864992 -0.845633984
vn 0.160785854 -0.211508021 -0.964060307
vn 0.135453865 -0.182179436 -0.973890662
vn 0.112622388 -0.436984509 -0.89239049
vn -0 -0.530036867 -0.847974598
vn 0.198909894 -0.491989762 -0.847573519
vn -0 0 -1
vn -0 0 -1
vn -0 0 -1
vn -0 0 -1
vn -0 0 -1
vn -0 0 -1
vn -0 0 -1
vn -0 0 -1
vn -0 0 -1
vn -0 0 -1
vn -0 0 -1
vn -0 0 -1
vn -0 0 -1
vn -0 0 -1
vn -0 0 -1
vn -0 0 -1
vn -1.17464758E-07 0 -1
vn -2.02133748E-07 0 -1
vn -0 0 -1
vn -0 0 -1
vn -0 0 1
vn -0 0 1
vn -0 0 1
vn -0 0 1
vn -0 0 1
vn -0 0 1
vn -0 0 1
vn -0 0 1
vn -1 0 0
vn -1 0 0
vn -1 0 0
vn -1 0 0
vn -1 0 0
vn -1 0 0
vn -1 0 0
vn -1 0 0
vn -1 0 0
vn -1 0 0
vn -1 0 0
vn -1 0 0
vn -1 0 0
vn -1 0 0
vn -1 0 0
vn -1 0 0
vn -1 0 0
vn -1 0 0
vn -1 0 0
vn -1 0 0
vn 0.104108207 0.474731654 -0.873951554
vn -0 0.530036807 -0.847974658
vn 0.0444112644 0.307938427 -0.950369239
vn 0.123055935 0.212353095 -0.969413877
vn 0.0308453105 -0.505335391 -0.862371564
vn 0.183320612 0.240631327 -0.953147471
vn 0.192084327 0.503378749 -0.842444897
vn 0.133921862 -0.307103902 -0.942206025
vn 0.233186334 -0.316655338 -0.91943109
vn 0.127380684 -0.653851926 -0.745822906
vn -3.82646789E-07 -0.707106769 -0.707106769
vn 0.290918589 -0.661112726 -0.691589713
vn -0 -0.530037105 -0.84797442
vn -0 -0.316448271 -0.948609829
vn -0 -0.530037045 -0.847974479
vn -0 -0.258725762 -0.965950847
vn -0 0.316448271 -0.948609829
vn -0 0.258725762 -0.965950847
vn -0 0.530037045 -0.847974479
vn -0 0.530037045 -0.847974479
vn -0 0.530037045 -0.847974479
vn -0 0.530037045 -0.847974479
vn -0 0.310339093 -0.950626016
vn -0 0.252412617 -0.967619598
vn -0 -0.372773021 -0.927922547
vn -0 -0.473636687 -0.880720317
vn -0 -0.707107067 -0.707106471
vn -0 -0.707107067 -0.707106411
vn -0 -0.316448301 0.94860971
vn -0 -0.530037105 0.84797442
vn -0 -0.530037045 0.847974479
vn -0 -0.258725762 0.965950847
vn -0 0.258725762 0.965950847
vn -0 0.316448301 0.94860971
vn -0 0.530037045 0.847974479
vn -0 0.530037045 0.847974479
vn -0 0.530037045 0.847974479
vn -0 0.530037045 0.847974479
vn -0 0.310339093 0.950626016
vn -0 0.252412617 0.967619598
vn -0 -0.473636687 0.880720317
vn -0 -0.372773081 0.927922547
vn -0 -0.707107127 0.707106352
vn -0 -0.707107246 0.707106292
vn -0 0 1
vn -0 0 1
vn -0 0 1
vn -0 0 1
vn -0 0 1
vn -0 0 1
vn -0 0 1
vn -0 0 1
vn -0 0 1
vn -0 0 1
vn -1.44092766E-07 0 1
vn -0 0 1
vn 1.03182025E-07 0 1
vn -0 0 1
vn -4.80104234E-07 0 1
vn -0 0 1
vn 0.847974479 -0.530037045 0
vn 0.950625896 -0.310339123 0
vn 0.847974479 -0.530037045 0
vn 0.967619598 -0.252412647 0
vn 0.880720735 0.473635882 0
vn 0.927922606 0.372772902 0
vn -0.950625896 -0.310339123 0
vn -0.847974479 -0.530037045 0
vn -0.847974479 -0.530037045 0
vn -0.967619598 -0.252412647 0
vn -0.927922606 0.372772902 0
vn -0.880720496 0.473636478 0
vn -0 -0.530037105 -0.84797442
vn -0 -0.310339123 -0.950625896
vn -0 -0.530037045 -0.847974479
vn -0 -0.252412677 -0.967619598
vn -0 0.473636746 -0.880720317
vn -0 0.372773141 -0.927922547
vn -0 -0.310339183 0.950625896
vn -0 -0.530037105 0.847974479
vn -0 -0.530037105 0.847974479
vn -0 -0.252412617 0.967619598
vn -0 0.372773111 0.927922547
vn -0 0.473636746 0.880720317
vn -0.847975075 -0.530035973 0
vn -0.949207366 -0.311661988 0.0432685465
vn -0.875658154 -0.461176664 0.143314391
vn -0.96576035 -0.203862384 0.160458818
vn -0.86141026 0.506885946 0.0322309248
vn -0.94514215 -0.213341177 0.247369871
vn -0.830890298 -0.484733492 0.273230255
vn -0.940865695 0.300633162 0.156177595
vn -0.912017047 0.309625238 0.268992722
vn -0.75557518 0.638658822 0.145674497
vn -0.707107127 0.707106352 0
vn -0.693682134 0.647430003 0.31565702
vn -0.927922606 0.372772902 0
vn -0.707106769 0.707106829 0
vn -0.880720496 0.473636478 0
vn -0.707106829 0.707106769 0
vn -0 0.707107246 -0.707106292
vn -0 0.707107127 -0.707106352
vn -0 0.473636746 -0.880720317
vn -0 0.372773141 -0.927922547
vn 0.927922606 0.372772902 0
vn 0.880720735 0.473635882 0
vn 0.707106948 0.70710659 0
vn 0.707107663 0.707105875 0
vn -0 0.707107067 0.707106411
vn -0 0.473636746 0.880720317
vn -0 0.707107067 0.707106471
vn -0 0.372773111 0.927922547
vn -0 1 0
vn -0 1 0
vn -0 1 0
vn -0 1 0
vn -0 1 0
vn -0 1 0
vn -0 1 0
vn -0 0.996582925 0.0825985968
vn -0 0.995758116 0.0920098722
vn -0 0.961754918 0.273911655
vn -0 0.961754799 0.273911923
vn -0 -1 0
vn -0 -1 0
vn -0 -1 0
vn -0 -1 0
vn -0 -1 0
vn -0 -1 0
vn -0 -1 0
vn -0 -0.997608781 0.0691139624
vn -0 -0.997218132 0.0745389909
vn -0 -0.973951936 0.226754501
vn -0 -0.973951936 0.226754755
vn -0 1 0
vn 0.0942225456 0.995551229 0
vn -0 1 0
vn -0 1 0
vn 0.0827986971 0.996566296 0
vn 0.326366514 0.945243299 0
vn 0.326366782 0.94524318 0
vn -0 1 0
vn -0 1 0
vn -0 1 0
vn -0 1 0
vn -0 -1 0
vn -0 -1 0
vn -0 -1 0
vn -0 -1 0
vn 0.924213052 0.297259033 0.239723518
vn 0.693682134 0.647430003 0.31565702
vn 0.778702676 0.611583948 0.139954686
vn 0.950117469 0.27085036 0.154650912
vn 0.955342114 -0.218378291 0.199078783
vn 0.872030675 0.487187922 0.0470150635
vn 0.720529139 0.693424582 0
vn 0.970436454 -0.174292922 0.166958377
vn 0.867344737 -0.446607262 0.219670147
vn 0.955776989 -0.287246078 0.0630882606
vn 0.902617157 -0.398521334 0.16267468
vn 0.862197936 -0.506571651 0
vn -0 -0.975855172 0.218418851
vn -0 -0.975855172 0.218418732
vn -0 -0.975855172 0.218418732
vn -0 -0.975855172 0.218418479
vn -0 -0.991117477 0.132989064
vn -0 -0.991117477 0.132989064
vn -0 -0.991117477 0.132989064
vn -0 -0.991117477 0.132989064
vn 0.892479897 -0.441365421 0.0931459442
vn 0.849319994 -0.493489504 0.187412605
vn 0.968445241 -0.209273443 0.13534534
vn 0.976719499 -0.184042856 0.110214628
vn 0.977527499 0.179927871 0.109845832
vn 0.968435287 0.207531914 0.138070941
vn 0.952997148 -0.297392994 0.0579119697
vn 0.861462474 -0.507821202 0
vn 0.95088172 0.30460003 0.05516278
vn 0.895946383 0.433732867 0.0956860259
vn 0.846985102 0.49213016 0.201057553
vn 0.861461759 0.507822394 0
vn -0 0.989742041 0.142866418
vn -0 0.989742041 0.142866343
vn -0 0.989742041 0.142866328
vn -0 0.989742041 0.142866239
vn -0 0.985535145 0.169471443
vn -0 0.985535145 0.169471547
vn -0 0.985535145 0.169471547
vn -0 0.985535145 0.169471711
vn 0.747372329 -0.654309869 0.115382597
vn 0.697790861 -0.667041957 0.261042029
vn 0.919345319 -0.325712353 0.220716044
vn 0.944415808 -0.303394169 0.126613036
vn 0.953833163 0.23894012 0.181960985
vn 0.865953624 -0.499402493 0.0268582795
vn 0.714671731 -0.69946003 0
vn 0.967593193 0.216277763 0.130335316
vn 0.855796754 0.482728332 0.185970888
vn 0.953104258 0.300189853 0.0384494811
vn 0.877767682 0.462252289 0.125883937
vn 0.856781125 0.515680194 0
vn 1 0 0
vn 1 0 0
vn 1 0 0
vn 1 0 0
vn 1 1.6650948E-07 0
vn 1 0 0
vn 1 1.26102762E-07 0
vn 1 1.04918092E-06 0
vn 1 2.82060768E-07 0
vn 1 1.7219644E-06 0
vn 1 1.91785148E-07 0
vn 1 0 0
vn 1 -1.31253358E-07 0
vn 1 -3.82025974E-07 0
vn 1 -1.02012075E-06 0
vn 1 0 0
vn 1 0 0
vn 1 -9.96892254E-07 0
vn 1 -1.36025292E-07 0
vn 1 -3.57495196E-07 0
vn 1 0 0
vn 1 5.68400878E-07 0
vn 1 9.51914842E-07 0
vn 1 9.53123799E-06 0
vn 0.174683183 0.626398146 0.759678364
vn 0.39072001 0.604692757 0.694034934
vn 0.344735593 0.285346568 0.894278884
vn 0.184354156 0.295515001 0.937381685
vn 0.318153352 -0.200698361 0.926551998
vn 0.0281729326 0.500124514 0.865495026
vn -3.21240805E-07 0.698972821 0.715148211
vn 0.191478714 -0.202343971 0.96041286
vn 0.0378834419 -0.302574128 0.95237267
vn 0.171984017 -0.452759892 0.874888599
vn 0.334421962 -0.450736761 0.827646255
vn -0 -0.516022205 0.856575191
vn 0.25122121 -0.967929661 0
vn 0.25122118 -0.967929661 0
vn 0.25122115 -0.967929661 0
vn 0.251221061 -0.967929661 0
vn 0.177009404 -0.228425577 0.957334459
vn 0.198909938 -0.491989851 0.847573519
vn 0.115068629 -0.459325343 0.880783439
vn 0.13029784 -0.207926437 0.969427228
vn 0.178720579 0.210658044 0.961083829
vn 0.0399142317 -0.308893293 0.950258791
vn -0 -0.514800489 0.857309997
vn 0.0380119048 0.316007555 0.947994947
vn 0.129255697 0.195230007 0.972202778
vn 0.118882105 0.448738515 0.885720551
vn 0.209654078 0.490864426 0.845634222
vn -0 0.514800906 0.857309759
vn 0.152407452 -0.988317788 0
vn 0.152407438 -0.988317788 0
vn 0.152407408 -0.988317788 0
vn 0.152407423 -0.988317788 0
vn 0.160791814 0.986988306 0
vn 0.16079174 0.986988306 0
vn 0.160791785 0.986988306 0
vn 0.16079165 0.986988306 0
vn 0.104574323 0.483395249 0.869133711
vn 0.192084387 0.503378332 0.842445135
vn 0.191789046 0.244819969 0.950410485
vn 0.120109759 0.222460151 0.967514932
vn 0.0301235504 0.305182427 0.951817334
vn -0 0.518841267 0.854870617
vn 0.0210082531 -0.503786147 0.863572896
vn 0.132870659 -0.314739287 0.939832151
vn 0.243167177 -0.320722193 0.915427208
vn 0.129650682 -0.658499479 0.741329312
vn -3.20280918E-07 -0.701153219 0.713010669
vn 0.290918589 -0.661112726 0.691589713
vn 0.131943509 0.99125731 0
vn 0.131943405 0.99125731 0
vn 0.13194339 0.99125731 0
vn 0.131943256 0.99125731 0
vn 0.271941572 -0.962313712 0
vn 0.271941602 -0.962313712 0
vn 0.0850328431 -0.996378124 0
vn 0.0931505188 -0.99565202 0
vn -0 -1 0
vn -0 -1 0
vn -0 -1 0
vn -0 -1 0
vn 0.397524565 -0.818961322 0.413855553
vn 0.397494078 -0.818453133 0.414888889
vn 0.590373099 -0.490280479 0.641158819
vn 0.593392074 -0.481026679 0.645367444
vn 0.633767962 0.34079659 0.694403231
vn 0.634620905 0.334404618 0.696727991
vn 0.690450907 0.00808544271 0.723334074
vn 0.692715466 0.00750628253 0.721171975
vn 0.610305727 -0.344958305 0.713113368
vn 0.611445725 -0.334505141 0.717105508
vn 0.610342741 0.344957143 0.713082194
vn 0.611482561 0.334511101 0.717071414
vn 0.68903929 0.000912630698 0.724723399
vn 0.692734659 0.000571084965 0.721192241
vn 0.596976578 -0.339547008 0.72686106
vn 0.598407686 -0.326355308 0.731710553
vn 0.557273149 0.491804034 0.669010878
vn 0.563399851 0.471707284 0.678286612
vn 0.399868131 0.814718485 0.419927746
vn 0.401276976 0.815140367 0.417759567
vn -0 1 0
g WallCorner_0
f 3/3/3 2/2/2 1/1/1
f 3/3/3 4/4/4 2/2/2
f 5/5/5 2/2/2 4/4/4
f 5/5/5 4/4/4 6/6/6
f 5/5/5 6/6/6 7/7/7
f 5/5/5 7/7/7 8/8/8
f 11/11/11 10/10/10 9/9/9
f 11/11/11 12/12/12 10/10/10
f 11/11/11 13/13/13 12/12/12
f 11/11/11 14/14/14 13/13/13
f 14/14/14 15/15/15 13/13/13
f 14/14/14 16/16/16 15/15/15
f 19/19/19 18/18/18 17/17/17
f 19/19/19 17/17/17 20/20/20
f 17/17/17 21/21/21 20/20/20
f 17/17/17 22/22/22 21/21/21
f 22/22/22 23/23/23 21/21/21
f 22/22/22 24/24/24 23/23/23
f 27/27/27 26/26/26 25/25/25
f 27/27/27 25/25/25 28/28/28
f 29/29/29 27/27/27 28/28/28
f 29/29/29 28/28/28 30/30/30
f 31/31/31 29/29/29 30/30/30
f 31/31/31 32/32/32 29/29/29
f 35/35/35 34/34/34 33/33/33
f 35/35/35 36/36/36 34/34/34
f 37/37/37 34/34/34 36/36/36
f 35/35/35 38/38/38 36/36/36
f 35/35/35 39/39/39 38/38/38
f 36/36/36 38/38/38 40/40/40
f 37/37/37 36/36/36 41/41/41
f 36/36/36 40/40/40 41/41/41
f 37/37/37 41/41/41 42/42/42
f 40/40/40 42/42/42 41/41/41
f 37/37/37 42/42/42 43/43/43
f 40/40/40 44/44/44 42/42/42
f 47/47/47 46/46/46 45/45/45
f 47/47/47 48/48/48 46/46/46
f 48/48/48 49/49/49 46/46/46
f 48/48/48 50/50/50 49/49/49
f 51/51/51 48/48/48 47/47/47
f 52/52/52 50/50/50 48/48/48
f 51/51/51 52/52/52 48/48/48
f 52/52/52 53/53/53 50/50/50
f 51/51/51 54/54/54 52/52/52
f 54/54/54 53/53/53 52/52/52
f 51/51/51 55/55/55 54/54/54
f 54/54/54 56/56/56 53/53/53
f 59/59/59 58/58/58 57/57/57
f 59/59/59 57/57/57 60/60/60
f 60/60/60 61/61/61 59/59/59
f 60/60/60 62/62/62 61/61/61
f 63/63/63 60/60/60 57/57/57
f 64/64/64 62/62/62 60/60/60
f 63/63/63 64/64/64 60/60/60
f 64/64/64 65/65/65 62/62/62
f 66/66/66 64/64/64 63/63/63
f 66/66/66 65/65/65 64/64/64
f 66/66/66 63/63/63 67/67/67
f 66/66/66 68/68/68 65/65/65
f 71/71/71 70/70/70 69/69/69
f 71/71/71 69/69/69 72/72/72
f 73/73/73 71/71/71 72/72/72
f 69/69/69 74/74/74 72/72/72
f 69/69/69 75/75/75 74/74/74
f 72/72/72 74/74/74 76/76/76
f 73/73/73 72/72/72 77/77/77
f 72/72/72 76/76/76 77/77/77
f 78/78/78 73/73/73 77/77/77
f 76/76/76 78/78/78 77/77/77
f 78/78/78 79/79/79 73/73/73
f 76/76/76 80/80/80 78/78/78
f 83/83/83 82/82/82 81/81/81
f 81/81/81 82/82/82 84/84/84
f 84/84/84 82/82/82 85/85/85
f 84/84/84 85/85/85 86/86/86
f 87/87/87 84/84/84 86/86/86
f 87/87/87 88/88/88 84/84/84
f 89/89/89 88/88/88 87/87/87
f 89/89/89 90/90/90 88/88/88
f 91/91/91 90/90/90 89/89/89
f 91/91/91 89/89/89 92/92/92
f 93/93/93 91/91/91 92/92/92
f 93/93/93 94/94/94 91/91/91
f 95/95/95 94/94/94 93/93/93
f 95/95/95 96/96/96 94/94/94
f 95/95/95 97/97/97 96/96/96
f 95/95/95 98/98/98 97/97/97
f 99/99/99 98/98/98 95/95/95
f 100/100/100 98/98/98 99/99/99
f 103/103/103 102/102/102 101/101/101
f 103/103/103 101/101/101 104/104/104
f 105/105/105 103/103/103 104/104/104
f 105/105/105 104/104/104 106/106/106
f 107/107/107 105/105/105 106/106/106
f 107/107/107 108/108/108 105/105/105
f 111/111/111 110/110/110 109/109/109
f 109/109/109 110/110/110 112/112/112
f 112/112/112 110/110/110 113/113/113
f 112/112/112 113/113/113 114/114/114
f 115/115/115 112/112/112 114/114/114
f 115/115/115 116/116/116 112/112/112
f 117/117/117 116/116/116 115/115/115
f 117/117/117 118/118/118 116/116/116
f 119/119/119 118/118/118 117/117/117
f 119/119/119 117/117/117 120/120/120
f 121/121/121 119/119/119 120/120/120
f 121/121/121 122/122/122 119/119/119
f 123/123/123 122/122/122 121/121/121
f 123/123/123 124/124/124 122/122/122
f 123/123/123 125/125/125 124/124/124
f 123/123/123 126/126/126 125/125/125
f 127/127/127 126/126/126 123/123/123
f 128/128/128 126/126/126 127/127/127
f 131/131/131 130/130/130 129/129/129
f 131/131/131 129/129/129 132/132/132
f 133/133/133 131/131/131 132/132/132
f 129/129/129 134/134/134 132/132/132
f 129/129/129 135/135/135 134/134/134
f 134/134/134 136/136/136 132/132/132
f 133/133/133 132/132/132 136/136/136
f 134/134/134 137/137/137 136/136/136
f 133/133/133 136/136/136 138/138/138
f 137/137/137 138/138/138 136/136/136
f 133/133/133 138/138/138 139/139/139
f 137/137/137 140/140/140 138/138/138
f 143/143/143 142/142/142 141/141/141
f 143/143/143 144/144/144 142/142/142
f 145/145/145 142/142/142 144/144/144
f 145/145/145 144/144/144 146/146/146
f 145/145/145 146/146/146 147/147/147
f 145/145/145 147/147/147 148/148/148
f 151/151/151 150/150/150 149/149/149
f 151/151/151 152/152/152 150/150/150
f 151/151/151 153/153/153 152/152/152
f 151/151/151 154/154/154 153/153/153
f 155/155/155 153/153/153 154/154/154
f 155/155/155 154/154/154 156/156/156
f 159/159/159 158/158/158 157/157/157
f 159/159/159 157/157/157 160/160/160
f 157/157/157 161/161/161 160/160/160
f 157/157/157 162/162/162 161/161/161
f 162/162/162 163/163/163 161/161/161
f 162/162/162 164/164/164 163/163/163
f 167/167/167 166/166/166 165/165/165
f 167/167/167 165/165/165 168/168/168
f 169/169/169 167/167/167 168/168/168
f 169/169/169 168/168/168 170/170/170
f 169/169/169 170/170/170 171/171/171
f 169/169/169 171/171/171 172/172/172
f 175/175/175 174/174/174 173/173/173
f 175/175/175 173/173/173 176/176/176
f 173/173/173 177/177/177 176/176/176
f 173/173/173 178/178/178 177/177/177
f 177/177/177 178/178/178 179/179/179
f 177/177/177 179/179/179 180/180/180
f 183/183/183 182/182/182 181/181/181
f 183/183/183 184/184/184 182/182/182
f 183/183/183 185/185/185 184/184/184
f 183/183/183 186/186/186 185/185/185
f 187/187/187 186/186/186 183/183/183
f 188/188/188 186/186/186 187/187/187
f 191/191/191 190/190/190 189/189/189
f 191/191/191 192/192/192 190/190/190
f 193/193/193 190/190/190 192/192/192
f 193/193/193 192/192/192 194/194/194
f 197/197/197 196/196/196 195/195/195
f 197/197/197 195/195/195 198/198/198
f 195/195/195 199/199/199 198/198/198
f 195/195/195 200/200/200 199/199/199
f 203/203/203 202/202/202 201/201/201
f 203/203/203 204/204/204 202/202/202
f 205/205/205 202/202/202 204/204/204
f 205/205/205 204/204/204 206/206/206
f 209/209/209 208/208/208 207/207/207
f 209/209/209 207/207/207 210/210/210
f 207/207/207 211/211/211 210/210/210
f 207/207/207 212/212/212 211/211/211
f 215/215/215 214/214/214 213/213/213
f 215/215/215 216/216/216 214/214/214
f 217/217/217 214/214/214 216/216/216
f 215/215/215 218/218/218 216/216/216
f 215/215/215 219/219/219 218/218/218
f 218/218/218 220/220/220 216/216/216
f 217/217/217 216/216/216 220/220/220
f 218/218/218 221/221/221 220/220/220
f 222/222/222 217/217/217 220/220/220
f 221/221/221 222/222/222 220/220/220
f 222/222/222 223/223/223 217/217/217
f 221/221/221 224/224/224 222/222/222
f 227/227/227 226/226/226 225/225/225
f 227/227/227 228/228/228 226/226/226
f 231/231/231 230/230/230 229/229/229
f 231/231/231 232/232/232 230/230/230
f 235/235/235 234/234/234 233/233/233
f 235/235/235 236/236/236 234/234/234
f 239/239/239 238/238/238 237/237/237
f 239/239/239 240/240/240 238/238/238
f 243/243/243 242/242/242 241/241/241
f 243/243/243 241/241/241 244/244/244
f 245/245/245 243/243/243 244/244/244
f 245/245/245 246/246/246 243/243/243
f 245/245/245 247/247/247 246/246/246
f 245/245/245 248/248/248 247/247/247
f 247/247/247 248/248/248 249/249/249
f 248/248/248 250/250/250 249/249/249
f 248/248/248 251/251/251 250/250/250
f 254/254/254 253/253/253 252/252/252
f 254/254/254 252/252/252 255/255/255
f 254/254/254 255/255/255 256/256/256
f 254/254/254 256/256/256 257/257/257
f 258/258/258 257/257/257 256/256/256
f 258/258/258 259/259/259 257/257/257
f 257/257/257 259/259/259 260/260/260
f 259/259/259 261/261/261 260/260/260
f 259/259/259 262/262/262 261/261/261
f 265/265/265 264/264/264 263/263/263
f 266/266/266 264/264/264 265/265/265
f 267/267/267 264/264/264 266/266/266
f 267/267/267 268/268/268 264/264/264
f 267/267/267 269/269/269 268/268/268
f 272/272/272 271/271/271 270/270/270
f 272/272/272 273/273/273 271/271/271
f 276/276/276 275/275/275 274/274/274
f 276/276/276 277/277/277 275/275/275
f 280/280/280 279/279/279 278/278/278
f 280/280/280 278/278/278 281/281/281
f 281/281/281 278/278/278 282/282/282
f 283/283/283 280/280/280 281/281/281
f 283/283/283 284/284/284 280/280/280
f 281/281/281 282/282/282 285/285/285
f 283/283/283 281/281/281 285/285/285
f 285/285/285 282/282/282 286/286/286
f 283/283/283 285/285/285 287/287/287
f 285/285/285 286/286/286 288/288/288
f 288/288/288 287/287/287 285/285/285
f 288/288/288 289/289/289 287/287/287
f 292/292/292 291/291/291 290/290/290
f 292/292/292 293/293/293 291/291/291
f 296/296/296 295/295/295 294/294/294
f 296/296/296 297/297/297 295/295/295
f 300/300/300 299/299/299 298/298/298
f 300/300/300 298/298/298 301/301/301
f 302/302/302 300/300/300 301/301/301
f 302/302/302 303/303/303 300/300/300
f 298/298/298 304/304/304 301/301/301
f 304/304/304 302/302/302 301/301/301
f 298/298/298 305/305/305 304/304/304
f 304/304/304 306/306/306 302/302/302
f 307/307/307 303/303/303 302/302/302
f 306/306/306 307/307/307 302/302/302
f 307/307/307 308/308/308 303/303/303
f 306/306/306 309/309/309 307/307/307
f 312/312/312 311/311/311 310/310/310
f 312/312/312 313/313/313 311/311/311
f 316/316/316 315/315/315 314/314/314
f 316/316/316 317/317/317 315/315/315
f 320/320/320 319/319/319 318/318/318
f 320/320/320 318/318/318 321/321/321
f 322/322/322 320/320/320 321/321/321
f 318/318/318 323/323/323 321/321/321
f 318/318/318 324/324/324 323/323/323
f 322/322/322 321/321/321 325/325/325
f 323/323/323 325/325/325 321/321/321
f 326/326/326 322/322/322 325/325/325
f 323/323/323 327/327/327 325/325/325
f 326/326/326 325/325/325 328/328/328
f 327/327/327 328/328/328 325/325/325
f 327/327/327 329/329/329 328/328/328
f 332/332/332 331/331/331 330/330/330
f 332/332/332 330/330/330 333/333/333
f 334/334/334 332/332/332 333/333/333
f 334/334/334 333/333/333 335/335/335
f 336/336/336 334/334/334 335/335/335
f 336/336/336 337/337/337 334/334/334
f 340/340/340 339/339/339 338/338/338
f 340/340/340 338/338/338 341/341/341
f 338/338/338 342/342/342 341/341/341
f 338/338/338 343/343/343 342/342/342
f 342/342/342 343/343/343 344/344/344
f 342/342/342 344/344/344 345/345/345
f 348/348/348 347/347/347 346/346/346
f 348/348/348 349/349/349 347/347/347
f 348/348/348 350/350/350 349/349/349
f 348/348/348 351/351/351 350/350/350
f 352/352/352 351/351/351 348/348/348
f 353/353/353 351/351/351 352/352/352
f 356/356/356 355/355/355 354/354/354
f 356/356/356 354/354/354 357/357/357
f 358/358/358 356/356/356 357/357/357
f 359/359/359 357/357/357 354/354/354
f 359/359/359 354/354/354 360/360/360
f 359/359/359 361/361/361 357/357/357
f 358/358/358 357/357/357 361/361/361
f 359/359/359 362/362/362 361/361/361
f 363/363/363 358/358/358 361/361/361
f 363/363/363 361/361/361 362/362/362
f 363/363/363 364/364/364 358/358/358
f 363/363/363 362/362/362 365/365/365
f 368/368/368 367/367/367 366/366/366
f 368/368/368 369/369/369 367/367/367
f 372/372/372 371/371/371 370/370/370
f 372/372/372 370/370/370 373/373/373
f 373/373/373 370/370/370 374/374/374
f 372/372/372 373/373/373 375/375/375
f 372/372/372 375/375/375 376/376/376
f 377/377/377 375/375/375 373/373/373
f 373/373/373 374/374/374 378/378/378
f 377/377/377 373/373/373 378/378/378
f 374/374/374 379/379/379 378/378/378
f 377/377/377 378/378/378 379/379/379
f 374/374/374 380/380/380 379/379/379
f 377/377/377 379/379/379 381/381/381
f 384/384/384 383/383/383 382/382/382
f 384/384/384 385/385/385 383/383/383
f 388/388/388 387/387/387 386/386/386
f 388/388/388 389/389/389 387/387/387
f 392/392/392 391/391/391 390/390/390
f 392/392/392 390/390/390 393/393/393
f 394/394/394 393/393/393 390/390/390
f 394/394/394 390/390/390 395/395/395
f 396/396/396 393/393/393 394/394/394
f 397/397/397 392/392/392 393/393/393
f 396/396/396 397/397/397 393/393/393
f 397/397/397 398/398/398 392/392/392
f 399/399/399 397/397/397 396/396/396
f 399/399/399 398/398/398 397/397/397
f 399/399/399 396/396/396 400/400/400
f 399/399/399 401/401/401 398/398/398
f 404/404/404 403/403/403 402/402/402
f 404/404/404 405/405/405 403/403/403
f 408/408/408 407/407/407 406/406/406
f 408/408/408 406/406/406 409/409/409
f 408/408/408 409/409/409 410/410/410
f 408/408/408 410/410/410 411/411/411
f 411/411/411 410/410/410 412/412/412
f 415/415/415 414/414/414 413/413/413
f 415/415/415 416/416/416 414/414/414
f 415/415/415 417/417/417 416/416/416
f 418/418/418 416/416/416 417/417/417
f 418/418/418 417/417/417 419/419/419
f 418/418/418 419/419/419 420/420/420
f 418/418/418 420/420/420 421/421/421
f 422/422/422 421/421/421 420/420/420
f 422/422/422 420/420/420 423/423/423
f 423/423/423 424/424/424 422/422/422
f 423/423/423 425/425/425 424/424/424
f 424/424/424 425/425/425 426/426/426
f 424/424/424 426/426/426 427/427/427
f 428/428/428 427/427/427 426/426/426
f 428/428/428 426/426/426 429/429/429
f 429/429/429 430/430/430 428/428/428
f 429/429/429 431/431/431 430/430/430
f 430/430/430 431/431/431 432/432/432
f 430/430/430 432/432/432 433/433/433
f 433/433/433 432/432/432 434/434/434
