g P_Bend_Vert1
v 0.0741218776 -0.322038949 0.0741423815
v 0.0405388549 -0.35562256 0.0741439238
v 0.0741218776 -0.355622679 0.0405593477
v 0.0405386575 -0.207378387 0.0741420835
v 0.0741218776 -0.240961432 0.0741426572
v 0.074122265 -0.207378209 0.0405587666
v -0.0741229504 -0.240961641 0.0741415024
v -0.0405383669 -0.207378671 0.0741415024
v -0.0741221681 -0.207378179 0.0405587666
v -0.0405373983 -0.355622768 0.0741439238
v -0.0741225556 -0.322038949 0.0741420761
v -0.0741221681 -0.355622709 0.0405588523
v -0.0741219744 -0.322038859 -0.0741019696
v -0.0405393392 -0.355622619 -0.0741028413
v -0.0741221681 -0.355622888 -0.0405171961
v -0.0405383669 -0.207378075 -0.0741019696
v -0.0741219744 -0.240961716 -0.0741019696
v -0.0741221681 -0.207378179 -0.0405184552
v 0.074122265 -0.240961894 -0.0741019696
v 0.0405386575 -0.207378075 -0.0741019696
v 0.074122265 -0.207378313 -0.0405183583
v 0.0405382738 -0.355622679 -0.0741017759
v 0.074122265 -0.322038949 -0.0741019696
v 0.074122265 -0.355622619 -0.0405183583
v 0.0490130708 -0.388270676 0.499999315
v 0.0490132794 -0.388295233 0.218749061
v -0.0490127541 -0.388295442 0.218748376
v -0.049012959 -0.388270855 0.499998629
v -0.107020073 -0.330287457 0.218748361
v -0.107020594 -0.33026287 0.499998659
v 0.107020698 -0.330262989 0.499999315
v 0.107020907 -0.330287576 0.218749046
v 0.0490132794 -0.388295233 0.218749061
v 0.0490130708 -0.388270676 0.499999315
v 0.10702087 -0.232236564 0.499998629
v 0.107021078 -0.232261151 0.218748376
v 0.107020907 -0.330287576 0.218749046
v 0.107020698 -0.330262989 0.499999315
v 0.0490134023 -0.174228802 0.499997973
v 0.107021078 -0.232261151 0.218748376
v 0.10702087 -0.232236564 0.499998629
v 0.0490136035 -0.174253419 0.21874769
v -0.0490131192 -0.174228802 0.499998659
v -0.0490129218 -0.174253419 0.218748376
v -0.107020594 -0.232236966 0.499998659
v -0.107020073 -0.232261583 0.218748361
v -0.107020594 -0.33026287 0.499998659
v -0.107020073 -0.330287457 0.218748361
v -0.107020073 -0.232261583 0.218748361
v -0.107020594 -0.232236966 0.499998659
v -0.0801070556 -0.317936987 0.499998659
v -0.0801633745 -0.317985803 0.218748361
v -0.0367134102 -0.361434311 0.218748361
v -0.0366875492 -0.361357123 0.499998659
v 0.0367135517 -0.361434132 0.218748361
v 0.0366875082 -0.361356795 0.499998629
v 0.0801640078 -0.317985862 0.218748376
v 0.0801074952 -0.317937076 0.499998659
v -0.0801067203 -0.244562596 0.499999344
v -0.0801630393 -0.244562998 0.218749046
v -0.0801633745 -0.317985803 0.218748361
v -0.0801070556 -0.317936987 0.499998659
v -0.0366872214 -0.201142788 0.499999344
v -0.0801630393 -0.244562998 0.218749046
v -0.0801067203 -0.244562596 0.499999344
v -0.0367130674 -0.20111458 0.218749046
v 0.036687009 -0.201142952 0.499998659
v 0.0367130563 -0.201114759 0.218748376
v 0.0801074952 -0.244562671 0.499997973
v 0.0801640078 -0.244563058 0.21874769
v 0.0801074952 -0.317937076 0.499998659
v 0.0801640078 -0.317985862 0.218748376
v 0.0801640078 -0.244563058 0.21874769
v 0.0801074952 -0.244562671 0.499997973
v -0.105187722 -0.393428475 0.0712321848
v -0.105187722 -0.393428475 -0.0712182298
v -0.111350909 -0.386674613 -0.0712182298
v -0.111350909 -0.386674762 0.0712319911
v -0.071225062 -0.393428475 -0.105180547
v 0.0712249652 -0.393428534 -0.105180591
v 0.0712241903 -0.386674762 -0.11091309
v -0.0712258369 -0.386674762 -0.11091309
v 0.105187424 -0.393428475 -0.0712182298
v 0.105187424 -0.393428475 0.0712321848
v 0.111350611 -0.386674523 0.0712319911
v 0.111350611 -0.386674613 -0.0712182298
v 0.0712249652 -0.393428475 0.105194449
v -0.071225062 -0.393428475 0.105194449
v -0.0712254494 -0.386674523 0.111808181
v 0.0712247714 -0.386674523 0.111808181
v -0.071225062 -0.170420066 0.105194263
v 0.0712249652 -0.170420066 0.105194263
v 0.0712247714 -0.176299542 0.111808181
v -0.0712252557 -0.176299602 0.111808091
v 0.10518723 -0.17042014 0.0712319836
v 0.10518723 -0.17042011 -0.0712182298
v 0.111350037 -0.176299706 -0.0712182298
v 0.111350037 -0.176299706 0.0712319836
v 0.0712249652 -0.17042011 -0.105180688
v -0.071225062 -0.17042011 -0.105180688
v -0.0712258369 -0.176299706 -0.11091309
v 0.0712241903 -0.176299706 -0.11091309
v -0.105187722 -0.17042011 -0.0712182298
v -0.105187722 -0.17042011 0.0712319836
v -0.111350909 -0.176299706 0.0712319836
v -0.111350909 -0.176299706 -0.0712183267
v 0.111350611 -0.21026212 0.105194263
v 0.111350611 -0.352712125 0.105194263
v 0.105187029 -0.352712095 0.111808181
v 0.105187029 -0.21026206 0.111808181
v -0.111350909 -0.352712244 0.105194263
v -0.111350909 -0.210262179 0.105194248
v -0.105188102 -0.21026206 0.111808181
v -0.105188102 -0.352712095 0.111808181
v 0.111350611 -0.352712125 -0.105180688
v 0.111350611 -0.210262105 -0.105180688
v 0.105186649 -0.210262254 -0.110913001
v 0.105186649 -0.352712244 -0.11091309
v -0.111350909 -0.210262179 -0.105180643
v -0.111350909 -0.352712244 -0.105180643
v -0.105188489 -0.352712244 -0.11091309
v -0.105188489 -0.210262179 -0.11091309
v 0.074122265 -0.240961894 -0.0741019696
v -0.0405383669 -0.207378075 -0.0741019696
v 0.0405386575 -0.207378075 -0.0741019696
v -0.0741219744 -0.240961716 -0.0741019696
v -0.0741219744 -0.322038859 -0.0741019696
v 0.074122265 -0.322038949 -0.0741019696
v 0.0405382738 -0.355622679 -0.0741017759
v -0.0405393392 -0.355622619 -0.0741028413
v -0.071225062 -0.393428475 -0.105180547
v 0.0712249652 -0.424978554 -0.105186597
v 0.0712249652 -0.393428534 -0.105180591
v -0.0712248608 -0.424978554 -0.105186597
v -0.105187722 -0.393428475 -0.0712182298
v -0.10518752 -0.424978554 -0.0712243319
v -0.105187722 -0.393428475 0.0712321848
v -0.10518752 -0.424978554 0.0712259859
v -0.0712248608 -0.424978554 0.105188347
v -0.071225062 -0.393428475 0.105194449
v 0.0712249652 -0.393428475 0.105194449
v 0.0712249652 -0.424978554 0.105188347
v 0.105187424 -0.393428475 0.0712321848
v 0.105187424 -0.424978554 0.0712259859
v 0.105187424 -0.393428475 -0.0712182298
v 0.105187424 -0.424978554 -0.0712243319
v 0.0712249652 -0.393428534 -0.105180591
v 0.0712249652 -0.424978554 -0.105186597
v -0.0594315939 -0.431596905 -0.119561933
v 0.0589336567 -0.51154989 -0.118560098
v 0.0594316907 -0.431596905 -0.119561933
v -0.0589339547 -0.51154989 -0.118560098
v -0.119562611 -0.431596905 -0.0594309606
v -0.11856132 -0.51154989 -0.0589327402
v -0.119562611 -0.431596905 0.0594327152
v -0.11856132 -0.51154989 0.0589348786
v -0.0594315939 -0.431596905 0.119563729
v -0.0589339547 -0.51154989 0.118562236
v 0.0594316907 -0.431596905 0.119563729
v 0.0589336567 -0.51154989 0.118562236
v 0.119562909 -0.431596905 0.0594327152
v 0.118560828 -0.51154989 0.0589348786
v 0.119562909 -0.431596905 -0.0594309606
v 0.118560828 -0.51154989 -0.0589327402
v 0.0594316907 -0.431596905 -0.119561933
v 0.0589336567 -0.51154989 -0.118560098
v 0.0926988423 -0.510012329 -0.0506779104
v 0.0741218776 -0.355622679 0.0405593477
v 0.0926988423 -0.510012329 0.0506799482
v 0.074122265 -0.355622619 -0.0405183583
v 0.0506785437 -0.510012329 -0.0926981717
v 0.0405382738 -0.355622679 -0.0741017759
v -0.0506792255 -0.510012329 -0.0926981717
v -0.0405393392 -0.355622619 -0.0741028413
v -0.092699334 -0.510012329 -0.0506778136
v -0.0741221681 -0.355622888 -0.0405171961
v -0.092699334 -0.510012329 0.0506799482
v -0.0741221681 -0.355622709 0.0405588523
v -0.0506792255 -0.510012329 0.0927002504
v -0.0405373983 -0.355622768 0.0741439238
v 0.0506785437 -0.510012329 0.0927002504
v 0.0405388549 -0.35562256 0.0741439238
v 0.0926988423 -0.510012329 0.0506799482
v 0.0741218776 -0.355622679 0.0405593477
v -0.105188102 -0.21026206 0.111808181
v -0.105189845 -0.352706075 0.144075498
v -0.105188102 -0.352712095 0.111808181
v -0.105189845 -0.21025604 0.144075498
v -0.0712252557 -0.176299602 0.111808091
v -0.0712271929 -0.176293567 0.144075498
v 0.0712247714 -0.176299542 0.111808181
v 0.0712228343 -0.176293567 0.144075498
v 0.1051853 -0.21025604 0.144075498
v 0.105187029 -0.21026206 0.111808181
v 0.105187029 -0.352712095 0.111808181
v 0.1051853 -0.352706075 0.144075498
v 0.0712247714 -0.386674523 0.111808181
v 0.0712228343 -0.386668533 0.144075498
v -0.0712254494 -0.386674523 0.111808181
v -0.0712271929 -0.386668533 0.144075498
v -0.105188102 -0.352712095 0.111808181
v -0.105189845 -0.352706075 0.144075498
v -0.119564928 -0.222049326 0.150781214
v -0.11856325 -0.340414524 0.229996696
v -0.119564928 -0.340912819 0.150781214
v -0.11856325 -0.222546875 0.229996711
v -0.0594339184 -0.161918297 0.150781199
v -0.0589358881 -0.162919581 0.229996711
v 0.0594295599 -0.161918297 0.150781199
v 0.0589319132 -0.162919581 0.229996711
v 0.119560584 -0.222049326 0.150781214
v 0.118559092 -0.222546875 0.229996711
v 0.119560584 -0.340912819 0.150781214
v 0.118559092 -0.340414524 0.229996696
v 0.0594295599 -0.401043922 0.150781214
v 0.0589319132 -0.400041878 0.229996711
v -0.0594339184 -0.401043922 0.150781214
v -0.0589358881 -0.400041878 0.229996711
v -0.119564928 -0.340912819 0.150781214
v -0.11856325 -0.340414524 0.229996696
v -0.0506809652 -0.37417984 0.228531197
v 0.0405388549 -0.35562256 0.0741439238
v 0.050676804 -0.37417984 0.228531197
v -0.0405373983 -0.355622768 0.0741439238
v -0.0927012637 -0.332159489 0.228531197
v -0.0741225556 -0.322038949 0.0741420761
v -0.0927012637 -0.230801761 0.228531182
v -0.0741229504 -0.240961641 0.0741415024
v -0.0506807715 -0.1887815 0.228531197
v -0.0405383669 -0.207378671 0.0741415024
v 0.050676804 -0.1887815 0.228531197
v 0.0405386575 -0.207378387 0.0741420835
v 0.0926971063 -0.230801806 0.228531197
v 0.0741218776 -0.240961432 0.0741426572
v 0.0926971063 -0.332159489 0.228531197
v 0.0741218776 -0.322038949 0.0741423815
v 0.050676804 -0.37417984 0.228531197
v 0.0405388549 -0.35562256 0.0741439238
v 0.074122265 -0.207378209 0.0405587666
v -0.0405383669 -0.207378671 0.0741415024
v 0.0405386575 -0.207378387 0.0741420835
v -0.0741221681 -0.207378179 0.0405587666
v -0.0741221681 -0.207378179 -0.0405184552
v 0.074122265 -0.207378313 -0.0405183583
v 0.0405386575 -0.207378075 -0.0741019696
v -0.0405383669 -0.207378075 -0.0741019696
v 0.0741218776 -0.355622679 0.0405593477
v 0.0741218776 -0.240961432 0.0741426572
v 0.0741218776 -0.322038949 0.0741423815
v 0.074122265 -0.207378209 0.0405587666
v 0.074122265 -0.207378313 -0.0405183583
v 0.074122265 -0.355622619 -0.0405183583
v 0.074122265 -0.322038949 -0.0741019696
v 0.074122265 -0.240961894 -0.0741019696
v -0.0741221681 -0.355622888 -0.0405171961
v -0.0741219744 -0.240961716 -0.0741019696
v -0.0741219744 -0.322038859 -0.0741019696
v -0.0741221681 -0.207378179 -0.0405184552
v -0.0741221681 -0.207378179 0.0405587666
v -0.0741221681 -0.355622709 0.0405588523
v -0.0741225556 -0.322038949 0.0741420761
v -0.0741229504 -0.240961641 0.0741415024
v -0.111350909 -0.386674613 -0.0712182298
v -0.118583791 -0.328756392 0.0472759791
v -0.111350909 -0.386674762 0.0712319911
v -0.111350909 -0.352712244 0.105194263
v -0.118583791 -0.328756362 -0.0472623259
v -0.111350909 -0.352712244 -0.105180643
v -0.111350909 -0.210262179 -0.105180643
v -0.118583791 -0.234218016 0.0472759902
v -0.111350909 -0.210262179 0.105194248
v -0.111350909 -0.176299706 0.0712319836
v -0.118583791 -0.234218016 -0.0472623296
v -0.111350909 -0.176299706 -0.0712183267
v 0.111350611 -0.386674523 0.0712319911
v 0.118583888 -0.328756094 -0.0472623259
v 0.111350611 -0.386674613 -0.0712182298
v 0.111350611 -0.352712125 -0.105180688
v 0.118583694 -0.328756094 0.0472759791
v 0.111350611 -0.352712125 0.105194263
v 0.111350611 -0.21026212 0.105194263
v 0.118583888 -0.234217852 -0.0472623296
v 0.111350611 -0.210262105 -0.105180688
v 0.111350037 -0.176299706 -0.0712182298
v 0.118583694 -0.234217852 0.0472759902
v 0.111350037 -0.176299706 0.0712319836
v 0.10518723 -0.17042014 0.0712319836
v 0.0472690612 -0.163177103 -0.0472623296
v 0.10518723 -0.17042011 -0.0712182298
v 0.0712249652 -0.17042011 -0.105180688
v 0.0472690612 -0.163177118 0.0472759902
v 0.0712249652 -0.170420066 0.105194263
v -0.071225062 -0.170420066 0.105194263
v -0.0472693518 -0.163177103 -0.0472623296
v -0.071225062 -0.17042011 -0.105180688
v -0.105187722 -0.17042011 -0.0712182298
v -0.0472693518 -0.163177118 0.0472759902
v -0.105187722 -0.17042011 0.0712319836
v 0.105186649 -0.210262254 -0.110913001
v 0.0472690612 -0.328756273 -0.118146762
v 0.105186649 -0.352712244 -0.11091309
v 0.0712241903 -0.386674762 -0.11091309
v 0.0472690612 -0.234217957 -0.118146665
v 0.0712241903 -0.176299706 -0.11091309
v -0.0712258369 -0.176299706 -0.11091309
v -0.0472693518 -0.328756273 -0.118146762
v -0.0712258369 -0.386674762 -0.11091309
v -0.105188489 -0.352712244 -0.11091309
v -0.0472693518 -0.234217986 -0.118146665
v -0.105188489 -0.210262179 -0.11091309
v -0.111350909 -0.176299706 -0.0712183267
v -0.111350909 -0.210262179 -0.105180643
v -0.0963729471 -0.185114205 -0.0963661522
v -0.105187722 -0.17042011 -0.0712182298
v -0.105188489 -0.210262179 -0.11091309
v -0.071225062 -0.17042011 -0.105180688
v -0.0712258369 -0.176299706 -0.11091309
v 0.0963728502 -0.185114205 -0.0963661522
v 0.111350037 -0.176299706 -0.0712182298
v 0.10518723 -0.17042011 -0.0712182298
v 0.111350611 -0.210262105 -0.105180688
v 0.0712249652 -0.17042011 -0.105180688
v 0.105186649 -0.210262254 -0.110913001
v 0.0712241903 -0.176299706 -0.11091309
v -0.0712252557 -0.176299602 0.111808091
v -0.0963729471 -0.185114205 0.0963797644
v -0.071225062 -0.170420066 0.105194263
v -0.105188102 -0.21026206 0.111808181
v -0.105187722 -0.17042011 0.0712319836
v -0.111350909 -0.210262179 0.105194248
v -0.111350909 -0.176299706 0.0712319836
v -0.105188102 -0.352712095 0.111808181
v -0.0963729471 -0.377860099 0.0963797718
v -0.111350909 -0.352712244 0.105194263
v -0.0712254494 -0.386674523 0.111808181
v -0.111350909 -0.386674762 0.0712319911
v -0.071225062 -0.393428475 0.105194449
v -0.105187722 -0.393428475 0.0712321848
v 0.0963728502 -0.185114205 0.0963797644
v 0.0712247714 -0.176299542 0.111808181
v 0.0712249652 -0.170420066 0.105194263
v 0.105187029 -0.21026206 0.111808181
v 0.10518723 -0.17042014 0.0712319836
v 0.111350611 -0.21026212 0.105194263
v 0.111350037 -0.176299706 0.0712319836
v 0.0712247714 -0.386674523 0.111808181
v 0.105187029 -0.352712095 0.111808181
v 0.0963728502 -0.377860099 0.0963797718
v 0.0712249652 -0.393428475 0.105194449
v 0.111350611 -0.352712125 0.105194263
v 0.105187424 -0.393428475 0.0712321848
v 0.111350611 -0.386674523 0.0712319911
v 0.0963728502 -0.377860099 -0.0963661522
v 0.0712249652 -0.393428534 -0.105180591
v 0.105187424 -0.393428475 -0.0712182298
v 0.111350611 -0.386674613 -0.0712182298
v 0.0712241903 -0.386674762 -0.11091309
v 0.111350611 -0.352712125 -0.105180688
v 0.105186649 -0.352712244 -0.11091309
v -0.105187722 -0.393428475 -0.0712182298
v -0.071225062 -0.393428475 -0.105180547
v -0.0963729471 -0.377860099 -0.0963661522
v -0.111350909 -0.386674613 -0.0712182298
v -0.0712258369 -0.386674762 -0.11091309
v -0.111350909 -0.352712244 -0.105180643
v -0.105188489 -0.352712244 -0.11091309
v -0.11856325 -0.222546875 0.229996711
v -0.0927012637 -0.332159489 0.228531197
v -0.11856325 -0.340414524 0.229996696
v -0.0927012637 -0.230801761 0.228531182
v -0.0506809652 -0.37417984 0.228531197
v -0.0589358881 -0.162919581 0.229996711
v -0.0589358881 -0.400041878 0.229996711
v -0.0506807715 -0.1887815 0.228531197
v 0.050676804 -0.37417984 0.228531197
v 0.0589319132 -0.162919581 0.229996711
v 0.0589319132 -0.400041878 0.229996711
v 0.050676804 -0.1887815 0.228531197
v 0.0926971063 -0.332159489 0.228531197
v 0.118559092 -0.222546875 0.229996711
v 0.118559092 -0.340414524 0.229996696
v 0.0926971063 -0.230801806 0.228531197
v -0.105189845 -0.21025604 0.144075498
v -0.119564928 -0.340912819 0.150781214
v -0.105189845 -0.352706075 0.144075498
v -0.119564928 -0.222049326 0.150781214
v -0.0594339184 -0.401043922 0.150781214
v -0.0712271929 -0.176293567 0.144075498
v -0.0712271929 -0.386668533 0.144075498
v -0.0594339184 -0.161918297 0.150781199
v 0.0594295599 -0.401043922 0.150781214
v 0.0712228343 -0.176293567 0.144075498
v 0.0712228343 -0.386668533 0.144075498
v 0.0594295599 -0.161918297 0.150781199
v 0.119560584 -0.340912819 0.150781214
v 0.1051853 -0.21025604 0.144075498
v 0.1051853 -0.352706075 0.144075498
v 0.119560584 -0.222049326 0.150781214
v -0.0589339547 -0.51154989 -0.118560098
v 0.0506785437 -0.510012329 -0.0926981717
v 0.0589336567 -0.51154989 -0.118560098
v -0.0506792255 -0.510012329 -0.0926981717
v 0.0926988423 -0.510012329 -0.0506779104
v -0.11856132 -0.51154989 -0.0589327402
v 0.118560828 -0.51154989 -0.0589327402
v -0.092699334 -0.510012329 -0.0506778136
v 0.0926988423 -0.510012329 0.0506799482
v -0.11856132 -0.51154989 0.0589348786
v 0.118560828 -0.51154989 0.0589348786
v -0.092699334 -0.510012329 0.0506799482
v 0.0506785437 -0.510012329 0.0927002504
v -0.0589339547 -0.51154989 0.118562236
v 0.0589336567 -0.51154989 0.118562236
v -0.0506792255 -0.510012329 0.0927002504
v -0.0712248608 -0.424978554 -0.105186597
v 0.0594316907 -0.431596905 -0.119561933
v 0.0712249652 -0.424978554 -0.105186597
v -0.0594315939 -0.431596905 -0.119561933
v 0.119562909 -0.431596905 -0.0594309606
v -0.10518752 -0.424978554 -0.0712243319
v 0.105187424 -0.424978554 -0.0712243319
v -0.119562611 -0.431596905 -0.0594309606
v 0.119562909 -0.431596905 0.0594327152
v -0.10518752 -0.424978554 0.0712259859
v 0.105187424 -0.424978554 0.0712259859
v -0.119562611 -0.431596905 0.0594327152
v 0.0594316907 -0.431596905 0.119563729
v -0.0712248608 -0.424978554 0.105188347
v 0.0712249652 -0.424978554 0.105188347
v -0.0594315939 -0.431596905 0.119563729
v -0.107020594 -0.232236966 0.499998659
v -0.0801067203 -0.244562596 0.499999344
v -0.0801070556 -0.317936987 0.499998659
v -0.107020594 -0.33026287 0.499998659
v -0.0490131192 -0.174228802 0.499998659
v -0.0366875492 -0.361357123 0.499998659
v -0.0366872214 -0.201142788 0.499999344
v -0.049012959 -0.388270855 0.499998629
v 0.0490134023 -0.174228802 0.499997973
v 0.0366875082 -0.361356795 0.499998629
v 0.036687009 -0.201142952 0.499998659
v 0.0490130708 -0.388270676 0.499999315
v 0.10702087 -0.232236564 0.499998629
v 0.0801074952 -0.317937076 0.499998659
v 0.0801074952 -0.244562671 0.499997973
v 0.107020698 -0.330262989 0.499999315
vt 0.317142308 0.908251464
vt 0.331009269 0.908251584
vt 0.317142308 0.922118366
vt 0.331010252 0.908236563
vt 0.317143321 0.922103465
vt 0.317143321 0.908236563
vt 0.317142427 0.922103465
vt 0.331009269 0.908236563
vt 0.317142427 0.908236444
vt 0.317143321 0.908251584
vt 0.317143321 0.922118604
vt 0.331010252 0.908251584
vt 0.317142308 0.922118604
vt 0.317142308 0.908251584
vt 0.331009269 0.908251584
vt 0.331009269 0.908236563
vt 0.317142427 0.908236563
vt 0.317142427 0.922103465
vt 0.317143321 0.922103465
vt 0.317143321 0.908236444
vt 0.331010371 0.908236563
vt 0.331009269 0.908236444
vt 0.317142308 0.908236563
vt 0.317142308 0.922103465
vt 0.613810122 0.699517012
vt 0.613810122 0.65418005
vt 0.596092403 0.65418005
vt 0.596092403 0.69951725
vt 0.580640495 0.65418005
vt 0.580640495 0.69951725
vt 0.496558607 0.699516594
vt 0.496558607 0.654179931
vt 0.481140107 0.65418005
vt 0.481140107 0.699517012
vt 0.514164567 0.699516058
vt 0.514164567 0.654179931
vt 0.496558607 0.654179931
vt 0.496558607 0.699516594
vt 0.52949959 0.69951582
vt 0.514164567 0.654179931
vt 0.514164567 0.699516058
vt 0.52949959 0.654179931
vt 0.547487676 0.699515283
vt 0.547487676 0.654179931
vt 0.563011706 0.699515164
vt 0.563011706 0.654179931
vt 0.580640495 0.699515045
vt 0.580640495 0.654179931
vt 0.563011706 0.654179931
vt 0.563011706 0.699515164
vt 0.459042341 0.776300192
vt 0.459042281 0.731043339
vt 0.447235465 0.731043339
vt 0.447235525 0.776299775
vt 0.4338485 0.731043339
vt 0.4338485 0.776299238
vt 0.422213614 0.731043339
vt 0.422213614 0.776297987
vt 0.471728832 0.776301861
vt 0.471746385 0.731043339
vt 0.459042281 0.731043339
vt 0.459042341 0.776300192
vt 0.384338289 0.776295841
vt 0.372773349 0.731043339
vt 0.372784823 0.776296854
vt 0.384338289 0.731043339
vt 0.397736907 0.776296377
vt 0.397736907 0.731043339
vt 0.40953815 0.776296616
vt 0.40953815 0.731043339
vt 0.422213614 0.776297987
vt 0.422213614 0.731043339
vt 0.40953815 0.731043339
vt 0.40953815 0.776296616
vt 0.268938422 0.891358078
vt 0.26894024 0.953513324
vt 0.279514015 0.953507304
vt 0.279514015 0.891358078
vt 0.268938422 0.891358078
vt 0.26894024 0.953513324
vt 0.279514015 0.953507304
vt 0.279514015 0.891358078
vt 0.268938422 0.891358078
vt 0.26894024 0.953513324
vt 0.279514015 0.953507304
vt 0.279514015 0.891358078
vt 0.268938422 0.891358078
vt 0.26894024 0.953513324
vt 0.279514015 0.953507304
vt 0.279514015 0.891358078
vt 0.279514015 0.953507304
vt 0.279514015 0.891358078
vt 0.268938422 0.891358078
vt 0.26894024 0.953513324
vt 0.279514134 0.953506827
vt 0.279514015 0.891358078
vt 0.268938422 0.891358078
vt 0.268941134 0.953503728
vt 0.279513896 0.953506708
vt 0.279514015 0.891358078
vt 0.268938422 0.891358078
vt 0.268936336 0.953500807
vt 0.279513896 0.953507066
vt 0.279514015 0.891358078
vt 0.268938422 0.891358078
vt 0.268935919 0.953509569
vt 0.268938422 0.891358078
vt 0.268941134 0.953503728
vt 0.279514134 0.953506827
vt 0.279514015 0.891358078
vt 0.279514134 0.953506827
vt 0.279514015 0.891358078
vt 0.268938422 0.891358078
vt 0.268941134 0.953503728
vt 0.268938422 0.891358078
vt 0.268935919 0.953509569
vt 0.279513896 0.953507066
vt 0.279514015 0.891358078
vt 0.268938422 0.891358078
vt 0.268941134 0.953503728
vt 0.279514134 0.953506827
vt 0.279514015 0.891358078
vt 0.298687547 0.899787009
vt 0.338156849 0.88822639
vt 0.310247809 0.88822639
vt 0.349717259 0.89978689
vt 0.349717259 0.927695811
vt 0.298687547 0.92769593
vt 0.310247809 0.93925631
vt 0.338156849 0.939256191
vt 0.252471089 0.974590302
vt 0.20936656 0.965397239
vt 0.20936656 0.974590302
vt 0.252471089 0.965397239
vt 0.266244501 0.974590302
vt 0.266244501 0.965397239
vt 0.30934909 0.974590302
vt 0.30934909 0.965397239
vt 0.323122621 0.965397239
vt 0.323122621 0.974590302
vt 0.366227031 0.974590302
vt 0.366227031 0.965397239
vt 0.380000532 0.974590302
vt 0.380000532 0.965397239
vt 0.42310515 0.974590302
vt 0.42310515 0.965397239
vt 0.436878592 0.974590302
vt 0.436878592 0.965397239
vt 0.247345641 0.964497328
vt 0.213938221 0.955742359
vt 0.213938102 0.964497328
vt 0.24734579 0.955742359
vt 0.270816177 0.964497328
vt 0.270816356 0.955742359
vt 0.304223657 0.964497328
vt 0.304223657 0.955742359
vt 0.327694058 0.964497328
vt 0.327694058 0.955742359
vt 0.361101598 0.964497328
vt 0.361101478 0.955742359
vt 0.384572208 0.964497328
vt 0.384572089 0.955742359
vt 0.417979658 0.964497328
vt 0.417979658 0.955742359
vt 0.441450149 0.964497328
vt 0.441450268 0.955742359
vt 0.468411714 0.968218744
vt 0.438622564 0.973290145
vt 0.459192038 0.986139536
vt 0.445997238 0.958955884
vt 0.472386032 0.957088709
vt 0.449173003 0.950063884
vt 0.476600021 0.93737632
vt 0.452542752 0.934303105
vt 0.477522522 0.925597489
vt 0.453279614 0.92488569
vt 0.476447344 0.90547955
vt 0.452420145 0.908780277
vt 0.47427395 0.893869102
vt 0.450682074 0.899493933
vt 0.467989922 0.874722481
vt 0.445655167 0.884175956
vt 0.462858468 0.864079773
vt 0.44155398 0.87566942
vt 0.252471089 0.974590302
vt 0.20936656 0.965397239
vt 0.20936656 0.974590302
vt 0.252471089 0.965397239
vt 0.266244501 0.974590302
vt 0.266244501 0.965397239
vt 0.30934909 0.974590302
vt 0.30934909 0.965397239
vt 0.323122621 0.965397239
vt 0.323122621 0.974590302
vt 0.366227031 0.974590302
vt 0.366227031 0.965397239
vt 0.380000532 0.974590302
vt 0.380000532 0.965397239
vt 0.42310515 0.974590302
vt 0.42310515 0.965397239
vt 0.436878592 0.974590302
vt 0.436878592 0.965397239
vt 0.247345641 0.964497328
vt 0.213938221 0.955742359
vt 0.213938102 0.964497328
vt 0.24734579 0.955742359
vt 0.270816177 0.964497328
vt 0.270816356 0.955742359
vt 0.304223657 0.964497328
vt 0.304223657 0.955742359
vt 0.327694058 0.964497328
vt 0.327694058 0.955742359
vt 0.361101598 0.964497328
vt 0.361101478 0.955742359
vt 0.384572208 0.964497328
vt 0.384572089 0.955742359
vt 0.417979658 0.964497328
vt 0.417979658 0.955742359
vt 0.441450149 0.964497328
vt 0.441450268 0.955742359
vt 0.468411714 0.968218744
vt 0.438622564 0.973290145
vt 0.459192038 0.986139536
vt 0.445997238 0.958955884
vt 0.472386032 0.957088709
vt 0.449173003 0.950063884
vt 0.476600021 0.93737632
vt 0.452542752 0.934303105
vt 0.477522522 0.925597489
vt 0.453279614 0.92488569
vt 0.476447344 0.90547955
vt 0.452420145 0.908780277
vt 0.47427395 0.893869102
vt 0.450682074 0.899493933
vt 0.467989922 0.874722481
vt 0.445655167 0.884175956
vt 0.462858468 0.864079773
vt 0.44155398 0.87566942
vt 0.298687547 0.899787009
vt 0.338156849 0.88822639
vt 0.310247809 0.88822639
vt 0.349717259 0.89978689
vt 0.349717259 0.927695811
vt 0.298687547 0.92769593
vt 0.310247809 0.93925631
vt 0.338156849 0.939256191
vt 0.298687547 0.899787009
vt 0.338156849 0.88822639
vt 0.310247809 0.88822639
vt 0.349717259 0.89978689
vt 0.349717259 0.927695811
vt 0.298687547 0.92769593
vt 0.310247809 0.93925631
vt 0.338156849 0.939256191
vt 0.298687547 0.899787009
vt 0.338156849 0.88822639
vt 0.310247809 0.88822639
vt 0.349717259 0.89978689
vt 0.349717259 0.927695811
vt 0.298687547 0.92769593
vt 0.310247809 0.93925631
vt 0.338156849 0.939256191
vt 0.377005488 0.895010531
vt 0.393134177 0.928094923
vt 0.377005368 0.934749305
vt 0.386479884 0.944223881
vt 0.393134296 0.901664853
vt 0.386479884 0.885536075
vt 0.426218718 0.885536075
vt 0.419564307 0.928094923
vt 0.426218718 0.944223881
vt 0.435693115 0.934749305
vt 0.419564307 0.901664853
vt 0.435693115 0.895010531
vt 0.377005488 0.895010531
vt 0.393134177 0.928094923
vt 0.377005368 0.934749305
vt 0.386479884 0.944223881
vt 0.393134296 0.901664853
vt 0.386479884 0.885536075
vt 0.426218718 0.885536075
vt 0.419564307 0.928094923
vt 0.426218718 0.944223881
vt 0.435693115 0.934749305
vt 0.419564307 0.901664853
vt 0.435693115 0.895010531
vt 0.377005488 0.895010531
vt 0.393134177 0.928094923
vt 0.377005368 0.934749305
vt 0.386479884 0.944223881
vt 0.393134296 0.901664853
vt 0.386479884 0.885536075
vt 0.426218718 0.885536075
vt 0.419564307 0.928094923
vt 0.426218718 0.944223881
vt 0.435693115 0.934749305
vt 0.419564307 0.901664853
vt 0.435693115 0.895010531
vt 0.377005488 0.895010531
vt 0.393134177 0.928094923
vt 0.377005368 0.934749305
vt 0.386479884 0.944223881
vt 0.393134296 0.901664853
vt 0.386479884 0.885536075
vt 0.426218718 0.885536075
vt 0.419564307 0.928094923
vt 0.426218718 0.944223881
vt 0.435693115 0.934749305
vt 0.419564307 0.901664853
vt 0.435693115 0.895010531
vt 0.261497974 0.880545616
vt 0.26892221 0.891347826
vt 0.274221241 0.881174326
vt 0.266796887 0.871643722
vt 0.279520035 0.891347706
vt 0.281645387 0.871643722
vt 0.28694436 0.880545616
vt 0.274230659 0.881165028
vt 0.261507541 0.880536079
vt 0.266806573 0.871634126
vt 0.268931746 0.89133817
vt 0.281655014 0.871634126
vt 0.279529393 0.89133817
vt 0.286953807 0.880536079
vt 0.286950022 0.880551219
vt 0.274226874 0.881180227
vt 0.281651109 0.871649444
vt 0.279525787 0.891353488
vt 0.266802609 0.871649444
vt 0.268927962 0.891353488
vt 0.261503756 0.880551219
vt 0.279525787 0.891353488
vt 0.274226874 0.881180227
vt 0.268927962 0.891353488
vt 0.286950022 0.880551219
vt 0.261503756 0.880551219
vt 0.281651109 0.871649444
vt 0.266802609 0.871649444
vt 0.274236441 0.88117063
vt 0.286959559 0.880541861
vt 0.281660646 0.871639907
vt 0.279535294 0.891343951
vt 0.266812295 0.871639907
vt 0.268937528 0.891343951
vt 0.261513144 0.880541861
vt 0.286959559 0.880541861
vt 0.279535294 0.891343951
vt 0.274236441 0.88117063
vt 0.281660646 0.871639907
vt 0.268937528 0.891343951
vt 0.266812295 0.871639907
vt 0.261513144 0.880541861
vt 0.274230659 0.881165028
vt 0.281655014 0.871634126
vt 0.266806573 0.871634126
vt 0.261507541 0.880536079
vt 0.286953807 0.880536079
vt 0.268931746 0.89133817
vt 0.279529393 0.89133817
vt 0.266796887 0.871643722
vt 0.281645387 0.871643722
vt 0.274221241 0.881174326
vt 0.261497974 0.880545616
vt 0.28694436 0.880545616
vt 0.26892221 0.891347826
vt 0.279520035 0.891347706
vt 0.364100158 0.893394113
vt 0.354361862 0.930895507
vt 0.364103407 0.934103668
vt 0.354363412 0.8967278
vt 0.340996891 0.943467677
vt 0.343820125 0.875005841
vt 0.344035804 0.952920258
vt 0.340901464 0.884519875
vt 0.306675315 0.943993032
vt 0.303153813 0.875952244
vt 0.303789288 0.953004897
vt 0.30630061 0.884520113
vt 0.292411089 0.930949092
vt 0.283246428 0.894518018
vt 0.283275187 0.934174776
vt 0.292410046 0.897783577
vt 0.38434124 0.882463813
vt 0.42584905 0.874462545
vt 0.427626759 0.882463813
vt 0.386118889 0.874462545
vt 0.445947915 0.894561231
vt 0.374021322 0.892783701
vt 0.437946677 0.892783701
vt 0.366020143 0.894561231
vt 0.445947915 0.934291363
vt 0.374021322 0.936069191
vt 0.437946677 0.936069191
vt 0.366020143 0.934291363
vt 0.42584905 0.954390347
vt 0.38434124 0.946389079
vt 0.427626759 0.946389079
vt 0.386118889 0.954390347
vt 0.364100158 0.893394113
vt 0.354361862 0.930895507
vt 0.364103407 0.934103668
vt 0.354363412 0.8967278
vt 0.340996891 0.943467677
vt 0.343820125 0.875005841
vt 0.344035804 0.952920258
vt 0.340901464 0.884519875
vt 0.306675315 0.943993032
vt 0.303153813 0.875952244
vt 0.303789288 0.953004897
vt 0.30630061 0.884520113
vt 0.292411089 0.930949092
vt 0.283246428 0.894518018
vt 0.283275187 0.934174776
vt 0.292410046 0.897783577
vt 0.38434124 0.882463813
vt 0.42584905 0.874462545
vt 0.427626759 0.882463813
vt 0.386118889 0.874462545
vt 0.445947915 0.894561231
vt 0.374021322 0.892783701
vt 0.437946677 0.892783701
vt 0.366020143 0.894561231
vt 0.445947915 0.934291363
vt 0.374021322 0.936069191
vt 0.437946677 0.936069191
vt 0.366020143 0.934291363
vt 0.42584905 0.954390347
vt 0.38434124 0.946389079
vt 0.427626759 0.946389079
vt 0.386118889 0.954390347
vt 0.41914618 0.550013006
vt 0.413087606 0.552734494
vt 0.413030922 0.56907779
vt 0.419106424 0.571876824
vt 0.406051993 0.537063956
vt 0.403248549 0.578880787
vt 0.403261989 0.543049812
vt 0.406007677 0.584927022
vt 0.38405329 0.537063956
vt 0.386770427 0.578885496
vt 0.386797488 0.543049812
vt 0.384009123 0.584908068
vt 0.370973378 0.549985707
vt 0.377029538 0.569117963
vt 0.376975656 0.552653372
vt 0.370966941 0.57188797
vn -0.577370822 0.577334106 -0.577345848
vn -0.577370822 0.577334106 -0.577345848
vn -0.577370822 0.577334106 -0.577345848
vn -0.577343285 -0.577356219 -0.577351213
vn -0.577343285 -0.577356219 -0.577351213
vn -0.577343285 -0.577356219 -0.577351213
vn 0.887383997 -0.458014905 -0.0526498146
vn 0.458025217 -0.887381971 -0.0525953323
vn 0.577332199 -0.577359676 -0.577358842
vn 0.577355027 0.577346683 -0.577349126
vn 0.887361467 0.458049327 -0.0527286232
vn 0.887363732 0.0527312458 -0.458044797
vn 0.577376127 0.577341974 0.577332795
vn 0.458050221 0.0526042208 0.887368441
vn 0.887397349 0.0526479594 0.457989186
vn 0.577349246 -0.577348828 0.577352643
vn 0.577349246 -0.577348828 0.577352643
vn 0.577349246 -0.577348828 0.577352643
vn -0.577352643 -0.577349365 0.577348828
vn -0.577352643 -0.577349365 0.577348888
vn -0.577352643 -0.577349365 0.577348888
vn -0.577344418 0.577352822 0.577353537
vn -0.577344358 0.577352762 0.577353597
vn -0.88738656 0.0526594147 0.458008766
vn 0.382692754 -0.92387563 8.10007987E-05
vn 0.382676303 -0.923882484 8.10013735E-05
vn -0.382677615 -0.923881948 8.02148861E-05
vn -0.382691294 -0.923876286 8.02143695E-05
vn -0.707109809 -0.70710367 6.08840382E-05
vn -0.707109809 -0.70710367 6.08840382E-05
vn 0.707107067 -0.707106471 6.23374508E-05
vn 0.707107008 -0.707106471 6.23374508E-05
vn 0.382676303 -0.923882484 8.10013735E-05
vn 0.382692754 -0.92387563 8.10007987E-05
vn 1 -1.72976638E-06 7.32233502E-07
vn 1 -1.7297665E-06 7.32233502E-07
vn 1 -1.72976638E-06 7.32233502E-07
vn 1 -1.7297665E-06 7.32233389E-07
vn 0.382677019 0.923882186 -8.0548074E-05
vn 0.707108438 0.707105041 -6.13274824E-05
vn 0.707108438 0.707105041 -6.13274897E-05
vn 0.382692128 0.923875868 -8.05475065E-05
vn -0.382680327 0.923880816 -8.13237639E-05
vn -0.38269341 0.923875332 -8.13232909E-05
vn -0.707112074 0.707101464 -6.27607078E-05
vn -0.707112074 0.707101464 -6.27607078E-05
vn -1 0 -1.89480068E-06
vn -1 0 -1.89480068E-06
vn -1 0 -1.89480068E-06
vn -1 0 -1.89480068E-06
vn 0.707103312 0.707110167 -0.000261769572
vn 0.707103312 0.707110107 -0.000261769572
vn 0.382675141 0.923882961 -0.000290360156
vn 0.382684201 0.923879087 -0.000290359923
vn -0.382673949 0.923883379 -0.000290648604
vn -0.38268283 0.923879743 -0.000290648459
vn -0.707096756 0.707116723 -0.000262304355
vn -0.707096756 0.707116723 -0.000262304355
vn 1 -4.5359684E-06 -0.000200224065
vn 1 -4.5359684E-06 -0.000200224065
vn 1 -4.5359684E-06 -0.000200224094
vn 1 -4.5359684E-06 -0.000200224065
vn 0.382669777 -0.923885107 -0.000129065884
vn 0.707101822 -0.707111716 -0.000138231699
vn 0.707101882 -0.707111716 -0.000138231655
vn 0.382688493 -0.923877478 -0.000129066917
vn -0.382662445 -0.923888147 -0.000129337917
vn -0.382688552 -0.923877358 -0.000129339329
vn -0.707093 -0.707120478 -0.000138735501
vn -0.707092941 -0.707120478 -0.000138735515
vn -1 0 -0.000200934999
vn -1 0 -0.000200935028
vn -1 0 -0.000200935057
vn -1 0 -0.000200935028
vn -0.846583903 -0.373405337 0.379294068
vn -0.846626759 -0.373340309 -0.379262805
vn -0.863159359 -0.448398799 -0.232151896
vn -0.863159597 -0.448398501 0.232151553
vn -0.375665009 -0.359122247 -0.854345918
vn 0.375673294 -0.35909763 -0.854352593
vn 0.230116665 -0.432842165 -0.871604264
vn -0.230141044 -0.432863981 -0.871586978
vn 0.846629143 -0.373336464 -0.379261076
vn 0.846587718 -0.373399258 0.379291892
vn 0.863161743 -0.448395163 0.232150123
vn 0.863159776 -0.44839856 -0.232150927
vn 0.382832378 -0.387266457 0.838727713
vn -0.382828951 -0.387275249 0.83872509
vn -0.384229302 -0.833956957 0.396085382
vn 0.384232581 -0.833940744 0.396116316
vn -0.230583817 0.866520047 0.442689776
vn 0.230588421 0.866517723 0.442691833
vn 0.377285957 0.849509716 0.368766308
vn -0.37727955 0.849523962 0.368740082
vn 0.457311779 0.859156668 0.229599118
vn 0.457311869 0.859156847 -0.229598165
vn 0.848388195 0.476801366 -0.229995325
vn 0.848388016 0.476801366 0.229996353
vn 0.228526324 0.851371169 -0.472168177
vn -0.228510454 0.851385593 -0.472149879
vn -0.228286013 0.461586237 -0.857218564
vn 0.228261575 0.461565167 -0.857236445
vn -0.457297832 0.859163582 -0.22960113
vn -0.457299203 0.85916239 0.229603052
vn -0.848383307 0.476807475 0.230000854
vn -0.848382533 0.476808608 -0.230001375
vn 0.860976994 0.231842622 0.452733666
vn 0.860975385 -0.231841132 0.452737272
vn 0.844323158 -0.37962845 0.378154248
vn 0.844364643 0.379602969 0.378087401
vn -0.860987604 -0.231845289 0.45271194
vn -0.860990167 0.231842205 0.452708781
vn -0.844392478 0.379616022 0.378011912
vn -0.844350755 -0.379639775 0.378081322
vn 0.845586777 -0.22957693 -0.481951743
vn 0.845584571 0.229581445 -0.481953412
vn 0.451820463 0.22892946 -0.862235248
vn 0.451824725 -0.228933245 -0.862232029
vn -0.845615923 0.229582071 -0.481898099
vn -0.845615745 -0.22958301 -0.48189795
vn -0.451879114 -0.228939772 -0.86220181
vn -0.451878697 0.228939146 -0.862202048
vn -0 0 1
vn -0 0 1
vn -0 0 1
vn -0 0 1
vn -0 0 1
vn -0 0 1
vn -4.64773848E-06 -1.00978486E-05 1
vn -4.64773848E-06 -1.00978486E-05 1
vn -0.375665009 -0.359122247 -0.854345918
vn 0.382665962 0.000176919857 -0.923886716
vn 0.375673294 -0.35909763 -0.854352593
vn -0.38266325 0.000174866509 -0.923887849
vn -0.846626759 -0.373340309 -0.379262805
vn -0.923861623 6.80854428E-05 -0.382726699
vn -0.846583903 -0.373405337 0.379294068
vn -0.923895299 -8.02938375E-05 0.382645398
vn -0.382696539 -0.000181686264 0.92387414
vn -0.382828951 -0.387275249 0.83872509
vn 0.382832378 -0.387266457 0.838727713
vn 0.382699043 -0.000179337876 0.923873007
vn 0.846587718 -0.373399258 0.379291892
vn 0.923896015 -7.46211954E-05 0.38264358
vn 0.846629143 -0.373336464 -0.379261076
vn 0.923862398 7.34627029E-05 -0.382724643
vn 0.375673294 -0.35909763 -0.854352593
vn 0.382665962 0.000176919857 -0.923886716
vn -0.382860005 -0.0139572956 -0.923700988
vn 0.382429004 -0.0139596285 -0.923879445
vn 0.382860929 -0.0139600774 -0.923700452
vn -0.382429987 -0.0139568495 -0.923879027
vn -0.923700094 -0.0139536988 -0.38286227
vn -0.923879921 -0.0139532434 -0.38242808
vn -0.923700571 -0.0139519507 0.382861167
vn -0.923879504 -0.0139514999 0.382429063
vn -0.382860363 -0.0139532592 0.92370075
vn -0.382429749 -0.013952815 0.923879206
vn 0.382861465 -0.0139560467 0.923700392
vn 0.382428795 -0.0139555959 0.923879623
vn 0.92370075 -0.0139599759 0.382860243
vn 0.923879087 -0.0139595326 0.382429868
vn 0.923700273 -0.0139617184 -0.382861346
vn 0.923879445 -0.0139612686 -0.382428885
vn 0.382860929 -0.0139600774 -0.923700452
vn 0.382429004 -0.0139596285 -0.923879445
vn -0.914110065 -0.135145441 0.382280529
vn -0.91681993 -0.134948581 -0.375806093
vn -0.914144933 -0.135047927 -0.382231802
vn -0.88738656 0.0526594147 0.458008766
vn -0.382242173 -0.135209024 0.91411674
vn -0.375786185 -0.135108724 0.916804492
vn 0.382248193 -0.13521032 0.914114058
vn 0.458050221 0.0526042208 0.887368441
vn 0.914113879 -0.135146409 0.38227132
vn 0.887397349 0.0526479594 0.457989186
vn 0.914143026 -0.135053024 -0.382234365
vn 0.887363732 0.0527312458 -0.458044797
vn 0.382278055 -0.134983227 -0.914135098
vn 0.562084854 0.58484298 -0.584824204
vn -0.3822788 -0.134979948 -0.914135396
vn -0.56209445 0.584834218 -0.584823728
vn -0.914144933 -0.135047927 -0.382231802
vn -0.91681993 -0.134948581 -0.375806093
vn -0.844392478 0.379616022 0.378011912
vn -0.923896909 -0.382641405 2.13101084E-05
vn -0.844350755 -0.379639775 0.378081322
vn -0.923864543 0.382719576 -0.000122625366
vn -0.37727955 0.849523962 0.368740082
vn -0.382677943 0.923881769 -0.000194124601
vn 0.377285957 0.849509716 0.368766308
vn 0.38265574 0.923891008 -0.00015017789
vn 0.923861802 0.382726133 -2.01734292E-05
vn 0.844364643 0.379602969 0.378087401
vn 0.844323158 -0.37962845 0.378154248
vn 0.923893869 -0.382648677 0.000122325757
vn 0.384232581 -0.833940744 0.396116316
vn 0.382687628 -0.923877776 0.00019383675
vn -0.384229302 -0.833956957 0.396085382
vn -0.382709414 -0.923868716 0.000151325119
vn -0.844350755 -0.379639775 0.378081322
vn -0.923896909 -0.382641405 2.13101084E-05
vn -0.923698425 0.382861316 0.0140851587
vn -0.923878908 -0.382425457 0.0140883271
vn -0.92369765 -0.382863104 0.0140887871
vn -0.923878074 0.382427543 0.014084707
vn -0.382862777 0.923697829 0.0140825128
vn -0.382425696 0.923878908 0.0140820537
vn 0.38286224 0.923698127 0.0140811112
vn 0.382427096 0.923878372 0.0140806539
vn 0.923698545 0.382861197 0.0140824271
vn 0.923878372 0.382426977 0.0140819745
vn 0.92369771 -0.382862896 0.014086063
vn 0.923879206 -0.382424921 0.0140856039
vn 0.382861584 -0.923698246 0.0140900351
vn 0.38242811 -0.923877776 0.0140895844
vn -0.38286221 -0.923698008 0.014091434
vn -0.382426709 -0.923878372 0.0140909804
vn -0.92369765 -0.382863104 0.0140887871
vn -0.923878908 -0.382425457 0.0140883271
vn 0.382272482 0.914136291 0.134991556
vn -0.56209445 0.584834218 -0.584823728
vn -0.38227275 0.914137661 0.134980977
vn 0.562084854 0.58484298 -0.584824204
vn 0.914139271 0.382239938 0.135062844
vn 0.887361467 0.458049327 -0.0527286232
vn 0.914107382 -0.382282704 0.135157764
vn 0.887383997 -0.458014905 -0.0526498146
vn 0.382238448 -0.914116859 0.135219112
vn 0.458025217 -0.887381971 -0.0525953323
vn -0.382237852 -0.914118409 0.135210186
vn -0.37578547 -0.916804612 0.135110065
vn -0.914111078 -0.382281095 0.135137334
vn -0.916829646 -0.375751317 0.13503471
vn -0.914144218 0.382235885 0.135040984
vn -0.91682142 0.375804782 0.134941503
vn -0.38227275 0.914137661 0.134980977
vn -0.56209445 0.584834218 -0.584823728
vn 1.16195952E-06 -1 -9.73750957E-06
vn 1.16195929E-06 -1 -9.73750957E-06
vn 1.16195929E-06 -1 -9.73750957E-06
vn 1.16195952E-06 -1 -9.73750957E-06
vn -4.90204002E-07 -1 5.97537564E-07
vn -4.90204002E-07 -1 5.97537564E-07
vn -5.28150338E-07 -1 -4.68835697E-06
vn -5.28150338E-07 -1 -4.68835697E-06
vn -1 1.69007603E-06 -5.77031187E-06
vn -1 1.69007603E-06 -5.77031187E-06
vn -1 1.69007603E-06 -5.77031187E-06
vn -1 1.69007615E-06 -5.77031187E-06
vn -1 1.30720582E-06 -2.39014344E-06
vn -1 1.30720593E-06 -2.39014344E-06
vn -1 0 0
vn -1 0 0
vn 1 0 5.77018318E-06
vn 1 0 5.77018227E-06
vn 1 0 5.77018318E-06
vn 1 0 5.77018409E-06
vn 1 0 0
vn 1 0 0
vn 1 1.69013549E-06 1.73111421E-05
vn 1 1.69013595E-06 1.73111421E-05
vn -0.863159359 -0.448398799 -0.232151896
vn -0.997516274 -0.0498068929 0.0498069376
vn -0.863159597 -0.448398501 0.232151553
vn -0.860987604 -0.231845289 0.45271194
vn -0.997516274 -0.0498069488 -0.0498069189
vn -0.845615745 -0.22958301 -0.48189795
vn -0.845615923 0.229582071 -0.481898099
vn -0.997516274 0.0498068929 0.049806945
vn -0.860990167 0.231842205 0.452708781
vn -0.848383307 0.476807475 0.230000854
vn -0.997516274 0.049806904 -0.049806904
vn -0.848382533 0.476808608 -0.230001375
vn 0.863161743 -0.448395163 0.232150123
vn 0.997516036 -0.0498088673 -0.0498087481
vn 0.863159776 -0.44839856 -0.232150927
vn 0.845586777 -0.22957693 -0.481951743
vn 0.997516036 -0.0498085506 0.0498090386
vn 0.860975385 -0.231841132 0.452737272
vn 0.860976994 0.231842622 0.452733666
vn 0.997515798 0.0498137809 -0.0498081222
vn 0.845584571 0.229581445 -0.481953412
vn 0.848388195 0.476801366 -0.229995325
vn 0.997515798 0.0498134606 0.0498084053
vn 0.848388016 0.476801366 0.229996353
vn 0.457311779 0.859156668 0.229599118
vn 0.0498760268 0.997509241 -0.0498756878
vn 0.457311869 0.859156847 -0.229598165
vn 0.228526324 0.851371169 -0.472168177
vn 0.0498760827 0.997509241 0.0498754606
vn 0.230588421 0.866517723 0.442691833
vn -0.230583817 0.866520047 0.442689776
vn -0.0498757996 0.997509241 -0.0498757809
vn -0.228510454 0.851385593 -0.472149879
vn -0.457297832 0.859163582 -0.22960113
vn -0.0498757921 0.99750936 0.0498755202
vn -0.457299203 0.85916239 0.229603052
vn 0.451820463 0.22892946 -0.862235248
vn 0.0498129539 -0.0498115085 -0.997515678
vn 0.451824725 -0.228933245 -0.862232029
vn 0.230116665 -0.432842165 -0.871604264
vn 0.049813062 0.0498119853 -0.997515678
vn 0.228261575 0.461565167 -0.857236445
vn -0.228286013 0.461586237 -0.857218564
vn -0.0498111211 -0.0498117246 -0.997515798
vn -0.230141044 -0.432863981 -0.871586978
vn -0.451879114 -0.228939772 -0.86220181
vn -0.0498109758 0.0498120114 -0.997515798
vn -0.451878697 0.228939146 -0.862202048
vn -0.848382533 0.476808608 -0.230001375
vn -0.845615923 0.229582071 -0.481898099
vn -0.572835147 0.578180969 -0.581004798
vn -0.457297832 0.859163582 -0.22960113
vn -0.451878697 0.228939146 -0.862202048
vn -0.228510454 0.851385593 -0.472149879
vn -0.228286013 0.461586237 -0.857218564
vn 0.572831154 0.578171015 -0.581018806
vn 0.848388195 0.476801366 -0.229995325
vn 0.457311869 0.859156847 -0.229598165
vn 0.845584571 0.229581445 -0.481953412
vn 0.228526324 0.851371169 -0.472168177
vn 0.451820463 0.22892946 -0.862235248
vn 0.228261575 0.461565167 -0.857236445
vn -0.37727955 0.849523962 0.368740082
vn -0.578270912 0.583654284 0.570044279
vn -0.230583817 0.866520047 0.442689776
vn -0.844392478 0.379616022 0.378011912
vn -0.457299203 0.85916239 0.229603052
vn -0.860990167 0.231842205 0.452708781
vn -0.848383307 0.476807475 0.230000854
vn -0.844350755 -0.379639775 0.378081322
vn -0.583685458 -0.572908044 0.575402081
vn -0.860987604 -0.231845289 0.45271194
vn -0.384229302 -0.833956957 0.396085382
vn -0.863159597 -0.448398501 0.232151553
vn -0.382828951 -0.387275249 0.83872509
vn -0.846583903 -0.373405337 0.379294068
vn 0.578273773 0.583650351 0.570045412
vn 0.377285957 0.849509716 0.368766308
vn 0.230588421 0.866517723 0.442691833
vn 0.844364643 0.379602969 0.378087401
vn 0.457311779 0.859156668 0.229599118
vn 0.860976994 0.231842622 0.452733666
vn 0.848388016 0.476801366 0.229996353
vn 0.384232581 -0.833940744 0.396116316
vn 0.844323158 -0.37962845 0.378154248
vn 0.583685577 -0.572902262 0.575407863
vn 0.382832378 -0.387266457 0.838727713
vn 0.860975385 -0.231841132 0.452737272
vn 0.846587718 -0.373399258 0.379291892
vn 0.863161743 -0.448395163 0.232150123
vn 0.578116179 -0.567415297 -0.586363018
vn 0.375673294 -0.35909763 -0.854352593
vn 0.846629143 -0.373336464 -0.379261076
vn 0.863159776 -0.44839856 -0.232150927
vn 0.230116665 -0.432842165 -0.871604264
vn 0.845586777 -0.22957693 -0.481951743
vn 0.451824725 -0.228933245 -0.862232029
vn -0.846626759 -0.373340309 -0.379262805
vn -0.375665009 -0.359122247 -0.854345918
vn -0.578122735 -0.567426085 -0.586346209
vn -0.863159359 -0.448398799 -0.232151896
vn -0.230141044 -0.432863981 -0.871586978
vn -0.845615745 -0.22958301 -0.48189795
vn -0.451879114 -0.228939772 -0.86220181
vn 0.0502245463 -0.0199229885 0.998539209
vn 0.049446959 0.0223567486 0.998526454
vn 0.0502245277 0.0199230276 0.998539209
vn 0.0494469367 -0.0223568566 0.998526454
vn 0.022356784 0.0494469069 0.998526454
vn 0.0199231002 -0.0502246246 0.998539209
vn 0.019922955 0.0502244905 0.998539209
vn 0.0223566741 -0.0494471118 0.998526454
vn -0.0223566703 0.049446851 0.998526454
vn -0.0199231133 -0.0502245836 0.998539209
vn -0.0199230239 0.0502243862 0.998539209
vn -0.0223567244 -0.0494470596 0.998526454
vn -0.0494469143 0.0223566703 0.998526454
vn -0.050224565 -0.0199229699 0.998539209
vn -0.050224483 0.0199229699 0.998539209
vn -0.0494469739 -0.0223567784 0.998526454
vn -0.680709243 0.563763976 -0.467766166
vn -0.487648368 -0.101349965 -0.867137432
vn -0.680707693 -0.563762009 -0.467770696
vn -0.487648696 0.101349935 -0.867137194
vn -0.101349808 -0.487642288 -0.86714077
vn -0.563762426 0.680709124 -0.467768013
vn -0.563760936 -0.680706799 -0.467773288
vn -0.10134995 0.487644792 -0.867139339
vn 0.101349548 -0.487641394 -0.867141306
vn 0.563760579 0.680705965 -0.467775017
vn 0.563759148 -0.680703521 -0.467780083
vn 0.101349697 0.487643957 -0.867139876
vn 0.4876436 -0.101349436 -0.867140174
vn 0.680706143 0.563760519 -0.467774779
vn 0.680704653 -0.563758612 -0.46777907
vn 0.487643957 0.101349533 -0.867139876
vn 0.0208987016 -0.998392522 0.0526841842
vn -0.0234511252 -0.998378515 0.0518685356
vn -0.0208988506 -0.998392522 0.0526840426
vn 0.0234514121 -0.998378515 0.0518685691
vn -0.0518684722 -0.998378515 0.023451224
vn 0.0526841469 -0.998392522 0.0208987724
vn -0.052684065 -0.998392522 0.0208986513
vn 0.0518686026 -0.998378515 0.0234512463
vn -0.0518684424 -0.998378515 -0.0234511252
vn 0.0526841246 -0.998392522 -0.0208987631
vn -0.0526840091 -0.998392522 -0.0208986606
vn 0.0518685766 -0.998378515 -0.0234512445
vn -0.0234510899 -0.998378515 -0.0518684238
vn 0.0208986755 -0.998392522 -0.0526841246
vn -0.0208988003 -0.998392522 -0.052683942
vn 0.0234513916 -0.998378515 -0.0518685058
vn -0.563520849 0.470583588 -0.678966463
vn 0.100187317 0.87001276 -0.482742578
vn 0.563515902 0.470597148 -0.678961098
vn -0.100187875 0.870011806 -0.482743919
vn 0.482738584 0.870014966 -0.100186884
vn -0.678965271 0.470580548 -0.563524663
vn 0.678958118 0.470597714 -0.56351918
vn -0.48274824 0.870009601 -0.1001876
vn 0.482738376 0.870014966 0.10018722
vn -0.678963661 0.470586509 0.563521802
vn 0.67895633 0.470603645 0.5635162
vn -0.482748151 0.870009601 0.100187972
vn 0.100187026 0.870013714 0.482740849
vn -0.563519359 0.470589101 0.678963721
vn 0.563514411 0.470602721 0.678958416
vn -0.100187682 0.87001282 0.48274231
vn -1.50158194E-05 6.99526527E-06 1
vn -1.48988802E-05 6.46500439E-06 1
vn -6.41825727E-06 -2.01561329E-06 1
vn -6.10359029E-06 -1.91679419E-06 1
vn -5.07852701E-06 2.11192E-05 1
vn -2.01560829E-06 6.41815495E-06 1
vn -4.44943134E-06 2.13168169E-05 1
vn -1.91684717E-06 6.10367624E-06 1
vn 3.83359929E-06 1.22069605E-05 1
vn -1.04963465E-05 1.48989211E-05 1
vn 4.03126069E-06 1.28363527E-05 1
vn -1.08290105E-05 1.50158503E-05 1
vn -1.22072997E-05 3.83357883E-06 1
vn -2.13173844E-05 1.25119168E-05 1
vn -1.28367419E-05 4.03124795E-06 1
vn -2.11196912E-05 1.27459343E-05 1
g P_Bend_Vert1_0
f 3/3/3 2/2/2 1/1/1
f 6/6/6 5/5/5 4/4/4
f 9/9/9 8/8/8 7/7/7
f 12/12/12 11/11/11 10/10/10
f 15/15/15 14/14/14 13/13/13
f 18/18/18 17/17/17 16/16/16
f 21/21/21 20/20/20 19/19/19
f 24/24/24 23/23/23 22/22/22
f 27/27/27 26/26/26 25/25/25
f 28/28/28 27/27/27 25/25/25
f 29/29/29 27/27/27 28/28/28
f 30/30/30 29/29/29 28/28/28
f 33/33/33 32/32/32 31/31/31
f 34/34/34 33/33/33 31/31/31
f 37/37/37 36/36/36 35/35/35
f 38/38/38 37/37/37 35/35/35
f 41/41/41 40/40/40 39/39/39
f 40/40/40 42/42/42 39/39/39
f 39/39/39 42/42/42 43/43/43
f 42/42/42 44/44/44 43/43/43
f 43/43/43 44/44/44 45/45/45
f 44/44/44 46/46/46 45/45/45
f 49/49/49 48/48/48 47/47/47
f 50/50/50 49/49/49 47/47/47
f 53/53/53 52/52/52 51/51/51
f 54/54/54 53/53/53 51/51/51
f 55/55/55 53/53/53 54/54/54
f 56/56/56 55/55/55 54/54/54
f 57/57/57 55/55/55 56/56/56
f 58/58/58 57/57/57 56/56/56
f 61/61/61 60/60/60 59/59/59
f 62/62/62 61/61/61 59/59/59
f 65/65/65 64/64/64 63/63/63
f 64/64/64 66/66/66 63/63/63
f 63/63/63 66/66/66 67/67/67
f 66/66/66 68/68/68 67/67/67
f 67/67/67 68/68/68 69/69/69
f 68/68/68 70/70/70 69/69/69
f 73/73/73 72/72/72 71/71/71
f 74/74/74 73/73/73 71/71/71
f 77/77/77 76/76/76 75/75/75
f 78/78/78 77/77/77 75/75/75
f 81/81/81 80/80/80 79/79/79
f 82/82/82 81/81/81 79/79/79
f 85/85/85 84/84/84 83/83/83
f 86/86/86 85/85/85 83/83/83
f 89/89/89 88/88/88 87/87/87
f 90/90/90 89/89/89 87/87/87
f 93/93/93 92/92/92 91/91/91
f 94/94/94 93/93/93 91/91/91
f 97/97/97 96/96/96 95/95/95
f 98/98/98 97/97/97 95/95/95
f 101/101/101 100/100/100 99/99/99
f 102/102/102 101/101/101 99/99/99
f 105/105/105 104/104/104 103/103/103
f 106/106/106 105/105/105 103/103/103
f 109/109/109 108/108/108 107/107/107
f 110/110/110 109/109/109 107/107/107
f 113/113/113 112/112/112 111/111/111
f 114/114/114 113/113/113 111/111/111
f 117/117/117 116/116/116 115/115/115
f 118/118/118 117/117/117 115/115/115
f 121/121/121 120/120/120 119/119/119
f 122/122/122 121/121/121 119/119/119
f 125/125/125 124/124/124 123/123/123
f 124/124/124 126/126/126 123/123/123
f 126/126/126 127/127/127 123/123/123
f 127/127/127 128/128/128 123/123/123
f 129/129/129 128/128/128 127/127/127
f 130/130/130 129/129/129 127/127/127
f 133/133/133 132/132/132 131/131/131
f 132/132/132 134/134/134 131/131/131
f 135/135/135 131/131/131 134/134/134
f 136/136/136 135/135/135 134/134/134
f 135/135/135 136/136/136 137/137/137
f 136/136/136 138/138/138 137/137/137
f 138/138/138 139/139/139 137/137/137
f 139/139/139 140/140/140 137/137/137
f 140/140/140 139/139/139 141/141/141
f 139/139/139 142/142/142 141/141/141
f 143/143/143 141/141/141 142/142/142
f 144/144/144 143/143/143 142/142/142
f 143/143/143 144/144/144 145/145/145
f 144/144/144 146/146/146 145/145/145
f 147/147/147 145/145/145 146/146/146
f 148/148/148 147/147/147 146/146/146
f 151/151/151 150/150/150 149/149/149
f 150/150/150 152/152/152 149/149/149
f 149/149/149 152/152/152 153/153/153
f 152/152/152 154/154/154 153/153/153
f 153/153/153 154/154/154 155/155/155
f 154/154/154 156/156/156 155/155/155
f 155/155/155 156/156/156 157/157/157
f 156/156/156 158/158/158 157/157/157
f 157/157/157 158/158/158 159/159/159
f 158/158/158 160/160/160 159/159/159
f 159/159/159 160/160/160 161/161/161
f 160/160/160 162/162/162 161/161/161
f 161/161/161 162/162/162 163/163/163
f 162/162/162 164/164/164 163/163/163
f 163/163/163 164/164/164 165/165/165
f 164/164/164 166/166/166 165/165/165
f 169/169/169 168/168/168 167/167/167
f 168/168/168 170/170/170 167/167/167
f 167/167/167 170/170/170 171/171/171
f 170/170/170 172/172/172 171/171/171
f 171/171/171 172/172/172 173/173/173
f 172/172/172 174/174/174 173/173/173
f 173/173/173 174/174/174 175/175/175
f 174/174/174 176/176/176 175/175/175
f 175/175/175 176/176/176 177/177/177
f 176/176/176 178/178/178 177/177/177
f 177/177/177 178/178/178 179/179/179
f 178/178/178 180/180/180 179/179/179
f 179/179/179 180/180/180 181/181/181
f 180/180/180 182/182/182 181/181/181
f 181/181/181 182/182/182 183/183/183
f 182/182/182 184/184/184 183/183/183
f 187/187/187 186/186/186 185/185/185
f 186/186/186 188/188/188 185/185/185
f 189/189/189 185/185/185 188/188/188
f 190/190/190 189/189/189 188/188/188
f 189/189/189 190/190/190 191/191/191
f 190/190/190 192/192/192 191/191/191
f 192/192/192 193/193/193 191/191/191
f 193/193/193 194/194/194 191/191/191
f 194/194/194 193/193/193 195/195/195
f 193/193/193 196/196/196 195/195/195
f 197/197/197 195/195/195 196/196/196
f 198/198/198 197/197/197 196/196/196
f 197/197/197 198/198/198 199/199/199
f 198/198/198 200/200/200 199/199/199
f 201/201/201 199/199/199 200/200/200
f 202/202/202 201/201/201 200/200/200
f 205/205/205 204/204/204 203/203/203
f 204/204/204 206/206/206 203/203/203
f 203/203/203 206/206/206 207/207/207
f 206/206/206 208/208/208 207/207/207
f 207/207/207 208/208/208 209/209/209
f 208/208/208 210/210/210 209/209/209
f 209/209/209 210/210/210 211/211/211
f 210/210/210 212/212/212 211/211/211
f 211/211/211 212/212/212 213/213/213
f 212/212/212 214/214/214 213/213/213
f 213/213/213 214/214/214 215/215/215
f 214/214/214 216/216/216 215/215/215
f 215/215/215 216/216/216 217/217/217
f 216/216/216 218/218/218 217/217/217
f 217/217/217 218/218/218 219/219/219
f 218/218/218 220/220/220 219/219/219
f 223/223/223 222/222/222 221/221/221
f 222/222/222 224/224/224 221/221/221
f 221/221/221 224/224/224 225/225/225
f 224/224/224 226/226/226 225/225/225
f 225/225/225 226/226/226 227/227/227
f 226/226/226 228/228/228 227/227/227
f 227/227/227 228/228/228 229/229/229
f 228/228/228 230/230/230 229/229/229
f 229/229/229 230/230/230 231/231/231
f 230/230/230 232/232/232 231/231/231
f 231/231/231 232/232/232 233/233/233
f 232/232/232 234/234/234 233/233/233
f 233/233/233 234/234/234 235/235/235
f 234/234/234 236/236/236 235/235/235
f 235/235/235 236/236/236 237/237/237
f 236/236/236 238/238/238 237/237/237
f 241/241/241 240/240/240 239/239/239
f 240/240/240 242/242/242 239/239/239
f 242/242/242 243/243/243 239/239/239
f 243/243/243 244/244/244 239/239/239
f 245/245/245 244/244/244 243/243/243
f 246/246/246 245/245/245 243/243/243
f 249/249/249 248/248/248 247/247/247
f 248/248/248 250/250/250 247/247/247
f 250/250/250 251/251/251 247/247/247
f 251/251/251 252/252/252 247/247/247
f 253/253/253 252/252/252 251/251/251
f 254/254/254 253/253/253 251/251/251
f 257/257/257 256/256/256 255/255/255
f 256/256/256 258/258/258 255/255/255
f 258/258/258 259/259/259 255/255/255
f 259/259/259 260/260/260 255/255/255
f 261/261/261 260/260/260 259/259/259
f 262/262/262 261/261/261 259/259/259
f 265/265/265 264/264/264 263/263/263
f 266/266/266 264/264/264 265/265/265
f 264/264/264 267/267/267 263/263/263
f 263/263/263 267/267/267 268/268/268
f 268/268/268 267/267/267 269/269/269
f 270/270/270 264/264/264 266/266/266
f 267/267/267 264/264/264 270/270/270
f 271/271/271 270/270/270 266/266/266
f 272/272/272 270/270/270 271/271/271
f 267/267/267 273/273/273 269/269/269
f 273/273/273 267/267/267 270/270/270
f 273/273/273 270/270/270 272/272/272
f 269/269/269 273/273/273 274/274/274
f 274/274/274 273/273/273 272/272/272
f 277/277/277 276/276/276 275/275/275
f 278/278/278 276/276/276 277/277/277
f 276/276/276 279/279/279 275/275/275
f 275/275/275 279/279/279 280/280/280
f 280/280/280 279/279/279 281/281/281
f 282/282/282 276/276/276 278/278/278
f 279/279/279 276/276/276 282/282/282
f 283/283/283 282/282/282 278/278/278
f 284/284/284 282/282/282 283/283/283
f 279/279/279 285/285/285 281/281/281
f 285/285/285 279/279/279 282/282/282
f 285/285/285 282/282/282 284/284/284
f 281/281/281 285/285/285 286/286/286
f 286/286/286 285/285/285 284/284/284
f 289/289/289 288/288/288 287/287/287
f 290/290/290 288/288/288 289/289/289
f 288/288/288 291/291/291 287/287/287
f 287/287/287 291/291/291 292/292/292
f 292/292/292 291/291/291 293/293/293
f 294/294/294 288/288/288 290/290/290
f 291/291/291 288/288/288 294/294/294
f 295/295/295 294/294/294 290/290/290
f 296/296/296 294/294/294 295/295/295
f 291/291/291 297/297/297 293/293/293
f 297/297/297 291/291/291 294/294/294
f 297/297/297 294/294/294 296/296/296
f 293/293/293 297/297/297 298/298/298
f 298/298/298 297/297/297 296/296/296
f 301/301/301 300/300/300 299/299/299
f 302/302/302 300/300/300 301/301/301
f 300/300/300 303/303/303 299/299/299
f 299/299/299 303/303/303 304/304/304
f 304/304/304 303/303/303 305/305/305
f 306/306/306 300/300/300 302/302/302
f 303/303/303 300/300/300 306/306/306
f 307/307/307 306/306/306 302/302/302
f 308/308/308 306/306/306 307/307/307
f 303/303/303 309/309/309 305/305/305
f 309/309/309 303/303/303 306/306/306
f 309/309/309 306/306/306 308/308/308
f 305/305/305 309/309/309 310/310/310
f 310/310/310 309/309/309 308/308/308
f 313/313/313 312/312/312 311/311/311
f 314/314/314 313/313/313 311/311/311
f 312/312/312 313/313/313 315/315/315
f 313/313/313 314/314/314 316/316/316
f 317/317/317 315/315/315 313/313/313
f 316/316/316 317/317/317 313/313/313
f 320/320/320 319/319/319 318/318/318
f 318/318/318 319/319/319 321/321/321
f 318/318/318 322/322/322 320/320/320
f 323/323/323 318/318/318 321/321/321
f 322/322/322 318/318/318 324/324/324
f 318/318/318 323/323/323 324/324/324
f 327/327/327 326/326/326 325/325/325
f 328/328/328 325/325/325 326/326/326
f 326/326/326 327/327/327 329/329/329
f 328/328/328 326/326/326 330/330/330
f 329/329/329 331/331/331 326/326/326
f 326/326/326 331/331/331 330/330/330
f 334/334/334 333/333/333 332/332/332
f 333/333/333 335/335/335 332/332/332
f 333/333/333 334/334/334 336/336/336
f 333/333/333 337/337/337 335/335/335
f 336/336/336 338/338/338 333/333/333
f 333/333/333 338/338/338 337/337/337
f 341/341/341 340/340/340 339/339/339
f 339/339/339 340/340/340 342/342/342
f 339/339/339 343/343/343 341/341/341
f 344/344/344 339/339/339 342/342/342
f 343/343/343 339/339/339 345/345/345
f 339/339/339 344/344/344 345/345/345
f 348/348/348 347/347/347 346/346/346
f 348/348/348 346/346/346 349/349/349
f 350/350/350 347/347/347 348/348/348
f 348/348/348 349/349/349 351/351/351
f 348/348/348 352/352/352 350/350/350
f 352/352/352 348/348/348 351/351/351
f 355/355/355 354/354/354 353/353/353
f 355/355/355 353/353/353 356/356/356
f 357/357/357 353/353/353 354/354/354
f 353/353/353 358/358/358 356/356/356
f 353/353/353 357/357/357 359/359/359
f 359/359/359 358/358/358 353/353/353
f 362/362/362 361/361/361 360/360/360
f 363/363/363 362/362/362 360/360/360
f 364/364/364 361/361/361 362/362/362
f 362/362/362 363/363/363 365/365/365
f 362/362/362 366/366/366 364/364/364
f 366/366/366 362/362/362 365/365/365
f 369/369/369 368/368/368 367/367/367
f 368/368/368 370/370/370 367/367/367
f 371/371/371 368/368/368 369/369/369
f 367/367/367 370/370/370 372/372/372
f 373/373/373 371/371/371 369/369/369
f 370/370/370 374/374/374 372/372/372
f 375/375/375 371/371/371 373/373/373
f 372/372/372 374/374/374 376/376/376
f 377/377/377 375/375/375 373/373/373
f 374/374/374 378/378/378 376/376/376
f 379/379/379 375/375/375 377/377/377
f 376/376/376 378/378/378 380/380/380
f 381/381/381 379/379/379 377/377/377
f 378/378/378 382/382/382 380/380/380
f 382/382/382 379/379/379 381/381/381
f 380/380/380 382/382/382 381/381/381
f 385/385/385 384/384/384 383/383/383
f 384/384/384 386/386/386 383/383/383
f 387/387/387 384/384/384 385/385/385
f 383/383/383 386/386/386 388/388/388
f 389/389/389 387/387/387 385/385/385
f 386/386/386 390/390/390 388/388/388
f 391/391/391 387/387/387 389/389/389
f 388/388/388 390/390/390 392/392/392
f 393/393/393 391/391/391 389/389/389
f 390/390/390 394/394/394 392/392/392
f 395/395/395 391/391/391 393/393/393
f 392/392/392 394/394/394 396/396/396
f 397/397/397 395/395/395 393/393/393
f 394/394/394 398/398/398 396/396/396
f 398/398/398 395/395/395 397/397/397
f 396/396/396 398/398/398 397/397/397
f 401/401/401 400/400/400 399/399/399
f 400/400/400 402/402/402 399/399/399
f 403/403/403 400/400/400 401/401/401
f 399/399/399 402/402/402 404/404/404
f 405/405/405 403/403/403 401/401/401
f 402/402/402 406/406/406 404/404/404
f 407/407/407 403/403/403 405/405/405
f 404/404/404 406/406/406 408/408/408
f 409/409/409 407/407/407 405/405/405
f 406/406/406 410/410/410 408/408/408
f 411/411/411 407/407/407 409/409/409
f 408/408/408 410/410/410 412/412/412
f 413/413/413 411/411/411 409/409/409
f 410/410/410 414/414/414 412/412/412
f 414/414/414 411/411/411 413/413/413
f 412/412/412 414/414/414 413/413/413
f 417/417/417 416/416/416 415/415/415
f 416/416/416 418/418/418 415/415/415
f 419/419/419 416/416/416 417/417/417
f 415/415/415 418/418/418 420/420/420
f 421/421/421 419/419/419 417/417/417
f 418/418/418 422/422/422 420/420/420
f 423/423/423 419/419/419 421/421/421
f 420/420/420 422/422/422 424/424/424
f 425/425/425 423/423/423 421/421/421
f 422/422/422 426/426/426 424/424/424
f 427/427/427 423/423/423 425/425/425
f 424/424/424 426/426/426 428/428/428
f 429/429/429 427/427/427 425/425/425
f 426/426/426 430/430/430 428/428/428
f 430/430/430 427/427/427 429/429/429
f 428/428/428 430/430/430 429/429/429
f 433/433/433 432/432/432 431/431/431
f 434/434/434 433/433/433 431/431/431
f 431/431/431 432/432/432 435/435/435
f 436/436/436 433/433/433 434/434/434
f 432/432/432 437/437/437 435/435/435
f 438/438/438 436/436/436 434/434/434
f 435/435/435 437/437/437 439/439/439
f 440/440/440 436/436/436 438/438/438
f 437/437/437 441/441/441 439/439/439
f 442/442/442 440/440/440 438/438/438
f 439/439/439 441/441/441 443/443/443
f 444/444/444 440/440/440 442/442/442
f 441/441/441 445/445/445 443/443/443
f 446/446/446 444/444/444 442/442/442
f 443/443/443 445/445/445 446/446/446
f 445/445/445 444/444/444 446/446/446
