g P_Straight_B
v 0.0741218776 -0.322038949 0.0741423815
v 0.0405388549 -0.35562256 0.0741439238
v 0.0741218776 -0.355622679 0.0405593477
v 0.0405386575 -0.207378387 0.0741420835
v 0.0741218776 -0.240961432 0.0741426572
v 0.074122265 -0.207378209 0.0405587666
v -0.0741229504 -0.240961641 0.0741415024
v -0.0405383669 -0.207378671 0.0741415024
v -0.0741221681 -0.207378179 0.0405587666
v -0.0405373983 -0.355622768 0.0741439238
v -0.0741225556 -0.322038949 0.0741420761
v -0.0741221681 -0.355622709 0.0405588523
v -0.0741227493 -0.322039098 -0.0741025507
v -0.0405399166 -0.355622828 -0.0741033256
v -0.0741221681 -0.355622888 -0.0405171961
v -0.0405383669 -0.207378075 -0.0741023496
v -0.0741211995 -0.240961522 -0.0741023496
v -0.0741221681 -0.207378179 -0.0405184552
v 0.074122265 -0.240961835 -0.0741020665
v 0.0405382738 -0.207377985 -0.0741026476
v 0.074122265 -0.207378313 -0.0405183583
v 0.0405380763 -0.355622679 -0.0741014853
v 0.0741220713 -0.322038949 -0.0741020665
v 0.074122265 -0.355622619 -0.0405183583
v 0.0490126014 -0.388270766 -0.500001431
v -0.0490127727 -0.388295352 -0.218751609
v 0.0490125939 -0.388295352 -0.218751609
v -0.0490125939 -0.388270766 -0.500000775
v -0.107020408 -0.330287278 -0.21875225
v -0.107020408 -0.330262631 -0.500001431
v 0.107021399 -0.330263048 -0.500000775
v 0.0490126014 -0.388270766 -0.500001431
v 0.0490125939 -0.388295352 -0.218751609
v 0.107021384 -0.330287695 -0.218750954
v 0.107021227 -0.232236624 -0.50000006
v 0.107021399 -0.330263048 -0.500000775
v 0.107021384 -0.330287695 -0.218750954
v 0.107021227 -0.23226127 -0.218750298
v 0.0490134247 -0.174228936 -0.50000006
v 0.107021227 -0.232236624 -0.50000006
v 0.107021227 -0.23226127 -0.218750298
v 0.0490134247 -0.174253613 -0.218750298
v -0.0490127653 -0.174228936 -0.50000006
v -0.0490129478 -0.174253613 -0.218750954
v -0.107020728 -0.232236817 -0.500000775
v -0.107020736 -0.232261449 -0.218751609
v -0.107020408 -0.330262631 -0.500001431
v -0.107020728 -0.232236817 -0.500000775
v -0.107020736 -0.232261449 -0.218751609
v -0.107020408 -0.330287278 -0.21875225
v -0.0803185031 -0.318258941 -0.500000775
v -0.0367580131 -0.361765325 -0.218750894
v -0.0802621841 -0.318259239 -0.218750894
v -0.036783874 -0.361793518 -0.500000775
v 0.0367585346 -0.361765385 -0.218750894
v 0.0367843956 -0.361793518 -0.500000775
v 0.0802628696 -0.315925181 -0.218750894
v 0.080319196 -0.315924823 -0.500000775
v -0.0803183541 -0.244690314 -0.500000775
v -0.0803185031 -0.318258941 -0.500000775
v -0.0802621841 -0.318259239 -0.218750894
v -0.0802620202 -0.24473919 -0.218750894
v -0.0367837176 -0.206253424 -0.500000775
v -0.0803183541 -0.244690314 -0.500000775
v -0.0802620202 -0.24473919 -0.218750894
v -0.0367578566 -0.206330806 -0.218750894
v 0.0367845632 -0.206253424 -0.500000775
v 0.0367587022 -0.206330806 -0.218750894
v 0.080319196 -0.247025296 -0.500000775
v 0.0802628696 -0.247074127 -0.218750894
v 0.080319196 -0.315924823 -0.500000775
v 0.080319196 -0.247025296 -0.500000775
v 0.0802628696 -0.247074127 -0.218750894
v 0.0802628696 -0.315925181 -0.218750894
v 0.0490130708 -0.388270676 0.499999315
v 0.0490132794 -0.388295233 0.218749061
v -0.0490127541 -0.388295442 0.218748376
v -0.049012959 -0.388270855 0.499998629
v -0.107020073 -0.330287457 0.218748361
v -0.107020594 -0.33026287 0.499998659
v 0.107020698 -0.330262989 0.499999315
v 0.107020907 -0.330287576 0.218749046
v 0.0490132794 -0.388295233 0.218749061
v 0.0490130708 -0.388270676 0.499999315
v 0.10702087 -0.232236564 0.499998629
v 0.107021078 -0.232261151 0.218748376
v 0.107020907 -0.330287576 0.218749046
v 0.107020698 -0.330262989 0.499999315
v 0.0490134023 -0.174228802 0.499997973
v 0.107021078 -0.232261151 0.218748376
v 0.10702087 -0.232236564 0.499998629
v 0.0490136035 -0.174253419 0.21874769
v -0.0490131192 -0.174228802 0.499998659
v -0.0490129218 -0.174253419 0.218748376
v -0.107020594 -0.232236966 0.499998659
v -0.107020073 -0.232261583 0.218748361
v -0.107020594 -0.33026287 0.499998659
v -0.107020073 -0.330287457 0.218748361
v -0.107020073 -0.232261583 0.218748361
v -0.107020594 -0.232236966 0.499998659
v -0.0801070556 -0.317936987 0.499998659
v -0.0801633745 -0.317985803 0.218748361
v -0.0367134102 -0.361434311 0.218748361
v -0.0366875492 -0.361357123 0.499998659
v 0.0367135517 -0.361434132 0.218748361
v 0.0366875082 -0.361356795 0.499998629
v 0.0801640078 -0.317985862 0.218748376
v 0.0801074952 -0.317937076 0.499998659
v -0.0801067203 -0.244562596 0.499999344
v -0.0801630393 -0.244562998 0.218749046
v -0.0801633745 -0.317985803 0.218748361
v -0.0801070556 -0.317936987 0.499998659
v -0.0366872214 -0.201142788 0.499999344
v -0.0801630393 -0.244562998 0.218749046
v -0.0801067203 -0.244562596 0.499999344
v -0.0367130674 -0.20111458 0.218749046
v 0.036687009 -0.201142952 0.499998659
v 0.0367130563 -0.201114759 0.218748376
v 0.0801074952 -0.244562671 0.499997973
v 0.0801640078 -0.244563058 0.21874769
v 0.0801074952 -0.317937076 0.499998659
v 0.0801640078 -0.317985862 0.218748376
v 0.0801640078 -0.244563058 0.21874769
v 0.0801074952 -0.244562671 0.499997973
v -0.105187722 -0.393428475 0.0712321848
v -0.105187722 -0.393428475 -0.0712182298
v -0.111350909 -0.386674613 -0.0712182298
v -0.111350909 -0.386674762 0.0712319911
v -0.071225062 -0.393428475 -0.105180547
v 0.0712249652 -0.393428534 -0.105180591
v 0.0712239891 -0.386674404 -0.110913426
v -0.0712260306 -0.386674404 -0.110913426
v 0.105187424 -0.393428475 -0.0712182298
v 0.105187424 -0.393428475 0.0712321848
v 0.111350611 -0.386674523 0.0712319911
v 0.111350611 -0.386674613 -0.0712182298
v 0.0712249652 -0.393428475 0.105194449
v -0.071225062 -0.393428475 0.105194449
v -0.0712254494 -0.386674523 0.111808181
v 0.0712247714 -0.386674523 0.111808181
v -0.071225062 -0.170420066 0.105194263
v 0.0712249652 -0.170420066 0.105194263
v 0.0712247714 -0.176299542 0.111808181
v -0.0712252557 -0.176299602 0.111808091
v 0.10518723 -0.17042014 0.0712319836
v 0.10518723 -0.17042011 -0.0712182298
v 0.111350037 -0.176299706 -0.0712182298
v 0.111350037 -0.176299706 0.0712319836
v 0.0712249652 -0.17042011 -0.105180688
v -0.071225062 -0.17042011 -0.105180688
v -0.0712260306 -0.176299408 -0.110913426
v 0.0712239891 -0.176299408 -0.110913426
v -0.105187722 -0.17042011 -0.0712182298
v -0.105187722 -0.17042011 0.0712319836
v -0.111350909 -0.176299706 0.0712319836
v -0.111350909 -0.176299706 -0.0712183267
v 0.111350611 -0.21026212 0.105194263
v 0.111350611 -0.352712125 0.105194263
v 0.105187029 -0.352712095 0.111808181
v 0.105187029 -0.21026206 0.111808181
v -0.111350909 -0.352712244 0.105194263
v -0.111350909 -0.210262179 0.105194248
v -0.105188102 -0.21026206 0.111808181
v -0.105188102 -0.352712095 0.111808181
v 0.111350611 -0.352712125 -0.105180688
v 0.111350611 -0.210262105 -0.105180688
v 0.105186462 -0.210261911 -0.110913381
v 0.105186462 -0.352711856 -0.110913426
v -0.111350909 -0.210262179 -0.105180643
v -0.111350909 -0.352712244 -0.105180643
v -0.105188489 -0.352711856 -0.110913426
v -0.105188489 -0.210261911 -0.110913426
v -0.071225062 -0.393428475 -0.105180547
v 0.0712249652 -0.424978554 -0.105186597
v 0.0712249652 -0.393428534 -0.105180591
v -0.0712248608 -0.424978554 -0.105186597
v -0.105187722 -0.393428475 -0.0712182298
v -0.10518752 -0.424978554 -0.0712243319
v -0.105187722 -0.393428475 0.0712321848
v -0.10518752 -0.424978554 0.0712259859
v -0.0712248608 -0.424978554 0.105188347
v -0.071225062 -0.393428475 0.105194449
v 0.0712249652 -0.393428475 0.105194449
v 0.0712249652 -0.424978554 0.105188347
v 0.105187424 -0.393428475 0.0712321848
v 0.105187424 -0.424978554 0.0712259859
v 0.105187424 -0.393428475 -0.0712182298
v 0.105187424 -0.424978554 -0.0712243319
v 0.0712249652 -0.393428534 -0.105180591
v 0.0712249652 -0.424978554 -0.105186597
v -0.0594315939 -0.431596905 -0.119561933
v 0.0589336567 -0.51154989 -0.118560098
v 0.0594316907 -0.431596905 -0.119561933
v -0.0589339547 -0.51154989 -0.118560098
v -0.119562611 -0.431596905 -0.0594309606
v -0.11856132 -0.51154989 -0.0589327402
v -0.119562611 -0.431596905 0.0594327152
v -0.11856132 -0.51154989 0.0589348786
v -0.0594315939 -0.431596905 0.119563729
v -0.0589339547 -0.51154989 0.118562236
v 0.0594316907 -0.431596905 0.119563729
v 0.0589336567 -0.51154989 0.118562236
v 0.119562909 -0.431596905 0.0594327152
v 0.118560828 -0.51154989 0.0589348786
v 0.119562909 -0.431596905 -0.0594309606
v 0.118560828 -0.51154989 -0.0589327402
v 0.0594316907 -0.431596905 -0.119561933
v 0.0589336567 -0.51154989 -0.118560098
v 0.0926988423 -0.510012329 -0.0506779104
v 0.0741218776 -0.355622679 0.0405593477
v 0.0926988423 -0.510012329 0.0506799482
v 0.074122265 -0.355622619 -0.0405183583
v 0.0506785437 -0.510012329 -0.0926981717
v 0.0405380763 -0.355622679 -0.0741014853
v -0.0506792255 -0.510012329 -0.0926981717
v -0.0405399166 -0.355622828 -0.0741033256
v -0.092699334 -0.510012329 -0.0506778136
v -0.0741221681 -0.355622888 -0.0405171961
v -0.092699334 -0.510012329 0.0506799482
v -0.0741221681 -0.355622709 0.0405588523
v -0.0506792255 -0.510012329 0.0927002504
v -0.0405373983 -0.355622768 0.0741439238
v 0.0506785437 -0.510012329 0.0927002504
v 0.0405388549 -0.35562256 0.0741439238
v 0.0926988423 -0.510012329 0.0506799482
v 0.0741218776 -0.355622679 0.0405593477
v -0.105188102 -0.21026206 0.111808181
v -0.105189845 -0.352706075 0.144075498
v -0.105188102 -0.352712095 0.111808181
v -0.105189845 -0.21025604 0.144075498
v -0.0712252557 -0.176299602 0.111808091
v -0.0712271929 -0.176293567 0.144075498
v 0.0712247714 -0.176299542 0.111808181
v 0.0712228343 -0.176293567 0.144075498
v 0.1051853 -0.21025604 0.144075498
v 0.105187029 -0.21026206 0.111808181
v 0.105187029 -0.352712095 0.111808181
v 0.1051853 -0.352706075 0.144075498
v 0.0712247714 -0.386674523 0.111808181
v 0.0712228343 -0.386668533 0.144075498
v -0.0712254494 -0.386674523 0.111808181
v -0.0712271929 -0.386668533 0.144075498
v -0.105188102 -0.352712095 0.111808181
v -0.105189845 -0.352706075 0.144075498
v -0.119564928 -0.222049326 0.150781214
v -0.11856325 -0.340414524 0.229996696
v -0.119564928 -0.340912819 0.150781214
v -0.11856325 -0.222546875 0.229996711
v -0.0594339184 -0.161918297 0.150781199
v -0.0589358881 -0.162919581 0.229996711
v 0.0594295599 -0.161918297 0.150781199
v 0.0589319132 -0.162919581 0.229996711
v 0.119560584 -0.222049326 0.150781214
v 0.118559092 -0.222546875 0.229996711
v 0.119560584 -0.340912819 0.150781214
v 0.118559092 -0.340414524 0.229996696
v 0.0594295599 -0.401043922 0.150781214
v 0.0589319132 -0.400041878 0.229996711
v -0.0594339184 -0.401043922 0.150781214
v -0.0589358881 -0.400041878 0.229996711
v -0.119564928 -0.340912819 0.150781214
v -0.11856325 -0.340414524 0.229996696
v -0.0506809652 -0.37417984 0.228531197
v 0.0405388549 -0.35562256 0.0741439238
v 0.050676804 -0.37417984 0.228531197
v -0.0405373983 -0.355622768 0.0741439238
v -0.0927012637 -0.332159489 0.228531197
v -0.0741225556 -0.322038949 0.0741420761
v -0.0927012637 -0.230801761 0.228531182
v -0.0741229504 -0.240961641 0.0741415024
v -0.0506807715 -0.1887815 0.228531197
v -0.0405383669 -0.207378671 0.0741415024
v 0.050676804 -0.1887815 0.228531197
v 0.0405386575 -0.207378387 0.0741420835
v 0.0926971063 -0.230801806 0.228531197
v 0.0741218776 -0.240961432 0.0741426572
v 0.0926971063 -0.332159489 0.228531197
v 0.0741218776 -0.322038949 0.0741423815
v 0.050676804 -0.37417984 0.228531197
v 0.0405388549 -0.35562256 0.0741439238
v -0.105188489 -0.352711856 -0.110913426
v -0.105190806 -0.21025607 -0.144075125
v -0.105188489 -0.210261911 -0.110913426
v -0.105190806 -0.352706075 -0.144075111
v -0.0712260306 -0.386674404 -0.110913426
v -0.0712283552 -0.386668533 -0.144075111
v 0.0712239891 -0.386674404 -0.110913426
v 0.071221672 -0.386668533 -0.144075111
v 0.105184324 -0.352706075 -0.144075111
v 0.105186462 -0.352711856 -0.110913426
v 0.105186462 -0.210261911 -0.110913381
v 0.105184324 -0.21025607 -0.144075125
v 0.0712239891 -0.176299408 -0.110913426
v 0.071221672 -0.176293597 -0.144075125
v -0.0712260306 -0.176299408 -0.110913426
v -0.0712283552 -0.176293597 -0.144075125
v -0.105188489 -0.210261911 -0.110913426
v -0.105190806 -0.21025607 -0.144075125
v -0.119566098 -0.340912759 -0.150780961
v -0.118564412 -0.222547501 -0.229996517
v -0.119566098 -0.222049341 -0.150780961
v -0.118564412 -0.34041521 -0.229996517
v -0.0594350807 -0.401043832 -0.150780961
v -0.0589370541 -0.400042534 -0.229996517
v 0.0594283938 -0.401043832 -0.150780961
v 0.0589305572 -0.400042534 -0.229996517
v 0.119559422 -0.340912759 -0.150780961
v 0.11855793 -0.34041521 -0.229996517
v 0.119559422 -0.222049341 -0.150780961
v 0.11855793 -0.222547501 -0.229996517
v 0.0594283938 -0.161918163 -0.150780961
v 0.0589305572 -0.162920356 -0.229996517
v -0.0594350807 -0.161918163 -0.150780961
v -0.0589370541 -0.162920356 -0.229996517
v -0.119566098 -0.222049341 -0.150780961
v -0.118564412 -0.222547501 -0.229996517
v -0.0506821275 -0.188782364 -0.228530914
v 0.0405382738 -0.207377985 -0.0741026476
v 0.050675638 -0.188782364 -0.228530914
v -0.0405383669 -0.207378075 -0.0741023496
v -0.092702426 -0.230802566 -0.228530914
v -0.0741211995 -0.240961522 -0.0741023496
v -0.092702426 -0.332160324 -0.228530914
v -0.0741227493 -0.322039098 -0.0741025507
v -0.0506819338 -0.374180585 -0.228530914
v -0.0405399166 -0.355622828 -0.0741033256
v 0.050675638 -0.374180585 -0.228530914
v 0.0405380763 -0.355622679 -0.0741014853
v 0.0926959366 -0.332160324 -0.228530914
v 0.0741220713 -0.322038949 -0.0741020665
v 0.0926959366 -0.230802566 -0.228530914
v 0.074122265 -0.240961835 -0.0741020665
v 0.050675638 -0.188782364 -0.228530914
v 0.0405382738 -0.207377985 -0.0741026476
v 0.074122265 -0.207378209 0.0405587666
v -0.0405383669 -0.207378671 0.0741415024
v 0.0405386575 -0.207378387 0.0741420835
v -0.0741221681 -0.207378179 0.0405587666
v -0.0741221681 -0.207378179 -0.0405184552
v 0.074122265 -0.207378313 -0.0405183583
v 0.0405382738 -0.207377985 -0.0741026476
v -0.0405383669 -0.207378075 -0.0741023496
v 0.0741218776 -0.355622679 0.0405593477
v 0.0741218776 -0.240961432 0.0741426572
v 0.0741218776 -0.322038949 0.0741423815
v 0.074122265 -0.207378209 0.0405587666
v 0.074122265 -0.207378313 -0.0405183583
v 0.074122265 -0.355622619 -0.0405183583
v 0.0741220713 -0.322038949 -0.0741020665
v 0.074122265 -0.240961835 -0.0741020665
v -0.0741221681 -0.355622888 -0.0405171961
v -0.0741211995 -0.240961522 -0.0741023496
v -0.0741227493 -0.322039098 -0.0741025507
v -0.0741221681 -0.207378179 -0.0405184552
v -0.0741221681 -0.207378179 0.0405587666
v -0.0741221681 -0.355622709 0.0405588523
v -0.0741225556 -0.322038949 0.0741420761
v -0.0741229504 -0.240961641 0.0741415024
v -0.111350909 -0.386674613 -0.0712182298
v -0.118583791 -0.328756392 0.0472759791
v -0.111350909 -0.386674762 0.0712319911
v -0.111350909 -0.352712244 0.105194263
v -0.118583791 -0.328756362 -0.0472623259
v -0.111350909 -0.352712244 -0.105180643
v -0.111350909 -0.210262179 -0.105180643
v -0.118583791 -0.234218016 0.0472759902
v -0.111350909 -0.210262179 0.105194248
v -0.111350909 -0.176299706 0.0712319836
v -0.118583791 -0.234218016 -0.0472623296
v -0.111350909 -0.176299706 -0.0712183267
v 0.111350611 -0.386674523 0.0712319911
v 0.118583888 -0.328756094 -0.0472623259
v 0.111350611 -0.386674613 -0.0712182298
v 0.111350611 -0.352712125 -0.105180688
v 0.118583694 -0.328756094 0.0472759791
v 0.111350611 -0.352712125 0.105194263
v 0.111350611 -0.21026212 0.105194263
v 0.118583888 -0.234217852 -0.0472623296
v 0.111350611 -0.210262105 -0.105180688
v 0.111350037 -0.176299706 -0.0712182298
v 0.118583694 -0.234217852 0.0472759902
v 0.111350037 -0.176299706 0.0712319836
v 0.10518723 -0.17042014 0.0712319836
v 0.0472690612 -0.163177103 -0.0472623296
v 0.10518723 -0.17042011 -0.0712182298
v 0.0712249652 -0.17042011 -0.105180688
v 0.0472690612 -0.163177118 0.0472759902
v 0.0712249652 -0.170420066 0.105194263
v -0.071225062 -0.170420066 0.105194263
v -0.0472693518 -0.163177103 -0.0472623296
v -0.071225062 -0.17042011 -0.105180688
v -0.105187722 -0.17042011 -0.0712182298
v -0.0472693518 -0.163177118 0.0472759902
v -0.105187722 -0.17042011 0.0712319836
v -0.111350909 -0.176299706 -0.0712183267
v -0.111350909 -0.210262179 -0.105180643
v -0.0963729471 -0.185114205 -0.0963661522
v -0.105187722 -0.17042011 -0.0712182298
v -0.105188489 -0.210261911 -0.110913426
v -0.071225062 -0.17042011 -0.105180688
v -0.0712260306 -0.176299408 -0.110913426
v 0.0963728502 -0.185114205 -0.0963661522
v 0.111350037 -0.176299706 -0.0712182298
v 0.10518723 -0.17042011 -0.0712182298
v 0.111350611 -0.210262105 -0.105180688
v 0.0712249652 -0.17042011 -0.105180688
v 0.105186462 -0.210261911 -0.110913381
v 0.0712239891 -0.176299408 -0.110913426
v -0.0712260306 -0.386674404 -0.110913426
v -0.105188489 -0.352711856 -0.110913426
v -0.0963729471 -0.377860099 -0.0963661522
v -0.071225062 -0.393428475 -0.105180547
v -0.111350909 -0.352712244 -0.105180643
v -0.105187722 -0.393428475 -0.0712182298
v -0.111350909 -0.386674613 -0.0712182298
v 0.105186462 -0.352711856 -0.110913426
v 0.0712239891 -0.386674404 -0.110913426
v 0.0963728502 -0.377860099 -0.0963661522
v 0.111350611 -0.352712125 -0.105180688
v 0.0712249652 -0.393428534 -0.105180591
v 0.111350611 -0.386674613 -0.0712182298
v 0.105187424 -0.393428475 -0.0712182298
v -0.105188102 -0.352712095 0.111808181
v -0.0963729471 -0.377860099 0.0963797718
v -0.111350909 -0.352712244 0.105194263
v -0.0712254494 -0.386674523 0.111808181
v -0.111350909 -0.386674762 0.0712319911
v -0.071225062 -0.393428475 0.105194449
v -0.105187722 -0.393428475 0.0712321848
v -0.0963729471 -0.185114205 0.0963797644
v -0.0712252557 -0.176299602 0.111808091
v -0.105188102 -0.21026206 0.111808181
v -0.111350909 -0.210262179 0.105194248
v -0.071225062 -0.170420066 0.105194263
v -0.111350909 -0.176299706 0.0712319836
v -0.105187722 -0.17042011 0.0712319836
v 0.0963728502 -0.185114205 0.0963797644
v 0.0712247714 -0.176299542 0.111808181
v 0.0712249652 -0.170420066 0.105194263
v 0.105187029 -0.21026206 0.111808181
v 0.10518723 -0.17042014 0.0712319836
v 0.111350611 -0.21026212 0.105194263
v 0.111350037 -0.176299706 0.0712319836
v 0.0712247714 -0.386674523 0.111808181
v 0.105187029 -0.352712095 0.111808181
v 0.0963728502 -0.377860099 0.0963797718
v 0.0712249652 -0.393428475 0.105194449
v 0.111350611 -0.352712125 0.105194263
v 0.105187424 -0.393428475 0.0712321848
v 0.111350611 -0.386674523 0.0712319911
v -0.118564412 -0.34041521 -0.229996517
v -0.092702426 -0.230802566 -0.228530914
v -0.118564412 -0.222547501 -0.229996517
v -0.092702426 -0.332160324 -0.228530914
v -0.0506821275 -0.188782364 -0.228530914
v -0.0589370541 -0.400042534 -0.229996517
v -0.0589370541 -0.162920356 -0.229996517
v -0.0506819338 -0.374180585 -0.228530914
v 0.050675638 -0.188782364 -0.228530914
v 0.0589305572 -0.400042534 -0.229996517
v 0.0589305572 -0.162920356 -0.229996517
v 0.050675638 -0.374180585 -0.228530914
v 0.0926959366 -0.230802566 -0.228530914
v 0.11855793 -0.34041521 -0.229996517
v 0.11855793 -0.222547501 -0.229996517
v 0.0926959366 -0.332160324 -0.228530914
v -0.105190806 -0.352706075 -0.144075111
v -0.119566098 -0.222049341 -0.150780961
v -0.105190806 -0.21025607 -0.144075125
v -0.119566098 -0.340912759 -0.150780961
v -0.0594350807 -0.161918163 -0.150780961
v -0.0712283552 -0.386668533 -0.144075111
v -0.0712283552 -0.176293597 -0.144075125
v -0.0594350807 -0.401043832 -0.150780961
v 0.0594283938 -0.161918163 -0.150780961
v 0.071221672 -0.386668533 -0.144075111
v 0.071221672 -0.176293597 -0.144075125
v 0.0594283938 -0.401043832 -0.150780961
v 0.119559422 -0.222049341 -0.150780961
v 0.105184324 -0.352706075 -0.144075111
v 0.105184324 -0.21025607 -0.144075125
v 0.119559422 -0.340912759 -0.150780961
v -0.11856325 -0.222546875 0.229996711
v -0.0927012637 -0.332159489 0.228531197
v -0.11856325 -0.340414524 0.229996696
v -0.0927012637 -0.230801761 0.228531182
v -0.0506809652 -0.37417984 0.228531197
v -0.0589358881 -0.162919581 0.229996711
v -0.0589358881 -0.400041878 0.229996711
v -0.0506807715 -0.1887815 0.228531197
v 0.050676804 -0.37417984 0.228531197
v 0.0589319132 -0.162919581 0.229996711
v 0.0589319132 -0.400041878 0.229996711
v 0.050676804 -0.1887815 0.228531197
v 0.0926971063 -0.332159489 0.228531197
v 0.118559092 -0.222546875 0.229996711
v 0.118559092 -0.340414524 0.229996696
v 0.0926971063 -0.230801806 0.228531197
v -0.105189845 -0.21025604 0.144075498
v -0.119564928 -0.340912819 0.150781214
v -0.105189845 -0.352706075 0.144075498
v -0.119564928 -0.222049326 0.150781214
v -0.0594339184 -0.401043922 0.150781214
v -0.0712271929 -0.176293567 0.144075498
v -0.0712271929 -0.386668533 0.144075498
v -0.0594339184 -0.161918297 0.150781199
v 0.0594295599 -0.401043922 0.150781214
v 0.0712228343 -0.176293567 0.144075498
v 0.0712228343 -0.386668533 0.144075498
v 0.0594295599 -0.161918297 0.150781199
v 0.119560584 -0.340912819 0.150781214
v 0.1051853 -0.21025604 0.144075498
v 0.1051853 -0.352706075 0.144075498
v 0.119560584 -0.222049326 0.150781214
v -0.0589339547 -0.51154989 -0.118560098
v 0.0506785437 -0.510012329 -0.0926981717
v 0.0589336567 -0.51154989 -0.118560098
v -0.0506792255 -0.510012329 -0.0926981717
v 0.0926988423 -0.510012329 -0.0506779104
v -0.11856132 -0.51154989 -0.0589327402
v 0.118560828 -0.51154989 -0.0589327402
v -0.092699334 -0.510012329 -0.0506778136
v 0.0926988423 -0.510012329 0.0506799482
v -0.11856132 -0.51154989 0.0589348786
v 0.118560828 -0.51154989 0.0589348786
v -0.092699334 -0.510012329 0.0506799482
v 0.0506785437 -0.510012329 0.0927002504
v -0.0589339547 -0.51154989 0.118562236
v 0.0589336567 -0.51154989 0.118562236
v -0.0506792255 -0.510012329 0.0927002504
v -0.0712248608 -0.424978554 -0.105186597
v 0.0594316907 -0.431596905 -0.119561933
v 0.0712249652 -0.424978554 -0.105186597
v -0.0594315939 -0.431596905 -0.119561933
v 0.119562909 -0.431596905 -0.0594309606
v -0.10518752 -0.424978554 -0.0712243319
v 0.105187424 -0.424978554 -0.0712243319
v -0.119562611 -0.431596905 -0.0594309606
v 0.119562909 -0.431596905 0.0594327152
v -0.10518752 -0.424978554 0.0712259859
v 0.105187424 -0.424978554 0.0712259859
v -0.119562611 -0.431596905 0.0594327152
v 0.0594316907 -0.431596905 0.119563729
v -0.0712248608 -0.424978554 0.105188347
v 0.0712249652 -0.424978554 0.105188347
v -0.0594315939 -0.431596905 0.119563729
v -0.107020408 -0.330262631 -0.500001431
v -0.0803183541 -0.244690314 -0.500000775
v -0.107020728 -0.232236817 -0.500000775
v -0.0803185031 -0.318258941 -0.500000775
v -0.0367837176 -0.206253424 -0.500000775
v -0.0490125939 -0.388270766 -0.500000775
v -0.0490127653 -0.174228936 -0.50000006
v -0.036783874 -0.361793518 -0.500000775
v 0.0367845632 -0.206253424 -0.500000775
v 0.0490126014 -0.388270766 -0.500001431
v 0.0490134247 -0.174228936 -0.50000006
v 0.0367843956 -0.361793518 -0.500000775
v 0.080319196 -0.247025296 -0.500000775
v 0.107021399 -0.330263048 -0.500000775
v 0.107021227 -0.232236624 -0.50000006
v 0.080319196 -0.315924823 -0.500000775
v -0.107020594 -0.232236966 0.499998659
v -0.0801067203 -0.244562596 0.499999344
v -0.0801070556 -0.317936987 0.499998659
v -0.107020594 -0.33026287 0.499998659
v -0.0490131192 -0.174228802 0.499998659
v -0.0366875492 -0.361357123 0.499998659
v -0.0366872214 -0.201142788 0.499999344
v -0.049012959 -0.388270855 0.499998629
v 0.0490134023 -0.174228802 0.499997973
v 0.0366875082 -0.361356795 0.499998629
v 0.036687009 -0.201142952 0.499998659
v 0.0490130708 -0.388270676 0.499999315
v 0.10702087 -0.232236564 0.499998629
v 0.0801074952 -0.317937076 0.499998659
v 0.0801074952 -0.244562671 0.499997973
v 0.107020698 -0.330262989 0.499999315
vt 0.317142308 0.908251464
vt 0.331009269 0.908251584
vt 0.317142308 0.922118366
vt 0.331010252 0.908236563
vt 0.317143321 0.922103465
vt 0.317143321 0.908236563
vt 0.317142427 0.922103465
vt 0.331009269 0.908236563
vt 0.317142427 0.908236444
vt 0.317143321 0.908251584
vt 0.317143321 0.922118604
vt 0.331010252 0.908251584
vt 0.317142308 0.922118604
vt 0.317142308 0.908251584
vt 0.331009269 0.908251584
vt 0.331009269 0.908236563
vt 0.317142427 0.908236563
vt 0.317142427 0.922103465
vt 0.317143321 0.922103465
vt 0.317143321 0.908236444
vt 0.331010371 0.908236563
vt 0.331009269 0.908236444
vt 0.317142308 0.908236563
vt 0.317142308 0.922103465
vt 0.613810122 0.699517131
vt 0.596092403 0.654179931
vt 0.613810122 0.654180169
vt 0.596092403 0.699517131
vt 0.580640495 0.654179931
vt 0.580640495 0.699517131
vt 0.496558607 0.69951725
vt 0.481140107 0.699517131
vt 0.481140107 0.654180169
vt 0.496558607 0.654180586
vt 0.514164567 0.69951725
vt 0.496558607 0.69951725
vt 0.496558607 0.654180586
vt 0.514164567 0.654181123
vt 0.52949959 0.69951725
vt 0.514164567 0.69951725
vt 0.514164567 0.654181123
vt 0.52949959 0.654181361
vt 0.547487676 0.69951725
vt 0.547487676 0.654181898
vt 0.563011706 0.69951725
vt 0.563011706 0.654182017
vt 0.580640495 0.69951725
vt 0.563011706 0.69951725
vt 0.563011706 0.654182017
vt 0.580640495 0.654182136
vt 0.471746385 0.731043339
vt 0.459042341 0.776300192
vt 0.471728832 0.776301861
vt 0.459042281 0.731043339
vt 0.447235525 0.776299775
vt 0.447235465 0.731043339
vt 0.4338485 0.776299238
vt 0.4338485 0.731043339
vt 0.384338289 0.731043339
vt 0.372773349 0.731043339
vt 0.372784823 0.776296854
vt 0.384338289 0.776295841
vt 0.397736907 0.731043339
vt 0.384338289 0.731043339
vt 0.384338289 0.776295841
vt 0.397736907 0.776296377
vt 0.40953815 0.731043339
vt 0.40953815 0.776296616
vt 0.422213614 0.731043339
vt 0.422213614 0.776297987
vt 0.4338485 0.731043339
vt 0.422213614 0.731043339
vt 0.422213614 0.776297987
vt 0.4338485 0.776299238
vt 0.613810122 0.699517012
vt 0.613810122 0.65418005
vt 0.596092403 0.65418005
vt 0.596092403 0.69951725
vt 0.580640495 0.65418005
vt 0.580640495 0.69951725
vt 0.496558607 0.699516594
vt 0.496558607 0.654179931
vt 0.481140107 0.65418005
vt 0.481140107 0.699517012
vt 0.514164567 0.699516058
vt 0.514164567 0.654179931
vt 0.496558607 0.654179931
vt 0.496558607 0.699516594
vt 0.52949959 0.69951582
vt 0.514164567 0.654179931
vt 0.514164567 0.699516058
vt 0.52949959 0.654179931
vt 0.547487676 0.699515283
vt 0.547487676 0.654179931
vt 0.563011706 0.699515164
vt 0.563011706 0.654179931
vt 0.580640495 0.699515045
vt 0.580640495 0.654179931
vt 0.563011706 0.654179931
vt 0.563011706 0.699515164
vt 0.459042341 0.776300192
vt 0.459042281 0.731043339
vt 0.447235465 0.731043339
vt 0.447235525 0.776299775
vt 0.4338485 0.731043339
vt 0.4338485 0.776299238
vt 0.422213614 0.731043339
vt 0.422213614 0.776297987
vt 0.471728832 0.776301861
vt 0.471746385 0.731043339
vt 0.459042281 0.731043339
vt 0.459042341 0.776300192
vt 0.384338289 0.776295841
vt 0.372773349 0.731043339
vt 0.372784823 0.776296854
vt 0.384338289 0.731043339
vt 0.397736907 0.776296377
vt 0.397736907 0.731043339
vt 0.40953815 0.776296616
vt 0.40953815 0.731043339
vt 0.422213614 0.776297987
vt 0.422213614 0.731043339
vt 0.40953815 0.731043339
vt 0.40953815 0.776296616
vt 0.268938422 0.891358078
vt 0.26894024 0.953513324
vt 0.279514015 0.953507304
vt 0.279514015 0.891358078
vt 0.268938422 0.891358078
vt 0.26894024 0.953513324
vt 0.279514015 0.953507304
vt 0.279514015 0.891358078
vt 0.268938422 0.891358078
vt 0.26894024 0.953513324
vt 0.279514015 0.953507304
vt 0.279514015 0.891358078
vt 0.268938422 0.891358078
vt 0.26894024 0.953513324
vt 0.279514015 0.953507304
vt 0.279514015 0.891358078
vt 0.279514015 0.953507304
vt 0.279514015 0.891358078
vt 0.268938422 0.891358078
vt 0.26894024 0.953513324
vt 0.279514134 0.953506827
vt 0.279514015 0.891358078
vt 0.268938422 0.891358078
vt 0.268941134 0.953503728
vt 0.279513896 0.953506708
vt 0.279514015 0.891358078
vt 0.268938422 0.891358078
vt 0.268936336 0.953500807
vt 0.279513896 0.953507066
vt 0.279514015 0.891358078
vt 0.268938422 0.891358078
vt 0.268935919 0.953509569
vt 0.268938422 0.891358078
vt 0.268941134 0.953503728
vt 0.279514134 0.953506827
vt 0.279514015 0.891358078
vt 0.279514134 0.953506827
vt 0.279514015 0.891358078
vt 0.268938422 0.891358078
vt 0.268941134 0.953503728
vt 0.268938422 0.891358078
vt 0.268935919 0.953509569
vt 0.279513896 0.953507066
vt 0.279514015 0.891358078
vt 0.268938422 0.891358078
vt 0.268941134 0.953503728
vt 0.279514134 0.953506827
vt 0.279514015 0.891358078
vt 0.252471089 0.974590302
vt 0.20936656 0.965397239
vt 0.20936656 0.974590302
vt 0.252471089 0.965397239
vt 0.266244501 0.974590302
vt 0.266244501 0.965397239
vt 0.30934909 0.974590302
vt 0.30934909 0.965397239
vt 0.323122621 0.965397239
vt 0.323122621 0.974590302
vt 0.366227031 0.974590302
vt 0.366227031 0.965397239
vt 0.380000532 0.974590302
vt 0.380000532 0.965397239
vt 0.42310515 0.974590302
vt 0.42310515 0.965397239
vt 0.436878592 0.974590302
vt 0.436878592 0.965397239
vt 0.247345641 0.964497328
vt 0.213938221 0.955742359
vt 0.213938102 0.964497328
vt 0.24734579 0.955742359
vt 0.270816177 0.964497328
vt 0.270816356 0.955742359
vt 0.304223657 0.964497328
vt 0.304223657 0.955742359
vt 0.327694058 0.964497328
vt 0.327694058 0.955742359
vt 0.361101598 0.964497328
vt 0.361101478 0.955742359
vt 0.384572208 0.964497328
vt 0.384572089 0.955742359
vt 0.417979658 0.964497328
vt 0.417979658 0.955742359
vt 0.441450149 0.964497328
vt 0.441450268 0.955742359
vt 0.468411714 0.968218744
vt 0.438622564 0.973290145
vt 0.459192038 0.986139536
vt 0.445997238 0.958955884
vt 0.472386032 0.957088709
vt 0.449173003 0.950063884
vt 0.476600021 0.93737632
vt 0.452542752 0.934303105
vt 0.477522522 0.925597489
vt 0.453279614 0.92488569
vt 0.476447344 0.90547955
vt 0.452420145 0.908780277
vt 0.47427395 0.893869102
vt 0.450682074 0.899493933
vt 0.467989922 0.874722481
vt 0.445655167 0.884175956
vt 0.462858468 0.864079773
vt 0.44155398 0.87566942
vt 0.252471089 0.974590302
vt 0.20936656 0.965397239
vt 0.20936656 0.974590302
vt 0.252471089 0.965397239
vt 0.266244501 0.974590302
vt 0.266244501 0.965397239
vt 0.30934909 0.974590302
vt 0.30934909 0.965397239
vt 0.323122621 0.965397239
vt 0.323122621 0.974590302
vt 0.366227031 0.974590302
vt 0.366227031 0.965397239
vt 0.380000532 0.974590302
vt 0.380000532 0.965397239
vt 0.42310515 0.974590302
vt 0.42310515 0.965397239
vt 0.436878592 0.974590302
vt 0.436878592 0.965397239
vt 0.247345641 0.964497328
vt 0.213938221 0.955742359
vt 0.213938102 0.964497328
vt 0.24734579 0.955742359
vt 0.270816177 0.964497328
vt 0.270816356 0.955742359
vt 0.304223657 0.964497328
vt 0.304223657 0.955742359
vt 0.327694058 0.964497328
vt 0.327694058 0.955742359
vt 0.361101598 0.964497328
vt 0.361101478 0.955742359
vt 0.384572208 0.964497328
vt 0.384572089 0.955742359
vt 0.417979658 0.964497328
vt 0.417979658 0.955742359
vt 0.441450149 0.964497328
vt 0.441450268 0.955742359
vt 0.468411714 0.968218744
vt 0.438622564 0.973290145
vt 0.459192038 0.986139536
vt 0.445997238 0.958955884
vt 0.472386032 0.957088709
vt 0.449173003 0.950063884
vt 0.476600021 0.93737632
vt 0.452542752 0.934303105
vt 0.477522522 0.925597489
vt 0.453279614 0.92488569
vt 0.476447344 0.90547955
vt 0.452420145 0.908780277
vt 0.47427395 0.893869102
vt 0.450682074 0.899493933
vt 0.467989922 0.874722481
vt 0.445655167 0.884175956
vt 0.462858468 0.864079773
vt 0.44155398 0.87566942
vt 0.252471089 0.974590302
vt 0.20936656 0.965397239
vt 0.20936656 0.974590302
vt 0.252471089 0.965397239
vt 0.266244501 0.974590302
vt 0.266244501 0.965397239
vt 0.30934909 0.974590302
vt 0.30934909 0.965397239
vt 0.323122621 0.965397239
vt 0.323122621 0.974590302
vt 0.366227031 0.974590302
vt 0.366227031 0.965397239
vt 0.380000532 0.974590302
vt 0.380000532 0.965397239
vt 0.42310515 0.974590302
vt 0.42310515 0.965397239
vt 0.436878592 0.974590302
vt 0.436878592 0.965397239
vt 0.247345641 0.964497328
vt 0.213938221 0.955742359
vt 0.213938102 0.964497328
vt 0.24734579 0.955742359
vt 0.270816177 0.964497328
vt 0.270816356 0.955742359
vt 0.304223657 0.964497328
vt 0.304223657 0.955742359
vt 0.327694058 0.964497328
vt 0.327694058 0.955742359
vt 0.361101598 0.964497328
vt 0.361101478 0.955742359
vt 0.384572208 0.964497328
vt 0.384572089 0.955742359
vt 0.417979658 0.964497328
vt 0.417979658 0.955742359
vt 0.441450149 0.964497328
vt 0.441450268 0.955742359
vt 0.468411714 0.968218744
vt 0.438622564 0.973290145
vt 0.459192038 0.986139536
vt 0.445997238 0.958955884
vt 0.472386032 0.957088709
vt 0.449173003 0.950063884
vt 0.476600021 0.93737632
vt 0.452542752 0.934303105
vt 0.477522522 0.925597489
vt 0.453279614 0.92488569
vt 0.476447344 0.90547955
vt 0.452420145 0.908780277
vt 0.47427395 0.893869102
vt 0.450682074 0.899493933
vt 0.467989922 0.874722481
vt 0.445655167 0.884175956
vt 0.462858468 0.864079773
vt 0.44155398 0.87566942
vt 0.298687547 0.899787009
vt 0.338156849 0.88822639
vt 0.310247809 0.88822639
vt 0.349717259 0.89978689
vt 0.349717259 0.927695811
vt 0.298687547 0.92769593
vt 0.310247809 0.93925631
vt 0.338156849 0.939256191
vt 0.298687547 0.899787009
vt 0.338156849 0.88822639
vt 0.310247809 0.88822639
vt 0.349717259 0.89978689
vt 0.349717259 0.927695811
vt 0.298687547 0.92769593
vt 0.310247809 0.93925631
vt 0.338156849 0.939256191
vt 0.298687547 0.899787009
vt 0.338156849 0.88822639
vt 0.310247809 0.88822639
vt 0.349717259 0.89978689
vt 0.349717259 0.927695811
vt 0.298687547 0.92769593
vt 0.310247809 0.93925631
vt 0.338156849 0.939256191
vt 0.377005488 0.895010531
vt 0.393134177 0.928094923
vt 0.377005368 0.934749305
vt 0.386479884 0.944223881
vt 0.393134296 0.901664853
vt 0.386479884 0.885536075
vt 0.426218718 0.885536075
vt 0.419564307 0.928094923
vt 0.426218718 0.944223881
vt 0.435693115 0.934749305
vt 0.419564307 0.901664853
vt 0.435693115 0.895010531
vt 0.377005488 0.895010531
vt 0.393134177 0.928094923
vt 0.377005368 0.934749305
vt 0.386479884 0.944223881
vt 0.393134296 0.901664853
vt 0.386479884 0.885536075
vt 0.426218718 0.885536075
vt 0.419564307 0.928094923
vt 0.426218718 0.944223881
vt 0.435693115 0.934749305
vt 0.419564307 0.901664853
vt 0.435693115 0.895010531
vt 0.377005488 0.895010531
vt 0.393134177 0.928094923
vt 0.377005368 0.934749305
vt 0.386479884 0.944223881
vt 0.393134296 0.901664853
vt 0.386479884 0.885536075
vt 0.426218718 0.885536075
vt 0.419564307 0.928094923
vt 0.426218718 0.944223881
vt 0.435693115 0.934749305
vt 0.419564307 0.901664853
vt 0.435693115 0.895010531
vt 0.261497974 0.880545616
vt 0.26892221 0.891347826
vt 0.274221241 0.881174326
vt 0.266796887 0.871643722
vt 0.279520035 0.891347706
vt 0.281645387 0.871643722
vt 0.28694436 0.880545616
vt 0.274230659 0.881165028
vt 0.261507541 0.880536079
vt 0.266806573 0.871634126
vt 0.268931746 0.89133817
vt 0.281655014 0.871634126
vt 0.279529393 0.89133817
vt 0.286953807 0.880536079
vt 0.28694436 0.880545616
vt 0.279520035 0.891347706
vt 0.274221241 0.881174326
vt 0.281645387 0.871643722
vt 0.26892221 0.891347826
vt 0.266796887 0.871643722
vt 0.261497974 0.880545616
vt 0.279529393 0.89133817
vt 0.286953807 0.880536079
vt 0.274230659 0.881165028
vt 0.268931746 0.89133817
vt 0.281655014 0.871634126
vt 0.261507541 0.880536079
vt 0.266806573 0.871634126
vt 0.279525787 0.891353488
vt 0.274226874 0.881180227
vt 0.268927962 0.891353488
vt 0.286950022 0.880551219
vt 0.261503756 0.880551219
vt 0.281651109 0.871649444
vt 0.266802609 0.871649444
vt 0.274226874 0.881180227
vt 0.286950022 0.880551219
vt 0.279525787 0.891353488
vt 0.268927962 0.891353488
vt 0.281651109 0.871649444
vt 0.261503756 0.880551219
vt 0.266802609 0.871649444
vt 0.274236441 0.88117063
vt 0.286959559 0.880541861
vt 0.281660646 0.871639907
vt 0.279535294 0.891343951
vt 0.266812295 0.871639907
vt 0.268937528 0.891343951
vt 0.261513144 0.880541861
vt 0.286959559 0.880541861
vt 0.279535294 0.891343951
vt 0.274236441 0.88117063
vt 0.281660646 0.871639907
vt 0.268937528 0.891343951
vt 0.266812295 0.871639907
vt 0.261513144 0.880541861
vt 0.364100158 0.893394113
vt 0.354361862 0.930895507
vt 0.364103407 0.934103668
vt 0.354363412 0.8967278
vt 0.340996891 0.943467677
vt 0.343820125 0.875005841
vt 0.344035804 0.952920258
vt 0.340901464 0.884519875
vt 0.306675315 0.943993032
vt 0.303153813 0.875952244
vt 0.303789288 0.953004897
vt 0.30630061 0.884520113
vt 0.292411089 0.930949092
vt 0.283246428 0.894518018
vt 0.283275187 0.934174776
vt 0.292410046 0.897783577
vt 0.38434124 0.882463813
vt 0.42584905 0.874462545
vt 0.427626759 0.882463813
vt 0.386118889 0.874462545
vt 0.445947915 0.894561231
vt 0.374021322 0.892783701
vt 0.437946677 0.892783701
vt 0.366020143 0.894561231
vt 0.445947915 0.934291363
vt 0.374021322 0.936069191
vt 0.437946677 0.936069191
vt 0.366020143 0.934291363
vt 0.42584905 0.954390347
vt 0.38434124 0.946389079
vt 0.427626759 0.946389079
vt 0.386118889 0.954390347
vt 0.364100158 0.893394113
vt 0.354361862 0.930895507
vt 0.364103407 0.934103668
vt 0.354363412 0.8967278
vt 0.340996891 0.943467677
vt 0.343820125 0.875005841
vt 0.344035804 0.952920258
vt 0.340901464 0.884519875
vt 0.306675315 0.943993032
vt 0.303153813 0.875952244
vt 0.303789288 0.953004897
vt 0.30630061 0.884520113
vt 0.292411089 0.930949092
vt 0.283246428 0.894518018
vt 0.283275187 0.934174776
vt 0.292410046 0.897783577
vt 0.38434124 0.882463813
vt 0.42584905 0.874462545
vt 0.427626759 0.882463813
vt 0.386118889 0.874462545
vt 0.445947915 0.894561231
vt 0.374021322 0.892783701
vt 0.437946677 0.892783701
vt 0.366020143 0.894561231
vt 0.445947915 0.934291363
vt 0.374021322 0.936069191
vt 0.437946677 0.936069191
vt 0.366020143 0.934291363
vt 0.42584905 0.954390347
vt 0.38434124 0.946389079
vt 0.427626759 0.946389079
vt 0.386118889 0.954390347
vt 0.364100158 0.893394113
vt 0.354361862 0.930895507
vt 0.364103407 0.934103668
vt 0.354363412 0.8967278
vt 0.340996891 0.943467677
vt 0.343820125 0.875005841
vt 0.344035804 0.952920258
vt 0.340901464 0.884519875
vt 0.306675315 0.943993032
vt 0.303153813 0.875952244
vt 0.303789288 0.953004897
vt 0.30630061 0.884520113
vt 0.292411089 0.930949092
vt 0.283246428 0.894518018
vt 0.283275187 0.934174776
vt 0.292410046 0.897783577
vt 0.38434124 0.882463813
vt 0.42584905 0.874462545
vt 0.427626759 0.882463813
vt 0.386118889 0.874462545
vt 0.445947915 0.894561231
vt 0.374021322 0.892783701
vt 0.437946677 0.892783701
vt 0.366020143 0.894561231
vt 0.445947915 0.934291363
vt 0.374021322 0.936069191
vt 0.437946677 0.936069191
vt 0.366020143 0.934291363
vt 0.42584905 0.954390347
vt 0.38434124 0.946389079
vt 0.427626759 0.946389079
vt 0.386118889 0.954390347
vt 0.370966941 0.57188797
vt 0.376975656 0.552653372
vt 0.370973378 0.549985707
vt 0.377029538 0.569117963
vt 0.386797488 0.543049812
vt 0.384009123 0.584908068
vt 0.38405329 0.537063956
vt 0.386770427 0.578885496
vt 0.403261989 0.543049812
vt 0.406007677 0.584927022
vt 0.406051993 0.537063956
vt 0.403248549 0.578880787
vt 0.413087606 0.552734494
vt 0.419106424 0.571876824
vt 0.41914618 0.550013006
vt 0.413031459 0.569078445
vt 0.41914618 0.550013006
vt 0.413087606 0.552734494
vt 0.413030922 0.56907779
vt 0.419106424 0.571876824
vt 0.406051993 0.537063956
vt 0.403248549 0.578880787
vt 0.403261989 0.543049812
vt 0.406007677 0.584927022
vt 0.38405329 0.537063956
vt 0.386770427 0.578885496
vt 0.386797488 0.543049812
vt 0.384009123 0.584908068
vt 0.370973378 0.549985707
vt 0.377029538 0.569117963
vt 0.376975656 0.552653372
vt 0.370966941 0.57188797
vn -0.577370822 0.577334106 -0.577345848
vn -0.577370822 0.577334106 -0.577345848
vn -0.577370822 0.577334106 -0.577345848
vn -0.577343285 -0.577356219 -0.577351213
vn -0.577343285 -0.577356219 -0.577351213
vn -0.577343285 -0.577356219 -0.577351213
vn 0.887383997 -0.458014905 -0.0526498146
vn 0.458025217 -0.887381971 -0.0525953323
vn 0.577332199 -0.577359676 -0.577358842
vn 0.577355027 0.577346683 -0.577349126
vn 0.887361467 0.458049327 -0.0527286232
vn 0.887363732 0.0527312458 -0.458044797
vn 0.887366116 0.458039731 0.0527367555
vn 0.565323472 0.583199143 0.583342195
vn 0.887400806 0.0526523441 0.457982093
vn 0.458036065 -0.88737452 0.0526254438
vn 0.887384951 -0.458010465 0.0526705422
vn 0.577354848 -0.577344358 0.57735157
vn -0.887386203 -0.458004594 0.0527016707
vn -0.458039194 -0.887372375 0.0526336581
vn -0.577356219 -0.577348709 0.577345788
vn -0.56531167 0.583185136 0.583367705
vn -0.88735944 0.458048016 0.0527746864
vn -0.887385309 0.0526594594 0.45801127
vn 0.382686436 -0.923878312 -8.08321565E-05
vn -0.38267675 -0.923882365 -8.10027996E-05
vn 0.382672548 -0.923883975 -8.08326586E-05
vn -0.382692546 -0.923875749 -8.10022248E-05
vn -0.707109153 -0.707104325 -6.21674189E-05
vn -0.707109272 -0.707104325 -6.21674189E-05
vn 0.707100034 -0.707113504 -6.18535923E-05
vn 0.382686436 -0.923878312 -8.08321565E-05
vn 0.382672548 -0.923883975 -8.08326586E-05
vn 0.707100034 -0.707113504 -6.18535851E-05
vn 1 1.66799373E-06 0
vn 1 1.66799373E-06 0
vn 1 1.66799373E-06 0
vn 1 1.66799373E-06 0
vn 0.382675469 0.923882902 8.10541751E-05
vn 0.707106113 0.707107425 6.20041174E-05
vn 0.707106054 0.707107425 6.20041174E-05
vn 0.382691324 0.923876286 8.10535785E-05
vn -0.382676721 0.923882246 8.09188641E-05
vn -0.382689387 0.92387706 8.09183912E-05
vn -0.707106769 0.707106829 6.17541373E-05
vn -0.707106769 0.707106829 6.17541227E-05
vn -1 -3.39778512E-06 0
vn -1 -3.39778558E-06 0
vn -1 -3.39778558E-06 0
vn -1 -3.39778558E-06 0
vn 0.707114339 0.70709914 -0.000138337025
vn 0.382678181 0.92388165 -0.000129030101
vn 0.707114339 0.70709914 -0.000138337025
vn 0.382699192 0.923873007 -0.00012903125
vn -0.394705027 0.918807924 -0.000130625645
vn -0.394725859 0.918798864 -0.000130626766
vn -0.72533232 0.688398957 -0.000139959462
vn -0.72533226 0.688398957 -0.000139959448
vn 1 -2.14091506E-06 -0.00020028952
vn 1 -2.14091506E-06 -0.00020028952
vn 1 -2.14091506E-06 -0.00020028952
vn 1 -2.1409146E-06 -0.00020028952
vn 0.353805512 -0.935318947 -0.000288745505
vn 0.661845922 -0.749639869 -0.000264960603
vn 0.661845922 -0.749639869 -0.000264960603
vn 0.353810191 -0.935317159 -0.000288745417
vn -0.367496699 -0.930024803 -0.000289714284
vn -0.367503524 -0.93002212 -0.000289714197
vn -0.683567345 -0.729887307 -0.000263705006
vn -0.683567464 -0.729887307 -0.000263705006
vn -1 0 -0.000200289345
vn -1 0 -0.000200289345
vn -1 0 -0.000200289345
vn -1 0 -0.000200289345
vn 0.382692754 -0.92387563 8.10007987E-05
vn 0.382676303 -0.923882484 8.10013735E-05
vn -0.382677615 -0.923881948 8.02148861E-05
vn -0.382691294 -0.923876286 8.02143695E-05
vn -0.707109809 -0.70710367 6.08840382E-05
vn -0.707109809 -0.70710367 6.08840382E-05
vn 0.707107067 -0.707106471 6.23374508E-05
vn 0.707107008 -0.707106471 6.23374508E-05
vn 0.382676303 -0.923882484 8.10013735E-05
vn 0.382692754 -0.92387563 8.10007987E-05
vn 1 -1.72976638E-06 7.32233502E-07
vn 1 -1.7297665E-06 7.32233502E-07
vn 1 -1.72976638E-06 7.32233502E-07
vn 1 -1.7297665E-06 7.32233389E-07
vn 0.382677019 0.923882186 -8.0548074E-05
vn 0.707108438 0.707105041 -6.13274824E-05
vn 0.707108438 0.707105041 -6.13274897E-05
vn 0.382692128 0.923875868 -8.05475065E-05
vn -0.382680327 0.923880816 -8.13237639E-05
vn -0.38269341 0.923875332 -8.13232909E-05
vn -0.707112074 0.707101464 -6.27607078E-05
vn -0.707112074 0.707101464 -6.27607078E-05
vn -1 0 -1.89480068E-06
vn -1 0 -1.89480068E-06
vn -1 0 -1.89480068E-06
vn -1 0 -1.89480068E-06
vn 0.707103312 0.707110167 -0.000261769572
vn 0.707103312 0.707110107 -0.000261769572
vn 0.382675141 0.923882961 -0.000290360156
vn 0.382684201 0.923879087 -0.000290359923
vn -0.382673949 0.923883379 -0.000290648604
vn -0.38268283 0.923879743 -0.000290648459
vn -0.707096756 0.707116723 -0.000262304355
vn -0.707096756 0.707116723 -0.000262304355
vn 1 -4.5359684E-06 -0.000200224065
vn 1 -4.5359684E-06 -0.000200224065
vn 1 -4.5359684E-06 -0.000200224094
vn 1 -4.5359684E-06 -0.000200224065
vn 0.382669777 -0.923885107 -0.000129065884
vn 0.707101822 -0.707111716 -0.000138231699
vn 0.707101882 -0.707111716 -0.000138231655
vn 0.382688493 -0.923877478 -0.000129066917
vn -0.382662445 -0.923888147 -0.000129337917
vn -0.382688552 -0.923877358 -0.000129339329
vn -0.707093 -0.707120478 -0.000138735501
vn -0.707092941 -0.707120478 -0.000138735515
vn -1 0 -0.000200934999
vn -1 0 -0.000200935028
vn -1 0 -0.000200935057
vn -1 0 -0.000200935028
vn -0.846583903 -0.373405337 0.379294068
vn -0.846626759 -0.373340309 -0.379262805
vn -0.863159359 -0.448398799 -0.232151896
vn -0.863159597 -0.448398501 0.232151553
vn -0.375664771 -0.359128207 -0.854343534
vn 0.375675112 -0.359097987 -0.854351759
vn 0.386330515 -0.816954434 -0.42817542
vn -0.386342913 -0.816981852 -0.428111821
vn 0.846629143 -0.373336464 -0.379261076
vn 0.846587718 -0.373399258 0.379291892
vn 0.863161743 -0.448395163 0.232150123
vn 0.863159776 -0.44839856 -0.232150927
vn 0.382832378 -0.387266457 0.838727713
vn -0.382828951 -0.387275249 0.83872509
vn -0.384229302 -0.833956957 0.396085382
vn 0.384232581 -0.833940744 0.396116316
vn -0.230583817 0.866520047 0.442689776
vn 0.230588421 0.866517723 0.442691833
vn 0.377285957 0.849509716 0.368766308
vn -0.37727955 0.849523962 0.368740082
vn 0.457311779 0.859156668 0.229599118
vn 0.457311869 0.859156847 -0.229598165
vn 0.848388195 0.476801366 -0.229995325
vn 0.848388016 0.476801366 0.229996353
vn 0.22852993 0.851381183 -0.47214824
vn -0.228510231 0.851399183 -0.472125381
vn -0.379666537 0.833762527 -0.400866032
vn 0.37965408 0.833737552 -0.4009296
vn -0.457297832 0.859163582 -0.22960113
vn -0.457299203 0.85916239 0.229603052
vn -0.848383307 0.476807475 0.230000854
vn -0.848382533 0.476808608 -0.230001375
vn 0.860976994 0.231842622 0.452733666
vn 0.860975385 -0.231841132 0.452737272
vn 0.844323158 -0.37962845 0.378154248
vn 0.844364643 0.379602969 0.378087401
vn -0.860987604 -0.231845289 0.45271194
vn -0.860990167 0.231842205 0.452708781
vn -0.844392478 0.379616022 0.378011912
vn -0.844350755 -0.379639775 0.378081322
vn 0.845586956 -0.229580611 -0.481949687
vn 0.845591366 0.229578853 -0.481942773
vn 0.828133404 0.381911218 -0.410291314
vn 0.828091085 -0.381929874 -0.410359353
vn -0.845624864 0.229580522 -0.481883019
vn -0.845619142 -0.229587182 -0.481889963
vn -0.8281461 -0.381940633 -0.410238326
vn -0.82818985 0.38192296 -0.410166472
vn -0.375664771 -0.359128207 -0.854343534
vn 0.382665962 0.000176919857 -0.923886716
vn 0.375675112 -0.359097987 -0.854351759
vn -0.38266325 0.000174866509 -0.923887849
vn -0.846626759 -0.373340309 -0.379262805
vn -0.923861623 6.80854428E-05 -0.382726699
vn -0.846583903 -0.373405337 0.379294068
vn -0.923895299 -8.02938375E-05 0.382645398
vn -0.382696539 -0.000181686264 0.92387414
vn -0.382828951 -0.387275249 0.83872509
vn 0.382832378 -0.387266457 0.838727713
vn 0.382699043 -0.000179337876 0.923873007
vn 0.846587718 -0.373399258 0.379291892
vn 0.923896015 -7.46211954E-05 0.38264358
vn 0.846629143 -0.373336464 -0.379261076
vn 0.923862398 7.34627029E-05 -0.382724643
vn 0.375675112 -0.359097987 -0.854351759
vn 0.382665962 0.000176919857 -0.923886716
vn -0.382860005 -0.0139572956 -0.923700988
vn 0.382429004 -0.0139596285 -0.923879445
vn 0.382860929 -0.0139600774 -0.923700452
vn -0.382429987 -0.0139568495 -0.923879027
vn -0.923700094 -0.0139536988 -0.38286227
vn -0.923879921 -0.0139532434 -0.38242808
vn -0.923700571 -0.0139519507 0.382861167
vn -0.923879504 -0.0139514999 0.382429063
vn -0.382860363 -0.0139532592 0.92370075
vn -0.382429749 -0.013952815 0.923879206
vn 0.382861465 -0.0139560467 0.923700392
vn 0.382428795 -0.0139555959 0.923879623
vn 0.92370075 -0.0139599759 0.382860243
vn 0.923879087 -0.0139595326 0.382429868
vn 0.923700273 -0.0139617184 -0.382861346
vn 0.923879445 -0.0139612686 -0.382428885
vn 0.382860929 -0.0139600774 -0.923700452
vn 0.382429004 -0.0139596285 -0.923879445
vn -0.914109468 -0.135146141 0.382281989
vn -0.91681993 -0.134948581 -0.375806093
vn -0.914144933 -0.135047927 -0.382231802
vn -0.887385309 0.0526594594 0.45801127
vn -0.38224256 -0.135209098 0.914116561
vn -0.56531167 0.583185136 0.583367705
vn 0.382249087 -0.135209069 0.914113879
vn 0.565323472 0.583199143 0.583342195
vn 0.914115369 -0.135144979 0.382268399
vn 0.887400806 0.0526523441 0.457982093
vn 0.914143026 -0.135053024 -0.382234365
vn 0.887363732 0.0527312458 -0.458044797
vn 0.382278055 -0.134983227 -0.914135098
vn 0.562084854 0.58484298 -0.584824204
vn -0.3822788 -0.134979948 -0.914135396
vn -0.56209445 0.584834218 -0.584823728
vn -0.914144933 -0.135047927 -0.382231802
vn -0.91681993 -0.134948581 -0.375806093
vn -0.844392478 0.379616022 0.378011912
vn -0.923896909 -0.382641405 2.13101084E-05
vn -0.844350755 -0.379639775 0.378081322
vn -0.923864543 0.382719576 -0.000122625366
vn -0.37727955 0.849523962 0.368740082
vn -0.382677943 0.923881769 -0.000194124601
vn 0.377285957 0.849509716 0.368766308
vn 0.38265574 0.923891008 -0.00015017789
vn 0.923861802 0.382726133 -2.01734292E-05
vn 0.844364643 0.379602969 0.378087401
vn 0.844323158 -0.37962845 0.378154248
vn 0.923893869 -0.382648677 0.000122325757
vn 0.384232581 -0.833940744 0.396116316
vn 0.382687628 -0.923877776 0.00019383675
vn -0.384229302 -0.833956957 0.396085382
vn -0.382709414 -0.923868716 0.000151325119
vn -0.844350755 -0.379639775 0.378081322
vn -0.923896909 -0.382641405 2.13101084E-05
vn -0.923698425 0.382861316 0.0140851587
vn -0.923878908 -0.382425457 0.0140883271
vn -0.92369765 -0.382863104 0.0140887871
vn -0.923878074 0.382427543 0.014084707
vn -0.382862777 0.923697829 0.0140825128
vn -0.382425696 0.923878908 0.0140820537
vn 0.38286224 0.923698127 0.0140811112
vn 0.382427096 0.923878372 0.0140806539
vn 0.923698545 0.382861197 0.0140824271
vn 0.923878372 0.382426977 0.0140819745
vn 0.92369771 -0.382862896 0.014086063
vn 0.923879206 -0.382424921 0.0140856039
vn 0.382861584 -0.923698246 0.0140900351
vn 0.38242811 -0.923877776 0.0140895844
vn -0.38286221 -0.923698008 0.014091434
vn -0.382426709 -0.923878372 0.0140909804
vn -0.92369765 -0.382863104 0.0140887871
vn -0.923878908 -0.382425457 0.0140883271
vn 0.382272482 0.914136291 0.134991556
vn -0.56209445 0.584834218 -0.584823728
vn -0.38227275 0.914137661 0.134980977
vn 0.562084854 0.58484298 -0.584824204
vn 0.914139271 0.382239938 0.135062844
vn 0.887361467 0.458049327 -0.0527286232
vn 0.914107382 -0.382282704 0.135157764
vn 0.887383997 -0.458014905 -0.0526498146
vn 0.382238448 -0.914116859 0.135219112
vn 0.458025217 -0.887381971 -0.0525953323
vn -0.382237852 -0.914118409 0.135210186
vn -0.37578547 -0.916804612 0.135110065
vn -0.914111078 -0.382281095 0.135137334
vn -0.916829646 -0.375751317 0.13503471
vn -0.914144218 0.382235885 0.135040984
vn -0.91682142 0.375804782 0.134941503
vn -0.38227275 0.914137661 0.134980977
vn -0.56209445 0.584834218 -0.584823728
vn -0.8281461 -0.381940633 -0.410238326
vn -0.923866987 0.382713705 0.000132019413
vn -0.82818985 0.38192296 -0.410166472
vn -0.923897326 -0.38264063 -2.85271335E-06
vn -0.386342913 -0.816981852 -0.428111821
vn -0.382713765 -0.923866987 -0.000137266878
vn 0.386330515 -0.816954434 -0.42817542
vn 0.382683873 -0.923879325 -0.00018982352
vn 0.92389226 -0.382652879 -0.000128148473
vn 0.828091085 -0.381929874 -0.410359353
vn 0.828133404 0.381911218 -0.410291314
vn 0.923861921 0.382726043 6.72816486E-06
vn 0.37965408 0.833737552 -0.4009296
vn 0.382653296 0.923892021 0.000136389717
vn -0.379666537 0.833762527 -0.400866032
vn -0.382683158 0.923879623 0.000188941471
vn -0.82818985 0.38192296 -0.410166472
vn -0.923866987 0.382713705 0.000132019413
vn -0.923698306 -0.382861465 -0.0140852677
vn -0.923878729 0.382425964 -0.0140883196
vn -0.92369771 0.382862866 -0.0140887788
vn -0.923878193 -0.382427514 -0.0140848141
vn -0.382862836 -0.923697829 -0.0140826246
vn -0.382425725 -0.923878908 -0.0140821645
vn 0.382862359 -0.923698008 -0.0140816821
vn 0.382426202 -0.923878789 -0.0140812257
vn 0.923698306 -0.382861674 -0.0140830046
vn 0.923878312 -0.382427245 -0.0140825519
vn 0.92369765 0.382863164 -0.014086525
vn 0.923878789 0.382425755 -0.014086063
vn 0.382861346 0.923698306 -0.0140913175
vn 0.382427126 0.923878193 -0.0140908649
vn -0.382861823 0.923698127 -0.0140922489
vn -0.38242659 0.923878372 -0.0140917953
vn -0.92369771 0.382862866 -0.0140887788
vn -0.923878729 0.382425964 -0.0140883196
vn 0.382248491 -0.914117813 -0.135183811
vn -0.458039194 -0.887372375 0.0526336581
vn -0.382238567 -0.914124489 -0.135166869
vn 0.458036065 -0.88737452 0.0526254438
vn 0.914112866 -0.382278502 -0.135132343
vn 0.887384951 -0.458010465 0.0526705422
vn 0.914147437 0.382229686 -0.135036469
vn 0.887366116 0.458039731 0.0527367555
vn 0.382278174 0.914138436 -0.134960502
vn 0.565323472 0.583199143 0.583342195
vn -0.382270664 0.914143443 -0.134947658
vn -0.56531167 0.583185136 0.583367705
vn -0.914148033 0.3822411 -0.135000974
vn -0.88735944 0.458048016 0.0527746864
vn -0.914116621 -0.38228333 -0.135093376
vn -0.887386203 -0.458004594 0.0527016707
vn -0.382238567 -0.914124489 -0.135166869
vn -0.458039194 -0.887372375 0.0526336581
vn 1.16195952E-06 -1 -9.73750957E-06
vn 1.16195929E-06 -1 -9.73750957E-06
vn 1.16195929E-06 -1 -9.73750957E-06
vn 1.16195952E-06 -1 -9.73750957E-06
vn -4.90204002E-07 -1 5.97537564E-07
vn -4.90204002E-07 -1 5.97537564E-07
vn -1.05635806E-07 -1 -6.1308283E-06
vn -1.05635806E-07 -1 -6.1308283E-06
vn -1 1.69007603E-06 -5.77031187E-06
vn -1 1.69007603E-06 -5.77031187E-06
vn -1 1.69007603E-06 -5.77031187E-06
vn -1 1.69007615E-06 -5.77031187E-06
vn -1 1.30720582E-06 -2.39014344E-06
vn -1 1.30720593E-06 -2.39014344E-06
vn -1 8.45043701E-07 2.88513093E-06
vn -1 8.45043701E-07 2.88513093E-06
vn 1 -6.76029777E-06 5.77005449E-06
vn 1 -6.76029777E-06 5.77005403E-06
vn 1 -6.76029731E-06 5.77005403E-06
vn 1 -6.76029731E-06 5.77005403E-06
vn 1 0 0
vn 1 0 0
vn 1 1.69013549E-06 1.73111421E-05
vn 1 1.69013595E-06 1.73111421E-05
vn -0.863159359 -0.448398799 -0.232151896
vn -0.997516274 -0.0498068929 0.0498069376
vn -0.863159597 -0.448398501 0.232151553
vn -0.860987604 -0.231845289 0.45271194
vn -0.997516274 -0.0498069488 -0.0498069189
vn -0.845619142 -0.229587182 -0.481889963
vn -0.845624864 0.229580522 -0.481883019
vn -0.997516274 0.0498068929 0.049806945
vn -0.860990167 0.231842205 0.452708781
vn -0.848383307 0.476807475 0.230000854
vn -0.997516274 0.049806904 -0.049806904
vn -0.848382533 0.476808608 -0.230001375
vn 0.863161743 -0.448395163 0.232150123
vn 0.997516036 -0.0498088673 -0.0498087481
vn 0.863159776 -0.44839856 -0.232150927
vn 0.845586956 -0.229580611 -0.481949687
vn 0.997516036 -0.0498085506 0.0498090386
vn 0.860975385 -0.231841132 0.452737272
vn 0.860976994 0.231842622 0.452733666
vn 0.997515798 0.0498137809 -0.0498081222
vn 0.845591366 0.229578853 -0.481942773
vn 0.848388195 0.476801366 -0.229995325
vn 0.997515798 0.0498134606 0.0498084053
vn 0.848388016 0.476801366 0.229996353
vn 0.457311779 0.859156668 0.229599118
vn 0.0498760268 0.997509241 -0.0498756878
vn 0.457311869 0.859156847 -0.229598165
vn 0.22852993 0.851381183 -0.47214824
vn 0.0498760827 0.997509241 0.0498754606
vn 0.230588421 0.866517723 0.442691833
vn -0.230583817 0.866520047 0.442689776
vn -0.0498757996 0.997509241 -0.0498757809
vn -0.228510231 0.851399183 -0.472125381
vn -0.457297832 0.859163582 -0.22960113
vn -0.0498757921 0.99750936 0.0498755202
vn -0.457299203 0.85916239 0.229603052
vn -0.848382533 0.476808608 -0.230001375
vn -0.845624864 0.229580522 -0.481883019
vn -0.572839916 0.578184962 -0.580996156
vn -0.457297832 0.859163582 -0.22960113
vn -0.82818985 0.38192296 -0.410166472
vn -0.228510231 0.851399183 -0.472125381
vn -0.379666537 0.833762527 -0.400866032
vn 0.572834015 0.578174233 -0.581012607
vn 0.848388195 0.476801366 -0.229995325
vn 0.457311869 0.859156847 -0.229598165
vn 0.845591366 0.229578853 -0.481942773
vn 0.22852993 0.851381183 -0.47214824
vn 0.828133404 0.381911218 -0.410291314
vn 0.37965408 0.833737552 -0.4009296
vn -0.386342913 -0.816981852 -0.428111821
vn -0.8281461 -0.381940633 -0.410238326
vn -0.578123987 -0.567426682 -0.586344302
vn -0.375664771 -0.359128207 -0.854343534
vn -0.845619142 -0.229587182 -0.481889963
vn -0.846626759 -0.373340309 -0.379262805
vn -0.863159359 -0.448398799 -0.232151896
vn 0.828091085 -0.381929874 -0.410359353
vn 0.386330515 -0.816954434 -0.42817542
vn 0.578115523 -0.567414403 -0.586364508
vn 0.845586956 -0.229580611 -0.481949687
vn 0.375675112 -0.359097987 -0.854351759
vn 0.863159776 -0.44839856 -0.232150927
vn 0.846629143 -0.373336464 -0.379261076
vn -0.844350755 -0.379639775 0.378081322
vn -0.583685458 -0.572908044 0.575402081
vn -0.860987604 -0.231845289 0.45271194
vn -0.384229302 -0.833956957 0.396085382
vn -0.863159597 -0.448398501 0.232151553
vn -0.382828951 -0.387275249 0.83872509
vn -0.846583903 -0.373405337 0.379294068
vn -0.578270912 0.583654284 0.570044279
vn -0.37727955 0.849523962 0.368740082
vn -0.844392478 0.379616022 0.378011912
vn -0.860990167 0.231842205 0.452708781
vn -0.230583817 0.866520047 0.442689776
vn -0.848383307 0.476807475 0.230000854
vn -0.457299203 0.85916239 0.229603052
vn 0.578273773 0.583650351 0.570045412
vn 0.377285957 0.849509716 0.368766308
vn 0.230588421 0.866517723 0.442691833
vn 0.844364643 0.379602969 0.378087401
vn 0.457311779 0.859156668 0.229599118
vn 0.860976994 0.231842622 0.452733666
vn 0.848388016 0.476801366 0.229996353
vn 0.384232581 -0.833940744 0.396116316
vn 0.844323158 -0.37962845 0.378154248
vn 0.583685577 -0.572902262 0.575407863
vn 0.382832378 -0.387266457 0.838727713
vn 0.860975385 -0.231841132 0.452737272
vn 0.846587718 -0.373399258 0.379291892
vn 0.863161743 -0.448395163 0.232150123
vn 0.050227847 0.019924283 -0.998538971
vn 0.0494501963 -0.0223582387 -0.998526335
vn 0.0502277873 -0.0199243762 -0.998538971
vn 0.0494501963 0.0223583374 -0.998526335
vn 0.0223582182 -0.049450215 -0.998526335
vn 0.0199244041 0.0502279103 -0.998538971
vn 0.019924257 -0.0502278432 -0.998538971
vn 0.0223581474 0.0494503565 -0.998526335
vn -0.0223582182 -0.049450215 -0.998526335
vn -0.0199243538 0.0502279848 -0.998538971
vn -0.019924257 -0.0502278432 -0.998538971
vn -0.0223583225 0.0494503714 -0.998526335
vn -0.0494501963 -0.0223582387 -0.998526335
vn -0.0502279252 0.0199243259 -0.998538971
vn -0.0502277873 -0.0199243743 -0.998538971
vn -0.0494502857 0.0223583747 -0.998526335
vn -0.680708647 -0.563760519 0.467771143
vn -0.487651676 0.101351328 0.867135406
vn -0.680707216 0.563758194 0.46777609
vn -0.487652004 -0.101351596 0.867135108
vn -0.101351365 0.487648219 0.867137253
vn -0.563760459 -0.680708587 0.467771173
vn -0.563759208 0.680705249 0.467777461
vn -0.101351693 -0.487652242 0.867135048
vn 0.101351634 0.487649083 0.867136717
vn 0.563762367 -0.680711746 0.467764318
vn 0.563760996 0.680708468 0.467770785
vn 0.101351961 -0.487653017 0.867134571
vn 0.487656295 0.101351693 0.867132723
vn 0.680711746 -0.563763857 0.46776256
vn 0.680710316 0.563761353 0.467767626
vn 0.487656802 -0.101351991 0.867132425
vn 0.0502245463 -0.0199229885 0.998539209
vn 0.049446959 0.0223567486 0.998526454
vn 0.0502245277 0.0199230276 0.998539209
vn 0.0494469367 -0.0223568566 0.998526454
vn 0.022356784 0.0494469069 0.998526454
vn 0.0199231002 -0.0502246246 0.998539209
vn 0.019922955 0.0502244905 0.998539209
vn 0.0223566741 -0.0494471118 0.998526454
vn -0.0223566703 0.049446851 0.998526454
vn -0.0199231133 -0.0502245836 0.998539209
vn -0.0199230239 0.0502243862 0.998539209
vn -0.0223567244 -0.0494470596 0.998526454
vn -0.0494469143 0.0223566703 0.998526454
vn -0.050224565 -0.0199229699 0.998539209
vn -0.050224483 0.0199229699 0.998539209
vn -0.0494469739 -0.0223567784 0.998526454
vn -0.680709243 0.563763976 -0.467766166
vn -0.487648368 -0.101349965 -0.867137432
vn -0.680707693 -0.563762009 -0.467770696
vn -0.487648696 0.101349935 -0.867137194
vn -0.101349808 -0.487642288 -0.86714077
vn -0.563762426 0.680709124 -0.467768013
vn -0.563760936 -0.680706799 -0.467773288
vn -0.10134995 0.487644792 -0.867139339
vn 0.101349548 -0.487641394 -0.867141306
vn 0.563760579 0.680705965 -0.467775017
vn 0.563759148 -0.680703521 -0.467780083
vn 0.101349697 0.487643957 -0.867139876
vn 0.4876436 -0.101349436 -0.867140174
vn 0.680706143 0.563760519 -0.467774779
vn 0.680704653 -0.563758612 -0.46777907
vn 0.487643957 0.101349533 -0.867139876
vn 0.0208987016 -0.998392522 0.0526841842
vn -0.0234511252 -0.998378515 0.0518685356
vn -0.0208988506 -0.998392522 0.0526840426
vn 0.0234514121 -0.998378515 0.0518685691
vn -0.0518684722 -0.998378515 0.023451224
vn 0.0526841469 -0.998392522 0.0208987724
vn -0.052684065 -0.998392522 0.0208986513
vn 0.0518686026 -0.998378515 0.0234512463
vn -0.0518684424 -0.998378515 -0.0234511252
vn 0.0526841246 -0.998392522 -0.0208987631
vn -0.0526840091 -0.998392522 -0.0208986606
vn 0.0518685766 -0.998378515 -0.0234512445
vn -0.0234510899 -0.998378515 -0.0518684238
vn 0.0208986755 -0.998392522 -0.0526841246
vn -0.0208988003 -0.998392522 -0.052683942
vn 0.0234513916 -0.998378515 -0.0518685058
vn -0.563520849 0.470583588 -0.678966463
vn 0.100187317 0.87001276 -0.482742578
vn 0.563515902 0.470597148 -0.678961098
vn -0.100187875 0.870011806 -0.482743919
vn 0.482738584 0.870014966 -0.100186884
vn -0.678965271 0.470580548 -0.563524663
vn 0.678958118 0.470597714 -0.56351918
vn -0.48274824 0.870009601 -0.1001876
vn 0.482738376 0.870014966 0.10018722
vn -0.678963661 0.470586509 0.563521802
vn 0.67895633 0.470603645 0.5635162
vn -0.482748151 0.870009601 0.100187972
vn 0.100187026 0.870013714 0.482740849
vn -0.563519359 0.470589101 0.678963721
vn 0.563514411 0.470602721 0.678958416
vn -0.100187682 0.87001282 0.48274231
vn 1.23995924E-05 4.69590032E-06 -1
vn 4.28996873E-06 7.71196028E-06 -1
vn 3.92095217E-06 7.87625322E-06 -1
vn 1.24127673E-05 4.66658321E-06 -1
vn -2.12724626E-06 1.63570257E-05 -1
vn 4.33667856E-06 8.97974405E-06 -1
vn -2.0801981E-06 1.64636767E-05 -1
vn 3.90145351E-06 9.18075693E-06 -1
vn 7.83744326E-06 1.85834469E-05 -1
vn -4.60955243E-06 1.22019692E-05 -1
vn 7.6065362E-06 1.86599245E-05 -1
vn -4.57935403E-06 1.22298397E-05 -1
vn 1.40530574E-05 9.74878367E-06 -1
vn 2.96152189E-06 8.17096861E-06 -1
vn 1.42642539E-05 1.06145426E-05 -1
vn 4.24021073E-06 7.62972559E-06 -1
vn -1.50158194E-05 6.99526527E-06 1
vn -1.48988802E-05 6.46500439E-06 1
vn -6.41825727E-06 -2.01561329E-06 1
vn -6.10359029E-06 -1.91679419E-06 1
vn -5.07852701E-06 2.11192E-05 1
vn -2.01560829E-06 6.41815495E-06 1
vn -4.44943134E-06 2.13168169E-05 1
vn -1.91684717E-06 6.10367624E-06 1
vn 3.83359929E-06 1.22069605E-05 1
vn -1.04963465E-05 1.48989211E-05 1
vn 4.03126069E-06 1.28363527E-05 1
vn -1.08290105E-05 1.50158503E-05 1
vn -1.22072997E-05 3.83357883E-06 1
vn -2.13173844E-05 1.25119168E-05 1
vn -1.28367419E-05 4.03124795E-06 1
vn -2.11196912E-05 1.27459343E-05 1
g P_Straight_B_0
f 3/3/3 2/2/2 1/1/1
f 6/6/6 5/5/5 4/4/4
f 9/9/9 8/8/8 7/7/7
f 12/12/12 11/11/11 10/10/10
f 15/15/15 14/14/14 13/13/13
f 18/18/18 17/17/17 16/16/16
f 21/21/21 20/20/20 19/19/19
f 24/24/24 23/23/23 22/22/22
f 27/27/27 26/26/26 25/25/25
f 26/26/26 28/28/28 25/25/25
f 26/26/26 29/29/29 28/28/28
f 29/29/29 30/30/30 28/28/28
f 33/33/33 32/32/32 31/31/31
f 34/34/34 33/33/33 31/31/31
f 37/37/37 36/36/36 35/35/35
f 38/38/38 37/37/37 35/35/35
f 41/41/41 40/40/40 39/39/39
f 42/42/42 41/41/41 39/39/39
f 42/42/42 39/39/39 43/43/43
f 44/44/44 42/42/42 43/43/43
f 44/44/44 43/43/43 45/45/45
f 46/46/46 44/44/44 45/45/45
f 49/49/49 48/48/48 47/47/47
f 50/50/50 49/49/49 47/47/47
f 53/53/53 52/52/52 51/51/51
f 52/52/52 54/54/54 51/51/51
f 52/52/52 55/55/55 54/54/54
f 55/55/55 56/56/56 54/54/54
f 55/55/55 57/57/57 56/56/56
f 57/57/57 58/58/58 56/56/56
f 61/61/61 60/60/60 59/59/59
f 62/62/62 61/61/61 59/59/59
f 65/65/65 64/64/64 63/63/63
f 66/66/66 65/65/65 63/63/63
f 66/66/66 63/63/63 67/67/67
f 68/68/68 66/66/66 67/67/67
f 68/68/68 67/67/67 69/69/69
f 70/70/70 68/68/68 69/69/69
f 73/73/73 72/72/72 71/71/71
f 74/74/74 73/73/73 71/71/71
f 77/77/77 76/76/76 75/75/75
f 78/78/78 77/77/77 75/75/75
f 79/79/79 77/77/77 78/78/78
f 80/80/80 79/79/79 78/78/78
f 83/83/83 82/82/82 81/81/81
f 84/84/84 83/83/83 81/81/81
f 87/87/87 86/86/86 85/85/85
f 88/88/88 87/87/87 85/85/85
f 91/91/91 90/90/90 89/89/89
f 90/90/90 92/92/92 89/89/89
f 89/89/89 92/92/92 93/93/93
f 92/92/92 94/94/94 93/93/93
f 93/93/93 94/94/94 95/95/95
f 94/94/94 96/96/96 95/95/95
f 99/99/99 98/98/98 97/97/97
f 100/100/100 99/99/99 97/97/97
f 103/103/103 102/102/102 101/101/101
f 104/104/104 103/103/103 101/101/101
f 105/105/105 103/103/103 104/104/104
f 106/106/106 105/105/105 104/104/104
f 107/107/107 105/105/105 106/106/106
f 108/108/108 107/107/107 106/106/106
f 111/111/111 110/110/110 109/109/109
f 112/112/112 111/111/111 109/109/109
f 115/115/115 114/114/114 113/113/113
f 114/114/114 116/116/116 113/113/113
f 113/113/113 116/116/116 117/117/117
f 116/116/116 118/118/118 117/117/117
f 117/117/117 118/118/118 119/119/119
f 118/118/118 120/120/120 119/119/119
f 123/123/123 122/122/122 121/121/121
f 124/124/124 123/123/123 121/121/121
f 127/127/127 126/126/126 125/125/125
f 128/128/128 127/127/127 125/125/125
f 131/131/131 130/130/130 129/129/129
f 132/132/132 131/131/131 129/129/129
f 135/135/135 134/134/134 133/133/133
f 136/136/136 135/135/135 133/133/133
f 139/139/139 138/138/138 137/137/137
f 140/140/140 139/139/139 137/137/137
f 143/143/143 142/142/142 141/141/141
f 144/144/144 143/143/143 141/141/141
f 147/147/147 146/146/146 145/145/145
f 148/148/148 147/147/147 145/145/145
f 151/151/151 150/150/150 149/149/149
f 152/152/152 151/151/151 149/149/149
f 155/155/155 154/154/154 153/153/153
f 156/156/156 155/155/155 153/153/153
f 159/159/159 158/158/158 157/157/157
f 160/160/160 159/159/159 157/157/157
f 163/163/163 162/162/162 161/161/161
f 164/164/164 163/163/163 161/161/161
f 167/167/167 166/166/166 165/165/165
f 168/168/168 167/167/167 165/165/165
f 171/171/171 170/170/170 169/169/169
f 172/172/172 171/171/171 169/169/169
f 175/175/175 174/174/174 173/173/173
f 174/174/174 176/176/176 173/173/173
f 177/177/177 173/173/173 176/176/176
f 178/178/178 177/177/177 176/176/176
f 177/177/177 178/178/178 179/179/179
f 178/178/178 180/180/180 179/179/179
f 180/180/180 181/181/181 179/179/179
f 181/181/181 182/182/182 179/179/179
f 182/182/182 181/181/181 183/183/183
f 181/181/181 184/184/184 183/183/183
f 185/185/185 183/183/183 184/184/184
f 186/186/186 185/185/185 184/184/184
f 185/185/185 186/186/186 187/187/187
f 186/186/186 188/188/188 187/187/187
f 189/189/189 187/187/187 188/188/188
f 190/190/190 189/189/189 188/188/188
f 193/193/193 192/192/192 191/191/191
f 192/192/192 194/194/194 191/191/191
f 191/191/191 194/194/194 195/195/195
f 194/194/194 196/196/196 195/195/195
f 195/195/195 196/196/196 197/197/197
f 196/196/196 198/198/198 197/197/197
f 197/197/197 198/198/198 199/199/199
f 198/198/198 200/200/200 199/199/199
f 199/199/199 200/200/200 201/201/201
f 200/200/200 202/202/202 201/201/201
f 201/201/201 202/202/202 203/203/203
f 202/202/202 204/204/204 203/203/203
f 203/203/203 204/204/204 205/205/205
f 204/204/204 206/206/206 205/205/205
f 205/205/205 206/206/206 207/207/207
f 206/206/206 208/208/208 207/207/207
f 211/211/211 210/210/210 209/209/209
f 210/210/210 212/212/212 209/209/209
f 209/209/209 212/212/212 213/213/213
f 212/212/212 214/214/214 213/213/213
f 213/213/213 214/214/214 215/215/215
f 214/214/214 216/216/216 215/215/215
f 215/215/215 216/216/216 217/217/217
f 216/216/216 218/218/218 217/217/217
f 217/217/217 218/218/218 219/219/219
f 218/218/218 220/220/220 219/219/219
f 219/219/219 220/220/220 221/221/221
f 220/220/220 222/222/222 221/221/221
f 221/221/221 222/222/222 223/223/223
f 222/222/222 224/224/224 223/223/223
f 223/223/223 224/224/224 225/225/225
f 224/224/224 226/226/226 225/225/225
f 229/229/229 228/228/228 227/227/227
f 228/228/228 230/230/230 227/227/227
f 231/231/231 227/227/227 230/230/230
f 232/232/232 231/231/231 230/230/230
f 231/231/231 232/232/232 233/233/233
f 232/232/232 234/234/234 233/233/233
f 234/234/234 235/235/235 233/233/233
f 235/235/235 236/236/236 233/233/233
f 236/236/236 235/235/235 237/237/237
f 235/235/235 238/238/238 237/237/237
f 239/239/239 237/237/237 238/238/238
f 240/240/240 239/239/239 238/238/238
f 239/239/239 240/240/240 241/241/241
f 240/240/240 242/242/242 241/241/241
f 243/243/243 241/241/241 242/242/242
f 244/244/244 243/243/243 242/242/242
f 247/247/247 246/246/246 245/245/245
f 246/246/246 248/248/248 245/245/245
f 245/245/245 248/248/248 249/249/249
f 248/248/248 250/250/250 249/249/249
f 249/249/249 250/250/250 251/251/251
f 250/250/250 252/252/252 251/251/251
f 251/251/251 252/252/252 253/253/253
f 252/252/252 254/254/254 253/253/253
f 253/253/253 254/254/254 255/255/255
f 254/254/254 256/256/256 255/255/255
f 255/255/255 256/256/256 257/257/257
f 256/256/256 258/258/258 257/257/257
f 257/257/257 258/258/258 259/259/259
f 258/258/258 260/260/260 259/259/259
f 259/259/259 260/260/260 261/261/261
f 260/260/260 262/262/262 261/261/261
f 265/265/265 264/264/264 263/263/263
f 264/264/264 266/266/266 263/263/263
f 263/263/263 266/266/266 267/267/267
f 266/266/266 268/268/268 267/267/267
f 267/267/267 268/268/268 269/269/269
f 268/268/268 270/270/270 269/269/269
f 269/269/269 270/270/270 271/271/271
f 270/270/270 272/272/272 271/271/271
f 271/271/271 272/272/272 273/273/273
f 272/272/272 274/274/274 273/273/273
f 273/273/273 274/274/274 275/275/275
f 274/274/274 276/276/276 275/275/275
f 275/275/275 276/276/276 277/277/277
f 276/276/276 278/278/278 277/277/277
f 277/277/277 278/278/278 279/279/279
f 278/278/278 280/280/280 279/279/279
f 283/283/283 282/282/282 281/281/281
f 282/282/282 284/284/284 281/281/281
f 285/285/285 281/281/281 284/284/284
f 286/286/286 285/285/285 284/284/284
f 285/285/285 286/286/286 287/287/287
f 286/286/286 288/288/288 287/287/287
f 288/288/288 289/289/289 287/287/287
f 289/289/289 290/290/290 287/287/287
f 290/290/290 289/289/289 291/291/291
f 289/289/289 292/292/292 291/291/291
f 293/293/293 291/291/291 292/292/292
f 294/294/294 293/293/293 292/292/292
f 293/293/293 294/294/294 295/295/295
f 294/294/294 296/296/296 295/295/295
f 297/297/297 295/295/295 296/296/296
f 298/298/298 297/297/297 296/296/296
f 301/301/301 300/300/300 299/299/299
f 300/300/300 302/302/302 299/299/299
f 299/299/299 302/302/302 303/303/303
f 302/302/302 304/304/304 303/303/303
f 303/303/303 304/304/304 305/305/305
f 304/304/304 306/306/306 305/305/305
f 305/305/305 306/306/306 307/307/307
f 306/306/306 308/308/308 307/307/307
f 307/307/307 308/308/308 309/309/309
f 308/308/308 310/310/310 309/309/309
f 309/309/309 310/310/310 311/311/311
f 310/310/310 312/312/312 311/311/311
f 311/311/311 312/312/312 313/313/313
f 312/312/312 314/314/314 313/313/313
f 313/313/313 314/314/314 315/315/315
f 314/314/314 316/316/316 315/315/315
f 319/319/319 318/318/318 317/317/317
f 318/318/318 320/320/320 317/317/317
f 317/317/317 320/320/320 321/321/321
f 320/320/320 322/322/322 321/321/321
f 321/321/321 322/322/322 323/323/323
f 322/322/322 324/324/324 323/323/323
f 323/323/323 324/324/324 325/325/325
f 324/324/324 326/326/326 325/325/325
f 325/325/325 326/326/326 327/327/327
f 326/326/326 328/328/328 327/327/327
f 327/327/327 328/328/328 329/329/329
f 328/328/328 330/330/330 329/329/329
f 329/329/329 330/330/330 331/331/331
f 330/330/330 332/332/332 331/331/331
f 331/331/331 332/332/332 333/333/333
f 332/332/332 334/334/334 333/333/333
f 337/337/337 336/336/336 335/335/335
f 336/336/336 338/338/338 335/335/335
f 338/338/338 339/339/339 335/335/335
f 339/339/339 340/340/340 335/335/335
f 341/341/341 340/340/340 339/339/339
f 342/342/342 341/341/341 339/339/339
f 345/345/345 344/344/344 343/343/343
f 344/344/344 346/346/346 343/343/343
f 346/346/346 347/347/347 343/343/343
f 347/347/347 348/348/348 343/343/343
f 349/349/349 348/348/348 347/347/347
f 350/350/350 349/349/349 347/347/347
f 353/353/353 352/352/352 351/351/351
f 352/352/352 354/354/354 351/351/351
f 354/354/354 355/355/355 351/351/351
f 355/355/355 356/356/356 351/351/351
f 357/357/357 356/356/356 355/355/355
f 358/358/358 357/357/357 355/355/355
f 361/361/361 360/360/360 359/359/359
f 362/362/362 360/360/360 361/361/361
f 360/360/360 363/363/363 359/359/359
f 359/359/359 363/363/363 364/364/364
f 364/364/364 363/363/363 365/365/365
f 366/366/366 360/360/360 362/362/362
f 363/363/363 360/360/360 366/366/366
f 367/367/367 366/366/366 362/362/362
f 368/368/368 366/366/366 367/367/367
f 363/363/363 369/369/369 365/365/365
f 369/369/369 363/363/363 366/366/366
f 369/369/369 366/366/366 368/368/368
f 365/365/365 369/369/369 370/370/370
f 370/370/370 369/369/369 368/368/368
f 373/373/373 372/372/372 371/371/371
f 374/374/374 372/372/372 373/373/373
f 372/372/372 375/375/375 371/371/371
f 371/371/371 375/375/375 376/376/376
f 376/376/376 375/375/375 377/377/377
f 378/378/378 372/372/372 374/374/374
f 375/375/375 372/372/372 378/378/378
f 379/379/379 378/378/378 374/374/374
f 380/380/380 378/378/378 379/379/379
f 375/375/375 381/381/381 377/377/377
f 381/381/381 375/375/375 378/378/378
f 381/381/381 378/378/378 380/380/380
f 377/377/377 381/381/381 382/382/382
f 382/382/382 381/381/381 380/380/380
f 385/385/385 384/384/384 383/383/383
f 386/386/386 384/384/384 385/385/385
f 384/384/384 387/387/387 383/383/383
f 383/383/383 387/387/387 388/388/388
f 388/388/388 387/387/387 389/389/389
f 390/390/390 384/384/384 386/386/386
f 387/387/387 384/384/384 390/390/390
f 391/391/391 390/390/390 386/386/386
f 392/392/392 390/390/390 391/391/391
f 387/387/387 393/393/393 389/389/389
f 393/393/393 387/387/387 390/390/390
f 393/393/393 390/390/390 392/392/392
f 389/389/389 393/393/393 394/394/394
f 394/394/394 393/393/393 392/392/392
f 397/397/397 396/396/396 395/395/395
f 398/398/398 397/397/397 395/395/395
f 396/396/396 397/397/397 399/399/399
f 397/397/397 398/398/398 400/400/400
f 401/401/401 399/399/399 397/397/397
f 400/400/400 401/401/401 397/397/397
f 404/404/404 403/403/403 402/402/402
f 402/402/402 403/403/403 405/405/405
f 402/402/402 406/406/406 404/404/404
f 407/407/407 402/402/402 405/405/405
f 406/406/406 402/402/402 408/408/408
f 402/402/402 407/407/407 408/408/408
f 411/411/411 410/410/410 409/409/409
f 409/409/409 412/412/412 411/411/411
f 410/410/410 411/411/411 413/413/413
f 411/411/411 412/412/412 414/414/414
f 411/411/411 415/415/415 413/413/413
f 415/415/415 411/411/411 414/414/414
f 418/418/418 417/417/417 416/416/416
f 416/416/416 419/419/419 418/418/418
f 417/417/417 418/418/418 420/420/420
f 418/418/418 419/419/419 421/421/421
f 422/422/422 420/420/420 418/418/418
f 422/422/422 418/418/418 421/421/421
f 425/425/425 424/424/424 423/423/423
f 424/424/424 426/426/426 423/423/423
f 424/424/424 425/425/425 427/427/427
f 424/424/424 428/428/428 426/426/426
f 427/427/427 429/429/429 424/424/424
f 424/424/424 429/429/429 428/428/428
f 432/432/432 431/431/431 430/430/430
f 432/432/432 430/430/430 433/433/433
f 434/434/434 430/430/430 431/431/431
f 430/430/430 435/435/435 433/433/433
f 430/430/430 434/434/434 436/436/436
f 436/436/436 435/435/435 430/430/430
f 439/439/439 438/438/438 437/437/437
f 437/437/437 438/438/438 440/440/440
f 437/437/437 441/441/441 439/439/439
f 442/442/442 437/437/437 440/440/440
f 441/441/441 437/437/437 443/443/443
f 437/437/437 442/442/442 443/443/443
f 446/446/446 445/445/445 444/444/444
f 446/446/446 444/444/444 447/447/447
f 448/448/448 445/445/445 446/446/446
f 446/446/446 447/447/447 449/449/449
f 446/446/446 450/450/450 448/448/448
f 450/450/450 446/446/446 449/449/449
f 453/453/453 452/452/452 451/451/451
f 452/452/452 454/454/454 451/451/451
f 455/455/455 452/452/452 453/453/453
f 451/451/451 454/454/454 456/456/456
f 457/457/457 455/455/455 453/453/453
f 454/454/454 458/458/458 456/456/456
f 459/459/459 455/455/455 457/457/457
f 456/456/456 458/458/458 460/460/460
f 461/461/461 459/459/459 457/457/457
f 458/458/458 462/462/462 460/460/460
f 463/463/463 459/459/459 461/461/461
f 460/460/460 462/462/462 464/464/464
f 465/465/465 463/463/463 461/461/461
f 462/462/462 466/466/466 464/464/464
f 466/466/466 463/463/463 465/465/465
f 464/464/464 466/466/466 465/465/465
f 469/469/469 468/468/468 467/467/467
f 468/468/468 470/470/470 467/467/467
f 471/471/471 468/468/468 469/469/469
f 467/467/467 470/470/470 472/472/472
f 473/473/473 471/471/471 469/469/469
f 470/470/470 474/474/474 472/472/472
f 475/475/475 471/471/471 473/473/473
f 472/472/472 474/474/474 476/476/476
f 477/477/477 475/475/475 473/473/473
f 474/474/474 478/478/478 476/476/476
f 479/479/479 475/475/475 477/477/477
f 476/476/476 478/478/478 480/480/480
f 481/481/481 479/479/479 477/477/477
f 478/478/478 482/482/482 480/480/480
f 482/482/482 479/479/479 481/481/481
f 480/480/480 482/482/482 481/481/481
f 485/485/485 484/484/484 483/483/483
f 484/484/484 486/486/486 483/483/483
f 487/487/487 484/484/484 485/485/485
f 483/483/483 486/486/486 488/488/488
f 489/489/489 487/487/487 485/485/485
f 486/486/486 490/490/490 488/488/488
f 491/491/491 487/487/487 489/489/489
f 488/488/488 490/490/490 492/492/492
f 493/493/493 491/491/491 489/489/489
f 490/490/490 494/494/494 492/492/492
f 495/495/495 491/491/491 493/493/493
f 492/492/492 494/494/494 496/496/496
f 497/497/497 495/495/495 493/493/493
f 494/494/494 498/498/498 496/496/496
f 498/498/498 495/495/495 497/497/497
f 496/496/496 498/498/498 497/497/497
f 501/501/501 500/500/500 499/499/499
f 500/500/500 502/502/502 499/499/499
f 503/503/503 500/500/500 501/501/501
f 499/499/499 502/502/502 504/504/504
f 505/505/505 503/503/503 501/501/501
f 502/502/502 506/506/506 504/504/504
f 507/507/507 503/503/503 505/505/505
f 504/504/504 506/506/506 508/508/508
f 509/509/509 507/507/507 505/505/505
f 506/506/506 510/510/510 508/508/508
f 511/511/511 507/507/507 509/509/509
f 508/508/508 510/510/510 512/512/512
f 513/513/513 511/511/511 509/509/509
f 510/510/510 514/514/514 512/512/512
f 514/514/514 511/511/511 513/513/513
f 512/512/512 514/514/514 513/513/513
f 517/517/517 516/516/516 515/515/515
f 516/516/516 518/518/518 515/515/515
f 519/519/519 516/516/516 517/517/517
f 515/515/515 518/518/518 520/520/520
f 521/521/521 519/519/519 517/517/517
f 518/518/518 522/522/522 520/520/520
f 523/523/523 519/519/519 521/521/521
f 520/520/520 522/522/522 524/524/524
f 525/525/525 523/523/523 521/521/521
f 522/522/522 526/526/526 524/524/524
f 527/527/527 523/523/523 525/525/525
f 524/524/524 526/526/526 528/528/528
f 529/529/529 527/527/527 525/525/525
f 526/526/526 530/530/530 528/528/528
f 530/530/530 527/527/527 529/529/529
f 528/528/528 530/530/530 529/529/529
f 533/533/533 532/532/532 531/531/531
f 532/532/532 534/534/534 531/531/531
f 535/535/535 532/532/532 533/533/533
f 531/531/531 534/534/534 536/536/536
f 537/537/537 535/535/535 533/533/533
f 534/534/534 538/538/538 536/536/536
f 539/539/539 535/535/535 537/537/537
f 536/536/536 538/538/538 540/540/540
f 541/541/541 539/539/539 537/537/537
f 538/538/538 542/542/542 540/540/540
f 543/543/543 539/539/539 541/541/541
f 540/540/540 542/542/542 544/544/544
f 545/545/545 543/543/543 541/541/541
f 542/542/542 546/546/546 544/544/544
f 546/546/546 543/543/543 545/545/545
f 544/544/544 546/546/546 545/545/545
f 549/549/549 548/548/548 547/547/547
f 548/548/548 550/550/550 547/547/547
f 551/551/551 548/548/548 549/549/549
f 547/547/547 550/550/550 552/552/552
f 553/553/553 551/551/551 549/549/549
f 550/550/550 554/554/554 552/552/552
f 555/555/555 551/551/551 553/553/553
f 552/552/552 554/554/554 556/556/556
f 557/557/557 555/555/555 553/553/553
f 554/554/554 558/558/558 556/556/556
f 559/559/559 555/555/555 557/557/557
f 556/556/556 558/558/558 560/560/560
f 561/561/561 559/559/559 557/557/557
f 558/558/558 562/562/562 560/560/560
f 562/562/562 559/559/559 561/561/561
f 560/560/560 562/562/562 561/561/561
f 565/565/565 564/564/564 563/563/563
f 566/566/566 565/565/565 563/563/563
f 563/563/563 564/564/564 567/567/567
f 568/568/568 565/565/565 566/566/566
f 564/564/564 569/569/569 567/567/567
f 570/570/570 568/568/568 566/566/566
f 567/567/567 569/569/569 571/571/571
f 572/572/572 568/568/568 570/570/570
f 569/569/569 573/573/573 571/571/571
f 574/574/574 572/572/572 570/570/570
f 571/571/571 573/573/573 575/575/575
f 576/576/576 572/572/572 574/574/574
f 573/573/573 577/577/577 575/575/575
f 578/578/578 576/576/576 574/574/574
f 575/575/575 577/577/577 578/578/578
f 577/577/577 576/576/576 578/578/578
