g P_Vert_OneCap
v -0.0490132384 -0.499999374 0.107020296
v 0.0490127541 0.499999851 0.107020214
v 0.0490129478 -0.499999374 0.107020296
v -0.0490134321 0.499999851 0.107020214
v -0.107020937 -0.499999374 0.0490124114
v -0.107021131 0.499999851 0.0490124114
v 0.0490129478 -0.499999374 0.107020296
v 0.0490127541 0.499999851 0.107020214
v 0.107020833 0.499999851 0.0490124114
v 0.107020833 -0.499999374 0.0490124114
v 0.107020833 -0.499999374 0.0490124114
v 0.107020833 0.499999851 0.0490124114
v 0.107020833 0.499999851 -0.0490139574
v 0.107020833 -0.499999374 -0.0490138717
v 0.107020833 -0.499999374 -0.0490138717
v 0.107020833 0.499999851 -0.0490139574
v 0.0490127541 0.499999851 -0.107021771
v 0.0490129478 -0.499999374 -0.107021756
v -0.0490134321 0.499999851 -0.107021771
v -0.0490132384 -0.499999374 -0.107021756
v -0.107021131 0.499999851 -0.0490139574
v -0.107020937 -0.499999374 -0.0490138717
v -0.107020937 -0.499999374 -0.0490138717
v -0.107021131 0.499999851 -0.0490139574
v -0.107021131 0.499999851 0.0490124114
v -0.107020937 -0.499999374 0.0490124114
v 0.0367840417 -0.499999374 0.0803180709
v -0.0366874412 0.499999851 0.0801063552
v -0.0367841385 -0.499999374 0.0803180709
v 0.0366869569 0.499999851 0.0801063552
v 0.0803187937 -0.499999374 0.0367834084
v 0.0801067874 0.499999851 0.0366864204
v -0.0367841385 -0.499999374 0.0803180709
v -0.0366874412 0.499999851 0.0801063552
v -0.0801072642 0.499999851 0.0366864204
v -0.0803188905 -0.499999374 0.0367834084
v -0.0803188905 -0.499999374 0.0367834084
v -0.0801072642 0.499999851 0.0366864204
v -0.0801072642 0.499999851 -0.0366879627
v -0.0803188905 -0.499999374 -0.0367848575
v -0.0803188905 -0.499999374 -0.0367848575
v -0.0801072642 0.499999851 -0.0366879627
v -0.0366874412 0.499999851 -0.0801078975
v -0.0367841385 -0.499999374 -0.0803195164
v 0.0366869569 0.499999851 -0.0801078975
v 0.0367840417 -0.499999374 -0.0803195164
v 0.0801067874 0.499999851 -0.0366879627
v 0.0803187937 -0.499999374 -0.0367848575
v 0.0803187937 -0.499999374 -0.0367848575
v 0.0801067874 0.499999851 -0.0366879627
v 0.0801067874 0.499999851 0.0366864204
v 0.0803187937 -0.499999374 0.0367834084
v 0.0600967668 0.472866625 0.13122271
v -0.0606324896 0.439296991 0.132390663
v -0.0600976348 0.472866625 0.13122271
v 0.0606316179 0.439296991 0.132390663
v 0.131222859 0.472866625 0.0600966252
v 0.132390797 0.439296991 0.0606315695
v 0.131222859 0.472866625 -0.0600979775
v 0.132390797 0.439296991 -0.0606327243
v 0.132390797 0.439296991 0.0606315695
v 0.131222859 0.472866625 0.0600966252
v -0.131223723 0.472866625 0.0600966252
v -0.132391676 0.439296991 0.0606314726
v -0.132391676 0.439297348 -0.0606328361
v -0.131223723 0.472866625 -0.0600979775
v -0.0600976348 0.472866625 0.13122271
v -0.0606324896 0.439296991 0.132390663
v -0.132391676 0.439296991 0.0606314726
v -0.131223723 0.472866625 0.0600966252
v -0.131223723 0.472866625 -0.0600979775
v -0.132391676 0.439297348 -0.0606328361
v -0.0606324896 0.439296573 -0.132391915
v -0.0600976348 0.472866654 -0.131224111
v 0.0606316179 0.439296991 -0.132391915
v 0.0600967668 0.472866654 -0.131224111
v 0.132390797 0.439296991 -0.0606327243
v 0.131222859 0.472866625 -0.0600979775
v -0.0573018827 0.483821779 0.124759339
v 0.0568839759 0.483822167 0.124759339
v 0.0600967668 0.472866625 0.13122271
v -0.0600976348 0.472866625 0.13122271
v 0.0568824261 0.483823299 -0.12456619
v -0.0573018827 0.483822167 -0.124565944
v -0.0600976348 0.472866654 -0.131224111
v 0.0600967668 0.472866654 -0.131224111
v 0.124453887 0.483822912 0.0571892448
v 0.124453887 0.483823299 -0.05699623
v 0.131222859 0.472866625 -0.0600979775
v 0.131222859 0.472866625 0.0600966252
v -0.124871783 0.483822167 -0.0569963269
v -0.124871783 0.483822167 0.0571892448
v -0.131223723 0.472866625 0.0600966252
v -0.131223723 0.472866625 -0.0600979775
v -0.124871783 0.483822167 0.0571892448
v -0.0573018827 0.483821779 0.124759339
v -0.0600976348 0.472866625 0.13122271
v -0.131223723 0.472866625 0.0600966252
v 0.0568839759 0.483822167 0.124759339
v 0.124453887 0.483822912 0.0571892448
v 0.131222859 0.472866625 0.0600966252
v 0.0600967668 0.472866625 0.13122271
v -0.0573018827 0.483822167 -0.124565944
v -0.124871783 0.483822167 -0.0569963269
v -0.131223723 0.472866625 -0.0600979775
v -0.0600976348 0.472866654 -0.131224111
v 0.124453887 0.483823299 -0.05699623
v 0.0568824261 0.483823299 -0.12456619
v 0.0600967668 0.472866654 -0.131224111
v 0.131222859 0.472866625 -0.0600979775
v -0.0490132384 0.402838349 0.107020207
v 0.0529328622 0.407426834 0.116778821
v 0.0490125604 0.402838349 0.107020296
v -0.0529335402 0.407426834 0.116778724
v -0.107021332 0.402838349 0.0490125082
v -0.116779841 0.407426834 0.0529329106
v 0.0490125604 0.402838349 0.107020296
v 0.0529328622 0.407426834 0.116778821
v 0.11677935 0.407426834 0.0529329106
v 0.107020833 0.402838349 0.0490125082
v 0.107020833 0.402838349 0.0490125082
v 0.11677935 0.407426834 0.0529329106
v 0.116779156 0.407426834 -0.0529342629
v 0.107020646 0.402838349 -0.0490138605
v 0.107020646 0.402838349 -0.0490138605
v 0.116779156 0.407426834 -0.0529342629
v 0.0529328622 0.407426834 -0.116780184
v 0.0490125604 0.402838349 -0.107021652
v -0.0529335402 0.407426834 -0.116780281
v -0.0490132384 0.402838349 -0.107021771
v -0.116779648 0.407426834 -0.0529342629
v -0.107021332 0.402838349 -0.0490138605
v -0.107021332 0.402838349 -0.0490138605
v -0.116779648 0.407426834 -0.0529342629
v -0.116779841 0.407426834 0.0529329106
v -0.107021332 0.402838349 0.0490125082
v -0.132391676 0.439297348 -0.0606328361
v -0.132391676 0.439296991 0.0606314726
v -0.116779841 0.407426834 0.0529329106
v -0.116779648 0.407426834 -0.0529342629
v -0.0529335402 0.407426834 0.116778724
v -0.0606324896 0.439296573 -0.132391915
v -0.0606324896 0.439296991 0.132390663
v -0.0529335402 0.407426834 -0.116780281
v 0.0529328622 0.407426834 0.116778821
v 0.0606316179 0.439296991 -0.132391915
v 0.0606316179 0.439296991 0.132390663
v 0.0529328622 0.407426834 -0.116780184
v 0.11677935 0.407426834 0.0529329106
v 0.132390797 0.439296991 -0.0606327243
v 0.132390797 0.439296991 0.0606315695
v 0.116779156 0.407426834 -0.0529342629
v -0.107020937 -0.499999374 0.0490124114
v -0.0803188905 -0.499999374 -0.0367848575
v -0.107020937 -0.499999374 -0.0490138717
v -0.0803188905 -0.499999374 0.0367834084
v -0.0367841385 -0.499999374 -0.0803195164
v -0.0490132384 -0.499999374 0.107020296
v -0.0490132384 -0.499999374 -0.107021756
v -0.0367841385 -0.499999374 0.0803180709
v 0.0367840417 -0.499999374 -0.0803195164
v 0.0490129478 -0.499999374 0.107020296
v 0.0490129478 -0.499999374 -0.107021756
v 0.0367840417 -0.499999374 0.0803180709
v 0.0803187937 -0.499999374 -0.0367848575
v 0.107020833 -0.499999374 0.0490124114
v 0.107020833 -0.499999374 -0.0490138717
v 0.0803187937 -0.499999374 0.0367834084
v -0.124871783 0.483822167 -0.0569963269
v -0.107021332 0.483452022 -0.0490139574
v -0.107021332 0.483452022 0.0490124114
v -0.124871783 0.483822167 0.0571892448
v -0.0573018827 0.483822167 -0.124565944
v -0.0490132384 0.483452022 0.107020214
v -0.0490132384 0.483452022 -0.107021861
v -0.0573018827 0.483821779 0.124759339
v 0.0568824261 0.483823299 -0.12456619
v 0.0490125604 0.48345241 0.107020311
v 0.0490125604 0.48345241 -0.107021771
v 0.0568839759 0.483822167 0.124759339
v 0.124453887 0.483823299 -0.05699623
v 0.107020833 0.48345241 0.0490124114
v 0.107020646 0.48345241 -0.0490139574
v 0.124453887 0.483822912 0.0571892448
v 0.107020833 0.499999851 0.0490124114
v 0.0801067874 0.499999851 0.0366864204
v 0.0801067874 0.499999851 -0.0366879627
v 0.107020833 0.499999851 -0.0490139574
v 0.0490127541 0.499999851 0.107020214
v 0.0366869569 0.499999851 -0.0801078975
v 0.0366869569 0.499999851 0.0801063552
v 0.0490127541 0.499999851 -0.107021771
v -0.0490134321 0.499999851 0.107020214
v -0.0366874412 0.499999851 -0.0801078975
v -0.0366874412 0.499999851 0.0801063552
v -0.0490134321 0.499999851 -0.107021771
v -0.107021131 0.499999851 0.0490124114
v -0.0801072642 0.499999851 -0.0366879627
v -0.0801072642 0.499999851 0.0366864204
v -0.107021131 0.499999851 -0.0490139574
vt 0.596092463 0.824287534
vt 0.613810062 0.978785336
vt 0.613810062 0.824287534
vt 0.596092463 0.978785336
vt 0.580640554 0.824287534
vt 0.580640554 0.978785336
vt 0.481139958 0.824287713
vt 0.481139958 0.978785574
vt 0.496558487 0.978785574
vt 0.496558487 0.824287713
vt 0.496558487 0.824287713
vt 0.496558487 0.978785574
vt 0.514164507 0.978785574
vt 0.514164507 0.824287713
vt 0.514164507 0.824287713
vt 0.514164507 0.978785574
vt 0.52949959 0.978785336
vt 0.52949959 0.824287534
vt 0.547487617 0.978785336
vt 0.547487617 0.824287534
vt 0.563011765 0.978785336
vt 0.563011765 0.824287534
vt 0.563011765 0.824287534
vt 0.563011765 0.978785336
vt 0.580640554 0.978785336
vt 0.580640554 0.824287534
vt 0.457913637 0.704432428
vt 0.471080184 0.857478142
vt 0.471159548 0.704437912
vt 0.457853556 0.857475877
vt 0.446822703 0.704430342
vt 0.446729332 0.857556403
vt 0.374175787 0.704430819
vt 0.37422812 0.857427955
vt 0.385240436 0.857411206
vt 0.385199249 0.70443058
vt 0.385199249 0.70443058
vt 0.385240436 0.857411206
vt 0.398378581 0.85742557
vt 0.39837122 0.70443058
vt 0.39837122 0.70443058
vt 0.398378581 0.85742557
vt 0.409334332 0.857497633
vt 0.40939644 0.70443058
vt 0.422489822 0.857509136
vt 0.422567397 0.70443058
vt 0.433538973 0.857474864
vt 0.433585793 0.704430342
vt 0.433585793 0.704430342
vt 0.433538973 0.857474864
vt 0.446729332 0.857556403
vt 0.446822703 0.704430342
vt 0.269833177 0.983604729
vt 0.243830681 0.978054523
vt 0.244018361 0.983604729
vt 0.269667715 0.978054523
vt 0.29116261 0.983604729
vt 0.291078985 0.978054523
vt 0.316720694 0.983604729
vt 0.316704512 0.978054523
vt 0.291078985 0.978054523
vt 0.29116261 0.983604729
vt 0.410422623 0.983604729
vt 0.411067009 0.978054523
vt 0.385057658 0.978054523
vt 0.38490501 0.983604729
vt 0.431904703 0.983604848
vt 0.433017254 0.978054702
vt 0.411067009 0.978054523
vt 0.410422623 0.983604729
vt 0.38490501 0.983604729
vt 0.385057658 0.978054523
vt 0.363654524 0.978054523
vt 0.363592833 0.983604729
vt 0.33803913 0.978054523
vt 0.33803755 0.983604729
vt 0.316704512 0.978054523
vt 0.316720694 0.983604729
vt 0.24514319 0.986091793
vt 0.269893616 0.986091793
vt 0.269833177 0.983604729
vt 0.244018361 0.983604729
vt 0.338107914 0.986091793
vt 0.363483042 0.986091793
vt 0.363592833 0.983604729
vt 0.33803755 0.983604729
vt 0.29127872 0.986091793
vt 0.316656649 0.986091793
vt 0.316720694 0.983604729
vt 0.29116261 0.983604729
vt 0.384879678 0.986091793
vt 0.40999499 0.986091793
vt 0.410422623 0.983604729
vt 0.38490501 0.983604729
vt 0.40999499 0.986091793
vt 0.430606574 0.986091912
vt 0.431904703 0.983604848
vt 0.410422623 0.983604729
vt 0.269893616 0.986091793
vt 0.29127872 0.986091793
vt 0.29116261 0.983604729
vt 0.269833177 0.983604729
vt 0.363483042 0.986091793
vt 0.384879678 0.986091793
vt 0.38490501 0.983604729
vt 0.363592833 0.983604729
vt 0.316656649 0.986091793
vt 0.338107914 0.986091793
vt 0.33803755 0.983604729
vt 0.316720694 0.983604729
vt 0.595336497 0.983417988
vt 0.613797009 0.987605333
vt 0.612869501 0.983417988
vt 0.595336497 0.987605333
vt 0.580086768 0.983417988
vt 0.580086768 0.987605333
vt 0.480624288 0.983418345
vt 0.479696602 0.98760581
vt 0.49537605 0.98760581
vt 0.49537605 0.983418345
vt 0.49537605 0.983418345
vt 0.49537605 0.98760581
vt 0.513407111 0.987605453
vt 0.513407111 0.983418107
vt 0.513407111 0.983418107
vt 0.513407111 0.987605453
vt 0.528680325 0.987605333
vt 0.528680325 0.983417988
vt 0.546746671 0.987605095
vt 0.546746671 0.983417988
vt 0.562031925 0.987605095
vt 0.562031925 0.983417988
vt 0.562031925 0.983417988
vt 0.562031925 0.987605095
vt 0.580086768 0.987605333
vt 0.580086768 0.983417988
vt 0.381875157 0.644730031
vt 0.406330079 0.644660175
vt 0.402892411 0.636925817
vt 0.385353833 0.636925817
vt 0.413319528 0.626518548
vt 0.367297947 0.630028725
vt 0.420893639 0.630028725
vt 0.374906868 0.626518071
vt 0.413319767 0.608899772
vt 0.367297173 0.605462372
vt 0.420891523 0.605396688
vt 0.374855876 0.608938456
vt 0.402881145 0.598516107
vt 0.38188532 0.590834439
vt 0.406311274 0.590813041
vt 0.385322452 0.598512948
vt 0.370966941 0.57188797
vt 0.376975656 0.552653193
vt 0.370973378 0.549985588
vt 0.377029538 0.569117963
vt 0.386797488 0.543049812
vt 0.384009123 0.584908068
vt 0.38405329 0.537063956
vt 0.386770427 0.578885674
vt 0.403261989 0.543049812
vt 0.406007677 0.584927022
vt 0.406051993 0.537063956
vt 0.403248549 0.578880787
vt 0.413087606 0.552734494
vt 0.419106424 0.571876824
vt 0.41914618 0.550013006
vt 0.413033932 0.569083989
vt 0.406330079 0.644660175
vt 0.402892411 0.636925817
vt 0.385353833 0.636925817
vt 0.381875157 0.644730031
vt 0.420893639 0.630028725
vt 0.374906868 0.626518071
vt 0.413319528 0.626518548
vt 0.367297947 0.630028725
vt 0.420891523 0.605396688
vt 0.374855876 0.608938456
vt 0.413319767 0.608899772
vt 0.367297173 0.605462372
vt 0.406311274 0.590813041
vt 0.385322452 0.598512948
vt 0.402881145 0.598516107
vt 0.38188532 0.590834439
vt 0.38405329 0.537063956
vt 0.386797488 0.543049812
vt 0.403261989 0.543049812
vt 0.406051993 0.537063956
vt 0.370973378 0.549985588
vt 0.413087606 0.552734494
vt 0.376975656 0.552653193
vt 0.41914618 0.550013006
vt 0.370966941 0.57188797
vt 0.413033932 0.569083989
vt 0.377029538 0.569117963
vt 0.419106424 0.571876824
vt 0.384009123 0.584908068
vt 0.403248549 0.578880787
vt 0.386770427 0.578885674
vt 0.406007677 0.584927022
vn -0.382684082 0 0.923879325
vn 0.3826828 1.07996016E-07 0.923879802
vn 0.38268289 1.07996016E-07 0.923879743
vn -0.382684082 0 0.923879325
vn -0.707107663 -1.03126304E-07 0.707105875
vn -0.707107663 -1.03126283E-07 0.707105875
vn 0.38268289 1.07996016E-07 0.923879743
vn 0.3826828 1.07996016E-07 0.923879802
vn 0.707105875 1.02657282E-07 0.707107663
vn 0.707105875 1.02657282E-07 0.707107663
vn 1 0 0
vn 1 0 0
vn 1 0 0
vn 1 0 0
vn 0.707105875 0 -0.707107663
vn 0.707105875 0 -0.707107663
vn 0.3826828 0 -0.923879802
vn 0.38268286 0 -0.923879743
vn -0.382684082 0 -0.923879325
vn -0.382684082 0 -0.923879325
vn -0.707107663 -1.71564622E-07 -0.707105875
vn -0.707107663 -1.7156465E-07 -0.707105875
vn -1 -1.93786775E-07 0
vn -1 -1.93786775E-07 0
vn -1 -1.93786775E-07 0
vn -1 -1.93786775E-07 0
vn -0.382685483 -0.000232787235 -0.923878729
vn 0.382681549 -0.000232638573 -0.923880339
vn 0.382685304 -0.000232638602 -0.923878729
vn -0.382681519 -0.000232787192 -0.923880339
vn -0.707106769 -0.000218422574 -0.707106769
vn -0.707106769 -0.000218422574 -0.707106769
vn 0.382685304 -0.000232638602 -0.923878729
vn 0.382681549 -0.000232638573 -0.923880339
vn 0.707106769 -0.000218148023 -0.707106769
vn 0.707106769 -0.000218148052 -0.707106769
vn 1 -0.000211615159 0
vn 1 -0.000211615159 0
vn 1 -0.000211615188 0
vn 1 -0.000211615159 0
vn 0.707106769 -0.000218080488 0.707106769
vn 0.707106769 -0.000218080473 0.707106769
vn 0.382681549 -0.000232549603 0.923880339
vn 0.382685304 -0.000232549603 0.923878729
vn -0.382681519 -0.000232697683 0.923880339
vn -0.382685483 -0.000232697697 0.923878729
vn -0.707106769 -0.000218354078 0.707106769
vn -0.707106769 -0.000218354078 0.707106769
vn -1 -0.000212002749 0
vn -1 -0.000212002749 0
vn -1 -0.000212002749 0
vn -1 -0.000212002749 0
vn 0.382083416 0.0382127687 0.9233374
vn -0.382715464 0.0382132083 0.923075676
vn -0.382083595 0.0382122435 0.9233374
vn 0.382715344 0.0382137336 0.923075676
vn 0.706651986 0.035845574 0.706652582
vn 0.706651986 0.035845574 0.706652582
vn 0.99939537 0.0347708613 0
vn 0.99939537 0.0347708613 0
vn 0.99939537 0.0347708613 0
vn 0.99939537 0.0347708613 0
vn -0.99939537 0.0347710587 0
vn -0.99939537 0.034771055 0
vn -0.99939537 0.034771055 0
vn -0.99939537 0.0347710587 0
vn -0.382083595 0.0382122435 0.9233374
vn -0.382715464 0.0382132083 0.923075676
vn -0.706652343 0.0358445831 0.706652343
vn -0.706652343 0.0358445905 0.706652343
vn -0.706652224 0.035843052 -0.706652582
vn -0.706652224 0.0358430482 -0.706652522
vn -0.382715315 0.0382099301 -0.923075855
vn -0.382083207 0.0382089615 -0.923337698
vn 0.382715642 0.038209375 -0.923075795
vn 0.382083356 0.0382084064 -0.923337698
vn 0.706652582 0.0358420201 -0.706652284
vn 0.706652522 0.0358420238 -0.706652284
vn -8.40831206E-07 0.508132219 0.861279011
vn -8.40831206E-07 0.50813216 0.86127913
vn -8.40831206E-07 0.50813216 0.86127913
vn -8.40831206E-07 0.50813216 0.86127913
vn -3.45970943E-06 0.519326866 -0.854575574
vn -3.45970898E-06 0.519326866 -0.854575574
vn -3.45970943E-06 0.519326866 -0.854575574
vn -3.45970898E-06 0.519326866 -0.854575574
vn 0.850738466 0.525589287 8.69468067E-07
vn 0.850738466 0.525589287 8.69468124E-07
vn 0.850738466 0.525589287 8.69468124E-07
vn 0.850738466 0.525589287 8.69468067E-07
vn -0.865109086 0.501583874 0
vn -0.865109086 0.501583815 0
vn -0.865109086 0.501583874 0
vn -0.865109086 0.501583874 0
vn -0.606971979 0.51300025 0.606972575
vn -0.606971979 0.51300025 0.606972575
vn -0.606971979 0.51300025 0.606972575
vn -0.606971979 0.51300025 0.606972516
vn 0.59975481 0.529703259 0.599757016
vn 0.59975493 0.529703379 0.599757016
vn 0.59975493 0.529703379 0.599757016
vn 0.59975493 0.529703379 0.599757016
vn -0.603611529 0.520869374 -0.603612602
vn -0.603611529 0.520869493 -0.603612602
vn -0.603611469 0.520869434 -0.603612602
vn -0.603611529 0.520869493 -0.603612602
vn 0.596364379 0.537300289 -0.596370578
vn 0.596364379 0.537300229 -0.596370637
vn 0.596364379 0.537300229 -0.596370637
vn 0.596364379 0.537300229 -0.596370637
vn -0.154370219 -0.916542172 0.368944913
vn 0.152373731 -0.916551232 0.369751126
vn 0.154369563 -0.916542172 0.368945092
vn -0.152374089 -0.916551232 0.369750977
vn -0.303068906 -0.903491735 0.303071052
vn -0.303068906 -0.903491735 0.303071082
vn 0.154369563 -0.916542172 0.368945092
vn 0.152373731 -0.916551232 0.369751126
vn 0.303068608 -0.903491735 0.30307129
vn 0.303068638 -0.903491735 0.30307132
vn 0.42551139 -0.904953063 -8.08906123E-07
vn 0.42551139 -0.904953063 -8.08906123E-07
vn 0.42551139 -0.904953063 -8.08906179E-07
vn 0.42551139 -0.904953063 -8.08906236E-07
vn 0.303069174 -0.903491735 -0.303070843
vn 0.303069144 -0.903491735 -0.303070873
vn 0.152374223 -0.916551232 -0.369751006
vn 0.154370382 -0.916542172 -0.368944764
vn -0.152374908 -0.916550875 -0.369751722
vn -0.154371068 -0.916541755 -0.368945509
vn -0.30307132 -0.903490424 -0.303072065
vn -0.30307135 -0.903490424 -0.303072065
vn -0.425514907 -0.904951394 -4.04456443E-07
vn -0.425514907 -0.904951513 -4.04456387E-07
vn -0.425514907 -0.904951394 -4.04456387E-07
vn -0.425514907 -0.904951394 -4.04456443E-07
vn -0.808935225 -0.478703022 -0.341273069
vn -0.80893451 -0.478703886 0.341273457
vn -0.814406037 -0.478315085 0.328568667
vn -0.814406276 -0.478314191 -0.328569561
vn -0.328566462 -0.478315115 0.814406931
vn -0.341277242 -0.478702933 -0.808933437
vn -0.341275275 -0.478704065 0.808933675
vn -0.328566521 -0.478313893 -0.814407647
vn 0.328567326 -0.478312939 0.814407945
vn 0.341276556 -0.478700072 -0.808935463
vn 0.341274619 -0.478701651 0.808935344
vn 0.328568578 -0.4783113 -0.814408422
vn 0.814409316 -0.478309304 0.328569114
vn 0.808937252 -0.478697568 -0.341275841
vn 0.808936357 -0.478698224 0.341276914
vn 0.814408898 -0.478308707 -0.328570962
vn -0 -1 0
vn -0 -1 0
vn -0 -1 0
vn -0 -1 0
vn -0 -1 0
vn -0 -1 0
vn -0 -1 0
vn -0 -1 0
vn -0 -1 0
vn -0 -1 0
vn -0 -1 0
vn -0 -1 0
vn -0 -1 0
vn -0 -1 0
vn -0 -1 0
vn -0 -1 0
vn 0.0174528528 0.999820888 0.00733178575
vn 0.0175737794 0.99982065 0.00706135482
vn 0.0175330658 0.99982208 -0.00697138626
vn 0.0173699819 0.999822319 -0.00732685532
vn 0.00745504443 0.999817669 0.0175801907
vn 0.00694367103 0.999821007 -0.0175994989
vn 0.00698151905 0.999817193 0.0178045128
vn 0.0073722708 0.999821484 -0.0173996016
vn -0.00747858733 0.999814093 0.0177732073
vn -0.0071366434 0.999818146 -0.0176839046
vn -0.00719177444 0.999813974 0.0179015007
vn -0.00738122687 0.999818385 -0.0175757017
vn -0.0178222712 0.999812901 0.00752376765
vn -0.0179364588 0.999814332 -0.00705379806
vn -0.0179883558 0.999812543 0.00716044568
vn -0.0177244283 0.999814808 -0.00750381313
vn -0 1 0
vn -0 1 0
vn -0 1 0
vn -0 1 0
vn -0 1 0
vn -0 1 0
vn -0 1 0
vn -0 1 0
vn -0 1 0
vn -0 1 0
vn -0 1 0
vn -0 1 0
vn -0 1 0
vn -0 1 0
vn -0 1 0
vn -0 1 0
g P_Vert_OneCap_0
f 3/3/3 2/2/2 1/1/1
f 2/2/2 4/4/4 1/1/1
f 1/1/1 4/4/4 5/5/5
f 4/4/4 6/6/6 5/5/5
f 9/9/9 8/8/8 7/7/7
f 10/10/10 9/9/9 7/7/7
f 13/13/13 12/12/12 11/11/11
f 14/14/14 13/13/13 11/11/11
f 17/17/17 16/16/16 15/15/15
f 18/18/18 17/17/17 15/15/15
f 19/19/19 17/17/17 18/18/18
f 20/20/20 19/19/19 18/18/18
f 21/21/21 19/19/19 20/20/20
f 22/22/22 21/21/21 20/20/20
f 25/25/25 24/24/24 23/23/23
f 26/26/26 25/25/25 23/23/23
f 29/29/29 28/28/28 27/27/27
f 28/28/28 30/30/30 27/27/27
f 27/27/27 30/30/30 31/31/31
f 30/30/30 32/32/32 31/31/31
f 35/35/35 34/34/34 33/33/33
f 36/36/36 35/35/35 33/33/33
f 39/39/39 38/38/38 37/37/37
f 40/40/40 39/39/39 37/37/37
f 43/43/43 42/42/42 41/41/41
f 44/44/44 43/43/43 41/41/41
f 45/45/45 43/43/43 44/44/44
f 46/46/46 45/45/45 44/44/44
f 47/47/47 45/45/45 46/46/46
f 48/48/48 47/47/47 46/46/46
f 51/51/51 50/50/50 49/49/49
f 52/52/52 51/51/51 49/49/49
f 55/55/55 54/54/54 53/53/53
f 54/54/54 56/56/56 53/53/53
f 53/53/53 56/56/56 57/57/57
f 56/56/56 58/58/58 57/57/57
f 61/61/61 60/60/60 59/59/59
f 62/62/62 61/61/61 59/59/59
f 65/65/65 64/64/64 63/63/63
f 66/66/66 65/65/65 63/63/63
f 69/69/69 68/68/68 67/67/67
f 70/70/70 69/69/69 67/67/67
f 73/73/73 72/72/72 71/71/71
f 74/74/74 73/73/73 71/71/71
f 75/75/75 73/73/73 74/74/74
f 76/76/76 75/75/75 74/74/74
f 77/77/77 75/75/75 76/76/76
f 78/78/78 77/77/77 76/76/76
f 81/81/81 80/80/80 79/79/79
f 82/82/82 81/81/81 79/79/79
f 85/85/85 84/84/84 83/83/83
f 86/86/86 85/85/85 83/83/83
f 89/89/89 88/88/88 87/87/87
f 90/90/90 89/89/89 87/87/87
f 93/93/93 92/92/92 91/91/91
f 94/94/94 93/93/93 91/91/91
f 97/97/97 96/96/96 95/95/95
f 98/98/98 97/97/97 95/95/95
f 101/101/101 100/100/100 99/99/99
f 102/102/102 101/101/101 99/99/99
f 105/105/105 104/104/104 103/103/103
f 106/106/106 105/105/105 103/103/103
f 109/109/109 108/108/108 107/107/107
f 110/110/110 109/109/109 107/107/107
f 113/113/113 112/112/112 111/111/111
f 112/112/112 114/114/114 111/111/111
f 111/111/111 114/114/114 115/115/115
f 114/114/114 116/116/116 115/115/115
f 119/119/119 118/118/118 117/117/117
f 120/120/120 119/119/119 117/117/117
f 123/123/123 122/122/122 121/121/121
f 124/124/124 123/123/123 121/121/121
f 127/127/127 126/126/126 125/125/125
f 128/128/128 127/127/127 125/125/125
f 129/129/129 127/127/127 128/128/128
f 130/130/130 129/129/129 128/128/128
f 131/131/131 129/129/129 130/130/130
f 132/132/132 131/131/131 130/130/130
f 135/135/135 134/134/134 133/133/133
f 136/136/136 135/135/135 133/133/133
f 139/139/139 138/138/138 137/137/137
f 140/140/140 139/139/139 137/137/137
f 139/139/139 141/141/141 138/138/138
f 140/140/140 137/137/137 142/142/142
f 141/141/141 143/143/143 138/138/138
f 144/144/144 140/140/140 142/142/142
f 141/141/141 145/145/145 143/143/143
f 144/144/144 142/142/142 146/146/146
f 145/145/145 147/147/147 143/143/143
f 148/148/148 144/144/144 146/146/146
f 145/145/145 149/149/149 147/147/147
f 148/148/148 146/146/146 150/150/150
f 149/149/149 151/151/151 147/147/147
f 152/152/152 148/148/148 150/150/150
f 152/152/152 150/150/150 151/151/151
f 149/149/149 152/152/152 151/151/151
f 155/155/155 154/154/154 153/153/153
f 154/154/154 156/156/156 153/153/153
f 157/157/157 154/154/154 155/155/155
f 153/153/153 156/156/156 158/158/158
f 159/159/159 157/157/157 155/155/155
f 156/156/156 160/160/160 158/158/158
f 161/161/161 157/157/157 159/159/159
f 158/158/158 160/160/160 162/162/162
f 163/163/163 161/161/161 159/159/159
f 160/160/160 164/164/164 162/162/162
f 165/165/165 161/161/161 163/163/163
f 162/162/162 164/164/164 166/166/166
f 167/167/167 165/165/165 163/163/163
f 164/164/164 168/168/168 166/166/166
f 168/168/168 165/165/165 167/167/167
f 166/166/166 168/168/168 167/167/167
f 171/171/171 170/170/170 169/169/169
f 172/172/172 171/171/171 169/169/169
f 169/169/169 170/170/170 173/173/173
f 174/174/174 171/171/171 172/172/172
f 170/170/170 175/175/175 173/173/173
f 176/176/176 174/174/174 172/172/172
f 173/173/173 175/175/175 177/177/177
f 178/178/178 174/174/174 176/176/176
f 175/175/175 179/179/179 177/177/177
f 180/180/180 178/178/178 176/176/176
f 177/177/177 179/179/179 181/181/181
f 182/182/182 178/178/178 180/180/180
f 179/179/179 183/183/183 181/181/181
f 184/184/184 182/182/182 180/180/180
f 181/181/181 183/183/183 184/184/184
f 183/183/183 182/182/182 184/184/184
f 187/187/187 186/186/186 185/185/185
f 188/188/188 187/187/187 185/185/185
f 185/185/185 186/186/186 189/189/189
f 190/190/190 187/187/187 188/188/188
f 186/186/186 191/191/191 189/189/189
f 192/192/192 190/190/190 188/188/188
f 189/189/189 191/191/191 193/193/193
f 194/194/194 190/190/190 192/192/192
f 191/191/191 195/195/195 193/193/193
f 196/196/196 194/194/194 192/192/192
f 193/193/193 195/195/195 197/197/197
f 198/198/198 194/194/194 196/196/196
f 195/195/195 199/199/199 197/197/197
f 200/200/200 198/198/198 196/196/196
f 197/197/197 199/199/199 200/200/200
f 199/199/199 198/198/198 200/200/200
