g P_Bend_B
v 0.0741218776 -0.3220388 0.0741423815
v 0.0405388549 -0.355622441 0.0741439238
v 0.0741218776 -0.3556225 0.0405593477
v 0.0405386575 -0.207378417 0.0741418898
v 0.0741218776 -0.240961283 0.0741426572
v 0.0741226524 -0.207378671 0.0405586697
v -0.0741229504 -0.240961492 0.0741415024
v -0.0405385569 -0.207378328 0.0741411075
v -0.0741217807 -0.207377866 0.0405588634
v -0.0405373983 -0.355622619 0.0741439238
v -0.0741225556 -0.3220388 0.0741420761
v -0.0741221681 -0.35562256 0.0405588523
v -0.0741219744 -0.32203871 -0.0741019696
v -0.0405393392 -0.35562247 -0.0741028413
v -0.0741221681 -0.355622768 -0.0405171961
v -0.0405377857 -0.207378045 -0.0741023496
v -0.0741219744 -0.240961567 -0.0741019696
v -0.0741217807 -0.207377747 -0.0405189395
v 0.074122265 -0.24096173 -0.0741019696
v 0.0405382738 -0.20737797 -0.0741025507
v 0.0741226524 -0.20737797 -0.0405185558
v 0.0405382738 -0.3556225 -0.0741017759
v 0.074122265 -0.3220388 -0.0741019696
v 0.074122265 -0.35562247 -0.0405183583
v 0.0490130708 -0.388270676 0.499999315
v 0.0490132794 -0.388295233 0.218749061
v -0.0490127541 -0.388295442 0.218748376
v -0.049012959 -0.388270855 0.499998629
v -0.107020073 -0.330287457 0.218748361
v -0.107020594 -0.33026287 0.499998659
v 0.107020698 -0.330262989 0.499999315
v 0.107020907 -0.330287576 0.218749046
v 0.0490132794 -0.388295233 0.218749061
v 0.0490130708 -0.388270676 0.499999315
v 0.10702087 -0.232236564 0.499998629
v 0.107021078 -0.232261151 0.218748376
v 0.107020907 -0.330287576 0.218749046
v 0.107020698 -0.330262989 0.499999315
v 0.0490134023 -0.174228802 0.499997973
v 0.107021078 -0.232261151 0.218748376
v 0.10702087 -0.232236564 0.499998629
v 0.0490136035 -0.174253419 0.21874769
v -0.0490131192 -0.174228802 0.499998659
v -0.0490129218 -0.174253419 0.218748376
v -0.107020594 -0.232236966 0.499998659
v -0.107020073 -0.232261583 0.218748361
v -0.107020594 -0.33026287 0.499998659
v -0.107020073 -0.330287457 0.218748361
v -0.107020073 -0.232261583 0.218748361
v -0.107020594 -0.232236966 0.499998659
v -0.0801070556 -0.317936987 0.499998659
v -0.0801633745 -0.317985803 0.218748361
v -0.0367134102 -0.361434311 0.218748361
v -0.0366875492 -0.361357123 0.499998659
v 0.0367135517 -0.361434132 0.218748361
v 0.0366875082 -0.361356795 0.499998629
v 0.0801640078 -0.317985862 0.218748376
v 0.0801074952 -0.317937076 0.499998659
v -0.0801067203 -0.244562596 0.499999344
v -0.0801630393 -0.244562998 0.218749046
v -0.0801633745 -0.317985803 0.218748361
v -0.0801070556 -0.317936987 0.499998659
v -0.0366872214 -0.201142788 0.499999344
v -0.0801630393 -0.244562998 0.218749046
v -0.0801067203 -0.244562596 0.499999344
v -0.0367130674 -0.20111458 0.218749046
v 0.036687009 -0.201142952 0.499998659
v 0.0367130563 -0.201114759 0.218748376
v 0.0801074952 -0.244562671 0.499997973
v 0.0801640078 -0.244563058 0.21874769
v 0.0801074952 -0.317937076 0.499998659
v 0.0801640078 -0.317985862 0.218748376
v 0.0801640078 -0.244563058 0.21874769
v 0.0801074952 -0.244562671 0.499997973
v 0.106638409 0.500000536 -0.0490137674
v 0.106662974 -0.0628825873 -0.0490139648
v 0.106663145 -0.0628832504 0.049012024
v 0.106638581 0.499999911 0.0490123183
v 0.0486552231 -0.0628832504 0.107019432
v 0.0486306138 0.499999911 0.107019916
v 0.0486306958 0.500000536 -0.107021369
v 0.0486552976 -0.0628825873 -0.107021555
v 0.106662974 -0.0628825873 -0.0490139648
v 0.106638409 0.500000536 -0.0490137674
v -0.0493957028 0.499999911 -0.107021518
v -0.0493710898 -0.0628832504 -0.107021712
v 0.0486552976 -0.0628825873 -0.107021555
v 0.0486306958 0.500000536 -0.107021369
v -0.107403457 0.499999225 -0.0490140505
v -0.0493710898 -0.0628832504 -0.107021712
v -0.0493957028 0.499999911 -0.107021518
v -0.10737884 -0.0628838986 -0.0490142517
v -0.107403457 0.499999911 0.0490124114
v -0.10737884 -0.0628832504 0.0490122214
v -0.0493952893 0.499999911 0.107019916
v -0.04937068 -0.0628832504 0.107019432
v 0.0486306138 0.499999911 0.107019916
v 0.0486552231 -0.0628832504 0.107019432
v -0.04937068 -0.0628832504 0.107019432
v -0.0493952893 0.499999911 0.107019916
v 0.0363047272 0.499999911 0.0801064447
v 0.0363535061 -0.0628832504 0.0801628381
v 0.079802081 -0.0628832504 0.0367127806
v 0.0797248036 0.499999911 0.0366869159
v 0.0798018351 -0.0628832504 -0.0367141329
v 0.0797245502 0.499999911 -0.0366881751
v 0.0363535881 -0.0628832504 -0.0801646337
v 0.0363048092 0.499999911 -0.0801081434
v -0.0370696858 0.500000536 0.0801060572
v -0.0370692834 -0.0628825873 0.0801624507
v 0.0363535061 -0.0628832504 0.0801628381
v 0.0363047272 0.499999911 0.0801064447
v -0.0804895163 0.500000536 0.0366866104
v -0.0370692834 -0.0628825873 0.0801624507
v -0.0370696858 0.500000536 0.0801060572
v -0.0805176944 -0.0628825873 0.0367123894
v -0.0804893449 0.499999911 -0.0366875827
v -0.0805175304 -0.0628832504 -0.0367137454
v -0.0370695852 0.499999225 -0.0801081434
v -0.0370692015 -0.0628838986 -0.0801646337
v 0.0363048092 0.499999911 -0.0801081434
v 0.0363535881 -0.0628832504 -0.0801646337
v -0.0370692015 -0.0628838986 -0.0801646337
v -0.0370695852 0.499999225 -0.0801081434
v -0.105187722 -0.393428326 0.0712321848
v -0.105187722 -0.393428326 -0.0712182298
v -0.111350909 -0.386674464 -0.0712182298
v -0.111350909 -0.386674613 0.0712319911
v -0.071225062 -0.393428326 -0.105180547
v 0.0712249652 -0.393428415 -0.105180591
v 0.0712241903 -0.386674613 -0.11091309
v -0.0712258369 -0.386674613 -0.11091309
v 0.105187424 -0.393428326 -0.0712182298
v 0.105187424 -0.393428326 0.0712321848
v 0.111350611 -0.386674404 0.0712319911
v 0.111350611 -0.386674464 -0.0712182298
v 0.0712249652 -0.393428326 0.105194449
v -0.071225062 -0.393428326 0.105194449
v -0.0712254494 -0.386674404 0.111808181
v 0.0712247714 -0.386674404 0.111808181
v -0.071225062 -0.170420036 0.105194449
v 0.0712251589 -0.170420036 0.105194449
v 0.0712247714 -0.176299393 0.111808181
v -0.0712252557 -0.176299453 0.111808091
v 0.105187424 -0.170420036 0.0712320879
v 0.105187424 -0.170420021 -0.0712182298
v 0.111350037 -0.176299542 -0.0712182298
v 0.111350037 -0.176299542 0.0712319836
v 0.0712251589 -0.170420021 -0.105180547
v -0.071225062 -0.170420021 -0.105180547
v -0.0712258369 -0.176299542 -0.11091309
v 0.0712241903 -0.176299542 -0.11091309
v -0.105187722 -0.170420021 -0.0712182298
v -0.105187722 -0.170420036 0.0712320879
v -0.111350909 -0.176299542 0.0712319836
v -0.111350909 -0.176299542 -0.0712183267
v 0.111350611 -0.210261971 0.105194263
v 0.111350611 -0.352712005 0.105194263
v 0.105187029 -0.352711946 0.111808181
v 0.105187029 -0.210261911 0.111808181
v -0.111350909 -0.352712095 0.105194263
v -0.111350909 -0.210262045 0.105194248
v -0.105188102 -0.210261911 0.111808181
v -0.105188102 -0.352711946 0.111808181
v 0.111350611 -0.352711976 -0.105180688
v 0.111350611 -0.210261971 -0.105180688
v 0.105186649 -0.210262105 -0.110913001
v 0.105186649 -0.352712095 -0.11091309
v -0.111350909 -0.210262045 -0.105180643
v -0.111350909 -0.352712095 -0.105180643
v -0.105188489 -0.352712095 -0.11091309
v -0.105188489 -0.210262045 -0.11091309
v 0.074122265 -0.24096173 -0.0741019696
v -0.0405377857 -0.207378045 -0.0741023496
v 0.0405382738 -0.20737797 -0.0741025507
v -0.0741219744 -0.240961567 -0.0741019696
v -0.0741219744 -0.32203871 -0.0741019696
v 0.074122265 -0.3220388 -0.0741019696
v 0.0405382738 -0.3556225 -0.0741017759
v -0.0405393392 -0.35562247 -0.0741028413
v 0.0712251589 -0.170420021 -0.105180547
v -0.071225062 -0.137983516 -0.105186597
v -0.071225062 -0.170420021 -0.105180547
v 0.0712249652 -0.137983516 -0.105186597
v 0.105187424 -0.170420021 -0.0712182298
v 0.10518723 -0.137983516 -0.0712243319
v 0.105187424 -0.170420036 0.0712320879
v 0.10518723 -0.137983516 0.0712259859
v 0.0712249652 -0.137983516 0.105188347
v 0.0712251589 -0.170420036 0.105194449
v -0.071225062 -0.170420036 0.105194449
v -0.071225062 -0.137983516 0.105188347
v -0.105187722 -0.170420036 0.0712320879
v -0.105187722 -0.137983516 0.0712259859
v -0.105187722 -0.170420021 -0.0712182298
v -0.105187722 -0.137983516 -0.0712243319
v -0.071225062 -0.170420021 -0.105180547
v -0.071225062 -0.137983516 -0.105186597
v 0.0594316907 -0.131365284 -0.119561933
v -0.0589337535 -0.0514123812 -0.118560098
v -0.0594317913 -0.131365284 -0.119561933
v 0.0589340478 -0.0514123812 -0.118560098
v 0.119562708 -0.131365284 -0.0594309643
v 0.118561417 -0.0514123775 -0.0589327402
v 0.119562708 -0.131365284 0.059432704
v 0.118561417 -0.0514123775 0.0589348674
v 0.0594316907 -0.131365284 0.119563729
v 0.0589340478 -0.0514123775 0.118562236
v -0.0594317913 -0.131365284 0.119563729
v -0.0589337535 -0.0514123775 0.118562236
v -0.119563006 -0.131365284 0.059432704
v -0.118560933 -0.0514123775 0.0589348674
v -0.119563006 -0.131365284 -0.0594309643
v -0.118560933 -0.0514123775 -0.0589327402
v -0.0594317913 -0.131365284 -0.119561933
v -0.0589337535 -0.0514123812 -0.118560098
v -0.0926989466 -0.0529498085 -0.0506779142
v -0.0741217807 -0.207377866 0.0405588634
v -0.0926989466 -0.0529498085 0.0506799482
v -0.0741217807 -0.207377747 -0.0405189395
v -0.0506786443 -0.0529498085 -0.0926981717
v -0.0405377857 -0.207378045 -0.0741023496
v 0.0506791249 -0.0529498085 -0.0926981717
v 0.0405382738 -0.20737797 -0.0741025507
v 0.0926994309 -0.0529498085 -0.0506778136
v 0.0741226524 -0.20737797 -0.0405185558
v 0.0926994309 -0.0529498085 0.0506799482
v 0.0741226524 -0.207378671 0.0405586697
v 0.0506791249 -0.0529498085 0.0927002504
v 0.0405386575 -0.207378417 0.0741418898
v -0.0506786443 -0.0529498085 0.0927002504
v -0.0405385569 -0.207378328 0.0741411075
v -0.0926989466 -0.0529498085 0.0506799482
v -0.0741217807 -0.207377866 0.0405588634
v -0.071225062 -0.393428326 -0.105180547
v 0.0712249652 -0.424978405 -0.105186597
v 0.0712249652 -0.393428415 -0.105180591
v -0.0712248608 -0.424978405 -0.105186597
v -0.105187722 -0.393428326 -0.0712182298
v -0.10518752 -0.424978405 -0.0712243319
v -0.105187722 -0.393428326 0.0712321848
v -0.10518752 -0.424978405 0.0712259859
v -0.0712248608 -0.424978405 0.105188347
v -0.071225062 -0.393428326 0.105194449
v 0.0712249652 -0.393428326 0.105194449
v 0.0712249652 -0.424978405 0.105188347
v 0.105187424 -0.393428326 0.0712321848
v 0.105187424 -0.424978405 0.0712259859
v 0.105187424 -0.393428326 -0.0712182298
v 0.105187424 -0.424978405 -0.0712243319
v 0.0712249652 -0.393428415 -0.105180591
v 0.0712249652 -0.424978405 -0.105186597
v -0.0594315939 -0.431596756 -0.119561933
v 0.0589336567 -0.511549711 -0.118560098
v 0.0594316907 -0.431596756 -0.119561933
v -0.0589339547 -0.511549711 -0.118560098
v -0.119562611 -0.431596756 -0.0594309606
v -0.11856132 -0.511549711 -0.0589327402
v -0.119562611 -0.431596756 0.0594327152
v -0.11856132 -0.511549711 0.0589348786
v -0.0594315939 -0.431596756 0.119563729
v -0.0589339547 -0.511549711 0.118562236
v 0.0594316907 -0.431596756 0.119563729
v 0.0589336567 -0.511549711 0.118562236
v 0.119562909 -0.431596756 0.0594327152
v 0.118560828 -0.511549711 0.0589348786
v 0.119562909 -0.431596756 -0.0594309606
v 0.118560828 -0.511549711 -0.0589327402
v 0.0594316907 -0.431596756 -0.119561933
v 0.0589336567 -0.511549711 -0.118560098
v 0.0926988423 -0.510012209 -0.0506779104
v 0.0741218776 -0.3556225 0.0405593477
v 0.0926988423 -0.510012209 0.0506799482
v 0.074122265 -0.35562247 -0.0405183583
v 0.0506785437 -0.510012209 -0.0926981717
v 0.0405382738 -0.3556225 -0.0741017759
v -0.0506792255 -0.510012209 -0.0926981717
v -0.0405393392 -0.35562247 -0.0741028413
v -0.092699334 -0.510012209 -0.0506778136
v -0.0741221681 -0.355622768 -0.0405171961
v -0.092699334 -0.510012209 0.0506799482
v -0.0741221681 -0.35562256 0.0405588523
v -0.0506792255 -0.510012209 0.0927002504
v -0.0405373983 -0.355622619 0.0741439238
v 0.0506785437 -0.510012209 0.0927002504
v 0.0405388549 -0.355622441 0.0741439238
v 0.0926988423 -0.510012209 0.0506799482
v 0.0741218776 -0.3556225 0.0405593477
v -0.105188102 -0.210261911 0.111808181
v -0.105189845 -0.352705896 0.144075498
v -0.105188102 -0.352711946 0.111808181
v -0.105189845 -0.210255891 0.144075498
v -0.0712252557 -0.176299453 0.111808091
v -0.0712271929 -0.176293433 0.144075498
v 0.0712247714 -0.176299393 0.111808181
v 0.0712228343 -0.176293433 0.144075498
v 0.1051853 -0.210255891 0.144075498
v 0.105187029 -0.210261911 0.111808181
v 0.105187029 -0.352711946 0.111808181
v 0.1051853 -0.352705896 0.144075498
v 0.0712247714 -0.386674404 0.111808181
v 0.0712228343 -0.386668384 0.144075498
v -0.0712254494 -0.386674404 0.111808181
v -0.0712271929 -0.386668384 0.144075498
v -0.105188102 -0.352711946 0.111808181
v -0.105189845 -0.352705896 0.144075498
v -0.119564928 -0.222049192 0.150781214
v -0.11856325 -0.340414375 0.229996711
v -0.119564928 -0.34091267 0.150781214
v -0.11856325 -0.222546726 0.229996711
v -0.0594339184 -0.161918133 0.150781199
v -0.0589358881 -0.162919447 0.229996711
v 0.0594295599 -0.161918133 0.150781199
v 0.0589319132 -0.162919447 0.229996711
v 0.119560584 -0.222049192 0.150781214
v 0.118559092 -0.222546726 0.229996711
v 0.119560584 -0.34091267 0.150781214
v 0.118559092 -0.340414375 0.229996711
v 0.0594295599 -0.401043773 0.150781214
v 0.0589319132 -0.400041729 0.229996696
v -0.0594339184 -0.401043773 0.150781214
v -0.0589358881 -0.400041729 0.229996696
v -0.119564928 -0.34091267 0.150781214
v -0.11856325 -0.340414375 0.229996711
v -0.0506809652 -0.374179691 0.228531182
v 0.0405388549 -0.355622441 0.0741439238
v 0.050676804 -0.374179691 0.228531182
v -0.0405373983 -0.355622619 0.0741439238
v -0.0927012637 -0.33215937 0.228531182
v -0.0741225556 -0.3220388 0.0741420761
v -0.0927012637 -0.230801612 0.228531182
v -0.0741229504 -0.240961492 0.0741415024
v -0.0506807715 -0.188781351 0.228531197
v -0.0405385569 -0.207378328 0.0741411075
v 0.050676804 -0.188781351 0.228531197
v 0.0405386575 -0.207378417 0.0741418898
v 0.0926971063 -0.230801657 0.228531197
v 0.0741218776 -0.240961283 0.0741426572
v 0.0926971063 -0.33215937 0.228531182
v 0.0741218776 -0.3220388 0.0741423815
v 0.050676804 -0.374179691 0.228531182
v 0.0405388549 -0.355622441 0.0741439238
v 0.0741218776 -0.3556225 0.0405593477
v 0.0741218776 -0.240961283 0.0741426572
v 0.0741218776 -0.3220388 0.0741423815
v 0.0741226524 -0.207378671 0.0405586697
v 0.0741226524 -0.20737797 -0.0405185558
v 0.074122265 -0.35562247 -0.0405183583
v 0.074122265 -0.3220388 -0.0741019696
v 0.074122265 -0.24096173 -0.0741019696
v -0.0741221681 -0.355622768 -0.0405171961
v -0.0741219744 -0.240961567 -0.0741019696
v -0.0741219744 -0.32203871 -0.0741019696
v -0.0741217807 -0.207377747 -0.0405189395
v -0.0741217807 -0.207377866 0.0405588634
v -0.0741221681 -0.35562256 0.0405588523
v -0.0741225556 -0.3220388 0.0741420761
v -0.0741229504 -0.240961492 0.0741415024
v -0.111350909 -0.386674464 -0.0712182298
v -0.118583791 -0.328756243 0.0472759791
v -0.111350909 -0.386674613 0.0712319911
v -0.111350909 -0.352712095 0.105194263
v -0.118583791 -0.328756243 -0.0472623259
v -0.111350909 -0.352712095 -0.105180643
v -0.111350909 -0.210262045 -0.105180643
v -0.118583791 -0.234217867 0.0472759902
v -0.111350909 -0.210262045 0.105194248
v -0.111350909 -0.176299542 0.0712319836
v -0.118583791 -0.234217867 -0.0472623296
v -0.111350909 -0.176299542 -0.0712183267
v 0.111350611 -0.386674404 0.0712319911
v 0.118583888 -0.328755945 -0.0472623259
v 0.111350611 -0.386674464 -0.0712182298
v 0.111350611 -0.352711976 -0.105180688
v 0.118583694 -0.328755945 0.0472759791
v 0.111350611 -0.352712005 0.105194263
v 0.111350611 -0.210261971 0.105194263
v 0.118583888 -0.234217688 -0.0472623296
v 0.111350611 -0.210261971 -0.105180688
v 0.111350037 -0.176299542 -0.0712182298
v 0.118583694 -0.234217688 0.0472759902
v 0.111350037 -0.176299542 0.0712319836
v 0.105186649 -0.210262105 -0.110913001
v 0.0472690612 -0.328756124 -0.118146762
v 0.105186649 -0.352712095 -0.11091309
v 0.0712241903 -0.386674613 -0.11091309
v 0.0472690612 -0.234217823 -0.118146665
v 0.0712241903 -0.176299542 -0.11091309
v -0.0712258369 -0.176299542 -0.11091309
v -0.0472693518 -0.328756124 -0.118146762
v -0.0712258369 -0.386674613 -0.11091309
v -0.105188489 -0.352712095 -0.11091309
v -0.0472693518 -0.234217852 -0.118146665
v -0.105188489 -0.210262045 -0.11091309
v -0.111350909 -0.176299542 -0.0712183267
v -0.111350909 -0.210262045 -0.105180643
v -0.0963729471 -0.185114056 -0.0963661522
v -0.105187722 -0.170420021 -0.0712182298
v -0.105188489 -0.210262045 -0.11091309
v -0.071225062 -0.170420021 -0.105180547
v -0.0712258369 -0.176299542 -0.11091309
v -0.105188102 -0.352711946 0.111808181
v -0.0963729471 -0.37785998 0.0963797718
v -0.111350909 -0.352712095 0.105194263
v -0.0712254494 -0.386674404 0.111808181
v -0.111350909 -0.386674613 0.0712319911
v -0.071225062 -0.393428326 0.105194449
v -0.105187722 -0.393428326 0.0712321848
v -0.0963729471 -0.185114056 0.0963797644
v -0.0712252557 -0.176299453 0.111808091
v -0.105188102 -0.210261911 0.111808181
v -0.111350909 -0.210262045 0.105194248
v -0.071225062 -0.170420036 0.105194449
v -0.111350909 -0.176299542 0.0712319836
v -0.105187722 -0.170420036 0.0712320879
v 0.0963728502 -0.185114056 0.0963797644
v 0.0712247714 -0.176299393 0.111808181
v 0.0712251589 -0.170420036 0.105194449
v 0.105187029 -0.210261911 0.111808181
v 0.105187424 -0.170420036 0.0712320879
v 0.111350611 -0.210261971 0.105194263
v 0.111350037 -0.176299542 0.0712319836
v 0.0712247714 -0.386674404 0.111808181
v 0.105187029 -0.352711946 0.111808181
v 0.0963728502 -0.37785998 0.0963797718
v 0.0712249652 -0.393428326 0.105194449
v 0.111350611 -0.352712005 0.105194263
v 0.105187424 -0.393428326 0.0712321848
v 0.111350611 -0.386674404 0.0712319911
v 0.0963728502 -0.37785995 -0.0963661522
v 0.0712249652 -0.393428415 -0.105180591
v 0.105187424 -0.393428326 -0.0712182298
v 0.111350611 -0.386674464 -0.0712182298
v 0.0712241903 -0.386674613 -0.11091309
v 0.111350611 -0.352711976 -0.105180688
v 0.105186649 -0.352712095 -0.11091309
v -0.105187722 -0.393428326 -0.0712182298
v -0.071225062 -0.393428326 -0.105180547
v -0.0963729471 -0.37785995 -0.0963661522
v -0.111350909 -0.386674464 -0.0712182298
v -0.0712258369 -0.386674613 -0.11091309
v -0.111350909 -0.352712095 -0.105180643
v -0.105188489 -0.352712095 -0.11091309
v 0.0712241903 -0.176299542 -0.11091309
v 0.0963728502 -0.185114056 -0.0963661522
v 0.0712251589 -0.170420021 -0.105180547
v 0.105186649 -0.210262105 -0.110913001
v 0.105187424 -0.170420021 -0.0712182298
v 0.111350611 -0.210261971 -0.105180688
v 0.111350037 -0.176299542 -0.0712182298
v -0.11856325 -0.222546726 0.229996711
v -0.0927012637 -0.33215937 0.228531182
v -0.11856325 -0.340414375 0.229996711
v -0.0927012637 -0.230801612 0.228531182
v -0.0506809652 -0.374179691 0.228531182
v -0.0589358881 -0.162919447 0.229996711
v -0.0589358881 -0.400041729 0.229996696
v -0.0506807715 -0.188781351 0.228531197
v 0.050676804 -0.374179691 0.228531182
v 0.0589319132 -0.162919447 0.229996711
v 0.0589319132 -0.400041729 0.229996696
v 0.050676804 -0.188781351 0.228531197
v 0.0926971063 -0.33215937 0.228531182
v 0.118559092 -0.222546726 0.229996711
v 0.118559092 -0.340414375 0.229996711
v 0.0926971063 -0.230801657 0.228531197
v -0.105189845 -0.210255891 0.144075498
v -0.119564928 -0.34091267 0.150781214
v -0.105189845 -0.352705896 0.144075498
v -0.119564928 -0.222049192 0.150781214
v -0.0594339184 -0.401043773 0.150781214
v -0.0712271929 -0.176293433 0.144075498
v -0.0712271929 -0.386668384 0.144075498
v -0.0594339184 -0.161918133 0.150781199
v 0.0594295599 -0.401043773 0.150781214
v 0.0712228343 -0.176293433 0.144075498
v 0.0712228343 -0.386668384 0.144075498
v 0.0594295599 -0.161918133 0.150781199
v 0.119560584 -0.34091267 0.150781214
v 0.1051853 -0.210255891 0.144075498
v 0.1051853 -0.352705896 0.144075498
v 0.119560584 -0.222049192 0.150781214
v -0.0589339547 -0.511549711 -0.118560098
v 0.0506785437 -0.510012209 -0.0926981717
v 0.0589336567 -0.511549711 -0.118560098
v -0.0506792255 -0.510012209 -0.0926981717
v 0.0926988423 -0.510012209 -0.0506779104
v -0.11856132 -0.511549711 -0.0589327402
v 0.118560828 -0.511549711 -0.0589327402
v -0.092699334 -0.510012209 -0.0506778136
v 0.0926988423 -0.510012209 0.0506799482
v -0.11856132 -0.511549711 0.0589348786
v 0.118560828 -0.511549711 0.0589348786
v -0.092699334 -0.510012209 0.0506799482
v 0.0506785437 -0.510012209 0.0927002504
v -0.0589339547 -0.511549711 0.118562236
v 0.0589336567 -0.511549711 0.118562236
v -0.0506792255 -0.510012209 0.0927002504
v -0.0712248608 -0.424978405 -0.105186597
v 0.0594316907 -0.431596756 -0.119561933
v 0.0712249652 -0.424978405 -0.105186597
v -0.0594315939 -0.431596756 -0.119561933
v 0.119562909 -0.431596756 -0.0594309606
v -0.10518752 -0.424978405 -0.0712243319
v 0.105187424 -0.424978405 -0.0712243319
v -0.119562611 -0.431596756 -0.0594309606
v 0.119562909 -0.431596756 0.0594327152
v -0.10518752 -0.424978405 0.0712259859
v 0.105187424 -0.424978405 0.0712259859
v -0.119562611 -0.431596756 0.0594327152
v 0.0594316907 -0.431596756 0.119563729
v -0.0712248608 -0.424978405 0.105188347
v 0.0712249652 -0.424978405 0.105188347
v -0.0594315939 -0.431596756 0.119563729
v 0.0589340478 -0.0514123812 -0.118560098
v -0.0506786443 -0.0529498085 -0.0926981717
v -0.0589337535 -0.0514123812 -0.118560098
v 0.0506791249 -0.0529498085 -0.0926981717
v -0.0926989466 -0.0529498085 -0.0506779142
v 0.118561417 -0.0514123775 -0.0589327402
v -0.118560933 -0.0514123775 -0.0589327402
v 0.0926994309 -0.0529498085 -0.0506778136
v -0.0926989466 -0.0529498085 0.0506799482
v 0.118561417 -0.0514123775 0.0589348674
v -0.118560933 -0.0514123775 0.0589348674
v 0.0926994309 -0.0529498085 0.0506799482
v -0.0506786443 -0.0529498085 0.0927002504
v 0.0589340478 -0.0514123775 0.118562236
v -0.0589337535 -0.0514123775 0.118562236
v 0.0506791249 -0.0529498085 0.0927002504
v 0.0712249652 -0.137983516 -0.105186597
v -0.0594317913 -0.131365284 -0.119561933
v -0.071225062 -0.137983516 -0.105186597
v 0.0594316907 -0.131365284 -0.119561933
v -0.119563006 -0.131365284 -0.0594309643
v 0.10518723 -0.137983516 -0.0712243319
v -0.105187722 -0.137983516 -0.0712243319
v 0.119562708 -0.131365284 -0.0594309643
v -0.119563006 -0.131365284 0.059432704
v 0.10518723 -0.137983516 0.0712259859
v -0.105187722 -0.137983516 0.0712259859
v 0.119562708 -0.131365284 0.059432704
v -0.0594317913 -0.131365284 0.119563729
v 0.0712249652 -0.137983516 0.105188347
v -0.071225062 -0.137983516 0.105188347
v 0.0594316907 -0.131365284 0.119563729
v -0.0493952893 0.499999911 0.107019916
v -0.0370696858 0.500000536 0.0801060572
v 0.0363047272 0.499999911 0.0801064447
v 0.0486306138 0.499999911 0.107019916
v -0.107403457 0.499999911 0.0490124114
v 0.0797248036 0.499999911 0.0366869159
v -0.0804895163 0.500000536 0.0366866104
v 0.106638581 0.499999911 0.0490123183
v -0.107403457 0.499999225 -0.0490140505
v 0.0797245502 0.499999911 -0.0366881751
v -0.0804893449 0.499999911 -0.0366875827
v 0.106638409 0.500000536 -0.0490137674
v -0.0493957028 0.499999911 -0.107021518
v 0.0363048092 0.499999911 -0.0801081434
v -0.0370695852 0.499999225 -0.0801081434
v 0.0486306958 0.500000536 -0.107021369
v -0.107020594 -0.232236966 0.499998659
v -0.0801067203 -0.244562596 0.499999344
v -0.0801070556 -0.317936987 0.499998659
v -0.107020594 -0.33026287 0.499998659
v -0.0490131192 -0.174228802 0.499998659
v -0.0366875492 -0.361357123 0.499998659
v -0.0366872214 -0.201142788 0.499999344
v -0.049012959 -0.388270855 0.499998629
v 0.0490134023 -0.174228802 0.499997973
v 0.0366875082 -0.361356795 0.499998629
v 0.036687009 -0.201142952 0.499998659
v 0.0490130708 -0.388270676 0.499999315
v 0.10702087 -0.232236564 0.499998629
v 0.0801074952 -0.317937076 0.499998659
v 0.0801074952 -0.244562671 0.499997973
v 0.107020698 -0.330262989 0.499999315
vt 0.317142308 0.908251464
vt 0.331009269 0.908251584
vt 0.317142308 0.922118366
vt 0.331010252 0.908236563
vt 0.317143321 0.922103465
vt 0.317143321 0.908236563
vt 0.317142427 0.922103465
vt 0.331009269 0.908236563
vt 0.317142427 0.908236444
vt 0.317143321 0.908251584
vt 0.317143321 0.922118604
vt 0.331010252 0.908251584
vt 0.317142308 0.922118604
vt 0.317142308 0.908251584
vt 0.331009269 0.908251584
vt 0.331009269 0.908236563
vt 0.317142427 0.908236563
vt 0.317142427 0.922103465
vt 0.317143321 0.922103465
vt 0.317143321 0.908236444
vt 0.331010371 0.908236563
vt 0.331009269 0.908236444
vt 0.317142308 0.908236563
vt 0.317142308 0.922103465
vt 0.613810122 0.699517012
vt 0.613810122 0.65418005
vt 0.596092403 0.65418005
vt 0.596092403 0.69951725
vt 0.580640495 0.65418005
vt 0.580640495 0.69951725
vt 0.496558607 0.699516594
vt 0.496558607 0.654179931
vt 0.481140107 0.65418005
vt 0.481140107 0.699517012
vt 0.514164567 0.699516058
vt 0.514164567 0.654179931
vt 0.496558607 0.654179931
vt 0.496558607 0.699516594
vt 0.52949959 0.69951582
vt 0.514164567 0.654179931
vt 0.514164567 0.699516058
vt 0.52949959 0.654179931
vt 0.547487676 0.699515283
vt 0.547487676 0.654179931
vt 0.563011706 0.699515164
vt 0.563011706 0.654179931
vt 0.580640495 0.699515045
vt 0.580640495 0.654179931
vt 0.563011706 0.654179931
vt 0.563011706 0.699515164
vt 0.459042341 0.776300192
vt 0.459042281 0.731043339
vt 0.447235465 0.731043339
vt 0.447235525 0.776299775
vt 0.4338485 0.731043339
vt 0.4338485 0.776299238
vt 0.422213614 0.731043339
vt 0.422213614 0.776297987
vt 0.471728832 0.776301861
vt 0.471746385 0.731043339
vt 0.459042281 0.731043339
vt 0.459042341 0.776300192
vt 0.384338289 0.776295841
vt 0.372773349 0.731043339
vt 0.372784823 0.776296854
vt 0.384338289 0.731043339
vt 0.397736907 0.776296377
vt 0.397736907 0.731043339
vt 0.40953815 0.776296616
vt 0.40953815 0.731043339
vt 0.422213614 0.776297987
vt 0.422213614 0.731043339
vt 0.40953815 0.731043339
vt 0.40953815 0.776296616
vt 0.613810122 0.699517012
vt 0.613810122 0.65418005
vt 0.596092403 0.65418005
vt 0.596092403 0.69951725
vt 0.580640495 0.65418005
vt 0.580640495 0.69951725
vt 0.496558607 0.699516594
vt 0.496558607 0.654179931
vt 0.481140107 0.65418005
vt 0.481140107 0.699517012
vt 0.514164567 0.699516058
vt 0.514164567 0.654179931
vt 0.496558607 0.654179931
vt 0.496558607 0.699516594
vt 0.52949959 0.69951582
vt 0.514164567 0.654179931
vt 0.514164567 0.699516058
vt 0.52949959 0.654179931
vt 0.547487676 0.699515283
vt 0.547487676 0.654179931
vt 0.563011706 0.699515164
vt 0.563011706 0.654179931
vt 0.580640495 0.699515045
vt 0.580640495 0.654179931
vt 0.563011706 0.654179931
vt 0.563011706 0.699515164
vt 0.459042341 0.776300192
vt 0.459042281 0.731043339
vt 0.447235465 0.731043339
vt 0.447235525 0.776299775
vt 0.4338485 0.731043339
vt 0.4338485 0.776299238
vt 0.422213614 0.731043339
vt 0.422213614 0.776297987
vt 0.471728832 0.776301861
vt 0.471746385 0.731043339
vt 0.459042281 0.731043339
vt 0.459042341 0.776300192
vt 0.384338289 0.776295841
vt 0.372773349 0.731043339
vt 0.372784823 0.776296854
vt 0.384338289 0.731043339
vt 0.397736907 0.776296377
vt 0.397736907 0.731043339
vt 0.40953815 0.776296616
vt 0.40953815 0.731043339
vt 0.422213614 0.776297987
vt 0.422213614 0.731043339
vt 0.40953815 0.731043339
vt 0.40953815 0.776296616
vt 0.268938422 0.891358078
vt 0.26894024 0.953513324
vt 0.279514015 0.953507304
vt 0.279514015 0.891358078
vt 0.268938422 0.891358078
vt 0.26894024 0.953513324
vt 0.279514015 0.953507304
vt 0.279514015 0.891358078
vt 0.268938422 0.891358078
vt 0.26894024 0.953513324
vt 0.279514015 0.953507304
vt 0.279514015 0.891358078
vt 0.268938422 0.891358078
vt 0.26894024 0.953513324
vt 0.279514015 0.953507304
vt 0.279514015 0.891358078
vt 0.279514015 0.953507304
vt 0.279514015 0.891358078
vt 0.268938422 0.891358078
vt 0.26894024 0.953513324
vt 0.279514134 0.953506827
vt 0.279514015 0.891358078
vt 0.268938422 0.891358078
vt 0.268941134 0.953503728
vt 0.279513896 0.953506708
vt 0.279514015 0.891358078
vt 0.268938422 0.891358078
vt 0.268936336 0.953500807
vt 0.279513896 0.953507066
vt 0.279514015 0.891358078
vt 0.268938422 0.891358078
vt 0.268935919 0.953509569
vt 0.268938422 0.891358078
vt 0.268941134 0.953503728
vt 0.279514134 0.953506827
vt 0.279514015 0.891358078
vt 0.279514134 0.953506827
vt 0.279514015 0.891358078
vt 0.268938422 0.891358078
vt 0.268941134 0.953503728
vt 0.268938422 0.891358078
vt 0.268935919 0.953509569
vt 0.279513896 0.953507066
vt 0.279514015 0.891358078
vt 0.268938422 0.891358078
vt 0.268941134 0.953503728
vt 0.279514134 0.953506827
vt 0.279514015 0.891358078
vt 0.298687547 0.899787009
vt 0.338156849 0.88822639
vt 0.310247809 0.88822639
vt 0.349717259 0.89978689
vt 0.349717259 0.927695811
vt 0.298687547 0.92769593
vt 0.310247809 0.93925631
vt 0.338156849 0.939256191
vt 0.252471089 0.974590302
vt 0.20936656 0.965397239
vt 0.20936656 0.974590302
vt 0.252471089 0.965397239
vt 0.266244501 0.974590302
vt 0.266244501 0.965397239
vt 0.30934909 0.974590302
vt 0.30934909 0.965397239
vt 0.323122621 0.965397239
vt 0.323122621 0.974590302
vt 0.366227031 0.974590302
vt 0.366227031 0.965397239
vt 0.380000532 0.974590302
vt 0.380000532 0.965397239
vt 0.42310515 0.974590302
vt 0.42310515 0.965397239
vt 0.436878592 0.974590302
vt 0.436878592 0.965397239
vt 0.247345641 0.964497328
vt 0.213938221 0.955742359
vt 0.213938102 0.964497328
vt 0.24734579 0.955742359
vt 0.270816177 0.964497328
vt 0.270816356 0.955742359
vt 0.304223657 0.964497328
vt 0.304223657 0.955742359
vt 0.327694058 0.964497328
vt 0.327694058 0.955742359
vt 0.361101598 0.964497328
vt 0.361101478 0.955742359
vt 0.384572208 0.964497328
vt 0.384572089 0.955742359
vt 0.417979658 0.964497328
vt 0.417979658 0.955742359
vt 0.441450149 0.964497328
vt 0.441450268 0.955742359
vt 0.468411714 0.968218744
vt 0.438622564 0.973290145
vt 0.459192038 0.986139536
vt 0.445997238 0.958955884
vt 0.472386032 0.957088709
vt 0.449173003 0.950063884
vt 0.476600021 0.93737632
vt 0.452542752 0.934303105
vt 0.477522522 0.925597489
vt 0.453279614 0.92488569
vt 0.476447344 0.90547955
vt 0.452420145 0.908780277
vt 0.47427395 0.893869102
vt 0.450682074 0.899493933
vt 0.467989922 0.874722481
vt 0.445655167 0.884175956
vt 0.462858468 0.864079773
vt 0.44155398 0.87566942
vt 0.252471089 0.974590302
vt 0.20936656 0.965397239
vt 0.20936656 0.974590302
vt 0.252471089 0.965397239
vt 0.266244501 0.974590302
vt 0.266244501 0.965397239
vt 0.30934909 0.974590302
vt 0.30934909 0.965397239
vt 0.323122621 0.965397239
vt 0.323122621 0.974590302
vt 0.366227031 0.974590302
vt 0.366227031 0.965397239
vt 0.380000532 0.974590302
vt 0.380000532 0.965397239
vt 0.42310515 0.974590302
vt 0.42310515 0.965397239
vt 0.436878592 0.974590302
vt 0.436878592 0.965397239
vt 0.247345641 0.964497328
vt 0.213938221 0.955742359
vt 0.213938102 0.964497328
vt 0.24734579 0.955742359
vt 0.270816177 0.964497328
vt 0.270816356 0.955742359
vt 0.304223657 0.964497328
vt 0.304223657 0.955742359
vt 0.327694058 0.964497328
vt 0.327694058 0.955742359
vt 0.361101598 0.964497328
vt 0.361101478 0.955742359
vt 0.384572208 0.964497328
vt 0.384572089 0.955742359
vt 0.417979658 0.964497328
vt 0.417979658 0.955742359
vt 0.441450149 0.964497328
vt 0.441450268 0.955742359
vt 0.468411714 0.968218744
vt 0.438622564 0.973290145
vt 0.459192038 0.986139536
vt 0.445997238 0.958955884
vt 0.472386032 0.957088709
vt 0.449173003 0.950063884
vt 0.476600021 0.93737632
vt 0.452542752 0.934303105
vt 0.477522522 0.925597489
vt 0.453279614 0.92488569
vt 0.476447344 0.90547955
vt 0.452420145 0.908780277
vt 0.47427395 0.893869102
vt 0.450682074 0.899493933
vt 0.467989922 0.874722481
vt 0.445655167 0.884175956
vt 0.462858468 0.864079773
vt 0.44155398 0.87566942
vt 0.252471089 0.974590302
vt 0.20936656 0.965397239
vt 0.20936656 0.974590302
vt 0.252471089 0.965397239
vt 0.266244501 0.974590302
vt 0.266244501 0.965397239
vt 0.30934909 0.974590302
vt 0.30934909 0.965397239
vt 0.323122621 0.965397239
vt 0.323122621 0.974590302
vt 0.366227031 0.974590302
vt 0.366227031 0.965397239
vt 0.380000532 0.974590302
vt 0.380000532 0.965397239
vt 0.42310515 0.974590302
vt 0.42310515 0.965397239
vt 0.436878592 0.974590302
vt 0.436878592 0.965397239
vt 0.247345641 0.964497328
vt 0.213938221 0.955742359
vt 0.213938102 0.964497328
vt 0.24734579 0.955742359
vt 0.270816177 0.964497328
vt 0.270816356 0.955742359
vt 0.304223657 0.964497328
vt 0.304223657 0.955742359
vt 0.327694058 0.964497328
vt 0.327694058 0.955742359
vt 0.361101598 0.964497328
vt 0.361101478 0.955742359
vt 0.384572208 0.964497328
vt 0.384572089 0.955742359
vt 0.417979658 0.964497328
vt 0.417979658 0.955742359
vt 0.441450149 0.964497328
vt 0.441450268 0.955742359
vt 0.468411714 0.968218744
vt 0.438622564 0.973290145
vt 0.459192038 0.986139536
vt 0.445997238 0.958955884
vt 0.472386032 0.957088709
vt 0.449173003 0.950063884
vt 0.476600021 0.93737632
vt 0.452542752 0.934303105
vt 0.477522522 0.925597489
vt 0.453279614 0.92488569
vt 0.476447344 0.90547955
vt 0.452420145 0.908780277
vt 0.47427395 0.893869102
vt 0.450682074 0.899493933
vt 0.467989922 0.874722481
vt 0.445655167 0.884175956
vt 0.462858468 0.864079773
vt 0.44155398 0.87566942
vt 0.298687547 0.899787009
vt 0.338156849 0.88822639
vt 0.310247809 0.88822639
vt 0.349717259 0.89978689
vt 0.349717259 0.927695811
vt 0.298687547 0.92769593
vt 0.310247809 0.93925631
vt 0.338156849 0.939256191
vt 0.298687547 0.899787009
vt 0.338156849 0.88822639
vt 0.310247809 0.88822639
vt 0.349717259 0.89978689
vt 0.349717259 0.927695811
vt 0.298687547 0.92769593
vt 0.310247809 0.93925631
vt 0.338156849 0.939256191
vt 0.377005488 0.895010531
vt 0.393134177 0.928094923
vt 0.377005368 0.934749305
vt 0.386479884 0.944223881
vt 0.393134296 0.901664853
vt 0.386479884 0.885536075
vt 0.426218718 0.885536075
vt 0.419564307 0.928094923
vt 0.426218718 0.944223881
vt 0.435693115 0.934749305
vt 0.419564307 0.901664853
vt 0.435693115 0.895010531
vt 0.377005488 0.895010531
vt 0.393134177 0.928094923
vt 0.377005368 0.934749305
vt 0.386479884 0.944223881
vt 0.393134296 0.901664853
vt 0.386479884 0.885536075
vt 0.426218718 0.885536075
vt 0.419564307 0.928094923
vt 0.426218718 0.944223881
vt 0.435693115 0.934749305
vt 0.419564307 0.901664853
vt 0.435693115 0.895010531
vt 0.377005488 0.895010531
vt 0.393134177 0.928094923
vt 0.377005368 0.934749305
vt 0.386479884 0.944223881
vt 0.393134296 0.901664853
vt 0.386479884 0.885536075
vt 0.426218718 0.885536075
vt 0.419564307 0.928094923
vt 0.426218718 0.944223881
vt 0.435693115 0.934749305
vt 0.419564307 0.901664853
vt 0.435693115 0.895010531
vt 0.261497974 0.880545616
vt 0.26892221 0.891347826
vt 0.274221241 0.881174326
vt 0.266796887 0.871643722
vt 0.279520035 0.891347706
vt 0.281645387 0.871643722
vt 0.28694436 0.880545616
vt 0.279525787 0.891353488
vt 0.274226874 0.881180227
vt 0.268927962 0.891353488
vt 0.286950022 0.880551219
vt 0.261503756 0.880551219
vt 0.281651109 0.871649444
vt 0.266802609 0.871649444
vt 0.274226874 0.881180227
vt 0.286950022 0.880551219
vt 0.279525787 0.891353488
vt 0.268927962 0.891353488
vt 0.281651109 0.871649444
vt 0.261503756 0.880551219
vt 0.266802609 0.871649444
vt 0.274236441 0.88117063
vt 0.286959559 0.880541861
vt 0.281660646 0.871639907
vt 0.279535294 0.891343951
vt 0.266812295 0.871639907
vt 0.268937528 0.891343951
vt 0.261513144 0.880541861
vt 0.286959559 0.880541861
vt 0.279535294 0.891343951
vt 0.274236441 0.88117063
vt 0.281660646 0.871639907
vt 0.268937528 0.891343951
vt 0.266812295 0.871639907
vt 0.261513144 0.880541861
vt 0.274230659 0.881165028
vt 0.281655014 0.871634126
vt 0.266806573 0.871634126
vt 0.261507541 0.880536079
vt 0.286953807 0.880536079
vt 0.268931746 0.89133817
vt 0.279529393 0.89133817
vt 0.266796887 0.871643722
vt 0.281645387 0.871643722
vt 0.274221241 0.881174326
vt 0.261497974 0.880545616
vt 0.28694436 0.880545616
vt 0.26892221 0.891347826
vt 0.279520035 0.891347706
vt 0.286953807 0.880536079
vt 0.274230659 0.881165028
vt 0.281655014 0.871634126
vt 0.279529393 0.89133817
vt 0.266806573 0.871634126
vt 0.268931746 0.89133817
vt 0.261507541 0.880536079
vt 0.364100158 0.893394113
vt 0.354361862 0.930895507
vt 0.364103407 0.934103668
vt 0.354363412 0.8967278
vt 0.340996891 0.943467677
vt 0.343820125 0.875005841
vt 0.344035804 0.952920258
vt 0.340901464 0.884519875
vt 0.306675315 0.943993032
vt 0.303153813 0.875952244
vt 0.303789288 0.953004897
vt 0.30630061 0.884520113
vt 0.292411089 0.930949092
vt 0.283246428 0.894518018
vt 0.283275187 0.934174776
vt 0.292410046 0.897783577
vt 0.38434124 0.882463813
vt 0.42584905 0.874462545
vt 0.427626759 0.882463813
vt 0.386118889 0.874462545
vt 0.445947915 0.894561231
vt 0.374021322 0.892783701
vt 0.437946677 0.892783701
vt 0.366020143 0.894561231
vt 0.445947915 0.934291363
vt 0.374021322 0.936069191
vt 0.437946677 0.936069191
vt 0.366020143 0.934291363
vt 0.42584905 0.954390347
vt 0.38434124 0.946389079
vt 0.427626759 0.946389079
vt 0.386118889 0.954390347
vt 0.364100158 0.893394113
vt 0.354361862 0.930895507
vt 0.364103407 0.934103668
vt 0.354363412 0.8967278
vt 0.340996891 0.943467677
vt 0.343820125 0.875005841
vt 0.344035804 0.952920258
vt 0.340901464 0.884519875
vt 0.306675315 0.943993032
vt 0.303153813 0.875952244
vt 0.303789288 0.953004897
vt 0.30630061 0.884520113
vt 0.292411089 0.930949092
vt 0.283246428 0.894518018
vt 0.283275187 0.934174776
vt 0.292410046 0.897783577
vt 0.38434124 0.882463813
vt 0.42584905 0.874462545
vt 0.427626759 0.882463813
vt 0.386118889 0.874462545
vt 0.445947915 0.894561231
vt 0.374021322 0.892783701
vt 0.437946677 0.892783701
vt 0.366020143 0.894561231
vt 0.445947915 0.934291363
vt 0.374021322 0.936069191
vt 0.437946677 0.936069191
vt 0.366020143 0.934291363
vt 0.42584905 0.954390347
vt 0.38434124 0.946389079
vt 0.427626759 0.946389079
vt 0.386118889 0.954390347
vt 0.364100158 0.893394113
vt 0.354361862 0.930895507
vt 0.364103407 0.934103668
vt 0.354363412 0.8967278
vt 0.340996891 0.943467677
vt 0.343820125 0.875005841
vt 0.344035804 0.952920258
vt 0.340901464 0.884519875
vt 0.306675315 0.943993032
vt 0.303153813 0.875952244
vt 0.303789288 0.953004897
vt 0.30630061 0.884520113
vt 0.292411089 0.930949092
vt 0.283246428 0.894518018
vt 0.283275187 0.934174776
vt 0.292410046 0.897783577
vt 0.38434124 0.882463813
vt 0.42584905 0.874462545
vt 0.427626759 0.882463813
vt 0.386118889 0.874462545
vt 0.445947915 0.894561231
vt 0.374021322 0.892783701
vt 0.437946677 0.892783701
vt 0.366020143 0.894561231
vt 0.445947915 0.934291363
vt 0.374021322 0.936069191
vt 0.437946677 0.936069191
vt 0.366020143 0.934291363
vt 0.42584905 0.954390347
vt 0.38434124 0.946389079
vt 0.427626759 0.946389079
vt 0.386118889 0.954390347
vt 0.41914618 0.550013006
vt 0.413087606 0.552734494
vt 0.413030922 0.56907779
vt 0.419106424 0.571876824
vt 0.406051993 0.537063956
vt 0.403248549 0.578880787
vt 0.403261989 0.543049812
vt 0.406007677 0.584927022
vt 0.38405329 0.537063956
vt 0.386770427 0.578885496
vt 0.386797488 0.543049812
vt 0.384009123 0.584908068
vt 0.370973378 0.549985707
vt 0.377029538 0.569117963
vt 0.376975656 0.552653372
vt 0.370966941 0.57188797
vt 0.41914618 0.550013006
vt 0.413087606 0.552734494
vt 0.413030922 0.56907779
vt 0.419106424 0.571876824
vt 0.406051993 0.537063956
vt 0.403248549 0.578880787
vt 0.403261989 0.543049812
vt 0.406007677 0.584927022
vt 0.38405329 0.537063956
vt 0.386770427 0.578885496
vt 0.386797488 0.543049812
vt 0.384009123 0.584908068
vt 0.370973378 0.549985707
vt 0.377029538 0.569117963
vt 0.376975656 0.552653372
vt 0.370966941 0.57188797
vn -0.577370822 0.577334106 -0.577345848
vn -0.577370822 0.577334106 -0.577345848
vn -0.577370822 0.577334106 -0.577345848
vn -0.577340722 -0.577360272 -0.577349901
vn -0.577340722 -0.577360272 -0.577349901
vn -0.577340722 -0.577360213 -0.577349842
vn 0.887384951 -0.458013326 -0.0526468083
vn 0.565307677 -0.583364129 -0.583192587
vn 0.887356877 -0.0527636707 -0.458054423
vn 0.577355027 0.577346683 -0.577349126
vn 0.887361467 0.458049327 -0.0527286232
vn 0.887363732 0.0527312458 -0.458044797
vn 0.577376127 0.577341974 0.577332795
vn 0.458050221 0.0526042208 0.887368441
vn 0.887397349 0.0526479594 0.457989186
vn 0.458031058 -0.0526285917 0.887376904
vn 0.577343822 -0.577348351 0.577358663
vn 0.887383282 -0.0526842698 0.458012313
vn -0.57735014 -0.577343881 0.577356756
vn -0.57735008 -0.577343822 0.577356815
vn -0.57735008 -0.577343881 0.577356815
vn -0.577344418 0.577352822 0.577353537
vn -0.577344358 0.577352762 0.577353597
vn -0.88738656 0.0526594147 0.458008766
vn 0.382692754 -0.92387563 8.10007987E-05
vn 0.382676303 -0.923882484 8.10013735E-05
vn -0.382677615 -0.923881948 8.02148861E-05
vn -0.382691294 -0.923876286 8.02143695E-05
vn -0.707109809 -0.70710367 6.08840382E-05
vn -0.707109809 -0.70710367 6.08840382E-05
vn 0.707107067 -0.707106471 6.23374508E-05
vn 0.707107008 -0.707106471 6.23374508E-05
vn 0.382676303 -0.923882484 8.10013735E-05
vn 0.382692754 -0.92387563 8.10007987E-05
vn 1 -1.72976638E-06 7.32233502E-07
vn 1 -1.7297665E-06 7.32233502E-07
vn 1 -1.72976638E-06 7.32233502E-07
vn 1 -1.7297665E-06 7.32233389E-07
vn 0.382677019 0.923882186 -8.0548074E-05
vn 0.707108438 0.707105041 -6.13274824E-05
vn 0.707108438 0.707105041 -6.13274897E-05
vn 0.382692128 0.923875868 -8.05475065E-05
vn -0.382680327 0.923880816 -8.13237639E-05
vn -0.38269341 0.923875332 -8.13232909E-05
vn -0.707112074 0.707101464 -6.27607078E-05
vn -0.707112074 0.707101464 -6.27607078E-05
vn -1 0 -1.89480068E-06
vn -1 0 -1.89480068E-06
vn -1 0 -1.89480068E-06
vn -1 0 -1.89480068E-06
vn 0.707103312 0.707110167 -0.000261769572
vn 0.707103312 0.707110107 -0.000261769572
vn 0.382675141 0.923882961 -0.000290360156
vn 0.382684201 0.923879087 -0.000290359923
vn -0.382673949 0.923883379 -0.000290648604
vn -0.38268283 0.923879743 -0.000290648459
vn -0.707096756 0.707116723 -0.000262304355
vn -0.707096756 0.707116723 -0.000262304355
vn 1 -4.5359684E-06 -0.000200224065
vn 1 -4.5359684E-06 -0.000200224065
vn 1 -4.5359684E-06 -0.000200224094
vn 1 -4.5359684E-06 -0.000200224065
vn 0.382669777 -0.923885107 -0.000129065884
vn 0.707101822 -0.707111716 -0.000138231699
vn 0.707101882 -0.707111716 -0.000138231655
vn 0.382688493 -0.923877478 -0.000129066917
vn -0.382662445 -0.923888147 -0.000129337917
vn -0.382688552 -0.923877358 -0.000129339329
vn -0.707093 -0.707120478 -0.000138735501
vn -0.707092941 -0.707120478 -0.000138735515
vn -1 0 -0.000200934999
vn -1 0 -0.000200935028
vn -1 0 -0.000200935057
vn -1 0 -0.000200935028
vn 0.92387718 4.04612329E-05 -0.382689029
vn 0.923880935 4.04613857E-05 -0.382680148
vn 0.923880458 4.00679419E-05 0.3826814
vn 0.923877776 4.00678218E-05 0.382687479
vn 0.707104027 3.039884E-05 0.707109511
vn 0.707104027 3.03988436E-05 0.707109451
vn 0.707106173 3.11258955E-05 -0.707107306
vn 0.707106113 3.11258918E-05 -0.707107365
vn 0.923880935 4.04613857E-05 -0.382680148
vn 0.92387718 4.04612329E-05 -0.382689029
vn 1.4826594E-06 3.44339895E-07 -1
vn 1.48265917E-06 3.44339895E-07 -1
vn 1.48265929E-06 3.44339895E-07 -1
vn 1.4826594E-06 3.44339895E-07 -1
vn -0.923880517 -4.02628139E-05 -0.382680923
vn -0.707104921 -3.06728834E-05 -0.707108617
vn -0.707104862 -3.06728798E-05 -0.707108617
vn -0.923877597 -4.02626829E-05 -0.382688344
vn -0.923879445 -4.06251456E-05 0.382683784
vn -0.923877001 -4.06250474E-05 0.382689655
vn -0.707101703 -3.13423516E-05 0.707111776
vn -0.707101762 -3.13423516E-05 0.707111776
vn -0 -8.60687635E-07 1
vn -0 -8.60687805E-07 1
vn -0 -8.60687635E-07 1
vn -0 -8.60687805E-07 1
vn -0.707110643 -0.00013084909 -0.707102835
vn -0.707110643 -0.000130849105 -0.707102835
vn -0.923882186 -0.000145116021 -0.382677019
vn -0.923880219 -0.000145115962 -0.382681549
vn -0.923882544 -0.000145180762 0.382676214
vn -0.923880637 -0.000145180704 0.382680655
vn -0.707116902 -0.000130969609 0.707096696
vn -0.707116902 -0.000130969609 0.707096696
vn 5.27950715E-06 -0.00010018381 -1
vn 5.27950715E-06 -0.000100183832 -1
vn 5.27950715E-06 -0.00010018381 -1
vn 5.27950715E-06 -0.000100183825 -1
vn 0.92388308 -6.44630272E-05 -0.382674873
vn 0.707111955 -6.90527158E-05 -0.707101583
vn 0.707111895 -6.90527231E-05 -0.707101583
vn 0.923879623 -6.44632455E-05 -0.382683128
vn 0.923886061 -6.46353656E-05 0.38266775
vn 0.923879623 -6.46357876E-05 0.382683218
vn 0.707120478 -6.93717593E-05 0.707093
vn 0.707120478 -6.93717666E-05 0.707093
vn -0 -0.00010035617 1
vn -0 -0.00010035617 1
vn -0 -0.000100356185 1
vn -0 -0.000100356185 1
vn -0.846583903 -0.373405337 0.379294068
vn -0.846626759 -0.373340309 -0.379262805
vn -0.863159359 -0.448398799 -0.232151896
vn -0.863159597 -0.448398501 0.232151553
vn -0.375665009 -0.359122247 -0.854345918
vn 0.375673294 -0.35909763 -0.854352593
vn 0.230116665 -0.432842165 -0.871604264
vn -0.230141044 -0.432863981 -0.871586978
vn 0.846629143 -0.373336464 -0.379261076
vn 0.846587718 -0.373399258 0.379291892
vn 0.863161743 -0.448395163 0.232150123
vn 0.863159776 -0.44839856 -0.232150927
vn 0.382832378 -0.387266457 0.838727713
vn -0.382828951 -0.387275249 0.83872509
vn -0.384229302 -0.833956957 0.396085382
vn 0.384232581 -0.833940744 0.396116316
vn -0.384956211 0.418463677 0.822615862
vn 0.384963214 0.418457717 0.822615623
vn 0.37728563 0.849507511 0.368771702
vn -0.377280205 0.849522591 0.368742585
vn 0.83109951 0.404601336 0.381538182
vn 0.831142068 0.404540002 -0.381510556
vn 0.848390877 0.476796508 -0.229995698
vn 0.848391712 0.476794899 0.229995877
vn 0.37802133 0.390194535 -0.839552343
vn -0.37800765 0.390221536 -0.839545846
vn -0.228285536 0.461593151 -0.857214868
vn 0.228259116 0.461569637 -0.857234597
vn -0.831130147 0.404557616 -0.381517828
vn -0.831087947 0.404617488 0.381546021
vn -0.848383307 0.476807982 0.229999736
vn -0.848381698 0.476810157 -0.230001226
vn 0.860976994 0.231842622 0.452733666
vn 0.860975385 -0.231841132 0.452737272
vn 0.844323158 -0.37962845 0.378154248
vn 0.844364643 0.379602969 0.378087401
vn -0.860987604 -0.231845289 0.45271194
vn -0.860990167 0.231842205 0.452708781
vn -0.844392478 0.379616022 0.378011912
vn -0.844350755 -0.379639775 0.378081322
vn 0.845586777 -0.22957693 -0.481951743
vn 0.845584571 0.229581445 -0.481953412
vn 0.451820463 0.22892946 -0.862235248
vn 0.451824725 -0.228933245 -0.862232029
vn -0.845615923 0.229582071 -0.481898099
vn -0.845615745 -0.22958301 -0.48189795
vn -0.451879114 -0.228939772 -0.86220181
vn -0.451878697 0.228939146 -0.862202048
vn 8.45054046E-07 1.44256628E-05 1
vn 8.45054103E-07 1.44256637E-05 1
vn 8.45054103E-07 1.44256619E-05 1
vn 8.45053933E-07 1.44256628E-05 1
vn -0 0 1
vn -0 0 1
vn -4.64773848E-06 -1.00978486E-05 1
vn -4.64773848E-06 -1.00978486E-05 1
vn 0.37802133 0.390194535 -0.839552343
vn -0.382664829 -0.000172769083 -0.923887253
vn -0.37800765 0.390221536 -0.839545846
vn 0.38266626 -0.000170492262 -0.923886657
vn 0.831142068 0.404540002 -0.381510556
vn 0.923863232 -6.62248276E-05 -0.382722914
vn 0.83109951 0.404601336 0.381538182
vn 0.923895776 7.75257358E-05 0.382644147
vn 0.382699043 0.000176147121 0.923873007
vn 0.384963214 0.418457717 0.822615623
vn -0.384956211 0.418463677 0.822615862
vn -0.382697672 0.000173862049 0.923873603
vn -0.831087947 0.404617488 0.381546021
vn -0.923894882 7.20076423E-05 0.382646322
vn -0.831130147 0.404557616 -0.381517828
vn -0.923862338 -7.17352232E-05 -0.38272506
vn -0.37800765 0.390221536 -0.839545846
vn -0.382664829 -0.000172769083 -0.923887253
vn 0.382859945 0.0139573077 -0.923700988
vn -0.382428944 0.0139596388 -0.923879445
vn -0.382860929 0.0139600867 -0.923700452
vn 0.382429987 0.0139568616 -0.923879027
vn 0.923700094 0.0139537081 -0.382862329
vn 0.923879921 0.0139532527 -0.38242808
vn 0.923700571 0.01395196 0.382861167
vn 0.923879504 0.0139515111 0.382429063
vn 0.382860363 0.0139532695 0.92370075
vn 0.382429749 0.0139528252 0.923879206
vn -0.382861465 0.0139560578 0.923700392
vn -0.382428735 0.0139556034 0.923879504
vn -0.92370075 0.013959989 0.382860243
vn -0.923879027 0.0139595419 0.382429868
vn -0.923700273 0.0139617268 -0.382861376
vn -0.923879445 0.0139612807 -0.382429004
vn -0.382860929 0.0139600867 -0.923700452
vn -0.382428944 0.0139596388 -0.923879445
vn 0.914114475 0.135113746 0.382281244
vn 0.887356877 -0.0527636707 -0.458054423
vn 0.914145648 0.135021448 -0.382239372
vn 0.887383282 -0.0526842698 0.458012313
vn 0.382242322 0.13517566 0.914121628
vn 0.458031058 -0.0526285917 0.887376904
vn -0.382242233 0.135175377 0.914121747
vn -0.375785053 0.135075063 0.916809916
vn -0.914114773 0.135111809 0.382281452
vn -0.916832328 0.135009289 0.375753999
vn -0.914145947 0.135019034 -0.38223958
vn -0.916820824 0.134919658 -0.37581408
vn -0.382270068 0.134958386 -0.914142132
vn -0.562150538 -0.584905267 -0.584698796
vn 0.382272601 0.134959012 -0.91414094
vn 0.565307677 -0.583364129 -0.583192587
vn 0.914145648 0.135021448 -0.382239372
vn 0.887356877 -0.0527636707 -0.458054423
vn -0.375665009 -0.359122247 -0.854345918
vn 0.382665962 0.000176919857 -0.923886716
vn 0.375673294 -0.35909763 -0.854352593
vn -0.38266322 0.000174866509 -0.923887849
vn -0.846626759 -0.373340309 -0.379262805
vn -0.923861623 6.80854428E-05 -0.382726699
vn -0.846583903 -0.373405337 0.379294068
vn -0.923895299 -8.02938375E-05 0.382645398
vn -0.382696539 -0.000181686264 0.92387414
vn -0.382828951 -0.387275249 0.83872509
vn 0.382832378 -0.387266457 0.838727713
vn 0.382699043 -0.000179337876 0.923873007
vn 0.846587718 -0.373399258 0.379291892
vn 0.923896015 -7.46211954E-05 0.38264358
vn 0.846629143 -0.373336464 -0.379261076
vn 0.923862398 7.34627029E-05 -0.382724643
vn 0.375673294 -0.35909763 -0.854352593
vn 0.382665962 0.000176919857 -0.923886716
vn -0.382860005 -0.0139572956 -0.923700988
vn 0.382429004 -0.0139596285 -0.923879445
vn 0.382860929 -0.0139600774 -0.923700452
vn -0.382429987 -0.0139568495 -0.923879027
vn -0.923700094 -0.0139536988 -0.38286227
vn -0.923879921 -0.0139532434 -0.38242808
vn -0.923700571 -0.0139519507 0.382861167
vn -0.923879504 -0.0139514999 0.382429063
vn -0.382860363 -0.0139532592 0.92370075
vn -0.382429749 -0.013952815 0.923879206
vn 0.382861465 -0.0139560467 0.923700392
vn 0.382428795 -0.0139555959 0.923879623
vn 0.92370075 -0.0139599759 0.382860243
vn 0.923879087 -0.0139595326 0.382429868
vn 0.923700273 -0.0139617184 -0.382861346
vn 0.923879445 -0.0139612686 -0.382428885
vn 0.382860929 -0.0139600774 -0.923700452
vn 0.382429004 -0.0139596285 -0.923879445
vn -0.914110065 -0.135145441 0.382280529
vn -0.91681993 -0.134948581 -0.375806093
vn -0.914144933 -0.135047927 -0.382231802
vn -0.88738656 0.0526594147 0.458008766
vn -0.382242173 -0.135209024 0.91411674
vn -0.375786185 -0.135108724 0.916804492
vn 0.382248193 -0.13521032 0.914114058
vn 0.458050221 0.0526042208 0.887368441
vn 0.914113879 -0.135146409 0.38227132
vn 0.887397349 0.0526479594 0.457989186
vn 0.914143026 -0.135053024 -0.382234365
vn 0.887363732 0.0527312458 -0.458044797
vn 0.382278055 -0.134983227 -0.914135098
vn 0.562084854 0.58484298 -0.584824204
vn -0.3822788 -0.134979948 -0.914135396
vn -0.56209445 0.584834218 -0.584823728
vn -0.914144933 -0.135047927 -0.382231802
vn -0.91681993 -0.134948581 -0.375806093
vn -0.844392478 0.379616022 0.378011912
vn -0.923896909 -0.382641405 2.13101084E-05
vn -0.844350755 -0.379639775 0.378081322
vn -0.923864543 0.382719666 -0.000122625366
vn -0.377280205 0.849522591 0.368742585
vn -0.382677943 0.923881888 -0.00019412463
vn 0.37728563 0.849507511 0.368771702
vn 0.38265574 0.923891008 -0.00015017789
vn 0.923861802 0.382726133 -2.01734292E-05
vn 0.844364643 0.379602969 0.378087401
vn 0.844323158 -0.37962845 0.378154248
vn 0.923893869 -0.382648677 0.000122325757
vn 0.384232581 -0.833940744 0.396116316
vn 0.382687628 -0.923877776 0.00019383675
vn -0.384229302 -0.833956957 0.396085382
vn -0.382709414 -0.923868716 0.000151325119
vn -0.844350755 -0.379639775 0.378081322
vn -0.923896909 -0.382641405 2.13101084E-05
vn -0.923698425 0.382861316 0.0140851587
vn -0.923878908 -0.382425457 0.0140883271
vn -0.92369765 -0.382863104 0.0140887871
vn -0.923878074 0.382427543 0.014084707
vn -0.382862777 0.923697829 0.0140825128
vn -0.382425696 0.923878908 0.0140820537
vn 0.38286224 0.923698127 0.0140811112
vn 0.382427096 0.923878372 0.0140806539
vn 0.923698545 0.382861197 0.0140824271
vn 0.923878372 0.382426977 0.0140819745
vn 0.92369771 -0.382862896 0.014086063
vn 0.923879206 -0.382424921 0.0140856039
vn 0.382861584 -0.923698246 0.0140900351
vn 0.38242811 -0.923877776 0.0140895844
vn -0.38286221 -0.923698008 0.014091434
vn -0.382426709 -0.923878372 0.0140909804
vn -0.92369765 -0.382863104 0.0140887871
vn -0.923878908 -0.382425457 0.0140883271
vn 0.382272482 0.914136291 0.134991556
vn -0.56209445 0.584834218 -0.584823728
vn -0.38227275 0.914137661 0.134980947
vn 0.562084854 0.58484298 -0.584824204
vn 0.914139271 0.382239938 0.135062844
vn 0.887361467 0.458049327 -0.0527286232
vn 0.914107978 -0.382281393 0.135157079
vn 0.887384951 -0.458013326 -0.0526468083
vn 0.382238686 -0.914116859 0.135218546
vn 0.565307677 -0.583364129 -0.583192587
vn -0.382238299 -0.91411823 0.135210186
vn -0.562150538 -0.584905267 -0.584698796
vn -0.914110839 -0.382281512 0.135137543
vn -0.916829228 -0.37575227 0.135034919
vn -0.914144218 0.382235885 0.135040954
vn -0.91682142 0.375804782 0.134941503
vn -0.38227275 0.914137661 0.134980947
vn -0.56209445 0.584834218 -0.584823728
vn -1 3.38015593E-06 -1.15406383E-05
vn -1 3.38015639E-06 -1.15406374E-05
vn -1 3.38015639E-06 -1.15406374E-05
vn -1 3.38015593E-06 -1.15406383E-05
vn -1 3.9216302E-06 -2.39012365E-06
vn -1 3.9216302E-06 -2.39012365E-06
vn -1 1.69009115E-06 5.77028823E-06
vn -1 1.69009127E-06 5.77028914E-06
vn 1 -1.69008194E-06 0
vn 1 -1.69008194E-06 0
vn 1 -1.69008194E-06 0
vn 1 -1.69008194E-06 0
vn 1 -2.61441255E-06 0
vn 1 -2.61441278E-06 0
vn 1 0 2.30815658E-05
vn 1 0 2.30815658E-05
vn -0.863159359 -0.448398799 -0.232151896
vn -0.997516274 -0.0498068929 0.0498069376
vn -0.863159597 -0.448398501 0.232151553
vn -0.860987604 -0.231845289 0.45271194
vn -0.997516274 -0.0498069488 -0.0498069189
vn -0.845615745 -0.22958301 -0.48189795
vn -0.845615923 0.229582071 -0.481898099
vn -0.997516274 0.0498068929 0.049806945
vn -0.860990167 0.231842205 0.452708781
vn -0.848383307 0.476807982 0.229999736
vn -0.997516274 0.049806904 -0.049806904
vn -0.848381698 0.476810157 -0.230001226
vn 0.863161743 -0.448395163 0.232150123
vn 0.997516036 -0.0498088673 -0.0498087481
vn 0.863159776 -0.44839856 -0.232150927
vn 0.845586777 -0.22957693 -0.481951743
vn 0.997516036 -0.0498085506 0.0498090386
vn 0.860975385 -0.231841132 0.452737272
vn 0.860976994 0.231842622 0.452733666
vn 0.997515798 0.0498137921 -0.0498081222
vn 0.845584571 0.229581445 -0.481953412
vn 0.848390877 0.476796508 -0.229995698
vn 0.997515798 0.0498134643 0.0498084053
vn 0.848391712 0.476794899 0.229995877
vn 0.451820463 0.22892946 -0.862235248
vn 0.0498129539 -0.0498115085 -0.997515678
vn 0.451824725 -0.228933245 -0.862232029
vn 0.230116665 -0.432842165 -0.871604264
vn 0.049813062 0.0498119853 -0.997515678
vn 0.228259116 0.461569637 -0.857234597
vn -0.228285536 0.461593151 -0.857214868
vn -0.0498111211 -0.0498117246 -0.997515798
vn -0.230141044 -0.432863981 -0.871586978
vn -0.451879114 -0.228939772 -0.86220181
vn -0.0498109758 0.0498120114 -0.997515798
vn -0.451878697 0.228939146 -0.862202048
vn -0.848381698 0.476810157 -0.230001226
vn -0.845615923 0.229582071 -0.481898099
vn -0.572834194 0.578182399 -0.581004322
vn -0.831130147 0.404557616 -0.381517828
vn -0.451878697 0.228939146 -0.862202048
vn -0.37800765 0.390221536 -0.839545846
vn -0.228285536 0.461593151 -0.857214868
vn -0.844350755 -0.379639775 0.378081322
vn -0.583685458 -0.572908044 0.575402081
vn -0.860987604 -0.231845289 0.45271194
vn -0.384229302 -0.833956957 0.396085382
vn -0.863159597 -0.448398501 0.232151553
vn -0.382828951 -0.387275249 0.83872509
vn -0.846583903 -0.373405337 0.379294068
vn -0.578271329 0.58365351 0.570044577
vn -0.377280205 0.849522591 0.368742585
vn -0.844392478 0.379616022 0.378011912
vn -0.860990167 0.231842205 0.452708781
vn -0.384956211 0.418463677 0.822615862
vn -0.848383307 0.476807982 0.229999736
vn -0.831087947 0.404617488 0.381546021
vn 0.578275383 0.583647192 0.570046961
vn 0.37728563 0.849507511 0.368771702
vn 0.384963214 0.418457717 0.822615623
vn 0.844364643 0.379602969 0.378087401
vn 0.83109951 0.404601336 0.381538182
vn 0.860976994 0.231842622 0.452733666
vn 0.848391712 0.476794899 0.229995877
vn 0.384232581 -0.833940744 0.396116316
vn 0.844323158 -0.37962845 0.378154248
vn 0.583685577 -0.572902262 0.575407863
vn 0.382832378 -0.387266457 0.838727713
vn 0.860975385 -0.231841132 0.452737272
vn 0.846587718 -0.373399258 0.379291892
vn 0.863161743 -0.448395163 0.232150123
vn 0.578116179 -0.567415297 -0.586363018
vn 0.375673294 -0.35909763 -0.854352593
vn 0.846629143 -0.373336464 -0.379261076
vn 0.863159776 -0.44839856 -0.232150927
vn 0.230116665 -0.432842165 -0.871604264
vn 0.845586777 -0.22957693 -0.481951743
vn 0.451824725 -0.228933245 -0.862232029
vn -0.846626759 -0.373340309 -0.379262805
vn -0.375665009 -0.359122247 -0.854345918
vn -0.578122735 -0.567426085 -0.586346209
vn -0.863159359 -0.448398799 -0.232151896
vn -0.230141044 -0.432863981 -0.871586978
vn -0.845615745 -0.22958301 -0.48189795
vn -0.451879114 -0.228939772 -0.86220181
vn 0.228259116 0.461569637 -0.857234597
vn 0.572831273 0.57817024 -0.581019402
vn 0.37802133 0.390194535 -0.839552343
vn 0.451820463 0.22892946 -0.862235248
vn 0.831142068 0.404540002 -0.381510556
vn 0.845584571 0.229581445 -0.481953412
vn 0.848390877 0.476796508 -0.229995698
vn 0.0502245463 -0.0199229885 0.998539209
vn 0.049446959 0.0223567486 0.998526454
vn 0.0502245277 0.0199230276 0.998539209
vn 0.0494469367 -0.0223568566 0.998526454
vn 0.022356784 0.0494469069 0.998526454
vn 0.0199231002 -0.0502246246 0.998539209
vn 0.019922955 0.0502244905 0.998539209
vn 0.0223566741 -0.0494471118 0.998526454
vn -0.0223566703 0.049446851 0.998526454
vn -0.0199231133 -0.0502245836 0.998539209
vn -0.0199230239 0.0502243862 0.998539209
vn -0.0223567244 -0.0494470596 0.998526454
vn -0.0494469143 0.0223566703 0.998526454
vn -0.050224565 -0.0199229699 0.998539209
vn -0.050224483 0.0199229699 0.998539209
vn -0.0494469739 -0.0223567784 0.998526454
vn -0.680709243 0.563763976 -0.467766166
vn -0.487648368 -0.101349965 -0.867137432
vn -0.680707693 -0.563762009 -0.467770696
vn -0.487648696 0.101349935 -0.867137194
vn -0.101349808 -0.487642288 -0.86714077
vn -0.563762426 0.680709124 -0.467768013
vn -0.563760936 -0.680706799 -0.467773288
vn -0.10134995 0.487644792 -0.867139339
vn 0.101349548 -0.487641394 -0.867141306
vn 0.563760579 0.680705965 -0.467774898
vn 0.563759089 -0.68070358 -0.467780113
vn 0.101349704 0.487643957 -0.867139876
vn 0.4876436 -0.101349436 -0.867140174
vn 0.680706203 0.563760519 -0.467774749
vn 0.680704653 -0.563758612 -0.4677791
vn 0.487643957 0.101349548 -0.867139876
vn 0.0208987016 -0.998392522 0.0526841842
vn -0.0234511252 -0.998378515 0.0518685356
vn -0.0208988506 -0.998392522 0.0526840426
vn 0.0234514121 -0.998378515 0.0518685691
vn -0.0518684722 -0.998378515 0.023451224
vn 0.0526841469 -0.998392522 0.0208987724
vn -0.052684065 -0.998392522 0.0208986513
vn 0.0518686026 -0.998378515 0.0234512463
vn -0.0518684424 -0.998378515 -0.0234511252
vn 0.0526841246 -0.998392522 -0.0208987631
vn -0.0526840091 -0.998392522 -0.0208986606
vn 0.0518685766 -0.998378515 -0.0234512445
vn -0.0234510899 -0.998378515 -0.0518684238
vn 0.0208986755 -0.998392522 -0.0526841246
vn -0.0208988003 -0.998392522 -0.052683942
vn 0.0234513916 -0.998378515 -0.0518685058
vn -0.563520849 0.470583588 -0.678966463
vn 0.100187317 0.87001276 -0.482742578
vn 0.563515902 0.470597148 -0.678961098
vn -0.100187875 0.870011806 -0.482743919
vn 0.482738584 0.870014966 -0.100186884
vn -0.678965271 0.470580548 -0.563524663
vn 0.678958118 0.470597714 -0.56351918
vn -0.48274824 0.870009601 -0.1001876
vn 0.482738376 0.870014966 0.10018722
vn -0.678963661 0.470586509 0.563521802
vn 0.67895633 0.470603645 0.5635162
vn -0.482748151 0.870009601 0.100187972
vn 0.100187026 0.870013714 0.482740849
vn -0.563519359 0.470589101 0.678963721
vn 0.563514411 0.470602721 0.678958416
vn -0.100187682 0.87001282 0.48274231
vn -0.0208977684 0.998392642 0.0526816286
vn 0.0234500188 0.998378754 0.0518660806
vn 0.0208978616 0.998392642 0.0526815541
vn -0.0234501287 0.998378754 0.0518661104
vn 0.0518660322 0.998378754 0.0234501176
vn -0.0526815876 0.998392642 0.0208977461
vn 0.0526815802 0.998392642 0.0208976604
vn -0.051866062 0.998378754 0.0234501157
vn 0.0518659987 0.998378754 -0.0234500207
vn -0.052681569 0.998392642 -0.0208977368
vn 0.0526815169 0.998392642 -0.0208976753
vn -0.0518660471 0.998378754 -0.0234501101
vn 0.0234499872 0.998378754 -0.05186598
vn -0.0208977368 0.998392642 -0.052681569
vn 0.020897815 0.998392642 -0.0526814535
vn -0.0234501101 0.998378754 -0.0518660471
vn 0.563516855 -0.470601112 -0.678957582
vn -0.100185931 -0.870016158 -0.482736588
vn -0.563517451 -0.470594287 -0.678961754
vn 0.100185789 -0.870016813 -0.482735515
vn -0.482736319 -0.870016336 -0.100185573
vn 0.678956628 -0.470601648 -0.563517511
vn -0.678958774 -0.470593154 -0.56352216
vn 0.482731938 -0.870018899 -0.100185119
vn -0.48273629 -0.870016336 0.100185893
vn 0.678954899 -0.470607579 0.56351465
vn -0.678957045 -0.470598996 0.563519359
vn 0.482731879 -0.870018899 0.100185491
vn -0.1001857 -0.870017231 0.482734859
vn 0.563515425 -0.470606685 0.678954899
vn -0.563516021 -0.47059983 0.678959191
vn 0.100185513 -0.870017886 0.482733756
vn -6.49561889E-06 1 1.39432886E-05
vn -6.00324074E-06 1 1.38347013E-05
vn 1.87163891E-06 1 5.95982146E-06
vn 1.77987647E-06 1 5.6676231E-06
vn -2.0046682E-05 1 4.57885335E-06
vn -5.95971051E-06 1 1.87163289E-06
vn -2.02526389E-05 1 3.98767634E-06
vn -5.66769813E-06 1 1.77992695E-06
vn -1.17709678E-05 1 -3.69667669E-06
vn -1.38346986E-05 1 9.74659997E-06
vn -1.23779373E-05 1 -3.88729541E-06
vn -1.39432741E-05 1 1.00555098E-05
vn -3.69666441E-06 1 1.17713225E-05
vn -1.17621703E-05 1 2.02531628E-05
vn -3.88727358E-06 1 1.2378282E-05
vn -1.19724136E-05 1 2.00471113E-05
vn -1.50158194E-05 6.99526527E-06 1
vn -1.48988802E-05 6.46500439E-06 1
vn -6.41825727E-06 -2.01561329E-06 1
vn -6.10359029E-06 -1.91679419E-06 1
vn -5.07852701E-06 2.11192E-05 1
vn -2.01560829E-06 6.41815495E-06 1
vn -4.44943134E-06 2.13168169E-05 1
vn -1.91684717E-06 6.10367624E-06 1
vn 3.83359929E-06 1.22069605E-05 1
vn -1.04963465E-05 1.48989211E-05 1
vn 4.03126069E-06 1.28363527E-05 1
vn -1.08290105E-05 1.50158503E-05 1
vn -1.22072997E-05 3.83357883E-06 1
vn -2.13173844E-05 1.25119168E-05 1
vn -1.28367419E-05 4.03124795E-06 1
vn -2.11196912E-05 1.27459343E-05 1
g P_Bend_B_0
f 3/3/3 2/2/2 1/1/1
f 6/6/6 5/5/5 4/4/4
f 9/9/9 8/8/8 7/7/7
f 12/12/12 11/11/11 10/10/10
f 15/15/15 14/14/14 13/13/13
f 18/18/18 17/17/17 16/16/16
f 21/21/21 20/20/20 19/19/19
f 24/24/24 23/23/23 22/22/22
f 27/27/27 26/26/26 25/25/25
f 28/28/28 27/27/27 25/25/25
f 29/29/29 27/27/27 28/28/28
f 30/30/30 29/29/29 28/28/28
f 33/33/33 32/32/32 31/31/31
f 34/34/34 33/33/33 31/31/31
f 37/37/37 36/36/36 35/35/35
f 38/38/38 37/37/37 35/35/35
f 41/41/41 40/40/40 39/39/39
f 40/40/40 42/42/42 39/39/39
f 39/39/39 42/42/42 43/43/43
f 42/42/42 44/44/44 43/43/43
f 43/43/43 44/44/44 45/45/45
f 44/44/44 46/46/46 45/45/45
f 49/49/49 48/48/48 47/47/47
f 50/50/50 49/49/49 47/47/47
f 53/53/53 52/52/52 51/51/51
f 54/54/54 53/53/53 51/51/51
f 55/55/55 53/53/53 54/54/54
f 56/56/56 55/55/55 54/54/54
f 57/57/57 55/55/55 56/56/56
f 58/58/58 57/57/57 56/56/56
f 61/61/61 60/60/60 59/59/59
f 62/62/62 61/61/61 59/59/59
f 65/65/65 64/64/64 63/63/63
f 64/64/64 66/66/66 63/63/63
f 63/63/63 66/66/66 67/67/67
f 66/66/66 68/68/68 67/67/67
f 67/67/67 68/68/68 69/69/69
f 68/68/68 70/70/70 69/69/69
f 73/73/73 72/72/72 71/71/71
f 74/74/74 73/73/73 71/71/71
f 77/77/77 76/76/76 75/75/75
f 78/78/78 77/77/77 75/75/75
f 79/79/79 77/77/77 78/78/78
f 80/80/80 79/79/79 78/78/78
f 83/83/83 82/82/82 81/81/81
f 84/84/84 83/83/83 81/81/81
f 87/87/87 86/86/86 85/85/85
f 88/88/88 87/87/87 85/85/85
f 91/91/91 90/90/90 89/89/89
f 90/90/90 92/92/92 89/89/89
f 89/89/89 92/92/92 93/93/93
f 92/92/92 94/94/94 93/93/93
f 93/93/93 94/94/94 95/95/95
f 94/94/94 96/96/96 95/95/95
f 99/99/99 98/98/98 97/97/97
f 100/100/100 99/99/99 97/97/97
f 103/103/103 102/102/102 101/101/101
f 104/104/104 103/103/103 101/101/101
f 105/105/105 103/103/103 104/104/104
f 106/106/106 105/105/105 104/104/104
f 107/107/107 105/105/105 106/106/106
f 108/108/108 107/107/107 106/106/106
f 111/111/111 110/110/110 109/109/109
f 112/112/112 111/111/111 109/109/109
f 115/115/115 114/114/114 113/113/113
f 114/114/114 116/116/116 113/113/113
f 113/113/113 116/116/116 117/117/117
f 116/116/116 118/118/118 117/117/117
f 117/117/117 118/118/118 119/119/119
f 118/118/118 120/120/120 119/119/119
f 123/123/123 122/122/122 121/121/121
f 124/124/124 123/123/123 121/121/121
f 127/127/127 126/126/126 125/125/125
f 128/128/128 127/127/127 125/125/125
f 131/131/131 130/130/130 129/129/129
f 132/132/132 131/131/131 129/129/129
f 135/135/135 134/134/134 133/133/133
f 136/136/136 135/135/135 133/133/133
f 139/139/139 138/138/138 137/137/137
f 140/140/140 139/139/139 137/137/137
f 143/143/143 142/142/142 141/141/141
f 144/144/144 143/143/143 141/141/141
f 147/147/147 146/146/146 145/145/145
f 148/148/148 147/147/147 145/145/145
f 151/151/151 150/150/150 149/149/149
f 152/152/152 151/151/151 149/149/149
f 155/155/155 154/154/154 153/153/153
f 156/156/156 155/155/155 153/153/153
f 159/159/159 158/158/158 157/157/157
f 160/160/160 159/159/159 157/157/157
f 163/163/163 162/162/162 161/161/161
f 164/164/164 163/163/163 161/161/161
f 167/167/167 166/166/166 165/165/165
f 168/168/168 167/167/167 165/165/165
f 171/171/171 170/170/170 169/169/169
f 172/172/172 171/171/171 169/169/169
f 175/175/175 174/174/174 173/173/173
f 174/174/174 176/176/176 173/173/173
f 176/176/176 177/177/177 173/173/173
f 177/177/177 178/178/178 173/173/173
f 179/179/179 178/178/178 177/177/177
f 180/180/180 179/179/179 177/177/177
f 183/183/183 182/182/182 181/181/181
f 182/182/182 184/184/184 181/181/181
f 185/185/185 181/181/181 184/184/184
f 186/186/186 185/185/185 184/184/184
f 185/185/185 186/186/186 187/187/187
f 186/186/186 188/188/188 187/187/187
f 188/188/188 189/189/189 187/187/187
f 189/189/189 190/190/190 187/187/187
f 190/190/190 189/189/189 191/191/191
f 189/189/189 192/192/192 191/191/191
f 193/193/193 191/191/191 192/192/192
f 194/194/194 193/193/193 192/192/192
f 193/193/193 194/194/194 195/195/195
f 194/194/194 196/196/196 195/195/195
f 197/197/197 195/195/195 196/196/196
f 198/198/198 197/197/197 196/196/196
f 201/201/201 200/200/200 199/199/199
f 200/200/200 202/202/202 199/199/199
f 199/199/199 202/202/202 203/203/203
f 202/202/202 204/204/204 203/203/203
f 203/203/203 204/204/204 205/205/205
f 204/204/204 206/206/206 205/205/205
f 205/205/205 206/206/206 207/207/207
f 206/206/206 208/208/208 207/207/207
f 207/207/207 208/208/208 209/209/209
f 208/208/208 210/210/210 209/209/209
f 209/209/209 210/210/210 211/211/211
f 210/210/210 212/212/212 211/211/211
f 211/211/211 212/212/212 213/213/213
f 212/212/212 214/214/214 213/213/213
f 213/213/213 214/214/214 215/215/215
f 214/214/214 216/216/216 215/215/215
f 219/219/219 218/218/218 217/217/217
f 218/218/218 220/220/220 217/217/217
f 217/217/217 220/220/220 221/221/221
f 220/220/220 222/222/222 221/221/221
f 221/221/221 222/222/222 223/223/223
f 222/222/222 224/224/224 223/223/223
f 223/223/223 224/224/224 225/225/225
f 224/224/224 226/226/226 225/225/225
f 225/225/225 226/226/226 227/227/227
f 226/226/226 228/228/228 227/227/227
f 227/227/227 228/228/228 229/229/229
f 228/228/228 230/230/230 229/229/229
f 229/229/229 230/230/230 231/231/231
f 230/230/230 232/232/232 231/231/231
f 231/231/231 232/232/232 233/233/233
f 232/232/232 234/234/234 233/233/233
f 237/237/237 236/236/236 235/235/235
f 236/236/236 238/238/238 235/235/235
f 239/239/239 235/235/235 238/238/238
f 240/240/240 239/239/239 238/238/238
f 239/239/239 240/240/240 241/241/241
f 240/240/240 242/242/242 241/241/241
f 242/242/242 243/243/243 241/241/241
f 243/243/243 244/244/244 241/241/241
f 244/244/244 243/243/243 245/245/245
f 243/243/243 246/246/246 245/245/245
f 247/247/247 245/245/245 246/246/246
f 248/248/248 247/247/247 246/246/246
f 247/247/247 248/248/248 249/249/249
f 248/248/248 250/250/250 249/249/249
f 251/251/251 249/249/249 250/250/250
f 252/252/252 251/251/251 250/250/250
f 255/255/255 254/254/254 253/253/253
f 254/254/254 256/256/256 253/253/253
f 253/253/253 256/256/256 257/257/257
f 256/256/256 258/258/258 257/257/257
f 257/257/257 258/258/258 259/259/259
f 258/258/258 260/260/260 259/259/259
f 259/259/259 260/260/260 261/261/261
f 260/260/260 262/262/262 261/261/261
f 261/261/261 262/262/262 263/263/263
f 262/262/262 264/264/264 263/263/263
f 263/263/263 264/264/264 265/265/265
f 264/264/264 266/266/266 265/265/265
f 265/265/265 266/266/266 267/267/267
f 266/266/266 268/268/268 267/267/267
f 267/267/267 268/268/268 269/269/269
f 268/268/268 270/270/270 269/269/269
f 273/273/273 272/272/272 271/271/271
f 272/272/272 274/274/274 271/271/271
f 271/271/271 274/274/274 275/275/275
f 274/274/274 276/276/276 275/275/275
f 275/275/275 276/276/276 277/277/277
f 276/276/276 278/278/278 277/277/277
f 277/277/277 278/278/278 279/279/279
f 278/278/278 280/280/280 279/279/279
f 279/279/279 280/280/280 281/281/281
f 280/280/280 282/282/282 281/281/281
f 281/281/281 282/282/282 283/283/283
f 282/282/282 284/284/284 283/283/283
f 283/283/283 284/284/284 285/285/285
f 284/284/284 286/286/286 285/285/285
f 285/285/285 286/286/286 287/287/287
f 286/286/286 288/288/288 287/287/287
f 291/291/291 290/290/290 289/289/289
f 290/290/290 292/292/292 289/289/289
f 293/293/293 289/289/289 292/292/292
f 294/294/294 293/293/293 292/292/292
f 293/293/293 294/294/294 295/295/295
f 294/294/294 296/296/296 295/295/295
f 296/296/296 297/297/297 295/295/295
f 297/297/297 298/298/298 295/295/295
f 298/298/298 297/297/297 299/299/299
f 297/297/297 300/300/300 299/299/299
f 301/301/301 299/299/299 300/300/300
f 302/302/302 301/301/301 300/300/300
f 301/301/301 302/302/302 303/303/303
f 302/302/302 304/304/304 303/303/303
f 305/305/305 303/303/303 304/304/304
f 306/306/306 305/305/305 304/304/304
f 309/309/309 308/308/308 307/307/307
f 308/308/308 310/310/310 307/307/307
f 307/307/307 310/310/310 311/311/311
f 310/310/310 312/312/312 311/311/311
f 311/311/311 312/312/312 313/313/313
f 312/312/312 314/314/314 313/313/313
f 313/313/313 314/314/314 315/315/315
f 314/314/314 316/316/316 315/315/315
f 315/315/315 316/316/316 317/317/317
f 316/316/316 318/318/318 317/317/317
f 317/317/317 318/318/318 319/319/319
f 318/318/318 320/320/320 319/319/319
f 319/319/319 320/320/320 321/321/321
f 320/320/320 322/322/322 321/321/321
f 321/321/321 322/322/322 323/323/323
f 322/322/322 324/324/324 323/323/323
f 327/327/327 326/326/326 325/325/325
f 326/326/326 328/328/328 325/325/325
f 325/325/325 328/328/328 329/329/329
f 328/328/328 330/330/330 329/329/329
f 329/329/329 330/330/330 331/331/331
f 330/330/330 332/332/332 331/331/331
f 331/331/331 332/332/332 333/333/333
f 332/332/332 334/334/334 333/333/333
f 333/333/333 334/334/334 335/335/335
f 334/334/334 336/336/336 335/335/335
f 335/335/335 336/336/336 337/337/337
f 336/336/336 338/338/338 337/337/337
f 337/337/337 338/338/338 339/339/339
f 338/338/338 340/340/340 339/339/339
f 339/339/339 340/340/340 341/341/341
f 340/340/340 342/342/342 341/341/341
f 345/345/345 344/344/344 343/343/343
f 344/344/344 346/346/346 343/343/343
f 346/346/346 347/347/347 343/343/343
f 347/347/347 348/348/348 343/343/343
f 349/349/349 348/348/348 347/347/347
f 350/350/350 349/349/349 347/347/347
f 353/353/353 352/352/352 351/351/351
f 352/352/352 354/354/354 351/351/351
f 354/354/354 355/355/355 351/351/351
f 355/355/355 356/356/356 351/351/351
f 357/357/357 356/356/356 355/355/355
f 358/358/358 357/357/357 355/355/355
f 361/361/361 360/360/360 359/359/359
f 362/362/362 360/360/360 361/361/361
f 360/360/360 363/363/363 359/359/359
f 359/359/359 363/363/363 364/364/364
f 364/364/364 363/363/363 365/365/365
f 366/366/366 360/360/360 362/362/362
f 363/363/363 360/360/360 366/366/366
f 367/367/367 366/366/366 362/362/362
f 368/368/368 366/366/366 367/367/367
f 363/363/363 369/369/369 365/365/365
f 369/369/369 363/363/363 366/366/366
f 369/369/369 366/366/366 368/368/368
f 365/365/365 369/369/369 370/370/370
f 370/370/370 369/369/369 368/368/368
f 373/373/373 372/372/372 371/371/371
f 374/374/374 372/372/372 373/373/373
f 372/372/372 375/375/375 371/371/371
f 371/371/371 375/375/375 376/376/376
f 376/376/376 375/375/375 377/377/377
f 378/378/378 372/372/372 374/374/374
f 375/375/375 372/372/372 378/378/378
f 379/379/379 378/378/378 374/374/374
f 380/380/380 378/378/378 379/379/379
f 375/375/375 381/381/381 377/377/377
f 381/381/381 375/375/375 378/378/378
f 381/381/381 378/378/378 380/380/380
f 377/377/377 381/381/381 382/382/382
f 382/382/382 381/381/381 380/380/380
f 385/385/385 384/384/384 383/383/383
f 386/386/386 384/384/384 385/385/385
f 384/384/384 387/387/387 383/383/383
f 383/383/383 387/387/387 388/388/388
f 388/388/388 387/387/387 389/389/389
f 390/390/390 384/384/384 386/386/386
f 387/387/387 384/384/384 390/390/390
f 391/391/391 390/390/390 386/386/386
f 392/392/392 390/390/390 391/391/391
f 387/387/387 393/393/393 389/389/389
f 393/393/393 387/387/387 390/390/390
f 393/393/393 390/390/390 392/392/392
f 389/389/389 393/393/393 394/394/394
f 394/394/394 393/393/393 392/392/392
f 397/397/397 396/396/396 395/395/395
f 398/398/398 397/397/397 395/395/395
f 396/396/396 397/397/397 399/399/399
f 397/397/397 398/398/398 400/400/400
f 401/401/401 399/399/399 397/397/397
f 400/400/400 401/401/401 397/397/397
f 404/404/404 403/403/403 402/402/402
f 403/403/403 405/405/405 402/402/402
f 403/403/403 404/404/404 406/406/406
f 403/403/403 407/407/407 405/405/405
f 406/406/406 408/408/408 403/403/403
f 403/403/403 408/408/408 407/407/407
f 411/411/411 410/410/410 409/409/409
f 411/411/411 409/409/409 412/412/412
f 413/413/413 409/409/409 410/410/410
f 409/409/409 414/414/414 412/412/412
f 409/409/409 413/413/413 415/415/415
f 415/415/415 414/414/414 409/409/409
f 418/418/418 417/417/417 416/416/416
f 416/416/416 417/417/417 419/419/419
f 416/416/416 420/420/420 418/418/418
f 421/421/421 416/416/416 419/419/419
f 420/420/420 416/416/416 422/422/422
f 416/416/416 421/421/421 422/422/422
f 425/425/425 424/424/424 423/423/423
f 425/425/425 423/423/423 426/426/426
f 427/427/427 424/424/424 425/425/425
f 425/425/425 426/426/426 428/428/428
f 425/425/425 429/429/429 427/427/427
f 429/429/429 425/425/425 428/428/428
f 432/432/432 431/431/431 430/430/430
f 432/432/432 430/430/430 433/433/433
f 434/434/434 430/430/430 431/431/431
f 430/430/430 435/435/435 433/433/433
f 430/430/430 434/434/434 436/436/436
f 436/436/436 435/435/435 430/430/430
f 439/439/439 438/438/438 437/437/437
f 440/440/440 439/439/439 437/437/437
f 441/441/441 438/438/438 439/439/439
f 439/439/439 440/440/440 442/442/442
f 439/439/439 443/443/443 441/441/441
f 443/443/443 439/439/439 442/442/442
f 446/446/446 445/445/445 444/444/444
f 445/445/445 447/447/447 444/444/444
f 445/445/445 446/446/446 448/448/448
f 447/447/447 445/445/445 449/449/449
f 448/448/448 450/450/450 445/445/445
f 445/445/445 450/450/450 449/449/449
f 453/453/453 452/452/452 451/451/451
f 452/452/452 454/454/454 451/451/451
f 455/455/455 452/452/452 453/453/453
f 451/451/451 454/454/454 456/456/456
f 457/457/457 455/455/455 453/453/453
f 454/454/454 458/458/458 456/456/456
f 459/459/459 455/455/455 457/457/457
f 456/456/456 458/458/458 460/460/460
f 461/461/461 459/459/459 457/457/457
f 458/458/458 462/462/462 460/460/460
f 463/463/463 459/459/459 461/461/461
f 460/460/460 462/462/462 464/464/464
f 465/465/465 463/463/463 461/461/461
f 462/462/462 466/466/466 464/464/464
f 466/466/466 463/463/463 465/465/465
f 464/464/464 466/466/466 465/465/465
f 469/469/469 468/468/468 467/467/467
f 468/468/468 470/470/470 467/467/467
f 471/471/471 468/468/468 469/469/469
f 467/467/467 470/470/470 472/472/472
f 473/473/473 471/471/471 469/469/469
f 470/470/470 474/474/474 472/472/472
f 475/475/475 471/471/471 473/473/473
f 472/472/472 474/474/474 476/476/476
f 477/477/477 475/475/475 473/473/473
f 474/474/474 478/478/478 476/476/476
f 479/479/479 475/475/475 477/477/477
f 476/476/476 478/478/478 480/480/480
f 481/481/481 479/479/479 477/477/477
f 478/478/478 482/482/482 480/480/480
f 482/482/482 479/479/479 481/481/481
f 480/480/480 482/482/482 481/481/481
f 485/485/485 484/484/484 483/483/483
f 484/484/484 486/486/486 483/483/483
f 487/487/487 484/484/484 485/485/485
f 483/483/483 486/486/486 488/488/488
f 489/489/489 487/487/487 485/485/485
f 486/486/486 490/490/490 488/488/488
f 491/491/491 487/487/487 489/489/489
f 488/488/488 490/490/490 492/492/492
f 493/493/493 491/491/491 489/489/489
f 490/490/490 494/494/494 492/492/492
f 495/495/495 491/491/491 493/493/493
f 492/492/492 494/494/494 496/496/496
f 497/497/497 495/495/495 493/493/493
f 494/494/494 498/498/498 496/496/496
f 498/498/498 495/495/495 497/497/497
f 496/496/496 498/498/498 497/497/497
f 501/501/501 500/500/500 499/499/499
f 500/500/500 502/502/502 499/499/499
f 503/503/503 500/500/500 501/501/501
f 499/499/499 502/502/502 504/504/504
f 505/505/505 503/503/503 501/501/501
f 502/502/502 506/506/506 504/504/504
f 507/507/507 503/503/503 505/505/505
f 504/504/504 506/506/506 508/508/508
f 509/509/509 507/507/507 505/505/505
f 506/506/506 510/510/510 508/508/508
f 511/511/511 507/507/507 509/509/509
f 508/508/508 510/510/510 512/512/512
f 513/513/513 511/511/511 509/509/509
f 510/510/510 514/514/514 512/512/512
f 514/514/514 511/511/511 513/513/513
f 512/512/512 514/514/514 513/513/513
f 517/517/517 516/516/516 515/515/515
f 516/516/516 518/518/518 515/515/515
f 519/519/519 516/516/516 517/517/517
f 515/515/515 518/518/518 520/520/520
f 521/521/521 519/519/519 517/517/517
f 518/518/518 522/522/522 520/520/520
f 523/523/523 519/519/519 521/521/521
f 520/520/520 522/522/522 524/524/524
f 525/525/525 523/523/523 521/521/521
f 522/522/522 526/526/526 524/524/524
f 527/527/527 523/523/523 525/525/525
f 524/524/524 526/526/526 528/528/528
f 529/529/529 527/527/527 525/525/525
f 526/526/526 530/530/530 528/528/528
f 530/530/530 527/527/527 529/529/529
f 528/528/528 530/530/530 529/529/529
f 533/533/533 532/532/532 531/531/531
f 532/532/532 534/534/534 531/531/531
f 535/535/535 532/532/532 533/533/533
f 531/531/531 534/534/534 536/536/536
f 537/537/537 535/535/535 533/533/533
f 534/534/534 538/538/538 536/536/536
f 539/539/539 535/535/535 537/537/537
f 536/536/536 538/538/538 540/540/540
f 541/541/541 539/539/539 537/537/537
f 538/538/538 542/542/542 540/540/540
f 543/543/543 539/539/539 541/541/541
f 540/540/540 542/542/542 544/544/544
f 545/545/545 543/543/543 541/541/541
f 542/542/542 546/546/546 544/544/544
f 546/546/546 543/543/543 545/545/545
f 544/544/544 546/546/546 545/545/545
f 549/549/549 548/548/548 547/547/547
f 550/550/550 549/549/549 547/547/547
f 547/547/547 548/548/548 551/551/551
f 552/552/552 549/549/549 550/550/550
f 548/548/548 553/553/553 551/551/551
f 554/554/554 552/552/552 550/550/550
f 551/551/551 553/553/553 555/555/555
f 556/556/556 552/552/552 554/554/554
f 553/553/553 557/557/557 555/555/555
f 558/558/558 556/556/556 554/554/554
f 555/555/555 557/557/557 559/559/559
f 560/560/560 556/556/556 558/558/558
f 557/557/557 561/561/561 559/559/559
f 562/562/562 560/560/560 558/558/558
f 559/559/559 561/561/561 562/562/562
f 561/561/561 560/560/560 562/562/562
f 565/565/565 564/564/564 563/563/563
f 566/566/566 565/565/565 563/563/563
f 563/563/563 564/564/564 567/567/567
f 568/568/568 565/565/565 566/566/566
f 564/564/564 569/569/569 567/567/567
f 570/570/570 568/568/568 566/566/566
f 567/567/567 569/569/569 571/571/571
f 572/572/572 568/568/568 570/570/570
f 569/569/569 573/573/573 571/571/571
f 574/574/574 572/572/572 570/570/570
f 571/571/571 573/573/573 575/575/575
f 576/576/576 572/572/572 574/574/574
f 573/573/573 577/577/577 575/575/575
f 578/578/578 576/576/576 574/574/574
f 575/575/575 577/577/577 578/578/578
f 577/577/577 576/576/576 578/578/578
