g P_Vert_OneCap_Upsidedown
v -0.0491101295 -0.499999374 0.10680946
v 0.048915863 0.499999851 0.106809363
v 0.048916053 -0.499999374 0.10680946
v -0.0491103269 0.499999851 0.106809363
v -0.107117832 -0.499999374 0.0488015749
v -0.107118025 0.499999851 0.0488015749
v 0.048916053 -0.499999374 0.10680946
v 0.048915863 0.499999851 0.106809363
v 0.106923938 0.499999851 0.0488015749
v 0.106923938 -0.499999374 0.0488015749
v 0.106923938 -0.499999374 0.0488015749
v 0.106923938 0.499999851 0.0488015749
v 0.106923938 0.499999851 -0.0492247939
v 0.106923938 -0.499999374 -0.0492247082
v 0.106923938 -0.499999374 -0.0492247082
v 0.106923938 0.499999851 -0.0492247939
v 0.048915863 0.499999851 -0.107232608
v 0.048916053 -0.499999374 -0.1072326
v -0.0491103269 0.499999851 -0.107232608
v -0.0491101295 -0.499999374 -0.1072326
v -0.107118025 0.499999851 -0.0492247939
v -0.107117832 -0.499999374 -0.0492247082
v -0.107117832 -0.499999374 -0.0492247082
v -0.107118025 0.499999851 -0.0492247939
v -0.107118025 0.499999851 0.0488015749
v -0.107117832 -0.499999374 0.0488015749
v 0.0366871506 -0.499999374 0.080107227
v -0.0367843322 0.499999851 0.0798955113
v -0.0368810333 -0.499999374 0.080107227
v 0.0365900621 0.499999851 0.0798955113
v 0.0802218989 -0.499999374 0.0365725718
v 0.0800099 0.499999851 0.0364755802
v -0.0368810333 -0.499999374 0.080107227
v -0.0367843322 0.499999851 0.0798955113
v -0.080204159 0.499999851 0.0364755802
v -0.0804157779 -0.499999374 0.0365725718
v -0.0804157779 -0.499999374 0.0365725718
v -0.080204159 0.499999851 0.0364755802
v -0.080204159 0.499999851 -0.0368988216
v -0.0804157779 -0.499999374 -0.0369957052
v -0.0804157779 -0.499999374 -0.0369957052
v -0.080204159 0.499999851 -0.0368988216
v -0.0367843322 0.499999851 -0.080318734
v -0.0368810333 -0.499999374 -0.0805303529
v 0.0365900621 0.499999851 -0.080318734
v 0.0366871506 -0.499999374 -0.0805303529
v 0.0800099 0.499999851 -0.0368988216
v 0.0802218989 -0.499999374 -0.0369957052
v 0.0802218989 -0.499999374 -0.0369957052
v 0.0800099 0.499999851 -0.0368988216
v 0.0800099 0.499999851 0.0364755802
v 0.0802218989 -0.499999374 0.0365725718
v 0.0569959879 -0.516177237 0.124451235
v 0.0489162467 -0.516176879 0.106809273
v -0.0491095521 -0.516177058 0.106809363
v -0.0571892932 -0.516177237 0.124451235
v -0.0571892932 -0.516177297 -0.124874495
v -0.0491095521 -0.516177058 -0.107232645
v 0.0489162467 -0.516176879 -0.10723269
v 0.0569959879 -0.516177297 -0.124874495
v -0.124759383 -0.516177237 0.0568811223
v -0.107117832 -0.516176879 0.0488015749
v -0.107117631 -0.516176879 -0.0492248051
v -0.124759383 -0.516177237 -0.0573043525
v 0.124566287 -0.516177237 -0.0573043525
v 0.106924333 -0.516176879 -0.0492248051
v 0.106924333 -0.516176879 0.0488015749
v 0.124566287 -0.516177237 0.0568811223
v 0.124566287 -0.516177237 0.0568811223
v 0.106924333 -0.516176879 0.0488015749
v 0.0489162467 -0.516176879 0.106809273
v 0.0569959879 -0.516177237 0.124451235
v -0.0571892932 -0.516177237 0.124451235
v -0.0491095521 -0.516177058 0.106809363
v -0.107117832 -0.516176879 0.0488015749
v -0.124759383 -0.516177237 0.0568811223
v 0.0569959879 -0.516177297 -0.124874495
v 0.0489162467 -0.516176879 -0.10723269
v 0.106924333 -0.516176879 -0.0492248051
v 0.124566287 -0.516177237 -0.0573043525
v -0.124759383 -0.516177237 -0.0573043525
v -0.107117631 -0.516176879 -0.0492248051
v -0.0491095521 -0.516177058 -0.107232645
v -0.0571892932 -0.516177297 -0.124874495
v -0.0615225509 -0.505591452 0.133913249
v -0.0615225509 -0.391736418 0.133913338
v 0.0613294393 -0.391736418 0.133913338
v 0.0613294393 -0.505591452 0.133913249
v 0.0613294393 -0.505591452 -0.134336472
v 0.0613294393 -0.391736031 -0.134336472
v -0.0615225509 -0.391736418 -0.134336472
v -0.0615225509 -0.505591452 -0.134336472
v -0.134221405 -0.505591452 -0.0616377071
v -0.134221405 -0.391736418 -0.0616376102
v -0.134221405 -0.391736418 0.0612144843
v -0.134221405 -0.505591452 0.0612144843
v 0.134028107 -0.505591452 0.0612144843
v 0.134028107 -0.391736418 0.0612143874
v 0.134028107 -0.391736776 -0.0616377071
v 0.134028107 -0.505591452 -0.0616377071
v 0.0613294393 -0.505591452 0.133913249
v 0.0613294393 -0.391736418 0.133913338
v 0.134028107 -0.391736418 0.0612143874
v 0.134028107 -0.505591452 0.0612144843
v -0.134221405 -0.505591452 0.0612144843
v -0.134221405 -0.391736418 0.0612144843
v -0.0615225509 -0.391736418 0.133913338
v -0.0615225509 -0.505591452 0.133913249
v 0.134028107 -0.505591452 -0.0616377071
v 0.134028107 -0.391736776 -0.0616377071
v 0.0613294393 -0.391736031 -0.134336472
v 0.0613294393 -0.505591452 -0.134336472
v -0.0615225509 -0.505591452 -0.134336472
v -0.0615225509 -0.391736418 -0.134336472
v -0.134221405 -0.391736418 -0.0616376102
v -0.134221405 -0.505591452 -0.0616377071
v 0.0613294393 -0.391736418 0.133913338
v -0.0615225509 -0.391736418 0.133913338
v -0.0589114688 -0.372195721 0.129543364
v 0.0587179735 -0.372195721 0.129543245
v -0.0615225509 -0.391736418 -0.134336472
v 0.0613294393 -0.391736031 -0.134336472
v 0.0587179735 -0.372195721 -0.129966676
v -0.0589114688 -0.372195721 -0.129966587
v -0.134221405 -0.391736418 0.0612144843
v -0.134221405 -0.391736418 -0.0616376102
v -0.129851714 -0.372195721 -0.0590266325
v -0.129851907 -0.372195721 0.0586034954
v 0.134028107 -0.391736776 -0.0616377071
v 0.134028107 -0.391736418 0.0612143874
v 0.129658222 -0.372195721 0.0586034954
v 0.129658222 -0.372195721 -0.0590267256
v 0.134028107 -0.391736418 0.0612143874
v 0.0613294393 -0.391736418 0.133913338
v 0.0587179735 -0.372195721 0.129543245
v 0.129658222 -0.372195721 0.0586034954
v -0.0615225509 -0.391736418 0.133913338
v -0.134221405 -0.391736418 0.0612144843
v -0.129851907 -0.372195721 0.0586034954
v -0.0589114688 -0.372195721 0.129543364
v 0.0613294393 -0.391736031 -0.134336472
v 0.134028107 -0.391736776 -0.0616377071
v 0.129658222 -0.372195721 -0.0590267256
v 0.0587179735 -0.372195721 -0.129966676
v -0.134221405 -0.391736418 -0.0616376102
v -0.0615225509 -0.391736418 -0.134336472
v -0.0589114688 -0.372195721 -0.129966587
v -0.129851714 -0.372195721 -0.0590266325
v 0.0569959879 -0.516177237 0.124451235
v -0.0571892932 -0.516177237 0.124451235
v -0.0615225509 -0.505591452 0.133913249
v 0.0613294393 -0.505591452 0.133913249
v -0.0571892932 -0.516177297 -0.124874495
v 0.0569959879 -0.516177297 -0.124874495
v 0.0613294393 -0.505591452 -0.134336472
v -0.0615225509 -0.505591452 -0.134336472
v -0.124759383 -0.516177237 0.0568811223
v -0.124759383 -0.516177237 -0.0573043525
v -0.134221405 -0.505591452 -0.0616377071
v -0.134221405 -0.505591452 0.0612144843
v 0.124566287 -0.516177237 -0.0573043525
v 0.124566287 -0.516177237 0.0568811223
v 0.134028107 -0.505591452 0.0612144843
v 0.134028107 -0.505591452 -0.0616377071
v 0.124566287 -0.516177237 0.0568811223
v 0.0569959879 -0.516177237 0.124451235
v 0.0613294393 -0.505591452 0.133913249
v 0.134028107 -0.505591452 0.0612144843
v -0.0571892932 -0.516177237 0.124451235
v -0.124759383 -0.516177237 0.0568811223
v -0.134221405 -0.505591452 0.0612144843
v -0.0615225509 -0.505591452 0.133913249
v 0.0569959879 -0.516177297 -0.124874495
v 0.124566287 -0.516177237 -0.0573043525
v 0.134028107 -0.505591452 -0.0616377071
v 0.0613294393 -0.505591452 -0.134336472
v -0.124759383 -0.516177237 -0.0573043525
v -0.0571892932 -0.516177297 -0.124874495
v -0.0615225509 -0.505591452 -0.134336472
v -0.134221405 -0.505591452 -0.0616377071
v 0.0489162467 -0.364527196 0.106809273
v 0.0587179735 -0.372195721 0.129543245
v -0.0589114688 -0.372195721 0.129543364
v -0.0491095521 -0.364527196 0.106809273
v -0.0491095521 -0.364527196 0.106809273
v -0.0589114688 -0.372195721 0.129543364
v -0.129851907 -0.372195721 0.0586034954
v -0.107117832 -0.364527196 0.0488015749
v -0.107117832 -0.364527196 0.0488015749
v -0.129851907 -0.372195721 0.0586034954
v -0.129851714 -0.372195721 -0.0590266325
v -0.107117631 -0.364527196 -0.0492248051
v -0.107117631 -0.364527196 -0.0492248051
v -0.129851714 -0.372195721 -0.0590266325
v -0.0589114688 -0.372195721 -0.129966587
v -0.0491095521 -0.364527196 -0.107232705
v -0.0491095521 -0.364527196 -0.107232705
v -0.0589114688 -0.372195721 -0.129966587
v 0.0587179735 -0.372195721 -0.129966676
v 0.0489162467 -0.364527196 -0.107232794
v 0.0489162467 -0.364527196 -0.107232794
v 0.0587179735 -0.372195721 -0.129966676
v 0.129658222 -0.372195721 -0.0590267256
v 0.106924333 -0.364527196 -0.0492249019
v 0.106924333 -0.364527196 -0.0492249019
v 0.129658222 -0.372195721 -0.0590267256
v 0.129658222 -0.372195721 0.0586034954
v 0.106924333 -0.364527196 0.0488015749
v 0.106924333 -0.364527196 0.0488015749
v 0.129658222 -0.372195721 0.0586034954
v 0.0587179735 -0.372195721 0.129543245
v 0.0489162467 -0.364527196 0.106809273
v 0.0489162467 -0.516176879 0.106809273
v 0.0489162467 -0.364527196 0.106809273
v -0.0491095521 -0.364527196 0.106809273
v -0.0491095521 -0.516177058 0.106809363
v -0.0491095521 -0.516177058 -0.107232645
v -0.0491095521 -0.364527196 -0.107232705
v 0.0489162467 -0.364527196 -0.107232794
v 0.0489162467 -0.516176879 -0.10723269
v -0.107117832 -0.516176879 0.0488015749
v -0.107117832 -0.364527196 0.0488015749
v -0.107117631 -0.364527196 -0.0492248051
v -0.107117631 -0.516176879 -0.0492248051
v 0.106924333 -0.516176879 -0.0492248051
v 0.106924333 -0.364527196 -0.0492249019
v 0.106924333 -0.364527196 0.0488015749
v 0.106924333 -0.516176879 0.0488015749
v 0.106924333 -0.516176879 0.0488015749
v 0.106924333 -0.364527196 0.0488015749
v 0.0489162467 -0.364527196 0.106809273
v 0.0489162467 -0.516176879 0.106809273
v -0.0491095521 -0.516177058 0.106809363
v -0.0491095521 -0.364527196 0.106809273
v -0.107117832 -0.364527196 0.0488015749
v -0.107117832 -0.516176879 0.0488015749
v 0.0489162467 -0.516176879 -0.10723269
v 0.0489162467 -0.364527196 -0.107232794
v 0.106924333 -0.364527196 -0.0492249019
v 0.106924333 -0.516176879 -0.0492248051
v -0.107117631 -0.516176879 -0.0492248051
v -0.107117631 -0.364527196 -0.0492248051
v -0.0491095521 -0.364527196 -0.107232705
v -0.0491095521 -0.516177058 -0.107232645
v -0.107117832 -0.499999374 0.0488015749
v -0.0804157779 -0.499999374 -0.0369957052
v -0.107117832 -0.499999374 -0.0492247082
v -0.0804157779 -0.499999374 0.0365725718
v -0.0368810333 -0.499999374 -0.0805303529
v -0.0491101295 -0.499999374 0.10680946
v -0.0491101295 -0.499999374 -0.1072326
v -0.0368810333 -0.499999374 0.080107227
v 0.0366871506 -0.499999374 -0.0805303529
v 0.048916053 -0.499999374 0.10680946
v 0.048916053 -0.499999374 -0.1072326
v 0.0366871506 -0.499999374 0.080107227
v 0.0802218989 -0.499999374 -0.0369957052
v 0.106923938 -0.499999374 0.0488015749
v 0.106923938 -0.499999374 -0.0492247082
v 0.0802218989 -0.499999374 0.0365725718
v 0.106923938 0.499999851 0.0488015749
v 0.0800099 0.499999851 0.0364755802
v 0.0800099 0.499999851 -0.0368988216
v 0.106923938 0.499999851 -0.0492247939
v 0.048915863 0.499999851 0.106809363
v 0.0365900621 0.499999851 -0.080318734
v 0.0365900621 0.499999851 0.0798955113
v 0.048915863 0.499999851 -0.107232608
v -0.0491103269 0.499999851 0.106809363
v -0.0367843322 0.499999851 -0.080318734
v -0.0367843322 0.499999851 0.0798955113
v -0.0491103269 0.499999851 -0.107232608
v -0.107118025 0.499999851 0.0488015749
v -0.080204159 0.499999851 -0.0368988216
v -0.080204159 0.499999851 0.0364755802
v -0.107118025 0.499999851 -0.0492247939
vt 0.596092463 0.824287534
vt 0.613810062 0.978785336
vt 0.613810062 0.824287534
vt 0.596092463 0.978785336
vt 0.580640554 0.824287534
vt 0.580640554 0.978785336
vt 0.481139958 0.824287713
vt 0.481139958 0.978785574
vt 0.496558487 0.978785574
vt 0.496558487 0.824287713
vt 0.496558487 0.824287713
vt 0.496558487 0.978785574
vt 0.514164507 0.978785574
vt 0.514164507 0.824287713
vt 0.514164507 0.824287713
vt 0.514164507 0.978785574
vt 0.52949959 0.978785336
vt 0.52949959 0.824287534
vt 0.547487617 0.978785336
vt 0.547487617 0.824287534
vt 0.563011765 0.978785336
vt 0.563011765 0.824287534
vt 0.563011765 0.824287534
vt 0.563011765 0.978785336
vt 0.580640554 0.978785336
vt 0.580640554 0.824287534
vt 0.457913637 0.704432428
vt 0.471080184 0.857478142
vt 0.471159548 0.704437912
vt 0.457853556 0.857475877
vt 0.446822703 0.704430342
vt 0.446729332 0.857556403
vt 0.374175787 0.704430819
vt 0.37422812 0.857427955
vt 0.385240436 0.857411206
vt 0.385199249 0.70443058
vt 0.385199249 0.70443058
vt 0.385240436 0.857411206
vt 0.398378581 0.85742557
vt 0.39837122 0.70443058
vt 0.39837122 0.70443058
vt 0.398378581 0.85742557
vt 0.409334332 0.857497633
vt 0.40939644 0.70443058
vt 0.422489822 0.857509136
vt 0.422567397 0.70443058
vt 0.433538973 0.857474864
vt 0.433585793 0.704430342
vt 0.433585793 0.704430342
vt 0.433538973 0.857474864
vt 0.446729332 0.857556403
vt 0.446822703 0.704430342
vt 0.420891523 0.605396688
vt 0.413319767 0.608899772
vt 0.413319528 0.626518548
vt 0.420893639 0.630028725
vt 0.367297947 0.630028725
vt 0.374906868 0.626518071
vt 0.374855876 0.608938456
vt 0.367297173 0.605462372
vt 0.406330079 0.644660175
vt 0.402892411 0.636925817
vt 0.385353833 0.636925817
vt 0.381875157 0.644730031
vt 0.38188532 0.590834439
vt 0.385322452 0.598512948
vt 0.402881145 0.598516107
vt 0.406311274 0.590813041
vt 0.406311274 0.590813041
vt 0.402881145 0.598516107
vt 0.413319767 0.608899772
vt 0.420891523 0.605396688
vt 0.420893639 0.630028725
vt 0.413319528 0.626518548
vt 0.402892411 0.636925817
vt 0.406330079 0.644660175
vt 0.367297173 0.605462372
vt 0.374855876 0.608938456
vt 0.385322452 0.598512948
vt 0.38188532 0.590834439
vt 0.381875157 0.644730031
vt 0.385353833 0.636925817
vt 0.374906868 0.626518071
vt 0.367297947 0.630028725
vt 0.269832939 0.983604729
vt 0.269667476 0.978054523
vt 0.243829891 0.978054523
vt 0.244017839 0.983604729
vt 0.363592595 0.983604729
vt 0.363654524 0.978054523
vt 0.33803913 0.978054523
vt 0.33803755 0.983604729
vt 0.316720158 0.983604729
vt 0.316703975 0.978054523
vt 0.291078478 0.978054523
vt 0.291162133 0.983604729
vt 0.410422623 0.983604729
vt 0.411066771 0.978054523
vt 0.38505742 0.978054523
vt 0.384904772 0.983604729
vt 0.431904703 0.983604848
vt 0.433017254 0.978054702
vt 0.411066771 0.978054523
vt 0.410422623 0.983604729
vt 0.291162133 0.983604729
vt 0.291078478 0.978054523
vt 0.269667476 0.978054523
vt 0.269832939 0.983604729
vt 0.384904772 0.983604729
vt 0.38505742 0.978054523
vt 0.363654524 0.978054523
vt 0.363592595 0.983604729
vt 0.33803755 0.983604729
vt 0.33803913 0.978054523
vt 0.316703975 0.978054523
vt 0.316720158 0.983604729
vt 0.367297173 0.605462372
vt 0.367297947 0.630028725
vt 0.374906868 0.626518071
vt 0.374855876 0.608938456
vt 0.420893639 0.630028725
vt 0.420891523 0.605396688
vt 0.413319767 0.608899772
vt 0.413319528 0.626518548
vt 0.381875157 0.644730031
vt 0.406330079 0.644660175
vt 0.402892411 0.636925817
vt 0.385353833 0.636925817
vt 0.406311274 0.590813041
vt 0.38188532 0.590834439
vt 0.385322452 0.598512948
vt 0.402881145 0.598516107
vt 0.38188532 0.590834439
vt 0.367297173 0.605462372
vt 0.374855876 0.608938456
vt 0.385322452 0.598512948
vt 0.367297947 0.630028725
vt 0.381875157 0.644730031
vt 0.385353833 0.636925817
vt 0.374906868 0.626518071
vt 0.420891523 0.605396688
vt 0.406311274 0.590813041
vt 0.402881145 0.598516107
vt 0.413319767 0.608899772
vt 0.406330079 0.644660175
vt 0.420893639 0.630028725
vt 0.413319528 0.626518548
vt 0.402892411 0.636925817
vt 0.245142654 0.986091793
vt 0.26989305 0.986091793
vt 0.269832939 0.983604729
vt 0.244017839 0.983604729
vt 0.338107675 0.986091793
vt 0.363482803 0.986091793
vt 0.363592595 0.983604729
vt 0.33803755 0.983604729
vt 0.291278183 0.986091793
vt 0.316656113 0.986091793
vt 0.316720158 0.983604729
vt 0.291162133 0.983604729
vt 0.38487938 0.986091793
vt 0.40999499 0.986091793
vt 0.410422623 0.983604729
vt 0.384904772 0.983604729
vt 0.40999499 0.986091793
vt 0.43056947 0.986091912
vt 0.431904703 0.983604848
vt 0.410422623 0.983604729
vt 0.26989305 0.986091793
vt 0.291278183 0.986091793
vt 0.291162133 0.983604729
vt 0.269832939 0.983604729
vt 0.363482803 0.986091793
vt 0.38487938 0.986091793
vt 0.384904772 0.983604729
vt 0.363592595 0.983604729
vt 0.316656113 0.986091793
vt 0.338107675 0.986091793
vt 0.33803755 0.983604729
vt 0.316720158 0.983604729
vt 0.595320046 0.983465493
vt 0.595320046 0.987652957
vt 0.613780499 0.987652957
vt 0.61285305 0.983465493
vt 0.480608135 0.983465731
vt 0.479680359 0.987653077
vt 0.49535954 0.987653077
vt 0.49535954 0.983465731
vt 0.49535954 0.983465731
vt 0.49535954 0.987653077
vt 0.513390839 0.987653077
vt 0.513390839 0.983465731
vt 0.513390839 0.983465731
vt 0.513390839 0.987653077
vt 0.52866441 0.987652957
vt 0.52866441 0.983465493
vt 0.52866441 0.983465493
vt 0.52866441 0.987652957
vt 0.546730459 0.987652957
vt 0.546730459 0.983465493
vt 0.546730459 0.983465493
vt 0.546730459 0.987652957
vt 0.562015772 0.987652957
vt 0.562015772 0.983465493
vt 0.562015772 0.983465493
vt 0.562015772 0.987652957
vt 0.580070317 0.987652957
vt 0.580070317 0.983465493
vt 0.580070317 0.983465493
vt 0.580070317 0.987652957
vt 0.595320046 0.987652957
vt 0.595320046 0.983465493
vt 0.413319767 0.608899772
vt 0.413319767 0.608899772
vt 0.413319528 0.626518548
vt 0.413319528 0.626518548
vt 0.374906868 0.626518071
vt 0.374906868 0.626518071
vt 0.374855876 0.608938456
vt 0.374855876 0.608938456
vt 0.402892411 0.636925817
vt 0.402892411 0.636925817
vt 0.385353833 0.636925817
vt 0.385353833 0.636925817
vt 0.385322452 0.598512948
vt 0.385322452 0.598512948
vt 0.402881145 0.598516107
vt 0.402881145 0.598516107
vt 0.402881145 0.598516107
vt 0.402881145 0.598516107
vt 0.413319767 0.608899772
vt 0.413319767 0.608899772
vt 0.413319528 0.626518548
vt 0.413319528 0.626518548
vt 0.402892411 0.636925817
vt 0.402892411 0.636925817
vt 0.374855876 0.608938456
vt 0.374855876 0.608938456
vt 0.385322452 0.598512948
vt 0.385322452 0.598512948
vt 0.385353833 0.636925817
vt 0.385353833 0.636925817
vt 0.374906868 0.626518071
vt 0.374906868 0.626518071
vt 0.370966941 0.57188797
vt 0.376975656 0.552653193
vt 0.370973378 0.549985588
vt 0.377029538 0.569117963
vt 0.386797488 0.543049812
vt 0.384009123 0.584908068
vt 0.38405329 0.537063956
vt 0.386770427 0.578885674
vt 0.403261989 0.543049812
vt 0.406007677 0.584927022
vt 0.406051993 0.537063956
vt 0.403248549 0.578880787
vt 0.413087606 0.552734494
vt 0.419106424 0.571876824
vt 0.41914618 0.550013006
vt 0.413033932 0.569083989
vt 0.38405329 0.537063956
vt 0.386797488 0.543049812
vt 0.403261989 0.543049812
vt 0.406051993 0.537063956
vt 0.370973378 0.549985588
vt 0.413087606 0.552734494
vt 0.376975656 0.552653193
vt 0.41914618 0.550013006
vt 0.370966941 0.57188797
vt 0.413033932 0.569083989
vt 0.377029538 0.569117963
vt 0.419106424 0.571876824
vt 0.384009123 0.584908068
vt 0.403248549 0.578880787
vt 0.386770427 0.578885674
vt 0.406007677 0.584927022
vn -0.382684082 0 0.923879325
vn 0.3826828 1.07996016E-07 0.923879802
vn 0.38268289 1.07996016E-07 0.923879743
vn -0.382684082 0 0.923879325
vn -0.707107663 -1.03126304E-07 0.707105875
vn -0.707107663 -1.03126283E-07 0.707105875
vn 0.38268289 1.07996016E-07 0.923879743
vn 0.3826828 1.07996016E-07 0.923879802
vn 0.707105875 1.02657282E-07 0.707107663
vn 0.707105875 1.02657282E-07 0.707107663
vn 1 0 0
vn 1 0 0
vn 1 0 0
vn 1 0 0
vn 0.707105875 0 -0.707107663
vn 0.707105875 0 -0.707107663
vn 0.3826828 0 -0.923879802
vn 0.38268286 0 -0.923879743
vn -0.382684082 0 -0.923879325
vn -0.382684082 0 -0.923879325
vn -0.707107663 -1.71564622E-07 -0.707105875
vn -0.707107663 -1.7156465E-07 -0.707105875
vn -1 -1.93786775E-07 0
vn -1 -1.93786775E-07 0
vn -1 -1.93786775E-07 0
vn -1 -1.93786775E-07 0
vn -0.382685483 -0.000232787235 -0.923878729
vn 0.382681549 -0.000232638573 -0.923880339
vn 0.382685304 -0.000232638602 -0.923878729
vn -0.382681519 -0.000232787192 -0.923880339
vn -0.707106769 -0.000218422574 -0.707106769
vn -0.707106769 -0.000218422574 -0.707106769
vn 0.382685304 -0.000232638602 -0.923878729
vn 0.382681549 -0.000232638573 -0.923880339
vn 0.707106769 -0.000218148023 -0.707106769
vn 0.707106769 -0.000218148052 -0.707106769
vn 1 -0.000211615159 0
vn 1 -0.000211615159 0
vn 1 -0.000211615188 0
vn 1 -0.000211615159 0
vn 0.707106769 -0.000218080488 0.707106769
vn 0.707106769 -0.000218080473 0.707106769
vn 0.382681549 -0.000232549603 0.923880339
vn 0.382685304 -0.000232549603 0.923878729
vn -0.382681519 -0.000232697683 0.923880339
vn -0.382685483 -0.000232697697 0.923878729
vn -0.707106769 -0.000218354078 0.707106769
vn -0.707106769 -0.000218354078 0.707106769
vn -1 -0.000212002749 0
vn -1 -0.000212002749 0
vn -1 -0.000212002749 0
vn -1 -0.000212002749 0
vn 9.1317122E-07 -1 -1.64766807E-05
vn 9.1317122E-07 -1 -1.64766843E-05
vn 9.1317122E-07 -1 -1.64766843E-05
vn 9.1317122E-07 -1 -1.64766843E-05
vn 9.13182532E-07 -1 1.64767534E-05
vn 9.13182589E-07 -1 1.64767534E-05
vn 9.13182532E-07 -1 1.64767534E-05
vn 9.13182589E-07 -1 1.64767534E-05
vn 2.1969212E-05 -1 0
vn 2.1969212E-05 -1 0
vn 2.1969212E-05 -1 0
vn 2.1969212E-05 -1 0
vn -2.19688518E-05 -1 0
vn -2.19688518E-05 -1 0
vn -2.19688518E-05 -1 0
vn -2.19688518E-05 -1 0
vn -1.50679807E-05 -1 -1.5068048E-05
vn -1.50679789E-05 -1 -1.50680498E-05
vn -1.50679789E-05 -1 -1.5068048E-05
vn -1.50679789E-05 -1 -1.5068048E-05
vn 1.05295157E-05 -1 -1.20727145E-05
vn 1.05295157E-05 -1 -1.20727173E-05
vn 1.05295157E-05 -1 -1.20727163E-05
vn 1.05295157E-05 -1 -1.20727163E-05
vn -1.50680371E-05 -1 1.50680789E-05
vn -1.50680371E-05 -1 1.50680789E-05
vn -1.50680371E-05 -1 1.50680789E-05
vn -1.50680371E-05 -1 1.50680771E-05
vn 1.05294876E-05 -1 1.20726636E-05
vn 1.05294885E-05 -1 1.20726636E-05
vn 1.05294885E-05 -1 1.20726636E-05
vn 1.05294885E-05 -1 1.20726636E-05
vn -0 -8.51023344E-07 1
vn -0 -8.51023344E-07 1
vn -0 -8.51023344E-07 1
vn -0 -8.51023344E-07 1
vn -0 0 -1
vn -0 0 -1
vn -0 0 -1
vn -0 0 -1
vn -1 0 0
vn -1 0 0
vn -1 0 0
vn -1 0 0
vn 1 0 0
vn 1 0 0
vn 1 0 0
vn 1 0 0
vn 0.707107663 0 0.707105875
vn 0.707107663 0 0.707105875
vn 0.707107663 0 0.707105875
vn 0.707107663 0 0.707105875
vn -0.707106471 -3.02232081E-07 0.707107008
vn -0.707106471 -3.02232081E-07 0.707107008
vn -0.707106531 -3.0223211E-07 0.707107008
vn -0.707106531 -3.0223211E-07 0.707107008
vn 0.707107306 0 -0.707106233
vn 0.707107246 0 -0.707106233
vn 0.707107246 0 -0.707106233
vn 0.707107306 0 -0.707106233
vn -0.707106471 3.02232081E-07 -0.707107008
vn -0.707106471 3.02232081E-07 -0.707107008
vn -0.707106531 3.0223211E-07 -0.707107008
vn -0.707106531 3.0223211E-07 -0.707107008
vn 3.93310245E-07 0.218246773 0.975893617
vn 3.93310245E-07 0.218246818 0.975893617
vn 3.93310273E-07 0.218246832 0.975893617
vn 3.93310245E-07 0.218246818 0.975893617
vn -7.44702561E-07 0.218239591 -0.975895226
vn -7.44702618E-07 0.218239635 -0.975895226
vn -7.44702561E-07 0.218239591 -0.975895226
vn -7.44702618E-07 0.218239591 -0.975895226
vn -0.975898266 0.21822606 -7.8662174E-07
vn -0.975898266 0.218226045 -7.8662174E-07
vn -0.975898266 0.218226045 -7.8662174E-07
vn -0.975898266 0.218226045 -7.8662174E-07
vn 0.975895584 0.218237802 -3.51379725E-07
vn 0.975895584 0.218237802 -3.51379725E-07
vn 0.975895584 0.218237802 -3.51379725E-07
vn 0.975895584 0.218237802 -3.51379725E-07
vn 0.68556869 0.244928688 0.685569525
vn 0.685568571 0.244928733 0.685569644
vn 0.68556869 0.244928688 0.685569525
vn 0.685568631 0.244928628 0.685569525
vn -0.685569942 0.244915903 0.685572684
vn -0.685570002 0.244915947 0.685572803
vn -0.685570002 0.244915918 0.685572803
vn -0.685569942 0.244915873 0.685572684
vn 0.685569823 0.244925469 -0.685569584
vn 0.685569823 0.244925469 -0.685569525
vn 0.685569823 0.244925424 -0.685569525
vn 0.685569823 0.244925424 -0.685569584
vn -0.685570419 0.244917497 -0.68557179
vn -0.685570419 0.244917497 -0.68557179
vn -0.685570419 0.244917497 -0.68557179
vn -0.685570419 0.244917482 -0.68557179
vn -0 -0.666424215 0.745572805
vn -0 -0.666424215 0.745572805
vn -0 -0.666424215 0.745572805
vn -0 -0.666424215 0.745572805
vn -0 -0.666422248 -0.745574594
vn -0 -0.666422248 -0.745574594
vn -0 -0.666422248 -0.745574594
vn -0 -0.666422248 -0.745574594
vn -0.745572805 -0.666424215 0
vn -0.745572805 -0.666424215 0
vn -0.745572805 -0.666424215 0
vn -0.745572805 -0.666424215 0
vn 0.7455796 -0.666416526 0
vn 0.7455796 -0.666416526 0
vn 0.7455796 -0.666416526 0
vn 0.7455796 -0.666416526 0
vn 0.519993544 -0.677652478 0.51999408
vn 0.519993544 -0.677652478 0.51999408
vn 0.519993544 -0.677652478 0.51999408
vn 0.519993544 -0.677652478 0.51999408
vn -0.519993544 -0.677652538 0.519993961
vn -0.519993603 -0.677652538 0.519993961
vn -0.519993663 -0.677652478 0.519993961
vn -0.519993603 -0.677652538 0.51999402
vn 0.51999408 -0.677651823 -0.519994318
vn 0.51999408 -0.677651882 -0.519994259
vn 0.51999402 -0.677651942 -0.519994378
vn 0.51999408 -0.677651882 -0.519994259
vn -0.51999408 -0.677651882 -0.519994259
vn -0.51999408 -0.677651882 -0.519994259
vn -0.51999402 -0.677651942 -0.519994378
vn -0.51999402 -0.677651942 -0.519994378
vn 1.44925821E-07 0.947545528 0.319621086
vn 1.44925835E-07 0.947545528 0.319621116
vn 1.44925835E-07 0.947545528 0.319621116
vn 1.44925821E-07 0.947545528 0.319621116
vn -0.223598346 0.948686838 0.223600358
vn -0.223598361 0.948686779 0.223600388
vn -0.223598346 0.948686838 0.223600358
vn -0.223598316 0.948686838 0.223600343
vn -0.31962049 0.947545707 -5.75982767E-07
vn -0.31962052 0.947545588 -5.75982824E-07
vn -0.31962049 0.947545588 -5.75982767E-07
vn -0.31962052 0.947545588 -5.75982767E-07
vn -0.223599777 0.948686421 -0.223600611
vn -0.223599821 0.948686421 -0.223600611
vn -0.223599792 0.948686302 -0.223600626
vn -0.223599821 0.948686421 -0.223600611
vn -2.89853318E-07 0.947544754 -0.319622904
vn -2.8985329E-07 0.947544754 -0.319622874
vn -2.8985329E-07 0.947544754 -0.319622874
vn -2.89853318E-07 0.947544754 -0.319622904
vn 0.223600984 0.948685765 -0.223601818
vn 0.223600999 0.948685765 -0.223601833
vn 0.223600999 0.948685765 -0.223601833
vn 0.223601013 0.948685765 -0.223601833
vn 0.319622874 0.947544754 0
vn 0.319622874 0.947544754 0
vn 0.319622874 0.947544754 0
vn 0.319622874 0.947544754 0
vn 0.22360006 0.948686123 0.223601565
vn 0.223600075 0.948686123 0.223601565
vn 0.223600104 0.948686123 0.22360158
vn 0.223600075 0.948686123 0.223601565
vn -4.94223229E-07 -3.19464078E-07 -1
vn -4.94223229E-07 -3.19464135E-07 -1
vn -4.94223229E-07 -3.19464135E-07 -1
vn -4.94223229E-07 -3.19464135E-07 -1
vn 7.41334929E-07 4.7919616E-07 1
vn 7.41334816E-07 4.7919616E-07 1
vn 7.41334816E-07 4.7919616E-07 1
vn 7.41334816E-07 4.7919616E-07 1
vn 1 0 1.97688246E-06
vn 1 0 1.97688246E-06
vn 1 0 1.97688246E-06
vn 1 0 1.97688246E-06
vn -1 0 0
vn -1 0 0
vn -1 0 0
vn -1 0 0
vn -0.707104445 0 -0.707109094
vn -0.707104445 0 -0.707109094
vn -0.707104445 0 -0.707109094
vn -0.707104445 0 -0.707109094
vn 0.70710361 -2.22553936E-07 -0.707109988
vn 0.707103491 -2.22553922E-07 -0.707109988
vn 0.707103491 -2.22553936E-07 -0.707110047
vn 0.707103431 -2.22553936E-07 -0.707110047
vn -0.707105577 4.45108412E-07 0.707107961
vn -0.707105517 4.45108327E-07 0.707107961
vn -0.707105577 4.45108412E-07 0.707107961
vn -0.707105517 4.45108327E-07 0.707107961
vn 0.707105398 1.11277039E-07 0.70710814
vn 0.707105398 1.11277053E-07 0.70710808
vn 0.707105398 1.1127706E-07 0.70710814
vn 0.707105398 1.1127706E-07 0.70710808
vn -0 -1 0
vn -0 -1 0
vn -0 -1 0
vn -0 -1 0
vn -0 -1 0
vn -0 -1 0
vn -0 -1 0
vn -0 -1 0
vn -0 -1 0
vn -0 -1 0
vn -0 -1 0
vn -0 -1 0
vn -0 -1 0
vn -0 -1 0
vn -0 -1 0
vn -0 -1 0
vn -0 1 0
vn -0 1 0
vn -0 1 0
vn -0 1 0
vn -0 1 0
vn -0 1 0
vn -0 1 0
vn -0 1 0
vn -0 1 0
vn -0 1 0
vn -0 1 0
vn -0 1 0
vn -0 1 0
vn -0 1 0
vn -0 1 0
vn -0 1 0
g P_Vert_OneCap_Upsidedown_0
f 3/3/3 2/2/2 1/1/1
f 2/2/2 4/4/4 1/1/1
f 1/1/1 4/4/4 5/5/5
f 4/4/4 6/6/6 5/5/5
f 9/9/9 8/8/8 7/7/7
f 10/10/10 9/9/9 7/7/7
f 13/13/13 12/12/12 11/11/11
f 14/14/14 13/13/13 11/11/11
f 17/17/17 16/16/16 15/15/15
f 18/18/18 17/17/17 15/15/15
f 19/19/19 17/17/17 18/18/18
f 20/20/20 19/19/19 18/18/18
f 21/21/21 19/19/19 20/20/20
f 22/22/22 21/21/21 20/20/20
f 25/25/25 24/24/24 23/23/23
f 26/26/26 25/25/25 23/23/23
f 29/29/29 28/28/28 27/27/27
f 28/28/28 30/30/30 27/27/27
f 27/27/27 30/30/30 31/31/31
f 30/30/30 32/32/32 31/31/31
f 35/35/35 34/34/34 33/33/33
f 36/36/36 35/35/35 33/33/33
f 39/39/39 38/38/38 37/37/37
f 40/40/40 39/39/39 37/37/37
f 43/43/43 42/42/42 41/41/41
f 44/44/44 43/43/43 41/41/41
f 45/45/45 43/43/43 44/44/44
f 46/46/46 45/45/45 44/44/44
f 47/47/47 45/45/45 46/46/46
f 48/48/48 47/47/47 46/46/46
f 51/51/51 50/50/50 49/49/49
f 52/52/52 51/51/51 49/49/49
f 55/55/55 54/54/54 53/53/53
f 56/56/56 55/55/55 53/53/53
f 59/59/59 58/58/58 57/57/57
f 60/60/60 59/59/59 57/57/57
f 63/63/63 62/62/62 61/61/61
f 64/64/64 63/63/63 61/61/61
f 67/67/67 66/66/66 65/65/65
f 68/68/68 67/67/67 65/65/65
f 71/71/71 70/70/70 69/69/69
f 72/72/72 71/71/71 69/69/69
f 75/75/75 74/74/74 73/73/73
f 76/76/76 75/75/75 73/73/73
f 79/79/79 78/78/78 77/77/77
f 80/80/80 79/79/79 77/77/77
f 83/83/83 82/82/82 81/81/81
f 84/84/84 83/83/83 81/81/81
f 87/87/87 86/86/86 85/85/85
f 88/88/88 87/87/87 85/85/85
f 91/91/91 90/90/90 89/89/89
f 92/92/92 91/91/91 89/89/89
f 95/95/95 94/94/94 93/93/93
f 96/96/96 95/95/95 93/93/93
f 99/99/99 98/98/98 97/97/97
f 100/100/100 99/99/99 97/97/97
f 103/103/103 102/102/102 101/101/101
f 104/104/104 103/103/103 101/101/101
f 107/107/107 106/106/106 105/105/105
f 108/108/108 107/107/107 105/105/105
f 111/111/111 110/110/110 109/109/109
f 112/112/112 111/111/111 109/109/109
f 115/115/115 114/114/114 113/113/113
f 116/116/116 115/115/115 113/113/113
f 119/119/119 118/118/118 117/117/117
f 120/120/120 119/119/119 117/117/117
f 123/123/123 122/122/122 121/121/121
f 124/124/124 123/123/123 121/121/121
f 127/127/127 126/126/126 125/125/125
f 128/128/128 127/127/127 125/125/125
f 131/131/131 130/130/130 129/129/129
f 132/132/132 131/131/131 129/129/129
f 135/135/135 134/134/134 133/133/133
f 136/136/136 135/135/135 133/133/133
f 139/139/139 138/138/138 137/137/137
f 140/140/140 139/139/139 137/137/137
f 143/143/143 142/142/142 141/141/141
f 144/144/144 143/143/143 141/141/141
f 147/147/147 146/146/146 145/145/145
f 148/148/148 147/147/147 145/145/145
f 151/151/151 150/150/150 149/149/149
f 152/152/152 151/151/151 149/149/149
f 155/155/155 154/154/154 153/153/153
f 156/156/156 155/155/155 153/153/153
f 159/159/159 158/158/158 157/157/157
f 160/160/160 159/159/159 157/157/157
f 163/163/163 162/162/162 161/161/161
f 164/164/164 163/163/163 161/161/161
f 167/167/167 166/166/166 165/165/165
f 168/168/168 167/167/167 165/165/165
f 171/171/171 170/170/170 169/169/169
f 172/172/172 171/171/171 169/169/169
f 175/175/175 174/174/174 173/173/173
f 176/176/176 175/175/175 173/173/173
f 179/179/179 178/178/178 177/177/177
f 180/180/180 179/179/179 177/177/177
f 183/183/183 182/182/182 181/181/181
f 184/184/184 183/183/183 181/181/181
f 187/187/187 186/186/186 185/185/185
f 188/188/188 187/187/187 185/185/185
f 191/191/191 190/190/190 189/189/189
f 192/192/192 191/191/191 189/189/189
f 195/195/195 194/194/194 193/193/193
f 196/196/196 195/195/195 193/193/193
f 199/199/199 198/198/198 197/197/197
f 200/200/200 199/199/199 197/197/197
f 203/203/203 202/202/202 201/201/201
f 204/204/204 203/203/203 201/201/201
f 207/207/207 206/206/206 205/205/205
f 208/208/208 207/207/207 205/205/205
f 211/211/211 210/210/210 209/209/209
f 212/212/212 211/211/211 209/209/209
f 215/215/215 214/214/214 213/213/213
f 216/216/216 215/215/215 213/213/213
f 219/219/219 218/218/218 217/217/217
f 220/220/220 219/219/219 217/217/217
f 223/223/223 222/222/222 221/221/221
f 224/224/224 223/223/223 221/221/221
f 227/227/227 226/226/226 225/225/225
f 228/228/228 227/227/227 225/225/225
f 231/231/231 230/230/230 229/229/229
f 232/232/232 231/231/231 229/229/229
f 235/235/235 234/234/234 233/233/233
f 236/236/236 235/235/235 233/233/233
f 239/239/239 238/238/238 237/237/237
f 240/240/240 239/239/239 237/237/237
f 243/243/243 242/242/242 241/241/241
f 244/244/244 243/243/243 241/241/241
f 247/247/247 246/246/246 245/245/245
f 246/246/246 248/248/248 245/245/245
f 249/249/249 246/246/246 247/247/247
f 245/245/245 248/248/248 250/250/250
f 251/251/251 249/249/249 247/247/247
f 248/248/248 252/252/252 250/250/250
f 253/253/253 249/249/249 251/251/251
f 250/250/250 252/252/252 254/254/254
f 255/255/255 253/253/253 251/251/251
f 252/252/252 256/256/256 254/254/254
f 257/257/257 253/253/253 255/255/255
f 254/254/254 256/256/256 258/258/258
f 259/259/259 257/257/257 255/255/255
f 256/256/256 260/260/260 258/258/258
f 260/260/260 257/257/257 259/259/259
f 258/258/258 260/260/260 259/259/259
f 263/263/263 262/262/262 261/261/261
f 264/264/264 263/263/263 261/261/261
f 261/261/261 262/262/262 265/265/265
f 266/266/266 263/263/263 264/264/264
f 262/262/262 267/267/267 265/265/265
f 268/268/268 266/266/266 264/264/264
f 265/265/265 267/267/267 269/269/269
f 270/270/270 266/266/266 268/268/268
f 267/267/267 271/271/271 269/269/269
f 272/272/272 270/270/270 268/268/268
f 269/269/269 271/271/271 273/273/273
f 274/274/274 270/270/270 272/272/272
f 271/271/271 275/275/275 273/273/273
f 276/276/276 274/274/274 272/272/272
f 273/273/273 275/275/275 276/276/276
f 275/275/275 274/274/274 276/276/276
