g P_Bend_Vert
v -0.107021078 -0.232236832 0.499999911
v -0.107021078 -0.330263019 0.499999911
v -0.107021078 -0.330263019 0.250503451
v -0.107021078 -0.232236832 0.250503451
v -0.107021078 -0.216799542 0.172894821
v -0.107021078 -0.307363987 0.135381803
v 0.107020929 -0.232236832 0.499999911
v 0.10702087 -0.330263019 0.250503451
v 0.107020929 -0.330263019 0.499999911
v 0.10702087 -0.232236832 0.250503451
v 0.10702087 -0.307363987 0.135381803
v 0.10702087 -0.216799542 0.172894821
v 0.107020929 -0.030746378 -0.0490132906
v 0.107020929 -0.108354881 0.0644503757
v 0.107020929 -0.030746378 0.0490130447
v 0.107020929 -0.145867899 -0.0261140559
v 0.10702087 -0.172837824 0.107101448
v 0.10702087 -0.242152855 0.0377864242
v 0.10702087 -0.216799542 0.172894821
v 0.10702087 -0.307363987 0.135381803
v -0.107021034 -0.030746391 0.0490130447
v -0.107021034 -0.145867899 -0.0261140559
v -0.107021034 -0.0307463929 -0.0490132906
v -0.107021034 -0.108354881 0.0644503757
v -0.107021078 -0.242152855 0.0377864242
v -0.107021078 -0.172837824 0.107101455
v -0.107021078 -0.307363987 0.135381803
v -0.107021078 -0.216799542 0.172894821
v -0.107021034 0.500000298 -0.049013041
v -0.107021034 0.500000358 0.0490132906
v -0.107021034 -0.030746391 0.0490130447
v -0.107021034 -0.0307463929 -0.0490132906
v 0.107020929 0.500000298 -0.0490129478
v 0.107020929 -0.030746378 -0.0490132906
v 0.107020929 -0.030746378 0.0490130447
v 0.107020929 0.500000417 0.0490132906
v -0.107021078 -0.330263019 0.250503451
v -0.107021078 -0.330263019 0.499999911
v -0.0490132384 -0.388270855 0.499999911
v -0.0490132384 -0.388270855 0.250503421
v -0.107021078 -0.307363987 0.135381803
v 0.049013041 -0.388270855 0.250503421
v 0.0490130857 -0.388270855 0.499999911
v 0.107020929 -0.330263019 0.499999911
v 0.10702087 -0.330263019 0.250503451
v -0.0490132384 -0.360956192 0.113183156
v -0.107021078 -0.242152855 0.0377864242
v 0.049013041 -0.360956192 0.113183156
v 0.10702087 -0.307363987 0.135381803
v -0.0490132384 -0.283170611 -0.00323129655
v -0.107021034 -0.145867899 -0.0261140559
v 0.049013041 -0.283170611 -0.00323129655
v 0.10702087 -0.242152855 0.0377864242
v -0.0490131862 -0.168066531 -0.0797063261
v -0.107021034 -0.0307463929 -0.0490132906
v -0.0490131862 -0.0307463929 -0.107021138
v 0.0490130857 -0.168066531 -0.0797063261
v 0.107020929 -0.145867899 -0.0261140559
v 0.0490130857 -0.0307463687 -0.107021131
v 0.107020929 -0.030746378 -0.0490132906
v 0.10702087 -0.232236832 0.250503451
v 0.107020929 -0.232236832 0.499999911
v 0.0490130857 -0.174228981 0.499999911
v 0.049013041 -0.174228981 0.250503451
v 0.10702087 -0.216799542 0.172894821
v 0.049013041 -0.163207278 0.195093453
v -0.0490132384 -0.174228981 0.250503451
v -0.0490132384 -0.174228981 0.499999911
v -0.107021078 -0.232236832 0.499999911
v -0.0490132384 -0.163207278 0.195093453
v -0.107021078 -0.232236832 0.250503451
v -0.107021078 -0.216799542 0.172894821
v -0.0490131862 -0.030746391 0.107020892
v -0.107021034 -0.108354881 0.0644503757
v -0.107021034 -0.030746391 0.0490130447
v -0.0490131862 -0.0861562416 0.118042648
v 0.0490130857 -0.0307464097 0.107020892
v -0.107021078 -0.172837824 0.107101455
v 0.0490130857 -0.086156249 0.118042648
v 0.107020929 -0.030746378 0.0490130447
v 0.107020929 -0.108354881 0.0644503757
v -0.0490132384 -0.131820068 0.148119211
v -0.107021078 -0.216799542 0.172894821
v -0.0490132384 -0.163207278 0.195093453
v 0.049013041 -0.131820068 0.148119211
v 0.10702087 -0.172837824 0.107101448
v 0.049013041 -0.163207278 0.195093453
v 0.10702087 -0.216799542 0.172894821
v -0.107021034 0.500000298 -0.049013041
v -0.107021034 -0.0307463929 -0.0490132906
v -0.0490131862 -0.0307463929 -0.107021138
v -0.0490131862 0.500000298 -0.107020833
v 0.0490130857 0.500000358 -0.107020833
v 0.0490130857 -0.0307463687 -0.107021131
v 0.107020929 -0.030746378 -0.0490132906
v 0.107020929 0.500000298 -0.0490129478
v -0.107021034 -0.030746391 0.0490130447
v -0.107021034 0.500000358 0.0490132906
v -0.0490131862 0.500000358 0.107021131
v -0.0490131862 -0.030746391 0.107020892
v 0.0490130857 -0.0307464097 0.107020892
v 0.0490130857 0.500000358 0.107021131
v 0.107020929 0.500000417 0.0490132906
v 0.107020929 -0.030746378 0.0490130447
v -0.0801071599 0.500000417 0.0366873369
v -0.0801071599 0.500000417 -0.0366871059
v -0.0802657902 -0.0307464823 -0.036759939
v -0.0802657902 -0.0307464208 0.0367597938
v 0.0801070184 0.500000417 -0.03668705
v 0.0801070184 0.500000417 0.0366873369
v 0.080265671 -0.0307464339 0.0367597938
v 0.080265671 -0.030746473 -0.0367598906
v 0.0366871506 0.500000417 0.0801072195
v -0.0367599055 -0.0307464432 0.0802656338
v 0.0367598236 -0.0307464432 0.0802656338
v -0.0366872512 0.500000417 0.0801072195
v -0.0802657902 -0.0307464208 0.0367597938
v -0.0801071599 0.500000417 0.0366873369
v -0.0801071599 0.500000417 -0.0366871059
v -0.0367599055 -0.0307464823 -0.0802657381
v -0.0802657902 -0.0307464823 -0.036759939
v -0.0366872512 0.500000417 -0.0801069215
v 0.0367598236 -0.0307464823 -0.0802657381
v 0.0366871506 0.500000417 -0.0801069215
v 0.080265671 -0.030746473 -0.0367598906
v 0.0801070184 0.500000417 -0.03668705
v 0.0801070184 0.500000417 0.0366873369
v 0.0366871506 0.500000417 0.0801072195
v 0.0367598236 -0.0307464432 0.0802656338
v 0.080265671 -0.0307464339 0.0367597938
v -0.0801072121 -0.317937106 0.499999911
v -0.0801072121 -0.244562775 0.499999851
v -0.0802658722 -0.244490072 0.250525862
v -0.0802658722 -0.318009764 0.250525892
v -0.0802658722 -0.228429466 0.168312415
v -0.0802658722 -0.296346396 0.140162081
v 0.0801070184 -0.244562775 0.499999851
v 0.0801070184 -0.317937106 0.499999911
v 0.0802656338 -0.318009764 0.250525892
v 0.0802656338 -0.244490072 0.250525862
v 0.0802656338 -0.296346396 0.140162081
v 0.0802656338 -0.228429466 0.168312415
v -0.0366872959 -0.361357033 0.499999911
v -0.0801072121 -0.317937106 0.499999911
v -0.0802658722 -0.318009764 0.250525892
v -0.0367599651 -0.361515641 0.250525892
v 0.0366871059 -0.361357033 0.499999911
v -0.0802658722 -0.296346396 0.140162081
v 0.0367597602 -0.361515641 0.250525892
v 0.0801070184 -0.317937106 0.499999911
v 0.0802656338 -0.318009764 0.250525892
v -0.0367599763 -0.336536795 0.123503894
v -0.0802658722 -0.233583212 0.0466413386
v 0.0367597602 -0.336536795 0.123503894
v 0.0802656338 -0.296346396 0.140162081
v -0.0367599763 -0.264493346 0.0160255712
v -0.0802658722 -0.141397268 -0.0147176599
v 0.0367597491 -0.264493346 0.0160255712
v 0.0802656338 -0.233583212 0.0466413386
v -0.0367599651 -0.158089221 -0.0548940077
v -0.0802657902 -0.0307464823 -0.036759939
v -0.0367599055 -0.0307464823 -0.0802657381
v 0.0367597602 -0.158089221 -0.0548940077
v 0.0802656338 -0.141397297 -0.0147176599
v 0.0367598236 -0.0307464823 -0.0802657381
v 0.080265671 -0.030746473 -0.0367598906
v 0.0366870984 -0.201142862 0.499999851
v 0.0801070184 -0.244562775 0.499999851
v 0.0802656338 -0.244490072 0.250525862
v 0.0367597602 -0.20098418 0.250525862
v 0.0802656338 -0.228429466 0.168312415
v -0.0366872959 -0.201142862 0.499999851
v 0.0367597602 -0.188239112 0.184970617
v -0.0367599651 -0.20098418 0.250525862
v -0.0801072121 -0.244562775 0.499999851
v -0.0367599651 -0.188239112 0.184970617
v -0.0802658722 -0.244490072 0.250525862
v -0.0802658722 -0.228429466 0.168312415
v -0.0802658722 -0.296346396 0.140162081
v -0.0802658722 -0.228429466 0.168312415
v -0.0802658722 -0.18134889 0.0983783305
v -0.0802658722 -0.233583212 0.0466413386
v -0.0802658722 -0.113189913 0.0531755351
v -0.0802658722 -0.141397268 -0.0147176599
v -0.0802657902 -0.0307464208 0.0367597938
v -0.0802657902 -0.0307464823 -0.036759939
v 0.0802656338 -0.228429466 0.168312415
v 0.0802656338 -0.296346396 0.140162081
v 0.0802656338 -0.233583212 0.0466413386
v 0.0802656338 -0.18134889 0.0983783305
v 0.0802656338 -0.141397297 -0.0147176599
v 0.0802656338 -0.113189921 0.0531755276
v 0.080265671 -0.030746473 -0.0367598906
v 0.080265671 -0.0307464339 0.0367597938
v 0.0367597602 -0.188239112 0.184970617
v 0.0802656338 -0.228429466 0.168312415
v 0.0802656338 -0.18134889 0.0983783305
v 0.0367597602 -0.1504388 0.128994167
v -0.0367599651 -0.188239112 0.184970617
v 0.0802656338 -0.113189921 0.0531755276
v -0.0367599651 -0.1504388 0.128994167
v -0.0802658722 -0.228429466 0.168312415
v -0.0802658722 -0.18134889 0.0983783305
v 0.0367597602 -0.0964979753 0.093351908
v 0.080265671 -0.0307464339 0.0367597938
v 0.0367598236 -0.0307464432 0.0802656338
v -0.0367599651 -0.0964979902 0.093351908
v -0.0802658722 -0.113189913 0.0531755351
v -0.0367599055 -0.0307464432 0.0802656338
v -0.0802657902 -0.0307464208 0.0367597938
v -0.122823447 0.0138239972 -0.0562503189
v -0.122823447 0.0138239972 0.0562502705
v -0.122823447 -0.0156502668 0.0562501512
v -0.122823447 -0.0156502668 -0.0562504418
v 0.12282335 0.0138239861 -0.0562502481
v 0.122823328 -0.0156502575 0.0562501512
v 0.12282335 0.0138239861 0.0562502705
v 0.122823328 -0.0156502575 -0.0562504418
v 0.056250222 0.0138239972 -0.122823372
v 0.0562502369 -0.0156502668 -0.122823559
v -0.0562503077 -0.0156502668 -0.122823559
v 0.0562502369 -0.0156502668 -0.122823559
v 0.056250222 0.0138239972 -0.122823372
v -0.0562503077 0.0138239972 -0.122823372
v -0.122823447 0.0138239972 -0.0562503189
v -0.122823447 -0.0156502668 -0.0562504418
v -0.122823447 -0.0156502668 0.0562501512
v -0.122823447 0.0138239972 0.0562502705
v -0.0562503077 0.013824 0.122823372
v -0.0562503077 -0.0156502668 0.122823276
v 0.0562502369 -0.0156502668 0.122823276
v 0.056250222 0.013824 0.122823372
v 0.12282335 0.0138239861 0.0562502705
v 0.122823328 -0.0156502575 0.0562501512
v -0.122823447 -0.224999696 0.296097159
v -0.122823447 -0.337500215 0.265370935
v -0.122823447 -0.224999696 0.265370905
v -0.122823447 -0.337500215 0.29609713
v -0.0562503561 -0.404073298 0.296097189
v -0.0562503561 -0.404073298 0.265370935
v 0.0562501736 -0.404073298 0.265370935
v 0.056250222 -0.404073298 0.296097189
v 0.122823328 -0.224999696 0.296097159
v 0.122823291 -0.224999696 0.265370905
v 0.122823291 -0.337500215 0.265370935
v 0.122823328 -0.337500215 0.29609713
v -0.122823447 -0.224999696 0.296097159
v -0.122823447 -0.224999696 0.265370905
v -0.0562503561 -0.158426613 0.265370905
v -0.0562503561 -0.158426613 0.296097159
v 0.0562501997 -0.158426613 0.296097159
v 0.0562501997 -0.158426613 0.265370905
v 0.122823291 -0.224999696 0.265370905
v 0.122823328 -0.224999696 0.296097159
v 0.122823328 -0.337500215 0.29609713
v 0.122823291 -0.337500215 0.265370935
v 0.0562501736 -0.404073298 0.265370935
v 0.056250222 -0.404073298 0.296097189
v -0.107021034 -0.0307463929 -0.0490132906
v -0.122823447 -0.0156502668 -0.0562504418
v -0.122823447 -0.0156502668 0.0562501512
v -0.107021034 -0.030746391 0.0490130447
v -0.0562503077 -0.0156502668 0.122823276
v -0.0490131862 -0.030746391 0.107020892
v 0.0562502369 -0.0156502668 0.122823276
v 0.0490130857 -0.0307464097 0.107020892
v 0.122823328 -0.0156502575 0.0562501512
v 0.107020929 -0.030746378 0.0490130447
v 0.122823328 -0.0156502575 -0.0562504418
v 0.107020929 -0.030746378 -0.0490132906
v 0.0562502369 -0.0156502668 -0.122823559
v 0.0490130857 -0.0307463687 -0.107021131
v -0.0562503077 -0.0156502668 -0.122823559
v -0.0490131862 -0.0307463929 -0.107021138
v -0.122823447 -0.0156502668 -0.0562504418
v -0.107021034 -0.0307463929 -0.0490132906
v -0.107021034 0.0289201681 0.0490131639
v -0.122823447 0.0138239972 -0.0562503189
v -0.107021034 0.0289201681 -0.0490131639
v -0.122823447 0.0138239972 0.0562502705
v -0.0490131862 0.0289201681 0.107020989
v -0.0562503077 0.013824 0.122823372
v 0.0490130857 0.0289201923 0.107020989
v 0.056250222 0.013824 0.122823372
v 0.107020929 0.0289201923 0.0490131639
v 0.12282335 0.0138239861 0.0562502705
v 0.107020929 0.0289201941 -0.0490130708
v 0.12282335 0.0138239861 -0.0562502481
v 0.0490130857 0.0289201941 -0.107020929
v 0.056250222 0.0138239972 -0.122823372
v -0.0490131862 0.0289201681 -0.107020929
v -0.0562503077 0.0138239972 -0.122823372
v -0.107021034 0.0289201681 -0.0490131639
v -0.122823447 0.0138239972 -0.0562503189
v -0.0490132384 -0.388270855 0.250503451
v 0.0562501736 -0.404073298 0.265370935
v 0.049013041 -0.388270855 0.250503451
v -0.0562503561 -0.404073298 0.265370935
v -0.107021078 -0.330263019 0.250503451
v -0.122823447 -0.337500215 0.265370935
v -0.107021078 -0.232236832 0.250503451
v -0.122823447 -0.224999696 0.265370905
v -0.0490132384 -0.174228981 0.250503451
v -0.0562503561 -0.158426613 0.265370905
v 0.049013041 -0.174228981 0.250503451
v 0.0562501997 -0.158426613 0.265370905
v 0.10702087 -0.232236832 0.250503451
v 0.122823291 -0.224999696 0.265370905
v 0.10702087 -0.330263019 0.250503451
v 0.122823291 -0.337500215 0.265370935
v 0.049013041 -0.388270855 0.250503451
v 0.0562501736 -0.404073298 0.265370935
v 0.107020929 -0.330263019 0.310964763
v 0.056250222 -0.404073298 0.296097189
v 0.0490130857 -0.388270855 0.310964763
v 0.122823328 -0.337500215 0.29609713
v 0.107020929 -0.232236832 0.310964763
v 0.122823328 -0.224999696 0.296097159
v 0.0490130857 -0.174228981 0.310964763
v 0.0562501997 -0.158426613 0.296097159
v -0.0490132384 -0.174228981 0.310964763
v -0.0562503561 -0.158426613 0.296097159
v -0.107021078 -0.232236832 0.310964763
v -0.122823447 -0.224999696 0.296097159
v -0.107021078 -0.330263019 0.310964763
v -0.122823447 -0.337500215 0.29609713
v -0.0490132384 -0.388270855 0.310964763
v -0.0562503561 -0.404073298 0.296097189
v 0.0490130857 -0.388270855 0.310964763
v 0.056250222 -0.404073298 0.296097189
v 0.0490130857 0.500000358 -0.107020833
v -0.0366872512 0.500000417 -0.0801069215
v -0.0490131862 0.500000298 -0.107020833
v 0.0366871506 0.500000417 -0.0801069215
v -0.0801071599 0.500000417 -0.0366871059
v 0.107020929 0.500000298 -0.0490129478
v -0.107021034 0.500000298 -0.049013041
v 0.0801070184 0.500000417 -0.03668705
v -0.0801071599 0.500000417 0.0366873369
v 0.107020929 0.500000417 0.0490132906
v -0.107021034 0.500000358 0.0490132906
v 0.0801070184 0.500000417 0.0366873369
v -0.0366872512 0.500000417 0.0801072195
v 0.0490130857 0.500000358 0.107021131
v -0.0490131862 0.500000358 0.107021131
v 0.0366871506 0.500000417 0.0801072195
v 0.0490130857 -0.174228981 0.499999911
v -0.0366872959 -0.201142862 0.499999851
v -0.0490132384 -0.174228981 0.499999911
v 0.0366870984 -0.201142862 0.499999851
v -0.0801072121 -0.244562775 0.499999851
v 0.107020929 -0.232236832 0.499999911
v -0.107021078 -0.232236832 0.499999911
v 0.0801070184 -0.244562775 0.499999851
v -0.0801072121 -0.317937106 0.499999911
v 0.107020929 -0.330263019 0.499999911
v -0.107021078 -0.330263019 0.499999911
v 0.0801070184 -0.317937106 0.499999911
v -0.0366872959 -0.361357033 0.499999911
v 0.0490130857 -0.388270855 0.499999911
v -0.0490132384 -0.388270855 0.499999911
v 0.0366871059 -0.361357033 0.499999911
vt 0.497036636 0.647281408
vt 0.512294292 0.647710383
vt 0.513166606 0.614710093
vt 0.497791171 0.614166379
vt 0.496507287 0.604181588
vt 0.510783255 0.598960578
vt 0.456412673 0.647004068
vt 0.440730065 0.614215016
vt 0.441150159 0.647224188
vt 0.456111401 0.613881946
vt 0.443328917 0.598499477
vt 0.457532018 0.603915453
vt 0.447127134 0.587990284
vt 0.456411123 0.570130706
vt 0.459669441 0.579659641
vt 0.441294581 0.573322952
vt 0.456064731 0.560217321
vt 0.440776169 0.557962954
vt 0.458722383 0.550503314
vt 0.445690036 0.542964935
vt 0.495921075 0.578452528
vt 0.51383394 0.570908368
vt 0.508989096 0.585930943
vt 0.498538792 0.568727791
vt 0.513330162 0.555547893
vt 0.498225093 0.558813274
vt 0.507430136 0.540909827
vt 0.494927496 0.54929769
vt 0.530499279 0.4696576
vt 0.515194654 0.469587654
vt 0.514870703 0.540022612
vt 0.530175686 0.540092528
vt 0.458974153 0.469327301
vt 0.458640337 0.53976202
vt 0.473946124 0.539834619
vt 0.474277437 0.469399959
vt 0.456584424 0.613237858
vt 0.456157923 0.647052944
vt 0.469241828 0.647408187
vt 0.4693712 0.614525795
vt 0.456857979 0.595598459
vt 0.484769613 0.614483714
vt 0.485061109 0.647367418
vt 0.498142362 0.646946251
vt 0.497548938 0.613133073
vt 0.469479799 0.595830262
vt 0.456819803 0.577493906
vt 0.48457697 0.59578377
vt 0.497197092 0.595481575
vt 0.469425678 0.577396154
vt 0.456810534 0.559843481
vt 0.484515697 0.577342868
vt 0.497121334 0.577351689
vt 0.469402045 0.559063196
vt 0.455502301 0.543060124
vt 0.468573153 0.539912581
vt 0.484395683 0.559004366
vt 0.496994674 0.559674084
vt 0.485035628 0.539844096
vt 0.498131335 0.542863846
vt 0.456111401 0.613881946
vt 0.456412673 0.647004068
vt 0.469127923 0.646897674
vt 0.469151616 0.613772452
vt 0.457532018 0.603915453
vt 0.469565541 0.607255161
vt 0.484753668 0.613878846
vt 0.484323829 0.647001684
vt 0.497036636 0.647281408
vt 0.484429061 0.607356608
vt 0.497791171 0.614166379
vt 0.496507287 0.604181588
vt 0.484756678 0.573886275
vt 0.498538792 0.568727791
vt 0.495921075 0.578452528
vt 0.48534894 0.567413449
vt 0.470505923 0.574361324
vt 0.498225093 0.558813274
vt 0.469484359 0.567941964
vt 0.459669441 0.579659641
vt 0.456411123 0.570130706
vt 0.485146314 0.561049581
vt 0.494927496 0.54929769
vt 0.484113157 0.554632902
vt 0.469263226 0.561578691
vt 0.456064731 0.560217321
vt 0.469867319 0.555107594
vt 0.458722383 0.550503314
vt 0.418054938 0.46912995
vt 0.417718291 0.53956461
vt 0.430526495 0.5396263
vt 0.430863023 0.469191402
vt 0.446167082 0.469265342
vt 0.445831209 0.539700329
vt 0.458640337 0.53976202
vt 0.458974153 0.469327301
vt 0.514870703 0.540022612
vt 0.515194654 0.469587654
vt 0.502387345 0.469529629
vt 0.502061963 0.539964318
vt 0.486755908 0.539894283
vt 0.487083822 0.469459593
vt 0.474277437 0.469399959
vt 0.473946124 0.539834619
vt 0.458212286 0.711025655
vt 0.471615851 0.711026311
vt 0.471629024 0.793404639
vt 0.458209574 0.793404162
vt 0.408948004 0.711013734
vt 0.422352135 0.711016774
vt 0.42235142 0.793395281
vt 0.408932567 0.793392122
vt 0.433578104 0.711020648
vt 0.44698596 0.793402314
vt 0.433573186 0.793399155
vt 0.446988404 0.711023867
vt 0.458209574 0.793404162
vt 0.458212286 0.711025655
vt 0.373126417 0.71098578
vt 0.384270668 0.79337579
vt 0.37303555 0.793364406
vt 0.384338975 0.710997164
vt 0.397696257 0.793386102
vt 0.397736788 0.711007357
vt 0.408932567 0.793392122
vt 0.408948004 0.711013734
vt 0.422352135 0.711016774
vt 0.433578104 0.711020648
vt 0.433573186 0.793399155
vt 0.42235142 0.793395281
vt 0.449611574 0.792823315
vt 0.436277986 0.792268991
vt 0.437554359 0.753551066
vt 0.451054543 0.754279971
vt 0.436312795 0.740991294
vt 0.448913783 0.736712277
vt 0.400922894 0.791750789
vt 0.387578905 0.791914046
vt 0.38726601 0.753344953
vt 0.400781661 0.75301218
vt 0.389920294 0.735847652
vt 0.402390659 0.740494072
vt 0.412881792 0.791145921
vt 0.401505709 0.79073
vt 0.402397692 0.751429677
vt 0.413588881 0.752662003
vt 0.426606089 0.791358948
vt 0.402982414 0.732091069
vt 0.427090794 0.752870619
vt 0.437989354 0.791296184
vt 0.43831411 0.751989543
vt 0.414036423 0.732440174
vt 0.403265983 0.712275922
vt 0.427285343 0.732643068
vt 0.438345313 0.732637167
vt 0.414325625 0.712461293
vt 0.403658062 0.692918658
vt 0.427601129 0.712662876
vt 0.438661218 0.712811649
vt 0.414690673 0.692611873
vt 0.40293178 0.674252689
vt 0.414418042 0.671972334
vt 0.427828908 0.69280982
vt 0.438847542 0.693446994
vt 0.428717703 0.672186732
vt 0.440130532 0.674809873
vt 0.411993921 0.791667104
vt 0.400922894 0.791750789
vt 0.400781661 0.75301218
vt 0.412286371 0.75289011
vt 0.402390659 0.740494072
vt 0.425214112 0.791860938
vt 0.412864655 0.743353844
vt 0.426058173 0.753091931
vt 0.436277986 0.792268991
vt 0.425759643 0.74354291
vt 0.437554359 0.753551066
vt 0.436312795 0.740991294
vt 0.446671665 0.783729315
vt 0.435237586 0.777258635
vt 0.438316882 0.764935791
vt 0.451778531 0.767000854
vt 0.438070774 0.752563357
vt 0.451466054 0.750123143
vt 0.434542656 0.740406573
vt 0.445752025 0.733549953
vt 0.404383838 0.777860582
vt 0.3932105 0.784772098
vt 0.387455523 0.768255115
vt 0.400826395 0.765666962
vt 0.387109727 0.751378
vt 0.400590092 0.753294468
vt 0.392173171 0.73459506
vt 0.403641522 0.741009057
vt 0.413714856 0.773556828
vt 0.404383838 0.777860582
vt 0.400826395 0.765666962
vt 0.412482798 0.763927281
vt 0.425745755 0.773321986
vt 0.400590092 0.753294468
vt 0.42660141 0.763651907
vt 0.435237586 0.777258635
vt 0.438316882 0.764935791
vt 0.412305444 0.754488051
vt 0.403641522 0.741009057
vt 0.413152665 0.744910419
vt 0.426410705 0.754212916
vt 0.438070774 0.752563357
vt 0.425190836 0.744675696
vt 0.434542656 0.740406573
vt 0.437051088 0.863536656
vt 0.419694841 0.863536656
vt 0.419694602 0.86783731
vt 0.437050968 0.86783731
vt 0.357668638 0.863536656
vt 0.374599755 0.86783731
vt 0.37460053 0.863536656
vt 0.357668161 0.86783731
vt 0.343610704 0.863536656
vt 0.343610168 0.86783731
vt 0.326613367 0.86783731
vt 0.343610168 0.86783731
vt 0.343610704 0.863536656
vt 0.326614141 0.863536656
vt 0.312140673 0.863536656
vt 0.31213963 0.86783731
vt 0.419694602 0.86783731
vt 0.419694841 0.863536656
vt 0.405588895 0.863536656
vt 0.405588359 0.86783731
vt 0.388647646 0.86783731
vt 0.38864854 0.863536656
vt 0.37460053 0.863536656
vt 0.374599755 0.86783731
vt 0.385420114 0.86783731
vt 0.403387129 0.863536656
vt 0.385420114 0.863536656
vt 0.403387129 0.86783731
vt 0.418252796 0.86783731
vt 0.418252796 0.863536656
vt 0.436194688 0.863536656
vt 0.436194688 0.86783731
vt 0.337671638 0.86783731
vt 0.337671638 0.863536656
vt 0.319704473 0.863536656
vt 0.319704473 0.86783731
vt 0.385420114 0.86783731
vt 0.385420114 0.863536656
vt 0.370529294 0.863536656
vt 0.370529294 0.86783731
vt 0.352562338 0.86783731
vt 0.352562338 0.863536656
vt 0.337671638 0.863536656
vt 0.337671638 0.86783731
vt 0.319704473 0.86783731
vt 0.319704473 0.863536656
vt 0.304813921 0.863536656
vt 0.304813921 0.86783731
vt 0.435689151 0.870734692
vt 0.437050968 0.86783731
vt 0.419694602 0.86783731
vt 0.419672519 0.870734692
vt 0.405588359 0.86783731
vt 0.405491799 0.870734692
vt 0.388647646 0.86783731
vt 0.388739765 0.870734692
vt 0.374599755 0.86783731
vt 0.374506146 0.870734692
vt 0.357668161 0.86783731
vt 0.357758492 0.870734692
vt 0.343610168 0.86783731
vt 0.343524188 0.870734692
vt 0.326613367 0.86783731
vt 0.32684195 0.870734692
vt 0.31213963 0.86783731
vt 0.313347816 0.870734692
vt 0.419673175 0.860516429
vt 0.437051088 0.863536656
vt 0.435689569 0.860516131
vt 0.419694841 0.863536656
vt 0.405492812 0.860516429
vt 0.405588895 0.863536656
vt 0.388742179 0.860516131
vt 0.38864854 0.863536656
vt 0.374508649 0.860516131
vt 0.37460053 0.863536656
vt 0.357759744 0.860516131
vt 0.357668638 0.863536656
vt 0.343525201 0.860516429
vt 0.343610704 0.863536656
vt 0.326843828 0.860516429
vt 0.326614141 0.863536656
vt 0.313350946 0.860516131
vt 0.312140673 0.863536656
vt 0.418252796 0.860516429
vt 0.436194688 0.863536656
vt 0.436194688 0.860516429
vt 0.418252796 0.863536656
vt 0.403387129 0.860516429
vt 0.403387129 0.863536656
vt 0.385420114 0.860516429
vt 0.385420114 0.863536656
vt 0.370529294 0.860516429
vt 0.370529294 0.863536656
vt 0.352562338 0.860516429
vt 0.352562338 0.863536656
vt 0.337671638 0.860516429
vt 0.337671638 0.863536656
vt 0.319704473 0.860516429
vt 0.319704473 0.863536656
vt 0.304813921 0.860516429
vt 0.304813921 0.863536656
vt 0.319704473 0.870734692
vt 0.304813921 0.86783731
vt 0.304813921 0.870734692
vt 0.319704473 0.86783731
vt 0.337671638 0.870734692
vt 0.337671638 0.86783731
vt 0.352562338 0.870734692
vt 0.352562338 0.86783731
vt 0.370529294 0.870734692
vt 0.370529294 0.86783731
vt 0.385420114 0.870734692
vt 0.385420114 0.86783731
vt 0.403387129 0.870734692
vt 0.403387129 0.86783731
vt 0.418252796 0.870734692
vt 0.418252796 0.86783731
vt 0.436194688 0.870734692
vt 0.436194688 0.86783731
vt 0.38405329 0.537063956
vt 0.403261989 0.543049812
vt 0.406051993 0.537063956
vt 0.386797488 0.543049812
vt 0.413087606 0.552734494
vt 0.370973498 0.549985707
vt 0.41914618 0.550013304
vt 0.376975656 0.552653372
vt 0.413033813 0.569114268
vt 0.37096706 0.57188797
vt 0.419106424 0.571876943
vt 0.377029657 0.569117963
vt 0.403248549 0.578880787
vt 0.384009123 0.584908068
vt 0.406007677 0.584927022
vt 0.386770427 0.578885674
vt 0.38405329 0.537063956
vt 0.403261989 0.543049812
vt 0.406051993 0.537063956
vt 0.386797488 0.543049812
vt 0.413087606 0.552734494
vt 0.370973498 0.549985707
vt 0.41914618 0.550013304
vt 0.376975656 0.552653372
vt 0.413019925 0.56911844
vt 0.370966941 0.57188797
vt 0.419106305 0.571876943
vt 0.377029538 0.569117963
vt 0.403248549 0.578880787
vt 0.384009123 0.584908068
vt 0.406007677 0.584927022
vt 0.386770427 0.578885674
vn -1 0 0
vn -1 0 0
vn -1 0 0
vn -1 0 0
vn -1 0 0
vn -1 0 0
vn 1 0 -1.94177744E-07
vn 1 0 -1.03561455E-07
vn 1 0 -1.94177744E-07
vn 1 0 0
vn 1 0 0
vn 1 0 0
vn 1 0 0
vn 1 -2.08577944E-07 1.39367316E-07
vn 1 0 0
vn 1 -2.09092264E-07 1.39710991E-07
vn 1 -2.09130903E-07 1.39736827E-07
vn 1 -2.08616669E-07 1.39393208E-07
vn 1 0 0
vn 1 0 0
vn -1 0 0
vn -1 2.09092264E-07 -1.39710963E-07
vn -1 0 0
vn -1 2.08577944E-07 -1.39367316E-07
vn -1 2.08616669E-07 -1.39393208E-07
vn -1 2.09130889E-07 -1.39736798E-07
vn -1 0 0
vn -1 0 0
vn -1 0 0
vn -1 0 0
vn -1 0 0
vn -1 0 0
vn 1 0 0
vn 1 0 0
vn 1 0 0
vn 1 0 0
vn -0.705232739 -0.705232799 -0.0727560073
vn -0.707106769 -0.707106769 0
vn -0.382683367 -0.923879504 0
vn -0.373505205 -0.923309684 -0.0894049704
vn -0.70710659 -0.653281748 -0.270597875
vn 0.373505235 -0.923309684 -0.0894050077
vn 0.382683426 -0.923879504 0
vn 0.707106829 -0.707106769 -1.24001005E-07
vn 0.705232799 -0.705232799 -0.0727560595
vn -0.366829753 -0.859474182 -0.356005549
vn -0.707206607 -0.499151826 -0.500705838
vn 0.366829932 -0.859474182 -0.356005549
vn 0.707106769 -0.65328151 -0.270597816
vn -0.366792291 -0.656965017 -0.658680856
vn -0.707006156 -0.269622445 -0.653793573
vn 0.366792262 -0.656965077 -0.658680856
vn 0.707206666 -0.499151975 -0.500705659
vn -0.366867214 -0.354878664 -0.859924197
vn -0.705232739 -0.0727563947 -0.705232739
vn -0.373505086 -0.0894052982 -0.923309684
vn 0.366867244 -0.354878753 -0.859924138
vn 0.707006216 -0.269622624 -0.653793514
vn 0.373505265 -0.0894052684 -0.923309565
vn 0.705232918 -0.07275635 -0.70523262
vn 0.70553726 0.705537021 0.0665934905
vn 0.707106769 0.707106769 -1.24001048E-07
vn 0.382683516 0.923879504 0
vn 0.390120327 0.916150451 0.092056483
vn 0.707106888 0.653281331 0.270597905
vn 0.400588602 0.846512079 0.350636631
vn -0.390120238 0.916150451 0.0920565054
vn -0.382683367 0.923879504 0
vn -0.707106769 0.707106829 0
vn -0.400588542 0.846512079 0.350636691
vn -0.70553714 0.70553714 0.0665935725
vn -0.707106769 0.65328151 0.270597905
vn -0.390120387 0.0920568556 0.916150451
vn -0.706912816 0.269027919 0.654139221
vn -0.70553714 0.0665937439 0.70553714
vn -0.400126785 0.348023653 0.847807825
vn 0.390120387 0.0920568854 0.916150451
vn -0.70729816 0.498608381 0.501117587
vn 0.400127023 0.348023355 0.847807825
vn 0.70553714 0.0665937215 0.70553714
vn 0.706912756 0.269027412 0.654139519
vn -0.401049405 0.645687163 0.649805725
vn -0.707106769 0.65328151 0.270597905
vn -0.400588542 0.846512079 0.350636691
vn 0.401049316 0.645686865 0.649806023
vn 0.707298279 0.498607934 0.501118004
vn 0.400588602 0.846512079 0.350636631
vn 0.707106888 0.653281331 0.270597905
vn -0.70710659 3.53279546E-07 -0.707106888
vn -0.705232739 -0.0727563947 -0.705232739
vn -0.373505086 -0.0894052982 -0.923309684
vn -0.382683367 4.8759631E-07 -0.923879504
vn 0.382683605 5.22489074E-07 -0.923879445
vn 0.373505265 -0.0894052684 -0.923309565
vn 0.705232918 -0.07275635 -0.70523262
vn 0.707107008 4.17752943E-07 -0.707106531
vn -0.70553714 0.0665937439 0.70553714
vn -0.707106769 -3.23250703E-07 0.707106769
vn -0.382683367 -4.21944407E-07 0.923879504
vn -0.390120387 0.0920568556 0.916150451
vn 0.390120387 0.0920568854 0.916150451
vn 0.382683456 -4.22900399E-07 0.923879504
vn 0.707106829 -3.25017112E-07 0.707106769
vn 0.70553714 0.0665937215 0.70553714
vn 1 -0.000298874045 0
vn 1 -0.000298874045 0
vn 1 -0.000159802294 0
vn 1 -0.000141079174 0
vn -1 -0.000298942497 0
vn -1 -0.000298942439 0
vn -1 -0.000140472519 0
vn -1 -0.000159275762 0
vn -0 -0.000298486033 -1
vn 0.390109152 -0.0922831371 -0.91613245
vn -0.390109509 -0.092282787 -0.916132331
vn 0.382680476 -0.000328151364 -0.923880756
vn 0.705514014 -0.0668102279 -0.705539882
vn 0.707106411 -0.000307858776 -0.707107008
vn 0.707106054 -0.000308374671 0.707107425
vn 0.37349087 0.0893805549 0.923317671
vn 0.705224872 0.0727293193 0.705243349
vn 0.382680207 -0.00032882567 0.923880756
vn -0.373491377 0.089380689 0.923317611
vn -0.382680804 -0.000328846421 0.923880517
vn -0.705225587 0.072729528 0.705242693
vn -0.707106769 -0.000308412855 0.707106709
vn -0.707106769 -0.000307897775 -0.707106709
vn -0.707106709 -0.000307897746 -0.707106709
vn -0.390109509 -0.092282787 -0.916132331
vn -0.705514312 -0.0668096915 -0.705539584
vn 0.999999881 0 -0.000635989301
vn 0.999999881 0 -0.000635989185
vn 1 0 -0.000299567182
vn 1 0 -0.000338874641
vn 1 0 0
vn 1 0 0
vn -0.999999881 0 -0.000635843608
vn -0.999999881 0 -0.000635843608
vn -1 0 -0.000338797021
vn -1 0 -0.000299498526
vn -1 0 0
vn -1 0 0
vn 0.382677346 0.923881769 -0.000698871154
vn 0.707106292 0.707106888 -0.000655551092
vn 0.705204844 0.705383658 0.07155402
vn 0.37357685 0.923410058 0.0880570412
vn -0.382677466 0.923881769 -0.000698829244
vn 0.707331955 0.653173149 0.270270824
vn -0.373576939 0.923410058 0.088057071
vn -0.707106471 0.707106769 -0.000655473559
vn -0.705204904 0.705383658 0.0715540498
vn 0.366830856 0.859588206 0.355729073
vn 0.707114935 0.49890551 0.501080453
vn -0.366831005 0.859588206 0.355729073
vn -0.707332015 0.653173149 0.270270795
vn 0.366847485 0.6570158 0.658599377
vn 0.706959069 0.270191818 0.653609455
vn -0.366847515 0.6570158 0.658599317
vn -0.707114995 0.49890554 0.501080394
vn 0.366794586 0.355651766 0.859635711
vn 0.705224872 0.0727293193 0.705243349
vn 0.37349087 0.0893805549 0.923317671
vn -0.366794705 0.355651885 0.859635592
vn -0.706959248 0.270192057 0.653609097
vn -0.373491377 0.089380689 0.923317611
vn -0.705225587 0.072729528 0.705242693
vn -0.382677555 -0.92388165 -0.000699122553
vn -0.70710659 -0.70710659 -0.000655724085
vn -0.705447018 -0.705709994 -0.0657115132
vn -0.389868051 -0.916416764 -0.0904602557
vn -0.70746702 -0.652911663 -0.27054891
vn 0.382677555 -0.923881769 -0.000699157827
vn -0.401293129 -0.846152365 -0.350699425
vn 0.389867932 -0.916416883 -0.090460293
vn 0.707106471 -0.707106709 -0.000655789161
vn 0.40129301 -0.846152365 -0.350699395
vn 0.705446899 -0.705710053 -0.0657115728
vn 0.707466781 -0.652911901 -0.270548999
vn 1 0 0
vn 1 0 0
vn 1 0 0
vn 1 0 0
vn 1 -4.22937404E-07 0
vn 1 -4.2173312E-07 0
vn 1 -0.000141079174 0
vn 1 -0.000159802294 0
vn -1 0 0
vn -1 0 0
vn -1 0 0
vn -1 0 0
vn -1 1.80742774E-07 0
vn -1 1.81258898E-07 0
vn -1 -0.000159275762 0
vn -1 -0.000140472519 0
vn -0.401293129 -0.846152365 -0.350699425
vn -0.70746702 -0.652911663 -0.27054891
vn -0.707124293 -0.498288065 -0.501681447
vn -0.400612414 -0.644631267 -0.651122332
vn 0.40129301 -0.846152365 -0.350699395
vn -0.70686543 -0.26954776 -0.65397644
vn 0.400612295 -0.644631326 -0.651122332
vn 0.707466781 -0.652911901 -0.270548999
vn 0.707124114 -0.498288155 -0.501681507
vn -0.400161982 -0.348657787 -0.847530603
vn -0.705514312 -0.0668096915 -0.705539584
vn -0.390109509 -0.092282787 -0.916132331
vn 0.400161982 -0.348658085 -0.847530425
vn 0.706865191 -0.269548327 -0.65397656
vn 0.390109152 -0.0922831371 -0.91613245
vn 0.705514014 -0.0668102279 -0.705539882
vn -1 0 0
vn -1 0 0
vn -1 0 0
vn -1 0 0
vn 0.9238801 1.98512043E-06 -0.382682055
vn 1 -8.2184755E-07 0
vn 1 -8.2184755E-07 0
vn 0.923878908 1.98514181E-06 -0.382684886
vn 0.707106769 4.48989113E-06 -0.707106769
vn 0.707106769 4.48989113E-06 -0.707106769
vn -0.382682651 5.59816908E-06 -0.923879802
vn -0 6.57477358E-06 -1
vn -0 6.57477494E-06 -1
vn -0.382683784 5.59816453E-06 -0.923879445
vn -0.707106411 3.76929006E-06 -0.707107067
vn -0.707106352 3.76929006E-06 -0.707107127
vn -0.70710659 -2.63295942E-06 0.707106888
vn -0.70710659 -2.63295965E-06 0.707106948
vn -0.382683098 -3.20406889E-06 0.923879743
vn -0.382683605 -3.20406798E-06 0.923879445
vn 0.382683814 -3.27156636E-06 0.923879445
vn 0.382683098 -3.27156727E-06 0.923879743
vn 0.707106769 -2.75767979E-06 0.707106829
vn 0.707106769 -2.75768025E-06 0.707106769
vn -1 0 0
vn -0.923879445 -0.382683575 0
vn -1 0 0
vn -0.923879445 -0.382683575 0
vn -0.382683277 -0.923879623 0
vn -0.382683367 -0.923879504 0
vn 0.38268289 -0.923879743 -5.3236613E-07
vn 0.382683575 -0.923879445 -5.32366982E-07
vn 1 0 -1.18254013E-06
vn 1 0 -1.18254013E-06
vn 1 0 -1.18254013E-06
vn 1 0 -1.18254013E-06
vn -0.707106769 0.707106829 0
vn -0.707106769 0.707106829 0
vn -0.382683426 0.923879504 0
vn -0.382683426 0.923879504 0
vn 0.382683367 0.923879504 -2.23018489E-07
vn 0.382683367 0.923879504 -2.23018489E-07
vn 0.70710665 0.707106829 -4.12084546E-07
vn 0.70710659 0.707106888 -4.12084404E-07
vn 0.707106471 -0.707107008 -9.83685368E-07
vn 0.707106471 -0.707107008 -9.83685368E-07
vn 0.38268289 -0.923879743 -5.3236613E-07
vn 0.382683575 -0.923879445 -5.32366982E-07
vn -0.608502567 -0.754639745 -0.245445549
vn -0.604649723 -0.754824042 -0.25424251
vn -0.604650259 -0.754823685 0.25424245
vn -0.608502746 -0.754639447 0.245446116
vn -0.254242688 -0.754823208 0.604650795
vn -0.245445877 -0.754638851 0.608503461
vn 0.254242957 -0.754823208 0.604650557
vn 0.245445833 -0.754638851 0.608503461
vn 0.604650497 -0.754823565 0.25424239
vn 0.608502924 -0.754639268 0.245445967
vn 0.604649723 -0.754824162 -0.25424239
vn 0.608502567 -0.754639745 -0.245445266
vn 0.254242331 -0.7548244 -0.604649365
vn 0.24544546 -0.754640162 -0.60850209
vn -0.254242122 -0.754824281 -0.604649723
vn -0.245445624 -0.754640043 -0.60850215
vn -0.604649723 -0.754824042 -0.25424251
vn -0.608502567 -0.754639745 -0.245445549
vn -0.608503819 0.754638374 0.245446578
vn -0.604650795 0.754823029 -0.254243106
vn -0.608503461 0.754638731 -0.245446205
vn -0.604651332 0.754822671 0.254242957
vn -0.245446295 0.754637778 0.608504534
vn -0.254243076 0.754822135 0.604651928
vn 0.245446369 0.754637659 0.608504772
vn 0.254243344 0.754821956 0.604652107
vn 0.608504355 0.754637837 0.245446742
vn 0.604651928 0.754822195 0.254243046
vn 0.608504117 0.754638314 -0.245445937
vn 0.604651392 0.754822552 -0.254243076
vn 0.24544625 0.754638612 -0.608503699
vn 0.254242927 0.75482291 -0.604651093
vn -0.245446011 0.754638612 -0.608503699
vn -0.254242539 0.75482291 -0.604651153
vn -0.608503461 0.754638731 -0.245446205
vn -0.604650795 0.754823029 -0.254243106
vn -0.243257686 -0.603224039 -0.759569883
vn 0.25204286 -0.599373281 -0.759754002
vn 0.243257478 -0.603223801 -0.759570122
vn -0.252042949 -0.5993734 -0.759753764
vn -0.603224933 -0.243257254 -0.759569347
vn -0.599373758 -0.252043843 -0.759753227
vn -0.603225052 0.243257701 -0.759568989
vn -0.599374235 0.252043754 -0.75975287
vn -0.24325788 0.603224695 -0.759569287
vn -0.252043396 0.599374115 -0.759753168
vn 0.243257508 0.603224576 -0.759569585
vn 0.252043337 0.599373698 -0.759753466
vn 0.603224218 0.243257508 -0.759569824
vn 0.599373519 0.252043307 -0.759753644
vn 0.603224099 -0.24325712 -0.759570062
vn 0.599373102 -0.252043486 -0.759753883
vn 0.243257478 -0.603223801 -0.759570122
vn 0.25204286 -0.599373281 -0.759754002
vn 0.603227139 -0.243258208 0.75956732
vn 0.252044231 -0.599375963 0.759751379
vn 0.24325864 -0.603226602 0.759567559
vn 0.599376142 -0.252044588 0.759751201
vn 0.603227317 0.243258893 0.759566903
vn 0.599376619 0.252044708 0.759750724
vn 0.243258983 0.603227437 0.759566784
vn 0.25204432 0.599376798 0.759750605
vn -0.243259057 0.603227556 0.759566665
vn -0.252044588 0.599376976 0.759750485
vn -0.603227854 0.243258864 0.759566545
vn -0.599377036 0.252044916 0.759750307
vn -0.603227794 -0.243258312 0.759566724
vn -0.599376678 -0.252044916 0.759750605
vn -0.243258953 -0.603226662 0.75956744
vn -0.252044201 -0.599376261 0.759751201
vn 0.24325864 -0.603226602 0.759567559
vn 0.252044231 -0.599375963 0.759751379
vn 1.13624765E-06 1 -2.58107229E-06
vn -1.35548134E-06 1 -2.5868369E-06
vn -1.41007649E-06 1 -2.58107343E-06
vn 1.06753862E-06 1 -2.58683576E-06
vn -2.70009423E-06 1 -2.82651342E-07
vn 3.60012086E-06 1 -5.65303083E-07
vn -2.70009423E-06 1 -2.82651342E-07
vn 3.60012064E-06 1 -5.65303083E-07
vn -2.70009423E-06 1 -2.82651342E-07
vn 3.60012132E-06 1 -5.65303083E-07
vn -2.70009423E-06 1 -2.82651342E-07
vn 3.60012064E-06 1 -5.65303083E-07
vn -6.05754906E-07 1 1.52263931E-06
vn 3.90303626E-07 1 1.75479863E-06
vn -6.36580978E-07 1 1.50852156E-06
vn 3.71403473E-07 1 1.75699006E-06
vn -6.36581774E-07 -1.50852179E-06 1
vn 6.0575519E-07 -1.52264079E-06 1
vn 6.36581603E-07 -1.50852281E-06 1
vn -6.05754053E-07 -1.52264022E-06 1
vn 9.00031523E-07 2.8265174E-07 1
vn -9.00030329E-07 2.8265174E-07 1
vn 9.00031637E-07 2.8265174E-07 1
vn -9.00030329E-07 2.82651712E-07 1
vn 9.00031637E-07 2.82651712E-07 1
vn -9.00030329E-07 2.82651712E-07 1
vn 9.00031637E-07 2.8265174E-07 1
vn -9.00030329E-07 2.8265174E-07 1
vn 1.85702191E-07 1.33693959E-06 1
vn -1.95152552E-07 1.3133706E-06 1
vn 1.95152538E-07 1.31337083E-06 1
vn -1.85701921E-07 1.3369397E-06 1
g P_Bend_Vert_0
f 3/3/3 2/2/2 1/1/1
f 4/4/4 3/3/3 1/1/1
f 3/3/3 4/4/4 5/5/5
f 6/6/6 3/3/3 5/5/5
f 9/9/9 8/8/8 7/7/7
f 8/8/8 10/10/10 7/7/7
f 10/10/10 8/8/8 11/11/11
f 12/12/12 10/10/10 11/11/11
f 15/15/15 14/14/14 13/13/13
f 14/14/14 16/16/16 13/13/13
f 14/14/14 17/17/17 16/16/16
f 17/17/17 18/18/18 16/16/16
f 17/17/17 19/19/19 18/18/18
f 19/19/19 20/20/20 18/18/18
f 23/23/23 22/22/22 21/21/21
f 22/22/22 24/24/24 21/21/21
f 22/22/22 25/25/25 24/24/24
f 25/25/25 26/26/26 24/24/24
f 25/25/25 27/27/27 26/26/26
f 27/27/27 28/28/28 26/26/26
f 31/31/31 30/30/30 29/29/29
f 32/32/32 31/31/31 29/29/29
f 35/35/35 34/34/34 33/33/33
f 36/36/36 35/35/35 33/33/33
f 39/39/39 38/38/38 37/37/37
f 40/40/40 39/39/39 37/37/37
f 37/37/37 41/41/41 40/40/40
f 40/40/40 42/42/42 39/39/39
f 42/42/42 43/43/43 39/39/39
f 43/43/43 42/42/42 44/44/44
f 42/42/42 45/45/45 44/44/44
f 41/41/41 46/46/46 40/40/40
f 42/42/42 40/40/40 46/46/46
f 41/41/41 47/47/47 46/46/46
f 45/45/45 42/42/42 48/48/48
f 48/48/48 42/42/42 46/46/46
f 49/49/49 45/45/45 48/48/48
f 47/47/47 50/50/50 46/46/46
f 48/48/48 46/46/46 50/50/50
f 47/47/47 51/51/51 50/50/50
f 49/49/49 48/48/48 52/52/52
f 52/52/52 48/48/48 50/50/50
f 53/53/53 49/49/49 52/52/52
f 51/51/51 54/54/54 50/50/50
f 52/52/52 50/50/50 54/54/54
f 51/51/51 55/55/55 54/54/54
f 55/55/55 56/56/56 54/54/54
f 53/53/53 52/52/52 57/57/57
f 57/57/57 52/52/52 54/54/54
f 57/57/57 54/54/54 56/56/56
f 58/58/58 53/53/53 57/57/57
f 59/59/59 57/57/57 56/56/56
f 58/58/58 57/57/57 59/59/59
f 60/60/60 58/58/58 59/59/59
f 63/63/63 62/62/62 61/61/61
f 64/64/64 63/63/63 61/61/61
f 64/64/64 61/61/61 65/65/65
f 66/66/66 64/64/64 65/65/65
f 63/63/63 64/64/64 67/67/67
f 67/67/67 64/64/64 66/66/66
f 68/68/68 63/63/63 67/67/67
f 68/68/68 67/67/67 69/69/69
f 70/70/70 67/67/67 66/66/66
f 67/67/67 71/71/71 69/69/69
f 71/71/71 67/67/67 70/70/70
f 72/72/72 71/71/71 70/70/70
f 75/75/75 74/74/74 73/73/73
f 74/74/74 76/76/76 73/73/73
f 73/73/73 76/76/76 77/77/77
f 74/74/74 78/78/78 76/76/76
f 76/76/76 79/79/79 77/77/77
f 77/77/77 79/79/79 80/80/80
f 79/79/79 81/81/81 80/80/80
f 78/78/78 82/82/82 76/76/76
f 76/76/76 82/82/82 79/79/79
f 78/78/78 83/83/83 82/82/82
f 83/83/83 84/84/84 82/82/82
f 79/79/79 85/85/85 81/81/81
f 82/82/82 85/85/85 79/79/79
f 82/82/82 84/84/84 85/85/85
f 85/85/85 86/86/86 81/81/81
f 84/84/84 87/87/87 85/85/85
f 85/85/85 87/87/87 86/86/86
f 87/87/87 88/88/88 86/86/86
f 91/91/91 90/90/90 89/89/89
f 92/92/92 91/91/91 89/89/89
f 92/92/92 93/93/93 91/91/91
f 93/93/93 94/94/94 91/91/91
f 94/94/94 93/93/93 95/95/95
f 93/93/93 96/96/96 95/95/95
f 99/99/99 98/98/98 97/97/97
f 100/100/100 99/99/99 97/97/97
f 100/100/100 101/101/101 99/99/99
f 101/101/101 102/102/102 99/99/99
f 102/102/102 101/101/101 103/103/103
f 101/101/101 104/104/104 103/103/103
f 107/107/107 106/106/106 105/105/105
f 108/108/108 107/107/107 105/105/105
f 111/111/111 110/110/110 109/109/109
f 112/112/112 111/111/111 109/109/109
f 115/115/115 114/114/114 113/113/113
f 114/114/114 116/116/116 113/113/113
f 114/114/114 117/117/117 116/116/116
f 117/117/117 118/118/118 116/116/116
f 121/121/121 120/120/120 119/119/119
f 120/120/120 122/122/122 119/119/119
f 120/120/120 123/123/123 122/122/122
f 123/123/123 124/124/124 122/122/122
f 123/123/123 125/125/125 124/124/124
f 125/125/125 126/126/126 124/124/124
f 129/129/129 128/128/128 127/127/127
f 130/130/130 129/129/129 127/127/127
f 133/133/133 132/132/132 131/131/131
f 134/134/134 133/133/133 131/131/131
f 135/135/135 133/133/133 134/134/134
f 136/136/136 135/135/135 134/134/134
f 139/139/139 138/138/138 137/137/137
f 140/140/140 139/139/139 137/137/137
f 141/141/141 139/139/139 140/140/140
f 142/142/142 141/141/141 140/140/140
f 145/145/145 144/144/144 143/143/143
f 146/146/146 145/145/145 143/143/143
f 146/146/146 143/143/143 147/147/147
f 148/148/148 145/145/145 146/146/146
f 149/149/149 146/146/146 147/147/147
f 149/149/149 147/147/147 150/150/150
f 151/151/151 149/149/149 150/150/150
f 152/152/152 148/148/148 146/146/146
f 152/152/152 146/146/146 149/149/149
f 153/153/153 148/148/148 152/152/152
f 154/154/154 149/149/149 151/151/151
f 154/154/154 152/152/152 149/149/149
f 155/155/155 154/154/154 151/151/151
f 156/156/156 153/153/153 152/152/152
f 156/156/156 152/152/152 154/154/154
f 157/157/157 153/153/153 156/156/156
f 158/158/158 154/154/154 155/155/155
f 158/158/158 156/156/156 154/154/154
f 159/159/159 158/158/158 155/155/155
f 160/160/160 157/157/157 156/156/156
f 160/160/160 156/156/156 158/158/158
f 161/161/161 157/157/157 160/160/160
f 162/162/162 161/161/161 160/160/160
f 163/163/163 158/158/158 159/159/159
f 163/163/163 160/160/160 158/158/158
f 162/162/162 160/160/160 163/163/163
f 164/164/164 163/163/163 159/159/159
f 165/165/165 162/162/162 163/163/163
f 165/165/165 163/163/163 164/164/164
f 166/166/166 165/165/165 164/164/164
f 169/169/169 168/168/168 167/167/167
f 170/170/170 169/169/169 167/167/167
f 171/171/171 169/169/169 170/170/170
f 170/170/170 167/167/167 172/172/172
f 173/173/173 171/171/171 170/170/170
f 174/174/174 170/170/170 172/172/172
f 173/173/173 170/170/170 174/174/174
f 174/174/174 172/172/172 175/175/175
f 176/176/176 173/173/173 174/174/174
f 177/177/177 174/174/174 175/175/175
f 176/176/176 174/174/174 177/177/177
f 178/178/178 176/176/176 177/177/177
f 181/181/181 180/180/180 179/179/179
f 182/182/182 181/181/181 179/179/179
f 183/183/183 181/181/181 182/182/182
f 184/184/184 183/183/183 182/182/182
f 185/185/185 183/183/183 184/184/184
f 186/186/186 185/185/185 184/184/184
f 189/189/189 188/188/188 187/187/187
f 190/190/190 189/189/189 187/187/187
f 191/191/191 189/189/189 190/190/190
f 192/192/192 191/191/191 190/190/190
f 193/193/193 191/191/191 192/192/192
f 194/194/194 193/193/193 192/192/192
f 197/197/197 196/196/196 195/195/195
f 198/198/198 197/197/197 195/195/195
f 198/198/198 195/195/195 199/199/199
f 200/200/200 197/197/197 198/198/198
f 201/201/201 198/198/198 199/199/199
f 201/201/201 199/199/199 202/202/202
f 203/203/203 201/201/201 202/202/202
f 204/204/204 200/200/200 198/198/198
f 204/204/204 198/198/198 201/201/201
f 205/205/205 200/200/200 204/204/204
f 206/206/206 205/205/205 204/204/204
f 207/207/207 201/201/201 203/203/203
f 207/207/207 204/204/204 201/201/201
f 206/206/206 204/204/204 207/207/207
f 208/208/208 207/207/207 203/203/203
f 209/209/209 206/206/206 207/207/207
f 209/209/209 207/207/207 208/208/208
f 210/210/210 209/209/209 208/208/208
f 213/213/213 212/212/212 211/211/211
f 214/214/214 213/213/213 211/211/211
f 217/217/217 216/216/216 215/215/215
f 216/216/216 218/218/218 215/215/215
f 219/219/219 215/215/215 218/218/218
f 220/220/220 219/219/219 218/218/218
f 223/223/223 222/222/222 221/221/221
f 224/224/224 223/223/223 221/221/221
f 224/224/224 221/221/221 225/225/225
f 221/221/221 226/226/226 225/225/225
f 229/229/229 228/228/228 227/227/227
f 230/230/230 229/229/229 227/227/227
f 230/230/230 231/231/231 229/229/229
f 231/231/231 232/232/232 229/229/229
f 232/232/232 231/231/231 233/233/233
f 231/231/231 234/234/234 233/233/233
f 237/237/237 236/236/236 235/235/235
f 236/236/236 238/238/238 235/235/235
f 239/239/239 238/238/238 236/236/236
f 240/240/240 239/239/239 236/236/236
f 240/240/240 241/241/241 239/239/239
f 241/241/241 242/242/242 239/239/239
f 245/245/245 244/244/244 243/243/243
f 246/246/246 245/245/245 243/243/243
f 249/249/249 248/248/248 247/247/247
f 250/250/250 249/249/249 247/247/247
f 250/250/250 251/251/251 249/249/249
f 251/251/251 252/252/252 249/249/249
f 252/252/252 251/251/251 253/253/253
f 251/251/251 254/254/254 253/253/253
f 257/257/257 256/256/256 255/255/255
f 258/258/258 257/257/257 255/255/255
f 261/261/261 260/260/260 259/259/259
f 262/262/262 261/261/261 259/259/259
f 263/263/263 261/261/261 262/262/262
f 264/264/264 263/263/263 262/262/262
f 265/265/265 263/263/263 264/264/264
f 266/266/266 265/265/265 264/264/264
f 267/267/267 265/265/265 266/266/266
f 268/268/268 267/267/267 266/266/266
f 269/269/269 267/267/267 268/268/268
f 270/270/270 269/269/269 268/268/268
f 271/271/271 269/269/269 270/270/270
f 272/272/272 271/271/271 270/270/270
f 273/273/273 271/271/271 272/272/272
f 274/274/274 273/273/273 272/272/272
f 275/275/275 273/273/273 274/274/274
f 276/276/276 275/275/275 274/274/274
f 279/279/279 278/278/278 277/277/277
f 278/278/278 280/280/280 277/277/277
f 277/277/277 280/280/280 281/281/281
f 280/280/280 282/282/282 281/281/281
f 281/281/281 282/282/282 283/283/283
f 282/282/282 284/284/284 283/283/283
f 283/283/283 284/284/284 285/285/285
f 284/284/284 286/286/286 285/285/285
f 285/285/285 286/286/286 287/287/287
f 286/286/286 288/288/288 287/287/287
f 287/287/287 288/288/288 289/289/289
f 288/288/288 290/290/290 289/289/289
f 289/289/289 290/290/290 291/291/291
f 290/290/290 292/292/292 291/291/291
f 291/291/291 292/292/292 293/293/293
f 292/292/292 294/294/294 293/293/293
f 297/297/297 296/296/296 295/295/295
f 296/296/296 298/298/298 295/295/295
f 295/295/295 298/298/298 299/299/299
f 298/298/298 300/300/300 299/299/299
f 299/299/299 300/300/300 301/301/301
f 300/300/300 302/302/302 301/301/301
f 301/301/301 302/302/302 303/303/303
f 302/302/302 304/304/304 303/303/303
f 303/303/303 304/304/304 305/305/305
f 304/304/304 306/306/306 305/305/305
f 305/305/305 306/306/306 307/307/307
f 306/306/306 308/308/308 307/307/307
f 307/307/307 308/308/308 309/309/309
f 308/308/308 310/310/310 309/309/309
f 309/309/309 310/310/310 311/311/311
f 310/310/310 312/312/312 311/311/311
f 315/315/315 314/314/314 313/313/313
f 314/314/314 316/316/316 313/313/313
f 313/313/313 316/316/316 317/317/317
f 316/316/316 318/318/318 317/317/317
f 317/317/317 318/318/318 319/319/319
f 318/318/318 320/320/320 319/319/319
f 319/319/319 320/320/320 321/321/321
f 320/320/320 322/322/322 321/321/321
f 321/321/321 322/322/322 323/323/323
f 322/322/322 324/324/324 323/323/323
f 323/323/323 324/324/324 325/325/325
f 324/324/324 326/326/326 325/325/325
f 325/325/325 326/326/326 327/327/327
f 326/326/326 328/328/328 327/327/327
f 327/327/327 328/328/328 329/329/329
f 328/328/328 330/330/330 329/329/329
f 333/333/333 332/332/332 331/331/331
f 332/332/332 334/334/334 331/331/331
f 335/335/335 332/332/332 333/333/333
f 331/331/331 334/334/334 336/336/336
f 337/337/337 335/335/335 333/333/333
f 334/334/334 338/338/338 336/336/336
f 339/339/339 335/335/335 337/337/337
f 336/336/336 338/338/338 340/340/340
f 341/341/341 339/339/339 337/337/337
f 338/338/338 342/342/342 340/340/340
f 343/343/343 339/339/339 341/341/341
f 340/340/340 342/342/342 344/344/344
f 345/345/345 343/343/343 341/341/341
f 342/342/342 346/346/346 344/344/344
f 346/346/346 343/343/343 345/345/345
f 344/344/344 346/346/346 345/345/345
f 349/349/349 348/348/348 347/347/347
f 348/348/348 350/350/350 347/347/347
f 351/351/351 348/348/348 349/349/349
f 347/347/347 350/350/350 352/352/352
f 353/353/353 351/351/351 349/349/349
f 350/350/350 354/354/354 352/352/352
f 355/355/355 351/351/351 353/353/353
f 352/352/352 354/354/354 356/356/356
f 357/357/357 355/355/355 353/353/353
f 354/354/354 358/358/358 356/356/356
f 359/359/359 355/355/355 357/357/357
f 356/356/356 358/358/358 360/360/360
f 361/361/361 359/359/359 357/357/357
f 358/358/358 362/362/362 360/360/360
f 362/362/362 359/359/359 361/361/361
f 360/360/360 362/362/362 361/361/361
