g P_Straight_Simple
v -0.0490130335 -0.388271093 -0.50000006
v 0.0490128025 -0.388271093 0.5
v 0.0490131937 -0.388271093 -0.5
v -0.0490134321 -0.388271093 0.5
v -0.10702087 -0.330263287 -0.5
v -0.107021272 -0.330263287 0.5
v 0.0490131937 -0.388271093 -0.5
v 0.0490128025 -0.388271093 0.5
v 0.107020646 -0.330263287 0.5
v 0.107021034 -0.330263257 -0.5
v 0.107021034 -0.330263257 -0.5
v 0.107020646 -0.330263287 0.5
v 0.107020646 -0.232236937 0.5
v 0.107021034 -0.232236937 -0.5
v 0.107021034 -0.232236937 -0.5
v 0.107020646 -0.232236937 0.5
v 0.0490128025 -0.174229085 0.5
v 0.0490131937 -0.174229085 -0.5
v -0.0490134321 -0.174229085 0.5
v -0.0490130335 -0.174229071 -0.5
v -0.107021272 -0.232236937 0.5
v -0.10702087 -0.232236952 -0.50000006
v -0.10702087 -0.232236952 -0.50000006
v -0.107021272 -0.232236937 0.5
v -0.107021272 -0.330263287 0.5
v -0.10702087 -0.330263287 -0.5
v 0.0367842056 -0.361568868 -0.5
v 0.03668686 -0.361357272 0.5
v -0.0366874859 -0.361357272 0.499999911
v -0.0367840528 -0.361568838 -0.50000006
v -0.0367840528 -0.361568838 -0.50000006
v -0.0366874859 -0.361357272 0.499999911
v -0.0801073909 -0.317937315 0.499999911
v -0.0803186968 -0.318034291 -0.500000119
v -0.0803186968 -0.318034291 -0.500000119
v -0.0801073909 -0.317937315 0.499999911
v -0.0801073909 -0.244562924 0.499999911
v -0.0803186968 -0.244465932 -0.50000006
v -0.0803186968 -0.244465932 -0.50000006
v -0.0801073909 -0.244562924 0.499999911
v -0.0366874859 -0.201143011 0.499999881
v -0.0367840528 -0.200931296 -0.50000006
v 0.03668686 -0.201143011 0.5
v 0.0367842056 -0.200931311 -0.5
v 0.0367842056 -0.200931311 -0.5
v 0.03668686 -0.201143011 0.5
v 0.0801067501 -0.244562924 0.5
v 0.0803188309 -0.244465932 -0.5
v 0.0803188309 -0.244465932 -0.5
v 0.0801067501 -0.244562924 0.5
v 0.0801067501 -0.317937315 0.5
v 0.0803188309 -0.318034291 -0.5
v 0.0803188309 -0.318034291 -0.5
v 0.0801067501 -0.317937315 0.5
v 0.03668686 -0.361357272 0.5
v 0.0367842056 -0.361568868 -0.5
v -0.10702087 -0.330263287 -0.5
v -0.0803186968 -0.244465932 -0.50000006
v -0.10702087 -0.232236952 -0.50000006
v -0.0803186968 -0.318034291 -0.500000119
v -0.0367840528 -0.200931296 -0.50000006
v -0.0490130335 -0.388271093 -0.50000006
v -0.0490130335 -0.174229071 -0.5
v -0.0367840528 -0.361568838 -0.50000006
v 0.0367842056 -0.200931311 -0.5
v 0.0490131937 -0.388271093 -0.5
v 0.0490131937 -0.174229085 -0.5
v 0.0367842056 -0.361568868 -0.5
v 0.0803188309 -0.244465932 -0.5
v 0.107021034 -0.330263257 -0.5
v 0.107021034 -0.232236937 -0.5
v 0.0803188309 -0.318034291 -0.5
v 0.107020646 -0.330263287 0.5
v 0.0801067501 -0.317937315 0.5
v 0.0801067501 -0.244562924 0.5
v 0.107020646 -0.232236937 0.5
v 0.0490128025 -0.388271093 0.5
v 0.03668686 -0.201143011 0.5
v 0.03668686 -0.361357272 0.5
v 0.0490128025 -0.174229085 0.5
v -0.0490134321 -0.388271093 0.5
v -0.0366874859 -0.201143011 0.499999881
v -0.0366874859 -0.361357272 0.499999911
v -0.0490134321 -0.174229085 0.5
v -0.107021272 -0.330263287 0.5
v -0.0801073909 -0.244562924 0.499999911
v -0.0801073909 -0.317937315 0.499999911
v -0.107021272 -0.232236937 0.5
vt 0.596092463 0.824287713
vt 0.613810062 0.978785336
vt 0.613810062 0.824287713
vt 0.596092463 0.978785336
vt 0.580640554 0.824287713
vt 0.580640554 0.978785336
vt 0.481139958 0.824287832
vt 0.481139958 0.978785574
vt 0.496558487 0.978785574
vt 0.496558487 0.824287832
vt 0.496558487 0.824287832
vt 0.496558487 0.978785574
vt 0.514164507 0.978785574
vt 0.514164507 0.824287832
vt 0.514164507 0.824287832
vt 0.514164507 0.978785574
vt 0.52949959 0.978785336
vt 0.52949959 0.824287713
vt 0.547487617 0.978785336
vt 0.547487617 0.824287713
vt 0.563011765 0.978785336
vt 0.563011765 0.824287713
vt 0.563011765 0.824287713
vt 0.563011765 0.978785336
vt 0.580640554 0.978785336
vt 0.580640554 0.824287713
vt 0.457913637 0.704432428
vt 0.457853556 0.857475877
vt 0.471080184 0.857478023
vt 0.471159548 0.704437912
vt 0.374175787 0.704430819
vt 0.37422812 0.857427955
vt 0.385240436 0.857411206
vt 0.385199249 0.70443058
vt 0.385199249 0.70443058
vt 0.385240436 0.857411206
vt 0.398378581 0.85742557
vt 0.39837122 0.70443058
vt 0.39837122 0.70443058
vt 0.398378581 0.85742557
vt 0.409334511 0.857497633
vt 0.40939644 0.70443058
vt 0.422489941 0.857509136
vt 0.422567397 0.70443058
vt 0.422567397 0.70443058
vt 0.422489941 0.857509136
vt 0.433538973 0.857474864
vt 0.433585793 0.704430342
vt 0.433585793 0.704430342
vt 0.433538973 0.857474864
vt 0.44674173 0.857545495
vt 0.446822703 0.704430342
vt 0.446822703 0.704430342
vt 0.44674173 0.857545495
vt 0.457853556 0.857475877
vt 0.457913637 0.704432428
vt 0.370966941 0.57188797
vt 0.376975656 0.552653193
vt 0.370973378 0.549985588
vt 0.377029538 0.569117963
vt 0.386797488 0.543049812
vt 0.384009123 0.584908068
vt 0.38405329 0.537063956
vt 0.386770427 0.578885674
vt 0.403261989 0.543049812
vt 0.406007677 0.584927022
vt 0.406051993 0.537063956
vt 0.403248549 0.578880787
vt 0.413087606 0.552734494
vt 0.419106424 0.571876824
vt 0.41914618 0.550013006
vt 0.413033932 0.569083989
vt 0.370966941 0.57188797
vt 0.377029538 0.569117963
vt 0.376975656 0.552653193
vt 0.370973378 0.549985588
vt 0.384009123 0.584908068
vt 0.386797488 0.543049812
vt 0.386770427 0.578885674
vt 0.38405329 0.537063956
vt 0.406007677 0.584927022
vt 0.403261989 0.543049812
vt 0.403248549 0.578880787
vt 0.406051993 0.537063956
vt 0.419106424 0.571876824
vt 0.413087606 0.552734494
vt 0.413033932 0.569083989
vt 0.41914618 0.550013006
vn -0.382683426 -0.923879504 -1.52212976E-07
vn 0.382683367 -0.923879504 1.48661329E-07
vn 0.382683456 -0.923879504 1.48661385E-07
vn -0.382683516 -0.923879504 -1.52213033E-07
vn -0.707106769 -0.707106769 -2.81252909E-07
vn -0.707106769 -0.707106769 -2.81252909E-07
vn 0.382683456 -0.923879504 1.48661385E-07
vn 0.382683367 -0.923879504 1.48661329E-07
vn 0.707106769 -0.707106769 2.74690336E-07
vn 0.707106769 -0.707106769 2.74690336E-07
vn 1 0 3.87573323E-07
vn 1 0 3.87573323E-07
vn 1 0 3.87573323E-07
vn 1 0 3.87573323E-07
vn 0.707106769 0.707106769 2.75159067E-07
vn 0.707106829 0.70710665 2.75159067E-07
vn 0.382683426 0.923879504 1.48914992E-07
vn 0.382683516 0.923879504 1.48915035E-07
vn -0.382683575 0.923879445 -1.52720361E-07
vn -0.382683456 0.923879504 -1.52720318E-07
vn -0.707106829 0.70710665 -2.82190427E-07
vn -0.707106829 0.707106769 -2.82190427E-07
vn -1 0 -3.99685007E-07
vn -1 0 -3.99685007E-07
vn -1 0 -3.99685007E-07
vn -1 0 -3.99685007E-07
vn -0 1 -0.000211615043
vn -0 1 -0.000211615043
vn 0.38268137 0.923880339 -0.000232474806
vn 0.382685483 0.923878729 -0.000232474878
vn 0.382685483 0.923878729 -0.000232474878
vn 0.38268137 0.923880339 -0.000232474806
vn 0.707106709 0.707106769 -0.000217942506
vn 0.707106709 0.707106769 -0.000217942506
vn 1 0 -0.000211312232
vn 1 0 -0.000211312246
vn 1 0 -0.000211312246
vn 1 0 -0.000211312232
vn 0.707106769 -0.707106769 -0.000217994384
vn 0.707106769 -0.707106769 -0.000217994384
vn 0.3826814 -0.923880339 -0.000232555307
vn 0.382685483 -0.923878729 -0.000232555409
vn -0 -1 -0.000211711915
vn -0 -1 -0.000211711915
vn -0.707106829 -0.70710665 -0.000218543501
vn -0.707106769 -0.707106709 -0.00021854353
vn -0.707106829 -0.70710665 -0.00021854353
vn -0.707106829 -0.70710665 -0.00021854353
vn -1 0 -0.000212087354
vn -1 0 -0.000212087369
vn -1 0 -0.000212087369
vn -1 0 -0.000212087354
vn -0.707106769 0.707106769 -0.000218492263
vn -0.707106769 0.707106769 -0.000218492263
vn -0.707106769 0.707106769 -0.000218492263
vn -0.707106769 0.707106769 -0.000218492263
vn -1.81433393E-06 0 -1
vn -1.81433381E-06 0 -1
vn -1.81433393E-06 0 -1
vn -1.81433381E-06 0 -1
vn -0 4.22321961E-07 -1
vn -0 -4.43812894E-07 -1
vn -0 4.4381315E-07 -1
vn -0 -4.22321875E-07 -1
vn 2.8761923E-07 0 -1
vn 2.73520754E-07 0 -1
vn 2.73520698E-07 0 -1
vn 2.87619145E-07 0 -1
vn -0 0 -1
vn -0 0 -1
vn -0 0 -1
vn -0 0 -1
vn -0 0 1
vn -0 0 1
vn -0 0 1
vn -0 0 1
vn -2.73829983E-07 8.71941324E-07 1
vn -2.87944545E-07 -9.16883096E-07 1
vn -2.87944687E-07 9.16885995E-07 1
vn -2.73830182E-07 -8.71939676E-07 1
vn 9.99333793E-07 2.14510487E-06 1
vn 9.23564528E-07 -2.12839177E-06 1
vn 9.23565551E-07 2.12839609E-06 1
vn 9.99330609E-07 -2.14509987E-06 1
vn 3.60012336E-06 0 1
vn 3.60012336E-06 0 1
vn 3.60012336E-06 0 1
vn 3.60012336E-06 0 1
g P_Straight_Simple_0
f 3/3/3 2/2/2 1/1/1
f 2/2/2 4/4/4 1/1/1
f 1/1/1 4/4/4 5/5/5
f 4/4/4 6/6/6 5/5/5
f 9/9/9 8/8/8 7/7/7
f 10/10/10 9/9/9 7/7/7
f 13/13/13 12/12/12 11/11/11
f 14/14/14 13/13/13 11/11/11
f 17/17/17 16/16/16 15/15/15
f 18/18/18 17/17/17 15/15/15
f 19/19/19 17/17/17 18/18/18
f 20/20/20 19/19/19 18/18/18
f 21/21/21 19/19/19 20/20/20
f 22/22/22 21/21/21 20/20/20
f 25/25/25 24/24/24 23/23/23
f 26/26/26 25/25/25 23/23/23
f 29/29/29 28/28/28 27/27/27
f 30/30/30 29/29/29 27/27/27
f 33/33/33 32/32/32 31/31/31
f 34/34/34 33/33/33 31/31/31
f 37/37/37 36/36/36 35/35/35
f 38/38/38 37/37/37 35/35/35
f 41/41/41 40/40/40 39/39/39
f 42/42/42 41/41/41 39/39/39
f 43/43/43 41/41/41 42/42/42
f 44/44/44 43/43/43 42/42/42
f 47/47/47 46/46/46 45/45/45
f 48/48/48 47/47/47 45/45/45
f 51/51/51 50/50/50 49/49/49
f 52/52/52 51/51/51 49/49/49
f 55/55/55 54/54/54 53/53/53
f 56/56/56 55/55/55 53/53/53
f 59/59/59 58/58/58 57/57/57
f 58/58/58 60/60/60 57/57/57
f 61/61/61 58/58/58 59/59/59
f 57/57/57 60/60/60 62/62/62
f 63/63/63 61/61/61 59/59/59
f 60/60/60 64/64/64 62/62/62
f 65/65/65 61/61/61 63/63/63
f 62/62/62 64/64/64 66/66/66
f 67/67/67 65/65/65 63/63/63
f 64/64/64 68/68/68 66/66/66
f 69/69/69 65/65/65 67/67/67
f 66/66/66 68/68/68 70/70/70
f 71/71/71 69/69/69 67/67/67
f 68/68/68 72/72/72 70/70/70
f 72/72/72 69/69/69 71/71/71
f 70/70/70 72/72/72 71/71/71
f 75/75/75 74/74/74 73/73/73
f 76/76/76 75/75/75 73/73/73
f 73/73/73 74/74/74 77/77/77
f 78/78/78 75/75/75 76/76/76
f 74/74/74 79/79/79 77/77/77
f 80/80/80 78/78/78 76/76/76
f 77/77/77 79/79/79 81/81/81
f 82/82/82 78/78/78 80/80/80
f 79/79/79 83/83/83 81/81/81
f 84/84/84 82/82/82 80/80/80
f 81/81/81 83/83/83 85/85/85
f 86/86/86 82/82/82 84/84/84
f 83/83/83 87/87/87 85/85/85
f 88/88/88 86/86/86 84/84/84
f 85/85/85 87/87/87 88/88/88
f 87/87/87 86/86/86 88/88/88
