g LumberColumnBottom
v -0.125 -0.5 0.124999695
v -0.125 0.5 0.124999695
v 0.125 0.5 0.124999695
v 0.125 -0.5 0.124999695
v -0.125 0.5 0.124999695
v -0.125 0.5 -0.125000298
v 0.125 0.5 -0.125000298
v 0.125 0.5 0.124999695
v -0.125 0.5 -0.125000298
v -0.125 -0.5 -0.125000298
v 0.125 -0.5 -0.125000298
v 0.125 0.5 -0.125000298
v -0.125 -0.5 -0.125000298
v -0.125 -0.5 0.124999695
v 0.125 -0.5 0.124999695
v 0.125 -0.5 -0.125000298
v 0.125 -0.5 0.124999695
v 0.125 0.5 0.124999695
v 0.125 0.5 -0.125000298
v 0.125 -0.5 -0.125000298
v -0.125 -0.5 -0.125000298
v -0.125 0.5 -0.125000298
v -0.125 0.5 0.124999695
v -0.125 -0.5 0.124999695
v -0.125 -0.375 0.125
v 0.125 -0.375 0.125
v 0.15625 -0.375 0.15625
v -0.15625 -0.375 0.15625
v -0.15625 -0.375 0.15625
v 0.15625 -0.375 0.15625
v 0.15625 -0.46875 0.15625
v -0.15625 -0.46875 0.15625
v -0.15625 -0.46875 0.15625
v 0.15625 -0.46875 0.15625
v 0.25 -0.46875 0.25
v -0.25 -0.46875 0.25
v 0.25 -0.5 0.25
v -0.25 -0.5 0.25
v -0.25 -0.46875 0.25
v 0.25 -0.46875 0.25
v 0.25 -0.5 0.25
v 0.125 -0.5 0.125
v -0.125 -0.5 0.125
v -0.25 -0.5 0.25
v 0.125 -0.375 0.125
v 0.125 -0.375 -0.125
v 0.15625 -0.375 -0.15625
v 0.15625 -0.375 0.15625
v 0.15625 -0.375 0.15625
v 0.15625 -0.375 -0.15625
v 0.15625 -0.46875 -0.15625
v 0.15625 -0.46875 0.15625
v 0.15625 -0.46875 0.15625
v 0.15625 -0.46875 -0.15625
v 0.25 -0.46875 -0.25
v 0.25 -0.46875 0.25
v 0.25 -0.5 -0.25
v 0.25 -0.5 0.25
v 0.25 -0.46875 0.25
v 0.25 -0.46875 -0.25
v 0.25 -0.5 -0.25
v 0.125 -0.5 -0.125
v 0.125 -0.5 0.125
v 0.25 -0.5 0.25
v 0.125 -0.375 -0.125
v -0.125 -0.375 -0.125
v -0.15625 -0.375 -0.15625
v 0.15625 -0.375 -0.15625
v 0.15625 -0.375 -0.15625
v -0.15625 -0.375 -0.15625
v -0.15625 -0.46875 -0.15625
v 0.15625 -0.46875 -0.15625
v 0.15625 -0.46875 -0.15625
v -0.15625 -0.46875 -0.15625
v -0.25 -0.46875 -0.25
v 0.25 -0.46875 -0.25
v -0.25 -0.5 -0.25
v 0.25 -0.5 -0.25
v 0.25 -0.46875 -0.25
v -0.25 -0.46875 -0.25
v -0.25 -0.5 -0.25
v -0.125 -0.5 -0.125
v 0.125 -0.5 -0.125
v 0.25 -0.5 -0.25
v -0.125 -0.375 -0.125
v -0.125 -0.375 0.125
v -0.15625 -0.375 0.15625
v -0.15625 -0.375 -0.15625
v -0.15625 -0.375 -0.15625
v -0.15625 -0.375 0.15625
v -0.15625 -0.46875 0.15625
v -0.15625 -0.46875 -0.15625
v -0.15625 -0.46875 -0.15625
v -0.15625 -0.46875 0.15625
v -0.25 -0.46875 0.25
v -0.25 -0.46875 -0.25
v -0.25 -0.5 0.25
v -0.25 -0.5 -0.25
v -0.25 -0.46875 -0.25
v -0.25 -0.46875 0.25
v -0.25 -0.5 0.25
v -0.125 -0.5 0.125
v -0.125 -0.5 -0.125
v -0.25 -0.5 -0.25
vt 0.0360349566 0.440518856
vt 0.394397378 0.440518856
vt 0.394397408 0.350928128
vt 0.0360349566 0.350928247
vt 0.905261934 0.106969111
vt 0.905261934 0.194189101
vt 0.992482245 0.194189101
vt 0.992482245 0.106969111
vt 0.0360350758 0.440518856
vt 0.394397467 0.440518856
vt 0.394397438 0.350928128
vt 0.0360349417 0.350928247
vt 0.905261934 0.194189101
vt 0.905261934 0.106969111
vt 0.992482245 0.106969111
vt 0.992482245 0.194189101
vt 0.0218527094 0.437080026
vt 0.380215257 0.437080085
vt 0.380215317 0.347489417
vt 0.0218528882 0.347489417
vt 0.0218528286 0.437080026
vt 0.380215257 0.437080085
vt 0.380215257 0.347489417
vt 0.0218529478 0.347489417
vt 0.749539733 0.6814695
vt 0.749539733 0.556090057
vt 0.764456332 0.54177314
vt 0.764456391 0.6814695
vt 0.764456391 0.6814695
vt 0.764456332 0.54177314
vt 0.809206724 0.55101639
vt 0.809206724 0.6814695
vt 0.809206724 0.6814695
vt 0.809206724 0.55101639
vt 0.853956819 0.508797824
vt 0.853956819 0.6814695
vt 0.868873477 0.514296949
vt 0.868873477 0.6814695
vt 0.853956819 0.6814695
vt 0.853956819 0.508797824
vt 0.327289551 0.937126279
vt 0.372452766 0.883277535
vt 0.470306247 0.883277476
vt 0.470306247 0.93712604
vt 0.749539733 0.485249817
vt 0.749539733 0.359870374
vt 0.764456332 0.345553458
vt 0.764456391 0.485249817
vt 0.764456391 0.485249817
vt 0.764456332 0.345553458
vt 0.809206724 0.354796708
vt 0.809206724 0.485249817
vt 0.809206724 0.485249817
vt 0.809206724 0.354796708
vt 0.853956819 0.312578142
vt 0.853956819 0.485249817
vt 0.868873477 0.318077266
vt 0.868873477 0.485249817
vt 0.853956819 0.485249817
vt 0.853956819 0.312578142
vt 0.526982725 0.937126279
vt 0.572145939 0.883277535
vt 0.66999948 0.883277476
vt 0.66999948 0.93712604
vt 0.749539733 0.6814695
vt 0.749539733 0.556090057
vt 0.764456332 0.54177314
vt 0.764456391 0.6814695
vt 0.764456391 0.6814695
vt 0.764456332 0.54177314
vt 0.809206724 0.55101639
vt 0.809206724 0.6814695
vt 0.809206724 0.6814695
vt 0.809206724 0.55101639
vt 0.853956819 0.508797824
vt 0.853956819 0.6814695
vt 0.868873477 0.514296949
vt 0.868873477 0.6814695
vt 0.853956819 0.6814695
vt 0.853956819 0.508797824
vt 0.300871015 0.937126279
vt 0.346034229 0.883277535
vt 0.44388777 0.883277476
vt 0.44388777 0.93712604
vt 0.749539733 0.580754995
vt 0.749539733 0.455375522
vt 0.764456332 0.441058606
vt 0.764456391 0.580754995
vt 0.764456391 0.580754995
vt 0.764456332 0.441058606
vt 0.809206724 0.450301856
vt 0.809206724 0.580754995
vt 0.809206724 0.580754995
vt 0.809206724 0.450301856
vt 0.853956819 0.40808329
vt 0.853956819 0.580754995
vt 0.868873477 0.413582414
vt 0.868873477 0.580754995
vt 0.853956819 0.580754995
vt 0.853956819 0.40808329
vt 0.434517801 0.937126279
vt 0.479681015 0.883277535
vt 0.577534556 0.883277476
vt 0.577534556 0.93712604
vn -0 0 1
vn -0 0 1
vn -0 0 1
vn -0 0 1
vn -0 1 0
vn -0 1 0
vn -0 1 0
vn -0 1 0
vn -0 0 -1
vn -0 0 -1
vn -0 0 -1
vn -0 0 -1
vn -0 -1 0
vn -0 -1 0
vn -0 -1 0
vn -0 -1 0
vn 1 0 0
vn 1 0 0
vn 1 0 0
vn 1 0 0
vn -1 0 0
vn -1 0 0
vn -1 0 0
vn -1 0 0
vn -0 1 0
vn -0 1 0
vn -0 1 0
vn -0 1 0
vn -0 0 1
vn -0 0 1
vn -0 0 1
vn -0 0 1
vn -0 1 0
vn -0 1 0
vn -0 1 0
vn -0 1 0
vn -0 0 1
vn -0 0 1
vn -0 0 1
vn -0 0 1
vn -0 -1 0
vn -0 -1 0
vn -0 -1 0
vn -0 -1 0
vn -0 1 0
vn -0 1 0
vn -0 1 0
vn -0 1 0
vn 1 0 0
vn 1 0 0
vn 1 0 0
vn 1 0 0
vn -0 1 0
vn -0 1 0
vn -0 1 0
vn -0 1 0
vn 1 0 0
vn 1 0 0
vn 1 0 0
vn 1 0 0
vn -0 -1 0
vn -0 -1 0
vn -0 -1 0
vn -0 -1 0
vn -0 1 0
vn -0 1 0
vn -0 1 0
vn -0 1 0
vn -0 0 -1
vn -0 0 -1
vn -0 0 -1
vn -0 0 -1
vn -0 1 0
vn -0 1 0
vn -0 1 0
vn -0 1 0
vn -0 0 -1
vn -0 0 -1
vn -0 0 -1
vn -0 0 -1
vn -0 -1 0
vn -0 -1 0
vn -0 -1 0
vn -0 -1 0
vn -0 1 0
vn -0 1 0
vn -0 1 0
vn -0 1 0
vn -1 0 0
vn -1 0 0
vn -1 0 0
vn -1 0 0
vn -0 1 0
vn -0 1 0
vn -0 1 0
vn -0 1 0
vn -1 0 0
vn -1 0 0
vn -1 0 0
vn -1 0 0
vn -0 -1 0
vn -0 -1 0
vn -0 -1 0
vn -0 -1 0
g LumberColumnBottom_0
f 3/3/3 2/2/2 1/1/1
f 4/4/4 3/3/3 1/1/1
f 7/7/7 6/6/6 5/5/5
f 8/8/8 7/7/7 5/5/5
f 11/11/11 10/10/10 9/9/9
f 12/12/12 11/11/11 9/9/9
f 15/15/15 14/14/14 13/13/13
f 16/16/16 15/15/15 13/13/13
f 19/19/19 18/18/18 17/17/17
f 20/20/20 19/19/19 17/17/17
f 23/23/23 22/22/22 21/21/21
f 24/24/24 23/23/23 21/21/21
f 27/27/27 26/26/26 25/25/25
f 28/28/28 27/27/27 25/25/25
f 31/31/31 30/30/30 29/29/29
f 32/32/32 31/31/31 29/29/29
f 35/35/35 34/34/34 33/33/33
f 36/36/36 35/35/35 33/33/33
f 39/39/39 38/38/38 37/37/37
f 40/40/40 39/39/39 37/37/37
f 43/43/43 42/42/42 41/41/41
f 44/44/44 43/43/43 41/41/41
f 47/47/47 46/46/46 45/45/45
f 48/48/48 47/47/47 45/45/45
f 51/51/51 50/50/50 49/49/49
f 52/52/52 51/51/51 49/49/49
f 55/55/55 54/54/54 53/53/53
f 56/56/56 55/55/55 53/53/53
f 59/59/59 58/58/58 57/57/57
f 60/60/60 59/59/59 57/57/57
f 63/63/63 62/62/62 61/61/61
f 64/64/64 63/63/63 61/61/61
f 67/67/67 66/66/66 65/65/65
f 68/68/68 67/67/67 65/65/65
f 71/71/71 70/70/70 69/69/69
f 72/72/72 71/71/71 69/69/69
f 75/75/75 74/74/74 73/73/73
f 76/76/76 75/75/75 73/73/73
f 79/79/79 78/78/78 77/77/77
f 80/80/80 79/79/79 77/77/77
f 83/83/83 82/82/82 81/81/81
f 84/84/84 83/83/83 81/81/81
f 87/87/87 86/86/86 85/85/85
f 88/88/88 87/87/87 85/85/85
f 91/91/91 90/90/90 89/89/89
f 92/92/92 91/91/91 89/89/89
f 95/95/95 94/94/94 93/93/93
f 96/96/96 95/95/95 93/93/93
f 99/99/99 98/98/98 97/97/97
f 100/100/100 99/99/99 97/97/97
f 103/103/103 102/102/102 101/101/101
f 104/104/104 103/103/103 101/101/101
