g FloorCubeTri
v -0.5 0.5 0.5
v -0.5 0.5 -0.5
v 0.5 0.5 -0.5
v 0.5 0.5 0.5
v -0.5 -0.5 -0.5
v -0.5 -0.5 0.5
v 0.5 -0.5 0.5
v 0.5 -0.5 -0.5
vt 0.96477282 0.0485913679
vt 0.96477282 0.0485939309
vt 0.964775324 0.0485939309
vt 0.964775324 0.0485913679
vt 0.96477282 0.0485965088
vt 0.96477282 0.048599042
vt 0.964775324 0.048599042
vt 0.964775324 0.0485965088
vn -0 1 0
vn -0 1 0
vn -0 1 0
vn -0 1 0
vn -0 -1 0
vn -0 -1 0
vn -0 -1 0
vn -0 -1 0
g FloorCubeTri_0
f 3/3/3 2/2/2 1/1/1
f 4/4/4 3/3/3 1/1/1
f 7/7/7 6/6/6 5/5/5
f 8/8/8 7/7/7 5/5/5
