g T_Wall
v -0.15625 0.5 0.15625
v -0.15625 -0.5 0.15625
v -0.25 -0.5 0.15625
v -0.25 0.5 0.15625
v -0.15625 0.5 0.25
v -0.15625 -0.5 0.25
v -0.15625 -0.5 0.15625
v -0.15625 0.5 0.15625
v -0.25 -0.5 0.125
v -0.25 0.5 0.125
v -0.25 0.5 0.15625
v -0.25 -0.5 0.15625
v -0.125 0.5 0.25
v -0.125 -0.5 0.25
v -0.15625 -0.5 0.25
v -0.15625 0.5 0.25
v -0.125 -0.5 0.5
v -0.125 0.5 0.5
v 0.125 0.5 0.5
v 0.125 -0.5 0.5
v 0.125 -0.5 -0.5
v 0.125 0.5 -0.5
v -0.125 0.5 -0.5
v -0.125 -0.5 -0.5
v -0.5 -0.5 -0.125
v -0.5 0.5 -0.125
v -0.5 0.5 0.125
v -0.5 -0.5 0.125
v 0.125 0.5 0.5
v -0.125 0.5 0.5
v -0.125 0.5 0.25
v -0.125 0.5 0.125
v -0.125 0.5 -0.125
v -0.125 0.5 -0.25
v 0.125 0.5 -0.5
v -0.125 0.5 -0.5
v -0.125 -0.5 -0.5
v -0.125 0.5 -0.5
v -0.125 0.5 -0.25
v -0.125 -0.5 -0.25
v -0.25 -0.5 -0.125
v -0.5 -0.5 -0.125
v -0.5 -0.5 0.125
v -0.25 -0.5 0.125
v -0.125 -0.5 -0.125
v -0.125 -0.5 0.125
v -0.25 -0.5 0.125
v -0.5 -0.5 0.125
v -0.5 0.5 0.125
v -0.25 0.5 0.125
v -0.25 0.5 0.125
v -0.5 0.5 0.125
v -0.5 0.5 -0.125
v -0.25 0.5 -0.125
v -0.125 0.5 0.125
v -0.125 0.5 -0.125
v -0.25 0.5 -0.125
v -0.5 0.5 -0.125
v -0.5 -0.5 -0.125
v -0.25 -0.5 -0.125
v -0.15625 0.5 -0.15625
v -0.25 0.5 -0.15625
v -0.25 -0.5 -0.15625
v -0.15625 -0.5 -0.15625
v -0.125 -0.5 0.25
v -0.125 -0.5 0.5
v 0.125 -0.5 0.5
v -0.125 -0.5 0.125
v -0.125 -0.5 -0.125
v -0.125 -0.5 -0.25
v 0.125 -0.5 -0.5
v -0.125 -0.5 -0.5
v 0.125 0.5 0.5
v 0.125 0.5 -0.5
v 0.125 -0.5 -0.5
v 0.125 -0.5 0.5
v -0.125 0.5 0.25
v -0.125 0.5 0.5
v -0.125 -0.5 0.5
v -0.125 -0.5 0.25
v -0.15625 0.5 -0.25
v -0.15625 0.5 -0.15625
v -0.15625 -0.5 -0.15625
v -0.15625 -0.5 -0.25
v -0.125 -0.5 0.125
v -0.15625 -0.5 0.25
v -0.125 -0.5 0.25
v -0.15625 -0.5 0.15625
v -0.25 -0.5 0.125
v -0.25 -0.5 0.15625
v -0.125 0.5 0.25
v -0.15625 0.5 0.25
v -0.15625 0.5 0.15625
v -0.125 0.5 0.125
v -0.25 0.5 0.15625
v -0.25 0.5 0.125
v -0.125 -0.5 -0.125
v -0.25 -0.5 -0.15625
v -0.25 -0.5 -0.125
v -0.15625 -0.5 -0.15625
v -0.125 -0.5 -0.25
v -0.15625 -0.5 -0.25
v -0.25 -0.5 -0.125
v -0.25 -0.5 -0.15625
v -0.25 0.5 -0.15625
v -0.25 0.5 -0.125
v -0.25 0.5 -0.125
v -0.25 0.5 -0.15625
v -0.15625 0.5 -0.15625
v -0.125 0.5 -0.125
v -0.15625 0.5 -0.25
v -0.125 0.5 -0.25
v -0.125 0.5 -0.25
v -0.15625 0.5 -0.25
v -0.15625 -0.5 -0.25
v -0.125 -0.5 -0.25
vt 0.809206724 0.6814695
vt 0.809206724 0.204134047
vt 0.853956819 0.204134047
vt 0.853956819 0.6814695
vt 0.764456391 0.6814695
vt 0.764456391 0.204134047
vt 0.809206724 0.204134047
vt 0.809206724 0.6814695
vt 0.868873477 0.204134047
vt 0.868873477 0.6814695
vt 0.853956819 0.6814695
vt 0.853956819 0.204134047
vt 0.749539733 0.6814695
vt 0.749539733 0.204134047
vt 0.764456391 0.204134047
vt 0.764456391 0.6814695
vt 0.873900175 0.203973532
vt 0.873900175 0.681308746
vt 0.9932338 0.681308746
vt 0.9932338 0.203973532
vt 0.993234038 0.203973532
vt 0.993234038 0.681308985
vt 0.873900294 0.681308985
vt 0.873900294 0.203973532
vt 0.873900294 0.203973532
vt 0.873900294 0.681308746
vt 0.993233919 0.681308746
vt 0.993233919 0.203973532
vt 0.994329691 0.202043056
vt 0.87476635 0.202043056
vt 0.87476635 0.321606427
vt 0.87476635 0.381388128
vt 0.87476635 0.500951469
vt 0.87476635 0.560733199
vt 0.994329691 0.68029654
vt 0.87476635 0.68029654
vt 0.852715015 0.0352876782
vt 0.852715015 0.0647992939
vt 0.860093117 0.0647992939
vt 0.860093117 0.0352876782
vt 0.992570996 0.321463197
vt 0.992571056 0.20277819
vt 0.87388587 0.20277822
vt 0.87388593 0.321463197
vt 0.992570996 0.38080579
vt 0.87388593 0.38080585
vt 0.860093117 0.0352876782
vt 0.852715015 0.0352876782
vt 0.852715015 0.0647992939
vt 0.860093117 0.0647992939
vt 0.87388593 0.321463197
vt 0.87388587 0.20277822
vt 0.992571056 0.20277819
vt 0.992570996 0.321463197
vt 0.87388593 0.38080585
vt 0.992570996 0.38080579
vt 0.860093117 0.0352876782
vt 0.852715015 0.0352876782
vt 0.852715015 0.0647992641
vt 0.860093117 0.0647992641
vt 0.809206724 0.6814695
vt 0.853956819 0.6814695
vt 0.853956819 0.204134047
vt 0.809206724 0.204134047
vt 0.87476635 0.321606427
vt 0.87476635 0.202043056
vt 0.994329691 0.202043056
vt 0.87476635 0.381388128
vt 0.87476635 0.500951469
vt 0.87476635 0.560733199
vt 0.994329691 0.68029654
vt 0.87476635 0.68029654
vt 0.818818629 0.0647558048
vt 0.848330081 0.0647558048
vt 0.848330081 0.0352441929
vt 0.818818629 0.0352441929
vt 0.852715015 0.0647992939
vt 0.860093117 0.0647992939
vt 0.860093117 0.035287708
vt 0.852715015 0.035287708
vt 0.764456391 0.6814695
vt 0.809206724 0.6814695
vt 0.809206724 0.204134047
vt 0.764456391 0.204134047
vt 0.688203514 0.794008493
vt 0.607765377 0.814117789
vt 0.607765615 0.794008493
vt 0.668093622 0.814117789
vt 0.688203514 0.874446034
vt 0.668093741 0.874446034
vt 0.607765615 0.794008493
vt 0.607765377 0.814117789
vt 0.668093622 0.814117789
vt 0.688203514 0.794008493
vt 0.668093741 0.874446034
vt 0.688203514 0.874446034
vt 0.688203156 0.794008315
vt 0.607765377 0.81411773
vt 0.607765615 0.794008434
vt 0.668093503 0.81411773
vt 0.688203156 0.874446392
vt 0.668093622 0.874446154
vt 0.868873477 0.204134047
vt 0.853956819 0.204134047
vt 0.853956819 0.6814695
vt 0.868873477 0.6814695
vt 0.607765615 0.794008434
vt 0.607765377 0.81411773
vt 0.668093503 0.81411773
vt 0.688203156 0.794008315
vt 0.668093622 0.874446154
vt 0.688203156 0.874446392
vt 0.749539733 0.6814695
vt 0.764456391 0.6814695
vt 0.764456391 0.204134047
vt 0.749539733 0.204134047
vn -0 0 1
vn -0 0 1
vn -0 0 1
vn -0 0 1
vn -1 0 0
vn -1 0 0
vn -1 0 0
vn -1 0 0
vn -1 0 0
vn -1 0 0
vn -1 0 0
vn -1 0 0
vn -0 0 1
vn -0 0 1
vn -0 0 1
vn -0 0 1
vn -0 0 1
vn -0 0 1
vn -0 0 1
vn -0 0 1
vn -0 0 -1
vn -0 0 -1
vn -0 0 -1
vn -0 0 -1
vn -1 0 0
vn -1 0 0
vn -1 0 0
vn -1 0 0
vn -0 1 0
vn -0 1 0
vn -0 1 0
vn -0 1 0
vn -0 1 0
vn -0 1 0
vn -0 1 0
vn -0 1 0
vn -1 0 0
vn -1 0 0
vn -1 0 0
vn -1 0 0
vn -0 -1 0
vn -0 -1 0
vn -0 -1 0
vn -0 -1 0
vn -0 -1 0
vn -0 -1 0
vn -0 0 1
vn -0 0 1
vn -0 0 1
vn -0 0 1
vn -0 1 0
vn -0 1 0
vn -0 1 0
vn -0 1 0
vn -0 1 0
vn -0 1 0
vn -0 0 -1
vn -0 0 -1
vn -0 0 -1
vn -0 0 -1
vn -0 0 -1
vn -0 0 -1
vn -0 0 -1
vn -0 0 -1
vn -0 -1 0
vn -0 -1 0
vn -0 -1 0
vn -0 -1 0
vn -0 -1 0
vn -0 -1 0
vn -0 -1 0
vn -0 -1 0
vn 1 0 0
vn 1 0 0
vn 1 0 0
vn 1 0 0
vn -1 0 0
vn -1 0 0
vn -1 0 0
vn -1 0 0
vn -1 0 0
vn -1 0 0
vn -1 0 0
vn -1 0 0
vn -0 -1 0
vn -0 -1 0
vn -0 -1 0
vn -0 -1 0
vn -0 -1 0
vn -0 -1 0
vn -0 1 0
vn -0 1 0
vn -0 1 0
vn -0 1 0
vn -0 1 0
vn -0 1 0
vn -0 -1 0
vn -0 -1 0
vn -0 -1 0
vn -0 -1 0
vn -0 -1 0
vn -0 -1 0
vn -1 0 0
vn -1 0 0
vn -1 0 0
vn -1 0 0
vn -0 1 0
vn -0 1 0
vn -0 1 0
vn -0 1 0
vn -0 1 0
vn -0 1 0
vn -0 0 -1
vn -0 0 -1
vn -0 0 -1
vn -0 0 -1
g T_Wall_0
f 3/3/3 2/2/2 1/1/1
f 4/4/4 3/3/3 1/1/1
f 7/7/7 6/6/6 5/5/5
f 8/8/8 7/7/7 5/5/5
f 11/11/11 10/10/10 9/9/9
f 12/12/12 11/11/11 9/9/9
f 15/15/15 14/14/14 13/13/13
f 16/16/16 15/15/15 13/13/13
f 19/19/19 18/18/18 17/17/17
f 20/20/20 19/19/19 17/17/17
f 23/23/23 22/22/22 21/21/21
f 24/24/24 23/23/23 21/21/21
f 27/27/27 26/26/26 25/25/25
f 28/28/28 27/27/27 25/25/25
f 31/31/31 30/30/30 29/29/29
f 32/32/32 31/31/31 29/29/29
f 33/33/33 32/32/32 29/29/29
f 34/34/34 33/33/33 29/29/29
f 29/29/29 35/35/35 34/34/34
f 35/35/35 36/36/36 34/34/34
f 39/39/39 38/38/38 37/37/37
f 40/40/40 39/39/39 37/37/37
f 43/43/43 42/42/42 41/41/41
f 44/44/44 43/43/43 41/41/41
f 44/44/44 41/41/41 45/45/45
f 46/46/46 44/44/44 45/45/45
f 49/49/49 48/48/48 47/47/47
f 50/50/50 49/49/49 47/47/47
f 53/53/53 52/52/52 51/51/51
f 54/54/54 53/53/53 51/51/51
f 54/54/54 51/51/51 55/55/55
f 56/56/56 54/54/54 55/55/55
f 59/59/59 58/58/58 57/57/57
f 60/60/60 59/59/59 57/57/57
f 63/63/63 62/62/62 61/61/61
f 64/64/64 63/63/63 61/61/61
f 67/67/67 66/66/66 65/65/65
f 67/67/67 65/65/65 68/68/68
f 67/67/67 68/68/68 69/69/69
f 67/67/67 69/69/69 70/70/70
f 70/70/70 71/71/71 67/67/67
f 70/70/70 72/72/72 71/71/71
f 75/75/75 74/74/74 73/73/73
f 76/76/76 75/75/75 73/73/73
f 79/79/79 78/78/78 77/77/77
f 80/80/80 79/79/79 77/77/77
f 83/83/83 82/82/82 81/81/81
f 84/84/84 83/83/83 81/81/81
f 87/87/87 86/86/86 85/85/85
f 86/86/86 88/88/88 85/85/85
f 85/85/85 88/88/88 89/89/89
f 88/88/88 90/90/90 89/89/89
f 93/93/93 92/92/92 91/91/91
f 94/94/94 93/93/93 91/91/91
f 95/95/95 93/93/93 94/94/94
f 96/96/96 95/95/95 94/94/94
f 99/99/99 98/98/98 97/97/97
f 98/98/98 100/100/100 97/97/97
f 97/97/97 100/100/100 101/101/101
f 100/100/100 102/102/102 101/101/101
f 105/105/105 104/104/104 103/103/103
f 106/106/106 105/105/105 103/103/103
f 109/109/109 108/108/108 107/107/107
f 110/110/110 109/109/109 107/107/107
f 111/111/111 109/109/109 110/110/110
f 112/112/112 111/111/111 110/110/110
f 115/115/115 114/114/114 113/113/113
f 116/116/116 115/115/115 113/113/113
