g LumberLadderMiddle
v -0.352039456 0.5 0.399038315
v -0.296684772 0.5 0.399038315
v -0.296684772 0.5 0.5
v -0.352039456 0.5 0.5
v -0.296684772 -0.5 0.399038315
v -0.352039456 -0.5 0.399038315
v -0.352039456 -0.5 0.5
v -0.296684772 -0.5 0.5
v -0.296684772 -0.5 0.399038315
v -0.296684772 0.5 0.399038315
v -0.352039456 0.5 0.399038315
v -0.352039456 -0.5 0.399038315
v -0.352039456 -0.5 0.5
v -0.352039456 0.5 0.5
v -0.296684772 0.5 0.5
v -0.296684772 -0.5 0.5
v 0.296684772 0.5 0.399038345
v 0.352039456 0.5 0.399038345
v 0.352039456 0.5 0.5
v 0.296684772 0.5 0.5
v 0.352039456 -0.5 0.399038345
v 0.296684772 -0.5 0.399038345
v 0.296684772 -0.5 0.5
v 0.352039456 -0.5 0.5
v 0.352039456 -0.5 0.399038345
v 0.352039456 0.5 0.399038345
v 0.296684772 0.5 0.399038345
v 0.296684772 -0.5 0.399038345
v 0.296684772 -0.5 0.5
v 0.296684772 0.5 0.5
v 0.352039456 0.5 0.5
v 0.352039456 -0.5 0.5
v -0.296684772 0.282424808 0.461271822
v -0.296684772 0.282424808 0.437766433
v 0.296684772 0.282424808 0.437766403
v 0.296684772 0.282424808 0.461271822
v 0.296684772 0.217575178 0.461271822
v 0.296684772 0.217575178 0.437766403
v -0.296684772 0.217575178 0.437766433
v -0.296684772 0.217575178 0.461271822
v 0.296684742 0.230795056 0.426016003
v 0.296684742 0.269204944 0.426016003
v -0.296684772 0.269204944 0.426016003
v -0.296684772 0.230795056 0.426016003
v -0.296684772 0.230795056 0.473022223
v -0.296684772 0.269204944 0.473022223
v 0.296684742 0.269204944 0.473022223
v 0.296684742 0.230795056 0.473022223
v 0.296684742 0.269204944 0.473022223
v -0.296684772 0.269204944 0.473022223
v -0.296684772 0.282424808 0.461271822
v 0.296684772 0.282424808 0.461271822
v 0.296684772 0.282424808 0.437766403
v -0.296684772 0.282424808 0.437766433
v -0.296684772 0.269204944 0.426016003
v 0.296684742 0.269204944 0.426016003
v 0.296684772 0.217575178 0.461271822
v -0.296684772 0.217575178 0.461271822
v -0.296684772 0.230795056 0.473022223
v 0.296684742 0.230795056 0.473022223
v 0.296684742 0.230795056 0.426016003
v -0.296684772 0.230795056 0.426016003
v -0.296684772 0.217575178 0.437766433
v 0.296684772 0.217575178 0.437766403
v -0.296684772 0.5 0.5
v -0.296684772 0.5 0.399038315
v -0.296684772 -0.5 0.399038315
v -0.296684772 -0.5 0.5
v -0.352039456 -0.5 0.5
v -0.352039456 -0.5 0.399038315
v -0.352039456 0.5 0.399038315
v -0.352039456 0.5 0.5
v 0.296684772 0.5 0.5
v 0.296684772 -0.5 0.5
v 0.296684772 -0.5 0.399038345
v 0.296684772 0.5 0.399038345
v 0.352039456 -0.5 0.5
v 0.352039456 0.5 0.5
v 0.352039456 0.5 0.399038345
v 0.352039456 -0.5 0.399038345
v -0.296684772 -0.282424808 0.441916674
v -0.296684772 -0.282424808 0.465422034
v 0.296684772 -0.282424808 0.465422094
v 0.296684772 -0.282424808 0.441916674
v 0.296684772 -0.217575178 0.441916674
v 0.296684772 -0.217575178 0.465422094
v -0.296684772 -0.217575178 0.465422034
v -0.296684772 -0.217575178 0.441916674
v 0.296684742 -0.230795056 0.477172494
v 0.296684742 -0.269204944 0.477172494
v -0.296684772 -0.269204944 0.477172494
v -0.296684772 -0.230795056 0.477172494
v -0.296684772 -0.230795056 0.430166274
v -0.296684772 -0.269204944 0.430166274
v 0.296684742 -0.269204944 0.430166274
v 0.296684742 -0.230795056 0.430166274
v 0.296684742 -0.269204944 0.430166274
v -0.296684772 -0.269204944 0.430166274
v -0.296684772 -0.282424808 0.441916674
v 0.296684772 -0.282424808 0.441916674
v 0.296684772 -0.282424808 0.465422094
v -0.296684772 -0.282424808 0.465422034
v -0.296684772 -0.269204944 0.477172494
v 0.296684742 -0.269204944 0.477172494
v 0.296684772 -0.217575178 0.441916674
v -0.296684772 -0.217575178 0.441916674
v -0.296684772 -0.230795056 0.430166274
v 0.296684742 -0.230795056 0.430166274
v 0.296684742 -0.230795056 0.477172494
v -0.296684772 -0.230795056 0.477172494
v -0.296684772 -0.217575178 0.465422034
v 0.296684772 -0.217575178 0.465422094
vt 0.5860008 0.0819399953
vt 0.541553795 0.0819400027
vt 0.541553795 0.146155953
vt 0.5860008 0.146156013
vt 0.58600086 0.0819399953
vt 0.541553617 0.0819399953
vt 0.541553617 0.146156013
vt 0.58600086 0.146156013
vt 0.647661328 0.0168162361
vt 0.647661388 0.445502371
vt 0.674886048 0.445502371
vt 0.674886048 0.0168162379
vt 0.647661328 0.0168162361
vt 0.647661328 0.445502341
vt 0.674886048 0.445502371
vt 0.674886048 0.0168162379
vt 0.58600086 0.0819400027
vt 0.541553676 0.0819399953
vt 0.541553676 0.146156013
vt 0.5860008 0.146155953
vt 0.5860008 0.0819399953
vt 0.541553676 0.0819399953
vt 0.541553676 0.146156013
vt 0.5860008 0.146156013
vt 0.647661209 0.0168112516
vt 0.647661209 0.445502371
vt 0.674885929 0.445502371
vt 0.674885988 0.0168162361
vt 0.647661209 0.0168112516
vt 0.647661269 0.445502371
vt 0.674886107 0.445502341
vt 0.674886107 0.0168162361
vt 0.988815784 0.267578393
vt 0.973783553 0.267578453
vt 0.973783433 0.659195125
vt 0.988815784 0.659195125
vt 0.973783672 0.659194946
vt 0.988815784 0.659195065
vt 0.988815725 0.267578393
vt 0.973783553 0.267578274
vt 0.966268897 0.267578334
vt 0.944435298 0.267578393
vt 0.944435418 0.659195125
vt 0.966268957 0.659195125
vt 0.944435298 0.659195065
vt 0.966268897 0.659195185
vt 0.966268897 0.267578334
vt 0.944435358 0.267578244
vt 0.966268897 0.267578334
vt 0.966268897 0.659195185
vt 0.973783433 0.659195065
vt 0.973783374 0.267578214
vt 0.936920762 0.267578393
vt 0.936920762 0.659195125
vt 0.944435418 0.659195125
vt 0.944435298 0.267578393
vt 0.936920941 0.267578334
vt 0.936921 0.659195185
vt 0.944435298 0.659195065
vt 0.944435358 0.267578244
vt 0.966268897 0.267578334
vt 0.966268957 0.659195125
vt 0.973783374 0.659195125
vt 0.973783374 0.267578393
vt 0.620280981 0.445502341
vt 0.648055077 0.445502371
vt 0.648055077 0.0168154556
vt 0.620280981 0.0168154277
vt 0.620280981 0.445502341
vt 0.648055077 0.445502371
vt 0.648055077 0.0168154556
vt 0.620280981 0.0168154277
vt 0.620280862 0.0168144517
vt 0.620280862 0.445502371
vt 0.648055017 0.445502341
vt 0.648055017 0.0168154277
vt 0.620280981 0.0168144517
vt 0.620280981 0.445502371
vt 0.648055196 0.445502341
vt 0.648055196 0.0168154277
vt 0.988815784 0.267578393
vt 0.973783553 0.267578453
vt 0.973783433 0.659195125
vt 0.988815784 0.659195125
vt 0.973783672 0.659194946
vt 0.988815784 0.659195065
vt 0.988815725 0.267578393
vt 0.973783553 0.267578274
vt 0.966268897 0.267578334
vt 0.944435298 0.267578393
vt 0.944435418 0.659195125
vt 0.966268957 0.659195125
vt 0.944435298 0.659195065
vt 0.966268897 0.659195185
vt 0.966268897 0.267578334
vt 0.944435358 0.267578244
vt 0.966268897 0.267578334
vt 0.966268897 0.659195185
vt 0.973783433 0.659195065
vt 0.973783374 0.267578214
vt 0.936920762 0.267578393
vt 0.936920762 0.659195125
vt 0.944435418 0.659195125
vt 0.944435298 0.267578393
vt 0.936920941 0.267578334
vt 0.936921 0.659195185
vt 0.944435298 0.659195065
vt 0.944435358 0.267578244
vt 0.966268897 0.267578334
vt 0.966268957 0.659195125
vt 0.973783374 0.659195125
vt 0.973783374 0.267578393
vn -0 1 0
vn -0 1 0
vn -0 1 0
vn -0 1 0
vn -0 -1 0
vn -0 -1 0
vn -0 -1 0
vn -0 -1 0
vn -0 0 -1
vn -0 0 -1
vn -0 0 -1
vn -0 0 -1
vn -0 0 1
vn -0 0 1
vn -0 0 1
vn -0 0 1
vn -0 1 0
vn -0 1 0
vn -0 1 0
vn -0 1 0
vn -0 -1 0
vn -0 -1 0
vn -0 -1 0
vn -0 -1 0
vn -0 0 -1
vn -0 0 -1
vn -0 0 -1
vn -0 0 -1
vn -0 0 1
vn -0 0 1
vn -0 0 1
vn -0 0 1
vn -0 1 0
vn -0 1 0
vn -0 1 0
vn -0 1 0
vn -0 -1 0
vn -0 -1 0
vn -0 -1 0
vn -0 -1 0
vn -0 0 -1
vn -0 0 -1
vn -0 0 -1
vn -0 0 -1
vn -0 0 1
vn -0 0 1
vn -0 0 1
vn -0 0 1
vn -0 0.664344847 0.747426212
vn -0 0.664344907 0.747426212
vn -0 0.664344907 0.747426212
vn -0 0.664344966 0.747426152
vn -0 0.664345622 -0.747425497
vn -0 0.664345622 -0.747425497
vn -0 0.664345562 -0.747425616
vn -0 0.664345622 -0.747425497
vn -0 -0.664344966 0.747426152
vn -0 -0.664344907 0.747426212
vn -0 -0.664344907 0.747426212
vn -0 -0.664344847 0.747426212
vn -0 -0.664345622 -0.747425497
vn -0 -0.664345562 -0.747425616
vn -0 -0.664345622 -0.747425497
vn -0 -0.664345622 -0.747425497
vn 1 0 0
vn 1 0 0
vn 1 0 0
vn 1 0 0
vn -1 0 0
vn -1 0 0
vn -1 0 0
vn -1 0 0
vn -1 0 0
vn -1 0 0
vn -1 0 0
vn -1 0 0
vn 1 0 0
vn 1 0 0
vn 1 0 0
vn 1 0 0
vn -0 -1 0
vn -0 -1 0
vn -0 -1 0
vn -0 -1 0
vn -0 1 0
vn -0 1 0
vn -0 1 0
vn -0 1 0
vn -0 0 1
vn -0 0 1
vn -0 0 1
vn -0 0 1
vn -0 0 -1
vn -0 0 -1
vn -0 0 -1
vn -0 0 -1
vn -0 -0.664344847 -0.747426212
vn -0 -0.664344907 -0.747426212
vn -0 -0.664344907 -0.747426212
vn -0 -0.664344966 -0.747426152
vn -0 -0.664345622 0.747425497
vn -0 -0.664345622 0.747425497
vn -0 -0.664345562 0.747425616
vn -0 -0.664345622 0.747425497
vn -0 0.664344966 -0.747426152
vn -0 0.664344907 -0.747426212
vn -0 0.664344907 -0.747426212
vn -0 0.664344847 -0.747426212
vn -0 0.664345622 0.747425497
vn -0 0.664345562 0.747425616
vn -0 0.664345622 0.747425497
vn -0 0.664345622 0.747425497
g LumberLadderMiddle_0
f 3/3/3 2/2/2 1/1/1
f 4/4/4 3/3/3 1/1/1
f 7/7/7 6/6/6 5/5/5
f 8/8/8 7/7/7 5/5/5
f 11/11/11 10/10/10 9/9/9
f 12/12/12 11/11/11 9/9/9
f 15/15/15 14/14/14 13/13/13
f 16/16/16 15/15/15 13/13/13
f 19/19/19 18/18/18 17/17/17
f 20/20/20 19/19/19 17/17/17
f 23/23/23 22/22/22 21/21/21
f 24/24/24 23/23/23 21/21/21
f 27/27/27 26/26/26 25/25/25
f 28/28/28 27/27/27 25/25/25
f 31/31/31 30/30/30 29/29/29
f 32/32/32 31/31/31 29/29/29
f 35/35/35 34/34/34 33/33/33
f 36/36/36 35/35/35 33/33/33
f 39/39/39 38/38/38 37/37/37
f 40/40/40 39/39/39 37/37/37
f 43/43/43 42/42/42 41/41/41
f 44/44/44 43/43/43 41/41/41
f 47/47/47 46/46/46 45/45/45
f 48/48/48 47/47/47 45/45/45
f 51/51/51 50/50/50 49/49/49
f 52/52/52 51/51/51 49/49/49
f 55/55/55 54/54/54 53/53/53
f 56/56/56 55/55/55 53/53/53
f 59/59/59 58/58/58 57/57/57
f 60/60/60 59/59/59 57/57/57
f 63/63/63 62/62/62 61/61/61
f 64/64/64 63/63/63 61/61/61
f 67/67/67 66/66/66 65/65/65
f 68/68/68 67/67/67 65/65/65
f 71/71/71 70/70/70 69/69/69
f 72/72/72 71/71/71 69/69/69
f 75/75/75 74/74/74 73/73/73
f 76/76/76 75/75/75 73/73/73
f 79/79/79 78/78/78 77/77/77
f 80/80/80 79/79/79 77/77/77
f 83/83/83 82/82/82 81/81/81
f 84/84/84 83/83/83 81/81/81
f 87/87/87 86/86/86 85/85/85
f 88/88/88 87/87/87 85/85/85
f 91/91/91 90/90/90 89/89/89
f 92/92/92 91/91/91 89/89/89
f 95/95/95 94/94/94 93/93/93
f 96/96/96 95/95/95 93/93/93
f 99/99/99 98/98/98 97/97/97
f 100/100/100 99/99/99 97/97/97
f 103/103/103 102/102/102 101/101/101
f 104/104/104 103/103/103 101/101/101
f 107/107/107 106/106/106 105/105/105
f 108/108/108 107/107/107 105/105/105
f 111/111/111 110/110/110 109/109/109
f 112/112/112 111/111/111 109/109/109
