g X_Wall
v 0.5 -0.5 0.125
v 0.5 0.5 0.125
v 0.5 0.5 -0.125
v 0.5 -0.5 -0.125
v 0.125 -0.5 0.5
v 0.125 0.5 0.5
v 0.125 0.5 0.25
v 0.125 -0.5 0.25
v 0.25 -0.5 0.125
v 0.5 -0.5 0.125
v 0.5 -0.5 -0.125
v 0.25 -0.5 -0.125
v 0.125 -0.5 0.125
v 0.125 -0.5 -0.125
v 0.25 -0.5 -0.125
v 0.5 -0.5 -0.125
v 0.5 0.5 -0.125
v 0.25 0.5 -0.125
v 0.25 0.5 -0.125
v 0.5 0.5 -0.125
v 0.5 0.5 0.125
v 0.25 0.5 0.125
v 0.125 0.5 -0.125
v 0.125 0.5 0.125
v 0.25 0.5 0.125
v 0.5 0.5 0.125
v 0.5 -0.5 0.125
v 0.25 -0.5 0.125
v 0.125 0.5 -0.25
v 0.125 0.5 -0.5
v 0.125 -0.5 -0.5
v 0.125 -0.5 -0.25
v 0.125 -0.5 -0.125
v 0.15625 -0.5 -0.25
v 0.125 -0.5 -0.25
v 0.15625 -0.5 -0.15625
v 0.25 -0.5 -0.125
v 0.25 -0.5 -0.15625
v 0.125 0.5 -0.25
v 0.15625 0.5 -0.25
v 0.15625 0.5 -0.15625
v 0.125 0.5 -0.125
v 0.25 0.5 -0.15625
v 0.25 0.5 -0.125
v 0.125 -0.5 0.125
v 0.25 -0.5 0.15625
v 0.25 -0.5 0.125
v 0.15625 -0.5 0.15625
v 0.125 -0.5 0.25
v 0.15625 -0.5 0.25
v 0.25 0.5 0.125
v 0.25 0.5 0.15625
v 0.15625 0.5 0.15625
v 0.125 0.5 0.125
v 0.15625 0.5 0.25
v 0.125 0.5 0.25
v -0.5 -0.5 -0.125
v -0.5 0.5 -0.125
v -0.5 0.5 0.125
v -0.5 -0.5 0.125
v -0.125 -0.5 -0.5
v -0.125 0.5 -0.5
v -0.125 0.5 -0.25
v -0.125 -0.5 -0.25
v -0.25 -0.5 -0.125
v -0.5 -0.5 -0.125
v -0.5 -0.5 0.125
v -0.25 -0.5 0.125
v -0.125 -0.5 -0.125
v -0.125 -0.5 0.125
v -0.25 -0.5 0.125
v -0.5 -0.5 0.125
v -0.5 0.5 0.125
v -0.25 0.5 0.125
v -0.25 0.5 0.125
v -0.5 0.5 0.125
v -0.5 0.5 -0.125
v -0.25 0.5 -0.125
v -0.125 0.5 0.125
v -0.125 0.5 -0.125
v -0.25 0.5 -0.125
v -0.5 0.5 -0.125
v -0.5 -0.5 -0.125
v -0.25 -0.5 -0.125
v -0.125 0.5 0.25
v -0.125 0.5 0.5
v -0.125 -0.5 0.5
v -0.125 -0.5 0.25
v -0.125 -0.5 0.125
v -0.15625 -0.5 0.25
v -0.125 -0.5 0.25
v -0.15625 -0.5 0.15625
v -0.25 -0.5 0.125
v -0.25 -0.5 0.15625
v -0.125 0.5 0.25
v -0.15625 0.5 0.25
v -0.15625 0.5 0.15625
v -0.125 0.5 0.125
v -0.25 0.5 0.15625
v -0.25 0.5 0.125
v -0.125 -0.5 -0.125
v -0.25 -0.5 -0.15625
v -0.25 -0.5 -0.125
v -0.15625 -0.5 -0.15625
v -0.125 -0.5 -0.25
v -0.15625 -0.5 -0.25
v -0.25 0.5 -0.125
v -0.25 0.5 -0.15625
v -0.15625 0.5 -0.15625
v -0.125 0.5 -0.125
v -0.15625 0.5 -0.25
v -0.125 0.5 -0.25
v 0.125 -0.5 0.5
v -0.125 -0.5 0.5
v -0.125 0.5 0.5
v 0.125 0.5 0.5
v 0.125 0.5 -0.5
v -0.125 0.5 -0.5
v -0.125 -0.5 -0.5
v 0.125 -0.5 -0.5
v 0.125 0.5 -0.25
v -0.125 0.5 -0.5
v 0.125 0.5 -0.5
v -0.125 0.5 -0.25
v 0.125 0.5 -0.125
v -0.125 0.5 -0.125
v 0.125 0.5 0.125
v -0.125 0.5 0.125
v 0.125 0.5 0.25
v -0.125 0.5 0.25
v 0.125 0.5 0.5
v -0.125 0.5 0.5
v 0.125 -0.5 -0.5
v -0.125 -0.5 -0.5
v -0.125 -0.5 -0.25
v 0.125 -0.5 -0.25
v -0.125 -0.5 -0.125
v 0.125 -0.5 -0.125
v -0.125 -0.5 0.125
v 0.125 -0.5 0.125
v -0.125 -0.5 0.25
v 0.125 -0.5 0.25
v -0.125 -0.5 0.5
v 0.125 -0.5 0.5
v 0.15625 0.5 0.15625
v 0.15625 -0.5 0.15625
v 0.15625 -0.5 0.25
v 0.15625 0.5 0.25
v 0.25 0.5 0.15625
v 0.25 -0.5 0.15625
v 0.15625 -0.5 0.15625
v 0.15625 0.5 0.15625
v 0.125 -0.5 0.25
v 0.125 0.5 0.25
v 0.15625 0.5 0.25
v 0.15625 -0.5 0.25
v 0.25 0.5 0.125
v 0.25 -0.5 0.125
v 0.25 -0.5 0.15625
v 0.25 0.5 0.15625
v 0.15625 0.5 -0.15625
v 0.15625 -0.5 -0.15625
v 0.25 -0.5 -0.15625
v 0.25 0.5 -0.15625
v 0.15625 0.5 -0.25
v 0.15625 -0.5 -0.25
v 0.15625 -0.5 -0.15625
v 0.15625 0.5 -0.15625
v 0.25 -0.5 -0.125
v 0.25 0.5 -0.125
v 0.25 0.5 -0.15625
v 0.25 -0.5 -0.15625
v 0.125 0.5 -0.25
v 0.125 -0.5 -0.25
v 0.15625 -0.5 -0.25
v 0.15625 0.5 -0.25
v -0.15625 0.5 0.15625
v -0.15625 -0.5 0.15625
v -0.25 -0.5 0.15625
v -0.25 0.5 0.15625
v -0.15625 0.5 0.25
v -0.15625 -0.5 0.25
v -0.15625 -0.5 0.15625
v -0.15625 0.5 0.15625
v -0.25 -0.5 0.125
v -0.25 0.5 0.125
v -0.25 0.5 0.15625
v -0.25 -0.5 0.15625
v -0.125 0.5 0.25
v -0.125 -0.5 0.25
v -0.15625 -0.5 0.25
v -0.15625 0.5 0.25
v -0.15625 0.5 -0.15625
v -0.15625 -0.5 -0.15625
v -0.15625 -0.5 -0.25
v -0.15625 0.5 -0.25
v -0.25 0.5 -0.15625
v -0.25 -0.5 -0.15625
v -0.15625 -0.5 -0.15625
v -0.15625 0.5 -0.15625
v -0.125 -0.5 -0.25
v -0.125 0.5 -0.25
v -0.15625 0.5 -0.25
v -0.15625 -0.5 -0.25
v -0.25 0.5 -0.125
v -0.25 -0.5 -0.125
v -0.25 -0.5 -0.15625
v -0.25 0.5 -0.15625
vt 0.874228954 0.203921691
vt 0.874228954 0.681308746
vt 0.993562698 0.681308746
vt 0.993562698 0.203921691
vt 0.852690876 0.0351903364
vt 0.852690876 0.0648965836
vt 0.860117435 0.0648965836
vt 0.860117435 0.0351903364
vt 0.873943388 0.561499357
vt 0.873943388 0.68083328
vt 0.993277133 0.68083334
vt 0.993277073 0.561499298
vt 0.873943329 0.501832247
vt 0.993277073 0.501832366
vt 0.852690876 0.0648965836
vt 0.860117435 0.0648965836
vt 0.860117435 0.0351903476
vt 0.852690876 0.0351903476
vt 0.993277073 0.561499298
vt 0.993277133 0.68083334
vt 0.873943388 0.68083328
vt 0.873943388 0.561499357
vt 0.993277073 0.501832366
vt 0.873943329 0.501832247
vt 0.852690816 0.0648965836
vt 0.860117435 0.0648965836
vt 0.860117435 0.0351903364
vt 0.852690816 0.0351903364
vt 0.852690816 0.0648965836
vt 0.860117555 0.0648965836
vt 0.860117555 0.0351903364
vt 0.852690816 0.0351903364
vt 0.688203394 0.794008374
vt 0.607765496 0.814117908
vt 0.607765615 0.794008374
vt 0.668093741 0.814117849
vt 0.688203156 0.874446034
vt 0.668093741 0.874446034
vt 0.607765615 0.794008374
vt 0.607765496 0.814117908
vt 0.668093741 0.814117849
vt 0.688203394 0.794008374
vt 0.668093741 0.874446034
vt 0.688203156 0.874446034
vt 0.688203275 0.794008374
vt 0.607765615 0.814117968
vt 0.607765496 0.794008493
vt 0.668093741 0.814117968
vt 0.688203156 0.874446034
vt 0.668093741 0.874446034
vt 0.607765496 0.794008493
vt 0.607765615 0.814117968
vt 0.668093741 0.814117968
vt 0.688203275 0.794008374
vt 0.668093741 0.874446034
vt 0.688203156 0.874446034
vt 0.874228835 0.203921691
vt 0.874228835 0.681308746
vt 0.993562818 0.681308746
vt 0.993562818 0.203921691
vt 0.852691054 0.0351903364
vt 0.852691054 0.0648965836
vt 0.860117495 0.0648965836
vt 0.860117495 0.0351903364
vt 0.992570937 0.321463287
vt 0.992571056 0.203714177
vt 0.873886049 0.203714177
vt 0.87388593 0.321463287
vt 0.992570937 0.38080591
vt 0.87388593 0.38080591
vt 0.860117555 0.0351903364
vt 0.852690935 0.0351903364
vt 0.852690935 0.0648965836
vt 0.860117555 0.0648965836
vt 0.87388593 0.321463287
vt 0.873886049 0.203714177
vt 0.992571056 0.203714177
vt 0.992570937 0.321463287
vt 0.87388593 0.38080591
vt 0.992570937 0.38080591
vt 0.860117555 0.0351903476
vt 0.852690816 0.0351903476
vt 0.852690816 0.0648965836
vt 0.860117555 0.0648965836
vt 0.852690816 0.0648965836
vt 0.860117495 0.0648965836
vt 0.860117495 0.0351903364
vt 0.852690816 0.0351903364
vt 0.688203514 0.794008493
vt 0.607765496 0.814117849
vt 0.607765496 0.794008374
vt 0.668093979 0.814117968
vt 0.688203514 0.874446154
vt 0.668093741 0.874446034
vt 0.607765496 0.794008374
vt 0.607765496 0.814117849
vt 0.668093979 0.814117968
vt 0.688203514 0.794008493
vt 0.668093741 0.874446034
vt 0.688203514 0.874446154
vt 0.688203275 0.794008374
vt 0.607765496 0.814117849
vt 0.607765496 0.794008374
vt 0.668093741 0.814117849
vt 0.688203156 0.874446273
vt 0.668093741 0.874446034
vt 0.607765496 0.794008374
vt 0.607765496 0.814117849
vt 0.668093741 0.814117849
vt 0.688203275 0.794008374
vt 0.668093741 0.874446034
vt 0.688203156 0.874446273
vt 0.993562579 0.203921691
vt 0.874229074 0.203921691
vt 0.874229074 0.681308746
vt 0.993562579 0.681308746
vt 0.993562698 0.681308746
vt 0.874228835 0.681308746
vt 0.874228835 0.203921691
vt 0.993562698 0.203921691
vt 0.992929935 0.560858667
vt 0.87476635 0.68029654
vt 0.992929935 0.68029654
vt 0.87476635 0.560858667
vt 0.992929935 0.501139641
vt 0.87476635 0.501139641
vt 0.992929935 0.381701648
vt 0.87476635 0.381701648
vt 0.992929935 0.321982741
vt 0.87476635 0.321982741
vt 0.992929935 0.203673616
vt 0.87476635 0.203673616
vt 0.992929935 0.68029654
vt 0.87476635 0.68029654
vt 0.87476635 0.560858667
vt 0.992929935 0.560858667
vt 0.87476635 0.501139641
vt 0.992929935 0.501139641
vt 0.87476635 0.381701648
vt 0.992929935 0.381701648
vt 0.87476635 0.321982741
vt 0.992929935 0.321982741
vt 0.87476635 0.203673616
vt 0.992929935 0.203673616
vt 0.809206724 0.6814695
vt 0.809206724 0.204134047
vt 0.853956819 0.204134047
vt 0.853956819 0.6814695
vt 0.764456391 0.6814695
vt 0.764456391 0.204134047
vt 0.809206724 0.204134047
vt 0.809206724 0.6814695
vt 0.868873477 0.204134047
vt 0.868873477 0.6814695
vt 0.853956819 0.6814695
vt 0.853956819 0.204134047
vt 0.749539733 0.6814695
vt 0.749539733 0.204134047
vt 0.764456391 0.204134047
vt 0.764456391 0.6814695
vt 0.809206724 0.6814695
vt 0.809206724 0.204134047
vt 0.853956819 0.204134047
vt 0.853956819 0.6814695
vt 0.764456391 0.6814695
vt 0.764456391 0.204134047
vt 0.809206724 0.204134047
vt 0.809206724 0.6814695
vt 0.868873477 0.204134047
vt 0.868873477 0.6814695
vt 0.853956819 0.6814695
vt 0.853956819 0.204134047
vt 0.749539733 0.6814695
vt 0.749539733 0.204134047
vt 0.764456391 0.204134047
vt 0.764456391 0.6814695
vt 0.809206724 0.6814695
vt 0.809206724 0.204134047
vt 0.853956819 0.204134047
vt 0.853956819 0.6814695
vt 0.764456391 0.6814695
vt 0.764456391 0.204134047
vt 0.809206724 0.204134047
vt 0.809206724 0.6814695
vt 0.868873477 0.204134047
vt 0.868873477 0.6814695
vt 0.853956819 0.6814695
vt 0.853956819 0.204134047
vt 0.749539733 0.6814695
vt 0.749539733 0.204134047
vt 0.764456391 0.204134047
vt 0.764456391 0.6814695
vt 0.809206724 0.6814695
vt 0.809206724 0.204134047
vt 0.853956819 0.204134047
vt 0.853956819 0.6814695
vt 0.764456391 0.6814695
vt 0.764456391 0.204134047
vt 0.809206724 0.204134047
vt 0.809206724 0.6814695
vt 0.868873477 0.204134047
vt 0.868873477 0.6814695
vt 0.853956819 0.6814695
vt 0.853956819 0.204134047
vt 0.749539733 0.6814695
vt 0.749539733 0.204134047
vt 0.764456391 0.204134047
vt 0.764456391 0.6814695
vn 1 0 0
vn 1 0 0
vn 1 0 0
vn 1 0 0
vn 1 0 0
vn 1 0 0
vn 1 0 0
vn 1 0 0
vn -0 -1 0
vn -0 -1 0
vn -0 -1 0
vn -0 -1 0
vn -0 -1 0
vn -0 -1 0
vn -0 0 -1
vn -0 0 -1
vn -0 0 -1
vn -0 0 -1
vn -0 1 0
vn -0 1 0
vn -0 1 0
vn -0 1 0
vn -0 1 0
vn -0 1 0
vn -0 0 1
vn -0 0 1
vn -0 0 1
vn -0 0 1
vn 1 0 0
vn 1 0 0
vn 1 0 0
vn 1 0 0
vn -0 -1 0
vn -0 -1 0
vn -0 -1 0
vn -0 -1 0
vn -0 -1 0
vn -0 -1 0
vn -0 1 0
vn -0 1 0
vn -0 1 0
vn -0 1 0
vn -0 1 0
vn -0 1 0
vn -0 -1 0
vn -0 -1 0
vn -0 -1 0
vn -0 -1 0
vn -0 -1 0
vn -0 -1 0
vn -0 1 0
vn -0 1 0
vn -0 1 0
vn -0 1 0
vn -0 1 0
vn -0 1 0
vn -1 0 0
vn -1 0 0
vn -1 0 0
vn -1 0 0
vn -1 0 0
vn -1 0 0
vn -1 0 0
vn -1 0 0
vn -0 -1 0
vn -0 -1 0
vn -0 -1 0
vn -0 -1 0
vn -0 -1 0
vn -0 -1 0
vn -0 0 1
vn -0 0 1
vn -0 0 1
vn -0 0 1
vn -0 1 0
vn -0 1 0
vn -0 1 0
vn -0 1 0
vn -0 1 0
vn -0 1 0
vn -0 0 -1
vn -0 0 -1
vn -0 0 -1
vn -0 0 -1
vn -1 0 0
vn -1 0 0
vn -1 0 0
vn -1 0 0
vn -0 -1 0
vn -0 -1 0
vn -0 -1 0
vn -0 -1 0
vn -0 -1 0
vn -0 -1 0
vn -0 1 0
vn -0 1 0
vn -0 1 0
vn -0 1 0
vn -0 1 0
vn -0 1 0
vn -0 -1 0
vn -0 -1 0
vn -0 -1 0
vn -0 -1 0
vn -0 -1 0
vn -0 -1 0
vn -0 1 0
vn -0 1 0
vn -0 1 0
vn -0 1 0
vn -0 1 0
vn -0 1 0
vn -0 0 1
vn -0 0 1
vn -0 0 1
vn -0 0 1
vn -0 0 -1
vn -0 0 -1
vn -0 0 -1
vn -0 0 -1
vn -0 1 0
vn -0 1 0
vn -0 1 0
vn -0 1 0
vn -0 1 0
vn -0 1 0
vn -0 1 0
vn -0 1 0
vn -0 1 0
vn -0 1 0
vn -0 1 0
vn -0 1 0
vn -0 -1 0
vn -0 -1 0
vn -0 -1 0
vn -0 -1 0
vn -0 -1 0
vn -0 -1 0
vn -0 -1 0
vn -0 -1 0
vn -0 -1 0
vn -0 -1 0
vn -0 -1 0
vn -0 -1 0
vn 1 0 0
vn 1 0 0
vn 1 0 0
vn 1 0 0
vn -0 0 1
vn -0 0 1
vn -0 0 1
vn -0 0 1
vn -0 0 1
vn -0 0 1
vn -0 0 1
vn -0 0 1
vn 1 0 0
vn 1 0 0
vn 1 0 0
vn 1 0 0
vn -0 0 -1
vn -0 0 -1
vn -0 0 -1
vn -0 0 -1
vn 1 0 0
vn 1 0 0
vn 1 0 0
vn 1 0 0
vn 1 0 0
vn 1 0 0
vn 1 0 0
vn 1 0 0
vn -0 0 -1
vn -0 0 -1
vn -0 0 -1
vn -0 0 -1
vn -0 0 1
vn -0 0 1
vn -0 0 1
vn -0 0 1
vn -1 0 0
vn -1 0 0
vn -1 0 0
vn -1 0 0
vn -1 0 0
vn -1 0 0
vn -1 0 0
vn -1 0 0
vn -0 0 1
vn -0 0 1
vn -0 0 1
vn -0 0 1
vn -1 0 0
vn -1 0 0
vn -1 0 0
vn -1 0 0
vn -0 0 -1
vn -0 0 -1
vn -0 0 -1
vn -0 0 -1
vn -0 0 -1
vn -0 0 -1
vn -0 0 -1
vn -0 0 -1
vn -1 0 0
vn -1 0 0
vn -1 0 0
vn -1 0 0
g X_Wall_0
f 3/3/3 2/2/2 1/1/1
f 4/4/4 3/3/3 1/1/1
f 7/7/7 6/6/6 5/5/5
f 8/8/8 7/7/7 5/5/5
f 11/11/11 10/10/10 9/9/9
f 12/12/12 11/11/11 9/9/9
f 12/12/12 9/9/9 13/13/13
f 14/14/14 12/12/12 13/13/13
f 17/17/17 16/16/16 15/15/15
f 18/18/18 17/17/17 15/15/15
f 21/21/21 20/20/20 19/19/19
f 22/22/22 21/21/21 19/19/19
f 22/22/22 19/19/19 23/23/23
f 24/24/24 22/22/22 23/23/23
f 27/27/27 26/26/26 25/25/25
f 28/28/28 27/27/27 25/25/25
f 31/31/31 30/30/30 29/29/29
f 32/32/32 31/31/31 29/29/29
f 35/35/35 34/34/34 33/33/33
f 34/34/34 36/36/36 33/33/33
f 33/33/33 36/36/36 37/37/37
f 36/36/36 38/38/38 37/37/37
f 41/41/41 40/40/40 39/39/39
f 42/42/42 41/41/41 39/39/39
f 43/43/43 41/41/41 42/42/42
f 44/44/44 43/43/43 42/42/42
f 47/47/47 46/46/46 45/45/45
f 46/46/46 48/48/48 45/45/45
f 45/45/45 48/48/48 49/49/49
f 48/48/48 50/50/50 49/49/49
f 53/53/53 52/52/52 51/51/51
f 54/54/54 53/53/53 51/51/51
f 55/55/55 53/53/53 54/54/54
f 56/56/56 55/55/55 54/54/54
f 59/59/59 58/58/58 57/57/57
f 60/60/60 59/59/59 57/57/57
f 63/63/63 62/62/62 61/61/61
f 64/64/64 63/63/63 61/61/61
f 67/67/67 66/66/66 65/65/65
f 68/68/68 67/67/67 65/65/65
f 68/68/68 65/65/65 69/69/69
f 70/70/70 68/68/68 69/69/69
f 73/73/73 72/72/72 71/71/71
f 74/74/74 73/73/73 71/71/71
f 77/77/77 76/76/76 75/75/75
f 78/78/78 77/77/77 75/75/75
f 78/78/78 75/75/75 79/79/79
f 80/80/80 78/78/78 79/79/79
f 83/83/83 82/82/82 81/81/81
f 84/84/84 83/83/83 81/81/81
f 87/87/87 86/86/86 85/85/85
f 88/88/88 87/87/87 85/85/85
f 91/91/91 90/90/90 89/89/89
f 90/90/90 92/92/92 89/89/89
f 89/89/89 92/92/92 93/93/93
f 92/92/92 94/94/94 93/93/93
f 97/97/97 96/96/96 95/95/95
f 98/98/98 97/97/97 95/95/95
f 99/99/99 97/97/97 98/98/98
f 100/100/100 99/99/99 98/98/98
f 103/103/103 102/102/102 101/101/101
f 102/102/102 104/104/104 101/101/101
f 101/101/101 104/104/104 105/105/105
f 104/104/104 106/106/106 105/105/105
f 109/109/109 108/108/108 107/107/107
f 110/110/110 109/109/109 107/107/107
f 111/111/111 109/109/109 110/110/110
f 112/112/112 111/111/111 110/110/110
f 115/115/115 114/114/114 113/113/113
f 116/116/116 115/115/115 113/113/113
f 119/119/119 118/118/118 117/117/117
f 120/120/120 119/119/119 117/117/117
f 123/123/123 122/122/122 121/121/121
f 122/122/122 124/124/124 121/121/121
f 121/121/121 124/124/124 125/125/125
f 124/124/124 126/126/126 125/125/125
f 125/125/125 126/126/126 127/127/127
f 126/126/126 128/128/128 127/127/127
f 127/127/127 128/128/128 129/129/129
f 128/128/128 130/130/130 129/129/129
f 129/129/129 130/130/130 131/131/131
f 130/130/130 132/132/132 131/131/131
f 135/135/135 134/134/134 133/133/133
f 136/136/136 135/135/135 133/133/133
f 137/137/137 135/135/135 136/136/136
f 138/138/138 137/137/137 136/136/136
f 139/139/139 137/137/137 138/138/138
f 140/140/140 139/139/139 138/138/138
f 141/141/141 139/139/139 140/140/140
f 142/142/142 141/141/141 140/140/140
f 143/143/143 141/141/141 142/142/142
f 144/144/144 143/143/143 142/142/142
f 147/147/147 146/146/146 145/145/145
f 148/148/148 147/147/147 145/145/145
f 151/151/151 150/150/150 149/149/149
f 152/152/152 151/151/151 149/149/149
f 155/155/155 154/154/154 153/153/153
f 156/156/156 155/155/155 153/153/153
f 159/159/159 158/158/158 157/157/157
f 160/160/160 159/159/159 157/157/157
f 163/163/163 162/162/162 161/161/161
f 164/164/164 163/163/163 161/161/161
f 167/167/167 166/166/166 165/165/165
f 168/168/168 167/167/167 165/165/165
f 171/171/171 170/170/170 169/169/169
f 172/172/172 171/171/171 169/169/169
f 175/175/175 174/174/174 173/173/173
f 176/176/176 175/175/175 173/173/173
f 179/179/179 178/178/178 177/177/177
f 180/180/180 179/179/179 177/177/177
f 183/183/183 182/182/182 181/181/181
f 184/184/184 183/183/183 181/181/181
f 187/187/187 186/186/186 185/185/185
f 188/188/188 187/187/187 185/185/185
f 191/191/191 190/190/190 189/189/189
f 192/192/192 191/191/191 189/189/189
f 195/195/195 194/194/194 193/193/193
f 196/196/196 195/195/195 193/193/193
f 199/199/199 198/198/198 197/197/197
f 200/200/200 199/199/199 197/197/197
f 203/203/203 202/202/202 201/201/201
f 204/204/204 203/203/203 201/201/201
f 207/207/207 206/206/206 205/205/205
f 208/208/208 207/207/207 205/205/205
