g Wall
v -0.5 -0.5 0.125
v -0.5 0.5 0.125
v 0.5 0.5 0.125
v 0.5 -0.5 0.125
v -0.5 0.5 0.125
v -0.5 0.5 -0.125
v 0.5 0.5 -0.125
v 0.5 0.5 0.125
v -0.5 0.5 -0.125
v -0.5 -0.5 -0.125
v 0.5 -0.5 -0.125
v 0.5 0.5 -0.125
v -0.5 -0.5 -0.125
v -0.5 -0.5 0.125
v 0.5 -0.5 0.125
v 0.5 -0.5 -0.125
v 0.5 -0.5 0.125
v 0.5 0.5 0.125
v 0.5 0.5 -0.125
v 0.5 -0.5 -0.125
v -0.5 -0.5 -0.125
v -0.5 0.5 -0.125
v -0.5 0.5 0.125
v -0.5 -0.5 0.125
vt 0.818818569 0.0352442078
vt 0.818818569 0.0647557601
vt 0.8483302 0.0647557601
vt 0.8483302 0.0352442078
vt 0.87362957 0.68032515
vt 0.992323339 0.68032515
vt 0.992323518 0.205550045
vt 0.87362957 0.20555003
vt 0.818818569 0.0647557601
vt 0.84833014 0.0647557601
vt 0.84833014 0.0352442078
vt 0.818818569 0.0352442078
vt 0.992323339 0.68032515
vt 0.87362957 0.68032515
vt 0.87362957 0.20555003
vt 0.992323518 0.205550045
vt 0.873900175 0.203973532
vt 0.873900175 0.681308746
vt 0.9932338 0.681308746
vt 0.9932338 0.203973532
vt 0.873900175 0.203973532
vt 0.873900175 0.681308746
vt 0.9932338 0.681308746
vt 0.9932338 0.203973532
vn -0 0 1
vn -0 0 1
vn -0 0 1
vn -0 0 1
vn -0 1 0
vn -0 1 0
vn -0 1 0
vn -0 1 0
vn -0 0 -1
vn -0 0 -1
vn -0 0 -1
vn -0 0 -1
vn -0 -1 0
vn -0 -1 0
vn -0 -1 0
vn -0 -1 0
vn 1 0 0
vn 1 0 0
vn 1 0 0
vn 1 0 0
vn -1 0 0
vn -1 0 0
vn -1 0 0
vn -1 0 0
g Wall_0
f 3/3/3 2/2/2 1/1/1
f 4/4/4 3/3/3 1/1/1
f 7/7/7 6/6/6 5/5/5
f 8/8/8 7/7/7 5/5/5
f 11/11/11 10/10/10 9/9/9
f 12/12/12 11/11/11 9/9/9
f 15/15/15 14/14/14 13/13/13
f 16/16/16 15/15/15 13/13/13
f 19/19/19 18/18/18 17/17/17
f 20/20/20 19/19/19 17/17/17
f 23/23/23 22/22/22 21/21/21
f 24/24/24 23/23/23 21/21/21
