g MS_RoofPeak
v -0.5 -0.374994963 -0.5
v -0.5 -0.374994963 -0.375
v -0.5 -0.374994963 0.375
v -0.5 -0.374994963 0.375
v -0.5 -0.374994963 0.5
v -0.5 -0.499994963 -0.5
v -0.5 -0.499994963 0.5
v 0.5 -0.374994963 0.5
v 0.5 -0.374994963 -0.375
v 0.5 -0.374994963 -0.5
v 0.5 -0.374994963 0.5
v 0.5 -0.374994963 0.375
v 0.5 -0.374994963 -0.375
v 0.375 -0.374994963 0.5
v -0.375 -0.374994963 0.5
v -0 0.0250050351 0.099999994
v 0.5 -0.374994963 -0.375
v 0.5 -0.374994963 0.375
v 0.099999994 0.0250050351 0
v -0.375 -0.374994963 -0.5
v 0.375 -0.374994963 -0.5
v -0 0.0250050351 -0.099999994
v -0.5 -0.374994963 0.375
v -0.5 -0.374994963 -0.375
v -0.099999994 0.0250050351 0
v -0.5 -0.499994963 0.5
v 0.5 -0.499994963 0.5
v 0.5 -0.499994963 -0.5
v -0.5 -0.499994963 -0.5
v -0.5 -0.499994963 -0.5
v 0.5 -0.499994963 -0.5
v 0.5 -0.374994963 -0.5
v 0.375 -0.374994963 -0.5
v -0.375 -0.374994963 -0.5
v -0.5 -0.374994963 -0.5
v 0.5 -0.374994963 -0.5
v 0.5 -0.499994963 -0.5
v 0.5 -0.499994963 0.5
v 0.5 -0.374994963 0.5
v 0.375 -0.374994963 0.5
v 0.5 -0.374994963 0.5
v 0.5 -0.499994963 0.5
v -0.5 -0.499994963 0.5
v -0.375 -0.374994963 0.5
v -0.5 -0.374994963 0.5
v 0.5 -0.287110984 0.375
v 0.5 -0.287110984 0.5
v 0.125 0.102700882 0.125
v 0.125 0.102700882 0
v 0.125 0.102700882 0.125
v 0.5 -0.287110984 0.5
v 0.375 -0.287110984 0.5
v -0 0.102700882 0.125
v 0.5 -0.374994963 0.375
v 0.5 -0.287110984 0.375
v 0.125 0.102700882 0
v 0.125 0 0
v 0.5 -0.374994963 0.5
v 0.5 -0.287110984 0.5
v 0.5 -0.287110984 0.375
v 0.5 -0.374994963 0.375
v -0 0 0.125
v -0 0.102700882 0.125
v 0.375 -0.287110984 0.5
v 0.375 -0.374994963 0.5
v 0.375 -0.374994963 0.5
v 0.375 -0.287110984 0.5
v 0.5 -0.287110984 0.5
v 0.5 -0.374994963 0.5
v -0.375 -0.287110984 0.5
v -0.5 -0.287110984 0.5
v -0.125 0.102700882 0.125
v -0 0.102700882 0.125
v -0.125 0.102700882 0.125
v -0.5 -0.287110984 0.5
v -0.5 -0.287110984 0.375
v -0.125 0.102700882 0
v -0.375 -0.374994963 0.5
v -0.375 -0.287110984 0.5
v -0 0.102700882 0.125
v -0 0 0.125
v -0.5 -0.374994963 0.5
v -0.5 -0.287110984 0.5
v -0.375 -0.287110984 0.5
v -0.375 -0.374994963 0.5
v -0.125 0 0
v -0.125 0.102700882 0
v -0.5 -0.287110984 0.375
v -0.5 -0.374994963 0.375
v -0.5 -0.374994963 0.375
v -0.5 -0.287110984 0.375
v -0.5 -0.287110984 0.5
v -0.5 -0.374994963 0.5
v 0.375 -0.287110984 -0.5
v 0.5 -0.287110984 -0.5
v 0.125 0.102700882 -0.125
v -0 0.102700882 -0.125
v 0.125 0.102700882 -0.125
v 0.5 -0.287110984 -0.5
v 0.5 -0.287110984 -0.375
v 0.125 0.102700882 0
v 0.375 -0.374994963 -0.5
v 0.375 -0.287110984 -0.5
v -0 0.102700882 -0.125
v -0 0 -0.125
v 0.5 -0.374994963 -0.5
v 0.5 -0.287110984 -0.5
v 0.375 -0.287110984 -0.5
v 0.375 -0.374994963 -0.5
v 0.125 0 0
v 0.125 0.102700882 0
v 0.5 -0.287110984 -0.375
v 0.5 -0.374994963 -0.375
v 0.5 -0.374994963 -0.375
v 0.5 -0.287110984 -0.375
v 0.5 -0.287110984 -0.5
v 0.5 -0.374994963 -0.5
v -0.5 -0.287110984 -0.375
v -0.5 -0.287110984 -0.5
v -0.125 0.102700882 -0.125
v -0.125 0.102700882 0
v -0.125 0.102700882 -0.125
v -0.5 -0.287110984 -0.5
v -0.375 -0.287110984 -0.5
v -0 0.102700882 -0.125
v -0.5 -0.374994963 -0.375
v -0.5 -0.287110984 -0.375
v -0.125 0.102700882 0
v -0.125 0 0
v -0.5 -0.374994963 -0.5
v -0.5 -0.287110984 -0.5
v -0.5 -0.287110984 -0.375
v -0.5 -0.374994963 -0.375
v -0 0 -0.125
v -0 0.102700882 -0.125
v -0.375 -0.287110984 -0.5
v -0.375 -0.374994963 -0.5
v -0.375 -0.374994963 -0.5
v -0.375 -0.287110984 -0.5
v -0.5 -0.287110984 -0.5
v -0.5 -0.374994963 -0.5
v -0.125 0.102700882 0.125
v -0.125 0.180396721 0.125
v 0.125000611 0.180396721 0.125
v 0.125 0.102700882 0.125
v -0.061999511 0.258092523 0.0620001219
v -0.061999511 0.258092523 -0.0620001219
v 0.0620007329 0.258092523 -0.0620001219
v 0.0620007329 0.258092523 0.0620001219
v -0.125 0.180396721 -0.125000611
v -0.125 0.102700882 -0.125
v 0.125 0.102700882 -0.125
v 0.125000611 0.180396721 -0.125000611
v 0.125 0.102700882 0.125
v 0.125000611 0.180396721 0.125
v 0.125000611 0.180396721 -0.125000611
v 0.125 0.102700882 -0.125
v -0.125 0.102700882 -0.125
v -0.125 0.180396721 -0.125000611
v -0.125 0.180396721 0.125
v -0.125 0.102700882 0.125
v -0.125 0.180396721 0.125
v -0.061999511 0.258092523 0.0620001219
v 0.0620007329 0.258092523 0.0620001219
v 0.125000611 0.180396721 0.125
v 0.125000611 0.180396721 0.125
v 0.0620007329 0.258092523 0.0620001219
v 0.0620007329 0.258092523 -0.0620001219
v 0.125000611 0.180396721 -0.125000611
v 0.125000611 0.180396721 -0.125000611
v 0.0620007329 0.258092523 -0.0620001219
v -0.061999511 0.258092523 -0.0620001219
v -0.125 0.180396721 -0.125000611
v -0.125 0.180396721 -0.125000611
v -0.061999511 0.258092523 -0.0620001219
v -0.061999511 0.258092523 0.0620001219
v -0.125 0.180396721 0.125
vt 0.502624154 0.00993460417
vt 0.538820386 0.0099324882
vt 0.755994201 0.00993201137
vt 0.755994201 0.00993201137
vt 0.792193592 0.00993460417
vt 0.50254941 0.0473193526
vt 0.792131007 0.0473193824
vt 0.502624154 0.00993460417
vt 0.755995989 0.00993582606
vt 0.792193592 0.00993460417
vt 0.502624154 0.00993460417
vt 0.538820982 0.00993221998
vt 0.755995989 0.00993582606
vt 0.293382585 0.629433692
vt 0.0212804377 0.62943393
vt 0.159807652 0.780430377
vt 0.293382764 0.629434407
vt 0.0212805569 0.629435241
vt 0.159766525 0.780431926
vt 0.293382406 0.629434884
vt 0.0212806761 0.629434645
vt 0.159621924 0.780427992
vt 0.293382585 0.629434168
vt 0.0212807059 0.629435122
vt 0.159718424 0.780428231
vt 0.949758887 0.0450848937
vt 0.949720979 0.0450848937
vt 0.949720979 0.0451227129
vt 0.949758887 0.0451227129
vt 0.502624154 0.00993460417
vt 0.792193592 0.00993460417
vt 0.792131007 0.0473193824
vt 0.75594002 0.047318399
vt 0.538751781 0.0473208427
vt 0.50254941 0.0473193526
vt 0.792193592 0.00993460417
vt 0.792131007 0.0473193824
vt 0.50254941 0.0473193526
vt 0.502624154 0.00993460417
vt 0.756002605 0.00993391871
vt 0.792193592 0.00993460417
vt 0.792131007 0.0473193824
vt 0.50254941 0.0473193526
vt 0.538819492 0.00993654132
vt 0.502624154 0.00993460417
vt 0.960958481 0.451557755
vt 0.926855743 0.426215917
vt 0.926829755 0.642971694
vt 0.960958481 0.66681695
vt 0.926829755 0.642971694
vt 0.926855743 0.426215917
vt 0.892909706 0.451557517
vt 0.892932057 0.667504251
vt 0.99093473 0.977633357
vt 0.966553807 0.956531465
vt 0.966553807 0.487469226
vt 0.99093473 0.508571208
vt 0.990934968 0.472855479
vt 0.966553807 0.472855479
vt 0.966553807 0.432680666
vt 0.990934968 0.432680666
vt 0.966553807 0.956531465
vt 0.99093473 0.977633357
vt 0.99093473 0.508571208
vt 0.966553807 0.487469226
vt 0.966553807 0.472855479
vt 0.990934968 0.472855479
vt 0.990934968 0.432680666
vt 0.966553807 0.432680666
vt 0.960958481 0.451557755
vt 0.926855743 0.426215917
vt 0.926829755 0.642971694
vt 0.960958481 0.66681695
vt 0.926829755 0.642971694
vt 0.926855743 0.426215917
vt 0.892909706 0.451557517
vt 0.892932057 0.667504251
vt 0.99093473 0.977633357
vt 0.966553807 0.956531465
vt 0.966553807 0.487469226
vt 0.99093473 0.508571208
vt 0.990934968 0.472855479
vt 0.966553807 0.472855479
vt 0.966553807 0.432680666
vt 0.990934968 0.432680666
vt 0.966553807 0.956531465
vt 0.99093473 0.977633357
vt 0.99093473 0.508571208
vt 0.966553807 0.487469226
vt 0.966553807 0.472855479
vt 0.990934968 0.472855479
vt 0.990934968 0.432680666
vt 0.966553807 0.432680666
vt 0.960958481 0.451557755
vt 0.926855743 0.426215917
vt 0.926829755 0.642971694
vt 0.960958481 0.66681695
vt 0.926829755 0.642971694
vt 0.926855743 0.426215917
vt 0.892909706 0.451557517
vt 0.892932057 0.667504251
vt 0.99093473 0.977633357
vt 0.966553807 0.956531465
vt 0.966553807 0.487469226
vt 0.99093473 0.508571208
vt 0.990934968 0.472855479
vt 0.966553807 0.472855479
vt 0.966553807 0.432680666
vt 0.990934968 0.432680666
vt 0.966553807 0.956531465
vt 0.99093473 0.977633357
vt 0.99093473 0.508571208
vt 0.966553807 0.487469226
vt 0.966553807 0.472855479
vt 0.990934968 0.472855479
vt 0.990934968 0.432680666
vt 0.966553807 0.432680666
vt 0.960958481 0.451557755
vt 0.926855743 0.426215917
vt 0.926829755 0.642971694
vt 0.960958481 0.66681695
vt 0.926829755 0.642971694
vt 0.926855743 0.426215917
vt 0.892909706 0.451557517
vt 0.892932057 0.667504251
vt 0.99093473 0.977633357
vt 0.966553807 0.956531465
vt 0.966553807 0.487469226
vt 0.99093473 0.508571208
vt 0.990934968 0.472855479
vt 0.966553807 0.472855479
vt 0.966553807 0.432680666
vt 0.990934968 0.432680666
vt 0.966553807 0.956531465
vt 0.99093473 0.977633357
vt 0.99093473 0.508571208
vt 0.966553807 0.487469226
vt 0.966553807 0.472855479
vt 0.990934968 0.472855479
vt 0.990934968 0.432680666
vt 0.966553807 0.432680666
vt 0.990876317 0.391896605
vt 0.966389894 0.391896844
vt 0.966390133 0.474050313
vt 0.990876675 0.474050373
vt 0.814191401 0.204258859
vt 0.814191401 0.250669599
vt 0.860601723 0.250669599
vt 0.860601723 0.204258859
vt 0.990866661 0.392277211
vt 0.966463685 0.392277509
vt 0.966464043 0.474150389
vt 0.990867138 0.474150389
vt 0.990866661 0.392277211
vt 0.966463685 0.392277509
vt 0.966464043 0.474150389
vt 0.990867138 0.474150389
vt 0.990866661 0.392277211
vt 0.966463685 0.392277509
vt 0.966464043 0.474150389
vt 0.990867138 0.474150389
vt 0.789401591 0.179605544
vt 0.814191401 0.204258859
vt 0.860601723 0.204258859
vt 0.884903252 0.179605126
vt 0.884903252 0.179605126
vt 0.860601723 0.204258859
vt 0.860601723 0.250669599
vt 0.885172904 0.275377035
vt 0.885172904 0.275377035
vt 0.860601723 0.250669599
vt 0.814191401 0.250669599
vt 0.789401591 0.275377035
vt 0.789401591 0.275377035
vt 0.814191401 0.250669599
vt 0.814191401 0.204258859
vt 0.789401591 0.179605544
vn -1 0 0
vn -1 0 0
vn -1 0 0
vn -1 0 0
vn -1 0 0
vn -1 0 0
vn -1 0 0
vn 1 0 0
vn 1 0 0
vn 1 0 0
vn 1 0 0
vn 1 0 0
vn 1 0 0
vn -0 0.707106829 0.707106769
vn -0 0.707106829 0.707106769
vn -0 0.707106829 0.707106769
vn 0.707106769 0.707106769 0
vn 0.707106769 0.707106769 0
vn 0.707106769 0.707106769 0
vn -0 0.707106829 -0.707106769
vn -0 0.707106829 -0.707106769
vn -0 0.707106829 -0.707106769
vn -0.707106769 0.707106769 0
vn -0.707106769 0.707106769 0
vn -0.707106769 0.707106769 0
vn -0 -1 0
vn -0 -1 0
vn -0 -1 0
vn -0 -1 0
vn -0 0 -1
vn -0 0 -1
vn -0 0 -1
vn -0 0 -1
vn -0 0 -1
vn -0 0 -1
vn 1 0 0
vn 1 0 0
vn 1 0 0
vn 1 0 0
vn -0 0 1
vn -0 0 1
vn -0 0 1
vn -0 0 1
vn -0 0 1
vn -0 0 1
vn 0.720665097 0.693283379 0
vn 0.720665157 0.693283319 0
vn 0.720665097 0.693283379 0
vn 0.720665157 0.693283319 0
vn -0 0.693282485 0.720665872
vn -0 0.693282485 0.720666051
vn -0 0.693282485 0.720665872
vn -0 0.693282485 0.720666051
vn 0.707110167 0 -0.707103312
vn 0.707110226 0 -0.707103252
vn 0.707110167 0 -0.707103312
vn 0.707110167 0 -0.707103312
vn 1 0 0
vn 1 0 0
vn 1 0 0
vn 1 0 0
vn -0.707106888 0 0.70710665
vn -0.707106829 0 0.70710665
vn -0.707106829 0 0.707106769
vn -0.707106829 0 0.70710665
vn -0 0 1
vn -0 0 1
vn -0 0 1
vn -0 0 1
vn -0 0.693282485 0.720665872
vn -0 0.693282485 0.720666051
vn -0 0.693282485 0.720665872
vn -0 0.693282485 0.720666051
vn -0.720665097 0.693283379 0
vn -0.720665157 0.693283319 0
vn -0.720665097 0.693283379 0
vn -0.720665157 0.693283319 0
vn 0.707107723 0 0.707105756
vn 0.707107723 0 0.707105756
vn 0.707107782 0 0.707105696
vn 0.707107723 0 0.707105756
vn -0 0 1
vn -0 0 1
vn -0 0 1
vn -0 0 1
vn -0.707107782 0 -0.707105696
vn -0.707107723 0 -0.707105756
vn -0.707107723 0 -0.707105756
vn -0.707107723 0 -0.707105756
vn -1 0 0
vn -1 0 0
vn -1 0 0
vn -1 0 0
vn -0 0.693282485 -0.720665872
vn -0 0.693282485 -0.720666051
vn -0 0.693282485 -0.720665872
vn -0 0.693282485 -0.720666051
vn 0.720666528 0.693281889 0
vn 0.720666528 0.693281889 0
vn 0.720666528 0.693281889 0
vn 0.720666528 0.693281889 0
vn -0.707108259 0 -0.707105279
vn -0.707108259 0 -0.707105219
vn -0.7071082 0 -0.707105279
vn -0.707108259 0 -0.707105279
vn -0 0 -1
vn -0 0 -1
vn -0 0 -1
vn -0 0 -1
vn 0.707105875 0 0.707107663
vn 0.707105815 0 0.707107723
vn 0.707105815 0 0.707107723
vn 0.707105875 0 0.707107663
vn 1 0 0
vn 1 0 0
vn 1 0 0
vn 1 0 0
vn -0.720666528 0.693281889 0
vn -0.720666528 0.693281889 0
vn -0.720666528 0.693281889 0
vn -0.720666528 0.693281889 0
vn -0 0.693282485 -0.720665872
vn -0 0.693282485 -0.720666051
vn -0 0.693282485 -0.720665872
vn -0 0.693282485 -0.720666051
vn -0.707108736 0 0.707104802
vn -0.707108796 0 0.707104743
vn -0.707108736 0 0.707104802
vn -0.707108796 0 0.707104743
vn -1 0 0
vn -1 0 0
vn -1 0 0
vn -1 0 0
vn 0.707106888 0 -0.70710665
vn 0.707106829 0 -0.70710665
vn 0.707106829 0 -0.707106769
vn 0.707106829 0 -0.70710665
vn -0 0 -1
vn -0 0 -1
vn -0 0 -1
vn -0 0 -1
vn -0 0 1
vn -0 0 1
vn -0 0 1
vn -0 0 1
vn -0 1 0
vn -0 1 0
vn -0 1 0
vn -0 1 0
vn -0 -7.85564225E-06 -1
vn -0 -7.85564225E-06 -1
vn -0 -7.85564225E-06 -1
vn -0 -7.85564225E-06 -1
vn 1 -1.00552306E-05 0
vn 1 -1.00552306E-05 0
vn 1 -1.00552288E-05 0
vn 1 -1.00552288E-05 0
vn -1 -2.98514624E-06 0
vn -1 -2.98514624E-06 0
vn -1 -2.98514624E-06 0
vn -1 -2.98514624E-06 0
vn -0 0.629822612 0.776739001
vn -0 0.629822612 0.776739001
vn -0 0.629822612 0.776739001
vn -0 0.629822612 0.776739001
vn 0.776739061 0.629822493 0
vn 0.776739061 0.629822552 0
vn 0.776739061 0.629822552 0
vn 0.776739061 0.629822493 0
vn -0 0.629825771 -0.776736438
vn -0 0.629825771 -0.776736498
vn -0 0.629825771 -0.776736498
vn -0 0.629825711 -0.776736498
vn -0.776734591 0.629827976 0
vn -0.776734531 0.629828036 0
vn -0.776734531 0.629828036 0
vn -0.776734591 0.629827976 0
g MS_RoofPeak_0
f 3/3/3 2/2/2 1/1/1
f 5/5/5 4/4/4 1/1/1
f 5/5/5 1/1/1 6/6/6
f 6/6/6 7/7/7 5/5/5
f 10/10/10 9/9/9 8/8/8
f 13/13/13 12/12/12 11/11/11
f 16/16/16 15/15/15 14/14/14
f 19/19/19 18/18/18 17/17/17
f 22/22/22 21/21/21 20/20/20
f 25/25/25 24/24/24 23/23/23
f 28/28/28 27/27/27 26/26/26
f 29/29/29 28/28/28 26/26/26
f 32/32/32 31/31/31 30/30/30
f 30/30/30 33/33/33 32/32/32
f 30/30/30 34/34/34 33/33/33
f 30/30/30 35/35/35 34/34/34
f 38/38/38 37/37/37 36/36/36
f 36/36/36 39/39/39 38/38/38
f 42/42/42 41/41/41 40/40/40
f 40/40/40 43/43/43 42/42/42
f 40/40/40 44/44/44 43/43/43
f 44/44/44 45/45/45 43/43/43
f 48/48/48 47/47/47 46/46/46
f 49/49/49 48/48/48 46/46/46
f 52/52/52 51/51/51 50/50/50
f 53/53/53 52/52/52 50/50/50
f 56/56/56 55/55/55 54/54/54
f 57/57/57 56/56/56 54/54/54
f 60/60/60 59/59/59 58/58/58
f 61/61/61 60/60/60 58/58/58
f 64/64/64 63/63/63 62/62/62
f 65/65/65 64/64/64 62/62/62
f 68/68/68 67/67/67 66/66/66
f 69/69/69 68/68/68 66/66/66
f 72/72/72 71/71/71 70/70/70
f 73/73/73 72/72/72 70/70/70
f 76/76/76 75/75/75 74/74/74
f 77/77/77 76/76/76 74/74/74
f 80/80/80 79/79/79 78/78/78
f 81/81/81 80/80/80 78/78/78
f 84/84/84 83/83/83 82/82/82
f 85/85/85 84/84/84 82/82/82
f 88/88/88 87/87/87 86/86/86
f 89/89/89 88/88/88 86/86/86
f 92/92/92 91/91/91 90/90/90
f 93/93/93 92/92/92 90/90/90
f 96/96/96 95/95/95 94/94/94
f 97/97/97 96/96/96 94/94/94
f 100/100/100 99/99/99 98/98/98
f 101/101/101 100/100/100 98/98/98
f 104/104/104 103/103/103 102/102/102
f 105/105/105 104/104/104 102/102/102
f 108/108/108 107/107/107 106/106/106
f 109/109/109 108/108/108 106/106/106
f 112/112/112 111/111/111 110/110/110
f 113/113/113 112/112/112 110/110/110
f 116/116/116 115/115/115 114/114/114
f 117/117/117 116/116/116 114/114/114
f 120/120/120 119/119/119 118/118/118
f 121/121/121 120/120/120 118/118/118
f 124/124/124 123/123/123 122/122/122
f 125/125/125 124/124/124 122/122/122
f 128/128/128 127/127/127 126/126/126
f 129/129/129 128/128/128 126/126/126
f 132/132/132 131/131/131 130/130/130
f 133/133/133 132/132/132 130/130/130
f 136/136/136 135/135/135 134/134/134
f 137/137/137 136/136/136 134/134/134
f 140/140/140 139/139/139 138/138/138
f 141/141/141 140/140/140 138/138/138
f 144/144/144 143/143/143 142/142/142
f 145/145/145 144/144/144 142/142/142
f 148/148/148 147/147/147 146/146/146
f 149/149/149 148/148/148 146/146/146
f 152/152/152 151/151/151 150/150/150
f 153/153/153 152/152/152 150/150/150
f 156/156/156 155/155/155 154/154/154
f 157/157/157 156/156/156 154/154/154
f 160/160/160 159/159/159 158/158/158
f 161/161/161 160/160/160 158/158/158
f 164/164/164 163/163/163 162/162/162
f 165/165/165 164/164/164 162/162/162
f 168/168/168 167/167/167 166/166/166
f 169/169/169 168/168/168 166/166/166
f 172/172/172 171/171/171 170/170/170
f 173/173/173 172/172/172 170/170/170
f 176/176/176 175/175/175 174/174/174
f 177/177/177 176/176/176 174/174/174
