g LumberColumnTop
v -0.125 -0.5 0.124999695
v -0.125 0.5 0.124999695
v 0.125 0.5 0.124999695
v 0.125 -0.5 0.124999695
v -0.125 0.5 0.124999695
v -0.125 0.5 -0.125000298
v 0.125 0.5 -0.125000298
v 0.125 0.5 0.124999695
v -0.125 0.5 -0.125000298
v -0.125 -0.5 -0.125000298
v 0.125 -0.5 -0.125000298
v 0.125 0.5 -0.125000298
v -0.125 -0.5 -0.125000298
v -0.125 -0.5 0.124999695
v 0.125 -0.5 0.124999695
v 0.125 -0.5 -0.125000298
v 0.125 -0.5 0.124999695
v 0.125 0.5 0.124999695
v 0.125 0.5 -0.125000298
v 0.125 -0.5 -0.125000298
v -0.125 -0.5 -0.125000298
v -0.125 0.5 -0.125000298
v -0.125 0.5 0.124999695
v -0.125 -0.5 0.124999695
v 0.105429076 0.468750268 0.336715072
v 0.105429076 0.283379048 0.151344597
v 0.105429687 0.125024959 0.151190177
v 0.105429076 0.46875 0.494914532
v -0.105429687 0.285258472 0.153223872
v -0.105429687 0.468750268 0.336715072
v -0.105429687 0.46875 0.494914532
v -0.105429687 0.126904353 0.153069451
v -0.105429687 0.126904353 0.153069451
v -0.105429687 0.46875 0.494914532
v 0.105429076 0.46875 0.494914532
v 0.105429687 0.125024959 0.151190177
v 0.105429076 0.283379048 0.151344597
v 0.105429076 0.468750268 0.336715072
v -0.105429687 0.468750268 0.336715072
v -0.105429687 0.285258472 0.153223872
v -0.105429687 0.5 0.336715072
v 0.105429076 0.5 0.336715072
v 0.105429076 0.5 0.494914532
v -0.105429687 0.5 0.494914532
v -0.105429687 0.468750268 0.336715072
v -0.105429687 0.5 0.336715072
v -0.105429687 0.5 0.494914532
v -0.105429687 0.46875 0.494914532
v -0.105429687 0.46875 0.494914532
v -0.105429687 0.5 0.494914532
v 0.105429076 0.5 0.494914532
v 0.105429076 0.46875 0.494914532
v 0.105429076 0.46875 0.494914532
v 0.105429076 0.5 0.494914532
v 0.105429076 0.5 0.336715072
v 0.105429076 0.468750268 0.336715072
v 0.105429076 0.468750268 0.336715072
v 0.105429076 0.5 0.336715072
v -0.105429687 0.5 0.336715072
v -0.105429687 0.468750268 0.336715072
v -0.105429076 0.468750268 -0.336715072
v -0.105429076 0.283484876 -0.1514505
v -0.105429687 0.125130787 -0.151296079
v -0.105429076 0.46875 -0.494914532
v 0.105429687 0.28536427 -0.153329775
v 0.105429687 0.468750268 -0.336715072
v 0.105429687 0.46875 -0.494914532
v 0.105429687 0.127010167 -0.153175354
v 0.105429687 0.127010167 -0.153175354
v 0.105429687 0.46875 -0.494914532
v -0.105429076 0.46875 -0.494914532
v -0.105429687 0.125130787 -0.151296079
v -0.105429076 0.283484876 -0.1514505
v -0.105429076 0.468750268 -0.336715072
v 0.105429687 0.468750268 -0.336715072
v 0.105429687 0.28536427 -0.153329775
v 0.105429687 0.5 -0.336715072
v -0.105429076 0.5 -0.336715072
v -0.105429076 0.5 -0.494914532
v 0.105429687 0.5 -0.494914532
v 0.105429687 0.468750268 -0.336715072
v 0.105429687 0.5 -0.336715072
v 0.105429687 0.5 -0.494914532
v 0.105429687 0.46875 -0.494914532
v 0.105429687 0.46875 -0.494914532
v 0.105429687 0.5 -0.494914532
v -0.105429076 0.5 -0.494914532
v -0.105429076 0.46875 -0.494914532
v -0.105429076 0.46875 -0.494914532
v -0.105429076 0.5 -0.494914532
v -0.105429076 0.5 -0.336715072
v -0.105429076 0.468750268 -0.336715072
v -0.105429076 0.468750268 -0.336715072
v -0.105429076 0.5 -0.336715072
v 0.105429687 0.5 -0.336715072
v 0.105429687 0.468750268 -0.336715072
v 0.125 0.0616541654 0.125
v -0.125 0.0616541654 0.125
v -0.15625 0.0616541654 0.15625
v 0.15625 0.0616541654 0.15625
v 0.15625 0.0616541654 0.15625
v -0.15625 0.0616541654 0.15625
v -0.15625 0.46875 0.15625
v 0.15625 0.46875 0.15625
v 0.15625 0.46875 0.15625
v -0.15625 0.46875 0.15625
v -0.25 0.46875 0.25
v 0.25 0.46875 0.25
v -0.25 0.5 0.25
v 0.25 0.5 0.25
v 0.25 0.46875 0.25
v -0.25 0.46875 0.25
v -0.25 0.5 0.25
v -0.125 0.5 0.125
v 0.125 0.5 0.125
v 0.25 0.5 0.25
v -0.125 0.0616541654 0.125
v -0.125 0.0616541654 -0.125
v -0.15625 0.0616541654 -0.15625
v -0.15625 0.0616541654 0.15625
v -0.15625 0.0616541654 0.15625
v -0.15625 0.0616541654 -0.15625
v -0.15625 0.46875 -0.15625
v -0.15625 0.46875 0.15625
v -0.15625 0.46875 0.15625
v -0.15625 0.46875 -0.15625
v -0.25 0.46875 -0.25
v -0.25 0.46875 0.25
v -0.25 0.5 -0.25
v -0.25 0.5 0.25
v -0.25 0.46875 0.25
v -0.25 0.46875 -0.25
v -0.25 0.5 -0.25
v -0.125 0.5 -0.125
v -0.125 0.5 0.125
v -0.25 0.5 0.25
v -0.125 0.0616541654 -0.125
v 0.125 0.0616541654 -0.125
v 0.15625 0.0616541654 -0.15625
v -0.15625 0.0616541654 -0.15625
v -0.15625 0.0616541654 -0.15625
v 0.15625 0.0616541654 -0.15625
v 0.15625 0.46875 -0.15625
v -0.15625 0.46875 -0.15625
v -0.15625 0.46875 -0.15625
v 0.15625 0.46875 -0.15625
v 0.25 0.46875 -0.25
v -0.25 0.46875 -0.25
v 0.25 0.5 -0.25
v -0.25 0.5 -0.25
v -0.25 0.46875 -0.25
v 0.25 0.46875 -0.25
v 0.25 0.5 -0.25
v 0.125 0.5 -0.125
v -0.125 0.5 -0.125
v -0.25 0.5 -0.25
v 0.125 0.0616541654 -0.125
v 0.125 0.0616541654 0.125
v 0.15625 0.0616541654 0.15625
v 0.15625 0.0616541654 -0.15625
v 0.15625 0.0616541654 -0.15625
v 0.15625 0.0616541654 0.15625
v 0.15625 0.46875 0.15625
v 0.15625 0.46875 -0.15625
v 0.15625 0.46875 -0.15625
v 0.15625 0.46875 0.15625
v 0.25 0.46875 0.25
v 0.25 0.46875 -0.25
v 0.25 0.5 0.25
v 0.25 0.5 -0.25
v 0.25 0.46875 -0.25
v 0.25 0.46875 0.25
v 0.25 0.5 0.25
v 0.125 0.5 0.125
v 0.125 0.5 -0.125
v 0.25 0.5 -0.25
v -0.336715072 0.468750268 0.105429076
v -0.149802238 0.281836152 0.105429076
v -0.149647206 0.123482071 0.105429687
v -0.494914532 0.46875 0.105429076
v -0.151680902 0.283715576 -0.105429687
v -0.336715072 0.468750268 -0.105429687
v -0.494914532 0.46875 -0.105429687
v -0.151527092 0.125361472 -0.105429687
v -0.151527092 0.125361472 -0.105429687
v -0.494914532 0.46875 -0.105429687
v -0.494914532 0.46875 0.105429076
v -0.149647206 0.123482071 0.105429687
v -0.149802238 0.281836152 0.105429076
v -0.336715072 0.468750268 0.105429076
v -0.336715072 0.468750268 -0.105429687
v -0.151680902 0.283715576 -0.105429687
v -0.336715072 0.5 -0.105429687
v -0.336715072 0.5 0.105429076
v -0.494914532 0.5 0.105429076
v -0.494914532 0.5 -0.105429687
v -0.336715072 0.468750268 -0.105429687
v -0.336715072 0.5 -0.105429687
v -0.494914532 0.5 -0.105429687
v -0.494914532 0.46875 -0.105429687
v -0.494914532 0.46875 -0.105429687
v -0.494914532 0.5 -0.105429687
v -0.494914532 0.5 0.105429076
v -0.494914532 0.46875 0.105429076
v -0.494914532 0.46875 0.105429076
v -0.494914532 0.5 0.105429076
v -0.336715072 0.5 0.105429076
v -0.336715072 0.468750268 0.105429076
v -0.336715072 0.468750268 0.105429076
v -0.336715072 0.5 0.105429076
v -0.336715072 0.5 -0.105429687
v -0.336715072 0.468750268 -0.105429687
v 0.336715072 0.468750268 -0.105429076
v 0.152749017 0.284783363 -0.105429076
v 0.152594596 0.126429275 -0.105429687
v 0.494914532 0.46875 -0.105429076
v 0.154628292 0.286662787 0.105429687
v 0.336715072 0.468750268 0.105429687
v 0.494914532 0.46875 0.105429687
v 0.154473871 0.128308669 0.105429687
v 0.154473871 0.128308669 0.105429687
v 0.494914532 0.46875 0.105429687
v 0.494914532 0.46875 -0.105429076
v 0.152594596 0.126429275 -0.105429687
v 0.152749017 0.284783363 -0.105429076
v 0.336715072 0.468750268 -0.105429076
v 0.336715072 0.468750268 0.105429687
v 0.154628292 0.286662787 0.105429687
v 0.336715072 0.5 0.105429687
v 0.336715072 0.5 -0.105429076
v 0.494914532 0.5 -0.105429076
v 0.494914532 0.5 0.105429687
v 0.336715072 0.468750268 0.105429687
v 0.336715072 0.5 0.105429687
v 0.494914532 0.5 0.105429687
v 0.494914532 0.46875 0.105429687
v 0.494914532 0.46875 0.105429687
v 0.494914532 0.5 0.105429687
v 0.494914532 0.5 -0.105429076
v 0.494914532 0.46875 -0.105429076
v 0.494914532 0.46875 -0.105429076
v 0.494914532 0.5 -0.105429076
v 0.336715072 0.5 -0.105429076
v 0.336715072 0.468750268 -0.105429076
v 0.336715072 0.468750268 -0.105429076
v 0.336715072 0.5 -0.105429076
v 0.336715072 0.5 0.105429687
v 0.336715072 0.468750268 0.105429687
vt 0.0360349566 0.440518856
vt 0.394397318 0.44051832
vt 0.394397318 0.350927681
vt 0.0360349566 0.350928247
vt 0.905261934 0.106969126
vt 0.905261934 0.194189087
vt 0.992482245 0.194189087
vt 0.992482245 0.106969126
vt 0.0360350385 0.440519273
vt 0.394397467 0.440518856
vt 0.394397438 0.350928128
vt 0.0360349827 0.350928575
vt 0.333923042 0.186085001
vt 0.333923042 0.0988650098
vt 0.421143353 0.0988650098
vt 0.421143353 0.186085001
vt 0.0218527094 0.437080026
vt 0.380215764 0.437080085
vt 0.380215913 0.347489506
vt 0.0218528882 0.347489417
vt 0.0218528286 0.437080026
vt 0.380214959 0.437080055
vt 0.380215049 0.347489446
vt 0.0218529478 0.347489417
vt 0.132706732 0.440519214
vt 0.176928341 0.440519154
vt 0.266612053 0.350928366
vt 0.043116048 0.350928605
vt 0.280560851 0.440518707
vt 0.323653162 0.440518677
vt 0.41324383 0.350927949
vt 0.190876961 0.350928098
vt 0.447879136 0.0977209359
vt 0.223485664 0.0977209434
vt 0.223485544 0.00813032687
vt 0.448024005 0.00813032314
vt 0.291948378 0.0977209508
vt 0.336170018 0.0977209508
vt 0.336170077 0.00813032873
vt 0.293077767 0.0081303278
vt 0.347439438 0.0990934372
vt 0.347439438 0.186192811
vt 0.412786931 0.186192811
vt 0.412786931 0.0990934372
vt 0.932919621 0.468928814
vt 0.959646344 0.468928814
vt 0.959646344 0.333627135
vt 0.932919621 0.333627135
vt 0.932919681 0.437850773
vt 0.959646285 0.437850773
vt 0.959646285 0.618189692
vt 0.932919681 0.618189692
vt 0.932919681 0.441769809
vt 0.959646404 0.441769809
vt 0.959646404 0.306468099
vt 0.932919681 0.306468099
vt 0.932919681 0.618189692
vt 0.959646344 0.618189692
vt 0.959646344 0.437850744
vt 0.932919681 0.437850744
vt 0.132706732 0.440519214
vt 0.176928341 0.440519154
vt 0.266612053 0.350928366
vt 0.043116048 0.350928605
vt 0.280560851 0.440518707
vt 0.323653162 0.440518677
vt 0.41324383 0.350927949
vt 0.190876961 0.350928098
vt 0.447879076 0.0977209359
vt 0.223485664 0.0977209434
vt 0.223485544 0.00813032687
vt 0.448023945 0.00813032314
vt 0.291948378 0.0977209508
vt 0.336170018 0.0977209508
vt 0.336170077 0.00813032873
vt 0.293077767 0.0081303278
vt 0.347439438 0.0990934372
vt 0.347439438 0.186192811
vt 0.412786931 0.186192811
vt 0.412786931 0.0990934372
vt 0.932919621 0.468928814
vt 0.959646344 0.468928814
vt 0.959646344 0.333627135
vt 0.932919621 0.333627135
vt 0.932919681 0.437850773
vt 0.959646285 0.437850773
vt 0.959646285 0.618189692
vt 0.932919681 0.618189692
vt 0.932919681 0.441769809
vt 0.959646404 0.441769809
vt 0.959646404 0.306468099
vt 0.932919681 0.306468099
vt 0.932919681 0.618189692
vt 0.959646344 0.618189692
vt 0.959646344 0.437850744
vt 0.932919681 0.437850744
vt 0.749539733 0.6814695
vt 0.749539733 0.556090057
vt 0.764456332 0.54177314
vt 0.764456391 0.6814695
vt 0.57014066 0.276164114
vt 0.48435086 0.276164114
vt 0.48435086 0.387923092
vt 0.57014066 0.387923092
vt 0.809206724 0.6814695
vt 0.809206724 0.55101639
vt 0.853956819 0.508797824
vt 0.853956819 0.6814695
vt 0.868873477 0.514296949
vt 0.868873477 0.6814695
vt 0.853956819 0.6814695
vt 0.853956819 0.508797824
vt 0.327289551 0.937126279
vt 0.372452766 0.883277535
vt 0.470306247 0.883277476
vt 0.470306247 0.93712604
vt 0.749539733 0.485249817
vt 0.749539733 0.359870374
vt 0.764456332 0.345553458
vt 0.764456391 0.485249817
vt 0.618437648 0.224922135
vt 0.532647967 0.224922135
vt 0.532647967 0.336681098
vt 0.618437648 0.336681098
vt 0.809206724 0.485249817
vt 0.809206724 0.354796708
vt 0.853956819 0.312578142
vt 0.853956819 0.485249817
vt 0.868873477 0.318077266
vt 0.868873477 0.485249817
vt 0.853956819 0.485249817
vt 0.853956819 0.312578142
vt 0.526982725 0.937126279
vt 0.572145939 0.883277535
vt 0.66999948 0.883277476
vt 0.66999948 0.93712604
vt 0.749539733 0.6814695
vt 0.749539733 0.556090057
vt 0.764456332 0.54177314
vt 0.764456391 0.6814695
vt 0.46079126 0.50866574
vt 0.546581149 0.50866574
vt 0.546581149 0.396906793
vt 0.46079126 0.396906793
vt 0.809206724 0.6814695
vt 0.809206724 0.55101639
vt 0.853956819 0.508797824
vt 0.853956819 0.6814695
vt 0.868873477 0.514296949
vt 0.868873477 0.6814695
vt 0.853956819 0.6814695
vt 0.853956819 0.508797824
vt 0.300871015 0.937126279
vt 0.346034229 0.883277535
vt 0.44388777 0.883277476
vt 0.44388777 0.93712604
vt 0.749539733 0.580754995
vt 0.749539733 0.455375522
vt 0.764456332 0.441058606
vt 0.764456391 0.580754995
vt 0.535390258 0.20136261
vt 0.449600548 0.20136261
vt 0.449600548 0.313121557
vt 0.535390258 0.313121557
vt 0.809206724 0.580754995
vt 0.809206724 0.450301856
vt 0.853956819 0.40808329
vt 0.853956819 0.580754995
vt 0.868873477 0.413582414
vt 0.868873477 0.580754995
vt 0.853956819 0.580754995
vt 0.853956819 0.40808329
vt 0.434517801 0.937126279
vt 0.479681015 0.883277535
vt 0.577534556 0.883277476
vt 0.577534556 0.93712604
vt 0.132706732 0.440519214
vt 0.176928341 0.440519154
vt 0.266612053 0.350928366
vt 0.043116048 0.350928605
vt 0.280560851 0.440518707
vt 0.323653162 0.440518677
vt 0.41324383 0.350927949
vt 0.190876961 0.350928098
vt 0.447879136 0.0977209359
vt 0.223485664 0.0977209434
vt 0.223485544 0.00813032687
vt 0.448024005 0.00813032314
vt 0.291948378 0.0977209508
vt 0.336170018 0.0977209508
vt 0.336170077 0.00813032873
vt 0.293077767 0.0081303278
vt 0.347439438 0.0990934372
vt 0.347439438 0.186192811
vt 0.412786931 0.186192811
vt 0.412786931 0.0990934372
vt 0.932919621 0.468928814
vt 0.959646344 0.468928814
vt 0.959646344 0.333627135
vt 0.932919621 0.333627135
vt 0.932919681 0.437850773
vt 0.959646285 0.437850773
vt 0.959646285 0.618189692
vt 0.932919681 0.618189692
vt 0.932919681 0.441769809
vt 0.959646404 0.441769809
vt 0.959646404 0.306468099
vt 0.932919681 0.306468099
vt 0.932919681 0.618189692
vt 0.959646344 0.618189692
vt 0.959646344 0.437850744
vt 0.932919681 0.437850744
vt 0.132706732 0.440519214
vt 0.176928341 0.440519154
vt 0.266612053 0.350928366
vt 0.043116048 0.350928605
vt 0.280560851 0.440518707
vt 0.323653162 0.440518677
vt 0.41324383 0.350927949
vt 0.190876961 0.350928098
vt 0.447879136 0.0977209359
vt 0.223485664 0.0977209434
vt 0.223485544 0.00813032687
vt 0.448024005 0.00813032314
vt 0.291948378 0.0977209508
vt 0.336170018 0.0977209508
vt 0.336170077 0.00813032873
vt 0.293077767 0.0081303278
vt 0.347439438 0.0990934372
vt 0.347439438 0.186192811
vt 0.412786931 0.186192811
vt 0.412786931 0.0990934372
vt 0.932919621 0.468928814
vt 0.959646344 0.468928814
vt 0.959646344 0.333627135
vt 0.932919621 0.333627135
vt 0.932919681 0.437850773
vt 0.959646285 0.437850773
vt 0.959646285 0.618189692
vt 0.932919681 0.618189692
vt 0.932919681 0.441769809
vt 0.959646404 0.441769809
vt 0.959646404 0.306468099
vt 0.932919681 0.306468099
vt 0.932919681 0.618189692
vt 0.959646344 0.618189692
vt 0.959646344 0.437850744
vt 0.932919681 0.437850744
vn -0 0 1
vn -0 0 1
vn -0 0 1
vn -0 0 1
vn -0 1 0
vn -0 1 0
vn -0 1 0
vn -0 1 0
vn -0 0 -1
vn -0 0 -1
vn -0 0 -1
vn -0 0 -1
vn -0 -1 0
vn -0 -1 0
vn -0 -1 0
vn -0 -1 0
vn 1 0 0
vn 1 0 0
vn 1 0 0
vn 1 0 0
vn -1 0 0
vn -1 0 0
vn -1 0 0
vn -1 0 0
vn 1 7.00022747E-06 -1.35170694E-06
vn 1 7.00022747E-06 -1.35170706E-06
vn 1 7.00022747E-06 -1.35170717E-06
vn 1 7.00022747E-06 -1.35170706E-06
vn -1 0 0
vn -1 0 0
vn -1 0 0
vn -1 0 0
vn 9.55367E-07 -0.707107246 0.707106292
vn 9.55367E-07 -0.707107246 0.707106292
vn 9.55367E-07 -0.707107246 0.707106292
vn 9.55367E-07 -0.707107246 0.707106233
vn -0 0.707104743 -0.707108796
vn -0 0.707104683 -0.707108796
vn -0 0.707104683 -0.707108796
vn -0 0.707104683 -0.707108796
vn -0 1 0
vn -0 1 0
vn -0 1 0
vn -0 1 0
vn -1 0 0
vn -1 0 0
vn -1 0 0
vn -1 0 0
vn -0 0 1
vn -0 0 1
vn -0 0 1
vn -0 0 1
vn 1 0 0
vn 1 0 0
vn 1 0 0
vn 1 0 0
vn -0 0 -1
vn -0 0 -1
vn -0 0 -1
vn -0 0 -1
vn -1 4.6686705E-06 1.35147161E-06
vn -1 4.6686705E-06 1.35147161E-06
vn -1 4.6686705E-06 1.35147161E-06
vn -1 4.66867095E-06 1.35147172E-06
vn 1 0 0
vn 1 0 0
vn 1 0 0
vn 1 0 0
vn 1.91132608E-06 -0.707106531 -0.707107008
vn 1.91132585E-06 -0.70710659 -0.707106948
vn 1.91132585E-06 -0.70710659 -0.707106948
vn 1.91132631E-06 -0.707106531 -0.707107008
vn 8.88337524E-07 0.707106054 0.707107484
vn 8.88337695E-07 0.707106054 0.707107544
vn 8.88337695E-07 0.707106054 0.707107544
vn 8.88337524E-07 0.707106054 0.707107544
vn -0 1 0
vn -0 1 0
vn -0 1 0
vn -0 1 0
vn 1 0 0
vn 1 0 0
vn 1 0 0
vn 1 0 0
vn -0 0 -1
vn -0 0 -1
vn -0 0 -1
vn -0 0 -1
vn -1 0 0
vn -1 0 0
vn -1 0 0
vn -1 0 0
vn -0 0 1
vn -0 0 1
vn -0 0 1
vn -0 0 1
vn -0 -1 0
vn -0 -1 0
vn -0 -1 0
vn -0 -1 0
vn -0 0 1
vn -0 0 1
vn -0 0 1
vn -0 0 1
vn -0 -1 0
vn -0 -1 0
vn -0 -1 0
vn -0 -1 0
vn -0 0 1
vn -0 0 1
vn -0 0 1
vn -0 0 1
vn -0 1 0
vn -0 1 0
vn -0 1 0
vn -0 1 0
vn -0 -1 0
vn -0 -1 0
vn -0 -1 0
vn -0 -1 0
vn -1 0 0
vn -1 0 0
vn -1 0 0
vn -1 0 0
vn -0 -1 0
vn -0 -1 0
vn -0 -1 0
vn -0 -1 0
vn -1 0 0
vn -1 0 0
vn -1 0 0
vn -1 0 0
vn -0 1 0
vn -0 1 0
vn -0 1 0
vn -0 1 0
vn -0 -1 0
vn -0 -1 0
vn -0 -1 0
vn -0 -1 0
vn -0 0 -1
vn -0 0 -1
vn -0 0 -1
vn -0 0 -1
vn -0 -1 0
vn -0 -1 0
vn -0 -1 0
vn -0 -1 0
vn -0 0 -1
vn -0 0 -1
vn -0 0 -1
vn -0 0 -1
vn -0 1 0
vn -0 1 0
vn -0 1 0
vn -0 1 0
vn -0 -1 0
vn -0 -1 0
vn -0 -1 0
vn -0 -1 0
vn 1 0 0
vn 1 0 0
vn 1 0 0
vn 1 0 0
vn -0 -1 0
vn -0 -1 0
vn -0 -1 0
vn -0 -1 0
vn 1 0 0
vn 1 0 0
vn 1 0 0
vn 1 0 0
vn -0 1 0
vn -0 1 0
vn -0 1 0
vn -0 1 0
vn -0 2.50193602E-06 1
vn -0 2.50193602E-06 1
vn -0 2.50193648E-06 1
vn -0 2.50193602E-06 1
vn -0 0 -1
vn -0 0 -1
vn -0 0 -1
vn -0 0 -1
vn -0.707107246 -0.707106233 7.72758824E-07
vn -0.707107246 -0.707106292 7.72758938E-07
vn -0.707107246 -0.707106292 7.72758938E-07
vn -0.707107246 -0.707106233 7.72758824E-07
vn 0.707109332 0.707104146 1.21063783E-06
vn 0.707109392 0.707104146 1.21063795E-06
vn 0.707109392 0.707104146 1.21063795E-06
vn 0.707109392 0.707104146 1.21063817E-06
vn -0 1 0
vn -0 1 0
vn -0 1 0
vn -0 1 0
vn -0 0 -1
vn -0 0 -1
vn -0 0 -1
vn -0 0 -1
vn -1 0 0
vn -1 0 0
vn -1 0 0
vn -1 0 0
vn -0 0 1
vn -0 0 1
vn -0 0 1
vn -0 0 1
vn 1 0 0
vn 1 0 0
vn 1 0 0
vn 1 0 0
vn -1.17292939E-06 2.50835001E-06 -1
vn -1.1729295E-06 2.50835001E-06 -1
vn -1.17292939E-06 2.50835001E-06 -1
vn -1.17292939E-06 2.50835001E-06 -1
vn 1.18136666E-06 0 1
vn 1.18136666E-06 0 1
vn 1.18136666E-06 0 1
vn 1.18136666E-06 0 1
vn 0.707107246 -0.707106292 1.79868337E-07
vn 0.707107186 -0.707106352 1.79868394E-07
vn 0.707107246 -0.707106292 1.7986838E-07
vn 0.707107246 -0.707106233 1.7986838E-07
vn -0.707108557 0.707104981 -2.23660393E-07
vn -0.707108557 0.707104981 -2.23660365E-07
vn -0.707108557 0.707104981 -2.23660365E-07
vn -0.707108498 0.707104981 -2.23660365E-07
vn -0 1 0
vn -0 1 0
vn -0 1 0
vn -0 1 0
vn -0 0 1
vn -0 0 1
vn -0 0 1
vn -0 0 1
vn 1 0 0
vn 1 0 0
vn 1 0 0
vn 1 0 0
vn -0 0 -1
vn -0 0 -1
vn -0 0 -1
vn -0 0 -1
vn -1 0 0
vn -1 0 0
vn -1 0 0
vn -1 0 0
g LumberColumnTop_0
f 3/3/3 2/2/2 1/1/1
f 4/4/4 3/3/3 1/1/1
f 7/7/7 6/6/6 5/5/5
f 8/8/8 7/7/7 5/5/5
f 11/11/11 10/10/10 9/9/9
f 12/12/12 11/11/11 9/9/9
f 15/15/15 14/14/14 13/13/13
f 16/16/16 15/15/15 13/13/13
f 19/19/19 18/18/18 17/17/17
f 20/20/20 19/19/19 17/17/17
f 23/23/23 22/22/22 21/21/21
f 24/24/24 23/23/23 21/21/21
f 27/27/27 26/26/26 25/25/25
f 28/28/28 27/27/27 25/25/25
f 31/31/31 30/30/30 29/29/29
f 32/32/32 31/31/31 29/29/29
f 35/35/35 34/34/34 33/33/33
f 36/36/36 35/35/35 33/33/33
f 39/39/39 38/38/38 37/37/37
f 40/40/40 39/39/39 37/37/37
f 43/43/43 42/42/42 41/41/41
f 44/44/44 43/43/43 41/41/41
f 47/47/47 46/46/46 45/45/45
f 48/48/48 47/47/47 45/45/45
f 51/51/51 50/50/50 49/49/49
f 52/52/52 51/51/51 49/49/49
f 55/55/55 54/54/54 53/53/53
f 56/56/56 55/55/55 53/53/53
f 59/59/59 58/58/58 57/57/57
f 60/60/60 59/59/59 57/57/57
f 63/63/63 62/62/62 61/61/61
f 64/64/64 63/63/63 61/61/61
f 67/67/67 66/66/66 65/65/65
f 68/68/68 67/67/67 65/65/65
f 71/71/71 70/70/70 69/69/69
f 72/72/72 71/71/71 69/69/69
f 75/75/75 74/74/74 73/73/73
f 76/76/76 75/75/75 73/73/73
f 79/79/79 78/78/78 77/77/77
f 80/80/80 79/79/79 77/77/77
f 83/83/83 82/82/82 81/81/81
f 84/84/84 83/83/83 81/81/81
f 87/87/87 86/86/86 85/85/85
f 88/88/88 87/87/87 85/85/85
f 91/91/91 90/90/90 89/89/89
f 92/92/92 91/91/91 89/89/89
f 95/95/95 94/94/94 93/93/93
f 96/96/96 95/95/95 93/93/93
f 99/99/99 98/98/98 97/97/97
f 100/100/100 99/99/99 97/97/97
f 103/103/103 102/102/102 101/101/101
f 104/104/104 103/103/103 101/101/101
f 107/107/107 106/106/106 105/105/105
f 108/108/108 107/107/107 105/105/105
f 111/111/111 110/110/110 109/109/109
f 112/112/112 111/111/111 109/109/109
f 115/115/115 114/114/114 113/113/113
f 116/116/116 115/115/115 113/113/113
f 119/119/119 118/118/118 117/117/117
f 120/120/120 119/119/119 117/117/117
f 123/123/123 122/122/122 121/121/121
f 124/124/124 123/123/123 121/121/121
f 127/127/127 126/126/126 125/125/125
f 128/128/128 127/127/127 125/125/125
f 131/131/131 130/130/130 129/129/129
f 132/132/132 131/131/131 129/129/129
f 135/135/135 134/134/134 133/133/133
f 136/136/136 135/135/135 133/133/133
f 139/139/139 138/138/138 137/137/137
f 140/140/140 139/139/139 137/137/137
f 143/143/143 142/142/142 141/141/141
f 144/144/144 143/143/143 141/141/141
f 147/147/147 146/146/146 145/145/145
f 148/148/148 147/147/147 145/145/145
f 151/151/151 150/150/150 149/149/149
f 152/152/152 151/151/151 149/149/149
f 155/155/155 154/154/154 153/153/153
f 156/156/156 155/155/155 153/153/153
f 159/159/159 158/158/158 157/157/157
f 160/160/160 159/159/159 157/157/157
f 163/163/163 162/162/162 161/161/161
f 164/164/164 163/163/163 161/161/161
f 167/167/167 166/166/166 165/165/165
f 168/168/168 167/167/167 165/165/165
f 171/171/171 170/170/170 169/169/169
f 172/172/172 171/171/171 169/169/169
f 175/175/175 174/174/174 173/173/173
f 176/176/176 175/175/175 173/173/173
f 179/179/179 178/178/178 177/177/177
f 180/180/180 179/179/179 177/177/177
f 183/183/183 182/182/182 181/181/181
f 184/184/184 183/183/183 181/181/181
f 187/187/187 186/186/186 185/185/185
f 188/188/188 187/187/187 185/185/185
f 191/191/191 190/190/190 189/189/189
f 192/192/192 191/191/191 189/189/189
f 195/195/195 194/194/194 193/193/193
f 196/196/196 195/195/195 193/193/193
f 199/199/199 198/198/198 197/197/197
f 200/200/200 199/199/199 197/197/197
f 203/203/203 202/202/202 201/201/201
f 204/204/204 203/203/203 201/201/201
f 207/207/207 206/206/206 205/205/205
f 208/208/208 207/207/207 205/205/205
f 211/211/211 210/210/210 209/209/209
f 212/212/212 211/211/211 209/209/209
f 215/215/215 214/214/214 213/213/213
f 216/216/216 215/215/215 213/213/213
f 219/219/219 218/218/218 217/217/217
f 220/220/220 219/219/219 217/217/217
f 223/223/223 222/222/222 221/221/221
f 224/224/224 223/223/223 221/221/221
f 227/227/227 226/226/226 225/225/225
f 228/228/228 227/227/227 225/225/225
f 231/231/231 230/230/230 229/229/229
f 232/232/232 231/231/231 229/229/229
f 235/235/235 234/234/234 233/233/233
f 236/236/236 235/235/235 233/233/233
f 239/239/239 238/238/238 237/237/237
f 240/240/240 239/239/239 237/237/237
f 243/243/243 242/242/242 241/241/241
f 244/244/244 243/243/243 241/241/241
f 247/247/247 246/246/246 245/245/245
f 248/248/248 247/247/247 245/245/245
