g MS_RoofCorner
v -0.5 -0.5 0.375
v -0.5 -0.5 -0.5
v -0.5 0.375 -0.5
v 0.375 -0.375 0.5
v -0.5 -0.375 0.5
v -0.5 0.5 -0.375
v -0.5 -0.5 -0.5
v 0.375 -0.5 -0.5
v -0.5 0.375 -0.5
v 0.5 -0.375 -0.5
v 0.5 -0.375 0.375
v -0.375 0.5 -0.5
v 0.375 -0.5 -0.5
v -0.5 -0.5 -0.5
v -0.5 -0.5 0.375
v 0.375 -0.5 0.375
v -0.375 0.577693343 -0.5
v -0.375 0.577693343 -0.375
v -0.5 0.577693343 -0.375
v -0.5 0.577693343 -0.5
v 0.5 -0.5 -0.5
v 0.5 -0.375 0.375
v 0.5 -0.375 -0.5
v 0.5 -0.5 0.5
v 0.5 -0.375 0.5
v 0.5 -0.5 0.5
v -0.5 -0.5 0.5
v -0.5 -0.375 0.5
v 0.375 -0.375 0.5
v 0.5 -0.375 0.5
v 0.375 -0.5 -0.5
v 0.5 -0.5 -0.5
v 0.5 -0.375 -0.5
v -0.375 0.5 -0.5
v -0.5 0.375 -0.5
v -0.5 0.5 -0.5
v -0.5 -0.375 0.5
v -0.5 -0.5 0.5
v -0.5 -0.5 0.375
v -0.5 0.375 -0.5
v -0.5 0.5 -0.375
v -0.5 0.5 -0.5
v 0.5 -0.297306657 0.375
v 0.5 -0.297306657 0.5
v -0.375 0.577693343 -0.375
v -0.375 0.577693343 -0.5
v -0.375 0.577693343 -0.375
v 0.5 -0.297306657 0.5
v 0.375 -0.297306657 0.5
v -0.5 0.577693343 -0.375
v -0.375 0.5 -0.5
v -0.375 0.577693343 -0.5
v -0.5 0.577693343 -0.5
v -0.5 0.5 -0.5
v -0.5 0.5 -0.5
v -0.5 0.577693343 -0.5
v -0.5 0.577693343 -0.375
v -0.5 0.5 -0.375
v 0.5 -0.375 0.375
v 0.5 -0.297306657 0.375
v -0.375 0.577693343 -0.5
v -0.375 0.5 -0.5
v 0.5 -0.375 0.5
v 0.5 -0.297306657 0.5
v 0.5 -0.297306657 0.375
v 0.5 -0.375 0.375
v -0.5 0.5 -0.375
v -0.5 0.577693343 -0.375
v 0.375 -0.297306657 0.5
v 0.375 -0.375 0.5
v 0.375 -0.375 0.5
v 0.375 -0.297306657 0.5
v 0.5 -0.297306657 0.5
v 0.5 -0.375 0.5
v -0.5 -0.5 0.5
v 0.5 -0.5 0.5
v 0.375 -0.5 0.375
v -0.5 -0.5 0.375
v 0.5 -0.5 0.5
v 0.5 -0.5 -0.5
v 0.375 -0.5 -0.5
v 0.375 -0.5 0.375
vt 0.845146656 0.0435646325
vt 0.845146656 0.0466819406
vt 0.84826386 0.0466819406
vt 0.314215541 0.628651321
vt 0.580124915 0.628651321
vt 0.580124915 0.992821515
vt 0.847763181 0.0498222113
vt 0.850880504 0.0498222113
vt 0.847763181 0.0467048883
vt 0.580124915 0.628651321
vt 0.314215541 0.628651321
vt 0.580124915 0.992821515
vt 0.949758887 0.0451179743
vt 0.949758887 0.0450848937
vt 0.949725509 0.0450848937
vt 0.949725509 0.0451175198
vt 0.960955858 0.962774158
vt 0.92687887 0.936939716
vt 0.892781436 0.960772514
vt 0.926822603 0.988296986
vt 0.792130888 0.0473193824
vt 0.538574278 0.00993460417
vt 0.792193592 0.00993460417
vt 0.502549291 0.0473193824
vt 0.502624154 0.00993460417
vt 0.792130888 0.0473193824
vt 0.502549291 0.0473193824
vt 0.502624154 0.00993460417
vt 0.755314946 0.00993460417
vt 0.792193592 0.00993460417
vt 0.0393274426 0.00732012093
vt 0.0135723948 0.0311478823
vt 0.0393269658 0.0556558669
vt 0.399898231 0.0556559265
vt 0.399897873 0.00732013583
vt 0.425652385 0.0311478674
vt 0.0393274426 0.00732012093
vt 0.0135723948 0.0311478823
vt 0.0393269658 0.0556558669
vt 0.399898231 0.0556559265
vt 0.399897873 0.00732013583
vt 0.425652385 0.0311478674
vt 0.960955858 0.451316535
vt 0.926853001 0.425974876
vt 0.92687887 0.936939716
vt 0.960955858 0.962774158
vt 0.92687887 0.936939716
vt 0.926853001 0.425974876
vt 0.892907619 0.451316655
vt 0.892781436 0.960772514
vt 0.99093473 0.432680845
vt 0.966553807 0.432680845
vt 0.966553807 0.472855479
vt 0.99093473 0.472855479
vt 0.966553807 0.472855479
vt 0.99093473 0.472855479
vt 0.99093473 0.432680845
vt 0.966553807 0.432680845
vt 0.99093473 0.977633476
vt 0.966553807 0.956531107
vt 0.966553807 0.487469226
vt 0.99093473 0.508571208
vt 0.990934968 0.472855598
vt 0.966553807 0.472855598
vt 0.966553807 0.432680905
vt 0.990934968 0.432680905
vt 0.966553807 0.956531107
vt 0.99093473 0.977633476
vt 0.99093473 0.508571208
vt 0.966553807 0.487469226
vt 0.966553807 0.472855598
vt 0.990934968 0.472855598
vt 0.990934968 0.432680905
vt 0.966553807 0.432680905
vt 0.728411674 0.0470821261
vt 0.433953941 0.0470821261
vt 0.470750511 0.0101138949
vt 0.728412092 0.0101138949
vt 0.433953941 0.0470821261
vt 0.728411674 0.0470821261
vt 0.728412092 0.0101138949
vt 0.470750511 0.0101138949
vn -1 0 0
vn -1 0 0
vn -1 0 0
vn -0 0.707106769 0.707106769
vn -0 0.707106769 0.707106769
vn -0 0.707106769 0.707106769
vn -0 0 -1
vn -0 0 -1
vn -0 0 -1
vn 0.707106769 0.707106769 0
vn 0.707106769 0.707106769 0
vn 0.707106769 0.707106769 0
vn -0 -1 0
vn -0 -1 0
vn -0 -1 0
vn -0 -1 0
vn -0 1 0
vn -0 1 0
vn -0 1 0
vn -0 1 0
vn 1 0 0
vn 1 0 0
vn 1 0 0
vn 1 0 0
vn 1 0 0
vn -0 0 1
vn -0 0 1
vn -0 0 1
vn -0 0 1
vn -0 0 1
vn -0 0 -1
vn -0 0 -1
vn -0 0 -1
vn -0 0 -1
vn -0 0 -1
vn -0 0 -1
vn -1 0 0
vn -1 0 0
vn -1 0 0
vn -1 0 0
vn -1 0 0
vn -1 0 0
vn 0.707106769 0.707106769 0
vn 0.707106769 0.707106769 0
vn 0.707106769 0.707106769 0
vn 0.707106769 0.707106769 0
vn -0 0.707106769 0.707106769
vn -0 0.707106769 0.707106769
vn -0 0.707106769 0.707106769
vn -0 0.707106769 0.707106769
vn -0 0 -1
vn -0 0 -1
vn -0 0 -1
vn -0 0 -1
vn -1 0 0
vn -1 0 0
vn -1 0 0
vn -1 0 0
vn 0.70710516 0 -0.707108378
vn 0.7071051 0 -0.707108378
vn 0.70710516 0 -0.707108378
vn 0.7071051 0 -0.707108378
vn 1 0 0
vn 1 0 0
vn 1 0 0
vn 1 0 0
vn -0.70710665 0 0.707106888
vn -0.70710665 0 0.707106829
vn -0.70710665 0 0.707106888
vn -0.70710665 0 0.707106829
vn -0 0 1
vn -0 0 1
vn -0 0 1
vn -0 0 1
vn -0 -1 0
vn -0 -1 0
vn -0 -1 0
vn -0 -1 0
vn -0 -1 0
vn -0 -1 0
vn -0 -1 0
vn -0 -1 0
g MS_RoofCorner_0
f 3/3/3 2/2/2 1/1/1
f 6/6/6 5/5/5 4/4/4
f 9/9/9 8/8/8 7/7/7
f 12/12/12 11/11/11 10/10/10
f 15/15/15 14/14/14 13/13/13
f 16/16/16 15/15/15 13/13/13
f 19/19/19 18/18/18 17/17/17
f 20/20/20 19/19/19 17/17/17
f 23/23/23 22/22/22 21/21/21
f 22/22/22 24/24/24 21/21/21
f 22/22/22 25/25/25 24/24/24
f 28/28/28 27/27/27 26/26/26
f 29/29/29 28/28/28 26/26/26
f 30/30/30 29/29/29 26/26/26
f 33/33/33 32/32/32 31/31/31
f 31/31/31 34/34/34 33/33/33
f 31/31/31 35/35/35 34/34/34
f 35/35/35 36/36/36 34/34/34
f 39/39/39 38/38/38 37/37/37
f 37/37/37 40/40/40 39/39/39
f 37/37/37 41/41/41 40/40/40
f 41/41/41 42/42/42 40/40/40
f 45/45/45 44/44/44 43/43/43
f 46/46/46 45/45/45 43/43/43
f 49/49/49 48/48/48 47/47/47
f 50/50/50 49/49/49 47/47/47
f 53/53/53 52/52/52 51/51/51
f 54/54/54 53/53/53 51/51/51
f 57/57/57 56/56/56 55/55/55
f 58/58/58 57/57/57 55/55/55
f 61/61/61 60/60/60 59/59/59
f 62/62/62 61/61/61 59/59/59
f 65/65/65 64/64/64 63/63/63
f 66/66/66 65/65/65 63/63/63
f 69/69/69 68/68/68 67/67/67
f 70/70/70 69/69/69 67/67/67
f 73/73/73 72/72/72 71/71/71
f 74/74/74 73/73/73 71/71/71
f 77/77/77 76/76/76 75/75/75
f 78/78/78 77/77/77 75/75/75
f 81/81/81 80/80/80 79/79/79
f 82/82/82 81/81/81 79/79/79
