g LumberColumnMiddle
v -0.125 -0.5 0.124999695
v -0.125 0.5 0.124999695
v 0.125 0.5 0.124999695
v 0.125 -0.5 0.124999695
v -0.125 0.5 0.124999695
v -0.125 0.5 -0.125000298
v 0.125 0.5 -0.125000298
v 0.125 0.5 0.124999695
v -0.125 0.5 -0.125000298
v -0.125 -0.5 -0.125000298
v 0.125 -0.5 -0.125000298
v 0.125 0.5 -0.125000298
v -0.125 -0.5 -0.125000298
v -0.125 -0.5 0.124999695
v 0.125 -0.5 0.124999695
v 0.125 -0.5 -0.125000298
v 0.125 -0.5 0.124999695
v 0.125 0.5 0.124999695
v 0.125 0.5 -0.125000298
v 0.125 -0.5 -0.125000298
v -0.125 -0.5 -0.125000298
v -0.125 0.5 -0.125000298
v -0.125 0.5 0.124999695
v -0.125 -0.5 0.124999695
vt 0.0360349566 0.440518856
vt 0.394397378 0.440518856
vt 0.394397408 0.350928128
vt 0.0360349566 0.350928247
vt 0.905261934 0.106969111
vt 0.905261934 0.194189101
vt 0.992482245 0.194189101
vt 0.992482245 0.106969111
vt 0.0360350758 0.440518856
vt 0.394397467 0.440518856
vt 0.394397438 0.350928128
vt 0.0360349417 0.350928247
vt 0.905261934 0.194189101
vt 0.905261934 0.106969111
vt 0.992482245 0.106969111
vt 0.992482245 0.194189101
vt 0.019826686 0.436067015
vt 0.378189236 0.436067075
vt 0.378189296 0.346476406
vt 0.0198268648 0.346476406
vt 0.0198268052 0.436067015
vt 0.378189236 0.436067075
vt 0.378189236 0.346476406
vt 0.0198269244 0.346476406
vn -0 0 1
vn -0 0 1
vn -0 0 1
vn -0 0 1
vn -0 1 0
vn -0 1 0
vn -0 1 0
vn -0 1 0
vn -0 0 -1
vn -0 0 -1
vn -0 0 -1
vn -0 0 -1
vn -0 -1 0
vn -0 -1 0
vn -0 -1 0
vn -0 -1 0
vn 1 0 0
vn 1 0 0
vn 1 0 0
vn 1 0 0
vn -1 0 0
vn -1 0 0
vn -1 0 0
vn -1 0 0
g LumberColumnMiddle_0
f 3/3/3 2/2/2 1/1/1
f 4/4/4 3/3/3 1/1/1
f 7/7/7 6/6/6 5/5/5
f 8/8/8 7/7/7 5/5/5
f 11/11/11 10/10/10 9/9/9
f 12/12/12 11/11/11 9/9/9
f 15/15/15 14/14/14 13/13/13
f 16/16/16 15/15/15 13/13/13
f 19/19/19 18/18/18 17/17/17
f 20/20/20 19/19/19 17/17/17
f 23/23/23 22/22/22 21/21/21
f 24/24/24 23/23/23 21/21/21
