g WoodFenceStraightCapped
v -0.4921875 0.191339865 0.0625
v -0.171875 -0.5 0.0625
v -0.4921875 -0.5 0.0625
v -0.171875 0.191339865 0.0625
v -0.367865592 0.5 0.0625
v -0.296196878 0.5 0.0625
v -0.367865592 0.5 -0.0625
v -0.296196878 0.5 -0.0625
v -0.296196878 0.5 0.0625
v -0.367865592 0.5 0.0625
v -0.4921875 -0.5 -0.0625
v -0.171875 -0.5 -0.0625
v -0.171875 0.191339865 -0.0625
v -0.4921875 0.191339865 -0.0625
v -0.296196878 0.5 -0.0625
v -0.367865592 0.5 -0.0625
v -0.4921875 -0.5 0.0625
v -0.171875 -0.5 0.0625
v -0.171875 -0.5 -0.0625
v -0.4921875 -0.5 -0.0625
v -0.171875 0.191339865 0.0625
v -0.171875 0.191339865 -0.0625
v -0.171875 -0.5 -0.0625
v -0.171875 -0.5 0.0625
v -0.4921875 0.191339865 -0.0625
v -0.4921875 0.191339865 0.0625
v -0.4921875 -0.5 0.0625
v -0.4921875 -0.5 -0.0625
v -0.296196878 0.5 0.0625
v -0.296196878 0.5 -0.0625
v -0.171875 0.191339865 -0.0625
v -0.171875 0.191339865 0.0625
v -0.367865592 0.5 -0.0625
v -0.367865592 0.5 0.0625
v -0.4921875 0.191339865 0.0625
v -0.4921875 0.191339865 -0.0625
v -0.5 0.108803749 0.0625
v -0.5 0.108803749 0.162499994
v -0.5 -0.091196239 0.162499994
v -0.5 -0.091196239 0.0625
v 0.5 0.108803749 0.0625
v 0.5 0.108803749 0.162499994
v -0.5 0.108803749 0.162499994
v -0.5 0.108803749 0.0625
v 0.5 -0.091196239 0.0625
v 0.5 -0.091196239 0.162499994
v 0.5 0.108803749 0.162499994
v 0.5 0.108803749 0.0625
v -0.5 -0.091196239 0.0625
v -0.5 -0.091196239 0.162499994
v 0.5 -0.091196239 0.162499994
v 0.5 -0.091196239 0.0625
v -0.5 0.108803749 0.162499994
v 0.5 0.108803749 0.162499994
v 0.5 -0.091196239 0.162499994
v -0.5 -0.091196239 0.162499994
v 0.5 0.108803749 0.0625
v -0.5 0.108803749 0.0625
v -0.5 -0.091196239 0.0625
v 0.5 -0.091196239 0.0625
v 0.5 0.108803749 -0.0625
v 0.5 0.108803749 -0.162499994
v 0.5 -0.091196239 -0.162499994
v 0.5 -0.091196239 -0.0625
v -0.5 0.108803749 -0.0625
v -0.5 0.108803749 -0.162499994
v 0.5 0.108803749 -0.162499994
v 0.5 0.108803749 -0.0625
v -0.5 -0.091196239 -0.0625
v -0.5 -0.091196239 -0.162499994
v -0.5 0.108803749 -0.162499994
v -0.5 0.108803749 -0.0625
v 0.5 -0.091196239 -0.0625
v 0.5 -0.091196239 -0.162499994
v -0.5 -0.091196239 -0.162499994
v -0.5 -0.091196239 -0.0625
v 0.5 0.108803749 -0.162499994
v -0.5 0.108803749 -0.162499994
v -0.5 -0.091196239 -0.162499994
v 0.5 -0.091196239 -0.162499994
v -0.5 0.108803749 -0.0625
v 0.5 0.108803749 -0.0625
v 0.5 -0.091196239 -0.0625
v -0.5 -0.091196239 -0.0625
v -0.16015625 0.191339865 0.0625
v 0.16015625 -0.5 0.0625
v -0.16015625 -0.5 0.0625
v 0.16015625 0.191339865 0.0625
v -0.0358343497 0.5 0.0625
v 0.0358343497 0.5 0.0625
v -0.0358343497 0.5 -0.0625
v 0.0358343497 0.5 -0.0625
v 0.0358343497 0.5 0.0625
v -0.0358343497 0.5 0.0625
v -0.16015625 -0.5 -0.0625
v 0.16015625 -0.5 -0.0625
v 0.16015625 0.191339865 -0.0625
v -0.16015625 0.191339865 -0.0625
v 0.0358343497 0.5 -0.0625
v -0.0358343497 0.5 -0.0625
v -0.16015625 -0.5 0.0625
v 0.16015625 -0.5 0.0625
v 0.16015625 -0.5 -0.0625
v -0.16015625 -0.5 -0.0625
v 0.16015625 0.191339865 0.0625
v 0.16015625 0.191339865 -0.0625
v 0.16015625 -0.5 -0.0625
v 0.16015625 -0.5 0.0625
v -0.16015625 0.191339865 -0.0625
v -0.16015625 0.191339865 0.0625
v -0.16015625 -0.5 0.0625
v -0.16015625 -0.5 -0.0625
v 0.0358343497 0.5 0.0625
v 0.0358343497 0.5 -0.0625
v 0.16015625 0.191339865 -0.0625
v 0.16015625 0.191339865 0.0625
v -0.0358343497 0.5 -0.0625
v -0.0358343497 0.5 0.0625
v -0.16015625 0.191339865 0.0625
v -0.16015625 0.191339865 -0.0625
v 0.171875 0.191339865 0.0625
v 0.4921875 0.191339865 0.0625
v 0.4921875 -0.5 0.0625
v 0.171875 -0.5 0.0625
v 0.296196878 0.5 -0.0625
v 0.367865592 0.5 -0.0625
v 0.367865592 0.5 0.0625
v 0.296196878 0.5 0.0625
v 0.171875 -0.5 -0.0625
v 0.4921875 -0.5 -0.0625
v 0.4921875 0.191339865 -0.0625
v 0.171875 0.191339865 -0.0625
v 0.171875 -0.5 0.0625
v 0.4921875 -0.5 0.0625
v 0.4921875 -0.5 -0.0625
v 0.171875 -0.5 -0.0625
v 0.4921875 0.191339865 0.0625
v 0.4921875 0.191339865 -0.0625
v 0.4921875 -0.5 -0.0625
v 0.4921875 -0.5 0.0625
v 0.171875 0.191339865 -0.0625
v 0.171875 0.191339865 0.0625
v 0.171875 -0.5 0.0625
v 0.171875 -0.5 -0.0625
v 0.296196878 0.5 0.0625
v 0.367865592 0.5 0.0625
v 0.4921875 0.191339865 0.0625
v 0.171875 0.191339865 0.0625
v 0.367865592 0.5 0.0625
v 0.367865592 0.5 -0.0625
v 0.4921875 0.191339865 -0.0625
v 0.4921875 0.191339865 0.0625
v 0.367865592 0.5 -0.0625
v 0.296196878 0.5 -0.0625
v 0.171875 0.191339865 -0.0625
v 0.4921875 0.191339865 -0.0625
v 0.296196878 0.5 -0.0625
v 0.296196878 0.5 0.0625
v 0.171875 0.191339865 0.0625
v 0.171875 0.191339865 -0.0625
vt 0.943294287 0.0474291854
vt 0.937287331 0.0455051176
vt 0.937287331 0.0474291854
vt 0.943294287 0.0455050878
vt 0.945148289 0.0466823988
vt 0.945148289 0.0462518856
vt 0.745241582 0.521462381
vt 0.745241582 0.481758833
vt 0.699052095 0.481758833
vt 0.699052095 0.521462381
vt 0.937299669 0.0494181812
vt 0.937299669 0.0513041019
vt 0.943187416 0.0513041019
vt 0.943187416 0.0494181812
vt 0.945004761 0.0505721271
vt 0.945004761 0.050150156
vt 0.461384326 0.935513616
vt 0.574617386 0.935513616
vt 0.574617386 0.884529173
vt 0.461384326 0.884529173
vt 0.764707088 0.674241424
vt 0.810332239 0.674241424
vt 0.810332239 0.222697511
vt 0.764707088 0.222697511
vt 0.76442802 0.674241424
vt 0.81005311 0.674241424
vt 0.81005311 0.222697511
vt 0.76442802 0.222697511
vt 0.699095666 0.481751382
vt 0.745264709 0.481751382
vt 0.745264709 0.321248144
vt 0.699095666 0.321248144
vt 0.745265841 0.521323323
vt 0.699087799 0.521323323
vt 0.699087799 0.684387207
vt 0.745265841 0.684387207
vt 0.848762691 0.0505636707
vt 0.850791991 0.0505636707
vt 0.850791991 0.0465858355
vt 0.848762691 0.0465858355
vt 0.596334755 0.0813234672
vt 0.563270986 0.0813234672
vt 0.563270986 0.457858503
vt 0.596334755 0.457858503
vt 0.850791991 0.0466373339
vt 0.848762691 0.0466373339
vt 0.848762691 0.0504924431
vt 0.850791991 0.0504924431
vt 0.563270986 0.457858503
vt 0.596334755 0.457858503
vt 0.596334755 0.0813234672
vt 0.563270986 0.0813234672
vt 0.859031737 0.0557069555
vt 0.859031856 0.0389221087
vt 0.856286347 0.0389235392
vt 0.856286943 0.055708386
vt 0.856286228 0.0389236584
vt 0.856286943 0.0557085052
vt 0.859031618 0.0557068363
vt 0.859031975 0.0389219895
vt 0.848762691 0.0505636707
vt 0.850791991 0.0505636707
vt 0.850791991 0.0465858355
vt 0.848762691 0.0465858355
vt 0.596334755 0.0813234672
vt 0.563270986 0.0813234672
vt 0.563270986 0.457858503
vt 0.596334755 0.457858503
vt 0.850791991 0.0466373339
vt 0.848762691 0.0466373339
vt 0.848762691 0.0504924431
vt 0.850791991 0.0504924431
vt 0.563270986 0.457858503
vt 0.596334755 0.457858503
vt 0.596334755 0.0813234672
vt 0.563270986 0.0813234672
vt 0.859031737 0.0557069555
vt 0.859031856 0.0389221087
vt 0.856286347 0.0389235392
vt 0.856286943 0.055708386
vt 0.856286228 0.0389236584
vt 0.856286943 0.0557085052
vt 0.859031618 0.0557068363
vt 0.859031975 0.0389219895
vt 0.943187416 0.0513033867
vt 0.937299669 0.0494174659
vt 0.937299669 0.0513033867
vt 0.943187416 0.0494174659
vt 0.945004761 0.0505714118
vt 0.945004761 0.0501494408
vt 0.745241582 0.521462381
vt 0.745241582 0.481758833
vt 0.699052095 0.481758833
vt 0.699052095 0.521462381
vt 0.937287331 0.0455058329
vt 0.937287331 0.0474299155
vt 0.943294287 0.0474299155
vt 0.943294287 0.0455058329
vt 0.945148289 0.046683114
vt 0.945148289 0.0462526232
vt 0.461384326 0.935513616
vt 0.574617386 0.935513616
vt 0.574617386 0.884529173
vt 0.461384326 0.884529173
vt 0.764707088 0.674241424
vt 0.810332239 0.674241424
vt 0.810332239 0.222697511
vt 0.764707088 0.222697511
vt 0.76442802 0.674241424
vt 0.81005311 0.674241424
vt 0.81005311 0.222697511
vt 0.76442802 0.222697511
vt 0.745286107 0.521350145
vt 0.699073493 0.521350145
vt 0.699073493 0.684359848
vt 0.745286107 0.684359848
vt 0.699097872 0.481755525
vt 0.745256066 0.481755525
vt 0.745256066 0.321254492
vt 0.699097872 0.321254492
vt 0.937287331 0.0474291854
vt 0.937287331 0.0455051176
vt 0.943294287 0.0455050878
vt 0.943294287 0.0474291854
vt 0.745241582 0.521462381
vt 0.745241582 0.481758833
vt 0.699052095 0.481758833
vt 0.699052095 0.521462381
vt 0.943187416 0.0494181812
vt 0.943187416 0.0513041019
vt 0.937299669 0.0513041019
vt 0.937299669 0.0494181812
vt 0.461384326 0.935513616
vt 0.574617386 0.935513616
vt 0.574617386 0.884529173
vt 0.461384326 0.884529173
vt 0.764707088 0.674241424
vt 0.810332239 0.674241424
vt 0.810332239 0.222697511
vt 0.764707088 0.222697511
vt 0.76442802 0.674241424
vt 0.81005311 0.674241424
vt 0.81005311 0.222697511
vt 0.76442802 0.222697511
vt 0.945148289 0.0466823988
vt 0.945148289 0.0462518856
vt 0.943294287 0.0455050878
vt 0.943294287 0.0474291854
vt 0.699095666 0.481751382
vt 0.745264709 0.481751382
vt 0.745264709 0.321248144
vt 0.699095666 0.321248144
vt 0.945004761 0.0505721271
vt 0.945004761 0.050150156
vt 0.943187416 0.0494181812
vt 0.943187416 0.0513041019
vt 0.745265841 0.521323323
vt 0.699087799 0.521323323
vt 0.699087799 0.684387207
vt 0.745265841 0.684387207
vn -0 0 1
vn -0 0 1
vn -0 0 1
vn -0 0 1
vn -0 0 1
vn -0 0 1
vn -0 1 0
vn -0 1 0
vn -0 1 0
vn -0 1 0
vn -0 0 -1
vn -0 0 -1
vn -0 0 -1
vn -0 0 -1
vn -0 0 -1
vn -0 0 -1
vn -0 -1 0
vn -0 -1 0
vn -0 -1 0
vn -0 -1 0
vn 1 0 0
vn 1 0 0
vn 1 0 0
vn 1 0 0
vn -1 0 0
vn -1 0 0
vn -1 0 0
vn -1 0 0
vn 0.927584648 0.373613 0
vn 0.927584231 0.373613954 0
vn 0.927585483 0.373610854 0
vn 0.9275859 0.37360999 0
vn -0.927584648 0.373613 0
vn -0.927584231 0.373613954 0
vn -0.927585483 0.373610854 0
vn -0.9275859 0.37360999 0
vn -1 0 0
vn -1 0 0
vn -1 0 0
vn -1 0 0
vn -0 1 0
vn -0 1 0
vn -0 1 0
vn -0 1 0
vn 1 0 0
vn 1 0 0
vn 1 0 0
vn 1 0 0
vn -0 -1 0
vn -0 -1 0
vn -0 -1 0
vn -0 -1 0
vn -0 0 1
vn -0 0 1
vn -0 0 1
vn -0 0 1
vn -0 0 -1
vn -0 0 -1
vn -0 0 -1
vn -0 0 -1
vn 1 0 0
vn 1 0 0
vn 1 0 0
vn 1 0 0
vn -0 1 0
vn -0 1 0
vn -0 1 0
vn -0 1 0
vn -1 0 0
vn -1 0 0
vn -1 0 0
vn -1 0 0
vn -0 -1 0
vn -0 -1 0
vn -0 -1 0
vn -0 -1 0
vn -0 0 -1
vn -0 0 -1
vn -0 0 -1
vn -0 0 -1
vn -0 0 1
vn -0 0 1
vn -0 0 1
vn -0 0 1
vn -0 0 1
vn -0 0 1
vn -0 0 1
vn -0 0 1
vn -0 0 1
vn -0 0 1
vn -0 1 0
vn -0 1 0
vn -0 1 0
vn -0 1 0
vn -0 0 -1
vn -0 0 -1
vn -0 0 -1
vn -0 0 -1
vn -0 0 -1
vn -0 0 -1
vn -0 -1 0
vn -0 -1 0
vn -0 -1 0
vn -0 -1 0
vn 1 0 0
vn 1 0 0
vn 1 0 0
vn 1 0 0
vn -1 0 0
vn -1 0 0
vn -1 0 0
vn -1 0 0
vn 0.927585185 0.373611927 0
vn 0.927585065 0.373611957 0
vn 0.927585185 0.373611927 0
vn 0.927585065 0.373611957 0
vn -0.927585185 0.373611927 0
vn -0.927585065 0.373611957 0
vn -0.927585185 0.373611927 0
vn -0.927585065 0.373611957 0
vn -0 0 1
vn -0 0 1
vn -0 0 1
vn -0 0 1
vn -0 1 0
vn -0 1 0
vn -0 1 0
vn -0 1 0
vn -0 0 -1
vn -0 0 -1
vn -0 0 -1
vn -0 0 -1
vn -0 -1 0
vn -0 -1 0
vn -0 -1 0
vn -0 -1 0
vn 1 0 0
vn 1 0 0
vn 1 0 0
vn 1 0 0
vn -1 0 0
vn -1 0 0
vn -1 0 0
vn -1 0 0
vn -0 0 1
vn -0 0 1
vn -0 0 1
vn -0 0 1
vn 0.927585185 0.373611927 0
vn 0.927585065 0.373611957 0
vn 0.927585185 0.373611927 0
vn 0.927585065 0.373611957 0
vn -0 0 -1
vn -0 0 -1
vn -0 0 -1
vn -0 0 -1
vn -0.927585185 0.373611927 0
vn -0.927585065 0.373611957 0
vn -0.927585185 0.373611927 0
vn -0.927585065 0.373611957 0
g WoodFenceStraightCapped_0
f 3/3/3 2/2/2 1/1/1
f 2/2/2 4/4/4 1/1/1
f 1/1/1 4/4/4 5/5/5
f 4/4/4 6/6/6 5/5/5
f 9/9/9 8/8/8 7/7/7
f 10/10/10 9/9/9 7/7/7
f 13/13/13 12/12/12 11/11/11
f 14/14/14 13/13/13 11/11/11
f 13/13/13 14/14/14 15/15/15
f 14/14/14 16/16/16 15/15/15
f 19/19/19 18/18/18 17/17/17
f 20/20/20 19/19/19 17/17/17
f 23/23/23 22/22/22 21/21/21
f 24/24/24 23/23/23 21/21/21
f 27/27/27 26/26/26 25/25/25
f 28/28/28 27/27/27 25/25/25
f 31/31/31 30/30/30 29/29/29
f 32/32/32 31/31/31 29/29/29
f 35/35/35 34/34/34 33/33/33
f 36/36/36 35/35/35 33/33/33
f 39/39/39 38/38/38 37/37/37
f 40/40/40 39/39/39 37/37/37
f 43/43/43 42/42/42 41/41/41
f 44/44/44 43/43/43 41/41/41
f 47/47/47 46/46/46 45/45/45
f 48/48/48 47/47/47 45/45/45
f 51/51/51 50/50/50 49/49/49
f 52/52/52 51/51/51 49/49/49
f 55/55/55 54/54/54 53/53/53
f 56/56/56 55/55/55 53/53/53
f 59/59/59 58/58/58 57/57/57
f 60/60/60 59/59/59 57/57/57
f 63/63/63 62/62/62 61/61/61
f 64/64/64 63/63/63 61/61/61
f 67/67/67 66/66/66 65/65/65
f 68/68/68 67/67/67 65/65/65
f 71/71/71 70/70/70 69/69/69
f 72/72/72 71/71/71 69/69/69
f 75/75/75 74/74/74 73/73/73
f 76/76/76 75/75/75 73/73/73
f 79/79/79 78/78/78 77/77/77
f 80/80/80 79/79/79 77/77/77
f 83/83/83 82/82/82 81/81/81
f 84/84/84 83/83/83 81/81/81
f 87/87/87 86/86/86 85/85/85
f 86/86/86 88/88/88 85/85/85
f 85/85/85 88/88/88 89/89/89
f 88/88/88 90/90/90 89/89/89
f 93/93/93 92/92/92 91/91/91
f 94/94/94 93/93/93 91/91/91
f 97/97/97 96/96/96 95/95/95
f 98/98/98 97/97/97 95/95/95
f 97/97/97 98/98/98 99/99/99
f 98/98/98 100/100/100 99/99/99
f 103/103/103 102/102/102 101/101/101
f 104/104/104 103/103/103 101/101/101
f 107/107/107 106/106/106 105/105/105
f 108/108/108 107/107/107 105/105/105
f 111/111/111 110/110/110 109/109/109
f 112/112/112 111/111/111 109/109/109
f 115/115/115 114/114/114 113/113/113
f 116/116/116 115/115/115 113/113/113
f 119/119/119 118/118/118 117/117/117
f 120/120/120 119/119/119 117/117/117
f 123/123/123 122/122/122 121/121/121
f 124/124/124 123/123/123 121/121/121
f 127/127/127 126/126/126 125/125/125
f 128/128/128 127/127/127 125/125/125
f 131/131/131 130/130/130 129/129/129
f 132/132/132 131/131/131 129/129/129
f 135/135/135 134/134/134 133/133/133
f 136/136/136 135/135/135 133/133/133
f 139/139/139 138/138/138 137/137/137
f 140/140/140 139/139/139 137/137/137
f 143/143/143 142/142/142 141/141/141
f 144/144/144 143/143/143 141/141/141
f 147/147/147 146/146/146 145/145/145
f 148/148/148 147/147/147 145/145/145
f 151/151/151 150/150/150 149/149/149
f 152/152/152 151/151/151 149/149/149
f 155/155/155 154/154/154 153/153/153
f 156/156/156 155/155/155 153/153/153
f 159/159/159 158/158/158 157/157/157
f 160/160/160 159/159/159 157/157/157
