g LumberWindow
v -0.0313558951 0.46418938 0.464189291
v -0.0313558951 -0.464190811 0.464189291
v -0.0313558951 -0.464190811 -0.464187622
v -0.0313558951 0.46418938 -0.464187622
v 0.0313558951 -0.464190811 0.464189291
v 0.0313558951 0.46418938 0.464189291
v 0.0313558951 0.46418938 -0.464187622
v 0.0313558951 -0.464190811 -0.464187622
v 0.0642517433 0.414389968 0.0231108088
v 0.0642518252 0.414389968 -0.0231109615
v 0.0642518625 -0.41438967 -0.0231111143
v 0.0642517433 -0.414389372 0.0231111143
v 0.0642517433 -0.414389372 0.0231111143
v -0.0642519742 -0.414389372 0.0231111143
v -0.0642519742 0.414389968 0.0231108088
v 0.0642517433 0.414389968 0.0231108088
v -0.0642519742 -0.414389372 0.0231111143
v -0.0642518252 -0.414389372 -0.0231111143
v -0.0642518997 0.414389968 -0.0231109615
v -0.0642519742 0.414389968 0.0231108088
v -0.0642518252 -0.414389372 -0.0231111143
v 0.0642518625 -0.41438967 -0.0231111143
v 0.0642518252 0.414389968 -0.0231109615
v -0.0642518997 0.414389968 -0.0231109615
v 0.07529594 -0.0231108088 0.414389968
v 0.075296022 0.0231109615 0.414389968
v 0.0752960593 0.0231111143 -0.41438967
v 0.07529594 -0.0231111143 -0.414389372
v 0.07529594 -0.0231111143 -0.414389372
v -0.0752962455 -0.0231111143 -0.414389372
v -0.0752962455 -0.0231108088 0.414389968
v 0.07529594 -0.0231108088 0.414389968
v -0.0752962455 -0.0231111143 -0.414389372
v -0.0752960593 0.0231111143 -0.414389372
v -0.0752961338 0.0231109615 0.414389968
v -0.0752962455 -0.0231108088 0.414389968
v -0.0752960593 0.0231111143 -0.414389372
v 0.0752960593 0.0231111143 -0.41438967
v 0.075296022 0.0231109615 0.414389968
v -0.0752961338 0.0231109615 0.414389968
v 0.129083395 0.39127937 -0.391278058
v 0.129083395 0.39127937 -0.4375
v 0.129083559 -0.437500596 -0.4375
v 0.129083395 -0.4375 -0.39127776
v 0.129083395 -0.4375 -0.39127776
v -0.129083857 -0.4375 -0.39127776
v -0.129083857 0.39127937 -0.391278058
v 0.129083395 0.39127937 -0.391278058
v -0.129083857 -0.4375 -0.39127776
v -0.129083559 -0.4375 -0.4375
v -0.129083857 0.39127937 -0.4375
v -0.129083857 0.39127937 -0.391278058
v -0.129083559 0.5 0.5
v -0.129083559 0.5 -0.5
v 0.129083559 0.5 -0.5
v 0.129083559 0.5 0.5
v 0.129083559 0.5 0.5
v 0.129083559 0.5 -0.5
v 0.129083559 0.43750152 -0.43749845
v 0.129083559 0.4375 0.437500596
v -0.129083559 0.4375 0.4375
v -0.129083559 0.43750152 -0.43749845
v -0.129083559 0.5 -0.5
v -0.129083559 0.5 0.5
v -0.129083559 -0.5 0.5
v -0.129083559 0.5 0.5
v 0.129083559 0.5 0.5
v 0.129083559 -0.5 0.5
v 0.129083559 -0.5 0.5
v 0.129083559 0.5 0.5
v 0.129083559 0.4375 0.437500596
v 0.129083559 -0.437502116 0.43749845
v -0.129083559 -0.437501818 0.43749845
v -0.129083559 0.4375 0.4375
v -0.129083559 0.5 0.5
v -0.129083559 -0.5 0.5
v -0.129083559 -0.5 -0.5
v -0.129083559 -0.5 0.5
v 0.129083559 -0.5 0.5
v 0.129083559 -0.5 -0.5
v 0.129083559 -0.5 -0.5
v 0.129083559 -0.5 0.5
v 0.129083559 -0.437502116 0.43749845
v 0.129083559 -0.437500596 -0.4375
v -0.129083559 -0.4375 -0.4375
v -0.129083559 -0.437501818 0.43749845
v -0.129083559 -0.5 0.5
v -0.129083559 -0.5 -0.5
v -0.129083559 0.5 -0.5
v -0.129083559 -0.5 -0.5
v 0.129083559 -0.5 -0.5
v 0.129083559 0.5 -0.5
v 0.129083559 0.5 -0.5
v 0.129083559 -0.5 -0.5
v 0.129083559 -0.437500596 -0.4375
v 0.129083559 0.43750152 -0.43749845
v -0.129083559 0.43750152 -0.43749845
v -0.129083559 -0.4375 -0.4375
v -0.129083559 -0.5 -0.5
v -0.129083559 0.5 -0.5
v 0.129083395 -0.391277909 -0.39127776
v 0.129083395 -0.4375 -0.39127776
v 0.129083559 -0.437502116 0.43749845
v 0.129083857 -0.391277999 0.437498778
v 0.129083857 -0.391277999 0.437498778
v -0.129083395 -0.391277999 0.437498778
v -0.129083857 -0.391277909 -0.39127776
v 0.129083395 -0.391277909 -0.39127776
v -0.129083395 -0.391277999 0.437498778
v -0.129083559 -0.437501818 0.43749845
v -0.129083857 -0.4375 -0.39127776
v -0.129083857 -0.391277909 -0.39127776
v 0.129083857 0.39127937 0.391276538
v 0.129083857 0.437501431 0.391276538
v 0.129083559 0.43750152 -0.43749845
v 0.129083395 0.39127937 -0.4375
v 0.129083395 0.39127937 -0.4375
v -0.129083857 0.39127937 -0.4375
v -0.129083395 0.39127937 0.391276538
v 0.129083857 0.39127937 0.391276538
v -0.129083857 0.39127937 -0.4375
v -0.129083559 0.43750152 -0.43749845
v -0.129083395 0.437501431 0.391276538
v -0.129083395 0.39127937 0.391276538
v 0.129083857 -0.391278058 0.391276538
v 0.129083857 -0.391277999 0.437498778
v 0.129083559 0.4375 0.437500596
v 0.129083857 0.437501431 0.391276538
v 0.129083857 0.437501431 0.391276538
v -0.129083395 0.437501431 0.391276538
v -0.129083395 -0.391278058 0.391276538
v 0.129083857 -0.391278058 0.391276538
v -0.129083395 0.437501431 0.391276538
v -0.129083559 0.4375 0.4375
v -0.129083395 -0.391277999 0.437498778
v -0.129083395 -0.391278058 0.391276538
vt 0.0127436519 0.0104893446
vt 0.0127436519 0.299386978
vt 0.301640362 0.299386978
vt 0.301640362 0.0104893446
vt 0.0127436519 0.0104893744
vt 0.0127436519 0.299386978
vt 0.301640362 0.299386978
vt 0.301640362 0.0104893744
vt 0.140368268 0.400032163
vt 0.140368268 0.384126216
vt 0.446929574 0.384126216
vt 0.446929574 0.400032163
vt 0.357341349 0.381816328
vt 0.357341468 0.404144913
vt 0.277655274 0.404144168
vt 0.277655274 0.381815404
vt 0.446929574 0.400032163
vt 0.446929574 0.384126216
vt 0.140368268 0.384126216
vt 0.140368268 0.400032163
vt 0.357341349 0.381816328
vt 0.357341468 0.404144913
vt 0.277655274 0.404144168
vt 0.277655274 0.381815404
vt 0.140368268 0.400032163
vt 0.140368268 0.384126216
vt 0.446929574 0.384126216
vt 0.446929574 0.400032163
vt 0.357341349 0.381816328
vt 0.357341468 0.404144913
vt 0.277655274 0.404144168
vt 0.277655274 0.381815404
vt 0.446929574 0.400032163
vt 0.446929574 0.384126216
vt 0.140368268 0.384126216
vt 0.140368268 0.400032163
vt 0.357341349 0.381816328
vt 0.357341468 0.404144913
vt 0.277655274 0.404144168
vt 0.277655274 0.381815404
vt 0.143421441 0.569356859
vt 0.143421352 0.553799629
vt 0.443262637 0.553799629
vt 0.443262517 0.569356859
vt 0.442274034 0.381616414
vt 0.442274064 0.404384226
vt 0.361020684 0.404383421
vt 0.361020684 0.38161546
vt 0.443262637 0.569356859
vt 0.443262637 0.553799629
vt 0.143421441 0.553799629
vt 0.143421441 0.569356859
vt 0.550168335 0.186812878
vt 0.550167203 0.459023356
vt 0.49692899 0.459023595
vt 0.496931255 0.186813414
vt 0.449050933 0.227347434
vt 0.448885947 0.618605852
vt 0.473346144 0.594173312
vt 0.473492891 0.251815081
vt 0.473350376 0.594150662
vt 0.473474652 0.251773357
vt 0.449028462 0.227307975
vt 0.448885649 0.618597031
vt 0.55016464 0.186814249
vt 0.550164938 0.459023356
vt 0.496928036 0.45902431
vt 0.496928275 0.186814725
vt 0.449051291 0.227346599
vt 0.448885292 0.618606567
vt 0.473345786 0.594173789
vt 0.473492652 0.251817524
vt 0.473350376 0.594151378
vt 0.473474771 0.251772821
vt 0.449028462 0.227307975
vt 0.448885769 0.618596911
vt 0.550167739 0.186813831
vt 0.550167501 0.459023595
vt 0.496929467 0.459023595
vt 0.496930838 0.186814129
vt 0.449041277 0.227325499
vt 0.448888987 0.618599892
vt 0.473350018 0.594160795
vt 0.473484308 0.251794696
vt 0.473350257 0.594150543
vt 0.473474056 0.251772881
vt 0.449028522 0.227307916
vt 0.448886007 0.61859715
vt 0.550168157 0.186813116
vt 0.550166786 0.459023178
vt 0.496929884 0.459023833
vt 0.49693203 0.186813593
vt 0.449050337 0.227347255
vt 0.448886365 0.618605494
vt 0.473348349 0.594168544
vt 0.473493248 0.251813412
vt 0.473351032 0.59415102
vt 0.473475009 0.251772523
vt 0.449028462 0.227307975
vt 0.448885649 0.618597031
vt 0.143422112 0.569356024
vt 0.143422112 0.553799331
vt 0.44326216 0.553798795
vt 0.443262219 0.569356501
vt 0.442274034 0.381615758
vt 0.442273945 0.40438354
vt 0.361020923 0.40438354
vt 0.361020923 0.381615758
vt 0.443262219 0.569356501
vt 0.44326216 0.553798914
vt 0.143422112 0.553798974
vt 0.143422112 0.569356024
vt 0.143421695 0.569356501
vt 0.143422112 0.553799331
vt 0.443261802 0.553799331
vt 0.44326216 0.569356501
vt 0.442273796 0.381615758
vt 0.442273796 0.40438354
vt 0.361020684 0.40438354
vt 0.361020684 0.381615758
vt 0.44326216 0.569356501
vt 0.443261802 0.553799331
vt 0.143422112 0.553799331
vt 0.143421695 0.569356501
vt 0.143421143 0.56935662
vt 0.143421441 0.553799748
vt 0.443262339 0.55379951
vt 0.443262637 0.569357038
vt 0.442274123 0.381615609
vt 0.442274123 0.40438354
vt 0.361020684 0.40438354
vt 0.361020684 0.381615758
vt 0.443262637 0.569356859
vt 0.443262339 0.553799331
vt 0.143421441 0.55379957
vt 0.143421143 0.569356501
vn -1 0 0
vn -1 0 0
vn -1 0 0
vn -1 0 0
vn 1 0 0
vn 1 0 0
vn 1 0 0
vn 1 0 0
vn 1 0 8.21589936E-07
vn 1 0 8.21590049E-07
vn 1 0 8.21590049E-07
vn 1 0 8.21590049E-07
vn -0 3.68223198E-07 1
vn -0 3.68223198E-07 1
vn -0 3.68223198E-07 1
vn -0 3.68223198E-07 1
vn -1 0 -1.64317987E-06
vn -1 0 -1.6431801E-06
vn -1 0 -1.6431801E-06
vn -1 0 -1.64317987E-06
vn -0 3.68223198E-07 -1
vn -0 3.68223198E-07 -1
vn -0 3.68223198E-07 -1
vn -0 3.68223198E-07 -1
vn 1 -9.62812578E-07 0
vn 1 -9.62812692E-07 0
vn 1 -9.62812805E-07 0
vn 1 -9.62812805E-07 0
vn -0 -1 3.68223198E-07
vn -0 -1 3.68223198E-07
vn -0 -1 3.68223198E-07
vn -0 -1 3.68223198E-07
vn -1 1.92562516E-06 0
vn -1 1.92562538E-06 0
vn -1 1.92562538E-06 0
vn -1 1.92562516E-06 0
vn -0 1 3.68223198E-07
vn -0 1 3.68223198E-07
vn -0 1 3.68223198E-07
vn -0 1 3.68223198E-07
vn 1 1.59327797E-07 1.65059498E-06
vn 1 1.59327797E-07 1.65059521E-06
vn 1 1.59327826E-07 1.65059532E-06
vn 1 1.59327826E-07 1.65059532E-06
vn -0 3.68223198E-07 1
vn -0 3.68223198E-07 1
vn -0 3.68223198E-07 1
vn -0 3.68223198E-07 1
vn -1 -1.59327797E-07 -3.30118996E-06
vn -1 -1.59327797E-07 -3.30119042E-06
vn -1 -1.59327797E-07 -3.30119042E-06
vn -1 -1.59327797E-07 -3.30118996E-06
vn -0 1 0
vn -0 1 0
vn -0 1 0
vn -0 1 0
vn 1 0 0
vn 1 0 0
vn 1 0 0
vn 1 0 0
vn -1 0 0
vn -1 0 0
vn -1 0 0
vn -1 0 0
vn -0 0 1
vn -0 0 1
vn -0 0 1
vn -0 0 1
vn 1 0 0
vn 1 0 0
vn 1 0 0
vn 1 0 0
vn -1 0 0
vn -1 0 0
vn -1 0 0
vn -1 0 0
vn -0 -1 0
vn -0 -1 0
vn -0 -1 0
vn -0 -1 0
vn 1 0 0
vn 1 0 0
vn 1 0 0
vn 1 0 0
vn -1 0 0
vn -1 0 0
vn -1 0 0
vn -1 0 0
vn -0 0 -1
vn -0 0 -1
vn -0 0 -1
vn -0 0 -1
vn 1 0 0
vn 1 0 0
vn 1 0 0
vn 1 0 0
vn -1 0 0
vn -1 0 0
vn -1 0 0
vn -1 0 0
vn 1 -5.09839583E-06 -3.68228768E-07
vn 1 -5.09839583E-06 -3.68228797E-07
vn 1 -5.09839583E-06 -3.68228768E-07
vn 1 -5.09839583E-06 -3.68228768E-07
vn -0 1 0
vn -0 1 0
vn -0 1 0
vn -0 1 0
vn -1 2.9402197E-06 4.6028245E-07
vn -1 2.94021902E-06 4.60282394E-07
vn -1 2.94021902E-06 4.60282365E-07
vn -1 2.94021947E-06 4.60282394E-07
vn 1 -5.09850906E-06 -4.602812E-07
vn 1 -5.09850906E-06 -4.602812E-07
vn 1 -5.09850906E-06 -4.602812E-07
vn 1 -5.09850906E-06 -4.602812E-07
vn -0 -1 0
vn -0 -1 0
vn -0 -1 0
vn -0 -1 0
vn -1 5.94146002E-07 3.68224789E-07
vn -1 5.94146002E-07 3.68224761E-07
vn -1 5.94146002E-07 3.68224818E-07
vn -1 5.94146002E-07 3.68224818E-07
vn 1 3.18648716E-07 3.30111925E-06
vn 1 3.18648659E-07 3.3011188E-06
vn 1 3.18648716E-07 3.30111857E-06
vn 1 3.18648716E-07 3.3011188E-06
vn -0 0 -1
vn -0 0 -1
vn -0 0 -1
vn -0 0 -1
vn -1 -1.59325452E-07 -1.65057077E-06
vn -1 -1.59325452E-07 -1.65057077E-06
vn -1 -1.59325452E-07 -1.65057077E-06
vn -1 -1.59325481E-07 -1.65057088E-06
g LumberWindow_0
f 3/3/3 2/2/2 1/1/1
f 4/4/4 3/3/3 1/1/1
f 7/7/7 6/6/6 5/5/5
f 8/8/8 7/7/7 5/5/5
g LumberWindow_1
f 11/11/11 10/10/10 9/9/9
f 12/12/12 11/11/11 9/9/9
f 15/15/15 14/14/14 13/13/13
f 16/16/16 15/15/15 13/13/13
f 19/19/19 18/18/18 17/17/17
f 20/20/20 19/19/19 17/17/17
f 23/23/23 22/22/22 21/21/21
f 24/24/24 23/23/23 21/21/21
f 27/27/27 26/26/26 25/25/25
f 28/28/28 27/27/27 25/25/25
f 31/31/31 30/30/30 29/29/29
f 32/32/32 31/31/31 29/29/29
f 35/35/35 34/34/34 33/33/33
f 36/36/36 35/35/35 33/33/33
f 39/39/39 38/38/38 37/37/37
f 40/40/40 39/39/39 37/37/37
f 43/43/43 42/42/42 41/41/41
f 44/44/44 43/43/43 41/41/41
f 47/47/47 46/46/46 45/45/45
f 48/48/48 47/47/47 45/45/45
f 51/51/51 50/50/50 49/49/49
f 52/52/52 51/51/51 49/49/49
f 55/55/55 54/54/54 53/53/53
f 56/56/56 55/55/55 53/53/53
f 59/59/59 58/58/58 57/57/57
f 60/60/60 59/59/59 57/57/57
f 63/63/63 62/62/62 61/61/61
f 64/64/64 63/63/63 61/61/61
f 67/67/67 66/66/66 65/65/65
f 68/68/68 67/67/67 65/65/65
f 71/71/71 70/70/70 69/69/69
f 72/72/72 71/71/71 69/69/69
f 75/75/75 74/74/74 73/73/73
f 76/76/76 75/75/75 73/73/73
f 79/79/79 78/78/78 77/77/77
f 80/80/80 79/79/79 77/77/77
f 83/83/83 82/82/82 81/81/81
f 84/84/84 83/83/83 81/81/81
f 87/87/87 86/86/86 85/85/85
f 88/88/88 87/87/87 85/85/85
f 91/91/91 90/90/90 89/89/89
f 92/92/92 91/91/91 89/89/89
f 95/95/95 94/94/94 93/93/93
f 96/96/96 95/95/95 93/93/93
f 99/99/99 98/98/98 97/97/97
f 100/100/100 99/99/99 97/97/97
f 103/103/103 102/102/102 101/101/101
f 104/104/104 103/103/103 101/101/101
f 107/107/107 106/106/106 105/105/105
f 108/108/108 107/107/107 105/105/105
f 111/111/111 110/110/110 109/109/109
f 112/112/112 111/111/111 109/109/109
f 115/115/115 114/114/114 113/113/113
f 116/116/116 115/115/115 113/113/113
f 119/119/119 118/118/118 117/117/117
f 120/120/120 119/119/119 117/117/117
f 123/123/123 122/122/122 121/121/121
f 124/124/124 123/123/123 121/121/121
f 127/127/127 126/126/126 125/125/125
f 128/128/128 127/127/127 125/125/125
f 131/131/131 130/130/130 129/129/129
f 132/132/132 131/131/131 129/129/129
f 135/135/135 134/134/134 133/133/133
f 136/136/136 135/135/135 133/133/133
