g WallCorner
v 0.125 -0.5 -0.5
v 0.125 0.5 -0.5
v -0.125 0.5 -0.5
v -0.125 -0.5 -0.5
v -0.5 -0.5 -0.125
v -0.5 0.5 -0.125
v -0.5 0.5 0.125
v -0.5 -0.5 0.125
v -0.125 -0.5 -0.5
v -0.125 0.5 -0.5
v -0.125 0.5 -0.25
v -0.125 -0.5 -0.25
v -0.25 -0.5 -0.125
v -0.5 -0.5 -0.125
v -0.5 -0.5 0.125
v 0.125 -0.5 0.125
v -0.125 -0.5 -0.125
v -0.125 -0.5 -0.25
v 0.125 -0.5 -0.5
v -0.125 -0.5 -0.5
v 0.125 -0.5 0.125
v -0.5 -0.5 0.125
v -0.5 0.5 0.125
v 0.125 0.5 0.125
v 0.125 0.5 0.125
v -0.5 0.5 0.125
v -0.5 0.5 -0.125
v -0.25 0.5 -0.125
v -0.125 0.5 -0.125
v -0.125 0.5 -0.25
v 0.125 0.5 -0.5
v -0.125 0.5 -0.5
v -0.25 0.5 -0.125
v -0.5 0.5 -0.125
v -0.5 -0.5 -0.125
v -0.25 -0.5 -0.125
v -0.125 -0.5 -0.125
v -0.25 -0.5 -0.15625
v -0.25 -0.5 -0.125
v -0.15625 -0.5 -0.15625
v -0.125 -0.5 -0.25
v -0.15625 -0.5 -0.25
v -0.25 0.5 -0.125
v -0.25 0.5 -0.15625
v -0.15625 0.5 -0.15625
v -0.125 0.5 -0.125
v -0.15625 0.5 -0.25
v -0.125 0.5 -0.25
v 0.125 -0.5 -0.5
v 0.125 -0.5 0.125
v 0.125 0.5 0.125
v 0.125 0.5 -0.5
v -0.15625 0.5 -0.15625
v -0.15625 -0.5 -0.15625
v -0.15625 -0.5 -0.25
v -0.15625 0.5 -0.25
v -0.25 0.5 -0.15625
v -0.25 -0.5 -0.15625
v -0.15625 -0.5 -0.15625
v -0.15625 0.5 -0.15625
v -0.125 -0.5 -0.25
v -0.125 0.5 -0.25
v -0.15625 0.5 -0.25
v -0.15625 -0.5 -0.25
v -0.25 0.5 -0.125
v -0.25 -0.5 -0.125
v -0.25 -0.5 -0.15625
v -0.25 0.5 -0.15625
v -0.125 -0.5 0.375
v -0.125 0.5 0.375
v 0.375 0.5 0.375
v 0.375 -0.5 0.375
v -0.125 0.5 0.375
v -0.125 0.5 0.125
v 0.125 0.5 0.125
v 0.375 0.5 0.375
v -0.125 -0.5 0.125
v -0.125 -0.5 0.375
v 0.375 -0.5 0.375
v 0.125 -0.5 0.125
v 0.375 0.5 0.375
v 0.375 0.5 -0.125
v 0.375 -0.5 -0.125
v 0.375 -0.5 0.375
v -0.125 0.5 0.125
v -0.125 0.5 0.375
v -0.125 -0.5 0.375
v -0.125 -0.5 0.125
v 0.125 -0.5 -0.125
v 0.375 -0.5 -0.125
v 0.375 0.5 -0.125
v 0.125 0.5 -0.125
v 0.125 -0.5 0.125
v 0.375 -0.5 0.375
v 0.375 -0.5 -0.125
v 0.125 -0.5 -0.125
v 0.125 0.5 -0.125
v 0.375 0.5 -0.125
v 0.375 0.5 0.375
v 0.125 0.5 0.125
v 0.40625 -0.5 -0.15625
v 0.375 -0.5 -0.03125
v 0.40625 -0.5 -0.03125
v 0.375 -0.5 -0.125
v 0.28125 -0.5 -0.15625
v 0.28125 -0.5 -0.125
v 0.40625 -0.5 -0.03125
v 0.375 -0.5 -0.03125
v 0.375 0.5 -0.03125
v 0.40625 0.5 -0.03125
v 0.40625 0.5 -0.03125
v 0.375 0.5 -0.03125
v 0.375 0.5 -0.125
v 0.40625 0.5 -0.15625
v 0.28125 0.5 -0.125
v 0.28125 0.5 -0.15625
v 0.28125 0.5 -0.15625
v 0.28125 0.5 -0.125
v 0.28125 -0.5 -0.125
v 0.28125 -0.5 -0.15625
v 0.40625 0.5 -0.15625
v 0.40625 -0.5 -0.15625
v 0.40625 -0.5 -0.03125
v 0.40625 0.5 -0.03125
v 0.28125 0.5 -0.15625
v 0.28125 -0.5 -0.15625
v 0.40625 -0.5 -0.15625
v 0.40625 0.5 -0.15625
v -0.15625 -0.5 0.40625
v -0.125 -0.5 0.28125
v -0.15625 -0.5 0.28125
v -0.125 -0.5 0.375
v -0.03125 -0.5 0.40625
v -0.03125 -0.5 0.375
v -0.15625 -0.5 0.28125
v -0.125 -0.5 0.28125
v -0.125 0.5 0.28125
v -0.15625 0.5 0.28125
v -0.15625 0.5 0.28125
v -0.125 0.5 0.28125
v -0.125 0.5 0.375
v -0.15625 0.5 0.40625
v -0.03125 0.5 0.375
v -0.03125 0.5 0.40625
v -0.03125 0.5 0.40625
v -0.03125 0.5 0.375
v -0.03125 -0.5 0.375
v -0.03125 -0.5 0.40625
v -0.15625 0.5 0.40625
v -0.15625 -0.5 0.40625
v -0.15625 -0.5 0.28125
v -0.15625 0.5 0.28125
v -0.03125 0.5 0.40625
v -0.03125 -0.5 0.40625
v -0.15625 -0.5 0.40625
v -0.15625 0.5 0.40625
v 0.40625 -0.5 0.40625
v 0.28125 -0.5 0.375
v 0.28125 -0.5 0.40625
v 0.375 -0.5 0.375
v 0.40625 -0.5 0.28125
v 0.375 -0.5 0.28125
v 0.28125 -0.5 0.40625
v 0.28125 -0.5 0.375
v 0.28125 0.5 0.375
v 0.28125 0.5 0.40625
v 0.28125 0.5 0.40625
v 0.28125 0.5 0.375
v 0.375 0.5 0.375
v 0.40625 0.5 0.40625
v 0.375 0.5 0.28125
v 0.40625 0.5 0.28125
v 0.40625 0.5 0.28125
v 0.375 0.5 0.28125
v 0.375 -0.5 0.28125
v 0.40625 -0.5 0.28125
v 0.40625 0.5 0.40625
v 0.40625 -0.5 0.40625
v 0.28125 -0.5 0.40625
v 0.28125 0.5 0.40625
v 0.40625 0.5 0.28125
v 0.40625 -0.5 0.28125
v 0.40625 -0.5 0.40625
v 0.40625 0.5 0.40625
vt 0.993233919 0.681308508
vt 0.993233919 0.203973532
vt 0.873900175 0.203973532
vt 0.873900175 0.681308508
vt 0.873900294 0.203973532
vt 0.873900294 0.681308746
vt 0.993233919 0.681308746
vt 0.993233919 0.203973532
vt 0.852715492 0.0352894068
vt 0.852715492 0.0647975653
vt 0.86009264 0.0647975653
vt 0.86009264 0.0352894068
vt 0.873351038 0.813762188
vt 0.873350978 0.694725692
vt 0.99238801 0.694725513
vt 0.99238801 0.992316782
vt 0.873351216 0.873280525
vt 0.813832819 0.873280585
vt 0.694796205 0.992316902
vt 0.694796264 0.873280585
vt 0.882961273 0.0351783633
vt 0.864379883 0.0351783633
vt 0.864379883 0.0649085939
vt 0.882961273 0.0649085939
vt 0.99238801 0.992316782
vt 0.99238801 0.694725513
vt 0.873350978 0.694725692
vt 0.873351038 0.813762188
vt 0.873351216 0.873280525
vt 0.813832819 0.873280585
vt 0.694796205 0.992316902
vt 0.694796264 0.873280585
vt 0.86009264 0.0352894068
vt 0.852715492 0.0352894068
vt 0.852715492 0.0647975355
vt 0.86009264 0.0647975355
vt 0.688203633 0.794008136
vt 0.607765734 0.81411767
vt 0.607765615 0.794008255
vt 0.668094099 0.81411767
vt 0.688203633 0.874446154
vt 0.668094099 0.874446154
vt 0.607765615 0.794008255
vt 0.607765734 0.81411767
vt 0.668094099 0.81411767
vt 0.688203633 0.794008136
vt 0.668094099 0.874446154
vt 0.688203633 0.874446154
vt 0.882961273 0.0351783931
vt 0.864379883 0.0351783931
vt 0.864379883 0.0649085939
vt 0.882961273 0.0649085939
vt 0.809206724 0.6814695
vt 0.809206724 0.204134047
vt 0.853956819 0.204134047
vt 0.853956819 0.6814695
vt 0.764456391 0.6814695
vt 0.764456391 0.204134047
vt 0.809206724 0.204134047
vt 0.809206724 0.6814695
vt 0.868873477 0.204134047
vt 0.868873477 0.6814695
vt 0.853956819 0.6814695
vt 0.853956819 0.204134047
vt 0.749539733 0.6814695
vt 0.749539733 0.204134047
vt 0.764456391 0.204134047
vt 0.764456391 0.6814695
vt 0.470319688 0.00142217055
vt 0.470319688 0.297764778
vt 0.618490994 0.297764778
vt 0.618490994 0.00142217055
vt 0.47083813 0.390335411
vt 0.574093461 0.390335441
vt 0.574093461 0.49359107
vt 0.47083813 0.596846581
vt 0.558902264 0.40642029
vt 0.455646873 0.406420261
vt 0.455646873 0.61293143
vt 0.558902264 0.50967592
vt 0.470319778 0.297764719
vt 0.618490934 0.297764719
vt 0.618490934 0.00142217055
vt 0.470319778 0.00142217055
vt 0.456622779 0.446943253
vt 0.56398952 0.446943253
vt 0.56398952 0.0174762681
vt 0.456622779 0.0174762681
vt 0.45662269 0.0174762681
vt 0.56398952 0.0174762681
vt 0.56398952 0.446943253
vt 0.45662269 0.446943253
vt 0.589284778 0.478399754
vt 0.486029387 0.581655324
vt 0.486029387 0.375144184
vt 0.589284778 0.375144184
vt 0.616092861 0.348336101
vt 0.51283741 0.348336101
vt 0.51283741 0.554847419
vt 0.616092861 0.451591671
vt 0.688203514 0.794008374
vt 0.607765734 0.814117908
vt 0.607765734 0.794008374
vt 0.668093979 0.814117908
vt 0.688203514 0.874445915
vt 0.668093979 0.874446034
vt 0.764456391 0.204134047
vt 0.749539733 0.204134047
vt 0.749539733 0.6814695
vt 0.764456391 0.6814695
vt 0.607765734 0.794008374
vt 0.607765734 0.814117908
vt 0.668093979 0.814117908
vt 0.688203514 0.794008374
vt 0.668093979 0.874446034
vt 0.688203514 0.874445915
vt 0.853956819 0.6814695
vt 0.868873477 0.6814695
vt 0.868873477 0.204134047
vt 0.853956819 0.204134047
vt 0.809206724 0.6814695
vt 0.809206724 0.204134047
vt 0.764456391 0.204134047
vt 0.764456391 0.6814695
vt 0.853956819 0.6814695
vt 0.853956819 0.204134047
vt 0.809206724 0.204134047
vt 0.809206724 0.6814695
vt 0.688203514 0.794008374
vt 0.607765734 0.814117908
vt 0.607765734 0.794008374
vt 0.668093979 0.814117908
vt 0.688203514 0.874445915
vt 0.668093979 0.874446034
vt 0.764456391 0.204134047
vt 0.749539733 0.204134047
vt 0.749539733 0.6814695
vt 0.764456391 0.6814695
vt 0.607765734 0.794008374
vt 0.607765734 0.814117908
vt 0.668093979 0.814117908
vt 0.688203514 0.794008374
vt 0.668093979 0.874446034
vt 0.688203514 0.874445915
vt 0.853956819 0.6814695
vt 0.868873477 0.6814695
vt 0.868873477 0.204134047
vt 0.853956819 0.204134047
vt 0.809206724 0.6814695
vt 0.809206724 0.204134047
vt 0.764456391 0.204134047
vt 0.764456391 0.6814695
vt 0.853956819 0.6814695
vt 0.853956819 0.204134047
vt 0.809206724 0.204134047
vt 0.809206724 0.6814695
vt 0.688203514 0.794008374
vt 0.607765734 0.814117908
vt 0.607765734 0.794008374
vt 0.668093979 0.814117908
vt 0.688203514 0.874445915
vt 0.668093979 0.874446034
vt 0.764456391 0.204134047
vt 0.749539733 0.204134047
vt 0.749539733 0.6814695
vt 0.764456391 0.6814695
vt 0.607765734 0.794008374
vt 0.607765734 0.814117908
vt 0.668093979 0.814117908
vt 0.688203514 0.794008374
vt 0.668093979 0.874446034
vt 0.688203514 0.874445915
vt 0.853956819 0.6814695
vt 0.868873477 0.6814695
vt 0.868873477 0.204134047
vt 0.853956819 0.204134047
vt 0.809206724 0.6814695
vt 0.809206724 0.204134047
vt 0.764456391 0.204134047
vt 0.764456391 0.6814695
vt 0.853956819 0.6814695
vt 0.853956819 0.204134047
vt 0.809206724 0.204134047
vt 0.809206724 0.6814695
vn -0 0 -1
vn -0 0 -1
vn -0 0 -1
vn -0 0 -1
vn -1 0 0
vn -1 0 0
vn -1 0 0
vn -1 0 0
vn -1 0 0
vn -1 0 0
vn -1 0 0
vn -1 0 0
vn -0 -1 0
vn -0 -1 0
vn -0 -1 0
vn -0 -1 0
vn -0 -1 0
vn -0 -1 0
vn -0 -1 0
vn -0 -1 0
vn -0 0 1
vn -0 0 1
vn -0 0 1
vn -0 0 1
vn -0 1 0
vn -0 1 0
vn -0 1 0
vn -0 1 0
vn -0 1 0
vn -0 1 0
vn -0 1 0
vn -0 1 0
vn -0 0 -1
vn -0 0 -1
vn -0 0 -1
vn -0 0 -1
vn -0 -1 0
vn -0 -1 0
vn -0 -1 0
vn -0 -1 0
vn -0 -1 0
vn -0 -1 0
vn -0 1 0
vn -0 1 0
vn -0 1 0
vn -0 1 0
vn -0 1 0
vn -0 1 0
vn 1 0 0
vn 1 0 0
vn 1 0 0
vn 1 0 0
vn -1 0 0
vn -1 0 0
vn -1 0 0
vn -1 0 0
vn -0 0 -1
vn -0 0 -1
vn -0 0 -1
vn -0 0 -1
vn -0 0 -1
vn -0 0 -1
vn -0 0 -1
vn -0 0 -1
vn -1 0 0
vn -1 0 0
vn -1 0 0
vn -1 0 0
vn -0 0 1
vn -0 0 1
vn -0 0 1
vn -0 0 1
vn -0 1 0
vn -0 1 0
vn -0 1 0
vn -0 1 0
vn -0 -1 0
vn -0 -1 0
vn -0 -1 0
vn -0 -1 0
vn 1 0 0
vn 1 0 0
vn 1 0 0
vn 1 0 0
vn -1 0 0
vn -1 0 0
vn -1 0 0
vn -1 0 0
vn -0 0 -1
vn -0 0 -1
vn -0 0 -1
vn -0 0 -1
vn -0 -1 0
vn -0 -1 0
vn -0 -1 0
vn -0 -1 0
vn -0 1 0
vn -0 1 0
vn -0 1 0
vn -0 1 0
vn -0 -1 0
vn -0 -1 0
vn -0 -1 0
vn -0 -1 0
vn -0 -1 0
vn -0 -1 0
vn -0 0 1
vn -0 0 1
vn -0 0 1
vn -0 0 1
vn -0 1 0
vn -0 1 0
vn -0 1 0
vn -0 1 0
vn -0 1 0
vn -0 1 0
vn -1 0 0
vn -1 0 0
vn -1 0 0
vn -1 0 0
vn 1 0 0
vn 1 0 0
vn 1 0 0
vn 1 0 0
vn -0 0 -1
vn -0 0 -1
vn -0 0 -1
vn -0 0 -1
vn -0 -1 0
vn -0 -1 0
vn -0 -1 0
vn -0 -1 0
vn -0 -1 0
vn -0 -1 0
vn -0 0 -1
vn -0 0 -1
vn -0 0 -1
vn -0 0 -1
vn -0 1 0
vn -0 1 0
vn -0 1 0
vn -0 1 0
vn -0 1 0
vn -0 1 0
vn 1 0 0
vn 1 0 0
vn 1 0 0
vn 1 0 0
vn -1 0 0
vn -1 0 0
vn -1 0 0
vn -1 0 0
vn -0 0 1
vn -0 0 1
vn -0 0 1
vn -0 0 1
vn -0 -1 0
vn -0 -1 0
vn -0 -1 0
vn -0 -1 0
vn -0 -1 0
vn -0 -1 0
vn -1 0 0
vn -1 0 0
vn -1 0 0
vn -1 0 0
vn -0 1 0
vn -0 1 0
vn -0 1 0
vn -0 1 0
vn -0 1 0
vn -0 1 0
vn -0 0 -1
vn -0 0 -1
vn -0 0 -1
vn -0 0 -1
vn -0 0 1
vn -0 0 1
vn -0 0 1
vn -0 0 1
vn 1 0 0
vn 1 0 0
vn 1 0 0
vn 1 0 0
g WallCorner_0
f 3/3/3 2/2/2 1/1/1
f 4/4/4 3/3/3 1/1/1
f 7/7/7 6/6/6 5/5/5
f 8/8/8 7/7/7 5/5/5
f 11/11/11 10/10/10 9/9/9
f 12/12/12 11/11/11 9/9/9
f 15/15/15 14/14/14 13/13/13
f 16/16/16 15/15/15 13/13/13
f 16/16/16 13/13/13 17/17/17
f 18/18/18 16/16/16 17/17/17
f 19/19/19 16/16/16 18/18/18
f 18/18/18 20/20/20 19/19/19
f 23/23/23 22/22/22 21/21/21
f 24/24/24 23/23/23 21/21/21
f 27/27/27 26/26/26 25/25/25
f 28/28/28 27/27/27 25/25/25
f 29/29/29 28/28/28 25/25/25
f 29/29/29 25/25/25 30/30/30
f 30/30/30 25/25/25 31/31/31
f 31/31/31 32/32/32 30/30/30
f 35/35/35 34/34/34 33/33/33
f 36/36/36 35/35/35 33/33/33
f 39/39/39 38/38/38 37/37/37
f 38/38/38 40/40/40 37/37/37
f 37/37/37 40/40/40 41/41/41
f 40/40/40 42/42/42 41/41/41
f 45/45/45 44/44/44 43/43/43
f 46/46/46 45/45/45 43/43/43
f 47/47/47 45/45/45 46/46/46
f 48/48/48 47/47/47 46/46/46
f 51/51/51 50/50/50 49/49/49
f 52/52/52 51/51/51 49/49/49
f 55/55/55 54/54/54 53/53/53
f 56/56/56 55/55/55 53/53/53
f 59/59/59 58/58/58 57/57/57
f 60/60/60 59/59/59 57/57/57
f 63/63/63 62/62/62 61/61/61
f 64/64/64 63/63/63 61/61/61
f 67/67/67 66/66/66 65/65/65
f 68/68/68 67/67/67 65/65/65
f 71/71/71 70/70/70 69/69/69
f 72/72/72 71/71/71 69/69/69
f 75/75/75 74/74/74 73/73/73
f 76/76/76 75/75/75 73/73/73
f 79/79/79 78/78/78 77/77/77
f 80/80/80 79/79/79 77/77/77
f 83/83/83 82/82/82 81/81/81
f 84/84/84 83/83/83 81/81/81
f 87/87/87 86/86/86 85/85/85
f 88/88/88 87/87/87 85/85/85
f 91/91/91 90/90/90 89/89/89
f 92/92/92 91/91/91 89/89/89
f 95/95/95 94/94/94 93/93/93
f 96/96/96 95/95/95 93/93/93
f 99/99/99 98/98/98 97/97/97
f 100/100/100 99/99/99 97/97/97
f 103/103/103 102/102/102 101/101/101
f 102/102/102 104/104/104 101/101/101
f 101/101/101 104/104/104 105/105/105
f 104/104/104 106/106/106 105/105/105
f 109/109/109 108/108/108 107/107/107
f 110/110/110 109/109/109 107/107/107
f 113/113/113 112/112/112 111/111/111
f 114/114/114 113/113/113 111/111/111
f 115/115/115 113/113/113 114/114/114
f 116/116/116 115/115/115 114/114/114
f 119/119/119 118/118/118 117/117/117
f 120/120/120 119/119/119 117/117/117
f 123/123/123 122/122/122 121/121/121
f 124/124/124 123/123/123 121/121/121
f 127/127/127 126/126/126 125/125/125
f 128/128/128 127/127/127 125/125/125
f 131/131/131 130/130/130 129/129/129
f 130/130/130 132/132/132 129/129/129
f 129/129/129 132/132/132 133/133/133
f 132/132/132 134/134/134 133/133/133
f 137/137/137 136/136/136 135/135/135
f 138/138/138 137/137/137 135/135/135
f 141/141/141 140/140/140 139/139/139
f 142/142/142 141/141/141 139/139/139
f 143/143/143 141/141/141 142/142/142
f 144/144/144 143/143/143 142/142/142
f 147/147/147 146/146/146 145/145/145
f 148/148/148 147/147/147 145/145/145
f 151/151/151 150/150/150 149/149/149
f 152/152/152 151/151/151 149/149/149
f 155/155/155 154/154/154 153/153/153
f 156/156/156 155/155/155 153/153/153
f 159/159/159 158/158/158 157/157/157
f 158/158/158 160/160/160 157/157/157
f 157/157/157 160/160/160 161/161/161
f 160/160/160 162/162/162 161/161/161
f 165/165/165 164/164/164 163/163/163
f 166/166/166 165/165/165 163/163/163
f 169/169/169 168/168/168 167/167/167
f 170/170/170 169/169/169 167/167/167
f 171/171/171 169/169/169 170/170/170
f 172/172/172 171/171/171 170/170/170
f 175/175/175 174/174/174 173/173/173
f 176/176/176 175/175/175 173/173/173
f 179/179/179 178/178/178 177/177/177
f 180/180/180 179/179/179 177/177/177
f 183/183/183 182/182/182 181/181/181
f 184/184/184 183/183/183 181/181/181
