g FloorEdge
v -0.5 -0.4375 -0.4375
v 0.5 -0.4375 -0.4375
v 0.5 0.4375 -0.4375
v -0.5 0.4375 -0.4375
v -0.5 -0.4375 -0.5
v 0.5 -0.4375 -0.5
v 0.5 -0.4375 -0.4375
v -0.5 -0.4375 -0.4375
v -0.5 -0.5 -0.5
v 0.5 -0.5 -0.5
v 0.5 -0.4375 -0.5
v -0.5 -0.4375 -0.5
v -0.5 0.4375 -0.5
v 0.5 0.4375 -0.5
v 0.5 0.5 -0.5
v -0.5 0.5 -0.5
v -0.5 -0.5 -0.124528192
v 0.5 -0.5 -0.124531247
v 0.5 -0.5 -0.5
v -0.5 -0.5 -0.5
v -0.5 0.5 -0.5
v 0.5 0.5 -0.5
v 0.5 0.5 -0.124531247
v -0.5 0.5 -0.124528192
v -0.5 0.4375 -0.4375
v 0.5 0.4375 -0.4375
v 0.5 0.4375 -0.5
v -0.5 0.4375 -0.5
v -0.5 -0.5 0.5
v 0.5 -0.5 0.5
v 0.5 -0.5 -0.124531247
v -0.5 -0.5 -0.124528192
v -0.5 0.5 -0.124528192
v 0.5 0.5 -0.124531247
v 0.5 0.5 0.5
v -0.5 0.5 0.5
v -0.5 -0.43750003 -0.5
v -0.4375 -0.43750003 -0.5
v -0.4375 0.43749994 -0.5
v -0.5 0.43749994 -0.5
v -0.4375 -0.43750003 -0.5
v -0.4375 -0.43750003 -0.4375
v -0.4375 0.43749994 -0.4375
v -0.4375 0.43749994 -0.5
v -0.4375 0.170695841 -0.490993649
v -0.4375 0.170695841 -0.4375
v -0.170695797 0.43750003 -0.4375
v -0.170695797 0.43750003 -0.490993649
v -0.4375 0.259083778 -0.490993649
v -0.4375 0.170695841 -0.490993649
v -0.170695797 0.43750003 -0.490993649
v -0.259084463 0.4375 -0.490993649
v -0.4375 0.259083778 -0.4375
v -0.4375 0.259083778 -0.490993649
v -0.259084463 0.4375 -0.490993649
v -0.259084463 0.4375 -0.4375
v -0.4375 -0.169303849 -0.4375
v -0.4375 -0.169303849 -0.490993649
v -0.170695797 -0.436108053 -0.490993649
v -0.170695797 -0.436108053 -0.4375
v -0.4375 -0.169303849 -0.490993649
v -0.4375 -0.257691801 -0.490993649
v -0.259084463 -0.436107993 -0.490993649
v -0.170695797 -0.436108053 -0.490993649
v -0.4375 -0.257691801 -0.490993649
v -0.4375 -0.257691801 -0.4375
v -0.259084463 -0.436107993 -0.4375
v -0.259084463 -0.436107993 -0.490993649
v 0.5 -0.43750003 -0.5
v 0.5 0.43749994 -0.5
v 0.4375 0.43749994 -0.5
v 0.4375 -0.43750003 -0.5
v 0.4375 -0.43750003 -0.5
v 0.4375 0.43749994 -0.5
v 0.4375 0.43749994 -0.4375
v 0.4375 -0.43750003 -0.4375
v 0.4375 0.170695841 -0.490993649
v 0.170695797 0.43750003 -0.490993649
v 0.170695797 0.43750003 -0.4375
v 0.4375 0.170695841 -0.4375
v 0.4375 0.259083778 -0.490993649
v 0.259084463 0.4375 -0.490993649
v 0.170695797 0.43750003 -0.490993649
v 0.4375 0.170695841 -0.490993649
v 0.4375 0.259083778 -0.4375
v 0.259084463 0.4375 -0.4375
v 0.259084463 0.4375 -0.490993649
v 0.4375 0.259083778 -0.490993649
v 0.4375 -0.169303849 -0.4375
v 0.170695797 -0.436108053 -0.4375
v 0.170695797 -0.436108053 -0.490993649
v 0.4375 -0.169303849 -0.490993649
v 0.4375 -0.169303849 -0.490993649
v 0.170695797 -0.436108053 -0.490993649
v 0.259084463 -0.436107993 -0.490993649
v 0.4375 -0.257691801 -0.490993649
v 0.4375 -0.257691801 -0.490993649
v 0.259084463 -0.436107993 -0.490993649
v 0.259084463 -0.436107993 -0.4375
v 0.4375 -0.257691801 -0.4375
vt 0.837826073 0.0499865934
vt 0.837825179 0.0457219705
vt 0.841801226 0.0457213745
vt 0.84180212 0.0499859974
vt 0.647066832 0.00445127441
vt 0.647066832 0.451637655
vt 0.675466776 0.451637655
vt 0.675466776 0.00445127441
vt 0.618227005 0.00445127441
vt 0.618227005 0.451637655
vt 0.647066832 0.451637655
vt 0.647066832 0.00445127441
vt 0.618227005 0.451637655
vt 0.618227005 0.00445127441
vt 0.647066832 0.00445127441
vt 0.647066832 0.451637655
vt 0.450018436 0.451637655
vt 0.450018436 0.00445127441
vt 0.618227005 0.00445127441
vt 0.618227005 0.451637655
vt 0.618227005 0.00445127441
vt 0.618227005 0.451637655
vt 0.450018436 0.451637655
vt 0.450018436 0.00445127441
vt 0.675466776 0.451637655
vt 0.675466776 0.00445127441
vt 0.647066832 0.00445127441
vt 0.647066832 0.451637655
vt 0.956966043 0.0462834761
vt 0.956966043 0.04831516
vt 0.95950371 0.0483151637
vt 0.95950371 0.0462834835
vt 0.958491743 0.0462834835
vt 0.958491743 0.0483151637
vt 0.961029291 0.04831516
vt 0.961029291 0.0462834761
vt 0.299012244 0.911685765
vt 0.299012244 0.881604135
vt 0.686571956 0.881604135
vt 0.686571956 0.911685765
vt 0.686571956 0.881775796
vt 0.68657279 0.909457386
vt 0.299013197 0.909457386
vt 0.299012274 0.881775796
vt 0.488184392 0.843918025
vt 0.488184333 0.878533065
vt 0.315540731 0.878533065
vt 0.315540731 0.843918025
vt 0.629517078 0.822733462
vt 0.65719974 0.850416005
vt 0.490076244 0.850416005
vt 0.517758846 0.822733223
vt 0.459587514 0.843917906
vt 0.459587514 0.878532827
vt 0.344137788 0.878532827
vt 0.344137847 0.843917906
vt 0.31554082 0.878533065
vt 0.31554082 0.843918025
vt 0.488184392 0.843918025
vt 0.488184333 0.878533065
vt 0.491070598 0.878308415
vt 0.51875329 0.850625634
vt 0.630511403 0.850625634
vt 0.658194065 0.878308415
vt 0.344137788 0.878532827
vt 0.344137847 0.843917906
vt 0.459587514 0.843917906
vt 0.459587514 0.878532827
vt 0.686571956 0.906784058
vt 0.299012244 0.906784058
vt 0.299012244 0.936865687
vt 0.686571956 0.936865687
vt 0.686571956 0.881775796
vt 0.299012274 0.881775796
vt 0.299013197 0.909457386
vt 0.68657279 0.909457386
vt 0.488184392 0.843918025
vt 0.315540731 0.843918025
vt 0.315540731 0.878533065
vt 0.488184333 0.878533065
vt 0.629517078 0.822733462
vt 0.517758846 0.822733223
vt 0.490076244 0.850416005
vt 0.65719974 0.850416005
vt 0.459587514 0.843917906
vt 0.344137847 0.843917906
vt 0.344137788 0.878532827
vt 0.459587514 0.878532827
vt 0.31554082 0.878533065
vt 0.488184333 0.878533065
vt 0.488184392 0.843918025
vt 0.31554082 0.843918025
vt 0.491070598 0.878308415
vt 0.658194065 0.878308415
vt 0.630511403 0.850625634
vt 0.51875329 0.850625634
vt 0.344137788 0.878532827
vt 0.459587514 0.878532827
vt 0.459587514 0.843917906
vt 0.344137847 0.843917906
vn -0 0 -1
vn -0 0 -1
vn -0 0 -1
vn -0 0 -1
vn -0 1 0
vn -0 1 0
vn -0 1 0
vn -0 1 0
vn -0 0 -1
vn -0 0 -1
vn -0 0 -1
vn -0 0 -1
vn -0 0 -1
vn -0 0 -1
vn -0 0 -1
vn -0 0 -1
vn -0 -1 0
vn -0 -1 0
vn -0 -1 0
vn -0 -1 0
vn -0 1 0
vn -0 1 0
vn -0 1 0
vn -0 1 0
vn -0 -1 0
vn -0 -1 0
vn -0 -1 0
vn -0 -1 0
vn -0 -1 0
vn -0 -1 0
vn -0 -1 0
vn -0 -1 0
vn -0 1 0
vn -0 1 0
vn -0 1 0
vn -0 1 0
vn -0 0 -1
vn -0 0 -1
vn -0 0 -1
vn -0 0 -1
vn 1 0 0
vn 1 0 0
vn 1 0 0
vn 1 0 0
vn 0.707107961 -0.707105517 0
vn 0.707107961 -0.707105517 0
vn 0.707107961 -0.707105517 0
vn 0.707107961 -0.707105517 0
vn -0 0 -1
vn -0 0 -1
vn -0 0 -1
vn -0 0 -1
vn -0.707108617 0.707104921 0
vn -0.707108617 0.707104921 0
vn -0.707108617 0.707104921 0
vn -0.707108617 0.707104921 0
vn 0.707107961 0.707105517 0
vn 0.707107961 0.707105517 0
vn 0.707107961 0.707105517 0
vn 0.707107961 0.707105517 0
vn -0 0 -1
vn -0 0 -1
vn -0 0 -1
vn -0 0 -1
vn -0.707108617 -0.707104921 0
vn -0.707108617 -0.707104921 0
vn -0.707108617 -0.707104921 0
vn -0.707108617 -0.707104921 0
vn -0 0 -1
vn -0 0 -1
vn -0 0 -1
vn -0 0 -1
vn -1 0 0
vn -1 0 0
vn -1 0 0
vn -1 0 0
vn -0.707107961 -0.707105517 0
vn -0.707107961 -0.707105517 0
vn -0.707107961 -0.707105517 0
vn -0.707107961 -0.707105517 0
vn -0 0 -1
vn -0 0 -1
vn -0 0 -1
vn -0 0 -1
vn 0.707108617 0.707104921 0
vn 0.707108617 0.707104921 0
vn 0.707108617 0.707104921 0
vn 0.707108617 0.707104921 0
vn -0.707107961 0.707105517 0
vn -0.707107961 0.707105517 0
vn -0.707107961 0.707105517 0
vn -0.707107961 0.707105517 0
vn -0 0 -1
vn -0 0 -1
vn -0 0 -1
vn -0 0 -1
vn 0.707108617 -0.707104921 0
vn 0.707108617 -0.707104921 0
vn 0.707108617 -0.707104921 0
vn 0.707108617 -0.707104921 0
g FloorEdge_0
f 3/3/3 2/2/2 1/1/1
f 4/4/4 3/3/3 1/1/1
f 7/7/7 6/6/6 5/5/5
f 8/8/8 7/7/7 5/5/5
f 11/11/11 10/10/10 9/9/9
f 12/12/12 11/11/11 9/9/9
f 15/15/15 14/14/14 13/13/13
f 16/16/16 15/15/15 13/13/13
f 19/19/19 18/18/18 17/17/17
f 20/20/20 19/19/19 17/17/17
f 23/23/23 22/22/22 21/21/21
f 24/24/24 23/23/23 21/21/21
f 27/27/27 26/26/26 25/25/25
f 28/28/28 27/27/27 25/25/25
f 31/31/31 30/30/30 29/29/29
f 32/32/32 31/31/31 29/29/29
f 35/35/35 34/34/34 33/33/33
f 36/36/36 35/35/35 33/33/33
f 39/39/39 38/38/38 37/37/37
f 40/40/40 39/39/39 37/37/37
f 43/43/43 42/42/42 41/41/41
f 44/44/44 43/43/43 41/41/41
f 47/47/47 46/46/46 45/45/45
f 48/48/48 47/47/47 45/45/45
f 51/51/51 50/50/50 49/49/49
f 52/52/52 51/51/51 49/49/49
f 55/55/55 54/54/54 53/53/53
f 56/56/56 55/55/55 53/53/53
f 59/59/59 58/58/58 57/57/57
f 60/60/60 59/59/59 57/57/57
f 63/63/63 62/62/62 61/61/61
f 64/64/64 63/63/63 61/61/61
f 67/67/67 66/66/66 65/65/65
f 68/68/68 67/67/67 65/65/65
f 71/71/71 70/70/70 69/69/69
f 72/72/72 71/71/71 69/69/69
f 75/75/75 74/74/74 73/73/73
f 76/76/76 75/75/75 73/73/73
f 79/79/79 78/78/78 77/77/77
f 80/80/80 79/79/79 77/77/77
f 83/83/83 82/82/82 81/81/81
f 84/84/84 83/83/83 81/81/81
f 87/87/87 86/86/86 85/85/85
f 88/88/88 87/87/87 85/85/85
f 91/91/91 90/90/90 89/89/89
f 92/92/92 91/91/91 89/89/89
f 95/95/95 94/94/94 93/93/93
f 96/96/96 95/95/95 93/93/93
f 99/99/99 98/98/98 97/97/97
f 100/100/100 99/99/99 97/97/97
