g Wall
v -0.5 -0.5 0.1875
v -0.5 0.5 0.1875
v 0.5 0.5 0.1875
v 0.5 -0.5 0.1875
v -0.5 0.5 0.1875
v -0.5 0.5 -0.1875
v 0.5 0.5 -0.1875
v 0.5 0.5 0.1875
v -0.5 0.5 -0.1875
v -0.5 -0.5 -0.1875
v 0.5 -0.5 -0.1875
v 0.5 0.5 -0.1875
v -0.5 -0.5 -0.1875
v -0.5 -0.5 0.1875
v 0.5 -0.5 0.1875
v 0.5 -0.5 -0.1875
v 0.5 -0.5 0.1875
v 0.5 0.5 0.1875
v 0.5 0.5 -0.1875
v 0.5 -0.5 -0.1875
v -0.5 -0.5 -0.1875
v -0.5 0.5 -0.1875
v -0.5 0.5 0.1875
v -0.5 -0.5 0.1875
vt 0.847162902 0.0479301959
vt 0.847162902 0.0495855436
vt 0.848818123 0.0495855436
vt 0.848818123 0.0479301959
vt 0.0148505215 0.991301715
vt 0.0148505215 0.841220081
vt 0.41007024 0.841220081
vt 0.41007024 0.991301715
vt 0.847162902 0.0479301959
vt 0.847162902 0.0495855436
vt 0.848818123 0.0495855436
vt 0.848818123 0.0479301959
vt 0.0148505215 0.991301715
vt 0.0148505215 0.841220081
vt 0.41007024 0.841220081
vt 0.41007024 0.991301715
vt 0.843147099 0.0466525964
vt 0.843147099 0.0527266599
vt 0.845258355 0.0527266599
vt 0.845258355 0.0466525964
vt 0.843147099 0.0466525964
vt 0.843147099 0.0527266599
vt 0.845258355 0.0527266599
vt 0.845258355 0.0466525964
vn -0 0 1
vn -0 0 1
vn -0 0 1
vn -0 0 1
vn -0 1 0
vn -0 1 0
vn -0 1 0
vn -0 1 0
vn -0 0 -1
vn -0 0 -1
vn -0 0 -1
vn -0 0 -1
vn -0 -1 0
vn -0 -1 0
vn -0 -1 0
vn -0 -1 0
vn 1 0 0
vn 1 0 0
vn 1 0 0
vn 1 0 0
vn -1 0 0
vn -1 0 0
vn -1 0 0
vn -1 0 0
g Wall_0
f 3/3/3 2/2/2 1/1/1
f 4/4/4 3/3/3 1/1/1
f 7/7/7 6/6/6 5/5/5
f 8/8/8 7/7/7 5/5/5
f 11/11/11 10/10/10 9/9/9
f 12/12/12 11/11/11 9/9/9
f 15/15/15 14/14/14 13/13/13
f 16/16/16 15/15/15 13/13/13
f 19/19/19 18/18/18 17/17/17
f 20/20/20 19/19/19 17/17/17
f 23/23/23 22/22/22 21/21/21
f 24/24/24 23/23/23 21/21/21
