g RoofSupportCube_2
v 0.701651871 0.398439169 -0.320062846
v 0.655240476 0.424010068 -0.233232424
v 0.655240476 0.484007746 -0.293229371
v 0.655240476 0.293229163 -0.233232424
v 0.701651871 0.318800032 -0.320062846
v 0.655240476 0.233231425 -0.293229371
v 0.655240476 0.233231425 -0.424010307
v 0.701651871 0.318800032 -0.397176802
v 0.655240476 0.293229163 -0.484007567
v 0.655240476 0.424010068 -0.484007567
v 0.701651871 0.398439169 -0.397176802
v 0.655240476 0.484007746 -0.424010307
v 0.701651871 0.398439169 0.320062846
v 0.655240476 0.484007746 0.293229371
v 0.655240476 0.424010068 0.233232424
v 0.655240476 0.293229163 0.233232424
v 0.655240476 0.233231425 0.293229371
v 0.701651871 0.318800032 0.320062846
v 0.655240476 0.233231425 0.424010307
v 0.655240476 0.293229163 0.484007567
v 0.701651871 0.318800032 0.397176802
v 0.655240476 0.424010068 0.484007567
v 0.655240476 0.484007746 0.424010307
v 0.701651871 0.398439169 0.397176802
v -0.5 -0.5 0.5
v -0.5 0.5 0.5
v 0.5 0.5 0.5
v 0.5 -0.5 0.5
v -0.5 0.5 0.5
v -0.5 0.5 -0.5
v 0.5 0.5 -0.5
v 0.5 0.5 0.5
v -0.5 0.5 -0.5
v -0.5 -0.5 -0.5
v 0.5 -0.5 -0.5
v 0.5 0.5 -0.5
v -0.5 -0.5 -0.5
v -0.5 -0.5 0.5
v 0.5 -0.5 0.5
v 0.5 -0.5 -0.5
v 0.5 -0.5 0.5
v 0.5 0.5 0.5
v 0.5 0.5 -0.5
v 0.5 -0.5 -0.5
v -0.5 -0.5 -0.5
v -0.5 0.5 -0.5
v -0.5 0.5 0.5
v -0.5 -0.5 0.5
v 0.5 0.429316878 -0.217240289
v 0.578034937 0.429316878 -0.217240289
v 0.578034937 0.287922353 -0.217240289
v 0.5 0.287922353 -0.217240289
v 0.5 0.217239216 -0.287923276
v 0.578034937 0.217239216 -0.287923276
v 0.578034937 0.217239216 -0.4293167
v 0.5 0.217239216 -0.4293167
v 0.5 0.287922353 -0.5
v 0.578034937 0.287922353 -0.5
v 0.578034937 0.429316878 -0.5
v 0.5 0.429316878 -0.5
v 0.5 0.5 -0.4293167
v 0.578034937 0.5 -0.4293167
v 0.578034937 0.5 -0.287923276
v 0.5 0.5 -0.287923276
v 0.701651871 0.398439169 -0.320062846
v 0.701651871 0.398439169 -0.397176802
v 0.701651871 0.318800032 -0.397176802
v 0.701651871 0.318800032 -0.320062846
v 0.5 0.429316878 -0.217240289
v 0.5 0.5 -0.287923276
v 0.578034937 0.5 -0.287923276
v 0.578034937 0.429316878 -0.217240289
v 0.5 0.217239216 -0.287923276
v 0.5 0.287922353 -0.217240289
v 0.578034937 0.287922353 -0.217240289
v 0.578034937 0.217239216 -0.287923276
v 0.5 0.287922353 -0.5
v 0.5 0.217239216 -0.4293167
v 0.578034937 0.217239216 -0.4293167
v 0.578034937 0.287922353 -0.5
v 0.5 0.5 -0.4293167
v 0.5 0.429316878 -0.5
v 0.578034937 0.429316878 -0.5
v 0.578034937 0.5 -0.4293167
v 0.655240476 0.424010068 -0.233232424
v 0.578034937 0.429316878 -0.217240289
v 0.578034937 0.5 -0.287923276
v 0.655240476 0.484007746 -0.293229371
v 0.578034937 0.429316878 -0.217240289
v 0.655240476 0.424010068 -0.233232424
v 0.655240476 0.293229163 -0.233232424
v 0.578034937 0.287922353 -0.217240289
v 0.655240476 0.424010068 -0.233232424
v 0.701651871 0.398439169 -0.320062846
v 0.701651871 0.318800032 -0.320062846
v 0.655240476 0.293229163 -0.233232424
v 0.701651871 0.398439169 -0.320062846
v 0.655240476 0.484007746 -0.293229371
v 0.655240476 0.484007746 -0.424010307
v 0.701651871 0.398439169 -0.397176802
v 0.655240476 0.484007746 -0.293229371
v 0.578034937 0.5 -0.287923276
v 0.578034937 0.5 -0.4293167
v 0.655240476 0.484007746 -0.424010307
v 0.578034937 0.287922353 -0.217240289
v 0.655240476 0.293229163 -0.233232424
v 0.655240476 0.233231425 -0.293229371
v 0.578034937 0.217239216 -0.287923276
v 0.578034937 0.217239216 -0.287923276
v 0.655240476 0.233231425 -0.293229371
v 0.655240476 0.233231425 -0.424010307
v 0.578034937 0.217239216 -0.4293167
v 0.655240476 0.233231425 -0.293229371
v 0.701651871 0.318800032 -0.320062846
v 0.701651871 0.318800032 -0.397176802
v 0.655240476 0.233231425 -0.424010307
v 0.578034937 0.217239216 -0.4293167
v 0.655240476 0.233231425 -0.424010307
v 0.655240476 0.293229163 -0.484007567
v 0.578034937 0.287922353 -0.5
v 0.578034937 0.287922353 -0.5
v 0.655240476 0.293229163 -0.484007567
v 0.655240476 0.424010068 -0.484007567
v 0.578034937 0.429316878 -0.5
v 0.655240476 0.293229163 -0.484007567
v 0.701651871 0.318800032 -0.397176802
v 0.701651871 0.398439169 -0.397176802
v 0.655240476 0.424010068 -0.484007567
v 0.578034937 0.429316878 -0.5
v 0.655240476 0.424010068 -0.484007567
v 0.655240476 0.484007746 -0.424010307
v 0.578034937 0.5 -0.4293167
v 0.5 0.429316878 0.217240289
v 0.5 0.287922353 0.217240289
v 0.578034937 0.287922353 0.217240289
v 0.578034937 0.429316878 0.217240289
v 0.5 0.217239216 0.287923276
v 0.5 0.217239216 0.4293167
v 0.578034937 0.217239216 0.4293167
v 0.578034937 0.217239216 0.287923276
v 0.5 0.287922353 0.5
v 0.5 0.429316878 0.5
v 0.578034937 0.429316878 0.5
v 0.578034937 0.287922353 0.5
v 0.5 0.5 0.4293167
v 0.5 0.5 0.287923276
v 0.578034937 0.5 0.287923276
v 0.578034937 0.5 0.4293167
v 0.701651871 0.398439169 0.320062846
v 0.701651871 0.318800032 0.320062846
v 0.701651871 0.318800032 0.397176802
v 0.701651871 0.398439169 0.397176802
v 0.5 0.429316878 0.217240289
v 0.578034937 0.429316878 0.217240289
v 0.578034937 0.5 0.287923276
v 0.5 0.5 0.287923276
v 0.5 0.217239216 0.287923276
v 0.578034937 0.217239216 0.287923276
v 0.578034937 0.287922353 0.217240289
v 0.5 0.287922353 0.217240289
v 0.5 0.287922353 0.5
v 0.578034937 0.287922353 0.5
v 0.578034937 0.217239216 0.4293167
v 0.5 0.217239216 0.4293167
v 0.5 0.5 0.4293167
v 0.578034937 0.5 0.4293167
v 0.578034937 0.429316878 0.5
v 0.5 0.429316878 0.5
v 0.655240476 0.424010068 0.233232424
v 0.655240476 0.484007746 0.293229371
v 0.578034937 0.5 0.287923276
v 0.578034937 0.429316878 0.217240289
v 0.578034937 0.429316878 0.217240289
v 0.578034937 0.287922353 0.217240289
v 0.655240476 0.293229163 0.233232424
v 0.655240476 0.424010068 0.233232424
v 0.655240476 0.424010068 0.233232424
v 0.655240476 0.293229163 0.233232424
v 0.701651871 0.318800032 0.320062846
v 0.701651871 0.398439169 0.320062846
v 0.701651871 0.398439169 0.320062846
v 0.701651871 0.398439169 0.397176802
v 0.655240476 0.484007746 0.424010307
v 0.655240476 0.484007746 0.293229371
v 0.655240476 0.484007746 0.293229371
v 0.655240476 0.484007746 0.424010307
v 0.578034937 0.5 0.4293167
v 0.578034937 0.5 0.287923276
v 0.578034937 0.287922353 0.217240289
v 0.578034937 0.217239216 0.287923276
v 0.655240476 0.233231425 0.293229371
v 0.655240476 0.293229163 0.233232424
v 0.578034937 0.217239216 0.287923276
v 0.578034937 0.217239216 0.4293167
v 0.655240476 0.233231425 0.424010307
v 0.655240476 0.233231425 0.293229371
v 0.655240476 0.233231425 0.293229371
v 0.655240476 0.233231425 0.424010307
v 0.701651871 0.318800032 0.397176802
v 0.701651871 0.318800032 0.320062846
v 0.578034937 0.217239216 0.4293167
v 0.578034937 0.287922353 0.5
v 0.655240476 0.293229163 0.484007567
v 0.655240476 0.233231425 0.424010307
v 0.578034937 0.287922353 0.5
v 0.578034937 0.429316878 0.5
v 0.655240476 0.424010068 0.484007567
v 0.655240476 0.293229163 0.484007567
v 0.655240476 0.293229163 0.484007567
v 0.655240476 0.424010068 0.484007567
v 0.701651871 0.398439169 0.397176802
v 0.701651871 0.318800032 0.397176802
v 0.578034937 0.429316878 0.5
v 0.578034937 0.5 0.4293167
v 0.655240476 0.484007746 0.424010307
v 0.655240476 0.424010068 0.484007567
vt 0.653820992 0.176432505
vt 0.650395691 0.189881444
vt 0.642162144 0.180639759
vt 0.668245375 0.1897953
vt 0.664690554 0.176380038
vt 0.674281061 0.179695576
vt 0.676291823 0.160243541
vt 0.664632916 0.164450914
vt 0.668058097 0.151001826
vt 0.650208414 0.151087955
vt 0.653763413 0.164503351
vt 0.642064452 0.16040875
vt 0.653820992 0.176432505
vt 0.642162144 0.180639759
vt 0.650395691 0.189881444
vt 0.668245375 0.1897953
vt 0.674281061 0.179695576
vt 0.664690554 0.176380038
vt 0.676291823 0.160243541
vt 0.668058097 0.151001826
vt 0.664632916 0.164450914
vt 0.650208414 0.151087955
vt 0.642064452 0.16040875
vt 0.653763413 0.164503351
vt 0.851692438 0.0453398824
vt 0.851692438 0.0453644693
vt 0.851716995 0.0453644693
vt 0.851716995 0.0453398824
vt 0.950269103 0.0421430469
vt 0.950269103 0.0431979299
vt 0.951323986 0.0431979299
vt 0.951323986 0.0421430469
vt 0.851692438 0.0453398824
vt 0.851692438 0.0453644693
vt 0.851716995 0.0453644693
vt 0.851716995 0.0453398824
vt 0.950269103 0.0421430469
vt 0.950269103 0.0431979299
vt 0.951323986 0.0431979299
vt 0.951323986 0.0421430469
vt 0.851692438 0.0453398824
vt 0.851692438 0.0453644693
vt 0.851716995 0.0453644693
vt 0.851716995 0.0453398824
vt 0.851692438 0.0453398824
vt 0.851692438 0.0453644693
vt 0.851716995 0.0453644693
vt 0.851716995 0.0453398824
vt 0.643789232 0.205895036
vt 0.648647428 0.194737941
vt 0.670040667 0.194634706
vt 0.675006151 0.205744445
vt 0.684627533 0.192219302
vt 0.678568184 0.181682825
vt 0.680559516 0.158214897
vt 0.69035542 0.152600273
vt 0.68714571 0.131902501
vt 0.6698066 0.14614512
vt 0.644846201 0.142977193
vt 0.639354944 0.132001549
vt 0.611298561 0.168634579
vt 0.629376352 0.162013397
vt 0.637894392 0.182668313
vt 0.628098547 0.188282982
vt 0.653820992 0.176432505
vt 0.653763413 0.164503351
vt 0.664632916 0.164450914
vt 0.664690554 0.176380038
vt 0.643789232 0.205895036
vt 0.628098547 0.188282982
vt 0.637894392 0.182668313
vt 0.648647428 0.194737941
vt 0.684627533 0.192219302
vt 0.675006151 0.205744445
vt 0.670040667 0.194634706
vt 0.678568184 0.181682825
vt 0.68714571 0.131902501
vt 0.69035542 0.152600273
vt 0.680559516 0.158214897
vt 0.6698066 0.14614512
vt 0.611298561 0.168634579
vt 0.639354944 0.132001549
vt 0.644846201 0.142977193
vt 0.629376352 0.162013397
vt 0.650395691 0.189881444
vt 0.648647428 0.194737941
vt 0.637894392 0.182668313
vt 0.642162144 0.180639759
vt 0.648647428 0.194737941
vt 0.650395691 0.189881444
vt 0.668245375 0.1897953
vt 0.670040667 0.194634706
vt 0.650395691 0.189881444
vt 0.653820992 0.176432505
vt 0.664690554 0.176380038
vt 0.668245375 0.1897953
vt 0.653820992 0.176432505
vt 0.642162144 0.180639759
vt 0.642064452 0.16040875
vt 0.653763413 0.164503351
vt 0.642162144 0.180639759
vt 0.637894392 0.182668313
vt 0.629376352 0.162013397
vt 0.642064452 0.16040875
vt 0.670040667 0.194634706
vt 0.668245375 0.1897953
vt 0.674281061 0.179695576
vt 0.678568184 0.181682825
vt 0.678568184 0.181682825
vt 0.674281061 0.179695576
vt 0.676291823 0.160243541
vt 0.680559516 0.158214897
vt 0.674281061 0.179695576
vt 0.664690554 0.176380038
vt 0.664632916 0.164450914
vt 0.676291823 0.160243541
vt 0.680559516 0.158214897
vt 0.676291823 0.160243541
vt 0.668058097 0.151001826
vt 0.6698066 0.14614512
vt 0.6698066 0.14614512
vt 0.668058097 0.151001826
vt 0.650208414 0.151087955
vt 0.644846201 0.142977193
vt 0.668058097 0.151001826
vt 0.664632916 0.164450914
vt 0.653763413 0.164503351
vt 0.650208414 0.151087955
vt 0.644846201 0.142977193
vt 0.650208414 0.151087955
vt 0.642064452 0.16040875
vt 0.629376352 0.162013397
vt 0.643789232 0.205895036
vt 0.675006151 0.205744445
vt 0.670040667 0.194634706
vt 0.648647428 0.194737941
vt 0.684627533 0.192219302
vt 0.69035542 0.152600273
vt 0.680559516 0.158214897
vt 0.678568184 0.181682825
vt 0.68714571 0.131902501
vt 0.639354944 0.132001549
vt 0.644846201 0.142977193
vt 0.6698066 0.14614512
vt 0.611298561 0.168634579
vt 0.628098547 0.188282982
vt 0.637894392 0.182668313
vt 0.629376352 0.162013397
vt 0.653820992 0.176432505
vt 0.664690554 0.176380038
vt 0.664632916 0.164450914
vt 0.653763413 0.164503351
vt 0.643789232 0.205895036
vt 0.648647428 0.194737941
vt 0.637894392 0.182668313
vt 0.628098547 0.188282982
vt 0.684627533 0.192219302
vt 0.678568184 0.181682825
vt 0.670040667 0.194634706
vt 0.675006151 0.205744445
vt 0.68714571 0.131902501
vt 0.6698066 0.14614512
vt 0.680559516 0.158214897
vt 0.69035542 0.152600273
vt 0.611298561 0.168634579
vt 0.629376352 0.162013397
vt 0.644846201 0.142977193
vt 0.639354944 0.132001549
vt 0.650395691 0.189881444
vt 0.642162144 0.180639759
vt 0.637894392 0.182668313
vt 0.648647428 0.194737941
vt 0.648647428 0.194737941
vt 0.670040667 0.194634706
vt 0.668245375 0.1897953
vt 0.650395691 0.189881444
vt 0.650395691 0.189881444
vt 0.668245375 0.1897953
vt 0.664690554 0.176380038
vt 0.653820992 0.176432505
vt 0.653820992 0.176432505
vt 0.653763413 0.164503351
vt 0.642064452 0.16040875
vt 0.642162144 0.180639759
vt 0.642162144 0.180639759
vt 0.642064452 0.16040875
vt 0.629376352 0.162013397
vt 0.637894392 0.182668313
vt 0.670040667 0.194634706
vt 0.678568184 0.181682825
vt 0.674281061 0.179695576
vt 0.668245375 0.1897953
vt 0.678568184 0.181682825
vt 0.680559516 0.158214897
vt 0.676291823 0.160243541
vt 0.674281061 0.179695576
vt 0.674281061 0.179695576
vt 0.676291823 0.160243541
vt 0.664632916 0.164450914
vt 0.664690554 0.176380038
vt 0.680559516 0.158214897
vt 0.6698066 0.14614512
vt 0.668058097 0.151001826
vt 0.676291823 0.160243541
vt 0.6698066 0.14614512
vt 0.644846201 0.142977193
vt 0.650208414 0.151087955
vt 0.668058097 0.151001826
vt 0.668058097 0.151001826
vt 0.650208414 0.151087955
vt 0.653763413 0.164503351
vt 0.664632916 0.164450914
vt 0.644846201 0.142977193
vt 0.629376352 0.162013397
vt 0.642064452 0.16040875
vt 0.650208414 0.151087955
vn 0.863550127 0.356565803 0.356569678
vn 0.863550127 0.356565803 0.356569737
vn 0.863550127 0.356565833 0.356569678
vn 0.863551557 -0.356563777 0.356568456
vn 0.863551438 -0.356563777 0.356568456
vn 0.863551438 -0.356563747 0.356568456
vn 0.863548875 -0.356567889 -0.356570631
vn 0.863548875 -0.35656786 -0.356570572
vn 0.863548875 -0.35656786 -0.356570572
vn 0.863550067 0.356566727 -0.356569022
vn 0.863550067 0.356566757 -0.356569022
vn 0.863550067 0.356566727 -0.356569022
vn 0.863551438 0.356563985 -0.356568336
vn 0.863551438 0.356563956 -0.356568277
vn 0.863551438 0.356563985 -0.356568307
vn 0.863552153 -0.356562644 -0.356568098
vn 0.863552094 -0.356562674 -0.356568068
vn 0.863552153 -0.356562644 -0.356568098
vn 0.863552272 -0.356563687 0.356566846
vn 0.863552272 -0.356563717 0.356566846
vn 0.863552272 -0.356563717 0.356566846
vn 0.863551736 0.35656476 0.356567115
vn 0.863551736 0.35656476 0.356567115
vn 0.863551736 0.35656476 0.356567115
vn -0 0 1
vn -0 0 1
vn -0 0 1
vn -0 0 1
vn -0 1 0
vn -0 1 0
vn -0 1 0
vn -0 1 0
vn -0 0 -1
vn -0 0 -1
vn -0 0 -1
vn -0 0 -1
vn -0 -1 0
vn -0 -1 0
vn -0 -1 0
vn -0 -1 0
vn 1 0 0
vn 1 0 0
vn 1 0 0
vn 1 0 0
vn -1 0 0
vn -1 0 0
vn -1 0 0
vn -1 0 0
vn -0 0 1
vn -0 0 1
vn -0 0 1
vn -0 0 1
vn -0 -1 0
vn -0 -1 0
vn -0 -1 0
vn -0 -1 0
vn -0 0 -1
vn -0 0 -1
vn -0 0 -1
vn -0 0 -1
vn -0 1 0
vn -0 1 0
vn -0 1 0
vn -0 1 0
vn 1 0 0
vn 1 0 0
vn 1 0 0
vn 1 0 0
vn -0 0.707106352 0.707107186
vn -0 0.707106352 0.707107186
vn -0 0.707106352 0.707107186
vn -0 0.707106352 0.707107186
vn -0 -0.707106054 0.707107425
vn -0 -0.707106054 0.707107425
vn -0 -0.707106054 0.707107425
vn -0 -0.707106054 0.707107425
vn -0 -0.707107663 -0.707105875
vn -0 -0.707107663 -0.707105875
vn -0 -0.707107663 -0.707105875
vn -0 -0.707107663 -0.707105875
vn -0 0.707107902 -0.707105637
vn -0 0.707107902 -0.707105637
vn -0 0.707107902 -0.707105637
vn -0 0.707107902 -0.707105637
vn 0.191459239 0.69402349 0.694027901
vn 0.191459283 0.69402355 0.694027901
vn 0.191459253 0.69402355 0.694027901
vn 0.191459283 0.69402355 0.694027901
vn 0.202830568 0 0.979213893
vn 0.202830568 0 0.979213893
vn 0.202830568 0 0.979213893
vn 0.202830568 0 0.979213893
vn 0.881923735 0 0.471392184
vn 0.881923735 0 0.471392244
vn 0.881923735 0 0.471392125
vn 0.881923735 0 0.471392184
vn 0.879026592 0.476772696 0
vn 0.879026592 0.476772666 0
vn 0.879026592 0.476772666 0
vn 0.879026592 0.476772696 0
vn 0.202833146 0.979213297 0
vn 0.202833146 0.979213297 0
vn 0.202833191 0.979213297 0
vn 0.202833161 0.979213297 0
vn 0.191460729 -0.694022775 0.694028139
vn 0.191460729 -0.694022775 0.694028199
vn 0.191460758 -0.694022775 0.694028258
vn 0.191460744 -0.694022775 0.694028258
vn 0.202832043 -0.979213536 0
vn 0.202832043 -0.979213536 0
vn 0.202832043 -0.979213536 0
vn 0.202832058 -0.979213536 0
vn 0.879026592 -0.476772606 0
vn 0.879026592 -0.476772696 0
vn 0.879026592 -0.476772696 0
vn 0.879026592 -0.476772606 0
vn 0.191465631 -0.69402355 -0.694026232
vn 0.191465631 -0.69402355 -0.694026172
vn 0.191465631 -0.69402355 -0.694026172
vn 0.191465601 -0.69402349 -0.694026232
vn 0.202837616 0 -0.979212403
vn 0.202837661 0 -0.979212403
vn 0.202837661 0 -0.979212403
vn 0.202837616 0 -0.979212403
vn 0.881924212 0 -0.471391171
vn 0.881924212 0 -0.471391231
vn 0.881924212 0 -0.471391231
vn 0.881924212 0 -0.471391171
vn 0.191464528 0.694024205 -0.694025755
vn 0.191464543 0.694024205 -0.694025755
vn 0.191464528 0.694024324 -0.694025695
vn 0.191464543 0.694024205 -0.694025755
vn -0 0 -1
vn -0 0 -1
vn -0 0 -1
vn -0 0 -1
vn -0 -1 0
vn -0 -1 0
vn -0 -1 0
vn -0 -1 0
vn -0 0 1
vn -0 0 1
vn -0 0 1
vn -0 0 1
vn -0 1 0
vn -0 1 0
vn -0 1 0
vn -0 1 0
vn 1 0 0
vn 1 0 0
vn 1 0 0
vn 1 0 0
vn -0 0.707106352 -0.707107186
vn -0 0.707106352 -0.707107186
vn -0 0.707106352 -0.707107186
vn -0 0.707106352 -0.707107186
vn -0 -0.707106054 -0.707107425
vn -0 -0.707106054 -0.707107425
vn -0 -0.707106054 -0.707107425
vn -0 -0.707106054 -0.707107425
vn -0 -0.707107663 0.707105875
vn -0 -0.707107663 0.707105875
vn -0 -0.707107663 0.707105875
vn -0 -0.707107663 0.707105875
vn -0 0.707107902 0.707105637
vn -0 0.707107902 0.707105637
vn -0 0.707107902 0.707105637
vn -0 0.707107902 0.707105637
vn 0.191459671 0.694023311 -0.694027901
vn 0.191459671 0.694023311 -0.694027901
vn 0.191459686 0.694023311 -0.69402796
vn 0.1914597 0.694023311 -0.694027901
vn 0.202834636 0 -0.979213059
vn 0.202834636 0 -0.979213059
vn 0.202834651 0 -0.979213059
vn 0.202834651 0 -0.979213059
vn 0.881922305 0 -0.471394837
vn 0.881922305 0 -0.471394837
vn 0.881922305 0 -0.471394837
vn 0.881922245 0 -0.471394867
vn 0.879025936 0.476773828 0
vn 0.879025936 0.476773828 0
vn 0.879026055 0.476773828 0
vn 0.879026055 0.476773828 0
vn 0.202833056 0.979213297 0
vn 0.202833027 0.979213297 0
vn 0.202833027 0.979213297 0
vn 0.202833042 0.979213297 0
vn 0.191459477 -0.694023013 -0.694028258
vn 0.191459477 -0.694023013 -0.694028258
vn 0.191459477 -0.694023073 -0.694028258
vn 0.191459477 -0.694022954 -0.694028318
vn 0.202832729 -0.979213417 0
vn 0.202832744 -0.979213417 0
vn 0.202832714 -0.979213417 0
vn 0.202832744 -0.979213417 0
vn 0.879026234 -0.476773351 0
vn 0.879026234 -0.476773351 0
vn 0.879026234 -0.476773292 0
vn 0.879026234 -0.476773292 0
vn 0.191459164 -0.694024384 0.694027126
vn 0.191459194 -0.694024384 0.694027126
vn 0.191459149 -0.694024384 0.694027066
vn 0.191459179 -0.694024384 0.694027066
vn 0.202839002 0 0.979212046
vn 0.202839002 0 0.979212046
vn 0.202838957 0 0.979212046
vn 0.202838957 0 0.979212046
vn 0.881923258 0 0.47139293
vn 0.881923378 0 0.47139293
vn 0.881923378 0 0.47139293
vn 0.881923378 0 0.47139293
vn 0.191462547 0.694024444 0.694026172
vn 0.191462547 0.694024444 0.694026172
vn 0.191462547 0.694024444 0.694026113
vn 0.191462532 0.694024444 0.694026113
g RoofSupportCube_2_0
f 3/3/3 2/2/2 1/1/1
f 6/6/6 5/5/5 4/4/4
f 9/9/9 8/8/8 7/7/7
f 12/12/12 11/11/11 10/10/10
f 15/15/15 14/14/14 13/13/13
f 18/18/18 17/17/17 16/16/16
f 21/21/21 20/20/20 19/19/19
f 24/24/24 23/23/23 22/22/22
f 27/27/27 26/26/26 25/25/25
f 28/28/28 27/27/27 25/25/25
f 31/31/31 30/30/30 29/29/29
f 32/32/32 31/31/31 29/29/29
f 35/35/35 34/34/34 33/33/33
f 36/36/36 35/35/35 33/33/33
f 39/39/39 38/38/38 37/37/37
f 40/40/40 39/39/39 37/37/37
f 43/43/43 42/42/42 41/41/41
f 44/44/44 43/43/43 41/41/41
f 47/47/47 46/46/46 45/45/45
f 48/48/48 47/47/47 45/45/45
f 51/51/51 50/50/50 49/49/49
f 52/52/52 51/51/51 49/49/49
f 55/55/55 54/54/54 53/53/53
f 56/56/56 55/55/55 53/53/53
f 59/59/59 58/58/58 57/57/57
f 60/60/60 59/59/59 57/57/57
f 63/63/63 62/62/62 61/61/61
f 64/64/64 63/63/63 61/61/61
f 67/67/67 66/66/66 65/65/65
f 68/68/68 67/67/67 65/65/65
f 71/71/71 70/70/70 69/69/69
f 72/72/72 71/71/71 69/69/69
f 75/75/75 74/74/74 73/73/73
f 76/76/76 75/75/75 73/73/73
f 79/79/79 78/78/78 77/77/77
f 80/80/80 79/79/79 77/77/77
f 83/83/83 82/82/82 81/81/81
f 84/84/84 83/83/83 81/81/81
f 87/87/87 86/86/86 85/85/85
f 88/88/88 87/87/87 85/85/85
f 91/91/91 90/90/90 89/89/89
f 92/92/92 91/91/91 89/89/89
f 95/95/95 94/94/94 93/93/93
f 96/96/96 95/95/95 93/93/93
f 99/99/99 98/98/98 97/97/97
f 100/100/100 99/99/99 97/97/97
f 103/103/103 102/102/102 101/101/101
f 104/104/104 103/103/103 101/101/101
f 107/107/107 106/106/106 105/105/105
f 108/108/108 107/107/107 105/105/105
f 111/111/111 110/110/110 109/109/109
f 112/112/112 111/111/111 109/109/109
f 115/115/115 114/114/114 113/113/113
f 116/116/116 115/115/115 113/113/113
f 119/119/119 118/118/118 117/117/117
f 120/120/120 119/119/119 117/117/117
f 123/123/123 122/122/122 121/121/121
f 124/124/124 123/123/123 121/121/121
f 127/127/127 126/126/126 125/125/125
f 128/128/128 127/127/127 125/125/125
f 131/131/131 130/130/130 129/129/129
f 132/132/132 131/131/131 129/129/129
f 135/135/135 134/134/134 133/133/133
f 136/136/136 135/135/135 133/133/133
f 139/139/139 138/138/138 137/137/137
f 140/140/140 139/139/139 137/137/137
f 143/143/143 142/142/142 141/141/141
f 144/144/144 143/143/143 141/141/141
f 147/147/147 146/146/146 145/145/145
f 148/148/148 147/147/147 145/145/145
f 151/151/151 150/150/150 149/149/149
f 152/152/152 151/151/151 149/149/149
f 155/155/155 154/154/154 153/153/153
f 156/156/156 155/155/155 153/153/153
f 159/159/159 158/158/158 157/157/157
f 160/160/160 159/159/159 157/157/157
f 163/163/163 162/162/162 161/161/161
f 164/164/164 163/163/163 161/161/161
f 167/167/167 166/166/166 165/165/165
f 168/168/168 167/167/167 165/165/165
f 171/171/171 170/170/170 169/169/169
f 172/172/172 171/171/171 169/169/169
f 175/175/175 174/174/174 173/173/173
f 176/176/176 175/175/175 173/173/173
f 179/179/179 178/178/178 177/177/177
f 180/180/180 179/179/179 177/177/177
f 183/183/183 182/182/182 181/181/181
f 184/184/184 183/183/183 181/181/181
f 187/187/187 186/186/186 185/185/185
f 188/188/188 187/187/187 185/185/185
f 191/191/191 190/190/190 189/189/189
f 192/192/192 191/191/191 189/189/189
f 195/195/195 194/194/194 193/193/193
f 196/196/196 195/195/195 193/193/193
f 199/199/199 198/198/198 197/197/197
f 200/200/200 199/199/199 197/197/197
f 203/203/203 202/202/202 201/201/201
f 204/204/204 203/203/203 201/201/201
f 207/207/207 206/206/206 205/205/205
f 208/208/208 207/207/207 205/205/205
f 211/211/211 210/210/210 209/209/209
f 212/212/212 211/211/211 209/209/209
f 215/215/215 214/214/214 213/213/213
f 216/216/216 215/215/215 213/213/213
