g T_Wall
v 0.1875 -0.5 0.5
v 0.1875 0.5 0.5
v 0.1875 0.5 -0.5
v 0.1875 -0.5 -0.5
v 0.1875 0.5 0.5
v -0.1875 0.5 0.5
v -0.1875 0.5 0.1875
v -0.1875 0.5 -0.1875
v 0.1875 0.5 -0.5
v -0.1875 0.5 -0.5
v -0.1875 0.5 0.5
v -0.1875 -0.5 0.5
v -0.1875 -0.5 0.1875
v -0.1875 0.5 0.1875
v -0.1875 -0.5 0.5
v 0.1875 -0.5 0.5
v -0.1875 -0.5 0.1875
v -0.1875 -0.5 -0.1875
v 0.1875 -0.5 -0.5
v -0.1875 -0.5 -0.5
v 0.1875 -0.5 -0.5
v 0.1875 0.5 -0.5
v -0.1875 0.5 -0.5
v -0.1875 -0.5 -0.5
v -0.1875 -0.5 0.5
v -0.1875 0.5 0.5
v 0.1875 0.5 0.5
v 0.1875 -0.5 0.5
v -0.1875 -0.5 -0.1875
v -0.1875 -0.5 -0.5
v -0.1875 0.5 -0.5
v -0.1875 0.5 -0.1875
v -0.5 -0.5 0.1875
v -0.5 0.5 0.1875
v -0.1875 0.5 0.1875
v -0.1875 -0.5 0.1875
v -0.5 0.5 0.1875
v -0.5 0.5 -0.1875
v -0.1875 0.5 -0.1875
v -0.1875 0.5 0.1875
v -0.5 0.5 -0.1875
v -0.5 -0.5 -0.1875
v -0.1875 -0.5 -0.1875
v -0.1875 0.5 -0.1875
v -0.5 -0.5 -0.1875
v -0.5 -0.5 0.1875
v -0.1875 -0.5 0.1875
v -0.1875 -0.5 -0.1875
v -0.5 -0.5 -0.1875
v -0.5 0.5 -0.1875
v -0.5 0.5 0.1875
v -0.5 -0.5 0.1875
v -0.1875 -0.5 0.369280159
v -0.1875 -0.5 0.1875
v -0.369280398 -0.5 0.1875
v -0.369280398 -0.5 0.278399199
v -0.278399348 -0.5 0.369280159
v -0.369280398 0.5 0.278399199
v -0.369280398 0.5 0.1875
v -0.1875 0.5 0.1875
v -0.1875 0.5 0.369280159
v -0.278399348 0.5 0.369280159
v -0.278399348 -0.0499949977 0.369280159
v -0.1875 -0.0249974988 0.363913924
v -0.1875 -0.0499949977 0.369280159
v -0.275715947 -0.0249974988 0.363913924
v -0.1875 0 0.326536715
v -0.369280398 -0.0499949977 0.278399199
v -0.257025748 0 0.326536715
v -0.363914162 -0.0249974988 0.275715798
v -0.369280398 -0.0499949977 0.1875
v -0.326536864 0 0.257025301
v -0.363914162 -0.0249974988 0.1875
v -0.326536864 0 0.1875
v -0.1875 0.0249974988 0.363913924
v -0.1875 0 0.326536715
v -0.257025748 0 0.326536715
v -0.275715947 0.0249974988 0.363913924
v -0.1875 0.0499949977 0.369280159
v -0.326536864 0 0.257025301
v -0.278399348 0.0499949977 0.369280159
v -0.363914162 0.0249974988 0.275715798
v -0.326536864 0 0.1875
v -0.369280398 0.0499949977 0.278399199
v -0.363914162 0.0249974988 0.1875
v -0.369280398 0.0499949977 0.1875
v -0.278399348 0.5 0.369280159
v -0.1875 0.5 0.369280159
v -0.1875 0.0499949977 0.369280159
v -0.278399348 0.0499949977 0.369280159
v -0.369280398 0.0499949977 0.1875
v -0.369280398 0.5 0.1875
v -0.369280398 0.5 0.278399199
v -0.369280398 0.0499949977 0.278399199
v -0.369280398 0.0499949977 0.278399199
v -0.369280398 0.5 0.278399199
v -0.278399348 0.5 0.369280159
v -0.278399348 0.0499949977 0.369280159
v -0.369280398 -0.5 0.1875
v -0.369280398 -0.0499949977 0.1875
v -0.369280398 -0.0499949977 0.278399199
v -0.369280398 -0.5 0.278399199
v -0.369280398 -0.5 0.278399199
v -0.369280398 -0.0499949977 0.278399199
v -0.278399348 -0.0499949977 0.369280159
v -0.278399348 -0.5 0.369280159
v -0.1875 -0.0499949977 0.369280159
v -0.1875 -0.5 0.369280159
v -0.278399348 -0.5 0.369280159
v -0.278399348 -0.0499949977 0.369280159
v -0.1875 -0.5 -0.1875
v -0.1875 -0.5 -0.369280398
v -0.27839905 -0.5 -0.369280398
v -0.36928007 -0.5 -0.278399348
v -0.36928007 -0.5 -0.1875
v -0.36928007 0.5 -0.278399348
v -0.27839905 0.5 -0.369280398
v -0.1875 0.5 -0.369280398
v -0.1875 0.5 -0.1875
v -0.36928007 0.5 -0.1875
v -0.36928007 -0.0499949977 -0.278399348
v -0.363913864 -0.0249974988 -0.1875
v -0.36928007 -0.0499949977 -0.1875
v -0.363913864 -0.0249974988 -0.275715947
v -0.326536864 0 -0.1875
v -0.27839905 -0.0499949977 -0.369280398
v -0.326536864 0 -0.257025599
v -0.275715947 -0.0249974988 -0.363914162
v -0.1875 -0.0499949977 -0.369280398
v -0.257025152 0 -0.326536864
v -0.1875 -0.0249974988 -0.363914162
v -0.1875 0 -0.326536864
v -0.363913864 0.0249974988 -0.1875
v -0.326536864 0 -0.1875
v -0.326536864 0 -0.257025599
v -0.363913864 0.0249974988 -0.275715947
v -0.36928007 0.0499949977 -0.1875
v -0.257025152 0 -0.326536864
v -0.36928007 0.0499949977 -0.278399348
v -0.275715947 0.0249974988 -0.363914162
v -0.1875 0 -0.326536864
v -0.27839905 0.0499949977 -0.369280398
v -0.1875 0.0249974988 -0.363914162
v -0.1875 0.0499949977 -0.369280398
v -0.36928007 0.5 -0.278399348
v -0.36928007 0.5 -0.1875
v -0.36928007 0.0499949977 -0.1875
v -0.36928007 0.0499949977 -0.278399348
v -0.1875 0.0499949977 -0.369280398
v -0.1875 0.5 -0.369280398
v -0.27839905 0.5 -0.369280398
v -0.27839905 0.0499949977 -0.369280398
v -0.27839905 0.0499949977 -0.369280398
v -0.27839905 0.5 -0.369280398
v -0.36928007 0.5 -0.278399348
v -0.36928007 0.0499949977 -0.278399348
v -0.1875 -0.5 -0.369280398
v -0.1875 -0.0499949977 -0.369280398
v -0.27839905 -0.0499949977 -0.369280398
v -0.27839905 -0.5 -0.369280398
v -0.27839905 -0.5 -0.369280398
v -0.27839905 -0.0499949977 -0.369280398
v -0.36928007 -0.0499949977 -0.278399348
v -0.36928007 -0.5 -0.278399348
v -0.36928007 -0.0499949977 -0.1875
v -0.36928007 -0.5 -0.1875
v -0.36928007 -0.5 -0.278399348
v -0.36928007 -0.0499949977 -0.278399348
vt 0.847162902 0.0479301959
vt 0.847162902 0.0495855436
vt 0.848818123 0.0495855436
vt 0.848818123 0.0479301959
vt 0.0148505215 0.991301715
vt 0.0148505215 0.841220081
vt 0.136776656 0.841220081
vt 0.285636187 0.841220081
vt 0.41007024 0.991301715
vt 0.41007024 0.841220081
vt 0.847096264 0.0479301959
vt 0.847096264 0.0495855436
vt 0.846579313 0.0495855436
vt 0.846579313 0.0479301959
vt 0.0148505215 0.841220081
vt 0.0148505215 0.991301715
vt 0.137160629 0.841220081
vt 0.286020815 0.841220081
vt 0.41007024 0.991301715
vt 0.41007024 0.841220081
vt 0.843147099 0.0466525964
vt 0.843147099 0.0527266599
vt 0.845258355 0.0527266599
vt 0.845258355 0.0466525964
vt 0.843147099 0.0466525964
vt 0.843147099 0.0527266599
vt 0.845258355 0.0527266599
vt 0.845258355 0.0466525964
vt 0.846579313 0.0495855436
vt 0.847096264 0.0495855436
vt 0.847096264 0.0479301959
vt 0.846579313 0.0479301959
vt 0.847096264 0.0479301959
vt 0.847096264 0.0495855436
vt 0.846579313 0.0495855436
vt 0.846579313 0.0479301959
vt 0.161114097 0.707423806
vt 0.0122540249 0.707423866
vt 0.0122540249 0.831474006
vt 0.161113977 0.831474066
vt 0.847096264 0.0479301959
vt 0.847096264 0.0495855436
vt 0.846579313 0.0495855436
vt 0.846579313 0.0479301959
vt 0.161114335 0.707424462
vt 0.0122539056 0.707423866
vt 0.0122540249 0.831474364
vt 0.161114097 0.831473768
vt 0.843147099 0.0466525964
vt 0.843147099 0.0527266599
vt 0.845258355 0.0527266599
vt 0.845258355 0.0466525964
vt 0.13398774 0.480704457
vt 0.0792411119 0.535450995
vt 0.0234088134 0.480704367
vt 0.0493350439 0.45332846
vt 0.106611624 0.45332846
vt 0.0493350439 0.45332846
vt 0.0234088134 0.480704367
vt 0.0792413503 0.535450995
vt 0.13398774 0.480704457
vt 0.106611624 0.45332846
vt 0.10770528 0.201152712
vt 0.139871195 0.212444901
vt 0.146448389 0.201152712
vt 0.104355142 0.212444901
vt 0.136835054 0.22998625
vt 0.0493350439 0.201152712
vt 0.103223726 0.22998625
vt 0.0527006201 0.212444901
vt 0.010816915 0.201152712
vt 0.0537489466 0.22998625
vt 0.0171206426 0.212444901
vt 0.0201243591 0.22998625
vt 0.139871195 0.249483168
vt 0.136835054 0.22998625
vt 0.103223726 0.22998625
vt 0.104299709 0.249483168
vt 0.146448389 0.260116965
vt 0.0537489466 0.22998625
vt 0.10770528 0.260116965
vt 0.0526420288 0.249483168
vt 0.0201243591 0.22998625
vt 0.0493350439 0.260116965
vt 0.0171206426 0.249483168
vt 0.010816915 0.260116965
vt 0.10770528 0.45332849
vt 0.146448389 0.45332849
vt 0.146448389 0.260116965
vt 0.10770528 0.260116965
vt 0.010816915 0.260116965
vt 0.010816915 0.45332849
vt 0.0493350439 0.45332849
vt 0.0493350439 0.260116965
vt 0.0493350439 0.260116965
vt 0.0493350439 0.45332849
vt 0.10770528 0.45332849
vt 0.10770528 0.260116965
vt 0.010816915 0.00976708159
vt 0.010816915 0.201152712
vt 0.0493350439 0.201152712
vt 0.0493350439 0.00976708159
vt 0.0493350439 0.00976708159
vt 0.0493350439 0.201152712
vt 0.10770528 0.201152712
vt 0.10770528 0.00976708159
vt 0.146448389 0.201152712
vt 0.146448389 0.00976708159
vt 0.10770528 0.00976708159
vt 0.10770528 0.201152712
vt 0.0792411119 0.535450995
vt 0.0234088134 0.480704367
vt 0.0493350439 0.45332846
vt 0.106611624 0.45332846
vt 0.13398774 0.480704457
vt 0.106611624 0.45332846
vt 0.0493350439 0.45332846
vt 0.0234088134 0.480704367
vt 0.0792413503 0.535450995
vt 0.13398774 0.480704457
vt 0.10770528 0.201152712
vt 0.139871195 0.212444901
vt 0.146448389 0.201152712
vt 0.104355142 0.212444901
vt 0.136835054 0.22998625
vt 0.0493350439 0.201152712
vt 0.103223726 0.22998625
vt 0.0527006201 0.212444901
vt 0.010816915 0.201152712
vt 0.0537489466 0.22998625
vt 0.0171206426 0.212444901
vt 0.0201243591 0.22998625
vt 0.139871195 0.249483168
vt 0.136835054 0.22998625
vt 0.103223726 0.22998625
vt 0.104299709 0.249483168
vt 0.146448389 0.260116965
vt 0.0537489466 0.22998625
vt 0.10770528 0.260116965
vt 0.0526420288 0.249483168
vt 0.0201243591 0.22998625
vt 0.0493350439 0.260116965
vt 0.0171206426 0.249483168
vt 0.010816915 0.260116965
vt 0.10770528 0.45332849
vt 0.146448389 0.45332849
vt 0.146448389 0.260116965
vt 0.10770528 0.260116965
vt 0.010816915 0.260116965
vt 0.010816915 0.45332849
vt 0.0493350439 0.45332849
vt 0.0493350439 0.260116965
vt 0.0493350439 0.260116965
vt 0.0493350439 0.45332849
vt 0.10770528 0.45332849
vt 0.10770528 0.260116965
vt 0.010816915 0.00976708159
vt 0.010816915 0.201152712
vt 0.0493350439 0.201152712
vt 0.0493350439 0.00976708159
vt 0.0493350439 0.00976708159
vt 0.0493350439 0.201152712
vt 0.10770528 0.201152712
vt 0.10770528 0.00976708159
vt 0.146448389 0.201152712
vt 0.146448389 0.00976708159
vt 0.10770528 0.00976708159
vt 0.10770528 0.201152712
vn 1 0 0
vn 1 0 0
vn 1 0 0
vn 1 0 0
vn -0 1 0
vn -0 1 0
vn -0 1 0
vn -0 1 0
vn -0 1 0
vn -0 1 0
vn -1 0 0
vn -1 0 0
vn -1 0 0
vn -1 0 0
vn -0 -1 0
vn -0 -1 0
vn -0 -1 0
vn -0 -1 0
vn -0 -1 0
vn -0 -1 0
vn -0 0 -1
vn -0 0 -1
vn -0 0 -1
vn -0 0 -1
vn -0 0 1
vn -0 0 1
vn -0 0 1
vn -0 0 1
vn -1 0 0
vn -1 0 0
vn -1 0 0
vn -1 0 0
vn -0 0 1
vn -0 0 1
vn -0 0 1
vn -0 0 1
vn -0 1 0
vn -0 1 0
vn -0 1 0
vn -0 1 0
vn -0 0 -1
vn -0 0 -1
vn -0 0 -1
vn -0 0 -1
vn -0 -1 0
vn -0 -1 0
vn -0 -1 0
vn -0 -1 0
vn -1 0 0
vn -1 0 0
vn -1 0 0
vn -1 0 0
vn -0 -1 0
vn -0 -1 0
vn -0 -1 0
vn -0 -1 0
vn -0 -1 0
vn -0 1 0
vn -0 1 0
vn -0 1 0
vn -0 1 0
vn -0 1 0
vn -0.438422948 0.233385578 0.867938042
vn -0 0.631446421 0.775419533
vn -0 0.209889293 0.977725148
vn -0.351039588 0.6299209 0.692799389
vn -0 0.831234992 0.555921316
vn -0.867938399 0.233381912 0.438424408
vn -0.223771855 0.858166218 0.462035805
vn -0.692799509 0.629920065 0.351040721
vn -0.977726996 0.20988071 0
vn -0.462035447 0.858166456 0.223771095
vn -0.775420487 0.631445229 0
vn -0.555919528 0.831236124 0
vn -0 -0.631446421 0.775419474
vn -0 -0.831234992 0.555921316
vn -0.223771617 -0.858166277 0.462035596
vn -0.351039529 -0.629921019 0.69279927
vn -0 -0.209889308 0.977725148
vn -0.462034881 -0.858166873 0.223770812
vn -0.438423067 -0.23338528 0.867938101
vn -0.692798793 -0.6299209 0.351040483
vn -0.555918813 -0.831236601 0
vn -0.867937922 -0.233383283 0.438424438
vn -0.775419176 -0.631446779 0
vn -0.977726161 -0.209884569 0
vn -0 0 1
vn -0 0 1
vn -0 0 1
vn -0 0 1
vn -1 0 0
vn -1 0 0
vn -1 0 0
vn -1 0 0
vn -0.70710659 0 0.707106948
vn -0.70710659 0 0.707106948
vn -0.70710659 0 0.707106948
vn -0.70710659 0 0.707106948
vn -1 0 0
vn -1 0 0
vn -1 0 0
vn -1 0 0
vn -0.70710659 0 0.707106948
vn -0.70710659 0 0.707106948
vn -0.70710659 0 0.707106948
vn -0.70710659 0 0.707106948
vn -0 0 1
vn -0 0 1
vn -0 0 1
vn -0 0 1
vn -0 -1 0
vn -0 -1 0
vn -0 -1 0
vn -0 -1 0
vn -0 -1 0
vn -0 1 0
vn -0 1 0
vn -0 1 0
vn -0 1 0
vn -0 1 0
vn -0.867939353 0.233379588 -0.438423634
vn -0.775420785 0.631444871 0
vn -0.977726161 0.20988445 0
vn -0.692798972 0.629920959 -0.351040065
vn -0.555921793 0.831234574 0
vn -0.438421935 0.233381346 -0.867939651
vn -0.462034702 0.858166814 -0.223771259
vn -0.351041853 0.629921079 -0.692797959
vn -0 0.209888369 -0.977725387
vn -0.223770365 0.858166814 -0.46203512
vn -0 0.631445765 -0.77542007
vn -0 0.831234872 -0.555921435
vn -0.775421381 -0.631444097 0
vn -0.555921018 -0.831235111 0
vn -0.462034225 -0.858167171 -0.223771051
vn -0.692799389 -0.629920363 -0.351040334
vn -0.977727056 -0.209880292 0
vn -0.223770157 -0.858167052 -0.462034822
vn -0.867939889 -0.233377069 -0.438423932
vn -0.351041853 -0.629921079 -0.692798078
vn -0 -0.831234872 -0.555921435
vn -0.438422084 -0.233380616 -0.86793983
vn -0 -0.631445765 -0.77542007
vn -0 -0.209888339 -0.977725387
vn -1 0 0
vn -1 0 0
vn -1 0 0
vn -1 0 0
vn -0 0 -1
vn -0 0 -1
vn -0 0 -1
vn -0 0 -1
vn -0.707106769 0 -0.707106769
vn -0.707106769 0 -0.707106769
vn -0.707106769 0 -0.707106769
vn -0.707106769 0 -0.707106769
vn -0 0 -1
vn -0 0 -1
vn -0 0 -1
vn -0 0 -1
vn -0.707106769 0 -0.707106769
vn -0.707106769 0 -0.707106769
vn -0.707106769 0 -0.707106769
vn -0.707106769 0 -0.707106769
vn -1 0 0
vn -1 0 0
vn -1 0 0
vn -1 0 0
g T_Wall_0
f 3/3/3 2/2/2 1/1/1
f 4/4/4 3/3/3 1/1/1
f 7/7/7 6/6/6 5/5/5
f 8/8/8 7/7/7 5/5/5
f 9/9/9 8/8/8 5/5/5
f 9/9/9 10/10/10 8/8/8
f 13/13/13 12/12/12 11/11/11
f 14/14/14 13/13/13 11/11/11
f 17/17/17 16/16/16 15/15/15
f 17/17/17 18/18/18 16/16/16
f 18/18/18 19/19/19 16/16/16
f 18/18/18 20/20/20 19/19/19
f 23/23/23 22/22/22 21/21/21
f 24/24/24 23/23/23 21/21/21
f 27/27/27 26/26/26 25/25/25
f 28/28/28 27/27/27 25/25/25
f 31/31/31 30/30/30 29/29/29
f 32/32/32 31/31/31 29/29/29
f 35/35/35 34/34/34 33/33/33
f 36/36/36 35/35/35 33/33/33
f 39/39/39 38/38/38 37/37/37
f 40/40/40 39/39/39 37/37/37
f 43/43/43 42/42/42 41/41/41
f 44/44/44 43/43/43 41/41/41
f 47/47/47 46/46/46 45/45/45
f 48/48/48 47/47/47 45/45/45
f 51/51/51 50/50/50 49/49/49
f 52/52/52 51/51/51 49/49/49
f 55/55/55 54/54/54 53/53/53
f 53/53/53 56/56/56 55/55/55
f 53/53/53 57/57/57 56/56/56
f 60/60/60 59/59/59 58/58/58
f 58/58/58 61/61/61 60/60/60
f 58/58/58 62/62/62 61/61/61
f 65/65/65 64/64/64 63/63/63
f 64/64/64 66/66/66 63/63/63
f 64/64/64 67/67/67 66/66/66
f 63/63/63 66/66/66 68/68/68
f 67/67/67 69/69/69 66/66/66
f 66/66/66 70/70/70 68/68/68
f 66/66/66 69/69/69 70/70/70
f 68/68/68 70/70/70 71/71/71
f 69/69/69 72/72/72 70/70/70
f 70/70/70 73/73/73 71/71/71
f 70/70/70 72/72/72 73/73/73
f 72/72/72 74/74/74 73/73/73
f 77/77/77 76/76/76 75/75/75
f 78/78/78 77/77/77 75/75/75
f 78/78/78 75/75/75 79/79/79
f 80/80/80 77/77/77 78/78/78
f 81/81/81 78/78/78 79/79/79
f 82/82/82 80/80/80 78/78/78
f 82/82/82 78/78/78 81/81/81
f 83/83/83 80/80/80 82/82/82
f 84/84/84 82/82/82 81/81/81
f 85/85/85 83/83/83 82/82/82
f 85/85/85 82/82/82 84/84/84
f 86/86/86 85/85/85 84/84/84
f 89/89/89 88/88/88 87/87/87
f 90/90/90 89/89/89 87/87/87
f 93/93/93 92/92/92 91/91/91
f 94/94/94 93/93/93 91/91/91
f 97/97/97 96/96/96 95/95/95
f 98/98/98 97/97/97 95/95/95
f 101/101/101 100/100/100 99/99/99
f 102/102/102 101/101/101 99/99/99
f 105/105/105 104/104/104 103/103/103
f 106/106/106 105/105/105 103/103/103
f 109/109/109 108/108/108 107/107/107
f 110/110/110 109/109/109 107/107/107
f 113/113/113 112/112/112 111/111/111
f 111/111/111 114/114/114 113/113/113
f 111/111/111 115/115/115 114/114/114
f 118/118/118 117/117/117 116/116/116
f 116/116/116 119/119/119 118/118/118
f 116/116/116 120/120/120 119/119/119
f 123/123/123 122/122/122 121/121/121
f 122/122/122 124/124/124 121/121/121
f 122/122/122 125/125/125 124/124/124
f 121/121/121 124/124/124 126/126/126
f 125/125/125 127/127/127 124/124/124
f 124/124/124 128/128/128 126/126/126
f 124/124/124 127/127/127 128/128/128
f 126/126/126 128/128/128 129/129/129
f 127/127/127 130/130/130 128/128/128
f 128/128/128 131/131/131 129/129/129
f 128/128/128 130/130/130 131/131/131
f 130/130/130 132/132/132 131/131/131
f 135/135/135 134/134/134 133/133/133
f 136/136/136 135/135/135 133/133/133
f 136/136/136 133/133/133 137/137/137
f 138/138/138 135/135/135 136/136/136
f 139/139/139 136/136/136 137/137/137
f 140/140/140 138/138/138 136/136/136
f 140/140/140 136/136/136 139/139/139
f 141/141/141 138/138/138 140/140/140
f 142/142/142 140/140/140 139/139/139
f 143/143/143 141/141/141 140/140/140
f 143/143/143 140/140/140 142/142/142
f 144/144/144 143/143/143 142/142/142
f 147/147/147 146/146/146 145/145/145
f 148/148/148 147/147/147 145/145/145
f 151/151/151 150/150/150 149/149/149
f 152/152/152 151/151/151 149/149/149
f 155/155/155 154/154/154 153/153/153
f 156/156/156 155/155/155 153/153/153
f 159/159/159 158/158/158 157/157/157
f 160/160/160 159/159/159 157/157/157
f 163/163/163 162/162/162 161/161/161
f 164/164/164 163/163/163 161/161/161
f 167/167/167 166/166/166 165/165/165
f 168/168/168 167/167/167 165/165/165
