g WallCorner
v -0.1875 0.0499949977 0.1875
v -0.15820159 0 0.179817811
v -0.1875 -0.0499949977 0.1875
v 0.1875 -0.0499949977 -0.1875
v 0.179817811 0 -0.158201292
v 0.1875 0.0499949977 -0.1875
v 0.40669769 -0.5 -0.0983792096
v 0.317576885 -0.5 -0.1875
v 0.1875 -0.5 -0.1875
v -0.1875 -0.5 0.1875
v 0.40669769 -0.5 0.317576885
v -0.1875 -0.5 0.317576885
v 0.317576885 -0.5 0.40669769
v -0.0983792096 -0.5 0.40669769
v -0.1875 -0.5 -0.1875
v -0.5 -0.5 -0.1875
v -0.5 -0.5 0.1875
v -0.1875 -0.5 -0.5
v 0.1875 -0.5 -0.5
v 0.40669769 0.5 0.317576885
v 0.317576885 0.5 0.40669769
v -0.0983792096 0.5 0.40669769
v -0.1875 0.5 0.317576885
v -0.1875 0.5 0.1875
v 0.40669769 0.5 -0.0983792096
v 0.317576885 0.5 -0.1875
v 0.1875 0.5 -0.1875
v -0.1875 0.5 -0.1875
v 0.1875 0.5 -0.5
v -0.1875 0.5 -0.5
v -0.5 0.5 0.1875
v -0.5 0.5 -0.1875
v 0.186491996 -0.0249974988 -0.183655396
v 0.297066957 0 -0.158201292
v 0.179817811 0 -0.158201292
v 0.314885557 -0.0249974988 -0.183655396
v 0.1875 -0.0499949977 -0.1875
v 0.377399296 0 -0.0778692588
v 0.317576885 -0.0499949977 -0.1875
v 0.402853072 -0.0249974988 -0.0956878662
v 0.377399296 0 0.297067255
v 0.40669769 -0.0499949977 -0.0983792096
v 0.402853072 -0.0249974988 0.314885557
v 0.40669769 -0.0499949977 0.317576885
v 0.186491996 0.0249974988 -0.183655396
v 0.317576885 0.0499949977 -0.1875
v 0.1875 0.0499949977 -0.1875
v 0.314885557 0.0249974988 -0.183655396
v 0.179817811 0 -0.158201292
v 0.40669769 0.0499949977 -0.0983792096
v 0.297066957 0 -0.158201292
v 0.402853072 0.0249974988 -0.0956878662
v 0.40669769 0.0499949977 0.317576885
v 0.377399296 0 -0.0778692588
v 0.402853072 0.0249974988 0.314885557
v 0.377399296 0 0.297067255
v 0.317576885 -0.0499949977 0.40669769
v 0.317576885 -0.5 0.40669769
v -0.0983792096 -0.5 0.40669769
v -0.0983792096 -0.0499949977 0.40669769
v 0.1875 -0.5 -0.1875
v 0.317576885 -0.5 -0.1875
v 0.317576885 -0.0499949977 -0.1875
v 0.1875 -0.0499949977 -0.1875
v 0.40669769 -0.0499949977 -0.0983792096
v 0.40669769 -0.5 -0.0983792096
v 0.40669769 -0.5 0.317576885
v 0.40669769 -0.0499949977 0.317576885
v -0.1875 -0.0499949977 0.317576885
v -0.1875 -0.5 0.317576885
v -0.1875 -0.5 0.1875
v -0.1875 -0.0499949977 0.1875
v -0.1875 -0.5 0.317576885
v -0.1875 -0.0499949977 0.317576885
v -0.0983792096 -0.0499949977 0.40669769
v -0.0983792096 -0.5 0.40669769
v 0.317576885 -0.5 0.40669769
v 0.317576885 -0.0499949977 0.40669769
v 0.40669769 -0.0499949977 0.317576885
v 0.40669769 -0.5 0.317576885
v 0.317576885 -0.0499949977 -0.1875
v 0.317576885 -0.5 -0.1875
v 0.40669769 -0.5 -0.0983792096
v 0.40669769 -0.0499949977 -0.0983792096
v 0.317576885 0.0499949977 -0.1875
v 0.317576885 0.5 -0.1875
v 0.1875 0.5 -0.1875
v 0.1875 0.0499949977 -0.1875
v 0.317576885 0.5 -0.1875
v 0.317576885 0.0499949977 -0.1875
v 0.40669769 0.0499949977 -0.0983792096
v 0.40669769 0.5 -0.0983792096
v 0.40669769 0.5 0.317576885
v 0.40669769 0.5 -0.0983792096
v 0.40669769 0.0499949977 -0.0983792096
v 0.40669769 0.0499949977 0.317576885
v 0.317576885 0.0499949977 0.40669769
v 0.317576885 0.5 0.40669769
v 0.40669769 0.5 0.317576885
v 0.40669769 0.0499949977 0.317576885
v -0.0983792096 0.5 0.40669769
v 0.317576885 0.5 0.40669769
v 0.317576885 0.0499949977 0.40669769
v -0.0983792096 0.0499949977 0.40669769
v -0.1875 0.0499949977 0.317576885
v -0.1875 0.5 0.317576885
v -0.0983792096 0.5 0.40669769
v -0.0983792096 0.0499949977 0.40669769
v -0.1875 0.5 0.1875
v -0.1875 0.5 0.317576885
v -0.1875 0.0499949977 0.317576885
v -0.1875 0.0499949977 0.1875
v 0.402853072 0.0249974988 0.314885557
v 0.317576885 0.0499949977 0.40669769
v 0.40669769 0.0499949977 0.317576885
v 0.314885557 0.0249974988 0.402853072
v 0.377399296 0 0.297067255
v -0.0983792096 0.0499949977 0.40669769
v 0.297066957 0 0.377398968
v -0.0956878662 0.0249974988 0.402853072
v -0.1875 0.0499949977 0.317576885
v -0.0778692588 0 0.377398968
v -0.183655396 0.0249974988 0.314885557
v -0.1875 0.0499949977 0.1875
v -0.15820159 0 0.297067255
v -0.183655396 0.0249974988 0.186491996
v -0.15820159 0 0.179817811
v 0.402853072 -0.0249974988 0.314885557
v 0.297066957 0 0.377398968
v 0.377399296 0 0.297067255
v 0.314885557 -0.0249974988 0.402853072
v 0.40669769 -0.0499949977 0.317576885
v -0.0778692588 0 0.377398968
v 0.317576885 -0.0499949977 0.40669769
v -0.0956878662 -0.0249974988 0.402853072
v -0.15820159 0 0.297067255
v -0.0983792096 -0.0499949977 0.40669769
v -0.183655396 -0.0249974988 0.314885557
v -0.15820159 0 0.179817811
v -0.1875 -0.0499949977 0.317576885
v -0.183655396 -0.0249974988 0.186491996
v -0.1875 -0.0499949977 0.1875
v -0.1875 0.5 -0.5
v -0.1875 0.5 -0.1875
v -0.1875 -0.5 -0.1875
v -0.1875 -0.5 -0.5
v -0.1875 -0.5 -0.5
v 0.1875 -0.5 -0.5
v 0.1875 0.5 -0.5
v -0.1875 0.5 -0.5
v -0.5 0.5 0.1875
v -0.1875 0.5 0.1875
v -0.1875 0.0499949977 0.1875
v -0.5 -0.5 0.1875
v -0.1875 -0.0499949977 0.1875
v -0.1875 -0.5 0.1875
v -0.5 0.5 -0.1875
v -0.5 -0.5 -0.1875
v -0.1875 -0.5 -0.1875
v -0.1875 0.5 -0.1875
v -0.5 -0.5 -0.1875
v -0.5 0.5 -0.1875
v -0.5 0.5 0.1875
v -0.5 -0.5 0.1875
v 0.1875 0.0499949977 -0.1875
v 0.1875 0.5 -0.1875
v 0.1875 0.5 -0.5
v 0.1875 -0.5 -0.5
v 0.1875 -0.0499949977 -0.1875
v 0.1875 -0.5 -0.1875
v -0.1875 -0.5 -0.1875
v -0.1875 -0.5 -0.369280398
v -0.27839905 -0.5 -0.369280398
v -0.36928007 -0.5 -0.278399348
v -0.36928007 -0.5 -0.1875
v -0.36928007 0.5 -0.278399348
v -0.27839905 0.5 -0.369280398
v -0.1875 0.5 -0.369280398
v -0.1875 0.5 -0.1875
v -0.36928007 0.5 -0.1875
v -0.36928007 -0.0499949977 -0.278399348
v -0.363913864 -0.0249974988 -0.1875
v -0.36928007 -0.0499949977 -0.1875
v -0.363913864 -0.0249974988 -0.275715947
v -0.326536864 0 -0.1875
v -0.27839905 -0.0499949977 -0.369280398
v -0.326536864 0 -0.257025748
v -0.275715947 -0.0249974988 -0.363914162
v -0.1875 -0.0499949977 -0.369280398
v -0.25702545 0 -0.326536864
v -0.1875 -0.0249974988 -0.363914162
v -0.1875 0 -0.326536864
v -0.363913864 0.0249974988 -0.1875
v -0.326536864 0 -0.1875
v -0.326536864 0 -0.257025748
v -0.363913864 0.0249974988 -0.275715947
v -0.36928007 0.0499949977 -0.1875
v -0.25702545 0 -0.326536864
v -0.36928007 0.0499949977 -0.278399348
v -0.275715947 0.0249974988 -0.363914162
v -0.1875 0 -0.326536864
v -0.27839905 0.0499949977 -0.369280398
v -0.1875 0.0249974988 -0.363914162
v -0.1875 0.0499949977 -0.369280398
v -0.36928007 0.5 -0.278399348
v -0.36928007 0.5 -0.1875
v -0.36928007 0.0499949977 -0.1875
v -0.36928007 0.0499949977 -0.278399348
v -0.1875 0.0499949977 -0.369280398
v -0.1875 0.5 -0.369280398
v -0.27839905 0.5 -0.369280398
v -0.27839905 0.0499949977 -0.369280398
v -0.27839905 0.0499949977 -0.369280398
v -0.27839905 0.5 -0.369280398
v -0.36928007 0.5 -0.278399348
v -0.36928007 0.0499949977 -0.278399348
v -0.1875 -0.5 -0.369280398
v -0.1875 -0.0499949977 -0.369280398
v -0.27839905 -0.0499949977 -0.369280398
v -0.27839905 -0.5 -0.369280398
v -0.27839905 -0.5 -0.369280398
v -0.27839905 -0.0499949977 -0.369280398
v -0.36928007 -0.0499949977 -0.278399348
v -0.36928007 -0.5 -0.278399348
v -0.36928007 -0.0499949977 -0.1875
v -0.36928007 -0.5 -0.1875
v -0.36928007 -0.5 -0.278399348
v -0.36928007 -0.0499949977 -0.278399348
vt 0.84589982 0.0517664738
vt 0.846117854 0.0522026233
vt 0.846335948 0.0517664738
vt 0.84589982 0.0517664738
vt 0.846117854 0.0522026233
vt 0.846335948 0.0517664738
vt 0.416211635 0.6610865
vt 0.380892724 0.697153926
vt 0.32934311 0.697153926
vt 0.179971606 0.547792792
vt 0.416211635 0.496242225
vt 0.180729806 0.496242225
vt 0.380892724 0.460923314
vt 0.216048568 0.460923314
vt 0.179971606 0.697493017
vt 0.0540789925 0.697493017
vt 0.0540789925 0.547792792
vt 0.179971606 0.820249677
vt 0.32934311 0.820249677
vt 0.416211635 0.496242225
vt 0.380892724 0.460923314
vt 0.216048568 0.460923314
vt 0.180729806 0.496242225
vt 0.179971606 0.547792792
vt 0.416211635 0.6610865
vt 0.380892724 0.697153926
vt 0.32934311 0.697153926
vt 0.179971606 0.697493017
vt 0.32934311 0.820249677
vt 0.179971606 0.820249677
vt 0.0540789925 0.547792792
vt 0.0540789925 0.697493017
vt 0.162501216 0.212444812
vt 0.213512003 0.229986072
vt 0.16024211 0.229986072
vt 0.215454787 0.212444812
vt 0.159205914 0.201152593
vt 0.271584302 0.229986072
vt 0.213336408 0.201152593
vt 0.267204076 0.212444812
vt 0.434571296 0.229986072
vt 0.265824914 0.201152593
vt 0.438929349 0.212444812
vt 0.438515455 0.201152593
vt 0.162498325 0.249483064
vt 0.213329643 0.260116816
vt 0.159205943 0.260116816
vt 0.215449154 0.249483064
vt 0.16024211 0.229986072
vt 0.265922397 0.260116816
vt 0.213512003 0.229986072
vt 0.267169267 0.249483064
vt 0.438514918 0.260116816
vt 0.271584302 0.229986072
vt 0.438897014 0.249483064
vt 0.434571296 0.229986072
vt 0.438515455 0.201152712
vt 0.438515455 0.00976702757
vt 0.265096426 0.00976702757
vt 0.265522182 0.201152712
vt 0.159206301 0.00976690836
vt 0.21327883 0.00976690836
vt 0.213336408 0.201152593
vt 0.159205914 0.201152593
vt 0.265824914 0.201152593
vt 0.265584379 0.00976690836
vt 0.438515455 0.00976690836
vt 0.438515455 0.201152593
vt 0.213302046 0.201152712
vt 0.213217333 0.00976702757
vt 0.159206644 0.00976702757
vt 0.159206107 0.201152712
vt 0.213217333 0.00976702757
vt 0.213302046 0.201152712
vt 0.265522182 0.201152712
vt 0.265096426 0.00976702757
vt 0.438515455 0.00976702757
vt 0.438515455 0.201152712
vt 0.489505529 0.201152712
vt 0.489878893 0.00976702757
vt 0.213336408 0.201152593
vt 0.21327883 0.00976690836
vt 0.265584379 0.00976690836
vt 0.265824914 0.201152593
vt 0.213329643 0.260116816
vt 0.21325326 0.453328282
vt 0.159206301 0.453328282
vt 0.159205943 0.260116816
vt 0.21325326 0.453328282
vt 0.213329643 0.260116816
vt 0.265922397 0.260116816
vt 0.265939325 0.453328282
vt 0.438515186 0.453328401
vt 0.265939325 0.453328282
vt 0.265922397 0.260116816
vt 0.438514918 0.260116816
vt 0.438515157 0.260116965
vt 0.438515186 0.453328401
vt 0.491142273 0.45332852
vt 0.489959359 0.260116965
vt 0.265941888 0.453328401
vt 0.438515186 0.453328401
vt 0.438515157 0.260116965
vt 0.26592952 0.260116965
vt 0.213309035 0.260116965
vt 0.21324943 0.453328401
vt 0.265941888 0.453328401
vt 0.26592952 0.260116965
vt 0.159206644 0.45332852
vt 0.21324943 0.453328401
vt 0.213309035 0.260116965
vt 0.159206077 0.260116965
vt 0.49031949 0.249483183
vt 0.438515157 0.260116965
vt 0.489959359 0.260116965
vt 0.438815951 0.249483183
vt 0.494499803 0.229986191
vt 0.26592952 0.260116965
vt 0.434365839 0.229986191
vt 0.267089516 0.249483183
vt 0.213309035 0.260116965
vt 0.271740049 0.229986191
vt 0.215432331 0.249483183
vt 0.159206077 0.260116965
vt 0.213544667 0.229986191
vt 0.162486434 0.249483183
vt 0.160270676 0.229986191
vt 0.489890575 0.212444931
vt 0.434365839 0.229986191
vt 0.494499803 0.229986191
vt 0.438782901 0.212444931
vt 0.489505529 0.201152712
vt 0.271740049 0.229986191
vt 0.438515455 0.201152712
vt 0.267054409 0.212444931
vt 0.213544667 0.229986191
vt 0.265522182 0.201152712
vt 0.215426594 0.212444931
vt 0.160270676 0.229986191
vt 0.213302046 0.201152712
vt 0.162483484 0.212444931
vt 0.159206107 0.201152712
vt 0.847096264 0.0479301959
vt 0.846579194 0.0479301959
vt 0.846579194 0.0495855436
vt 0.847096264 0.0495855436
vt 0.843147099 0.0466525964
vt 0.845258355 0.0466525964
vt 0.845258355 0.0527266599
vt 0.843147099 0.0527266599
vt 0.84891206 0.0513057783
vt 0.850051403 0.0513057783
vt 0.850051403 0.0505863577
vt 0.84891206 0.0496485196
vt 0.850051403 0.0503439121
vt 0.850051403 0.0496485196
vt 0.847096264 0.0479301959
vt 0.847096264 0.0495855436
vt 0.846579194 0.0495855436
vt 0.846579194 0.0479301959
vt 0.843147099 0.0466525964
vt 0.843147099 0.0527266599
vt 0.845258355 0.0527266599
vt 0.845258355 0.0466525964
vt 0.850051403 0.0505688824
vt 0.850051403 0.0513057783
vt 0.84891206 0.0513057783
vt 0.84891206 0.0496485196
vt 0.850051403 0.0504335612
vt 0.850051403 0.0496485196
vt 0.0792411119 0.535450995
vt 0.0234088134 0.480704367
vt 0.0493350439 0.45332846
vt 0.106611624 0.45332846
vt 0.13398774 0.480704457
vt 0.106611624 0.45332846
vt 0.0493350439 0.45332846
vt 0.0234088134 0.480704367
vt 0.0792413503 0.535450995
vt 0.13398774 0.480704457
vt 0.10770528 0.201152712
vt 0.139871195 0.212444901
vt 0.146448389 0.201152712
vt 0.104355142 0.212444901
vt 0.136835054 0.22998625
vt 0.0493350439 0.201152712
vt 0.103223726 0.22998625
vt 0.0527006201 0.212444901
vt 0.010816915 0.201152712
vt 0.0537489466 0.22998625
vt 0.0171206426 0.212444901
vt 0.0201243591 0.22998625
vt 0.139871195 0.249483168
vt 0.136835054 0.22998625
vt 0.103223726 0.22998625
vt 0.104299709 0.249483168
vt 0.146448389 0.260116965
vt 0.0537489466 0.22998625
vt 0.10770528 0.260116965
vt 0.0526420288 0.249483168
vt 0.0201243591 0.22998625
vt 0.0493350439 0.260116965
vt 0.0171206426 0.249483168
vt 0.010816915 0.260116965
vt 0.10770528 0.45332849
vt 0.146448389 0.45332849
vt 0.146448389 0.260116965
vt 0.10770528 0.260116965
vt 0.010816915 0.260116965
vt 0.010816915 0.45332849
vt 0.0493350439 0.45332849
vt 0.0493350439 0.260116965
vt 0.0493350439 0.260116965
vt 0.0493350439 0.45332849
vt 0.10770528 0.45332849
vt 0.10770528 0.260116965
vt 0.010816915 0.00976708159
vt 0.010816915 0.201152712
vt 0.0493350439 0.201152712
vt 0.0493350439 0.00976708159
vt 0.0493350439 0.00976708159
vt 0.0493350439 0.201152712
vt 0.10770528 0.201152712
vt 0.10770528 0.00976708159
vt 0.146448389 0.201152712
vt 0.146448389 0.00976708159
vt 0.10770528 0.00976708159
vt 0.10770528 0.201152712
vn 0.000436636212 0 0.999999881
vn 0.25362289 0 0.967303157
vn 0.000436636212 0 0.999999881
vn 0.999999881 0 0.00043665478
vn 0.967300832 0 0.253631711
vn 0.999999881 0 0.00043665478
vn -0 -1 0
vn -0 -1 0
vn -0 -1 0
vn -0 -1 0
vn -0 -1 0
vn -0 -1 0
vn -0 -1 0
vn -0 -1 0
vn -0 -1 0
vn -0 -1 0
vn -0 -1 0
vn -0 -1 0
vn -0 -1 0
vn -0 1 0
vn -0 1 0
vn -0 1 0
vn -0 1 0
vn -0 1 0
vn -0 1 0
vn -0 1 0
vn -0 1 0
vn -0 1 0
vn -0 1 0
vn -0 1 0
vn -0 1 0
vn -0 1 0
vn -0 0.517403841 -0.855741441
vn 0.219411075 0.768470347 -0.601092458
vn -0 0.713476956 -0.700678706
vn 0.332943022 0.529802978 -0.780037045
vn -0 0.152012393 -0.988378584
vn 0.660376549 0.744162202 -0.100625053
vn 0.379729092 0.180433288 -0.90733099
vn 0.856534421 0.490074217 -0.161789879
vn 0.660377264 0.744161427 0.100626037
vn 0.969510913 0.168290898 -0.178119928
vn 0.856534958 0.490073353 0.161789477
vn 0.969511032 0.168290794 0.178119779
vn -0 -0.517403841 -0.855741441
vn 0.379728198 -0.180437312 -0.907330573
vn -0 -0.152012393 -0.988378584
vn 0.332942337 -0.529804528 -0.780036211
vn -0 -0.713476956 -0.700678706
vn 0.969510734 -0.168292776 -0.178119466
vn 0.219411075 -0.768470347 -0.601092458
vn 0.856534123 -0.490075082 -0.161789596
vn 0.969510734 -0.168292686 0.178119481
vn 0.660376549 -0.744162202 -0.100625053
vn 0.8565346 -0.490074217 0.161789313
vn 0.660377264 -0.744161427 0.100626037
vn -0 0 1
vn -0 0 1
vn -0 0 1
vn -0 0 1
vn -0 0 -1
vn -0 0 -1
vn -0 0 -1
vn -0 0 -1
vn 1 0 0
vn 1 0 0
vn 1 0 0
vn 1 0 0
vn -1 0 0
vn -1 0 0
vn -1 0 0
vn -1 0 0
vn -0.70710659 0 0.707106888
vn -0.70710659 0 0.707106888
vn -0.70710659 0 0.707106888
vn -0.70710659 0 0.707106888
vn 0.70710659 0 0.707106888
vn 0.70710659 0 0.707106888
vn 0.70710659 0 0.707106888
vn 0.70710659 0 0.707106888
vn 0.70710659 0 -0.707106888
vn 0.70710659 0 -0.707106888
vn 0.70710659 0 -0.707106888
vn 0.70710659 0 -0.707106888
vn -0 0 -1
vn -0 0 -1
vn -0 0 -1
vn -0 0 -1
vn 0.70710659 0 -0.707106888
vn 0.70710659 0 -0.707106888
vn 0.70710659 0 -0.707106888
vn 0.70710659 0 -0.707106888
vn 1 0 0
vn 1 0 0
vn 1 0 0
vn 1 0 0
vn 0.70710659 0 0.707106888
vn 0.70710659 0 0.707106888
vn 0.70710659 0 0.707106888
vn 0.70710659 0 0.707106888
vn -0 0 1
vn -0 0 1
vn -0 0 1
vn -0 0 1
vn -0.70710659 0 0.707106888
vn -0.70710659 0 0.707106888
vn -0.70710659 0 0.707106888
vn -0.70710659 0 0.707106888
vn -1 0 0
vn -1 0 0
vn -1 0 0
vn -1 0 0
vn 0.8565346 -0.490074217 0.161789313
vn 0.178119779 -0.168290749 0.969511032
vn 0.969510734 -0.168292686 0.178119481
vn 0.161789209 -0.490074217 0.8565346
vn 0.660377264 -0.744161427 0.100626037
vn -0.178120017 -0.168286934 0.969511628
vn 0.100624725 -0.74416256 0.660376251
vn -0.161789328 -0.490074098 0.856534719
vn -0.907331407 -0.180431575 0.379729301
vn -0.100624584 -0.744163573 0.660375059
vn -0.780037284 -0.529802322 0.332943588
vn -0.988377869 -0.152017057 0
vn -0.601092279 -0.76846987 0.219412893
vn -0.85574168 -0.517403245 0
vn -0.700680792 -0.713474929 0
vn 0.856534958 0.490073353 0.161789477
vn 0.100624725 0.74416256 0.660376251
vn 0.660377264 0.744161427 0.100626037
vn 0.161789417 0.490073383 0.856535077
vn 0.969511032 0.168290794 0.178119779
vn -0.100624584 0.744163573 0.660375059
vn 0.178120062 0.168288857 0.969511271
vn -0.161789328 0.490074098 0.856534719
vn -0.601092279 0.76846987 0.219412893
vn -0.178120062 0.168286934 0.969511628
vn -0.780037284 0.529802263 0.332943559
vn -0.700680792 0.713474929 0
vn -0.907331288 0.18043156 0.379729301
vn -0.85574168 0.517403245 0
vn -0.988377869 0.152017057 0
vn -1 0 0
vn -1 0 0
vn -1 0 0
vn -1 0 0
vn -0 0 -1
vn -0 0 -1
vn -0 0 -1
vn -0 0 -1
vn -0 0 1
vn -0 0 1
vn 0.000436636212 0 0.999999881
vn -0 0 1
vn 0.000436636212 0 0.999999881
vn -0 0 1
vn -0 0 -1
vn -0 0 -1
vn -0 0 -1
vn -0 0 -1
vn -1 0 0
vn -1 0 0
vn -1 0 0
vn -1 0 0
vn 0.999999881 0 0.00043665478
vn 1 0 0
vn 1 0 0
vn 1 0 0
vn 0.999999881 0 0.00043665478
vn 1 0 0
vn -0 -1 0
vn -0 -1 0
vn -0 -1 0
vn -0 -1 0
vn -0 -1 0
vn -0 1 0
vn -0 1 0
vn -0 1 0
vn -0 1 0
vn -0 1 0
vn -0.867939174 0.233381554 -0.438422829
vn -0.775420666 0.631444931 0
vn -0.977725029 0.209889859 0
vn -0.692800641 0.62991935 -0.351039678
vn -0.5559237 0.831233323 0
vn -0.438423425 0.233381152 -0.867938995
vn -0.462036848 0.858165681 -0.223771662
vn -0.351042539 0.629919887 -0.692798734
vn -0 0.209888369 -0.977725387
vn -0.223771304 0.858166456 -0.462035328
vn -0 0.631446779 -0.775419235
vn -0 0.831235468 -0.555920541
vn -0.775420308 -0.631445467 0
vn -0.555923164 -0.831233621 0
vn -0.46203652 -0.858165741 -0.223771498
vn -0.692799985 -0.629920244 -0.35103935
vn -0.977724791 -0.209890783 0
vn -0.223771244 -0.858166456 -0.462035328
vn -0.867938817 -0.233383507 -0.438422561
vn -0.351042211 -0.629920542 -0.692798257
vn -0 -0.831235468 -0.555920541
vn -0.438423097 -0.233382657 -0.867938757
vn -0 -0.631446779 -0.775419235
vn -0 -0.209888339 -0.977725387
vn -1 0 0
vn -1 0 0
vn -1 0 0
vn -1 0 0
vn -0 0 -1
vn -0 0 -1
vn -0 0 -1
vn -0 0 -1
vn -0.707106352 0 -0.707107127
vn -0.707106352 0 -0.707107127
vn -0.707106352 0 -0.707107127
vn -0.707106352 0 -0.707107127
vn -0 0 -1
vn -0 0 -1
vn -0 0 -1
vn -0 0 -1
vn -0.707106352 0 -0.707107127
vn -0.707106352 0 -0.707107127
vn -0.707106352 0 -0.707107127
vn -0.707106352 0 -0.707107127
vn -1 0 0
vn -1 0 0
vn -1 0 0
vn -1 0 0
g WallCorner_0
f 3/3/3 2/2/2 1/1/1
f 6/6/6 5/5/5 4/4/4
f 9/9/9 8/8/8 7/7/7
f 7/7/7 10/10/10 9/9/9
f 7/7/7 11/11/11 10/10/10
f 11/11/11 12/12/12 10/10/10
f 11/11/11 13/13/13 12/12/12
f 13/13/13 14/14/14 12/12/12
f 15/15/15 9/9/9 10/10/10
f 15/15/15 10/10/10 16/16/16
f 10/10/10 17/17/17 16/16/16
f 9/9/9 15/15/15 18/18/18
f 19/19/19 9/9/9 18/18/18
f 22/22/22 21/21/21 20/20/20
f 23/23/23 22/22/22 20/20/20
f 24/24/24 23/23/23 20/20/20
f 24/24/24 20/20/20 25/25/25
f 24/24/24 25/25/25 26/26/26
f 26/26/26 27/27/27 24/24/24
f 24/24/24 27/27/27 28/28/28
f 28/28/28 27/27/27 29/29/29
f 30/30/30 28/28/28 29/29/29
f 24/24/24 28/28/28 31/31/31
f 28/28/28 32/32/32 31/31/31
f 35/35/35 34/34/34 33/33/33
f 34/34/34 36/36/36 33/33/33
f 33/33/33 36/36/36 37/37/37
f 34/34/34 38/38/38 36/36/36
f 36/36/36 39/39/39 37/37/37
f 38/38/38 40/40/40 36/36/36
f 36/36/36 40/40/40 39/39/39
f 38/38/38 41/41/41 40/40/40
f 40/40/40 42/42/42 39/39/39
f 41/41/41 43/43/43 40/40/40
f 40/40/40 43/43/43 42/42/42
f 43/43/43 44/44/44 42/42/42
f 47/47/47 46/46/46 45/45/45
f 46/46/46 48/48/48 45/45/45
f 45/45/45 48/48/48 49/49/49
f 46/46/46 50/50/50 48/48/48
f 48/48/48 51/51/51 49/49/49
f 50/50/50 52/52/52 48/48/48
f 48/48/48 52/52/52 51/51/51
f 50/50/50 53/53/53 52/52/52
f 52/52/52 54/54/54 51/51/51
f 53/53/53 55/55/55 52/52/52
f 52/52/52 55/55/55 54/54/54
f 55/55/55 56/56/56 54/54/54
f 59/59/59 58/58/58 57/57/57
f 60/60/60 59/59/59 57/57/57
f 63/63/63 62/62/62 61/61/61
f 64/64/64 63/63/63 61/61/61
f 67/67/67 66/66/66 65/65/65
f 68/68/68 67/67/67 65/65/65
f 71/71/71 70/70/70 69/69/69
f 72/72/72 71/71/71 69/69/69
f 75/75/75 74/74/74 73/73/73
f 76/76/76 75/75/75 73/73/73
f 79/79/79 78/78/78 77/77/77
f 80/80/80 79/79/79 77/77/77
f 83/83/83 82/82/82 81/81/81
f 84/84/84 83/83/83 81/81/81
f 87/87/87 86/86/86 85/85/85
f 88/88/88 87/87/87 85/85/85
f 91/91/91 90/90/90 89/89/89
f 92/92/92 91/91/91 89/89/89
f 95/95/95 94/94/94 93/93/93
f 96/96/96 95/95/95 93/93/93
f 99/99/99 98/98/98 97/97/97
f 100/100/100 99/99/99 97/97/97
f 103/103/103 102/102/102 101/101/101
f 104/104/104 103/103/103 101/101/101
f 107/107/107 106/106/106 105/105/105
f 108/108/108 107/107/107 105/105/105
f 111/111/111 110/110/110 109/109/109
f 112/112/112 111/111/111 109/109/109
f 115/115/115 114/114/114 113/113/113
f 114/114/114 116/116/116 113/113/113
f 113/113/113 116/116/116 117/117/117
f 114/114/114 118/118/118 116/116/116
f 116/116/116 119/119/119 117/117/117
f 118/118/118 120/120/120 116/116/116
f 116/116/116 120/120/120 119/119/119
f 118/118/118 121/121/121 120/120/120
f 120/120/120 122/122/122 119/119/119
f 121/121/121 123/123/123 120/120/120
f 120/120/120 123/123/123 122/122/122
f 121/121/121 124/124/124 123/123/123
f 123/123/123 125/125/125 122/122/122
f 124/124/124 126/126/126 123/123/123
f 123/123/123 126/126/126 125/125/125
f 126/126/126 127/127/127 125/125/125
f 130/130/130 129/129/129 128/128/128
f 129/129/129 131/131/131 128/128/128
f 128/128/128 131/131/131 132/132/132
f 129/129/129 133/133/133 131/131/131
f 131/131/131 134/134/134 132/132/132
f 133/133/133 135/135/135 131/131/131
f 131/131/131 135/135/135 134/134/134
f 133/133/133 136/136/136 135/135/135
f 135/135/135 137/137/137 134/134/134
f 136/136/136 138/138/138 135/135/135
f 135/135/135 138/138/138 137/137/137
f 136/136/136 139/139/139 138/138/138
f 138/138/138 140/140/140 137/137/137
f 139/139/139 141/141/141 138/138/138
f 138/138/138 141/141/141 140/140/140
f 141/141/141 142/142/142 140/140/140
f 145/145/145 144/144/144 143/143/143
f 146/146/146 145/145/145 143/143/143
f 149/149/149 148/148/148 147/147/147
f 150/150/150 149/149/149 147/147/147
f 153/153/153 152/152/152 151/151/151
f 153/153/153 151/151/151 154/154/154
f 155/155/155 153/153/153 154/154/154
f 156/156/156 155/155/155 154/154/154
f 159/159/159 158/158/158 157/157/157
f 160/160/160 159/159/159 157/157/157
f 163/163/163 162/162/162 161/161/161
f 164/164/164 163/163/163 161/161/161
f 167/167/167 166/166/166 165/165/165
f 167/167/167 165/165/165 168/168/168
f 165/165/165 169/169/169 168/168/168
f 169/169/169 170/170/170 168/168/168
f 173/173/173 172/172/172 171/171/171
f 171/171/171 174/174/174 173/173/173
f 171/171/171 175/175/175 174/174/174
f 178/178/178 177/177/177 176/176/176
f 176/176/176 179/179/179 178/178/178
f 176/176/176 180/180/180 179/179/179
f 183/183/183 182/182/182 181/181/181
f 182/182/182 184/184/184 181/181/181
f 182/182/182 185/185/185 184/184/184
f 181/181/181 184/184/184 186/186/186
f 185/185/185 187/187/187 184/184/184
f 184/184/184 188/188/188 186/186/186
f 184/184/184 187/187/187 188/188/188
f 186/186/186 188/188/188 189/189/189
f 187/187/187 190/190/190 188/188/188
f 188/188/188 191/191/191 189/189/189
f 188/188/188 190/190/190 191/191/191
f 190/190/190 192/192/192 191/191/191
f 195/195/195 194/194/194 193/193/193
f 196/196/196 195/195/195 193/193/193
f 196/196/196 193/193/193 197/197/197
f 198/198/198 195/195/195 196/196/196
f 199/199/199 196/196/196 197/197/197
f 200/200/200 198/198/198 196/196/196
f 200/200/200 196/196/196 199/199/199
f 201/201/201 198/198/198 200/200/200
f 202/202/202 200/200/200 199/199/199
f 203/203/203 201/201/201 200/200/200
f 203/203/203 200/200/200 202/202/202
f 204/204/204 203/203/203 202/202/202
f 207/207/207 206/206/206 205/205/205
f 208/208/208 207/207/207 205/205/205
f 211/211/211 210/210/210 209/209/209
f 212/212/212 211/211/211 209/209/209
f 215/215/215 214/214/214 213/213/213
f 216/216/216 215/215/215 213/213/213
f 219/219/219 218/218/218 217/217/217
f 220/220/220 219/219/219 217/217/217
f 223/223/223 222/222/222 221/221/221
f 224/224/224 223/223/223 221/221/221
f 227/227/227 226/226/226 225/225/225
f 228/228/228 227/227/227 225/225/225
