g MortaredStoneStairs
v -0.5 -0.49999994 0.5
v -0.5 -0.198048934 0.5
v 0.5 -0.198048934 0.5
v 0.5 -0.49999994 0.5
v 0.5 -0.198048934 0.5
v 0.5 -0.381316066 -0.380739063
v 0.5 -0.381316066 0.5
v 0.5 -0.198048905 0.145341381
v 0.5 0.124941915 -0.152286261
v 0.5 0.124941915 0.145341381
v 0.5 0.44793272 -0.380739003
v 0.5 0.44793272 -0.152286261
v -0.5 -0.381316036 0.5
v -0.5 -0.198048905 0.143040583
v -0.5 -0.198048934 0.5
v -0.5 -0.381316066 -0.380739063
v -0.5 0.124941915 0.143040583
v -0.5 0.124941915 -0.152286261
v -0.5 0.44793272 -0.152286261
v -0.5 0.44793272 -0.380739003
v 0.5 0.44793272 -0.5
v 0.5 -0.5 -0.5
v 0.5 -0.381316066 -0.380739063
v 0.5 0.44793272 -0.380739003
v -0.5 -0.5 -0.5
v -0.5 0.44793272 -0.5
v -0.5 0.44793272 -0.380739003
v -0.5 -0.381316066 -0.380739063
v 0.5 -0.5 -0.5
v 0.5 0.44793272 -0.5
v -0.5 0.44793272 -0.5
v -0.5 -0.5 -0.5
v -0.5 -0.49999994 0.5
v -0.5 -0.5 -0.5
v -0.5 -0.381316066 -0.380739063
v -0.5 -0.381316036 0.5
v 0.5 -0.49999994 0.5
v 0.5 -0.5 -0.5
v -0.5 -0.5 -0.5
v -0.5 -0.49999994 0.5
v -0.5 0.44793272 -0.152286261
v -0.5 0.5 -0.152286261
v 0.5 0.5 -0.152286261
v 0.5 0.44793272 -0.152286261
v -0.5 0.5 -0.152286261
v -0.5 0.5 -0.5
v 0.5 0.5 -0.5
v 0.5 0.5 -0.152286261
v -0.5 0.5 -0.5
v -0.5 0.44793272 -0.5
v 0.5 0.44793272 -0.5
v 0.5 0.5 -0.5
v 0.5 0.44793272 -0.152286261
v 0.5 0.5 -0.152286261
v 0.5 0.5 -0.5
v 0.5 0.44793272 -0.5
v -0.5 0.44793272 -0.5
v -0.5 0.5 -0.5
v -0.5 0.5 -0.152286261
v -0.5 0.44793272 -0.152286261
v -0.5 -0.198048905 0.143040583
v -0.5 0.124941915 0.143040583
v 0.5 0.124941915 0.145341381
v 0.5 -0.198048905 0.145341381
v -0.5 0.124941915 -0.152286261
v -0.5 0.44793272 -0.152286261
v 0.5 0.44793272 -0.152286261
v 0.5 0.124941915 -0.152286261
v -0.5 -0.198048905 0.5
v -0.5 -0.145981655 0.5
v 0.5 -0.145981655 0.5
v 0.5 -0.198048905 0.5
v -0.5 -0.145981655 0.5
v -0.5 -0.145981655 0.144190982
v 0.5 -0.145981655 0.145341381
v 0.5 -0.145981655 0.5
v 0.5 -0.198048905 0.5
v 0.5 -0.145981655 0.5
v 0.5 -0.145981655 0.145341381
v 0.5 -0.198048905 0.145341381
v -0.5 -0.198048905 0.143040583
v -0.5 -0.145981655 0.144190982
v -0.5 -0.145981655 0.5
v -0.5 -0.198048905 0.5
v -0.5 0.1249419 0.166367188
v -0.5 0.177009165 0.166367188
v 0.5 0.177009165 0.166367188
v 0.5 0.1249419 0.166367188
v -0.5 0.177009165 0.166367188
v -0.5 0.177009165 -0.152286261
v 0.5 0.177009165 -0.152286261
v 0.5 0.177009165 0.166367188
v -0.5 0.124941915 -0.152286261
v -0.5 0.1249419 0.166367188
v 0.5 0.1249419 0.166367188
v 0.5 0.124941915 -0.152286261
v 0.5 0.1249419 0.166367188
v 0.5 0.177009165 0.166367188
v 0.5 0.177009165 -0.152286261
v 0.5 0.124941915 -0.152286261
v -0.5 0.124941915 -0.152286261
v -0.5 0.177009165 -0.152286261
v -0.5 0.177009165 0.166367188
v -0.5 0.1249419 0.166367188
v 0.5 -0.5 -0.5
v 0.5 -0.49999994 0.5
v 0.5 -0.381316066 0.5
v 0.5 -0.381316066 -0.380739063
vt 0.0194904357 0.842076659
vt 0.0194904357 0.988327622
vt 0.409293532 0.988327622
vt 0.409293532 0.842076659
vt 0.849703133 0.0508176982
vt 0.856907904 0.0492650494
vt 0.849703133 0.0492650494
vt 0.852441192 0.0508176982
vt 0.855221331 0.0535541177
vt 0.852441192 0.0535541177
vt 0.856907904 0.0562905073
vt 0.855221331 0.0562905073
vt 0.849702001 0.0492650196
vt 0.852480114 0.0508176982
vt 0.849703133 0.0508176982
vt 0.856907904 0.0492650494
vt 0.852480114 0.0535541177
vt 0.855221331 0.0535541177
vt 0.855221331 0.0562905073
vt 0.856907904 0.0562905073
vt 0.862285793 0.634104431
vt 0.862285674 0.3704561
vt 0.794782937 0.388257205
vt 0.794782817 0.634104431
vt 0.862285674 0.615901232
vt 0.862285674 0.355924338
vt 0.794782937 0.355924338
vt 0.794782996 0.596526861
vt 0.855361164 0.0512835085
vt 0.855361164 0.0536028147
vt 0.857919872 0.0535796881
vt 0.857919872 0.0512716472
vt 0.794128954 0.666568518
vt 0.794129014 0.327002525
vt 0.860714316 0.367586374
vt 0.860715032 0.648373365
vt 0.947913051 0.0460413322
vt 0.947913051 0.0521875024
vt 0.953431129 0.0521497726
vt 0.953431129 0.0460140891
vt 0.493483096 0.119695336
vt 0.493483096 0.138131648
vt 0.16338414 0.138131768
vt 0.163384125 0.119695306
vt 0.493483096 0.13813287
vt 0.493483096 0.231433272
vt 0.163411245 0.231433272
vt 0.16341123 0.138132811
vt 0.493483067 0.119695336
vt 0.493483096 0.138131708
vt 0.16338414 0.138131708
vt 0.163384125 0.119695306
vt 0.965679348 0.240489542
vt 0.991779387 0.240489542
vt 0.991779387 0.106759496
vt 0.965679348 0.106759496
vt 0.965679288 0.106759548
vt 0.991779327 0.106759548
vt 0.991779327 0.240489483
vt 0.965679288 0.240489483
vt 0.41007024 1.01829565
vt 0.41007024 0.842821121
vt 0.014850527 0.842821121
vt 0.014850527 1.01829565
vt 0.014850527 1.01829565
vt 0.014850527 0.842821121
vt 0.41007024 0.842821121
vt 0.41007024 1.01829565
vt 0.493483096 0.119695336
vt 0.493483096 0.138131648
vt 0.16338414 0.138131768
vt 0.163384125 0.119695306
vt 0.493483096 0.13813287
vt 0.493483096 0.231433272
vt 0.163411245 0.231433272
vt 0.16341123 0.138132811
vt 0.965679348 0.240489542
vt 0.991779387 0.240489542
vt 0.991779387 0.106759496
vt 0.965679348 0.106759496
vt 0.965679288 0.106759548
vt 0.991779327 0.106759548
vt 0.991779327 0.240489483
vt 0.965679288 0.240489483
vt 0.16338411 0.119695336
vt 0.16338411 0.138131648
vt 0.493483067 0.138131768
vt 0.493483067 0.119695306
vt 0.16338411 0.13813287
vt 0.16338411 0.231433272
vt 0.493455946 0.231433272
vt 0.493455976 0.138132811
vt 0.493483067 0.13813287
vt 0.493483096 0.231433272
vt 0.16341126 0.231433272
vt 0.16341123 0.138132811
vt 0.965679348 0.240489542
vt 0.991779387 0.240489542
vt 0.991779387 0.106759496
vt 0.965679348 0.106759496
vt 0.965679288 0.106759548
vt 0.991779327 0.106759548
vt 0.991779327 0.240489483
vt 0.965679288 0.240489483
vt 0.794129014 0.327002525
vt 0.794124603 0.666582704
vt 0.860714436 0.647137344
vt 0.860714316 0.367586374
vn -0 0 1
vn -0 0 1
vn -0 0 1
vn -0 0 1
vn 1 0 0
vn 1 0 0
vn 1 0 0
vn 1 0 0
vn 1 0 0
vn 1 0 0
vn 1 0 0
vn 1 0 0
vn -1 0 0
vn -1 0 0
vn -1 0 0
vn -1 0 0
vn -1 0 0
vn -1 0 0
vn -1 0 0
vn -1 0 0
vn 1 0 0
vn 1 0 0
vn 1 0 0
vn 1 0 0
vn -1 0 0
vn -1 0 0
vn -1 0 0
vn -1 0 0
vn -0 0 -1
vn -0 0 -1
vn -0 0 -1
vn -0 0 -1
vn -1 0 0
vn -1 0 0
vn -1 0 0
vn -1 0 0
vn -0 -1 0
vn -0 -1 0
vn -0 -1 0
vn -0 -1 0
vn -0 0 1
vn -0 0 1
vn -0 0 1
vn -0 0 1
vn -0 1 0
vn -0 1 0
vn -0 1 0
vn -0 1 0
vn -0 0 -1
vn -0 0 -1
vn -0 0 -1
vn -0 0 -1
vn 1 0 0
vn 1 0 0
vn 1 0 0
vn 1 0 0
vn -1 0 0
vn -1 0 0
vn -1 0 0
vn -1 0 0
vn -0.00230079191 0 0.999997377
vn -0.00230079191 0 0.999997377
vn -0.00230079191 0 0.999997377
vn -0.00230079191 0 0.999997377
vn -0 0 1
vn -0 0 1
vn -0 0 1
vn -0 0 1
vn -0 0 1
vn -0 0 1
vn -0 0 1
vn -0 0 1
vn -0 1 0
vn -0 1 0
vn -0 1 0
vn -0 1 0
vn 1 0 0
vn 1 0 0
vn 1 0 0
vn 1 0 0
vn -1 6.16734383E-07 0
vn -1 6.16734383E-07 0
vn -1 6.16734383E-07 0
vn -1 6.16734383E-07 0
vn -0 0 1
vn -0 0 1
vn -0 0 1
vn -0 0 1
vn -0 1 0
vn -0 1 0
vn -0 1 0
vn -0 1 0
vn -0 -1 0
vn -0 -1 0
vn -0 -1 0
vn -0 -1 0
vn 1 0 0
vn 1 0 0
vn 1 0 0
vn 1 0 0
vn -1 0 0
vn -1 0 0
vn -1 0 0
vn -1 0 0
vn 1 0 0
vn 1 0 0
vn 1 0 0
vn 1 0 0
g MortaredStoneStairs_0
f 3/3/3 2/2/2 1/1/1
f 4/4/4 3/3/3 1/1/1
f 7/7/7 6/6/6 5/5/5
f 6/6/6 8/8/8 5/5/5
f 6/6/6 9/9/9 8/8/8
f 9/9/9 10/10/10 8/8/8
f 6/6/6 11/11/11 9/9/9
f 11/11/11 12/12/12 9/9/9
f 15/15/15 14/14/14 13/13/13
f 14/14/14 16/16/16 13/13/13
f 14/14/14 17/17/17 16/16/16
f 17/17/17 18/18/18 16/16/16
f 18/18/18 19/19/19 16/16/16
f 19/19/19 20/20/20 16/16/16
f 23/23/23 22/22/22 21/21/21
f 24/24/24 23/23/23 21/21/21
f 27/27/27 26/26/26 25/25/25
f 28/28/28 27/27/27 25/25/25
f 31/31/31 30/30/30 29/29/29
f 32/32/32 31/31/31 29/29/29
f 35/35/35 34/34/34 33/33/33
f 36/36/36 35/35/35 33/33/33
f 39/39/39 38/38/38 37/37/37
f 40/40/40 39/39/39 37/37/37
f 43/43/43 42/42/42 41/41/41
f 44/44/44 43/43/43 41/41/41
f 47/47/47 46/46/46 45/45/45
f 48/48/48 47/47/47 45/45/45
f 51/51/51 50/50/50 49/49/49
f 52/52/52 51/51/51 49/49/49
f 55/55/55 54/54/54 53/53/53
f 56/56/56 55/55/55 53/53/53
f 59/59/59 58/58/58 57/57/57
f 60/60/60 59/59/59 57/57/57
f 63/63/63 62/62/62 61/61/61
f 64/64/64 63/63/63 61/61/61
f 67/67/67 66/66/66 65/65/65
f 68/68/68 67/67/67 65/65/65
f 71/71/71 70/70/70 69/69/69
f 72/72/72 71/71/71 69/69/69
f 75/75/75 74/74/74 73/73/73
f 76/76/76 75/75/75 73/73/73
f 79/79/79 78/78/78 77/77/77
f 80/80/80 79/79/79 77/77/77
f 83/83/83 82/82/82 81/81/81
f 84/84/84 83/83/83 81/81/81
f 87/87/87 86/86/86 85/85/85
f 88/88/88 87/87/87 85/85/85
f 91/91/91 90/90/90 89/89/89
f 92/92/92 91/91/91 89/89/89
f 95/95/95 94/94/94 93/93/93
f 96/96/96 95/95/95 93/93/93
f 99/99/99 98/98/98 97/97/97
f 100/100/100 99/99/99 97/97/97
f 103/103/103 102/102/102 101/101/101
f 104/104/104 103/103/103 101/101/101
f 107/107/107 106/106/106 105/105/105
f 108/108/108 107/107/107 105/105/105
