g Roof_MS_RoofCorner
v -0.5 -0.5 0.375
v -0.5 -0.5 -0.5
v -0.5 0.375 -0.5
v -0.5 -0.5 -0.5
v 0.375 -0.5 -0.5
v -0.5 0.375 -0.5
v -0.375 0.5 -0.375
v 0.5 -0.375 0.5
v -0.5 -0.375 0.5
v -0.5 0.5 -0.375
v 0.5 -0.5 0.5
v 0.5 -0.5 -0.5
v 0.375 -0.5 -0.5
v -0.5 -0.5 -0.5
v -0.5 -0.5 0.375
v -0.5 -0.5 0.5
v 0.5 -0.375 -0.5
v 0.5 -0.375 0.5
v -0.375 0.5 -0.375
v -0.375 0.5 -0.5
v -0.375 0.5 -0.5
v -0.375 0.5 -0.375
v -0.5 0.5 -0.375
v -0.5 0.5 -0.5
v 0.5 -0.5 -0.5
v 0.5 -0.5 0.5
v 0.5 -0.375 0.5
v 0.5 -0.375 -0.5
v 0.5 -0.5 0.5
v -0.5 -0.5 0.5
v -0.5 -0.375 0.5
v 0.5 -0.375 0.5
v 0.375 -0.5 -0.5
v 0.5 -0.5 -0.5
v 0.5 -0.375 -0.5
v -0.375 0.5 -0.5
v -0.5 0.375 -0.5
v -0.5 0.5 -0.5
v -0.5 -0.375 0.5
v -0.5 -0.5 0.5
v -0.5 -0.5 0.375
v -0.5 0.375 -0.5
v -0.5 0.5 -0.375
v -0.5 0.5 -0.5
v 0.459584951 -0.263176888 -0.456890255
v 0.499500722 -0.303092957 -0.39040342
v 0.499500722 -0.303092659 0.344561756
v 0.459584951 -0.263176888 0.345267951
v 0.126580194 0.069827877 -0.456890255
v 0.0964184552 0.124769896 -0.0326434337
v 0.0985174552 0.121596679 -0.39040342
v 0.0670446754 0.0514480583 -0.493732303
v 0.126580194 0.069827877 -0.456890255
v 0.0985174552 0.121596679 -0.39040342
v 0.027126465 0.0913662687 -0.427241802
v 0.459584951 -0.263176888 -0.456890255
v 0.447116703 -0.328623652 -0.493732303
v 0.497685522 -0.379625529 -0.427244246
v 0.499500722 -0.303092957 -0.39040342
v 0.499500722 -0.303092659 0.344561756
v 0.497685522 -0.379625231 0.381405026
v 0.447116703 -0.328623652 0.439726561
v 0.459584951 -0.263176888 0.345267951
v 0.027126465 0.0913662687 -0.427241802
v 0.0985174552 0.121596679 -0.39040342
v 0.0964184552 0.124769896 -0.0326434337
v 0.0250268541 0.0945394859 0.0224517826
v 0.497685522 -0.379625529 -0.427244246
v 0.497685522 -0.379625231 0.381405026
v 0.499500722 -0.303092659 0.344561756
v 0.499500722 -0.303092957 -0.39040342
v 0.0250268541 0.0945394859 0.0224517826
v 0.0964184552 0.124769896 -0.0326434337
v 0.459584951 -0.263176888 0.345267951
v 0.447116703 -0.328623652 0.439726561
v 0.447116703 -0.328623652 -0.493732303
v 0.459584951 -0.263176888 -0.456890255
v 0.126580194 0.069827877 -0.456890255
v 0.0670446754 0.0514480583 -0.493732303
v -0.444875479 0.517154992 -0.294170827
v -0.294562995 0.508290946 -0.294170827
v -0.271085799 0.466643363 -0.277748704
v -0.475362539 0.483476132 -0.277748704
v -0.477286369 0.523213863 -0.483557731
v -0.5 0.49999994 -0.5
v -0.297113031 0.46926868 -0.5
v -0.31967774 0.509717464 -0.486032397
v -0.274397582 0.46926868 -0.479324639
v -0.297113031 0.46926868 -0.5
v -0.5 0.49999994 -0.5
v -0.5 0.483476132 -0.297486573
v -0.271085799 0.466643363 -0.277748704
v -0.475362539 0.483476132 -0.277748704
v -0.271085799 0.466643363 -0.277748704
v -0.294562995 0.508290946 -0.294170827
v -0.293564439 0.510916293 -0.466885358
v -0.274397582 0.46926868 -0.479324639
v -0.5 0.49999994 -0.5
v -0.477286369 0.523213863 -0.483557731
v -0.485009134 0.515840113 -0.313728631
v -0.5 0.483476132 -0.297486573
v -0.477286369 0.523213863 -0.483557731
v -0.31967774 0.509717464 -0.486032397
v -0.293564439 0.510916293 -0.466885358
v -0.485009134 0.515840113 -0.313728631
v -0.294562995 0.508290946 -0.294170827
v -0.444875479 0.517154992 -0.294170827
v -0.5 0.483476132 -0.297486573
v -0.485009134 0.515840113 -0.313728631
v -0.444875479 0.517154992 -0.294170827
v -0.475362539 0.483476132 -0.277748704
v -0.31967774 0.509717464 -0.486032397
v -0.297113031 0.46926868 -0.5
v -0.274397582 0.46926868 -0.479324639
v -0.293564439 0.510916293 -0.466885358
v -0.346772462 0.119767912 0.0985180661
v 0.0160308834 0.116478838 0.0797302201
v 0.39450562 -0.263176948 0.459585547
v -0.456890255 0.0361923203 0.126580507
v -0.456890255 -0.263176948 0.459585249
v -0.39040342 -0.303093016 0.49950102
v 0.40262571 -0.303092718 0.499500722
v -0.493732303 0.0514479913 0.0670446754
v -0.383610845 0.0913662016 0.027126465
v -0.346772462 0.119767912 0.0985180661
v -0.456890255 0.0361923203 0.126580507
v -0.456890255 -0.263176948 0.459585249
v -0.39040342 -0.303093016 0.49950102
v -0.427244246 -0.379625618 0.49768585
v -0.493732303 -0.328623682 0.447117001
v 0.40262571 -0.303092718 0.499500722
v 0.39450562 -0.263176948 0.459585547
v 0.439726561 -0.328623682 0.447116703
v 0.43946898 -0.37962532 0.497685522
v -0.383610845 0.0913662016 0.027126465
v 0.0224517826 0.0945394188 0.0250274651
v 0.0160308834 0.116478838 0.0797302201
v -0.346772462 0.119767912 0.0985180661
v -0.427244246 -0.379625618 0.49768585
v -0.39040342 -0.303093016 0.49950102
v 0.40262571 -0.303092718 0.499500722
v 0.43946898 -0.37962532 0.497685522
v 0.0224517826 0.0945394188 0.0250274651
v 0.439726561 -0.328623682 0.447116703
v 0.39450562 -0.263176948 0.459585547
v 0.0160308834 0.116478838 0.0797302201
v -0.493732303 -0.328623682 0.447117001
v -0.493732303 0.0514479913 0.0670446754
v -0.456890255 0.0361923203 0.126580507
v -0.456890255 -0.263176948 0.459585249
v -0.253358752 0.464233667 -0.336790472
v -0.256096184 0.459501326 -0.468476564
v 0.0337542705 0.173186198 -0.463842303
v 0.0752600059 0.131681234 -0.442326814
v 0.075258784 0.138602555 -0.112540588
v 0.0468945317 0.190825894 -0.0557272322
v 0.0732281506 0.16449222 -0.0557270795
v 0.0752600059 0.131681234 -0.442326814
v 0.0337542705 0.173186198 -0.463842303
v 0.00995910633 0.110732399 -0.497341156
v 0.0514654517 0.0692265555 -0.475824893
v 0.00995910633 0.110732399 -0.497341156
v 0.0337542705 0.173186198 -0.463842303
v -0.256096184 0.459501326 -0.468476564
v -0.340725094 0.465341359 -0.495995462
v -0.0234643556 0.125242844 -0.0166542046
v -0.338698715 0.461337447 -0.331486195
v -0.253358752 0.464233667 -0.336790472
v 0.0468945317 0.190825894 -0.0557272322
v 0.0375012197 0.072161667 -0.0222297665
v 0.0732281506 0.16449222 -0.0557270795
v 0.0514660627 0.0581980497 -0.0790463239
v 0.075258784 0.138602555 -0.112540588
v 0.0514654517 0.0692265555 -0.475824893
v 0.0752600059 0.131681234 -0.442326814
v -0.256096184 0.459501326 -0.468476564
v -0.253358752 0.464233667 -0.336790472
v -0.338698715 0.461337447 -0.331486195
v -0.340725094 0.465341359 -0.495995462
v -0.466048568 0.173186198 0.0337542705
v -0.470682353 0.459501326 -0.256095886
v -0.321015626 0.464233667 -0.253358752
v -0.0497204587 0.183904186 0.0468948372
v -0.409235835 0.131681234 0.0752600059
v -0.0497204587 0.157570511 0.0732281506
v -0.106534421 0.131680831 0.0752590895
v -0.409235835 0.131681234 0.0752600059
v -0.442733765 0.0692265555 0.0514654517
v -0.499547094 0.110732399 0.00995910633
v -0.466048568 0.173186198 0.0337542705
v -0.499547094 0.110732399 0.00995910633
v -0.498201907 0.465341359 -0.340725094
v -0.470682353 0.459501326 -0.256095886
v -0.466048568 0.173186198 0.0337542705
v -0.0106481928 0.136270255 -0.0234646592
v -0.321015626 0.464233667 -0.253358752
v -0.356597275 0.461337447 -0.338698715
v -0.0497204587 0.183904186 0.0468948372
v -0.0162231438 0.0831890628 0.0375015251
v -0.0497204587 0.157570511 0.0732281506
v -0.0730401576 0.0692254454 0.0514657572
v -0.106534421 0.131680831 0.0752590895
v -0.442733765 0.0692265555 0.0514654517
v -0.409235835 0.131681234 0.0752600059
v -0.470682353 0.459501326 -0.256095886
v -0.498201907 0.465341359 -0.340725094
v -0.356597275 0.461337447 -0.338698715
v -0.321015626 0.464233667 -0.253358752
vt 0.847107887 0.0477150343
vt 0.846983671 0.0477150343
vt 0.846983671 0.0478392877
vt 0.84708792 0.0479644537
vt 0.847212195 0.0479644537
vt 0.84708792 0.0478402041
vt 0.813482106 0.858577907
vt 0.925119519 0.713427186
vt 0.797352195 0.713427186
vt 0.801514506 0.859854162
vt 0.952977359 0.0501281023
vt 0.952906907 0.0501281023
vt 0.952906907 0.0501368642
vt 0.952906907 0.0501986146
vt 0.952968538 0.0501986146
vt 0.952977359 0.0501986146
vt 0.877153456 0.504508913
vt 0.990431607 0.504508913
vt 0.889853299 0.64338249
vt 0.877847195 0.640607595
vt 0.417223454 0.751082301
vt 0.417223454 0.692690134
vt 0.361826062 0.692690134
vt 0.361826062 0.751082301
vt 0.429351509 0.015534291
vt 0.0422504544 0.0155342268
vt 0.0422504395 0.068719767
vt 0.429351687 0.0687196404
vt 0.429351509 0.015534291
vt 0.0422504544 0.0155342268
vt 0.0422504395 0.068719767
vt 0.429351687 0.0687196404
vt 0.0422504395 0.068719767
vt 0.0155308796 0.0414387435
vt 0.0422504544 0.0155342268
vt 0.429351509 0.015534291
vt 0.429351687 0.0687196404
vt 0.460199654 0.0414390601
vt 0.0422504395 0.068719767
vt 0.0155308796 0.0414387435
vt 0.0422504544 0.0155342268
vt 0.429351509 0.015534291
vt 0.429351687 0.0687196404
vt 0.460199654 0.0414390601
vt 0.400444686 0.627689064
vt 0.428863108 0.651129007
vt 0.697592139 0.652545333
vt 0.69652915 0.629909337
vt 0.399699032 0.419919908
vt 0.52991873 0.393577576
vt 0.428863108 0.397172809
vt 0.379594117 0.403302312
vt 0.399699032 0.419919908
vt 0.428863108 0.397172809
vt 0.406017333 0.369240254
vt 0.400444686 0.627689064
vt 0.379149914 0.643122971
vt 0.406222731 0.673658371
vt 0.428863108 0.651129007
vt 0.697592139 0.652545333
vt 0.7189008 0.673703909
vt 0.737011552 0.645810962
vt 0.69652915 0.629909337
vt 0.406017333 0.369240254
vt 0.428863108 0.397172809
vt 0.52991873 0.393577576
vt 0.55259347 0.368237168
vt 0.406222731 0.673658371
vt 0.7189008 0.673703909
vt 0.697592139 0.652545333
vt 0.428863108 0.651129007
vt 0.55259347 0.368237168
vt 0.52991873 0.393577576
vt 0.69652915 0.629909337
vt 0.737011552 0.645810962
vt 0.379149914 0.643122971
vt 0.400444686 0.627689064
vt 0.399699032 0.419919908
vt 0.379594117 0.403302312
vt 0.392500699 0.218819499
vt 0.528041482 0.221077323
vt 0.547405362 0.205442727
vt 0.378179997 0.205773726
vt 0.378183246 0.344353229
vt 0.363128662 0.357717216
vt 0.533410013 0.359039962
vt 0.51684016 0.344527483
vt 0.547215044 0.34094736
vt 0.533410013 0.359039962
vt 0.363128662 0.357717216
vt 0.364890307 0.225031734
vt 0.547405362 0.205442727
vt 0.378179997 0.205773726
vt 0.547405362 0.205442727
vt 0.528041482 0.221077323
vt 0.532344639 0.326739639
vt 0.547215044 0.34094736
vt 0.363128662 0.357717216
vt 0.378183246 0.344353229
vt 0.377386838 0.236134797
vt 0.364890307 0.225031734
vt 0.378183246 0.344353229
vt 0.51684016 0.344527483
vt 0.532344639 0.326739639
vt 0.377386838 0.236134797
vt 0.528041482 0.221077323
vt 0.392500699 0.218819499
vt 0.364890307 0.225031734
vt 0.377386838 0.236134797
vt 0.392500699 0.218819499
vt 0.378179997 0.205773726
vt 0.51684016 0.344527483
vt 0.533410013 0.359039962
vt 0.547215044 0.34094736
vt 0.532344639 0.326739639
vt 0.428863108 0.397172809
vt 0.52991873 0.393577576
vt 0.69652915 0.629909337
vt 0.399699032 0.419919908
vt 0.400444686 0.627689064
vt 0.428863108 0.651129007
vt 0.697592139 0.652545333
vt 0.379594117 0.403302312
vt 0.406017333 0.369240254
vt 0.428863108 0.397172809
vt 0.399699032 0.419919908
vt 0.400444686 0.627689064
vt 0.428863108 0.651129007
vt 0.406222731 0.673658371
vt 0.379149914 0.643122971
vt 0.697592139 0.652545333
vt 0.69652915 0.629909337
vt 0.737011552 0.645810962
vt 0.7189008 0.673703909
vt 0.406017333 0.369240254
vt 0.55259347 0.368237168
vt 0.52991873 0.393577576
vt 0.428863108 0.397172809
vt 0.406222731 0.673658371
vt 0.428863108 0.651129007
vt 0.697592139 0.652545333
vt 0.7189008 0.673703909
vt 0.55259347 0.368237168
vt 0.737011552 0.645810962
vt 0.69652915 0.629909337
vt 0.52991873 0.393577576
vt 0.379149914 0.643122971
vt 0.379594117 0.403302312
vt 0.399699032 0.419919908
vt 0.400444686 0.627689064
vt 0.702453792 0.531257451
vt 0.74515748 0.518868625
vt 0.73924315 0.325053573
vt 0.713600338 0.302848905
vt 0.619968832 0.312094361
vt 0.594735086 0.339019239
vt 0.595383406 0.323979676
vt 0.713600338 0.302848905
vt 0.73924315 0.325053573
vt 0.756638169 0.30274865
vt 0.721271455 0.281718969
vt 0.756638169 0.30274865
vt 0.73924315 0.325053573
vt 0.74515748 0.518868625
vt 0.759295344 0.549130201
vt 0.557549953 0.343091637
vt 0.706247747 0.569037795
vt 0.702453792 0.531257451
vt 0.594735086 0.339019239
vt 0.570455551 0.300840586
vt 0.595383406 0.323979676
vt 0.596636534 0.290289044
vt 0.619968832 0.312094361
vt 0.721271455 0.281718969
vt 0.713600338 0.302848905
vt 0.74515748 0.518868625
vt 0.702453792 0.531257451
vt 0.706247747 0.569037795
vt 0.759295344 0.549130201
vt 0.73924315 0.325053573
vt 0.74515748 0.518868625
vt 0.702453792 0.531257451
vt 0.594735086 0.339019239
vt 0.713600338 0.302848905
vt 0.595383406 0.323979676
vt 0.619968832 0.312094361
vt 0.713600338 0.302848905
vt 0.721271455 0.281718969
vt 0.756638169 0.30274865
vt 0.73924315 0.325053573
vt 0.756638169 0.30274865
vt 0.759295344 0.549130201
vt 0.74515748 0.518868625
vt 0.73924315 0.325053573
vt 0.557549953 0.343091637
vt 0.702453792 0.531257451
vt 0.706247747 0.569037795
vt 0.594735086 0.339019239
vt 0.570455551 0.300840586
vt 0.595383406 0.323979676
vt 0.596636534 0.290289044
vt 0.619968832 0.312094361
vt 0.721271455 0.281718969
vt 0.713600338 0.302848905
vt 0.74515748 0.518868625
vt 0.759295344 0.549130201
vt 0.706247747 0.569037795
vt 0.702453792 0.531257451
vn -1 0 0
vn -1 0 0
vn -1 0 0
vn -0 0 -1
vn -0 0 -1
vn -0 0 -1
vn -0 0.707106769 0.707106769
vn -0 0.707106769 0.707106769
vn -0 0.707106769 0.707106769
vn -0 0.707106769 0.707106769
vn -0 -1 0
vn -0 -1 0
vn -0 -1 0
vn -0 -1 0
vn -0 -1 0
vn -0 -1 0
vn 0.707106769 0.707106769 0
vn 0.707106769 0.707106769 0
vn 0.707106769 0.707106769 0
vn 0.707106769 0.707106769 0
vn -0 1 0
vn -0 1 0
vn -0 1 0
vn -0 1 0
vn 1 0 0
vn 1 0 0
vn 1 0 0
vn 1 0 0
vn -0 0 1
vn -0 0 1
vn -0 0 1
vn -0 0 1
vn -0 0 -1
vn -0 0 -1
vn -0 0 -1
vn -0 0 -1
vn -0 0 -1
vn -0 0 -1
vn -1 0 0
vn -1 0 0
vn -1 0 0
vn -1 0 0
vn -1 0 0
vn -1 0 0
vn 0.726098239 0.687499166 -0.0112330196
vn 0.726098239 0.687499225 -0.0112330196
vn 0.726098359 0.687499106 -0.0112330206
vn 0.726098239 0.687499166 -0.0112330196
vn 0.726098239 0.687499225 -0.0112330196
vn 0.726098239 0.687499166 -0.0112330215
vn 0.726098239 0.687499166 -0.0112330196
vn 0.0107368063 0.825783134 -0.563885629
vn 0.0107368063 0.825783134 -0.563885689
vn 0.0107368063 0.825783134 -0.563885689
vn 0.0107368072 0.825783134 -0.563885689
vn 0.863682687 0.160990134 -0.477634072
vn 0.863682687 0.160990104 -0.477634072
vn 0.863682687 0.160990134 -0.477634072
vn 0.863682687 0.160990134 -0.477634072
vn 0.749573767 0.407197624 0.521851718
vn 0.749573767 0.407197624 0.521851718
vn 0.749573767 0.407197624 0.521851718
vn 0.749573827 0.407197595 0.521851778
vn -0.390915155 0.920380056 -0.00926667824
vn -0.390915215 0.920380056 -0.00926667918
vn -0.390915155 0.920380056 -0.00926667918
vn -0.390915215 0.920380056 -0.00926667918
vn 0.999718845 -0.0237078853 0
vn 0.999718845 -0.0237078834 0
vn 0.999718845 -0.0237078853 0
vn 0.999718845 -0.0237078853 0
vn 0.190360412 0.775030732 0.60256958
vn 0.190360457 0.775030911 0.60256958
vn 0.190360427 0.775030732 0.60256958
vn 0.190360427 0.775030732 0.60256958
vn 0.393061876 0.393062621 -0.831266582
vn 0.393061876 0.393062651 -0.831266582
vn 0.393061936 0.393062621 -0.831266582
vn 0.393061906 0.393062651 -0.831266522
vn 0.028789442 0.397265494 0.917252123
vn 0.0287894383 0.397265464 0.917252004
vn 0.0287894383 0.397265494 0.917252004
vn 0.0287894383 0.397265494 0.917252004
vn 0.0466246754 0.430465102 -0.901402235
vn 0.0466246717 0.430465072 -0.901402235
vn 0.0466246717 0.430465072 -0.901402235
vn 0.0466246754 0.430465072 -0.901402235
vn -0.101339772 -0.99435544 -0.0314265192
vn -0.101339765 -0.99435544 -0.0314265154
vn -0.101339765 -0.99435544 -0.0314265192
vn -0.101339765 -0.99435544 -0.0314265154
vn -0.101339765 -0.99435544 -0.0314265192
vn -0.101339765 -0.99435544 -0.0314265117
vn 0.890108228 0.45574823 0.00089210592
vn 0.890108228 0.45574832 0.000892105978
vn 0.890108228 0.45574823 0.000892105803
vn 0.890108228 0.45574823 0.00089210592
vn -0.827412248 0.561278284 0.0188606177
vn -0.827412248 0.561278284 0.0188606177
vn -0.827412248 0.561278284 0.0188606177
vn -0.827412248 0.561278284 0.0188606177
vn 0.0518284328 0.998580813 0.0122570377
vn 0.0518284328 0.998580813 0.0122570377
vn 0.0518284291 0.998580813 0.0122570377
vn 0.0518284291 0.998580813 0.0122570377
vn 0.0518284291 0.998580813 0.0122570377
vn 0.0518284328 0.998580813 0.0122570377
vn -0.417223126 0.617222607 0.667054057
vn -0.417223155 0.617222548 0.667054057
vn -0.417223155 0.617222667 0.667054057
vn -0.417223126 0.617222667 0.667053998
vn 0.542131126 0.494182169 -0.679615974
vn 0.542131186 0.494182169 -0.679615915
vn 0.542131126 0.494182169 -0.679615915
vn 0.542131186 0.494182169 -0.679615915
vn -0.0140011311 0.702909708 0.711141169
vn -0.014001132 0.702909708 0.711141169
vn -0.014001132 0.702909708 0.711141169
vn -0.0140011311 0.702909768 0.711141109
vn -0.014001132 0.702909768 0.711141229
vn -0.014001132 0.702909768 0.711141229
vn -0.014001132 0.702909708 0.711141169
vn -0.444261372 0.881214917 0.161531076
vn -0.444261372 0.881214917 0.161531076
vn -0.444261372 0.881214917 0.161531076
vn -0.444261372 0.881214797 0.161531061
vn -0.477633268 0.160990059 0.863683224
vn -0.477633268 0.160990059 0.863683224
vn -0.477633327 0.160990059 0.863683224
vn -0.477633327 0.160990089 0.863683224
vn 0.820572436 0.437261373 0.368053526
vn 0.820572436 0.437261403 0.368053555
vn 0.820572436 0.437261403 0.368053555
vn 0.820572436 0.437261313 0.368053555
vn -0.00987601373 0.929494739 -0.368703276
vn -0.00987601373 0.929494739 -0.368703306
vn -0.00987601466 0.929494739 -0.368703276
vn -0.00987601466 0.929494739 -0.368703276
vn 3.8429144E-07 -0.0237111449 0.999718845
vn 3.8429144E-07 -0.0237111449 0.999718845
vn 3.8429144E-07 -0.0237111449 0.999718845
vn 3.84291496E-07 -0.0237111468 0.999718845
vn 0.781702101 0.598007202 -0.177000418
vn 0.781702101 0.598007262 -0.177000418
vn 0.781702161 0.598007202 -0.177000418
vn 0.781702101 0.598007202 -0.177000403
vn -0.759416878 0.471020579 0.448804468
vn -0.759416997 0.471020639 0.448804468
vn -0.759416878 0.471020669 0.448804438
vn -0.759416878 0.471020669 0.448804468
vn 0.716350436 0.695976257 -0.0495897792
vn 0.716350496 0.695976198 -0.0495897681
vn 0.716350496 0.695976198 -0.0495897681
vn 0.716350496 0.695976257 -0.0495897718
vn 0.716350496 0.695976257 -0.0495897718
vn 0.716350496 0.695976257 -0.0495897718
vn 0.716350436 0.695976257 -0.0495897681
vn 0.595748425 0.191405654 -0.780030489
vn 0.595748365 0.191405639 -0.780030489
vn 0.595748425 0.191405654 -0.780030489
vn 0.595748425 0.191405639 -0.780030489
vn 0.329427838 0.324674398 -0.886602402
vn 0.329427779 0.324674398 -0.886602402
vn 0.329427838 0.324674368 -0.886602402
vn 0.329427838 0.324674368 -0.886602402
vn -0.0326649211 0.617304862 0.786045611
vn -0.0752897337 0.657186031 0.749958634
vn -0.0752897412 0.657186031 0.749958694
vn -0.03757523 0.622039795 0.782083511
vn 0.745484829 -0.0123134479 0.666408896
vn 0.671899736 0.0389028117 0.739619672
vn 0.952773571 -0.299050093 0.0528351218
vn 0.951572478 -0.305807501 0.0314889699
vn 0.948749185 -0.31602481 -0.00178570347
vn 0.948749185 -0.31602481 -0.00178570335
vn 0.0176757555 0.999840021 -0.00274306186
vn 0.0176757555 0.999840021 -0.00274306186
vn 0.0176757574 0.999840021 -0.00274306163
vn 0.0176757574 0.999840021 -0.00274306186
vn -0.0387667678 0.69511652 0.717851102
vn -0.0387667678 0.69511652 0.717851102
vn -0.0387667641 0.69511646 0.717851102
vn -0.0387667678 0.695116401 0.717851162
vn -0.0387667678 0.69511646 0.717851102
vn -0.0387667567 0.69511646 0.717851102
vn -0.0387667678 0.69511652 0.717851102
vn -0.586887956 0.00630995631 0.809643507
vn -0.586887956 0.00630995631 0.809643507
vn -0.586887956 0.00630995585 0.809643507
vn -0.586887956 0.00630995631 0.809643507
vn -0.886606038 0.324667186 0.329425365
vn -0.886606038 0.324667186 0.329425365
vn -0.886606038 0.324667156 0.329425395
vn -0.886606038 0.324667156 0.329425395
vn 0.802549303 0.582080483 -0.130755469
vn 0.774268627 0.606842339 -0.179584339
vn 0.774268627 0.606842339 -0.179584324
vn 0.806807876 0.577897072 -0.122866154
vn 0.697258055 0.00606129924 0.71679461
vn 0.725103199 0.0306443218 0.687958062
vn 0.0632348359 -0.340132207 0.938249171
vn 0.032310348 -0.348089933 0.936904192
vn -0 -0.35601604 0.934479892
vn -0 -0.35601598 0.934479892
vn -0.00280055357 0.999827623 0.0183563251
vn -0.00280055357 0.999827623 0.0183563251
vn -0.00280055311 0.999827623 0.0183563251
vn -0.00280055334 0.999827623 0.0183563232
g Roof_MS_RoofCorner_0
f 3/3/3 2/2/2 1/1/1
f 6/6/6 5/5/5 4/4/4
f 9/9/9 8/8/8 7/7/7
f 10/10/10 9/9/9 7/7/7
f 13/13/13 12/12/12 11/11/11
f 11/11/11 14/14/14 13/13/13
f 11/11/11 15/15/15 14/14/14
f 11/11/11 16/16/16 15/15/15
f 19/19/19 18/18/18 17/17/17
f 20/20/20 19/19/19 17/17/17
f 23/23/23 22/22/22 21/21/21
f 24/24/24 23/23/23 21/21/21
f 27/27/27 26/26/26 25/25/25
f 28/28/28 27/27/27 25/25/25
f 31/31/31 30/30/30 29/29/29
f 32/32/32 31/31/31 29/29/29
f 35/35/35 34/34/34 33/33/33
f 33/33/33 36/36/36 35/35/35
f 33/33/33 37/37/37 36/36/36
f 37/37/37 38/38/38 36/36/36
f 41/41/41 40/40/40 39/39/39
f 39/39/39 42/42/42 41/41/41
f 39/39/39 43/43/43 42/42/42
f 43/43/43 44/44/44 42/42/42
f 47/47/47 46/46/46 45/45/45
f 45/45/45 48/48/48 47/47/47
f 45/45/45 49/49/49 48/48/48
f 49/49/49 50/50/50 48/48/48
f 49/49/49 51/51/51 50/50/50
f 54/54/54 53/53/53 52/52/52
f 55/55/55 54/54/54 52/52/52
f 58/58/58 57/57/57 56/56/56
f 59/59/59 58/58/58 56/56/56
f 62/62/62 61/61/61 60/60/60
f 63/63/63 62/62/62 60/60/60
f 66/66/66 65/65/65 64/64/64
f 67/67/67 66/66/66 64/64/64
f 70/70/70 69/69/69 68/68/68
f 71/71/71 70/70/70 68/68/68
f 74/74/74 73/73/73 72/72/72
f 75/75/75 74/74/74 72/72/72
f 78/78/78 77/77/77 76/76/76
f 79/79/79 78/78/78 76/76/76
f 82/82/82 81/81/81 80/80/80
f 83/83/83 82/82/82 80/80/80
f 86/86/86 85/85/85 84/84/84
f 87/87/87 86/86/86 84/84/84
f 90/90/90 89/89/89 88/88/88
f 88/88/88 91/91/91 90/90/90
f 88/88/88 92/92/92 91/91/91
f 92/92/92 93/93/93 91/91/91
f 96/96/96 95/95/95 94/94/94
f 97/97/97 96/96/96 94/94/94
f 100/100/100 99/99/99 98/98/98
f 101/101/101 100/100/100 98/98/98
f 104/104/104 103/103/103 102/102/102
f 102/102/102 105/105/105 104/104/104
f 105/105/105 106/106/106 104/104/104
f 105/105/105 107/107/107 106/106/106
f 110/110/110 109/109/109 108/108/108
f 111/111/111 110/110/110 108/108/108
f 114/114/114 113/113/113 112/112/112
f 115/115/115 114/114/114 112/112/112
f 118/118/118 117/117/117 116/116/116
f 116/116/116 119/119/119 118/118/118
f 119/119/119 120/120/120 118/118/118
f 120/120/120 121/121/121 118/118/118
f 121/121/121 122/122/122 118/118/118
f 125/125/125 124/124/124 123/123/123
f 126/126/126 125/125/125 123/123/123
f 129/129/129 128/128/128 127/127/127
f 130/130/130 129/129/129 127/127/127
f 133/133/133 132/132/132 131/131/131
f 134/134/134 133/133/133 131/131/131
f 137/137/137 136/136/136 135/135/135
f 138/138/138 137/137/137 135/135/135
f 141/141/141 140/140/140 139/139/139
f 142/142/142 141/141/141 139/139/139
f 145/145/145 144/144/144 143/143/143
f 146/146/146 145/145/145 143/143/143
f 149/149/149 148/148/148 147/147/147
f 150/150/150 149/149/149 147/147/147
f 153/153/153 152/152/152 151/151/151
f 151/151/151 154/154/154 153/153/153
f 151/151/151 155/155/155 154/154/154
f 151/151/151 156/156/156 155/155/155
f 156/156/156 157/157/157 155/155/155
f 160/160/160 159/159/159 158/158/158
f 161/161/161 160/160/160 158/158/158
f 164/164/164 163/163/163 162/162/162
f 165/165/165 164/164/164 162/162/162
f 168/168/168 167/167/167 166/166/166
f 169/169/169 168/168/168 166/166/166
f 169/169/169 166/166/166 170/170/170
f 171/171/171 169/169/169 170/170/170
f 171/171/171 170/170/170 172/172/172
f 173/173/173 171/171/171 172/172/172
f 173/173/173 172/172/172 174/174/174
f 175/175/175 173/173/173 174/174/174
f 178/178/178 177/177/177 176/176/176
f 179/179/179 178/178/178 176/176/176
f 182/182/182 181/181/181 180/180/180
f 180/180/180 183/183/183 182/182/182
f 180/180/180 184/184/184 183/183/183
f 184/184/184 185/185/185 183/183/183
f 184/184/184 186/186/186 185/185/185
f 189/189/189 188/188/188 187/187/187
f 190/190/190 189/189/189 187/187/187
f 193/193/193 192/192/192 191/191/191
f 194/194/194 193/193/193 191/191/191
f 197/197/197 196/196/196 195/195/195
f 196/196/196 198/198/198 195/195/195
f 195/195/195 198/198/198 199/199/199
f 198/198/198 200/200/200 199/199/199
f 199/199/199 200/200/200 201/201/201
f 200/200/200 202/202/202 201/201/201
f 201/201/201 202/202/202 203/203/203
f 202/202/202 204/204/204 203/203/203
f 207/207/207 206/206/206 205/205/205
f 208/208/208 207/207/207 205/205/205
