g ColumnSingle
v -0.214306638 0.3125 0.428571463
v 0.214306638 0.3125 0.428571463
v 0.214306638 -0.3125 0.428571463
v -0.214306638 -0.3125 0.428571463
v -0.214306638 -0.3125 -0.428571463
v 0.214306638 -0.3125 -0.428571463
v 0.214306638 0.3125 -0.428571463
v -0.214306638 0.3125 -0.428571463
v 0.428571761 0.3125 0.214307249
v 0.428571761 0.3125 -0.214307249
v 0.428571761 -0.3125 -0.214307249
v 0.428571761 -0.3125 0.214307249
v -0.428571761 0.3125 -0.214307249
v -0.428571761 0.3125 0.214307249
v -0.428571761 -0.3125 0.214307249
v -0.428571761 -0.3125 -0.214307249
v -0.428571761 -0.3125 0.214307249
v -0.428571761 0.3125 0.214307249
v -0.214306638 0.3125 0.428571463
v -0.214306638 -0.3125 0.428571463
v 0.214306638 -0.3125 0.428571463
v 0.214306638 0.3125 0.428571463
v 0.428571761 0.3125 0.214307249
v 0.428571761 -0.3125 0.214307249
v -0.428571761 0.3125 -0.214307249
v -0.428571761 -0.3125 -0.214307249
v -0.214306638 -0.3125 -0.428571463
v -0.214306638 0.3125 -0.428571463
v 0.214306638 0.3125 -0.428571463
v 0.214306638 -0.3125 -0.428571463
v 0.428571761 -0.3125 -0.214307249
v 0.428571761 0.3125 -0.214307249
v -0.5 0.5 -0.400010049
v -0.5 0.5 0.400010049
v -0.5 0.3125 0.400010049
v -0.5 0.3125 -0.400010049
v -0.400009751 0.5 0.5
v 0.400009751 0.5 0.5
v 0.400009751 0.3125 0.5
v -0.400009751 0.3125 0.5
v 0.5 0.5 0.400010049
v 0.5 0.5 -0.400010049
v 0.5 0.3125 -0.400010049
v 0.5 0.3125 0.400010049
v 0.400009751 0.5 -0.5
v -0.400009751 0.5 -0.5
v -0.400009751 0.3125 -0.5
v 0.400009751 0.3125 -0.5
v 0.5 -0.5 -0.400010049
v 0.5 -0.5 0.400010049
v 0.5 -0.3125 0.400010049
v 0.5 -0.3125 -0.400010049
v 0.400009751 -0.5 0.5
v -0.400009751 -0.5 0.5
v -0.400009751 -0.3125 0.5
v 0.400009751 -0.3125 0.5
v -0.5 -0.5 0.400010049
v -0.5 -0.5 -0.400010049
v -0.5 -0.3125 -0.400010049
v -0.5 -0.3125 0.400010049
v -0.400009751 -0.5 -0.5
v 0.400009751 -0.5 -0.5
v 0.400009751 -0.3125 -0.5
v -0.400009751 -0.3125 -0.5
v 0.5 0.3125 -0.400010049
v 0.400009751 0.3125 -0.5
v -0.400009751 0.3125 -0.5
v -0.5 0.3125 -0.400010049
v 0.5 0.3125 0.400010049
v -0.5 0.3125 0.400010049
v 0.400009751 0.3125 0.5
v -0.400009751 0.3125 0.5
v -0.5 0.5 -0.400010049
v -0.400009751 0.5 -0.5
v 0.400009751 0.5 -0.5
v 0.5 0.5 -0.400010049
v -0.5 0.5 0.400010049
v 0.5 0.5 0.400010049
v -0.400009751 0.5 0.5
v 0.400009751 0.5 0.5
v -0.5 -0.3125 -0.400010049
v -0.400009751 -0.3125 -0.5
v 0.400009751 -0.3125 -0.5
v 0.5 -0.3125 -0.400010049
v -0.5 -0.3125 0.400010049
v 0.5 -0.3125 0.400010049
v -0.400009751 -0.3125 0.5
v 0.400009751 -0.3125 0.5
v 0.5 -0.5 -0.400010049
v 0.400009751 -0.5 -0.5
v -0.400009751 -0.5 -0.5
v -0.5 -0.5 -0.400010049
v 0.5 -0.5 0.400010049
v -0.5 -0.5 0.400010049
v 0.400009751 -0.5 0.5
v -0.400009751 -0.5 0.5
v -0.5 0.5 -0.400010049
v -0.5 0.3125 -0.400010049
v -0.400009751 0.3125 -0.5
v -0.400009751 0.5 -0.5
v -0.5 0.3125 0.400010049
v -0.5 0.5 0.400010049
v -0.400009751 0.5 0.5
v -0.400009751 0.3125 0.5
v 0.400009751 0.3125 0.5
v 0.400009751 0.5 0.5
v 0.5 0.5 0.400010049
v 0.5 0.3125 0.400010049
v 0.400009751 0.5 -0.5
v 0.400009751 0.3125 -0.5
v 0.5 0.3125 -0.400010049
v 0.5 0.5 -0.400010049
v 0.5 -0.5 -0.400010049
v 0.5 -0.3125 -0.400010049
v 0.400009751 -0.3125 -0.5
v 0.400009751 -0.5 -0.5
v 0.5 -0.3125 0.400010049
v 0.5 -0.5 0.400010049
v 0.400009751 -0.5 0.5
v 0.400009751 -0.3125 0.5
v -0.400009751 -0.3125 0.5
v -0.400009751 -0.5 0.5
v -0.5 -0.5 0.400010049
v -0.5 -0.3125 0.400010049
v -0.400009751 -0.5 -0.5
v -0.400009751 -0.3125 -0.5
v -0.5 -0.3125 -0.400010049
v -0.5 -0.5 -0.400010049
vt 0.718147218 0.993755341
vt 0.718147218 0.813081145
vt 0.49463281 0.813081145
vt 0.494632751 0.993755341
vt 0.494632751 0.993755341
vt 0.49463281 0.813081145
vt 0.718147218 0.813081145
vt 0.718147218 0.993755341
vt 0.718147218 0.993755341
vt 0.718147218 0.813081145
vt 0.49463281 0.813081145
vt 0.49463281 0.993755341
vt 0.718147397 0.993755341
vt 0.718147218 0.813081145
vt 0.49463281 0.813081145
vt 0.494632751 0.993755341
vt 0.49463281 0.813081145
vt 0.718147218 0.813081145
vt 0.718147099 0.688174844
vt 0.494632691 0.688174725
vt 0.49463281 0.813081145
vt 0.718147218 0.813081086
vt 0.718147159 0.688174784
vt 0.494632751 0.688174725
vt 0.718147039 0.688174844
vt 0.494632572 0.688174725
vt 0.494632691 0.813081205
vt 0.718147099 0.813081205
vt 0.718147159 0.688174784
vt 0.494632751 0.688174725
vt 0.49463281 0.813081145
vt 0.718147218 0.813081145
vt 0.862585366 0.621759534
vt 0.862585366 0.391550541
vt 0.792306006 0.401019573
vt 0.792306006 0.626978755
vt 0.862585366 0.625492752
vt 0.862585366 0.387642264
vt 0.792306006 0.401019901
vt 0.792306006 0.626978517
vt 0.862585366 0.625492752
vt 0.862585366 0.387642205
vt 0.792306006 0.401019275
vt 0.792306006 0.62697649
vt 0.862585366 0.625492752
vt 0.862585366 0.387642324
vt 0.792306006 0.401019752
vt 0.792306006 0.626978934
vt 0.862585366 0.626251638
vt 0.862585366 0.392049611
vt 0.792306006 0.400955051
vt 0.792306006 0.626397133
vt 0.862585366 0.625492752
vt 0.862585366 0.387642324
vt 0.792306006 0.401019752
vt 0.792306006 0.626978517
vt 0.862585366 0.625979125
vt 0.862585366 0.392026037
vt 0.792306006 0.401258558
vt 0.792306006 0.625899673
vt 0.862585366 0.625492752
vt 0.862585366 0.387642384
vt 0.792306006 0.401019573
vt 0.792306006 0.626978755
vt 0.781444609 0.423744202
vt 0.753951788 0.39618367
vt 0.53369391 0.396172345
vt 0.506024241 0.423731208
vt 0.781493545 0.644194543
vt 0.505929887 0.644175649
vt 0.753941536 0.671746612
vt 0.533457398 0.671734214
vt 0.505958915 0.644189179
vt 0.533512235 0.671742439
vt 0.753965855 0.671742439
vt 0.781519294 0.644189119
vt 0.505958915 0.42373544
vt 0.781519294 0.42373538
vt 0.533512235 0.396182209
vt 0.753965974 0.39618215
vt 0.781444609 0.423744202
vt 0.753946185 0.396183938
vt 0.53332907 0.39618966
vt 0.505893588 0.423737407
vt 0.781493545 0.644194543
vt 0.505888224 0.644177616
vt 0.753941536 0.671746612
vt 0.533457398 0.671734214
vt 0.505958915 0.644189119
vt 0.533512235 0.671742439
vt 0.753965855 0.671742439
vt 0.781519294 0.644189179
vt 0.505958915 0.42373538
vt 0.781519294 0.42373544
vt 0.533512235 0.39618215
vt 0.753965974 0.396182209
vt 0.862585366 0.621759534
vt 0.792306006 0.626978755
vt 0.792306006 0.655220211
vt 0.862585366 0.650532186
vt 0.792306006 0.401019573
vt 0.862585366 0.391550541
vt 0.862585366 0.362778097
vt 0.792306006 0.372778237
vt 0.792306006 0.401019901
vt 0.862585366 0.387642264
vt 0.862585366 0.357914627
vt 0.792306006 0.372778475
vt 0.862585366 0.357914686
vt 0.792306006 0.372778118
vt 0.792306006 0.401019275
vt 0.862585366 0.387642205
vt 0.862585366 0.626251638
vt 0.792306006 0.626397133
vt 0.792306006 0.654573858
vt 0.862585366 0.655523241
vt 0.792306006 0.400955051
vt 0.862585366 0.392049611
vt 0.862585366 0.362778008
vt 0.792306006 0.372778296
vt 0.792306006 0.401019752
vt 0.862585366 0.387642324
vt 0.862585366 0.357914627
vt 0.792306006 0.372778356
vt 0.862585366 0.362785578
vt 0.792306006 0.37318188
vt 0.792306006 0.401258558
vt 0.862585366 0.392026037
vn -0 0 1
vn -0 0 1
vn -0 0 1
vn -0 0 1
vn -0 0 -1
vn -0 0 -1
vn -0 0 -1
vn -0 0 -1
vn 1 0 0
vn 1 0 0
vn 1 0 0
vn 1 0 0
vn -1 0 0
vn -1 0 0
vn -1 0 0
vn -1 0 0
vn -0.707105219 0 0.707108259
vn -0.707105219 0 0.707108259
vn -0.707105219 0 0.707108259
vn -0.707105219 0 0.707108259
vn 0.707105219 0 0.707108259
vn 0.707105219 0 0.707108259
vn 0.707105219 0 0.707108259
vn 0.707105219 0 0.707108259
vn -0.7071051 0 -0.707108378
vn -0.7071051 0 -0.707108378
vn -0.7071051 0 -0.707108378
vn -0.7071051 0 -0.707108378
vn 0.7071051 0 -0.707108378
vn 0.7071051 0 -0.707108378
vn 0.7071051 0 -0.707108378
vn 0.7071051 0 -0.707108378
vn -1 0 0
vn -1 0 0
vn -1 0 0
vn -1 0 0
vn -0 0 1
vn -0 0 1
vn -0 0 1
vn -0 0 1
vn 1 0 0
vn 1 0 0
vn 1 0 0
vn 1 0 0
vn -0 0 -1
vn -0 0 -1
vn -0 0 -1
vn -0 0 -1
vn 1 0 0
vn 1 0 0
vn 1 0 0
vn 1 0 0
vn -0 0 1
vn -0 0 1
vn -0 0 1
vn -0 0 1
vn -1 0 0
vn -1 0 0
vn -1 0 0
vn -1 0 0
vn -0 0 -1
vn -0 0 -1
vn -0 0 -1
vn -0 0 -1
vn -0 -1 0
vn -0 -1 0
vn -0 -1 0
vn -0 -1 0
vn -0 -1 0
vn -0 -1 0
vn -0 -1 0
vn -0 -1 0
vn -0 1 0
vn -0 1 0
vn -0 1 0
vn -0 1 0
vn -0 1 0
vn -0 1 0
vn -0 1 0
vn -0 1 0
vn -0 1 0
vn -0 1 0
vn -0 1 0
vn -0 1 0
vn -0 1 0
vn -0 1 0
vn -0 1 0
vn -0 1 0
vn -0 -1 0
vn -0 -1 0
vn -0 -1 0
vn -0 -1 0
vn -0 -1 0
vn -0 -1 0
vn -0 -1 0
vn -0 -1 0
vn -0.707105815 0 -0.707107723
vn -0.707105815 0 -0.707107723
vn -0.707105815 0 -0.707107723
vn -0.707105815 0 -0.707107723
vn -0.707105577 0 0.707107961
vn -0.707105577 0 0.707107961
vn -0.707105577 0 0.707107961
vn -0.707105577 0 0.707107961
vn 0.707105577 0 0.707107961
vn 0.707105577 0 0.707107961
vn 0.707105577 0 0.707107961
vn 0.707105577 0 0.707107961
vn 0.707105815 0 -0.707107723
vn 0.707105815 0 -0.707107723
vn 0.707105815 0 -0.707107723
vn 0.707105815 0 -0.707107723
vn 0.707105815 0 -0.707107723
vn 0.707105815 0 -0.707107723
vn 0.707105815 0 -0.707107723
vn 0.707105815 0 -0.707107723
vn 0.707105577 0 0.707107961
vn 0.707105577 0 0.707107961
vn 0.707105577 0 0.707107961
vn 0.707105577 0 0.707107961
vn -0.707105577 0 0.707107961
vn -0.707105577 0 0.707107961
vn -0.707105577 0 0.707107961
vn -0.707105577 0 0.707107961
vn -0.707105815 0 -0.707107723
vn -0.707105815 0 -0.707107723
vn -0.707105815 0 -0.707107723
vn -0.707105815 0 -0.707107723
g ColumnSingle_0
f 3/3/3 2/2/2 1/1/1
f 4/4/4 3/3/3 1/1/1
f 7/7/7 6/6/6 5/5/5
f 8/8/8 7/7/7 5/5/5
f 11/11/11 10/10/10 9/9/9
f 12/12/12 11/11/11 9/9/9
f 15/15/15 14/14/14 13/13/13
f 16/16/16 15/15/15 13/13/13
f 19/19/19 18/18/18 17/17/17
f 20/20/20 19/19/19 17/17/17
f 23/23/23 22/22/22 21/21/21
f 24/24/24 23/23/23 21/21/21
f 27/27/27 26/26/26 25/25/25
f 28/28/28 27/27/27 25/25/25
f 31/31/31 30/30/30 29/29/29
f 32/32/32 31/31/31 29/29/29
f 35/35/35 34/34/34 33/33/33
f 36/36/36 35/35/35 33/33/33
f 39/39/39 38/38/38 37/37/37
f 40/40/40 39/39/39 37/37/37
f 43/43/43 42/42/42 41/41/41
f 44/44/44 43/43/43 41/41/41
f 47/47/47 46/46/46 45/45/45
f 48/48/48 47/47/47 45/45/45
f 51/51/51 50/50/50 49/49/49
f 52/52/52 51/51/51 49/49/49
f 55/55/55 54/54/54 53/53/53
f 56/56/56 55/55/55 53/53/53
f 59/59/59 58/58/58 57/57/57
f 60/60/60 59/59/59 57/57/57
f 63/63/63 62/62/62 61/61/61
f 64/64/64 63/63/63 61/61/61
f 67/67/67 66/66/66 65/65/65
f 65/65/65 68/68/68 67/67/67
f 65/65/65 69/69/69 68/68/68
f 69/69/69 70/70/70 68/68/68
f 69/69/69 71/71/71 70/70/70
f 71/71/71 72/72/72 70/70/70
f 75/75/75 74/74/74 73/73/73
f 73/73/73 76/76/76 75/75/75
f 73/73/73 77/77/77 76/76/76
f 77/77/77 78/78/78 76/76/76
f 77/77/77 79/79/79 78/78/78
f 79/79/79 80/80/80 78/78/78
f 83/83/83 82/82/82 81/81/81
f 81/81/81 84/84/84 83/83/83
f 81/81/81 85/85/85 84/84/84
f 85/85/85 86/86/86 84/84/84
f 85/85/85 87/87/87 86/86/86
f 87/87/87 88/88/88 86/86/86
f 91/91/91 90/90/90 89/89/89
f 89/89/89 92/92/92 91/91/91
f 89/89/89 93/93/93 92/92/92
f 93/93/93 94/94/94 92/92/92
f 93/93/93 95/95/95 94/94/94
f 95/95/95 96/96/96 94/94/94
f 99/99/99 98/98/98 97/97/97
f 100/100/100 99/99/99 97/97/97
f 103/103/103 102/102/102 101/101/101
f 104/104/104 103/103/103 101/101/101
f 107/107/107 106/106/106 105/105/105
f 108/108/108 107/107/107 105/105/105
f 111/111/111 110/110/110 109/109/109
f 112/112/112 111/111/111 109/109/109
f 115/115/115 114/114/114 113/113/113
f 116/116/116 115/115/115 113/113/113
f 119/119/119 118/118/118 117/117/117
f 120/120/120 119/119/119 117/117/117
f 123/123/123 122/122/122 121/121/121
f 124/124/124 123/123/123 121/121/121
f 127/127/127 126/126/126 125/125/125
f 128/128/128 127/127/127 125/125/125
