g ColumnTop
v -0.5 0.5 -0.400010049
v -0.5 0.5 0.400010049
v -0.5 0.3125 0.400010049
v -0.5 0.3125 -0.400010049
v -0.400009751 0.5 0.5
v 0.400009751 0.5 0.5
v 0.400009751 0.3125 0.5
v -0.400009751 0.3125 0.5
v 0.5 0.5 0.400010049
v 0.5 0.5 -0.400010049
v 0.5 0.3125 -0.400010049
v 0.5 0.3125 0.400010049
v 0.400009751 0.5 -0.5
v -0.400009751 0.5 -0.5
v -0.400009751 0.3125 -0.5
v 0.400009751 0.3125 -0.5
v -0.214306638 0.3125 0.428571463
v 0.214306638 0.3125 0.428571463
v 0.214306638 -0.5 0.428571463
v -0.214306638 -0.5 0.428571463
v -0.214306638 -0.5 -0.428571463
v 0.214306638 -0.5 -0.428571463
v 0.214306638 0.3125 -0.428571463
v -0.214306638 0.3125 -0.428571463
v 0.428571761 0.3125 0.214307249
v 0.428571761 0.3125 -0.214307249
v 0.428571761 -0.5 -0.214307249
v 0.428571761 -0.5 0.214307249
v -0.428571761 0.3125 -0.214307249
v -0.428571761 0.3125 0.214307249
v -0.428571761 -0.5 0.214307249
v -0.428571761 -0.5 -0.214307249
v -0.428571761 -0.5 0.214307249
v -0.428571761 0.3125 0.214307249
v -0.214306638 0.3125 0.428571463
v -0.214306638 -0.5 0.428571463
v 0.214306638 -0.5 0.428571463
v 0.214306638 0.3125 0.428571463
v 0.428571761 0.3125 0.214307249
v 0.428571761 -0.5 0.214307249
v -0.428571761 0.3125 -0.214307249
v -0.428571761 -0.5 -0.214307249
v -0.214306638 -0.5 -0.428571463
v -0.214306638 0.3125 -0.428571463
v 0.214306638 0.3125 -0.428571463
v 0.214306638 -0.5 -0.428571463
v 0.428571761 -0.5 -0.214307249
v 0.428571761 0.3125 -0.214307249
v 0.5 0.3125 -0.400010049
v 0.400009751 0.3125 -0.5
v -0.400009751 0.3125 -0.5
v -0.5 0.3125 -0.400010049
v 0.5 0.3125 0.400010049
v -0.5 0.3125 0.400010049
v 0.400009751 0.3125 0.5
v -0.400009751 0.3125 0.5
v -0.5 0.5 -0.400010049
v -0.400009751 0.5 -0.5
v 0.400009751 0.5 -0.5
v 0.5 0.5 -0.400010049
v -0.5 0.5 0.400010049
v 0.5 0.5 0.400010049
v -0.400009751 0.5 0.5
v 0.400009751 0.5 0.5
v -0.5 0.5 -0.400010049
v -0.5 0.3125 -0.400010049
v -0.400009751 0.3125 -0.5
v -0.400009751 0.5 -0.5
v -0.5 0.3125 0.400010049
v -0.5 0.5 0.400010049
v -0.400009751 0.5 0.5
v -0.400009751 0.3125 0.5
v 0.400009751 0.3125 0.5
v 0.400009751 0.5 0.5
v 0.5 0.5 0.400010049
v 0.5 0.3125 0.400010049
v 0.400009751 0.5 -0.5
v 0.400009751 0.3125 -0.5
v 0.5 0.3125 -0.400010049
v 0.5 0.5 -0.400010049
vt 0.862585366 0.621584237
vt 0.862585366 0.391375273
vt 0.792306006 0.386076689
vt 0.792306006 0.611402512
vt 0.862585366 0.626775861
vt 0.862585366 0.392108023
vt 0.792306006 0.386057049
vt 0.792306006 0.611225128
vt 0.862585366 0.625492752
vt 0.862585366 0.387642205
vt 0.792306006 0.385041028
vt 0.792306006 0.611991107
vt 0.862585366 0.625492752
vt 0.862585366 0.387642264
vt 0.792306006 0.387641847
vt 0.792306006 0.625492275
vt 0.718147218 0.993755341
vt 0.718147218 0.813081145
vt 0.42757836 0.813081145
vt 0.42757836 0.993755341
vt 0.42757836 0.993755341
vt 0.42757836 0.813081145
vt 0.718147218 0.813081145
vt 0.718147218 0.993755341
vt 0.718147218 0.993755341
vt 0.718147218 0.813081145
vt 0.42757836 0.813081145
vt 0.42757836 0.993755341
vt 0.718147397 0.993755341
vt 0.718147218 0.813081145
vt 0.42757836 0.813081145
vt 0.42757836 0.993755341
vt 0.42757836 0.813081145
vt 0.718147218 0.813081145
vt 0.718147099 0.688174844
vt 0.42757836 0.688174725
vt 0.42757836 0.813081145
vt 0.718147218 0.813081086
vt 0.718147159 0.688174784
vt 0.42757836 0.688174725
vt 0.718147039 0.688174844
vt 0.42757836 0.688174725
vt 0.42757836 0.813081145
vt 0.718147099 0.813081205
vt 0.718147159 0.688174784
vt 0.42757836 0.688174725
vt 0.42757836 0.813081145
vt 0.718147218 0.813081145
vt 0.781593263 0.423726559
vt 0.753984809 0.396180421
vt 0.533695161 0.396192908
vt 0.506016016 0.423740566
vt 0.781512678 0.644183695
vt 0.505951822 0.64420259
vt 0.753951073 0.671738267
vt 0.533478856 0.671750665
vt 0.505959749 0.644189298
vt 0.533513188 0.671742558
vt 0.753966212 0.671742558
vt 0.781519413 0.644189239
vt 0.505958915 0.423735887
vt 0.781518936 0.42373538
vt 0.533512115 0.396182626
vt 0.753965497 0.396182179
vt 0.862585366 0.621584237
vt 0.792306006 0.611402512
vt 0.792306006 0.639564812
vt 0.862585366 0.650356829
vt 0.792306006 0.386076689
vt 0.862585366 0.391375273
vt 0.862585366 0.36260277
vt 0.792306006 0.357914567
vt 0.792306006 0.386057049
vt 0.862585366 0.392108023
vt 0.862585366 0.362778008
vt 0.792306006 0.357914507
vt 0.862585366 0.357914686
vt 0.792306006 0.356675833
vt 0.792306006 0.385041028
vt 0.862585366 0.387642205
vn -1 0 0
vn -1 0 0
vn -1 0 0
vn -1 0 0
vn -0 0 1
vn -0 0 1
vn -0 0 1
vn -0 0 1
vn 1 0 0
vn 1 0 0
vn 1 0 0
vn 1 0 0
vn -0 0 -1
vn -0 0 -1
vn -0 0 -1
vn -0 0 -1
vn -0 0 1
vn -0 0 1
vn -0 0 1
vn -0 0 1
vn -0 0 -1
vn -0 0 -1
vn -0 0 -1
vn -0 0 -1
vn 1 0 0
vn 1 0 0
vn 1 0 0
vn 1 0 0
vn -1 0 0
vn -1 0 0
vn -1 0 0
vn -1 0 0
vn -0.70710516 0 0.707108378
vn -0.70710516 0 0.707108378
vn -0.70710516 0 0.707108378
vn -0.70710516 0 0.707108378
vn 0.70710516 0 0.707108378
vn 0.70710516 0 0.707108378
vn 0.70710516 0 0.707108378
vn 0.70710516 0 0.707108378
vn -0.707105398 0 -0.70710814
vn -0.707105398 0 -0.70710814
vn -0.707105398 0 -0.70710814
vn -0.707105398 0 -0.70710814
vn 0.707105398 0 -0.70710814
vn 0.707105398 0 -0.70710814
vn 0.707105398 0 -0.70710814
vn 0.707105398 0 -0.70710814
vn -0 -1 0
vn -0 -1 0
vn -0 -1 0
vn -0 -1 0
vn -0 -1 0
vn -0 -1 0
vn -0 -1 0
vn -0 -1 0
vn -0 1 0
vn -0 1 0
vn -0 1 0
vn -0 1 0
vn -0 1 0
vn -0 1 0
vn -0 1 0
vn -0 1 0
vn -0.707105815 0 -0.707107723
vn -0.707105815 0 -0.707107723
vn -0.707105815 0 -0.707107723
vn -0.707105815 0 -0.707107723
vn -0.707105577 0 0.707107961
vn -0.707105577 0 0.707107961
vn -0.707105577 0 0.707107961
vn -0.707105577 0 0.707107961
vn 0.707105577 0 0.707107961
vn 0.707105577 0 0.707107961
vn 0.707105577 0 0.707107961
vn 0.707105577 0 0.707107961
vn 0.707105815 0 -0.707107723
vn 0.707105815 0 -0.707107723
vn 0.707105815 0 -0.707107723
vn 0.707105815 0 -0.707107723
g ColumnTop_0
f 3/3/3 2/2/2 1/1/1
f 4/4/4 3/3/3 1/1/1
f 7/7/7 6/6/6 5/5/5
f 8/8/8 7/7/7 5/5/5
f 11/11/11 10/10/10 9/9/9
f 12/12/12 11/11/11 9/9/9
f 15/15/15 14/14/14 13/13/13
f 16/16/16 15/15/15 13/13/13
f 19/19/19 18/18/18 17/17/17
f 20/20/20 19/19/19 17/17/17
f 23/23/23 22/22/22 21/21/21
f 24/24/24 23/23/23 21/21/21
f 27/27/27 26/26/26 25/25/25
f 28/28/28 27/27/27 25/25/25
f 31/31/31 30/30/30 29/29/29
f 32/32/32 31/31/31 29/29/29
f 35/35/35 34/34/34 33/33/33
f 36/36/36 35/35/35 33/33/33
f 39/39/39 38/38/38 37/37/37
f 40/40/40 39/39/39 37/37/37
f 43/43/43 42/42/42 41/41/41
f 44/44/44 43/43/43 41/41/41
f 47/47/47 46/46/46 45/45/45
f 48/48/48 47/47/47 45/45/45
f 51/51/51 50/50/50 49/49/49
f 49/49/49 52/52/52 51/51/51
f 49/49/49 53/53/53 52/52/52
f 53/53/53 54/54/54 52/52/52
f 53/53/53 55/55/55 54/54/54
f 55/55/55 56/56/56 54/54/54
f 59/59/59 58/58/58 57/57/57
f 57/57/57 60/60/60 59/59/59
f 57/57/57 61/61/61 60/60/60
f 61/61/61 62/62/62 60/60/60
f 61/61/61 63/63/63 62/62/62
f 63/63/63 64/64/64 62/62/62
f 67/67/67 66/66/66 65/65/65
f 68/68/68 67/67/67 65/65/65
f 71/71/71 70/70/70 69/69/69
f 72/72/72 71/71/71 69/69/69
f 75/75/75 74/74/74 73/73/73
f 76/76/76 75/75/75 73/73/73
f 79/79/79 78/78/78 77/77/77
f 80/80/80 79/79/79 77/77/77
