g ColumnMiddle
v -0.214307249 0.5 0.428571463
v 0.214307249 0.5 0.428571463
v 0.214307249 -0.5 0.428571463
v -0.214307249 -0.5 0.428571463
v -0.214307249 -0.5 -0.428571463
v 0.214307249 -0.5 -0.428571463
v 0.214307249 0.5 -0.428571463
v -0.214307249 0.5 -0.428571463
v 0.428571761 0.5 0.214307249
v 0.428571761 0.5 -0.214307249
v 0.428571761 -0.5 -0.214307249
v 0.428571761 -0.5 0.214307249
v -0.428571761 0.5 -0.214307249
v -0.428571761 0.5 0.214307249
v -0.428571761 -0.5 0.214307249
v -0.428571761 -0.5 -0.214307249
v -0.428571761 -0.5 0.214307249
v -0.428571761 0.5 0.214307249
v -0.214307249 0.5 0.428571463
v -0.214307249 -0.5 0.428571463
v 0.214307249 -0.5 0.428571463
v 0.214307249 0.5 0.428571463
v 0.428571761 0.5 0.214307249
v 0.428571761 -0.5 0.214307249
v -0.428571761 0.5 -0.214307249
v -0.428571761 -0.5 -0.214307249
v -0.214307249 -0.5 -0.428571463
v -0.214307249 0.5 -0.428571463
v 0.214307249 0.5 -0.428571463
v 0.214307249 -0.5 -0.428571463
v 0.428571761 -0.5 -0.214307249
v 0.428571761 0.5 -0.214307249
vt 0.78466773 0.993755341
vt 0.78466773 0.813081145
vt 0.42757836 0.813081145
vt 0.42757836 0.993755341
vt 0.42757836 0.993755341
vt 0.42757836 0.813081145
vt 0.78466773 0.813081145
vt 0.78466773 0.993755341
vt 0.78466773 0.993755341
vt 0.78466773 0.813081145
vt 0.42757836 0.813081145
vt 0.42757836 0.993755341
vt 0.78466773 0.993755341
vt 0.78466773 0.813081145
vt 0.42757836 0.813081145
vt 0.42757836 0.993755341
vt 0.42757836 0.813081145
vt 0.78466773 0.813081145
vt 0.78466773 0.688174844
vt 0.42757836 0.688174725
vt 0.42757836 0.813081145
vt 0.78466773 0.813081145
vt 0.78466773 0.688174844
vt 0.42757836 0.688174725
vt 0.78466773 0.688174844
vt 0.42757836 0.688174725
vt 0.42757836 0.813081145
vt 0.78466773 0.813081145
vt 0.78466773 0.688174844
vt 0.42757836 0.688174725
vt 0.42757836 0.813081145
vt 0.78466773 0.813081145
vn -0 0 1
vn -0 0 1
vn -0 0 1
vn -0 0 1
vn -0 0 -1
vn -0 0 -1
vn -0 0 -1
vn -0 0 -1
vn 1 0 0
vn 1 0 0
vn 1 0 0
vn 1 0 0
vn -1 0 0
vn -1 0 0
vn -1 0 0
vn -1 0 0
vn -0.707106352 0 0.707107127
vn -0.707106352 0 0.707107127
vn -0.707106352 0 0.707107127
vn -0.707106352 0 0.707107127
vn 0.707106352 0 0.707107127
vn 0.707106352 0 0.707107127
vn 0.707106352 0 0.707107127
vn 0.707106352 0 0.707107127
vn -0.707106352 0 -0.707107127
vn -0.707106352 0 -0.707107127
vn -0.707106352 0 -0.707107127
vn -0.707106352 0 -0.707107127
vn 0.707106352 0 -0.707107127
vn 0.707106352 0 -0.707107127
vn 0.707106352 0 -0.707107127
vn 0.707106352 0 -0.707107127
g ColumnMiddle_0
f 3/3/3 2/2/2 1/1/1
f 4/4/4 3/3/3 1/1/1
f 7/7/7 6/6/6 5/5/5
f 8/8/8 7/7/7 5/5/5
f 11/11/11 10/10/10 9/9/9
f 12/12/12 11/11/11 9/9/9
f 15/15/15 14/14/14 13/13/13
f 16/16/16 15/15/15 13/13/13
f 19/19/19 18/18/18 17/17/17
f 20/20/20 19/19/19 17/17/17
f 23/23/23 22/22/22 21/21/21
f 24/24/24 23/23/23 21/21/21
f 27/27/27 26/26/26 25/25/25
f 28/28/28 27/27/27 25/25/25
f 31/31/31 30/30/30 29/29/29
f 32/32/32 31/31/31 29/29/29
