g FloorCorner
v 0.375 -0.241832808 -0.375
v 0.375 -0.241832808 0.5
v 0.375 0.241832808 0.5
v 0.375 0.241832808 -0.375
v -0.5 -0.241832808 -0.375
v 0.375 -0.241832808 -0.375
v 0.375 0.241832808 -0.375
v -0.5 0.241832808 -0.375
v -0.5 -0.241832808 -0.5
v 0.375 -0.241832808 -0.375
v -0.5 -0.241832808 -0.375
v 0.375012517 -0.241832808 -0.5
v 0.5 -0.241832808 -0.375012517
v 0.375 0.241832808 -0.375
v 0.5 0.241832808 -0.375012517
v 0.375012517 0.241832808 -0.5
v -0.5 0.241832808 -0.375
v -0.5 0.241832808 -0.5
v 0.5 -0.241832808 0.5
v 0.375 -0.241832808 0.5
v 0.375 -0.241832808 -0.375
v 0.5 -0.241832808 -0.375012517
v 0.375 0.241832808 0.5
v 0.5 0.241832808 0.5
v 0.5 0.241832808 -0.375012517
v 0.375 0.241832808 -0.375
v -0.5 -0.5 -0.5
v 0.375012517 -0.5 -0.5
v 0.375012517 -0.241832808 -0.5
v -0.5 -0.241832808 -0.5
v -0.5 0.241832808 -0.5
v 0.375012517 0.241832808 -0.5
v 0.375012517 0.5 -0.5
v -0.5 0.5 -0.5
v -0.5 0.5 -0.375
v 0.375 0.5 -0.375
v 0.375 0.5 0.5
v -0.5 0.5 0.5
v 0.375012517 0.5 -0.5
v 0.5 0.5 -0.375012517
v 0.375 0.5 -0.375
v -0.5 0.5 -0.5
v -0.5 0.5 -0.375
v -0.5 -0.5 -0.375
v 0.375012517 -0.5 -0.5
v -0.5 -0.5 -0.5
v 0.375 -0.5 -0.375
v 0.5 -0.5 -0.375012517
v 0.5 -0.5 0.5
v 0.5 -0.241832808 0.5
v 0.5 -0.241832808 -0.375012517
v 0.5 -0.5 -0.375012517
v 0.5 0.241832808 0.5
v 0.5 0.5 0.5
v 0.5 0.5 -0.375012517
v 0.5 0.241832808 -0.375012517
v 0.5 0.5 0.5
v 0.375 0.5 0.5
v 0.375 0.5 -0.375
v 0.5 0.5 -0.375012517
v 0.375 -0.5 0.5
v 0.5 -0.5 0.5
v 0.5 -0.5 -0.375012517
v 0.375 -0.5 -0.375
v 0.375 -0.5 -0.375
v -0.5 -0.5 -0.375
v -0.5 -0.5 0.5
v 0.375 -0.5 0.5
v 0.5 0.241832808 -0.375012517
v 0.5 0.5 -0.375012517
v 0.375012517 0.5 -0.5
v 0.375012517 0.241832808 -0.5
v 0.375012517 -0.241832808 -0.5
v 0.375012517 -0.5 -0.5
v 0.5 -0.5 -0.375012517
v 0.5 -0.241832808 -0.375012517
v 0.141805723 -0.217651948 -0.375
v 0.179182738 -0.241832808 -0.375
v 0.179182738 -0.241832808 -0.387745351
v 0.141805723 -0.217651948 -0.406435847
v 0.136439517 -0.193471089 -0.375
v 0.248694152 -0.241832808 -0.457256764
v 0.136439517 -0.193471089 -0.409119248
v 0.230003655 -0.217651948 -0.494634092
v 0.318219602 -0.241832808 -0.457256764
v 0.227320552 -0.193471089 -0.500000298
v 0.318219602 -0.217651948 -0.494633943
v 0.318219602 -0.193471089 -0.500000119
v 0.136439517 0.195450202 -0.375
v 0.136439517 -0.193471089 -0.375
v 0.136439517 -0.193471089 -0.409119248
v 0.136439517 0.19545044 -0.409119248
v 0.141805723 0.221853673 -0.375
v 0.141805723 0.221853837 -0.409119248
v 0.179182738 0.241832808 -0.409119248
v 0.179182738 0.241832808 -0.375
v 0.318219602 -0.193471089 -0.500000119
v 0.227320552 0.195450202 -0.500000298
v 0.227320552 -0.193471089 -0.500000298
v 0.318219602 0.195450202 -0.500000119
v 0.227320552 0.221853673 -0.494634092
v 0.318219602 0.221853673 -0.494633943
v 0.227320552 0.241832808 -0.457256764
v 0.318219602 0.241832808 -0.457256764
v 0.227320552 -0.193471089 -0.500000298
v 0.136439517 0.19545044 -0.409119248
v 0.136439517 -0.193471089 -0.409119248
v 0.227320552 0.195450202 -0.500000298
v 0.141805723 0.221853837 -0.409119248
v 0.227320552 0.221853673 -0.494634092
v 0.179182738 0.241832808 -0.409119248
v 0.227320552 0.241832808 -0.457256764
v 0.318219602 -0.217651948 -0.494633943
v 0.318219602 -0.241832808 -0.457256764
v 0.387745053 -0.241832808 -0.457256764
v 0.406435549 -0.217651948 -0.494633764
v 0.318219602 -0.193471089 -0.500000119
v 0.457256466 -0.241832808 -0.387745351
v 0.40911895 -0.193471089 -0.5
v 0.494633764 -0.217651948 -0.406435847
v 0.457256466 -0.241832808 -0.3182199
v 0.5 -0.193471089 -0.40911895
v 0.494633764 -0.217651948 -0.3182199
v 0.5 -0.193471089 -0.3182199
v 0.318219602 0.195450202 -0.500000119
v 0.318219602 -0.193471089 -0.500000119
v 0.40911895 -0.193471089 -0.5
v 0.40911895 0.19545044 -0.5
v 0.318219602 0.221853673 -0.494633943
v 0.40911895 0.221853837 -0.494633764
v 0.40911895 0.241832808 -0.457256764
v 0.318219602 0.241832808 -0.457256764
v 0.5 -0.193471089 -0.3182199
v 0.5 0.195450202 -0.40911895
v 0.5 -0.193471089 -0.40911895
v 0.5 0.195450202 -0.3182199
v 0.494633764 0.221853673 -0.40911895
v 0.494633764 0.221853673 -0.3182199
v 0.457256466 0.241832808 -0.40911895
v 0.457256466 0.241832808 -0.3182199
v 0.5 -0.193471089 -0.40911895
v 0.40911895 0.19545044 -0.5
v 0.40911895 -0.193471089 -0.5
v 0.5 0.195450202 -0.40911895
v 0.40911895 0.221853837 -0.494633764
v 0.494633764 0.221853673 -0.40911895
v 0.40911895 0.241832808 -0.457256764
v 0.457256466 0.241832808 -0.40911895
v 0.494633764 -0.217651948 -0.3182199
v 0.457256466 -0.241832808 -0.3182199
v 0.457256466 -0.241832808 -0.24869445
v 0.494633466 -0.217651948 -0.230003968
v 0.5 -0.193471089 -0.3182199
v 0.387745053 -0.241832808 -0.179183036
v 0.499999672 -0.193471089 -0.227320552
v 0.406435549 -0.217651948 -0.141805723
v 0.375 -0.241832808 -0.179183036
v 0.409118652 -0.193471089 -0.136439517
v 0.375 -0.217651948 -0.141805723
v 0.375 -0.193471089 -0.136439517
v 0.5 0.195450202 -0.3182199
v 0.5 -0.193471089 -0.3182199
v 0.499999672 -0.193471089 -0.227320552
v 0.499999672 0.19545044 -0.227320552
v 0.494633764 0.221853673 -0.3182199
v 0.494633466 0.221853837 -0.227320552
v 0.457256466 0.241832808 -0.227320552
v 0.457256466 0.241832808 -0.3182199
v 0.375 -0.193471089 -0.136439517
v 0.409118652 0.195450202 -0.136439517
v 0.409118652 -0.193471089 -0.136439517
v 0.375 0.195450202 -0.136439517
v 0.409118652 0.221853673 -0.141805723
v 0.375 0.221853673 -0.141805723
v 0.409118652 0.241832808 -0.179183036
v 0.375 0.241832808 -0.179183036
v 0.409118652 -0.193471089 -0.136439517
v 0.499999672 0.19545044 -0.227320552
v 0.499999672 -0.193471089 -0.227320552
v 0.409118652 0.195450202 -0.136439517
v 0.494633466 0.221853837 -0.227320552
v 0.409118652 0.221853673 -0.141805723
v 0.457256466 0.241832808 -0.227320552
v 0.409118652 0.241832808 -0.179183036
vt 0.847401977 0.0451463088
vt 0.847401738 0.047483027
vt 0.848691463 0.0474830307
vt 0.848691642 0.0451463088
vt 0.847401738 0.0448165014
vt 0.847401738 0.0471532233
vt 0.848691463 0.0471532196
vt 0.848691404 0.0448165014
vt 0.862585366 0.677762747
vt 0.792306006 0.377960026
vt 0.792306006 0.67031461
vt 0.862585366 0.384156883
vt 0.792306006 0.358564556
vt 0.862585366 0.622459173
vt 0.862585366 0.639911652
vt 0.792306006 0.6184358
vt 0.862585366 0.358726501
vt 0.792306006 0.354699373
vt 0.862585366 0.342528701
vt 0.792306006 0.335266173
vt 0.792306006 0.627933323
vt 0.862585366 0.635682166
vt 0.862585366 0.660135329
vt 0.792306006 0.656108201
vt 0.792306006 0.392371714
vt 0.862585366 0.396402597
vt 0.0148505215 0.991301715
vt 0.35889864 0.991301715
vt 0.35889852 0.841220081
vt 0.0148505215 0.841220081
vt 0.41007024 0.991301715
vt 0.0639922619 0.991301715
vt 0.0639922321 0.841220081
vt 0.41007024 0.841220081
vt 0.942885816 0.0521909334
vt 0.942885816 0.0521909334
vt 0.942885816 0.0521909334
vt 0.942885816 0.0521909334
vt 0.862585366 0.384156823
vt 0.792306006 0.357501268
vt 0.792306006 0.377960026
vt 0.862585366 0.677762747
vt 0.792306006 0.670244873
vt 0.862585366 0.358508527
vt 0.792306006 0.617487669
vt 0.792306006 0.355963647
vt 0.862585366 0.624144912
vt 0.862585366 0.660711944
vt 0.41007024 0.991301715
vt 0.41007024 0.841220081
vt 0.0639925003 0.841220081
vt 0.0639923885 0.991301715
vt 0.0148505215 0.991301715
vt 0.0148505215 0.841220081
vt 0.358898461 0.841220081
vt 0.358898461 0.991301715
vt 0.862585366 0.342633486
vt 0.792306006 0.33578378
vt 0.792306006 0.627933323
vt 0.862585366 0.635587335
vt 0.862585366 0.660776138
vt 0.792306006 0.656142473
vt 0.792306006 0.392580688
vt 0.862585366 0.394716948
vt 0.942885816 0.0521909334
vt 0.942885816 0.0521909334
vt 0.942885816 0.0521909334
vt 0.942885816 0.0521909334
vt 0.0148505215 0.991301715
vt 0.0148505215 0.841220081
vt 0.0639922321 0.841220081
vt 0.0639922619 0.991301715
vt 0.35889852 0.841220081
vt 0.35889864 0.991301715
vt 0.41007024 0.991301715
vt 0.41007024 0.841220081
vt 0.0449833423 0.238290533
vt 0.0504323691 0.21879369
vt 0.0568973236 0.218793631
vt 0.0559379719 0.238290578
vt 0.0398230627 0.24892424
vt 0.101008981 0.218793631
vt 0.0529015698 0.24892433
vt 0.101995908 0.238290578
vt 0.130988613 0.218793631
vt 0.104944408 0.24892433
vt 0.133666739 0.238290578
vt 0.139287129 0.24892433
vt 0.0399356596 0.421548724
vt 0.0399356596 0.24892433
vt 0.0529015698 0.24892433
vt 0.0529015698 0.421548843
vt 0.0414353386 0.43326807
vt 0.0548691638 0.43326807
vt 0.0641084984 0.442135781
vt 0.0464036837 0.442135751
vt 0.139287129 0.24892433
vt 0.104944408 0.421548754
vt 0.104944408 0.24892433
vt 0.139287129 0.421548754
vt 0.103481077 0.433268011
vt 0.139805362 0.433268011
vt 0.0966164246 0.442135811
vt 0.139287114 0.442135751
vt 0.104944408 0.24892433
vt 0.0529015698 0.421548843
vt 0.0529015698 0.24892433
vt 0.104944408 0.421548754
vt 0.0548691638 0.43326807
vt 0.103481077 0.433268011
vt 0.0641084984 0.442135781
vt 0.0966164246 0.442135811
vt 0.133243755 0.238290548
vt 0.13053675 0.218793631
vt 0.10056892 0.218793631
vt 0.101528265 0.238290548
vt 0.139107987 0.248924345
vt 0.056457255 0.218793631
vt 0.104564667 0.248924345
vt 0.0554703288 0.238290548
vt 0.0264776107 0.218793631
vt 0.0525218286 0.248924345
vt 0.0237994995 0.238290548
vt 0.0181791019 0.248924345
vt 0.139107987 0.421548754
vt 0.139107987 0.248924345
vt 0.104564667 0.248924345
vt 0.104564667 0.421548843
vt 0.139805332 0.433268011
vt 0.102597073 0.43326807
vt 0.0933577418 0.442135781
vt 0.139107928 0.442135811
vt 0.0181791019 0.248924345
vt 0.0525218286 0.421548754
vt 0.0525218286 0.248924345
vt 0.0181791019 0.421548754
vt 0.053985171 0.433268011
vt 0.0176608842 0.433268011
vt 0.0608498119 0.442135811
vt 0.0181791335 0.442135751
vt 0.0525218286 0.248924345
vt 0.104564667 0.421548843
vt 0.104564667 0.248924345
vt 0.0525218286 0.421548754
vt 0.102597073 0.43326807
vt 0.053985171 0.433268011
vt 0.0933577418 0.442135781
vt 0.0608498119 0.442135811
vt 0.0242224745 0.238290578
vt 0.026929494 0.218793631
vt 0.0568973236 0.218793631
vt 0.0559379719 0.238290578
vt 0.0183582567 0.24892433
vt 0.101008981 0.218793631
vt 0.0529015698 0.24892433
vt 0.101995908 0.238290578
vt 0.107485168 0.21879369
vt 0.104944408 0.24892433
vt 0.112931214 0.238290533
vt 0.117938109 0.24892424
vt 0.0183582567 0.421548754
vt 0.0183582567 0.24892433
vt 0.0529015698 0.24892433
vt 0.0529015698 0.421548843
vt 0.0176608972 0.433268011
vt 0.0548691638 0.43326807
vt 0.0641084984 0.442135781
vt 0.0183583088 0.442135811
vt 0.117834844 0.248924345
vt 0.104944408 0.421548754
vt 0.104944408 0.24892433
vt 0.117834844 0.421548754
vt 0.103481077 0.433268011
vt 0.116719715 0.43326807
vt 0.0966164246 0.442135811
vt 0.113028288 0.442135781
vt 0.104944408 0.24892433
vt 0.0529015698 0.421548843
vt 0.0529015698 0.24892433
vt 0.104944408 0.421548754
vt 0.0548691638 0.43326807
vt 0.103481077 0.433268011
vt 0.0641084984 0.442135781
vt 0.0966164246 0.442135811
vn 1 0 0
vn 1 0 0
vn 1 0 0
vn 1 0 0
vn -0 0 -1
vn -0 0 -1
vn -0 0 -1
vn -0 0 -1
vn -0 1 0
vn -0 1 0
vn -0 1 0
vn -0 1 0
vn -0 1 0
vn -0 -1 0
vn -0 -1 0
vn -0 -1 0
vn -0 -1 0
vn -0 -1 0
vn -0 1 0
vn -0 1 0
vn -0 1 0
vn -0 1 0
vn -0 -1 0
vn -0 -1 0
vn -0 -1 0
vn -0 -1 0
vn -0 0 -1
vn -0 0 -1
vn -0 0 -1
vn -0 0 -1
vn -0 0 -1
vn -0 0 -1
vn -0 0 -1
vn -0 0 -1
vn -0 1 0
vn -0 1 0
vn -0 1 0
vn -0 1 0
vn -0 1 0
vn -0 1 0
vn -0 1 0
vn -0 1 0
vn -0 1 0
vn -0 -1 0
vn -0 -1 0
vn -0 -1 0
vn -0 -1 0
vn -0 -1 0
vn 1 0 0
vn 1 0 0
vn 1 0 0
vn 1 0 0
vn 1 0 0
vn 1 0 0
vn 1 0 0
vn 1 0 0
vn -0 1 0
vn -0 1 0
vn -0 1 0
vn -0 1 0
vn -0 -1 0
vn -0 -1 0
vn -0 -1 0
vn -0 -1 0
vn -0 -1 0
vn -0 -1 0
vn -0 -1 0
vn -0 -1 0
vn 0.707106829 0 -0.70710665
vn 0.707106829 0 -0.70710665
vn 0.707106829 0 -0.70710665
vn 0.707106829 0 -0.70710665
vn 0.707106829 0 -0.70710665
vn 0.707106829 0 -0.70710665
vn 0.707106829 0 -0.70710665
vn 0.707106829 0 -0.70710665
vn -0.798115611 -0.602504313 0
vn -0.543179154 -0.839616776 0
vn -0.402344942 -0.861447096 -0.309883088
vn -0.618302405 -0.632269681 -0.466837257
vn -0.976246834 -0.216661423 0
vn -0.218271792 -0.865528762 -0.450796276
vn -0.782256186 -0.237503275 -0.5759058
vn -0.346594185 -0.641864061 -0.684019685
vn -0 -0.839615464 -0.5431813
vn -0.437725186 -0.240810633 -0.86626029
vn 5.73235752E-07 -0.644012332 -0.765015125
vn 1.37574091E-06 -0.216649249 -0.976249456
vn -0.999916553 0.0129194902 0
vn -1 0 0
vn -1 0 0
vn -0.999916553 0.012919697 0
vn -0.73536557 0.677670538 2.30437604E-06
vn -0.735364199 0.677672148 2.30437922E-06
vn -0.471407145 0.881915748 2.63803986E-06
vn -0.471407145 0.881915748 2.63803986E-06
vn 1.38117332E-06 0 -1
vn 1.6165778E-07 0.0129194856 -0.999916553
vn -0 0 -1
vn 1.45491867E-06 0.0129194483 -0.999916553
vn 1.06455821E-06 0.6776703 -0.735365868
vn 1.06455775E-06 0.677670121 -0.735366046
vn -0 0.881915748 -0.471407145
vn -0 0.881915748 -0.471407145
vn -0.707106054 0 -0.707107544
vn -0.707082629 0.00812861044 -0.70708406
vn -0.707106054 0 -0.707107544
vn -0.70708257 0.00812857505 -0.707084179
vn -0.652823508 0.384240776 -0.652825117
vn -0.652823567 0.38424021 -0.652825177
vn -0.426400036 0.797725022 -0.426401049
vn -0.426400036 0.797725022 -0.426400989
vn 5.73235752E-07 -0.644012332 -0.765015125
vn -0 -0.839615464 -0.5431813
vn 0.218271971 -0.86552763 -0.450798452
vn 0.346592933 -0.641864359 -0.684020042
vn 1.37574091E-06 -0.216649249 -0.976249456
vn 0.450796664 -0.865528762 -0.218271196
vn 0.437726736 -0.240816325 -0.866257846
vn 0.684018731 -0.641865432 -0.346593589
vn 0.543177068 -0.839618206 5.43231408E-07
vn 0.866258562 -0.240816981 -0.437725186
vn 0.765013278 -0.644014537 1.04794435E-06
vn 0.97625035 -0.216645464 1.65518736E-06
vn 1.45491867E-06 0.0129194483 -0.999916553
vn 1.38117332E-06 0 -1
vn 2.76234186E-06 0 -1
vn 2.74817307E-06 0.0129194884 -0.999916553
vn 1.06455775E-06 0.677670121 -0.735366046
vn 1.06455491E-06 0.677670538 -0.735365629
vn -0 0.881915748 -0.471407145
vn -0 0.881915748 -0.471407145
vn 1 0 1.67864766E-06
vn 0.999916553 0.0129196718 0
vn 1 0 0
vn 0.999916553 0.0129193123 1.66399661E-06
vn 0.73536545 0.677670777 0
vn 0.735364497 0.677671731 5.40596034E-07
vn 0.471408069 0.881915212 0
vn 0.47140485 0.88191694 0
vn 0.707106054 0 -0.707107484
vn 0.707082748 0.00812903047 -0.707084
vn 0.707106054 0 -0.707107484
vn 0.707082689 0.00812899601 -0.70708406
vn 0.652825415 0.384240061 -0.652823508
vn 0.652825594 0.384239525 -0.652823627
vn 0.426405698 0.797720015 -0.426404744
vn 0.426405698 0.797720015 -0.426404744
vn 0.765013278 -0.644014537 1.04794435E-06
vn 0.543177068 -0.839618206 5.43231408E-07
vn 0.450795561 -0.865529299 0.218271077
vn 0.684018731 -0.641865611 0.34659341
vn 0.97625035 -0.216645464 1.65518736E-06
vn 0.309884101 -0.861447334 0.402343601
vn 0.866258681 -0.240809426 0.43772912
vn 0.466838777 -0.632270753 0.618300319
vn -0 -0.839618146 0.543177187
vn 0.57590574 -0.237504661 0.782255769
vn -0 -0.602506101 0.798114181
vn -0 -0.216649905 0.976249337
vn 0.999916553 0.0129193123 1.66399661E-06
vn 1 0 1.67864766E-06
vn 1 0 3.35729055E-06
vn 0.999916553 0.0129190423 3.32798572E-06
vn 0.735364497 0.677671731 5.40596034E-07
vn 0.735362351 0.677674115 1.08118479E-06
vn 0.471401542 0.881918728 -1.98036602E-07
vn 0.47140485 0.88191694 0
vn -0 0 1
vn -0 0.0129193887 0.999916553
vn -0 0 1
vn -0 0.0129193887 0.999916553
vn -0 0.677671552 0.735364676
vn -0 0.677671552 0.735364676
vn -0 0.881916702 0.471405387
vn -0 0.881916702 0.471405387
vn 0.707107008 0 0.707106531
vn 0.707083642 0.00812892988 0.707083166
vn 0.707107008 0 0.707106531
vn 0.707083642 0.00812889263 0.707083046
vn 0.652823389 0.384242147 0.652824342
vn 0.652823448 0.384241551 0.652824521
vn 0.426399738 0.797724247 0.426402718
vn 0.426399767 0.797724247 0.426402718
g FloorCorner_0
f 3/3/3 2/2/2 1/1/1
f 4/4/4 3/3/3 1/1/1
f 7/7/7 6/6/6 5/5/5
f 8/8/8 7/7/7 5/5/5
f 11/11/11 10/10/10 9/9/9
f 10/10/10 12/12/12 9/9/9
f 10/10/10 13/13/13 12/12/12
f 16/16/16 15/15/15 14/14/14
f 16/16/16 14/14/14 17/17/17
f 18/18/18 16/16/16 17/17/17
f 21/21/21 20/20/20 19/19/19
f 22/22/22 21/21/21 19/19/19
f 25/25/25 24/24/24 23/23/23
f 26/26/26 25/25/25 23/23/23
f 29/29/29 28/28/28 27/27/27
f 30/30/30 29/29/29 27/27/27
f 33/33/33 32/32/32 31/31/31
f 34/34/34 33/33/33 31/31/31
f 37/37/37 36/36/36 35/35/35
f 38/38/38 37/37/37 35/35/35
f 41/41/41 40/40/40 39/39/39
f 41/41/41 39/39/39 42/42/42
f 43/43/43 41/41/41 42/42/42
f 46/46/46 45/45/45 44/44/44
f 45/45/45 47/47/47 44/44/44
f 45/45/45 48/48/48 47/47/47
f 51/51/51 50/50/50 49/49/49
f 52/52/52 51/51/51 49/49/49
f 55/55/55 54/54/54 53/53/53
f 56/56/56 55/55/55 53/53/53
f 59/59/59 58/58/58 57/57/57
f 60/60/60 59/59/59 57/57/57
f 63/63/63 62/62/62 61/61/61
f 64/64/64 63/63/63 61/61/61
f 67/67/67 66/66/66 65/65/65
f 68/68/68 67/67/67 65/65/65
f 71/71/71 70/70/70 69/69/69
f 72/72/72 71/71/71 69/69/69
f 75/75/75 74/74/74 73/73/73
f 76/76/76 75/75/75 73/73/73
f 79/79/79 78/78/78 77/77/77
f 80/80/80 79/79/79 77/77/77
f 80/80/80 77/77/77 81/81/81
f 82/82/82 79/79/79 80/80/80
f 83/83/83 80/80/80 81/81/81
f 84/84/84 82/82/82 80/80/80
f 84/84/84 80/80/80 83/83/83
f 85/85/85 82/82/82 84/84/84
f 86/86/86 84/84/84 83/83/83
f 87/87/87 85/85/85 84/84/84
f 87/87/87 84/84/84 86/86/86
f 88/88/88 87/87/87 86/86/86
f 91/91/91 90/90/90 89/89/89
f 92/92/92 91/91/91 89/89/89
f 92/92/92 89/89/89 93/93/93
f 94/94/94 92/92/92 93/93/93
f 94/94/94 93/93/93 95/95/95
f 93/93/93 96/96/96 95/95/95
f 99/99/99 98/98/98 97/97/97
f 98/98/98 100/100/100 97/97/97
f 98/98/98 101/101/101 100/100/100
f 101/101/101 102/102/102 100/100/100
f 101/101/101 103/103/103 102/102/102
f 103/103/103 104/104/104 102/102/102
f 107/107/107 106/106/106 105/105/105
f 106/106/106 108/108/108 105/105/105
f 106/106/106 109/109/109 108/108/108
f 109/109/109 110/110/110 108/108/108
f 109/109/109 111/111/111 110/110/110
f 111/111/111 112/112/112 110/110/110
f 115/115/115 114/114/114 113/113/113
f 116/116/116 115/115/115 113/113/113
f 116/116/116 113/113/113 117/117/117
f 118/118/118 115/115/115 116/116/116
f 119/119/119 116/116/116 117/117/117
f 120/120/120 118/118/118 116/116/116
f 120/120/120 116/116/116 119/119/119
f 121/121/121 118/118/118 120/120/120
f 122/122/122 120/120/120 119/119/119
f 123/123/123 121/121/121 120/120/120
f 123/123/123 120/120/120 122/122/122
f 124/124/124 123/123/123 122/122/122
f 127/127/127 126/126/126 125/125/125
f 128/128/128 127/127/127 125/125/125
f 128/128/128 125/125/125 129/129/129
f 130/130/130 128/128/128 129/129/129
f 130/130/130 129/129/129 131/131/131
f 129/129/129 132/132/132 131/131/131
f 135/135/135 134/134/134 133/133/133
f 134/134/134 136/136/136 133/133/133
f 134/134/134 137/137/137 136/136/136
f 137/137/137 138/138/138 136/136/136
f 137/137/137 139/139/139 138/138/138
f 139/139/139 140/140/140 138/138/138
f 143/143/143 142/142/142 141/141/141
f 142/142/142 144/144/144 141/141/141
f 142/142/142 145/145/145 144/144/144
f 145/145/145 146/146/146 144/144/144
f 145/145/145 147/147/147 146/146/146
f 147/147/147 148/148/148 146/146/146
f 151/151/151 150/150/150 149/149/149
f 152/152/152 151/151/151 149/149/149
f 152/152/152 149/149/149 153/153/153
f 154/154/154 151/151/151 152/152/152
f 155/155/155 152/152/152 153/153/153
f 156/156/156 154/154/154 152/152/152
f 156/156/156 152/152/152 155/155/155
f 157/157/157 154/154/154 156/156/156
f 158/158/158 156/156/156 155/155/155
f 159/159/159 157/157/157 156/156/156
f 159/159/159 156/156/156 158/158/158
f 160/160/160 159/159/159 158/158/158
f 163/163/163 162/162/162 161/161/161
f 164/164/164 163/163/163 161/161/161
f 164/164/164 161/161/161 165/165/165
f 166/166/166 164/164/164 165/165/165
f 166/166/166 165/165/165 167/167/167
f 165/165/165 168/168/168 167/167/167
f 171/171/171 170/170/170 169/169/169
f 170/170/170 172/172/172 169/169/169
f 170/170/170 173/173/173 172/172/172
f 173/173/173 174/174/174 172/172/172
f 173/173/173 175/175/175 174/174/174
f 175/175/175 176/176/176 174/174/174
f 179/179/179 178/178/178 177/177/177
f 178/178/178 180/180/180 177/177/177
f 178/178/178 181/181/181 180/180/180
f 181/181/181 182/182/182 180/180/180
f 181/181/181 183/183/183 182/182/182
f 183/183/183 184/184/184 182/182/182
