g FloorSolo
v -0.37500304 -0.241832808 -0.375
v 0.375 -0.241832808 -0.37500304
v 0.375 0.241832808 -0.37500304
v -0.37500304 0.241832808 -0.375
v -0.375006109 -0.241832808 -0.5
v 0.375 -0.241832808 -0.37500304
v -0.37500304 -0.241832808 -0.375
v 0.375012189 -0.241832808 -0.5
v 0.5 -0.241832808 -0.375006109
v -0.375006109 -0.5 -0.5
v 0.375012189 -0.5 -0.5
v 0.375012189 -0.241832808 -0.5
v -0.375006109 -0.241832808 -0.5
v -0.375012189 0.241832808 -0.5
v 0.375012189 0.241832808 -0.5
v 0.375012189 0.5 -0.5
v -0.375012189 0.5 -0.5
v -0.375004262 -0.5 -0.375
v 0.375012189 -0.5 -0.5
v -0.375006109 -0.5 -0.5
v 0.375 -0.5 -0.37500304
v 0.5 -0.5 -0.375006109
v -0.375012189 0.5 -0.5
v 0.375 0.5 -0.37500304
v -0.375004262 0.5 -0.375
v 0.375012189 0.5 -0.5
v 0.5 0.5 -0.375012189
v -0.37500304 0.241832808 -0.375
v 0.375012189 0.241832808 -0.5
v -0.375012189 0.241832808 -0.5
v 0.375 0.241832808 -0.37500304
v 0.5 0.241832808 -0.375012189
v -0.375 -0.241832808 0.375003666
v -0.37500304 -0.241832808 -0.375
v -0.37500304 0.241832808 -0.375
v -0.375 0.241832808 0.375003666
v -0.5 -0.241832808 0.375006109
v -0.37500304 -0.241832808 -0.375
v -0.375 -0.241832808 0.375003666
v -0.5 -0.241832808 -0.375012189
v -0.375006109 -0.241832808 -0.5
v -0.5 -0.5 0.375006109
v -0.5 -0.5 -0.375012189
v -0.5 -0.241832808 -0.375012189
v -0.5 -0.241832808 0.375006109
v -0.5 0.241832808 0.375012189
v -0.5 0.241832808 -0.375012189
v -0.5 0.5 -0.375012189
v -0.5 0.5 0.375012189
v -0.375 -0.5 0.375004262
v -0.5 -0.5 -0.375012189
v -0.5 -0.5 0.375006109
v -0.375004262 -0.5 -0.375
v -0.375006109 -0.5 -0.5
v -0.5 0.5 0.375012189
v -0.375004262 0.5 -0.375
v -0.375 0.5 0.375004262
v -0.5 0.5 -0.375012189
v -0.375012189 0.5 -0.5
v -0.375 0.241832808 0.375003666
v -0.5 0.241832808 -0.375012189
v -0.5 0.241832808 0.375012189
v -0.37500304 0.241832808 -0.375
v -0.375012189 0.241832808 -0.5
v -0.375 0.241832808 0.375003666
v -0.5 0.241832808 0.375012189
v -0.375012189 0.241832808 0.5
v 0.37500304 0.241832808 0.375
v 0.375012189 0.241832808 0.5
v -0.375012189 0.5 0.5
v -0.5 0.5 0.375012189
v -0.375 0.5 0.375004262
v 0.375012189 0.5 0.5
v 0.37500304 0.5 0.375001222
v -0.5 0.241832808 0.375012189
v -0.5 0.5 0.375012189
v -0.375012189 0.5 0.5
v -0.375012189 0.241832808 0.5
v -0.375012189 -0.241832808 0.5
v -0.375012189 -0.5 0.5
v -0.5 -0.5 0.375006109
v -0.5 -0.241832808 0.375006109
v -0.14180541 -0.217651948 0.375
v -0.179182738 -0.241832808 0.375
v -0.179182738 -0.241832808 0.387745351
v -0.14180541 -0.217651948 0.406435549
v -0.136439204 -0.193471089 0.375
v -0.248693839 -0.241832808 0.457257062
v -0.136439204 -0.193471089 0.409119248
v -0.230003655 -0.217651948 0.494633764
v -0.318219602 -0.241832808 0.457257062
v -0.227320552 -0.193471089 0.5
v -0.318219602 -0.217651948 0.494633764
v -0.318219602 -0.193471089 0.5
v -0.136439204 0.195450202 0.375
v -0.136439204 -0.193471089 0.375
v -0.136439204 -0.193471089 0.409119248
v -0.136439204 0.19545044 0.409119248
v -0.14180541 0.221853673 0.375
v -0.14180541 0.221853837 0.409119248
v -0.179182738 0.241832808 0.409119248
v -0.179182738 0.241832808 0.375
v -0.318219602 -0.193471089 0.5
v -0.227320552 0.195450202 0.5
v -0.227320552 -0.193471089 0.5
v -0.318219602 0.195450202 0.5
v -0.227320552 0.221853673 0.494633764
v -0.318219602 0.221853673 0.494633764
v -0.227320552 0.241832808 0.457257062
v -0.318219602 0.241832808 0.457257062
v -0.227320552 -0.193471089 0.5
v -0.136439204 0.19545044 0.409119248
v -0.136439204 -0.193471089 0.409119248
v -0.227320552 0.195450202 0.5
v -0.14180541 0.221853837 0.409119248
v -0.227320552 0.221853673 0.494633764
v -0.179182738 0.241832808 0.409119248
v -0.227320552 0.241832808 0.457257062
v -0.318219602 -0.217651948 0.494633764
v -0.318219602 -0.241832808 0.457257062
v -0.387745351 -0.241832808 0.457257062
v -0.406435549 -0.217651948 0.494633764
v -0.318219602 -0.193471089 0.5
v -0.457256466 -0.241832808 0.387745351
v -0.409118652 -0.193471089 0.5
v -0.494633764 -0.217651948 0.406435549
v -0.457256466 -0.241832808 0.318220198
v -0.5 -0.193471089 0.409118652
v -0.494633764 -0.217651948 0.318220198
v -0.5 -0.193471089 0.318220198
v -0.318219602 0.195450202 0.5
v -0.318219602 -0.193471089 0.5
v -0.409118652 -0.193471089 0.5
v -0.409118652 0.19545044 0.5
v -0.318219602 0.221853673 0.494633764
v -0.409118652 0.221853837 0.494633764
v -0.409118652 0.241832808 0.457257062
v -0.318219602 0.241832808 0.457257062
v -0.5 -0.193471089 0.318220198
v -0.5 0.195450202 0.409118652
v -0.5 -0.193471089 0.409118652
v -0.5 0.195450202 0.318220198
v -0.494633764 0.221853673 0.409118652
v -0.494633764 0.221853673 0.318220198
v -0.457256466 0.241832808 0.409118652
v -0.457256466 0.241832808 0.318220198
v -0.5 -0.193471089 0.409118652
v -0.409118652 0.19545044 0.5
v -0.409118652 -0.193471089 0.5
v -0.5 0.195450202 0.409118652
v -0.409118652 0.221853837 0.494633764
v -0.494633764 0.221853673 0.409118652
v -0.409118652 0.241832808 0.457257062
v -0.457256466 0.241832808 0.409118652
v -0.494633764 -0.217651948 0.318220198
v -0.457256466 -0.241832808 0.318220198
v -0.457256466 -0.241832808 0.24869445
v -0.494633764 -0.217651948 0.230003655
v -0.5 -0.193471089 0.318220198
v -0.387745351 -0.241832808 0.179183349
v -0.5 -0.193471089 0.227320552
v -0.406435549 -0.217651948 0.14180541
v -0.375 -0.241832808 0.179183349
v -0.409118652 -0.193471089 0.136439204
v -0.375 -0.217651948 0.14180541
v -0.375 -0.193471089 0.136439204
v -0.5 0.195450202 0.318220198
v -0.5 -0.193471089 0.318220198
v -0.5 -0.193471089 0.227320552
v -0.5 0.19545044 0.227320552
v -0.494633764 0.221853673 0.318220198
v -0.494633764 0.221853837 0.227320552
v -0.457256466 0.241832808 0.227320552
v -0.457256466 0.241832808 0.318220198
v -0.375 -0.193471089 0.136439204
v -0.409118652 0.195450202 0.136439204
v -0.409118652 -0.193471089 0.136439204
v -0.375 0.195450202 0.136439204
v -0.409118652 0.221853673 0.14180541
v -0.375 0.221853673 0.14180541
v -0.409118652 0.241832808 0.179183349
v -0.375 0.241832808 0.179183349
v -0.409118652 -0.193471089 0.136439204
v -0.5 0.19545044 0.227320552
v -0.5 -0.193471089 0.227320552
v -0.409118652 0.195450202 0.136439204
v -0.494633764 0.221853837 0.227320552
v -0.409118652 0.221853673 0.14180541
v -0.457256466 0.241832808 0.227320552
v -0.409118652 0.241832808 0.179183349
v -0.375 -0.5 0.375004262
v -0.5 -0.5 0.375006109
v -0.375012189 -0.5 0.5
v 0.37500304 -0.5 0.375001222
v 0.375006109 -0.5 0.5
v -0.375012189 -0.241832808 0.5
v -0.5 -0.241832808 0.375006109
v -0.375 -0.241832808 0.375003666
v 0.375006109 -0.241832808 0.5
v 0.37500304 -0.241832808 0.375
v 0.5 0.241832808 -0.375012189
v 0.5 0.5 -0.375012189
v 0.375012189 0.5 -0.5
v 0.375012189 0.241832808 -0.5
v 0.375012189 -0.241832808 -0.5
v 0.375012189 -0.5 -0.5
v 0.5 -0.5 -0.375006109
v 0.5 -0.241832808 -0.375006109
v 0.14180541 -0.217651948 -0.375
v 0.179182738 -0.241832808 -0.375
v 0.179182738 -0.241832808 -0.387745351
v 0.14180541 -0.217651948 -0.406435549
v 0.136439204 -0.193471089 -0.375
v 0.248693839 -0.241832808 -0.457257062
v 0.136439204 -0.193471089 -0.409119248
v 0.230003655 -0.217651948 -0.494633764
v 0.318219602 -0.241832808 -0.457257062
v 0.227320552 -0.193471089 -0.5
v 0.318219602 -0.217651948 -0.494633764
v 0.318219602 -0.193471089 -0.5
v 0.136439204 0.195450202 -0.375
v 0.136439204 -0.193471089 -0.375
v 0.136439204 -0.193471089 -0.409119248
v 0.136439204 0.19545044 -0.409119248
v 0.14180541 0.221853673 -0.375
v 0.14180541 0.221853837 -0.409119248
v 0.179182738 0.241832808 -0.409119248
v 0.179182738 0.241832808 -0.375
v 0.318219602 -0.193471089 -0.5
v 0.227320552 0.195450202 -0.5
v 0.227320552 -0.193471089 -0.5
v 0.318219602 0.195450202 -0.5
v 0.227320552 0.221853673 -0.494633764
v 0.318219602 0.221853673 -0.494633764
v 0.227320552 0.241832808 -0.457257062
v 0.318219602 0.241832808 -0.457257062
v 0.227320552 -0.193471089 -0.5
v 0.136439204 0.19545044 -0.409119248
v 0.136439204 -0.193471089 -0.409119248
v 0.227320552 0.195450202 -0.5
v 0.14180541 0.221853837 -0.409119248
v 0.227320552 0.221853673 -0.494633764
v 0.179182738 0.241832808 -0.409119248
v 0.227320552 0.241832808 -0.457257062
v 0.318219602 -0.217651948 -0.494633764
v 0.318219602 -0.241832808 -0.457257062
v 0.387745351 -0.241832808 -0.457257062
v 0.406435549 -0.217651948 -0.494633764
v 0.318219602 -0.193471089 -0.5
v 0.457256466 -0.241832808 -0.387745351
v 0.409118652 -0.193471089 -0.5
v 0.494633764 -0.217651948 -0.406435549
v 0.457256466 -0.241832808 -0.318220198
v 0.5 -0.193471089 -0.409118652
v 0.494633764 -0.217651948 -0.318220198
v 0.5 -0.193471089 -0.318220198
v 0.318219602 0.195450202 -0.5
v 0.318219602 -0.193471089 -0.5
v 0.409118652 -0.193471089 -0.5
v 0.409118652 0.19545044 -0.5
v 0.318219602 0.221853673 -0.494633764
v 0.409118652 0.221853837 -0.494633764
v 0.409118652 0.241832808 -0.457257062
v 0.318219602 0.241832808 -0.457257062
v 0.5 -0.193471089 -0.318220198
v 0.5 0.195450202 -0.409118652
v 0.5 -0.193471089 -0.409118652
v 0.5 0.195450202 -0.318220198
v 0.494633764 0.221853673 -0.409118652
v 0.494633764 0.221853673 -0.318220198
v 0.457256466 0.241832808 -0.409118652
v 0.457256466 0.241832808 -0.318220198
v 0.5 -0.193471089 -0.409118652
v 0.409118652 0.19545044 -0.5
v 0.409118652 -0.193471089 -0.5
v 0.5 0.195450202 -0.409118652
v 0.409118652 0.221853837 -0.494633764
v 0.494633764 0.221853673 -0.409118652
v 0.409118652 0.241832808 -0.457257062
v 0.457256466 0.241832808 -0.409118652
v 0.494633764 -0.217651948 -0.318220198
v 0.457256466 -0.241832808 -0.318220198
v 0.457256466 -0.241832808 -0.24869445
v 0.494633764 -0.217651948 -0.230003655
v 0.5 -0.193471089 -0.318220198
v 0.387745351 -0.241832808 -0.179183349
v 0.5 -0.193471089 -0.227320552
v 0.406435549 -0.217651948 -0.14180541
v 0.375 -0.241832808 -0.179183349
v 0.409118652 -0.193471089 -0.136439204
v 0.375 -0.217651948 -0.14180541
v 0.375 -0.193471089 -0.136439204
v 0.5 0.195450202 -0.318220198
v 0.5 -0.193471089 -0.318220198
v 0.5 -0.193471089 -0.227320552
v 0.5 0.19545044 -0.227320552
v 0.494633764 0.221853673 -0.318220198
v 0.494633764 0.221853837 -0.227320552
v 0.457256466 0.241832808 -0.227320552
v 0.457256466 0.241832808 -0.318220198
v 0.375 -0.193471089 -0.136439204
v 0.409118652 0.195450202 -0.136439204
v 0.409118652 -0.193471089 -0.136439204
v 0.375 0.195450202 -0.136439204
v 0.409118652 0.221853673 -0.14180541
v 0.375 0.221853673 -0.14180541
v 0.409118652 0.241832808 -0.179183349
v 0.375 0.241832808 -0.179183349
v 0.409118652 -0.193471089 -0.136439204
v 0.5 0.19545044 -0.227320552
v 0.5 -0.193471089 -0.227320552
v 0.409118652 0.195450202 -0.136439204
v 0.494633764 0.221853837 -0.227320552
v 0.409118652 0.221853673 -0.14180541
v 0.457256466 0.241832808 -0.227320552
v 0.409118652 0.241832808 -0.179183349
v -0.375012189 0.241832808 -0.5
v -0.375012189 0.5 -0.5
v -0.5 0.5 -0.375012189
v -0.5 0.241832808 -0.375012189
v -0.5 -0.241832808 -0.375012189
v -0.5 -0.5 -0.375012189
v -0.375006109 -0.5 -0.5
v -0.375006109 -0.241832808 -0.5
v -0.375 -0.217651948 -0.14180541
v -0.375 -0.241832808 -0.179182738
v -0.387745351 -0.241832808 -0.179182738
v -0.406435549 -0.217651948 -0.14180541
v -0.375 -0.193471089 -0.136439204
v -0.457257062 -0.241832808 -0.248693839
v -0.409119248 -0.193471089 -0.136439204
v -0.494633764 -0.217651948 -0.230003655
v -0.457257062 -0.241832808 -0.318219602
v -0.5 -0.193471089 -0.227320552
v -0.494633764 -0.217651948 -0.318219602
v -0.5 -0.193471089 -0.318219602
v -0.375 0.195450202 -0.136439204
v -0.375 -0.193471089 -0.136439204
v -0.409119248 -0.193471089 -0.136439204
v -0.409119248 0.19545044 -0.136439204
v -0.375 0.221853673 -0.14180541
v -0.409119248 0.221853837 -0.14180541
v -0.409119248 0.241832808 -0.179182738
v -0.375 0.241832808 -0.179182738
v -0.5 -0.193471089 -0.318219602
v -0.5 0.195450202 -0.227320552
v -0.5 -0.193471089 -0.227320552
v -0.5 0.195450202 -0.318219602
v -0.494633764 0.221853673 -0.227320552
v -0.494633764 0.221853673 -0.318219602
v -0.457257062 0.241832808 -0.227320552
v -0.457257062 0.241832808 -0.318219602
v -0.5 -0.193471089 -0.227320552
v -0.409119248 0.19545044 -0.136439204
v -0.409119248 -0.193471089 -0.136439204
v -0.5 0.195450202 -0.227320552
v -0.409119248 0.221853837 -0.14180541
v -0.494633764 0.221853673 -0.227320552
v -0.409119248 0.241832808 -0.179182738
v -0.457257062 0.241832808 -0.227320552
v -0.494633764 -0.217651948 -0.318219602
v -0.457257062 -0.241832808 -0.318219602
v -0.457257062 -0.241832808 -0.387745351
v -0.494633764 -0.217651948 -0.406435549
v -0.5 -0.193471089 -0.318219602
v -0.387745351 -0.241832808 -0.457256466
v -0.5 -0.193471089 -0.409118652
v -0.406435549 -0.217651948 -0.494633764
v -0.318220198 -0.241832808 -0.457256466
v -0.409118652 -0.193471089 -0.5
v -0.318220198 -0.217651948 -0.494633764
v -0.318220198 -0.193471089 -0.5
v -0.5 0.195450202 -0.318219602
v -0.5 -0.193471089 -0.318219602
v -0.5 -0.193471089 -0.409118652
v -0.5 0.19545044 -0.409118652
v -0.494633764 0.221853673 -0.318219602
v -0.494633764 0.221853837 -0.409118652
v -0.457257062 0.241832808 -0.409118652
v -0.457257062 0.241832808 -0.318219602
v -0.318220198 -0.193471089 -0.5
v -0.409118652 0.195450202 -0.5
v -0.409118652 -0.193471089 -0.5
v -0.318220198 0.195450202 -0.5
v -0.409118652 0.221853673 -0.494633764
v -0.318220198 0.221853673 -0.494633764
v -0.409118652 0.241832808 -0.457256466
v -0.318220198 0.241832808 -0.457256466
v -0.409118652 -0.193471089 -0.5
v -0.5 0.19545044 -0.409118652
v -0.5 -0.193471089 -0.409118652
v -0.409118652 0.195450202 -0.5
v -0.494633764 0.221853837 -0.409118652
v -0.409118652 0.221853673 -0.494633764
v -0.457257062 0.241832808 -0.409118652
v -0.409118652 0.241832808 -0.457256466
v -0.318220198 -0.217651948 -0.494633764
v -0.318220198 -0.241832808 -0.457256466
v -0.24869445 -0.241832808 -0.457256466
v -0.230003655 -0.217651948 -0.494633764
v -0.318220198 -0.193471089 -0.5
v -0.179183349 -0.241832808 -0.387745351
v -0.227320552 -0.193471089 -0.5
v -0.14180541 -0.217651948 -0.406435549
v -0.179183349 -0.241832808 -0.375
v -0.136439204 -0.193471089 -0.409118652
v -0.14180541 -0.217651948 -0.375
v -0.136439204 -0.193471089 -0.375
v -0.318220198 0.195450202 -0.5
v -0.318220198 -0.193471089 -0.5
v -0.227320552 -0.193471089 -0.5
v -0.227320552 0.19545044 -0.5
v -0.318220198 0.221853673 -0.494633764
v -0.227320552 0.221853837 -0.494633764
v -0.227320552 0.241832808 -0.457256466
v -0.318220198 0.241832808 -0.457256466
v -0.136439204 -0.193471089 -0.375
v -0.136439204 0.195450202 -0.409118652
v -0.136439204 -0.193471089 -0.409118652
v -0.136439204 0.195450202 -0.375
v -0.14180541 0.221853673 -0.409118652
v -0.14180541 0.221853673 -0.375
v -0.179183349 0.241832808 -0.409118652
v -0.179183349 0.241832808 -0.375
v -0.136439204 -0.193471089 -0.409118652
v -0.227320552 0.19545044 -0.5
v -0.227320552 -0.193471089 -0.5
v -0.136439204 0.195450202 -0.409118652
v -0.227320552 0.221853837 -0.494633764
v -0.14180541 0.221853673 -0.409118652
v -0.227320552 0.241832808 -0.457256466
v -0.179183349 0.241832808 -0.409118652
v 0.37500304 -0.241832808 0.375
v -0.375 -0.241832808 0.375003666
v -0.375 0.241832808 0.375003666
v 0.37500304 0.241832808 0.375
v 0.375006109 -0.5 0.5
v -0.375012189 -0.5 0.5
v -0.375012189 -0.241832808 0.5
v 0.375006109 -0.241832808 0.5
v 0.375012189 0.241832808 0.5
v -0.375012189 0.241832808 0.5
v -0.375012189 0.5 0.5
v 0.375012189 0.5 0.5
v 0.375 -0.241832808 -0.37500304
v 0.37500304 -0.241832808 0.375
v 0.37500304 0.241832808 0.375
v 0.375 0.241832808 -0.37500304
v 0.5 -0.241832808 -0.375006109
v 0.37500304 -0.241832808 0.375
v 0.375 -0.241832808 -0.37500304
v 0.5 -0.241832808 0.375012189
v 0.375006109 -0.241832808 0.5
v 0.5 -0.5 -0.375006109
v 0.5 -0.5 0.375012189
v 0.5 -0.241832808 0.375012189
v 0.5 -0.241832808 -0.375006109
v 0.5 0.241832808 -0.375012189
v 0.5 0.241832808 0.375012189
v 0.5 0.5 0.375012189
v 0.5 0.5 -0.375012189
v 0.375 -0.5 -0.37500304
v 0.5 -0.5 0.375012189
v 0.5 -0.5 -0.375006109
v 0.37500304 -0.5 0.375001222
v 0.375006109 -0.5 0.5
v 0.5 0.5 -0.375012189
v 0.37500304 0.5 0.375001222
v 0.375 0.5 -0.37500304
v 0.5 0.5 0.375012189
v 0.375012189 0.5 0.5
v 0.375 0.241832808 -0.37500304
v 0.5 0.241832808 0.375012189
v 0.5 0.241832808 -0.375012189
v 0.37500304 0.241832808 0.375
v 0.375012189 0.241832808 0.5
v 0.375012189 0.241832808 0.5
v 0.375012189 0.5 0.5
v 0.5 0.5 0.375012189
v 0.5 0.241832808 0.375012189
v 0.5 -0.241832808 0.375012189
v 0.5 -0.5 0.375012189
v 0.375006109 -0.5 0.5
v 0.375006109 -0.241832808 0.5
v 0.375 -0.217651948 0.14180541
v 0.375 -0.241832808 0.179182738
v 0.387745351 -0.241832808 0.179182738
v 0.406435549 -0.217651948 0.14180541
v 0.375 -0.193471089 0.136439204
v 0.457257062 -0.241832808 0.248693839
v 0.409119248 -0.193471089 0.136439204
v 0.494633764 -0.217651948 0.230003655
v 0.457257062 -0.241832808 0.318219602
v 0.5 -0.193471089 0.227320552
v 0.494633764 -0.217651948 0.318219602
v 0.5 -0.193471089 0.318219602
v 0.375 0.195450202 0.136439204
v 0.375 -0.193471089 0.136439204
v 0.409119248 -0.193471089 0.136439204
v 0.409119248 0.19545044 0.136439204
v 0.375 0.221853673 0.14180541
v 0.409119248 0.221853837 0.14180541
v 0.409119248 0.241832808 0.179182738
v 0.375 0.241832808 0.179182738
v 0.5 -0.193471089 0.318219602
v 0.5 0.195450202 0.227320552
v 0.5 -0.193471089 0.227320552
v 0.5 0.195450202 0.318219602
v 0.494633764 0.221853673 0.227320552
v 0.494633764 0.221853673 0.318219602
v 0.457257062 0.241832808 0.227320552
v 0.457257062 0.241832808 0.318219602
v 0.5 -0.193471089 0.227320552
v 0.409119248 0.19545044 0.136439204
v 0.409119248 -0.193471089 0.136439204
v 0.5 0.195450202 0.227320552
v 0.409119248 0.221853837 0.14180541
v 0.494633764 0.221853673 0.227320552
v 0.409119248 0.241832808 0.179182738
v 0.457257062 0.241832808 0.227320552
v 0.494633764 -0.217651948 0.318219602
v 0.457257062 -0.241832808 0.318219602
v 0.457257062 -0.241832808 0.387745351
v 0.494633764 -0.217651948 0.406435549
v 0.5 -0.193471089 0.318219602
v 0.387745351 -0.241832808 0.457256466
v 0.5 -0.193471089 0.409118652
v 0.406435549 -0.217651948 0.494633764
v 0.318220198 -0.241832808 0.457256466
v 0.409118652 -0.193471089 0.5
v 0.318220198 -0.217651948 0.494633764
v 0.318220198 -0.193471089 0.5
v 0.5 0.195450202 0.318219602
v 0.5 -0.193471089 0.318219602
v 0.5 -0.193471089 0.409118652
v 0.5 0.19545044 0.409118652
v 0.494633764 0.221853673 0.318219602
v 0.494633764 0.221853837 0.409118652
v 0.457257062 0.241832808 0.409118652
v 0.457257062 0.241832808 0.318219602
v 0.318220198 -0.193471089 0.5
v 0.409118652 0.195450202 0.5
v 0.409118652 -0.193471089 0.5
v 0.318220198 0.195450202 0.5
v 0.409118652 0.221853673 0.494633764
v 0.318220198 0.221853673 0.494633764
v 0.409118652 0.241832808 0.457256466
v 0.318220198 0.241832808 0.457256466
v 0.409118652 -0.193471089 0.5
v 0.5 0.19545044 0.409118652
v 0.5 -0.193471089 0.409118652
v 0.409118652 0.195450202 0.5
v 0.494633764 0.221853837 0.409118652
v 0.409118652 0.221853673 0.494633764
v 0.457257062 0.241832808 0.409118652
v 0.409118652 0.241832808 0.457256466
v 0.318220198 -0.217651948 0.494633764
v 0.318220198 -0.241832808 0.457256466
v 0.24869445 -0.241832808 0.457256466
v 0.230003655 -0.217651948 0.494633764
v 0.318220198 -0.193471089 0.5
v 0.179183349 -0.241832808 0.387745351
v 0.227320552 -0.193471089 0.5
v 0.14180541 -0.217651948 0.406435549
v 0.179183349 -0.241832808 0.375
v 0.136439204 -0.193471089 0.409118652
v 0.14180541 -0.217651948 0.375
v 0.136439204 -0.193471089 0.375
v 0.318220198 0.195450202 0.5
v 0.318220198 -0.193471089 0.5
v 0.227320552 -0.193471089 0.5
v 0.227320552 0.19545044 0.5
v 0.318220198 0.221853673 0.494633764
v 0.227320552 0.221853837 0.494633764
v 0.227320552 0.241832808 0.457256466
v 0.318220198 0.241832808 0.457256466
v 0.136439204 -0.193471089 0.375
v 0.136439204 0.195450202 0.409118652
v 0.136439204 -0.193471089 0.409118652
v 0.136439204 0.195450202 0.375
v 0.14180541 0.221853673 0.409118652
v 0.14180541 0.221853673 0.375
v 0.179183349 0.241832808 0.409118652
v 0.179183349 0.241832808 0.375
v 0.136439204 -0.193471089 0.409118652
v 0.227320552 0.19545044 0.5
v 0.227320552 -0.193471089 0.5
v 0.136439204 0.195450202 0.409118652
v 0.227320552 0.221853837 0.494633764
v 0.14180541 0.221853673 0.409118652
v 0.227320552 0.241832808 0.457256466
v 0.179183349 0.241832808 0.409118652
v -0.375 -0.5 0.375004262
v 0.37500304 -0.5 0.375001222
v 0.375 -0.5 -0.37500304
v -0.375004262 -0.5 -0.375
v -0.375004262 0.5 -0.375
v 0.375 0.5 -0.37500304
v 0.37500304 0.5 0.375001222
v -0.375 0.5 0.375004262
vt 0.42757836 0.993755341
vt 0.42757836 0.688174725
vt 0.616969585 0.688174725
vt 0.616969585 0.993755341
vt 0.862585366 0.635596931
vt 0.792306006 0.377960026
vt 0.792306006 0.628703177
vt 0.862585366 0.384156853
vt 0.792306006 0.358564496
vt 0.0639972091 0.991301715
vt 0.35889858 0.991301715
vt 0.35889852 0.841220081
vt 0.063997224 0.841220081
vt 0.35889852 0.991301715
vt 0.0639922619 0.991301715
vt 0.0639922321 0.841220081
vt 0.358898461 0.841220081
vt 0.862585366 0.396945655
vt 0.792306006 0.617487669
vt 0.792306006 0.392588586
vt 0.862585366 0.624144912
vt 0.862585366 0.660711944
vt 0.862585366 0.635588765
vt 0.792306006 0.377960026
vt 0.792306006 0.628651798
vt 0.862585366 0.384156793
vt 0.792306006 0.357501239
vt 0.862585366 0.396398783
vt 0.792306006 0.6184358
vt 0.792306006 0.392371684
vt 0.862585366 0.622459292
vt 0.862585366 0.639911711
vt 0.42757836 0.993755341
vt 0.42757836 0.688174725
vt 0.616969943 0.688174725
vt 0.616969645 0.993755341
vt 0.862585366 0.635596931
vt 0.792306006 0.377960026
vt 0.792306006 0.628703177
vt 0.862585366 0.384156853
vt 0.792306006 0.358564496
vt 0.0639972091 0.991301715
vt 0.35889858 0.991301715
vt 0.35889852 0.841220081
vt 0.063997224 0.841220081
vt 0.35889852 0.991301715
vt 0.0639922619 0.991301715
vt 0.0639922321 0.841220081
vt 0.358898461 0.841220081
vt 0.862585366 0.396945655
vt 0.792306006 0.617487669
vt 0.792306006 0.392588586
vt 0.862585366 0.624144912
vt 0.862585366 0.660711944
vt 0.862585366 0.635588765
vt 0.792306006 0.377960026
vt 0.792306006 0.628651798
vt 0.862585366 0.384156793
vt 0.792306006 0.357501239
vt 0.862585366 0.396398783
vt 0.792306006 0.6184358
vt 0.792306006 0.392371684
vt 0.862585366 0.622459292
vt 0.862585366 0.639911711
vt 0.862585366 0.622459292
vt 0.862585366 0.639911711
vt 0.792306006 0.6184358
vt 0.862585366 0.396398783
vt 0.792306006 0.392371684
vt 0.862585366 0.384156793
vt 0.792306006 0.357501239
vt 0.792306006 0.377960026
vt 0.862585366 0.635588765
vt 0.792306006 0.628651798
vt 0.0148505215 0.991301715
vt 0.0148505215 0.841220081
vt 0.0639922321 0.841220081
vt 0.0639922619 0.991301715
vt 0.35889852 0.841220081
vt 0.35889858 0.991301715
vt 0.410070181 0.991301715
vt 0.410070181 0.841220081
vt 0.0449833423 0.238290533
vt 0.0504323691 0.21879369
vt 0.0568973236 0.218793631
vt 0.0559379719 0.238290578
vt 0.0398230627 0.24892424
vt 0.101008981 0.218793631
vt 0.0529015698 0.24892433
vt 0.101995908 0.238290578
vt 0.130988613 0.218793631
vt 0.104944408 0.24892433
vt 0.133666739 0.238290578
vt 0.139287129 0.24892433
vt 0.0399356596 0.421548724
vt 0.0399356596 0.24892433
vt 0.0529015698 0.24892433
vt 0.0529015698 0.421548843
vt 0.0414353386 0.43326807
vt 0.0548691638 0.43326807
vt 0.0641084984 0.442135781
vt 0.0464036837 0.442135751
vt 0.139287129 0.24892433
vt 0.104944408 0.421548754
vt 0.104944408 0.24892433
vt 0.139287129 0.421548754
vt 0.103481077 0.433268011
vt 0.139805362 0.433268011
vt 0.0966164246 0.442135811
vt 0.139287114 0.442135751
vt 0.104944408 0.24892433
vt 0.0529015698 0.421548843
vt 0.0529015698 0.24892433
vt 0.104944408 0.421548754
vt 0.0548691638 0.43326807
vt 0.103481077 0.433268011
vt 0.0641084984 0.442135781
vt 0.0966164246 0.442135811
vt 0.133243755 0.238290548
vt 0.13053675 0.218793631
vt 0.10056892 0.218793631
vt 0.101528265 0.238290548
vt 0.139107987 0.248924345
vt 0.056457255 0.218793631
vt 0.104564667 0.248924345
vt 0.0554703288 0.238290548
vt 0.0264776107 0.218793631
vt 0.0525218286 0.248924345
vt 0.0237994995 0.238290548
vt 0.0181791019 0.248924345
vt 0.139107987 0.421548754
vt 0.139107987 0.248924345
vt 0.104564667 0.248924345
vt 0.104564667 0.421548843
vt 0.139805332 0.433268011
vt 0.102597073 0.43326807
vt 0.0933577418 0.442135781
vt 0.139107928 0.442135811
vt 0.0181791019 0.248924345
vt 0.0525218286 0.421548754
vt 0.0525218286 0.248924345
vt 0.0181791019 0.421548754
vt 0.053985171 0.433268011
vt 0.0176608842 0.433268011
vt 0.0608498119 0.442135811
vt 0.0181791335 0.442135751
vt 0.0525218286 0.248924345
vt 0.104564667 0.421548843
vt 0.104564667 0.248924345
vt 0.0525218286 0.421548754
vt 0.102597073 0.43326807
vt 0.053985171 0.433268011
vt 0.0933577418 0.442135781
vt 0.0608498119 0.442135811
vt 0.0242224745 0.238290578
vt 0.026929494 0.218793631
vt 0.0568973236 0.218793631
vt 0.0559379719 0.238290578
vt 0.0183582567 0.24892433
vt 0.101008981 0.218793631
vt 0.0529015698 0.24892433
vt 0.101995908 0.238290578
vt 0.107485168 0.21879369
vt 0.104944408 0.24892433
vt 0.112931214 0.238290533
vt 0.117938109 0.24892424
vt 0.0183582567 0.421548754
vt 0.0183582567 0.24892433
vt 0.0529015698 0.24892433
vt 0.0529015698 0.421548843
vt 0.0176608972 0.433268011
vt 0.0548691638 0.43326807
vt 0.0641084984 0.442135781
vt 0.0183583088 0.442135811
vt 0.117834844 0.248924345
vt 0.104944408 0.421548754
vt 0.104944408 0.24892433
vt 0.117834844 0.421548754
vt 0.103481077 0.433268011
vt 0.116719715 0.43326807
vt 0.0966164246 0.442135811
vt 0.113028288 0.442135781
vt 0.104944408 0.24892433
vt 0.0529015698 0.421548843
vt 0.0529015698 0.24892433
vt 0.104944408 0.421548754
vt 0.0548691638 0.43326807
vt 0.103481077 0.433268011
vt 0.0641084984 0.442135781
vt 0.0966164246 0.442135811
vt 0.862585366 0.624144912
vt 0.862585366 0.660711944
vt 0.792306006 0.617487669
vt 0.862585366 0.396945655
vt 0.792306006 0.392588586
vt 0.862585366 0.384156853
vt 0.792306006 0.358564496
vt 0.792306006 0.377960026
vt 0.862585366 0.635596931
vt 0.792306006 0.628703177
vt 0.0148505215 0.991301715
vt 0.0148505215 0.841220081
vt 0.0639922321 0.841220081
vt 0.0639922619 0.991301715
vt 0.35889852 0.841220081
vt 0.35889858 0.991301715
vt 0.410070181 0.991301715
vt 0.410070181 0.841220081
vt 0.0449833423 0.238290533
vt 0.0504323691 0.21879369
vt 0.0568973236 0.218793631
vt 0.0559379719 0.238290578
vt 0.0398230627 0.24892424
vt 0.101008981 0.218793631
vt 0.0529015698 0.24892433
vt 0.101995908 0.238290578
vt 0.130988613 0.218793631
vt 0.104944408 0.24892433
vt 0.133666739 0.238290578
vt 0.139287129 0.24892433
vt 0.0399356596 0.421548724
vt 0.0399356596 0.24892433
vt 0.0529015698 0.24892433
vt 0.0529015698 0.421548843
vt 0.0414353386 0.43326807
vt 0.0548691638 0.43326807
vt 0.0641084984 0.442135781
vt 0.0464036837 0.442135751
vt 0.139287129 0.24892433
vt 0.104944408 0.421548754
vt 0.104944408 0.24892433
vt 0.139287129 0.421548754
vt 0.103481077 0.433268011
vt 0.139805362 0.433268011
vt 0.0966164246 0.442135811
vt 0.139287114 0.442135751
vt 0.104944408 0.24892433
vt 0.0529015698 0.421548843
vt 0.0529015698 0.24892433
vt 0.104944408 0.421548754
vt 0.0548691638 0.43326807
vt 0.103481077 0.433268011
vt 0.0641084984 0.442135781
vt 0.0966164246 0.442135811
vt 0.133243755 0.238290548
vt 0.13053675 0.218793631
vt 0.10056892 0.218793631
vt 0.101528265 0.238290548
vt 0.139107987 0.248924345
vt 0.056457255 0.218793631
vt 0.104564667 0.248924345
vt 0.0554703288 0.238290548
vt 0.0264776107 0.218793631
vt 0.0525218286 0.248924345
vt 0.0237994995 0.238290548
vt 0.0181791019 0.248924345
vt 0.139107987 0.421548754
vt 0.139107987 0.248924345
vt 0.104564667 0.248924345
vt 0.104564667 0.421548843
vt 0.139805332 0.433268011
vt 0.102597073 0.43326807
vt 0.0933577418 0.442135781
vt 0.139107928 0.442135811
vt 0.0181791019 0.248924345
vt 0.0525218286 0.421548754
vt 0.0525218286 0.248924345
vt 0.0181791019 0.421548754
vt 0.053985171 0.433268011
vt 0.0176608842 0.433268011
vt 0.0608498119 0.442135811
vt 0.0181791335 0.442135751
vt 0.0525218286 0.248924345
vt 0.104564667 0.421548843
vt 0.104564667 0.248924345
vt 0.0525218286 0.421548754
vt 0.102597073 0.43326807
vt 0.053985171 0.433268011
vt 0.0933577418 0.442135781
vt 0.0608498119 0.442135811
vt 0.0242224745 0.238290578
vt 0.026929494 0.218793631
vt 0.0568973236 0.218793631
vt 0.0559379719 0.238290578
vt 0.0183582567 0.24892433
vt 0.101008981 0.218793631
vt 0.0529015698 0.24892433
vt 0.101995908 0.238290578
vt 0.107485168 0.21879369
vt 0.104944408 0.24892433
vt 0.112931214 0.238290533
vt 0.117938109 0.24892424
vt 0.0183582567 0.421548754
vt 0.0183582567 0.24892433
vt 0.0529015698 0.24892433
vt 0.0529015698 0.421548843
vt 0.0176608972 0.433268011
vt 0.0548691638 0.43326807
vt 0.0641084984 0.442135781
vt 0.0183583088 0.442135811
vt 0.117834844 0.248924345
vt 0.104944408 0.421548754
vt 0.104944408 0.24892433
vt 0.117834844 0.421548754
vt 0.103481077 0.433268011
vt 0.116719715 0.43326807
vt 0.0966164246 0.442135811
vt 0.113028288 0.442135781
vt 0.104944408 0.24892433
vt 0.0529015698 0.421548843
vt 0.0529015698 0.24892433
vt 0.104944408 0.421548754
vt 0.0548691638 0.43326807
vt 0.103481077 0.433268011
vt 0.0641084984 0.442135781
vt 0.0966164246 0.442135811
vt 0.0148505215 0.991301715
vt 0.0148505215 0.841220081
vt 0.0639922321 0.841220081
vt 0.0639922619 0.991301715
vt 0.35889852 0.841220081
vt 0.35889858 0.991301715
vt 0.410070181 0.991301715
vt 0.410070181 0.841220081
vt 0.0449833423 0.238290533
vt 0.0504323691 0.21879369
vt 0.0568973236 0.218793631
vt 0.0559379719 0.238290578
vt 0.0398230627 0.24892424
vt 0.101008981 0.218793631
vt 0.0529015698 0.24892433
vt 0.101995908 0.238290578
vt 0.130988613 0.218793631
vt 0.104944408 0.24892433
vt 0.133666739 0.238290578
vt 0.139287129 0.24892433
vt 0.0399356596 0.421548724
vt 0.0399356596 0.24892433
vt 0.0529015698 0.24892433
vt 0.0529015698 0.421548843
vt 0.0414353386 0.43326807
vt 0.0548691638 0.43326807
vt 0.0641084984 0.442135781
vt 0.0464036837 0.442135751
vt 0.139287129 0.24892433
vt 0.104944408 0.421548754
vt 0.104944408 0.24892433
vt 0.139287129 0.421548754
vt 0.103481077 0.433268011
vt 0.139805362 0.433268011
vt 0.0966164246 0.442135811
vt 0.139287114 0.442135751
vt 0.104944408 0.24892433
vt 0.0529015698 0.421548843
vt 0.0529015698 0.24892433
vt 0.104944408 0.421548754
vt 0.0548691638 0.43326807
vt 0.103481077 0.433268011
vt 0.0641084984 0.442135781
vt 0.0966164246 0.442135811
vt 0.133243755 0.238290548
vt 0.13053675 0.218793631
vt 0.10056892 0.218793631
vt 0.101528265 0.238290548
vt 0.139107987 0.248924345
vt 0.056457255 0.218793631
vt 0.104564667 0.248924345
vt 0.0554703288 0.238290548
vt 0.0264776107 0.218793631
vt 0.0525218286 0.248924345
vt 0.0237994995 0.238290548
vt 0.0181791019 0.248924345
vt 0.139107987 0.421548754
vt 0.139107987 0.248924345
vt 0.104564667 0.248924345
vt 0.104564667 0.421548843
vt 0.139805332 0.433268011
vt 0.102597073 0.43326807
vt 0.0933577418 0.442135781
vt 0.139107928 0.442135811
vt 0.0181791019 0.248924345
vt 0.0525218286 0.421548754
vt 0.0525218286 0.248924345
vt 0.0181791019 0.421548754
vt 0.053985171 0.433268011
vt 0.0176608842 0.433268011
vt 0.0608498119 0.442135811
vt 0.0181791335 0.442135751
vt 0.0525218286 0.248924345
vt 0.104564667 0.421548843
vt 0.104564667 0.248924345
vt 0.0525218286 0.421548754
vt 0.102597073 0.43326807
vt 0.053985171 0.433268011
vt 0.0933577418 0.442135781
vt 0.0608498119 0.442135811
vt 0.0242224745 0.238290578
vt 0.026929494 0.218793631
vt 0.0568973236 0.218793631
vt 0.0559379719 0.238290578
vt 0.0183582567 0.24892433
vt 0.101008981 0.218793631
vt 0.0529015698 0.24892433
vt 0.101995908 0.238290578
vt 0.107485168 0.21879369
vt 0.104944408 0.24892433
vt 0.112931214 0.238290533
vt 0.117938109 0.24892424
vt 0.0183582567 0.421548754
vt 0.0183582567 0.24892433
vt 0.0529015698 0.24892433
vt 0.0529015698 0.421548843
vt 0.0176608972 0.433268011
vt 0.0548691638 0.43326807
vt 0.0641084984 0.442135781
vt 0.0183583088 0.442135811
vt 0.117834844 0.248924345
vt 0.104944408 0.421548754
vt 0.104944408 0.24892433
vt 0.117834844 0.421548754
vt 0.103481077 0.433268011
vt 0.116719715 0.43326807
vt 0.0966164246 0.442135811
vt 0.113028288 0.442135781
vt 0.104944408 0.24892433
vt 0.0529015698 0.421548843
vt 0.0529015698 0.24892433
vt 0.104944408 0.421548754
vt 0.0548691638 0.43326807
vt 0.103481077 0.433268011
vt 0.0641084984 0.442135781
vt 0.0966164246 0.442135811
vt 0.42757836 0.688174725
vt 0.42757836 0.993755341
vt 0.616969585 0.993755341
vt 0.616969585 0.688174725
vt 0.0639972091 0.991301715
vt 0.35889858 0.991301715
vt 0.35889852 0.841220081
vt 0.063997224 0.841220081
vt 0.35889852 0.991301715
vt 0.0639922619 0.991301715
vt 0.0639922321 0.841220081
vt 0.358898461 0.841220081
vt 0.42757836 0.688174725
vt 0.42757836 0.993755341
vt 0.616969645 0.993755341
vt 0.616969943 0.688174725
vt 0.862585366 0.635596931
vt 0.792306006 0.377960026
vt 0.792306006 0.628703177
vt 0.862585366 0.384156853
vt 0.792306006 0.358564496
vt 0.0639972091 0.991301715
vt 0.35889858 0.991301715
vt 0.35889852 0.841220081
vt 0.063997224 0.841220081
vt 0.35889852 0.991301715
vt 0.0639922619 0.991301715
vt 0.0639922321 0.841220081
vt 0.358898461 0.841220081
vt 0.862585366 0.396945655
vt 0.792306006 0.617487669
vt 0.792306006 0.392588586
vt 0.862585366 0.624144912
vt 0.862585366 0.660711944
vt 0.862585366 0.635588765
vt 0.792306006 0.377960026
vt 0.792306006 0.628651798
vt 0.862585366 0.384156793
vt 0.792306006 0.357501239
vt 0.862585366 0.396398783
vt 0.792306006 0.6184358
vt 0.792306006 0.392371684
vt 0.862585366 0.622459292
vt 0.862585366 0.639911711
vt 0.0148505215 0.991301715
vt 0.0148505215 0.841220081
vt 0.0639922321 0.841220081
vt 0.0639922619 0.991301715
vt 0.35889852 0.841220081
vt 0.35889858 0.991301715
vt 0.410070181 0.991301715
vt 0.410070181 0.841220081
vt 0.0449833423 0.238290533
vt 0.0504323691 0.21879369
vt 0.0568973236 0.218793631
vt 0.0559379719 0.238290578
vt 0.0398230627 0.24892424
vt 0.101008981 0.218793631
vt 0.0529015698 0.24892433
vt 0.101995908 0.238290578
vt 0.130988613 0.218793631
vt 0.104944408 0.24892433
vt 0.133666739 0.238290578
vt 0.139287129 0.24892433
vt 0.0399356596 0.421548724
vt 0.0399356596 0.24892433
vt 0.0529015698 0.24892433
vt 0.0529015698 0.421548843
vt 0.0414353386 0.43326807
vt 0.0548691638 0.43326807
vt 0.0641084984 0.442135781
vt 0.0464036837 0.442135751
vt 0.139287129 0.24892433
vt 0.104944408 0.421548754
vt 0.104944408 0.24892433
vt 0.139287129 0.421548754
vt 0.103481077 0.433268011
vt 0.139805362 0.433268011
vt 0.0966164246 0.442135811
vt 0.139287114 0.442135751
vt 0.104944408 0.24892433
vt 0.0529015698 0.421548843
vt 0.0529015698 0.24892433
vt 0.104944408 0.421548754
vt 0.0548691638 0.43326807
vt 0.103481077 0.433268011
vt 0.0641084984 0.442135781
vt 0.0966164246 0.442135811
vt 0.133243755 0.238290548
vt 0.13053675 0.218793631
vt 0.10056892 0.218793631
vt 0.101528265 0.238290548
vt 0.139107987 0.248924345
vt 0.056457255 0.218793631
vt 0.104564667 0.248924345
vt 0.0554703288 0.238290548
vt 0.0264776107 0.218793631
vt 0.0525218286 0.248924345
vt 0.0237994995 0.238290548
vt 0.0181791019 0.248924345
vt 0.139107987 0.421548754
vt 0.139107987 0.248924345
vt 0.104564667 0.248924345
vt 0.104564667 0.421548843
vt 0.139805332 0.433268011
vt 0.102597073 0.43326807
vt 0.0933577418 0.442135781
vt 0.139107928 0.442135811
vt 0.0181791019 0.248924345
vt 0.0525218286 0.421548754
vt 0.0525218286 0.248924345
vt 0.0181791019 0.421548754
vt 0.053985171 0.433268011
vt 0.0176608842 0.433268011
vt 0.0608498119 0.442135811
vt 0.0181791335 0.442135751
vt 0.0525218286 0.248924345
vt 0.104564667 0.421548843
vt 0.104564667 0.248924345
vt 0.0525218286 0.421548754
vt 0.102597073 0.43326807
vt 0.053985171 0.433268011
vt 0.0933577418 0.442135781
vt 0.0608498119 0.442135811
vt 0.0242224745 0.238290578
vt 0.026929494 0.218793631
vt 0.0568973236 0.218793631
vt 0.0559379719 0.238290578
vt 0.0183582567 0.24892433
vt 0.101008981 0.218793631
vt 0.0529015698 0.24892433
vt 0.101995908 0.238290578
vt 0.107485168 0.21879369
vt 0.104944408 0.24892433
vt 0.112931214 0.238290533
vt 0.117938109 0.24892424
vt 0.0183582567 0.421548754
vt 0.0183582567 0.24892433
vt 0.0529015698 0.24892433
vt 0.0529015698 0.421548843
vt 0.0176608972 0.433268011
vt 0.0548691638 0.43326807
vt 0.0641084984 0.442135781
vt 0.0183583088 0.442135811
vt 0.117834844 0.248924345
vt 0.104944408 0.421548754
vt 0.104944408 0.24892433
vt 0.117834844 0.421548754
vt 0.103481077 0.433268011
vt 0.116719715 0.43326807
vt 0.0966164246 0.442135811
vt 0.113028288 0.442135781
vt 0.104944408 0.24892433
vt 0.0529015698 0.421548843
vt 0.0529015698 0.24892433
vt 0.104944408 0.421548754
vt 0.0548691638 0.43326807
vt 0.103481077 0.433268011
vt 0.0641084984 0.442135781
vt 0.0966164246 0.442135811
vt 0.941099167 0.0468989983
vt 0.941099167 0.0484227613
vt 0.944146693 0.0484227613
vt 0.944146693 0.0468989983
vt 0.941099167 0.0468989983
vt 0.941099167 0.0484227613
vt 0.944146693 0.0484227613
vt 0.944146693 0.0468989983
vn -4.307366E-06 0 -1
vn -4.307366E-06 0 -1
vn -4.307366E-06 0 -1
vn -4.307366E-06 0 -1
vn -0 1 -1.24999502E-07
vn -0 1 0
vn -0 1 0
vn -0 1 -1.2499909E-07
vn -0 1 0
vn -0 0 -1
vn -0 0 -1
vn -0 0 -1
vn -0 0 -1
vn -0 0 -1
vn -0 0 -1
vn -0 0 -1
vn -0 0 -1
vn -0 -1 0
vn -0 -1 0
vn -0 -1 0
vn -0 -1 0
vn -0 -1 0
vn -0 1 0
vn -0 1 0
vn -0 1 0
vn -0 1 0
vn -0 1 0
vn -0 -1 0
vn -0 -1 0
vn -0 -1 0
vn -0 -1 0
vn -0 -1 0
vn -1 0 4.06899244E-06
vn -1 0 4.06899244E-06
vn -1 0 4.06899244E-06
vn -1 0 4.06899244E-06
vn -0 1 0
vn -0 1 0
vn -0 1 0
vn -0 1 0
vn -0 1 -1.24999502E-07
vn -1 0 0
vn -1 0 0
vn -1 0 0
vn -1 0 0
vn -1 0 0
vn -1 0 0
vn -1 0 0
vn -1 0 0
vn -0 -1 0
vn -0 -1 0
vn -0 -1 0
vn -0 -1 0
vn -0 -1 0
vn -0 1 0
vn -0 1 0
vn -0 1 0
vn -0 1 0
vn -0 1 0
vn -0 -1 0
vn -0 -1 0
vn -0 -1 0
vn -0 -1 0
vn -0 -1 0
vn -0 -1 0
vn -0 -1 0
vn -0 -1 0
vn -0 -1 0
vn -0 -1 0
vn -0 1 0
vn -0 1 0
vn -0 1 0
vn -0 1 0
vn -0 1 0
vn -0.707107067 0 0.707106471
vn -0.707107067 0 0.707106471
vn -0.707107067 0 0.707106471
vn -0.707107067 0 0.707106471
vn -0.707124114 0 0.707089365
vn -0.707124114 0 0.707089365
vn -0.707124114 0 0.707089365
vn -0.707124114 0 0.707089365
vn 0.798115611 -0.602504253 0
vn 0.543183625 -0.839614034 0
vn 0.402349472 -0.86144352 0.309887171
vn 0.618304729 -0.632266641 0.46683836
vn 0.976246536 -0.216663003 0
vn 0.218274817 -0.865524828 0.450802356
vn 0.782253563 -0.237507969 0.575907409
vn 0.346596122 -0.641860187 0.684022486
vn -0 -0.839612067 0.543186367
vn 0.437726051 -0.240813658 0.866259038
vn -0 -0.644008636 0.765018225
vn -0 -0.21664913 0.976249456
vn 0.999916553 0.0129204439 0
vn 1 0 0
vn 1 0 0
vn 0.999916553 0.0129206507 0
vn 0.735367179 0.67766881 -1.94985068E-06
vn 0.735365808 0.677670419 -1.94985228E-06
vn 0.47141394 0.881912053 -2.11044312E-06
vn 0.47141394 0.881912053 -2.11044312E-06
vn -0 0 1
vn -0 0.0129194483 0.999916553
vn -0 0 1
vn -0 0.0129194269 0.999916553
vn -0 0.67766571 0.7353701
vn -0 0.677666008 0.735369861
vn -0 0.881912887 0.47141239
vn -0 0.881913364 0.471411645
vn 0.707104802 0 0.707108736
vn 0.707081497 0.00812943187 0.707085371
vn 0.707104802 0 0.707108736
vn 0.707081497 0.00812940206 0.707085371
vn 0.652821124 0.384244084 0.652825415
vn 0.652820706 0.384245545 0.652824998
vn 0.426403552 0.797719657 0.426407456
vn 0.426403552 0.797719657 0.426407456
vn -0 -0.644008636 0.765018225
vn -0 -0.839612067 0.543186367
vn -0.218273953 -0.865525186 0.450802147
vn -0.346595436 -0.641860843 0.684022129
vn -0 -0.21664913 0.976249456
vn -0.45080027 -0.86552608 0.218274102
vn -0.437725455 -0.240816534 0.866258502
vn -0.684020817 -0.641862214 0.346595705
vn -0.543176472 -0.839618564 0
vn -0.866257489 -0.240817696 0.437726974
vn -0.765012681 -0.644015193 0
vn -0.97625035 -0.21664542 0
vn -0 0.0129194269 0.999916553
vn -0 0 1
vn -0 0 1
vn -0 0.0129194828 0.999916553
vn -0 0.677666008 0.735369861
vn -0 0.677666903 0.735369027
vn -0 0.881913722 0.471410841
vn -0 0.881913364 0.471411645
vn -1 0 0
vn -0.999916553 0.0129197743 0
vn -1 0 0
vn -0.999916553 0.0129196411 0
vn -0.735367775 0.677668273 0
vn -0.735364974 0.677671254 3.65941332E-07
vn -0.471410841 0.881913722 0
vn -0.471406788 0.881915867 3.96077638E-07
vn -0.707106769 0 0.707106769
vn -0.707083404 0.00812983699 0.707083404
vn -0.707106769 0 0.707106769
vn -0.707083404 0.00812980067 0.707083404
vn -0.652822316 0.384250462 0.652820587
vn -0.652822495 0.384249628 0.652820826
vn -0.426407427 0.797720134 0.426402628
vn -0.426407456 0.797720134 0.426402628
vn -0.765012681 -0.644015193 0
vn -0.543176472 -0.839618564 0
vn -0.450794429 -0.86553067 -0.218268424
vn -0.684020281 -0.641863525 -0.346593916
vn -0.97625035 -0.21664542 0
vn -0.309883773 -0.861446917 -0.402344704
vn -0.866261601 -0.240805238 -0.437725633
vn -0.466840267 -0.632265627 -0.618304372
vn -0 -0.839616299 -0.543179929
vn -0.575907111 -0.23749952 -0.782256365
vn -0 -0.602504432 -0.798115492
vn -0 -0.216648087 -0.976249814
vn -0.999916553 0.0129196411 0
vn -1 0 0
vn -1 0 0
vn -0.999916553 0.0129195815 0
vn -0.735364974 0.677671254 3.65941332E-07
vn -0.735361636 0.67767489 7.3187698E-07
vn -0.471402764 0.881918073 7.92145784E-07
vn -0.471406788 0.881915867 3.96077638E-07
vn -0 0 -1
vn -0 0.0129193887 -0.999916553
vn -0 0 -1
vn -0 0.0129193887 -0.999916553
vn -0 0.677677751 -0.735359013
vn -0 0.677677751 -0.735359013
vn -0 0.881920397 -0.471398294
vn -0 0.881920397 -0.471398294
vn -0.707106769 0 -0.707106769
vn -0.707083404 0.00812974479 -0.707083404
vn -0.707106769 0 -0.707106769
vn -0.707083404 0.00812970847 -0.707083404
vn -0.65282017 0.384251744 -0.652821839
vn -0.652820408 0.384250939 -0.652822077
vn -0.426398277 0.797725379 -0.426402181
vn -0.426398247 0.797725379 -0.426402181
vn -0 -1 0
vn -0 -1 0
vn -0 -1 0
vn -0 -1 0
vn -0 -1 0
vn -0 1 1.2499946E-07
vn -0 1 0
vn -0 1 0
vn -0 1 1.24999858E-07
vn -0 1 0
vn 0.707107067 0 -0.707106471
vn 0.707107067 0 -0.707106471
vn 0.707107067 0 -0.707106471
vn 0.707107067 0 -0.707106471
vn 0.707124114 0 -0.707089365
vn 0.707124114 0 -0.707089365
vn 0.707124114 0 -0.707089365
vn 0.707124114 0 -0.707089365
vn -0.798110306 -0.602511346 0
vn -0.543174803 -0.839619577 0
vn -0.402349412 -0.86144352 -0.309887201
vn -0.618303895 -0.632267118 -0.466838866
vn -0.976245701 -0.216666177 0
vn -0.218276128 -0.86552459 -0.450802237
vn -0.782252312 -0.23750855 -0.57590884
vn -0.346596926 -0.641859889 -0.684022248
vn -0 -0.839612067 -0.543186367
vn -0.437726051 -0.240813658 -0.866259038
vn -0 -0.644008636 -0.765018225
vn -0 -0.21664913 -0.976249456
vn -0.999916553 0.0129203442 0
vn -1 0 0
vn -1 0 0
vn -0.999916553 0.012920551 0
vn -0.73536557 0.677670538 1.94985773E-06
vn -0.735364199 0.677672088 1.9498591E-06
vn -0.471407384 0.881915569 2.11045176E-06
vn -0.471407384 0.881915569 2.11045176E-06
vn -0 0 -1
vn -0 0.0129194483 -0.999916553
vn -0 0 -1
vn -0 0.0129194269 -0.999916553
vn -0 0.67766571 -0.7353701
vn -1.06456389E-06 0.677666008 -0.735369861
vn -0 0.881912887 -0.47141239
vn -1.58432863E-06 0.881913364 -0.471411645
vn -0.707104802 0 -0.707108676
vn -0.707081497 0.00812943839 -0.707085371
vn -0.707104802 0 -0.707108676
vn -0.707081437 0.00812940765 -0.707085371
vn -0.652821183 0.384243637 -0.652825534
vn -0.652820826 0.384245098 -0.652825177
vn -0.426403552 0.797719657 -0.426407456
vn -0.426403552 0.797719657 -0.426407456
vn -0 -0.644008636 -0.765018225
vn -0 -0.839612067 -0.543186367
vn 0.218275264 -0.865524948 -0.450802028
vn 0.346596241 -0.641860664 -0.68402189
vn -0 -0.21664913 -0.976249456
vn 0.45080027 -0.86552608 -0.218274072
vn 0.437725455 -0.240816534 -0.866258502
vn 0.684020817 -0.641862154 -0.346595645
vn 0.54317528 -0.839619339 0
vn 0.866257489 -0.240817696 -0.437726974
vn 0.765011668 -0.644016325 0
vn 0.976250231 -0.216646016 0
vn -0 0.0129194269 -0.999916553
vn -0 0 -1
vn -0 0 -1
vn -0 0.0129194828 -0.999916553
vn -1.06456389E-06 0.677666008 -0.735369861
vn -2.12913233E-06 0.677666903 -0.735369027
vn -3.16865908E-06 0.881913722 -0.471410841
vn -1.58432863E-06 0.881913364 -0.471411645
vn 1 0 0
vn 0.999916553 0.0129197743 0
vn 1 0 0
vn 0.999916553 0.0129196895 0
vn 0.735366762 0.677669346 0
vn 0.735364676 0.677671552 -3.65941645E-07
vn 0.471408397 0.881915033 0
vn 0.471406788 0.881915867 -3.96077581E-07
vn 0.707106769 0 -0.707106769
vn 0.707083404 0.00812984537 -0.707083404
vn 0.707106769 0 -0.707106769
vn 0.707083404 0.00812980998 -0.707083404
vn 0.652822256 0.384250492 -0.652820587
vn 0.652822435 0.384249717 -0.652820766
vn 0.426407427 0.797720134 -0.426402628
vn 0.426407456 0.797720134 -0.426402628
vn 0.765011668 -0.644016325 0
vn 0.54317528 -0.839619339 0
vn 0.450795263 -0.865530014 0.218269035
vn 0.684019387 -0.641864419 0.346594155
vn 0.976250231 -0.216646016 0
vn 0.309885949 -0.861446261 0.402344227
vn 0.866261005 -0.24080576 0.437726587
vn 0.466840923 -0.632266402 0.618303061
vn -0 -0.839616299 0.543179929
vn 0.575907111 -0.23749952 0.782256365
vn -0 -0.602504432 0.798115492
vn -0 -0.216648087 0.976249814
vn 0.999916553 0.0129196895 0
vn 1 0 0
vn 1 0 0
vn 0.999916553 0.0129196849 0
vn 0.735364676 0.677671552 -3.65941645E-07
vn 0.735362053 0.677674532 -7.3187698E-07
vn 0.471405208 0.881916761 -7.9214459E-07
vn 0.471406788 0.881915867 -3.96077581E-07
vn -0 0 1
vn -0 0.0129193887 0.999916553
vn -0 0 1
vn -0 0.0129193887 0.999916553
vn -0 0.677677751 0.735359013
vn -0 0.677677751 0.735359013
vn -0 0.881920397 0.471398294
vn -0 0.881920397 0.471398294
vn 0.707106769 0 0.707106769
vn 0.707083404 0.00812973361 0.707083404
vn 0.707106769 0 0.707106769
vn 0.707083404 0.00812969543 0.707083404
vn 0.65282023 0.384251803 0.652821839
vn 0.652820408 0.384250998 0.652822077
vn 0.426398277 0.797725379 0.426402181
vn 0.426398247 0.797725379 0.426402181
vn -0.707107067 0 -0.707106471
vn -0.707107067 0 -0.707106471
vn -0.707107067 0 -0.707106471
vn -0.707107067 0 -0.707106471
vn -0.707089722 0 -0.707123756
vn -0.707089722 0 -0.707123756
vn -0.707089722 0 -0.707123756
vn -0.707089722 0 -0.707123756
vn -0 -0.602502465 0.798117101
vn -0 -0.839616179 0.543180108
vn -0.309886366 -0.861443877 0.402349174
vn -0.466838121 -0.632267892 0.618303776
vn -0 -0.216646284 0.976250172
vn -0.450800985 -0.865525663 0.218274489
vn -0.575908363 -0.237508684 0.78225261
vn -0.684020579 -0.64186281 0.346595019
vn -0.543183625 -0.839614034 0
vn -0.866258562 -0.240817398 0.437724829
vn -0.765017092 -0.644010007 0
vn -0.976250231 -0.216646016 0
vn 8.61356284E-07 0.0129192686 0.999916553
vn -0 0 1
vn -0 0 1
vn 8.61369983E-07 0.0129194735 0.999916553
vn 5.67235065E-06 0.677665889 0.735369921
vn 5.672317E-06 0.677667379 0.73536849
vn -0 0.881913781 0.471410632
vn -0 0.881913781 0.471410632
vn -1 0 0
vn -0.999916553 0.0129197044 0
vn -1 0 0
vn -0.999916553 0.0129196737 0
vn -0.735369682 0.677666187 0
vn -0.735369146 0.677666724 4.32478544E-07
vn -0.471413314 0.88191241 0
vn -0.471412092 0.881913066 4.9510254E-07
vn -0.707109094 0 0.707104445
vn -0.707085848 0.00812986493 0.70708096
vn -0.707109094 0 0.707104445
vn -0.707085788 0.00812983606 0.70708096
vn -0.652825654 0.384243786 0.652821064
vn -0.652825177 0.384245157 0.652820647
vn -0.426412642 0.797713697 0.426409692
vn -0.426412642 0.797713637 0.426409692
vn -0.765017092 -0.644010007 0
vn -0.543183625 -0.839614034 0
vn -0.450799763 -0.865526259 -0.218274608
vn -0.684022605 -0.641859293 -0.346597284
vn -0.976250231 -0.216646016 0
vn -0.218273461 -0.865527093 -0.45079881
vn -0.86626035 -0.240806222 -0.437727422
vn -0.346596003 -0.641861379 -0.684021354
vn -0 -0.839615762 -0.543180823
vn -0.437727869 -0.24080959 -0.866259277
vn -0 -0.644013047 -0.76501447
vn -0 -0.21664919 -0.976249456
vn -0.999916553 0.0129196737 0
vn -1 0 0
vn -1 0 0
vn -0.999916553 0.0129197184 0
vn -0.735369146 0.677666724 4.32478544E-07
vn -0.735368192 0.677667856 8.64958508E-07
vn -0.471410841 0.881913722 9.90205763E-07
vn -0.471412092 0.881913066 4.9510254E-07
vn -0 0 -1
vn -0 0.0129194567 -0.999916553
vn -0 0 -1
vn -0 0.0129194297 -0.999916553
vn -0 0.677670062 -0.735366106
vn -1.06455775E-06 0.677670538 -0.735365629
vn -0 0.881915629 -0.471407235
vn -1.58431112E-06 0.881916225 -0.471406341
vn -0.707106769 0 -0.707106769
vn -0.707083404 0.00812972616 -0.707083404
vn -0.707106769 0 -0.707106769
vn -0.707083404 0.00812969171 -0.707083404
vn -0.652820349 0.384249777 -0.652822793
vn -0.652820647 0.384248942 -0.652823031
vn -0.426400542 0.797721744 -0.426406622
vn -0.426400483 0.797721744 -0.426406622
vn -0 -0.644013047 -0.76501447
vn -0 -0.839615762 -0.543180823
vn 0.218268558 -0.865530491 -0.450794697
vn 0.346593767 -0.641864359 -0.684019685
vn -0 -0.21664919 -0.976249456
vn 0.402337581 -0.861451685 -0.309879839
vn 0.43772608 -0.240803808 -0.86626178
vn 0.618301034 -0.632270157 -0.466838539
vn 0.543166399 -0.83962512 0
vn 0.782257736 -0.237493083 -0.575907946
vn 0.798109114 -0.602513015 0
vn 0.976248562 -0.216653645 0
vn -0 0.0129194297 -0.999916553
vn -0 0 -1
vn -0 0 -1
vn -0 0.0129194781 -0.999916553
vn -1.06455775E-06 0.677670538 -0.735365629
vn -2.12910459E-06 0.677671552 -0.735364676
vn -3.16860064E-06 0.881916583 -0.471405387
vn -1.58431112E-06 0.881916225 -0.471406341
vn 1 0 0
vn 0.999916553 0.0129188998 0
vn 1 0 0
vn 0.999916553 0.0129188998 0
vn 0.73535955 0.677677214 0
vn 0.73535955 0.677677214 0
vn 0.471393883 0.881922781 0
vn 0.471393883 0.881922781 0
vn 0.707106769 0 -0.707106769
vn 0.707083404 0.00812817086 -0.707083404
vn 0.707106769 0 -0.707106769
vn 0.707083404 0.00812813453 -0.707083404
vn 0.652825773 0.384237289 -0.652824819
vn 0.652826011 0.384236485 -0.652825058
vn 0.42639935 0.797727823 -0.4263964
vn 0.42639935 0.797727883 -0.42639643
vn 4.307366E-06 0 1
vn 4.307366E-06 0 1
vn 4.307366E-06 0 1
vn 4.307366E-06 0 1
vn -0 0 1
vn -0 0 1
vn -0 0 1
vn -0 0 1
vn -0 0 1
vn -0 0 1
vn -0 0 1
vn -0 0 1
vn 1 0 -4.06899244E-06
vn 1 0 -4.06899244E-06
vn 1 0 -4.06899244E-06
vn 1 0 -4.06899244E-06
vn -0 1 0
vn -0 1 0
vn -0 1 0
vn -0 1 0
vn -0 1 1.24999858E-07
vn 1 0 0
vn 1 0 0
vn 1 0 0
vn 1 0 0
vn 1 0 0
vn 1 0 0
vn 1 0 0
vn 1 0 0
vn -0 -1 0
vn -0 -1 0
vn -0 -1 0
vn -0 -1 0
vn -0 -1 0
vn -0 1 0
vn -0 1 0
vn -0 1 0
vn -0 1 0
vn -0 1 0
vn -0 -1 0
vn -0 -1 0
vn -0 -1 0
vn -0 -1 0
vn -0 -1 0
vn 0.707107067 0 0.707106471
vn 0.707107067 0 0.707106471
vn 0.707107067 0 0.707106471
vn 0.707107067 0 0.707106471
vn 0.707089722 0 0.707123756
vn 0.707089722 0 0.707123756
vn 0.707089722 0 0.707123756
vn 0.707089722 0 0.707123756
vn -0 -0.602502465 -0.798117101
vn -0 -0.839616179 -0.543180108
vn 0.309884131 -0.861444414 -0.402349651
vn 0.466837436 -0.632267177 -0.618305027
vn -0 -0.216646284 -0.976250172
vn 0.450800121 -0.865526259 -0.218273908
vn 0.575908363 -0.237508684 -0.78225261
vn 0.684020877 -0.641862452 -0.346595079
vn 0.543184817 -0.839613199 0
vn 0.866258562 -0.240817398 -0.437724829
vn 0.765018046 -0.644008815 0
vn 0.97625035 -0.21664542 0
vn -0 0.0129192686 -0.999916553
vn -0 0 -1
vn -0 0 -1
vn -0 0.0129194735 -0.999916553
vn -5.67232564E-06 0.677665889 -0.735369921
vn -5.67234383E-06 0.677667379 -0.73536849
vn -8.44178976E-06 0.881913781 -0.471410632
vn -8.44178976E-06 0.881913781 -0.471410632
vn 1 0 0
vn 0.999916553 0.0129197044 0
vn 1 0 0
vn 0.999916553 0.0129196886 0
vn 0.735368669 0.67766726 0
vn 0.735369384 0.677666545 -4.32478657E-07
vn 0.471410841 0.881913722 0
vn 0.471412092 0.881913066 -4.9510254E-07
vn 0.707109094 0 -0.707104445
vn 0.707085788 0.00812985376 -0.70708096
vn 0.707109094 0 -0.707104445
vn 0.707085788 0.00812982395 -0.70708096
vn 0.652825654 0.384243816 -0.652821004
vn 0.652825296 0.384245217 -0.652820647
vn 0.426412642 0.797713697 -0.426409692
vn 0.426412642 0.797713637 -0.426409692
vn 0.765018046 -0.644008815 0
vn 0.543184817 -0.839613199 0
vn 0.450800121 -0.865526259 0.218273863
vn 0.684023976 -0.641858101 0.346596897
vn 0.97625035 -0.21664542 0
vn 0.218271434 -0.865527272 0.450799346
vn 0.866261005 -0.24080576 0.437726587
vn 0.346595019 -0.641860843 0.684022307
vn -0 -0.839615762 0.543180823
vn 0.437727869 -0.24080959 0.866259277
vn -0 -0.644013047 0.76501447
vn -0 -0.21664919 0.976249456
vn 0.999916553 0.0129196886 0
vn 1 0 0
vn 1 0 0
vn 0.999916553 0.0129197463 0
vn 0.735369384 0.677666545 -4.32478657E-07
vn 0.735369444 0.677666426 -8.64956974E-07
vn 0.471413314 0.88191241 -9.90204398E-07
vn 0.471412092 0.881913066 -4.9510254E-07
vn -0 0 1
vn -0 0.0129194567 0.999916553
vn -0 0 1
vn -0 0.0129194297 0.999916553
vn -0 0.677670062 0.735366106
vn -0 0.677670538 0.735365629
vn -0 0.881915629 0.471407235
vn -0 0.881916225 0.471406341
vn 0.707106769 0 0.707106769
vn 0.707083404 0.00812973734 0.707083404
vn 0.707106769 0 0.707106769
vn 0.707083404 0.00812970195 0.707083404
vn 0.652820349 0.384249806 0.652822793
vn 0.652820647 0.384248972 0.652823091
vn 0.426400542 0.797721744 0.426406622
vn 0.426400483 0.797721744 0.426406622
vn -0 -0.644013047 0.76501447
vn -0 -0.839615762 0.543180823
vn -0.218267232 -0.865530729 0.450794816
vn -0.346592993 -0.641864598 0.684019983
vn -0 -0.21664919 0.976249456
vn -0.40233767 -0.861451566 0.30987981
vn -0.43772608 -0.240803808 0.86626178
vn -0.618301988 -0.632269621 0.466838151
vn -0.543175101 -0.839619458 0
vn -0.782258809 -0.237492472 0.575906515
vn -0.798114419 -0.602505863 0
vn -0.976249218 -0.216650441 0
vn -0 0.0129194297 0.999916553
vn -0 0 1
vn -0 0 1
vn -0 0.0129194781 0.999916553
vn -0 0.677670538 0.735365629
vn -0 0.677671552 0.735364676
vn -0 0.881916583 0.471405387
vn -0 0.881916225 0.471406341
vn -1 0 0
vn -0.999916553 0.012919087 0
vn -1 0 0
vn -0.999916553 0.012919087 0
vn -0.73535955 0.677677214 0
vn -0.73535955 0.677677214 0
vn -0.47140038 0.881919384 0
vn -0.47140038 0.881919384 0
vn -0.707106769 0 0.707106769
vn -0.707083404 0.00812816061 0.707083404
vn -0.707106769 0 0.707106769
vn -0.707083404 0.00812812429 0.707083404
vn -0.652825832 0.384237289 0.652824759
vn -0.652826011 0.384236425 0.652825058
vn -0.42639935 0.797727823 0.4263964
vn -0.42639935 0.797727883 0.42639643
vn -0 -1 0
vn -0 -1 0
vn -0 -1 0
vn -0 -1 0
vn -0 1 0
vn -0 1 0
vn -0 1 0
vn -0 1 0
g FloorSolo_0
f 3/3/3 2/2/2 1/1/1
f 4/4/4 3/3/3 1/1/1
f 7/7/7 6/6/6 5/5/5
f 6/6/6 8/8/8 5/5/5
f 6/6/6 9/9/9 8/8/8
f 12/12/12 11/11/11 10/10/10
f 13/13/13 12/12/12 10/10/10
f 16/16/16 15/15/15 14/14/14
f 17/17/17 16/16/16 14/14/14
f 20/20/20 19/19/19 18/18/18
f 19/19/19 21/21/21 18/18/18
f 19/19/19 22/22/22 21/21/21
f 25/25/25 24/24/24 23/23/23
f 24/24/24 26/26/26 23/23/23
f 24/24/24 27/27/27 26/26/26
f 30/30/30 29/29/29 28/28/28
f 29/29/29 31/31/31 28/28/28
f 29/29/29 32/32/32 31/31/31
f 35/35/35 34/34/34 33/33/33
f 36/36/36 35/35/35 33/33/33
f 39/39/39 38/38/38 37/37/37
f 38/38/38 40/40/40 37/37/37
f 38/38/38 41/41/41 40/40/40
f 44/44/44 43/43/43 42/42/42
f 45/45/45 44/44/44 42/42/42
f 48/48/48 47/47/47 46/46/46
f 49/49/49 48/48/48 46/46/46
f 52/52/52 51/51/51 50/50/50
f 51/51/51 53/53/53 50/50/50
f 51/51/51 54/54/54 53/53/53
f 57/57/57 56/56/56 55/55/55
f 56/56/56 58/58/58 55/55/55
f 56/56/56 59/59/59 58/58/58
f 62/62/62 61/61/61 60/60/60
f 61/61/61 63/63/63 60/60/60
f 61/61/61 64/64/64 63/63/63
f 67/67/67 66/66/66 65/65/65
f 67/67/67 65/65/65 68/68/68
f 69/69/69 67/67/67 68/68/68
f 72/72/72 71/71/71 70/70/70
f 72/72/72 70/70/70 73/73/73
f 74/74/74 72/72/72 73/73/73
f 77/77/77 76/76/76 75/75/75
f 78/78/78 77/77/77 75/75/75
f 81/81/81 80/80/80 79/79/79
f 82/82/82 81/81/81 79/79/79
f 85/85/85 84/84/84 83/83/83
f 86/86/86 85/85/85 83/83/83
f 86/86/86 83/83/83 87/87/87
f 88/88/88 85/85/85 86/86/86
f 89/89/89 86/86/86 87/87/87
f 90/90/90 88/88/88 86/86/86
f 90/90/90 86/86/86 89/89/89
f 91/91/91 88/88/88 90/90/90
f 92/92/92 90/90/90 89/89/89
f 93/93/93 91/91/91 90/90/90
f 93/93/93 90/90/90 92/92/92
f 94/94/94 93/93/93 92/92/92
f 97/97/97 96/96/96 95/95/95
f 98/98/98 97/97/97 95/95/95
f 98/98/98 95/95/95 99/99/99
f 100/100/100 98/98/98 99/99/99
f 100/100/100 99/99/99 101/101/101
f 99/99/99 102/102/102 101/101/101
f 105/105/105 104/104/104 103/103/103
f 104/104/104 106/106/106 103/103/103
f 104/104/104 107/107/107 106/106/106
f 107/107/107 108/108/108 106/106/106
f 107/107/107 109/109/109 108/108/108
f 109/109/109 110/110/110 108/108/108
f 113/113/113 112/112/112 111/111/111
f 112/112/112 114/114/114 111/111/111
f 112/112/112 115/115/115 114/114/114
f 115/115/115 116/116/116 114/114/114
f 115/115/115 117/117/117 116/116/116
f 117/117/117 118/118/118 116/116/116
f 121/121/121 120/120/120 119/119/119
f 122/122/122 121/121/121 119/119/119
f 122/122/122 119/119/119 123/123/123
f 124/124/124 121/121/121 122/122/122
f 125/125/125 122/122/122 123/123/123
f 126/126/126 124/124/124 122/122/122
f 126/126/126 122/122/122 125/125/125
f 127/127/127 124/124/124 126/126/126
f 128/128/128 126/126/126 125/125/125
f 129/129/129 127/127/127 126/126/126
f 129/129/129 126/126/126 128/128/128
f 130/130/130 129/129/129 128/128/128
f 133/133/133 132/132/132 131/131/131
f 134/134/134 133/133/133 131/131/131
f 134/134/134 131/131/131 135/135/135
f 136/136/136 134/134/134 135/135/135
f 136/136/136 135/135/135 137/137/137
f 135/135/135 138/138/138 137/137/137
f 141/141/141 140/140/140 139/139/139
f 140/140/140 142/142/142 139/139/139
f 140/140/140 143/143/143 142/142/142
f 143/143/143 144/144/144 142/142/142
f 143/143/143 145/145/145 144/144/144
f 145/145/145 146/146/146 144/144/144
f 149/149/149 148/148/148 147/147/147
f 148/148/148 150/150/150 147/147/147
f 148/148/148 151/151/151 150/150/150
f 151/151/151 152/152/152 150/150/150
f 151/151/151 153/153/153 152/152/152
f 153/153/153 154/154/154 152/152/152
f 157/157/157 156/156/156 155/155/155
f 158/158/158 157/157/157 155/155/155
f 158/158/158 155/155/155 159/159/159
f 160/160/160 157/157/157 158/158/158
f 161/161/161 158/158/158 159/159/159
f 162/162/162 160/160/160 158/158/158
f 162/162/162 158/158/158 161/161/161
f 163/163/163 160/160/160 162/162/162
f 164/164/164 162/162/162 161/161/161
f 165/165/165 163/163/163 162/162/162
f 165/165/165 162/162/162 164/164/164
f 166/166/166 165/165/165 164/164/164
f 169/169/169 168/168/168 167/167/167
f 170/170/170 169/169/169 167/167/167
f 170/170/170 167/167/167 171/171/171
f 172/172/172 170/170/170 171/171/171
f 172/172/172 171/171/171 173/173/173
f 171/171/171 174/174/174 173/173/173
f 177/177/177 176/176/176 175/175/175
f 176/176/176 178/178/178 175/175/175
f 176/176/176 179/179/179 178/178/178
f 179/179/179 180/180/180 178/178/178
f 179/179/179 181/181/181 180/180/180
f 181/181/181 182/182/182 180/180/180
f 185/185/185 184/184/184 183/183/183
f 184/184/184 186/186/186 183/183/183
f 184/184/184 187/187/187 186/186/186
f 187/187/187 188/188/188 186/186/186
f 187/187/187 189/189/189 188/188/188
f 189/189/189 190/190/190 188/188/188
f 193/193/193 192/192/192 191/191/191
f 193/193/193 191/191/191 194/194/194
f 195/195/195 193/193/193 194/194/194
f 198/198/198 197/197/197 196/196/196
f 198/198/198 196/196/196 199/199/199
f 200/200/200 198/198/198 199/199/199
f 203/203/203 202/202/202 201/201/201
f 204/204/204 203/203/203 201/201/201
f 207/207/207 206/206/206 205/205/205
f 208/208/208 207/207/207 205/205/205
f 211/211/211 210/210/210 209/209/209
f 212/212/212 211/211/211 209/209/209
f 212/212/212 209/209/209 213/213/213
f 214/214/214 211/211/211 212/212/212
f 215/215/215 212/212/212 213/213/213
f 216/216/216 214/214/214 212/212/212
f 216/216/216 212/212/212 215/215/215
f 217/217/217 214/214/214 216/216/216
f 218/218/218 216/216/216 215/215/215
f 219/219/219 217/217/217 216/216/216
f 219/219/219 216/216/216 218/218/218
f 220/220/220 219/219/219 218/218/218
f 223/223/223 222/222/222 221/221/221
f 224/224/224 223/223/223 221/221/221
f 224/224/224 221/221/221 225/225/225
f 226/226/226 224/224/224 225/225/225
f 226/226/226 225/225/225 227/227/227
f 225/225/225 228/228/228 227/227/227
f 231/231/231 230/230/230 229/229/229
f 230/230/230 232/232/232 229/229/229
f 230/230/230 233/233/233 232/232/232
f 233/233/233 234/234/234 232/232/232
f 233/233/233 235/235/235 234/234/234
f 235/235/235 236/236/236 234/234/234
f 239/239/239 238/238/238 237/237/237
f 238/238/238 240/240/240 237/237/237
f 238/238/238 241/241/241 240/240/240
f 241/241/241 242/242/242 240/240/240
f 241/241/241 243/243/243 242/242/242
f 243/243/243 244/244/244 242/242/242
f 247/247/247 246/246/246 245/245/245
f 248/248/248 247/247/247 245/245/245
f 248/248/248 245/245/245 249/249/249
f 250/250/250 247/247/247 248/248/248
f 251/251/251 248/248/248 249/249/249
f 252/252/252 250/250/250 248/248/248
f 252/252/252 248/248/248 251/251/251
f 253/253/253 250/250/250 252/252/252
f 254/254/254 252/252/252 251/251/251
f 255/255/255 253/253/253 252/252/252
f 255/255/255 252/252/252 254/254/254
f 256/256/256 255/255/255 254/254/254
f 259/259/259 258/258/258 257/257/257
f 260/260/260 259/259/259 257/257/257
f 260/260/260 257/257/257 261/261/261
f 262/262/262 260/260/260 261/261/261
f 262/262/262 261/261/261 263/263/263
f 261/261/261 264/264/264 263/263/263
f 267/267/267 266/266/266 265/265/265
f 266/266/266 268/268/268 265/265/265
f 266/266/266 269/269/269 268/268/268
f 269/269/269 270/270/270 268/268/268
f 269/269/269 271/271/271 270/270/270
f 271/271/271 272/272/272 270/270/270
f 275/275/275 274/274/274 273/273/273
f 274/274/274 276/276/276 273/273/273
f 274/274/274 277/277/277 276/276/276
f 277/277/277 278/278/278 276/276/276
f 277/277/277 279/279/279 278/278/278
f 279/279/279 280/280/280 278/278/278
f 283/283/283 282/282/282 281/281/281
f 284/284/284 283/283/283 281/281/281
f 284/284/284 281/281/281 285/285/285
f 286/286/286 283/283/283 284/284/284
f 287/287/287 284/284/284 285/285/285
f 288/288/288 286/286/286 284/284/284
f 288/288/288 284/284/284 287/287/287
f 289/289/289 286/286/286 288/288/288
f 290/290/290 288/288/288 287/287/287
f 291/291/291 289/289/289 288/288/288
f 291/291/291 288/288/288 290/290/290
f 292/292/292 291/291/291 290/290/290
f 295/295/295 294/294/294 293/293/293
f 296/296/296 295/295/295 293/293/293
f 296/296/296 293/293/293 297/297/297
f 298/298/298 296/296/296 297/297/297
f 298/298/298 297/297/297 299/299/299
f 297/297/297 300/300/300 299/299/299
f 303/303/303 302/302/302 301/301/301
f 302/302/302 304/304/304 301/301/301
f 302/302/302 305/305/305 304/304/304
f 305/305/305 306/306/306 304/304/304
f 305/305/305 307/307/307 306/306/306
f 307/307/307 308/308/308 306/306/306
f 311/311/311 310/310/310 309/309/309
f 310/310/310 312/312/312 309/309/309
f 310/310/310 313/313/313 312/312/312
f 313/313/313 314/314/314 312/312/312
f 313/313/313 315/315/315 314/314/314
f 315/315/315 316/316/316 314/314/314
f 319/319/319 318/318/318 317/317/317
f 320/320/320 319/319/319 317/317/317
f 323/323/323 322/322/322 321/321/321
f 324/324/324 323/323/323 321/321/321
f 327/327/327 326/326/326 325/325/325
f 328/328/328 327/327/327 325/325/325
f 328/328/328 325/325/325 329/329/329
f 330/330/330 327/327/327 328/328/328
f 331/331/331 328/328/328 329/329/329
f 332/332/332 330/330/330 328/328/328
f 332/332/332 328/328/328 331/331/331
f 333/333/333 330/330/330 332/332/332
f 334/334/334 332/332/332 331/331/331
f 335/335/335 333/333/333 332/332/332
f 335/335/335 332/332/332 334/334/334
f 336/336/336 335/335/335 334/334/334
f 339/339/339 338/338/338 337/337/337
f 340/340/340 339/339/339 337/337/337
f 340/340/340 337/337/337 341/341/341
f 342/342/342 340/340/340 341/341/341
f 342/342/342 341/341/341 343/343/343
f 341/341/341 344/344/344 343/343/343
f 347/347/347 346/346/346 345/345/345
f 346/346/346 348/348/348 345/345/345
f 346/346/346 349/349/349 348/348/348
f 349/349/349 350/350/350 348/348/348
f 349/349/349 351/351/351 350/350/350
f 351/351/351 352/352/352 350/350/350
f 355/355/355 354/354/354 353/353/353
f 354/354/354 356/356/356 353/353/353
f 354/354/354 357/357/357 356/356/356
f 357/357/357 358/358/358 356/356/356
f 357/357/357 359/359/359 358/358/358
f 359/359/359 360/360/360 358/358/358
f 363/363/363 362/362/362 361/361/361
f 364/364/364 363/363/363 361/361/361
f 364/364/364 361/361/361 365/365/365
f 366/366/366 363/363/363 364/364/364
f 367/367/367 364/364/364 365/365/365
f 368/368/368 366/366/366 364/364/364
f 368/368/368 364/364/364 367/367/367
f 369/369/369 366/366/366 368/368/368
f 370/370/370 368/368/368 367/367/367
f 371/371/371 369/369/369 368/368/368
f 371/371/371 368/368/368 370/370/370
f 372/372/372 371/371/371 370/370/370
f 375/375/375 374/374/374 373/373/373
f 376/376/376 375/375/375 373/373/373
f 376/376/376 373/373/373 377/377/377
f 378/378/378 376/376/376 377/377/377
f 378/378/378 377/377/377 379/379/379
f 377/377/377 380/380/380 379/379/379
f 383/383/383 382/382/382 381/381/381
f 382/382/382 384/384/384 381/381/381
f 382/382/382 385/385/385 384/384/384
f 385/385/385 386/386/386 384/384/384
f 385/385/385 387/387/387 386/386/386
f 387/387/387 388/388/388 386/386/386
f 391/391/391 390/390/390 389/389/389
f 390/390/390 392/392/392 389/389/389
f 390/390/390 393/393/393 392/392/392
f 393/393/393 394/394/394 392/392/392
f 393/393/393 395/395/395 394/394/394
f 395/395/395 396/396/396 394/394/394
f 399/399/399 398/398/398 397/397/397
f 400/400/400 399/399/399 397/397/397
f 400/400/400 397/397/397 401/401/401
f 402/402/402 399/399/399 400/400/400
f 403/403/403 400/400/400 401/401/401
f 404/404/404 402/402/402 400/400/400
f 404/404/404 400/400/400 403/403/403
f 405/405/405 402/402/402 404/404/404
f 406/406/406 404/404/404 403/403/403
f 407/407/407 405/405/405 404/404/404
f 407/407/407 404/404/404 406/406/406
f 408/408/408 407/407/407 406/406/406
f 411/411/411 410/410/410 409/409/409
f 412/412/412 411/411/411 409/409/409
f 412/412/412 409/409/409 413/413/413
f 414/414/414 412/412/412 413/413/413
f 414/414/414 413/413/413 415/415/415
f 413/413/413 416/416/416 415/415/415
f 419/419/419 418/418/418 417/417/417
f 418/418/418 420/420/420 417/417/417
f 418/418/418 421/421/421 420/420/420
f 421/421/421 422/422/422 420/420/420
f 421/421/421 423/423/423 422/422/422
f 423/423/423 424/424/424 422/422/422
f 427/427/427 426/426/426 425/425/425
f 426/426/426 428/428/428 425/425/425
f 426/426/426 429/429/429 428/428/428
f 429/429/429 430/430/430 428/428/428
f 429/429/429 431/431/431 430/430/430
f 431/431/431 432/432/432 430/430/430
f 435/435/435 434/434/434 433/433/433
f 436/436/436 435/435/435 433/433/433
f 439/439/439 438/438/438 437/437/437
f 440/440/440 439/439/439 437/437/437
f 443/443/443 442/442/442 441/441/441
f 444/444/444 443/443/443 441/441/441
f 447/447/447 446/446/446 445/445/445
f 448/448/448 447/447/447 445/445/445
f 451/451/451 450/450/450 449/449/449
f 450/450/450 452/452/452 449/449/449
f 450/450/450 453/453/453 452/452/452
f 456/456/456 455/455/455 454/454/454
f 457/457/457 456/456/456 454/454/454
f 460/460/460 459/459/459 458/458/458
f 461/461/461 460/460/460 458/458/458
f 464/464/464 463/463/463 462/462/462
f 463/463/463 465/465/465 462/462/462
f 463/463/463 466/466/466 465/465/465
f 469/469/469 468/468/468 467/467/467
f 468/468/468 470/470/470 467/467/467
f 468/468/468 471/471/471 470/470/470
f 474/474/474 473/473/473 472/472/472
f 473/473/473 475/475/475 472/472/472
f 473/473/473 476/476/476 475/475/475
f 479/479/479 478/478/478 477/477/477
f 480/480/480 479/479/479 477/477/477
f 483/483/483 482/482/482 481/481/481
f 484/484/484 483/483/483 481/481/481
f 487/487/487 486/486/486 485/485/485
f 488/488/488 487/487/487 485/485/485
f 488/488/488 485/485/485 489/489/489
f 490/490/490 487/487/487 488/488/488
f 491/491/491 488/488/488 489/489/489
f 492/492/492 490/490/490 488/488/488
f 492/492/492 488/488/488 491/491/491
f 493/493/493 490/490/490 492/492/492
f 494/494/494 492/492/492 491/491/491
f 495/495/495 493/493/493 492/492/492
f 495/495/495 492/492/492 494/494/494
f 496/496/496 495/495/495 494/494/494
f 499/499/499 498/498/498 497/497/497
f 500/500/500 499/499/499 497/497/497
f 500/500/500 497/497/497 501/501/501
f 502/502/502 500/500/500 501/501/501
f 502/502/502 501/501/501 503/503/503
f 501/501/501 504/504/504 503/503/503
f 507/507/507 506/506/506 505/505/505
f 506/506/506 508/508/508 505/505/505
f 506/506/506 509/509/509 508/508/508
f 509/509/509 510/510/510 508/508/508
f 509/509/509 511/511/511 510/510/510
f 511/511/511 512/512/512 510/510/510
f 515/515/515 514/514/514 513/513/513
f 514/514/514 516/516/516 513/513/513
f 514/514/514 517/517/517 516/516/516
f 517/517/517 518/518/518 516/516/516
f 517/517/517 519/519/519 518/518/518
f 519/519/519 520/520/520 518/518/518
f 523/523/523 522/522/522 521/521/521
f 524/524/524 523/523/523 521/521/521
f 524/524/524 521/521/521 525/525/525
f 526/526/526 523/523/523 524/524/524
f 527/527/527 524/524/524 525/525/525
f 528/528/528 526/526/526 524/524/524
f 528/528/528 524/524/524 527/527/527
f 529/529/529 526/526/526 528/528/528
f 530/530/530 528/528/528 527/527/527
f 531/531/531 529/529/529 528/528/528
f 531/531/531 528/528/528 530/530/530
f 532/532/532 531/531/531 530/530/530
f 535/535/535 534/534/534 533/533/533
f 536/536/536 535/535/535 533/533/533
f 536/536/536 533/533/533 537/537/537
f 538/538/538 536/536/536 537/537/537
f 538/538/538 537/537/537 539/539/539
f 537/537/537 540/540/540 539/539/539
f 543/543/543 542/542/542 541/541/541
f 542/542/542 544/544/544 541/541/541
f 542/542/542 545/545/545 544/544/544
f 545/545/545 546/546/546 544/544/544
f 545/545/545 547/547/547 546/546/546
f 547/547/547 548/548/548 546/546/546
f 551/551/551 550/550/550 549/549/549
f 550/550/550 552/552/552 549/549/549
f 550/550/550 553/553/553 552/552/552
f 553/553/553 554/554/554 552/552/552
f 553/553/553 555/555/555 554/554/554
f 555/555/555 556/556/556 554/554/554
f 559/559/559 558/558/558 557/557/557
f 560/560/560 559/559/559 557/557/557
f 560/560/560 557/557/557 561/561/561
f 562/562/562 559/559/559 560/560/560
f 563/563/563 560/560/560 561/561/561
f 564/564/564 562/562/562 560/560/560
f 564/564/564 560/560/560 563/563/563
f 565/565/565 562/562/562 564/564/564
f 566/566/566 564/564/564 563/563/563
f 567/567/567 565/565/565 564/564/564
f 567/567/567 564/564/564 566/566/566
f 568/568/568 567/567/567 566/566/566
f 571/571/571 570/570/570 569/569/569
f 572/572/572 571/571/571 569/569/569
f 572/572/572 569/569/569 573/573/573
f 574/574/574 572/572/572 573/573/573
f 574/574/574 573/573/573 575/575/575
f 573/573/573 576/576/576 575/575/575
f 579/579/579 578/578/578 577/577/577
f 578/578/578 580/580/580 577/577/577
f 578/578/578 581/581/581 580/580/580
f 581/581/581 582/582/582 580/580/580
f 581/581/581 583/583/583 582/582/582
f 583/583/583 584/584/584 582/582/582
f 587/587/587 586/586/586 585/585/585
f 586/586/586 588/588/588 585/585/585
f 586/586/586 589/589/589 588/588/588
f 589/589/589 590/590/590 588/588/588
f 589/589/589 591/591/591 590/590/590
f 591/591/591 592/592/592 590/590/590
f 595/595/595 594/594/594 593/593/593
f 596/596/596 595/595/595 593/593/593
f 599/599/599 598/598/598 597/597/597
f 600/600/600 599/599/599 597/597/597
