g FloorThreeEdge
v -0.375 -0.241832808 0.5
v -0.37500304 -0.241832808 -0.375
v -0.37500304 0.241832808 -0.375
v -0.375 0.241832808 0.5
v -0.5 -0.241832808 0.5
v -0.37500304 -0.241832808 -0.375
v -0.375 -0.241832808 0.5
v -0.5 -0.241832808 -0.375012517
v -0.375006109 -0.241832808 -0.5
v -0.37500304 0.241832808 -0.375
v -0.375012189 0.241832808 -0.5
v -0.5 0.241832808 -0.375012517
v -0.375 0.241832808 0.5
v -0.5 0.241832808 0.5
v -0.5 -0.5 0.5
v -0.5 -0.5 -0.375012517
v -0.5 -0.241832808 -0.375012517
v -0.5 -0.241832808 0.5
v -0.5 0.241832808 0.5
v -0.5 0.241832808 -0.375012517
v -0.5 0.5 -0.375012517
v -0.5 0.5 0.5
v -0.5 0.5 -0.375012517
v -0.375012189 0.5 -0.5
v -0.375006109 0.5 -0.375
v -0.5 0.5 0.5
v -0.375 0.5 0.5
v -0.375 -0.5 0.5
v -0.5 -0.5 -0.375012517
v -0.5 -0.5 0.5
v -0.375006109 -0.5 -0.375
v -0.375006109 -0.5 -0.5
v -0.375012189 0.241832808 -0.5
v -0.375012189 0.5 -0.5
v -0.5 0.5 -0.375012517
v -0.5 0.241832808 -0.375012517
v -0.5 -0.241832808 -0.375012517
v -0.5 -0.5 -0.375012517
v -0.375006109 -0.5 -0.5
v -0.375006109 -0.241832808 -0.5
v -0.375 -0.217651948 -0.141805723
v -0.375 -0.241832808 -0.179182738
v -0.387745351 -0.241832808 -0.179182738
v -0.406435549 -0.217651948 -0.141805723
v -0.375 -0.193471089 -0.136439517
v -0.457257062 -0.241832808 -0.248694152
v -0.409119248 -0.193471089 -0.136439517
v -0.494633764 -0.217651948 -0.230003655
v -0.457257062 -0.241832808 -0.318219602
v -0.5 -0.193471089 -0.227320552
v -0.494633764 -0.217651948 -0.318219602
v -0.5 -0.193471089 -0.318219602
v -0.375 0.195450202 -0.136439517
v -0.375 -0.193471089 -0.136439517
v -0.409119248 -0.193471089 -0.136439517
v -0.409119248 0.19545044 -0.136439517
v -0.375 0.221853673 -0.141805723
v -0.409119248 0.221853837 -0.141805723
v -0.409119248 0.241832808 -0.179182738
v -0.375 0.241832808 -0.179182738
v -0.5 -0.193471089 -0.318219602
v -0.5 0.195450202 -0.227320552
v -0.5 -0.193471089 -0.227320552
v -0.5 0.195450202 -0.318219602
v -0.494633764 0.221853673 -0.227320552
v -0.494633764 0.221853673 -0.318219602
v -0.457257062 0.241832808 -0.227320552
v -0.457257062 0.241832808 -0.318219602
v -0.5 -0.193471089 -0.227320552
v -0.409119248 0.19545044 -0.136439517
v -0.409119248 -0.193471089 -0.136439517
v -0.5 0.195450202 -0.227320552
v -0.409119248 0.221853837 -0.141805723
v -0.494633764 0.221853673 -0.227320552
v -0.409119248 0.241832808 -0.179182738
v -0.457257062 0.241832808 -0.227320552
v -0.494633764 -0.217651948 -0.318219602
v -0.457257062 -0.241832808 -0.318219602
v -0.457257062 -0.241832808 -0.387745053
v -0.494633764 -0.217651948 -0.406435549
v -0.5 -0.193471089 -0.318219602
v -0.387745351 -0.241832808 -0.457256466
v -0.5 -0.193471089 -0.40911895
v -0.406435549 -0.217651948 -0.494633764
v -0.318220198 -0.241832808 -0.457256466
v -0.409118652 -0.193471089 -0.5
v -0.318220198 -0.217651948 -0.494633764
v -0.318220198 -0.193471089 -0.5
v -0.5 0.195450202 -0.318219602
v -0.5 -0.193471089 -0.318219602
v -0.5 -0.193471089 -0.40911895
v -0.5 0.19545044 -0.40911895
v -0.494633764 0.221853673 -0.318219602
v -0.494633764 0.221853837 -0.40911895
v -0.457257062 0.241832808 -0.40911895
v -0.457257062 0.241832808 -0.318219602
v -0.318220198 -0.193471089 -0.5
v -0.409118652 0.195450202 -0.5
v -0.409118652 -0.193471089 -0.5
v -0.318220198 0.195450202 -0.5
v -0.409118652 0.221853673 -0.494633764
v -0.318220198 0.221853673 -0.494633764
v -0.409118652 0.241832808 -0.457256466
v -0.318220198 0.241832808 -0.457256466
v -0.409118652 -0.193471089 -0.5
v -0.5 0.19545044 -0.40911895
v -0.5 -0.193471089 -0.40911895
v -0.409118652 0.195450202 -0.5
v -0.494633764 0.221853837 -0.40911895
v -0.409118652 0.221853673 -0.494633764
v -0.457257062 0.241832808 -0.40911895
v -0.409118652 0.241832808 -0.457256466
v -0.318220198 -0.217651948 -0.494633764
v -0.318220198 -0.241832808 -0.457256466
v -0.24869445 -0.241832808 -0.457256466
v -0.230003655 -0.217651948 -0.494633466
v -0.318220198 -0.193471089 -0.5
v -0.179183349 -0.241832808 -0.387745053
v -0.227320552 -0.193471089 -0.499999672
v -0.14180541 -0.217651948 -0.406435549
v -0.179183349 -0.241832808 -0.375
v -0.136439204 -0.193471089 -0.409118652
v -0.14180541 -0.217651948 -0.375
v -0.136439204 -0.193471089 -0.375
v -0.318220198 0.195450202 -0.5
v -0.318220198 -0.193471089 -0.5
v -0.227320552 -0.193471089 -0.499999672
v -0.227320552 0.19545044 -0.499999672
v -0.318220198 0.221853673 -0.494633764
v -0.227320552 0.221853837 -0.494633466
v -0.227320552 0.241832808 -0.457256466
v -0.318220198 0.241832808 -0.457256466
v -0.136439204 -0.193471089 -0.375
v -0.136439204 0.195450202 -0.409118652
v -0.136439204 -0.193471089 -0.409118652
v -0.136439204 0.195450202 -0.375
v -0.14180541 0.221853673 -0.409118652
v -0.14180541 0.221853673 -0.375
v -0.179183349 0.241832808 -0.409118652
v -0.179183349 0.241832808 -0.375
v -0.136439204 -0.193471089 -0.409118652
v -0.227320552 0.19545044 -0.499999672
v -0.227320552 -0.193471089 -0.499999672
v -0.136439204 0.195450202 -0.409118652
v -0.227320552 0.221853837 -0.494633466
v -0.14180541 0.221853673 -0.409118652
v -0.227320552 0.241832808 -0.457256466
v -0.179183349 0.241832808 -0.409118652
v 0.375 -0.241832808 -0.375
v 0.375 -0.241832808 0.5
v 0.375 0.241832808 0.5
v 0.375 0.241832808 -0.375
v -0.37500304 -0.241832808 -0.375
v 0.375 -0.241832808 -0.375
v 0.375 0.241832808 -0.375
v -0.37500304 0.241832808 -0.375
v -0.375006109 -0.241832808 -0.5
v 0.375 -0.241832808 -0.375
v -0.37500304 -0.241832808 -0.375
v 0.375012189 -0.241832808 -0.5
v 0.5 -0.241832808 -0.375012517
v 0.375 0.241832808 -0.375
v 0.5 0.241832808 -0.375012517
v 0.375012189 0.241832808 -0.5
v -0.37500304 0.241832808 -0.375
v -0.375012189 0.241832808 -0.5
v 0.5 -0.241832808 0.5
v 0.375 -0.241832808 0.5
v 0.375 -0.241832808 -0.375
v 0.5 -0.241832808 -0.375012517
v 0.375 0.241832808 0.5
v 0.5 0.241832808 0.5
v 0.5 0.241832808 -0.375012517
v 0.375 0.241832808 -0.375
v -0.375006109 -0.5 -0.5
v 0.375012189 -0.5 -0.5
v 0.375012189 -0.241832808 -0.5
v -0.375006109 -0.241832808 -0.5
v -0.375012189 0.241832808 -0.5
v 0.375012189 0.241832808 -0.5
v 0.375012189 0.5 -0.5
v -0.375012189 0.5 -0.5
v 0.375012189 0.5 -0.5
v 0.5 0.5 -0.375012517
v 0.375 0.5 -0.375
v -0.375012189 0.5 -0.5
v -0.375006109 0.5 -0.375
v -0.375006109 -0.5 -0.375
v 0.375012189 -0.5 -0.5
v -0.375006109 -0.5 -0.5
v 0.375 -0.5 -0.375
v 0.5 -0.5 -0.375012517
v 0.5 -0.5 0.5
v 0.5 -0.241832808 0.5
v 0.5 -0.241832808 -0.375012517
v 0.5 -0.5 -0.375012517
v 0.5 0.241832808 0.5
v 0.5 0.5 0.5
v 0.5 0.5 -0.375012517
v 0.5 0.241832808 -0.375012517
v 0.5 0.5 0.5
v 0.375 0.5 0.5
v 0.375 0.5 -0.375
v 0.5 0.5 -0.375012517
v 0.375 -0.5 0.5
v 0.5 -0.5 0.5
v 0.5 -0.5 -0.375012517
v 0.375 -0.5 -0.375
v 0.5 0.241832808 -0.375012517
v 0.5 0.5 -0.375012517
v 0.375012189 0.5 -0.5
v 0.375012189 0.241832808 -0.5
v 0.375012189 -0.241832808 -0.5
v 0.375012189 -0.5 -0.5
v 0.5 -0.5 -0.375012517
v 0.5 -0.241832808 -0.375012517
v 0.14180541 -0.217651948 -0.375
v 0.179182738 -0.241832808 -0.375
v 0.179182738 -0.241832808 -0.387745351
v 0.14180541 -0.217651948 -0.406435847
v 0.136439204 -0.193471089 -0.375
v 0.248693839 -0.241832808 -0.457256764
v 0.136439204 -0.193471089 -0.409119248
v 0.230003655 -0.217651948 -0.494634092
v 0.318219602 -0.241832808 -0.457256764
v 0.227320552 -0.193471089 -0.500000298
v 0.318219602 -0.217651948 -0.494633764
v 0.318219602 -0.193471089 -0.5
v 0.136439204 0.195450202 -0.375
v 0.136439204 -0.193471089 -0.375
v 0.136439204 -0.193471089 -0.409119248
v 0.136439204 0.19545044 -0.409119248
v 0.14180541 0.221853673 -0.375
v 0.14180541 0.221853837 -0.409119248
v 0.179182738 0.241832808 -0.409119248
v 0.179182738 0.241832808 -0.375
v 0.318219602 -0.193471089 -0.5
v 0.227320552 0.195450202 -0.500000298
v 0.227320552 -0.193471089 -0.500000298
v 0.318219602 0.195450202 -0.5
v 0.227320552 0.221853673 -0.494634092
v 0.318219602 0.221853673 -0.494633764
v 0.227320552 0.241832808 -0.457256764
v 0.318219602 0.241832808 -0.457256764
v 0.227320552 -0.193471089 -0.500000298
v 0.136439204 0.19545044 -0.409119248
v 0.136439204 -0.193471089 -0.409119248
v 0.227320552 0.195450202 -0.500000298
v 0.14180541 0.221853837 -0.409119248
v 0.227320552 0.221853673 -0.494634092
v 0.179182738 0.241832808 -0.409119248
v 0.227320552 0.241832808 -0.457256764
v 0.318219602 -0.217651948 -0.494633764
v 0.318219602 -0.241832808 -0.457256764
v 0.387745351 -0.241832808 -0.457256764
v 0.406435549 -0.217651948 -0.494633764
v 0.318219602 -0.193471089 -0.5
v 0.457256466 -0.241832808 -0.387745351
v 0.409118652 -0.193471089 -0.5
v 0.494633764 -0.217651948 -0.406435847
v 0.457256466 -0.241832808 -0.3182199
v 0.5 -0.193471089 -0.40911895
v 0.494633764 -0.217651948 -0.3182199
v 0.5 -0.193471089 -0.3182199
v 0.318219602 0.195450202 -0.5
v 0.318219602 -0.193471089 -0.5
v 0.409118652 -0.193471089 -0.5
v 0.409118652 0.19545044 -0.5
v 0.318219602 0.221853673 -0.494633764
v 0.409118652 0.221853837 -0.494633764
v 0.409118652 0.241832808 -0.457256764
v 0.318219602 0.241832808 -0.457256764
v 0.5 -0.193471089 -0.3182199
v 0.5 0.195450202 -0.40911895
v 0.5 -0.193471089 -0.40911895
v 0.5 0.195450202 -0.3182199
v 0.494633764 0.221853673 -0.40911895
v 0.494633764 0.221853673 -0.3182199
v 0.457256466 0.241832808 -0.40911895
v 0.457256466 0.241832808 -0.3182199
v 0.5 -0.193471089 -0.40911895
v 0.409118652 0.19545044 -0.5
v 0.409118652 -0.193471089 -0.5
v 0.5 0.195450202 -0.40911895
v 0.409118652 0.221853837 -0.494633764
v 0.494633764 0.221853673 -0.40911895
v 0.409118652 0.241832808 -0.457256764
v 0.457256466 0.241832808 -0.40911895
v 0.494633764 -0.217651948 -0.3182199
v 0.457256466 -0.241832808 -0.3182199
v 0.457256466 -0.241832808 -0.24869445
v 0.494633764 -0.217651948 -0.230003968
v 0.5 -0.193471089 -0.3182199
v 0.387745351 -0.241832808 -0.179183036
v 0.5 -0.193471089 -0.227320552
v 0.406435549 -0.217651948 -0.141805723
v 0.375 -0.241832808 -0.179183036
v 0.409118652 -0.193471089 -0.136439517
v 0.375 -0.217651948 -0.141805723
v 0.375 -0.193471089 -0.136439517
v 0.5 0.195450202 -0.3182199
v 0.5 -0.193471089 -0.3182199
v 0.5 -0.193471089 -0.227320552
v 0.5 0.19545044 -0.227320552
v 0.494633764 0.221853673 -0.3182199
v 0.494633764 0.221853837 -0.227320552
v 0.457256466 0.241832808 -0.227320552
v 0.457256466 0.241832808 -0.3182199
v 0.375 -0.193471089 -0.136439517
v 0.409118652 0.195450202 -0.136439517
v 0.409118652 -0.193471089 -0.136439517
v 0.375 0.195450202 -0.136439517
v 0.409118652 0.221853673 -0.141805723
v 0.375 0.221853673 -0.141805723
v 0.409118652 0.241832808 -0.179183036
v 0.375 0.241832808 -0.179183036
v 0.409118652 -0.193471089 -0.136439517
v 0.5 0.19545044 -0.227320552
v 0.5 -0.193471089 -0.227320552
v 0.409118652 0.195450202 -0.136439517
v 0.494633764 0.221853837 -0.227320552
v 0.409118652 0.221853673 -0.141805723
v 0.457256466 0.241832808 -0.227320552
v 0.409118652 0.241832808 -0.179183036
v -0.375 -0.5 0.5
v 0.375 -0.5 0.5
v 0.375 -0.5 -0.375
v -0.375006109 -0.5 -0.375
v -0.375006109 0.5 -0.375
v 0.375 0.5 -0.375
v 0.375 0.5 0.5
v -0.375 0.5 0.5
vt 0.847401738 0.0448165014
vt 0.847401559 0.0471532159
vt 0.848691165 0.0471532121
vt 0.848691404 0.0448165014
vt 0.862585366 0.677762747
vt 0.792306006 0.377960026
vt 0.792306006 0.67031461
vt 0.862585366 0.384156853
vt 0.792306006 0.358564496
vt 0.862585366 0.622459292
vt 0.862585366 0.639911711
vt 0.792306006 0.6184358
vt 0.862585366 0.358726442
vt 0.792306006 0.354699343
vt 0.0148505215 0.991301715
vt 0.35889858 0.991301715
vt 0.35889852 0.841220081
vt 0.0148505215 0.841220081
vt 0.410070181 0.991301715
vt 0.0639922619 0.991301715
vt 0.0639922321 0.841220081
vt 0.410070181 0.841220081
vt 0.862585366 0.384156793
vt 0.792306006 0.357501239
vt 0.792306006 0.377960026
vt 0.862585366 0.677762747
vt 0.792306006 0.670244873
vt 0.862585366 0.358508527
vt 0.792306006 0.617487669
vt 0.792306006 0.355963647
vt 0.862585366 0.624144912
vt 0.862585366 0.660711944
vt 0.0148505215 0.991301715
vt 0.0148505215 0.841220081
vt 0.0639922321 0.841220081
vt 0.0639922619 0.991301715
vt 0.35889852 0.841220081
vt 0.35889858 0.991301715
vt 0.410070181 0.991301715
vt 0.410070181 0.841220081
vt 0.0449833423 0.238290533
vt 0.0504323691 0.21879369
vt 0.0568973236 0.218793631
vt 0.0559379719 0.238290578
vt 0.0398230627 0.24892424
vt 0.101008981 0.218793631
vt 0.0529015698 0.24892433
vt 0.101995908 0.238290578
vt 0.130988613 0.218793631
vt 0.104944408 0.24892433
vt 0.133666739 0.238290578
vt 0.139287129 0.24892433
vt 0.0399356596 0.421548724
vt 0.0399356596 0.24892433
vt 0.0529015698 0.24892433
vt 0.0529015698 0.421548843
vt 0.0414353386 0.43326807
vt 0.0548691638 0.43326807
vt 0.0641084984 0.442135781
vt 0.0464036837 0.442135751
vt 0.139287129 0.24892433
vt 0.104944408 0.421548754
vt 0.104944408 0.24892433
vt 0.139287129 0.421548754
vt 0.103481077 0.433268011
vt 0.139805362 0.433268011
vt 0.0966164246 0.442135811
vt 0.139287114 0.442135751
vt 0.104944408 0.24892433
vt 0.0529015698 0.421548843
vt 0.0529015698 0.24892433
vt 0.104944408 0.421548754
vt 0.0548691638 0.43326807
vt 0.103481077 0.433268011
vt 0.0641084984 0.442135781
vt 0.0966164246 0.442135811
vt 0.133243755 0.238290548
vt 0.13053675 0.218793631
vt 0.10056892 0.218793631
vt 0.101528265 0.238290548
vt 0.139107987 0.248924345
vt 0.056457255 0.218793631
vt 0.104564667 0.248924345
vt 0.0554703288 0.238290548
vt 0.0264776107 0.218793631
vt 0.0525218286 0.248924345
vt 0.0237994995 0.238290548
vt 0.0181791019 0.248924345
vt 0.139107987 0.421548754
vt 0.139107987 0.248924345
vt 0.104564667 0.248924345
vt 0.104564667 0.421548843
vt 0.139805332 0.433268011
vt 0.102597073 0.43326807
vt 0.0933577418 0.442135781
vt 0.139107928 0.442135811
vt 0.0181791019 0.248924345
vt 0.0525218286 0.421548754
vt 0.0525218286 0.248924345
vt 0.0181791019 0.421548754
vt 0.053985171 0.433268011
vt 0.0176608842 0.433268011
vt 0.0608498119 0.442135811
vt 0.0181791335 0.442135751
vt 0.0525218286 0.248924345
vt 0.104564667 0.421548843
vt 0.104564667 0.248924345
vt 0.0525218286 0.421548754
vt 0.102597073 0.43326807
vt 0.053985171 0.433268011
vt 0.0933577418 0.442135781
vt 0.0608498119 0.442135811
vt 0.0242224745 0.238290578
vt 0.026929494 0.218793631
vt 0.0568973236 0.218793631
vt 0.0559379719 0.238290578
vt 0.0183582567 0.24892433
vt 0.101008981 0.218793631
vt 0.0529015698 0.24892433
vt 0.101995908 0.238290578
vt 0.107485168 0.21879369
vt 0.104944408 0.24892433
vt 0.112931214 0.238290533
vt 0.117938109 0.24892424
vt 0.0183582567 0.421548754
vt 0.0183582567 0.24892433
vt 0.0529015698 0.24892433
vt 0.0529015698 0.421548843
vt 0.0176608972 0.433268011
vt 0.0548691638 0.43326807
vt 0.0641084984 0.442135781
vt 0.0183583088 0.442135811
vt 0.117834844 0.248924345
vt 0.104944408 0.421548754
vt 0.104944408 0.24892433
vt 0.117834844 0.421548754
vt 0.103481077 0.433268011
vt 0.116719715 0.43326807
vt 0.0966164246 0.442135811
vt 0.113028288 0.442135781
vt 0.104944408 0.24892433
vt 0.0529015698 0.421548843
vt 0.0529015698 0.24892433
vt 0.104944408 0.421548754
vt 0.0548691638 0.43326807
vt 0.103481077 0.433268011
vt 0.0641084984 0.442135781
vt 0.0966164246 0.442135811
vt 0.847401679 0.0451463014
vt 0.847401738 0.047483027
vt 0.848691463 0.0474830307
vt 0.848691344 0.0451463014
vt 0.42757836 0.993755341
vt 0.42757836 0.688174725
vt 0.616969883 0.688174725
vt 0.616969645 0.993755341
vt 0.862585366 0.635596931
vt 0.792306006 0.377960026
vt 0.792306006 0.628703177
vt 0.862585366 0.384156853
vt 0.792306006 0.358564496
vt 0.862585366 0.622459292
vt 0.862585366 0.639911711
vt 0.792306006 0.6184358
vt 0.862585366 0.396398783
vt 0.792306006 0.392371684
vt 0.862585366 0.342528701
vt 0.792306006 0.335266173
vt 0.792306006 0.627933323
vt 0.862585366 0.635682225
vt 0.862585366 0.660135329
vt 0.792306006 0.656108201
vt 0.792306006 0.392371684
vt 0.862585366 0.396402597
vt 0.0639972091 0.991301715
vt 0.35889858 0.991301715
vt 0.35889852 0.841220081
vt 0.063997224 0.841220081
vt 0.35889852 0.991301715
vt 0.0639922619 0.991301715
vt 0.0639922321 0.841220081
vt 0.358898461 0.841220081
vt 0.862585366 0.384156793
vt 0.792306006 0.357501239
vt 0.792306006 0.377960026
vt 0.862585366 0.635588765
vt 0.792306006 0.628651798
vt 0.862585366 0.396945655
vt 0.792306006 0.617487669
vt 0.792306006 0.392588586
vt 0.862585366 0.624144912
vt 0.862585366 0.660711944
vt 0.410070181 0.991301715
vt 0.410070181 0.841220081
vt 0.0639925003 0.841220081
vt 0.0639923885 0.991301715
vt 0.0148505215 0.991301715
vt 0.0148505215 0.841220081
vt 0.358898401 0.841220081
vt 0.358898461 0.991301715
vt 0.862585366 0.342633426
vt 0.792306006 0.33578378
vt 0.792306006 0.627933323
vt 0.862585366 0.635587335
vt 0.862585366 0.660776138
vt 0.792306006 0.656142473
vt 0.792306006 0.392580688
vt 0.862585366 0.394716948
vt 0.0148505215 0.991301715
vt 0.0148505215 0.841220081
vt 0.0639922321 0.841220081
vt 0.0639922619 0.991301715
vt 0.35889852 0.841220081
vt 0.35889858 0.991301715
vt 0.410070181 0.991301715
vt 0.410070181 0.841220081
vt 0.0449833423 0.238290533
vt 0.0504323691 0.21879369
vt 0.0568973236 0.218793631
vt 0.0559379719 0.238290578
vt 0.0398230627 0.24892424
vt 0.101008981 0.218793631
vt 0.0529015698 0.24892433
vt 0.101995908 0.238290578
vt 0.130988613 0.218793631
vt 0.104944408 0.24892433
vt 0.133666739 0.238290578
vt 0.139287129 0.24892433
vt 0.0399356596 0.421548724
vt 0.0399356596 0.24892433
vt 0.0529015698 0.24892433
vt 0.0529015698 0.421548843
vt 0.0414353386 0.43326807
vt 0.0548691638 0.43326807
vt 0.0641084984 0.442135781
vt 0.0464036837 0.442135751
vt 0.139287129 0.24892433
vt 0.104944408 0.421548754
vt 0.104944408 0.24892433
vt 0.139287129 0.421548754
vt 0.103481077 0.433268011
vt 0.139805362 0.433268011
vt 0.0966164246 0.442135811
vt 0.139287114 0.442135751
vt 0.104944408 0.24892433
vt 0.0529015698 0.421548843
vt 0.0529015698 0.24892433
vt 0.104944408 0.421548754
vt 0.0548691638 0.43326807
vt 0.103481077 0.433268011
vt 0.0641084984 0.442135781
vt 0.0966164246 0.442135811
vt 0.133243755 0.238290548
vt 0.13053675 0.218793631
vt 0.10056892 0.218793631
vt 0.101528265 0.238290548
vt 0.139107987 0.248924345
vt 0.056457255 0.218793631
vt 0.104564667 0.248924345
vt 0.0554703288 0.238290548
vt 0.0264776107 0.218793631
vt 0.0525218286 0.248924345
vt 0.0237994995 0.238290548
vt 0.0181791019 0.248924345
vt 0.139107987 0.421548754
vt 0.139107987 0.248924345
vt 0.104564667 0.248924345
vt 0.104564667 0.421548843
vt 0.139805332 0.433268011
vt 0.102597073 0.43326807
vt 0.0933577418 0.442135781
vt 0.139107928 0.442135811
vt 0.0181791019 0.248924345
vt 0.0525218286 0.421548754
vt 0.0525218286 0.248924345
vt 0.0181791019 0.421548754
vt 0.053985171 0.433268011
vt 0.0176608842 0.433268011
vt 0.0608498119 0.442135811
vt 0.0181791335 0.442135751
vt 0.0525218286 0.248924345
vt 0.104564667 0.421548843
vt 0.104564667 0.248924345
vt 0.0525218286 0.421548754
vt 0.102597073 0.43326807
vt 0.053985171 0.433268011
vt 0.0933577418 0.442135781
vt 0.0608498119 0.442135811
vt 0.0242224745 0.238290578
vt 0.026929494 0.218793631
vt 0.0568973236 0.218793631
vt 0.0559379719 0.238290578
vt 0.0183582567 0.24892433
vt 0.101008981 0.218793631
vt 0.0529015698 0.24892433
vt 0.101995908 0.238290578
vt 0.107485168 0.21879369
vt 0.104944408 0.24892433
vt 0.112931214 0.238290533
vt 0.117938109 0.24892424
vt 0.0183582567 0.421548754
vt 0.0183582567 0.24892433
vt 0.0529015698 0.24892433
vt 0.0529015698 0.421548843
vt 0.0176608972 0.433268011
vt 0.0548691638 0.43326807
vt 0.0641084984 0.442135781
vt 0.0183583088 0.442135811
vt 0.117834844 0.248924345
vt 0.104944408 0.421548754
vt 0.104944408 0.24892433
vt 0.117834844 0.421548754
vt 0.103481077 0.433268011
vt 0.116719715 0.43326807
vt 0.0966164246 0.442135811
vt 0.113028288 0.442135781
vt 0.104944408 0.24892433
vt 0.0529015698 0.421548843
vt 0.0529015698 0.24892433
vt 0.104944408 0.421548754
vt 0.0548691638 0.43326807
vt 0.103481077 0.433268011
vt 0.0641084984 0.442135781
vt 0.0966164246 0.442135811
vt 0.946784735 0.045531258
vt 0.946784735 0.0455306545
vt 0.946783543 0.0455306545
vt 0.946783543 0.045531258
vt 0.946784735 0.045531258
vt 0.946784735 0.0455306545
vt 0.946783543 0.0455306545
vt 0.946783543 0.045531258
vn -1 0 3.48772278E-06
vn -1 0 3.48772278E-06
vn -1 0 3.48772278E-06
vn -1 0 3.48772278E-06
vn -0 1 0
vn -0 1 0
vn -0 1 0
vn -0 1 0
vn -0 1 -1.24997996E-07
vn -0 -1 0
vn -0 -1 0
vn -0 -1 0
vn -0 -1 0
vn -0 -1 0
vn -1 0 0
vn -1 0 0
vn -1 0 0
vn -1 0 0
vn -1 0 0
vn -1 0 0
vn -1 0 0
vn -1 0 0
vn -0 1 0
vn -0 1 0
vn -0 1 0
vn -0 1 0
vn -0 1 0
vn -0 -1 0
vn -0 -1 0
vn -0 -1 0
vn -0 -1 0
vn -0 -1 0
vn -0.707106054 0 -0.707107484
vn -0.707106054 0 -0.707107484
vn -0.707106054 0 -0.707107484
vn -0.707106054 0 -0.707107484
vn -0.707088649 0 -0.707124829
vn -0.707088649 0 -0.707124829
vn -0.707088649 0 -0.707124829
vn -0.707088649 0 -0.707124829
vn -0 -0.602502465 0.798117101
vn -0 -0.839616179 0.543180108
vn -0.309883207 -0.861445487 0.40234822
vn -0.466836482 -0.632269681 0.61830318
vn -0 -0.216646284 0.976250172
vn -0.450800836 -0.865525842 0.218274251
vn -0.575908363 -0.237508669 0.78225255
vn -0.684020579 -0.641862214 0.346595943
vn -0.54319036 -0.839609563 0
vn -0.866258681 -0.240817383 0.437724829
vn -0.765019417 -0.644007146 0
vn -0.976247847 -0.216656521 0
vn -0 0.0129192686 0.999916553
vn -0 0 1
vn -0 0 1
vn -0 0.0129194735 0.999916553
vn 2.83614077E-06 0.677672088 0.735364258
vn 2.83615009E-06 0.677673578 0.735362828
vn 4.22083212E-06 0.881917596 0.471403629
vn 4.22083212E-06 0.881917596 0.471403629
vn -1 0 0
vn -0.999916553 0.0129196374 0
vn -1 0 0
vn -0.999916553 0.0129196532 0
vn -0.735369146 0.677666724 0
vn -0.735369325 0.677666545 4.32478629E-07
vn -0.471412033 0.881913066 0
vn -0.471412033 0.881913066 4.95102483E-07
vn -0.707107186 0 0.707106352
vn -0.707083821 0.00812904444 0.707082868
vn -0.707107186 0 0.707106352
vn -0.707083821 0.00812901091 0.707082868
vn -0.65282619 0.384236127 0.652824998
vn -0.652826071 0.384236723 0.652824759
vn -0.426410943 0.797714293 0.426410019
vn -0.426410943 0.797714293 0.426410019
vn -0.765019417 -0.644007146 0
vn -0.54319036 -0.839609563 0
vn -0.450802207 -0.865525305 -0.218273655
vn -0.684022248 -0.641860843 -0.346595317
vn -0.976247847 -0.216656521 0
vn -0.218272254 -0.865528047 -0.450797498
vn -0.866257668 -0.240813926 -0.437728494
vn -0.346595109 -0.641862273 -0.684020996
vn 1.73834894E-06 -0.839615762 -0.543180823
vn -0.437727571 -0.240808144 -0.866259813
vn 1.14646969E-06 -0.644012868 -0.765014648
vn -0 -0.216649204 -0.976249456
vn -0.999916553 0.0129196532 0
vn -1 0 0
vn -1 0 0
vn -0.999916553 0.0129197463 0
vn -0.735369325 0.677666545 4.32478629E-07
vn -0.735368967 0.677666962 8.64957542E-07
vn -0.471412033 0.881913066 9.90204967E-07
vn -0.471412033 0.881913066 4.95102483E-07
vn 2.76235164E-06 0 -1
vn -0 0.0129194567 -0.999916553
vn -0 0 -1
vn 2.58652699E-06 0.0129194241 -0.999916553
vn -0 0.677670062 -0.735366106
vn 5.32278989E-07 0.677669287 -0.735366881
vn -0 0.881915629 -0.471407235
vn 7.92157778E-07 0.88191539 -0.471407682
vn -0.707106769 0 -0.707106769
vn -0.707083225 0.00812890381 -0.707083464
vn -0.707106769 0 -0.707106769
vn -0.707083285 0.00812887028 -0.707083464
vn -0.652821362 0.384243309 -0.652825773
vn -0.652821422 0.384243011 -0.652825773
vn -0.42639944 0.797723949 -0.426403612
vn -0.426399469 0.797723949 -0.426403612
vn 1.14646969E-06 -0.644012868 -0.765014648
vn 1.73834894E-06 -0.839615762 -0.543180823
vn 0.218269363 -0.865529776 -0.450795621
vn 0.346594155 -0.641864181 -0.684019685
vn -0 -0.216649204 -0.976249456
vn 0.402340025 -0.861450076 -0.309881032
vn 0.437725991 -0.240803808 -0.86626178
vn 0.61830157 -0.632269025 -0.466839403
vn 0.543180764 -0.839615762 0
vn 0.782257676 -0.237493098 -0.575907946
vn 0.798114657 -0.602505624 0
vn 0.976248562 -0.216653645 0
vn 2.58652699E-06 0.0129194241 -0.999916553
vn 2.76235164E-06 0 -1
vn 5.52466418E-06 0 -1
vn 5.17301214E-06 0.0129194818 -0.999916553
vn 5.32278989E-07 0.677669287 -0.735366881
vn 1.06455639E-06 0.677669644 -0.735366404
vn 1.5843093E-06 0.881915212 -0.471408069
vn 7.92157778E-07 0.88191539 -0.471407682
vn 1 0 0
vn 0.999916553 0.0129188998 0
vn 1 0 0
vn 0.999916553 0.0129188998 0
vn 0.735360742 0.677675784 0
vn 0.735360742 0.677675784 0
vn 0.471397042 0.881921053 0
vn 0.471397042 0.881921053 0
vn 0.707104802 0 -0.707108676
vn 0.707081497 0.00812901463 -0.707085311
vn 0.707104802 0 -0.707108676
vn 0.707081497 0.00812897552 -0.707085192
vn 0.652822554 0.384246975 -0.652822256
vn 0.652823091 0.384245425 -0.652822793
vn 0.426397711 0.797728479 -0.426396757
vn 0.426397711 0.797728479 -0.426396757
vn 1 0 0
vn 1 0 0
vn 1 0 0
vn 1 0 0
vn -0 0 -1
vn -0 0 -1
vn -0 0 -1
vn -0 0 -1
vn -0 1 -1.24997996E-07
vn -0 1 0
vn -0 1 0
vn -0 1 -1.24997328E-07
vn -0 1 0
vn -0 -1 0
vn -0 -1 0
vn -0 -1 0
vn -0 -1 0
vn -0 -1 0
vn -0 1 0
vn -0 1 0
vn -0 1 0
vn -0 1 0
vn -0 -1 0
vn -0 -1 0
vn -0 -1 0
vn -0 -1 0
vn -0 0 -1
vn -0 0 -1
vn -0 0 -1
vn -0 0 -1
vn -0 0 -1
vn -0 0 -1
vn -0 0 -1
vn -0 0 -1
vn -0 1 0
vn -0 1 0
vn -0 1 0
vn -0 1 0
vn -0 1 0
vn -0 -1 0
vn -0 -1 0
vn -0 -1 0
vn -0 -1 0
vn -0 -1 0
vn 1 0 0
vn 1 0 0
vn 1 0 0
vn 1 0 0
vn 1 0 0
vn 1 0 0
vn 1 0 0
vn 1 0 0
vn -0 1 0
vn -0 1 0
vn -0 1 0
vn -0 1 0
vn -0 -1 0
vn -0 -1 0
vn -0 -1 0
vn -0 -1 0
vn 0.707106054 0 -0.707107484
vn 0.707106054 0 -0.707107484
vn 0.707106054 0 -0.707107484
vn 0.707106054 0 -0.707107484
vn 0.707106054 0 -0.707107484
vn 0.707106054 0 -0.707107484
vn 0.707106054 0 -0.707107484
vn 0.707106054 0 -0.707107484
vn -0.798112154 -0.602509022 0
vn -0.543177903 -0.83961761 0
vn -0.402347177 -0.861445844 -0.309883356
vn -0.61830461 -0.632266819 -0.466838509
vn -0.976246536 -0.216663003 0
vn -0.218273968 -0.865527809 -0.45079717
vn -0.782256782 -0.237496927 -0.575907588
vn -0.34659487 -0.641861677 -0.684021652
vn -0 -0.839614213 -0.543183208
vn -0.437725067 -0.240805462 -0.86626178
vn 1.14647071E-06 -0.644011497 -0.765015841
vn 2.75148477E-06 -0.21664913 -0.976249456
vn -0.999916553 0.0129202558 0
vn -1 0 0
vn -1 0 0
vn -0.999916553 0.0129204616 0
vn -0.735367179 0.67766881 1.94985068E-06
vn -0.735365927 0.6776703 1.94985228E-06
vn -0.471407384 0.881915569 2.11045176E-06
vn -0.471407384 0.881915569 2.11045176E-06
vn 2.76235187E-06 0 -1
vn 3.23315447E-07 0.0129194427 -0.999916553
vn -0 0 -1
vn 2.74818444E-06 0.0129194269 -0.999916553
vn 2.12911823E-06 0.677669942 -0.735366225
vn 1.06455889E-06 0.677669644 -0.735366404
vn -0 0.881915748 -0.471407145
vn -0 0.88191539 -0.471407682
vn -0.707104802 0 -0.707108736
vn -0.707081497 0.00812861696 -0.707085371
vn -0.707104802 0 -0.707108736
vn -0.707081497 0.00812858529 -0.707085371
vn -0.652822852 0.384239495 -0.652826488
vn -0.652822673 0.384239763 -0.652826428
vn -0.426399857 0.797724664 -0.426401764
vn -0.426399797 0.797724664 -0.426401764
vn 1.14647071E-06 -0.644011497 -0.765015841
vn -0 -0.839614213 -0.543183208
vn 0.218275264 -0.865525544 -0.450800717
vn 0.346595705 -0.64185977 -0.684023082
vn 2.75148477E-06 -0.21664913 -0.976249456
vn 0.45079878 -0.865527332 -0.218272224
vn 0.43772459 -0.240807533 -0.866261542
vn 0.684021413 -0.641861618 -0.346595585
vn 0.543177247 -0.839618027 0
vn 0.866260111 -0.240807936 -0.437727213
vn 0.765013099 -0.644014776 0
vn 0.97625035 -0.21664542 0
vn 2.74818444E-06 0.0129194269 -0.999916553
vn 2.76235187E-06 0 -1
vn 5.52470192E-06 0 -1
vn 5.17304761E-06 0.0129194828 -0.999916553
vn 1.06455889E-06 0.677669644 -0.735366404
vn -0 0.677669108 -0.735366881
vn -0 0.881915092 -0.471408218
vn -0 0.88191539 -0.471407682
vn 1 0 0
vn 0.999916553 0.0129197044 0
vn 1 0 0
vn 0.999916553 0.0129196728 0
vn 0.735364974 0.677671313 0
vn 0.73536545 0.677670777 -3.6594102E-07
vn 0.471406788 0.881915867 0
vn 0.471406788 0.881915867 -3.96077581E-07
vn 0.707104802 0 -0.707108676
vn 0.707081497 0.00812901463 -0.707085311
vn 0.707104802 0 -0.707108676
vn 0.707081497 0.00812897552 -0.707085192
vn 0.652824104 0.384241968 -0.652823806
vn 0.652824402 0.384240866 -0.652824104
vn 0.426404268 0.797721505 -0.426403314
vn 0.426404268 0.797721505 -0.426403314
vn 0.765013099 -0.644014776 0
vn 0.543177247 -0.839618027 0
vn 0.45079881 -0.865527332 0.218272194
vn 0.684023619 -0.641859233 0.346595407
vn 0.97625035 -0.21664542 0
vn 0.309886694 -0.861444354 0.402348042
vn 0.866260648 -0.240800172 0.437730372
vn 0.466842711 -0.632261634 0.618306696
vn -0 -0.839616299 0.543179929
vn 0.575908124 -0.237491518 0.782258034
vn -0 -0.602504432 0.798115492
vn -0 -0.216648087 0.976249814
vn 0.999916553 0.0129196728 0
vn 1 0 0
vn 1 0 0
vn 0.999916553 0.0129197165 0
vn 0.73536545 0.677670777 -3.6594102E-07
vn 0.735365391 0.677670836 -7.31881869E-07
vn 0.471406788 0.881915867 -7.92155163E-07
vn 0.471406788 0.881915867 -3.96077581E-07
vn -0 0 1
vn -0 0.0129193887 0.999916553
vn -0 0 1
vn -0 0.0129193887 0.999916553
vn -0 0.677665412 0.735370338
vn -0 0.677665412 0.735370338
vn -0 0.881912887 0.471412361
vn -0 0.881912887 0.471412361
vn 0.707106769 0 0.707106769
vn 0.707083344 0.00812889729 0.707083404
vn 0.707106769 0 0.707106769
vn 0.707083404 0.00812886469 0.707083404
vn 0.652823269 0.384242475 0.652824223
vn 0.65282321 0.384242743 0.652824163
vn 0.426399857 0.797724664 0.426401764
vn 0.426399797 0.797724664 0.426401764
vn -0 -1 0
vn -0 -1 0
vn -0 -1 0
vn -0 -1 0
vn -0 1 0
vn -0 1 0
vn -0 1 0
vn -0 1 0
g FloorThreeEdge_0
f 3/3/3 2/2/2 1/1/1
f 4/4/4 3/3/3 1/1/1
f 7/7/7 6/6/6 5/5/5
f 6/6/6 8/8/8 5/5/5
f 6/6/6 9/9/9 8/8/8
f 12/12/12 11/11/11 10/10/10
f 12/12/12 10/10/10 13/13/13
f 14/14/14 12/12/12 13/13/13
f 17/17/17 16/16/16 15/15/15
f 18/18/18 17/17/17 15/15/15
f 21/21/21 20/20/20 19/19/19
f 22/22/22 21/21/21 19/19/19
f 25/25/25 24/24/24 23/23/23
f 25/25/25 23/23/23 26/26/26
f 27/27/27 25/25/25 26/26/26
f 30/30/30 29/29/29 28/28/28
f 29/29/29 31/31/31 28/28/28
f 29/29/29 32/32/32 31/31/31
f 35/35/35 34/34/34 33/33/33
f 36/36/36 35/35/35 33/33/33
f 39/39/39 38/38/38 37/37/37
f 40/40/40 39/39/39 37/37/37
f 43/43/43 42/42/42 41/41/41
f 44/44/44 43/43/43 41/41/41
f 44/44/44 41/41/41 45/45/45
f 46/46/46 43/43/43 44/44/44
f 47/47/47 44/44/44 45/45/45
f 48/48/48 46/46/46 44/44/44
f 48/48/48 44/44/44 47/47/47
f 49/49/49 46/46/46 48/48/48
f 50/50/50 48/48/48 47/47/47
f 51/51/51 49/49/49 48/48/48
f 51/51/51 48/48/48 50/50/50
f 52/52/52 51/51/51 50/50/50
f 55/55/55 54/54/54 53/53/53
f 56/56/56 55/55/55 53/53/53
f 56/56/56 53/53/53 57/57/57
f 58/58/58 56/56/56 57/57/57
f 58/58/58 57/57/57 59/59/59
f 57/57/57 60/60/60 59/59/59
f 63/63/63 62/62/62 61/61/61
f 62/62/62 64/64/64 61/61/61
f 62/62/62 65/65/65 64/64/64
f 65/65/65 66/66/66 64/64/64
f 65/65/65 67/67/67 66/66/66
f 67/67/67 68/68/68 66/66/66
f 71/71/71 70/70/70 69/69/69
f 70/70/70 72/72/72 69/69/69
f 70/70/70 73/73/73 72/72/72
f 73/73/73 74/74/74 72/72/72
f 73/73/73 75/75/75 74/74/74
f 75/75/75 76/76/76 74/74/74
f 79/79/79 78/78/78 77/77/77
f 80/80/80 79/79/79 77/77/77
f 80/80/80 77/77/77 81/81/81
f 82/82/82 79/79/79 80/80/80
f 83/83/83 80/80/80 81/81/81
f 84/84/84 82/82/82 80/80/80
f 84/84/84 80/80/80 83/83/83
f 85/85/85 82/82/82 84/84/84
f 86/86/86 84/84/84 83/83/83
f 87/87/87 85/85/85 84/84/84
f 87/87/87 84/84/84 86/86/86
f 88/88/88 87/87/87 86/86/86
f 91/91/91 90/90/90 89/89/89
f 92/92/92 91/91/91 89/89/89
f 92/92/92 89/89/89 93/93/93
f 94/94/94 92/92/92 93/93/93
f 94/94/94 93/93/93 95/95/95
f 93/93/93 96/96/96 95/95/95
f 99/99/99 98/98/98 97/97/97
f 98/98/98 100/100/100 97/97/97
f 98/98/98 101/101/101 100/100/100
f 101/101/101 102/102/102 100/100/100
f 101/101/101 103/103/103 102/102/102
f 103/103/103 104/104/104 102/102/102
f 107/107/107 106/106/106 105/105/105
f 106/106/106 108/108/108 105/105/105
f 106/106/106 109/109/109 108/108/108
f 109/109/109 110/110/110 108/108/108
f 109/109/109 111/111/111 110/110/110
f 111/111/111 112/112/112 110/110/110
f 115/115/115 114/114/114 113/113/113
f 116/116/116 115/115/115 113/113/113
f 116/116/116 113/113/113 117/117/117
f 118/118/118 115/115/115 116/116/116
f 119/119/119 116/116/116 117/117/117
f 120/120/120 118/118/118 116/116/116
f 120/120/120 116/116/116 119/119/119
f 121/121/121 118/118/118 120/120/120
f 122/122/122 120/120/120 119/119/119
f 123/123/123 121/121/121 120/120/120
f 123/123/123 120/120/120 122/122/122
f 124/124/124 123/123/123 122/122/122
f 127/127/127 126/126/126 125/125/125
f 128/128/128 127/127/127 125/125/125
f 128/128/128 125/125/125 129/129/129
f 130/130/130 128/128/128 129/129/129
f 130/130/130 129/129/129 131/131/131
f 129/129/129 132/132/132 131/131/131
f 135/135/135 134/134/134 133/133/133
f 134/134/134 136/136/136 133/133/133
f 134/134/134 137/137/137 136/136/136
f 137/137/137 138/138/138 136/136/136
f 137/137/137 139/139/139 138/138/138
f 139/139/139 140/140/140 138/138/138
f 143/143/143 142/142/142 141/141/141
f 142/142/142 144/144/144 141/141/141
f 142/142/142 145/145/145 144/144/144
f 145/145/145 146/146/146 144/144/144
f 145/145/145 147/147/147 146/146/146
f 147/147/147 148/148/148 146/146/146
f 151/151/151 150/150/150 149/149/149
f 152/152/152 151/151/151 149/149/149
f 155/155/155 154/154/154 153/153/153
f 156/156/156 155/155/155 153/153/153
f 159/159/159 158/158/158 157/157/157
f 158/158/158 160/160/160 157/157/157
f 158/158/158 161/161/161 160/160/160
f 164/164/164 163/163/163 162/162/162
f 164/164/164 162/162/162 165/165/165
f 166/166/166 164/164/164 165/165/165
f 169/169/169 168/168/168 167/167/167
f 170/170/170 169/169/169 167/167/167
f 173/173/173 172/172/172 171/171/171
f 174/174/174 173/173/173 171/171/171
f 177/177/177 176/176/176 175/175/175
f 178/178/178 177/177/177 175/175/175
f 181/181/181 180/180/180 179/179/179
f 182/182/182 181/181/181 179/179/179
f 185/185/185 184/184/184 183/183/183
f 185/185/185 183/183/183 186/186/186
f 187/187/187 185/185/185 186/186/186
f 190/190/190 189/189/189 188/188/188
f 189/189/189 191/191/191 188/188/188
f 189/189/189 192/192/192 191/191/191
f 195/195/195 194/194/194 193/193/193
f 196/196/196 195/195/195 193/193/193
f 199/199/199 198/198/198 197/197/197
f 200/200/200 199/199/199 197/197/197
f 203/203/203 202/202/202 201/201/201
f 204/204/204 203/203/203 201/201/201
f 207/207/207 206/206/206 205/205/205
f 208/208/208 207/207/207 205/205/205
f 211/211/211 210/210/210 209/209/209
f 212/212/212 211/211/211 209/209/209
f 215/215/215 214/214/214 213/213/213
f 216/216/216 215/215/215 213/213/213
f 219/219/219 218/218/218 217/217/217
f 220/220/220 219/219/219 217/217/217
f 220/220/220 217/217/217 221/221/221
f 222/222/222 219/219/219 220/220/220
f 223/223/223 220/220/220 221/221/221
f 224/224/224 222/222/222 220/220/220
f 224/224/224 220/220/220 223/223/223
f 225/225/225 222/222/222 224/224/224
f 226/226/226 224/224/224 223/223/223
f 227/227/227 225/225/225 224/224/224
f 227/227/227 224/224/224 226/226/226
f 228/228/228 227/227/227 226/226/226
f 231/231/231 230/230/230 229/229/229
f 232/232/232 231/231/231 229/229/229
f 232/232/232 229/229/229 233/233/233
f 234/234/234 232/232/232 233/233/233
f 234/234/234 233/233/233 235/235/235
f 233/233/233 236/236/236 235/235/235
f 239/239/239 238/238/238 237/237/237
f 238/238/238 240/240/240 237/237/237
f 238/238/238 241/241/241 240/240/240
f 241/241/241 242/242/242 240/240/240
f 241/241/241 243/243/243 242/242/242
f 243/243/243 244/244/244 242/242/242
f 247/247/247 246/246/246 245/245/245
f 246/246/246 248/248/248 245/245/245
f 246/246/246 249/249/249 248/248/248
f 249/249/249 250/250/250 248/248/248
f 249/249/249 251/251/251 250/250/250
f 251/251/251 252/252/252 250/250/250
f 255/255/255 254/254/254 253/253/253
f 256/256/256 255/255/255 253/253/253
f 256/256/256 253/253/253 257/257/257
f 258/258/258 255/255/255 256/256/256
f 259/259/259 256/256/256 257/257/257
f 260/260/260 258/258/258 256/256/256
f 260/260/260 256/256/256 259/259/259
f 261/261/261 258/258/258 260/260/260
f 262/262/262 260/260/260 259/259/259
f 263/263/263 261/261/261 260/260/260
f 263/263/263 260/260/260 262/262/262
f 264/264/264 263/263/263 262/262/262
f 267/267/267 266/266/266 265/265/265
f 268/268/268 267/267/267 265/265/265
f 268/268/268 265/265/265 269/269/269
f 270/270/270 268/268/268 269/269/269
f 270/270/270 269/269/269 271/271/271
f 269/269/269 272/272/272 271/271/271
f 275/275/275 274/274/274 273/273/273
f 274/274/274 276/276/276 273/273/273
f 274/274/274 277/277/277 276/276/276
f 277/277/277 278/278/278 276/276/276
f 277/277/277 279/279/279 278/278/278
f 279/279/279 280/280/280 278/278/278
f 283/283/283 282/282/282 281/281/281
f 282/282/282 284/284/284 281/281/281
f 282/282/282 285/285/285 284/284/284
f 285/285/285 286/286/286 284/284/284
f 285/285/285 287/287/287 286/286/286
f 287/287/287 288/288/288 286/286/286
f 291/291/291 290/290/290 289/289/289
f 292/292/292 291/291/291 289/289/289
f 292/292/292 289/289/289 293/293/293
f 294/294/294 291/291/291 292/292/292
f 295/295/295 292/292/292 293/293/293
f 296/296/296 294/294/294 292/292/292
f 296/296/296 292/292/292 295/295/295
f 297/297/297 294/294/294 296/296/296
f 298/298/298 296/296/296 295/295/295
f 299/299/299 297/297/297 296/296/296
f 299/299/299 296/296/296 298/298/298
f 300/300/300 299/299/299 298/298/298
f 303/303/303 302/302/302 301/301/301
f 304/304/304 303/303/303 301/301/301
f 304/304/304 301/301/301 305/305/305
f 306/306/306 304/304/304 305/305/305
f 306/306/306 305/305/305 307/307/307
f 305/305/305 308/308/308 307/307/307
f 311/311/311 310/310/310 309/309/309
f 310/310/310 312/312/312 309/309/309
f 310/310/310 313/313/313 312/312/312
f 313/313/313 314/314/314 312/312/312
f 313/313/313 315/315/315 314/314/314
f 315/315/315 316/316/316 314/314/314
f 319/319/319 318/318/318 317/317/317
f 318/318/318 320/320/320 317/317/317
f 318/318/318 321/321/321 320/320/320
f 321/321/321 322/322/322 320/320/320
f 321/321/321 323/323/323 322/322/322
f 323/323/323 324/324/324 322/322/322
f 327/327/327 326/326/326 325/325/325
f 328/328/328 327/327/327 325/325/325
f 331/331/331 330/330/330 329/329/329
f 332/332/332 331/331/331 329/329/329
