g FloorTwoEdge
v 0.5 -0.241832808 0.375
v -0.5 -0.241832808 0.375
v -0.5 0.241832808 0.375
v 0.5 0.241832808 0.375
v 0.5 -0.241832808 0.5
v -0.5 -0.241832808 0.5
v -0.5 -0.241832808 0.375
v 0.5 -0.241832808 0.375
v 0.5 -0.5 0.5
v -0.5 -0.5 0.5
v -0.5 -0.241832808 0.5
v 0.5 -0.241832808 0.5
v 0.5 0.241832808 0.5
v -0.5 0.241832808 0.5
v -0.5 0.5 0.5
v 0.5 0.5 0.5
v 0.5 -0.5 0.375
v -0.5 -0.5 0.375
v -0.5 -0.5 0.5
v 0.5 -0.5 0.5
v 0.5 0.5 0.5
v -0.5 0.5 0.5
v -0.5 0.5 0.375
v 0.5 0.5 0.375
v 0.5 0.241832808 0.375
v -0.5 0.241832808 0.375
v -0.5 0.241832808 0.5
v 0.5 0.241832808 0.5
v 0.5 -0.5 0.375
v 0.5 -0.5 -0.375
v -0.5 -0.5 -0.375
v -0.5 -0.5 0.375
v -0.5 0.5 0.375
v -0.5 0.5 -0.375
v 0.5 0.5 -0.375
v 0.5 0.5 0.375
v -0.5 -0.241832823 -0.375
v 0.5 -0.241832823 -0.375
v 0.5 0.241832867 -0.375
v -0.5 0.241832867 -0.375
v -0.5 -0.241832808 -0.5
v 0.5 -0.241832808 -0.5
v 0.5 -0.241832823 -0.375
v -0.5 -0.241832823 -0.375
v -0.5 -0.5 -0.5
v 0.5 -0.5 -0.5
v 0.5 -0.241832808 -0.5
v -0.5 -0.241832808 -0.5
v -0.5 0.241832808 -0.5
v 0.5 0.241832808 -0.5
v 0.5 0.5 -0.5
v -0.5 0.5 -0.5
v -0.5 -0.5 -0.375
v 0.5 -0.5 -0.375
v 0.5 -0.5 -0.5
v -0.5 -0.5 -0.5
v -0.5 0.5 -0.5
v 0.5 0.5 -0.5
v 0.5 0.5 -0.375
v -0.5 0.5 -0.375
v -0.5 0.241832867 -0.375
v 0.5 0.241832867 -0.375
v 0.5 0.241832808 -0.5
v -0.5 0.241832808 -0.5
vt 0.8474015 0.0448164493
vt 0.847401619 0.0474870577
vt 0.848691225 0.0474870577
vt 0.848691165 0.0448164456
vt 0.862585366 0.677356422
vt 0.862585366 0.342486024
vt 0.792306006 0.33593908
vt 0.792306006 0.670636654
vt 0.0148505215 0.991301715
vt 0.41007024 0.991301715
vt 0.41007024 0.841220081
vt 0.0148505215 0.841220081
vt 0.41007024 0.991301715
vt 0.0148505215 0.991301715
vt 0.0148505215 0.841220081
vt 0.41007024 0.841220081
vt 0.862585366 0.359561265
vt 0.862585366 0.661243141
vt 0.792306006 0.655734062
vt 0.792306006 0.354628205
vt 0.862585366 0.67733556
vt 0.862585366 0.3425017
vt 0.792306006 0.335933864
vt 0.792306006 0.670584261
vt 0.862585366 0.35872376
vt 0.862585366 0.660134792
vt 0.792306006 0.656109154
vt 0.792306006 0.354698718
vt 0.947990298 0.046466168
vt 0.947990298 0.046475783
vt 0.948009551 0.046475783
vt 0.948009551 0.046466168
vt 0.947990298 0.046466168
vt 0.947990298 0.046475783
vt 0.948009551 0.046475783
vt 0.948009551 0.046466168
vt 0.8474015 0.0448164493
vt 0.847401619 0.0474870577
vt 0.848691225 0.0474870577
vt 0.848691165 0.0448164456
vt 0.862585366 0.677356422
vt 0.862585366 0.342486024
vt 0.792306006 0.33593908
vt 0.792306006 0.670636654
vt 0.0148505215 0.991301715
vt 0.41007024 0.991301715
vt 0.41007024 0.841220081
vt 0.0148505215 0.841220081
vt 0.41007024 0.991301715
vt 0.0148505215 0.991301715
vt 0.0148505215 0.841220081
vt 0.41007024 0.841220081
vt 0.862585366 0.359561265
vt 0.862585366 0.661243141
vt 0.792306006 0.655734062
vt 0.792306006 0.354628205
vt 0.862585366 0.67733556
vt 0.862585366 0.3425017
vt 0.792306006 0.335933864
vt 0.792306006 0.670584261
vt 0.862585366 0.35872376
vt 0.862585366 0.660134792
vt 0.792306006 0.656109154
vt 0.792306006 0.354698718
vn -0 0 1
vn -0 0 1
vn -0 0 1
vn -0 0 1
vn -0 1 0
vn -0 1 0
vn -0 1 0
vn -0 1 0
vn -0 0 1
vn -0 0 1
vn -0 0 1
vn -0 0 1
vn -0 0 1
vn -0 0 1
vn -0 0 1
vn -0 0 1
vn -0 -1 0
vn -0 -1 0
vn -0 -1 0
vn -0 -1 0
vn -0 1 0
vn -0 1 0
vn -0 1 0
vn -0 1 0
vn -0 -1 0
vn -0 -1 0
vn -0 -1 0
vn -0 -1 0
vn -0 -1 0
vn -0 -1 0
vn -0 -1 0
vn -0 -1 0
vn -0 1 0
vn -0 1 0
vn -0 1 0
vn -0 1 0
vn -0 0 -1
vn -0 0 -1
vn -0 0 -1
vn -0 0 -1
vn -0 1 1.95312481E-07
vn -0 1 1.95312481E-07
vn -0 1 1.95312481E-07
vn -0 1 1.95312481E-07
vn -0 0 -1
vn -0 0 -1
vn -0 0 -1
vn -0 0 -1
vn -0 0 -1
vn -0 0 -1
vn -0 0 -1
vn -0 0 -1
vn -0 -1 0
vn -0 -1 0
vn -0 -1 0
vn -0 -1 0
vn -0 1 0
vn -0 1 0
vn -0 1 0
vn -0 1 0
vn -0 -1 3.90624962E-07
vn -0 -1 3.90624962E-07
vn -0 -1 3.90624962E-07
vn -0 -1 3.90624962E-07
g FloorTwoEdge_0
f 3/3/3 2/2/2 1/1/1
f 4/4/4 3/3/3 1/1/1
f 7/7/7 6/6/6 5/5/5
f 8/8/8 7/7/7 5/5/5
f 11/11/11 10/10/10 9/9/9
f 12/12/12 11/11/11 9/9/9
f 15/15/15 14/14/14 13/13/13
f 16/16/16 15/15/15 13/13/13
f 19/19/19 18/18/18 17/17/17
f 20/20/20 19/19/19 17/17/17
f 23/23/23 22/22/22 21/21/21
f 24/24/24 23/23/23 21/21/21
f 27/27/27 26/26/26 25/25/25
f 28/28/28 27/27/27 25/25/25
f 31/31/31 30/30/30 29/29/29
f 32/32/32 31/31/31 29/29/29
f 35/35/35 34/34/34 33/33/33
f 36/36/36 35/35/35 33/33/33
f 39/39/39 38/38/38 37/37/37
f 40/40/40 39/39/39 37/37/37
f 43/43/43 42/42/42 41/41/41
f 44/44/44 43/43/43 41/41/41
f 47/47/47 46/46/46 45/45/45
f 48/48/48 47/47/47 45/45/45
f 51/51/51 50/50/50 49/49/49
f 52/52/52 51/51/51 49/49/49
f 55/55/55 54/54/54 53/53/53
f 56/56/56 55/55/55 53/53/53
f 59/59/59 58/58/58 57/57/57
f 60/60/60 59/59/59 57/57/57
f 63/63/63 62/62/62 61/61/61
f 64/64/64 63/63/63 61/61/61
