g P_Straight_Simple
v -0.0576625057 -0.407157123 -0.50000006
v 0.0576622859 -0.407157153 0.5
v 0.0576624684 -0.407157153 -0.5
v -0.0576626845 -0.407157153 0.5
v -0.125907034 -0.338912666 -0.5
v -0.125907212 -0.338912666 0.5
v 0.0576624684 -0.407157153 -0.5
v 0.0576622859 -0.407157153 0.5
v 0.12590681 -0.338912666 0.5
v 0.125907004 -0.338912666 -0.5
v 0.125907004 -0.338912666 -0.5
v 0.12590681 -0.338912666 0.5
v 0.12590681 -0.223587573 0.5
v 0.125907004 -0.223587573 -0.5
v 0.125907004 -0.223587573 -0.5
v 0.12590681 -0.223587573 0.5
v 0.0576622859 -0.155343026 0.5
v 0.0576624684 -0.155343011 -0.5
v -0.0576626845 -0.155343026 0.5
v -0.0576625057 -0.155343026 -0.5
v -0.125907212 -0.223587573 0.5
v -0.125907034 -0.223587543 -0.50000006
v -0.125907034 -0.223587543 -0.50000006
v -0.125907212 -0.223587573 0.5
v -0.125907212 -0.338912666 0.5
v -0.125907034 -0.338912666 -0.5
v 0.0432754233 -0.375742793 -0.5
v 0.0431611761 -0.375493765 0.5
v -0.0431615971 -0.375493765 0.499999911
v -0.0432754681 -0.375742793 -0.50000006
v -0.0432754681 -0.375742793 -0.50000006
v -0.0431615971 -0.375493765 0.499999911
v -0.0942438319 -0.324411541 0.499999911
v -0.0944927037 -0.324525595 -0.50000006
v -0.0944927037 -0.324525595 -0.50000006
v -0.0942438319 -0.324411541 0.499999911
v -0.0942438319 -0.238088712 0.499999911
v -0.0944927037 -0.237974614 -0.500000119
v -0.0944927037 -0.237974614 -0.500000119
v -0.0942438319 -0.238088712 0.499999911
v -0.0431615971 -0.187006444 0.499999911
v -0.0432754681 -0.186757371 -0.5
v 0.0431611761 -0.187006444 0.5
v 0.0432754233 -0.186757386 -0.5
v 0.0432754233 -0.186757386 -0.5
v 0.0431611761 -0.187006444 0.5
v 0.0942433923 -0.238088712 0.5
v 0.0944926441 -0.237974614 -0.5
v 0.0944926441 -0.237974614 -0.5
v 0.0942433923 -0.238088712 0.5
v 0.0942433923 -0.324411541 0.5
v 0.0944926441 -0.324525595 -0.5
v 0.0944926441 -0.324525595 -0.5
v 0.0942433923 -0.324411541 0.5
v 0.0431611761 -0.375493765 0.5
v 0.0432754233 -0.375742793 -0.5
v -0.125907034 -0.338912666 -0.5
v -0.0944927037 -0.237974614 -0.500000119
v -0.125907034 -0.223587543 -0.50000006
v -0.0944927037 -0.324525595 -0.50000006
v -0.0432754681 -0.186757371 -0.5
v -0.0576625057 -0.407157123 -0.50000006
v -0.0576625057 -0.155343026 -0.5
v -0.0432754681 -0.375742793 -0.50000006
v 0.0432754233 -0.186757386 -0.5
v 0.0576624684 -0.407157153 -0.5
v 0.0576624684 -0.155343011 -0.5
v 0.0432754233 -0.375742793 -0.5
v 0.0944926441 -0.237974614 -0.5
v 0.125907004 -0.338912666 -0.5
v 0.125907004 -0.223587573 -0.5
v 0.0944926441 -0.324525595 -0.5
v 0.12590681 -0.338912666 0.5
v 0.0942433923 -0.324411541 0.5
v 0.0942433923 -0.238088712 0.5
v 0.12590681 -0.223587573 0.5
v 0.0576622859 -0.407157153 0.5
v 0.0431611761 -0.187006444 0.5
v 0.0431611761 -0.375493765 0.5
v 0.0576622859 -0.155343026 0.5
v -0.0576626845 -0.407157153 0.5
v -0.0431615971 -0.187006444 0.499999911
v -0.0431615971 -0.375493765 0.499999911
v -0.0576626845 -0.155343026 0.5
v -0.125907212 -0.338912666 0.5
v -0.0942438319 -0.238088712 0.499999911
v -0.0942438319 -0.324411541 0.499999911
v -0.125907212 -0.223587573 0.5
vt 0.0207588784 0.641867518
vt 0.00336793717 0.487369895
vt 0.00336793717 0.641867518
vt 0.0197020248 0.487369895
vt 0.0363097563 0.641867518
vt 0.0363097563 0.487369895
vt 0.1358089 0.641867518
vt 0.1358089 0.487369895
vt 0.12039309 0.487369895
vt 0.12039309 0.641867518
vt 0.12039309 0.641867518
vt 0.12039309 0.487369895
vt 0.102861315 0.487369895
vt 0.102861315 0.641867518
vt 0.102861315 0.641867518
vt 0.102861315 0.487369895
vt 0.0871013924 0.487369895
vt 0.0871013924 0.641867518
vt 0.0688794702 0.487369895
vt 0.0694693327 0.641867518
vt 0.0536552109 0.487369895
vt 0.0536552109 0.641867518
vt 0.0536552109 0.641867518
vt 0.0536552109 0.487369895
vt 0.0363097563 0.487369895
vt 0.0363097563 0.641867518
vt 0.158392787 0.761722982
vt 0.158452913 0.608679473
vt 0.145226315 0.608677387
vt 0.145146862 0.761717439
vt 0.242130697 0.761724532
vt 0.242078424 0.608727396
vt 0.231066033 0.608744204
vt 0.231107205 0.76172477
vt 0.231107205 0.76172477
vt 0.231066033 0.608744204
vt 0.217927933 0.608729839
vt 0.217935249 0.76172477
vt 0.217935249 0.76172477
vt 0.217927933 0.608729839
vt 0.206972018 0.608657777
vt 0.206910059 0.76172477
vt 0.193816543 0.608646274
vt 0.193739012 0.76172477
vt 0.193739012 0.76172477
vt 0.193816543 0.608646274
vt 0.182767555 0.608680487
vt 0.182720631 0.761725008
vt 0.182720631 0.761725008
vt 0.182767555 0.608680487
vt 0.169564754 0.608609915
vt 0.169483706 0.761725008
vt 0.169483706 0.761725008
vt 0.169564754 0.608609915
vt 0.158452913 0.608679473
vt 0.158392787 0.761722982
vt 0.243351296 0.893893063
vt 0.237342566 0.91312772
vt 0.243344903 0.915795326
vt 0.237288713 0.896663189
vt 0.227520749 0.92273128
vt 0.230309129 0.880872905
vt 0.230264947 0.928717196
vt 0.227547809 0.886895418
vt 0.211056277 0.92273128
vt 0.208310634 0.880853891
vt 0.208266318 0.928717196
vt 0.211069733 0.886900127
vt 0.20123066 0.91304642
vt 0.195211872 0.893904209
vt 0.195172146 0.915767908
vt 0.201284394 0.896697164
vt 0.243351296 0.893893063
vt 0.237288713 0.896663189
vt 0.237342566 0.91312772
vt 0.243344903 0.915795326
vt 0.230309129 0.880872905
vt 0.227520749 0.92273128
vt 0.227547809 0.886895418
vt 0.230264947 0.928717196
vt 0.208310634 0.880853891
vt 0.211056277 0.92273128
vt 0.211069733 0.886900127
vt 0.208266318 0.928717196
vt 0.195211872 0.893904209
vt 0.20123066 0.91304642
vt 0.201284394 0.896697164
vt 0.195172146 0.915767908
vn -0.382683456 -0.923879504 0
vn 0.382683426 -0.923879504 0
vn 0.382683426 -0.923879504 0
vn -0.382683456 -0.923879504 0
vn -0.707106769 -0.707106769 -1.29095071E-07
vn -0.707106769 -0.707106769 -1.29095099E-07
vn 0.382683426 -0.923879504 0
vn 0.382683426 -0.923879504 0
vn 0.707106769 -0.707106769 1.28298197E-07
vn 0.707106769 -0.707106769 1.28298225E-07
vn 1 0 1.81674991E-07
vn 1 0 1.81674991E-07
vn 1 0 1.81674991E-07
vn 1 0 1.81674991E-07
vn 0.707106769 0.707106769 1.28696612E-07
vn 0.707106769 0.707106769 1.28696612E-07
vn 0.382683456 0.923879504 0
vn 0.382683426 0.923879504 0
vn -0.382683516 0.923879504 0
vn -0.382683516 0.923879504 0
vn -0.707106829 0.707106769 -1.28298197E-07
vn -0.707106769 0.707106769 -1.28298197E-07
vn -1 0 -1.81674991E-07
vn -1 0 -1.81674991E-07
vn -1 0 -1.81674991E-07
vn -1 0 -1.81674991E-07
vn -0 1 -0.000249015837
vn -0 1 -0.000249015837
vn 0.382681042 0.923880517 -0.000273642654
vn 0.382685781 0.923878491 -0.0002736428
vn 0.382685781 0.923878491 -0.0002736428
vn 0.382681042 0.923880517 -0.000273642654
vn 0.707106769 0.707106769 -0.000256610045
vn 0.707106769 0.707106769 -0.000256610045
vn 1 0 -0.000248870492
vn 1 0 -0.000248870492
vn 1 0 -0.000248870521
vn 1 0 -0.000248870492
vn 0.707106888 -0.70710659 -0.000256644591
vn 0.707106829 -0.70710665 -0.000256644591
vn 0.382681161 -0.923880458 -0.000273687649
vn 0.38268584 -0.923878491 -0.000273687707
vn -0 -1 -0.000249064295
vn -0 -1 -0.000249064324
vn -0.707106888 -0.70710659 -0.000256909261
vn -0.707106888 -0.70710659 -0.00025690929
vn -0.707106948 -0.70710659 -0.00025690929
vn -0.707106948 -0.707106471 -0.00025690929
vn -1 0 -0.000249245961
vn -1 0 -0.000249245961
vn -1 0 -0.000249245961
vn -1 0 -0.000249245961
vn -0.707106829 0.70710665 -0.000256875326
vn -0.707106829 0.70710659 -0.000256875355
vn -0.707106829 0.70710665 -0.000256875326
vn -0.707106769 0.707106709 -0.000256875355
vn -1.54218378E-06 0 -1
vn -1.54218378E-06 0 -1
vn -1.54218378E-06 0 -1
vn -1.54218378E-06 0 -1
vn -0 3.5897358E-07 -1
vn -0 -3.77241292E-07 -1
vn -0 3.77241264E-07 -1
vn -0 -3.5897375E-07 -1
vn 2.44476325E-07 0 -1
vn 2.32492553E-07 0 -1
vn 2.32492553E-07 0 -1
vn 2.44476325E-07 0 -1
vn -0 0 -1
vn -0 0 -1
vn -0 0 -1
vn -0 0 -1
vn -0 0 1
vn -0 0 1
vn -0 0 1
vn -0 0 1
vn -2.3275544E-07 7.41149734E-07 1
vn -2.44752897E-07 -7.79351183E-07 1
vn -2.44752982E-07 7.79352717E-07 1
vn -2.32755568E-07 -7.41148881E-07 1
vn 8.49433491E-07 1.82333895E-06 1
vn 7.85031034E-07 -1.80913457E-06 1
vn 7.85031489E-07 1.80913707E-06 1
vn 8.49431672E-07 -1.82333622E-06 1
vn 3.06010702E-06 0 1
vn 3.06010702E-06 0 1
vn 3.06010702E-06 0 1
vn 3.06010702E-06 0 1
g P_Straight_Simple_0
f 3/3/3 2/2/2 1/1/1
f 2/2/2 4/4/4 1/1/1
f 1/1/1 4/4/4 5/5/5
f 4/4/4 6/6/6 5/5/5
f 9/9/9 8/8/8 7/7/7
f 10/10/10 9/9/9 7/7/7
f 13/13/13 12/12/12 11/11/11
f 14/14/14 13/13/13 11/11/11
f 17/17/17 16/16/16 15/15/15
f 18/18/18 17/17/17 15/15/15
f 19/19/19 17/17/17 18/18/18
f 20/20/20 19/19/19 18/18/18
f 21/21/21 19/19/19 20/20/20
f 22/22/22 21/21/21 20/20/20
f 25/25/25 24/24/24 23/23/23
f 26/26/26 25/25/25 23/23/23
f 29/29/29 28/28/28 27/27/27
f 30/30/30 29/29/29 27/27/27
f 33/33/33 32/32/32 31/31/31
f 34/34/34 33/33/33 31/31/31
f 37/37/37 36/36/36 35/35/35
f 38/38/38 37/37/37 35/35/35
f 41/41/41 40/40/40 39/39/39
f 42/42/42 41/41/41 39/39/39
f 43/43/43 41/41/41 42/42/42
f 44/44/44 43/43/43 42/42/42
f 47/47/47 46/46/46 45/45/45
f 48/48/48 47/47/47 45/45/45
f 51/51/51 50/50/50 49/49/49
f 52/52/52 51/51/51 49/49/49
f 55/55/55 54/54/54 53/53/53
f 56/56/56 55/55/55 53/53/53
f 59/59/59 58/58/58 57/57/57
f 58/58/58 60/60/60 57/57/57
f 61/61/61 58/58/58 59/59/59
f 57/57/57 60/60/60 62/62/62
f 63/63/63 61/61/61 59/59/59
f 60/60/60 64/64/64 62/62/62
f 65/65/65 61/61/61 63/63/63
f 62/62/62 64/64/64 66/66/66
f 67/67/67 65/65/65 63/63/63
f 64/64/64 68/68/68 66/66/66
f 69/69/69 65/65/65 67/67/67
f 66/66/66 68/68/68 70/70/70
f 71/71/71 69/69/69 67/67/67
f 68/68/68 72/72/72 70/70/70
f 72/72/72 69/69/69 71/71/71
f 70/70/70 72/72/72 71/71/71
f 75/75/75 74/74/74 73/73/73
f 76/76/76 75/75/75 73/73/73
f 73/73/73 74/74/74 77/77/77
f 78/78/78 75/75/75 76/76/76
f 74/74/74 79/79/79 77/77/77
f 80/80/80 78/78/78 76/76/76
f 77/77/77 79/79/79 81/81/81
f 82/82/82 78/78/78 80/80/80
f 79/79/79 83/83/83 81/81/81
f 84/84/84 82/82/82 80/80/80
f 81/81/81 83/83/83 85/85/85
f 86/86/86 82/82/82 84/84/84
f 83/83/83 87/87/87 85/85/85
f 88/88/88 86/86/86 84/84/84
f 85/85/85 87/87/87 88/88/88
f 87/87/87 86/86/86 88/88/88
