g P_Bend_Vert
v -0.125907138 -0.223587468 0.499999911
v -0.125907138 -0.338912398 0.499999911
v -0.125907138 -0.338912427 0.250503391
v -0.125907138 -0.223587453 0.250503391
v -0.125907138 -0.208808571 0.176204816
v -0.125907138 -0.315354973 0.132071838
v 0.125907004 -0.223587468 0.499999911
v 0.125906944 -0.338912427 0.250503391
v 0.125907004 -0.338912398 0.499999911
v 0.125906944 -0.223587453 0.250503391
v 0.125906944 -0.315354973 0.132071838
v 0.125906944 -0.208808571 0.176204816
v 0.125907004 -0.030746378 -0.0576626137
v 0.125907004 -0.105044916 0.0724413544
v 0.125907004 -0.030746378 0.0576624684
v 0.125907004 -0.149177894 -0.0341050401
v 0.125906944 -0.166721791 0.113217503
v 0.125906944 -0.248268902 0.031670399
v 0.125906944 -0.208808571 0.176204816
v 0.125906944 -0.315354973 0.132071838
v -0.125907093 -0.030746391 0.0576624684
v -0.125907093 -0.149177879 -0.0341050401
v -0.125907093 -0.0307463929 -0.0576626137
v -0.125907093 -0.105044909 0.0724413618
v -0.125907138 -0.248268902 0.031670399
v -0.125907138 -0.166721791 0.113217503
v -0.125907138 -0.315354973 0.132071838
v -0.125907138 -0.208808571 0.176204816
v -0.125907093 0.500000358 -0.0576624684
v -0.125907093 0.500000358 0.05766261
v -0.125907093 -0.030746391 0.0576624684
v -0.125907093 -0.0307463929 -0.0576626137
v 0.125907004 0.500000358 -0.0576623715
v 0.125907004 -0.030746378 -0.0576626137
v 0.125907004 -0.030746378 0.0576624684
v 0.125907004 0.500000417 0.05766261
v -0.125907138 -0.338912427 0.250503391
v -0.125907138 -0.338912398 0.499999911
v -0.05766261 -0.407156885 0.499999911
v -0.05766261 -0.407156885 0.250503421
v -0.125907138 -0.315354973 0.132071838
v 0.05766242 -0.407156885 0.250503421
v 0.0576624684 -0.407156885 0.499999911
v 0.125907004 -0.338912398 0.499999911
v 0.125906944 -0.338912427 0.250503391
v -0.05766261 -0.378404677 0.105955787
v -0.125907138 -0.248268902 0.031670399
v 0.05766242 -0.378404677 0.105955787
v 0.125906944 -0.315354973 0.132071838
v -0.05766261 -0.296525061 -0.0165857598
v -0.125907093 -0.149177879 -0.0341050401
v 0.05766242 -0.296525061 -0.0165857598
v 0.125906944 -0.248268902 0.031670399
v -0.0576625615 -0.175293922 -0.0971547738
v -0.125907093 -0.0307463929 -0.0576626137
v -0.0576625615 -0.0307463929 -0.125907138
v 0.0576624684 -0.175293922 -0.0971547738
v 0.125907004 -0.149177894 -0.0341050401
v 0.0576624684 -0.0307463631 -0.125907138
v 0.125907004 -0.030746378 -0.0576626137
v 0.125906944 -0.223587453 0.250503391
v 0.125907004 -0.223587468 0.499999911
v 0.0576624684 -0.155342922 0.499999881
v 0.05766242 -0.155342922 0.250503391
v 0.125906944 -0.208808571 0.176204816
v 0.05766242 -0.145758837 0.202320859
v -0.05766261 -0.155342922 0.250503391
v -0.05766261 -0.155342922 0.499999881
v -0.125907138 -0.223587468 0.499999911
v -0.05766261 -0.145758852 0.202320859
v -0.125907138 -0.223587453 0.250503391
v -0.125907138 -0.208808571 0.176204816
v -0.0576625615 -0.030746391 0.125907004
v -0.125907093 -0.105044909 0.0724413618
v -0.125907093 -0.030746391 0.0576624684
v -0.0576625615 -0.0789288655 0.135491088
v 0.0576624684 -0.0307464171 0.125907004
v -0.125907138 -0.166721791 0.113217503
v 0.0576624684 -0.0789288804 0.135491088
v 0.125907004 -0.030746378 0.0576624684
v 0.125907004 -0.105044916 0.0724413544
v -0.05766261 -0.118465625 0.161473677
v -0.125907138 -0.208808571 0.176204816
v -0.05766261 -0.145758852 0.202320859
v 0.05766242 -0.118465625 0.161473677
v 0.125906944 -0.166721791 0.113217503
v 0.05766242 -0.145758837 0.202320859
v 0.125906944 -0.208808571 0.176204816
v -0.125907093 0.500000358 -0.0576624684
v -0.125907093 -0.0307463929 -0.0576626137
v -0.0576625615 -0.0307463929 -0.125907138
v -0.0576625615 0.500000358 -0.125906959
v 0.0576624684 0.500000358 -0.125906944
v 0.0576624684 -0.0307463631 -0.125907138
v 0.125907004 -0.030746378 -0.0576626137
v 0.125907004 0.500000358 -0.0576623715
v -0.125907093 -0.030746391 0.0576624684
v -0.125907093 0.500000358 0.05766261
v -0.0576625615 0.500000358 0.125907138
v -0.0576625615 -0.030746391 0.125907004
v 0.0576624684 -0.0307464171 0.125907004
v 0.0576624684 0.500000358 0.125907138
v 0.125907004 0.500000417 0.05766261
v 0.125907004 -0.030746378 0.0576624684
v -0.0942437127 0.500000417 0.0431615151
v -0.0942437127 0.500000417 -0.0431613736
v -0.0944303274 -0.0307464879 -0.0432469733
v -0.0944303274 -0.0307464171 0.043246828
v 0.0942435637 0.500000477 -0.043161314
v 0.0942435637 0.500000477 0.0431615151
v 0.094430238 -0.0307464264 0.043246828
v 0.094430238 -0.030746473 -0.0432469249
v 0.0431613661 0.500000417 0.0942437127
v -0.0432469323 -0.0307464395 0.0944301784
v 0.0432468653 -0.0307464395 0.0944301784
v -0.0431614593 0.500000417 0.0942437127
v -0.0944303274 -0.0307464171 0.043246828
v -0.0942437127 0.500000417 0.0431615151
v -0.0942437127 0.500000417 -0.0431613736
v -0.0432469323 -0.0307464879 -0.0944302753
v -0.0944303274 -0.0307464879 -0.0432469733
v -0.0431614593 0.500000417 -0.0942435265
v 0.0432468653 -0.0307464879 -0.0944302753
v 0.0431613661 0.500000417 -0.0942435265
v 0.094430238 -0.030746473 -0.0432469249
v 0.0942435637 0.500000477 -0.043161314
v 0.0942435637 0.500000477 0.0431615151
v 0.0431613661 0.500000417 0.0942437127
v 0.0432468653 -0.0307464395 0.0944301784
v 0.094430238 -0.0307464264 0.043246828
v -0.0942437649 -0.324411303 0.499999911
v -0.0942437649 -0.238088563 0.499999791
v -0.0944304243 -0.23800306 0.250525802
v -0.0944304243 -0.324496746 0.250525862
v -0.0944304243 -0.222436801 0.170796216
v -0.0944304243 -0.302339047 0.137678206
v 0.0942435637 -0.238088563 0.499999791
v 0.0942435637 -0.324411303 0.499999911
v 0.0944301784 -0.324496746 0.250525862
v 0.0944301784 -0.23800306 0.250525802
v 0.0944301784 -0.302339047 0.137678206
v 0.0944301784 -0.222436801 0.170796216
v -0.0431615114 -0.375493526 0.499999911
v -0.0942437649 -0.324411303 0.499999911
v -0.0944304243 -0.324496746 0.250525862
v -0.0432470068 -0.375680149 0.250525862
v 0.0431613214 -0.375493526 0.499999911
v -0.0944304243 -0.302339047 0.137678206
v 0.0432467945 -0.375680149 0.250525862
v 0.0942435637 -0.324411303 0.499999911
v 0.0944301784 -0.324496746 0.250525862
v -0.043247018 -0.349621803 0.118080348
v -0.0944304243 -0.238192126 0.042076312
v 0.0432467945 -0.349621803 0.118080348
v 0.0944301784 -0.302339047 0.137678206
v -0.043247018 -0.274556965 0.00605776766
v -0.0944304243 -0.143886164 -0.0207081847
v 0.0432467833 -0.274556965 0.00605776766
v 0.0944301784 -0.238192126 0.042076312
v -0.0432470068 -0.163523763 -0.0679744855
v -0.0944303274 -0.0307464879 -0.0432469733
v -0.0432469323 -0.0307464879 -0.0944302753
v 0.0432467945 -0.163523763 -0.0679744855
v 0.0944301784 -0.143886179 -0.0207081847
v 0.0432468653 -0.0307464879 -0.0944302753
v 0.094430238 -0.030746473 -0.0432469249
v 0.0431613103 -0.187006295 0.499999791
v 0.0942435637 -0.238088563 0.499999791
v 0.0944301784 -0.23800306 0.250525802
v 0.0432467945 -0.186819643 0.250525802
v 0.0944301784 -0.222436801 0.170796216
v -0.0431615114 -0.187006295 0.499999791
v 0.0432467945 -0.175154015 0.190394089
v -0.0432470068 -0.186819643 0.250525802
v -0.0942437649 -0.238088563 0.499999791
v -0.0432470068 -0.175154015 0.190394089
v -0.0944304243 -0.23800306 0.250525802
v -0.0944304243 -0.222436801 0.170796216
v -0.0944304243 -0.302339047 0.137678206
v -0.0944304243 -0.222436801 0.170796216
v -0.0944304243 -0.176739976 0.102943361
v -0.0944304243 -0.238192126 0.042076312
v -0.0944304243 -0.110701025 0.0591661595
v -0.0944304243 -0.143886164 -0.0207081847
v -0.0944303274 -0.0307464171 0.043246828
v -0.0944303274 -0.0307464879 -0.0432469733
v 0.0944301784 -0.222436801 0.170796216
v 0.0944301784 -0.302339047 0.137678206
v 0.0944301784 -0.238192126 0.042076312
v 0.0944301784 -0.176739991 0.102943383
v 0.0944301784 -0.143886179 -0.0207081847
v 0.0944301784 -0.110701047 0.059166152
v 0.094430238 -0.030746473 -0.0432469249
v 0.094430238 -0.0307464264 0.043246828
v 0.0432467945 -0.175154015 0.190394089
v 0.0944301784 -0.222436801 0.170796216
v 0.0944301784 -0.176739991 0.102943383
v 0.0432467945 -0.140375167 0.138962001
v -0.0432470068 -0.175154015 0.190394089
v 0.0944301784 -0.110701047 0.059166152
v -0.0432470068 -0.140375167 0.138962001
v -0.0944304243 -0.222436801 0.170796216
v -0.0944304243 -0.176739976 0.102943361
v 0.0432467945 -0.0910634622 0.106432483
v 0.094430238 -0.0307464264 0.043246828
v 0.0432468653 -0.0307464395 0.0944301784
v -0.0432470068 -0.0910634696 0.106432475
v -0.0944304243 -0.110701025 0.0591661595
v -0.0432469323 -0.0307464395 0.0944301784
v -0.0944303274 -0.0307464171 0.043246828
v -0.144498155 0.0138239991 -0.0661769211
v -0.144498155 0.0138239972 0.06617672
v -0.144498155 -0.0156502668 0.06617672
v -0.144498155 -0.0156502668 -0.0661769211
v 0.14449808 0.0138239861 -0.0661768243
v 0.144498065 -0.0156502556 0.06617672
v 0.14449808 0.0138239861 0.06617672
v 0.144498065 -0.0156502575 -0.0661769211
v 0.0661767498 0.013824 -0.144498155
v 0.0661767721 -0.0156502668 -0.144498244
v -0.0661768243 -0.0156502668 -0.144498244
v 0.0661767721 -0.0156502668 -0.144498244
v 0.0661767498 0.013824 -0.144498155
v -0.0661768243 0.013824 -0.144498155
v -0.144498155 0.0138239991 -0.0661769211
v -0.144498155 -0.0156502668 -0.0661769211
v -0.144498155 -0.0156502668 0.06617672
v -0.144498155 0.0138239972 0.06617672
v -0.0661768243 0.013824 0.14449802
v -0.0661768243 -0.0156502668 0.14449802
v 0.0661767721 -0.0156502668 0.14449802
v 0.0661767498 0.013824 0.14449802
v 0.14449808 0.0138239861 0.06617672
v 0.144498065 -0.0156502556 0.06617672
v -0.144498155 -0.215073168 0.296097189
v -0.144498155 -0.347426713 0.265370905
v -0.144498155 -0.215073168 0.265370905
v -0.144498155 -0.347426713 0.296097189
v -0.066176869 -0.425747991 0.296097189
v -0.066176869 -0.425747991 0.265370905
v 0.0661766976 -0.425747991 0.265370905
v 0.0661767498 -0.425747991 0.296097189
v 0.144498065 -0.215073168 0.296097189
v 0.144498006 -0.215073168 0.265370905
v 0.144498006 -0.347426713 0.265370905
v 0.144498065 -0.347426713 0.296097189
v -0.144498155 -0.215073168 0.296097189
v -0.144498155 -0.215073168 0.265370905
v -0.066176869 -0.13675189 0.265370935
v -0.066176869 -0.13675189 0.296097189
v 0.06617672 -0.136751875 0.296097189
v 0.06617672 -0.136751875 0.265370935
v 0.144498006 -0.215073168 0.265370905
v 0.144498065 -0.215073168 0.296097189
v 0.144498065 -0.347426713 0.296097189
v 0.144498006 -0.347426713 0.265370905
v 0.0661766976 -0.425747991 0.265370905
v 0.0661767498 -0.425747991 0.296097189
v -0.125907093 -0.0307463929 -0.0576626137
v -0.144498155 -0.0156502668 -0.0661769211
v -0.144498155 -0.0156502668 0.06617672
v -0.125907093 -0.030746391 0.0576624684
v -0.0661768243 -0.0156502668 0.14449802
v -0.0576625615 -0.030746391 0.125907004
v 0.0661767721 -0.0156502668 0.14449802
v 0.0576624684 -0.0307464171 0.125907004
v 0.144498065 -0.0156502556 0.06617672
v 0.125907004 -0.030746378 0.0576624684
v 0.144498065 -0.0156502575 -0.0661769211
v 0.125907004 -0.030746378 -0.0576626137
v 0.0661767721 -0.0156502668 -0.144498244
v 0.0576624684 -0.0307463631 -0.125907138
v -0.0661768243 -0.0156502668 -0.144498244
v -0.0576625615 -0.0307463929 -0.125907138
v -0.144498155 -0.0156502668 -0.0661769211
v -0.125907093 -0.0307463929 -0.0576626137
v -0.125907093 0.0289201681 0.0576624684
v -0.144498155 0.0138239991 -0.0661769211
v -0.125907093 0.0289201681 -0.0576626137
v -0.144498155 0.0138239972 0.06617672
v -0.0576625615 0.0289201681 0.125907004
v -0.0661768243 0.013824 0.14449802
v 0.0576624684 0.0289201923 0.125907004
v 0.0661767498 0.013824 0.14449802
v 0.125907004 0.0289201923 0.0576624684
v 0.14449808 0.0138239861 0.06617672
v 0.125907004 0.0289201941 -0.0576625131
v 0.14449808 0.0138239861 -0.0661768243
v 0.0576624684 0.0289201941 -0.125907093
v 0.0661767498 0.013824 -0.144498155
v -0.0576625615 0.0289201699 -0.125907093
v -0.0661768243 0.013824 -0.144498155
v -0.125907093 0.0289201681 -0.0576626137
v -0.144498155 0.0138239991 -0.0661769211
v -0.05766261 -0.407156885 0.250503421
v 0.0661766976 -0.425747991 0.265370905
v 0.05766242 -0.407156885 0.250503421
v -0.066176869 -0.425747991 0.265370905
v -0.125907138 -0.338912427 0.250503391
v -0.144498155 -0.347426713 0.265370905
v -0.125907138 -0.223587453 0.250503391
v -0.144498155 -0.215073168 0.265370905
v -0.05766261 -0.155342922 0.250503391
v -0.066176869 -0.13675189 0.265370935
v 0.05766242 -0.155342922 0.250503391
v 0.06617672 -0.136751875 0.265370935
v 0.125906944 -0.223587453 0.250503391
v 0.144498006 -0.215073168 0.265370905
v 0.125906944 -0.338912427 0.250503391
v 0.144498006 -0.347426713 0.265370905
v 0.05766242 -0.407156885 0.250503421
v 0.0661766976 -0.425747991 0.265370905
v 0.125907004 -0.338912398 0.310964704
v 0.0661767498 -0.425747991 0.296097189
v 0.0576624684 -0.407156885 0.310964733
v 0.144498065 -0.347426713 0.296097189
v 0.125907004 -0.223587453 0.310964704
v 0.144498065 -0.215073168 0.296097189
v 0.0576624684 -0.155342922 0.310964704
v 0.06617672 -0.136751875 0.296097189
v -0.05766261 -0.155342922 0.310964704
v -0.066176869 -0.13675189 0.296097189
v -0.125907138 -0.223587453 0.310964704
v -0.144498155 -0.215073168 0.296097189
v -0.125907138 -0.338912398 0.310964704
v -0.144498155 -0.347426713 0.296097189
v -0.05766261 -0.407156885 0.310964733
v -0.066176869 -0.425747991 0.296097189
v 0.0576624684 -0.407156885 0.310964733
v 0.0661767498 -0.425747991 0.296097189
v 0.0576624684 0.500000358 -0.125906944
v -0.0431614593 0.500000417 -0.0942435265
v -0.0576625615 0.500000358 -0.125906959
v 0.0431613661 0.500000417 -0.0942435265
v -0.0942437127 0.500000417 -0.0431613736
v 0.125907004 0.500000358 -0.0576623715
v -0.125907093 0.500000358 -0.0576624684
v 0.0942435637 0.500000477 -0.043161314
v -0.0942437127 0.500000417 0.0431615151
v 0.125907004 0.500000417 0.05766261
v -0.125907093 0.500000358 0.05766261
v 0.0942435637 0.500000477 0.0431615151
v -0.0431614593 0.500000417 0.0942437127
v 0.0576624684 0.500000358 0.125907138
v -0.0576625615 0.500000358 0.125907138
v 0.0431613661 0.500000417 0.0942437127
v 0.0576624684 -0.155342922 0.499999881
v -0.0431615114 -0.187006295 0.499999791
v -0.05766261 -0.155342922 0.499999881
v 0.0431613103 -0.187006295 0.499999791
v -0.0942437649 -0.238088563 0.499999791
v 0.125907004 -0.223587468 0.499999911
v -0.125907138 -0.223587468 0.499999911
v 0.0942435637 -0.238088563 0.499999791
v -0.0942437649 -0.324411303 0.499999911
v 0.125907004 -0.338912398 0.499999911
v -0.125907138 -0.338912398 0.499999911
v 0.0942435637 -0.324411303 0.499999911
v -0.0431615114 -0.375493526 0.499999911
v 0.0576624684 -0.407156885 0.499999911
v -0.05766261 -0.407156885 0.499999911
v 0.0431613214 -0.375493526 0.499999911
vt 0.11926984 0.816342473
vt 0.104012147 0.815913439
vt 0.103139848 0.848913848
vt 0.11851529 0.849457443
vt 0.119799182 0.859442413
vt 0.105523184 0.864663303
vt 0.159893781 0.816619754
vt 0.175576389 0.849408805
vt 0.17515631 0.816399693
vt 0.160195038 0.849741995
vt 0.172977522 0.865124404
vt 0.158774465 0.859708369
vt 0.169179335 0.875633538
vt 0.15989536 0.893493235
vt 0.156636968 0.883964181
vt 0.175011888 0.890300989
vt 0.160241723 0.90340668
vt 0.17553024 0.905660868
vt 0.157584026 0.913120627
vt 0.170616403 0.920659006
vt 0.120385371 0.885171473
vt 0.102472484 0.892715514
vt 0.107317321 0.877692878
vt 0.117767684 0.89489603
vt 0.102976337 0.908075988
vt 0.118081369 0.904810727
vt 0.108876333 0.922714174
vt 0.121378966 0.914326251
vt 0.0858071372 0.993966162
vt 0.101111747 0.994036257
vt 0.101435758 0.92360121
vt 0.0861307606 0.923531175
vt 0.157332301 0.99429673
vt 0.157666117 0.923861861
vt 0.142360315 0.923789203
vt 0.142028987 0.994224131
vt 0.159722045 0.850385904
vt 0.160148516 0.816571057
vt 0.147064656 0.816215754
vt 0.146935254 0.849098027
vt 0.159448475 0.868025422
vt 0.131536812 0.849140108
vt 0.131245345 0.816256523
vt 0.1181641 0.81667757
vt 0.118757486 0.850490808
vt 0.146826655 0.86779356
vt 0.159486651 0.886129916
vt 0.131729469 0.867840171
vt 0.11910934 0.868142247
vt 0.146880761 0.886227667
vt 0.159495935 0.90378052
vt 0.131790772 0.886281013
vt 0.119185142 0.886272252
vt 0.146904409 0.904560745
vt 0.160804108 0.920563757
vt 0.147733316 0.92371124
vt 0.131910741 0.904619455
vt 0.119311795 0.903949857
vt 0.131270841 0.923779726
vt 0.118175082 0.920760155
vt 0.160195038 0.849741995
vt 0.159893781 0.816619754
vt 0.147178501 0.816726208
vt 0.147154838 0.849851429
vt 0.158774465 0.859708369
vt 0.146740913 0.856368661
vt 0.131552756 0.849745154
vt 0.131982625 0.816622257
vt 0.11926984 0.816342473
vt 0.131877407 0.856267273
vt 0.11851529 0.849457443
vt 0.119799182 0.859442413
vt 0.131549746 0.889737666
vt 0.117767684 0.89489603
vt 0.120385371 0.885171473
vt 0.130957544 0.896210551
vt 0.145800516 0.889262676
vt 0.118081369 0.904810727
vt 0.146822065 0.895681858
vt 0.156636968 0.883964181
vt 0.15989536 0.893493235
vt 0.131160125 0.90257436
vt 0.121378966 0.914326251
vt 0.132193312 0.908991039
vt 0.147043228 0.90204519
vt 0.160241723 0.90340668
vt 0.14643912 0.908516288
vt 0.157584026 0.913120627
vt 0.198251501 0.994494021
vt 0.198588192 0.924059212
vt 0.185779974 0.923997641
vt 0.185443416 0.994432509
vt 0.170139343 0.99435848
vt 0.17047523 0.923923552
vt 0.157666117 0.923861861
vt 0.157332301 0.99429673
vt 0.101435758 0.92360121
vt 0.101111747 0.994036257
vt 0.11391905 0.994094193
vt 0.114244498 0.923659563
vt 0.129550532 0.923729599
vt 0.129222617 0.994164407
vt 0.142028987 0.994224131
vt 0.142360315 0.923789203
vt 0.158094168 0.755129755
vt 0.144690573 0.755129099
vt 0.144677445 0.672750831
vt 0.158096954 0.672751248
vt 0.207358494 0.755141616
vt 0.193954319 0.755138576
vt 0.193955064 0.672760069
vt 0.207373947 0.672763228
vt 0.18272841 0.755134642
vt 0.169320539 0.672753155
vt 0.182733312 0.672756195
vt 0.169318095 0.755131602
vt 0.158096954 0.672751248
vt 0.158094168 0.755129755
vt 0.243180141 0.75516957
vt 0.232035875 0.67277962
vt 0.243270978 0.672791004
vt 0.231967553 0.755158305
vt 0.218610257 0.672769248
vt 0.218569741 0.755148053
vt 0.207373947 0.672763228
vt 0.207358494 0.755141616
vt 0.193954319 0.755138576
vt 0.18272841 0.755134642
vt 0.182733312 0.672756195
vt 0.193955064 0.672760069
vt 0.166694969 0.673332095
vt 0.180028558 0.673886359
vt 0.178752154 0.712604344
vt 0.16525197 0.711875439
vt 0.179993674 0.725164115
vt 0.167392656 0.729443073
vt 0.215383634 0.674404621
vt 0.228727624 0.674241364
vt 0.229040533 0.712810397
vt 0.215524882 0.713143289
vt 0.226386249 0.730307758
vt 0.213915855 0.725661278
vt 0.203424752 0.675009608
vt 0.21480076 0.67542541
vt 0.213908806 0.714725673
vt 0.202717632 0.713493407
vt 0.189700454 0.674796522
vt 0.213324144 0.734064281
vt 0.189215735 0.713284731
vt 0.1783171 0.674859226
vt 0.177992418 0.714165926
vt 0.202270031 0.733715236
vt 0.21304059 0.753879488
vt 0.189021125 0.733512342
vt 0.177961245 0.733518183
vt 0.201980814 0.753694057
vt 0.212648481 0.773236752
vt 0.188705355 0.753492594
vt 0.177645281 0.753343701
vt 0.201615781 0.773543417
vt 0.213374719 0.791902721
vt 0.201888487 0.794183075
vt 0.188477576 0.77334547
vt 0.177458927 0.772708416
vt 0.187588826 0.793968678
vt 0.176175952 0.791345596
vt 0.204312563 0.674488187
vt 0.215383634 0.674404621
vt 0.215524882 0.713143289
vt 0.204020157 0.7132653
vt 0.213915855 0.725661278
vt 0.191092417 0.674294472
vt 0.203441873 0.722801507
vt 0.190248311 0.713063478
vt 0.180028558 0.673886359
vt 0.19054687 0.7226125
vt 0.178752154 0.712604344
vt 0.179993674 0.725164115
vt 0.169634819 0.682425976
vt 0.181068927 0.688896716
vt 0.177989662 0.701219618
vt 0.164528027 0.699154615
vt 0.178235784 0.713591993
vt 0.16484046 0.716032326
vt 0.181763843 0.725748897
vt 0.170554459 0.732605398
vt 0.21192269 0.688294828
vt 0.223096043 0.681383312
vt 0.228850976 0.697900295
vt 0.215480089 0.700488448
vt 0.229196742 0.71477741
vt 0.215716437 0.712860942
vt 0.224133343 0.73156029
vt 0.212664977 0.725146353
vt 0.202591658 0.692598581
vt 0.21192269 0.688294828
vt 0.215480089 0.700488448
vt 0.203823715 0.70222801
vt 0.190560788 0.692833424
vt 0.215716437 0.712860942
vt 0.189705059 0.702503502
vt 0.181068927 0.688896716
vt 0.177989662 0.701219618
vt 0.204001054 0.711667299
vt 0.212664977 0.725146353
vt 0.203153864 0.721244991
vt 0.189895824 0.711942494
vt 0.178235784 0.713591993
vt 0.191115662 0.721479714
vt 0.181763843 0.725748897
vt 0.179255426 0.602618754
vt 0.196611673 0.602618754
vt 0.196611926 0.598318219
vt 0.17925556 0.598318219
vt 0.258637875 0.602618754
vt 0.241706774 0.598318219
vt 0.241705999 0.602618754
vt 0.258638352 0.598318219
vt 0.27269581 0.602618754
vt 0.272696346 0.598318219
vt 0.289693177 0.598318219
vt 0.272696346 0.598318219
vt 0.27269581 0.602618754
vt 0.289692402 0.602618754
vt 0.30416587 0.602618754
vt 0.304166883 0.598318219
vt 0.196611926 0.598318219
vt 0.196611673 0.602618754
vt 0.210717618 0.602618754
vt 0.210718125 0.598318219
vt 0.227658868 0.598318219
vt 0.227657944 0.602618754
vt 0.241705999 0.602618754
vt 0.241706774 0.598318219
vt 0.2308864 0.59831804
vt 0.212919399 0.602618754
vt 0.2308864 0.602618754
vt 0.212919399 0.59831804
vt 0.198053688 0.59831804
vt 0.198053688 0.602618754
vt 0.180111781 0.602618754
vt 0.180111781 0.59831804
vt 0.278634906 0.59831804
vt 0.278634906 0.602618754
vt 0.296602041 0.602618754
vt 0.296602041 0.59831804
vt 0.2308864 0.59831804
vt 0.2308864 0.602618754
vt 0.245777234 0.602618754
vt 0.245777234 0.59831804
vt 0.263744205 0.59831804
vt 0.263744205 0.602618754
vt 0.278634906 0.602618754
vt 0.278634906 0.59831804
vt 0.296602041 0.59831804
vt 0.296602041 0.602618754
vt 0.311492622 0.602618754
vt 0.311492622 0.59831804
vt 0.180617347 0.595420837
vt 0.17925556 0.598318219
vt 0.196611926 0.598318219
vt 0.196634024 0.595420837
vt 0.210718125 0.598318219
vt 0.210814729 0.595420837
vt 0.227658868 0.598318219
vt 0.227566719 0.595420837
vt 0.241706774 0.598318219
vt 0.241800368 0.595420837
vt 0.258638352 0.598318219
vt 0.258548051 0.595420837
vt 0.272696346 0.598318219
vt 0.272782326 0.595420837
vt 0.289693177 0.598318219
vt 0.289464563 0.595420837
vt 0.304166883 0.598318219
vt 0.302958697 0.595420837
vt 0.196633354 0.605638981
vt 0.179255426 0.602618754
vt 0.180616945 0.60563916
vt 0.196611673 0.602618754
vt 0.210813671 0.605638981
vt 0.210717618 0.602618754
vt 0.22756438 0.60563916
vt 0.227657944 0.602618754
vt 0.241797879 0.60563916
vt 0.241705999 0.602618754
vt 0.25854677 0.60563916
vt 0.258637875 0.602618754
vt 0.272781312 0.605638981
vt 0.27269581 0.602618754
vt 0.289462775 0.605638981
vt 0.289692402 0.602618754
vt 0.302955568 0.60563916
vt 0.30416587 0.602618754
vt 0.198053688 0.605638981
vt 0.180111781 0.602618754
vt 0.180111781 0.605638981
vt 0.198053688 0.602618754
vt 0.212919399 0.605638981
vt 0.212919399 0.602618754
vt 0.2308864 0.605638981
vt 0.2308864 0.602618754
vt 0.245777234 0.605638981
vt 0.245777234 0.602618754
vt 0.263744205 0.605638981
vt 0.263744205 0.602618754
vt 0.278634906 0.605638981
vt 0.278634906 0.602618754
vt 0.296602041 0.605638981
vt 0.296602041 0.602618754
vt 0.311492622 0.605638981
vt 0.311492622 0.602618754
vt 0.296602041 0.595420837
vt 0.311492622 0.59831804
vt 0.311492622 0.595420837
vt 0.296602041 0.59831804
vt 0.278634906 0.595420837
vt 0.278634906 0.59831804
vt 0.263744205 0.595420837
vt 0.263744205 0.59831804
vt 0.245777234 0.595420837
vt 0.245777234 0.59831804
vt 0.2308864 0.595420837
vt 0.2308864 0.59831804
vt 0.212919399 0.595420837
vt 0.212919399 0.59831804
vt 0.198053688 0.595420837
vt 0.198053688 0.59831804
vt 0.180111781 0.595420837
vt 0.180111781 0.59831804
vt 0.230264947 0.928717196
vt 0.211056277 0.922731161
vt 0.208266318 0.928717196
vt 0.227520749 0.922731161
vt 0.20123066 0.91304642
vt 0.243344769 0.915795267
vt 0.195172146 0.915767789
vt 0.237342566 0.913127661
vt 0.201284513 0.896666825
vt 0.243351161 0.893893063
vt 0.195211872 0.89390415
vt 0.237288579 0.896663189
vt 0.211069733 0.886900127
vt 0.230309129 0.880872905
vt 0.208310634 0.880853891
vt 0.227547809 0.886895418
vt 0.230264947 0.928717196
vt 0.211056277 0.922731161
vt 0.208266318 0.928717196
vt 0.227520749 0.922731161
vt 0.20123066 0.91304642
vt 0.243344769 0.915795267
vt 0.195172146 0.915767789
vt 0.237342566 0.913127661
vt 0.201298371 0.896662593
vt 0.243351296 0.893893063
vt 0.195212007 0.89390415
vt 0.237288713 0.896663189
vt 0.211069733 0.886900127
vt 0.230309129 0.880872905
vt 0.208310634 0.880853891
vt 0.227547809 0.886895418
vn -1 0 0
vn -1 0 0
vn -1 0 0
vn -1 0 0
vn -1 0 0
vn -1 0 0
vn 1 0 -1.94177716E-07
vn 1 0 -1.03561426E-07
vn 1 0 -1.94177716E-07
vn 1 0 0
vn 1 0 0
vn 1 0 0
vn 1 0 0
vn 1 -2.0856524E-07 1.3935886E-07
vn 1 0 0
vn 1 -2.09085513E-07 1.39706501E-07
vn 1 -2.09143451E-07 1.39745183E-07
vn 1 -2.08623419E-07 1.39397727E-07
vn 1 0 0
vn 1 0 0
vn -1 0 0
vn -1 2.09085513E-07 -1.39706472E-07
vn -1 0 0
vn -1 2.0856524E-07 -1.39358818E-07
vn -1 2.08623391E-07 -1.39397699E-07
vn -1 2.09143451E-07 -1.39745154E-07
vn -1 0 0
vn -1 0 0
vn -1 0 0
vn -1 0 0
vn -1 0 0
vn -1 0 0
vn 1 0 0
vn 1 0 0
vn 1 0 0
vn 1 0 0
vn -0.705232739 -0.705232799 -0.0727560222
vn -0.707106769 -0.707106769 0
vn -0.382683456 -0.923879504 0
vn -0.373505235 -0.923309684 -0.0894049779
vn -0.707106769 -0.653281629 -0.270597816
vn 0.373505235 -0.923309684 -0.0894050151
vn 0.382683456 -0.923879504 0
vn 0.707106769 -0.707106769 -1.37340521E-07
vn 0.705232799 -0.705232799 -0.0727560744
vn -0.366829932 -0.859474182 -0.356005549
vn -0.707202673 -0.499185473 -0.500677884
vn 0.366829932 -0.859474182 -0.356005549
vn 0.707106769 -0.653281629 -0.270597816
vn -0.366794556 -0.657004058 -0.658640563
vn -0.707010269 -0.26966086 -0.653773367
vn 0.366794527 -0.657004237 -0.658640444
vn 0.707202613 -0.499185622 -0.500677764
vn -0.366864949 -0.354930818 -0.859903574
vn -0.705232739 -0.072756283 -0.705232799
vn -0.373505086 -0.089405179 -0.923309684
vn 0.366864979 -0.354930907 -0.859903574
vn 0.707010329 -0.269661099 -0.653773069
vn 0.373505235 -0.0894051418 -0.923309565
vn 0.705232918 -0.0727562457 -0.70523268
vn 0.70553726 0.705537021 0.0665935054
vn 0.707106829 0.707106769 -1.37340493E-07
vn 0.382683575 0.923879445 0
vn 0.390120327 0.916150451 0.0920565128
vn 0.707106829 0.65328145 0.270597905
vn 0.400588572 0.846512198 0.350636661
vn -0.390120327 0.916150451 0.0920565352
vn -0.382683516 0.923879504 0
vn -0.707106829 0.70710665 0
vn -0.400588602 0.846512079 0.350636631
vn -0.70553714 0.705537081 0.0665935427
vn -0.707106769 0.65328151 0.270597905
vn -0.390120327 0.0920565575 0.916150451
vn -0.706895411 0.268882006 0.654218018
vn -0.70553714 0.0665935799 0.70553714
vn -0.400060505 0.347683281 0.847978771
vn 0.390120327 0.0920565799 0.916150451
vn -0.707315028 0.498480171 0.501221418
vn 0.400060654 0.347682953 0.847978771
vn 0.70553714 0.0665935576 0.70553714
vn 0.706895411 0.26888153 0.654218256
vn -0.401115954 0.645397127 0.650052726
vn -0.707106769 0.65328151 0.270597905
vn -0.400588602 0.846512079 0.350636631
vn 0.401115745 0.645397007 0.650052965
vn 0.707315087 0.498479813 0.501221716
vn 0.400588572 0.846512198 0.350636661
vn 0.707106829 0.65328145 0.270597905
vn -0.70710659 2.25215729E-07 -0.707106888
vn -0.705232739 -0.072756283 -0.705232799
vn -0.373505086 -0.089405179 -0.923309684
vn -0.382683367 3.19487697E-07 -0.923879504
vn 0.382683605 3.55240928E-07 -0.923879445
vn 0.373505235 -0.0894051418 -0.923309565
vn 0.705232918 -0.0727562457 -0.70523268
vn 0.707106888 2.91278866E-07 -0.70710659
vn -0.70553714 0.0665935799 0.70553714
vn -0.707106769 -1.951869E-07 0.707106769
vn -0.382683426 -2.53835793E-07 0.923879504
vn -0.390120327 0.0920565575 0.916150451
vn 0.390120327 0.0920565799 0.916150451
vn 0.382683456 -2.53835822E-07 0.923879504
vn 0.707106769 -1.951869E-07 0.707106769
vn 0.70553714 0.0665935576 0.70553714
vn 1 -0.000351611146 0
vn 1 -0.000351611146 0
vn 1 -0.000187985614 0
vn 1 -0.000165957084 1.01989372E-07
vn -1 -0.000351702445 0
vn -1 -0.000351702416 0
vn -1 -0.000165233389 0
vn -1 -0.000187358644 0
vn -0 -0.000351337279 -1
vn 0.39010638 -0.0922977179 -0.916132152
vn -0.390106827 -0.0922972858 -0.916132033
vn 0.382679969 -0.000386215776 -0.923880816
vn 0.705512345 -0.0668323711 -0.705539346
vn 0.707106471 -0.000362296618 -0.707107008
vn 0.707106054 -0.000362685532 0.707107365
vn 0.373491734 0.089355655 0.923319817
vn 0.705226481 0.0727068484 0.705244184
vn 0.38267982 -0.000386722648 0.923880935
vn -0.373492181 0.0893558115 0.923319638
vn -0.382680297 -0.000386748754 0.923880756
vn -0.705227017 0.0727071017 0.705243587
vn -0.707106709 -0.000362733554 0.707106709
vn -0.707106709 -0.000362345832 -0.707106709
vn -0.707106709 -0.000362345891 -0.707106709
vn -0.390106827 -0.0922972858 -0.916132033
vn -0.705512464 -0.0668316856 -0.705539346
vn 0.999999762 0 -0.000748233695
vn 0.999999762 0 -0.000748233695
vn 1 0 -0.00035244273
vn 1 0 -0.000398683682
vn 1 0 0
vn 1 0 0
vn -0.999999762 0 -0.000748039572
vn -0.999999762 0 -0.000748039631
vn -1 0 -0.000398580276
vn -1 0 -0.000352351344
vn -1 0 0
vn -1 0 0
vn 0.382676482 0.923882067 -0.000822253816
vn 0.707106471 0.70710665 -0.000771287945
vn 0.705209017 0.705382049 0.0715296119
vn 0.373576581 0.923412383 0.0880350098
vn -0.382676512 0.923882067 -0.000822198461
vn 0.707324624 0.653186977 0.270256877
vn -0.37357673 0.923412323 0.088035062
vn -0.70710659 0.707106531 -0.000771185732
vn -0.705209196 0.705381811 0.0715296566
vn 0.366835117 0.859595895 0.355706275
vn 0.707114398 0.498977989 0.501008987
vn -0.366835147 0.859595776 0.355706215
vn -0.707324743 0.653186858 0.270256907
vn 0.366847813 0.657111228 0.658504128
vn 0.706963837 0.270242542 0.653583348
vn -0.366847873 0.657111168 0.658504009
vn -0.707114577 0.498977989 0.501008928
vn 0.366791844 0.355721712 0.859607935
vn 0.705226481 0.0727068484 0.705244184
vn 0.373491734 0.089355655 0.923319817
vn -0.366791964 0.355721921 0.859607756
vn -0.706964135 0.27024281 0.653582931
vn -0.373492181 0.0893558115 0.923319638
vn -0.705227017 0.0727071017 0.705243587
vn -0.382676512 -0.923882067 -0.000822351489
vn -0.70710665 -0.707106471 -0.000771322404
vn -0.705440104 -0.705717921 -0.0656995326
vn -0.389845192 -0.916435599 -0.0903683305
vn -0.707487226 -0.652876258 -0.270581663
vn 0.382676482 -0.923882067 -0.000822397473
vn -0.401361287 -0.846090555 -0.350770503
vn 0.389845192 -0.916435599 -0.0903683305
vn 0.707106531 -0.707106531 -0.000771407562
vn 0.401361078 -0.846090555 -0.350770473
vn 0.705440104 -0.705717921 -0.0656995997
vn 0.707487106 -0.652876258 -0.270581752
vn 1 0 0
vn 1 0 0
vn 1 0 0
vn 1 0 0
vn 1 -4.833866E-07 0
vn 1 -4.82000246E-07 0
vn 1 -0.000165957084 1.01989372E-07
vn 1 -0.000187985614 0
vn -1 0 0
vn -1 0 0
vn -1 0 0
vn -1 0 0
vn -1 2.41000095E-07 0
vn -1 2.41693272E-07 0
vn -1 -0.000187358644 0
vn -1 -0.000165233389 0
vn -0.401361287 -0.846090555 -0.350770503
vn -0.707487226 -0.652876258 -0.270581663
vn -0.707125723 -0.498102486 -0.501863539
vn -0.400620282 -0.644247174 -0.651497602
vn 0.401361078 -0.846090555 -0.350770473
vn -0.706851065 -0.269415826 -0.654046416
vn 0.400620073 -0.644247234 -0.651497602
vn 0.707487106 -0.652876258 -0.270581752
vn 0.707125485 -0.498102576 -0.501863897
vn -0.400114238 -0.34838146 -0.847666681
vn -0.705512464 -0.0668316856 -0.705539346
vn -0.390106827 -0.0922972858 -0.916132033
vn 0.400114298 -0.348381937 -0.847666621
vn 0.706850767 -0.26941666 -0.654046476
vn 0.39010638 -0.0922977179 -0.916132152
vn 0.705512345 -0.0668323711 -0.705539346
vn -1 0 0
vn -1 0 0
vn -1 0 0
vn -1 0 0
vn 0.923879921 8.04670606E-07 -0.382682621
vn 1 -8.21847436E-07 0
vn 1 -8.21847436E-07 0
vn 0.923879206 8.04677256E-07 -0.382684141
vn 0.707106888 2.30869068E-06 -0.70710665
vn 0.707106829 2.30869068E-06 -0.70710665
vn -0.382682979 2.41659859E-06 -0.923879743
vn -0 3.28738747E-06 -1
vn -0 3.28738702E-06 -1
vn -0.382683575 2.41659632E-06 -0.923879445
vn -0.707106531 1.17790319E-06 -0.707107008
vn -0.707106531 1.17790319E-06 -0.707107008
vn -0.70710659 0 0.707106948
vn -0.70710659 0 0.707106948
vn -0.382683367 0 0.923879504
vn -0.382683367 0 0.923879504
vn 0.382683575 0 0.923879445
vn 0.382683188 0 0.923879623
vn 0.70710665 0 0.707106829
vn 0.70710665 0 0.707106829
vn -1 0 0
vn -0.923879504 -0.382683426 0
vn -1 0 0
vn -0.923879504 -0.382683456 0
vn -0.382683367 -0.923879504 0
vn -0.382683426 -0.923879504 0
vn 0.382683098 -0.923879743 -5.87041086E-07
vn 0.382683665 -0.923879445 -5.87041995E-07
vn 1 0 -1.57671889E-06
vn 1 0 -1.57671889E-06
vn 1 0 -1.57671889E-06
vn 1 0 -1.57671889E-06
vn -0.70710665 0.707106829 0
vn -0.70710665 0.707106829 0
vn -0.382683426 0.923879504 0
vn -0.382683426 0.923879504 0
vn 0.382683367 0.923879504 -2.93520912E-07
vn 0.382683367 0.923879504 -2.93520912E-07
vn 0.707106769 0.707106829 -5.42355906E-07
vn 0.707106769 0.707106829 -5.42355906E-07
vn 0.70710665 -0.707106888 -1.08471124E-06
vn 0.707106769 -0.707106829 -1.08471136E-06
vn 0.382683098 -0.923879743 -5.87041086E-07
vn 0.382683665 -0.923879445 -5.87041995E-07
vn -0.551406145 -0.80419457 -0.221861273
vn -0.547619879 -0.804369569 -0.23043865
vn -0.547620356 -0.804369211 0.230438724
vn -0.551406264 -0.804194331 0.221861884
vn -0.230438843 -0.804368794 0.547620952
vn -0.221861824 -0.804193854 0.551407039
vn 0.230439156 -0.804368913 0.547620714
vn 0.221861631 -0.804193854 0.55140698
vn 0.547620475 -0.804369211 0.230438575
vn 0.551406324 -0.804194212 0.22186175
vn 0.5476197 -0.804369926 -0.230438367
vn 0.551405847 -0.804194748 -0.22186099
vn 0.230438307 -0.804370344 -0.547618985
vn 0.221861184 -0.804195344 -0.551405013
vn -0.230438143 -0.804370046 -0.547619402
vn -0.221861571 -0.804195106 -0.551405191
vn -0.547619879 -0.804369569 -0.23043865
vn -0.551406145 -0.80419457 -0.221861273
vn -0.551407516 0.804193318 0.221862346
vn -0.547621191 0.804368496 -0.23043935
vn -0.551407158 0.804193616 -0.221862048
vn -0.547621548 0.804368258 0.230439186
vn -0.221862212 0.80419302 0.551407993
vn -0.230439305 0.8043679 0.547622085
vn 0.221862257 0.804192841 0.551408231
vn 0.230439574 0.80436784 0.547622204
vn 0.551407814 0.80419302 0.22186251
vn 0.547621965 0.804367959 0.230439246
vn 0.551407814 0.804193258 -0.221862018
vn 0.547621727 0.804368198 -0.230439276
vn 0.221862212 0.804193258 -0.551407635
vn 0.230439305 0.804368258 -0.547621608
vn -0.221862003 0.804193377 -0.551407516
vn -0.230438933 0.804368436 -0.547621489
vn -0.551407158 0.804193616 -0.221862048
vn -0.547621191 0.804368496 -0.23043935
vn -0.219629899 -0.54598099 -0.808497071
vn 0.228175282 -0.542206049 -0.808670878
vn 0.219629601 -0.545980871 -0.80849719
vn -0.228175282 -0.542206228 -0.808670759
vn -0.545981526 -0.219629645 -0.808496714
vn -0.542206585 -0.228175715 -0.808670461
vn -0.545981765 0.21962972 -0.808496654
vn -0.542206585 0.228175819 -0.808670282
vn -0.219630018 0.545981228 -0.808496892
vn -0.228175446 0.542206466 -0.808670521
vn 0.219629481 0.545981109 -0.808497131
vn 0.228175387 0.542206109 -0.808670878
vn 0.545980811 0.219629481 -0.80849731
vn 0.542205811 0.228175372 -0.808670998
vn 0.545980752 -0.219629571 -0.808497369
vn 0.542205811 -0.228175387 -0.808670998
vn 0.219629601 -0.545980871 -0.80849719
vn 0.228175282 -0.542206049 -0.808670878
vn 0.54598093 -0.219629481 0.80849719
vn 0.228175327 -0.542205989 0.808670938
vn 0.219629675 -0.545980811 0.80849731
vn 0.542206049 -0.228175357 0.808670938
vn 0.545980752 0.219629616 0.80849731
vn 0.542205811 0.228175491 0.808670998
vn 0.219629601 0.545980752 0.808497369
vn 0.228175029 0.542205989 0.808670998
vn -0.219629794 0.545980752 0.80849719
vn -0.228175282 0.542206049 0.808670878
vn -0.545981526 0.21962963 0.808496833
vn -0.542206466 0.228175715 0.808670521
vn -0.545981705 -0.219629601 0.808496654
vn -0.542206705 -0.228175685 0.808670402
vn -0.219630003 -0.54598093 0.808497071
vn -0.228175342 -0.542206228 0.808670759
vn 0.219629675 -0.545980811 0.80849731
vn 0.228175327 -0.542205989 0.808670938
vn 9.65810273E-07 1 -2.19391177E-06
vn -1.15215914E-06 1 -2.19881144E-06
vn -1.1985652E-06 1 -2.19391245E-06
vn 9.07407752E-07 1 -2.19881031E-06
vn -2.29508009E-06 1 -2.40253684E-07
vn 3.0601027E-06 1 -4.80507651E-07
vn -2.29508009E-06 1 -2.40253684E-07
vn 3.0601027E-06 1 -4.80507595E-07
vn -2.29508009E-06 1 -2.40253684E-07
vn 3.0601027E-06 1 -4.80507651E-07
vn -2.29508009E-06 1 -2.40253684E-07
vn 3.0601027E-06 1 -4.80507651E-07
vn -5.1489161E-07 1 1.29424313E-06
vn 3.31758031E-07 1 1.49157859E-06
vn -5.41093982E-07 1 1.28224337E-06
vn 3.15692972E-07 1 1.49344157E-06
vn -1.0821891E-06 -2.56448675E-06 1
vn 1.0297839E-06 -2.58848922E-06 1
vn 1.0821891E-06 -2.56448857E-06 1
vn -1.02978208E-06 -2.58848831E-06 1
vn 1.53005351E-06 4.80507993E-07 1
vn -1.53005089E-06 4.80508049E-07 1
vn 1.53005351E-06 4.80507993E-07 1
vn -1.53005089E-06 4.80507993E-07 1
vn 1.53005351E-06 4.80507993E-07 1
vn -1.53005089E-06 4.80508049E-07 1
vn 1.53005351E-06 4.80507993E-07 1
vn -1.53005089E-06 4.80507993E-07 1
vn -0 0 1
vn -0 0 1
vn -0 0 1
vn -0 0 1
g P_Bend_Vert_0
f 3/3/3 2/2/2 1/1/1
f 4/4/4 3/3/3 1/1/1
f 3/3/3 4/4/4 5/5/5
f 6/6/6 3/3/3 5/5/5
f 9/9/9 8/8/8 7/7/7
f 8/8/8 10/10/10 7/7/7
f 10/10/10 8/8/8 11/11/11
f 12/12/12 10/10/10 11/11/11
f 15/15/15 14/14/14 13/13/13
f 14/14/14 16/16/16 13/13/13
f 14/14/14 17/17/17 16/16/16
f 17/17/17 18/18/18 16/16/16
f 17/17/17 19/19/19 18/18/18
f 19/19/19 20/20/20 18/18/18
f 23/23/23 22/22/22 21/21/21
f 22/22/22 24/24/24 21/21/21
f 22/22/22 25/25/25 24/24/24
f 25/25/25 26/26/26 24/24/24
f 25/25/25 27/27/27 26/26/26
f 27/27/27 28/28/28 26/26/26
f 31/31/31 30/30/30 29/29/29
f 32/32/32 31/31/31 29/29/29
f 35/35/35 34/34/34 33/33/33
f 36/36/36 35/35/35 33/33/33
f 39/39/39 38/38/38 37/37/37
f 40/40/40 39/39/39 37/37/37
f 37/37/37 41/41/41 40/40/40
f 40/40/40 42/42/42 39/39/39
f 42/42/42 43/43/43 39/39/39
f 43/43/43 42/42/42 44/44/44
f 42/42/42 45/45/45 44/44/44
f 41/41/41 46/46/46 40/40/40
f 42/42/42 40/40/40 46/46/46
f 41/41/41 47/47/47 46/46/46
f 45/45/45 42/42/42 48/48/48
f 48/48/48 42/42/42 46/46/46
f 49/49/49 45/45/45 48/48/48
f 47/47/47 50/50/50 46/46/46
f 48/48/48 46/46/46 50/50/50
f 47/47/47 51/51/51 50/50/50
f 49/49/49 48/48/48 52/52/52
f 52/52/52 48/48/48 50/50/50
f 53/53/53 49/49/49 52/52/52
f 51/51/51 54/54/54 50/50/50
f 52/52/52 50/50/50 54/54/54
f 51/51/51 55/55/55 54/54/54
f 55/55/55 56/56/56 54/54/54
f 53/53/53 52/52/52 57/57/57
f 57/57/57 52/52/52 54/54/54
f 57/57/57 54/54/54 56/56/56
f 58/58/58 53/53/53 57/57/57
f 59/59/59 57/57/57 56/56/56
f 58/58/58 57/57/57 59/59/59
f 60/60/60 58/58/58 59/59/59
f 63/63/63 62/62/62 61/61/61
f 64/64/64 63/63/63 61/61/61
f 64/64/64 61/61/61 65/65/65
f 66/66/66 64/64/64 65/65/65
f 63/63/63 64/64/64 67/67/67
f 67/67/67 64/64/64 66/66/66
f 68/68/68 63/63/63 67/67/67
f 68/68/68 67/67/67 69/69/69
f 70/70/70 67/67/67 66/66/66
f 67/67/67 71/71/71 69/69/69
f 71/71/71 67/67/67 70/70/70
f 72/72/72 71/71/71 70/70/70
f 75/75/75 74/74/74 73/73/73
f 74/74/74 76/76/76 73/73/73
f 73/73/73 76/76/76 77/77/77
f 74/74/74 78/78/78 76/76/76
f 76/76/76 79/79/79 77/77/77
f 77/77/77 79/79/79 80/80/80
f 79/79/79 81/81/81 80/80/80
f 78/78/78 82/82/82 76/76/76
f 76/76/76 82/82/82 79/79/79
f 78/78/78 83/83/83 82/82/82
f 83/83/83 84/84/84 82/82/82
f 79/79/79 85/85/85 81/81/81
f 82/82/82 85/85/85 79/79/79
f 82/82/82 84/84/84 85/85/85
f 85/85/85 86/86/86 81/81/81
f 84/84/84 87/87/87 85/85/85
f 85/85/85 87/87/87 86/86/86
f 87/87/87 88/88/88 86/86/86
f 91/91/91 90/90/90 89/89/89
f 92/92/92 91/91/91 89/89/89
f 92/92/92 93/93/93 91/91/91
f 93/93/93 94/94/94 91/91/91
f 94/94/94 93/93/93 95/95/95
f 93/93/93 96/96/96 95/95/95
f 99/99/99 98/98/98 97/97/97
f 100/100/100 99/99/99 97/97/97
f 100/100/100 101/101/101 99/99/99
f 101/101/101 102/102/102 99/99/99
f 102/102/102 101/101/101 103/103/103
f 101/101/101 104/104/104 103/103/103
f 107/107/107 106/106/106 105/105/105
f 108/108/108 107/107/107 105/105/105
f 111/111/111 110/110/110 109/109/109
f 112/112/112 111/111/111 109/109/109
f 115/115/115 114/114/114 113/113/113
f 114/114/114 116/116/116 113/113/113
f 114/114/114 117/117/117 116/116/116
f 117/117/117 118/118/118 116/116/116
f 121/121/121 120/120/120 119/119/119
f 120/120/120 122/122/122 119/119/119
f 120/120/120 123/123/123 122/122/122
f 123/123/123 124/124/124 122/122/122
f 123/123/123 125/125/125 124/124/124
f 125/125/125 126/126/126 124/124/124
f 129/129/129 128/128/128 127/127/127
f 130/130/130 129/129/129 127/127/127
f 133/133/133 132/132/132 131/131/131
f 134/134/134 133/133/133 131/131/131
f 135/135/135 133/133/133 134/134/134
f 136/136/136 135/135/135 134/134/134
f 139/139/139 138/138/138 137/137/137
f 140/140/140 139/139/139 137/137/137
f 141/141/141 139/139/139 140/140/140
f 142/142/142 141/141/141 140/140/140
f 145/145/145 144/144/144 143/143/143
f 146/146/146 145/145/145 143/143/143
f 146/146/146 143/143/143 147/147/147
f 148/148/148 145/145/145 146/146/146
f 149/149/149 146/146/146 147/147/147
f 149/149/149 147/147/147 150/150/150
f 151/151/151 149/149/149 150/150/150
f 152/152/152 148/148/148 146/146/146
f 152/152/152 146/146/146 149/149/149
f 153/153/153 148/148/148 152/152/152
f 154/154/154 149/149/149 151/151/151
f 154/154/154 152/152/152 149/149/149
f 155/155/155 154/154/154 151/151/151
f 156/156/156 153/153/153 152/152/152
f 156/156/156 152/152/152 154/154/154
f 157/157/157 153/153/153 156/156/156
f 158/158/158 154/154/154 155/155/155
f 158/158/158 156/156/156 154/154/154
f 159/159/159 158/158/158 155/155/155
f 160/160/160 157/157/157 156/156/156
f 160/160/160 156/156/156 158/158/158
f 161/161/161 157/157/157 160/160/160
f 162/162/162 161/161/161 160/160/160
f 163/163/163 158/158/158 159/159/159
f 163/163/163 160/160/160 158/158/158
f 162/162/162 160/160/160 163/163/163
f 164/164/164 163/163/163 159/159/159
f 165/165/165 162/162/162 163/163/163
f 165/165/165 163/163/163 164/164/164
f 166/166/166 165/165/165 164/164/164
f 169/169/169 168/168/168 167/167/167
f 170/170/170 169/169/169 167/167/167
f 171/171/171 169/169/169 170/170/170
f 170/170/170 167/167/167 172/172/172
f 173/173/173 171/171/171 170/170/170
f 174/174/174 170/170/170 172/172/172
f 173/173/173 170/170/170 174/174/174
f 174/174/174 172/172/172 175/175/175
f 176/176/176 173/173/173 174/174/174
f 177/177/177 174/174/174 175/175/175
f 176/176/176 174/174/174 177/177/177
f 178/178/178 176/176/176 177/177/177
f 181/181/181 180/180/180 179/179/179
f 182/182/182 181/181/181 179/179/179
f 183/183/183 181/181/181 182/182/182
f 184/184/184 183/183/183 182/182/182
f 185/185/185 183/183/183 184/184/184
f 186/186/186 185/185/185 184/184/184
f 189/189/189 188/188/188 187/187/187
f 190/190/190 189/189/189 187/187/187
f 191/191/191 189/189/189 190/190/190
f 192/192/192 191/191/191 190/190/190
f 193/193/193 191/191/191 192/192/192
f 194/194/194 193/193/193 192/192/192
f 197/197/197 196/196/196 195/195/195
f 198/198/198 197/197/197 195/195/195
f 198/198/198 195/195/195 199/199/199
f 200/200/200 197/197/197 198/198/198
f 201/201/201 198/198/198 199/199/199
f 201/201/201 199/199/199 202/202/202
f 203/203/203 201/201/201 202/202/202
f 204/204/204 200/200/200 198/198/198
f 204/204/204 198/198/198 201/201/201
f 205/205/205 200/200/200 204/204/204
f 206/206/206 205/205/205 204/204/204
f 207/207/207 201/201/201 203/203/203
f 207/207/207 204/204/204 201/201/201
f 206/206/206 204/204/204 207/207/207
f 208/208/208 207/207/207 203/203/203
f 209/209/209 206/206/206 207/207/207
f 209/209/209 207/207/207 208/208/208
f 210/210/210 209/209/209 208/208/208
f 213/213/213 212/212/212 211/211/211
f 214/214/214 213/213/213 211/211/211
f 217/217/217 216/216/216 215/215/215
f 216/216/216 218/218/218 215/215/215
f 219/219/219 215/215/215 218/218/218
f 220/220/220 219/219/219 218/218/218
f 223/223/223 222/222/222 221/221/221
f 224/224/224 223/223/223 221/221/221
f 224/224/224 221/221/221 225/225/225
f 221/221/221 226/226/226 225/225/225
f 229/229/229 228/228/228 227/227/227
f 230/230/230 229/229/229 227/227/227
f 230/230/230 231/231/231 229/229/229
f 231/231/231 232/232/232 229/229/229
f 232/232/232 231/231/231 233/233/233
f 231/231/231 234/234/234 233/233/233
f 237/237/237 236/236/236 235/235/235
f 236/236/236 238/238/238 235/235/235
f 239/239/239 238/238/238 236/236/236
f 240/240/240 239/239/239 236/236/236
f 240/240/240 241/241/241 239/239/239
f 241/241/241 242/242/242 239/239/239
f 245/245/245 244/244/244 243/243/243
f 246/246/246 245/245/245 243/243/243
f 249/249/249 248/248/248 247/247/247
f 250/250/250 249/249/249 247/247/247
f 250/250/250 251/251/251 249/249/249
f 251/251/251 252/252/252 249/249/249
f 252/252/252 251/251/251 253/253/253
f 251/251/251 254/254/254 253/253/253
f 257/257/257 256/256/256 255/255/255
f 258/258/258 257/257/257 255/255/255
f 261/261/261 260/260/260 259/259/259
f 262/262/262 261/261/261 259/259/259
f 263/263/263 261/261/261 262/262/262
f 264/264/264 263/263/263 262/262/262
f 265/265/265 263/263/263 264/264/264
f 266/266/266 265/265/265 264/264/264
f 267/267/267 265/265/265 266/266/266
f 268/268/268 267/267/267 266/266/266
f 269/269/269 267/267/267 268/268/268
f 270/270/270 269/269/269 268/268/268
f 271/271/271 269/269/269 270/270/270
f 272/272/272 271/271/271 270/270/270
f 273/273/273 271/271/271 272/272/272
f 274/274/274 273/273/273 272/272/272
f 275/275/275 273/273/273 274/274/274
f 276/276/276 275/275/275 274/274/274
f 279/279/279 278/278/278 277/277/277
f 278/278/278 280/280/280 277/277/277
f 277/277/277 280/280/280 281/281/281
f 280/280/280 282/282/282 281/281/281
f 281/281/281 282/282/282 283/283/283
f 282/282/282 284/284/284 283/283/283
f 283/283/283 284/284/284 285/285/285
f 284/284/284 286/286/286 285/285/285
f 285/285/285 286/286/286 287/287/287
f 286/286/286 288/288/288 287/287/287
f 287/287/287 288/288/288 289/289/289
f 288/288/288 290/290/290 289/289/289
f 289/289/289 290/290/290 291/291/291
f 290/290/290 292/292/292 291/291/291
f 291/291/291 292/292/292 293/293/293
f 292/292/292 294/294/294 293/293/293
f 297/297/297 296/296/296 295/295/295
f 296/296/296 298/298/298 295/295/295
f 295/295/295 298/298/298 299/299/299
f 298/298/298 300/300/300 299/299/299
f 299/299/299 300/300/300 301/301/301
f 300/300/300 302/302/302 301/301/301
f 301/301/301 302/302/302 303/303/303
f 302/302/302 304/304/304 303/303/303
f 303/303/303 304/304/304 305/305/305
f 304/304/304 306/306/306 305/305/305
f 305/305/305 306/306/306 307/307/307
f 306/306/306 308/308/308 307/307/307
f 307/307/307 308/308/308 309/309/309
f 308/308/308 310/310/310 309/309/309
f 309/309/309 310/310/310 311/311/311
f 310/310/310 312/312/312 311/311/311
f 315/315/315 314/314/314 313/313/313
f 314/314/314 316/316/316 313/313/313
f 313/313/313 316/316/316 317/317/317
f 316/316/316 318/318/318 317/317/317
f 317/317/317 318/318/318 319/319/319
f 318/318/318 320/320/320 319/319/319
f 319/319/319 320/320/320 321/321/321
f 320/320/320 322/322/322 321/321/321
f 321/321/321 322/322/322 323/323/323
f 322/322/322 324/324/324 323/323/323
f 323/323/323 324/324/324 325/325/325
f 324/324/324 326/326/326 325/325/325
f 325/325/325 326/326/326 327/327/327
f 326/326/326 328/328/328 327/327/327
f 327/327/327 328/328/328 329/329/329
f 328/328/328 330/330/330 329/329/329
f 333/333/333 332/332/332 331/331/331
f 332/332/332 334/334/334 331/331/331
f 335/335/335 332/332/332 333/333/333
f 331/331/331 334/334/334 336/336/336
f 337/337/337 335/335/335 333/333/333
f 334/334/334 338/338/338 336/336/336
f 339/339/339 335/335/335 337/337/337
f 336/336/336 338/338/338 340/340/340
f 341/341/341 339/339/339 337/337/337
f 338/338/338 342/342/342 340/340/340
f 343/343/343 339/339/339 341/341/341
f 340/340/340 342/342/342 344/344/344
f 345/345/345 343/343/343 341/341/341
f 342/342/342 346/346/346 344/344/344
f 346/346/346 343/343/343 345/345/345
f 344/344/344 346/346/346 345/345/345
f 349/349/349 348/348/348 347/347/347
f 348/348/348 350/350/350 347/347/347
f 351/351/351 348/348/348 349/349/349
f 347/347/347 350/350/350 352/352/352
f 353/353/353 351/351/351 349/349/349
f 350/350/350 354/354/354 352/352/352
f 355/355/355 351/351/351 353/353/353
f 352/352/352 354/354/354 356/356/356
f 357/357/357 355/355/355 353/353/353
f 354/354/354 358/358/358 356/356/356
f 359/359/359 355/355/355 357/357/357
f 356/356/356 358/358/358 360/360/360
f 361/361/361 359/359/359 357/357/357
f 358/358/358 362/362/362 360/360/360
f 362/362/362 359/359/359 361/361/361
f 360/360/360 362/362/362 361/361/361
