g P_Straight_B
v 0.0872055814 -0.32951498 0.087203294
v 0.0476955883 -0.369025022 0.087203294
v 0.0872063488 -0.369025171 0.0476934053
v 0.0476955883 -0.194620073 0.0872033015
v 0.0872055814 -0.234130129 0.087203294
v 0.0872063488 -0.194620058 0.0476934053
v -0.0871994793 -0.234130085 0.087203294
v -0.0476894863 -0.194620073 0.0872033015
v -0.087198697 -0.194619998 0.0476934053
v -0.0476894863 -0.369025022 0.087203294
v -0.0871994793 -0.329514951 0.087203294
v -0.087198697 -0.369025171 0.0476934984
v -0.0871992782 -0.32951498 -0.0872018039
v -0.0476890951 -0.369025141 -0.0872018412
v -0.087198697 -0.369025171 -0.0476913713
v -0.0476892851 -0.194619879 -0.0872018412
v -0.0871992782 -0.234130085 -0.0872017965
v -0.087198697 -0.194619998 -0.0476914681
v 0.0872057676 -0.234130129 -0.0872017965
v 0.0476955883 -0.194619879 -0.0872018412
v 0.0872063488 -0.194620147 -0.0476913713
v 0.0476955883 -0.369025141 -0.0872018412
v 0.0872057676 -0.32951498 -0.0872018039
v 0.0872063488 -0.36902523 -0.0476914681
v -0.0761728138 -0.143397599 -0.11249914
v -0.0505517088 -0.134405866 -0.0505543761
v -0.112496376 -0.143397599 -0.0761756748
v -0.112496376 -0.143397599 0.0761774257
v -0.0505517088 -0.134405911 0.0505561158
v -0.0761728138 -0.143397599 0.112500876
v 0.0761800855 -0.143397599 0.112500876
v 0.0505587868 -0.134405911 0.0505561158
v 0.112503447 -0.143397599 0.0761774257
v 0.11250364 -0.143397599 -0.0761756748
v 0.0505587868 -0.134405866 -0.0505543761
v 0.0761800855 -0.143397599 -0.11249914
v 0.138428614 -0.205646008 -0.11249914
v 0.147420511 -0.231267124 -0.0505543761
v 0.138428614 -0.169322506 -0.0761756748
v 0.138428614 -0.169322506 0.0761774257
v 0.147420302 -0.231267124 0.0505561158
v 0.138428614 -0.205646008 0.112500876
v 0.138428614 -0.357998967 0.112500876
v 0.147420302 -0.332377613 0.0505561233
v 0.138428614 -0.394322425 0.0761774257
v 0.138428614 -0.394322544 -0.0761756748
v 0.147420511 -0.332377613 -0.0505543686
v 0.138428614 -0.357998967 -0.11249914
v -0.138421148 -0.205646113 0.112500876
v -0.147412851 -0.231267318 0.0505561158
v -0.138421148 -0.169322625 0.0761774257
v -0.138421148 -0.169322595 -0.0761756748
v -0.147412851 -0.231267318 -0.0505543761
v -0.138421148 -0.205646113 -0.112499088
v -0.138421148 -0.357999116 -0.112499088
v -0.147412851 -0.332377821 -0.0505543686
v -0.138421148 -0.394322544 -0.0761755854
v -0.138421148 -0.394322604 0.0761774257
v -0.147412851 -0.332377821 0.0505561233
v -0.138421148 -0.357999057 0.112500876
v 0.125907481 -0.338912576 -0.500000775
v 0.0576618388 -0.407181531 -0.218751669
v 0.125907481 -0.338937223 -0.218750894
v 0.0576618388 -0.407156974 -0.50000149
v -0.0576621294 -0.407181531 -0.218751669
v -0.057661932 -0.407156974 -0.500000775
v -0.125906408 -0.338936716 -0.218752444
v -0.125906408 -0.338912129 -0.50000149
v 0.125907287 -0.223587409 -0.5
v 0.125907481 -0.338912576 -0.500000775
v 0.125907481 -0.338937223 -0.218750894
v 0.125907287 -0.22361201 -0.218750104
v 0.0576628111 -0.155343056 -0.5
v 0.125907287 -0.223587409 -0.5
v 0.125907287 -0.22361201 -0.218750104
v 0.0576628111 -0.155367702 -0.218750104
v -0.0576621294 -0.155343056 -0.5
v -0.0576623231 -0.155367702 -0.218750894
v -0.125906795 -0.223587602 -0.500000775
v -0.125906795 -0.223612234 -0.218751669
v -0.125906408 -0.338912129 -0.50000149
v -0.125906795 -0.223587602 -0.500000775
v -0.125906795 -0.223612234 -0.218751669
v -0.125906408 -0.338936716 -0.218752444
v -0.0944924355 -0.324525476 -0.500000775
v -0.0432447903 -0.375705183 -0.218750894
v -0.0944261625 -0.324521542 -0.218750894
v -0.0432752185 -0.375742584 -0.500000775
v 0.0432452783 -0.375705242 -0.218750894
v 0.043275699 -0.375742704 -0.500000775
v 0.0944268405 -0.321775615 -0.218750894
v 0.0944931209 -0.321779519 -0.500000775
v -0.0944922417 -0.237974167 -0.500000775
v -0.0944924355 -0.324525476 -0.500000775
v -0.0944261625 -0.324521542 -0.218750894
v -0.0944259614 -0.238027334 -0.218750894
v -0.043275021 -0.192754328 -0.500000775
v -0.0944922417 -0.237974167 -0.500000775
v -0.0944259614 -0.238027334 -0.218750894
v -0.0432446003 -0.192841023 -0.218750894
v 0.0432758927 -0.192754328 -0.500000775
v 0.0432454683 -0.192841023 -0.218750894
v 0.0944931209 -0.240721196 -0.500000775
v 0.0944268405 -0.240774333 -0.218750894
v 0.0944931209 -0.321779519 -0.500000775
v 0.0944931209 -0.240721196 -0.500000775
v 0.0944268405 -0.240774333 -0.218750894
v 0.0944268405 -0.321775615 -0.218750894
v 0.05766242 -0.407156885 0.499999374
v 0.05766261 -0.407181412 0.218749151
v -0.0576621294 -0.407181621 0.218748361
v -0.0576623231 -0.407157063 0.499998629
v -0.12590602 -0.338936985 0.218748376
v -0.125906602 -0.338912398 0.499998629
v 0.125906706 -0.338912487 0.499999374
v 0.1259069 -0.338937104 0.218749136
v 0.05766261 -0.407181412 0.218749151
v 0.05766242 -0.407156885 0.499999374
v 0.1259069 -0.223587319 0.499998659
v 0.125907093 -0.223611936 0.218748376
v 0.1259069 -0.338937104 0.218749136
v 0.125906706 -0.338912487 0.499999374
v 0.0576628111 -0.155342892 0.499997854
v 0.125907093 -0.223611936 0.218748376
v 0.1259069 -0.223587319 0.499998659
v 0.0576630011 -0.155367509 0.218747586
v -0.0576625131 -0.155342892 0.499998629
v -0.0576623231 -0.155367509 0.218748376
v -0.125906602 -0.223587796 0.499998659
v -0.12590602 -0.223612398 0.218748376
v -0.125906602 -0.338912398 0.499998629
v -0.12590602 -0.338936985 0.218748376
v -0.12590602 -0.223612398 0.218748376
v -0.125906602 -0.223587796 0.499998659
v -0.0942436233 -0.324411333 0.499998629
v -0.0943098888 -0.324464411 0.218748361
v -0.0431922749 -0.37558037 0.218748361
v -0.0431618504 -0.375493765 0.499998689
v 0.0431923717 -0.375580043 0.218748361
v 0.0431617536 -0.375493497 0.499998629
v 0.0943105668 -0.3244645 0.218748361
v 0.0942441002 -0.324411452 0.499998629
v -0.0942432284 -0.238088533 0.499999374
v -0.0943095013 -0.238084629 0.218749136
v -0.0943098888 -0.324464411 0.218748361
v -0.0942436233 -0.324411333 0.499998629
v -0.043161463 -0.187006354 0.499999374
v -0.0943095013 -0.238084629 0.218749136
v -0.0942432284 -0.238088533 0.499999374
v -0.0431918912 -0.186968878 0.218749136
v 0.0431611724 -0.187006563 0.499998629
v 0.0431917943 -0.186969072 0.218748376
v 0.0942441002 -0.238088608 0.499997854
v 0.0943105668 -0.238084748 0.218747586
v 0.0942441002 -0.324411452 0.499998629
v 0.0943105668 -0.3244645 0.218748361
v 0.0943105668 -0.238084748 0.218747586
v 0.0942441002 -0.238088608 0.499997854
v -0.112496376 -0.420247614 0.0761774257
v -0.112496376 -0.420247614 -0.0761756748
v -0.138421148 -0.394322544 -0.0761755854
v -0.138421148 -0.394322604 0.0761774257
v -0.0761726275 -0.420247614 -0.11249914
v 0.0761800855 -0.420247614 -0.11249914
v 0.0761793107 -0.394322425 -0.138424441
v -0.0761737898 -0.394322425 -0.138424441
v 0.112503834 -0.420247614 -0.0761756748
v 0.112503834 -0.420247614 0.0761774257
v 0.138428614 -0.394322425 0.0761774257
v 0.138428614 -0.394322544 -0.0761756748
v 0.0761800855 -0.420247614 0.112500876
v -0.0761726275 -0.420247614 0.112500876
v -0.0761739835 -0.394322544 0.138425559
v 0.0761789232 -0.394322544 0.138425559
v -0.0761728138 -0.143397599 0.112500876
v 0.0761800855 -0.143397599 0.112500876
v 0.0761789232 -0.16932255 0.138425574
v -0.0761734024 -0.16932255 0.138425753
v 0.112503447 -0.143397599 0.0761774257
v 0.11250364 -0.143397599 -0.0761756748
v 0.138428614 -0.169322506 -0.0761756748
v 0.138428614 -0.169322506 0.0761774257
v 0.0761800855 -0.143397599 -0.11249914
v -0.0761728138 -0.143397599 -0.11249914
v -0.0761737898 -0.169322431 -0.138424456
v 0.0761793107 -0.169322431 -0.138424456
v -0.112496376 -0.143397599 -0.0761756748
v -0.112496376 -0.143397599 0.0761774257
v -0.138421148 -0.169322625 0.0761774257
v -0.138421148 -0.169322595 -0.0761756748
v 0.138428614 -0.205646008 0.112500876
v 0.138428614 -0.357998967 0.112500876
v 0.112502679 -0.357999027 0.138425559
v 0.112502679 -0.205646008 0.138425559
v 0.100396052 -0.18143037 0.100393094
v 0.0761789232 -0.16932255 0.138425574
v 0.138428614 -0.169322506 0.0761774257
v 0.0761800855 -0.143397599 0.112500876
v 0.112503447 -0.143397599 0.0761774257
v -0.138421148 -0.357999057 0.112500876
v -0.138421148 -0.205646113 0.112500876
v -0.112497538 -0.205646008 0.138425559
v -0.112497538 -0.357999027 0.138425559
v 0.138428614 -0.357998967 -0.11249914
v 0.138428614 -0.205646008 -0.11249914
v 0.112502679 -0.205645993 -0.138424397
v 0.112502679 -0.357998878 -0.138424441
v 0.100396052 -0.382214725 -0.100391299
v 0.0761793107 -0.394322425 -0.138424441
v 0.138428614 -0.394322544 -0.0761756748
v 0.0761800855 -0.420247614 -0.11249914
v 0.112503834 -0.420247614 -0.0761756748
v -0.138421148 -0.205646113 -0.112499088
v -0.138421148 -0.357999116 -0.112499088
v -0.112497345 -0.357998878 -0.138424441
v -0.112497345 -0.205645978 -0.138424456
v -0.100388393 -0.18143037 -0.100391299
v -0.0761737898 -0.169322431 -0.138424456
v -0.138421148 -0.169322595 -0.0761756748
v -0.0761728138 -0.143397599 -0.11249914
v -0.112496376 -0.143397599 -0.0761756748
v -0.0761726275 -0.420247614 -0.11249914
v 0.0761802793 -0.451009154 -0.11249914
v 0.0761800855 -0.420247614 -0.11249914
v -0.0761726275 -0.451009154 -0.11249914
v -0.112496376 -0.420247614 -0.0761756748
v -0.112496182 -0.451009154 -0.0761756748
v -0.112496376 -0.420247614 0.0761774257
v -0.112496182 -0.451009154 0.0761774257
v -0.0761726275 -0.451009154 0.112500876
v -0.0761726275 -0.420247614 0.112500876
v 0.0761800855 -0.420247614 0.112500876
v 0.0761802793 -0.451009154 0.112500876
v 0.112503834 -0.420247614 0.0761774257
v 0.112503834 -0.451009154 0.0761774257
v 0.112503834 -0.420247614 -0.0761756748
v 0.112503834 -0.451009154 -0.0761756748
v 0.0761800855 -0.420247614 -0.11249914
v 0.0761802793 -0.451009154 -0.11249914
v -0.0699158385 -0.470703721 -0.140661269
v 0.0693374798 -0.499999791 -0.139482662
v 0.0699234903 -0.470703721 -0.140661269
v -0.0693304092 -0.499999791 -0.139482662
v -0.14065823 -0.470703721 -0.0699188858
v -0.139480203 -0.499999791 -0.0693328753
v -0.14065823 -0.470703721 0.0699206367
v -0.139480203 -0.499999791 0.0693349987
v -0.0699158385 -0.470703721 0.140663028
v -0.0693304092 -0.499999791 0.139484778
v 0.0699234903 -0.470703721 0.140663028
v 0.0693374798 -0.499999791 0.139484778
v 0.140666068 -0.470703721 0.0699206367
v 0.139487073 -0.499999791 0.0693349987
v 0.140666068 -0.470703721 -0.0699188858
v 0.139487073 -0.499999791 -0.0693328753
v 0.0699234903 -0.470703721 -0.140661269
v 0.0693374798 -0.499999791 -0.139482662
v 0.109061219 -0.510353804 -0.059621267
v 0.0872063488 -0.369025171 0.0476934053
v 0.109061219 -0.510353804 0.0596232973
v 0.0872063488 -0.36902523 -0.0476914681
v 0.0596256703 -0.510353863 -0.10905686
v 0.0476955883 -0.369025141 -0.0872018412
v -0.0596187897 -0.510353863 -0.10905686
v -0.0476890951 -0.369025141 -0.0872018412
v -0.109054334 -0.510353804 -0.0596211627
v -0.087198697 -0.369025171 -0.0476913713
v -0.109054334 -0.510353804 0.0596232973
v -0.087198697 -0.369025171 0.0476934984
v -0.0596187897 -0.510353804 0.109058946
v -0.0476894863 -0.369025022 0.087203294
v 0.0596256703 -0.510353804 0.109058946
v 0.0476955883 -0.369025022 0.087203294
v 0.109061219 -0.510353804 0.0596232973
v 0.0872063488 -0.369025171 0.0476934053
v -0.112497538 -0.205646008 0.138425559
v -0.112498701 -0.357999027 0.169186667
v -0.112497538 -0.357999027 0.138425559
v -0.112498701 -0.205646008 0.169186667
v -0.0761734024 -0.16932255 0.138425753
v -0.0761751458 -0.16932255 0.169186667
v 0.0761789232 -0.16932255 0.138425574
v 0.0761779547 -0.16932255 0.169186667
v 0.112501517 -0.205646008 0.169186667
v 0.112502679 -0.205646008 0.138425559
v 0.112502679 -0.357999027 0.138425559
v 0.112501517 -0.357999027 0.169186667
v 0.0761789232 -0.394322544 0.138425559
v 0.0761779547 -0.394322544 0.169186667
v -0.0761739835 -0.394322544 0.138425559
v -0.0761751458 -0.394322544 0.169186667
v -0.112497538 -0.357999027 0.138425559
v -0.112498701 -0.357999027 0.169186667
v -0.140660748 -0.211902842 0.188881189
v -0.139482126 -0.351156086 0.218177289
v -0.140660748 -0.351742238 0.188881204
v -0.139482126 -0.212488249 0.218177274
v -0.0699183568 -0.141160429 0.188881204
v -0.0693323463 -0.14233847 0.218177289
v 0.0699211657 -0.141160429 0.188881204
v 0.0693355426 -0.14233847 0.218177289
v 0.140663549 -0.211902842 0.188881189
v 0.139485329 -0.212488249 0.218177274
v 0.140663549 -0.351742238 0.188881204
v 0.139485329 -0.351156086 0.218177289
v 0.0699211657 -0.422484666 0.188881189
v 0.0693355426 -0.421305805 0.218177274
v -0.0699183568 -0.422484666 0.188881189
v -0.0693323463 -0.421305805 0.218177274
v -0.140660748 -0.351742238 0.188881204
v -0.139482126 -0.351156086 0.218177289
v -0.0596207306 -0.390879959 0.228531286
v 0.0476955883 -0.369025022 0.087203294
v 0.0596237369 -0.390879959 0.228531286
v -0.0476894863 -0.369025022 0.087203294
v -0.109056279 -0.341444314 0.228531286
v -0.0871994793 -0.329514951 0.087203294
v -0.109056279 -0.222199887 0.228531301
v -0.0871994793 -0.234130085 0.087203294
v -0.0596205369 -0.172764271 0.228531301
v -0.0476894863 -0.194620073 0.0872033015
v 0.0596237369 -0.172764271 0.228531301
v 0.0476955883 -0.194620073 0.0872033015
v 0.109059475 -0.222199932 0.228531301
v 0.0872055814 -0.234130129 0.087203294
v 0.109059475 -0.341444314 0.228531286
v 0.0872055814 -0.32951498 0.087203294
v 0.0596237369 -0.390879959 0.228531286
v 0.0476955883 -0.369025022 0.087203294
v -0.112497345 -0.357998878 -0.138424441
v -0.112498321 -0.205645904 -0.169186279
v -0.112497345 -0.205645978 -0.138424456
v -0.112498321 -0.357998759 -0.169186279
v -0.0761737898 -0.394322425 -0.138424441
v -0.0761747584 -0.394322336 -0.169186279
v 0.0761793107 -0.394322425 -0.138424441
v 0.0761783421 -0.394322336 -0.169186279
v 0.112501904 -0.357998759 -0.169186279
v 0.112502679 -0.357998878 -0.138424441
v 0.112502679 -0.205645993 -0.138424397
v 0.112501904 -0.205645904 -0.169186279
v 0.0761793107 -0.169322431 -0.138424456
v 0.0761783421 -0.169322342 -0.169186279
v -0.0761737898 -0.169322431 -0.138424456
v -0.0761747584 -0.169322342 -0.169186279
v -0.112497345 -0.205645978 -0.138424456
v -0.112498321 -0.205645904 -0.169186279
v -0.14066036 -0.35174197 -0.188880801
v -0.139481738 -0.212488711 -0.218176901
v -0.14066036 -0.211902693 -0.188880801
v -0.139481738 -0.351156563 -0.218176901
v -0.0699179694 -0.422484398 -0.188880801
v -0.0693319589 -0.421306342 -0.218176901
v 0.0699215531 -0.422484398 -0.188880801
v 0.06933593 -0.421306342 -0.218176901
v 0.140663937 -0.35174197 -0.188880801
v 0.139485717 -0.351156563 -0.218176901
v 0.140663937 -0.211902693 -0.188880801
v 0.139485717 -0.212488711 -0.218176901
v 0.0699215531 -0.141160101 -0.188880801
v 0.06933593 -0.14233911 -0.218176872
v -0.0699179694 -0.141160101 -0.188880801
v -0.0693319589 -0.14233911 -0.218176872
v -0.14066036 -0.211902693 -0.188880801
v -0.139481738 -0.212488711 -0.218176901
v -0.0596203394 -0.172764972 -0.228530914
v 0.0476955883 -0.194619879 -0.0872018412
v 0.0596241169 -0.172764972 -0.228530914
v -0.0476892851 -0.194619879 -0.0872018412
v -0.109055892 -0.222200498 -0.228530914
v -0.0871992782 -0.234130085 -0.0872017965
v -0.109055892 -0.341444969 -0.228530914
v -0.0871992782 -0.32951498 -0.0872018039
v -0.0596201494 -0.390880495 -0.228530914
v -0.0476890951 -0.369025141 -0.0872018412
v 0.0596241169 -0.390880495 -0.228530914
v 0.0476955883 -0.369025141 -0.0872018412
v 0.109059863 -0.341444969 -0.228530914
v 0.0872057676 -0.32951498 -0.0872018039
v 0.109059863 -0.222200498 -0.228530914
v 0.0872057676 -0.234130129 -0.0872017965
v 0.0596241169 -0.172764972 -0.228530914
v 0.0476955883 -0.194619879 -0.0872018412
v -0.0505517088 -0.134405866 -0.0505543761
v 0.0505587868 -0.134405866 -0.0505543761
v 0.0505587868 -0.134405911 0.0505561158
v -0.0505517088 -0.134405911 0.0505561158
v 0.0872063488 -0.194620058 0.0476934053
v -0.0476894863 -0.194620073 0.0872033015
v 0.0476955883 -0.194620073 0.0872033015
v -0.087198697 -0.194619998 0.0476934053
v -0.087198697 -0.194619998 -0.0476914681
v 0.0872063488 -0.194620147 -0.0476913713
v 0.0476955883 -0.194619879 -0.0872018412
v -0.0476892851 -0.194619879 -0.0872018412
v 0.0761800855 -0.143397599 -0.11249914
v 0.0505587868 -0.134405866 -0.0505543761
v -0.0505517088 -0.134405866 -0.0505543761
v -0.0761728138 -0.143397599 -0.11249914
v -0.112496376 -0.143397599 -0.0761756748
v -0.0505517088 -0.134405866 -0.0505543761
v -0.0505517088 -0.134405911 0.0505561158
v -0.112496376 -0.143397599 0.0761774257
v -0.0761728138 -0.143397599 0.112500876
v -0.0505517088 -0.134405911 0.0505561158
v 0.0505587868 -0.134405911 0.0505561158
v 0.0761800855 -0.143397599 0.112500876
v 0.112503447 -0.143397599 0.0761774257
v 0.0505587868 -0.134405911 0.0505561158
v 0.0505587868 -0.134405866 -0.0505543761
v 0.11250364 -0.143397599 -0.0761756748
v 0.147420511 -0.231267124 -0.0505543761
v 0.147420511 -0.332377613 -0.0505543686
v 0.147420302 -0.332377613 0.0505561233
v 0.147420302 -0.231267124 0.0505561158
v 0.0872063488 -0.369025171 0.0476934053
v 0.0872055814 -0.234130129 0.087203294
v 0.0872055814 -0.32951498 0.087203294
v 0.0872063488 -0.194620058 0.0476934053
v 0.0872063488 -0.194620147 -0.0476913713
v 0.0872063488 -0.36902523 -0.0476914681
v 0.0872057676 -0.32951498 -0.0872018039
v 0.0872057676 -0.234130129 -0.0872017965
v 0.138428614 -0.357998967 -0.11249914
v 0.147420511 -0.332377613 -0.0505543686
v 0.147420511 -0.231267124 -0.0505543761
v 0.138428614 -0.205646008 -0.11249914
v 0.138428614 -0.169322506 -0.0761756748
v 0.147420511 -0.231267124 -0.0505543761
v 0.147420302 -0.231267124 0.0505561158
v 0.138428614 -0.169322506 0.0761774257
v 0.138428614 -0.205646008 0.112500876
v 0.147420302 -0.231267124 0.0505561158
v 0.147420302 -0.332377613 0.0505561233
v 0.138428614 -0.357998967 0.112500876
v 0.138428614 -0.394322425 0.0761774257
v 0.147420302 -0.332377613 0.0505561233
v 0.147420511 -0.332377613 -0.0505543686
v 0.138428614 -0.394322544 -0.0761756748
v -0.147412851 -0.231267318 0.0505561158
v -0.147412851 -0.332377821 0.0505561233
v -0.147412851 -0.332377821 -0.0505543686
v -0.147412851 -0.231267318 -0.0505543761
v -0.087198697 -0.369025171 -0.0476913713
v -0.0871992782 -0.234130085 -0.0872017965
v -0.0871992782 -0.32951498 -0.0872018039
v -0.087198697 -0.194619998 -0.0476914681
v -0.087198697 -0.194619998 0.0476934053
v -0.087198697 -0.369025171 0.0476934984
v -0.0871994793 -0.329514951 0.087203294
v -0.0871994793 -0.234130085 0.087203294
v -0.138421148 -0.357999057 0.112500876
v -0.147412851 -0.332377821 0.0505561233
v -0.147412851 -0.231267318 0.0505561158
v -0.138421148 -0.205646113 0.112500876
v -0.138421148 -0.169322625 0.0761774257
v -0.147412851 -0.231267318 0.0505561158
v -0.147412851 -0.231267318 -0.0505543761
v -0.138421148 -0.169322595 -0.0761756748
v -0.138421148 -0.205646113 -0.112499088
v -0.147412851 -0.231267318 -0.0505543761
v -0.147412851 -0.332377821 -0.0505543686
v -0.138421148 -0.357999116 -0.112499088
v -0.138421148 -0.394322544 -0.0761755854
v -0.147412851 -0.332377821 -0.0505543686
v -0.147412851 -0.332377821 0.0505561233
v -0.138421148 -0.394322604 0.0761774257
v 0.100396052 -0.18143037 -0.100391299
v 0.138428614 -0.169322506 -0.0761756748
v 0.11250364 -0.143397599 -0.0761756748
v 0.138428614 -0.205646008 -0.11249914
v 0.0761800855 -0.143397599 -0.11249914
v 0.112502679 -0.205645993 -0.138424397
v 0.0761793107 -0.169322431 -0.138424456
v -0.0761737898 -0.394322425 -0.138424441
v -0.112497345 -0.357998878 -0.138424441
v -0.100388393 -0.382214725 -0.100391299
v -0.0761726275 -0.420247614 -0.11249914
v -0.138421148 -0.357999116 -0.112499088
v -0.112496376 -0.420247614 -0.0761756748
v -0.138421148 -0.394322544 -0.0761755854
v -0.112497538 -0.357999027 0.138425559
v -0.100388393 -0.382214725 0.100393005
v -0.138421148 -0.357999057 0.112500876
v -0.0761739835 -0.394322544 0.138425559
v -0.138421148 -0.394322604 0.0761774257
v -0.0761726275 -0.420247614 0.112500876
v -0.112496376 -0.420247614 0.0761774257
v -0.100388393 -0.18143037 0.100392997
v -0.0761734024 -0.16932255 0.138425753
v -0.112497538 -0.205646008 0.138425559
v -0.138421148 -0.205646113 0.112500876
v -0.0761728138 -0.143397599 0.112500876
v -0.138421148 -0.169322625 0.0761774257
v -0.112496376 -0.143397599 0.0761774257
v 0.0761789232 -0.394322544 0.138425559
v 0.112502679 -0.357999027 0.138425559
v 0.100396052 -0.382214725 0.100393102
v 0.0761800855 -0.420247614 0.112500876
v 0.138428614 -0.357998967 0.112500876
v 0.112503834 -0.420247614 0.0761774257
v 0.138428614 -0.394322425 0.0761774257
v -0.139481738 -0.351156563 -0.218176901
v -0.109055892 -0.222200498 -0.228530914
v -0.139481738 -0.212488711 -0.218176901
v -0.109055892 -0.341444969 -0.228530914
v -0.0596203394 -0.172764972 -0.228530914
v -0.0693319589 -0.421306342 -0.218176901
v -0.0693319589 -0.14233911 -0.218176872
v -0.0596201494 -0.390880495 -0.228530914
v 0.0596241169 -0.172764972 -0.228530914
v 0.06933593 -0.421306342 -0.218176901
v 0.06933593 -0.14233911 -0.218176872
v 0.0596241169 -0.390880495 -0.228530914
v 0.109059863 -0.222200498 -0.228530914
v 0.139485717 -0.351156563 -0.218176901
v 0.139485717 -0.212488711 -0.218176901
v 0.109059863 -0.341444969 -0.228530914
v -0.112498321 -0.357998759 -0.169186279
v -0.14066036 -0.211902693 -0.188880801
v -0.112498321 -0.205645904 -0.169186279
v -0.14066036 -0.35174197 -0.188880801
v -0.0699179694 -0.141160101 -0.188880801
v -0.0761747584 -0.394322336 -0.169186279
v -0.0761747584 -0.169322342 -0.169186279
v -0.0699179694 -0.422484398 -0.188880801
v 0.0699215531 -0.141160101 -0.188880801
v 0.0761783421 -0.394322336 -0.169186279
v 0.0761783421 -0.169322342 -0.169186279
v 0.0699215531 -0.422484398 -0.188880801
v 0.140663937 -0.211902693 -0.188880801
v 0.112501904 -0.357998759 -0.169186279
v 0.112501904 -0.205645904 -0.169186279
v 0.140663937 -0.35174197 -0.188880801
v -0.139482126 -0.212488249 0.218177274
v -0.109056279 -0.341444314 0.228531286
v -0.139482126 -0.351156086 0.218177289
v -0.109056279 -0.222199887 0.228531301
v -0.0596207306 -0.390879959 0.228531286
v -0.0693323463 -0.14233847 0.218177289
v -0.0693323463 -0.421305805 0.218177274
v -0.0596205369 -0.172764271 0.228531301
v 0.0596237369 -0.390879959 0.228531286
v 0.0693355426 -0.14233847 0.218177289
v 0.0693355426 -0.421305805 0.218177274
v 0.0596237369 -0.172764271 0.228531301
v 0.109059475 -0.341444314 0.228531286
v 0.139485329 -0.212488249 0.218177274
v 0.139485329 -0.351156086 0.218177289
v 0.109059475 -0.222199932 0.228531301
v -0.112498701 -0.205646008 0.169186667
v -0.140660748 -0.351742238 0.188881204
v -0.112498701 -0.357999027 0.169186667
v -0.140660748 -0.211902842 0.188881189
v -0.0699183568 -0.422484666 0.188881189
v -0.0761751458 -0.16932255 0.169186667
v -0.0761751458 -0.394322544 0.169186667
v -0.0699183568 -0.141160429 0.188881204
v 0.0699211657 -0.422484666 0.188881189
v 0.0761779547 -0.16932255 0.169186667
v 0.0761779547 -0.394322544 0.169186667
v 0.0699211657 -0.141160429 0.188881204
v 0.140663549 -0.351742238 0.188881204
v 0.112501517 -0.205646008 0.169186667
v 0.112501517 -0.357999027 0.169186667
v 0.140663549 -0.211902842 0.188881189
v -0.0693304092 -0.499999791 -0.139482662
v 0.0596256703 -0.510353863 -0.10905686
v 0.0693374798 -0.499999791 -0.139482662
v -0.0596187897 -0.510353863 -0.10905686
v 0.109061219 -0.510353804 -0.059621267
v -0.139480203 -0.499999791 -0.0693328753
v 0.139487073 -0.499999791 -0.0693328753
v -0.109054334 -0.510353804 -0.0596211627
v 0.109061219 -0.510353804 0.0596232973
v -0.139480203 -0.499999791 0.0693349987
v 0.139487073 -0.499999791 0.0693349987
v -0.109054334 -0.510353804 0.0596232973
v 0.0596256703 -0.510353804 0.109058946
v -0.0693304092 -0.499999791 0.139484778
v 0.0693374798 -0.499999791 0.139484778
v -0.0596187897 -0.510353804 0.109058946
v -0.0761726275 -0.451009154 -0.11249914
v 0.0699234903 -0.470703721 -0.140661269
v 0.0761802793 -0.451009154 -0.11249914
v -0.0699158385 -0.470703721 -0.140661269
v 0.140666068 -0.470703721 -0.0699188858
v -0.112496182 -0.451009154 -0.0761756748
v 0.112503834 -0.451009154 -0.0761756748
v -0.14065823 -0.470703721 -0.0699188858
v 0.140666068 -0.470703721 0.0699206367
v -0.112496182 -0.451009154 0.0761774257
v 0.112503834 -0.451009154 0.0761774257
v -0.14065823 -0.470703721 0.0699206367
v 0.0699234903 -0.470703721 0.140663028
v -0.0761726275 -0.451009154 0.112500876
v 0.0761802793 -0.451009154 0.112500876
v -0.0699158385 -0.470703721 0.140663028
v -0.125906408 -0.338912129 -0.50000149
v -0.0944922417 -0.237974167 -0.500000775
v -0.125906795 -0.223587602 -0.500000775
v -0.0944924355 -0.324525476 -0.500000775
v -0.043275021 -0.192754328 -0.500000775
v -0.057661932 -0.407156974 -0.500000775
v -0.0576621294 -0.155343056 -0.5
v -0.0432752185 -0.375742584 -0.500000775
v 0.0432758927 -0.192754328 -0.500000775
v 0.0576618388 -0.407156974 -0.50000149
v 0.0576628111 -0.155343056 -0.5
v 0.043275699 -0.375742704 -0.500000775
v 0.0944931209 -0.240721196 -0.500000775
v 0.125907481 -0.338912576 -0.500000775
v 0.125907287 -0.223587409 -0.5
v 0.0944931209 -0.321779519 -0.500000775
v -0.125906602 -0.223587796 0.499998659
v -0.0942432284 -0.238088533 0.499999374
v -0.0942436233 -0.324411333 0.499998629
v -0.125906602 -0.338912398 0.499998629
v -0.0576625131 -0.155342892 0.499998629
v -0.0431618504 -0.375493765 0.499998689
v -0.043161463 -0.187006354 0.499999374
v -0.0576623231 -0.407157063 0.499998629
v 0.0576628111 -0.155342892 0.499997854
v 0.0431617536 -0.375493497 0.499998629
v 0.0431611724 -0.187006563 0.499998629
v 0.05766242 -0.407156885 0.499999374
v 0.1259069 -0.223587319 0.499998659
v 0.0942441002 -0.324411452 0.499998629
v 0.0942441002 -0.238088608 0.499997854
v 0.125906706 -0.338912487 0.499999374
vt 0.303610355 0.557493865
vt 0.289743423 0.557493806
vt 0.303610355 0.543626904
vt 0.28974247 0.557508826
vt 0.303609401 0.543641865
vt 0.303609401 0.557508826
vt 0.303610295 0.543641925
vt 0.289743364 0.557508826
vt 0.303610295 0.557508886
vt 0.303609401 0.557493746
vt 0.303609401 0.543626785
vt 0.28974247 0.557493746
vt 0.303610355 0.543626785
vt 0.303610355 0.557493746
vt 0.289743364 0.557493746
vt 0.289743364 0.557508826
vt 0.303610295 0.557508826
vt 0.303610295 0.543641865
vt 0.303609401 0.543641865
vt 0.303609401 0.557508886
vt 0.289742351 0.557508826
vt 0.289743423 0.557508886
vt 0.303610355 0.557508826
vt 0.303610355 0.543641865
vt 0.194534019 0.521521568
vt 0.201188356 0.537650406
vt 0.185059592 0.530996025
vt 0.185059592 0.570734799
vt 0.201188356 0.564080477
vt 0.194534019 0.580209196
vt 0.234272793 0.580209196
vt 0.227618396 0.564080477
vt 0.243747205 0.570734799
vt 0.243747279 0.530996025
vt 0.22761853 0.537650406
vt 0.234272793 0.521521568
vt 0.194534019 0.521521568
vt 0.201188356 0.537650406
vt 0.185059592 0.530996025
vt 0.185059592 0.570734799
vt 0.201188356 0.564080477
vt 0.194534019 0.580209196
vt 0.234272793 0.580209196
vt 0.227618396 0.564080477
vt 0.243747205 0.570734799
vt 0.243747279 0.530996025
vt 0.22761853 0.537650406
vt 0.234272793 0.521521568
vt 0.194534019 0.521521568
vt 0.201188356 0.537650406
vt 0.185059592 0.530996025
vt 0.185059592 0.570734799
vt 0.201188356 0.564080477
vt 0.194534019 0.580209196
vt 0.234272793 0.580209196
vt 0.227618396 0.564080477
vt 0.243747205 0.570734799
vt 0.243747279 0.530996025
vt 0.22761853 0.537650406
vt 0.234272793 0.521521568
vt 0.0871014819 0.569017589
vt 0.102861352 0.614354551
vt 0.0871014819 0.614354372
vt 0.102861352 0.569017589
vt 0.120393172 0.614354789
vt 0.120393172 0.569017589
vt 0.136139318 0.614354789
vt 0.136139318 0.569017589
vt 0.0694694519 0.569017589
vt 0.0871014819 0.569017589
vt 0.0871014819 0.614354372
vt 0.0694694519 0.614353716
vt 0.0536554232 0.569017589
vt 0.0694694519 0.569017589
vt 0.0694694519 0.614353716
vt 0.0536554232 0.614353538
vt 0.0363097563 0.569017589
vt 0.0363097563 0.614353061
vt 0.0207588784 0.569017589
vt 0.0207588784 0.614352882
vt 0.00336805894 0.569017589
vt 0.0207588784 0.569017589
vt 0.0207588784 0.614352882
vt 0.00336805894 0.614352703
vt 0.144560009 0.735112071
vt 0.157264173 0.689855278
vt 0.144577652 0.689853549
vt 0.157264173 0.735112071
vt 0.169070974 0.689855695
vt 0.169070974 0.735112071
vt 0.182457983 0.689856172
vt 0.182457983 0.735112071
vt 0.231968209 0.735112071
vt 0.243533179 0.735112071
vt 0.24352169 0.689858496
vt 0.231968209 0.689859509
vt 0.218569621 0.735112071
vt 0.231968209 0.735112071
vt 0.231968209 0.689859509
vt 0.218569621 0.689859092
vt 0.206768319 0.735112071
vt 0.206768319 0.689858675
vt 0.1940929 0.735112071
vt 0.1940929 0.689857364
vt 0.182457983 0.735112071
vt 0.1940929 0.735112071
vt 0.1940929 0.689857364
vt 0.182457983 0.689856172
vt 0.00336804357 0.764106929
vt 0.00336804357 0.809443891
vt 0.0207588784 0.809443891
vt 0.0207588784 0.764106691
vt 0.0363097563 0.809443891
vt 0.0363097563 0.764106691
vt 0.120393127 0.764107108
vt 0.120393127 0.809443891
vt 0.135994047 0.809443891
vt 0.135994047 0.764106929
vt 0.102861397 0.764107764
vt 0.102861397 0.809443891
vt 0.120393127 0.809443891
vt 0.120393127 0.764107108
vt 0.0871015564 0.764107943
vt 0.102861397 0.809443891
vt 0.102861397 0.764107764
vt 0.0871015564 0.809443891
vt 0.069469437 0.764108419
vt 0.069469437 0.809443891
vt 0.0536553785 0.764108598
vt 0.0536553785 0.809443891
vt 0.0363097563 0.764108777
vt 0.0363097563 0.809443891
vt 0.0536553785 0.809443891
vt 0.0536553785 0.764108598
vt 0.157264173 0.689855278
vt 0.157264173 0.735112071
vt 0.169070974 0.735112071
vt 0.169070974 0.689855695
vt 0.182457983 0.735112071
vt 0.182457983 0.689856172
vt 0.1940929 0.735112071
vt 0.1940929 0.689857364
vt 0.144577652 0.689853549
vt 0.144560009 0.735112071
vt 0.157264173 0.735112071
vt 0.157264173 0.689855278
vt 0.231968209 0.689859509
vt 0.243533179 0.735112071
vt 0.24352169 0.689858496
vt 0.231968209 0.735112071
vt 0.218569621 0.689859092
vt 0.218569621 0.735112071
vt 0.206768319 0.689858675
vt 0.206768319 0.735112071
vt 0.1940929 0.689857364
vt 0.1940929 0.735112071
vt 0.206768319 0.735112071
vt 0.206768319 0.689858675
vt 0.35181424 0.574387252
vt 0.351812482 0.512232006
vt 0.341238648 0.512237966
vt 0.341238707 0.574387252
vt 0.35181424 0.574387252
vt 0.351812482 0.512232006
vt 0.341238648 0.512237966
vt 0.341238707 0.574387252
vt 0.35181424 0.574387252
vt 0.351812482 0.512232006
vt 0.341238648 0.512237966
vt 0.341238707 0.574387252
vt 0.35181424 0.574387252
vt 0.351812482 0.512232006
vt 0.341238648 0.512237966
vt 0.341238707 0.574387252
vt 0.341238648 0.512237966
vt 0.341238707 0.574387252
vt 0.35181424 0.574387252
vt 0.351812482 0.512232006
vt 0.341238588 0.512238503
vt 0.341238707 0.574387252
vt 0.35181424 0.574387252
vt 0.351811528 0.512241721
vt 0.341238767 0.512238622
vt 0.341238707 0.574387252
vt 0.35181424 0.574387252
vt 0.351816326 0.512244642
vt 0.341238767 0.512238204
vt 0.341238707 0.574387252
vt 0.35181424 0.574387252
vt 0.351816684 0.512235701
vt 0.351815194 0.574401379
vt 0.351811528 0.512241721
vt 0.341238588 0.512238503
vt 0.341217428 0.574401379
vt 0.346516341 0.58457464
vt 0.333793223 0.585203469
vt 0.359239519 0.585203469
vt 0.339092016 0.594105422
vt 0.353940427 0.594105422
vt 0.341238588 0.512238503
vt 0.341238707 0.574387252
vt 0.35181424 0.574387252
vt 0.351811528 0.512241721
vt 0.351820976 0.574407101
vt 0.351816684 0.512235701
vt 0.341238767 0.512238204
vt 0.34122327 0.57440722
vt 0.346522063 0.584580362
vt 0.333798856 0.58520925
vt 0.359245121 0.58520925
vt 0.339097708 0.594111264
vt 0.353946149 0.594111264
vt 0.351830453 0.574397564
vt 0.351811528 0.512241721
vt 0.341238588 0.512238503
vt 0.341232687 0.574397624
vt 0.346531421 0.584570944
vt 0.333808362 0.585199714
vt 0.359254688 0.585199714
vt 0.339107394 0.594101608
vt 0.353955775 0.594101608
vt 0.368281573 0.491155148
vt 0.411386162 0.500348091
vt 0.411386162 0.491155148
vt 0.368281573 0.500348091
vt 0.354508102 0.491155148
vt 0.354508102 0.500348091
vt 0.311403632 0.491155148
vt 0.311403632 0.500348091
vt 0.297630072 0.500348091
vt 0.297630072 0.491155148
vt 0.254525572 0.491155148
vt 0.254525572 0.500348091
vt 0.24075219 0.491155148
vt 0.24075219 0.500348091
vt 0.197647512 0.491155148
vt 0.197647512 0.500348091
vt 0.183874145 0.491155148
vt 0.183874145 0.500348091
vt 0.373407066 0.501248002
vt 0.406814426 0.510002971
vt 0.406814545 0.501248002
vt 0.373406947 0.510002971
vt 0.349936515 0.501248002
vt 0.349936336 0.510002971
vt 0.316529006 0.501248002
vt 0.316529006 0.510002971
vt 0.293058574 0.501248002
vt 0.293058574 0.510002971
vt 0.259651124 0.501248002
vt 0.259651244 0.510002971
vt 0.236180514 0.501248002
vt 0.236180589 0.510002971
vt 0.202773035 0.501248002
vt 0.202773035 0.510002971
vt 0.179302529 0.501248002
vt 0.179302394 0.510002971
vt 0.152341053 0.497526556
vt 0.182130128 0.492455095
vt 0.161560729 0.479605764
vt 0.174755573 0.506789386
vt 0.14836669 0.508656621
vt 0.171579778 0.515681386
vt 0.144152626 0.528369009
vt 0.168209895 0.531442225
vt 0.143230125 0.540147841
vt 0.167473018 0.54085964
vt 0.144305274 0.560265779
vt 0.168332502 0.556965053
vt 0.146478698 0.571876228
vt 0.170070559 0.566251397
vt 0.152762696 0.591022849
vt 0.17509748 0.581569314
vt 0.157894179 0.601665556
vt 0.179198623 0.59007591
vt 0.368281573 0.491155148
vt 0.411386162 0.500348091
vt 0.411386162 0.491155148
vt 0.368281573 0.500348091
vt 0.354508102 0.491155148
vt 0.354508102 0.500348091
vt 0.311403632 0.491155148
vt 0.311403632 0.500348091
vt 0.297630072 0.500348091
vt 0.297630072 0.491155148
vt 0.254525572 0.491155148
vt 0.254525572 0.500348091
vt 0.24075219 0.491155148
vt 0.24075219 0.500348091
vt 0.197647512 0.491155148
vt 0.197647512 0.500348091
vt 0.183874145 0.491155148
vt 0.183874145 0.500348091
vt 0.373407066 0.501248002
vt 0.406814426 0.510002971
vt 0.406814545 0.501248002
vt 0.373406947 0.510002971
vt 0.349936515 0.501248002
vt 0.349936336 0.510002971
vt 0.316529006 0.501248002
vt 0.316529006 0.510002971
vt 0.293058574 0.501248002
vt 0.293058574 0.510002971
vt 0.259651124 0.501248002
vt 0.259651244 0.510002971
vt 0.236180514 0.501248002
vt 0.236180589 0.510002971
vt 0.202773035 0.501248002
vt 0.202773035 0.510002971
vt 0.179302529 0.501248002
vt 0.179302394 0.510002971
vt 0.152341053 0.497526556
vt 0.182130128 0.492455095
vt 0.161560729 0.479605764
vt 0.174755573 0.506789386
vt 0.14836669 0.508656621
vt 0.171579778 0.515681386
vt 0.144152626 0.528369009
vt 0.168209895 0.531442225
vt 0.143230125 0.540147841
vt 0.167473018 0.54085964
vt 0.144305274 0.560265779
vt 0.168332502 0.556965053
vt 0.146478698 0.571876228
vt 0.170070559 0.566251397
vt 0.152762696 0.591022849
vt 0.17509748 0.581569314
vt 0.157894179 0.601665556
vt 0.179198623 0.59007591
vt 0.368281573 0.491155148
vt 0.411386162 0.500348091
vt 0.411386162 0.491155148
vt 0.368281573 0.500348091
vt 0.354508102 0.491155148
vt 0.354508102 0.500348091
vt 0.311403632 0.491155148
vt 0.311403632 0.500348091
vt 0.297630072 0.500348091
vt 0.297630072 0.491155148
vt 0.254525572 0.491155148
vt 0.254525572 0.500348091
vt 0.24075219 0.491155148
vt 0.24075219 0.500348091
vt 0.197647512 0.491155148
vt 0.197647512 0.500348091
vt 0.183874145 0.491155148
vt 0.183874145 0.500348091
vt 0.373407066 0.501248002
vt 0.406814426 0.510002971
vt 0.406814545 0.501248002
vt 0.373406947 0.510002971
vt 0.349936515 0.501248002
vt 0.349936336 0.510002971
vt 0.316529006 0.501248002
vt 0.316529006 0.510002971
vt 0.293058574 0.501248002
vt 0.293058574 0.510002971
vt 0.259651124 0.501248002
vt 0.259651244 0.510002971
vt 0.236180514 0.501248002
vt 0.236180589 0.510002971
vt 0.202773035 0.501248002
vt 0.202773035 0.510002971
vt 0.179302529 0.501248002
vt 0.179302394 0.510002971
vt 0.152341053 0.497526556
vt 0.182130128 0.492455095
vt 0.161560729 0.479605764
vt 0.174755573 0.506789386
vt 0.14836669 0.508656621
vt 0.171579778 0.515681386
vt 0.144152626 0.528369009
vt 0.168209895 0.531442225
vt 0.143230125 0.540147841
vt 0.167473018 0.54085964
vt 0.144305274 0.560265779
vt 0.168332502 0.556965053
vt 0.146478698 0.571876228
vt 0.170070559 0.566251397
vt 0.152762696 0.591022849
vt 0.17509748 0.581569314
vt 0.157894179 0.601665556
vt 0.179198623 0.59007591
vt 0.201188356 0.537650406
vt 0.22761853 0.537650406
vt 0.227618396 0.564080477
vt 0.201188356 0.564080477
vt 0.322065234 0.565958321
vt 0.282595873 0.57751894
vt 0.310504973 0.57751894
vt 0.271035403 0.5659585
vt 0.271035403 0.538049519
vt 0.322065234 0.538049459
vt 0.310504973 0.526489079
vt 0.282595873 0.526489139
vt 0.234272793 0.521521568
vt 0.22761853 0.537650406
vt 0.201188356 0.537650406
vt 0.194534019 0.521521568
vt 0.185059592 0.530996025
vt 0.201188356 0.537650406
vt 0.201188356 0.564080477
vt 0.185059592 0.570734799
vt 0.194534019 0.580209196
vt 0.201188356 0.564080477
vt 0.227618396 0.564080477
vt 0.234272793 0.580209196
vt 0.243747205 0.570734799
vt 0.227618396 0.564080477
vt 0.22761853 0.537650406
vt 0.243747279 0.530996025
vt 0.201188356 0.537650406
vt 0.22761853 0.537650406
vt 0.227618396 0.564080477
vt 0.201188356 0.564080477
vt 0.322065234 0.565958321
vt 0.282595873 0.57751894
vt 0.310504973 0.57751894
vt 0.271035403 0.5659585
vt 0.271035403 0.538049519
vt 0.322065234 0.538049459
vt 0.310504973 0.526489079
vt 0.282595873 0.526489139
vt 0.234272793 0.521521568
vt 0.22761853 0.537650406
vt 0.201188356 0.537650406
vt 0.194534019 0.521521568
vt 0.185059592 0.530996025
vt 0.201188356 0.537650406
vt 0.201188356 0.564080477
vt 0.185059592 0.570734799
vt 0.194534019 0.580209196
vt 0.201188356 0.564080477
vt 0.227618396 0.564080477
vt 0.234272793 0.580209196
vt 0.243747205 0.570734799
vt 0.227618396 0.564080477
vt 0.22761853 0.537650406
vt 0.243747279 0.530996025
vt 0.201188356 0.537650406
vt 0.22761853 0.537650406
vt 0.227618396 0.564080477
vt 0.201188356 0.564080477
vt 0.322065234 0.565958321
vt 0.282595873 0.57751894
vt 0.310504973 0.57751894
vt 0.271035403 0.5659585
vt 0.271035403 0.538049519
vt 0.322065234 0.538049459
vt 0.310504973 0.526489079
vt 0.282595873 0.526489139
vt 0.234272793 0.521521568
vt 0.22761853 0.537650406
vt 0.201188356 0.537650406
vt 0.194534019 0.521521568
vt 0.185059592 0.530996025
vt 0.201188356 0.537650406
vt 0.201188356 0.564080477
vt 0.185059592 0.570734799
vt 0.194534019 0.580209196
vt 0.201188356 0.564080477
vt 0.227618396 0.564080477
vt 0.234272793 0.580209196
vt 0.243747205 0.570734799
vt 0.227618396 0.564080477
vt 0.22761853 0.537650406
vt 0.243747279 0.530996025
vt 0.346522063 0.584580362
vt 0.359245121 0.58520925
vt 0.353946149 0.594111264
vt 0.351820976 0.574407101
vt 0.339097708 0.594111264
vt 0.34122327 0.57440722
vt 0.333798856 0.58520925
vt 0.333808362 0.585199714
vt 0.341232687 0.574397624
vt 0.346531421 0.584570944
vt 0.339107394 0.594101608
vt 0.351830453 0.574397564
vt 0.353955775 0.594101608
vt 0.359254688 0.585199714
vt 0.341226995 0.574391842
vt 0.346525788 0.584565163
vt 0.351824701 0.574391842
vt 0.3338027 0.585194051
vt 0.359248966 0.585194051
vt 0.339101613 0.594095886
vt 0.353950113 0.594095886
vt 0.346525788 0.584565163
vt 0.3338027 0.585194051
vt 0.341226995 0.574391842
vt 0.351824701 0.574391842
vt 0.339101613 0.594095886
vt 0.359248966 0.585194051
vt 0.353950113 0.594095886
vt 0.333793223 0.585203469
vt 0.341217428 0.574401379
vt 0.346516341 0.58457464
vt 0.339092016 0.594105422
vt 0.351815194 0.574401379
vt 0.353940427 0.594105422
vt 0.359239519 0.585203469
vt 0.256652474 0.572351277
vt 0.2663908 0.534849763
vt 0.256649226 0.531641662
vt 0.266389251 0.569017589
vt 0.279755771 0.522277772
vt 0.276932597 0.590739489
vt 0.276716858 0.512825131
vt 0.279851258 0.581225514
vt 0.314077348 0.521752238
vt 0.317598909 0.589793086
vt 0.316963375 0.512740433
vt 0.314452112 0.581225216
vt 0.328341633 0.534796238
vt 0.337506294 0.571227312
vt 0.337477475 0.531570613
vt 0.328342587 0.567961812
vt 0.236411393 0.583281577
vt 0.194903642 0.591282785
vt 0.193125963 0.583281577
vt 0.234633729 0.591282785
vt 0.174804702 0.57118398
vt 0.246731326 0.572961688
vt 0.182806045 0.572961688
vt 0.254732519 0.57118398
vt 0.174804702 0.531453848
vt 0.246731326 0.529676199
vt 0.182806045 0.529676199
vt 0.254732519 0.531453848
vt 0.194903642 0.511354983
vt 0.236411393 0.51935631
vt 0.193125963 0.51935631
vt 0.234633729 0.511354983
vt 0.256652474 0.572351277
vt 0.2663908 0.534849763
vt 0.256649226 0.531641662
vt 0.266389251 0.569017589
vt 0.279755771 0.522277772
vt 0.276932597 0.590739489
vt 0.276716858 0.512825131
vt 0.279851258 0.581225514
vt 0.314077348 0.521752238
vt 0.317598909 0.589793086
vt 0.316963375 0.512740433
vt 0.314452112 0.581225216
vt 0.328341633 0.534796238
vt 0.337506294 0.571227312
vt 0.337477475 0.531570613
vt 0.328342587 0.567961812
vt 0.236411393 0.583281577
vt 0.194903642 0.591282785
vt 0.193125963 0.583281577
vt 0.234633729 0.591282785
vt 0.174804702 0.57118398
vt 0.246731326 0.572961688
vt 0.182806045 0.572961688
vt 0.254732519 0.57118398
vt 0.174804702 0.531453848
vt 0.246731326 0.529676199
vt 0.182806045 0.529676199
vt 0.254732519 0.531453848
vt 0.194903642 0.511354983
vt 0.236411393 0.51935631
vt 0.193125963 0.51935631
vt 0.234633729 0.511354983
vt 0.256652474 0.572351277
vt 0.2663908 0.534849763
vt 0.256649226 0.531641662
vt 0.266389251 0.569017589
vt 0.279755771 0.522277772
vt 0.276932597 0.590739489
vt 0.276716858 0.512825131
vt 0.279851258 0.581225514
vt 0.314077348 0.521752238
vt 0.317598909 0.589793086
vt 0.316963375 0.512740433
vt 0.314452112 0.581225216
vt 0.328341633 0.534796238
vt 0.337506294 0.571227312
vt 0.337477475 0.531570613
vt 0.328342587 0.567961812
vt 0.236411393 0.583281577
vt 0.194903642 0.591282785
vt 0.193125963 0.583281577
vt 0.234633729 0.591282785
vt 0.174804702 0.57118398
vt 0.246731326 0.572961688
vt 0.182806045 0.572961688
vt 0.254732519 0.57118398
vt 0.174804702 0.531453848
vt 0.246731326 0.529676199
vt 0.182806045 0.529676199
vt 0.254732519 0.531453848
vt 0.194903642 0.511354983
vt 0.236411393 0.51935631
vt 0.193125963 0.51935631
vt 0.234633729 0.511354983
vt 0.243351296 0.893893063
vt 0.237342566 0.913127661
vt 0.243344903 0.915795267
vt 0.237288713 0.896663189
vt 0.227520749 0.92273128
vt 0.230309129 0.880872905
vt 0.230264947 0.928717196
vt 0.227547809 0.886895478
vt 0.211056277 0.92273128
vt 0.208310634 0.880853891
vt 0.208266318 0.928717196
vt 0.211069733 0.886900127
vt 0.20123066 0.91304642
vt 0.195211872 0.893904209
vt 0.195172146 0.915767908
vt 0.201286867 0.896702588
vt 0.195172146 0.915767908
vt 0.20123066 0.91304642
vt 0.201287389 0.896703184
vt 0.195211872 0.893904209
vt 0.208266318 0.928717196
vt 0.211069733 0.886900127
vt 0.211056277 0.92273128
vt 0.208310634 0.880853891
vt 0.230264947 0.928717196
vt 0.227547809 0.886895478
vt 0.227520749 0.92273128
vt 0.230309129 0.880872905
vt 0.243344903 0.915795267
vt 0.237288713 0.896663189
vt 0.237342566 0.913127661
vt 0.243351296 0.893893063
vn -0.57734555 0.577344835 -0.577360511
vn -0.57734561 0.577344775 -0.577360451
vn -0.57734555 0.577344835 -0.577360511
vn -0.577346206 -0.577345133 -0.577359319
vn -0.577346206 -0.577345133 -0.577359319
vn -0.577346206 -0.577345133 -0.577359319
vn 0.888916373 -0.457560539 -0.0215897001
vn 0.457559794 -0.888916492 -0.0215957426
vn 0.577353299 -0.577353001 -0.577344477
vn 0.577352881 0.577351511 -0.577346504
vn 0.888916314 0.45756045 -0.0215915069
vn 0.888916969 0.021602625 -0.457558781
vn 0.888915837 0.457561284 0.0215927511
vn 0.57970351 0.576173842 0.576166332
vn 0.888918102 0.0216024108 0.457556456
vn 0.457560956 -0.888915837 0.0216002818
vn 0.888916314 -0.45756039 0.0215930473
vn 0.577356815 -0.577353001 0.577340961
vn -0.888915718 -0.457560629 0.0216119103
vn -0.457561463 -0.888915479 0.0216065552
vn -0.577350736 -0.577349007 0.577351093
vn -0.579700291 0.576170266 0.576173067
vn -0.888915718 0.457560509 0.0216119587
vn -0.88891536 0.021602314 0.45756188
vn -0.101619154 0.989619672 -0.101619393
vn -0.101619139 0.989619672 -0.101619393
vn -0.101619139 0.989619672 -0.101619393
vn -0.101618625 0.989619792 0.101618879
vn -0.10161861 0.989619792 0.101618879
vn -0.101618618 0.989619792 0.101618901
vn 0.101618767 0.989619792 0.101618506
vn 0.101618782 0.989619792 0.101618513
vn 0.101618782 0.989619792 0.101618506
vn 0.101618931 0.989619672 -0.101619191
vn 0.101618938 0.989619672 -0.101619184
vn 0.101618931 0.989619672 -0.101619191
vn 0.989619315 0.101621136 -0.10162127
vn 0.989619315 0.101621144 -0.10162127
vn 0.989619315 0.101621136 -0.10162127
vn 0.989619672 0.101618975 0.10161911
vn 0.989619672 0.101618968 0.101619102
vn 0.989619672 0.101618968 0.101619117
vn 0.989619792 -0.101618789 0.101618789
vn 0.989619792 -0.101618789 0.101618789
vn 0.989619792 -0.101618789 0.101618789
vn 0.989619315 -0.101620764 -0.101621032
vn 0.989619315 -0.101620749 -0.101621024
vn 0.989619315 -0.101620764 -0.101621024
vn -0.989619672 0.101618864 0.101618998
vn -0.989619672 0.101618841 0.101618975
vn -0.989619672 0.101618864 0.101618998
vn -0.989619672 0.101618819 -0.101619095
vn -0.989619672 0.101618797 -0.10161908
vn -0.989619672 0.101618819 -0.101619095
vn -0.989619672 -0.101619042 -0.101618908
vn -0.989619672 -0.101619057 -0.101618923
vn -0.989619672 -0.101619042 -0.101618908
vn -0.989619672 -0.101618707 0.101618968
vn -0.989619672 -0.101618707 0.101618968
vn -0.989619672 -0.101618707 0.101618968
vn 0.707100093 -0.707113445 -6.18150734E-05
vn 0.382672548 -0.923883975 -8.07186007E-05
vn 0.707100153 -0.707113326 -6.18150661E-05
vn 0.382686496 -0.923878312 -8.07181132E-05
vn -0.382676631 -0.923882365 -8.08510376E-05
vn -0.382692456 -0.923875749 -8.08504556E-05
vn -0.707109094 -0.707104385 -6.20592546E-05
vn -0.707109094 -0.707104385 -6.20592546E-05
vn 1 1.68034978E-06 0
vn 1 1.68034978E-06 0
vn 1 1.68034978E-06 0
vn 1 1.68034978E-06 0
vn 0.382675469 0.923882782 8.09699195E-05
vn 0.707106113 0.707107365 6.19346101E-05
vn 0.707106173 0.707107306 6.19346029E-05
vn 0.382691443 0.923876286 8.0969352E-05
vn -0.382676631 0.923882365 8.0839578E-05
vn -0.382689178 0.92387706 8.08391123E-05
vn -0.70710659 0.707106888 6.1693805E-05
vn -0.70710659 0.707106888 6.16937905E-05
vn -1 -3.36071912E-06 0
vn -1 -3.3607198E-06 0
vn -1 -3.36071912E-06 0
vn -1 -3.3607198E-06 0
vn 0.7071141 0.707099438 -0.000173572815
vn 0.382677704 0.923881948 -0.000165998485
vn 0.7071141 0.707099438 -0.000173572829
vn 0.382699788 0.923872709 -0.000165999751
vn -0.394704521 0.918808162 -0.000167869322
vn -0.394726098 0.918798745 -0.000167870588
vn -0.725332439 0.688398778 -0.000175325855
vn -0.725332439 0.688398778 -0.000175325884
vn 1 -2.23970255E-06 -0.000235644824
vn 1 -2.23970278E-06 -0.000235644839
vn 1 -2.23970278E-06 -0.000235644839
vn 1 -2.23970255E-06 -0.000235644824
vn 0.353806138 -0.935318708 -0.000325296307
vn 0.661845744 -0.749640048 -0.000300174986
vn 0.661845744 -0.749639928 -0.000300174928
vn 0.353809476 -0.935317457 -0.000325296307
vn -0.367497295 -0.930024505 -0.000326515408
vn -0.367502868 -0.930022359 -0.000326515379
vn -0.683567405 -0.729887307 -0.000298997911
vn -0.683567405 -0.729887307 -0.000298997882
vn -1 0 -0.000235644635
vn -1 0 -0.000235644591
vn -1 0 -0.000235644591
vn -1 0 -0.000235644591
vn 0.382692695 -0.923875749 8.09806006E-05
vn 0.382676214 -0.923882544 8.09811754E-05
vn -0.382677704 -0.923881948 8.01915376E-05
vn -0.382691413 -0.923876286 8.0191021E-05
vn -0.70710963 -0.707103908 6.08408845E-05
vn -0.70710963 -0.707103908 6.08408845E-05
vn 0.707107067 -0.707106411 6.23001033E-05
vn 0.707107127 -0.707106352 6.23001033E-05
vn 0.382676214 -0.923882544 8.09811754E-05
vn 0.382692695 -0.923875749 8.09806006E-05
vn 1 -1.68034535E-06 6.89165518E-07
vn 1 -1.68034512E-06 6.89165404E-07
vn 1 -1.68034535E-06 6.89165518E-07
vn 1 -1.68034512E-06 6.89165404E-07
vn 0.382676989 0.923882186 -8.0580714E-05
vn 0.707108438 0.707105041 -6.13878146E-05
vn 0.707108438 0.707105041 -6.13878146E-05
vn 0.382692128 0.923875988 -8.0580161E-05
vn -0.382680297 0.923880816 -8.13719162E-05
vn -0.38269344 0.923875332 -8.13714505E-05
vn -0.707112074 0.707101464 -6.28497073E-05
vn -0.707112074 0.707101464 -6.28497073E-05
vn -1 0 -2.06705545E-06
vn -1 0 -2.06705545E-06
vn -1 0 -2.06705545E-06
vn -1 0 -2.06705545E-06
vn 0.707103431 0.707110107 -0.000297077699
vn 0.707103431 0.707110107 -0.000297077728
vn 0.382675588 0.923882663 -0.000327367597
vn 0.382683784 0.923879325 -0.000327367539
vn -0.382674515 0.9238832 -0.000327629416
vn -0.382682234 0.923880041 -0.000327629241
vn -0.707096636 0.707116842 -0.000297563296
vn -0.707096636 0.707116783 -0.000297563296
vn 1 -4.48621631E-06 -0.000235643907
vn 1 -4.48621631E-06 -0.000235643951
vn 1 -4.48621631E-06 -0.000235643951
vn 1 -4.48621677E-06 -0.000235643922
vn 0.382669181 -0.923885405 -0.000166088415
vn 0.707101703 -0.707111776 -0.000173567736
vn 0.707101703 -0.707111776 -0.000173567707
vn 0.382688999 -0.92387718 -0.000166089565
vn -0.382661939 -0.923888445 -0.000166349811
vn -0.382689029 -0.92387718 -0.000166351398
vn -0.707093 -0.707120478 -0.00017405214
vn -0.707092941 -0.707120478 -0.00017405214
vn -1 0 -0.000236333304
vn -1 0 -0.000236333304
vn -1 0 -0.000236333304
vn -1 0 -0.000236333304
vn -0.832410514 -0.302205443 0.464504689
vn -0.832410753 -0.302204996 -0.46450451
vn -0.540147364 -0.680110574 -0.495671809
vn -0.540145397 -0.680110931 0.495673239
vn -0.464502394 -0.302211523 -0.83240962
vn 0.464502543 -0.302202523 -0.832412779
vn 0.464502037 -0.832406998 -0.302219272
vn -0.464505553 -0.832415879 -0.302189231
vn 0.832411587 -0.302202821 -0.464504331
vn 0.832411766 -0.30220291 0.464504033
vn 0.540148258 -0.680109799 0.495671719
vn 0.540147662 -0.680109918 -0.495672286
vn 0.464500964 -0.302197754 0.832415402
vn -0.464500695 -0.302209079 0.832411468
vn -0.464507192 -0.832415164 0.302188933
vn 0.464500129 -0.832405567 0.302226126
vn -0.495670527 0.540145695 0.680112779
vn 0.495671362 0.540136278 0.680119634
vn 0.464499891 0.832406163 0.302224904
vn -0.464500487 0.832418382 0.302190214
vn 0.680111945 0.540147126 0.49567011
vn 0.680112302 0.540146112 -0.495670706
vn 0.540143192 0.680114329 -0.495671183
vn 0.540143073 0.680114865 0.495670468
vn 0.495672733 0.540144265 -0.680112243
vn -0.49567163 0.54015404 -0.680105388
vn -0.464505643 0.832417488 -0.302184731
vn 0.464502454 0.832408726 -0.302213967
vn -0.680115402 0.540140986 -0.495671988
vn -0.680115402 0.540140688 0.495672375
vn -0.540145874 0.680110931 0.495672792
vn -0.540146291 0.680110693 -0.495672613
vn 0.540133417 0.495666057 0.680125833
vn 0.540134788 -0.495665312 0.680125356
vn 0.83240217 -0.464501321 0.302233428
vn 0.83240211 0.464501679 0.302233368
vn 0.577343047 0.577348828 0.577358961
vn 0.464499891 0.832406163 0.302224904
vn 0.540143073 0.680114865 0.495670468
vn 0.495671362 0.540136278 0.680119634
vn 0.680111945 0.540147126 0.49567011
vn -0.540152729 -0.495675564 0.680103481
vn -0.540154338 0.495674878 0.680102706
vn -0.832417667 0.464510113 0.302177459
vn -0.832418442 -0.464507669 0.302179039
vn 0.540138781 -0.495667845 -0.68012023
vn 0.540138662 0.49566853 -0.680119812
vn 0.832406878 0.46450004 -0.302222461
vn 0.832406342 -0.464499593 -0.302224994
vn 0.577345788 -0.577346742 -0.577358127
vn 0.464502037 -0.832406998 -0.302219272
vn 0.540147662 -0.680109918 -0.495672286
vn 0.464502543 -0.302202523 -0.832412779
vn 0.832411587 -0.302202821 -0.464504331
vn -0.540159345 0.495675921 -0.680097938
vn -0.540156662 -0.495677561 -0.680098891
vn -0.832419395 -0.464505225 -0.302180141
vn -0.832420349 0.464506119 -0.302176327
vn -0.577356577 0.577352703 -0.577341616
vn -0.464505643 0.832417488 -0.302184731
vn -0.540146291 0.680110693 -0.495672613
vn -0.49567163 0.54015404 -0.680105388
vn -0.680115402 0.540140986 -0.495671988
vn -0.464502394 -0.302211523 -0.83240962
vn 0.382683575 1.21165533E-06 -0.923879445
vn 0.464502543 -0.302202523 -0.832412779
vn -0.382682234 -1.21165124E-06 -0.923880041
vn -0.832410753 -0.302204996 -0.46450451
vn -0.923878789 -4.62098615E-06 -0.382685155
vn -0.832410514 -0.302205443 0.464504689
vn -0.923878789 -4.62098615E-06 0.382685155
vn -0.382682234 -1.21165124E-06 0.923880041
vn -0.464500695 -0.302209079 0.832411468
vn 0.464500964 -0.302197754 0.832415402
vn 0.382683575 1.21165533E-06 0.923879445
vn 0.832411766 -0.30220291 0.464504033
vn 0.923879027 1.21165249E-06 0.382684618
vn 0.832411587 -0.302202821 -0.464504331
vn 0.923879027 1.21165249E-06 -0.382684618
vn 0.464502543 -0.302202523 -0.832412779
vn 0.382683575 1.21165533E-06 -0.923879445
vn -0.382977486 -0.0447731353 -0.922671974
vn 0.381595254 -0.044778619 -0.923244298
vn 0.38298133 -0.044783242 -0.922669828
vn -0.381599605 -0.0447685607 -0.923242986
vn -0.922670066 -0.0447624549 -0.382983446
vn -0.923245847 -0.0447578058 -0.381593853
vn -0.922671378 -0.0447573885 0.382980824
vn -0.923244953 -0.0447527841 0.381596833
vn -0.382978797 -0.0447609499 0.922671974
vn -0.381598741 -0.0447563715 0.92324388
vn 0.382982582 -0.0447710678 0.922669947
vn 0.38159433 -0.0447664447 0.923245251
vn 0.922671378 -0.0447853059 0.382977486
vn 0.923242509 -0.0447807573 0.381599277
vn 0.922670066 -0.0447903723 -0.382980287
vn 0.923243523 -0.0447857715 -0.381596386
vn 0.38298133 -0.044783242 -0.922669828
vn 0.381595254 -0.044778619 -0.923244298
vn -0.90839982 -0.172618762 0.380805016
vn -0.911839008 -0.172456443 -0.372570068
vn -0.908399224 -0.172619775 -0.380806059
vn -0.88891536 0.021602314 0.45756188
vn -0.380803615 -0.172619119 0.908400297
vn -0.579700291 0.576170266 0.576173067
vn 0.380806535 -0.172619894 0.908399045
vn 0.57970351 0.576173842 0.576166332
vn 0.908401012 -0.172621787 0.380800962
vn 0.888918102 0.0216024108 0.457556456
vn 0.908400595 -0.172622159 -0.380801767
vn 0.888916969 0.021602625 -0.457558781
vn 0.380804598 -0.172622308 -0.908399284
vn 0.580335319 0.575853467 -0.575850487
vn -0.380802035 -0.172622204 -0.908400476
vn -0.580332577 0.575849473 -0.575857043
vn -0.908399224 -0.172619775 -0.380806059
vn -0.911839008 -0.172456443 -0.372570068
vn -0.832417667 0.464510113 0.302177459
vn -0.923880756 -0.382680416 -3.49174261E-05
vn -0.832418442 -0.464507669 0.302179039
vn -0.923879921 0.382682502 -3.85392632E-05
vn -0.464500487 0.832418382 0.302190214
vn -0.382692903 0.92387563 -1.8083414E-05
vn 0.464499891 0.832406163 0.302224904
vn 0.382675827 0.923882663 1.32622908E-05
vn 0.923877716 0.382687807 3.37188139E-05
vn 0.83240211 0.464501679 0.302233368
vn 0.83240217 -0.464501321 0.302233428
vn 0.923877776 -0.382687628 3.37056335E-05
vn 0.464500129 -0.832405567 0.302226126
vn 0.382675916 -0.923882544 1.32491159E-05
vn -0.464507192 -0.832415164 0.302188933
vn -0.382690996 -0.923876345 -1.44613323E-05
vn -0.832418442 -0.464507669 0.302179039
vn -0.923880756 -0.382680416 -3.49174261E-05
vn -0.922672093 0.382977277 0.0447731204
vn -0.923244715 -0.381594241 0.0447786227
vn -0.92266947 -0.382982343 0.0447832532
vn -0.923242867 0.381599724 0.0447685495
vn -0.382983357 0.922670066 0.0447628982
vn -0.381593943 0.923245728 0.0447582565
vn 0.382980764 0.922671378 0.0447578281
vn 0.381596893 0.923244834 0.0447532199
vn 0.922672093 0.382978708 0.0447609387
vn 0.923243821 0.38159886 0.0447563492
vn 0.92266947 -0.382983685 0.0447710715
vn 0.923245609 -0.381593287 0.0447664224
vn 0.382977933 -0.922671258 0.0447826311
vn 0.38159883 -0.923242807 0.0447780639
vn -0.382980615 -0.922670066 0.0447877049
vn -0.38159591 -0.923243701 0.0447830893
vn -0.92266947 -0.382982343 0.0447832532
vn -0.923244715 -0.381594241 0.0447786227
vn 0.380806297 0.908398509 0.172623038
vn -0.580332577 0.575849473 -0.575857043
vn -0.380802125 0.908401787 0.172615021
vn 0.580335319 0.575853467 -0.575850487
vn 0.908399284 0.38080129 0.172629744
vn 0.888916314 0.45756045 -0.0215915069
vn 0.908398211 -0.380802959 0.172631785
vn 0.888916373 -0.457560539 -0.0215897001
vn 0.380804479 -0.90839833 0.17262809
vn 0.457559794 -0.888916492 -0.0215957426
vn -0.38080129 -0.908401072 0.17262046
vn -0.372570753 -0.911838531 0.172457367
vn -0.908400595 -0.380805641 0.17261374
vn -0.911841393 -0.372566998 0.172450349
vn -0.90840137 0.380804658 0.172611341
vn -0.911841214 0.372568667 0.172448114
vn -0.380802125 0.908401787 0.172615021
vn -0.580332577 0.575849473 -0.575857043
vn -0.832419395 -0.464505225 -0.302180141
vn -0.923880458 0.38268131 3.01639157E-05
vn -0.832420349 0.464506119 -0.302176327
vn -0.923880935 -0.382680118 2.7898699E-05
vn -0.464505553 -0.832415879 -0.302189231
vn -0.382690251 -0.923876643 9.14767134E-06
vn 0.464502037 -0.832406998 -0.302219272
vn 0.382677734 -0.923881948 -1.37550769E-05
vn 0.923879087 -0.38268429 -2.56877956E-05
vn 0.832406342 -0.464499593 -0.302224994
vn 0.832406878 0.46450004 -0.302222461
vn 0.92387861 0.382685632 -2.32776474E-05
vn 0.464502454 0.832408726 -0.302213967
vn 0.382677227 0.923882186 -7.93561048E-06
vn -0.464505643 0.832417488 -0.302184731
vn -0.382689655 0.923877001 1.48221879E-05
vn -0.832420349 0.464506119 -0.302176327
vn -0.923880458 0.38268131 3.01639157E-05
vn -0.922671974 -0.382977486 -0.0447731204
vn -0.923244238 0.381595254 -0.044778619
vn -0.922669828 0.38298136 -0.044783242
vn -0.923242986 -0.381599635 -0.0447685644
vn -0.382983446 -0.922670066 -0.0447624549
vn -0.381593853 -0.923245847 -0.0447578058
vn 0.382980824 -0.922671378 -0.0447573885
vn 0.381596833 -0.923244953 -0.0447527841
vn 0.922671974 -0.382978857 -0.0447609425
vn 0.923243821 -0.381598771 -0.0447563678
vn 0.922669947 0.382982701 -0.0447710715
vn 0.923245251 0.38159433 -0.044766441
vn 0.382977486 0.922671378 -0.0447853059
vn 0.381599277 0.923242509 -0.0447807573
vn -0.382980287 0.922670066 -0.0447903723
vn -0.381596386 0.923243523 -0.0447857715
vn -0.922669828 0.38298136 -0.044783242
vn -0.923244238 0.381595254 -0.044778619
vn 0.380806118 -0.908398807 -0.172621548
vn -0.457561463 -0.888915479 0.0216065552
vn -0.380802393 -0.908401787 -0.172614902
vn 0.457560956 -0.888915837 0.0216002818
vn 0.908399582 -0.380801737 -0.172627524
vn 0.888916314 -0.45756039 0.0215930473
vn 0.908398747 0.380803287 -0.172628701
vn 0.888915837 0.457561284 0.0215927511
vn 0.380804718 0.908398926 -0.172624186
vn 0.57970351 0.576173842 0.576166332
vn -0.380801678 0.908401489 -0.172617435
vn -0.579700291 0.576170266 0.576173067
vn -0.908400714 0.38080579 -0.17261298
vn -0.888915718 0.457560509 0.0216119587
vn -0.908401072 -0.380805165 -0.172611982
vn -0.888915718 -0.457560629 0.0216119103
vn -0.380802393 -0.908401787 -0.172614902
vn -0.457561463 -0.888915479 0.0216065552
vn -0 1 4.7914574E-07
vn -0 1 4.7914574E-07
vn -0 1 4.7914574E-07
vn -0 1 4.7914574E-07
vn -1.79571629E-07 -1 -1.22619394E-06
vn -1.79571629E-07 -1 -1.22619394E-06
vn -1.79571629E-07 -1 -1.22619394E-06
vn -1.79571629E-07 -1 -1.22619394E-06
vn -5.55565009E-07 -1 5.07907373E-07
vn -5.55565009E-07 -1 5.07907373E-07
vn -5.38713607E-07 -1 -4.9046871E-06
vn -5.38713607E-07 -1 -4.9046871E-06
vn -0 0.989628315 -0.14365159
vn -0 0.989628315 -0.14365159
vn -0 0.989628315 -0.14365159
vn -0 0.989628315 -0.14365159
vn -0.143651441 0.989628434 1.89057872E-07
vn -0.143651441 0.989628434 1.89057857E-07
vn -0.143651441 0.989628434 1.89057872E-07
vn -0.143651441 0.989628434 1.89057872E-07
vn -0 0.989628434 0.143650815
vn -0 0.989628434 0.143650845
vn -0 0.989628434 0.143650845
vn -0 0.989628434 0.143650845
vn 0.143651217 0.989628434 2.99947118E-07
vn 0.143651232 0.989628434 2.99947118E-07
vn 0.143651217 0.989628434 2.99947118E-07
vn 0.143651217 0.989628434 2.99947118E-07
vn 1 0 1.91658296E-06
vn 1 0 1.91658296E-06
vn 1 0 1.91658296E-06
vn 1 0 1.91658296E-06
vn -1 0 -1.96190449E-05
vn -1 0 -1.96190504E-05
vn -1 0 -1.96190504E-05
vn -1 0 -1.96190504E-05
vn -1 0 0
vn -1 0 0
vn -1 0 1.47141054E-05
vn -1 0 1.47141054E-05
vn 0.989627957 0 -0.143654227
vn 0.989627957 0 -0.143654212
vn 0.989627957 0 -0.143654227
vn 0.989627957 0 -0.143654227
vn 0.989628077 0.14365305 7.57443786E-07
vn 0.989628077 0.14365305 7.57443786E-07
vn 0.989628077 0.14365305 7.57443672E-07
vn 0.989628077 0.14365305 7.57443786E-07
vn 0.989628434 0 0.143651202
vn 0.989628434 0 0.143651202
vn 0.989628434 0 0.143651217
vn 0.989628434 0 0.143651202
vn 0.989628196 -0.143652514 8.11370626E-07
vn 0.989628196 -0.143652514 8.11370683E-07
vn 0.989628196 -0.143652514 8.11370796E-07
vn 0.989628196 -0.143652514 8.11370796E-07
vn -1 0 0
vn -1 0 0
vn -1 0 0
vn -1 0 0
vn 1 0 -1.47141063E-05
vn 1 0 -1.47141054E-05
vn 1 0 -1.47141063E-05
vn 1 0 -1.47141063E-05
vn 1 0 0
vn 1 0 0
vn 1 0 1.96190722E-05
vn 1 0 1.96190722E-05
vn -0.989628434 0 0.143651232
vn -0.989628434 0 0.143651217
vn -0.989628434 0 0.143651232
vn -0.989628434 0 0.143651232
vn -0.989628434 0.143651336 0
vn -0.989628434 0.143651322 0
vn -0.989628434 0.143651322 0
vn -0.989628434 0.143651336 0
vn -0.989628434 0 -0.143651322
vn -0.989628434 0 -0.143651322
vn -0.989628434 0 -0.143651322
vn -0.989628434 0 -0.143651336
vn -0.989628434 -0.143651217 0
vn -0.989628434 -0.143651217 0
vn -0.989628434 -0.143651202 0
vn -0.989628434 -0.143651217 0
vn 0.57734561 0.577349126 -0.5773561
vn 0.540143192 0.680114329 -0.495671183
vn 0.680112302 0.540146112 -0.495670706
vn 0.540138662 0.49566853 -0.680119812
vn 0.495672733 0.540144265 -0.680112243
vn 0.832406878 0.46450004 -0.302222461
vn 0.464502454 0.832408726 -0.302213967
vn -0.464505553 -0.832415879 -0.302189231
vn -0.832419395 -0.464505225 -0.302180141
vn -0.577355266 -0.577352345 -0.577343225
vn -0.464502394 -0.302211523 -0.83240962
vn -0.540156662 -0.495677561 -0.680098891
vn -0.832410753 -0.302204996 -0.46450451
vn -0.540147364 -0.680110574 -0.495671809
vn -0.832418442 -0.464507669 0.302179039
vn -0.577354431 -0.577352643 0.577343643
vn -0.540152729 -0.495675564 0.680103481
vn -0.464507192 -0.832415164 0.302188933
vn -0.540145397 -0.680110931 0.495673239
vn -0.464500695 -0.302209079 0.832411468
vn -0.832410514 -0.302205443 0.464504689
vn -0.577353954 0.577351987 0.577344716
vn -0.464500487 0.832418382 0.302190214
vn -0.832417667 0.464510113 0.302177459
vn -0.540154338 0.495674878 0.680102706
vn -0.495670527 0.540145695 0.680112779
vn -0.540145874 0.680110931 0.495672792
vn -0.680115402 0.540140688 0.495672375
vn 0.464500129 -0.832405567 0.302226126
vn 0.83240217 -0.464501321 0.302233428
vn 0.577344179 -0.577346623 0.577359915
vn 0.464500964 -0.302197754 0.832415402
vn 0.540134788 -0.495665312 0.680125356
vn 0.832411766 -0.30220291 0.464504033
vn 0.540148258 -0.680109799 0.495671719
vn -0.287219405 -0.114112005 -0.951043308
vn -0.282937795 0.127133489 -0.950675249
vn -0.287219197 0.114112481 -0.951043308
vn -0.282937616 -0.127133831 -0.95067513
vn -0.127133623 0.282937825 -0.95067513
vn -0.114112347 -0.287219405 -0.951043308
vn -0.114111885 0.287219554 -0.951043308
vn -0.127133206 -0.282937944 -0.95067513
vn 0.127132818 0.282937795 -0.950675249
vn 0.114112347 -0.287219346 -0.951043308
vn 0.114112087 0.287219226 -0.951043427
vn 0.127133206 -0.282938004 -0.95067513
vn 0.282937378 0.127133355 -0.950675309
vn 0.287219405 -0.114111997 -0.951043308
vn 0.287218928 0.114112318 -0.951043487
vn 0.282937616 -0.127133831 -0.95067513
vn -0.586743295 -0.363901109 0.723400533
vn -0.590326548 0.181255043 0.786550105
vn -0.586742818 0.363900095 0.723401368
vn -0.590326905 -0.181255415 0.786549807
vn -0.181255028 0.590324461 0.786551714
vn -0.363901109 -0.586743295 0.723400533
vn -0.36390081 0.586741269 0.723402262
vn -0.181255415 -0.590326905 0.786549807
vn 0.181255028 0.590324461 0.786551714
vn 0.363901109 -0.586743295 0.723400533
vn 0.36390081 0.586741269 0.723402262
vn 0.181255415 -0.590326905 0.786549807
vn 0.590326548 0.181255043 0.786550105
vn 0.586743295 -0.363901109 0.723400533
vn 0.586742818 0.363900095 0.723401368
vn 0.590326905 -0.181255415 0.786549807
vn -0.287219405 0.114112109 0.951043308
vn -0.282937914 -0.127133474 0.95067513
vn -0.287219465 -0.114112347 0.951043308
vn -0.282937676 0.127133727 0.95067513
vn -0.127133831 -0.282937735 0.95067513
vn -0.114112422 0.287219584 0.951043189
vn -0.114112005 -0.287219554 0.951043308
vn -0.12713322 0.282938212 0.95067513
vn 0.127133042 -0.282937676 0.950675249
vn 0.114112422 0.287219524 0.951043189
vn 0.114112228 -0.287219226 0.951043427
vn 0.12713322 0.282938153 0.95067513
vn 0.282937527 -0.12713334 0.950675249
vn 0.287219316 0.114112139 0.951043427
vn 0.287219137 -0.114112169 0.951043427
vn 0.282937676 0.127133653 0.950675249
vn -0.586743057 0.363901168 -0.723400652
vn -0.590326667 -0.181255311 -0.786550045
vn -0.586742997 -0.36390084 -0.72340095
vn -0.590326726 0.181255266 -0.786549985
vn -0.181255192 -0.590325713 -0.78655076
vn -0.36390081 0.586742759 -0.72340107
vn -0.363900751 -0.586742461 -0.723401368
vn -0.181255251 0.59032613 -0.786550462
vn 0.181255192 -0.590325713 -0.78655076
vn 0.36390081 0.586742818 -0.72340101
vn 0.363900751 -0.586742461 -0.723401368
vn 0.181255266 0.59032613 -0.786550462
vn 0.590326667 -0.181255311 -0.786550045
vn 0.586743116 0.363901168 -0.723400652
vn 0.586742997 -0.36390084 -0.72340095
vn 0.590326726 0.181255281 -0.786549985
vn -0.114112169 -0.951043189 -0.287219822
vn 0.127133518 -0.95067513 -0.282937974
vn 0.114112578 -0.951043189 -0.287219495
vn -0.12713401 -0.950675011 -0.282938093
vn 0.282937855 -0.95067513 -0.127133623
vn -0.287219614 -0.951043189 -0.11411228
vn 0.287219614 -0.951043308 -0.114111885
vn -0.282938123 -0.950675011 -0.127133623
vn 0.282937795 -0.950675249 0.127133206
vn -0.287219614 -0.951043308 0.114112265
vn 0.287219346 -0.951043427 0.114111975
vn -0.282938033 -0.95067513 0.127133593
vn 0.127133399 -0.950675249 0.282937527
vn -0.114112079 -0.951043308 0.287219614
vn 0.114112385 -0.951043427 0.287219077
vn -0.127133921 -0.95067513 0.282937825
vn -0.363900572 0.723401368 -0.58674258
vn 0.18125473 0.786551118 -0.590325356
vn 0.363899499 0.723402321 -0.586742043
vn -0.181255132 0.78655076 -0.590325713
vn 0.590324163 0.786552012 -0.181254953
vn -0.586742818 0.72340095 -0.363901019
vn 0.586740732 0.723402798 -0.363900691
vn -0.590326667 0.786550045 -0.181255341
vn 0.590324163 0.786552012 0.181254968
vn -0.586742818 0.72340095 0.363901019
vn 0.586740732 0.723402739 0.363900661
vn -0.590326667 0.786550045 0.181255341
vn 0.181254759 0.786551058 0.590325415
vn -0.363900572 0.723401368 0.58674258
vn 0.363899529 0.723402321 0.586742043
vn -0.181255132 0.78655076 0.590325713
vn 1.20121476E-05 4.55027566E-06 -1
vn 4.09303357E-06 7.53538779E-06 -1
vn 3.8114606E-06 7.6616052E-06 -1
vn 1.20278974E-05 4.51587266E-06 -1
vn -2.09337168E-06 1.59993469E-05 -1
vn 4.17591127E-06 8.66659138E-06 -1
vn -2.05377023E-06 1.60886411E-05 -1
vn 3.78785353E-06 8.84430938E-06 -1
vn 7.64496599E-06 1.81696796E-05 -1
vn -4.44310308E-06 1.17718037E-05 -1
vn 7.44387489E-06 1.8236753E-05 -1
vn -4.41783595E-06 1.17954942E-05 -1
vn 1.37121187E-05 9.5288724E-06 -1
vn 2.87894431E-06 7.92366427E-06 -1
vn 1.39081121E-05 1.03246912E-05 -1
vn 4.19581693E-06 7.37002574E-06 -1
vn -1.45867998E-05 6.79540153E-06 1
vn -1.44732076E-05 6.28029966E-06 1
vn -6.23487904E-06 -1.9580234E-06 1
vn -5.92920151E-06 -1.86202806E-06 1
vn -4.9334385E-06 2.05158121E-05 1
vn -1.9580159E-06 6.23477217E-06 1
vn -4.32230945E-06 2.07077846E-05 1
vn -1.86207831E-06 5.92928518E-06 1
vn 3.72406566E-06 1.18581984E-05 1
vn -1.01964488E-05 1.44732294E-05 1
vn 3.91608091E-06 1.24696153E-05 1
vn -1.05196077E-05 1.45868162E-05 1
vn -1.18585222E-05 3.72404884E-06 1
vn -2.0708314E-05 1.21544281E-05 1
vn -1.24699736E-05 3.91606909E-06 1
vn -2.05162687E-05 1.23817636E-05 1
g P_Straight_B_0
f 3/3/3 2/2/2 1/1/1
f 6/6/6 5/5/5 4/4/4
f 9/9/9 8/8/8 7/7/7
f 12/12/12 11/11/11 10/10/10
f 15/15/15 14/14/14 13/13/13
f 18/18/18 17/17/17 16/16/16
f 21/21/21 20/20/20 19/19/19
f 24/24/24 23/23/23 22/22/22
f 27/27/27 26/26/26 25/25/25
f 30/30/30 29/29/29 28/28/28
f 33/33/33 32/32/32 31/31/31
f 36/36/36 35/35/35 34/34/34
f 39/39/39 38/38/38 37/37/37
f 42/42/42 41/41/41 40/40/40
f 45/45/45 44/44/44 43/43/43
f 48/48/48 47/47/47 46/46/46
f 51/51/51 50/50/50 49/49/49
f 54/54/54 53/53/53 52/52/52
f 57/57/57 56/56/56 55/55/55
f 60/60/60 59/59/59 58/58/58
f 63/63/63 62/62/62 61/61/61
f 62/62/62 64/64/64 61/61/61
f 62/62/62 65/65/65 64/64/64
f 65/65/65 66/66/66 64/64/64
f 65/65/65 67/67/67 66/66/66
f 67/67/67 68/68/68 66/66/66
f 71/71/71 70/70/70 69/69/69
f 72/72/72 71/71/71 69/69/69
f 75/75/75 74/74/74 73/73/73
f 76/76/76 75/75/75 73/73/73
f 76/76/76 73/73/73 77/77/77
f 78/78/78 76/76/76 77/77/77
f 78/78/78 77/77/77 79/79/79
f 80/80/80 78/78/78 79/79/79
f 83/83/83 82/82/82 81/81/81
f 84/84/84 83/83/83 81/81/81
f 87/87/87 86/86/86 85/85/85
f 86/86/86 88/88/88 85/85/85
f 86/86/86 89/89/89 88/88/88
f 89/89/89 90/90/90 88/88/88
f 89/89/89 91/91/91 90/90/90
f 91/91/91 92/92/92 90/90/90
f 95/95/95 94/94/94 93/93/93
f 96/96/96 95/95/95 93/93/93
f 99/99/99 98/98/98 97/97/97
f 100/100/100 99/99/99 97/97/97
f 100/100/100 97/97/97 101/101/101
f 102/102/102 100/100/100 101/101/101
f 102/102/102 101/101/101 103/103/103
f 104/104/104 102/102/102 103/103/103
f 107/107/107 106/106/106 105/105/105
f 108/108/108 107/107/107 105/105/105
f 111/111/111 110/110/110 109/109/109
f 112/112/112 111/111/111 109/109/109
f 113/113/113 111/111/111 112/112/112
f 114/114/114 113/113/113 112/112/112
f 117/117/117 116/116/116 115/115/115
f 118/118/118 117/117/117 115/115/115
f 121/121/121 120/120/120 119/119/119
f 122/122/122 121/121/121 119/119/119
f 125/125/125 124/124/124 123/123/123
f 124/124/124 126/126/126 123/123/123
f 123/123/123 126/126/126 127/127/127
f 126/126/126 128/128/128 127/127/127
f 127/127/127 128/128/128 129/129/129
f 128/128/128 130/130/130 129/129/129
f 133/133/133 132/132/132 131/131/131
f 134/134/134 133/133/133 131/131/131
f 137/137/137 136/136/136 135/135/135
f 138/138/138 137/137/137 135/135/135
f 139/139/139 137/137/137 138/138/138
f 140/140/140 139/139/139 138/138/138
f 141/141/141 139/139/139 140/140/140
f 142/142/142 141/141/141 140/140/140
f 145/145/145 144/144/144 143/143/143
f 146/146/146 145/145/145 143/143/143
f 149/149/149 148/148/148 147/147/147
f 148/148/148 150/150/150 147/147/147
f 147/147/147 150/150/150 151/151/151
f 150/150/150 152/152/152 151/151/151
f 151/151/151 152/152/152 153/153/153
f 152/152/152 154/154/154 153/153/153
f 157/157/157 156/156/156 155/155/155
f 158/158/158 157/157/157 155/155/155
f 161/161/161 160/160/160 159/159/159
f 162/162/162 161/161/161 159/159/159
f 165/165/165 164/164/164 163/163/163
f 166/166/166 165/165/165 163/163/163
f 169/169/169 168/168/168 167/167/167
f 170/170/170 169/169/169 167/167/167
f 173/173/173 172/172/172 171/171/171
f 174/174/174 173/173/173 171/171/171
f 177/177/177 176/176/176 175/175/175
f 178/178/178 177/177/177 175/175/175
f 181/181/181 180/180/180 179/179/179
f 182/182/182 181/181/181 179/179/179
f 185/185/185 184/184/184 183/183/183
f 186/186/186 185/185/185 183/183/183
f 189/189/189 188/188/188 187/187/187
f 190/190/190 189/189/189 187/187/187
f 193/193/193 192/192/192 191/191/191
f 194/194/194 193/193/193 191/191/191
f 191/191/191 195/195/195 194/194/194
f 195/195/195 196/196/196 194/194/194
f 195/195/195 191/191/191 197/197/197
f 198/198/198 196/196/196 195/195/195
f 199/199/199 195/195/195 197/197/197
f 195/195/195 199/199/199 198/198/198
f 202/202/202 201/201/201 200/200/200
f 203/203/203 202/202/202 200/200/200
f 206/206/206 205/205/205 204/204/204
f 207/207/207 206/206/206 204/204/204
f 207/207/207 204/204/204 208/208/208
f 208/208/208 209/209/209 207/207/207
f 208/208/208 204/204/204 210/210/210
f 209/209/209 208/208/208 211/211/211
f 212/212/212 208/208/208 210/210/210
f 212/212/212 211/211/211 208/208/208
f 215/215/215 214/214/214 213/213/213
f 216/216/216 215/215/215 213/213/213
f 213/213/213 217/217/217 216/216/216
f 218/218/218 216/216/216 217/217/217
f 217/217/217 213/213/213 219/219/219
f 220/220/220 218/218/218 217/217/217
f 221/221/221 217/217/217 219/219/219
f 217/217/217 221/221/221 220/220/220
f 224/224/224 223/223/223 222/222/222
f 223/223/223 225/225/225 222/222/222
f 226/226/226 222/222/222 225/225/225
f 227/227/227 226/226/226 225/225/225
f 226/226/226 227/227/227 228/228/228
f 227/227/227 229/229/229 228/228/228
f 229/229/229 230/230/230 228/228/228
f 230/230/230 231/231/231 228/228/228
f 231/231/231 230/230/230 232/232/232
f 230/230/230 233/233/233 232/232/232
f 234/234/234 232/232/232 233/233/233
f 235/235/235 234/234/234 233/233/233
f 234/234/234 235/235/235 236/236/236
f 235/235/235 237/237/237 236/236/236
f 238/238/238 236/236/236 237/237/237
f 239/239/239 238/238/238 237/237/237
f 242/242/242 241/241/241 240/240/240
f 241/241/241 243/243/243 240/240/240
f 240/240/240 243/243/243 244/244/244
f 243/243/243 245/245/245 244/244/244
f 244/244/244 245/245/245 246/246/246
f 245/245/245 247/247/247 246/246/246
f 246/246/246 247/247/247 248/248/248
f 247/247/247 249/249/249 248/248/248
f 248/248/248 249/249/249 250/250/250
f 249/249/249 251/251/251 250/250/250
f 250/250/250 251/251/251 252/252/252
f 251/251/251 253/253/253 252/252/252
f 252/252/252 253/253/253 254/254/254
f 253/253/253 255/255/255 254/254/254
f 254/254/254 255/255/255 256/256/256
f 255/255/255 257/257/257 256/256/256
f 260/260/260 259/259/259 258/258/258
f 259/259/259 261/261/261 258/258/258
f 258/258/258 261/261/261 262/262/262
f 261/261/261 263/263/263 262/262/262
f 262/262/262 263/263/263 264/264/264
f 263/263/263 265/265/265 264/264/264
f 264/264/264 265/265/265 266/266/266
f 265/265/265 267/267/267 266/266/266
f 266/266/266 267/267/267 268/268/268
f 267/267/267 269/269/269 268/268/268
f 268/268/268 269/269/269 270/270/270
f 269/269/269 271/271/271 270/270/270
f 270/270/270 271/271/271 272/272/272
f 271/271/271 273/273/273 272/272/272
f 272/272/272 273/273/273 274/274/274
f 273/273/273 275/275/275 274/274/274
f 278/278/278 277/277/277 276/276/276
f 277/277/277 279/279/279 276/276/276
f 280/280/280 276/276/276 279/279/279
f 281/281/281 280/280/280 279/279/279
f 280/280/280 281/281/281 282/282/282
f 281/281/281 283/283/283 282/282/282
f 283/283/283 284/284/284 282/282/282
f 284/284/284 285/285/285 282/282/282
f 285/285/285 284/284/284 286/286/286
f 284/284/284 287/287/287 286/286/286
f 288/288/288 286/286/286 287/287/287
f 289/289/289 288/288/288 287/287/287
f 288/288/288 289/289/289 290/290/290
f 289/289/289 291/291/291 290/290/290
f 292/292/292 290/290/290 291/291/291
f 293/293/293 292/292/292 291/291/291
f 296/296/296 295/295/295 294/294/294
f 295/295/295 297/297/297 294/294/294
f 294/294/294 297/297/297 298/298/298
f 297/297/297 299/299/299 298/298/298
f 298/298/298 299/299/299 300/300/300
f 299/299/299 301/301/301 300/300/300
f 300/300/300 301/301/301 302/302/302
f 301/301/301 303/303/303 302/302/302
f 302/302/302 303/303/303 304/304/304
f 303/303/303 305/305/305 304/304/304
f 304/304/304 305/305/305 306/306/306
f 305/305/305 307/307/307 306/306/306
f 306/306/306 307/307/307 308/308/308
f 307/307/307 309/309/309 308/308/308
f 308/308/308 309/309/309 310/310/310
f 309/309/309 311/311/311 310/310/310
f 314/314/314 313/313/313 312/312/312
f 313/313/313 315/315/315 312/312/312
f 312/312/312 315/315/315 316/316/316
f 315/315/315 317/317/317 316/316/316
f 316/316/316 317/317/317 318/318/318
f 317/317/317 319/319/319 318/318/318
f 318/318/318 319/319/319 320/320/320
f 319/319/319 321/321/321 320/320/320
f 320/320/320 321/321/321 322/322/322
f 321/321/321 323/323/323 322/322/322
f 322/322/322 323/323/323 324/324/324
f 323/323/323 325/325/325 324/324/324
f 324/324/324 325/325/325 326/326/326
f 325/325/325 327/327/327 326/326/326
f 326/326/326 327/327/327 328/328/328
f 327/327/327 329/329/329 328/328/328
f 332/332/332 331/331/331 330/330/330
f 331/331/331 333/333/333 330/330/330
f 334/334/334 330/330/330 333/333/333
f 335/335/335 334/334/334 333/333/333
f 334/334/334 335/335/335 336/336/336
f 335/335/335 337/337/337 336/336/336
f 337/337/337 338/338/338 336/336/336
f 338/338/338 339/339/339 336/336/336
f 339/339/339 338/338/338 340/340/340
f 338/338/338 341/341/341 340/340/340
f 342/342/342 340/340/340 341/341/341
f 343/343/343 342/342/342 341/341/341
f 342/342/342 343/343/343 344/344/344
f 343/343/343 345/345/345 344/344/344
f 346/346/346 344/344/344 345/345/345
f 347/347/347 346/346/346 345/345/345
f 350/350/350 349/349/349 348/348/348
f 349/349/349 351/351/351 348/348/348
f 348/348/348 351/351/351 352/352/352
f 351/351/351 353/353/353 352/352/352
f 352/352/352 353/353/353 354/354/354
f 353/353/353 355/355/355 354/354/354
f 354/354/354 355/355/355 356/356/356
f 355/355/355 357/357/357 356/356/356
f 356/356/356 357/357/357 358/358/358
f 357/357/357 359/359/359 358/358/358
f 358/358/358 359/359/359 360/360/360
f 359/359/359 361/361/361 360/360/360
f 360/360/360 361/361/361 362/362/362
f 361/361/361 363/363/363 362/362/362
f 362/362/362 363/363/363 364/364/364
f 363/363/363 365/365/365 364/364/364
f 368/368/368 367/367/367 366/366/366
f 367/367/367 369/369/369 366/366/366
f 366/366/366 369/369/369 370/370/370
f 369/369/369 371/371/371 370/370/370
f 370/370/370 371/371/371 372/372/372
f 371/371/371 373/373/373 372/372/372
f 372/372/372 373/373/373 374/374/374
f 373/373/373 375/375/375 374/374/374
f 374/374/374 375/375/375 376/376/376
f 375/375/375 377/377/377 376/376/376
f 376/376/376 377/377/377 378/378/378
f 377/377/377 379/379/379 378/378/378
f 378/378/378 379/379/379 380/380/380
f 379/379/379 381/381/381 380/380/380
f 380/380/380 381/381/381 382/382/382
f 381/381/381 383/383/383 382/382/382
f 386/386/386 385/385/385 384/384/384
f 387/387/387 386/386/386 384/384/384
f 390/390/390 389/389/389 388/388/388
f 389/389/389 391/391/391 388/388/388
f 391/391/391 392/392/392 388/388/388
f 392/392/392 393/393/393 388/388/388
f 394/394/394 393/393/393 392/392/392
f 395/395/395 394/394/394 392/392/392
f 398/398/398 397/397/397 396/396/396
f 399/399/399 398/398/398 396/396/396
f 402/402/402 401/401/401 400/400/400
f 403/403/403 402/402/402 400/400/400
f 406/406/406 405/405/405 404/404/404
f 407/407/407 406/406/406 404/404/404
f 410/410/410 409/409/409 408/408/408
f 411/411/411 410/410/410 408/408/408
f 414/414/414 413/413/413 412/412/412
f 415/415/415 414/414/414 412/412/412
f 418/418/418 417/417/417 416/416/416
f 417/417/417 419/419/419 416/416/416
f 419/419/419 420/420/420 416/416/416
f 420/420/420 421/421/421 416/416/416
f 422/422/422 421/421/421 420/420/420
f 423/423/423 422/422/422 420/420/420
f 426/426/426 425/425/425 424/424/424
f 427/427/427 426/426/426 424/424/424
f 430/430/430 429/429/429 428/428/428
f 431/431/431 430/430/430 428/428/428
f 434/434/434 433/433/433 432/432/432
f 435/435/435 434/434/434 432/432/432
f 438/438/438 437/437/437 436/436/436
f 439/439/439 438/438/438 436/436/436
f 442/442/442 441/441/441 440/440/440
f 443/443/443 442/442/442 440/440/440
f 446/446/446 445/445/445 444/444/444
f 445/445/445 447/447/447 444/444/444
f 447/447/447 448/448/448 444/444/444
f 448/448/448 449/449/449 444/444/444
f 450/450/450 449/449/449 448/448/448
f 451/451/451 450/450/450 448/448/448
f 454/454/454 453/453/453 452/452/452
f 455/455/455 454/454/454 452/452/452
f 458/458/458 457/457/457 456/456/456
f 459/459/459 458/458/458 456/456/456
f 462/462/462 461/461/461 460/460/460
f 463/463/463 462/462/462 460/460/460
f 466/466/466 465/465/465 464/464/464
f 467/467/467 466/466/466 464/464/464
f 470/470/470 469/469/469 468/468/468
f 468/468/468 469/469/469 471/471/471
f 468/468/468 472/472/472 470/470/470
f 473/473/473 468/468/468 471/471/471
f 472/472/472 468/468/468 474/474/474
f 468/468/468 473/473/473 474/474/474
f 477/477/477 476/476/476 475/475/475
f 475/475/475 478/478/478 477/477/477
f 476/476/476 477/477/477 479/479/479
f 477/477/477 478/478/478 480/480/480
f 477/477/477 481/481/481 479/479/479
f 481/481/481 477/477/477 480/480/480
f 484/484/484 483/483/483 482/482/482
f 483/483/483 485/485/485 482/482/482
f 483/483/483 484/484/484 486/486/486
f 483/483/483 487/487/487 485/485/485
f 486/486/486 488/488/488 483/483/483
f 483/483/483 488/488/488 487/487/487
f 491/491/491 490/490/490 489/489/489
f 491/491/491 489/489/489 492/492/492
f 493/493/493 489/489/489 490/490/490
f 489/489/489 494/494/494 492/492/492
f 489/489/489 493/493/493 495/495/495
f 495/495/495 494/494/494 489/489/489
f 498/498/498 497/497/497 496/496/496
f 498/498/498 496/496/496 499/499/499
f 500/500/500 497/497/497 498/498/498
f 498/498/498 499/499/499 501/501/501
f 498/498/498 502/502/502 500/500/500
f 502/502/502 498/498/498 501/501/501
f 505/505/505 504/504/504 503/503/503
f 504/504/504 506/506/506 503/503/503
f 507/507/507 504/504/504 505/505/505
f 503/503/503 506/506/506 508/508/508
f 509/509/509 507/507/507 505/505/505
f 506/506/506 510/510/510 508/508/508
f 511/511/511 507/507/507 509/509/509
f 508/508/508 510/510/510 512/512/512
f 513/513/513 511/511/511 509/509/509
f 510/510/510 514/514/514 512/512/512
f 515/515/515 511/511/511 513/513/513
f 512/512/512 514/514/514 516/516/516
f 517/517/517 515/515/515 513/513/513
f 514/514/514 518/518/518 516/516/516
f 518/518/518 515/515/515 517/517/517
f 516/516/516 518/518/518 517/517/517
f 521/521/521 520/520/520 519/519/519
f 520/520/520 522/522/522 519/519/519
f 523/523/523 520/520/520 521/521/521
f 519/519/519 522/522/522 524/524/524
f 525/525/525 523/523/523 521/521/521
f 522/522/522 526/526/526 524/524/524
f 527/527/527 523/523/523 525/525/525
f 524/524/524 526/526/526 528/528/528
f 529/529/529 527/527/527 525/525/525
f 526/526/526 530/530/530 528/528/528
f 531/531/531 527/527/527 529/529/529
f 528/528/528 530/530/530 532/532/532
f 533/533/533 531/531/531 529/529/529
f 530/530/530 534/534/534 532/532/532
f 534/534/534 531/531/531 533/533/533
f 532/532/532 534/534/534 533/533/533
f 537/537/537 536/536/536 535/535/535
f 536/536/536 538/538/538 535/535/535
f 539/539/539 536/536/536 537/537/537
f 535/535/535 538/538/538 540/540/540
f 541/541/541 539/539/539 537/537/537
f 538/538/538 542/542/542 540/540/540
f 543/543/543 539/539/539 541/541/541
f 540/540/540 542/542/542 544/544/544
f 545/545/545 543/543/543 541/541/541
f 542/542/542 546/546/546 544/544/544
f 547/547/547 543/543/543 545/545/545
f 544/544/544 546/546/546 548/548/548
f 549/549/549 547/547/547 545/545/545
f 546/546/546 550/550/550 548/548/548
f 550/550/550 547/547/547 549/549/549
f 548/548/548 550/550/550 549/549/549
f 553/553/553 552/552/552 551/551/551
f 552/552/552 554/554/554 551/551/551
f 555/555/555 552/552/552 553/553/553
f 551/551/551 554/554/554 556/556/556
f 557/557/557 555/555/555 553/553/553
f 554/554/554 558/558/558 556/556/556
f 559/559/559 555/555/555 557/557/557
f 556/556/556 558/558/558 560/560/560
f 561/561/561 559/559/559 557/557/557
f 558/558/558 562/562/562 560/560/560
f 563/563/563 559/559/559 561/561/561
f 560/560/560 562/562/562 564/564/564
f 565/565/565 563/563/563 561/561/561
f 562/562/562 566/566/566 564/564/564
f 566/566/566 563/563/563 565/565/565
f 564/564/564 566/566/566 565/565/565
f 569/569/569 568/568/568 567/567/567
f 568/568/568 570/570/570 567/567/567
f 571/571/571 568/568/568 569/569/569
f 567/567/567 570/570/570 572/572/572
f 573/573/573 571/571/571 569/569/569
f 570/570/570 574/574/574 572/572/572
f 575/575/575 571/571/571 573/573/573
f 572/572/572 574/574/574 576/576/576
f 577/577/577 575/575/575 573/573/573
f 574/574/574 578/578/578 576/576/576
f 579/579/579 575/575/575 577/577/577
f 576/576/576 578/578/578 580/580/580
f 581/581/581 579/579/579 577/577/577
f 578/578/578 582/582/582 580/580/580
f 582/582/582 579/579/579 581/581/581
f 580/580/580 582/582/582 581/581/581
f 585/585/585 584/584/584 583/583/583
f 584/584/584 586/586/586 583/583/583
f 587/587/587 584/584/584 585/585/585
f 583/583/583 586/586/586 588/588/588
f 589/589/589 587/587/587 585/585/585
f 586/586/586 590/590/590 588/588/588
f 591/591/591 587/587/587 589/589/589
f 588/588/588 590/590/590 592/592/592
f 593/593/593 591/591/591 589/589/589
f 590/590/590 594/594/594 592/592/592
f 595/595/595 591/591/591 593/593/593
f 592/592/592 594/594/594 596/596/596
f 597/597/597 595/595/595 593/593/593
f 594/594/594 598/598/598 596/596/596
f 598/598/598 595/595/595 597/597/597
f 596/596/596 598/598/598 597/597/597
f 601/601/601 600/600/600 599/599/599
f 600/600/600 602/602/602 599/599/599
f 603/603/603 600/600/600 601/601/601
f 599/599/599 602/602/602 604/604/604
f 605/605/605 603/603/603 601/601/601
f 602/602/602 606/606/606 604/604/604
f 607/607/607 603/603/603 605/605/605
f 604/604/604 606/606/606 608/608/608
f 609/609/609 607/607/607 605/605/605
f 606/606/606 610/610/610 608/608/608
f 611/611/611 607/607/607 609/609/609
f 608/608/608 610/610/610 612/612/612
f 613/613/613 611/611/611 609/609/609
f 610/610/610 614/614/614 612/612/612
f 614/614/614 611/611/611 613/613/613
f 612/612/612 614/614/614 613/613/613
f 617/617/617 616/616/616 615/615/615
f 618/618/618 617/617/617 615/615/615
f 615/615/615 616/616/616 619/619/619
f 620/620/620 617/617/617 618/618/618
f 616/616/616 621/621/621 619/619/619
f 622/622/622 620/620/620 618/618/618
f 619/619/619 621/621/621 623/623/623
f 624/624/624 620/620/620 622/622/622
f 621/621/621 625/625/625 623/623/623
f 626/626/626 624/624/624 622/622/622
f 623/623/623 625/625/625 627/627/627
f 628/628/628 624/624/624 626/626/626
f 625/625/625 629/629/629 627/627/627
f 630/630/630 628/628/628 626/626/626
f 627/627/627 629/629/629 630/630/630
f 629/629/629 628/628/628 630/630/630
