g P_Vert_OneCap_Upsidedown
v -0.0576622933 0.499999851 -0.125908107
v 0.057662461 -0.50000006 -0.125908256
v 0.0576626286 0.49999994 -0.125908107
v -0.0576624908 -0.50000006 -0.125908256
v -0.125906825 0.499999851 -0.0576636307
v -0.125907019 -0.5 -0.0576638207
v 0.0576626286 0.49999994 -0.125908107
v 0.125907019 -0.5 -0.0576638207
v 0.125907168 0.49999994 -0.0576636307
v 0.057662461 -0.50000006 -0.125908256
v 0.125907168 0.49999994 -0.0576636307
v 0.125907019 -0.5 0.0576613024
v 0.125907183 0.49999994 0.0576614924
v 0.125907019 -0.5 -0.0576638207
v 0.057662487 -0.500000119 0.125905782
v 0.125907183 0.49999994 0.0576614924
v 0.125907019 -0.5 0.0576613024
v 0.057662677 0.49999994 0.125905871
v -0.0576624908 -0.500000119 0.125905782
v -0.0576622933 0.499999851 0.125905976
v -0.125907019 -0.5 0.0576613024
v -0.125906825 0.499999851 0.0576614924
v -0.125906825 0.499999851 0.0576614924
v -0.125907019 -0.5 -0.0576638207
v -0.125906825 0.499999851 -0.0576636307
v -0.125907019 -0.5 0.0576613024
v 0.0432755984 0.49999994 -0.0944937468
v -0.0431614146 -0.50000006 -0.094244875
v -0.0432752892 0.499999851 -0.0944937468
v 0.0431613326 -0.50000006 -0.094244875
v 0.0944928154 0.49999994 -0.0432765186
v 0.0942435786 -0.500000119 -0.0431627743
v -0.0432752892 0.499999851 -0.0944937468
v -0.0942436382 -0.49999994 -0.0431627743
v -0.09449251 0.49999994 -0.0432765186
v -0.0431614146 -0.50000006 -0.094244875
v -0.09449251 0.49999994 -0.0432765186
v -0.0942436382 -0.500000119 0.0431600548
v -0.09449251 0.49999994 0.0432743914
v -0.0942436382 -0.49999994 -0.0431627743
v -0.0431613922 -0.500000119 0.0942424014
v -0.09449251 0.49999994 0.0432743914
v -0.0942436382 -0.500000119 0.0431600548
v -0.0432752632 0.499999851 0.0944916159
v 0.043161381 -0.5 0.0942424014
v 0.0432756208 0.49999994 0.0944916159
v 0.0942435786 -0.5 0.0431600548
v 0.0944928452 0.49999994 0.0432743914
v 0.0944928452 0.49999994 0.0432743914
v 0.0942435786 -0.500000119 -0.0431627743
v 0.0944928154 0.49999994 -0.0432765186
v 0.0942435786 -0.5 0.0431600548
v -0.0892167464 -0.489414096 0.194806814
v 0.089217715 -0.451137751 0.194806814
v 0.0892176107 -0.489414096 0.194806814
v -0.0892167464 -0.451137751 0.194806814
v -0.194806814 -0.489414096 0.0892163664
v -0.194806814 -0.451137394 0.0892163664
v -0.194806814 -0.489414096 -0.0892177075
v -0.194806814 -0.451137394 0.0892163664
v -0.194806814 -0.489414096 0.0892163664
v -0.194806814 -0.451137751 -0.0892177075
v 0.194807589 -0.489414096 0.0892163664
v 0.194807589 -0.451138139 -0.0892177075
v 0.194807589 -0.489414096 -0.0892177075
v 0.194807589 -0.451137751 0.0892163664
v 0.0892176107 -0.489414096 0.194806814
v 0.194807589 -0.451137751 0.0892163664
v 0.194807589 -0.489414096 0.0892163664
v 0.089217715 -0.451137751 0.194806814
v 0.0892176107 -0.451137006 -0.194808155
v 0.194807589 -0.489414096 -0.0892177075
v 0.194807589 -0.451138139 -0.0892177075
v 0.0892176107 -0.489414096 -0.194808155
v -0.0892167464 -0.451137394 -0.194808155
v -0.0892167464 -0.489414096 -0.194808155
v -0.194806814 -0.451137751 -0.0892177075
v -0.194806814 -0.489414096 -0.0892177075
v 0.0829237178 -0.499999911 0.181063458
v -0.0892167464 -0.489414096 0.194806814
v 0.0892176107 -0.489414096 0.194806814
v -0.0829227418 -0.499999911 0.181063458
v -0.0829227418 -0.499999911 -0.181065589
v 0.0892176107 -0.489414096 -0.194808155
v -0.0892167464 -0.489414096 -0.194808155
v 0.0829237178 -0.499999911 -0.181065589
v -0.181063846 -0.499999911 0.0829221681
v -0.194806814 -0.489414096 -0.0892177075
v -0.194806814 -0.489414096 0.0892163664
v -0.181063846 -0.499999911 -0.0829242989
v 0.181064814 -0.499999911 -0.0829242989
v 0.194807589 -0.489414096 0.0892163664
v 0.194807589 -0.489414096 -0.0892177075
v 0.181064814 -0.499999911 0.0829221681
v 0.181064814 -0.499999911 0.0829221681
v 0.0892176107 -0.489414096 0.194806814
v 0.194807589 -0.489414096 0.0892163664
v 0.0829237178 -0.499999911 0.181063458
v -0.0829227418 -0.499999911 0.181063458
v -0.194806814 -0.489414096 0.0892163664
v -0.0892167464 -0.489414096 0.194806814
v -0.181063846 -0.499999911 0.0829221681
v 0.0829237178 -0.499999911 -0.181065589
v 0.194807589 -0.489414096 -0.0892177075
v 0.0892176107 -0.489414096 -0.194808155
v 0.181064814 -0.499999911 -0.0829242989
v -0.181063846 -0.499999911 -0.0829242989
v -0.0892167464 -0.489414096 -0.194808155
v -0.194806814 -0.489414096 -0.0892177075
v -0.0829227418 -0.499999911 -0.181065589
v 0.0576626621 -0.427205116 0.125906363
v -0.0639355332 -0.451137394 0.141052723
v -0.0576616935 -0.427205503 0.125906363
v 0.0639364049 -0.451137006 0.141051963
v 0.125907525 -0.427205116 0.0576616861
v 0.141053885 -0.451137006 0.0639357343
v -0.0576616935 -0.427205503 0.125906363
v -0.14105311 -0.451137394 0.0639357343
v -0.125906751 -0.427205503 0.0576616861
v -0.0639355332 -0.451137394 0.141052723
v -0.125906751 -0.427205503 0.0576616861
v -0.141052917 -0.451137394 -0.0639370829
v -0.125906557 -0.427205503 -0.0576630495
v -0.14105311 -0.451137394 0.0639357343
v -0.0639355332 -0.451137394 -0.141054079
v -0.125906557 -0.427205503 -0.0576630495
v -0.141052917 -0.451137394 -0.0639370829
v -0.0576618835 -0.427205503 -0.125907719
v 0.0639364049 -0.451137006 -0.141054079
v 0.0576626621 -0.427205116 -0.125908494
v 0.141053692 -0.451137006 -0.0639370829
v 0.125907421 -0.427205116 -0.0576630495
v 0.125907421 -0.427205116 -0.0576630495
v 0.141053885 -0.451137006 0.0639357343
v 0.125907525 -0.427205116 0.0576616861
v 0.141053692 -0.451137006 -0.0639370829
v 0.0139015745 -0.451544017 -0.186886936
v 0.0139015745 -0.451544017 -0.142559409
v 0.0278031491 -0.451544017 -0.164723188
v -0.0278036296 -0.451544017 -0.164723188
v -0.0139019601 -0.451544017 -0.186886936
v -0.0139019601 -0.451544017 -0.142559409
v -0.0278036296 -0.451544017 -0.164723188
v -0.0126754856 -0.43469584 -0.144514337
v -0.0139019601 -0.451544017 -0.142559409
v -0.0253508762 -0.43469584 -0.164723188
v -0.0139019601 -0.451544017 -0.142559409
v 0.0126752919 -0.43469584 -0.144514337
v 0.0139015745 -0.451544017 -0.142559409
v -0.0126754856 -0.43469584 -0.144514337
v 0.0139015745 -0.451544017 -0.142559409
v 0.0253506806 -0.43469584 -0.164723188
v 0.0278031491 -0.451544017 -0.164723188
v 0.0126752919 -0.43469584 -0.144514337
v 0.0278031491 -0.451544017 -0.164723188
v 0.0126752919 -0.43469584 -0.184931248
v 0.0139015745 -0.451544017 -0.186886936
v 0.0253506806 -0.43469584 -0.164723188
v 0.0139015745 -0.451544017 -0.186886936
v -0.0126754856 -0.43469584 -0.184931248
v -0.0139019601 -0.451544017 -0.186886936
v 0.0126752919 -0.43469584 -0.184931248
v -0.0139019601 -0.451544017 -0.186886936
v -0.0253508762 -0.43469584 -0.164723188
v -0.0278036296 -0.451544017 -0.164723188
v -0.0126754856 -0.43469584 -0.184931248
v -0.0253508762 -0.43469584 -0.164723188
v 0.0126752919 -0.43469584 -0.144514337
v -0.0126754856 -0.43469584 -0.144514337
v 0.0126752919 -0.43469584 -0.184931248
v -0.0126754856 -0.43469584 -0.184931248
v 0.0253506806 -0.43469584 -0.164723188
v 0.0139015745 -0.451544017 0.141753465
v 0.0139015745 -0.451544017 0.186080962
v 0.0278031491 -0.451544017 0.163917229
v -0.0278036296 -0.451544017 0.163917229
v -0.0139019601 -0.451544017 0.141753465
v -0.0139019601 -0.451544017 0.186080962
v -0.0278036296 -0.451544017 0.163917229
v -0.0126754856 -0.43469584 0.184126049
v -0.0139019601 -0.451544017 0.186080962
v -0.0253508762 -0.43469584 0.163917229
v -0.0139019601 -0.451544017 0.186080962
v 0.0126752919 -0.43469584 0.184126049
v 0.0139015745 -0.451544017 0.186080962
v -0.0126754856 -0.43469584 0.184126049
v 0.0139015745 -0.451544017 0.186080962
v 0.0253506806 -0.43469584 0.163917229
v 0.0278031491 -0.451544017 0.163917229
v 0.0126752919 -0.43469584 0.184126049
v 0.0278031491 -0.451544017 0.163917229
v 0.0126752919 -0.43469584 0.143708378
v 0.0139015745 -0.451544017 0.141753465
v 0.0253506806 -0.43469584 0.163917229
v 0.0139015745 -0.451544017 0.141753465
v -0.0126754856 -0.43469584 0.143708378
v -0.0139019601 -0.451544017 0.141753465
v 0.0126752919 -0.43469584 0.143708378
v -0.0139019601 -0.451544017 0.141753465
v -0.0253508762 -0.43469584 0.163917229
v -0.0278036296 -0.451544017 0.163917229
v -0.0126754856 -0.43469584 0.143708378
v -0.0253508762 -0.43469584 0.163917229
v 0.0126752919 -0.43469584 0.184126049
v -0.0126754856 -0.43469584 0.184126049
v 0.0126752919 -0.43469584 0.143708378
v -0.0126754856 -0.43469584 0.143708378
v 0.0253506806 -0.43469584 0.163917229
v -0.186484262 -0.451544017 -0.014304447
v -0.142156526 -0.451544017 -0.014304447
v -0.16432029 -0.451544017 -0.0282059275
v -0.16432029 -0.451544017 0.0274007414
v -0.186484262 -0.451544017 0.0134984963
v -0.142156526 -0.451544017 0.0134984963
v -0.16432029 -0.451544017 0.0274007414
v -0.144111648 -0.43469584 0.0122722238
v -0.142156526 -0.451544017 0.0134984963
v -0.16432029 -0.43469584 0.024948176
v -0.142156526 -0.451544017 0.0134984963
v -0.144111648 -0.43469584 -0.0130781746
v -0.142156526 -0.451544017 -0.014304447
v -0.144111648 -0.43469584 0.0122722238
v -0.142156526 -0.451544017 -0.014304447
v -0.16432029 -0.43469584 -0.0257533733
v -0.16432029 -0.451544017 -0.0282059275
v -0.144111648 -0.43469584 -0.0130781746
v -0.16432029 -0.451544017 -0.0282059275
v -0.184528962 -0.43469584 -0.0130781746
v -0.186484262 -0.451544017 -0.014304447
v -0.16432029 -0.43469584 -0.0257533733
v -0.186484262 -0.451544017 -0.014304447
v -0.184528962 -0.43469584 0.0122722238
v -0.186484262 -0.451544017 0.0134984963
v -0.184528962 -0.43469584 -0.0130781746
v -0.186484262 -0.451544017 0.0134984963
v -0.16432029 -0.43469584 0.024948176
v -0.16432029 -0.451544017 0.0274007414
v -0.184528962 -0.43469584 0.0122722238
v -0.16432029 -0.43469584 0.024948176
v -0.144111648 -0.43469584 -0.0130781746
v -0.144111648 -0.43469584 0.0122722238
v -0.184528962 -0.43469584 -0.0130781746
v -0.184528962 -0.43469584 0.0122722238
v -0.16432029 -0.43469584 -0.0257533733
v 0.142156348 -0.451544017 -0.014304447
v 0.186484069 -0.451544017 -0.014304447
v 0.164320096 -0.451544017 -0.0282059275
v 0.164320007 -0.451544017 0.0274007414
v 0.142156348 -0.451544017 0.0134984963
v 0.186484069 -0.451544017 0.0134984963
v 0.164320007 -0.451544017 0.0274007414
v 0.184529036 -0.43469584 0.0122722238
v 0.186484069 -0.451544017 0.0134984963
v 0.164320096 -0.43469584 0.024948176
v 0.186484069 -0.451544017 0.0134984963
v 0.184529036 -0.43469584 -0.0130781746
v 0.186484069 -0.451544017 -0.014304447
v 0.184529036 -0.43469584 0.0122722238
v 0.186484069 -0.451544017 -0.014304447
v 0.164320096 -0.43469584 -0.0257533733
v 0.164320096 -0.451544017 -0.0282059275
v 0.184529036 -0.43469584 -0.0130781746
v 0.164320096 -0.451544017 -0.0282059275
v 0.144111454 -0.43469584 -0.0130781746
v 0.142156348 -0.451544017 -0.014304447
v 0.164320096 -0.43469584 -0.0257533733
v 0.142156348 -0.451544017 -0.014304447
v 0.144111454 -0.43469584 0.0122722238
v 0.142156348 -0.451544017 0.0134984963
v 0.144111454 -0.43469584 -0.0130781746
v 0.142156348 -0.451544017 0.0134984963
v 0.164320096 -0.43469584 0.024948176
v 0.164320007 -0.451544017 0.0274007414
v 0.144111454 -0.43469584 0.0122722238
v 0.164320096 -0.43469584 0.024948176
v 0.184529036 -0.43469584 -0.0130781746
v 0.184529036 -0.43469584 0.0122722238
v 0.144111454 -0.43469584 -0.0130781746
v 0.144111454 -0.43469584 0.0122722238
v 0.164320096 -0.43469584 -0.0257533733
v 0.141694069 -0.451544017 -0.122437388
v 0.110349745 -0.451544017 -0.0910927951
v 0.135852084 -0.451544017 -0.0969350711
v 0.0965320021 -0.451544017 -0.136255145
v 0.122034021 -0.451544017 -0.142096654
v 0.0906897113 -0.451544017 -0.110752828
v 0.0965320021 -0.451544017 -0.136255145
v 0.09293928 -0.43469584 -0.111267529
v 0.0906897113 -0.451544017 -0.110752828
v 0.0982663929 -0.43469584 -0.134520382
v 0.0906897113 -0.451544017 -0.110752828
v 0.110865228 -0.43469584 -0.093342267
v 0.110349745 -0.451544017 -0.0910927951
v 0.09293928 -0.43469584 -0.111267529
v 0.110349745 -0.451544017 -0.0910927951
v 0.134117693 -0.43469584 -0.098669067
v 0.135852084 -0.451544017 -0.0969350711
v 0.110865228 -0.43469584 -0.093342267
v 0.135852084 -0.451544017 -0.0969350711
v 0.139444485 -0.43469584 -0.121921137
v 0.141694069 -0.451544017 -0.122437388
v 0.134117693 -0.43469584 -0.098669067
v 0.141694069 -0.451544017 -0.122437388
v 0.121518835 -0.43469584 -0.139847174
v 0.122034021 -0.451544017 -0.142096654
v 0.139444485 -0.43469584 -0.121921137
v 0.122034021 -0.451544017 -0.142096654
v 0.0982663929 -0.43469584 -0.134520382
v 0.0965320021 -0.451544017 -0.136255145
v 0.121518835 -0.43469584 -0.139847174
v 0.0982663929 -0.43469584 -0.134520382
v 0.110865228 -0.43469584 -0.093342267
v 0.09293928 -0.43469584 -0.111267529
v 0.139444485 -0.43469584 -0.121921137
v 0.121518835 -0.43469584 -0.139847174
v 0.134117693 -0.43469584 -0.098669067
v -0.090689905 -0.451544017 0.109946877
v -0.122034319 -0.451544017 0.141291469
v -0.0965320021 -0.451544017 0.135449201
v -0.135852084 -0.451544017 0.0961291119
v -0.110349946 -0.451544017 0.0902868286
v -0.141694352 -0.451544017 0.121631429
v -0.135852084 -0.451544017 0.0961291119
v -0.139444679 -0.43469584 0.121115945
v -0.141694352 -0.451544017 0.121631429
v -0.134117693 -0.43469584 0.0978631154
v -0.141694352 -0.451544017 0.121631429
v -0.121518835 -0.43469584 0.139041215
v -0.122034319 -0.451544017 0.141291469
v -0.139444679 -0.43469584 0.121115945
v -0.122034319 -0.451544017 0.141291469
v -0.0982661918 -0.43469584 0.133714408
v -0.0965320021 -0.451544017 0.135449201
v -0.121518835 -0.43469584 0.139041215
v -0.0965320021 -0.451544017 0.135449201
v -0.0929393843 -0.43469584 0.110462338
v -0.090689905 -0.451544017 0.109946877
v -0.0982661918 -0.43469584 0.133714408
v -0.090689905 -0.451544017 0.109946877
v -0.110865228 -0.43469584 0.0925363153
v -0.110349946 -0.451544017 0.0902868286
v -0.0929393843 -0.43469584 0.110462338
v -0.110349946 -0.451544017 0.0902868286
v -0.134117693 -0.43469584 0.0978631154
v -0.135852084 -0.451544017 0.0961291119
v -0.110865228 -0.43469584 0.0925363153
v -0.134117693 -0.43469584 0.0978631154
v -0.121518835 -0.43469584 0.139041215
v -0.139444679 -0.43469584 0.121115945
v -0.0929393843 -0.43469584 0.110462338
v -0.110865228 -0.43469584 0.0925363153
v -0.0982661918 -0.43469584 0.133714408
v -0.122034118 -0.451544017 -0.142096654
v -0.090689905 -0.451544017 -0.110752828
v -0.0965320021 -0.451544017 -0.136255145
v -0.135852084 -0.451544017 -0.0969350711
v -0.141694158 -0.451544017 -0.122437388
v -0.110349745 -0.451544017 -0.0910927951
v -0.135852084 -0.451544017 -0.0969350711
v -0.110865034 -0.43469584 -0.093342267
v -0.110349745 -0.451544017 -0.0910927951
v -0.134117693 -0.43469584 -0.098669067
v -0.110349745 -0.451544017 -0.0910927951
v -0.0929393843 -0.43469584 -0.111267529
v -0.090689905 -0.451544017 -0.110752828
v -0.110865034 -0.43469584 -0.093342267
v -0.090689905 -0.451544017 -0.110752828
v -0.0982661918 -0.43469584 -0.134520382
v -0.0965320021 -0.451544017 -0.136255145
v -0.0929393843 -0.43469584 -0.111267529
v -0.0965320021 -0.451544017 -0.136255145
v -0.121518835 -0.43469584 -0.139847174
v -0.122034118 -0.451544017 -0.142096654
v -0.0982661918 -0.43469584 -0.134520382
v -0.122034118 -0.451544017 -0.142096654
v -0.139444485 -0.43469584 -0.121921137
v -0.141694158 -0.451544017 -0.122437388
v -0.121518835 -0.43469584 -0.139847174
v -0.141694158 -0.451544017 -0.122437388
v -0.134117693 -0.43469584 -0.098669067
v -0.135852084 -0.451544017 -0.0969350711
v -0.139444485 -0.43469584 -0.121921137
v -0.134117693 -0.43469584 -0.098669067
v -0.0929393843 -0.43469584 -0.111267529
v -0.110865034 -0.43469584 -0.093342267
v -0.121518835 -0.43469584 -0.139847174
v -0.139444485 -0.43469584 -0.121921137
v -0.0982661918 -0.43469584 -0.134520382
v 0.110349558 -0.451544017 0.0902868286
v 0.141694158 -0.451544017 0.121631429
v 0.135851875 -0.451544017 0.0961291119
v 0.0965318009 -0.451544017 0.135449201
v 0.0906898081 -0.451544017 0.109946877
v 0.122034118 -0.451544017 0.141291469
v 0.0965318009 -0.451544017 0.135449201
v 0.121518649 -0.43469584 0.139041215
v 0.122034118 -0.451544017 0.141291469
v 0.0982661918 -0.43469584 0.133714408
v 0.122034118 -0.451544017 0.141291469
v 0.13944459 -0.43469584 0.121115945
v 0.141694158 -0.451544017 0.121631429
v 0.121518649 -0.43469584 0.139041215
v 0.141694158 -0.451544017 0.121631429
v 0.134117782 -0.43469584 0.0978631154
v 0.135851875 -0.451544017 0.0961291119
v 0.13944459 -0.43469584 0.121115945
v 0.135851875 -0.451544017 0.0961291119
v 0.110865034 -0.43469584 0.0925363153
v 0.110349558 -0.451544017 0.0902868286
v 0.134117782 -0.43469584 0.0978631154
v 0.110349558 -0.451544017 0.0902868286
v 0.0929390863 -0.43469584 0.110462338
v 0.0906898081 -0.451544017 0.109946877
v 0.110865034 -0.43469584 0.0925363153
v 0.0906898081 -0.451544017 0.109946877
v 0.0982661918 -0.43469584 0.133714408
v 0.0965318009 -0.451544017 0.135449201
v 0.0929390863 -0.43469584 0.110462338
v 0.0982661918 -0.43469584 0.133714408
v 0.13944459 -0.43469584 0.121115945
v 0.121518649 -0.43469584 0.139041215
v 0.110865034 -0.43469584 0.0925363153
v 0.0929390863 -0.43469584 0.110462338
v 0.134117782 -0.43469584 0.0978631154
v 0.141053885 -0.451137006 0.0639357343
v 0.194807589 -0.451138139 -0.0892177075
v 0.194807589 -0.451137751 0.0892163664
v 0.141053692 -0.451137006 -0.0639370829
v 0.0639364049 -0.451137006 0.141051963
v 0.0892176107 -0.451137006 -0.194808155
v 0.089217715 -0.451137751 0.194806814
v 0.0639364049 -0.451137006 -0.141054079
v -0.0639355332 -0.451137394 0.141052723
v -0.0892167464 -0.451137394 -0.194808155
v -0.0892167464 -0.451137751 0.194806814
v -0.0639355332 -0.451137394 -0.141054079
v -0.14105311 -0.451137394 0.0639357343
v -0.194806814 -0.451137751 -0.0892177075
v -0.194806814 -0.451137394 0.0892163664
v -0.141052917 -0.451137394 -0.0639370829
v -0.09449251 0.49999994 0.0432743914
v -0.125906825 0.499999851 -0.0576636307
v -0.09449251 0.49999994 -0.0432765186
v -0.125906825 0.499999851 0.0576614924
v -0.0576622933 0.499999851 -0.125908107
v -0.0432752632 0.499999851 0.0944916159
v -0.0432752892 0.499999851 -0.0944937468
v -0.0576622933 0.499999851 0.125905976
v 0.0576626286 0.49999994 -0.125908107
v 0.0432756208 0.49999994 0.0944916159
v 0.0432755984 0.49999994 -0.0944937468
v 0.057662677 0.49999994 0.125905871
v 0.125907168 0.49999994 -0.0576636307
v 0.0944928452 0.49999994 0.0432743914
v 0.0944928154 0.49999994 -0.0432765186
v 0.125907183 0.49999994 0.0576614924
v 0.125907525 -0.499999493 0.0576616861
v 0.181064814 -0.499999911 -0.0829242989
v 0.125907421 -0.499999493 -0.0576630495
v 0.181064814 -0.499999911 0.0829221681
v 0.0829237178 -0.499999911 -0.181065589
v 0.0576626621 -0.499999493 0.125906363
v 0.0576626621 -0.499999493 -0.125908494
v 0.0829237178 -0.499999911 0.181063458
v -0.0829227418 -0.499999911 -0.181065589
v -0.0576616935 -0.499999911 0.125906363
v -0.0576616935 -0.499999911 -0.125907719
v -0.0829227418 -0.499999911 0.181063458
v -0.181063846 -0.499999911 -0.0829242989
v -0.125906751 -0.499999911 0.0576616861
v -0.125906557 -0.499999911 -0.0576630495
v -0.181063846 -0.499999911 0.0829221681
v 0.0942435786 -0.5 0.0431600548
v 0.125907019 -0.5 -0.0576638207
v 0.0942435786 -0.500000119 -0.0431627743
v 0.125907019 -0.5 0.0576613024
v 0.057662461 -0.50000006 -0.125908256
v 0.043161381 -0.5 0.0942424014
v 0.0431613326 -0.50000006 -0.094244875
v 0.057662487 -0.500000119 0.125905782
v -0.0576624908 -0.50000006 -0.125908256
v -0.0431613922 -0.500000119 0.0942424014
v -0.0431614146 -0.50000006 -0.094244875
v -0.0576624908 -0.500000119 0.125905782
v -0.125907019 -0.5 -0.0576638207
v -0.0942436382 -0.500000119 0.0431600548
v -0.0942436382 -0.49999994 -0.0431627743
v -0.125907019 -0.5 0.0576613024
vt 0.0207588784 0.641867995
vt 0.00336793717 0.487370014
vt 0.00336793717 0.641867995
vt 0.0197022855 0.487370014
vt 0.0363097563 0.641867995
vt 0.0363097563 0.487370014
vt 0.1358089 0.641867995
vt 0.12039309 0.487370014
vt 0.12039309 0.641867995
vt 0.1358089 0.487370014
vt 0.12039309 0.641867995
vt 0.102861315 0.487370014
vt 0.102861315 0.641867995
vt 0.12039309 0.487370014
vt 0.0871013924 0.487370014
vt 0.102861315 0.641867995
vt 0.102861315 0.487370014
vt 0.0871013924 0.641867995
vt 0.068879731 0.487370014
vt 0.0694693327 0.641867995
vt 0.0536552109 0.487370014
vt 0.0536552109 0.641867995
vt 0.0536552109 0.641867995
vt 0.0363097563 0.487370014
vt 0.0363097563 0.641867995
vt 0.0536552109 0.487370014
vt 0.158392787 0.761722982
vt 0.145226315 0.608677387
vt 0.145146862 0.761717439
vt 0.158452913 0.608679473
vt 0.169483706 0.761725008
vt 0.169553772 0.608619392
vt 0.242130697 0.761724532
vt 0.231066033 0.608744204
vt 0.231107205 0.76172477
vt 0.242078424 0.608727396
vt 0.231107205 0.76172477
vt 0.217927933 0.608729839
vt 0.217935249 0.76172477
vt 0.231066033 0.608744204
vt 0.206972018 0.608657897
vt 0.217935249 0.76172477
vt 0.217927933 0.608729839
vt 0.206910059 0.76172477
vt 0.193816543 0.608646393
vt 0.193739012 0.76172477
vt 0.182767555 0.608680606
vt 0.182720631 0.761725008
vt 0.182720631 0.761725008
vt 0.169553772 0.608619392
vt 0.169483706 0.761725008
vt 0.182767555 0.608680606
vt 0.346473336 0.482550591
vt 0.372475892 0.488100827
vt 0.372288167 0.482550591
vt 0.346638829 0.488100827
vt 0.325143903 0.482550591
vt 0.325227559 0.488100827
vt 0.299585819 0.482550591
vt 0.325227559 0.488100827
vt 0.325143903 0.482550591
vt 0.299602002 0.488100827
vt 0.205883875 0.482550591
vt 0.231248841 0.488100827
vt 0.231401503 0.482550591
vt 0.205239534 0.488100827
vt 0.184401795 0.482550472
vt 0.205239534 0.488100827
vt 0.205883875 0.482550591
vt 0.183289275 0.488100708
vt 0.252652019 0.488100827
vt 0.231401503 0.482550591
vt 0.231248841 0.488100827
vt 0.25271371 0.482550591
vt 0.278267413 0.488100827
vt 0.278268963 0.482550591
vt 0.299602002 0.488100827
vt 0.299585819 0.482550591
vt 0.371163398 0.480063528
vt 0.346473336 0.482550591
vt 0.372288167 0.482550591
vt 0.346412987 0.480063528
vt 0.27819863 0.480063528
vt 0.25271371 0.482550591
vt 0.278268963 0.482550591
vt 0.252823502 0.480063528
vt 0.325027883 0.480063528
vt 0.299585819 0.482550591
vt 0.325143903 0.482550591
vt 0.299649864 0.480063528
vt 0.23142685 0.480063528
vt 0.205883875 0.482550591
vt 0.231401503 0.482550591
vt 0.206311539 0.480063528
vt 0.206311539 0.480063528
vt 0.184401795 0.482550472
vt 0.205883875 0.482550591
vt 0.185699925 0.480063409
vt 0.346412987 0.480063528
vt 0.325143903 0.482550591
vt 0.346473336 0.482550591
vt 0.325027883 0.480063528
vt 0.252823502 0.480063528
vt 0.231401503 0.482550591
vt 0.25271371 0.482550591
vt 0.23142685 0.480063528
vt 0.299649864 0.480063528
vt 0.278268963 0.482550591
vt 0.299585819 0.482550591
vt 0.27819863 0.480063528
vt 0.0209700465 0.482737243
vt 0.00250952179 0.478549957
vt 0.00343697751 0.482737243
vt 0.0209700465 0.478549957
vt 0.0362197645 0.482737243
vt 0.0362197645 0.478549957
vt 0.135682195 0.482737005
vt 0.120930485 0.478549689
vt 0.120930485 0.482737124
vt 0.136609912 0.478549689
vt 0.120930485 0.482737124
vt 0.10289944 0.478549957
vt 0.10289944 0.482737243
vt 0.120930485 0.478549689
vt 0.0876261964 0.478549957
vt 0.10289944 0.482737243
vt 0.10289944 0.478549957
vt 0.0876261964 0.482737362
vt 0.0695598647 0.478550076
vt 0.0695598647 0.482737362
vt 0.0542745925 0.478550076
vt 0.0542745925 0.482737362
vt 0.0542745925 0.482737362
vt 0.0362197645 0.478549957
vt 0.0362197645 0.482737243
vt 0.0542745925 0.478550076
vt 0.228291914 0.853356659
vt 0.228291914 0.842796028
vt 0.224979937 0.848076344
vt 0.238227874 0.848076344
vt 0.234915882 0.853356659
vt 0.234915882 0.842796028
vt 0.228380948 0.839625359
vt 0.220436648 0.84356904
vt 0.220798448 0.838612676
vt 0.227346838 0.844494462
vt 0.220798448 0.838612676
vt 0.213027015 0.84356904
vt 0.21266523 0.838612676
vt 0.220436648 0.84356904
vt 0.21266523 0.838612676
vt 0.206116304 0.844493926
vt 0.205082715 0.839624822
vt 0.213027015 0.84356904
vt 0.205082193 0.839600742
vt 0.213027015 0.843544424
vt 0.212664708 0.838588357
vt 0.206116304 0.844469845
vt 0.212664708 0.838588357
vt 0.220436648 0.843544424
vt 0.220798448 0.838588357
vt 0.213027015 0.843544424
vt 0.220798448 0.838588357
vt 0.227346838 0.844469249
vt 0.228380948 0.839600503
vt 0.220436648 0.843544424
vt 0.226739183 0.851768434
vt 0.212066382 0.859566033
vt 0.221848607 0.859566033
vt 0.212066382 0.843970597
vt 0.221848607 0.843970597
vt 0.207175806 0.851768434
vt 0.228291914 0.853356659
vt 0.228291914 0.842796028
vt 0.224979937 0.848076344
vt 0.238227874 0.848076344
vt 0.234915882 0.853356659
vt 0.234915882 0.842796028
vt 0.228380948 0.839625359
vt 0.220436648 0.84356904
vt 0.220798448 0.838612676
vt 0.227346838 0.844494462
vt 0.220798448 0.838612676
vt 0.213027015 0.84356904
vt 0.21266523 0.838612676
vt 0.220436648 0.84356904
vt 0.21266523 0.838612676
vt 0.206116304 0.844493926
vt 0.205082715 0.839624822
vt 0.213027015 0.84356904
vt 0.205082193 0.839600742
vt 0.213027015 0.843544424
vt 0.212664708 0.838588357
vt 0.206116304 0.844469845
vt 0.212664708 0.838588357
vt 0.220436648 0.843544424
vt 0.220798448 0.838588357
vt 0.213027015 0.843544424
vt 0.220798448 0.838588357
vt 0.227346838 0.844469249
vt 0.228380948 0.839600503
vt 0.220436648 0.843544424
vt 0.226739183 0.851768434
vt 0.212066382 0.859566033
vt 0.221848607 0.859566033
vt 0.212066382 0.843970597
vt 0.221848607 0.843970597
vt 0.207175806 0.851768434
vt 0.228291914 0.853356659
vt 0.228291914 0.842796028
vt 0.224979937 0.848076344
vt 0.238227874 0.848076344
vt 0.234915882 0.853356659
vt 0.234915882 0.842796028
vt 0.228380948 0.839625359
vt 0.220436648 0.84356904
vt 0.220798448 0.838612676
vt 0.227346838 0.844494462
vt 0.220798448 0.838612676
vt 0.213027015 0.84356904
vt 0.21266523 0.838612676
vt 0.220436648 0.84356904
vt 0.21266523 0.838612676
vt 0.206116304 0.844493926
vt 0.205082715 0.839624822
vt 0.213027015 0.84356904
vt 0.205082193 0.839600742
vt 0.213027015 0.843544424
vt 0.212664708 0.838588357
vt 0.206116304 0.844469845
vt 0.212664708 0.838588357
vt 0.220436648 0.843544424
vt 0.220798448 0.838588357
vt 0.213027015 0.843544424
vt 0.220798448 0.838588357
vt 0.227346838 0.844469249
vt 0.228380948 0.839600503
vt 0.220436648 0.843544424
vt 0.226739183 0.851768434
vt 0.212066382 0.859566033
vt 0.221848607 0.859566033
vt 0.212066382 0.843970597
vt 0.221848607 0.843970597
vt 0.207175806 0.851768434
vt 0.228291914 0.853356659
vt 0.228291914 0.842796028
vt 0.224979937 0.848076344
vt 0.238227874 0.848076344
vt 0.234915882 0.853356659
vt 0.234915882 0.842796028
vt 0.228380948 0.839625359
vt 0.220436648 0.84356904
vt 0.220798448 0.838612676
vt 0.227346838 0.844494462
vt 0.220798448 0.838612676
vt 0.213027015 0.84356904
vt 0.21266523 0.838612676
vt 0.220436648 0.84356904
vt 0.21266523 0.838612676
vt 0.206116304 0.844493926
vt 0.205082715 0.839624822
vt 0.213027015 0.84356904
vt 0.205082193 0.839600742
vt 0.213027015 0.843544424
vt 0.212664708 0.838588357
vt 0.206116304 0.844469845
vt 0.212664708 0.838588357
vt 0.220436648 0.843544424
vt 0.220798448 0.838588357
vt 0.213027015 0.843544424
vt 0.220798448 0.838588357
vt 0.227346838 0.844469249
vt 0.228380948 0.839600503
vt 0.220436648 0.843544424
vt 0.226739183 0.851768434
vt 0.212066382 0.859566033
vt 0.221848607 0.859566033
vt 0.212066382 0.843970597
vt 0.221848607 0.843970597
vt 0.207175806 0.851768434
vt 0.228291914 0.853356659
vt 0.228291914 0.842796028
vt 0.224979937 0.848076344
vt 0.238227874 0.848076344
vt 0.234915882 0.853356659
vt 0.234915882 0.842796028
vt 0.228380948 0.839625359
vt 0.220436648 0.84356904
vt 0.220798448 0.838612676
vt 0.227346838 0.844494462
vt 0.220798448 0.838612676
vt 0.213027015 0.84356904
vt 0.21266523 0.838612676
vt 0.220436648 0.84356904
vt 0.21266523 0.838612676
vt 0.206116304 0.844493926
vt 0.205082715 0.839624822
vt 0.213027015 0.84356904
vt 0.205082193 0.839600742
vt 0.213027015 0.843544424
vt 0.212664708 0.838588357
vt 0.206116304 0.844469845
vt 0.212664708 0.838588357
vt 0.220436648 0.843544424
vt 0.220798448 0.838588357
vt 0.213027015 0.843544424
vt 0.220798448 0.838588357
vt 0.227346838 0.844469249
vt 0.228380948 0.839600503
vt 0.220436648 0.843544424
vt 0.226739183 0.851768434
vt 0.212066382 0.859566033
vt 0.221848607 0.859566033
vt 0.212066382 0.843970597
vt 0.221848607 0.843970597
vt 0.207175806 0.851768434
vt 0.228291914 0.853356659
vt 0.228291914 0.842796028
vt 0.224979937 0.848076344
vt 0.238227874 0.848076344
vt 0.234915882 0.853356659
vt 0.234915882 0.842796028
vt 0.228380948 0.839625359
vt 0.220436648 0.84356904
vt 0.220798448 0.838612676
vt 0.227346838 0.844494462
vt 0.220798448 0.838612676
vt 0.213027015 0.84356904
vt 0.21266523 0.838612676
vt 0.220436648 0.84356904
vt 0.21266523 0.838612676
vt 0.206116304 0.844493926
vt 0.205082715 0.839624822
vt 0.213027015 0.84356904
vt 0.205082193 0.839600742
vt 0.213027015 0.843544424
vt 0.212664708 0.838588357
vt 0.206116304 0.844469845
vt 0.212664708 0.838588357
vt 0.220436648 0.843544424
vt 0.220798448 0.838588357
vt 0.213027015 0.843544424
vt 0.220798448 0.838588357
vt 0.227346838 0.844469249
vt 0.228380948 0.839600503
vt 0.220436648 0.843544424
vt 0.226739183 0.851768434
vt 0.212066382 0.859566033
vt 0.221848607 0.859566033
vt 0.212066382 0.843970597
vt 0.221848607 0.843970597
vt 0.207175806 0.851768434
vt 0.228291914 0.853356659
vt 0.228291914 0.842796028
vt 0.224979937 0.848076344
vt 0.238227874 0.848076344
vt 0.234915882 0.853356659
vt 0.234915882 0.842796028
vt 0.228380948 0.839625359
vt 0.220436648 0.84356904
vt 0.220798448 0.838612676
vt 0.227346838 0.844494462
vt 0.220798448 0.838612676
vt 0.213027015 0.84356904
vt 0.21266523 0.838612676
vt 0.220436648 0.84356904
vt 0.21266523 0.838612676
vt 0.206116304 0.844493926
vt 0.205082715 0.839624822
vt 0.213027015 0.84356904
vt 0.205082193 0.839600742
vt 0.213027015 0.843544424
vt 0.212664708 0.838588357
vt 0.206116304 0.844469845
vt 0.212664708 0.838588357
vt 0.220436648 0.843544424
vt 0.220798448 0.838588357
vt 0.213027015 0.843544424
vt 0.220798448 0.838588357
vt 0.227346838 0.844469249
vt 0.228380948 0.839600503
vt 0.220436648 0.843544424
vt 0.226739183 0.851768434
vt 0.212066382 0.859566033
vt 0.221848607 0.859566033
vt 0.212066382 0.843970597
vt 0.221848607 0.843970597
vt 0.207175806 0.851768434
vt 0.228291914 0.853356659
vt 0.228291914 0.842796028
vt 0.224979937 0.848076344
vt 0.238227874 0.848076344
vt 0.234915882 0.853356659
vt 0.234915882 0.842796028
vt 0.228380948 0.839625359
vt 0.220436648 0.84356904
vt 0.220798448 0.838612676
vt 0.227346838 0.844494462
vt 0.220798448 0.838612676
vt 0.213027015 0.84356904
vt 0.21266523 0.838612676
vt 0.220436648 0.84356904
vt 0.21266523 0.838612676
vt 0.206116304 0.844493926
vt 0.205082715 0.839624822
vt 0.213027015 0.84356904
vt 0.205082193 0.839600742
vt 0.213027015 0.843544424
vt 0.212664708 0.838588357
vt 0.206116304 0.844469845
vt 0.212664708 0.838588357
vt 0.220436648 0.843544424
vt 0.220798448 0.838588357
vt 0.213027015 0.843544424
vt 0.220798448 0.838588357
vt 0.227346838 0.844469249
vt 0.228380948 0.839600503
vt 0.220436648 0.843544424
vt 0.226739183 0.851768434
vt 0.212066382 0.859566033
vt 0.221848607 0.859566033
vt 0.212066382 0.843970597
vt 0.221848607 0.843970597
vt 0.207175806 0.851768434
vt 0.211425886 0.828855157
vt 0.232443199 0.821051121
vt 0.207988173 0.821120858
vt 0.228964433 0.828855157
vt 0.200998783 0.839262486
vt 0.247020319 0.835752189
vt 0.193424642 0.835752428
vt 0.239411399 0.839262903
vt 0.20099853 0.85688132
vt 0.247021094 0.86031878
vt 0.193426728 0.860384345
vt 0.239462376 0.856842577
vt 0.211437121 0.867265046
vt 0.232432991 0.874946475
vt 0.208006993 0.874967873
vt 0.228995815 0.867268145
vt 0.227547809 0.886895418
vt 0.208310634 0.880853891
vt 0.211069733 0.886900127
vt 0.230309129 0.880872905
vt 0.195211872 0.893904209
vt 0.237288713 0.896663189
vt 0.201284394 0.896697164
vt 0.243351296 0.893893063
vt 0.195172146 0.915767908
vt 0.237342566 0.91312772
vt 0.20123066 0.91304642
vt 0.243344903 0.915795326
vt 0.208266318 0.928717196
vt 0.227520749 0.92273128
vt 0.211056277 0.92273128
vt 0.230264947 0.928717196
vt 0.228964433 0.828855157
vt 0.207988173 0.821120858
vt 0.211425886 0.828855157
vt 0.232443199 0.821051121
vt 0.193424642 0.835752428
vt 0.239411399 0.839262903
vt 0.200998783 0.839262486
vt 0.247020319 0.835752189
vt 0.193426728 0.860384345
vt 0.239462376 0.856842577
vt 0.20099853 0.85688132
vt 0.247021094 0.86031878
vt 0.208006993 0.874967873
vt 0.228995815 0.867268145
vt 0.211437121 0.867265046
vt 0.232432991 0.874946475
vt 0.211056277 0.92273128
vt 0.230264947 0.928717196
vt 0.227520749 0.92273128
vt 0.208266318 0.928717196
vt 0.243344903 0.915795326
vt 0.20123066 0.91304642
vt 0.237342566 0.91312772
vt 0.195172146 0.915767908
vt 0.243351296 0.893893063
vt 0.201284394 0.896697164
vt 0.237288713 0.896663189
vt 0.195211872 0.893904209
vt 0.230309129 0.880872905
vt 0.211069733 0.886900127
vt 0.227547809 0.886895418
vt 0.208310634 0.880853891
vn -0.382683128 2.08435509E-07 -0.923879623
vn 0.38268289 0 -0.923879743
vn 0.382683367 0 -0.923879504
vn -0.382683098 2.25839699E-07 -0.923879743
vn -0.707106471 2.41897027E-07 -0.707107008
vn -0.707106233 2.74055679E-07 -0.707107306
vn 0.382683367 0 -0.923879504
vn 0.707106113 0 -0.707107425
vn 0.707106471 0 -0.707107008
vn 0.38268289 0 -0.923879743
vn 1 -1.69563251E-07 -2.1004378E-07
vn 1 -1.69563251E-07 -2.10043794E-07
vn 1 -1.69563251E-07 -2.10043794E-07
vn 1 -1.45339968E-07 0
vn 0.382683098 -1.8978281E-07 0.923879743
vn 0.707106113 -2.08689102E-07 0.707107365
vn 0.707106471 -2.56927166E-07 0.707107008
vn 0.382683516 -2.12281932E-07 0.923879504
vn -0.382683098 0 0.923879743
vn -0.3826828 -1.04876733E-07 0.923879802
vn -0.707106471 0 0.707107008
vn -0.707106471 0 0.707107008
vn -1 1.93786732E-07 0
vn -1 1.9378669E-07 0
vn -1 1.9378669E-07 0
vn -1 1.9378669E-07 0
vn -0.38268593 0.000273652317 0.923878491
vn 0.382680655 0.000273503945 0.923880637
vn 0.382685721 0.000273459795 0.92387861
vn -0.382680655 0.000273599057 0.923880637
vn -0.707106709 0.000256768253 0.707106769
vn -0.707105756 0.000256670115 0.707107723
vn 0.382685721 0.000273459795 0.92387861
vn 0.707105935 0.000256495114 0.707107604
vn 0.707106769 0.000256413332 0.707106769
vn 0.382680655 0.000273503945 0.923880637
vn 1 0.000248870463 0
vn 1 0.000248870463 0
vn 1 0.000248870492 0
vn 1 0.000248870521 0
vn 0.382681787 0.000273861515 -0.9238801
vn 0.70710659 0.000256742758 -0.707106888
vn 0.707107365 0.000256824511 -0.707106113
vn 0.382685483 0.000273817277 -0.92387861
vn -0.382681519 0.000273956335 -0.923880339
vn -0.38268587 0.000274009421 -0.923878491
vn -0.707107663 0.000257000327 -0.707105875
vn -0.707106769 0.000257098436 -0.707106769
vn -1 0.000249233824 2.79873689E-07
vn -1 0.000249233854 2.79873717E-07
vn -1 0.000249233824 2.79873717E-07
vn -1 0.000249258068 0
vn -0.38268432 0 0.923879206
vn 0.382685244 -9.68735208E-07 0.923878789
vn 0.382684082 -8.13984457E-07 0.923879325
vn -0.382684618 0 0.923879027
vn -0.70710808 0 0.707105398
vn -0.70710808 0 0.707105458
vn -1 0 0
vn -1 0 0
vn -1 0 0
vn -1 0 0
vn 1 0 0
vn 1 0 0
vn 1 0 0
vn 1 0 0
vn 0.382684082 -8.13984457E-07 0.923879325
vn 0.707108378 -2.85936864E-07 0.7071051
vn 0.707108378 0 0.70710516
vn 0.382685244 -9.68735208E-07 0.923878789
vn 0.382683724 0 -0.923879445
vn 0.707108378 0 -0.7071051
vn 0.707108378 0 -0.7071051
vn 0.382684469 0 -0.923879087
vn -0.382683605 0 -0.923879445
vn -0.38268429 0 -0.923879206
vn -0.70710808 0 -0.707105458
vn -0.70710808 0 -0.707105398
vn -0 -0.792234421 0.610217035
vn -0 -0.792234302 0.610217035
vn -0 -0.792234302 0.610217035
vn -0 -0.792234242 0.610217035
vn -0 -0.792217612 -0.610238612
vn -0 -0.792217612 -0.610238612
vn -0 -0.792217612 -0.610238612
vn -0 -0.792217612 -0.610238612
vn -0.610227823 -0.792226017 0
vn -0.610227823 -0.792226017 0
vn -0.610227823 -0.792226017 0
vn -0.610227823 -0.792226017 0
vn 0.610233247 -0.792221844 0
vn 0.610233188 -0.792221844 0
vn 0.610233247 -0.792221844 0
vn 0.610233188 -0.792221844 0
vn 0.423230022 -0.801095724 0.423228115
vn 0.423230022 -0.801095724 0.423228115
vn 0.423230022 -0.801095724 0.423228085
vn 0.42322585 -0.801099539 0.423225045
vn -0.423224986 -0.801100731 0.423223406
vn -0.423224986 -0.801100731 0.423223406
vn -0.423224986 -0.801100731 0.423223406
vn -0.423226982 -0.801098287 0.423226088
vn 0.423237026 -0.801088274 -0.423235118
vn 0.423237056 -0.801088214 -0.423235148
vn 0.423237085 -0.801088274 -0.423235118
vn 0.423240066 -0.801084459 -0.423239261
vn -0.423237771 -0.80108732 -0.423236251
vn -0.423237741 -0.801087379 -0.423236221
vn -0.423237711 -0.80108732 -0.423236251
vn -0.423235089 -0.801089823 -0.423234165
vn 0.315712929 0.565133989 0.762199938
vn -0.139987335 0.930691361 0.337960213
vn -0.315707982 0.565150559 0.762189746
vn 0.139991745 0.930686414 0.337972045
vn 0.597491443 0.534787416 0.597500026
vn 0.337961167 0.930690885 0.13998881
vn -0.315707982 0.565150559 0.762189746
vn -0.337954164 0.930693626 0.139987007
vn -0.597492516 0.534790993 0.597495914
vn -0.139987335 0.930691361 0.337960213
vn -0.844986618 0.534787476 -1.29837088E-06
vn -0.337957501 0.930692196 -0.139988646
vn -0.84498626 0.534787953 -1.41987789E-06
vn -0.337954164 0.930693626 0.139987007
vn -0.139988199 0.930692792 -0.337955922
vn -0.59749341 0.534790039 -0.597495854
vn -0.337957501 0.930692196 -0.139988646
vn -0.315712214 0.565147221 -0.762190521
vn 0.139986947 0.930690229 -0.337963641
vn 0.315707624 0.565134108 -0.762202144
vn 0.337967485 0.930688679 -0.139987811
vn 0.597497404 0.534790456 -0.597491503
vn 0.844987631 0.534785748 -1.20755215E-06
vn 0.337961167 0.930690885 0.13998881
vn 0.844986558 0.534787655 -7.09939059E-07
vn 0.337967485 0.930688679 -0.139987811
vn -0 -1 0
vn -0 -1 0
vn -0 -1 0
vn -0 -1 0
vn -0 -1 0
vn -0 -1 0
vn -0.840780616 0.122395359 0.52735883
vn -0.840780556 0.122395352 0.52735883
vn -0.840780616 0.122395352 0.52735877
vn -0.840782046 0.122400895 0.527355313
vn -0 0.115258098 0.993335605
vn -0 0.115258083 0.993335605
vn -0 0.115258098 0.993335605
vn -0 0.115258098 0.993335605
vn 0.840783238 0.122386545 0.527356684
vn 0.840783238 0.122386545 0.527356625
vn 0.840783238 0.122386545 0.527356625
vn 0.840783656 0.122385591 0.527356267
vn 0.840780795 0.12240953 -0.527355254
vn 0.840780795 0.12240953 -0.527355313
vn 0.840780795 0.12240953 -0.527355313
vn 0.840774596 0.122385316 -0.52737087
vn -0 0.115303181 -0.9933303
vn -0 0.115303181 -0.9933303
vn -0 0.115303189 -0.9933303
vn -0 0.115303181 -0.9933303
vn -0.84078002 0.122400597 -0.527358472
vn -0.84078002 0.122400597 -0.527358472
vn -0.840780139 0.122400619 -0.527358532
vn -0.84077096 0.122420028 -0.527368486
vn -0 1 0
vn -0 1 0
vn -0 1 0
vn -0 1 0
vn -0 1 0
vn -0 1 0
vn -0 -1 0
vn -0 -1 0
vn -0 -1 0
vn -0 -1 0
vn -0 -1 0
vn -0 -1 0
vn -0.840780616 0.122395359 0.52735883
vn -0.840780556 0.122395352 0.52735883
vn -0.840780616 0.122395352 0.52735877
vn -0.840782046 0.122400895 0.527355313
vn -0 0.115258098 0.993335605
vn -0 0.115258083 0.993335605
vn -0 0.115258098 0.993335605
vn -0 0.115258098 0.993335605
vn 0.840783238 0.122386545 0.527356684
vn 0.840783238 0.122386545 0.527356625
vn 0.840783238 0.122386545 0.527356625
vn 0.840783656 0.122385591 0.527356267
vn 0.840783358 0.122385636 -0.527356803
vn 0.840783358 0.122385636 -0.527356803
vn 0.840783358 0.122385651 -0.527356803
vn 0.840783477 0.122386597 -0.527356207
vn -0 0.115258098 -0.993335605
vn -0 0.115258098 -0.993335605
vn -0 0.115258098 -0.993335605
vn -0 0.115258098 -0.993335605
vn -0.84078002 0.122400597 -0.527358472
vn -0.84078002 0.122400597 -0.527358472
vn -0.840780139 0.122400619 -0.527358532
vn -0.840782642 0.122395121 -0.527355552
vn -0 1 0
vn -0 1 0
vn -0 1 0
vn -0 1 0
vn -0 1 0
vn -0 1 0
vn -0 -1 0
vn -0 -1 0
vn -0 -1 0
vn -0 -1 0
vn -0 -1 0
vn -0 -1 0
vn 0.527374923 0.122392878 0.84077096
vn 0.527374804 0.122392893 0.84077096
vn 0.527374804 0.122392893 0.84077096
vn 0.527377009 0.122389503 0.840770125
vn 0.993334174 0.115269363 0
vn 0.993334174 0.115269355 0
vn 0.993334174 0.115269363 0
vn 0.993334174 0.115269363 0
vn 0.527353823 0.122391574 -0.840784371
vn 0.527353823 0.122391559 -0.840784371
vn 0.527353823 0.122391574 -0.840784371
vn 0.527353704 0.12239141 -0.840784431
vn -0.527350068 0.122397192 -0.840785861
vn -0.527350068 0.122397192 -0.840785861
vn -0.527350128 0.122397199 -0.840785861
vn -0.527353585 0.122391559 -0.840784431
vn -0.993332922 0.115280643 0
vn -0.993332922 0.115280651 0
vn -0.993332922 0.115280636 0
vn -0.993332922 0.115280643 0
vn -0.527371705 0.122389935 0.840773284
vn -0.527371705 0.12238995 0.840773284
vn -0.527371764 0.12238995 0.840773284
vn -0.527376294 0.122399002 0.840769112
vn -0 1 0
vn -0 1 0
vn -0 1 0
vn -0 1 0
vn -0 1 0
vn -0 1 0
vn -0 -1 0
vn -0 -1 0
vn -0 -1 0
vn -0 -1 0
vn -0 -1 0
vn -0 -1 0
vn 0.527370095 0.12238957 0.840774417
vn 0.527370095 0.12238957 0.840774417
vn 0.527370036 0.122389562 0.840774417
vn 0.527371705 0.12238697 0.840773821
vn 0.993334889 0.11526373 0
vn 0.993334889 0.115263723 0
vn 0.993334889 0.11526373 0
vn 0.993334889 0.11526373 0
vn 0.527350366 0.122391842 -0.840786457
vn 0.527350485 0.122391842 -0.840786397
vn 0.527350366 0.122391842 -0.840786457
vn 0.527348399 0.122388065 -0.840788245
vn -0.527353764 0.122391425 -0.840784371
vn -0.527353823 0.122391447 -0.840784371
vn -0.527353823 0.122391447 -0.840784371
vn -0.527353585 0.122391559 -0.840784431
vn -0.993334174 0.115269363 0
vn -0.993334174 0.115269355 0
vn -0.993334174 0.115269363 0
vn -0.993334174 0.115269363 0
vn -0.527376473 0.122392505 0.840770006
vn -0.527376473 0.122392483 0.840769947
vn -0.527376473 0.122392505 0.840769947
vn -0.527376711 0.122393034 0.840769708
vn -0 1 0
vn -0 1 0
vn -0 1 0
vn -0 1 0
vn -0 1 0
vn -0 1 0
vn -0 -1 0
vn -0 -1 0
vn -0 -1 0
vn -0 -1 0
vn -0 -1 0
vn -0 -1 0
vn -0.967419744 0.122399509 -0.221624404
vn -0.967419744 0.122399509 -0.221624404
vn -0.967419744 0.122399509 -0.221624404
vn -0.967417419 0.122408241 -0.221629977
vn -0.702393413 0.115269378 0.702393413
vn -0.702393413 0.115269378 0.702393413
vn -0.702393413 0.115269355 0.702393413
vn -0.702382505 0.115240149 0.702409148
vn 0.221624941 0.122380838 0.967422009
vn 0.221624911 0.122380838 0.967422009
vn 0.221624911 0.122380823 0.967422009
vn 0.221622631 0.122384116 0.967422128
vn 0.967424572 0.12238007 0.22161448
vn 0.967424572 0.122380055 0.221614495
vn 0.967424572 0.122380055 0.22161445
vn 0.967419624 0.122397825 0.221625715
vn 0.702380359 0.115258805 -0.702408135
vn 0.702380359 0.115258805 -0.702408135
vn 0.702380359 0.115258805 -0.702408135
vn 0.702397943 0.115306012 -0.702382743
vn -0.221598208 0.122422688 -0.967422903
vn -0.221598223 0.122422688 -0.967422903
vn -0.221598223 0.122422688 -0.967422903
vn -0.221622497 0.122387871 -0.967421651
vn -0 1 0
vn -0 1 0
vn -0 1 0
vn -0 1 0
vn -0 1 0
vn -0 1 0
vn -0 -1 0
vn -0 -1 0
vn -0 -1 0
vn -0 -1 0
vn -0 -1 0
vn -0 -1 0
vn -0.96742034 0.122394957 -0.221624523
vn -0.96742034 0.122394942 -0.221624523
vn -0.96742034 0.122394927 -0.221624523
vn -0.967419565 0.122397915 -0.221626446
vn -0.70239079 0.115301237 0.70239079
vn -0.70239079 0.115301229 0.70239079
vn -0.70239079 0.115301237 0.70239079
vn -0.702381551 0.115276173 0.702404201
vn 0.221623749 0.122422151 0.967416942
vn 0.221623793 0.122422189 0.967416942
vn 0.221623763 0.122422166 0.967416942
vn 0.221619666 0.122428074 0.967417181
vn 0.967423201 0.122384422 0.221617848
vn 0.967423201 0.122384407 0.221617848
vn 0.967423201 0.122384422 0.221617848
vn 0.967419744 0.122396931 0.22162576
vn 0.702394068 0.115261376 -0.702394068
vn 0.702394068 0.115261383 -0.702394068
vn 0.702394068 0.115261398 -0.702394068
vn 0.702397168 0.115269735 -0.702389538
vn -0.22162652 0.122380964 -0.967421651
vn -0.221626475 0.122380964 -0.967421651
vn -0.22162652 0.122380979 -0.967421651
vn -0.221622556 0.122386619 -0.96742177
vn -0 1 0
vn -0 1 0
vn -0 1 0
vn -0 1 0
vn -0 1 0
vn -0 1 0
vn -0 -1 0
vn -0 -1 0
vn -0 -1 0
vn -0 -1 0
vn -0 -1 0
vn -0 -1 0
vn -0.221624747 0.122386485 0.967421293
vn -0.221624777 0.1223865 0.967421293
vn -0.221624747 0.1223865 0.967421293
vn -0.221620977 0.122380547 0.967423022
vn 0.702399492 0.115237832 0.702392459
vn 0.702399492 0.115237832 0.702392459
vn 0.702399492 0.115237825 0.702392459
vn 0.702386379 0.115262136 0.702401519
vn 0.96742177 0.122396305 -0.22161752
vn 0.96742177 0.122396275 -0.221617505
vn 0.967421651 0.12239629 -0.221617505
vn 0.967421651 0.122394346 -0.221618786
vn 0.221598372 0.122388095 -0.967427135
vn 0.221598327 0.12238808 -0.967427135
vn 0.221598327 0.122388065 -0.967427135
vn 0.221619844 0.12242189 -0.967417955
vn -0.702376366 0.1153078 -0.702404141
vn -0.702376366 0.1153078 -0.702404141
vn -0.702376366 0.115307815 -0.702404201
vn -0.702401698 0.115260623 -0.702386498
vn -0.967421651 0.122397214 0.221617535
vn -0.967421651 0.122397214 0.22161749
vn -0.967421651 0.122397214 0.22161749
vn -0.967421234 0.122384809 0.221626088
vn -0 1 0
vn -0 1 0
vn -0 1 0
vn -0 1 0
vn -0 1 0
vn -0 1 0
vn -0 -1 0
vn -0 -1 0
vn -0 -1 0
vn -0 -1 0
vn -0 -1 0
vn -0 -1 0
vn -0.221623644 0.122427836 0.967416406
vn -0.221623644 0.122427836 0.967416406
vn -0.221623614 0.122427836 0.967416406
vn -0.221621513 0.122424498 0.9674173
vn 0.702393055 0.115273349 0.702393055
vn 0.702393055 0.115273349 0.702393055
vn 0.702393055 0.115273342 0.702393055
vn 0.702377379 0.115302615 0.702404022
vn 0.967421889 0.122381285 -0.221624866
vn 0.967421889 0.12238127 -0.221624866
vn 0.967421889 0.122381285 -0.221624866
vn 0.967422187 0.122389801 -0.22161895
vn 0.221624851 0.122384012 -0.967421651
vn 0.221624836 0.122383997 -0.967421651
vn 0.221624836 0.122383982 -0.967421651
vn 0.221620172 0.122376695 -0.967423558
vn -0.702399194 0.11526192 -0.702388823
vn -0.702399194 0.11526192 -0.702388823
vn -0.702399254 0.11526192 -0.702388763
vn -0.70239532 0.115269169 -0.702391565
vn -0.967421293 0.122406989 0.221613765
vn -0.967421293 0.122406989 0.221613765
vn -0.967421234 0.122406982 0.221613765
vn -0.967420101 0.122372255 0.221637949
vn -0 1 0
vn -0 1 0
vn -0 1 0
vn -0 1 0
vn -0 1 0
vn -0 1 0
vn 0.337961167 0.930690885 0.13998881
vn 1.89779294E-05 1 -4.06604704E-06
vn 1.25125725E-05 1 4.05633818E-06
vn 0.337967485 0.930688679 -0.139987811
vn 0.139991745 0.930686414 0.337972045
vn 2.11667657E-06 1 -1.74185323E-06
vn 4.07815514E-06 1 1.14691447E-05
vn 0.139986947 0.930690229 -0.337963641
vn -0.139987335 0.930691361 0.337960213
vn -2.6300072E-06 1 9.44227338E-07
vn -1.49639436E-06 1 5.59390719E-06
vn -0.139988199 0.930692792 -0.337955922
vn -0.337954164 0.930693626 0.139987007
vn -5.10349946E-06 1 -2.53919711E-06
vn -2.7615647E-07 1 9.86756277E-07
vn -0.337957501 0.930692196 -0.139988646
vn -3.0843687E-06 1 0
vn -3.0843687E-06 1 0
vn -3.0843687E-06 1 0
vn -3.0843687E-06 1 0
vn -2.68282889E-07 1 -3.56390842E-07
vn -7.12055908E-07 1 0
vn 1.87215889E-07 1 -1.64525105E-07
vn -5.06509537E-07 1 -1.33423242E-07
vn -5.06509821E-07 1 -1.33423342E-07
vn -4.49415779E-07 1 1.2703768E-07
vn -5.70229304E-07 1 -2.61151541E-07
vn -4.06976483E-07 1 1.86386472E-07
vn -0 1 0
vn -0 1 0
vn -0 1 0
vn -0 1 0
vn -5.94375479E-06 -1 -2.36463393E-06
vn -5.88861394E-06 -1 2.48494393E-06
vn -5.94374069E-06 -1 2.36458982E-06
vn -5.88865078E-06 -1 -2.4849478E-06
vn -2.4849619E-06 -1 5.88863486E-06
vn -6.52775213E-07 -1 -6.72776014E-06
vn -2.04464641E-06 -1 5.12820088E-06
vn -1.39033432E-06 -1 -5.27495513E-06
vn 1.09462928E-06 -1 6.13694624E-07
vn 3.19970979E-07 -1 -8.15547821E-07
vn 1.71182137E-06 -1 -7.83975395E-07
vn -0 -1 0
vn -0 -1 0
vn -0 -1 0
vn -0 -1 0
vn -0 -1 0
vn -0 -1 0
vn -0 -1 0
vn 5.36123389E-06 -1 1.68367956E-06
vn -0 -1 0
vn -0 -1 -6.30820807E-07
vn -0 -1 -4.11397059E-06
vn -6.38312315E-07 -1 -2.92332885E-07
vn -4.71378456E-07 -1 -3.97907979E-06
vn -2.51051461E-07 -1 1.14975634E-07
vn 6.01869033E-07 -1 -1.5711978E-06
vn -1.50484823E-07 -1 3.09388696E-07
vn -0 -1 -1.0178527E-06
vn 1.53005351E-06 -1 0
vn -3.83120141E-06 -1 -1.6836791E-06
vn 1.53005351E-06 -1 0
vn 1.53005351E-06 -1 0
g P_Vert_OneCap_Upsidedown_0
f 3/3/3 2/2/2 1/1/1
f 4/4/4 1/1/1 2/2/2
f 1/1/1 4/4/4 5/5/5
f 6/6/6 5/5/5 4/4/4
f 9/9/9 8/8/8 7/7/7
f 10/10/10 7/7/7 8/8/8
f 13/13/13 12/12/12 11/11/11
f 14/14/14 11/11/11 12/12/12
f 17/17/17 16/16/16 15/15/15
f 18/18/18 15/15/15 16/16/16
f 15/15/15 18/18/18 19/19/19
f 20/20/20 19/19/19 18/18/18
f 19/19/19 20/20/20 21/21/21
f 22/22/22 21/21/21 20/20/20
f 25/25/25 24/24/24 23/23/23
f 26/26/26 23/23/23 24/24/24
f 29/29/29 28/28/28 27/27/27
f 30/30/30 27/27/27 28/28/28
f 27/27/27 30/30/30 31/31/31
f 32/32/32 31/31/31 30/30/30
f 35/35/35 34/34/34 33/33/33
f 36/36/36 33/33/33 34/34/34
f 39/39/39 38/38/38 37/37/37
f 40/40/40 37/37/37 38/38/38
f 43/43/43 42/42/42 41/41/41
f 44/44/44 41/41/41 42/42/42
f 41/41/41 44/44/44 45/45/45
f 46/46/46 45/45/45 44/44/44
f 45/45/45 46/46/46 47/47/47
f 48/48/48 47/47/47 46/46/46
f 51/51/51 50/50/50 49/49/49
f 52/52/52 49/49/49 50/50/50
f 55/55/55 54/54/54 53/53/53
f 56/56/56 53/53/53 54/54/54
f 53/53/53 56/56/56 57/57/57
f 58/58/58 57/57/57 56/56/56
f 61/61/61 60/60/60 59/59/59
f 62/62/62 59/59/59 60/60/60
f 65/65/65 64/64/64 63/63/63
f 66/66/66 63/63/63 64/64/64
f 69/69/69 68/68/68 67/67/67
f 70/70/70 67/67/67 68/68/68
f 73/73/73 72/72/72 71/71/71
f 74/74/74 71/71/71 72/72/72
f 71/71/71 74/74/74 75/75/75
f 76/76/76 75/75/75 74/74/74
f 75/75/75 76/76/76 77/77/77
f 78/78/78 77/77/77 76/76/76
f 81/81/81 80/80/80 79/79/79
f 82/82/82 79/79/79 80/80/80
f 85/85/85 84/84/84 83/83/83
f 86/86/86 83/83/83 84/84/84
f 89/89/89 88/88/88 87/87/87
f 90/90/90 87/87/87 88/88/88
f 93/93/93 92/92/92 91/91/91
f 94/94/94 91/91/91 92/92/92
f 97/97/97 96/96/96 95/95/95
f 98/98/98 95/95/95 96/96/96
f 101/101/101 100/100/100 99/99/99
f 102/102/102 99/99/99 100/100/100
f 105/105/105 104/104/104 103/103/103
f 106/106/106 103/103/103 104/104/104
f 109/109/109 108/108/108 107/107/107
f 110/110/110 107/107/107 108/108/108
f 113/113/113 112/112/112 111/111/111
f 114/114/114 111/111/111 112/112/112
f 111/111/111 114/114/114 115/115/115
f 116/116/116 115/115/115 114/114/114
f 119/119/119 118/118/118 117/117/117
f 120/120/120 117/117/117 118/118/118
f 123/123/123 122/122/122 121/121/121
f 124/124/124 121/121/121 122/122/122
f 127/127/127 126/126/126 125/125/125
f 128/128/128 125/125/125 126/126/126
f 125/125/125 128/128/128 129/129/129
f 130/130/130 129/129/129 128/128/128
f 129/129/129 130/130/130 131/131/131
f 132/132/132 131/131/131 130/130/130
f 135/135/135 134/134/134 133/133/133
f 136/136/136 133/133/133 134/134/134
f 139/139/139 138/138/138 137/137/137
f 138/138/138 140/140/140 137/137/137
f 137/137/137 140/140/140 141/141/141
f 142/142/142 140/140/140 138/138/138
f 145/145/145 144/144/144 143/143/143
f 146/146/146 143/143/143 144/144/144
f 149/149/149 148/148/148 147/147/147
f 150/150/150 147/147/147 148/148/148
f 153/153/153 152/152/152 151/151/151
f 154/154/154 151/151/151 152/152/152
f 157/157/157 156/156/156 155/155/155
f 158/158/158 155/155/155 156/156/156
f 161/161/161 160/160/160 159/159/159
f 162/162/162 159/159/159 160/160/160
f 165/165/165 164/164/164 163/163/163
f 166/166/166 163/163/163 164/164/164
f 169/169/169 168/168/168 167/167/167
f 168/168/168 170/170/170 167/167/167
f 167/167/167 170/170/170 171/171/171
f 172/172/172 170/170/170 168/168/168
f 175/175/175 174/174/174 173/173/173
f 174/174/174 176/176/176 173/173/173
f 173/173/173 176/176/176 177/177/177
f 178/178/178 176/176/176 174/174/174
f 181/181/181 180/180/180 179/179/179
f 182/182/182 179/179/179 180/180/180
f 185/185/185 184/184/184 183/183/183
f 186/186/186 183/183/183 184/184/184
f 189/189/189 188/188/188 187/187/187
f 190/190/190 187/187/187 188/188/188
f 193/193/193 192/192/192 191/191/191
f 194/194/194 191/191/191 192/192/192
f 197/197/197 196/196/196 195/195/195
f 198/198/198 195/195/195 196/196/196
f 201/201/201 200/200/200 199/199/199
f 202/202/202 199/199/199 200/200/200
f 205/205/205 204/204/204 203/203/203
f 204/204/204 206/206/206 203/203/203
f 203/203/203 206/206/206 207/207/207
f 208/208/208 206/206/206 204/204/204
f 211/211/211 210/210/210 209/209/209
f 210/210/210 212/212/212 209/209/209
f 209/209/209 212/212/212 213/213/213
f 214/214/214 212/212/212 210/210/210
f 217/217/217 216/216/216 215/215/215
f 218/218/218 215/215/215 216/216/216
f 221/221/221 220/220/220 219/219/219
f 222/222/222 219/219/219 220/220/220
f 225/225/225 224/224/224 223/223/223
f 226/226/226 223/223/223 224/224/224
f 229/229/229 228/228/228 227/227/227
f 230/230/230 227/227/227 228/228/228
f 233/233/233 232/232/232 231/231/231
f 234/234/234 231/231/231 232/232/232
f 237/237/237 236/236/236 235/235/235
f 238/238/238 235/235/235 236/236/236
f 241/241/241 240/240/240 239/239/239
f 240/240/240 242/242/242 239/239/239
f 239/239/239 242/242/242 243/243/243
f 244/244/244 242/242/242 240/240/240
f 247/247/247 246/246/246 245/245/245
f 246/246/246 248/248/248 245/245/245
f 245/245/245 248/248/248 249/249/249
f 250/250/250 248/248/248 246/246/246
f 253/253/253 252/252/252 251/251/251
f 254/254/254 251/251/251 252/252/252
f 257/257/257 256/256/256 255/255/255
f 258/258/258 255/255/255 256/256/256
f 261/261/261 260/260/260 259/259/259
f 262/262/262 259/259/259 260/260/260
f 265/265/265 264/264/264 263/263/263
f 266/266/266 263/263/263 264/264/264
f 269/269/269 268/268/268 267/267/267
f 270/270/270 267/267/267 268/268/268
f 273/273/273 272/272/272 271/271/271
f 274/274/274 271/271/271 272/272/272
f 277/277/277 276/276/276 275/275/275
f 276/276/276 278/278/278 275/275/275
f 275/275/275 278/278/278 279/279/279
f 280/280/280 278/278/278 276/276/276
f 283/283/283 282/282/282 281/281/281
f 282/282/282 284/284/284 281/281/281
f 281/281/281 284/284/284 285/285/285
f 286/286/286 284/284/284 282/282/282
f 289/289/289 288/288/288 287/287/287
f 290/290/290 287/287/287 288/288/288
f 293/293/293 292/292/292 291/291/291
f 294/294/294 291/291/291 292/292/292
f 297/297/297 296/296/296 295/295/295
f 298/298/298 295/295/295 296/296/296
f 301/301/301 300/300/300 299/299/299
f 302/302/302 299/299/299 300/300/300
f 305/305/305 304/304/304 303/303/303
f 306/306/306 303/303/303 304/304/304
f 309/309/309 308/308/308 307/307/307
f 310/310/310 307/307/307 308/308/308
f 313/313/313 312/312/312 311/311/311
f 312/312/312 314/314/314 311/311/311
f 311/311/311 314/314/314 315/315/315
f 316/316/316 314/314/314 312/312/312
f 319/319/319 318/318/318 317/317/317
f 318/318/318 320/320/320 317/317/317
f 317/317/317 320/320/320 321/321/321
f 322/322/322 320/320/320 318/318/318
f 325/325/325 324/324/324 323/323/323
f 326/326/326 323/323/323 324/324/324
f 329/329/329 328/328/328 327/327/327
f 330/330/330 327/327/327 328/328/328
f 333/333/333 332/332/332 331/331/331
f 334/334/334 331/331/331 332/332/332
f 337/337/337 336/336/336 335/335/335
f 338/338/338 335/335/335 336/336/336
f 341/341/341 340/340/340 339/339/339
f 342/342/342 339/339/339 340/340/340
f 345/345/345 344/344/344 343/343/343
f 346/346/346 343/343/343 344/344/344
f 349/349/349 348/348/348 347/347/347
f 348/348/348 350/350/350 347/347/347
f 347/347/347 350/350/350 351/351/351
f 352/352/352 350/350/350 348/348/348
f 355/355/355 354/354/354 353/353/353
f 354/354/354 356/356/356 353/353/353
f 353/353/353 356/356/356 357/357/357
f 358/358/358 356/356/356 354/354/354
f 361/361/361 360/360/360 359/359/359
f 362/362/362 359/359/359 360/360/360
f 365/365/365 364/364/364 363/363/363
f 366/366/366 363/363/363 364/364/364
f 369/369/369 368/368/368 367/367/367
f 370/370/370 367/367/367 368/368/368
f 373/373/373 372/372/372 371/371/371
f 374/374/374 371/371/371 372/372/372
f 377/377/377 376/376/376 375/375/375
f 378/378/378 375/375/375 376/376/376
f 381/381/381 380/380/380 379/379/379
f 382/382/382 379/379/379 380/380/380
f 385/385/385 384/384/384 383/383/383
f 384/384/384 386/386/386 383/383/383
f 383/383/383 386/386/386 387/387/387
f 388/388/388 386/386/386 384/384/384
f 391/391/391 390/390/390 389/389/389
f 390/390/390 392/392/392 389/389/389
f 389/389/389 392/392/392 393/393/393
f 394/394/394 392/392/392 390/390/390
f 397/397/397 396/396/396 395/395/395
f 398/398/398 395/395/395 396/396/396
f 401/401/401 400/400/400 399/399/399
f 402/402/402 399/399/399 400/400/400
f 405/405/405 404/404/404 403/403/403
f 406/406/406 403/403/403 404/404/404
f 409/409/409 408/408/408 407/407/407
f 410/410/410 407/407/407 408/408/408
f 413/413/413 412/412/412 411/411/411
f 414/414/414 411/411/411 412/412/412
f 417/417/417 416/416/416 415/415/415
f 418/418/418 415/415/415 416/416/416
f 421/421/421 420/420/420 419/419/419
f 420/420/420 422/422/422 419/419/419
f 419/419/419 422/422/422 423/423/423
f 424/424/424 422/422/422 420/420/420
f 427/427/427 426/426/426 425/425/425
f 428/428/428 425/425/425 426/426/426
f 425/425/425 429/429/429 427/427/427
f 426/426/426 430/430/430 428/428/428
f 431/431/431 427/427/427 429/429/429
f 432/432/432 428/428/428 430/430/430
f 429/429/429 433/433/433 431/431/431
f 430/430/430 434/434/434 432/432/432
f 435/435/435 431/431/431 433/433/433
f 436/436/436 432/432/432 434/434/434
f 433/433/433 437/437/437 435/435/435
f 434/434/434 438/438/438 436/436/436
f 439/439/439 435/435/435 437/437/437
f 440/440/440 436/436/436 438/438/438
f 437/437/437 440/440/440 439/439/439
f 438/438/438 439/439/439 440/440/440
f 443/443/443 442/442/442 441/441/441
f 444/444/444 441/441/441 442/442/442
f 442/442/442 443/443/443 445/445/445
f 441/441/441 444/444/444 446/446/446
f 447/447/447 445/445/445 443/443/443
f 448/448/448 446/446/446 444/444/444
f 445/445/445 447/447/447 449/449/449
f 446/446/446 448/448/448 450/450/450
f 451/451/451 449/449/449 447/447/447
f 452/452/452 450/450/450 448/448/448
f 449/449/449 451/451/451 453/453/453
f 450/450/450 452/452/452 454/454/454
f 455/455/455 453/453/453 451/451/451
f 456/456/456 454/454/454 452/452/452
f 453/453/453 455/455/455 456/456/456
f 454/454/454 456/456/456 455/455/455
f 459/459/459 458/458/458 457/457/457
f 460/460/460 457/457/457 458/458/458
f 458/458/458 459/459/459 461/461/461
f 457/457/457 460/460/460 462/462/462
f 463/463/463 461/461/461 459/459/459
f 464/464/464 462/462/462 460/460/460
f 461/461/461 463/463/463 465/465/465
f 462/462/462 464/464/464 466/466/466
f 467/467/467 465/465/465 463/463/463
f 468/468/468 466/466/466 464/464/464
f 465/465/465 467/467/467 469/469/469
f 466/466/466 468/468/468 470/470/470
f 471/471/471 469/469/469 467/467/467
f 472/472/472 470/470/470 468/468/468
f 469/469/469 471/471/471 472/472/472
f 470/470/470 472/472/472 471/471/471
f 475/475/475 474/474/474 473/473/473
f 476/476/476 473/473/473 474/474/474
f 474/474/474 475/475/475 477/477/477
f 473/473/473 476/476/476 478/478/478
f 479/479/479 477/477/477 475/475/475
f 480/480/480 478/478/478 476/476/476
f 477/477/477 479/479/479 481/481/481
f 478/478/478 480/480/480 482/482/482
f 483/483/483 481/481/481 479/479/479
f 484/484/484 482/482/482 480/480/480
f 481/481/481 483/483/483 485/485/485
f 482/482/482 484/484/484 486/486/486
f 487/487/487 485/485/485 483/483/483
f 488/488/488 486/486/486 484/484/484
f 485/485/485 487/487/487 488/488/488
f 486/486/486 488/488/488 487/487/487
