g P_Vert_OneCap
v 0.0576621629 -0.500000536 0.12590538
v 0.125906497 0.499999404 0.0576609224
v 0.125906676 -0.500000536 0.0576609224
v 0.0576619804 0.499999374 0.125905395
v -0.0576628111 -0.500000656 0.125905395
v -0.0576630011 0.499999374 0.125905395
v -0.125907332 -0.500000656 0.0576609224
v -0.125907525 0.499999404 0.0576609224
v 0.125906676 -0.500000536 0.0576609224
v 0.125906497 0.499999404 -0.0576642007
v 0.125906676 -0.500000536 -0.0576642118
v 0.125906497 0.499999404 0.0576609224
v 0.0576619804 0.499999404 -0.125908703
v 0.125906676 -0.500000536 -0.0576642118
v 0.125906497 0.499999404 -0.0576642007
v 0.0576621629 -0.500000536 -0.125908688
v -0.0576630011 0.499999404 -0.125908703
v -0.0576628111 -0.500000656 -0.125908688
v -0.0576628111 -0.500000656 -0.125908688
v -0.125907525 0.499999404 -0.0576642007
v -0.125907332 -0.500000656 -0.0576642118
v -0.0576630011 0.499999404 -0.125908703
v -0.125907332 -0.500000656 -0.0576642118
v -0.125907525 0.499999404 0.0576609224
v -0.125907332 -0.500000656 0.0576609224
v -0.125907525 0.499999404 -0.0576642007
v 0.0432751104 -0.500000536 0.0944910422
v -0.0431618951 0.499999374 0.094242014
v -0.0432757735 -0.500000656 0.0944910422
v 0.0431608669 0.499999374 0.094242014
v -0.0432757735 -0.500000656 0.0944910422
v -0.0942441523 0.499999255 0.0431598648
v -0.0944930241 -0.500000656 0.0432738103
v -0.0431618951 0.499999374 0.094242014
v -0.0944930241 -0.500000656 0.0432738103
v -0.0942441523 0.499999315 -0.0431629755
v -0.0944930241 -0.500000656 -0.0432771109
v -0.0942441523 0.499999255 0.0431598648
v -0.0944930241 -0.500000656 -0.0432771109
v -0.0431618951 0.499999315 -0.0942453146
v -0.0432757735 -0.500000656 -0.0944943279
v -0.0942441523 0.499999315 -0.0431629755
v -0.0432757735 -0.500000656 -0.0944943279
v 0.0431608669 0.499999404 -0.0942453146
v 0.0432751104 -0.500000536 -0.0944943279
v -0.0431618951 0.499999315 -0.0942453146
v 0.0432751104 -0.500000536 -0.0944943279
v 0.0942430869 0.499999404 -0.0431629755
v 0.0944923386 -0.500000536 -0.0432771109
v 0.0431608669 0.499999404 -0.0942453146
v 0.0944923386 -0.500000536 -0.0432771109
v 0.0942430869 0.499999464 0.0431598648
v 0.0944923386 -0.500000536 0.0432738103
v 0.0942430869 0.499999404 -0.0431629755
v 0.0944923386 -0.500000536 0.0432738103
v 0.0431608669 0.499999374 0.094242014
v 0.0432751104 -0.500000536 0.0944910422
v 0.0942430869 0.499999464 0.0431598648
v 0.0892171562 0.489412993 0.19480525
v -0.0892172977 0.451136649 0.19480525
v -0.0892172977 0.489412993 0.19480525
v 0.0892171562 0.451136649 0.19480525
v 0.194807217 0.489412993 0.0892148018
v 0.194807217 0.451136261 0.0892148018
v 0.194807217 0.489412993 -0.0892192647
v 0.194807217 0.451136261 0.0892148018
v 0.194807217 0.489412993 0.0892148018
v 0.194807217 0.451136649 -0.0892192647
v -0.194807157 0.489412993 0.0892148018
v -0.194807157 0.451137036 -0.0892192647
v -0.194807157 0.489412993 -0.0892192647
v -0.194807157 0.451136649 0.0892148018
v -0.0892172977 0.489412993 0.19480525
v -0.194807157 0.451136649 0.0892148018
v -0.194807157 0.489412993 0.0892148018
v -0.0892172977 0.451136649 0.19480525
v -0.089217104 0.451135904 -0.194809705
v -0.194807157 0.489412993 -0.0892192647
v -0.194807157 0.451137036 -0.0892192647
v -0.0892172977 0.489412993 -0.194809705
v 0.0892171562 0.451136261 -0.194809705
v 0.0892171562 0.489412993 -0.194809705
v 0.194807217 0.451136649 -0.0892192647
v 0.194807217 0.489412993 -0.0892192647
v -0.082923308 0.499998778 0.181061909
v 0.0892171562 0.489412993 0.19480525
v -0.0892172977 0.489412993 0.19480525
v 0.082923159 0.499998778 0.181061909
v 0.082923159 0.499998778 -0.181067139
v -0.0892172977 0.489412993 -0.194809705
v 0.0892171562 0.489412993 -0.194809705
v -0.082923308 0.499998778 -0.181067139
v 0.181064263 0.499998778 0.0829206184
v 0.194807217 0.489412993 -0.0892192647
v 0.194807217 0.489412993 0.0892148018
v 0.181064263 0.499998778 -0.0829258487
v -0.181064412 0.499998778 -0.0829258487
v -0.194807157 0.489412993 0.0892148018
v -0.194807157 0.489412993 -0.0892192647
v -0.181064412 0.499998778 0.0829206184
v -0.181064412 0.499998778 0.0829206184
v -0.0892172977 0.489412993 0.19480525
v -0.194807157 0.489412993 0.0892148018
v -0.082923308 0.499998778 0.181061909
v 0.082923159 0.499998778 0.181061909
v 0.194807217 0.489412993 0.0892148018
v 0.0892171562 0.489412993 0.19480525
v 0.181064263 0.499998778 0.0829206184
v -0.082923308 0.499998778 -0.181067139
v -0.194807157 0.489412993 -0.0892192647
v -0.0892172977 0.489412993 -0.194809705
v -0.181064412 0.499998778 -0.0829258487
v 0.181064263 0.499998778 -0.0829258487
v 0.0892171562 0.489412993 -0.194809705
v 0.194807217 0.489412993 -0.0892192647
v 0.082923159 0.499998778 -0.181067139
v -0.0576622486 0.427204013 0.125904799
v 0.0639359429 0.451136261 0.141051173
v 0.0576620102 0.4272044 0.125904799
v -0.063936092 0.451135904 0.141050398
v -0.125907108 0.427204013 0.0576601401
v -0.141053468 0.451135904 0.0639341846
v 0.0576620102 0.4272044 0.125904799
v 0.141053423 0.451136261 0.0639341846
v 0.125907063 0.4272044 0.0576601401
v 0.0639359429 0.451136261 0.141051173
v 0.125907063 0.4272044 0.0576601401
v 0.141053334 0.451136261 -0.0639386326
v 0.125906974 0.4272044 -0.057664603
v 0.141053423 0.451136261 0.0639341846
v 0.0639362335 0.451136261 -0.141055644
v 0.125906974 0.4272044 -0.057664603
v 0.141053334 0.451136261 -0.0639386326
v 0.0576620102 0.4272044 -0.125909269
v -0.063936092 0.451135904 -0.141055644
v -0.0576622486 0.427204013 -0.125910044
v -0.141053289 0.451135904 -0.0639386326
v -0.125906929 0.427204013 -0.057664603
v -0.125906929 0.427204013 -0.057664603
v -0.141053468 0.451135904 0.0639341846
v -0.125907108 0.427204013 0.0576601401
v -0.141053289 0.451135904 -0.0639386326
v -0.0139013547 0.451542854 -0.186888486
v -0.0139013547 0.451542854 -0.142560974
v -0.0278032199 0.451542854 -0.164724752
v 0.0278038494 0.451542854 -0.164724752
v 0.0139019853 0.451542854 -0.186888486
v 0.0139019853 0.451542854 -0.142560974
v 0.0278038494 0.451542854 -0.164724752
v 0.0126757035 0.434694618 -0.144515887
v 0.0139019853 0.451542854 -0.142560974
v 0.0253513828 0.434694618 -0.164724752
v 0.0139019853 0.451542854 -0.142560974
v -0.0126750739 0.434694618 -0.144515887
v -0.0139013547 0.451542854 -0.142560974
v 0.0126757035 0.434694618 -0.144515887
v -0.0139013547 0.451542854 -0.142560974
v -0.0253504626 0.434694618 -0.164724752
v -0.0278032199 0.451542854 -0.164724752
v -0.0126750739 0.434694618 -0.144515887
v -0.0278032199 0.451542854 -0.164724752
v -0.0126750739 0.434694618 -0.184932798
v -0.0139013547 0.451542854 -0.186888486
v -0.0253504626 0.434694618 -0.164724752
v -0.0139013547 0.451542854 -0.186888486
v 0.0126757035 0.434694618 -0.184932798
v 0.0139019853 0.451542854 -0.186888486
v -0.0126750739 0.434694618 -0.184932798
v 0.0139019853 0.451542854 -0.186888486
v 0.0253513828 0.434694618 -0.164724752
v 0.0278038494 0.451542854 -0.164724752
v 0.0126757035 0.434694618 -0.184932798
v 0.0253513828 0.434694618 -0.164724752
v -0.0126750739 0.434694618 -0.144515887
v 0.0126757035 0.434694618 -0.144515887
v -0.0126750739 0.434694618 -0.184932798
v 0.0126757035 0.434694618 -0.184932798
v -0.0253504626 0.434694618 -0.164724752
v -0.0139013547 0.451542854 0.1417519
v -0.0139013547 0.451542854 0.186079443
v -0.0278032199 0.451542854 0.163915664
v 0.0278038494 0.451542854 0.163915664
v 0.0139019853 0.451542854 0.1417519
v 0.0139019853 0.451542854 0.186079443
v 0.0278038494 0.451542854 0.163915664
v 0.0126757035 0.434694618 0.184124529
v 0.0139019853 0.451542854 0.186079443
v 0.0253513828 0.434694618 0.163915664
v 0.0139019853 0.451542854 0.186079443
v -0.0126750739 0.434694618 0.184124529
v -0.0139013547 0.451542854 0.186079443
v 0.0126757035 0.434694618 0.184124529
v -0.0139013547 0.451542854 0.186079443
v -0.0253504626 0.434694618 0.163915664
v -0.0278032199 0.451542854 0.163915664
v -0.0126750739 0.434694618 0.184124529
v -0.0278032199 0.451542854 0.163915664
v -0.0126750739 0.434694618 0.143706828
v -0.0139013547 0.451542854 0.1417519
v -0.0253504626 0.434694618 0.163915664
v -0.0139013547 0.451542854 0.1417519
v 0.0126757035 0.434694618 0.143706828
v 0.0139019853 0.451542854 0.1417519
v -0.0126750739 0.434694618 0.143706828
v 0.0139019853 0.451542854 0.1417519
v 0.0253513828 0.434694618 0.163915664
v 0.0278038494 0.451542854 0.163915664
v 0.0126757035 0.434694618 0.143706828
v 0.0253513828 0.434694618 0.163915664
v -0.0126750739 0.434694618 0.184124529
v 0.0126757035 0.434694618 0.184124529
v -0.0126750739 0.434694618 0.143706828
v 0.0126757035 0.434694618 0.143706828
v -0.0253504626 0.434694618 0.163915664
v 0.186484277 0.451542854 -0.0143060107
v 0.142156556 0.451542854 -0.0143060107
v 0.164320529 0.451542854 -0.0282074921
v 0.164320603 0.451542854 0.0273991954
v 0.186484277 0.451542854 0.0134969521
v 0.142156556 0.451542854 0.0134969521
v 0.164320603 0.451542854 0.0273991954
v 0.144111767 0.434694618 0.0122706695
v 0.142156556 0.451542854 0.0134969521
v 0.164320529 0.434694618 0.0249466319
v 0.142156556 0.451542854 0.0134969521
v 0.144111767 0.434694618 -0.0130797196
v 0.142156556 0.451542854 -0.0143060107
v 0.144111767 0.434694618 0.0122706695
v 0.142156556 0.451542854 -0.0143060107
v 0.164320529 0.434694618 -0.0257549286
v 0.164320529 0.451542854 -0.0282074921
v 0.144111767 0.434694618 -0.0130797196
v 0.164320529 0.451542854 -0.0282074921
v 0.18452917 0.434694618 -0.0130797196
v 0.186484277 0.451542854 -0.0143060107
v 0.164320529 0.434694618 -0.0257549286
v 0.186484277 0.451542854 -0.0143060107
v 0.18452917 0.434694618 0.0122706695
v 0.186484277 0.451542854 0.0134969521
v 0.18452917 0.434694618 -0.0130797196
v 0.186484277 0.451542854 0.0134969521
v 0.164320529 0.434694618 0.0249466319
v 0.164320603 0.451542854 0.0273991954
v 0.18452917 0.434694618 0.0122706695
v 0.164320529 0.434694618 0.0249466319
v 0.144111767 0.434694618 -0.0130797196
v 0.144111767 0.434694618 0.0122706695
v 0.18452917 0.434694618 -0.0130797196
v 0.18452917 0.434694618 0.0122706695
v 0.164320529 0.434694618 -0.0257549286
v -0.142156124 0.451542854 -0.0143060107
v -0.186484024 0.451542854 -0.0143060107
v -0.164320067 0.451542854 -0.0282074921
v -0.164320067 0.451542854 0.0273991954
v -0.142156124 0.451542854 0.0134969521
v -0.186484024 0.451542854 0.0134969521
v -0.164320067 0.451542854 0.0273991954
v -0.184528723 0.434694618 0.0122706695
v -0.186484024 0.451542854 0.0134969521
v -0.164320067 0.434694618 0.0249466319
v -0.186484024 0.451542854 0.0134969521
v -0.184528723 0.434694618 -0.0130797196
v -0.186484024 0.451542854 -0.0143060107
v -0.184528723 0.434694618 0.0122706695
v -0.186484024 0.451542854 -0.0143060107
v -0.164320067 0.434694618 -0.0257549286
v -0.164320067 0.451542854 -0.0282074921
v -0.184528723 0.434694618 -0.0130797196
v -0.164320067 0.451542854 -0.0282074921
v -0.144111425 0.434694618 -0.0130797196
v -0.142156124 0.451542854 -0.0143060107
v -0.164320067 0.434694618 -0.0257549286
v -0.142156124 0.451542854 -0.0143060107
v -0.144111425 0.434694618 0.0122706695
v -0.142156124 0.451542854 0.0134969521
v -0.144111425 0.434694618 -0.0130797196
v -0.142156124 0.451542854 0.0134969521
v -0.164320067 0.434694618 0.0249466319
v -0.164320067 0.451542854 0.0273991954
v -0.144111425 0.434694618 0.0122706695
v -0.164320067 0.434694618 0.0249466319
v -0.184528723 0.434694618 -0.0130797196
v -0.184528723 0.434694618 0.0122706695
v -0.144111425 0.434694618 -0.0130797196
v -0.144111425 0.434694618 0.0122706695
v -0.164320067 0.434694618 -0.0257549286
v -0.141693756 0.451542854 -0.122438945
v -0.110349149 0.451542854 -0.0910943374
v -0.135851473 0.451542854 -0.0969366208
v -0.0965313911 0.451542854 -0.136256695
v -0.122033708 0.451542854 -0.142098188
v -0.0906891003 0.451542854 -0.110754371
v -0.0965313911 0.451542854 -0.136256695
v -0.0929389745 0.434694618 -0.111269072
v -0.0906891003 0.451542854 -0.110754371
v -0.098265782 0.434694618 -0.134521917
v -0.0906891003 0.451542854 -0.110754371
v -0.110864617 0.434694618 -0.0933438092
v -0.110349149 0.451542854 -0.0910943374
v -0.0929389745 0.434694618 -0.111269072
v -0.110349149 0.451542854 -0.0910943374
v -0.134117082 0.434694618 -0.0986706167
v -0.135851473 0.451542854 -0.0969366208
v -0.110864617 0.434694618 -0.0933438092
v -0.135851473 0.451542854 -0.0969366208
v -0.139443874 0.434694618 -0.121922702
v -0.141693756 0.451542854 -0.122438945
v -0.134117082 0.434694618 -0.0986706167
v -0.141693756 0.451542854 -0.122438945
v -0.121518224 0.434694618 -0.139848724
v -0.122033708 0.451542854 -0.142098188
v -0.139443874 0.434694618 -0.121922702
v -0.122033708 0.451542854 -0.142098188
v -0.098265782 0.434694618 -0.134521917
v -0.0965313911 0.451542854 -0.136256695
v -0.121518224 0.434694618 -0.139848724
v -0.098265782 0.434694618 -0.134521917
v -0.110864617 0.434694618 -0.0933438092
v -0.0929389745 0.434694618 -0.111269072
v -0.139443874 0.434694618 -0.121922702
v -0.121518224 0.434694618 -0.139848724
v -0.134117082 0.434694618 -0.0986706167
v 0.0906898305 0.451542854 0.109945327
v 0.122034334 0.451542854 0.14128992
v 0.096532017 0.451542854 0.135447636
v 0.135852098 0.451542854 0.0961275622
v 0.110349879 0.451542854 0.0902852789
v 0.141694278 0.451542854 0.121629886
v 0.135852098 0.451542854 0.0961275622
v 0.139444605 0.434694618 0.121114403
v 0.141694278 0.451542854 0.121629886
v 0.134117708 0.434694618 0.0978615656
v 0.141694278 0.451542854 0.121629886
v 0.121518858 0.434694618 0.139039665
v 0.122034334 0.451542854 0.14128992
v 0.139444605 0.434694618 0.121114403
v 0.122034334 0.451542854 0.14128992
v 0.098266311 0.434694618 0.133712858
v 0.096532017 0.451542854 0.135447636
v 0.121518858 0.434694618 0.139039665
v 0.096532017 0.451542854 0.135447636
v 0.0929395109 0.434694618 0.110460795
v 0.0906898305 0.451542854 0.109945327
v 0.098266311 0.434694618 0.133712858
v 0.0906898305 0.451542854 0.109945327
v 0.11086525 0.434694618 0.0925347507
v 0.110349879 0.451542854 0.0902852789
v 0.0929395109 0.434694618 0.110460795
v 0.110349879 0.451542854 0.0902852789
v 0.134117708 0.434694618 0.0978615656
v 0.135852098 0.451542854 0.0961275622
v 0.11086525 0.434694618 0.0925347507
v 0.134117708 0.434694618 0.0978615656
v 0.121518858 0.434694618 0.139039665
v 0.139444605 0.434694618 0.121114403
v 0.0929395109 0.434694618 0.110460795
v 0.11086525 0.434694618 0.0925347507
v 0.098266311 0.434694618 0.133712858
v 0.122034431 0.451542854 -0.142098188
v 0.0906898305 0.451542854 -0.110754371
v 0.096532017 0.451542854 -0.136256695
v 0.135852098 0.451542854 -0.0969366208
v 0.141694471 0.451542854 -0.122438945
v 0.110349774 0.451542854 -0.0910943374
v 0.135852098 0.451542854 -0.0969366208
v 0.11086534 0.434694618 -0.0933438092
v 0.110349774 0.451542854 -0.0910943374
v 0.134117797 0.434694618 -0.0986706167
v 0.110349774 0.451542854 -0.0910943374
v 0.0929396972 0.434694618 -0.111269072
v 0.0906898305 0.451542854 -0.110754371
v 0.11086534 0.434694618 -0.0933438092
v 0.0906898305 0.451542854 -0.110754371
v 0.0982665047 0.434694618 -0.134521917
v 0.096532017 0.451542854 -0.136256695
v 0.0929396972 0.434694618 -0.111269072
v 0.096532017 0.451542854 -0.136256695
v 0.121518858 0.434694618 -0.139848724
v 0.122034431 0.451542854 -0.142098188
v 0.0982665047 0.434694618 -0.134521917
v 0.122034431 0.451542854 -0.142098188
v 0.139444605 0.434694618 -0.121922702
v 0.141694471 0.451542854 -0.122438945
v 0.121518858 0.434694618 -0.139848724
v 0.141694471 0.451542854 -0.122438945
v 0.134117797 0.434694618 -0.0986706167
v 0.135852098 0.451542854 -0.0969366208
v 0.139444605 0.434694618 -0.121922702
v 0.134117797 0.434694618 -0.0986706167
v 0.0929396972 0.434694618 -0.111269072
v 0.11086534 0.434694618 -0.0933438092
v 0.121518858 0.434694618 -0.139848724
v 0.139444605 0.434694618 -0.121922702
v 0.0982665047 0.434694618 -0.134521917
v -0.11034935 0.451542854 0.0902852789
v -0.141693935 0.451542854 0.121629886
v -0.135851651 0.451542854 0.0961275622
v -0.0965315774 0.451542854 0.135447636
v -0.0906893015 0.451542854 0.109945327
v -0.122033902 0.451542854 0.14128992
v -0.0965315774 0.451542854 0.135447636
v -0.121518426 0.434694618 0.139039665
v -0.122033902 0.451542854 0.14128992
v -0.0982659683 0.434694618 0.133712858
v -0.122033902 0.451542854 0.14128992
v -0.139444083 0.434694618 0.121114403
v -0.141693935 0.451542854 0.121629886
v -0.121518426 0.434694618 0.139039665
v -0.141693935 0.451542854 0.121629886
v -0.134117261 0.434694618 0.0978615656
v -0.135851651 0.451542854 0.0961275622
v -0.139444083 0.434694618 0.121114403
v -0.135851651 0.451542854 0.0961275622
v -0.110864811 0.434694618 0.0925347507
v -0.11034935 0.451542854 0.0902852789
v -0.134117261 0.434694618 0.0978615656
v -0.11034935 0.451542854 0.0902852789
v -0.0929391682 0.434694618 0.110460795
v -0.0906893015 0.451542854 0.109945327
v -0.110864811 0.434694618 0.0925347507
v -0.0906893015 0.451542854 0.109945327
v -0.0982659683 0.434694618 0.133712858
v -0.0965315774 0.451542854 0.135447636
v -0.0929391682 0.434694618 0.110460795
v -0.0982659683 0.434694618 0.133712858
v -0.139444083 0.434694618 0.121114403
v -0.121518426 0.434694618 0.139039665
v -0.110864811 0.434694618 0.0925347507
v -0.0929391682 0.434694618 0.110460795
v -0.134117261 0.434694618 0.0978615656
v -0.141053468 0.451135904 0.0639341846
v -0.194807157 0.451137036 -0.0892192647
v -0.194807157 0.451136649 0.0892148018
v -0.141053289 0.451135904 -0.0639386326
v -0.063936092 0.451135904 0.141050398
v -0.089217104 0.451135904 -0.194809705
v -0.0892172977 0.451136649 0.19480525
v -0.063936092 0.451135904 -0.141055644
v 0.0639359429 0.451136261 0.141051173
v 0.0892171562 0.451136261 -0.194809705
v 0.0892171562 0.451136649 0.19480525
v 0.0639362335 0.451136261 -0.141055644
v 0.141053423 0.451136261 0.0639341846
v 0.194807217 0.451136649 -0.0892192647
v 0.194807217 0.451136261 0.0892148018
v 0.141053334 0.451136261 -0.0639386326
v -0.0944930241 -0.500000656 -0.0432771109
v -0.125907332 -0.500000656 0.0576609224
v -0.0944930241 -0.500000656 0.0432738103
v -0.125907332 -0.500000656 -0.0576642118
v -0.0576628111 -0.500000656 0.125905395
v -0.0432757735 -0.500000656 -0.0944943279
v -0.0432757735 -0.500000656 0.0944910422
v -0.0576628111 -0.500000656 -0.125908688
v 0.0576621629 -0.500000536 0.12590538
v 0.0432751104 -0.500000536 -0.0944943279
v 0.0432751104 -0.500000536 0.0944910422
v 0.0576621629 -0.500000536 -0.125908688
v 0.125906676 -0.500000536 0.0576609224
v 0.0944923386 -0.500000536 -0.0432771109
v 0.0944923386 -0.500000536 0.0432738103
v 0.125906676 -0.500000536 -0.0576642118
v -0.125907108 0.499998391 0.0576601401
v -0.181064412 0.499998778 -0.0829258487
v -0.125907108 0.499998391 -0.057664603
v -0.181064412 0.499998778 0.0829206184
v -0.082923308 0.499998778 -0.181067139
v -0.0576622486 0.499998391 0.125904799
v -0.0576622486 0.499998391 -0.125910044
v -0.082923308 0.499998778 0.181061909
v 0.082923159 0.499998778 -0.181067139
v 0.0576621033 0.499998778 0.125904799
v 0.0576620102 0.499998778 -0.125909284
v 0.082923159 0.499998778 0.181061909
v 0.181064263 0.499998778 -0.0829258487
v 0.125907168 0.499998778 0.0576601401
v 0.125906974 0.499998778 -0.057664603
v 0.181064263 0.499998778 0.0829206184
v 0.0942430869 0.499999404 -0.0431629755
v 0.125906497 0.499999404 0.0576609224
v 0.0942430869 0.499999464 0.0431598648
v 0.125906497 0.499999404 -0.0576642007
v 0.0576619804 0.499999374 0.125905395
v 0.0431608669 0.499999404 -0.0942453146
v 0.0431608669 0.499999374 0.094242014
v 0.0576619804 0.499999404 -0.125908703
v -0.0576630011 0.499999374 0.125905395
v -0.0431618951 0.499999315 -0.0942453146
v -0.0431618951 0.499999374 0.094242014
v -0.0576630011 0.499999404 -0.125908703
v -0.125907525 0.499999404 0.0576609224
v -0.0942441523 0.499999315 -0.0431629755
v -0.0942441523 0.499999255 0.0431598648
v -0.125907525 0.499999404 -0.0576642007
vt 0.0688794702 0.487369567
vt 0.0871013924 0.641867518
vt 0.0871013924 0.487369567
vt 0.0694693327 0.641867518
vt 0.0536552109 0.487369567
vt 0.0536552109 0.641867518
vt 0.0363097563 0.487369567
vt 0.0363097563 0.641867518
vt 0.0871013924 0.487369567
vt 0.102861315 0.641867518
vt 0.102861315 0.487369567
vt 0.0871013924 0.641867518
vt 0.12039309 0.641867518
vt 0.102861315 0.487369567
vt 0.102861315 0.641867518
vt 0.12039309 0.487369567
vt 0.1358089 0.641867518
vt 0.1358089 0.487369567
vt 0.00336793717 0.487369567
vt 0.0207588784 0.641867518
vt 0.0197017621 0.487369567
vt 0.00336793717 0.641867518
vt 0.0197017621 0.487369567
vt 0.0363097563 0.641867518
vt 0.0363097563 0.487369567
vt 0.0207588784 0.641867518
vt 0.182767555 0.608680487
vt 0.193739012 0.76172477
vt 0.193816543 0.608646274
vt 0.182720631 0.761725008
vt 0.193816543 0.608646274
vt 0.206910059 0.76172477
vt 0.206972018 0.608657777
vt 0.193739012 0.76172477
vt 0.206972018 0.608657777
vt 0.217935249 0.76172477
vt 0.217927933 0.608729839
vt 0.206910059 0.76172477
vt 0.217927933 0.608729839
vt 0.231107205 0.76172477
vt 0.231066033 0.608744204
vt 0.217935249 0.76172477
vt 0.231066033 0.608744204
vt 0.242130697 0.761724532
vt 0.242078424 0.608727396
vt 0.231107205 0.76172477
vt 0.145226315 0.608677268
vt 0.158392787 0.761722982
vt 0.158452913 0.608679295
vt 0.145146862 0.761717439
vt 0.158452913 0.608679295
vt 0.169483706 0.761725008
vt 0.16957207 0.608590841
vt 0.158392787 0.761722982
vt 0.16957207 0.608590841
vt 0.182720631 0.761725008
vt 0.182767555 0.608680487
vt 0.169483706 0.761725008
vt 0.346473336 0.482550591
vt 0.372475892 0.488100827
vt 0.372288167 0.482550591
vt 0.346638829 0.488100827
vt 0.325143903 0.482550591
vt 0.325227559 0.488100827
vt 0.299585819 0.482550591
vt 0.325227559 0.488100827
vt 0.325143903 0.482550591
vt 0.299602002 0.488100827
vt 0.205883875 0.482550591
vt 0.231248841 0.488100827
vt 0.231401503 0.482550591
vt 0.205239534 0.488100827
vt 0.184401795 0.482550472
vt 0.205239534 0.488100827
vt 0.205883875 0.482550591
vt 0.183289275 0.488100708
vt 0.252652019 0.488100827
vt 0.231401503 0.482550591
vt 0.231248841 0.488100827
vt 0.25271371 0.482550591
vt 0.278267413 0.488100827
vt 0.278268963 0.482550591
vt 0.299602002 0.488100827
vt 0.299585819 0.482550591
vt 0.371163398 0.480063528
vt 0.346473336 0.482550591
vt 0.372288167 0.482550591
vt 0.346412987 0.480063528
vt 0.27819863 0.480063528
vt 0.25271371 0.482550591
vt 0.278268963 0.482550591
vt 0.252823502 0.480063528
vt 0.325027883 0.480063528
vt 0.299585819 0.482550591
vt 0.325143903 0.482550591
vt 0.299649864 0.480063528
vt 0.23142685 0.480063528
vt 0.205883875 0.482550591
vt 0.231401503 0.482550591
vt 0.206311539 0.480063528
vt 0.206311539 0.480063528
vt 0.184401795 0.482550472
vt 0.205883875 0.482550591
vt 0.185699925 0.480063409
vt 0.346412987 0.480063528
vt 0.325143903 0.482550591
vt 0.346473336 0.482550591
vt 0.325027883 0.480063528
vt 0.252823502 0.480063528
vt 0.231401503 0.482550591
vt 0.25271371 0.482550591
vt 0.23142685 0.480063528
vt 0.299649864 0.480063528
vt 0.278268963 0.482550591
vt 0.299585819 0.482550591
vt 0.27819863 0.480063528
vt 0.0209700465 0.482737243
vt 0.00250952179 0.478549957
vt 0.00343697751 0.482737243
vt 0.0209700465 0.478549957
vt 0.0362197645 0.482737243
vt 0.0362197645 0.478549957
vt 0.135682195 0.482737005
vt 0.120930485 0.478549689
vt 0.120930485 0.482737124
vt 0.136609912 0.478549689
vt 0.120930485 0.482737124
vt 0.10289944 0.478549957
vt 0.10289944 0.482737243
vt 0.120930485 0.478549689
vt 0.0876261964 0.478549957
vt 0.10289944 0.482737243
vt 0.10289944 0.478549957
vt 0.0876261964 0.482737362
vt 0.0695598647 0.478550076
vt 0.0695598647 0.482737362
vt 0.0542745925 0.478550076
vt 0.0542745925 0.482737362
vt 0.0542745925 0.482737362
vt 0.0362197645 0.478549957
vt 0.0362197645 0.482737243
vt 0.0542745925 0.478550076
vt 0.228291914 0.853356659
vt 0.228291914 0.842796028
vt 0.224979937 0.848076344
vt 0.238227874 0.848076344
vt 0.234915882 0.853356659
vt 0.234915882 0.842796028
vt 0.228380948 0.839625359
vt 0.220436648 0.84356904
vt 0.220798448 0.838612676
vt 0.227346838 0.844494462
vt 0.220798448 0.838612676
vt 0.213027015 0.84356904
vt 0.21266523 0.838612676
vt 0.220436648 0.84356904
vt 0.21266523 0.838612676
vt 0.206116304 0.844493926
vt 0.205082715 0.839624822
vt 0.213027015 0.84356904
vt 0.205082193 0.839600742
vt 0.213027015 0.843544424
vt 0.212664708 0.838588357
vt 0.206116304 0.844469845
vt 0.212664708 0.838588357
vt 0.220436648 0.843544424
vt 0.220798448 0.838588357
vt 0.213027015 0.843544424
vt 0.220798448 0.838588357
vt 0.227346838 0.844469249
vt 0.228380948 0.839600503
vt 0.220436648 0.843544424
vt 0.226739183 0.851768434
vt 0.212066382 0.859566033
vt 0.221848607 0.859566033
vt 0.212066382 0.843970597
vt 0.221848607 0.843970597
vt 0.207175806 0.851768434
vt 0.228291914 0.853356659
vt 0.228291914 0.842796028
vt 0.224979937 0.848076344
vt 0.238227874 0.848076344
vt 0.234915882 0.853356659
vt 0.234915882 0.842796028
vt 0.228380948 0.839625359
vt 0.220436648 0.84356904
vt 0.220798448 0.838612676
vt 0.227346838 0.844494462
vt 0.220798448 0.838612676
vt 0.213027015 0.84356904
vt 0.21266523 0.838612676
vt 0.220436648 0.84356904
vt 0.21266523 0.838612676
vt 0.206116304 0.844493926
vt 0.205082715 0.839624822
vt 0.213027015 0.84356904
vt 0.205082193 0.839600742
vt 0.213027015 0.843544424
vt 0.212664708 0.838588357
vt 0.206116304 0.844469845
vt 0.212664708 0.838588357
vt 0.220436648 0.843544424
vt 0.220798448 0.838588357
vt 0.213027015 0.843544424
vt 0.220798448 0.838588357
vt 0.227346838 0.844469249
vt 0.228380948 0.839600503
vt 0.220436648 0.843544424
vt 0.226739183 0.851768434
vt 0.212066382 0.859566033
vt 0.221848607 0.859566033
vt 0.212066382 0.843970597
vt 0.221848607 0.843970597
vt 0.207175806 0.851768434
vt 0.228291914 0.853356659
vt 0.228291914 0.842796028
vt 0.224979937 0.848076344
vt 0.238227874 0.848076344
vt 0.234915882 0.853356659
vt 0.234915882 0.842796028
vt 0.228380948 0.839625359
vt 0.220436648 0.84356904
vt 0.220798448 0.838612676
vt 0.227346838 0.844494462
vt 0.220798448 0.838612676
vt 0.213027015 0.84356904
vt 0.21266523 0.838612676
vt 0.220436648 0.84356904
vt 0.21266523 0.838612676
vt 0.206116304 0.844493926
vt 0.205082715 0.839624822
vt 0.213027015 0.84356904
vt 0.205082193 0.839600742
vt 0.213027015 0.843544424
vt 0.212664708 0.838588357
vt 0.206116304 0.844469845
vt 0.212664708 0.838588357
vt 0.220436648 0.843544424
vt 0.220798448 0.838588357
vt 0.213027015 0.843544424
vt 0.220798448 0.838588357
vt 0.227346838 0.844469249
vt 0.228380948 0.839600503
vt 0.220436648 0.843544424
vt 0.226739183 0.851768434
vt 0.212066382 0.859566033
vt 0.221848607 0.859566033
vt 0.212066382 0.843970597
vt 0.221848607 0.843970597
vt 0.207175806 0.851768434
vt 0.228291914 0.853356659
vt 0.228291914 0.842796028
vt 0.224979937 0.848076344
vt 0.238227874 0.848076344
vt 0.234915882 0.853356659
vt 0.234915882 0.842796028
vt 0.228380948 0.839625359
vt 0.220436648 0.84356904
vt 0.220798448 0.838612676
vt 0.227346838 0.844494462
vt 0.220798448 0.838612676
vt 0.213027015 0.84356904
vt 0.21266523 0.838612676
vt 0.220436648 0.84356904
vt 0.21266523 0.838612676
vt 0.206116304 0.844493926
vt 0.205082715 0.839624822
vt 0.213027015 0.84356904
vt 0.205082193 0.839600742
vt 0.213027015 0.843544424
vt 0.212664708 0.838588357
vt 0.206116304 0.844469845
vt 0.212664708 0.838588357
vt 0.220436648 0.843544424
vt 0.220798448 0.838588357
vt 0.213027015 0.843544424
vt 0.220798448 0.838588357
vt 0.227346838 0.844469249
vt 0.228380948 0.839600503
vt 0.220436648 0.843544424
vt 0.226739183 0.851768434
vt 0.212066382 0.859566033
vt 0.221848607 0.859566033
vt 0.212066382 0.843970597
vt 0.221848607 0.843970597
vt 0.207175806 0.851768434
vt 0.228291914 0.853356659
vt 0.228291914 0.842796028
vt 0.224979937 0.848076344
vt 0.238227874 0.848076344
vt 0.234915882 0.853356659
vt 0.234915882 0.842796028
vt 0.228380948 0.839625359
vt 0.220436648 0.84356904
vt 0.220798448 0.838612676
vt 0.227346838 0.844494462
vt 0.220798448 0.838612676
vt 0.213027015 0.84356904
vt 0.21266523 0.838612676
vt 0.220436648 0.84356904
vt 0.21266523 0.838612676
vt 0.206116304 0.844493926
vt 0.205082715 0.839624822
vt 0.213027015 0.84356904
vt 0.205082193 0.839600742
vt 0.213027015 0.843544424
vt 0.212664708 0.838588357
vt 0.206116304 0.844469845
vt 0.212664708 0.838588357
vt 0.220436648 0.843544424
vt 0.220798448 0.838588357
vt 0.213027015 0.843544424
vt 0.220798448 0.838588357
vt 0.227346838 0.844469249
vt 0.228380948 0.839600503
vt 0.220436648 0.843544424
vt 0.226739183 0.851768434
vt 0.212066382 0.859566033
vt 0.221848607 0.859566033
vt 0.212066382 0.843970597
vt 0.221848607 0.843970597
vt 0.207175806 0.851768434
vt 0.228291914 0.853356659
vt 0.228291914 0.842796028
vt 0.224979937 0.848076344
vt 0.238227874 0.848076344
vt 0.234915882 0.853356659
vt 0.234915882 0.842796028
vt 0.228380948 0.839625359
vt 0.220436648 0.84356904
vt 0.220798448 0.838612676
vt 0.227346838 0.844494462
vt 0.220798448 0.838612676
vt 0.213027015 0.84356904
vt 0.21266523 0.838612676
vt 0.220436648 0.84356904
vt 0.21266523 0.838612676
vt 0.206116304 0.844493926
vt 0.205082715 0.839624822
vt 0.213027015 0.84356904
vt 0.205082193 0.839600742
vt 0.213027015 0.843544424
vt 0.212664708 0.838588357
vt 0.206116304 0.844469845
vt 0.212664708 0.838588357
vt 0.220436648 0.843544424
vt 0.220798448 0.838588357
vt 0.213027015 0.843544424
vt 0.220798448 0.838588357
vt 0.227346838 0.844469249
vt 0.228380948 0.839600503
vt 0.220436648 0.843544424
vt 0.226739183 0.851768434
vt 0.212066382 0.859566033
vt 0.221848607 0.859566033
vt 0.212066382 0.843970597
vt 0.221848607 0.843970597
vt 0.207175806 0.851768434
vt 0.228291914 0.853356659
vt 0.228291914 0.842796028
vt 0.224979937 0.848076344
vt 0.238227874 0.848076344
vt 0.234915882 0.853356659
vt 0.234915882 0.842796028
vt 0.228380948 0.839625359
vt 0.220436648 0.84356904
vt 0.220798448 0.838612676
vt 0.227346838 0.844494462
vt 0.220798448 0.838612676
vt 0.213027015 0.84356904
vt 0.21266523 0.838612676
vt 0.220436648 0.84356904
vt 0.21266523 0.838612676
vt 0.206116304 0.844493926
vt 0.205082715 0.839624822
vt 0.213027015 0.84356904
vt 0.205082193 0.839600742
vt 0.213027015 0.843544424
vt 0.212664708 0.838588357
vt 0.206116304 0.844469845
vt 0.212664708 0.838588357
vt 0.220436648 0.843544424
vt 0.220798448 0.838588357
vt 0.213027015 0.843544424
vt 0.220798448 0.838588357
vt 0.227346838 0.844469249
vt 0.228380948 0.839600503
vt 0.220436648 0.843544424
vt 0.226739183 0.851768434
vt 0.212066382 0.859566033
vt 0.221848607 0.859566033
vt 0.212066382 0.843970597
vt 0.221848607 0.843970597
vt 0.207175806 0.851768434
vt 0.228291914 0.853356659
vt 0.228291914 0.842796028
vt 0.224979937 0.848076344
vt 0.238227874 0.848076344
vt 0.234915882 0.853356659
vt 0.234915882 0.842796028
vt 0.228380948 0.839625359
vt 0.220436648 0.84356904
vt 0.220798448 0.838612676
vt 0.227346838 0.844494462
vt 0.220798448 0.838612676
vt 0.213027015 0.84356904
vt 0.21266523 0.838612676
vt 0.220436648 0.84356904
vt 0.21266523 0.838612676
vt 0.206116304 0.844493926
vt 0.205082715 0.839624822
vt 0.213027015 0.84356904
vt 0.205082193 0.839600742
vt 0.213027015 0.843544424
vt 0.212664708 0.838588357
vt 0.206116304 0.844469845
vt 0.212664708 0.838588357
vt 0.220436648 0.843544424
vt 0.220798448 0.838588357
vt 0.213027015 0.843544424
vt 0.220798448 0.838588357
vt 0.227346838 0.844469249
vt 0.228380948 0.839600503
vt 0.220436648 0.843544424
vt 0.226739183 0.851768434
vt 0.212066382 0.859566033
vt 0.221848607 0.859566033
vt 0.212066382 0.843970597
vt 0.221848607 0.843970597
vt 0.207175806 0.851768434
vt 0.211425886 0.828855157
vt 0.232443199 0.821051121
vt 0.207988173 0.821120858
vt 0.228964433 0.828855157
vt 0.200998783 0.839262486
vt 0.247020319 0.835752189
vt 0.193424642 0.835752428
vt 0.239411399 0.839262903
vt 0.20099853 0.85688132
vt 0.247021094 0.86031878
vt 0.193426728 0.860384345
vt 0.239462376 0.856842577
vt 0.211437121 0.867265046
vt 0.232432991 0.874946475
vt 0.208006993 0.874967873
vt 0.228995815 0.867268145
vt 0.201284394 0.896697164
vt 0.195172146 0.915767908
vt 0.20123066 0.91304642
vt 0.195211872 0.893904209
vt 0.208266318 0.928717196
vt 0.211069733 0.886900127
vt 0.211056277 0.92273128
vt 0.208310634 0.880853891
vt 0.230264947 0.928717196
vt 0.227547809 0.886895418
vt 0.227520749 0.92273128
vt 0.230309129 0.880872905
vt 0.243344903 0.915795326
vt 0.237288713 0.896663189
vt 0.237342566 0.91312772
vt 0.243351296 0.893893063
vt 0.228964433 0.828855157
vt 0.207988173 0.821120858
vt 0.211425886 0.828855157
vt 0.232443199 0.821051121
vt 0.193424642 0.835752428
vt 0.239411399 0.839262903
vt 0.200998783 0.839262486
vt 0.247020319 0.835752189
vt 0.193426728 0.860384345
vt 0.239462376 0.856842577
vt 0.20099853 0.85688132
vt 0.247021094 0.86031878
vt 0.208006993 0.874967873
vt 0.228995815 0.867268145
vt 0.211437121 0.867265046
vt 0.232432991 0.874946475
vt 0.237342566 0.91312772
vt 0.243351296 0.893893063
vt 0.237288713 0.896663189
vt 0.243344903 0.915795326
vt 0.230309129 0.880872905
vt 0.227520749 0.92273128
vt 0.227547809 0.886895418
vt 0.230264947 0.928717196
vt 0.208310634 0.880853891
vt 0.211056277 0.92273128
vt 0.211069733 0.886900127
vt 0.208266318 0.928717196
vt 0.195211872 0.893904209
vt 0.20123066 0.91304642
vt 0.201284394 0.896697164
vt 0.195172146 0.915767908
vn 0.382683247 0 0.923879623
vn 0.707106471 1.27938961E-07 0.707107067
vn 0.707106531 1.19899326E-07 0.707107008
vn 0.382683158 0 0.923879623
vn -0.382683158 0 0.923879623
vn -0.382683367 0 0.923879504
vn -0.707106471 -1.37027769E-07 0.707107008
vn -0.707106471 -1.37027769E-07 0.707107008
vn 1 1.69563265E-07 0
vn 1 1.69563293E-07 0
vn 1 1.69563293E-07 0
vn 1 1.69563293E-07 0
vn 0.382683188 0 -0.923879623
vn 0.707106471 1.27938989E-07 -0.707107008
vn 0.707106471 1.19899298E-07 -0.707107008
vn 0.382683158 0 -0.923879623
vn -0.382683218 0 -0.923879623
vn -0.382683218 0 -0.923879623
vn -0.382683218 0 -0.923879623
vn -0.707106471 -1.37027783E-07 -0.707107067
vn -0.707106471 -1.37027783E-07 -0.707107008
vn -0.382683218 0 -0.923879623
vn -1 -1.93786605E-07 0
vn -1 -1.93786619E-07 0
vn -1 -1.93786619E-07 0
vn -1 -1.93786619E-07 0
vn -0 -0.000249015808 -1
vn -0 -0.000249015837 -1
vn -0 -0.000249015837 -1
vn -0 -0.000249015808 -1
vn 0.707106471 -0.000256550265 -0.707106948
vn 0.70710659 -0.000256550324 -0.707106948
vn 0.70710659 -0.000256550265 -0.707106888
vn 0.707106054 -0.000256601837 -0.707107425
vn 1 -0.000248870492 0
vn 1 -0.000248870463 0
vn 1 -0.000248870492 0
vn 1 -0.000248870492 0
vn 0.70710659 -0.000256601779 0.707106948
vn 0.70710659 -0.00025660175 0.707106948
vn 0.70710659 -0.00025660175 0.707106888
vn 0.707107425 -0.000256687519 0.707106054
vn -0 -0.000249015837 1
vn -0 -0.000249015837 1
vn -0 -0.000249015837 1
vn -0 -0.000249015808 1
vn -0.707106769 -0.000256952888 0.707106769
vn -0.707106769 -0.000256952859 0.707106769
vn -0.707106769 -0.000256952859 0.707106769
vn -0.707107604 -0.000256864965 0.707105815
vn -1 -0.000249245932 0
vn -1 -0.000249245932 0
vn -1 -0.000249245961 0
vn -1 -0.000249245961 0
vn -0.707106769 -0.000256865082 -0.707106769
vn -0.707106769 -0.000256865082 -0.707106769
vn -0.707106769 -0.000256865111 -0.707106769
vn -0.707106233 -0.000256815809 -0.707107246
vn 0.38268429 0 0.923879206
vn -0.382684767 0 0.923879027
vn -0.382684708 0 0.923879027
vn 0.382684618 0 0.923879027
vn 0.70710808 0 0.707105398
vn 0.70710808 0 0.707105458
vn 1 0 0
vn 1 0 0
vn 1 0 0
vn 1 0 0
vn -1 0 0
vn -1 0 0
vn -1 0 0
vn -1 0 0
vn -0.382684708 0 0.923879027
vn -0.707108676 0 0.707104802
vn -0.707108676 0 0.707104802
vn -0.382684767 0 0.923879027
vn -0.38268286 -1.62793276E-06 -0.923879743
vn -0.70710814 -5.71872931E-07 -0.707105339
vn -0.70710808 0 -0.707105458
vn -0.382685691 -1.93743335E-06 -0.92387861
vn 0.382683605 0 -0.923879445
vn 0.38268429 0 -0.923879206
vn 0.70710808 0 -0.707105458
vn 0.70710808 0 -0.707105398
vn -0 0.792234302 0.610216975
vn -0 0.792234421 0.610217035
vn -0 0.792234302 0.610216975
vn -0 0.792234242 0.610217035
vn -0 0.792217612 -0.610238612
vn -0 0.792217612 -0.610238612
vn -0 0.792217612 -0.610238612
vn -0 0.792217612 -0.610238612
vn 0.610227823 0.792226017 0
vn 0.610227823 0.792226017 0
vn 0.610227823 0.792226017 0
vn 0.610227823 0.792226017 0
vn -0.610233247 0.792221844 0
vn -0.610233188 0.792221844 0
vn -0.610233247 0.792221844 0
vn -0.610233188 0.792221844 0
vn -0.423230171 0.801095784 0.423227876
vn -0.423230231 0.801095724 0.423227847
vn -0.423230231 0.801095724 0.423227847
vn -0.423224568 0.80110085 0.423223764
vn 0.423224986 0.801100731 0.423223406
vn 0.423224986 0.801100731 0.423223406
vn 0.423224986 0.801100731 0.423223406
vn 0.423226982 0.801098287 0.423226088
vn -0.423235953 0.801089585 -0.423233658
vn -0.423235953 0.801089585 -0.423233569
vn -0.423235953 0.801089585 -0.423233718
vn -0.423240066 0.801084459 -0.423239261
vn 0.423237771 0.80108732 -0.423236251
vn 0.423237741 0.801087379 -0.423236221
vn 0.423237711 0.80108732 -0.423236251
vn 0.423235089 0.801089823 -0.423234165
vn -0.315712035 -0.565134943 0.762199759
vn 0.139987484 -0.9306916 0.337959617
vn 0.315707386 -0.565151334 0.762189567
vn -0.139991924 -0.930686653 0.337971568
vn -0.597491682 -0.534787774 0.597499549
vn -0.337961286 -0.930690885 0.139988586
vn 0.315707386 -0.565151334 0.762189567
vn 0.337954313 -0.930693567 0.139987156
vn 0.597492516 -0.534790993 0.597495914
vn 0.139987484 -0.9306916 0.337959617
vn 0.844986558 -0.534787536 -6.49185324E-07
vn 0.337957889 -0.930692077 -0.139988333
vn 0.844986379 -0.534787774 -7.09938945E-07
vn 0.337954313 -0.930693567 0.139987156
vn 0.139988467 -0.930693626 -0.337953538
vn 0.597493351 -0.534791827 -0.597494245
vn 0.337957889 -0.930692077 -0.139988333
vn 0.315705597 -0.565152466 -0.762189448
vn -0.139987081 -0.930690467 -0.337962985
vn -0.315706968 -0.565135002 -0.762201726
vn -0.33796671 -0.930688977 -0.13998729
vn -0.597496986 -0.534792244 -0.597490191
vn -0.84498626 -0.534787893 -1.29837019E-06
vn -0.337961286 -0.930690885 0.139988586
vn -0.844986618 -0.534787476 -1.41987812E-06
vn -0.33796671 -0.930688977 -0.13998729
vn -0 1 0
vn -0 1 0
vn -0 1 0
vn -0 1 0
vn -0 1 0
vn -0 1 0
vn 0.840778291 -0.122386165 0.527364671
vn 0.840778291 -0.12238618 0.527364731
vn 0.840778291 -0.122386187 0.527364731
vn 0.840778172 -0.122385807 0.52736491
vn -0 -0.115258098 0.993335605
vn -0 -0.115258098 0.993335605
vn -0 -0.115258098 0.993335605
vn -0 -0.115258098 0.993335605
vn -0.840776861 -0.122400142 0.527363837
vn -0.840776861 -0.122400142 0.527363837
vn -0.840776861 -0.122400142 0.527363837
vn -0.840783656 -0.122385591 0.527356267
vn -0.840775728 -0.122410074 -0.527363122
vn -0.840775728 -0.122410074 -0.527363062
vn -0.840775728 -0.122410074 -0.527363122
vn -0.840773046 -0.122399583 -0.527369857
vn -0 -0.115303196 -0.9933303
vn -0 -0.115303189 -0.9933303
vn -0 -0.115303181 -0.9933303
vn -0 -0.115303181 -0.9933303
vn 0.840778351 -0.122385852 -0.527364731
vn 0.840778351 -0.122385852 -0.527364731
vn 0.840778351 -0.122385852 -0.527364731
vn 0.84076649 -0.12241111 -0.527377725
vn -0 -1 0
vn -0 -1 0
vn -0 -1 0
vn -0 -1 0
vn -0 -1 0
vn -0 -1 0
vn -0 1 0
vn -0 1 0
vn -0 1 0
vn -0 1 0
vn -0 1 0
vn -0 1 0
vn 0.840778291 -0.122386165 0.527364671
vn 0.840778291 -0.12238618 0.527364731
vn 0.840778291 -0.122386187 0.527364731
vn 0.840778172 -0.122385807 0.52736491
vn -0 -0.115258098 0.993335605
vn -0 -0.115258098 0.993335605
vn -0 -0.115258098 0.993335605
vn -0 -0.115258098 0.993335605
vn -0.840776861 -0.122400142 0.527363837
vn -0.840776861 -0.122400142 0.527363837
vn -0.840776861 -0.122400142 0.527363837
vn -0.840783656 -0.122385591 0.527356267
vn -0.840778291 -0.122386165 -0.527364671
vn -0.840778291 -0.12238618 -0.527364731
vn -0.840778291 -0.122386187 -0.527364731
vn -0.840782046 -0.122400895 -0.527355313
vn -0 -0.115258098 -0.993335605
vn -0 -0.115258098 -0.993335605
vn -0 -0.115258098 -0.993335605
vn -0 -0.115258098 -0.993335605
vn 0.840778351 -0.122385852 -0.527364731
vn 0.840778351 -0.122385852 -0.527364731
vn 0.840778351 -0.122385852 -0.527364731
vn 0.840778172 -0.122386195 -0.52736485
vn -0 -1 0
vn -0 -1 0
vn -0 -1 0
vn -0 -1 0
vn -0 -1 0
vn -0 -1 0
vn -0 1 0
vn -0 1 0
vn -0 1 0
vn -0 1 0
vn -0 1 0
vn -0 1 0
vn -0.527369678 -0.122395523 0.840773821
vn -0.527369738 -0.122395538 0.840773821
vn -0.527369678 -0.122395523 0.840773821
vn -0.52737534 -0.122386649 0.840771556
vn -0.993333638 -0.115274996 0
vn -0.993333638 -0.115274996 0
vn -0.993333638 -0.115275003 0
vn -0.993333638 -0.115275018 0
vn -0.527350366 -0.122391842 -0.840786457
vn -0.527350485 -0.122391842 -0.840786397
vn -0.527350366 -0.122391842 -0.840786457
vn -0.527351677 -0.122394286 -0.840785265
vn 0.527353764 -0.122391425 -0.840784371
vn 0.527353823 -0.122391447 -0.840784371
vn 0.527353823 -0.122391447 -0.840784371
vn 0.527353585 -0.122391559 -0.840784431
vn 0.993334174 -0.115269363 0
vn 0.993334174 -0.115269355 0
vn 0.993334174 -0.115269363 0
vn 0.993334174 -0.115269363 0
vn 0.527376473 -0.122392505 0.840770006
vn 0.527376473 -0.122392483 0.840769947
vn 0.527376473 -0.122392505 0.840769947
vn 0.527376711 -0.122393034 0.840769708
vn -0 -1 0
vn -0 -1 0
vn -0 -1 0
vn -0 -1 0
vn -0 -1 0
vn -0 -1 0
vn -0 1 0
vn -0 1 0
vn -0 1 0
vn -0 1 0
vn -0 1 0
vn -0 1 0
vn -0.527371109 -0.122398637 0.84077239
vn -0.527371109 -0.122398637 0.84077239
vn -0.527371109 -0.122398622 0.84077239
vn -0.527377009 -0.122389503 0.840770125
vn -0.993332922 -0.115280643 0
vn -0.993332922 -0.115280651 0
vn -0.993332922 -0.115280636 0
vn -0.993332922 -0.115280643 0
vn -0.527350366 -0.122391842 -0.840786457
vn -0.527350485 -0.122391842 -0.840786397
vn -0.527350366 -0.122391842 -0.840786457
vn -0.527353227 -0.122397393 -0.840783834
vn 0.527350068 -0.122397192 -0.840785861
vn 0.527350068 -0.122397192 -0.840785861
vn 0.527350128 -0.122397199 -0.840785861
vn 0.527353585 -0.122391559 -0.840784431
vn 0.993332922 -0.115280643 0
vn 0.993332922 -0.115280651 0
vn 0.993332922 -0.115280636 0
vn 0.993332922 -0.115280643 0
vn 0.527371705 -0.122389935 0.840773284
vn 0.527371705 -0.12238995 0.840773284
vn 0.527371764 -0.12238995 0.840773284
vn 0.527376294 -0.122399002 0.840769112
vn -0 -1 0
vn -0 -1 0
vn -0 -1 0
vn -0 -1 0
vn -0 -1 0
vn -0 -1 0
vn -0 1 0
vn -0 1 0
vn -0 1 0
vn -0 1 0
vn -0 1 0
vn -0 1 0
vn 0.967417777 -0.122415952 -0.221624002
vn 0.967417777 -0.122415952 -0.221623987
vn 0.967417777 -0.122415952 -0.221623987
vn 0.967420101 -0.12240734 -0.221618459
vn 0.702393413 -0.115269378 0.702393413
vn 0.702393413 -0.115269378 0.702393413
vn 0.702393413 -0.115269355 0.702393413
vn 0.702387214 -0.115252666 0.702402353
vn -0.221624941 -0.122380838 0.967422009
vn -0.221624911 -0.122380838 0.967422009
vn -0.221624911 -0.122380823 0.967422009
vn -0.221622631 -0.122384116 0.967422128
vn -0.96742022 -0.122395866 0.221624509
vn -0.96742022 -0.122395866 0.221624509
vn -0.96742022 -0.122395866 0.221624523
vn -0.967419624 -0.122397825 0.221625715
vn -0.702379465 -0.115270756 -0.702407122
vn -0.702379465 -0.115270756 -0.702407122
vn -0.702379465 -0.115270756 -0.702407122
vn -0.702397048 -0.115317963 -0.70238179
vn 0.221595794 -0.122422479 -0.96742332
vn 0.221595794 -0.122422464 -0.96742332
vn 0.221595794 -0.122422494 -0.96742332
vn 0.221622631 -0.122384116 -0.967422128
vn -0 -1 0
vn -0 -1 0
vn -0 -1 0
vn -0 -1 0
vn -0 -1 0
vn -0 -1 0
vn -0 1 0
vn -0 1 0
vn -0 1 0
vn -0 1 0
vn -0 1 0
vn -0 1 0
vn 0.967421114 -0.122395158 -0.221621051
vn 0.967421114 -0.122395158 -0.221621037
vn 0.967421114 -0.122395158 -0.221621037
vn 0.967420459 -0.122397609 -0.221622631
vn 0.702392459 -0.115301058 0.702389121
vn 0.702392459 -0.11530108 0.702389121
vn 0.702392519 -0.11530108 0.702389061
vn 0.702383339 -0.115276396 0.702402353
vn -0.221623749 -0.12242344 0.967416883
vn -0.221623734 -0.12242344 0.967416883
vn -0.221623734 -0.12242344 0.967416883
vn -0.2216205 -0.122427985 0.967416942
vn -0.967421114 -0.122395158 0.221621051
vn -0.967421114 -0.122395158 0.221621037
vn -0.967421114 -0.122395158 0.221621037
vn -0.967419088 -0.1224024 0.221625626
vn -0.70239377 -0.115265362 -0.70239377
vn -0.70239377 -0.115265362 -0.70239377
vn -0.70239377 -0.115265362 -0.70239377
vn -0.70239836 -0.115277916 -0.702386975
vn 0.221625715 -0.122380912 -0.96742177
vn 0.221625671 -0.122380883 -0.96742177
vn 0.221625715 -0.122380912 -0.96742177
vn 0.221622571 -0.122385353 -0.967422009
vn -0 -1 0
vn -0 -1 0
vn -0 -1 0
vn -0 -1 0
vn -0 -1 0
vn -0 -1 0
vn -0 1 0
vn -0 1 0
vn -0 1 0
vn -0 1 0
vn -0 1 0
vn -0 1 0
vn 0.221624866 -0.12238273 0.96742177
vn 0.221624836 -0.12238273 0.96742177
vn 0.221624866 -0.12238273 0.96742177
vn 0.221622735 -0.122379407 0.967422664
vn -0.702396452 -0.115253612 0.702392936
vn -0.702396452 -0.115253612 0.702392936
vn -0.702396452 -0.115253605 0.702392936
vn -0.702385426 -0.115274124 0.702400565
vn -0.967418969 -0.122413009 -0.221620545
vn -0.967418969 -0.122412995 -0.221620545
vn -0.967418969 -0.122413009 -0.221620545
vn -0.967418969 -0.122416295 -0.22161825
vn -0.221596077 -0.122384474 -0.967428148
vn -0.221596062 -0.122384444 -0.967428148
vn -0.221596062 -0.122384444 -0.967428148
vn -0.221622363 -0.122425832 -0.967416883
vn 0.70237571 -0.115315787 -0.702403426
vn 0.70237571 -0.115315795 -0.702403426
vn 0.70237577 -0.115315795 -0.702403426
vn 0.702398837 -0.11527276 -0.702387393
vn 0.967419744 -0.122392535 0.2216281
vn 0.967419744 -0.122392535 0.221628085
vn 0.967419744 -0.122392535 0.2216281
vn 0.967419982 -0.122395776 0.221625805
vn -0 -1 0
vn -0 -1 0
vn -0 -1 0
vn -0 -1 0
vn -0 -1 0
vn -0 -1 0
vn -0 1 0
vn -0 1 0
vn -0 1 0
vn -0 1 0
vn -0 1 0
vn -0 1 0
vn 0.221623644 -0.122427836 0.967416406
vn 0.221623644 -0.122427836 0.967416406
vn 0.221623614 -0.122427836 0.967416406
vn 0.221621513 -0.122424498 0.9674173
vn -0.702392101 -0.1152853 0.702392101
vn -0.702392101 -0.1152853 0.702392101
vn -0.702392101 -0.115285285 0.702392101
vn -0.702383101 -0.115302019 0.7023983
vn -0.967419982 -0.122397751 -0.221624479
vn -0.967419982 -0.122397736 -0.221624479
vn -0.967419982 -0.122397736 -0.221624479
vn -0.96742022 -0.122406229 -0.221618488
vn -0.221624851 -0.122384012 -0.967421651
vn -0.221624836 -0.122383997 -0.967421651
vn -0.221624836 -0.122383982 -0.967421651
vn -0.221622705 -0.122380674 -0.967422545
vn 0.702392101 -0.1152853 -0.702392101
vn 0.702392101 -0.1152853 -0.702392101
vn 0.702392101 -0.115285285 -0.702392101
vn 0.702401102 -0.11526861 -0.702385843
vn 0.96741873 -0.122407787 0.221624181
vn 0.96741873 -0.122407801 0.221624181
vn 0.96741873 -0.122407801 0.221624181
vn 0.967418671 -0.12240582 0.221625462
vn -0 -1 0
vn -0 -1 0
vn -0 -1 0
vn -0 -1 0
vn -0 -1 0
vn -0 -1 0
vn -0.337961286 -0.930690885 0.139988586
vn -1.89779294E-05 -1 -4.0660525E-06
vn -1.25125762E-05 -1 4.05633727E-06
vn -0.33796671 -0.930688977 -0.13998729
vn -0.139991924 -0.930686653 0.337971568
vn -2.11666907E-06 -1 -1.74185175E-06
vn -4.07815378E-06 -1 1.14691529E-05
vn -0.139987081 -0.930690467 -0.337962985
vn 0.139987484 -0.9306916 0.337959617
vn 2.63001016E-06 -1 9.44217561E-07
vn 1.49639425E-06 -1 5.59390583E-06
vn 0.139988467 -0.930693626 -0.337953538
vn 0.337954313 -0.930693567 0.139987156
vn 5.10350446E-06 -1 -2.53919688E-06
vn 2.76157522E-07 -1 9.8675639E-07
vn 0.337957889 -0.930692077 -0.139988333
vn -1.54218435E-06 -1 0
vn -1.54218435E-06 -1 0
vn -1.54218435E-06 -1 0
vn -1.54218435E-06 -1 0
vn 4.20088242E-07 -1 1.92390488E-07
vn 5.59747662E-07 -1 -2.56351171E-07
vn 4.20088185E-07 -1 1.92390459E-07
vn 4.20088242E-07 -1 1.92390658E-07
vn 4.20088242E-07 -1 1.92390502E-07
vn 4.20088242E-07 -1 1.92390615E-07
vn 5.59747548E-07 -1 -2.5635137E-07
vn 4.20088242E-07 -1 1.9239063E-07
vn -0 -1 0
vn -0 -1 0
vn -0 -1 0
vn -0 -1 0
vn 5.94375524E-06 1 -2.36463484E-06
vn 5.88862213E-06 1 2.48494598E-06
vn 5.94374978E-06 1 2.36458823E-06
vn 5.88865078E-06 1 -2.4849478E-06
vn 2.4849619E-06 1 5.88863759E-06
vn 6.52775213E-07 1 -6.72776014E-06
vn 2.04464322E-06 1 5.12820134E-06
vn 1.39033432E-06 1 -5.27495513E-06
vn -1.09462826E-06 1 6.1369326E-07
vn -3.19970979E-07 1 -8.15547821E-07
vn -1.71182398E-06 1 -7.83979658E-07
vn -0 1 0
vn -0 1 0
vn -0 1 0
vn -0 1 0
vn -0 1 0
vn -0 1 0
vn -0 1 0
vn 1.7870791E-06 1 -5.612265E-07
vn -0 1 0
vn -0 1 0
vn -1.1224538E-06 1 -5.14058456E-07
vn -0 1 0
vn -0 1 3.06010702E-06
vn -0 1 0
vn -0 1 3.06010702E-06
vn -0 1 0
vn -0 1 3.06010702E-06
vn 4.59016019E-06 1 0
vn 2.8030754E-06 1 5.612265E-07
vn 4.59016019E-06 1 0
vn 4.59016019E-06 1 0
g P_Vert_OneCap_0
f 3/3/3 2/2/2 1/1/1
f 4/4/4 1/1/1 2/2/2
f 1/1/1 4/4/4 5/5/5
f 6/6/6 5/5/5 4/4/4
f 5/5/5 6/6/6 7/7/7
f 8/8/8 7/7/7 6/6/6
f 11/11/11 10/10/10 9/9/9
f 12/12/12 9/9/9 10/10/10
f 15/15/15 14/14/14 13/13/13
f 16/16/16 13/13/13 14/14/14
f 13/13/13 16/16/16 17/17/17
f 18/18/18 17/17/17 16/16/16
f 21/21/21 20/20/20 19/19/19
f 22/22/22 19/19/19 20/20/20
f 25/25/25 24/24/24 23/23/23
f 26/26/26 23/23/23 24/24/24
f 29/29/29 28/28/28 27/27/27
f 30/30/30 27/27/27 28/28/28
f 33/33/33 32/32/32 31/31/31
f 34/34/34 31/31/31 32/32/32
f 37/37/37 36/36/36 35/35/35
f 38/38/38 35/35/35 36/36/36
f 41/41/41 40/40/40 39/39/39
f 42/42/42 39/39/39 40/40/40
f 45/45/45 44/44/44 43/43/43
f 46/46/46 43/43/43 44/44/44
f 49/49/49 48/48/48 47/47/47
f 50/50/50 47/47/47 48/48/48
f 53/53/53 52/52/52 51/51/51
f 54/54/54 51/51/51 52/52/52
f 57/57/57 56/56/56 55/55/55
f 58/58/58 55/55/55 56/56/56
f 61/61/61 60/60/60 59/59/59
f 62/62/62 59/59/59 60/60/60
f 59/59/59 62/62/62 63/63/63
f 64/64/64 63/63/63 62/62/62
f 67/67/67 66/66/66 65/65/65
f 68/68/68 65/65/65 66/66/66
f 71/71/71 70/70/70 69/69/69
f 72/72/72 69/69/69 70/70/70
f 75/75/75 74/74/74 73/73/73
f 76/76/76 73/73/73 74/74/74
f 79/79/79 78/78/78 77/77/77
f 80/80/80 77/77/77 78/78/78
f 77/77/77 80/80/80 81/81/81
f 82/82/82 81/81/81 80/80/80
f 81/81/81 82/82/82 83/83/83
f 84/84/84 83/83/83 82/82/82
f 87/87/87 86/86/86 85/85/85
f 88/88/88 85/85/85 86/86/86
f 91/91/91 90/90/90 89/89/89
f 92/92/92 89/89/89 90/90/90
f 95/95/95 94/94/94 93/93/93
f 96/96/96 93/93/93 94/94/94
f 99/99/99 98/98/98 97/97/97
f 100/100/100 97/97/97 98/98/98
f 103/103/103 102/102/102 101/101/101
f 104/104/104 101/101/101 102/102/102
f 107/107/107 106/106/106 105/105/105
f 108/108/108 105/105/105 106/106/106
f 111/111/111 110/110/110 109/109/109
f 112/112/112 109/109/109 110/110/110
f 115/115/115 114/114/114 113/113/113
f 116/116/116 113/113/113 114/114/114
f 119/119/119 118/118/118 117/117/117
f 120/120/120 117/117/117 118/118/118
f 117/117/117 120/120/120 121/121/121
f 122/122/122 121/121/121 120/120/120
f 125/125/125 124/124/124 123/123/123
f 126/126/126 123/123/123 124/124/124
f 129/129/129 128/128/128 127/127/127
f 130/130/130 127/127/127 128/128/128
f 133/133/133 132/132/132 131/131/131
f 134/134/134 131/131/131 132/132/132
f 131/131/131 134/134/134 135/135/135
f 136/136/136 135/135/135 134/134/134
f 135/135/135 136/136/136 137/137/137
f 138/138/138 137/137/137 136/136/136
f 141/141/141 140/140/140 139/139/139
f 142/142/142 139/139/139 140/140/140
f 145/145/145 144/144/144 143/143/143
f 144/144/144 146/146/146 143/143/143
f 143/143/143 146/146/146 147/147/147
f 148/148/148 146/146/146 144/144/144
f 151/151/151 150/150/150 149/149/149
f 152/152/152 149/149/149 150/150/150
f 155/155/155 154/154/154 153/153/153
f 156/156/156 153/153/153 154/154/154
f 159/159/159 158/158/158 157/157/157
f 160/160/160 157/157/157 158/158/158
f 163/163/163 162/162/162 161/161/161
f 164/164/164 161/161/161 162/162/162
f 167/167/167 166/166/166 165/165/165
f 168/168/168 165/165/165 166/166/166
f 171/171/171 170/170/170 169/169/169
f 172/172/172 169/169/169 170/170/170
f 175/175/175 174/174/174 173/173/173
f 174/174/174 176/176/176 173/173/173
f 173/173/173 176/176/176 177/177/177
f 178/178/178 176/176/176 174/174/174
f 181/181/181 180/180/180 179/179/179
f 180/180/180 182/182/182 179/179/179
f 179/179/179 182/182/182 183/183/183
f 184/184/184 182/182/182 180/180/180
f 187/187/187 186/186/186 185/185/185
f 188/188/188 185/185/185 186/186/186
f 191/191/191 190/190/190 189/189/189
f 192/192/192 189/189/189 190/190/190
f 195/195/195 194/194/194 193/193/193
f 196/196/196 193/193/193 194/194/194
f 199/199/199 198/198/198 197/197/197
f 200/200/200 197/197/197 198/198/198
f 203/203/203 202/202/202 201/201/201
f 204/204/204 201/201/201 202/202/202
f 207/207/207 206/206/206 205/205/205
f 208/208/208 205/205/205 206/206/206
f 211/211/211 210/210/210 209/209/209
f 210/210/210 212/212/212 209/209/209
f 209/209/209 212/212/212 213/213/213
f 214/214/214 212/212/212 210/210/210
f 217/217/217 216/216/216 215/215/215
f 216/216/216 218/218/218 215/215/215
f 215/215/215 218/218/218 219/219/219
f 220/220/220 218/218/218 216/216/216
f 223/223/223 222/222/222 221/221/221
f 224/224/224 221/221/221 222/222/222
f 227/227/227 226/226/226 225/225/225
f 228/228/228 225/225/225 226/226/226
f 231/231/231 230/230/230 229/229/229
f 232/232/232 229/229/229 230/230/230
f 235/235/235 234/234/234 233/233/233
f 236/236/236 233/233/233 234/234/234
f 239/239/239 238/238/238 237/237/237
f 240/240/240 237/237/237 238/238/238
f 243/243/243 242/242/242 241/241/241
f 244/244/244 241/241/241 242/242/242
f 247/247/247 246/246/246 245/245/245
f 246/246/246 248/248/248 245/245/245
f 245/245/245 248/248/248 249/249/249
f 250/250/250 248/248/248 246/246/246
f 253/253/253 252/252/252 251/251/251
f 252/252/252 254/254/254 251/251/251
f 251/251/251 254/254/254 255/255/255
f 256/256/256 254/254/254 252/252/252
f 259/259/259 258/258/258 257/257/257
f 260/260/260 257/257/257 258/258/258
f 263/263/263 262/262/262 261/261/261
f 264/264/264 261/261/261 262/262/262
f 267/267/267 266/266/266 265/265/265
f 268/268/268 265/265/265 266/266/266
f 271/271/271 270/270/270 269/269/269
f 272/272/272 269/269/269 270/270/270
f 275/275/275 274/274/274 273/273/273
f 276/276/276 273/273/273 274/274/274
f 279/279/279 278/278/278 277/277/277
f 280/280/280 277/277/277 278/278/278
f 283/283/283 282/282/282 281/281/281
f 282/282/282 284/284/284 281/281/281
f 281/281/281 284/284/284 285/285/285
f 286/286/286 284/284/284 282/282/282
f 289/289/289 288/288/288 287/287/287
f 288/288/288 290/290/290 287/287/287
f 287/287/287 290/290/290 291/291/291
f 292/292/292 290/290/290 288/288/288
f 295/295/295 294/294/294 293/293/293
f 296/296/296 293/293/293 294/294/294
f 299/299/299 298/298/298 297/297/297
f 300/300/300 297/297/297 298/298/298
f 303/303/303 302/302/302 301/301/301
f 304/304/304 301/301/301 302/302/302
f 307/307/307 306/306/306 305/305/305
f 308/308/308 305/305/305 306/306/306
f 311/311/311 310/310/310 309/309/309
f 312/312/312 309/309/309 310/310/310
f 315/315/315 314/314/314 313/313/313
f 316/316/316 313/313/313 314/314/314
f 319/319/319 318/318/318 317/317/317
f 318/318/318 320/320/320 317/317/317
f 317/317/317 320/320/320 321/321/321
f 322/322/322 320/320/320 318/318/318
f 325/325/325 324/324/324 323/323/323
f 324/324/324 326/326/326 323/323/323
f 323/323/323 326/326/326 327/327/327
f 328/328/328 326/326/326 324/324/324
f 331/331/331 330/330/330 329/329/329
f 332/332/332 329/329/329 330/330/330
f 335/335/335 334/334/334 333/333/333
f 336/336/336 333/333/333 334/334/334
f 339/339/339 338/338/338 337/337/337
f 340/340/340 337/337/337 338/338/338
f 343/343/343 342/342/342 341/341/341
f 344/344/344 341/341/341 342/342/342
f 347/347/347 346/346/346 345/345/345
f 348/348/348 345/345/345 346/346/346
f 351/351/351 350/350/350 349/349/349
f 352/352/352 349/349/349 350/350/350
f 355/355/355 354/354/354 353/353/353
f 354/354/354 356/356/356 353/353/353
f 353/353/353 356/356/356 357/357/357
f 358/358/358 356/356/356 354/354/354
f 361/361/361 360/360/360 359/359/359
f 360/360/360 362/362/362 359/359/359
f 359/359/359 362/362/362 363/363/363
f 364/364/364 362/362/362 360/360/360
f 367/367/367 366/366/366 365/365/365
f 368/368/368 365/365/365 366/366/366
f 371/371/371 370/370/370 369/369/369
f 372/372/372 369/369/369 370/370/370
f 375/375/375 374/374/374 373/373/373
f 376/376/376 373/373/373 374/374/374
f 379/379/379 378/378/378 377/377/377
f 380/380/380 377/377/377 378/378/378
f 383/383/383 382/382/382 381/381/381
f 384/384/384 381/381/381 382/382/382
f 387/387/387 386/386/386 385/385/385
f 388/388/388 385/385/385 386/386/386
f 391/391/391 390/390/390 389/389/389
f 390/390/390 392/392/392 389/389/389
f 389/389/389 392/392/392 393/393/393
f 394/394/394 392/392/392 390/390/390
f 397/397/397 396/396/396 395/395/395
f 396/396/396 398/398/398 395/395/395
f 395/395/395 398/398/398 399/399/399
f 400/400/400 398/398/398 396/396/396
f 403/403/403 402/402/402 401/401/401
f 404/404/404 401/401/401 402/402/402
f 407/407/407 406/406/406 405/405/405
f 408/408/408 405/405/405 406/406/406
f 411/411/411 410/410/410 409/409/409
f 412/412/412 409/409/409 410/410/410
f 415/415/415 414/414/414 413/413/413
f 416/416/416 413/413/413 414/414/414
f 419/419/419 418/418/418 417/417/417
f 420/420/420 417/417/417 418/418/418
f 423/423/423 422/422/422 421/421/421
f 424/424/424 421/421/421 422/422/422
f 427/427/427 426/426/426 425/425/425
f 426/426/426 428/428/428 425/425/425
f 425/425/425 428/428/428 429/429/429
f 430/430/430 428/428/428 426/426/426
f 433/433/433 432/432/432 431/431/431
f 434/434/434 431/431/431 432/432/432
f 431/431/431 435/435/435 433/433/433
f 432/432/432 436/436/436 434/434/434
f 437/437/437 433/433/433 435/435/435
f 438/438/438 434/434/434 436/436/436
f 435/435/435 439/439/439 437/437/437
f 436/436/436 440/440/440 438/438/438
f 441/441/441 437/437/437 439/439/439
f 442/442/442 438/438/438 440/440/440
f 439/439/439 443/443/443 441/441/441
f 440/440/440 444/444/444 442/442/442
f 445/445/445 441/441/441 443/443/443
f 446/446/446 442/442/442 444/444/444
f 443/443/443 446/446/446 445/445/445
f 444/444/444 445/445/445 446/446/446
f 449/449/449 448/448/448 447/447/447
f 450/450/450 447/447/447 448/448/448
f 448/448/448 449/449/449 451/451/451
f 447/447/447 450/450/450 452/452/452
f 453/453/453 451/451/451 449/449/449
f 454/454/454 452/452/452 450/450/450
f 451/451/451 453/453/453 455/455/455
f 452/452/452 454/454/454 456/456/456
f 457/457/457 455/455/455 453/453/453
f 458/458/458 456/456/456 454/454/454
f 455/455/455 457/457/457 459/459/459
f 456/456/456 458/458/458 460/460/460
f 461/461/461 459/459/459 457/457/457
f 462/462/462 460/460/460 458/458/458
f 459/459/459 461/461/461 462/462/462
f 460/460/460 462/462/462 461/461/461
f 465/465/465 464/464/464 463/463/463
f 466/466/466 463/463/463 464/464/464
f 464/464/464 465/465/465 467/467/467
f 463/463/463 466/466/466 468/468/468
f 469/469/469 467/467/467 465/465/465
f 470/470/470 468/468/468 466/466/466
f 467/467/467 469/469/469 471/471/471
f 468/468/468 470/470/470 472/472/472
f 473/473/473 471/471/471 469/469/469
f 474/474/474 472/472/472 470/470/470
f 471/471/471 473/473/473 475/475/475
f 472/472/472 474/474/474 476/476/476
f 477/477/477 475/475/475 473/473/473
f 478/478/478 476/476/476 474/474/474
f 475/475/475 477/477/477 478/478/478
f 476/476/476 478/478/478 477/477/477
f 481/481/481 480/480/480 479/479/479
f 482/482/482 479/479/479 480/480/480
f 480/480/480 481/481/481 483/483/483
f 479/479/479 482/482/482 484/484/484
f 485/485/485 483/483/483 481/481/481
f 486/486/486 484/484/484 482/482/482
f 483/483/483 485/485/485 487/487/487
f 484/484/484 486/486/486 488/488/488
f 489/489/489 487/487/487 485/485/485
f 490/490/490 488/488/488 486/486/486
f 487/487/487 489/489/489 491/491/491
f 488/488/488 490/490/490 492/492/492
f 493/493/493 491/491/491 489/489/489
f 494/494/494 492/492/492 490/490/490
f 491/491/491 493/493/493 494/494/494
f 492/492/492 494/494/494 493/493/493
