g P_T_Vert
v 0.0872049853 -0.329514533 0.0872040763
v 0.0476950072 -0.369024664 0.0872039795
v 0.0872057676 -0.369024485 0.0476940908
v 0.0476950072 -0.194619462 0.0872040763
v 0.0872049853 -0.234129652 0.0872040763
v 0.0872057676 -0.194619521 0.0476942807
v -0.0872000456 -0.234129593 0.0872040763
v -0.0476900674 -0.194619462 0.0872040763
v -0.0871992782 -0.194619477 0.0476941764
v -0.0476898663 -0.369024664 0.0872039795
v -0.0872000456 -0.329514444 0.0872040763
v -0.0871992782 -0.369024664 0.0476941876
v -0.0871998593 -0.329514444 -0.0872010216
v -0.0476896763 -0.369024456 -0.0872010663
v -0.0871992782 -0.369024664 -0.047690697
v -0.0476898663 -0.194619521 -0.0872010663
v -0.0871998593 -0.234129593 -0.0872010216
v -0.0871992782 -0.194619477 -0.047690697
v 0.0872051865 -0.234129652 -0.0872010216
v 0.0476950072 -0.194619521 -0.0872010663
v 0.0872057676 -0.194619521 -0.0476905964
v 0.0476951972 -0.369024456 -0.0872010663
v 0.0872051865 -0.329514533 -0.0872010216
v 0.0872057676 -0.369024605 -0.047690697
v -0.0761732087 -0.420247018 0.112501658
v -0.0505520999 -0.429238737 0.0505568869
v -0.112496965 -0.420247018 0.076178208
v -0.112496965 -0.420247018 -0.0761749074
v -0.0505520999 -0.429238617 -0.0505535975
v -0.0761732087 -0.420247018 -0.112498321
v 0.0761795044 -0.420247078 -0.112498358
v 0.0505583957 -0.429238617 -0.0505535975
v 0.112503067 -0.420246959 -0.0761748105
v 0.11250326 -0.420247018 0.076178208
v 0.0505583957 -0.429238737 0.0505568869
v 0.0761795044 -0.420247018 0.112501658
v 0.138428032 -0.205645531 -0.112498365
v 0.14741993 -0.231266648 -0.0505535975
v 0.138428032 -0.169322029 -0.0761748999
v 0.138428032 -0.169322029 0.0761781931
v 0.147419721 -0.231266648 0.0505568981
v 0.138428032 -0.205645531 0.112501658
v 0.138428032 -0.35799849 0.112501658
v 0.147419721 -0.332377166 0.0505568869
v 0.138428032 -0.394321978 0.076178208
v 0.138428032 -0.394322038 -0.0761748999
v 0.14741993 -0.332377136 -0.0505535975
v 0.138428032 -0.35799849 -0.112498365
v -0.138421729 -0.205645636 0.112501658
v -0.147413433 -0.231266841 0.0505568981
v -0.138421729 -0.169322118 0.0761781931
v -0.138421729 -0.169322118 -0.0761748999
v -0.147413433 -0.231266841 -0.0505535975
v -0.138421729 -0.205645636 -0.112498321
v -0.138421729 -0.35799858 -0.112498321
v -0.147413433 -0.332377315 -0.0505535975
v -0.138421729 -0.394322038 -0.0761748031
v -0.138421729 -0.394322157 0.076178208
v -0.147413433 -0.332377315 0.0505568869
v -0.138421729 -0.35799858 0.112501658
v -0.112496965 -0.420247018 0.076178208
v -0.112496965 -0.420247018 -0.0761749074
v -0.138421729 -0.394322038 -0.0761748031
v -0.138421729 -0.394322157 0.076178208
v -0.0761732087 -0.420247018 -0.112498321
v 0.0761795044 -0.420247078 -0.112498358
v 0.0761787295 -0.394321978 -0.138423666
v -0.0761743709 -0.394321978 -0.138423666
v 0.112503067 -0.420246959 -0.0761748105
v 0.11250326 -0.420247018 0.076178208
v 0.138428032 -0.394321978 0.076178208
v 0.138428032 -0.394322038 -0.0761748999
v 0.0761795044 -0.420247018 0.112501658
v -0.0761732087 -0.420247018 0.112501658
v -0.0761745647 -0.394322038 0.138426334
v 0.0761783421 -0.394322038 0.138426334
v -0.0761734024 -0.143397063 0.112501658
v 0.0761795044 -0.143397063 0.112501658
v 0.0761783421 -0.169322044 0.138426334
v -0.0761739835 -0.169322044 0.138426527
v 0.112503067 -0.143397063 0.0761781931
v 0.112503067 -0.143397063 -0.0761748999
v 0.138428032 -0.169322029 -0.0761748999
v 0.138428032 -0.169322029 0.0761781931
v 0.0761795044 -0.143397063 -0.112498358
v -0.0761734024 -0.143397063 -0.112498358
v -0.0761743709 -0.169321954 -0.138423666
v 0.0761787295 -0.169321954 -0.138423666
v -0.112496965 -0.143397063 -0.0761748999
v -0.112496965 -0.143397063 0.0761781931
v -0.138421729 -0.169322118 0.0761781931
v -0.138421729 -0.169322118 -0.0761748999
v 0.138428032 -0.205645531 0.112501658
v 0.138428032 -0.35799849 0.112501658
v 0.112502098 -0.35799852 0.138426334
v 0.112502098 -0.205645531 0.138426334
v 0.100395471 -0.181429893 0.100393876
v 0.0761783421 -0.169322044 0.138426334
v 0.138428032 -0.169322029 0.0761781931
v 0.0761795044 -0.143397063 0.112501658
v 0.112503067 -0.143397063 0.0761781931
v -0.138421729 -0.35799858 0.112501658
v -0.138421729 -0.205645636 0.112501658
v -0.112498119 -0.205645531 0.138426334
v -0.112498119 -0.35799852 0.138426334
v 0.138428032 -0.35799849 -0.112498365
v 0.138428032 -0.205645531 -0.112498365
v 0.112502098 -0.205645517 -0.138423622
v 0.112502098 -0.357998431 -0.138423666
v 0.100395471 -0.382214278 -0.100390524
v 0.0761787295 -0.394321978 -0.138423666
v 0.138428032 -0.394322038 -0.0761748999
v 0.0761795044 -0.420247078 -0.112498358
v 0.112503067 -0.420246959 -0.0761748105
v -0.138421729 -0.205645636 -0.112498321
v -0.138421729 -0.35799858 -0.112498321
v -0.112497926 -0.357998431 -0.138423666
v -0.112497926 -0.205645487 -0.138423666
v -0.100388981 -0.181429878 -0.100390524
v -0.0761743709 -0.169321954 -0.138423666
v -0.138421729 -0.169322118 -0.0761748999
v -0.0761734024 -0.143397063 -0.112498358
v -0.112496965 -0.143397063 -0.0761748999
v 0.0761795044 -0.143397063 -0.112498358
v -0.0761734024 -0.112635545 -0.112498358
v -0.0761734024 -0.143397063 -0.112498358
v 0.0761795044 -0.112635545 -0.112498358
v 0.112503067 -0.143397063 -0.0761748999
v 0.112503067 -0.112635545 -0.0761749074
v 0.112503067 -0.143397063 0.0761781931
v 0.112503067 -0.112635545 0.0761781931
v 0.0761795044 -0.112635531 0.112501658
v 0.0761795044 -0.143397063 0.112501658
v -0.0761734024 -0.143397063 0.112501658
v -0.0761734024 -0.112635531 0.112501658
v -0.112496965 -0.143397063 0.0761781931
v -0.112496965 -0.112635545 0.0761781931
v -0.112496965 -0.143397063 -0.0761748999
v -0.112496965 -0.112635545 -0.0761749074
v -0.0761734024 -0.143397063 -0.112498358
v -0.0761734024 -0.112635545 -0.112498358
v 0.0699227154 -0.0929410085 -0.140660509
v -0.0693306029 -0.0636449233 -0.139481887
v -0.0699166134 -0.0929410085 -0.140660509
v 0.0693372861 -0.0636449233 -0.139481887
v 0.140665099 -0.0929410085 -0.0699181184
v 0.139487073 -0.0636449233 -0.0693321005
v 0.140665099 -0.0929410085 0.0699214041
v 0.139487073 -0.0636449307 0.069335781
v 0.0699227154 -0.0929410085 0.140663803
v 0.0693372861 -0.0636449307 0.139485583
v -0.0699166134 -0.0929410085 0.140663803
v -0.0693306029 -0.0636449307 0.139485583
v -0.140659198 -0.0929410085 0.0699214041
v -0.139480203 -0.0636449307 0.069335781
v -0.140659198 -0.0929410085 -0.0699181184
v -0.139480203 -0.0636449233 -0.0693321005
v -0.0699166134 -0.0929410085 -0.140660509
v -0.0693306029 -0.0636449233 -0.139481887
v -0.109054334 -0.053290911 -0.0596204847
v -0.0871992782 -0.194619477 0.0476941764
v -0.109054334 -0.053290911 0.0596240684
v -0.0871992782 -0.194619477 -0.047690697
v -0.0596187897 -0.053290911 -0.109056078
v -0.0476898663 -0.194619521 -0.0872010663
v 0.0596256703 -0.053290911 -0.109056078
v 0.0476950072 -0.194619521 -0.0872010663
v 0.109061219 -0.053290911 -0.0596203879
v 0.0872057676 -0.194619521 -0.0476905964
v 0.109061219 -0.053290911 0.0596240684
v 0.0872057676 -0.194619521 0.0476942807
v 0.0596256703 -0.053290911 0.109059714
v 0.0476950072 -0.194619462 0.0872040763
v -0.0596187897 -0.053290911 0.109059714
v -0.0476900674 -0.194619462 0.0872040763
v -0.109054334 -0.053290911 0.0596240684
v -0.0871992782 -0.194619477 0.0476941764
v -0.112498119 -0.205645531 0.138426334
v -0.112499282 -0.35799852 0.169187441
v -0.112498119 -0.35799852 0.138426334
v -0.112499282 -0.205645531 0.169187441
v -0.0761739835 -0.169322044 0.138426527
v -0.076175727 -0.169322044 0.169187427
v 0.0761783421 -0.169322044 0.138426334
v 0.0761773735 -0.169322044 0.169187427
v 0.112500936 -0.205645531 0.169187441
v 0.112502098 -0.205645531 0.138426334
v 0.112502098 -0.35799852 0.138426334
v 0.112500936 -0.35799852 0.169187441
v 0.0761783421 -0.394322038 0.138426334
v 0.0761773735 -0.394322038 0.169187427
v -0.0761745647 -0.394322038 0.138426334
v -0.076175727 -0.394322038 0.169187427
v -0.112498119 -0.35799852 0.138426334
v -0.112499282 -0.35799852 0.169187441
v -0.140661329 -0.21190235 0.188881978
v -0.139482722 -0.351155609 0.218178064
v -0.140661329 -0.351741731 0.188881963
v -0.139482722 -0.212487757 0.218178064
v -0.069918938 -0.141159937 0.188881963
v -0.0693329275 -0.142337993 0.218178064
v 0.0699205846 -0.141159937 0.188881963
v 0.0693349615 -0.142337993 0.218178064
v 0.140662968 -0.21190235 0.188881978
v 0.139484748 -0.212487757 0.218178064
v 0.140662968 -0.351741731 0.188881963
v 0.139484748 -0.351155609 0.218178064
v 0.0699205846 -0.422484189 0.188881978
v 0.0693349615 -0.421305329 0.218178034
v -0.069918938 -0.422484189 0.188881978
v -0.0693329275 -0.421305329 0.218178034
v -0.140661329 -0.351741731 0.188881963
v -0.139482722 -0.351155609 0.218178064
v -0.0596213154 -0.390879482 0.228532076
v 0.0476950072 -0.369024664 0.0872039795
v 0.0596231557 -0.390879482 0.228532076
v -0.0476898663 -0.369024664 0.0872039795
v -0.109056853 -0.341443866 0.228532076
v -0.0872000456 -0.329514444 0.0872040763
v -0.109056853 -0.22219941 0.228532076
v -0.0872000456 -0.234129593 0.0872040763
v -0.059621118 -0.172763795 0.228532061
v -0.0476900674 -0.194619462 0.0872040763
v 0.0596231557 -0.172763795 0.228532061
v 0.0476950072 -0.194619462 0.0872040763
v 0.109058894 -0.22219944 0.228532061
v 0.0872049853 -0.234129652 0.0872040763
v 0.109058894 -0.341443866 0.228532076
v 0.0872049853 -0.329514533 0.0872040763
v 0.0596231557 -0.390879482 0.228532076
v 0.0476950072 -0.369024664 0.0872039795
v -0.112497926 -0.357998431 -0.138423666
v -0.112498894 -0.205645397 -0.169185504
v -0.112497926 -0.205645487 -0.138423666
v -0.112498894 -0.357998312 -0.169185504
v -0.0761743709 -0.394321978 -0.138423666
v -0.0761753395 -0.394321859 -0.169185504
v 0.0761787295 -0.394321978 -0.138423666
v 0.076177761 -0.394321859 -0.169185504
v 0.112501316 -0.357998312 -0.169185504
v 0.112502098 -0.357998431 -0.138423666
v 0.112502098 -0.205645517 -0.138423622
v 0.112501316 -0.205645397 -0.169185504
v 0.0761787295 -0.169321954 -0.138423666
v 0.076177761 -0.169321865 -0.169185504
v -0.0761743709 -0.169321954 -0.138423666
v -0.0761753395 -0.169321865 -0.169185504
v -0.112497926 -0.205645487 -0.138423666
v -0.112498894 -0.205645397 -0.169185504
v -0.140660942 -0.351741523 -0.188880041
v -0.139482319 -0.212488204 -0.218176112
v -0.140660942 -0.211902201 -0.188880041
v -0.139482319 -0.351156086 -0.218176112
v -0.0699185506 -0.422483891 -0.188880041
v -0.06933254 -0.421305865 -0.218176112
v 0.069920972 -0.422483891 -0.188880041
v 0.0693353489 -0.421305865 -0.218176112
v 0.14066337 -0.351741523 -0.188880041
v 0.139485136 -0.351156086 -0.218176112
v 0.14066337 -0.211902201 -0.188880041
v 0.139485136 -0.212488204 -0.218176112
v 0.069920972 -0.141159624 -0.188880041
v 0.0693353489 -0.142338619 -0.218176112
v -0.0699185506 -0.141159624 -0.188880041
v -0.06933254 -0.142338619 -0.218176112
v -0.140660942 -0.211902201 -0.188880041
v -0.139482319 -0.212488204 -0.218176112
v -0.0596209243 -0.172764465 -0.228530154
v 0.0476950072 -0.194619521 -0.0872010663
v 0.0596235394 -0.172764465 -0.228530154
v -0.0476898663 -0.194619521 -0.0872010663
v -0.109056473 -0.222200021 -0.228530139
v -0.0871998593 -0.234129593 -0.0872010216
v -0.109056473 -0.341444463 -0.228530139
v -0.0871998593 -0.329514444 -0.0872010216
v -0.0596207306 -0.390880018 -0.228530139
v -0.0476896763 -0.369024456 -0.0872010663
v 0.0596235394 -0.390880018 -0.228530139
v 0.0476951972 -0.369024456 -0.0872010663
v 0.109059274 -0.341444463 -0.228530139
v 0.0872051865 -0.329514533 -0.0872010216
v 0.109059274 -0.222200021 -0.228530139
v 0.0872051865 -0.234129652 -0.0872010216
v 0.0596235394 -0.172764465 -0.228530154
v 0.0476950072 -0.194619521 -0.0872010663
v -0.0505520999 -0.429238737 0.0505568869
v 0.0505583957 -0.429238737 0.0505568869
v 0.0505583957 -0.429238617 -0.0505535975
v -0.0505520999 -0.429238617 -0.0505535975
v 0.0872057676 -0.369024605 -0.047690697
v -0.0476896763 -0.369024456 -0.0872010663
v 0.0476951972 -0.369024456 -0.0872010663
v -0.0871992782 -0.369024664 -0.047690697
v -0.0871992782 -0.369024664 0.0476941876
v 0.0872057676 -0.369024485 0.0476940908
v 0.0476950072 -0.369024664 0.0872039795
v -0.0476898663 -0.369024664 0.0872039795
v 0.0761795044 -0.420247018 0.112501658
v 0.0505583957 -0.429238737 0.0505568869
v -0.0505520999 -0.429238737 0.0505568869
v -0.0761732087 -0.420247018 0.112501658
v -0.112496965 -0.420247018 0.076178208
v -0.0505520999 -0.429238737 0.0505568869
v -0.0505520999 -0.429238617 -0.0505535975
v -0.112496965 -0.420247018 -0.0761749074
v -0.0761732087 -0.420247018 -0.112498321
v -0.0505520999 -0.429238617 -0.0505535975
v 0.0505583957 -0.429238617 -0.0505535975
v 0.0761795044 -0.420247078 -0.112498358
v 0.112503067 -0.420246959 -0.0761748105
v 0.0505583957 -0.429238617 -0.0505535975
v 0.0505583957 -0.429238737 0.0505568869
v 0.11250326 -0.420247018 0.076178208
v 0.14741993 -0.231266648 -0.0505535975
v 0.14741993 -0.332377136 -0.0505535975
v 0.147419721 -0.332377166 0.0505568869
v 0.147419721 -0.231266648 0.0505568981
v 0.0872057676 -0.369024485 0.0476940908
v 0.0872049853 -0.234129652 0.0872040763
v 0.0872049853 -0.329514533 0.0872040763
v 0.0872057676 -0.194619521 0.0476942807
v 0.0872057676 -0.194619521 -0.0476905964
v 0.0872057676 -0.369024605 -0.047690697
v 0.0872051865 -0.329514533 -0.0872010216
v 0.0872051865 -0.234129652 -0.0872010216
v 0.138428032 -0.35799849 -0.112498365
v 0.14741993 -0.332377136 -0.0505535975
v 0.14741993 -0.231266648 -0.0505535975
v 0.138428032 -0.205645531 -0.112498365
v 0.138428032 -0.169322029 -0.0761748999
v 0.14741993 -0.231266648 -0.0505535975
v 0.147419721 -0.231266648 0.0505568981
v 0.138428032 -0.169322029 0.0761781931
v 0.138428032 -0.205645531 0.112501658
v 0.147419721 -0.231266648 0.0505568981
v 0.147419721 -0.332377166 0.0505568869
v 0.138428032 -0.35799849 0.112501658
v 0.138428032 -0.394321978 0.076178208
v 0.147419721 -0.332377166 0.0505568869
v 0.14741993 -0.332377136 -0.0505535975
v 0.138428032 -0.394322038 -0.0761748999
v -0.147413433 -0.231266841 0.0505568981
v -0.147413433 -0.332377315 0.0505568869
v -0.147413433 -0.332377315 -0.0505535975
v -0.147413433 -0.231266841 -0.0505535975
v -0.0871992782 -0.369024664 -0.047690697
v -0.0871998593 -0.234129593 -0.0872010216
v -0.0871998593 -0.329514444 -0.0872010216
v -0.0871992782 -0.194619477 -0.047690697
v -0.0871992782 -0.194619477 0.0476941764
v -0.0871992782 -0.369024664 0.0476941876
v -0.0872000456 -0.329514444 0.0872040763
v -0.0872000456 -0.234129593 0.0872040763
v -0.138421729 -0.35799858 0.112501658
v -0.147413433 -0.332377315 0.0505568869
v -0.147413433 -0.231266841 0.0505568981
v -0.138421729 -0.205645636 0.112501658
v -0.138421729 -0.169322118 0.0761781931
v -0.147413433 -0.231266841 0.0505568981
v -0.147413433 -0.231266841 -0.0505535975
v -0.138421729 -0.169322118 -0.0761748999
v -0.138421729 -0.205645636 -0.112498321
v -0.147413433 -0.231266841 -0.0505535975
v -0.147413433 -0.332377315 -0.0505535975
v -0.138421729 -0.35799858 -0.112498321
v -0.138421729 -0.394322038 -0.0761748031
v -0.147413433 -0.332377315 -0.0505535975
v -0.147413433 -0.332377315 0.0505568869
v -0.138421729 -0.394322157 0.076178208
v 0.125907481 -0.338912576 -0.500000775
v 0.0576618388 -0.407181531 -0.218751669
v 0.125907481 -0.338937223 -0.218750894
v 0.0576618388 -0.407156974 -0.50000149
v -0.0576621294 -0.407181531 -0.218751669
v -0.057661932 -0.407156974 -0.500000775
v -0.125906408 -0.338936716 -0.218752444
v -0.125906408 -0.338912129 -0.50000149
v 0.125907287 -0.223587409 -0.5
v 0.125907481 -0.338912576 -0.500000775
v 0.125907481 -0.338937223 -0.218750894
v 0.125907287 -0.22361201 -0.218750104
v 0.0576628111 -0.155343056 -0.5
v 0.125907287 -0.223587409 -0.5
v 0.125907287 -0.22361201 -0.218750104
v 0.0576628111 -0.155367702 -0.218750104
v -0.0576621294 -0.155343056 -0.5
v -0.0576623231 -0.155367702 -0.218750894
v -0.125906795 -0.223587602 -0.500000775
v -0.125906795 -0.223612234 -0.218751669
v -0.125906408 -0.338912129 -0.50000149
v -0.125906795 -0.223587602 -0.500000775
v -0.125906795 -0.223612234 -0.218751669
v -0.125906408 -0.338936716 -0.218752444
v -0.0944924355 -0.324525476 -0.500000775
v -0.0432447903 -0.375705183 -0.218750894
v -0.0944261625 -0.324521542 -0.218750894
v -0.0432752185 -0.375742584 -0.500000775
v 0.0432452783 -0.375705242 -0.218750894
v 0.043275699 -0.375742704 -0.500000775
v 0.0944268405 -0.321775615 -0.218750894
v 0.0944931209 -0.321779519 -0.500000775
v -0.0944922417 -0.237974167 -0.500000775
v -0.0944924355 -0.324525476 -0.500000775
v -0.0944261625 -0.324521542 -0.218750894
v -0.0944259614 -0.238027334 -0.218750894
v -0.043275021 -0.192754328 -0.500000775
v -0.0944922417 -0.237974167 -0.500000775
v -0.0944259614 -0.238027334 -0.218750894
v -0.0432446003 -0.192841023 -0.218750894
v 0.0432758927 -0.192754328 -0.500000775
v 0.0432454683 -0.192841023 -0.218750894
v 0.0944931209 -0.240721196 -0.500000775
v 0.0944268405 -0.240774333 -0.218750894
v 0.0944931209 -0.321779519 -0.500000775
v 0.0944931209 -0.240721196 -0.500000775
v 0.0944268405 -0.240774333 -0.218750894
v 0.0944268405 -0.321775615 -0.218750894
v 0.05766242 -0.407156885 0.499999374
v 0.05766261 -0.407181412 0.218749151
v -0.0576621294 -0.407181621 0.218748361
v -0.0576623231 -0.407157063 0.499998629
v -0.12590602 -0.338936985 0.218748376
v -0.125906602 -0.338912398 0.499998629
v 0.125906706 -0.338912487 0.499999374
v 0.1259069 -0.338937104 0.218749136
v 0.05766261 -0.407181412 0.218749151
v 0.05766242 -0.407156885 0.499999374
v 0.1259069 -0.223587319 0.499998659
v 0.125907093 -0.223611936 0.218748376
v 0.1259069 -0.338937104 0.218749136
v 0.125906706 -0.338912487 0.499999374
v 0.0576628111 -0.155342892 0.499997854
v 0.125907093 -0.223611936 0.218748376
v 0.1259069 -0.223587319 0.499998659
v 0.0576630011 -0.155367509 0.218747586
v -0.0576625131 -0.155342892 0.499998629
v -0.0576623231 -0.155367509 0.218748376
v -0.125906602 -0.223587796 0.499998659
v -0.12590602 -0.223612398 0.218748376
v -0.125906602 -0.338912398 0.499998629
v -0.12590602 -0.338936985 0.218748376
v -0.12590602 -0.223612398 0.218748376
v -0.125906602 -0.223587796 0.499998659
v -0.0942436233 -0.324411333 0.499998629
v -0.0943098888 -0.324464411 0.218748361
v -0.0431922749 -0.37558037 0.218748361
v -0.0431618504 -0.375493765 0.499998689
v 0.0431923717 -0.375580043 0.218748361
v 0.0431617536 -0.375493497 0.499998629
v 0.0943105668 -0.3244645 0.218748361
v 0.0942441002 -0.324411452 0.499998629
v -0.0942432284 -0.238088533 0.499999374
v -0.0943095013 -0.238084629 0.218749136
v -0.0943098888 -0.324464411 0.218748361
v -0.0942436233 -0.324411333 0.499998629
v -0.043161463 -0.187006354 0.499999374
v -0.0943095013 -0.238084629 0.218749136
v -0.0942432284 -0.238088533 0.499999374
v -0.0431918912 -0.186968878 0.218749136
v 0.0431611724 -0.187006563 0.499998629
v 0.0431917943 -0.186969072 0.218748376
v 0.0942441002 -0.238088608 0.499997854
v 0.0943105668 -0.238084748 0.218747586
v 0.0942441002 -0.324411452 0.499998629
v 0.0943105668 -0.3244645 0.218748361
v 0.0943105668 -0.238084748 0.218747586
v 0.0942441002 -0.238088608 0.499997854
v 0.125524461 0.500000477 -0.057663057
v 0.125549018 -0.0628826395 -0.0576632395
v 0.125549212 -0.0628834218 0.0576614924
v 0.125524655 0.499999672 0.0576616935
v 0.0573045909 -0.0628834218 0.125905395
v 0.0572799817 0.499999672 0.125905976
v 0.0572800823 0.500000477 -0.125907317
v 0.0573046878 -0.0628826395 -0.125907525
v 0.125549018 -0.0628826395 -0.0576632395
v 0.125524461 0.500000477 -0.057663057
v -0.0580451004 0.499999672 -0.125907511
v -0.0580204837 -0.0628834143 -0.125907719
v 0.0573046878 -0.0628826395 -0.125907525
v 0.0572800823 0.500000477 -0.125907317
v -0.126289532 0.499998927 -0.0576634407
v -0.0580204837 -0.0628834143 -0.125907719
v -0.0580451004 0.499999672 -0.125907511
v -0.126264915 -0.0628841966 -0.0576636307
v -0.126289532 0.499999672 0.0576618835
v -0.126264915 -0.0628834218 0.0576616935
v -0.0580446124 0.499999672 0.125905976
v -0.0580200031 -0.0628834218 0.125905395
v 0.0572799817 0.499999672 0.125905976
v 0.0573045909 -0.0628834218 0.125905395
v -0.0580200031 -0.0628834218 0.125905395
v -0.0580446124 0.499999672 0.125905976
v 0.0427789316 0.499999672 0.09424299
v 0.0428319797 -0.0628834218 0.0943092629
v 0.0939479396 -0.0628834218 0.0431916453
v 0.0938613713 0.499999672 0.0431612208
v 0.0939476565 -0.0628834218 -0.0431930013
v 0.0938610807 0.499999672 -0.0431623831
v 0.0428320765 -0.0628834143 -0.0943112001
v 0.0427790247 0.499999672 -0.094244726
v -0.0435439013 0.500000477 0.0942426026
v -0.0435477756 -0.0628826395 0.0943088681
v 0.0428319797 -0.0628834218 0.0943092629
v 0.0427789316 0.499999672 0.09424299
v -0.0946260542 0.500000477 0.0431608371
v -0.0435477756 -0.0628826395 0.0943088681
v -0.0435439013 0.500000477 0.0942426026
v -0.0946635529 -0.0628826395 0.0431912616
v -0.0946258605 0.499999672 -0.0431618094
v -0.0946633518 -0.0628834218 -0.0431924202
v -0.0435438044 0.499998927 -0.094244726
v -0.0435476787 -0.0628841966 -0.0943112001
v 0.0427790247 0.499999672 -0.094244726
v 0.0428320765 -0.0628834143 -0.0943112001
v -0.0435476787 -0.0628841966 -0.0943112001
v -0.0435438044 0.499998927 -0.094244726
v -0.138421729 -0.35799858 -0.112498321
v -0.138421729 -0.394322038 -0.0761748031
v -0.100388981 -0.382214278 -0.100390524
v -0.112497926 -0.357998431 -0.138423666
v -0.112496965 -0.420247018 -0.0761749074
v -0.0761743709 -0.394321978 -0.138423666
v -0.0761732087 -0.420247018 -0.112498321
v -0.138421729 -0.205645636 0.112501658
v -0.100388981 -0.181429893 0.10039378
v -0.112498119 -0.205645531 0.138426334
v -0.138421729 -0.169322118 0.0761781931
v -0.0761739835 -0.169322044 0.138426527
v -0.112496965 -0.143397063 0.0761781931
v -0.0761734024 -0.143397063 0.112501658
v 0.0761787295 -0.169321954 -0.138423666
v 0.112502098 -0.205645517 -0.138423622
v 0.100395471 -0.181429878 -0.100390524
v 0.0761795044 -0.143397063 -0.112498358
v 0.138428032 -0.205645531 -0.112498365
v 0.112503067 -0.143397063 -0.0761748999
v 0.138428032 -0.169322029 -0.0761748999
v -0.112498119 -0.35799852 0.138426334
v -0.100388981 -0.382214278 0.100393772
v -0.138421729 -0.35799858 0.112501658
v -0.0761745647 -0.394322038 0.138426334
v -0.138421729 -0.394322157 0.076178208
v -0.0761732087 -0.420247018 0.112501658
v -0.112496965 -0.420247018 0.076178208
v 0.0761783421 -0.394322038 0.138426334
v 0.112502098 -0.35799852 0.138426334
v 0.100395471 -0.382214278 0.100393862
v 0.0761795044 -0.420247018 0.112501658
v 0.138428032 -0.35799849 0.112501658
v 0.11250326 -0.420247018 0.076178208
v 0.138428032 -0.394321978 0.076178208
v -0.125906408 -0.338912129 -0.50000149
v -0.0944922417 -0.237974167 -0.500000775
v -0.125906795 -0.223587602 -0.500000775
v -0.0944924355 -0.324525476 -0.500000775
v -0.043275021 -0.192754328 -0.500000775
v -0.057661932 -0.407156974 -0.500000775
v -0.0576621294 -0.155343056 -0.5
v -0.0432752185 -0.375742584 -0.500000775
v 0.0432758927 -0.192754328 -0.500000775
v 0.0576618388 -0.407156974 -0.50000149
v 0.0576628111 -0.155343056 -0.5
v 0.043275699 -0.375742704 -0.500000775
v 0.0944931209 -0.240721196 -0.500000775
v 0.125907481 -0.338912576 -0.500000775
v 0.125907287 -0.223587409 -0.5
v 0.0944931209 -0.321779519 -0.500000775
v -0.139482319 -0.351156086 -0.218176112
v -0.109056473 -0.222200021 -0.228530139
v -0.139482319 -0.212488204 -0.218176112
v -0.109056473 -0.341444463 -0.228530139
v -0.0596209243 -0.172764465 -0.228530154
v -0.06933254 -0.421305865 -0.218176112
v -0.06933254 -0.142338619 -0.218176112
v -0.0596207306 -0.390880018 -0.228530139
v 0.0596235394 -0.172764465 -0.228530154
v 0.0693353489 -0.421305865 -0.218176112
v 0.0693353489 -0.142338619 -0.218176112
v 0.0596235394 -0.390880018 -0.228530139
v 0.109059274 -0.222200021 -0.228530139
v 0.139485136 -0.351156086 -0.218176112
v 0.139485136 -0.212488204 -0.218176112
v 0.109059274 -0.341444463 -0.228530139
v -0.112498894 -0.357998312 -0.169185504
v -0.140660942 -0.211902201 -0.188880041
v -0.112498894 -0.205645397 -0.169185504
v -0.140660942 -0.351741523 -0.188880041
v -0.0699185506 -0.141159624 -0.188880041
v -0.0761753395 -0.394321859 -0.169185504
v -0.0761753395 -0.169321865 -0.169185504
v -0.0699185506 -0.422483891 -0.188880041
v 0.069920972 -0.141159624 -0.188880041
v 0.076177761 -0.394321859 -0.169185504
v 0.076177761 -0.169321865 -0.169185504
v 0.069920972 -0.422483891 -0.188880041
v 0.14066337 -0.211902201 -0.188880041
v 0.112501316 -0.357998312 -0.169185504
v 0.112501316 -0.205645397 -0.169185504
v 0.14066337 -0.351741523 -0.188880041
v -0.139482722 -0.212487757 0.218178064
v -0.109056853 -0.341443866 0.228532076
v -0.139482722 -0.351155609 0.218178064
v -0.109056853 -0.22219941 0.228532076
v -0.0596213154 -0.390879482 0.228532076
v -0.0693329275 -0.142337993 0.218178064
v -0.0693329275 -0.421305329 0.218178034
v -0.059621118 -0.172763795 0.228532061
v 0.0596231557 -0.390879482 0.228532076
v 0.0693349615 -0.142337993 0.218178064
v 0.0693349615 -0.421305329 0.218178034
v 0.0596231557 -0.172763795 0.228532061
v 0.109058894 -0.341443866 0.228532076
v 0.139484748 -0.212487757 0.218178064
v 0.139484748 -0.351155609 0.218178064
v 0.109058894 -0.22219944 0.228532061
v -0.112499282 -0.205645531 0.169187441
v -0.140661329 -0.351741731 0.188881963
v -0.112499282 -0.35799852 0.169187441
v -0.140661329 -0.21190235 0.188881978
v -0.069918938 -0.422484189 0.188881978
v -0.076175727 -0.169322044 0.169187427
v -0.076175727 -0.394322038 0.169187427
v -0.069918938 -0.141159937 0.188881963
v 0.0699205846 -0.422484189 0.188881978
v 0.0761773735 -0.169322044 0.169187427
v 0.0761773735 -0.394322038 0.169187427
v 0.0699205846 -0.141159937 0.188881963
v 0.140662968 -0.351741731 0.188881963
v 0.112500936 -0.205645531 0.169187441
v 0.112500936 -0.35799852 0.169187441
v 0.140662968 -0.21190235 0.188881978
v 0.0693372861 -0.0636449233 -0.139481887
v -0.0596187897 -0.053290911 -0.109056078
v -0.0693306029 -0.0636449233 -0.139481887
v 0.0596256703 -0.053290911 -0.109056078
v -0.109054334 -0.053290911 -0.0596204847
v 0.139487073 -0.0636449233 -0.0693321005
v -0.139480203 -0.0636449233 -0.0693321005
v 0.109061219 -0.053290911 -0.0596203879
v -0.109054334 -0.053290911 0.0596240684
v 0.139487073 -0.0636449307 0.069335781
v -0.139480203 -0.0636449307 0.069335781
v 0.109061219 -0.053290911 0.0596240684
v -0.0596187897 -0.053290911 0.109059714
v 0.0693372861 -0.0636449307 0.139485583
v -0.0693306029 -0.0636449307 0.139485583
v 0.0596256703 -0.053290911 0.109059714
v 0.0761795044 -0.112635545 -0.112498358
v -0.0699166134 -0.0929410085 -0.140660509
v -0.0761734024 -0.112635545 -0.112498358
v 0.0699227154 -0.0929410085 -0.140660509
v -0.140659198 -0.0929410085 -0.0699181184
v 0.112503067 -0.112635545 -0.0761749074
v -0.112496965 -0.112635545 -0.0761749074
v 0.140665099 -0.0929410085 -0.0699181184
v -0.140659198 -0.0929410085 0.0699214041
v 0.112503067 -0.112635545 0.0761781931
v -0.112496965 -0.112635545 0.0761781931
v 0.140665099 -0.0929410085 0.0699214041
v -0.0699166134 -0.0929410085 0.140663803
v 0.0761795044 -0.112635531 0.112501658
v -0.0761734024 -0.112635531 0.112501658
v 0.0699227154 -0.0929410085 0.140663803
v -0.0580446124 0.499999672 0.125905976
v -0.0435439013 0.500000477 0.0942426026
v 0.0427789316 0.499999672 0.09424299
v 0.0572799817 0.499999672 0.125905976
v -0.126289532 0.499999672 0.0576618835
v 0.0938613713 0.499999672 0.0431612208
v -0.0946260542 0.500000477 0.0431608371
v 0.125524655 0.499999672 0.0576616935
v -0.126289532 0.499998927 -0.0576634407
v 0.0938610807 0.499999672 -0.0431623831
v -0.0946258605 0.499999672 -0.0431618094
v 0.125524461 0.500000477 -0.057663057
v -0.0580451004 0.499999672 -0.125907511
v 0.0427790247 0.499999672 -0.094244726
v -0.0435438044 0.499998927 -0.094244726
v 0.0572800823 0.500000477 -0.125907317
v -0.125906602 -0.223587796 0.499998659
v -0.0942432284 -0.238088533 0.499999374
v -0.0942436233 -0.324411333 0.499998629
v -0.125906602 -0.338912398 0.499998629
v -0.0576625131 -0.155342892 0.499998629
v -0.0431618504 -0.375493765 0.499998689
v -0.043161463 -0.187006354 0.499999374
v -0.0576623231 -0.407157063 0.499998629
v 0.0576628111 -0.155342892 0.499997854
v 0.0431617536 -0.375493497 0.499998629
v 0.0431611724 -0.187006563 0.499998629
v 0.05766242 -0.407156885 0.499999374
v 0.1259069 -0.223587319 0.499998659
v 0.0942441002 -0.324411452 0.499998629
v 0.0942441002 -0.238088608 0.499997854
v 0.125906706 -0.338912487 0.499999374
vt 0.303610355 0.557493865
vt 0.289743423 0.557493806
vt 0.303610355 0.543626904
vt 0.28974247 0.557508826
vt 0.303609401 0.543641865
vt 0.303609401 0.557508826
vt 0.303610295 0.543641925
vt 0.289743364 0.557508826
vt 0.303610295 0.557508886
vt 0.303609401 0.557493746
vt 0.303609401 0.543626785
vt 0.28974247 0.557493746
vt 0.303610355 0.543626785
vt 0.303610355 0.557493746
vt 0.289743364 0.557493746
vt 0.289743364 0.557508826
vt 0.303610295 0.557508826
vt 0.303610295 0.543641865
vt 0.303609401 0.543641865
vt 0.303609401 0.557508886
vt 0.289742351 0.557508826
vt 0.289743423 0.557508886
vt 0.303610355 0.557508826
vt 0.303610355 0.543641865
vt 0.194534019 0.521521568
vt 0.201188356 0.537650406
vt 0.185059592 0.530996025
vt 0.185059592 0.570734799
vt 0.201188356 0.564080477
vt 0.194534019 0.580209196
vt 0.234272793 0.580209196
vt 0.227618396 0.564080477
vt 0.243747205 0.570734799
vt 0.243747279 0.530996025
vt 0.22761853 0.537650406
vt 0.234272793 0.521521568
vt 0.194534019 0.521521568
vt 0.201188356 0.537650406
vt 0.185059592 0.530996025
vt 0.185059592 0.570734799
vt 0.201188356 0.564080477
vt 0.194534019 0.580209196
vt 0.234272793 0.580209196
vt 0.227618396 0.564080477
vt 0.243747205 0.570734799
vt 0.243747279 0.530996025
vt 0.22761853 0.537650406
vt 0.234272793 0.521521568
vt 0.194534019 0.521521568
vt 0.201188356 0.537650406
vt 0.185059592 0.530996025
vt 0.185059592 0.570734799
vt 0.201188356 0.564080477
vt 0.194534019 0.580209196
vt 0.234272793 0.580209196
vt 0.227618396 0.564080477
vt 0.243747205 0.570734799
vt 0.243747279 0.530996025
vt 0.22761853 0.537650406
vt 0.234272793 0.521521568
vt 0.35181424 0.574387252
vt 0.351812482 0.512232006
vt 0.341238648 0.512237966
vt 0.341238707 0.574387252
vt 0.35181424 0.574387252
vt 0.351812482 0.512232006
vt 0.341238648 0.512237966
vt 0.341238707 0.574387252
vt 0.35181424 0.574387252
vt 0.351812482 0.512232006
vt 0.341238648 0.512237966
vt 0.341238707 0.574387252
vt 0.35181424 0.574387252
vt 0.351812482 0.512232006
vt 0.341238648 0.512237966
vt 0.341238707 0.574387252
vt 0.341238648 0.512237966
vt 0.341238707 0.574387252
vt 0.35181424 0.574387252
vt 0.351812482 0.512232006
vt 0.341238588 0.512238503
vt 0.341238707 0.574387252
vt 0.35181424 0.574387252
vt 0.351811528 0.512241721
vt 0.341238767 0.512238622
vt 0.341238707 0.574387252
vt 0.35181424 0.574387252
vt 0.351816326 0.512244642
vt 0.341238767 0.512238204
vt 0.341238707 0.574387252
vt 0.35181424 0.574387252
vt 0.351816684 0.512235701
vt 0.351815194 0.574401379
vt 0.351811528 0.512241721
vt 0.341238588 0.512238503
vt 0.341217428 0.574401379
vt 0.346516341 0.58457464
vt 0.333793223 0.585203469
vt 0.359239519 0.585203469
vt 0.339092016 0.594105422
vt 0.353940427 0.594105422
vt 0.341238588 0.512238503
vt 0.341238707 0.574387252
vt 0.35181424 0.574387252
vt 0.351811528 0.512241721
vt 0.351820976 0.574407101
vt 0.351816684 0.512235701
vt 0.341238767 0.512238204
vt 0.34122327 0.57440722
vt 0.346522063 0.584580362
vt 0.333798856 0.58520925
vt 0.359245121 0.58520925
vt 0.339097708 0.594111264
vt 0.353946149 0.594111264
vt 0.351830453 0.574397564
vt 0.351811528 0.512241721
vt 0.341238588 0.512238503
vt 0.341232687 0.574397624
vt 0.346531421 0.584570944
vt 0.333808362 0.585199714
vt 0.359254688 0.585199714
vt 0.339107394 0.594101608
vt 0.353955775 0.594101608
vt 0.368281573 0.491155148
vt 0.411386162 0.500348091
vt 0.411386162 0.491155148
vt 0.368281573 0.500348091
vt 0.354508102 0.491155148
vt 0.354508102 0.500348091
vt 0.311403632 0.491155148
vt 0.311403632 0.500348091
vt 0.297630072 0.500348091
vt 0.297630072 0.491155148
vt 0.254525572 0.491155148
vt 0.254525572 0.500348091
vt 0.24075219 0.491155148
vt 0.24075219 0.500348091
vt 0.197647512 0.491155148
vt 0.197647512 0.500348091
vt 0.183874145 0.491155148
vt 0.183874145 0.500348091
vt 0.373407066 0.501248002
vt 0.406814426 0.510002971
vt 0.406814545 0.501248002
vt 0.373406947 0.510002971
vt 0.349936515 0.501248002
vt 0.349936336 0.510002971
vt 0.316529006 0.501248002
vt 0.316529006 0.510002971
vt 0.293058574 0.501248002
vt 0.293058574 0.510002971
vt 0.259651124 0.501248002
vt 0.259651244 0.510002971
vt 0.236180514 0.501248002
vt 0.236180589 0.510002971
vt 0.202773035 0.501248002
vt 0.202773035 0.510002971
vt 0.179302529 0.501248002
vt 0.179302394 0.510002971
vt 0.152341053 0.497526556
vt 0.182130128 0.492455095
vt 0.161560729 0.479605764
vt 0.174755573 0.506789386
vt 0.14836669 0.508656621
vt 0.171579778 0.515681386
vt 0.144152626 0.528369009
vt 0.168209895 0.531442225
vt 0.143230125 0.540147841
vt 0.167473018 0.54085964
vt 0.144305274 0.560265779
vt 0.168332502 0.556965053
vt 0.146478698 0.571876228
vt 0.170070559 0.566251397
vt 0.152762696 0.591022849
vt 0.17509748 0.581569314
vt 0.157894179 0.601665556
vt 0.179198623 0.59007591
vt 0.368281573 0.491155148
vt 0.411386162 0.500348091
vt 0.411386162 0.491155148
vt 0.368281573 0.500348091
vt 0.354508102 0.491155148
vt 0.354508102 0.500348091
vt 0.311403632 0.491155148
vt 0.311403632 0.500348091
vt 0.297630072 0.500348091
vt 0.297630072 0.491155148
vt 0.254525572 0.491155148
vt 0.254525572 0.500348091
vt 0.24075219 0.491155148
vt 0.24075219 0.500348091
vt 0.197647512 0.491155148
vt 0.197647512 0.500348091
vt 0.183874145 0.491155148
vt 0.183874145 0.500348091
vt 0.373407066 0.501248002
vt 0.406814426 0.510002971
vt 0.406814545 0.501248002
vt 0.373406947 0.510002971
vt 0.349936515 0.501248002
vt 0.349936336 0.510002971
vt 0.316529006 0.501248002
vt 0.316529006 0.510002971
vt 0.293058574 0.501248002
vt 0.293058574 0.510002971
vt 0.259651124 0.501248002
vt 0.259651244 0.510002971
vt 0.236180514 0.501248002
vt 0.236180589 0.510002971
vt 0.202773035 0.501248002
vt 0.202773035 0.510002971
vt 0.179302529 0.501248002
vt 0.179302394 0.510002971
vt 0.152341053 0.497526556
vt 0.182130128 0.492455095
vt 0.161560729 0.479605764
vt 0.174755573 0.506789386
vt 0.14836669 0.508656621
vt 0.171579778 0.515681386
vt 0.144152626 0.528369009
vt 0.168209895 0.531442225
vt 0.143230125 0.540147841
vt 0.167473018 0.54085964
vt 0.144305274 0.560265779
vt 0.168332502 0.556965053
vt 0.146478698 0.571876228
vt 0.170070559 0.566251397
vt 0.152762696 0.591022849
vt 0.17509748 0.581569314
vt 0.157894179 0.601665556
vt 0.179198623 0.59007591
vt 0.368281573 0.491155148
vt 0.411386162 0.500348091
vt 0.411386162 0.491155148
vt 0.368281573 0.500348091
vt 0.354508102 0.491155148
vt 0.354508102 0.500348091
vt 0.311403632 0.491155148
vt 0.311403632 0.500348091
vt 0.297630072 0.500348091
vt 0.297630072 0.491155148
vt 0.254525572 0.491155148
vt 0.254525572 0.500348091
vt 0.24075219 0.491155148
vt 0.24075219 0.500348091
vt 0.197647512 0.491155148
vt 0.197647512 0.500348091
vt 0.183874145 0.491155148
vt 0.183874145 0.500348091
vt 0.373407066 0.501248002
vt 0.406814426 0.510002971
vt 0.406814545 0.501248002
vt 0.373406947 0.510002971
vt 0.349936515 0.501248002
vt 0.349936336 0.510002971
vt 0.316529006 0.501248002
vt 0.316529006 0.510002971
vt 0.293058574 0.501248002
vt 0.293058574 0.510002971
vt 0.259651124 0.501248002
vt 0.259651244 0.510002971
vt 0.236180514 0.501248002
vt 0.236180589 0.510002971
vt 0.202773035 0.501248002
vt 0.202773035 0.510002971
vt 0.179302529 0.501248002
vt 0.179302394 0.510002971
vt 0.152341053 0.497526556
vt 0.182130128 0.492455095
vt 0.161560729 0.479605764
vt 0.174755573 0.506789386
vt 0.14836669 0.508656621
vt 0.171579778 0.515681386
vt 0.144152626 0.528369009
vt 0.168209895 0.531442225
vt 0.143230125 0.540147841
vt 0.167473018 0.54085964
vt 0.144305274 0.560265779
vt 0.168332502 0.556965053
vt 0.146478698 0.571876228
vt 0.170070559 0.566251397
vt 0.152762696 0.591022849
vt 0.17509748 0.581569314
vt 0.157894179 0.601665556
vt 0.179198623 0.59007591
vt 0.201188356 0.537650406
vt 0.22761853 0.537650406
vt 0.227618396 0.564080477
vt 0.201188356 0.564080477
vt 0.322065234 0.565958321
vt 0.282595873 0.57751894
vt 0.310504973 0.57751894
vt 0.271035403 0.5659585
vt 0.271035403 0.538049519
vt 0.322065234 0.538049459
vt 0.310504973 0.526489079
vt 0.282595873 0.526489139
vt 0.234272793 0.521521568
vt 0.22761853 0.537650406
vt 0.201188356 0.537650406
vt 0.194534019 0.521521568
vt 0.185059592 0.530996025
vt 0.201188356 0.537650406
vt 0.201188356 0.564080477
vt 0.185059592 0.570734799
vt 0.194534019 0.580209196
vt 0.201188356 0.564080477
vt 0.227618396 0.564080477
vt 0.234272793 0.580209196
vt 0.243747205 0.570734799
vt 0.227618396 0.564080477
vt 0.22761853 0.537650406
vt 0.243747279 0.530996025
vt 0.201188356 0.537650406
vt 0.22761853 0.537650406
vt 0.227618396 0.564080477
vt 0.201188356 0.564080477
vt 0.322065234 0.565958321
vt 0.282595873 0.57751894
vt 0.310504973 0.57751894
vt 0.271035403 0.5659585
vt 0.271035403 0.538049519
vt 0.322065234 0.538049459
vt 0.310504973 0.526489079
vt 0.282595873 0.526489139
vt 0.234272793 0.521521568
vt 0.22761853 0.537650406
vt 0.201188356 0.537650406
vt 0.194534019 0.521521568
vt 0.185059592 0.530996025
vt 0.201188356 0.537650406
vt 0.201188356 0.564080477
vt 0.185059592 0.570734799
vt 0.194534019 0.580209196
vt 0.201188356 0.564080477
vt 0.227618396 0.564080477
vt 0.234272793 0.580209196
vt 0.243747205 0.570734799
vt 0.227618396 0.564080477
vt 0.22761853 0.537650406
vt 0.243747279 0.530996025
vt 0.201188356 0.537650406
vt 0.22761853 0.537650406
vt 0.227618396 0.564080477
vt 0.201188356 0.564080477
vt 0.322065234 0.565958321
vt 0.282595873 0.57751894
vt 0.310504973 0.57751894
vt 0.271035403 0.5659585
vt 0.271035403 0.538049519
vt 0.322065234 0.538049459
vt 0.310504973 0.526489079
vt 0.282595873 0.526489139
vt 0.234272793 0.521521568
vt 0.22761853 0.537650406
vt 0.201188356 0.537650406
vt 0.194534019 0.521521568
vt 0.185059592 0.530996025
vt 0.201188356 0.537650406
vt 0.201188356 0.564080477
vt 0.185059592 0.570734799
vt 0.194534019 0.580209196
vt 0.201188356 0.564080477
vt 0.227618396 0.564080477
vt 0.234272793 0.580209196
vt 0.243747205 0.570734799
vt 0.227618396 0.564080477
vt 0.22761853 0.537650406
vt 0.243747279 0.530996025
vt 0.0871014819 0.569017589
vt 0.102861352 0.614354551
vt 0.0871014819 0.614354372
vt 0.102861352 0.569017589
vt 0.120393172 0.614354789
vt 0.120393172 0.569017589
vt 0.136139318 0.614354789
vt 0.136139318 0.569017589
vt 0.0694694519 0.569017589
vt 0.0871014819 0.569017589
vt 0.0871014819 0.614354372
vt 0.0694694519 0.614353716
vt 0.0536554232 0.569017589
vt 0.0694694519 0.569017589
vt 0.0694694519 0.614353716
vt 0.0536554232 0.614353538
vt 0.0363097563 0.569017589
vt 0.0363097563 0.614353061
vt 0.0207588784 0.569017589
vt 0.0207588784 0.614352882
vt 0.00336805894 0.569017589
vt 0.0207588784 0.569017589
vt 0.0207588784 0.614352882
vt 0.00336805894 0.614352703
vt 0.144560009 0.735112071
vt 0.157264173 0.689855278
vt 0.144577652 0.689853549
vt 0.157264173 0.735112071
vt 0.169070974 0.689855695
vt 0.169070974 0.735112071
vt 0.182457983 0.689856172
vt 0.182457983 0.735112071
vt 0.231968209 0.735112071
vt 0.243533179 0.735112071
vt 0.24352169 0.689858496
vt 0.231968209 0.689859509
vt 0.218569621 0.735112071
vt 0.231968209 0.735112071
vt 0.231968209 0.689859509
vt 0.218569621 0.689859092
vt 0.206768319 0.735112071
vt 0.206768319 0.689858675
vt 0.1940929 0.735112071
vt 0.1940929 0.689857364
vt 0.182457983 0.735112071
vt 0.1940929 0.735112071
vt 0.1940929 0.689857364
vt 0.182457983 0.689856172
vt 0.00336804357 0.764106929
vt 0.00336804357 0.809443891
vt 0.0207588784 0.809443891
vt 0.0207588784 0.764106691
vt 0.0363097563 0.809443891
vt 0.0363097563 0.764106691
vt 0.120393127 0.764107108
vt 0.120393127 0.809443891
vt 0.135994047 0.809443891
vt 0.135994047 0.764106929
vt 0.102861397 0.764107764
vt 0.102861397 0.809443891
vt 0.120393127 0.809443891
vt 0.120393127 0.764107108
vt 0.0871015564 0.764107943
vt 0.102861397 0.809443891
vt 0.102861397 0.764107764
vt 0.0871015564 0.809443891
vt 0.069469437 0.764108419
vt 0.069469437 0.809443891
vt 0.0536553785 0.764108598
vt 0.0536553785 0.809443891
vt 0.0363097563 0.764108777
vt 0.0363097563 0.809443891
vt 0.0536553785 0.809443891
vt 0.0536553785 0.764108598
vt 0.157264173 0.689855278
vt 0.157264173 0.735112071
vt 0.169070974 0.735112071
vt 0.169070974 0.689855695
vt 0.182457983 0.735112071
vt 0.182457983 0.689856172
vt 0.1940929 0.735112071
vt 0.1940929 0.689857364
vt 0.144577652 0.689853549
vt 0.144560009 0.735112071
vt 0.157264173 0.735112071
vt 0.157264173 0.689855278
vt 0.231968209 0.689859509
vt 0.243533179 0.735112071
vt 0.24352169 0.689858496
vt 0.231968209 0.735112071
vt 0.218569621 0.689859092
vt 0.218569621 0.735112071
vt 0.206768319 0.689858675
vt 0.206768319 0.735112071
vt 0.1940929 0.689857364
vt 0.1940929 0.735112071
vt 0.206768319 0.735112071
vt 0.206768319 0.689858675
vt 0.00336804357 0.764106929
vt 0.00336804357 0.809443891
vt 0.0207588784 0.809443891
vt 0.0207588784 0.764106691
vt 0.0363097563 0.809443891
vt 0.0363097563 0.764106691
vt 0.120393127 0.764107108
vt 0.120393127 0.809443891
vt 0.135994047 0.809443891
vt 0.135994047 0.764106929
vt 0.102861397 0.764107764
vt 0.102861397 0.809443891
vt 0.120393127 0.809443891
vt 0.120393127 0.764107108
vt 0.0871015564 0.764107943
vt 0.102861397 0.809443891
vt 0.102861397 0.764107764
vt 0.0871015564 0.809443891
vt 0.069469437 0.764108419
vt 0.069469437 0.809443891
vt 0.0536553785 0.764108598
vt 0.0536553785 0.809443891
vt 0.0363097563 0.764108777
vt 0.0363097563 0.809443891
vt 0.0536553785 0.809443891
vt 0.0536553785 0.764108598
vt 0.157264173 0.689855278
vt 0.157264173 0.735112071
vt 0.169070974 0.735112071
vt 0.169070974 0.689855695
vt 0.182457983 0.735112071
vt 0.182457983 0.689856172
vt 0.1940929 0.735112071
vt 0.1940929 0.689857364
vt 0.144577652 0.689853549
vt 0.144560009 0.735112071
vt 0.157264173 0.735112071
vt 0.157264173 0.689855278
vt 0.231968209 0.689859509
vt 0.243533179 0.735112071
vt 0.24352169 0.689858496
vt 0.231968209 0.735112071
vt 0.218569621 0.689859092
vt 0.218569621 0.735112071
vt 0.206768319 0.689858675
vt 0.206768319 0.735112071
vt 0.1940929 0.689857364
vt 0.1940929 0.735112071
vt 0.206768319 0.735112071
vt 0.206768319 0.689858675
vt 0.351830453 0.574397564
vt 0.359254688 0.585199714
vt 0.346531421 0.584570944
vt 0.341232687 0.574397624
vt 0.353955775 0.594101608
vt 0.333808362 0.585199714
vt 0.339107394 0.594101608
vt 0.351824701 0.574391842
vt 0.346525788 0.584565163
vt 0.341226995 0.574391842
vt 0.359248966 0.585194051
vt 0.3338027 0.585194051
vt 0.353950113 0.594095886
vt 0.339101613 0.594095886
vt 0.333798856 0.58520925
vt 0.34122327 0.57440722
vt 0.346522063 0.584580362
vt 0.339097708 0.594111264
vt 0.351820976 0.574407101
vt 0.353946149 0.594111264
vt 0.359245121 0.58520925
vt 0.341226995 0.574391842
vt 0.346525788 0.584565163
vt 0.351824701 0.574391842
vt 0.3338027 0.585194051
vt 0.359248966 0.585194051
vt 0.339101613 0.594095886
vt 0.353950113 0.594095886
vt 0.333793223 0.585203469
vt 0.341217428 0.574401379
vt 0.346516341 0.58457464
vt 0.339092016 0.594105422
vt 0.351815194 0.574401379
vt 0.353940427 0.594105422
vt 0.359239519 0.585203469
vt 0.243351296 0.893893063
vt 0.237342566 0.913127661
vt 0.243344903 0.915795267
vt 0.237288713 0.896663189
vt 0.227520749 0.92273128
vt 0.230309129 0.880872905
vt 0.230264947 0.928717196
vt 0.227547809 0.886895478
vt 0.211056277 0.92273128
vt 0.208310634 0.880853891
vt 0.208266318 0.928717196
vt 0.211069733 0.886900127
vt 0.20123066 0.91304642
vt 0.195211872 0.893904209
vt 0.195172146 0.915767908
vt 0.201286867 0.896702588
vt 0.256652474 0.572351277
vt 0.2663908 0.534849763
vt 0.256649226 0.531641662
vt 0.266389251 0.569017589
vt 0.279755771 0.522277772
vt 0.276932597 0.590739489
vt 0.276716858 0.512825131
vt 0.279851258 0.581225514
vt 0.314077348 0.521752238
vt 0.317598909 0.589793086
vt 0.316963375 0.512740433
vt 0.314452112 0.581225216
vt 0.328341633 0.534796238
vt 0.337506294 0.571227312
vt 0.337477475 0.531570613
vt 0.328342587 0.567961812
vt 0.236411393 0.583281577
vt 0.194903642 0.591282785
vt 0.193125963 0.583281577
vt 0.234633729 0.591282785
vt 0.174804702 0.57118398
vt 0.246731326 0.572961688
vt 0.182806045 0.572961688
vt 0.254732519 0.57118398
vt 0.174804702 0.531453848
vt 0.246731326 0.529676199
vt 0.182806045 0.529676199
vt 0.254732519 0.531453848
vt 0.194903642 0.511354983
vt 0.236411393 0.51935631
vt 0.193125963 0.51935631
vt 0.234633729 0.511354983
vt 0.256652474 0.572351277
vt 0.2663908 0.534849763
vt 0.256649226 0.531641662
vt 0.266389251 0.569017589
vt 0.279755771 0.522277772
vt 0.276932597 0.590739489
vt 0.276716858 0.512825131
vt 0.279851258 0.581225514
vt 0.314077348 0.521752238
vt 0.317598909 0.589793086
vt 0.316963375 0.512740433
vt 0.314452112 0.581225216
vt 0.328341633 0.534796238
vt 0.337506294 0.571227312
vt 0.337477475 0.531570613
vt 0.328342587 0.567961812
vt 0.236411393 0.583281577
vt 0.194903642 0.591282785
vt 0.193125963 0.583281577
vt 0.234633729 0.591282785
vt 0.174804702 0.57118398
vt 0.246731326 0.572961688
vt 0.182806045 0.572961688
vt 0.254732519 0.57118398
vt 0.174804702 0.531453848
vt 0.246731326 0.529676199
vt 0.182806045 0.529676199
vt 0.254732519 0.531453848
vt 0.194903642 0.511354983
vt 0.236411393 0.51935631
vt 0.193125963 0.51935631
vt 0.234633729 0.511354983
vt 0.256652474 0.572351277
vt 0.2663908 0.534849763
vt 0.256649226 0.531641662
vt 0.266389251 0.569017589
vt 0.279755771 0.522277772
vt 0.276932597 0.590739489
vt 0.276716858 0.512825131
vt 0.279851258 0.581225514
vt 0.314077348 0.521752238
vt 0.317598909 0.589793086
vt 0.316963375 0.512740433
vt 0.314452112 0.581225216
vt 0.328341633 0.534796238
vt 0.337506294 0.571227312
vt 0.337477475 0.531570613
vt 0.328342587 0.567961812
vt 0.236411393 0.583281577
vt 0.194903642 0.591282785
vt 0.193125963 0.583281577
vt 0.234633729 0.591282785
vt 0.174804702 0.57118398
vt 0.246731326 0.572961688
vt 0.182806045 0.572961688
vt 0.254732519 0.57118398
vt 0.174804702 0.531453848
vt 0.246731326 0.529676199
vt 0.182806045 0.529676199
vt 0.254732519 0.531453848
vt 0.194903642 0.511354983
vt 0.236411393 0.51935631
vt 0.193125963 0.51935631
vt 0.234633729 0.511354983
vt 0.195172146 0.915767908
vt 0.20123066 0.91304642
vt 0.201287389 0.896703184
vt 0.195211872 0.893904209
vt 0.208266318 0.928717196
vt 0.211069733 0.886900127
vt 0.211056277 0.92273128
vt 0.208310634 0.880853891
vt 0.230264947 0.928717196
vt 0.227547809 0.886895478
vt 0.227520749 0.92273128
vt 0.230309129 0.880872905
vt 0.243344903 0.915795267
vt 0.237288713 0.896663189
vt 0.237342566 0.913127661
vt 0.243351296 0.893893063
vt 0.195172146 0.915767908
vt 0.20123066 0.91304642
vt 0.201287389 0.896703184
vt 0.195211872 0.893904209
vt 0.208266318 0.928717196
vt 0.211069733 0.886900127
vt 0.211056277 0.92273128
vt 0.208310634 0.880853891
vt 0.230264947 0.928717196
vt 0.227547809 0.886895478
vt 0.227520749 0.92273128
vt 0.230309129 0.880872905
vt 0.243344903 0.915795267
vt 0.237288713 0.896663189
vt 0.237342566 0.913127661
vt 0.243351296 0.893893063
vn -0.577346802 0.577346325 -0.57735759
vn -0.577346861 0.577346265 -0.577357531
vn -0.577346802 0.577346325 -0.57735759
vn -0.577346742 -0.577343881 -0.577360272
vn -0.577346742 -0.577343881 -0.577360272
vn -0.577346742 -0.577343881 -0.577360272
vn 0.888916671 -0.457559943 -0.0215895697
vn 0.579705536 -0.576172888 -0.57616514
vn 0.888917625 -0.0216058791 -0.457557261
vn 0.577351689 0.57735312 -0.577346087
vn 0.888915896 0.457561255 -0.0215912927
vn 0.577351689 0.57735312 -0.577346087
vn 0.888915479 0.457562089 0.0215930734
vn 0.457558751 0.888917029 0.0215980802
vn 0.577352345 0.57735455 0.577343941
vn 0.579703927 -0.576173484 0.576166213
vn 0.888916016 -0.457560897 0.0215931926
vn 0.8889184 -0.0216054358 0.457555741
vn -0.888915539 -0.457561076 0.0216123108
vn -0.579700232 -0.576169193 0.57617414
vn -0.577348888 -0.577348888 0.57735312
vn -0.457561702 0.88891536 0.021605324
vn -0.888915718 0.457560688 0.021611724
vn -0.57734859 0.57734859 0.577353537
vn -0.101618506 -0.989619672 0.101619311
vn -0.101618491 -0.989619672 0.101619303
vn -0.101618506 -0.989619672 0.101619311
vn -0.101617388 -0.989619911 -0.101618327
vn -0.101617381 -0.989619911 -0.10161832
vn -0.101617381 -0.989619911 -0.10161832
vn 0.101619311 -0.989619911 -0.101616666
vn 0.101619326 -0.989619911 -0.101616673
vn 0.101619311 -0.989619911 -0.101616651
vn 0.101618506 -0.989619672 0.101619311
vn 0.101618491 -0.989619672 0.101619303
vn 0.101618506 -0.989619672 0.101619311
vn 0.989619315 0.101621136 -0.10162127
vn 0.989619315 0.101621144 -0.10162127
vn 0.989619315 0.101621136 -0.10162127
vn 0.989619672 0.101618975 0.10161911
vn 0.989619672 0.101618968 0.101619102
vn 0.989619672 0.101618968 0.101619117
vn 0.989619792 -0.101618789 0.101618789
vn 0.989619792 -0.101618789 0.101618789
vn 0.989619792 -0.101618789 0.101618789
vn 0.989619315 -0.101620764 -0.101621032
vn 0.989619315 -0.101620749 -0.101621024
vn 0.989619315 -0.101620764 -0.101621024
vn -0.989619672 0.101618864 0.101618998
vn -0.989619672 0.101618841 0.101618975
vn -0.989619672 0.101618864 0.101618998
vn -0.989619672 0.101618819 -0.101619095
vn -0.989619672 0.101618797 -0.10161908
vn -0.989619672 0.101618819 -0.101619095
vn -0.989619672 -0.101619042 -0.101618908
vn -0.989619672 -0.101619057 -0.101618923
vn -0.989619672 -0.101619042 -0.101618908
vn -0.989619672 -0.101618707 0.101618968
vn -0.989619672 -0.101618707 0.101618968
vn -0.989619672 -0.101618707 0.101618968
vn -0.680113614 -0.540142 0.495673209
vn -0.68011415 -0.540141582 -0.49567312
vn -0.54014647 -0.680111527 -0.495671391
vn -0.540144563 -0.680111885 0.495673031
vn -0.495668203 -0.540154755 -0.680107236
vn 0.495671928 -0.540142715 -0.68011415
vn 0.464501828 -0.832407236 -0.302218765
vn -0.464505255 -0.832416236 -0.302188575
vn 0.680113614 -0.540145278 -0.495669931
vn 0.680114329 -0.540143549 0.495670766
vn 0.540146649 -0.680111468 0.495671153
vn 0.540144682 -0.680112839 -0.495671421
vn 0.495669991 -0.540134728 0.680121839
vn -0.495666176 -0.540151119 0.680111647
vn -0.464506805 -0.832415462 0.302188307
vn 0.464499921 -0.832405806 0.30222559
vn -0.464503199 0.302205652 0.832411289
vn 0.464502364 0.302199543 0.832413912
vn 0.46449998 0.832405984 0.302225232
vn -0.464500695 0.832418144 0.302190453
vn 0.832410753 0.302205831 0.464503884
vn 0.832410753 0.302205592 -0.464504033
vn 0.540144265 0.680113137 -0.495671511
vn 0.540144622 0.680113137 0.495671153
vn 0.464504361 0.302205086 -0.832410753
vn -0.464504659 0.302211106 -0.832408488
vn -0.464505792 0.832417309 -0.302185059
vn 0.464502573 0.832408488 -0.302214235
vn -0.832411766 0.302202731 -0.464504182
vn -0.832411766 0.302202523 0.464504391
vn -0.540146291 0.680110455 0.49567306
vn -0.540146768 0.680110276 -0.495672852
vn 0.540133417 0.495666057 0.680125833
vn 0.540134788 -0.495665312 0.680125356
vn 0.83240217 -0.464501321 0.302233428
vn 0.83240211 0.464501679 0.302233368
vn 0.577343106 0.577348113 0.577359498
vn 0.46449998 0.832405984 0.302225232
vn 0.540144622 0.680113137 0.495671153
vn 0.464502364 0.302199543 0.832413912
vn 0.832410753 0.302205831 0.464503884
vn -0.540152729 -0.495675564 0.680103481
vn -0.540154338 0.495674878 0.680102706
vn -0.832417667 0.464510113 0.302177459
vn -0.832418442 -0.464507669 0.302179039
vn 0.540138781 -0.495667845 -0.68012023
vn 0.540138662 0.49566853 -0.680119812
vn 0.832406878 0.46450004 -0.302222461
vn 0.832406342 -0.464499593 -0.302224994
vn 0.57734561 -0.577348113 -0.577357054
vn 0.464501828 -0.832407236 -0.302218765
vn 0.540144682 -0.680112839 -0.495671421
vn 0.495671928 -0.540142715 -0.68011415
vn 0.680113614 -0.540145278 -0.495669931
vn -0.540159345 0.495675921 -0.680097938
vn -0.540156662 -0.495677561 -0.680098891
vn -0.832419395 -0.464505225 -0.302180141
vn -0.832420349 0.464506119 -0.302176327
vn -0.577356577 0.577352643 -0.577341735
vn -0.464505792 0.832417309 -0.302185059
vn -0.540146768 0.680110276 -0.495672852
vn -0.464504659 0.302211106 -0.832408488
vn -0.832411766 0.302202731 -0.464504182
vn 0.464504361 0.302205086 -0.832410753
vn -0.3826828 0 -0.923879802
vn -0.464504659 0.302211106 -0.832408488
vn 0.3826828 0 -0.923879802
vn 0.832410753 0.302205592 -0.464504033
vn 0.923879325 0 -0.382684082
vn 0.832410753 0.302205831 0.464503884
vn 0.923879325 0 0.382684082
vn 0.3826828 0 0.923879802
vn 0.464502364 0.302199543 0.832413912
vn -0.464503199 0.302205652 0.832411289
vn -0.3826828 0 0.923879802
vn -0.832411766 0.302202523 0.464504391
vn -0.923879325 0 0.382684082
vn -0.832411766 0.302202731 -0.464504182
vn -0.923879325 0 -0.382684082
vn -0.464504659 0.302211106 -0.832408488
vn -0.3826828 0 -0.923879802
vn 0.382977486 0.0447731353 -0.922671974
vn -0.381595254 0.044778619 -0.923244298
vn -0.38298133 0.044783242 -0.922669828
vn 0.381599605 0.0447685607 -0.923242986
vn 0.922670066 0.0447624549 -0.382983446
vn 0.923245847 0.0447578058 -0.381593853
vn 0.922671378 0.0447573885 0.382980824
vn 0.923244953 0.0447527841 0.381596833
vn 0.382978797 0.0447609499 0.922671974
vn 0.381598741 0.0447563715 0.92324388
vn -0.382982582 0.0447710678 0.922669947
vn -0.38159433 0.0447664447 0.923245251
vn -0.922671378 0.0447853059 0.382977486
vn -0.923242509 0.0447807573 0.381599277
vn -0.922670066 0.0447903723 -0.382980287
vn -0.923243523 0.0447857715 -0.381596386
vn -0.38298133 0.044783242 -0.922669828
vn -0.381595254 0.044778619 -0.923244298
vn 0.908401489 0.172617987 0.380801558
vn 0.888917625 -0.0216058791 -0.457557261
vn 0.908401012 0.172618762 -0.380802274
vn 0.8889184 -0.0216054358 0.457555741
vn 0.380805552 0.172618195 0.90839982
vn 0.579703927 -0.576173484 0.576166213
vn -0.380804777 0.172620803 0.908399582
vn -0.579700232 -0.576169193 0.57617414
vn -0.908399582 0.172622383 0.380803943
vn -0.911839187 0.172459081 0.372568399
vn -0.908398628 0.172623336 -0.380805761
vn -0.911838233 0.17246002 -0.372570217
vn -0.380802304 0.172623768 -0.908400118
vn -0.580334306 -0.575849354 -0.575855494
vn 0.380804092 0.172621146 -0.90839982
vn 0.579705536 -0.576172888 -0.57616514
vn 0.908401012 0.172618762 -0.380802274
vn 0.888917625 -0.0216058791 -0.457557261
vn -0.832417667 0.464510113 0.302177459
vn -0.923880756 -0.382680416 -3.49174261E-05
vn -0.832418442 -0.464507669 0.302179039
vn -0.923879921 0.382682502 -3.85392632E-05
vn -0.464500695 0.832418144 0.302190453
vn -0.382692903 0.92387563 -1.8083414E-05
vn 0.46449998 0.832405984 0.302225232
vn 0.382675827 0.923882663 1.32622908E-05
vn 0.923877716 0.382687807 3.37188139E-05
vn 0.83240211 0.464501679 0.302233368
vn 0.83240217 -0.464501321 0.302233428
vn 0.923877776 -0.382687628 3.37056335E-05
vn 0.464499921 -0.832405806 0.30222559
vn 0.382675916 -0.923882544 1.32491159E-05
vn -0.464506805 -0.832415462 0.302188307
vn -0.382690996 -0.923876345 -1.44613323E-05
vn -0.832418442 -0.464507669 0.302179039
vn -0.923880756 -0.382680416 -3.49174261E-05
vn -0.922672093 0.382977277 0.0447731204
vn -0.923244715 -0.381594241 0.0447786227
vn -0.92266947 -0.382982343 0.0447832532
vn -0.923242867 0.381599724 0.0447685495
vn -0.382983357 0.922670066 0.0447628982
vn -0.381593943 0.923245728 0.0447582565
vn 0.382980764 0.922671378 0.0447578281
vn 0.381596893 0.923244834 0.0447532199
vn 0.922672093 0.382978708 0.0447609387
vn 0.923243821 0.38159886 0.0447563492
vn 0.92266947 -0.382983685 0.0447710603
vn 0.923245609 -0.381593287 0.0447664112
vn 0.382977933 -0.922671258 0.0447826311
vn 0.38159883 -0.923242807 0.0447780602
vn -0.382980615 -0.922670066 0.0447877049
vn -0.38159591 -0.923243701 0.0447830893
vn -0.92266947 -0.382982343 0.0447832532
vn -0.923244715 -0.381594241 0.0447786227
vn 0.380806476 0.908398509 0.17262274
vn -0.372570634 0.911839724 0.172451317
vn -0.380802572 0.908401787 0.17261447
vn 0.37256518 0.911840379 0.17245923
vn 0.908399224 0.380801529 0.172629893
vn 0.888915896 0.457561255 -0.0215912927
vn 0.908398449 -0.380802691 0.172631621
vn 0.888916671 -0.457559943 -0.0215895697
vn 0.380804926 -0.908398211 0.172627538
vn 0.579705536 -0.576172888 -0.57616514
vn -0.380801737 -0.908401012 0.172619894
vn -0.580334306 -0.575849354 -0.575855494
vn -0.908400714 -0.380805403 0.172613531
vn -0.911841571 -0.37256667 0.172450125
vn -0.908401549 0.38080436 0.172611192
vn -0.911841214 0.372568578 0.172447905
vn -0.380802572 0.908401787 0.17261447
vn -0.372570634 0.911839724 0.172451317
vn -0.832419395 -0.464505225 -0.302180141
vn -0.923880458 0.38268131 3.01639157E-05
vn -0.832420349 0.464506119 -0.302176327
vn -0.923880935 -0.382680118 2.7898699E-05
vn -0.464505255 -0.832416236 -0.302188575
vn -0.382690251 -0.923876643 9.14767134E-06
vn 0.464501828 -0.832407236 -0.302218765
vn 0.382677734 -0.923881948 -1.37550769E-05
vn 0.923879087 -0.38268429 -2.56877956E-05
vn 0.832406342 -0.464499593 -0.302224994
vn 0.832406878 0.46450004 -0.302222461
vn 0.92387861 0.382685632 -2.32776474E-05
vn 0.464502573 0.832408488 -0.302214235
vn 0.382677227 0.923882186 -7.93561048E-06
vn -0.464505792 0.832417309 -0.302185059
vn -0.382689655 0.923877001 1.48221879E-05
vn -0.832420349 0.464506119 -0.302176327
vn -0.923880458 0.38268131 3.01639157E-05
vn -0.922671974 -0.382977486 -0.0447731204
vn -0.923244238 0.381595254 -0.044778619
vn -0.922669828 0.38298136 -0.044783242
vn -0.923242986 -0.381599635 -0.0447685644
vn -0.382983446 -0.922670066 -0.0447624549
vn -0.381593853 -0.923245847 -0.0447578058
vn 0.382980824 -0.922671378 -0.0447573885
vn 0.381596833 -0.923244953 -0.0447527841
vn 0.922671974 -0.382978857 -0.0447609425
vn 0.923243821 -0.381598771 -0.0447563678
vn 0.922669947 0.382982701 -0.0447710715
vn 0.923245251 0.38159433 -0.044766441
vn 0.382977486 0.922671378 -0.0447853059
vn 0.381599277 0.923242509 -0.0447807573
vn -0.382980287 0.922670066 -0.0447903723
vn -0.381596386 0.923243523 -0.0447857715
vn -0.922669828 0.38298136 -0.044783242
vn -0.923244238 0.381595254 -0.044778619
vn 0.380805701 -0.908398926 -0.172622114
vn -0.579700232 -0.576169193 0.57617414
vn -0.380801976 -0.908401787 -0.172615483
vn 0.579703927 -0.576173484 0.576166213
vn 0.908399403 -0.380802035 -0.172627702
vn 0.888916016 -0.457560897 0.0215931926
vn 0.908398449 0.380803704 -0.172629014
vn 0.888915479 0.457562089 0.0215930734
vn 0.380804032 0.908399105 -0.172625095
vn 0.457558751 0.888917029 0.0215980802
vn -0.380801231 0.908401549 -0.172618121
vn -0.457561702 0.88891536 0.021605324
vn -0.908400714 0.38080579 -0.17261298
vn -0.888915718 0.457560688 0.021611724
vn -0.908400893 -0.380805433 -0.172612146
vn -0.888915539 -0.457561076 0.0216123108
vn -0.380801976 -0.908401787 -0.172615483
vn -0.579700232 -0.576169193 0.57617414
vn -0 -1 -9.5829148E-07
vn -0 -1 -9.5829148E-07
vn -0 -1 -9.5829148E-07
vn -0 -1 -9.5829148E-07
vn -1.79571742E-07 1 4.29161537E-06
vn -1.79571757E-07 1 4.29161628E-06
vn -1.79571757E-07 1 4.29161628E-06
vn -1.79571742E-07 1 4.29161628E-06
vn -5.55565009E-07 1 -5.07907373E-07
vn -5.55565009E-07 1 -5.07907373E-07
vn -5.38714687E-07 1 1.83927909E-06
vn -5.38714687E-07 1 1.83927887E-06
vn -0 -0.989628434 0.143651217
vn -0 -0.989628434 0.143651217
vn -0 -0.989628434 0.143651217
vn -0 -0.989628434 0.143651217
vn -0.143650219 -0.989628553 -3.78114692E-07
vn -0.143650219 -0.989628553 -3.78114663E-07
vn -0.143650234 -0.989628553 -3.78114606E-07
vn -0.143650219 -0.989628553 -3.78114692E-07
vn -2.16931895E-07 -0.989628673 -0.143649355
vn -2.16931909E-07 -0.989628673 -0.143649369
vn -2.16931909E-07 -0.989628673 -0.143649369
vn -2.1693188E-07 -0.989628673 -0.14364934
vn 0.143650845 -0.989628434 -6.7806252E-07
vn 0.143650815 -0.989628434 -6.7806252E-07
vn 0.143650845 -0.989628434 -6.78062463E-07
vn 0.143650815 -0.989628434 -6.7806252E-07
vn 1 0 1.91658296E-06
vn 1 0 1.91658296E-06
vn 1 0 1.91658296E-06
vn 1 0 1.91658296E-06
vn -1 0 -1.96190504E-05
vn -1 0 -1.96190504E-05
vn -1 0 -1.96190522E-05
vn -1 0 -1.96190504E-05
vn -1 0 0
vn -1 0 0
vn -1 0 1.47141054E-05
vn -1 0 1.47141072E-05
vn 0.989627957 0 -0.143654227
vn 0.989627957 0 -0.143654212
vn 0.989627957 0 -0.143654227
vn 0.989627957 0 -0.143654227
vn 0.989628077 0.14365305 7.57443786E-07
vn 0.989628077 0.14365305 7.57443786E-07
vn 0.989628077 0.14365305 7.57443672E-07
vn 0.989628077 0.14365305 7.57443786E-07
vn 0.989628434 0 0.143651202
vn 0.989628434 0 0.143651202
vn 0.989628434 0 0.143651217
vn 0.989628434 0 0.143651202
vn 0.989628196 -0.143652514 8.11370626E-07
vn 0.989628196 -0.143652514 8.11370683E-07
vn 0.989628196 -0.143652514 8.11370796E-07
vn 0.989628196 -0.143652514 8.11370796E-07
vn -1 0 0
vn -1 0 0
vn -1 0 0
vn -1 0 0
vn 1 0 -1.47141236E-05
vn 1 0 -1.47141245E-05
vn 1 0 -1.47141245E-05
vn 1 0 -1.47141236E-05
vn 1 0 0
vn 1 0 0
vn 1 0 1.96190504E-05
vn 1 0 1.96190504E-05
vn -0.989628434 0 0.143651232
vn -0.989628434 0 0.143651217
vn -0.989628434 0 0.143651232
vn -0.989628434 0 0.143651232
vn -0.989628434 0.143651336 0
vn -0.989628434 0.143651322 0
vn -0.989628434 0.143651322 0
vn -0.989628434 0.143651336 0
vn -0.989628434 0 -0.143651322
vn -0.989628434 0 -0.143651322
vn -0.989628434 0 -0.143651322
vn -0.989628434 0 -0.143651336
vn -0.989628434 -0.143651217 0
vn -0.989628434 -0.143651217 0
vn -0.989628434 -0.143651202 0
vn -0.989628434 -0.143651217 0
vn 0.707100093 -0.707113445 -6.18150734E-05
vn 0.382672548 -0.923883975 -8.07186007E-05
vn 0.707100153 -0.707113326 -6.18150661E-05
vn 0.382686496 -0.923878312 -8.07181132E-05
vn -0.382676631 -0.923882365 -8.08510376E-05
vn -0.382692456 -0.923875749 -8.08504556E-05
vn -0.707109094 -0.707104385 -6.20592546E-05
vn -0.707109094 -0.707104385 -6.20592546E-05
vn 1 1.68034978E-06 0
vn 1 1.68034978E-06 0
vn 1 1.68034978E-06 0
vn 1 1.68034978E-06 0
vn 0.382675469 0.923882782 8.09699195E-05
vn 0.707106113 0.707107365 6.19346101E-05
vn 0.707106173 0.707107306 6.19346029E-05
vn 0.382691443 0.923876286 8.0969352E-05
vn -0.382676631 0.923882365 8.0839578E-05
vn -0.382689178 0.92387706 8.08391123E-05
vn -0.70710659 0.707106888 6.1693805E-05
vn -0.70710659 0.707106888 6.16937905E-05
vn -1 -3.36071912E-06 0
vn -1 -3.3607198E-06 0
vn -1 -3.36071912E-06 0
vn -1 -3.3607198E-06 0
vn 0.7071141 0.707099438 -0.000173572815
vn 0.382677704 0.923881948 -0.000165998485
vn 0.7071141 0.707099438 -0.000173572829
vn 0.382699788 0.923872709 -0.000165999751
vn -0.394704521 0.918808162 -0.000167869322
vn -0.394726098 0.918798745 -0.000167870588
vn -0.725332439 0.688398778 -0.000175325855
vn -0.725332439 0.688398778 -0.000175325884
vn 1 -2.23970255E-06 -0.000235644824
vn 1 -2.23970278E-06 -0.000235644839
vn 1 -2.23970278E-06 -0.000235644839
vn 1 -2.23970255E-06 -0.000235644824
vn 0.353806138 -0.935318708 -0.000325296307
vn 0.661845744 -0.749640048 -0.000300174986
vn 0.661845744 -0.749639928 -0.000300174928
vn 0.353809476 -0.935317457 -0.000325296307
vn -0.367497295 -0.930024505 -0.000326515408
vn -0.367502868 -0.930022359 -0.000326515379
vn -0.683567405 -0.729887307 -0.000298997911
vn -0.683567405 -0.729887307 -0.000298997882
vn -1 0 -0.000235644635
vn -1 0 -0.000235644591
vn -1 0 -0.000235644591
vn -1 0 -0.000235644591
vn 0.382692695 -0.923875749 8.09806006E-05
vn 0.382676214 -0.923882544 8.09811754E-05
vn -0.382677704 -0.923881948 8.01915376E-05
vn -0.382691413 -0.923876286 8.0191021E-05
vn -0.70710963 -0.707103908 6.08408845E-05
vn -0.70710963 -0.707103908 6.08408845E-05
vn 0.707107067 -0.707106411 6.23001033E-05
vn 0.707107127 -0.707106352 6.23001033E-05
vn 0.382676214 -0.923882544 8.09811754E-05
vn 0.382692695 -0.923875749 8.09806006E-05
vn 1 -1.68034535E-06 6.89165518E-07
vn 1 -1.68034512E-06 6.89165404E-07
vn 1 -1.68034535E-06 6.89165518E-07
vn 1 -1.68034512E-06 6.89165404E-07
vn 0.382676989 0.923882186 -8.0580714E-05
vn 0.707108438 0.707105041 -6.13878146E-05
vn 0.707108438 0.707105041 -6.13878146E-05
vn 0.382692128 0.923875988 -8.0580161E-05
vn -0.382680297 0.923880816 -8.13719162E-05
vn -0.38269344 0.923875332 -8.13714505E-05
vn -0.707112074 0.707101464 -6.28497073E-05
vn -0.707112074 0.707101464 -6.28497073E-05
vn -1 0 -2.06705545E-06
vn -1 0 -2.06705545E-06
vn -1 0 -2.06705545E-06
vn -1 0 -2.06705545E-06
vn 0.707103431 0.707110107 -0.000297077699
vn 0.707103431 0.707110107 -0.000297077728
vn 0.382675588 0.923882663 -0.000327367597
vn 0.382683784 0.923879325 -0.000327367539
vn -0.382674515 0.9238832 -0.000327629416
vn -0.382682234 0.923880041 -0.000327629241
vn -0.707096636 0.707116842 -0.000297563296
vn -0.707096636 0.707116783 -0.000297563296
vn 1 -4.48621631E-06 -0.000235643907
vn 1 -4.48621631E-06 -0.000235643951
vn 1 -4.48621631E-06 -0.000235643951
vn 1 -4.48621677E-06 -0.000235643922
vn 0.382669181 -0.923885405 -0.000166088415
vn 0.707101703 -0.707111776 -0.000173567736
vn 0.707101703 -0.707111776 -0.000173567707
vn 0.382688999 -0.92387718 -0.000166089565
vn -0.382661939 -0.923888445 -0.000166349811
vn -0.382689029 -0.92387718 -0.000166351398
vn -0.707093 -0.707120478 -0.00017405214
vn -0.707092941 -0.707120478 -0.00017405214
vn -1 0 -0.000236333304
vn -1 0 -0.000236333304
vn -1 0 -0.000236333304
vn -1 0 -0.000236333304
vn 0.923877299 4.04636157E-05 -0.382688999
vn 0.923880935 4.04637613E-05 -0.382679969
vn 0.923880339 4.0067669E-05 0.382681608
vn 0.923877776 4.00675563E-05 0.382687628
vn 0.707103848 3.03983488E-05 0.70710969
vn 0.707103848 3.03983488E-05 0.70710969
vn 0.707106352 3.11302974E-05 -0.707107127
vn 0.707106352 3.11302974E-05 -0.707107127
vn 0.923880935 4.04637613E-05 -0.382679969
vn 0.923877299 4.04636157E-05 -0.382688999
vn 1.6803474E-06 3.44348564E-07 -1
vn 1.6803474E-06 3.44348564E-07 -1
vn 1.6803474E-06 3.44348564E-07 -1
vn 1.6803474E-06 3.44348564E-07 -1
vn -0.923880637 -4.02628939E-05 -0.382680893
vn -0.707105041 -3.06730435E-05 -0.707108438
vn -0.707105041 -3.06730471E-05 -0.707108438
vn -0.923877597 -4.02627666E-05 -0.382688284
vn -0.923879325 -4.0658244E-05 0.382684082
vn -0.923877001 -4.06581457E-05 0.382689804
vn -0.707101464 -3.14034951E-05 0.707112074
vn -0.707101464 -3.14034951E-05 0.707112074
vn -0 -1.03282514E-06 1
vn -0 -1.03282514E-06 1
vn -0 -1.03282514E-06 1
vn -0 -1.03282514E-06 1
vn -0.707110107 -0.000148437903 -0.707103431
vn -0.707110107 -0.000148437903 -0.707103431
vn -0.923881948 -0.000163572564 -0.382677704
vn -0.923880219 -0.000163572535 -0.382681698
vn -0.923882484 -0.000163703386 0.382676482
vn -0.923880756 -0.000163703342 0.382680357
vn -0.707116783 -0.000148680585 0.707096696
vn -0.707116783 -0.000148680556 0.707096696
vn 4.48727133E-06 -0.000117741882 -1
vn 4.48727133E-06 -0.000117741882 -1
vn 4.48727133E-06 -0.000117741882 -1
vn 4.48727133E-06 -0.000117741882 -1
vn 0.9238832 -8.29879282E-05 -0.382674694
vn 0.707111776 -8.67248746E-05 -0.707101762
vn 0.707111776 -8.672486E-05 -0.707101762
vn 0.923879504 -8.29881901E-05 -0.382683516
vn 0.92388612 -8.31185389E-05 0.382667482
vn 0.923879504 -8.311899E-05 0.382683516
vn 0.707120478 -8.69669238E-05 0.707093
vn 0.707120478 -8.69669238E-05 0.707093
vn -0 -0.000118086369 1
vn -0 -0.000118086369 1
vn -0 -0.000118086369 1
vn -0 -0.000118086347 1
vn -0.540156662 -0.495677561 -0.680098891
vn -0.54014647 -0.680111527 -0.495671391
vn -0.577355027 -0.577352703 -0.577343106
vn -0.832419395 -0.464505225 -0.302180141
vn -0.68011415 -0.540141582 -0.49567312
vn -0.464505255 -0.832416236 -0.302188575
vn -0.495668203 -0.540154755 -0.680107236
vn -0.540154338 0.495674878 0.680102706
vn -0.577354014 0.577351928 0.577344894
vn -0.832417667 0.464510113 0.302177459
vn -0.540146291 0.680110455 0.49567306
vn -0.464500695 0.832418144 0.302190453
vn -0.832411766 0.302202523 0.464504391
vn -0.464503199 0.302205652 0.832411289
vn 0.464502573 0.832408488 -0.302214235
vn 0.832406878 0.46450004 -0.302222461
vn 0.577345729 0.577348948 -0.577356219
vn 0.464504361 0.302205086 -0.832410753
vn 0.540138662 0.49566853 -0.680119812
vn 0.832410753 0.302205592 -0.464504033
vn 0.540144265 0.680113137 -0.495671511
vn -0.832418442 -0.464507669 0.302179039
vn -0.577354372 -0.577352881 0.577343583
vn -0.540152729 -0.495675564 0.680103481
vn -0.464506805 -0.832415462 0.302188307
vn -0.540144563 -0.680111885 0.495673031
vn -0.495666176 -0.540151119 0.680111647
vn -0.680113614 -0.540142 0.495673209
vn 0.464499921 -0.832405806 0.30222559
vn 0.83240217 -0.464501321 0.302233428
vn 0.57734406 -0.577346861 0.577359915
vn 0.495669991 -0.540134728 0.680121839
vn 0.540134788 -0.495665312 0.680125356
vn 0.680114329 -0.540143549 0.495670766
vn 0.540146649 -0.680111468 0.495671153
vn 1.20121476E-05 4.55027566E-06 -1
vn 4.09303357E-06 7.53538779E-06 -1
vn 3.8114606E-06 7.6616052E-06 -1
vn 1.20278974E-05 4.51587266E-06 -1
vn -2.09337168E-06 1.59993469E-05 -1
vn 4.17591127E-06 8.66659138E-06 -1
vn -2.05377023E-06 1.60886411E-05 -1
vn 3.78785353E-06 8.84430938E-06 -1
vn 7.64496599E-06 1.81696796E-05 -1
vn -4.44310308E-06 1.17718037E-05 -1
vn 7.44387489E-06 1.8236753E-05 -1
vn -4.41783595E-06 1.17954942E-05 -1
vn 1.37121187E-05 9.5288724E-06 -1
vn 2.87894431E-06 7.92366427E-06 -1
vn 1.39081121E-05 1.03246912E-05 -1
vn 4.19581693E-06 7.37002574E-06 -1
vn -0.287219405 -0.114112005 -0.951043308
vn -0.282937795 0.127133489 -0.950675249
vn -0.287219197 0.114112481 -0.951043308
vn -0.282937616 -0.127133831 -0.95067513
vn -0.127133623 0.282937825 -0.95067513
vn -0.114112347 -0.287219405 -0.951043308
vn -0.114111885 0.287219554 -0.951043308
vn -0.127133206 -0.282937944 -0.95067513
vn 0.127132818 0.282937795 -0.950675249
vn 0.114112347 -0.287219346 -0.951043308
vn 0.114112087 0.287219226 -0.951043427
vn 0.127133206 -0.282938004 -0.95067513
vn 0.282937378 0.127133355 -0.950675309
vn 0.287219405 -0.114111997 -0.951043308
vn 0.287218928 0.114112318 -0.951043487
vn 0.282937616 -0.127133831 -0.95067513
vn -0.586743295 -0.363901109 0.723400533
vn -0.590326548 0.181255043 0.786550105
vn -0.586742818 0.363900095 0.723401368
vn -0.590326905 -0.181255415 0.786549807
vn -0.181255028 0.590324461 0.786551714
vn -0.363901109 -0.586743295 0.723400533
vn -0.36390081 0.586741269 0.723402262
vn -0.181255415 -0.590326905 0.786549807
vn 0.181255028 0.590324461 0.786551714
vn 0.363901109 -0.586743295 0.723400533
vn 0.36390081 0.586741269 0.723402262
vn 0.181255415 -0.590326905 0.786549807
vn 0.590326548 0.181255043 0.786550105
vn 0.586743295 -0.363901109 0.723400533
vn 0.586742818 0.363900095 0.723401368
vn 0.590326905 -0.181255415 0.786549807
vn -0.287219405 0.114112109 0.951043308
vn -0.282937914 -0.127133474 0.95067513
vn -0.287219465 -0.114112347 0.951043308
vn -0.282937676 0.127133727 0.95067513
vn -0.127133831 -0.282937735 0.95067513
vn -0.114112422 0.287219584 0.951043189
vn -0.114112005 -0.287219554 0.951043308
vn -0.12713322 0.282938212 0.95067513
vn 0.127133042 -0.282937676 0.950675249
vn 0.114112422 0.287219524 0.951043189
vn 0.114112228 -0.287219226 0.951043427
vn 0.12713322 0.282938153 0.95067513
vn 0.282937527 -0.12713334 0.950675249
vn 0.287219316 0.114112139 0.951043427
vn 0.287219137 -0.114112169 0.951043427
vn 0.282937676 0.127133653 0.950675249
vn -0.586743057 0.363901168 -0.723400652
vn -0.590326667 -0.181255311 -0.786550045
vn -0.586742997 -0.36390084 -0.72340095
vn -0.590326726 0.181255266 -0.786549985
vn -0.181255192 -0.590325713 -0.78655076
vn -0.36390081 0.586742759 -0.72340107
vn -0.363900751 -0.586742461 -0.723401368
vn -0.181255251 0.59032613 -0.786550462
vn 0.181255192 -0.590325713 -0.78655076
vn 0.36390081 0.586742818 -0.72340101
vn 0.363900751 -0.586742461 -0.723401368
vn 0.181255266 0.59032613 -0.786550462
vn 0.590326667 -0.181255311 -0.786550045
vn 0.586743116 0.363901168 -0.723400652
vn 0.586742997 -0.36390084 -0.72340095
vn 0.590326726 0.181255281 -0.786549985
vn 0.114112169 0.951043189 -0.287219822
vn -0.127133518 0.95067513 -0.282937974
vn -0.114112578 0.951043189 -0.287219495
vn 0.12713401 0.950675011 -0.282938093
vn -0.282937855 0.95067513 -0.127133623
vn 0.287219614 0.951043189 -0.11411228
vn -0.287219614 0.951043308 -0.114111885
vn 0.282938123 0.950675011 -0.127133623
vn -0.282937795 0.950675249 0.127133206
vn 0.287219614 0.951043308 0.114112265
vn -0.287219346 0.951043427 0.114111975
vn 0.282938033 0.95067513 0.127133593
vn -0.127133399 0.950675249 0.282937527
vn 0.114112079 0.951043308 0.287219614
vn -0.114112385 0.951043427 0.287219077
vn 0.127133921 0.95067513 0.282937825
vn 0.363900572 -0.723401368 -0.58674258
vn -0.18125473 -0.786551118 -0.590325356
vn -0.363899499 -0.723402321 -0.586742043
vn 0.181255132 -0.78655076 -0.590325713
vn -0.590324163 -0.786552012 -0.181254953
vn 0.586742818 -0.72340095 -0.363901019
vn -0.586740732 -0.723402798 -0.363900691
vn 0.590326667 -0.786550045 -0.181255341
vn -0.590324163 -0.786552012 0.181254968
vn 0.586742818 -0.72340095 0.363901019
vn -0.586740732 -0.723402739 0.363900661
vn 0.590326667 -0.786550045 0.181255341
vn -0.181254759 -0.786551058 0.590325415
vn 0.363900572 -0.723401368 0.58674258
vn -0.363899529 -0.723402321 0.586742043
vn 0.181255132 -0.78655076 0.590325713
vn -6.79540199E-06 1 1.45867998E-05
vn -6.28030057E-06 1 1.44732066E-05
vn 1.9580234E-06 1 6.23487767E-06
vn 1.8620276E-06 1 5.92920151E-06
vn -2.05158121E-05 1 4.9334385E-06
vn -6.23477217E-06 1 1.9580159E-06
vn -2.07077846E-05 1 4.32230945E-06
vn -5.92928518E-06 1 1.86207831E-06
vn -1.18581984E-05 1 -3.72406566E-06
vn -1.44732294E-05 1 1.01964488E-05
vn -1.24696153E-05 1 -3.91608091E-06
vn -1.45868162E-05 1 1.05196077E-05
vn -3.72404884E-06 1 1.18585222E-05
vn -1.21544281E-05 1 2.0708314E-05
vn -3.91606909E-06 1 1.24699736E-05
vn -1.23817636E-05 1 2.05162687E-05
vn -1.45867998E-05 6.79540153E-06 1
vn -1.44732076E-05 6.28029966E-06 1
vn -6.23487904E-06 -1.9580234E-06 1
vn -5.92920151E-06 -1.86202806E-06 1
vn -4.9334385E-06 2.05158121E-05 1
vn -1.9580159E-06 6.23477217E-06 1
vn -4.32230945E-06 2.07077846E-05 1
vn -1.86207831E-06 5.92928518E-06 1
vn 3.72406566E-06 1.18581984E-05 1
vn -1.01964488E-05 1.44732294E-05 1
vn 3.91608091E-06 1.24696153E-05 1
vn -1.05196077E-05 1.45868162E-05 1
vn -1.18585222E-05 3.72404884E-06 1
vn -2.0708314E-05 1.21544281E-05 1
vn -1.24699736E-05 3.91606909E-06 1
vn -2.05162687E-05 1.23817636E-05 1
g P_T_Vert_0
f 3/3/3 2/2/2 1/1/1
f 6/6/6 5/5/5 4/4/4
f 9/9/9 8/8/8 7/7/7
f 12/12/12 11/11/11 10/10/10
f 15/15/15 14/14/14 13/13/13
f 18/18/18 17/17/17 16/16/16
f 21/21/21 20/20/20 19/19/19
f 24/24/24 23/23/23 22/22/22
f 27/27/27 26/26/26 25/25/25
f 30/30/30 29/29/29 28/28/28
f 33/33/33 32/32/32 31/31/31
f 36/36/36 35/35/35 34/34/34
f 39/39/39 38/38/38 37/37/37
f 42/42/42 41/41/41 40/40/40
f 45/45/45 44/44/44 43/43/43
f 48/48/48 47/47/47 46/46/46
f 51/51/51 50/50/50 49/49/49
f 54/54/54 53/53/53 52/52/52
f 57/57/57 56/56/56 55/55/55
f 60/60/60 59/59/59 58/58/58
f 63/63/63 62/62/62 61/61/61
f 64/64/64 63/63/63 61/61/61
f 67/67/67 66/66/66 65/65/65
f 68/68/68 67/67/67 65/65/65
f 71/71/71 70/70/70 69/69/69
f 72/72/72 71/71/71 69/69/69
f 75/75/75 74/74/74 73/73/73
f 76/76/76 75/75/75 73/73/73
f 79/79/79 78/78/78 77/77/77
f 80/80/80 79/79/79 77/77/77
f 83/83/83 82/82/82 81/81/81
f 84/84/84 83/83/83 81/81/81
f 87/87/87 86/86/86 85/85/85
f 88/88/88 87/87/87 85/85/85
f 91/91/91 90/90/90 89/89/89
f 92/92/92 91/91/91 89/89/89
f 95/95/95 94/94/94 93/93/93
f 96/96/96 95/95/95 93/93/93
f 93/93/93 97/97/97 96/96/96
f 97/97/97 98/98/98 96/96/96
f 97/97/97 93/93/93 99/99/99
f 100/100/100 98/98/98 97/97/97
f 101/101/101 97/97/97 99/99/99
f 97/97/97 101/101/101 100/100/100
f 104/104/104 103/103/103 102/102/102
f 105/105/105 104/104/104 102/102/102
f 108/108/108 107/107/107 106/106/106
f 109/109/109 108/108/108 106/106/106
f 109/109/109 106/106/106 110/110/110
f 110/110/110 111/111/111 109/109/109
f 110/110/110 106/106/106 112/112/112
f 111/111/111 110/110/110 113/113/113
f 114/114/114 110/110/110 112/112/112
f 114/114/114 113/113/113 110/110/110
f 117/117/117 116/116/116 115/115/115
f 118/118/118 117/117/117 115/115/115
f 115/115/115 119/119/119 118/118/118
f 120/120/120 118/118/118 119/119/119
f 119/119/119 115/115/115 121/121/121
f 122/122/122 120/120/120 119/119/119
f 123/123/123 119/119/119 121/121/121
f 119/119/119 123/123/123 122/122/122
f 126/126/126 125/125/125 124/124/124
f 125/125/125 127/127/127 124/124/124
f 128/128/128 124/124/124 127/127/127
f 129/129/129 128/128/128 127/127/127
f 128/128/128 129/129/129 130/130/130
f 129/129/129 131/131/131 130/130/130
f 131/131/131 132/132/132 130/130/130
f 132/132/132 133/133/133 130/130/130
f 133/133/133 132/132/132 134/134/134
f 132/132/132 135/135/135 134/134/134
f 136/136/136 134/134/134 135/135/135
f 137/137/137 136/136/136 135/135/135
f 136/136/136 137/137/137 138/138/138
f 137/137/137 139/139/139 138/138/138
f 140/140/140 138/138/138 139/139/139
f 141/141/141 140/140/140 139/139/139
f 144/144/144 143/143/143 142/142/142
f 143/143/143 145/145/145 142/142/142
f 142/142/142 145/145/145 146/146/146
f 145/145/145 147/147/147 146/146/146
f 146/146/146 147/147/147 148/148/148
f 147/147/147 149/149/149 148/148/148
f 148/148/148 149/149/149 150/150/150
f 149/149/149 151/151/151 150/150/150
f 150/150/150 151/151/151 152/152/152
f 151/151/151 153/153/153 152/152/152
f 152/152/152 153/153/153 154/154/154
f 153/153/153 155/155/155 154/154/154
f 154/154/154 155/155/155 156/156/156
f 155/155/155 157/157/157 156/156/156
f 156/156/156 157/157/157 158/158/158
f 157/157/157 159/159/159 158/158/158
f 162/162/162 161/161/161 160/160/160
f 161/161/161 163/163/163 160/160/160
f 160/160/160 163/163/163 164/164/164
f 163/163/163 165/165/165 164/164/164
f 164/164/164 165/165/165 166/166/166
f 165/165/165 167/167/167 166/166/166
f 166/166/166 167/167/167 168/168/168
f 167/167/167 169/169/169 168/168/168
f 168/168/168 169/169/169 170/170/170
f 169/169/169 171/171/171 170/170/170
f 170/170/170 171/171/171 172/172/172
f 171/171/171 173/173/173 172/172/172
f 172/172/172 173/173/173 174/174/174
f 173/173/173 175/175/175 174/174/174
f 174/174/174 175/175/175 176/176/176
f 175/175/175 177/177/177 176/176/176
f 180/180/180 179/179/179 178/178/178
f 179/179/179 181/181/181 178/178/178
f 182/182/182 178/178/178 181/181/181
f 183/183/183 182/182/182 181/181/181
f 182/182/182 183/183/183 184/184/184
f 183/183/183 185/185/185 184/184/184
f 185/185/185 186/186/186 184/184/184
f 186/186/186 187/187/187 184/184/184
f 187/187/187 186/186/186 188/188/188
f 186/186/186 189/189/189 188/188/188
f 190/190/190 188/188/188 189/189/189
f 191/191/191 190/190/190 189/189/189
f 190/190/190 191/191/191 192/192/192
f 191/191/191 193/193/193 192/192/192
f 194/194/194 192/192/192 193/193/193
f 195/195/195 194/194/194 193/193/193
f 198/198/198 197/197/197 196/196/196
f 197/197/197 199/199/199 196/196/196
f 196/196/196 199/199/199 200/200/200
f 199/199/199 201/201/201 200/200/200
f 200/200/200 201/201/201 202/202/202
f 201/201/201 203/203/203 202/202/202
f 202/202/202 203/203/203 204/204/204
f 203/203/203 205/205/205 204/204/204
f 204/204/204 205/205/205 206/206/206
f 205/205/205 207/207/207 206/206/206
f 206/206/206 207/207/207 208/208/208
f 207/207/207 209/209/209 208/208/208
f 208/208/208 209/209/209 210/210/210
f 209/209/209 211/211/211 210/210/210
f 210/210/210 211/211/211 212/212/212
f 211/211/211 213/213/213 212/212/212
f 216/216/216 215/215/215 214/214/214
f 215/215/215 217/217/217 214/214/214
f 214/214/214 217/217/217 218/218/218
f 217/217/217 219/219/219 218/218/218
f 218/218/218 219/219/219 220/220/220
f 219/219/219 221/221/221 220/220/220
f 220/220/220 221/221/221 222/222/222
f 221/221/221 223/223/223 222/222/222
f 222/222/222 223/223/223 224/224/224
f 223/223/223 225/225/225 224/224/224
f 224/224/224 225/225/225 226/226/226
f 225/225/225 227/227/227 226/226/226
f 226/226/226 227/227/227 228/228/228
f 227/227/227 229/229/229 228/228/228
f 228/228/228 229/229/229 230/230/230
f 229/229/229 231/231/231 230/230/230
f 234/234/234 233/233/233 232/232/232
f 233/233/233 235/235/235 232/232/232
f 236/236/236 232/232/232 235/235/235
f 237/237/237 236/236/236 235/235/235
f 236/236/236 237/237/237 238/238/238
f 237/237/237 239/239/239 238/238/238
f 239/239/239 240/240/240 238/238/238
f 240/240/240 241/241/241 238/238/238
f 241/241/241 240/240/240 242/242/242
f 240/240/240 243/243/243 242/242/242
f 244/244/244 242/242/242 243/243/243
f 245/245/245 244/244/244 243/243/243
f 244/244/244 245/245/245 246/246/246
f 245/245/245 247/247/247 246/246/246
f 248/248/248 246/246/246 247/247/247
f 249/249/249 248/248/248 247/247/247
f 252/252/252 251/251/251 250/250/250
f 251/251/251 253/253/253 250/250/250
f 250/250/250 253/253/253 254/254/254
f 253/253/253 255/255/255 254/254/254
f 254/254/254 255/255/255 256/256/256
f 255/255/255 257/257/257 256/256/256
f 256/256/256 257/257/257 258/258/258
f 257/257/257 259/259/259 258/258/258
f 258/258/258 259/259/259 260/260/260
f 259/259/259 261/261/261 260/260/260
f 260/260/260 261/261/261 262/262/262
f 261/261/261 263/263/263 262/262/262
f 262/262/262 263/263/263 264/264/264
f 263/263/263 265/265/265 264/264/264
f 264/264/264 265/265/265 266/266/266
f 265/265/265 267/267/267 266/266/266
f 270/270/270 269/269/269 268/268/268
f 269/269/269 271/271/271 268/268/268
f 268/268/268 271/271/271 272/272/272
f 271/271/271 273/273/273 272/272/272
f 272/272/272 273/273/273 274/274/274
f 273/273/273 275/275/275 274/274/274
f 274/274/274 275/275/275 276/276/276
f 275/275/275 277/277/277 276/276/276
f 276/276/276 277/277/277 278/278/278
f 277/277/277 279/279/279 278/278/278
f 278/278/278 279/279/279 280/280/280
f 279/279/279 281/281/281 280/280/280
f 280/280/280 281/281/281 282/282/282
f 281/281/281 283/283/283 282/282/282
f 282/282/282 283/283/283 284/284/284
f 283/283/283 285/285/285 284/284/284
f 288/288/288 287/287/287 286/286/286
f 289/289/289 288/288/288 286/286/286
f 292/292/292 291/291/291 290/290/290
f 291/291/291 293/293/293 290/290/290
f 293/293/293 294/294/294 290/290/290
f 294/294/294 295/295/295 290/290/290
f 296/296/296 295/295/295 294/294/294
f 297/297/297 296/296/296 294/294/294
f 300/300/300 299/299/299 298/298/298
f 301/301/301 300/300/300 298/298/298
f 304/304/304 303/303/303 302/302/302
f 305/305/305 304/304/304 302/302/302
f 308/308/308 307/307/307 306/306/306
f 309/309/309 308/308/308 306/306/306
f 312/312/312 311/311/311 310/310/310
f 313/313/313 312/312/312 310/310/310
f 316/316/316 315/315/315 314/314/314
f 317/317/317 316/316/316 314/314/314
f 320/320/320 319/319/319 318/318/318
f 319/319/319 321/321/321 318/318/318
f 321/321/321 322/322/322 318/318/318
f 322/322/322 323/323/323 318/318/318
f 324/324/324 323/323/323 322/322/322
f 325/325/325 324/324/324 322/322/322
f 328/328/328 327/327/327 326/326/326
f 329/329/329 328/328/328 326/326/326
f 332/332/332 331/331/331 330/330/330
f 333/333/333 332/332/332 330/330/330
f 336/336/336 335/335/335 334/334/334
f 337/337/337 336/336/336 334/334/334
f 340/340/340 339/339/339 338/338/338
f 341/341/341 340/340/340 338/338/338
f 344/344/344 343/343/343 342/342/342
f 345/345/345 344/344/344 342/342/342
f 348/348/348 347/347/347 346/346/346
f 347/347/347 349/349/349 346/346/346
f 349/349/349 350/350/350 346/346/346
f 350/350/350 351/351/351 346/346/346
f 352/352/352 351/351/351 350/350/350
f 353/353/353 352/352/352 350/350/350
f 356/356/356 355/355/355 354/354/354
f 357/357/357 356/356/356 354/354/354
f 360/360/360 359/359/359 358/358/358
f 361/361/361 360/360/360 358/358/358
f 364/364/364 363/363/363 362/362/362
f 365/365/365 364/364/364 362/362/362
f 368/368/368 367/367/367 366/366/366
f 369/369/369 368/368/368 366/366/366
f 372/372/372 371/371/371 370/370/370
f 371/371/371 373/373/373 370/370/370
f 371/371/371 374/374/374 373/373/373
f 374/374/374 375/375/375 373/373/373
f 374/374/374 376/376/376 375/375/375
f 376/376/376 377/377/377 375/375/375
f 380/380/380 379/379/379 378/378/378
f 381/381/381 380/380/380 378/378/378
f 384/384/384 383/383/383 382/382/382
f 385/385/385 384/384/384 382/382/382
f 385/385/385 382/382/382 386/386/386
f 387/387/387 385/385/385 386/386/386
f 387/387/387 386/386/386 388/388/388
f 389/389/389 387/387/387 388/388/388
f 392/392/392 391/391/391 390/390/390
f 393/393/393 392/392/392 390/390/390
f 396/396/396 395/395/395 394/394/394
f 395/395/395 397/397/397 394/394/394
f 395/395/395 398/398/398 397/397/397
f 398/398/398 399/399/399 397/397/397
f 398/398/398 400/400/400 399/399/399
f 400/400/400 401/401/401 399/399/399
f 404/404/404 403/403/403 402/402/402
f 405/405/405 404/404/404 402/402/402
f 408/408/408 407/407/407 406/406/406
f 409/409/409 408/408/408 406/406/406
f 409/409/409 406/406/406 410/410/410
f 411/411/411 409/409/409 410/410/410
f 411/411/411 410/410/410 412/412/412
f 413/413/413 411/411/411 412/412/412
f 416/416/416 415/415/415 414/414/414
f 417/417/417 416/416/416 414/414/414
f 420/420/420 419/419/419 418/418/418
f 421/421/421 420/420/420 418/418/418
f 422/422/422 420/420/420 421/421/421
f 423/423/423 422/422/422 421/421/421
f 426/426/426 425/425/425 424/424/424
f 427/427/427 426/426/426 424/424/424
f 430/430/430 429/429/429 428/428/428
f 431/431/431 430/430/430 428/428/428
f 434/434/434 433/433/433 432/432/432
f 433/433/433 435/435/435 432/432/432
f 432/432/432 435/435/435 436/436/436
f 435/435/435 437/437/437 436/436/436
f 436/436/436 437/437/437 438/438/438
f 437/437/437 439/439/439 438/438/438
f 442/442/442 441/441/441 440/440/440
f 443/443/443 442/442/442 440/440/440
f 446/446/446 445/445/445 444/444/444
f 447/447/447 446/446/446 444/444/444
f 448/448/448 446/446/446 447/447/447
f 449/449/449 448/448/448 447/447/447
f 450/450/450 448/448/448 449/449/449
f 451/451/451 450/450/450 449/449/449
f 454/454/454 453/453/453 452/452/452
f 455/455/455 454/454/454 452/452/452
f 458/458/458 457/457/457 456/456/456
f 457/457/457 459/459/459 456/456/456
f 456/456/456 459/459/459 460/460/460
f 459/459/459 461/461/461 460/460/460
f 460/460/460 461/461/461 462/462/462
f 461/461/461 463/463/463 462/462/462
f 466/466/466 465/465/465 464/464/464
f 467/467/467 466/466/466 464/464/464
f 470/470/470 469/469/469 468/468/468
f 471/471/471 470/470/470 468/468/468
f 472/472/472 470/470/470 471/471/471
f 473/473/473 472/472/472 471/471/471
f 476/476/476 475/475/475 474/474/474
f 477/477/477 476/476/476 474/474/474
f 480/480/480 479/479/479 478/478/478
f 481/481/481 480/480/480 478/478/478
f 484/484/484 483/483/483 482/482/482
f 483/483/483 485/485/485 482/482/482
f 482/482/482 485/485/485 486/486/486
f 485/485/485 487/487/487 486/486/486
f 486/486/486 487/487/487 488/488/488
f 487/487/487 489/489/489 488/488/488
f 492/492/492 491/491/491 490/490/490
f 493/493/493 492/492/492 490/490/490
f 496/496/496 495/495/495 494/494/494
f 497/497/497 496/496/496 494/494/494
f 498/498/498 496/496/496 497/497/497
f 499/499/499 498/498/498 497/497/497
f 500/500/500 498/498/498 499/499/499
f 501/501/501 500/500/500 499/499/499
f 504/504/504 503/503/503 502/502/502
f 505/505/505 504/504/504 502/502/502
f 508/508/508 507/507/507 506/506/506
f 507/507/507 509/509/509 506/506/506
f 506/506/506 509/509/509 510/510/510
f 509/509/509 511/511/511 510/510/510
f 510/510/510 511/511/511 512/512/512
f 511/511/511 513/513/513 512/512/512
f 516/516/516 515/515/515 514/514/514
f 517/517/517 516/516/516 514/514/514
f 520/520/520 519/519/519 518/518/518
f 521/521/521 520/520/520 518/518/518
f 519/519/519 520/520/520 522/522/522
f 520/520/520 521/521/521 523/523/523
f 520/520/520 524/524/524 522/522/522
f 523/523/523 524/524/524 520/520/520
f 527/527/527 526/526/526 525/525/525
f 526/526/526 528/528/528 525/525/525
f 527/527/527 529/529/529 526/526/526
f 530/530/530 528/528/528 526/526/526
f 531/531/531 526/526/526 529/529/529
f 526/526/526 531/531/531 530/530/530
f 534/534/534 533/533/533 532/532/532
f 535/535/535 534/534/534 532/532/532
f 533/533/533 534/534/534 536/536/536
f 534/534/534 535/535/535 537/537/537
f 534/534/534 538/538/538 536/536/536
f 537/537/537 538/538/538 534/534/534
f 541/541/541 540/540/540 539/539/539
f 540/540/540 542/542/542 539/539/539
f 540/540/540 541/541/541 543/543/543
f 540/540/540 544/544/544 542/542/542
f 543/543/543 545/545/545 540/540/540
f 540/540/540 545/545/545 544/544/544
f 548/548/548 547/547/547 546/546/546
f 548/548/548 546/546/546 549/549/549
f 550/550/550 547/547/547 548/548/548
f 548/548/548 549/549/549 551/551/551
f 548/548/548 552/552/552 550/550/550
f 552/552/552 548/548/548 551/551/551
f 555/555/555 554/554/554 553/553/553
f 554/554/554 556/556/556 553/553/553
f 557/557/557 554/554/554 555/555/555
f 553/553/553 556/556/556 558/558/558
f 559/559/559 557/557/557 555/555/555
f 556/556/556 560/560/560 558/558/558
f 561/561/561 557/557/557 559/559/559
f 558/558/558 560/560/560 562/562/562
f 563/563/563 561/561/561 559/559/559
f 560/560/560 564/564/564 562/562/562
f 565/565/565 561/561/561 563/563/563
f 562/562/562 564/564/564 566/566/566
f 567/567/567 565/565/565 563/563/563
f 564/564/564 568/568/568 566/566/566
f 568/568/568 565/565/565 567/567/567
f 566/566/566 568/568/568 567/567/567
f 571/571/571 570/570/570 569/569/569
f 570/570/570 572/572/572 569/569/569
f 573/573/573 570/570/570 571/571/571
f 569/569/569 572/572/572 574/574/574
f 575/575/575 573/573/573 571/571/571
f 572/572/572 576/576/576 574/574/574
f 577/577/577 573/573/573 575/575/575
f 574/574/574 576/576/576 578/578/578
f 579/579/579 577/577/577 575/575/575
f 576/576/576 580/580/580 578/578/578
f 581/581/581 577/577/577 579/579/579
f 578/578/578 580/580/580 582/582/582
f 583/583/583 581/581/581 579/579/579
f 580/580/580 584/584/584 582/582/582
f 584/584/584 581/581/581 583/583/583
f 582/582/582 584/584/584 583/583/583
f 587/587/587 586/586/586 585/585/585
f 586/586/586 588/588/588 585/585/585
f 589/589/589 586/586/586 587/587/587
f 585/585/585 588/588/588 590/590/590
f 591/591/591 589/589/589 587/587/587
f 588/588/588 592/592/592 590/590/590
f 593/593/593 589/589/589 591/591/591
f 590/590/590 592/592/592 594/594/594
f 595/595/595 593/593/593 591/591/591
f 592/592/592 596/596/596 594/594/594
f 597/597/597 593/593/593 595/595/595
f 594/594/594 596/596/596 598/598/598
f 599/599/599 597/597/597 595/595/595
f 596/596/596 600/600/600 598/598/598
f 600/600/600 597/597/597 599/599/599
f 598/598/598 600/600/600 599/599/599
f 603/603/603 602/602/602 601/601/601
f 602/602/602 604/604/604 601/601/601
f 605/605/605 602/602/602 603/603/603
f 601/601/601 604/604/604 606/606/606
f 607/607/607 605/605/605 603/603/603
f 604/604/604 608/608/608 606/606/606
f 609/609/609 605/605/605 607/607/607
f 606/606/606 608/608/608 610/610/610
f 611/611/611 609/609/609 607/607/607
f 608/608/608 612/612/612 610/610/610
f 613/613/613 609/609/609 611/611/611
f 610/610/610 612/612/612 614/614/614
f 615/615/615 613/613/613 611/611/611
f 612/612/612 616/616/616 614/614/614
f 616/616/616 613/613/613 615/615/615
f 614/614/614 616/616/616 615/615/615
f 619/619/619 618/618/618 617/617/617
f 618/618/618 620/620/620 617/617/617
f 621/621/621 618/618/618 619/619/619
f 617/617/617 620/620/620 622/622/622
f 623/623/623 621/621/621 619/619/619
f 620/620/620 624/624/624 622/622/622
f 625/625/625 621/621/621 623/623/623
f 622/622/622 624/624/624 626/626/626
f 627/627/627 625/625/625 623/623/623
f 624/624/624 628/628/628 626/626/626
f 629/629/629 625/625/625 627/627/627
f 626/626/626 628/628/628 630/630/630
f 631/631/631 629/629/629 627/627/627
f 628/628/628 632/632/632 630/630/630
f 632/632/632 629/629/629 631/631/631
f 630/630/630 632/632/632 631/631/631
f 635/635/635 634/634/634 633/633/633
f 634/634/634 636/636/636 633/633/633
f 637/637/637 634/634/634 635/635/635
f 633/633/633 636/636/636 638/638/638
f 639/639/639 637/637/637 635/635/635
f 636/636/636 640/640/640 638/638/638
f 641/641/641 637/637/637 639/639/639
f 638/638/638 640/640/640 642/642/642
f 643/643/643 641/641/641 639/639/639
f 640/640/640 644/644/644 642/642/642
f 645/645/645 641/641/641 643/643/643
f 642/642/642 644/644/644 646/646/646
f 647/647/647 645/645/645 643/643/643
f 644/644/644 648/648/648 646/646/646
f 648/648/648 645/645/645 647/647/647
f 646/646/646 648/648/648 647/647/647
f 651/651/651 650/650/650 649/649/649
f 650/650/650 652/652/652 649/649/649
f 653/653/653 650/650/650 651/651/651
f 649/649/649 652/652/652 654/654/654
f 655/655/655 653/653/653 651/651/651
f 652/652/652 656/656/656 654/654/654
f 657/657/657 653/653/653 655/655/655
f 654/654/654 656/656/656 658/658/658
f 659/659/659 657/657/657 655/655/655
f 656/656/656 660/660/660 658/658/658
f 661/661/661 657/657/657 659/659/659
f 658/658/658 660/660/660 662/662/662
f 663/663/663 661/661/661 659/659/659
f 660/660/660 664/664/664 662/662/662
f 664/664/664 661/661/661 663/663/663
f 662/662/662 664/664/664 663/663/663
f 667/667/667 666/666/666 665/665/665
f 668/668/668 667/667/667 665/665/665
f 665/665/665 666/666/666 669/669/669
f 670/670/670 667/667/667 668/668/668
f 666/666/666 671/671/671 669/669/669
f 672/672/672 670/670/670 668/668/668
f 669/669/669 671/671/671 673/673/673
f 674/674/674 670/670/670 672/672/672
f 671/671/671 675/675/675 673/673/673
f 676/676/676 674/674/674 672/672/672
f 673/673/673 675/675/675 677/677/677
f 678/678/678 674/674/674 676/676/676
f 675/675/675 679/679/679 677/677/677
f 680/680/680 678/678/678 676/676/676
f 677/677/677 679/679/679 680/680/680
f 679/679/679 678/678/678 680/680/680
f 683/683/683 682/682/682 681/681/681
f 684/684/684 683/683/683 681/681/681
f 681/681/681 682/682/682 685/685/685
f 686/686/686 683/683/683 684/684/684
f 682/682/682 687/687/687 685/685/685
f 688/688/688 686/686/686 684/684/684
f 685/685/685 687/687/687 689/689/689
f 690/690/690 686/686/686 688/688/688
f 687/687/687 691/691/691 689/689/689
f 692/692/692 690/690/690 688/688/688
f 689/689/689 691/691/691 693/693/693
f 694/694/694 690/690/690 692/692/692
f 691/691/691 695/695/695 693/693/693
f 696/696/696 694/694/694 692/692/692
f 693/693/693 695/695/695 696/696/696
f 695/695/695 694/694/694 696/696/696
