g P_Bend_B
v 0.0871495679 -0.329515159 0.0872024223
v 0.0476395786 -0.369025171 0.0872024223
v 0.0871503428 -0.36902529 0.0476925373
v 0.0476395786 -0.194620073 0.0872024223
v 0.0871495679 -0.234130248 0.0872024223
v 0.0871503428 -0.194620103 0.0476926304
v -0.0872554779 -0.234130204 0.0872024223
v -0.0477454849 -0.194620073 0.0872024223
v -0.087254703 -0.194620088 0.0476925373
v -0.0477454849 -0.369025171 0.0872024223
v -0.0872554779 -0.32951507 0.0872024223
v -0.087254703 -0.36902529 0.0476926304
v -0.087254703 -0.32951498 -0.087202467
v -0.04774471 -0.36902526 -0.0872026682
v -0.087254703 -0.36902529 -0.0476922393
v -0.04774471 -0.194620103 -0.0872024298
v -0.087254703 -0.234130189 -0.0872024819
v -0.087254703 -0.194620088 -0.0476923399
v 0.0871505439 -0.234130308 -0.0872024223
v 0.0476401597 -0.194620103 -0.0872024298
v 0.0871503428 -0.194620103 -0.0476922393
v 0.0476401597 -0.36902526 -0.0872026682
v 0.0871505439 -0.329515189 -0.0872023404
v 0.0871503428 -0.369025379 -0.0476923361
v -0.0762288198 -0.394322664 -0.138424978
v -0.0506077148 -0.332377881 -0.147416681
v -0.112552382 -0.357999146 -0.138424978
v -0.112552382 -0.205646142 -0.138424978
v -0.0506077148 -0.231267422 -0.147416621
v -0.0762288198 -0.169322655 -0.138424978
v 0.076124087 -0.169322655 -0.138424978
v 0.0505027771 -0.231267393 -0.147416621
v 0.112447448 -0.205646202 -0.138424933
v 0.112447642 -0.357999146 -0.138424978
v 0.0505027771 -0.332377881 -0.147416681
v 0.076124087 -0.394322664 -0.138424978
v 0.138372615 -0.205646142 -0.112500004
v 0.147364497 -0.231267259 -0.0505552478
v 0.138372615 -0.16932264 -0.076176554
v 0.138372615 -0.169322625 0.0761765465
v 0.147364303 -0.231267259 0.0505552478
v 0.138372615 -0.205646142 0.112500004
v 0.138372615 -0.357999116 0.112500004
v 0.147364303 -0.332377762 0.0505552366
v 0.138372615 -0.394322544 0.076176554
v 0.138372615 -0.394322664 -0.076176554
v 0.147364497 -0.332377732 -0.0505552478
v 0.138372615 -0.357999116 -0.112500004
v -0.138477147 -0.205646247 0.112500004
v -0.14746885 -0.231267452 0.0505552478
v -0.138477147 -0.169322729 0.0761765465
v -0.138477147 -0.169322729 -0.076176554
v -0.14746885 -0.231267452 -0.0505552478
v -0.138477147 -0.205646247 -0.11249996
v -0.138477147 -0.357999176 -0.11249996
v -0.14746885 -0.332377911 -0.0505552478
v -0.138477147 -0.394322664 -0.0761764497
v -0.138477147 -0.394322723 0.076176554
v -0.14746885 -0.332377911 0.0505552366
v -0.138477147 -0.357999176 0.112500004
v -0.112552382 -0.420247674 0.0761765465
v -0.112552382 -0.420247674 -0.0761765465
v -0.138477147 -0.394322664 -0.0761764497
v -0.138477147 -0.394322723 0.076176554
v -0.0762286335 -0.420247674 -0.112500019
v 0.076124087 -0.420247674 -0.112500019
v 0.076124087 -0.394322664 -0.138424978
v -0.0762288198 -0.394322664 -0.138424978
v 0.112447828 -0.420247674 -0.0761765465
v 0.112447828 -0.420247674 0.0761765465
v 0.138372615 -0.394322544 0.076176554
v 0.138372615 -0.394322664 -0.076176554
v 0.076124087 -0.420247674 0.112500019
v -0.0762286335 -0.420247674 0.112500019
v -0.0762299821 -0.394322664 0.138424695
v 0.0761229247 -0.394322664 0.138424695
v -0.0762288198 -0.143397659 0.112500004
v 0.076124087 -0.143397659 0.112500004
v 0.0761229247 -0.169322655 0.13842468
v -0.0762294009 -0.169322655 0.138424888
v 0.112447642 -0.143397659 0.0761765465
v 0.112447642 -0.143397674 -0.076176554
v 0.138372615 -0.16932264 -0.076176554
v 0.138372615 -0.169322625 0.0761765465
v 0.076124087 -0.143397674 -0.112500019
v -0.0762288198 -0.143397674 -0.112500019
v -0.0762288198 -0.169322655 -0.138424978
v 0.076124087 -0.169322655 -0.138424978
v -0.112552382 -0.143397674 -0.076176554
v -0.112552382 -0.143397659 0.0761765465
v -0.138477147 -0.169322729 0.0761765465
v -0.138477147 -0.169322729 -0.076176554
v 0.138372615 -0.205646142 0.112500004
v 0.138372615 -0.357999116 0.112500004
v 0.112446666 -0.357999146 0.138424695
v 0.112446666 -0.205646127 0.138424695
v 0.100340039 -0.181430489 0.100392222
v 0.0761229247 -0.169322655 0.13842468
v 0.138372615 -0.169322625 0.0761765465
v 0.076124087 -0.143397659 0.112500004
v 0.112447642 -0.143397659 0.0761765465
v -0.138477147 -0.357999176 0.112500004
v -0.138477147 -0.205646247 0.112500004
v -0.112553544 -0.205646127 0.138424695
v -0.112553544 -0.357999146 0.138424695
v 0.138372615 -0.357999116 -0.112500004
v 0.138372615 -0.205646142 -0.112500004
v 0.112447448 -0.205646202 -0.138424933
v 0.112447642 -0.357999146 -0.138424978
v 0.100340039 -0.382214874 -0.10039217
v 0.076124087 -0.394322664 -0.138424978
v 0.138372615 -0.394322664 -0.076176554
v 0.076124087 -0.420247674 -0.112500019
v 0.112447828 -0.420247674 -0.0761765465
v -0.138477147 -0.205646247 -0.11249996
v -0.138477147 -0.357999176 -0.11249996
v -0.112552382 -0.357999146 -0.138424978
v -0.112552382 -0.205646142 -0.138424978
v -0.100444399 -0.181430489 -0.100392178
v -0.0762288198 -0.169322655 -0.138424978
v -0.138477147 -0.169322729 -0.076176554
v -0.0762288198 -0.143397674 -0.112500019
v -0.112552382 -0.143397674 -0.076176554
v -0.0506077148 -0.332377881 -0.147416681
v 0.0505027771 -0.332377881 -0.147416681
v 0.0505027771 -0.231267393 -0.147416621
v -0.0506077148 -0.231267422 -0.147416621
v 0.0871505439 -0.234130308 -0.0872024223
v -0.04774471 -0.194620103 -0.0872024298
v 0.0476401597 -0.194620103 -0.0872024298
v -0.087254703 -0.234130189 -0.0872024819
v -0.087254703 -0.32951498 -0.087202467
v 0.0871505439 -0.329515189 -0.0872023404
v 0.0476401597 -0.36902526 -0.0872026682
v -0.04774471 -0.36902526 -0.0872026682
v 0.076124087 -0.143397674 -0.112500019
v -0.0762288198 -0.112636141 -0.112500019
v -0.0762288198 -0.143397674 -0.112500019
v 0.076124087 -0.112636141 -0.112500019
v 0.112447642 -0.143397674 -0.076176554
v 0.112447642 -0.112636141 -0.076176554
v 0.112447642 -0.143397659 0.0761765465
v 0.112447642 -0.112636141 0.0761765465
v 0.076124087 -0.112636141 0.112500004
v 0.076124087 -0.143397659 0.112500004
v -0.0762288198 -0.143397659 0.112500004
v -0.0762288198 -0.112636141 0.112500004
v -0.112552382 -0.143397659 0.0761765465
v -0.112552382 -0.112636141 0.0761765465
v -0.112552382 -0.143397674 -0.076176554
v -0.112552382 -0.112636141 -0.076176554
v -0.0762288198 -0.143397674 -0.112500019
v -0.0762288198 -0.112636141 -0.112500019
v 0.069867298 -0.0929416195 -0.140662149
v -0.0693860203 -0.0636455342 -0.139483541
v -0.0699720383 -0.0929416195 -0.140662149
v 0.0692818612 -0.0636455342 -0.139483541
v 0.140609682 -0.0929416195 -0.0699197575
v 0.139431655 -0.0636455342 -0.0693337545
v 0.140609682 -0.0929416046 0.069919765
v 0.139431655 -0.0636455342 0.0693341419
v 0.069867298 -0.0929416046 0.140662149
v 0.0692818612 -0.0636455342 0.139483929
v -0.0699720383 -0.0929416046 0.140662149
v -0.0693860203 -0.0636455342 0.139483929
v -0.140714616 -0.0929416046 0.069919765
v -0.139535621 -0.0636455342 0.0693341419
v -0.140714616 -0.0929416195 -0.0699197575
v -0.139535621 -0.0636455342 -0.0693337545
v -0.0699720383 -0.0929416195 -0.140662149
v -0.0693860203 -0.0636455342 -0.139483541
v -0.109109759 -0.0532915145 -0.059622135
v -0.087254703 -0.194620088 0.0476925373
v -0.109109759 -0.0532915108 0.0596224293
v -0.087254703 -0.194620088 -0.0476923399
v -0.0596742146 -0.0532915108 -0.109057732
v -0.04774471 -0.194620103 -0.0872024298
v 0.0595702492 -0.0532915108 -0.109057732
v 0.0476401597 -0.194620103 -0.0872024298
v 0.109005794 -0.0532915145 -0.0596220382
v 0.0871503428 -0.194620103 -0.0476922393
v 0.109005794 -0.0532915108 0.0596224293
v 0.0871503428 -0.194620103 0.0476926304
v 0.0595702492 -0.0532915145 0.109058075
v 0.0476395786 -0.194620073 0.0872024223
v -0.0596742146 -0.0532915145 0.109058075
v -0.0477454849 -0.194620073 0.0872024223
v -0.109109759 -0.0532915108 0.0596224293
v -0.087254703 -0.194620088 0.0476925373
v -0.0762286335 -0.420247674 -0.112500019
v 0.0761242732 -0.451009274 -0.112500019
v 0.076124087 -0.420247674 -0.112500019
v -0.0762286335 -0.451009274 -0.112500019
v -0.112552382 -0.420247674 -0.0761765465
v -0.112552181 -0.451009274 -0.0761765465
v -0.112552382 -0.420247674 0.0761765465
v -0.112552181 -0.451009274 0.0761765465
v -0.0762286335 -0.451009274 0.112500019
v -0.0762286335 -0.420247674 0.112500019
v 0.076124087 -0.420247674 0.112500019
v 0.0761242732 -0.451009274 0.112500019
v 0.112447828 -0.420247674 0.0761765465
v 0.112447828 -0.451009274 0.0761765465
v 0.112447828 -0.420247674 -0.0761765465
v 0.112447828 -0.451009274 -0.0761765465
v 0.076124087 -0.420247674 -0.112500019
v 0.0761242732 -0.451009274 -0.112500019
v -0.0699718446 -0.47070381 -0.140662149
v 0.0692814738 -0.499999911 -0.139483541
v 0.0698674843 -0.47070381 -0.140662149
v -0.0693864152 -0.499999911 -0.139483541
v -0.140714228 -0.47070381 -0.069919765
v -0.139536202 -0.499999911 -0.0693337545
v -0.140714228 -0.47070381 0.0699197575
v -0.139536202 -0.499999911 0.0693341419
v -0.0699718446 -0.47070381 0.140662149
v -0.0693864152 -0.499999911 0.139483914
v 0.0698674843 -0.47070381 0.140662149
v 0.0692814738 -0.499999911 0.139483914
v 0.140610069 -0.47070381 0.0699197575
v 0.139431074 -0.499999911 0.0693341419
v 0.140610069 -0.47070381 -0.069919765
v 0.139431074 -0.499999911 -0.0693337545
v 0.0698674843 -0.47070381 -0.140662149
v 0.0692814738 -0.499999911 -0.139483541
v 0.10900522 -0.510353923 -0.059622135
v 0.0871503428 -0.36902529 0.0476925373
v 0.10900522 -0.510353923 0.0596224181
v 0.0871503428 -0.369025379 -0.0476923361
v 0.059569668 -0.510353923 -0.109057732
v 0.0476401597 -0.36902526 -0.0872026682
v -0.0596747957 -0.510353923 -0.109057732
v -0.04774471 -0.36902526 -0.0872026682
v -0.10911034 -0.510353923 -0.0596220382
v -0.087254703 -0.36902529 -0.0476922393
v -0.10911034 -0.510353923 0.0596224181
v -0.087254703 -0.36902529 0.0476926304
v -0.0596747957 -0.510353923 0.109058075
v -0.0477454849 -0.369025171 0.0872024223
v 0.059569668 -0.510353923 0.109058075
v 0.0476395786 -0.369025171 0.0872024223
v 0.10900522 -0.510353923 0.0596224181
v 0.0871503428 -0.36902529 0.0476925373
v -0.112553544 -0.205646127 0.138424695
v -0.112554699 -0.357999146 0.169185787
v -0.112553544 -0.357999146 0.138424695
v -0.112554699 -0.205646127 0.169185787
v -0.0762294009 -0.169322655 0.138424888
v -0.0762311518 -0.169322655 0.169185787
v 0.0761229247 -0.169322655 0.13842468
v 0.0761219487 -0.169322655 0.169185787
v 0.112445503 -0.205646127 0.169185787
v 0.112446666 -0.205646127 0.138424695
v 0.112446666 -0.357999146 0.138424695
v 0.112445503 -0.357999146 0.169185787
v 0.0761229247 -0.394322664 0.138424695
v 0.0761219487 -0.394322664 0.169185787
v -0.0762299821 -0.394322664 0.138424695
v -0.0762311518 -0.394322664 0.169185787
v -0.112553544 -0.357999146 0.138424695
v -0.112554699 -0.357999146 0.169185787
v -0.140716746 -0.211902961 0.188880324
v -0.139538139 -0.351156235 0.218176425
v -0.140716746 -0.351742357 0.188880309
v -0.139538139 -0.212488353 0.218176425
v -0.0699743554 -0.141160548 0.188880339
v -0.0693883523 -0.142338604 0.218176395
v 0.0698651597 -0.141160548 0.188880339
v 0.0692795441 -0.142338604 0.218176395
v 0.140607551 -0.211902961 0.188880324
v 0.139429331 -0.212488353 0.218176425
v 0.140607551 -0.351742357 0.188880309
v 0.139429331 -0.351156235 0.218176425
v 0.0698651597 -0.422484756 0.188880339
v 0.0692795441 -0.421305954 0.218176425
v -0.0699743554 -0.422484756 0.188880339
v -0.0693883523 -0.421305954 0.218176425
v -0.140716746 -0.351742357 0.188880309
v -0.139538139 -0.351156235 0.218176425
v -0.0596767329 -0.390880078 0.228530422
v 0.0476395786 -0.369025171 0.0872024223
v 0.0595677271 -0.390880078 0.228530422
v -0.0477454849 -0.369025171 0.0872024223
v -0.109112278 -0.341444433 0.228530422
v -0.0872554779 -0.32951507 0.0872024223
v -0.109112278 -0.222200021 0.228530422
v -0.0872554779 -0.234130204 0.0872024223
v -0.0596765392 -0.172764391 0.228530422
v -0.0477454849 -0.194620073 0.0872024223
v 0.0595677271 -0.172764391 0.228530422
v 0.0476395786 -0.194620073 0.0872024223
v 0.109003462 -0.222200051 0.228530422
v 0.0871495679 -0.234130248 0.0872024223
v 0.109003462 -0.341444433 0.228530422
v 0.0871495679 -0.329515159 0.0872024223
v 0.0595677271 -0.390880078 0.228530422
v 0.0476395786 -0.369025171 0.0872024223
v 0.076124087 -0.394322664 -0.138424978
v 0.0505027771 -0.332377881 -0.147416681
v -0.0506077148 -0.332377881 -0.147416681
v -0.0762288198 -0.394322664 -0.138424978
v -0.112552382 -0.205646142 -0.138424978
v -0.112552382 -0.357999146 -0.138424978
v -0.0506077148 -0.332377881 -0.147416681
v -0.0506077148 -0.231267422 -0.147416621
v -0.0762288198 -0.169322655 -0.138424978
v -0.0506077148 -0.231267422 -0.147416621
v 0.0505027771 -0.231267393 -0.147416621
v 0.076124087 -0.169322655 -0.138424978
v 0.112447448 -0.205646202 -0.138424933
v 0.0505027771 -0.231267393 -0.147416621
v 0.0505027771 -0.332377881 -0.147416681
v 0.112447642 -0.357999146 -0.138424978
v 0.147364497 -0.231267259 -0.0505552478
v 0.147364497 -0.332377732 -0.0505552478
v 0.147364303 -0.332377762 0.0505552366
v 0.147364303 -0.231267259 0.0505552478
v 0.0871503428 -0.36902529 0.0476925373
v 0.0871495679 -0.234130248 0.0872024223
v 0.0871495679 -0.329515159 0.0872024223
v 0.0871503428 -0.194620103 0.0476926304
v 0.0871503428 -0.194620103 -0.0476922393
v 0.0871503428 -0.369025379 -0.0476923361
v 0.0871505439 -0.329515189 -0.0872023404
v 0.0871505439 -0.234130308 -0.0872024223
v 0.138372615 -0.205646142 -0.112500004
v 0.138372615 -0.357999116 -0.112500004
v 0.147364497 -0.332377732 -0.0505552478
v 0.147364497 -0.231267259 -0.0505552478
v 0.138372615 -0.16932264 -0.076176554
v 0.147364497 -0.231267259 -0.0505552478
v 0.147364303 -0.231267259 0.0505552478
v 0.138372615 -0.169322625 0.0761765465
v 0.138372615 -0.205646142 0.112500004
v 0.147364303 -0.231267259 0.0505552478
v 0.147364303 -0.332377762 0.0505552366
v 0.138372615 -0.357999116 0.112500004
v 0.138372615 -0.394322664 -0.076176554
v 0.138372615 -0.394322544 0.076176554
v 0.147364303 -0.332377762 0.0505552366
v 0.147364497 -0.332377732 -0.0505552478
v -0.14746885 -0.231267452 0.0505552478
v -0.14746885 -0.332377911 0.0505552366
v -0.14746885 -0.332377911 -0.0505552478
v -0.14746885 -0.231267452 -0.0505552478
v -0.087254703 -0.36902529 -0.0476922393
v -0.087254703 -0.234130189 -0.0872024819
v -0.087254703 -0.32951498 -0.087202467
v -0.087254703 -0.194620088 -0.0476923399
v -0.087254703 -0.194620088 0.0476925373
v -0.087254703 -0.36902529 0.0476926304
v -0.0872554779 -0.32951507 0.0872024223
v -0.0872554779 -0.234130204 0.0872024223
v -0.138477147 -0.205646247 0.112500004
v -0.138477147 -0.357999176 0.112500004
v -0.14746885 -0.332377911 0.0505552366
v -0.14746885 -0.231267452 0.0505552478
v -0.138477147 -0.169322729 -0.076176554
v -0.138477147 -0.169322729 0.0761765465
v -0.14746885 -0.231267452 0.0505552478
v -0.14746885 -0.231267452 -0.0505552478
v -0.138477147 -0.205646247 -0.11249996
v -0.14746885 -0.231267452 -0.0505552478
v -0.14746885 -0.332377911 -0.0505552478
v -0.138477147 -0.357999176 -0.11249996
v -0.138477147 -0.394322664 -0.0761764497
v -0.14746885 -0.332377911 -0.0505552478
v -0.14746885 -0.332377911 0.0505552366
v -0.138477147 -0.394322723 0.076176554
v 0.05766242 -0.407156616 0.499999404
v 0.05766261 -0.407181233 0.218749151
v -0.0576621294 -0.407181412 0.218748361
v -0.0576623231 -0.407156825 0.499998659
v -0.12590602 -0.338936806 0.218748391
v -0.125906602 -0.338912189 0.499998659
v 0.125906706 -0.338912278 0.499999404
v 0.1259069 -0.338936925 0.218749151
v 0.05766261 -0.407181233 0.218749151
v 0.05766242 -0.407156616 0.499999404
v 0.1259069 -0.223587111 0.499998629
v 0.125907093 -0.223611712 0.218748361
v 0.1259069 -0.338936925 0.218749151
v 0.125906706 -0.338912278 0.499999404
v 0.0576628111 -0.155342668 0.499997854
v 0.125907093 -0.223611712 0.218748361
v 0.1259069 -0.223587111 0.499998629
v 0.0576630011 -0.15536727 0.218747586
v -0.0576625131 -0.155342668 0.499998659
v -0.0576623231 -0.15536727 0.218748361
v -0.125906602 -0.223587587 0.499998629
v -0.12590602 -0.223612204 0.218748361
v -0.125906602 -0.338912189 0.499998659
v -0.12590602 -0.338936806 0.218748391
v -0.12590602 -0.223612204 0.218748361
v -0.125906602 -0.223587587 0.499998629
v -0.0942436233 -0.324411124 0.499998659
v -0.0943098888 -0.324464172 0.218748361
v -0.0431922749 -0.375580132 0.218748361
v -0.0431618504 -0.375493586 0.499998629
v 0.0431923717 -0.375579834 0.218748361
v 0.0431617536 -0.375493258 0.499998659
v 0.0943105668 -0.324464262 0.218748361
v 0.0942441002 -0.324411243 0.499998659
v -0.0942432284 -0.238088295 0.499999404
v -0.0943095013 -0.238084421 0.218749151
v -0.0943098888 -0.324464172 0.218748361
v -0.0942436233 -0.324411124 0.499998659
v -0.043161463 -0.187006146 0.499999404
v -0.0943095013 -0.238084421 0.218749151
v -0.0942432284 -0.238088295 0.499999404
v -0.0431918912 -0.186968639 0.218749151
v 0.0431611724 -0.187006339 0.499998659
v 0.0431917943 -0.186968833 0.218748361
v 0.0942441002 -0.238088399 0.499997854
v 0.0943105668 -0.238084525 0.218747586
v 0.0942441002 -0.324411243 0.499998659
v 0.0943105668 -0.324464262 0.218748361
v 0.0943105668 -0.238084525 0.218747586
v 0.0942441002 -0.238088399 0.499997854
v 0.125524461 0.500000656 -0.057663057
v 0.125549018 -0.0628824234 -0.0576632395
v 0.125549212 -0.0628831983 0.0576614924
v 0.125524655 0.499999911 0.0576616935
v 0.0573045909 -0.0628831983 0.125905395
v 0.0572799817 0.499999911 0.125905976
v 0.0572800823 0.500000656 -0.125907317
v 0.0573046878 -0.0628824234 -0.125907525
v 0.125549018 -0.0628824234 -0.0576632395
v 0.125524461 0.500000656 -0.057663057
v -0.0580451004 0.499999911 -0.125907511
v -0.0580204837 -0.0628832057 -0.125907719
v 0.0573046878 -0.0628824234 -0.125907525
v 0.0572800823 0.500000656 -0.125907317
v -0.126289532 0.499999106 -0.0576634407
v -0.0580204837 -0.0628832057 -0.125907719
v -0.0580451004 0.499999911 -0.125907511
v -0.126264915 -0.0628839731 -0.0576636307
v -0.126289532 0.499999911 0.0576618835
v -0.126264915 -0.0628831983 0.0576616935
v -0.0580446124 0.499999911 0.125905976
v -0.0580200031 -0.0628831983 0.125905395
v 0.0572799817 0.499999911 0.125905976
v 0.0573045909 -0.0628831983 0.125905395
v -0.0580200031 -0.0628831983 0.125905395
v -0.0580446124 0.499999911 0.125905976
v 0.0427789316 0.499999911 0.09424299
v 0.0428319797 -0.0628831983 0.0943092629
v 0.0939479396 -0.0628831983 0.0431916453
v 0.0938613713 0.499999911 0.0431612208
v 0.0939476565 -0.0628831983 -0.0431930013
v 0.0938610807 0.499999911 -0.0431623831
v 0.0428320765 -0.0628832057 -0.0943112001
v 0.0427790247 0.499999911 -0.094244726
v -0.0435439013 0.500000656 0.0942426026
v -0.0435477756 -0.0628824234 0.0943088681
v 0.0428319797 -0.0628831983 0.0943092629
v 0.0427789316 0.499999911 0.09424299
v -0.0946260542 0.500000656 0.0431608371
v -0.0435477756 -0.0628824234 0.0943088681
v -0.0435439013 0.500000656 0.0942426026
v -0.0946635529 -0.0628824234 0.0431912616
v -0.0946258605 0.499999911 -0.0431618094
v -0.0946633518 -0.0628831983 -0.0431924202
v -0.0435438044 0.499999106 -0.094244726
v -0.0435476787 -0.0628839731 -0.0943112001
v 0.0427790247 0.499999911 -0.094244726
v 0.0428320765 -0.0628832057 -0.0943112001
v -0.0435476787 -0.0628839731 -0.0943112001
v -0.0435438044 0.499999106 -0.094244726
v -0.138477147 -0.205646247 0.112500004
v -0.100444399 -0.181430489 0.100392133
v -0.112553544 -0.205646127 0.138424695
v -0.138477147 -0.169322729 0.0761765465
v -0.0762294009 -0.169322655 0.138424888
v -0.112552382 -0.143397659 0.0761765465
v -0.0762288198 -0.143397659 0.112500004
v -0.112553544 -0.357999146 0.138424695
v -0.100444399 -0.382214874 0.100392118
v -0.138477147 -0.357999176 0.112500004
v -0.0762299821 -0.394322664 0.138424695
v -0.138477147 -0.394322723 0.076176554
v -0.0762286335 -0.420247674 0.112500019
v -0.112552382 -0.420247674 0.0761765465
v 0.0761229247 -0.394322664 0.138424695
v 0.112446666 -0.357999146 0.138424695
v 0.100340039 -0.382214874 0.100392215
v 0.076124087 -0.420247674 0.112500019
v 0.138372615 -0.357999116 0.112500004
v 0.112447828 -0.420247674 0.0761765465
v 0.138372615 -0.394322544 0.076176554
v -0.112552382 -0.420247674 -0.0761765465
v -0.0762286335 -0.420247674 -0.112500019
v -0.100444399 -0.382214874 -0.10039217
v -0.138477147 -0.394322664 -0.0761764497
v -0.0762288198 -0.394322664 -0.138424978
v -0.138477147 -0.357999176 -0.11249996
v -0.112552382 -0.357999146 -0.138424978
v 0.076124087 -0.169322655 -0.138424978
v 0.100340039 -0.181430489 -0.100392178
v 0.076124087 -0.143397674 -0.112500019
v 0.112447448 -0.205646202 -0.138424933
v 0.112447642 -0.143397674 -0.076176554
v 0.138372615 -0.205646142 -0.112500004
v 0.138372615 -0.16932264 -0.076176554
v -0.139538139 -0.212488353 0.218176425
v -0.109112278 -0.341444433 0.228530422
v -0.139538139 -0.351156235 0.218176425
v -0.109112278 -0.222200021 0.228530422
v -0.0596767329 -0.390880078 0.228530422
v -0.0693883523 -0.142338604 0.218176395
v -0.0693883523 -0.421305954 0.218176425
v -0.0596765392 -0.172764391 0.228530422
v 0.0595677271 -0.390880078 0.228530422
v 0.0692795441 -0.142338604 0.218176395
v 0.0692795441 -0.421305954 0.218176425
v 0.0595677271 -0.172764391 0.228530422
v 0.109003462 -0.341444433 0.228530422
v 0.139429331 -0.212488353 0.218176425
v 0.139429331 -0.351156235 0.218176425
v 0.109003462 -0.222200051 0.228530422
v -0.112554699 -0.205646127 0.169185787
v -0.140716746 -0.351742357 0.188880309
v -0.112554699 -0.357999146 0.169185787
v -0.140716746 -0.211902961 0.188880324
v -0.0699743554 -0.422484756 0.188880339
v -0.0762311518 -0.169322655 0.169185787
v -0.0762311518 -0.394322664 0.169185787
v -0.0699743554 -0.141160548 0.188880339
v 0.0698651597 -0.422484756 0.188880339
v 0.0761219487 -0.169322655 0.169185787
v 0.0761219487 -0.394322664 0.169185787
v 0.0698651597 -0.141160548 0.188880339
v 0.140607551 -0.351742357 0.188880309
v 0.112445503 -0.205646127 0.169185787
v 0.112445503 -0.357999146 0.169185787
v 0.140607551 -0.211902961 0.188880324
v -0.0693864152 -0.499999911 -0.139483541
v 0.059569668 -0.510353923 -0.109057732
v 0.0692814738 -0.499999911 -0.139483541
v -0.0596747957 -0.510353923 -0.109057732
v 0.10900522 -0.510353923 -0.059622135
v -0.139536202 -0.499999911 -0.0693337545
v 0.139431074 -0.499999911 -0.0693337545
v -0.10911034 -0.510353923 -0.0596220382
v 0.10900522 -0.510353923 0.0596224181
v -0.139536202 -0.499999911 0.0693341419
v 0.139431074 -0.499999911 0.0693341419
v -0.10911034 -0.510353923 0.0596224181
v 0.059569668 -0.510353923 0.109058075
v -0.0693864152 -0.499999911 0.139483914
v 0.0692814738 -0.499999911 0.139483914
v -0.0596747957 -0.510353923 0.109058075
v -0.0762286335 -0.451009274 -0.112500019
v 0.0698674843 -0.47070381 -0.140662149
v 0.0761242732 -0.451009274 -0.112500019
v -0.0699718446 -0.47070381 -0.140662149
v 0.140610069 -0.47070381 -0.069919765
v -0.112552181 -0.451009274 -0.0761765465
v 0.112447828 -0.451009274 -0.0761765465
v -0.140714228 -0.47070381 -0.069919765
v 0.140610069 -0.47070381 0.0699197575
v -0.112552181 -0.451009274 0.0761765465
v 0.112447828 -0.451009274 0.0761765465
v -0.140714228 -0.47070381 0.0699197575
v 0.0698674843 -0.47070381 0.140662149
v -0.0762286335 -0.451009274 0.112500019
v 0.0761242732 -0.451009274 0.112500019
v -0.0699718446 -0.47070381 0.140662149
v 0.0692818612 -0.0636455342 -0.139483541
v -0.0596742146 -0.0532915108 -0.109057732
v -0.0693860203 -0.0636455342 -0.139483541
v 0.0595702492 -0.0532915108 -0.109057732
v -0.109109759 -0.0532915145 -0.059622135
v 0.139431655 -0.0636455342 -0.0693337545
v -0.139535621 -0.0636455342 -0.0693337545
v 0.109005794 -0.0532915145 -0.0596220382
v -0.109109759 -0.0532915108 0.0596224293
v 0.139431655 -0.0636455342 0.0693341419
v -0.139535621 -0.0636455342 0.0693341419
v 0.109005794 -0.0532915108 0.0596224293
v -0.0596742146 -0.0532915145 0.109058075
v 0.0692818612 -0.0636455342 0.139483929
v -0.0693860203 -0.0636455342 0.139483929
v 0.0595702492 -0.0532915145 0.109058075
v 0.076124087 -0.112636141 -0.112500019
v -0.0699720383 -0.0929416195 -0.140662149
v -0.0762288198 -0.112636141 -0.112500019
v 0.069867298 -0.0929416195 -0.140662149
v -0.140714616 -0.0929416195 -0.0699197575
v 0.112447642 -0.112636141 -0.076176554
v -0.112552382 -0.112636141 -0.076176554
v 0.140609682 -0.0929416195 -0.0699197575
v -0.140714616 -0.0929416046 0.069919765
v 0.112447642 -0.112636141 0.0761765465
v -0.112552382 -0.112636141 0.0761765465
v 0.140609682 -0.0929416046 0.069919765
v -0.0699720383 -0.0929416046 0.140662149
v 0.076124087 -0.112636141 0.112500004
v -0.0762288198 -0.112636141 0.112500004
v 0.069867298 -0.0929416046 0.140662149
v -0.0580446124 0.499999911 0.125905976
v -0.0435439013 0.500000656 0.0942426026
v 0.0427789316 0.499999911 0.09424299
v 0.0572799817 0.499999911 0.125905976
v -0.126289532 0.499999911 0.0576618835
v 0.0938613713 0.499999911 0.0431612208
v -0.0946260542 0.500000656 0.0431608371
v 0.125524655 0.499999911 0.0576616935
v -0.126289532 0.499999106 -0.0576634407
v 0.0938610807 0.499999911 -0.0431623831
v -0.0946258605 0.499999911 -0.0431618094
v 0.125524461 0.500000656 -0.057663057
v -0.0580451004 0.499999911 -0.125907511
v 0.0427790247 0.499999911 -0.094244726
v -0.0435438044 0.499999106 -0.094244726
v 0.0572800823 0.500000656 -0.125907317
v -0.125906602 -0.223587587 0.499998629
v -0.0942432284 -0.238088295 0.499999404
v -0.0942436233 -0.324411124 0.499998659
v -0.125906602 -0.338912189 0.499998659
v -0.0576625131 -0.155342668 0.499998659
v -0.0431618504 -0.375493586 0.499998629
v -0.043161463 -0.187006146 0.499999404
v -0.0576623231 -0.407156825 0.499998659
v 0.0576628111 -0.155342668 0.499997854
v 0.0431617536 -0.375493258 0.499998659
v 0.0431611724 -0.187006339 0.499998659
v 0.05766242 -0.407156616 0.499999404
v 0.1259069 -0.223587111 0.499998629
v 0.0942441002 -0.324411243 0.499998659
v 0.0942441002 -0.238088399 0.499997854
v 0.125906706 -0.338912278 0.499999404
vt 0.303610355 0.557493865
vt 0.289743423 0.557493806
vt 0.303610355 0.543626904
vt 0.28974247 0.557508826
vt 0.303609401 0.543641865
vt 0.303609401 0.557508826
vt 0.303610295 0.543641925
vt 0.289743364 0.557508826
vt 0.303610295 0.557508886
vt 0.303609401 0.557493746
vt 0.303609401 0.543626785
vt 0.28974247 0.557493746
vt 0.303610355 0.543626785
vt 0.303610355 0.557493746
vt 0.289743364 0.557493746
vt 0.289743364 0.557508826
vt 0.303610295 0.557508826
vt 0.303610295 0.543641865
vt 0.303609401 0.543641865
vt 0.303609401 0.557508886
vt 0.289742351 0.557508826
vt 0.289743423 0.557508886
vt 0.303610355 0.557508826
vt 0.303610355 0.543641865
vt 0.194534019 0.521521568
vt 0.201188356 0.537650406
vt 0.185059592 0.530996025
vt 0.185059592 0.570734799
vt 0.201188356 0.564080477
vt 0.194534019 0.580209196
vt 0.234272793 0.580209196
vt 0.227618396 0.564080477
vt 0.243747205 0.570734799
vt 0.243747279 0.530996025
vt 0.22761853 0.537650406
vt 0.234272793 0.521521568
vt 0.194534019 0.521521568
vt 0.201188356 0.537650406
vt 0.185059592 0.530996025
vt 0.185059592 0.570734799
vt 0.201188356 0.564080477
vt 0.194534019 0.580209196
vt 0.234272793 0.580209196
vt 0.227618396 0.564080477
vt 0.243747205 0.570734799
vt 0.243747279 0.530996025
vt 0.22761853 0.537650406
vt 0.234272793 0.521521568
vt 0.194534019 0.521521568
vt 0.201188356 0.537650406
vt 0.185059592 0.530996025
vt 0.185059592 0.570734799
vt 0.201188356 0.564080477
vt 0.194534019 0.580209196
vt 0.234272793 0.580209196
vt 0.227618396 0.564080477
vt 0.243747205 0.570734799
vt 0.243747279 0.530996025
vt 0.22761853 0.537650406
vt 0.234272793 0.521521568
vt 0.35181424 0.574387252
vt 0.351812482 0.512232006
vt 0.341238648 0.512237966
vt 0.341238707 0.574387252
vt 0.35181424 0.574387252
vt 0.351812482 0.512232006
vt 0.341238648 0.512237966
vt 0.341238707 0.574387252
vt 0.35181424 0.574387252
vt 0.351812482 0.512232006
vt 0.341238648 0.512237966
vt 0.341238707 0.574387252
vt 0.35181424 0.574387252
vt 0.351812482 0.512232006
vt 0.341238648 0.512237966
vt 0.341238707 0.574387252
vt 0.341238648 0.512237966
vt 0.341238707 0.574387252
vt 0.35181424 0.574387252
vt 0.351812482 0.512232006
vt 0.341238588 0.512238503
vt 0.341238707 0.574387252
vt 0.35181424 0.574387252
vt 0.351811528 0.512241721
vt 0.341238767 0.512238622
vt 0.341238707 0.574387252
vt 0.35181424 0.574387252
vt 0.351816326 0.512244642
vt 0.341238767 0.512238204
vt 0.341238707 0.574387252
vt 0.35181424 0.574387252
vt 0.351816684 0.512235701
vt 0.351815194 0.574401379
vt 0.351811528 0.512241721
vt 0.341238588 0.512238503
vt 0.341217428 0.574401379
vt 0.346516341 0.58457464
vt 0.333793223 0.585203469
vt 0.359239519 0.585203469
vt 0.339092016 0.594105422
vt 0.353940427 0.594105422
vt 0.341238588 0.512238503
vt 0.341238707 0.574387252
vt 0.35181424 0.574387252
vt 0.351811528 0.512241721
vt 0.351820976 0.574407101
vt 0.351816684 0.512235701
vt 0.341238767 0.512238204
vt 0.34122327 0.57440722
vt 0.346522063 0.584580362
vt 0.333798856 0.58520925
vt 0.359245121 0.58520925
vt 0.339097708 0.594111264
vt 0.353946149 0.594111264
vt 0.351830453 0.574397564
vt 0.351811528 0.512241721
vt 0.341238588 0.512238503
vt 0.341232687 0.574397624
vt 0.346531421 0.584570944
vt 0.333808362 0.585199714
vt 0.359254688 0.585199714
vt 0.339107394 0.594101608
vt 0.353955775 0.594101608
vt 0.201188356 0.537650406
vt 0.22761853 0.537650406
vt 0.227618396 0.564080477
vt 0.201188356 0.564080477
vt 0.322065234 0.565958321
vt 0.282595873 0.57751894
vt 0.310504973 0.57751894
vt 0.271035403 0.5659585
vt 0.271035403 0.538049519
vt 0.322065234 0.538049459
vt 0.310504973 0.526489079
vt 0.282595873 0.526489139
vt 0.368281573 0.491155148
vt 0.411386162 0.500348091
vt 0.411386162 0.491155148
vt 0.368281573 0.500348091
vt 0.354508102 0.491155148
vt 0.354508102 0.500348091
vt 0.311403632 0.491155148
vt 0.311403632 0.500348091
vt 0.297630072 0.500348091
vt 0.297630072 0.491155148
vt 0.254525572 0.491155148
vt 0.254525572 0.500348091
vt 0.24075219 0.491155148
vt 0.24075219 0.500348091
vt 0.197647512 0.491155148
vt 0.197647512 0.500348091
vt 0.183874145 0.491155148
vt 0.183874145 0.500348091
vt 0.373407066 0.501248002
vt 0.406814426 0.510002971
vt 0.406814545 0.501248002
vt 0.373406947 0.510002971
vt 0.349936515 0.501248002
vt 0.349936336 0.510002971
vt 0.316529006 0.501248002
vt 0.316529006 0.510002971
vt 0.293058574 0.501248002
vt 0.293058574 0.510002971
vt 0.259651124 0.501248002
vt 0.259651244 0.510002971
vt 0.236180514 0.501248002
vt 0.236180589 0.510002971
vt 0.202773035 0.501248002
vt 0.202773035 0.510002971
vt 0.179302529 0.501248002
vt 0.179302394 0.510002971
vt 0.152341053 0.497526556
vt 0.182130128 0.492455095
vt 0.161560729 0.479605764
vt 0.174755573 0.506789386
vt 0.14836669 0.508656621
vt 0.171579778 0.515681386
vt 0.144152626 0.528369009
vt 0.168209895 0.531442225
vt 0.143230125 0.540147841
vt 0.167473018 0.54085964
vt 0.144305274 0.560265779
vt 0.168332502 0.556965053
vt 0.146478698 0.571876228
vt 0.170070559 0.566251397
vt 0.152762696 0.591022849
vt 0.17509748 0.581569314
vt 0.157894179 0.601665556
vt 0.179198623 0.59007591
vt 0.368281573 0.491155148
vt 0.411386162 0.500348091
vt 0.411386162 0.491155148
vt 0.368281573 0.500348091
vt 0.354508102 0.491155148
vt 0.354508102 0.500348091
vt 0.311403632 0.491155148
vt 0.311403632 0.500348091
vt 0.297630072 0.500348091
vt 0.297630072 0.491155148
vt 0.254525572 0.491155148
vt 0.254525572 0.500348091
vt 0.24075219 0.491155148
vt 0.24075219 0.500348091
vt 0.197647512 0.491155148
vt 0.197647512 0.500348091
vt 0.183874145 0.491155148
vt 0.183874145 0.500348091
vt 0.373407066 0.501248002
vt 0.406814426 0.510002971
vt 0.406814545 0.501248002
vt 0.373406947 0.510002971
vt 0.349936515 0.501248002
vt 0.349936336 0.510002971
vt 0.316529006 0.501248002
vt 0.316529006 0.510002971
vt 0.293058574 0.501248002
vt 0.293058574 0.510002971
vt 0.259651124 0.501248002
vt 0.259651244 0.510002971
vt 0.236180514 0.501248002
vt 0.236180589 0.510002971
vt 0.202773035 0.501248002
vt 0.202773035 0.510002971
vt 0.179302529 0.501248002
vt 0.179302394 0.510002971
vt 0.152341053 0.497526556
vt 0.182130128 0.492455095
vt 0.161560729 0.479605764
vt 0.174755573 0.506789386
vt 0.14836669 0.508656621
vt 0.171579778 0.515681386
vt 0.144152626 0.528369009
vt 0.168209895 0.531442225
vt 0.143230125 0.540147841
vt 0.167473018 0.54085964
vt 0.144305274 0.560265779
vt 0.168332502 0.556965053
vt 0.146478698 0.571876228
vt 0.170070559 0.566251397
vt 0.152762696 0.591022849
vt 0.17509748 0.581569314
vt 0.157894179 0.601665556
vt 0.179198623 0.59007591
vt 0.368281573 0.491155148
vt 0.411386162 0.500348091
vt 0.411386162 0.491155148
vt 0.368281573 0.500348091
vt 0.354508102 0.491155148
vt 0.354508102 0.500348091
vt 0.311403632 0.491155148
vt 0.311403632 0.500348091
vt 0.297630072 0.500348091
vt 0.297630072 0.491155148
vt 0.254525572 0.491155148
vt 0.254525572 0.500348091
vt 0.24075219 0.491155148
vt 0.24075219 0.500348091
vt 0.197647512 0.491155148
vt 0.197647512 0.500348091
vt 0.183874145 0.491155148
vt 0.183874145 0.500348091
vt 0.373407066 0.501248002
vt 0.406814426 0.510002971
vt 0.406814545 0.501248002
vt 0.373406947 0.510002971
vt 0.349936515 0.501248002
vt 0.349936336 0.510002971
vt 0.316529006 0.501248002
vt 0.316529006 0.510002971
vt 0.293058574 0.501248002
vt 0.293058574 0.510002971
vt 0.259651124 0.501248002
vt 0.259651244 0.510002971
vt 0.236180514 0.501248002
vt 0.236180589 0.510002971
vt 0.202773035 0.501248002
vt 0.202773035 0.510002971
vt 0.179302529 0.501248002
vt 0.179302394 0.510002971
vt 0.152341053 0.497526556
vt 0.182130128 0.492455095
vt 0.161560729 0.479605764
vt 0.174755573 0.506789386
vt 0.14836669 0.508656621
vt 0.171579778 0.515681386
vt 0.144152626 0.528369009
vt 0.168209895 0.531442225
vt 0.143230125 0.540147841
vt 0.167473018 0.54085964
vt 0.144305274 0.560265779
vt 0.168332502 0.556965053
vt 0.146478698 0.571876228
vt 0.170070559 0.566251397
vt 0.152762696 0.591022849
vt 0.17509748 0.581569314
vt 0.157894179 0.601665556
vt 0.179198623 0.59007591
vt 0.234272793 0.521521568
vt 0.22761853 0.537650406
vt 0.201188356 0.537650406
vt 0.194534019 0.521521568
vt 0.185059592 0.570734799
vt 0.185059592 0.530996025
vt 0.201188356 0.537650406
vt 0.201188356 0.564080477
vt 0.194534019 0.580209196
vt 0.201188356 0.564080477
vt 0.227618396 0.564080477
vt 0.234272793 0.580209196
vt 0.243747205 0.570734799
vt 0.227618396 0.564080477
vt 0.22761853 0.537650406
vt 0.243747279 0.530996025
vt 0.201188356 0.537650406
vt 0.22761853 0.537650406
vt 0.227618396 0.564080477
vt 0.201188356 0.564080477
vt 0.322065234 0.565958321
vt 0.282595873 0.57751894
vt 0.310504973 0.57751894
vt 0.271035403 0.5659585
vt 0.271035403 0.538049519
vt 0.322065234 0.538049459
vt 0.310504973 0.526489079
vt 0.282595873 0.526489139
vt 0.194534019 0.521521568
vt 0.234272793 0.521521568
vt 0.22761853 0.537650406
vt 0.201188356 0.537650406
vt 0.185059592 0.530996025
vt 0.201188356 0.537650406
vt 0.201188356 0.564080477
vt 0.185059592 0.570734799
vt 0.194534019 0.580209196
vt 0.201188356 0.564080477
vt 0.227618396 0.564080477
vt 0.234272793 0.580209196
vt 0.243747279 0.530996025
vt 0.243747205 0.570734799
vt 0.227618396 0.564080477
vt 0.22761853 0.537650406
vt 0.201188356 0.537650406
vt 0.22761853 0.537650406
vt 0.227618396 0.564080477
vt 0.201188356 0.564080477
vt 0.322065234 0.565958321
vt 0.282595873 0.57751894
vt 0.310504973 0.57751894
vt 0.271035403 0.5659585
vt 0.271035403 0.538049519
vt 0.322065234 0.538049459
vt 0.310504973 0.526489079
vt 0.282595873 0.526489139
vt 0.194534019 0.521521568
vt 0.234272793 0.521521568
vt 0.22761853 0.537650406
vt 0.201188356 0.537650406
vt 0.185059592 0.570734799
vt 0.185059592 0.530996025
vt 0.201188356 0.537650406
vt 0.201188356 0.564080477
vt 0.194534019 0.580209196
vt 0.201188356 0.564080477
vt 0.227618396 0.564080477
vt 0.234272793 0.580209196
vt 0.243747205 0.570734799
vt 0.227618396 0.564080477
vt 0.22761853 0.537650406
vt 0.243747279 0.530996025
vt 0.00336804357 0.764106929
vt 0.00336804357 0.809443891
vt 0.0207588784 0.809443891
vt 0.0207588784 0.764106691
vt 0.0363097563 0.809443891
vt 0.0363097563 0.764106691
vt 0.120393127 0.764107108
vt 0.120393127 0.809443891
vt 0.135994047 0.809443891
vt 0.135994047 0.764106929
vt 0.102861397 0.764107764
vt 0.102861397 0.809443891
vt 0.120393127 0.809443891
vt 0.120393127 0.764107108
vt 0.0871015564 0.764107943
vt 0.102861397 0.809443891
vt 0.102861397 0.764107764
vt 0.0871015564 0.809443891
vt 0.069469437 0.764108419
vt 0.069469437 0.809443891
vt 0.0536553785 0.764108598
vt 0.0536553785 0.809443891
vt 0.0363097563 0.764108777
vt 0.0363097563 0.809443891
vt 0.0536553785 0.809443891
vt 0.0536553785 0.764108598
vt 0.157264173 0.689855278
vt 0.157264173 0.735112071
vt 0.169070974 0.735112071
vt 0.169070974 0.689855695
vt 0.182457983 0.735112071
vt 0.182457983 0.689856172
vt 0.1940929 0.735112071
vt 0.1940929 0.689857364
vt 0.144577652 0.689853549
vt 0.144560009 0.735112071
vt 0.157264173 0.735112071
vt 0.157264173 0.689855278
vt 0.231968209 0.689859509
vt 0.243533179 0.735112071
vt 0.24352169 0.689858496
vt 0.231968209 0.735112071
vt 0.218569621 0.689859092
vt 0.218569621 0.735112071
vt 0.206768319 0.689858675
vt 0.206768319 0.735112071
vt 0.1940929 0.689857364
vt 0.1940929 0.735112071
vt 0.206768319 0.735112071
vt 0.206768319 0.689858675
vt 0.00336804357 0.764106929
vt 0.00336804357 0.809443891
vt 0.0207588784 0.809443891
vt 0.0207588784 0.764106691
vt 0.0363097563 0.809443891
vt 0.0363097563 0.764106691
vt 0.120393127 0.764107108
vt 0.120393127 0.809443891
vt 0.135994047 0.809443891
vt 0.135994047 0.764106929
vt 0.102861397 0.764107764
vt 0.102861397 0.809443891
vt 0.120393127 0.809443891
vt 0.120393127 0.764107108
vt 0.0871015564 0.764107943
vt 0.102861397 0.809443891
vt 0.102861397 0.764107764
vt 0.0871015564 0.809443891
vt 0.069469437 0.764108419
vt 0.069469437 0.809443891
vt 0.0536553785 0.764108598
vt 0.0536553785 0.809443891
vt 0.0363097563 0.764108777
vt 0.0363097563 0.809443891
vt 0.0536553785 0.809443891
vt 0.0536553785 0.764108598
vt 0.157264173 0.689855278
vt 0.157264173 0.735112071
vt 0.169070974 0.735112071
vt 0.169070974 0.689855695
vt 0.182457983 0.735112071
vt 0.182457983 0.689856172
vt 0.1940929 0.735112071
vt 0.1940929 0.689857364
vt 0.144577652 0.689853549
vt 0.144560009 0.735112071
vt 0.157264173 0.735112071
vt 0.157264173 0.689855278
vt 0.231968209 0.689859509
vt 0.243533179 0.735112071
vt 0.24352169 0.689858496
vt 0.231968209 0.735112071
vt 0.218569621 0.689859092
vt 0.218569621 0.735112071
vt 0.206768319 0.689858675
vt 0.206768319 0.735112071
vt 0.1940929 0.689857364
vt 0.1940929 0.735112071
vt 0.206768319 0.735112071
vt 0.206768319 0.689858675
vt 0.351824701 0.574391842
vt 0.346525788 0.584565163
vt 0.341226995 0.574391842
vt 0.359248966 0.585194051
vt 0.3338027 0.585194051
vt 0.353950113 0.594095886
vt 0.339101613 0.594095886
vt 0.341226995 0.574391842
vt 0.346525788 0.584565163
vt 0.351824701 0.574391842
vt 0.3338027 0.585194051
vt 0.359248966 0.585194051
vt 0.339101613 0.594095886
vt 0.353950113 0.594095886
vt 0.333793223 0.585203469
vt 0.341217428 0.574401379
vt 0.346516341 0.58457464
vt 0.339092016 0.594105422
vt 0.351815194 0.574401379
vt 0.353940427 0.594105422
vt 0.359239519 0.585203469
vt 0.353955775 0.594101608
vt 0.339107394 0.594101608
vt 0.346531421 0.584570944
vt 0.359254688 0.585199714
vt 0.333808362 0.585199714
vt 0.351830453 0.574397564
vt 0.341232687 0.574397624
vt 0.333798856 0.58520925
vt 0.346522063 0.584580362
vt 0.339097708 0.594111264
vt 0.34122327 0.57440722
vt 0.353946149 0.594111264
vt 0.351820976 0.574407101
vt 0.359245121 0.58520925
vt 0.256652474 0.572351277
vt 0.2663908 0.534849763
vt 0.256649226 0.531641662
vt 0.266389251 0.569017589
vt 0.279755771 0.522277772
vt 0.276932597 0.590739489
vt 0.276716858 0.512825131
vt 0.279851258 0.581225514
vt 0.314077348 0.521752238
vt 0.317598909 0.589793086
vt 0.316963375 0.512740433
vt 0.314452112 0.581225216
vt 0.328341633 0.534796238
vt 0.337506294 0.571227312
vt 0.337477475 0.531570613
vt 0.328342587 0.567961812
vt 0.236411393 0.583281577
vt 0.194903642 0.591282785
vt 0.193125963 0.583281577
vt 0.234633729 0.591282785
vt 0.174804702 0.57118398
vt 0.246731326 0.572961688
vt 0.182806045 0.572961688
vt 0.254732519 0.57118398
vt 0.174804702 0.531453848
vt 0.246731326 0.529676199
vt 0.182806045 0.529676199
vt 0.254732519 0.531453848
vt 0.194903642 0.511354983
vt 0.236411393 0.51935631
vt 0.193125963 0.51935631
vt 0.234633729 0.511354983
vt 0.256652474 0.572351277
vt 0.2663908 0.534849763
vt 0.256649226 0.531641662
vt 0.266389251 0.569017589
vt 0.279755771 0.522277772
vt 0.276932597 0.590739489
vt 0.276716858 0.512825131
vt 0.279851258 0.581225514
vt 0.314077348 0.521752238
vt 0.317598909 0.589793086
vt 0.316963375 0.512740433
vt 0.314452112 0.581225216
vt 0.328341633 0.534796238
vt 0.337506294 0.571227312
vt 0.337477475 0.531570613
vt 0.328342587 0.567961812
vt 0.236411393 0.583281577
vt 0.194903642 0.591282785
vt 0.193125963 0.583281577
vt 0.234633729 0.591282785
vt 0.174804702 0.57118398
vt 0.246731326 0.572961688
vt 0.182806045 0.572961688
vt 0.254732519 0.57118398
vt 0.174804702 0.531453848
vt 0.246731326 0.529676199
vt 0.182806045 0.529676199
vt 0.254732519 0.531453848
vt 0.194903642 0.511354983
vt 0.236411393 0.51935631
vt 0.193125963 0.51935631
vt 0.234633729 0.511354983
vt 0.256652474 0.572351277
vt 0.2663908 0.534849763
vt 0.256649226 0.531641662
vt 0.266389251 0.569017589
vt 0.279755771 0.522277772
vt 0.276932597 0.590739489
vt 0.276716858 0.512825131
vt 0.279851258 0.581225514
vt 0.314077348 0.521752238
vt 0.317598909 0.589793086
vt 0.316963375 0.512740433
vt 0.314452112 0.581225216
vt 0.328341633 0.534796238
vt 0.337506294 0.571227312
vt 0.337477475 0.531570613
vt 0.328342587 0.567961812
vt 0.236411393 0.583281577
vt 0.194903642 0.591282785
vt 0.193125963 0.583281577
vt 0.234633729 0.591282785
vt 0.174804702 0.57118398
vt 0.246731326 0.572961688
vt 0.182806045 0.572961688
vt 0.254732519 0.57118398
vt 0.174804702 0.531453848
vt 0.246731326 0.529676199
vt 0.182806045 0.529676199
vt 0.254732519 0.531453848
vt 0.194903642 0.511354983
vt 0.236411393 0.51935631
vt 0.193125963 0.51935631
vt 0.234633729 0.511354983
vt 0.195172146 0.915767908
vt 0.20123066 0.91304642
vt 0.201287389 0.896703184
vt 0.195211872 0.893904209
vt 0.208266318 0.928717196
vt 0.211069733 0.886900127
vt 0.211056277 0.92273128
vt 0.208310634 0.880853891
vt 0.230264947 0.928717196
vt 0.227547809 0.886895478
vt 0.227520749 0.92273128
vt 0.230309129 0.880872905
vt 0.243344903 0.915795267
vt 0.237288713 0.896663189
vt 0.237342566 0.913127661
vt 0.243351296 0.893893063
vt 0.195172146 0.915767908
vt 0.20123066 0.91304642
vt 0.201287389 0.896703184
vt 0.195211872 0.893904209
vt 0.208266318 0.928717196
vt 0.211069733 0.886900127
vt 0.211056277 0.92273128
vt 0.208310634 0.880853891
vt 0.230264947 0.928717196
vt 0.227547809 0.886895478
vt 0.227520749 0.92273128
vt 0.230309129 0.880872905
vt 0.243344903 0.915795267
vt 0.237288713 0.896663189
vt 0.237342566 0.913127661
vt 0.243351296 0.893893063
vn -0.57734555 0.577344835 -0.577360511
vn -0.57734561 0.577344775 -0.577360451
vn -0.57734555 0.577344835 -0.577360511
vn -0.577346742 -0.577343881 -0.577360272
vn -0.577346742 -0.577343881 -0.577360272
vn -0.577346742 -0.577343881 -0.577360272
vn 0.888916671 -0.457559943 -0.0215895697
vn 0.579705536 -0.576172888 -0.57616514
vn 0.888917625 -0.0216058791 -0.457557261
vn 0.577352881 0.577351511 -0.577346504
vn 0.888916314 0.45756045 -0.0215915237
vn 0.888916969 0.0216025803 -0.457558781
vn 0.577354312 0.577347875 0.57734865
vn 0.457562476 0.0216025971 0.888915002
vn 0.888917148 0.0215997379 0.457558453
vn 0.457561374 -0.0216033403 0.888915539
vn 0.577350736 -0.577350438 0.577349722
vn 0.888916373 -0.0216035191 0.457559913
vn -0.577349365 -0.577352166 0.577349365
vn -0.577349365 -0.577352166 0.577349365
vn -0.577349305 -0.577352166 0.577349305
vn -0.577350736 0.57735002 0.57735002
vn -0.577350736 0.57735002 0.57735002
vn -0.888916314 0.0216048528 0.457559884
vn -0.101618968 -0.101619095 -0.989619672
vn -0.101618968 -0.101619102 -0.989619672
vn -0.101618968 -0.101619102 -0.989619672
vn -0.101618387 0.101618581 -0.989619792
vn -0.101618387 0.101618581 -0.989619792
vn -0.101618394 0.101618603 -0.989619792
vn 0.101619668 0.101617791 -0.989619792
vn 0.101619661 0.101617791 -0.989619792
vn 0.101619668 0.101617791 -0.989619792
vn 0.101618752 -0.101618893 -0.989619792
vn 0.101618752 -0.101618879 -0.989619792
vn 0.101618744 -0.101618879 -0.989619672
vn 0.989619315 0.101621136 -0.10162127
vn 0.989619315 0.101621144 -0.10162127
vn 0.989619315 0.101621136 -0.10162127
vn 0.989619672 0.101618975 0.10161911
vn 0.989619672 0.101618968 0.101619102
vn 0.989619672 0.101618968 0.101619117
vn 0.989619792 -0.101618789 0.101618789
vn 0.989619792 -0.101618789 0.101618789
vn 0.989619792 -0.101618789 0.101618789
vn 0.989619315 -0.101620764 -0.101621032
vn 0.989619315 -0.101620749 -0.101621024
vn 0.989619315 -0.101620764 -0.101621024
vn -0.989619672 0.101618864 0.101618998
vn -0.989619672 0.101618841 0.101618975
vn -0.989619672 0.101618864 0.101618998
vn -0.989619672 0.101618819 -0.101619095
vn -0.989619672 0.101618797 -0.10161908
vn -0.989619672 0.101618819 -0.101619095
vn -0.989619672 -0.101619042 -0.101618908
vn -0.989619672 -0.101619057 -0.101618923
vn -0.989619672 -0.101619042 -0.101618908
vn -0.989619672 -0.101618707 0.101618968
vn -0.989619672 -0.101618707 0.101618968
vn -0.989619672 -0.101618707 0.101618968
vn -0.832410395 -0.302205652 0.464504778
vn -0.832410693 -0.302205235 -0.4645046
vn -0.540147126 -0.680110753 -0.49567169
vn -0.540145099 -0.680111229 0.495673239
vn -0.464502275 -0.30220595 -0.832411766
vn 0.464501292 -0.302204788 -0.832412601
vn 0.495669484 -0.68011272 -0.540146768
vn -0.495672613 -0.680113733 -0.540142417
vn 0.832411528 -0.30220297 -0.464504361
vn 0.832411766 -0.302203119 0.464504093
vn 0.54014802 -0.680109978 0.49567157
vn 0.540147483 -0.680110157 -0.495672137
vn 0.464501023 -0.302197993 0.832415342
vn -0.464500695 -0.302209288 0.832411349
vn -0.464507103 -0.832415223 0.302188724
vn 0.464500129 -0.832405567 0.302225977
vn -0.464503199 0.302205652 0.832411289
vn 0.464502364 0.302199543 0.832413912
vn 0.46450004 0.832405984 0.302225262
vn -0.464500695 0.832418144 0.302190453
vn 0.832410753 0.302205831 0.464503884
vn 0.832410753 0.302205592 -0.464504033
vn 0.540144265 0.680113137 -0.495671511
vn 0.540144622 0.680113137 0.495671153
vn 0.464502603 0.302206039 -0.832411468
vn -0.464503914 0.302204162 -0.832411349
vn -0.495672256 0.680113494 -0.540143192
vn 0.49567011 0.680112243 -0.540146649
vn -0.832411766 0.302202731 -0.464504182
vn -0.832411766 0.302202523 0.464504391
vn -0.540146291 0.680110455 0.49567306
vn -0.540146768 0.680110276 -0.495672852
vn 0.540133417 0.495666057 0.680125833
vn 0.540134788 -0.495665312 0.680125356
vn 0.83240217 -0.464501321 0.302233428
vn 0.83240211 0.464501679 0.302233368
vn 0.577343106 0.577348113 0.577359498
vn 0.46450004 0.832405984 0.302225262
vn 0.540144622 0.680113137 0.495671153
vn 0.464502364 0.302199543 0.832413912
vn 0.832410753 0.302205831 0.464503884
vn -0.540152729 -0.495675564 0.680103481
vn -0.540154338 0.495674878 0.680102706
vn -0.832417667 0.464510113 0.302177459
vn -0.832418442 -0.464507669 0.302179039
vn 0.540144742 -0.495669663 -0.680114269
vn 0.540142417 0.495670438 -0.680115342
vn 0.680112123 0.495669365 -0.540147543
vn 0.680112898 -0.495669961 -0.540145993
vn 0.577348828 -0.577349663 -0.577352285
vn 0.495669484 -0.68011272 -0.540146768
vn 0.540147483 -0.680110157 -0.495672137
vn 0.464501292 -0.302204788 -0.832412601
vn 0.832411528 -0.30220297 -0.464504361
vn -0.540147424 0.495671123 -0.680110931
vn -0.540146172 -0.495672405 -0.680111051
vn -0.680115342 -0.495671153 -0.540141821
vn -0.680115879 0.495672047 -0.540140271
vn -0.577351749 0.577349186 -0.577349842
vn -0.495672256 0.680113494 -0.540143192
vn -0.540146768 0.680110276 -0.495672852
vn -0.464503914 0.302204162 -0.832411349
vn -0.832411766 0.302202731 -0.464504182
vn -0 4.7914574E-07 -1
vn -0 4.7914574E-07 -1
vn -0 4.7914574E-07 -1
vn -0 4.79145854E-07 -1
vn -1.79571941E-07 -6.13092539E-07 1
vn -1.79571941E-07 -6.13092539E-07 1
vn -1.79571941E-07 -6.13092539E-07 1
vn -1.79571941E-07 -6.13092539E-07 1
vn -5.55563815E-07 5.07907203E-07 1
vn -5.55563929E-07 5.07907259E-07 1
vn -5.38718552E-07 -6.74400007E-06 1
vn -5.38718552E-07 -6.74399962E-06 1
vn 0.464502603 0.302206039 -0.832411468
vn -0.3826828 0 -0.923879802
vn -0.464503914 0.302204162 -0.832411349
vn 0.3826828 0 -0.923879802
vn 0.832410753 0.302205592 -0.464504033
vn 0.923879325 0 -0.382684082
vn 0.832410753 0.302205831 0.464503884
vn 0.923879325 0 0.382684082
vn 0.3826828 0 0.923879802
vn 0.464502364 0.302199543 0.832413912
vn -0.464503199 0.302205652 0.832411289
vn -0.3826828 0 0.923879802
vn -0.832411766 0.302202523 0.464504391
vn -0.923879325 0 0.382684082
vn -0.832411766 0.302202731 -0.464504182
vn -0.923879325 0 -0.382684082
vn -0.464503914 0.302204162 -0.832411349
vn -0.3826828 0 -0.923879802
vn 0.382977486 0.0447731353 -0.922671974
vn -0.381595254 0.044778619 -0.923244298
vn -0.38298133 0.044783242 -0.922669828
vn 0.381599605 0.0447685607 -0.923242986
vn 0.922670066 0.0447624549 -0.382983446
vn 0.923245847 0.0447578058 -0.381593853
vn 0.922671378 0.0447573885 0.382980824
vn 0.923244953 0.0447527841 0.381596833
vn 0.382978797 0.0447609499 0.922671974
vn 0.381598741 0.0447563715 0.92324388
vn -0.382982582 0.0447710678 0.922669947
vn -0.38159433 0.0447664447 0.923245251
vn -0.922671378 0.0447853059 0.382977486
vn -0.923242509 0.0447807573 0.381599277
vn -0.922670066 0.0447903723 -0.382980287
vn -0.923243523 0.0447857715 -0.381596386
vn -0.38298133 0.044783242 -0.922669828
vn -0.381595254 0.044778619 -0.923244298
vn 0.908400297 0.172619298 0.380803615
vn 0.888917625 -0.0216058791 -0.457557261
vn 0.908401012 0.172618762 -0.380802274
vn 0.888916373 -0.0216035191 0.457559913
vn 0.380803794 0.172620222 0.908400118
vn 0.457561374 -0.0216033403 0.888915539
vn -0.380804479 0.172621489 0.908399582
vn -0.372567892 0.172458127 0.911839485
vn -0.908399999 0.172621951 0.380803287
vn -0.911839485 0.172458604 0.372567683
vn -0.908398628 0.172623336 -0.380805761
vn -0.911838233 0.17246002 -0.372570217
vn -0.380802304 0.172623768 -0.908400118
vn -0.580334306 -0.575849354 -0.575855494
vn 0.380804092 0.172621146 -0.90839982
vn 0.579705536 -0.576172888 -0.57616514
vn 0.908401012 0.172618762 -0.380802274
vn 0.888917625 -0.0216058791 -0.457557261
vn -0.464502275 -0.30220595 -0.832411766
vn 0.382683575 1.21165533E-06 -0.923879445
vn 0.464501292 -0.302204788 -0.832412601
vn -0.382682234 -1.21165124E-06 -0.923880041
vn -0.832410693 -0.302205235 -0.4645046
vn -0.923878789 -4.62098615E-06 -0.382685155
vn -0.832410395 -0.302205652 0.464504778
vn -0.923878789 -4.62098615E-06 0.382685155
vn -0.382682234 -1.21165124E-06 0.923880041
vn -0.464500695 -0.302209288 0.832411349
vn 0.464501023 -0.302197993 0.832415342
vn 0.382683575 1.21165533E-06 0.923879445
vn 0.832411766 -0.302203119 0.464504093
vn 0.923879027 1.21165249E-06 0.382684618
vn 0.832411528 -0.30220297 -0.464504361
vn 0.923879027 1.21165249E-06 -0.382684618
vn 0.464501292 -0.302204788 -0.832412601
vn 0.382683575 1.21165533E-06 -0.923879445
vn -0.382977486 -0.0447731353 -0.922671974
vn 0.381595254 -0.044778619 -0.923244298
vn 0.38298133 -0.044783242 -0.922669828
vn -0.381599605 -0.0447685607 -0.923242986
vn -0.922670066 -0.0447624549 -0.382983446
vn -0.923245847 -0.0447578058 -0.381593853
vn -0.922671378 -0.0447573885 0.382980824
vn -0.923244953 -0.0447527841 0.381596833
vn -0.382978797 -0.0447609499 0.922671974
vn -0.381598741 -0.0447563715 0.92324388
vn 0.382982582 -0.0447710678 0.922669947
vn 0.38159433 -0.0447664447 0.923245251
vn 0.922671378 -0.0447853059 0.382977486
vn 0.923242509 -0.0447807573 0.381599277
vn 0.922670066 -0.0447903723 -0.382980287
vn 0.923243523 -0.0447857715 -0.381596386
vn 0.38298133 -0.044783242 -0.922669828
vn 0.381595254 -0.044778619 -0.923244298
vn -0.908400595 -0.172618017 0.380803645
vn -0.911839008 -0.172456458 -0.372570068
vn -0.908399224 -0.172619805 -0.380806059
vn -0.888916314 0.0216048528 0.457559884
vn -0.380804241 -0.172618762 0.908400178
vn -0.372568846 -0.172455475 0.911839724
vn 0.38080579 -0.17262058 0.908399224
vn 0.457562476 0.0216025971 0.888915002
vn 0.908400416 -0.172622517 0.380801976
vn 0.888917148 0.0215997379 0.457558453
vn 0.908400595 -0.172622204 -0.380801767
vn 0.888916969 0.0216025803 -0.457558781
vn 0.380804598 -0.172622323 -0.908399284
vn 0.580335319 0.575853288 -0.575850487
vn -0.380802035 -0.172622234 -0.908400476
vn -0.580332577 0.575849593 -0.575856984
vn -0.908399224 -0.172619805 -0.380806059
vn -0.911839008 -0.172456458 -0.372570068
vn -0.832417667 0.464510113 0.302177459
vn -0.923880756 -0.382680416 -3.49174261E-05
vn -0.832418442 -0.464507669 0.302179039
vn -0.923879921 0.382682502 -3.85260973E-05
vn -0.464500695 0.832418144 0.302190453
vn -0.382692903 0.92387563 -1.80702409E-05
vn 0.46450004 0.832405984 0.302225262
vn 0.382675767 0.923882663 1.32557043E-05
vn 0.923877716 0.382687718 3.37122183E-05
vn 0.83240211 0.464501679 0.302233368
vn 0.83240217 -0.464501321 0.302233428
vn 0.923877776 -0.382687628 3.37056335E-05
vn 0.464500129 -0.832405567 0.302225977
vn 0.382675916 -0.923882544 1.32491159E-05
vn -0.464507103 -0.832415223 0.302188724
vn -0.382690996 -0.923876345 -1.44613323E-05
vn -0.832418442 -0.464507669 0.302179039
vn -0.923880756 -0.382680416 -3.49174261E-05
vn -0.922672093 0.382977337 0.0447731242
vn -0.923244715 -0.381594241 0.044778306
vn -0.92266947 -0.382982403 0.044782944
vn -0.923242867 0.381599724 0.044768557
vn -0.382983327 0.922670066 0.0447628982
vn -0.381593913 0.923245728 0.0447582565
vn 0.382980764 0.922671378 0.0447578318
vn 0.381596893 0.923244834 0.0447532348
vn 0.922672093 0.382978708 0.0447609462
vn 0.923243821 0.38159886 0.0447563492
vn 0.92266953 -0.382983714 0.0447707586
vn 0.923245609 -0.381593227 0.0447661094
vn 0.382978112 -0.922671258 0.0447814278
vn 0.381598622 -0.923242867 0.0447768494
vn -0.382980794 -0.922669947 0.0447864942
vn -0.38159579 -0.923243821 0.0447818786
vn -0.92266947 -0.382982403 0.044782944
vn -0.923244715 -0.381594241 0.044778306
vn 0.380806297 0.908398509 0.172623038
vn -0.580332577 0.575849593 -0.575856984
vn -0.380802125 0.908401787 0.172615021
vn 0.580335319 0.575853288 -0.575850487
vn 0.908399284 0.38080129 0.172629729
vn 0.888916314 0.45756045 -0.0215915237
vn 0.908398449 -0.380802691 0.172631621
vn 0.888916671 -0.457559943 -0.0215895697
vn 0.380804926 -0.908398211 0.172627538
vn 0.579705536 -0.576172888 -0.57616514
vn -0.380801737 -0.908401012 0.172619894
vn -0.580334306 -0.575849354 -0.575855494
vn -0.908400714 -0.380805403 0.172613531
vn -0.911841571 -0.37256667 0.172450125
vn -0.90840137 0.380804658 0.172611341
vn -0.911841214 0.372568667 0.172448114
vn -0.380802125 0.908401787 0.172615021
vn -0.580332577 0.575849593 -0.575856984
vn -0 -0.143651217 -0.989628434
vn -0 -0.143651217 -0.989628434
vn -0 -0.143651217 -0.989628434
vn -0 -0.143651217 -0.989628434
vn -0.143651053 1.89057971E-07 -0.989628434
vn -0.143651053 1.89057971E-07 -0.989628434
vn -0.143651053 1.89057971E-07 -0.989628434
vn -0.143651053 1.89057971E-07 -0.989628434
vn -0 0.143650472 -0.989628553
vn -0 0.143650472 -0.989628553
vn -0 0.143650472 -0.989628553
vn -0 0.143650472 -0.989628553
vn 0.143651217 4.89611011E-07 -0.989628434
vn 0.143651217 4.89610954E-07 -0.989628434
vn 0.143651202 4.89610954E-07 -0.989628434
vn 0.143651187 4.89610954E-07 -0.989628434
vn 1 0 1.91658296E-06
vn 1 0 1.91658296E-06
vn 1 0 1.91658296E-06
vn 1 0 1.91658296E-06
vn -1 0 -1.96190758E-05
vn -1 0 -1.96190722E-05
vn -1 0 -1.96190758E-05
vn -1 0 -1.96190722E-05
vn -1 0 0
vn -1 0 0
vn -1 0 -4.90473803E-06
vn -1 0 -4.90473758E-06
vn 0.989627957 0 -0.143654257
vn 0.989627957 0 -0.143654257
vn 0.989627957 0 -0.143654242
vn 0.989627957 0 -0.143654257
vn 0.989628077 0.14365305 7.57443786E-07
vn 0.989628077 0.14365305 7.57443786E-07
vn 0.989628077 0.14365305 7.57443672E-07
vn 0.989628077 0.14365305 7.57443786E-07
vn 0.989628434 0 0.143651217
vn 0.989628434 0 0.143651202
vn 0.989628434 0 0.143651232
vn 0.989628434 0 0.143651217
vn 0.989628196 -0.143652514 8.11370796E-07
vn 0.989628196 -0.143652514 8.11370626E-07
vn 0.989628196 -0.143652514 8.11370683E-07
vn 0.989628196 -0.143652514 8.11370796E-07
vn -1 0 0
vn -1 0 0
vn -1 0 0
vn -1 0 0
vn 1 0 0
vn 1 0 0
vn 1 0 0
vn 1 0 0
vn 1 0 0
vn 1 0 0
vn 1 0 1.96190722E-05
vn 1 0 1.96190722E-05
vn -0.989628434 0 0.143651232
vn -0.989628434 0 0.143651202
vn -0.989628434 0 0.143651217
vn -0.989628434 0 0.143651217
vn -0.989628434 0.143651336 0
vn -0.989628434 0.143651336 0
vn -0.989628434 0.143651322 0
vn -0.989628434 0.143651322 0
vn -0.989628434 0 -0.143651351
vn -0.989628434 0 -0.143651336
vn -0.989628434 0 -0.143651307
vn -0.989628434 0 -0.143651336
vn -0.989628434 -0.143651217 0
vn -0.989628434 -0.143651217 0
vn -0.989628434 -0.143651202 0
vn -0.989628434 -0.143651217 0
vn 0.382692724 -0.923875749 8.11075661E-05
vn 0.382676214 -0.923882544 8.11081409E-05
vn -0.382677704 -0.923881948 8.03177245E-05
vn -0.382691473 -0.923876166 8.03172152E-05
vn -0.707109571 -0.707103908 6.09017989E-05
vn -0.707109571 -0.707103908 6.09017989E-05
vn 0.707107067 -0.707106411 6.23624364E-05
vn 0.707107127 -0.707106352 6.23624292E-05
vn 0.382676214 -0.923882544 8.11081409E-05
vn 0.382692724 -0.923875749 8.11075661E-05
vn 1 -1.68034535E-06 6.89165518E-07
vn 1 -1.68034512E-06 6.89165404E-07
vn 1 -1.68034535E-06 6.89165518E-07
vn 1 -1.68034512E-06 6.89165404E-07
vn 0.382676989 0.923882186 -8.0580714E-05
vn 0.707108438 0.707105041 -6.13878146E-05
vn 0.707108438 0.707105041 -6.13878146E-05
vn 0.382692128 0.923875988 -8.0580161E-05
vn -0.382680297 0.923880816 -8.13719162E-05
vn -0.38269344 0.923875332 -8.13714505E-05
vn -0.707112074 0.707101464 -6.28497073E-05
vn -0.707112074 0.707101464 -6.28497073E-05
vn -1 0 -2.06705545E-06
vn -1 0 -2.06705545E-06
vn -1 0 -2.06705545E-06
vn -1 0 -2.06705545E-06
vn 0.707103431 0.707110107 -0.000297077699
vn 0.707103431 0.707110107 -0.000297077728
vn 0.382675588 0.923882663 -0.000327367597
vn 0.382683784 0.923879325 -0.000327367539
vn -0.382674515 0.9238832 -0.000327629416
vn -0.382682234 0.923880041 -0.000327629241
vn -0.707096636 0.707116842 -0.000297563296
vn -0.707096636 0.707116783 -0.000297563296
vn 1 -4.48621631E-06 -0.000235643907
vn 1 -4.48621631E-06 -0.000235643951
vn 1 -4.48621631E-06 -0.000235643951
vn 1 -4.48621677E-06 -0.000235643922
vn 0.382669181 -0.923885405 -0.000166088415
vn 0.707101703 -0.707111776 -0.000173567736
vn 0.707101703 -0.707111776 -0.000173567707
vn 0.382688999 -0.92387718 -0.000166089565
vn -0.382661939 -0.923888445 -0.000166349811
vn -0.382689029 -0.92387718 -0.000166351398
vn -0.707093 -0.707120478 -0.00017405214
vn -0.707092941 -0.707120478 -0.00017405214
vn -1 0 -0.000236333304
vn -1 0 -0.000236333304
vn -1 0 -0.000236333304
vn -1 0 -0.000236333304
vn 0.923877299 4.04636157E-05 -0.382688999
vn 0.923880935 4.04637613E-05 -0.382679909
vn 0.923880339 4.0067669E-05 0.382681519
vn 0.923877776 4.00675563E-05 0.382687569
vn 0.707103908 3.0398347E-05 0.70710963
vn 0.707103908 3.03983488E-05 0.70710963
vn 0.707106471 3.11302974E-05 -0.707107067
vn 0.707106411 3.11302974E-05 -0.707107067
vn 0.923880935 4.04637613E-05 -0.382679909
vn 0.923877299 4.04636157E-05 -0.382688999
vn 1.68034751E-06 3.44348592E-07 -1
vn 1.68034762E-06 3.44348592E-07 -1
vn 1.68034751E-06 3.44348592E-07 -1
vn 1.68034762E-06 3.44348592E-07 -1
vn -0.923880637 -4.02629012E-05 -0.382680893
vn -0.707105041 -3.06730508E-05 -0.707108438
vn -0.707105041 -3.06730508E-05 -0.707108438
vn -0.923877597 -4.02627702E-05 -0.382688284
vn -0.923879325 -4.0658244E-05 0.382684082
vn -0.923877001 -4.06581457E-05 0.382689804
vn -0.707101405 -3.14034914E-05 0.707112074
vn -0.707101405 -3.14034914E-05 0.707112074
vn -0 -1.03282537E-06 1
vn -0 -1.03282537E-06 1
vn -0 -1.03282537E-06 1
vn -0 -1.03282537E-06 1
vn -0.707110107 -0.000148437903 -0.707103431
vn -0.707110107 -0.000148437903 -0.707103431
vn -0.923881948 -0.000163572564 -0.382677704
vn -0.923880219 -0.000163572535 -0.382681698
vn -0.923882484 -0.000163703371 0.382676482
vn -0.923880756 -0.000163703342 0.382680357
vn -0.707116783 -0.00014868057 0.707096696
vn -0.707116902 -0.000148680585 0.707096696
vn 4.48727224E-06 -0.000117741904 -1
vn 4.48727224E-06 -0.000117741896 -1
vn 4.48727224E-06 -0.000117741904 -1
vn 4.48727224E-06 -0.000117741904 -1
vn 0.9238832 -8.29879282E-05 -0.382674694
vn 0.707111776 -8.67248746E-05 -0.707101762
vn 0.707111776 -8.672486E-05 -0.707101762
vn 0.923879504 -8.29881901E-05 -0.382683516
vn 0.92388612 -8.31185389E-05 0.382667482
vn 0.923879504 -8.31189973E-05 0.382683456
vn 0.707120538 -8.69669166E-05 0.707093
vn 0.707120538 -8.69669166E-05 0.707093
vn -0 -0.000118086376 1
vn -0 -0.000118086376 1
vn -0 -0.000118086376 1
vn -0 -0.000118086369 1
vn -0.540154338 0.495674878 0.680102706
vn -0.577354014 0.577351928 0.577344894
vn -0.832417667 0.464510113 0.302177459
vn -0.540146291 0.680110455 0.49567306
vn -0.464500695 0.832418144 0.302190453
vn -0.832411766 0.302202523 0.464504391
vn -0.464503199 0.302205652 0.832411289
vn -0.832418442 -0.464507669 0.302179039
vn -0.577354431 -0.577352762 0.577343643
vn -0.540152729 -0.495675564 0.680103481
vn -0.464507103 -0.832415223 0.302188724
vn -0.540145099 -0.680111229 0.495673239
vn -0.464500695 -0.302209288 0.832411349
vn -0.832410395 -0.302205652 0.464504778
vn 0.464500129 -0.832405567 0.302225977
vn 0.83240217 -0.464501321 0.302233428
vn 0.57734406 -0.577346683 0.577359915
vn 0.464501023 -0.302197993 0.832415342
vn 0.540134788 -0.495665312 0.680125356
vn 0.832411766 -0.302203119 0.464504093
vn 0.54014802 -0.680109978 0.49567157
vn -0.832410693 -0.302205235 -0.4645046
vn -0.464502275 -0.30220595 -0.832411766
vn -0.577350855 -0.577349901 -0.57735002
vn -0.540147126 -0.680110753 -0.49567169
vn -0.495672613 -0.680113733 -0.540142417
vn -0.540146172 -0.495672405 -0.680111051
vn -0.680115342 -0.495671153 -0.540141821
vn 0.49567011 0.680112243 -0.540146649
vn 0.577348113 0.57735014 -0.577352405
vn 0.464502603 0.302206039 -0.832411468
vn 0.680112123 0.495669365 -0.540147543
vn 0.832410753 0.302205592 -0.464504033
vn 0.540142417 0.495670438 -0.680115342
vn 0.540144265 0.680113137 -0.495671511
vn -0.287219405 0.114112109 0.951043308
vn -0.282937855 -0.127133414 0.95067513
vn -0.287219465 -0.11411231 0.951043308
vn -0.282937676 0.127133727 0.95067513
vn -0.127133816 -0.282937646 0.95067513
vn -0.114112422 0.287219584 0.951043189
vn -0.114111952 -0.287219375 0.951043427
vn -0.12713322 0.282938212 0.95067513
vn 0.127133057 -0.282937586 0.950675309
vn 0.114112414 0.287219524 0.951043189
vn 0.114112169 -0.287219077 0.951043427
vn 0.12713322 0.282938153 0.95067513
vn 0.282937527 -0.12713331 0.950675249
vn 0.287219316 0.114112139 0.951043427
vn 0.287219077 -0.114112139 0.951043427
vn 0.282937676 0.127133653 0.950675249
vn -0.586743057 0.363901168 -0.723400652
vn -0.590326667 -0.181255355 -0.786550045
vn -0.586742938 -0.363900959 -0.723400831
vn -0.590326726 0.181255266 -0.786549985
vn -0.181255221 -0.59032613 -0.786550462
vn -0.36390081 0.586742759 -0.72340107
vn -0.363900781 -0.586742699 -0.723401189
vn -0.181255251 0.59032613 -0.786550462
vn 0.181255206 -0.590326011 -0.786550522
vn 0.36390084 0.586742759 -0.72340107
vn 0.363900781 -0.586742699 -0.723401189
vn 0.181255266 0.59032613 -0.786550462
vn 0.590326667 -0.181255341 -0.786550045
vn 0.586743116 0.363901168 -0.723400652
vn 0.586742997 -0.3639009 -0.723400891
vn 0.590326726 0.181255281 -0.786549985
vn -0.114112169 -0.951043189 -0.287219822
vn 0.127133518 -0.95067513 -0.282937974
vn 0.114112578 -0.951043189 -0.287219495
vn -0.12713401 -0.950675011 -0.282938093
vn 0.282937855 -0.95067513 -0.127133623
vn -0.287219614 -0.951043189 -0.11411228
vn 0.287219614 -0.951043308 -0.114111885
vn -0.282938123 -0.950675011 -0.127133623
vn 0.282937795 -0.950675249 0.127133206
vn -0.287219614 -0.951043308 0.114112265
vn 0.287219346 -0.951043427 0.114111975
vn -0.282938033 -0.95067513 0.127133593
vn 0.127133399 -0.950675249 0.282937527
vn -0.114112079 -0.951043308 0.287219614
vn 0.114112385 -0.951043427 0.287219077
vn -0.127133921 -0.95067513 0.282937825
vn -0.363900572 0.723401368 -0.58674258
vn 0.18125473 0.786551118 -0.590325356
vn 0.363899499 0.723402321 -0.586742043
vn -0.181255132 0.78655076 -0.590325713
vn 0.590324163 0.786552012 -0.181254953
vn -0.586742818 0.72340095 -0.363901019
vn 0.586740732 0.723402798 -0.363900691
vn -0.590326667 0.786550045 -0.181255341
vn 0.590324163 0.786552012 0.181254968
vn -0.586742818 0.72340095 0.363901019
vn 0.586740732 0.723402739 0.363900661
vn -0.590326667 0.786550045 0.181255341
vn 0.181254759 0.786551058 0.590325415
vn -0.363900572 0.723401368 0.58674258
vn 0.363899529 0.723402321 0.586742043
vn -0.181255132 0.78655076 0.590325713
vn 0.114112169 0.951043189 -0.287219822
vn -0.127133518 0.95067513 -0.282937974
vn -0.114112578 0.951043189 -0.287219495
vn 0.12713401 0.950675011 -0.282938093
vn -0.282937855 0.95067513 -0.127133623
vn 0.287219614 0.951043189 -0.11411228
vn -0.287219614 0.951043308 -0.114111885
vn 0.282938123 0.950675011 -0.127133623
vn -0.282937795 0.950675249 0.127133206
vn 0.287219614 0.951043308 0.114112265
vn -0.287219346 0.951043427 0.114111975
vn 0.282938033 0.95067513 0.127133593
vn -0.127133399 0.950675249 0.282937527
vn 0.114112079 0.951043308 0.287219614
vn -0.114112385 0.951043427 0.287219077
vn 0.127133921 0.95067513 0.282937825
vn 0.363900572 -0.723401368 -0.58674258
vn -0.18125473 -0.786551118 -0.590325356
vn -0.363899499 -0.723402321 -0.586742043
vn 0.181255132 -0.78655076 -0.590325713
vn -0.590324163 -0.786552012 -0.181254953
vn 0.586742818 -0.72340095 -0.363901019
vn -0.586740732 -0.723402798 -0.363900691
vn 0.590326667 -0.786550045 -0.181255341
vn -0.590324163 -0.786552012 0.181254968
vn 0.586742818 -0.72340095 0.363901019
vn -0.586740732 -0.723402739 0.363900661
vn 0.590326667 -0.786550045 0.181255341
vn -0.181254759 -0.786551058 0.590325415
vn 0.363900572 -0.723401368 0.58674258
vn -0.363899529 -0.723402321 0.586742043
vn 0.181255132 -0.78655076 0.590325713
vn -6.79540199E-06 1 1.45867998E-05
vn -6.28030057E-06 1 1.44732066E-05
vn 1.9580234E-06 1 6.23487767E-06
vn 1.8620276E-06 1 5.92920151E-06
vn -2.05158121E-05 1 4.9334385E-06
vn -6.23477217E-06 1 1.9580159E-06
vn -2.07077846E-05 1 4.32230945E-06
vn -5.92928518E-06 1 1.86207831E-06
vn -1.18581984E-05 1 -3.72406566E-06
vn -1.44732294E-05 1 1.01964488E-05
vn -1.24696153E-05 1 -3.91608091E-06
vn -1.45868162E-05 1 1.05196077E-05
vn -3.72404884E-06 1 1.18585222E-05
vn -1.21544281E-05 1 2.0708314E-05
vn -3.91606909E-06 1 1.24699736E-05
vn -1.23817636E-05 1 2.05162687E-05
vn -1.45867998E-05 6.79540199E-06 1
vn -1.44732066E-05 6.28030057E-06 1
vn -6.23487767E-06 -1.9580234E-06 1
vn -5.92920151E-06 -1.86202772E-06 1
vn -4.9334385E-06 2.05158121E-05 1
vn -1.95801636E-06 6.23477854E-06 1
vn -4.32230945E-06 2.07077846E-05 1
vn -1.86207797E-06 5.92928836E-06 1
vn 3.72406566E-06 1.18581984E-05 1
vn -1.01964488E-05 1.44732367E-05 1
vn 3.91608091E-06 1.24696153E-05 1
vn -1.05196095E-05 1.45868262E-05 1
vn -1.18585222E-05 3.72404884E-06 1
vn -2.07083158E-05 1.21544317E-05 1
vn -1.24699736E-05 3.91606909E-06 1
vn -2.05162687E-05 1.23817645E-05 1
g P_Bend_B_0
f 3/3/3 2/2/2 1/1/1
f 6/6/6 5/5/5 4/4/4
f 9/9/9 8/8/8 7/7/7
f 12/12/12 11/11/11 10/10/10
f 15/15/15 14/14/14 13/13/13
f 18/18/18 17/17/17 16/16/16
f 21/21/21 20/20/20 19/19/19
f 24/24/24 23/23/23 22/22/22
f 27/27/27 26/26/26 25/25/25
f 30/30/30 29/29/29 28/28/28
f 33/33/33 32/32/32 31/31/31
f 36/36/36 35/35/35 34/34/34
f 39/39/39 38/38/38 37/37/37
f 42/42/42 41/41/41 40/40/40
f 45/45/45 44/44/44 43/43/43
f 48/48/48 47/47/47 46/46/46
f 51/51/51 50/50/50 49/49/49
f 54/54/54 53/53/53 52/52/52
f 57/57/57 56/56/56 55/55/55
f 60/60/60 59/59/59 58/58/58
f 63/63/63 62/62/62 61/61/61
f 64/64/64 63/63/63 61/61/61
f 67/67/67 66/66/66 65/65/65
f 68/68/68 67/67/67 65/65/65
f 71/71/71 70/70/70 69/69/69
f 72/72/72 71/71/71 69/69/69
f 75/75/75 74/74/74 73/73/73
f 76/76/76 75/75/75 73/73/73
f 79/79/79 78/78/78 77/77/77
f 80/80/80 79/79/79 77/77/77
f 83/83/83 82/82/82 81/81/81
f 84/84/84 83/83/83 81/81/81
f 87/87/87 86/86/86 85/85/85
f 88/88/88 87/87/87 85/85/85
f 91/91/91 90/90/90 89/89/89
f 92/92/92 91/91/91 89/89/89
f 95/95/95 94/94/94 93/93/93
f 96/96/96 95/95/95 93/93/93
f 93/93/93 97/97/97 96/96/96
f 97/97/97 98/98/98 96/96/96
f 97/97/97 93/93/93 99/99/99
f 100/100/100 98/98/98 97/97/97
f 101/101/101 97/97/97 99/99/99
f 97/97/97 101/101/101 100/100/100
f 104/104/104 103/103/103 102/102/102
f 105/105/105 104/104/104 102/102/102
f 108/108/108 107/107/107 106/106/106
f 109/109/109 108/108/108 106/106/106
f 109/109/109 106/106/106 110/110/110
f 110/110/110 111/111/111 109/109/109
f 110/110/110 106/106/106 112/112/112
f 111/111/111 110/110/110 113/113/113
f 114/114/114 110/110/110 112/112/112
f 114/114/114 113/113/113 110/110/110
f 117/117/117 116/116/116 115/115/115
f 118/118/118 117/117/117 115/115/115
f 115/115/115 119/119/119 118/118/118
f 120/120/120 118/118/118 119/119/119
f 119/119/119 115/115/115 121/121/121
f 122/122/122 120/120/120 119/119/119
f 123/123/123 119/119/119 121/121/121
f 119/119/119 123/123/123 122/122/122
f 126/126/126 125/125/125 124/124/124
f 127/127/127 126/126/126 124/124/124
f 130/130/130 129/129/129 128/128/128
f 129/129/129 131/131/131 128/128/128
f 131/131/131 132/132/132 128/128/128
f 132/132/132 133/133/133 128/128/128
f 134/134/134 133/133/133 132/132/132
f 135/135/135 134/134/134 132/132/132
f 138/138/138 137/137/137 136/136/136
f 137/137/137 139/139/139 136/136/136
f 140/140/140 136/136/136 139/139/139
f 141/141/141 140/140/140 139/139/139
f 140/140/140 141/141/141 142/142/142
f 141/141/141 143/143/143 142/142/142
f 143/143/143 144/144/144 142/142/142
f 144/144/144 145/145/145 142/142/142
f 145/145/145 144/144/144 146/146/146
f 144/144/144 147/147/147 146/146/146
f 148/148/148 146/146/146 147/147/147
f 149/149/149 148/148/148 147/147/147
f 148/148/148 149/149/149 150/150/150
f 149/149/149 151/151/151 150/150/150
f 152/152/152 150/150/150 151/151/151
f 153/153/153 152/152/152 151/151/151
f 156/156/156 155/155/155 154/154/154
f 155/155/155 157/157/157 154/154/154
f 154/154/154 157/157/157 158/158/158
f 157/157/157 159/159/159 158/158/158
f 158/158/158 159/159/159 160/160/160
f 159/159/159 161/161/161 160/160/160
f 160/160/160 161/161/161 162/162/162
f 161/161/161 163/163/163 162/162/162
f 162/162/162 163/163/163 164/164/164
f 163/163/163 165/165/165 164/164/164
f 164/164/164 165/165/165 166/166/166
f 165/165/165 167/167/167 166/166/166
f 166/166/166 167/167/167 168/168/168
f 167/167/167 169/169/169 168/168/168
f 168/168/168 169/169/169 170/170/170
f 169/169/169 171/171/171 170/170/170
f 174/174/174 173/173/173 172/172/172
f 173/173/173 175/175/175 172/172/172
f 172/172/172 175/175/175 176/176/176
f 175/175/175 177/177/177 176/176/176
f 176/176/176 177/177/177 178/178/178
f 177/177/177 179/179/179 178/178/178
f 178/178/178 179/179/179 180/180/180
f 179/179/179 181/181/181 180/180/180
f 180/180/180 181/181/181 182/182/182
f 181/181/181 183/183/183 182/182/182
f 182/182/182 183/183/183 184/184/184
f 183/183/183 185/185/185 184/184/184
f 184/184/184 185/185/185 186/186/186
f 185/185/185 187/187/187 186/186/186
f 186/186/186 187/187/187 188/188/188
f 187/187/187 189/189/189 188/188/188
f 192/192/192 191/191/191 190/190/190
f 191/191/191 193/193/193 190/190/190
f 194/194/194 190/190/190 193/193/193
f 195/195/195 194/194/194 193/193/193
f 194/194/194 195/195/195 196/196/196
f 195/195/195 197/197/197 196/196/196
f 197/197/197 198/198/198 196/196/196
f 198/198/198 199/199/199 196/196/196
f 199/199/199 198/198/198 200/200/200
f 198/198/198 201/201/201 200/200/200
f 202/202/202 200/200/200 201/201/201
f 203/203/203 202/202/202 201/201/201
f 202/202/202 203/203/203 204/204/204
f 203/203/203 205/205/205 204/204/204
f 206/206/206 204/204/204 205/205/205
f 207/207/207 206/206/206 205/205/205
f 210/210/210 209/209/209 208/208/208
f 209/209/209 211/211/211 208/208/208
f 208/208/208 211/211/211 212/212/212
f 211/211/211 213/213/213 212/212/212
f 212/212/212 213/213/213 214/214/214
f 213/213/213 215/215/215 214/214/214
f 214/214/214 215/215/215 216/216/216
f 215/215/215 217/217/217 216/216/216
f 216/216/216 217/217/217 218/218/218
f 217/217/217 219/219/219 218/218/218
f 218/218/218 219/219/219 220/220/220
f 219/219/219 221/221/221 220/220/220
f 220/220/220 221/221/221 222/222/222
f 221/221/221 223/223/223 222/222/222
f 222/222/222 223/223/223 224/224/224
f 223/223/223 225/225/225 224/224/224
f 228/228/228 227/227/227 226/226/226
f 227/227/227 229/229/229 226/226/226
f 226/226/226 229/229/229 230/230/230
f 229/229/229 231/231/231 230/230/230
f 230/230/230 231/231/231 232/232/232
f 231/231/231 233/233/233 232/232/232
f 232/232/232 233/233/233 234/234/234
f 233/233/233 235/235/235 234/234/234
f 234/234/234 235/235/235 236/236/236
f 235/235/235 237/237/237 236/236/236
f 236/236/236 237/237/237 238/238/238
f 237/237/237 239/239/239 238/238/238
f 238/238/238 239/239/239 240/240/240
f 239/239/239 241/241/241 240/240/240
f 240/240/240 241/241/241 242/242/242
f 241/241/241 243/243/243 242/242/242
f 246/246/246 245/245/245 244/244/244
f 245/245/245 247/247/247 244/244/244
f 248/248/248 244/244/244 247/247/247
f 249/249/249 248/248/248 247/247/247
f 248/248/248 249/249/249 250/250/250
f 249/249/249 251/251/251 250/250/250
f 251/251/251 252/252/252 250/250/250
f 252/252/252 253/253/253 250/250/250
f 253/253/253 252/252/252 254/254/254
f 252/252/252 255/255/255 254/254/254
f 256/256/256 254/254/254 255/255/255
f 257/257/257 256/256/256 255/255/255
f 256/256/256 257/257/257 258/258/258
f 257/257/257 259/259/259 258/258/258
f 260/260/260 258/258/258 259/259/259
f 261/261/261 260/260/260 259/259/259
f 264/264/264 263/263/263 262/262/262
f 263/263/263 265/265/265 262/262/262
f 262/262/262 265/265/265 266/266/266
f 265/265/265 267/267/267 266/266/266
f 266/266/266 267/267/267 268/268/268
f 267/267/267 269/269/269 268/268/268
f 268/268/268 269/269/269 270/270/270
f 269/269/269 271/271/271 270/270/270
f 270/270/270 271/271/271 272/272/272
f 271/271/271 273/273/273 272/272/272
f 272/272/272 273/273/273 274/274/274
f 273/273/273 275/275/275 274/274/274
f 274/274/274 275/275/275 276/276/276
f 275/275/275 277/277/277 276/276/276
f 276/276/276 277/277/277 278/278/278
f 277/277/277 279/279/279 278/278/278
f 282/282/282 281/281/281 280/280/280
f 281/281/281 283/283/283 280/280/280
f 280/280/280 283/283/283 284/284/284
f 283/283/283 285/285/285 284/284/284
f 284/284/284 285/285/285 286/286/286
f 285/285/285 287/287/287 286/286/286
f 286/286/286 287/287/287 288/288/288
f 287/287/287 289/289/289 288/288/288
f 288/288/288 289/289/289 290/290/290
f 289/289/289 291/291/291 290/290/290
f 290/290/290 291/291/291 292/292/292
f 291/291/291 293/293/293 292/292/292
f 292/292/292 293/293/293 294/294/294
f 293/293/293 295/295/295 294/294/294
f 294/294/294 295/295/295 296/296/296
f 295/295/295 297/297/297 296/296/296
f 300/300/300 299/299/299 298/298/298
f 301/301/301 300/300/300 298/298/298
f 304/304/304 303/303/303 302/302/302
f 305/305/305 304/304/304 302/302/302
f 308/308/308 307/307/307 306/306/306
f 309/309/309 308/308/308 306/306/306
f 312/312/312 311/311/311 310/310/310
f 313/313/313 312/312/312 310/310/310
f 316/316/316 315/315/315 314/314/314
f 317/317/317 316/316/316 314/314/314
f 320/320/320 319/319/319 318/318/318
f 319/319/319 321/321/321 318/318/318
f 321/321/321 322/322/322 318/318/318
f 322/322/322 323/323/323 318/318/318
f 324/324/324 323/323/323 322/322/322
f 325/325/325 324/324/324 322/322/322
f 328/328/328 327/327/327 326/326/326
f 329/329/329 328/328/328 326/326/326
f 332/332/332 331/331/331 330/330/330
f 333/333/333 332/332/332 330/330/330
f 336/336/336 335/335/335 334/334/334
f 337/337/337 336/336/336 334/334/334
f 340/340/340 339/339/339 338/338/338
f 341/341/341 340/340/340 338/338/338
f 344/344/344 343/343/343 342/342/342
f 345/345/345 344/344/344 342/342/342
f 348/348/348 347/347/347 346/346/346
f 347/347/347 349/349/349 346/346/346
f 349/349/349 350/350/350 346/346/346
f 350/350/350 351/351/351 346/346/346
f 352/352/352 351/351/351 350/350/350
f 353/353/353 352/352/352 350/350/350
f 356/356/356 355/355/355 354/354/354
f 357/357/357 356/356/356 354/354/354
f 360/360/360 359/359/359 358/358/358
f 361/361/361 360/360/360 358/358/358
f 364/364/364 363/363/363 362/362/362
f 365/365/365 364/364/364 362/362/362
f 368/368/368 367/367/367 366/366/366
f 369/369/369 368/368/368 366/366/366
f 372/372/372 371/371/371 370/370/370
f 373/373/373 372/372/372 370/370/370
f 374/374/374 372/372/372 373/373/373
f 375/375/375 374/374/374 373/373/373
f 378/378/378 377/377/377 376/376/376
f 379/379/379 378/378/378 376/376/376
f 382/382/382 381/381/381 380/380/380
f 383/383/383 382/382/382 380/380/380
f 386/386/386 385/385/385 384/384/384
f 385/385/385 387/387/387 384/384/384
f 384/384/384 387/387/387 388/388/388
f 387/387/387 389/389/389 388/388/388
f 388/388/388 389/389/389 390/390/390
f 389/389/389 391/391/391 390/390/390
f 394/394/394 393/393/393 392/392/392
f 395/395/395 394/394/394 392/392/392
f 398/398/398 397/397/397 396/396/396
f 399/399/399 398/398/398 396/396/396
f 400/400/400 398/398/398 399/399/399
f 401/401/401 400/400/400 399/399/399
f 402/402/402 400/400/400 401/401/401
f 403/403/403 402/402/402 401/401/401
f 406/406/406 405/405/405 404/404/404
f 407/407/407 406/406/406 404/404/404
f 410/410/410 409/409/409 408/408/408
f 409/409/409 411/411/411 408/408/408
f 408/408/408 411/411/411 412/412/412
f 411/411/411 413/413/413 412/412/412
f 412/412/412 413/413/413 414/414/414
f 413/413/413 415/415/415 414/414/414
f 418/418/418 417/417/417 416/416/416
f 419/419/419 418/418/418 416/416/416
f 422/422/422 421/421/421 420/420/420
f 423/423/423 422/422/422 420/420/420
f 424/424/424 422/422/422 423/423/423
f 425/425/425 424/424/424 423/423/423
f 428/428/428 427/427/427 426/426/426
f 429/429/429 428/428/428 426/426/426
f 432/432/432 431/431/431 430/430/430
f 433/433/433 432/432/432 430/430/430
f 436/436/436 435/435/435 434/434/434
f 435/435/435 437/437/437 434/434/434
f 434/434/434 437/437/437 438/438/438
f 437/437/437 439/439/439 438/438/438
f 438/438/438 439/439/439 440/440/440
f 439/439/439 441/441/441 440/440/440
f 444/444/444 443/443/443 442/442/442
f 445/445/445 444/444/444 442/442/442
f 448/448/448 447/447/447 446/446/446
f 449/449/449 448/448/448 446/446/446
f 450/450/450 448/448/448 449/449/449
f 451/451/451 450/450/450 449/449/449
f 452/452/452 450/450/450 451/451/451
f 453/453/453 452/452/452 451/451/451
f 456/456/456 455/455/455 454/454/454
f 457/457/457 456/456/456 454/454/454
f 460/460/460 459/459/459 458/458/458
f 459/459/459 461/461/461 458/458/458
f 458/458/458 461/461/461 462/462/462
f 461/461/461 463/463/463 462/462/462
f 462/462/462 463/463/463 464/464/464
f 463/463/463 465/465/465 464/464/464
f 468/468/468 467/467/467 466/466/466
f 469/469/469 468/468/468 466/466/466
f 472/472/472 471/471/471 470/470/470
f 471/471/471 473/473/473 470/470/470
f 472/472/472 474/474/474 471/471/471
f 475/475/475 473/473/473 471/471/471
f 476/476/476 471/471/471 474/474/474
f 471/471/471 476/476/476 475/475/475
f 479/479/479 478/478/478 477/477/477
f 478/478/478 480/480/480 477/477/477
f 478/478/478 479/479/479 481/481/481
f 478/478/478 482/482/482 480/480/480
f 481/481/481 483/483/483 478/478/478
f 478/478/478 483/483/483 482/482/482
f 486/486/486 485/485/485 484/484/484
f 486/486/486 484/484/484 487/487/487
f 488/488/488 485/485/485 486/486/486
f 486/486/486 487/487/487 489/489/489
f 486/486/486 490/490/490 488/488/488
f 490/490/490 486/486/486 489/489/489
f 493/493/493 492/492/492 491/491/491
f 494/494/494 493/493/493 491/491/491
f 495/495/495 492/492/492 493/493/493
f 493/493/493 494/494/494 496/496/496
f 493/493/493 497/497/497 495/495/495
f 497/497/497 493/493/493 496/496/496
f 500/500/500 499/499/499 498/498/498
f 499/499/499 501/501/501 498/498/498
f 499/499/499 500/500/500 502/502/502
f 501/501/501 499/499/499 503/503/503
f 502/502/502 504/504/504 499/499/499
f 499/499/499 504/504/504 503/503/503
f 507/507/507 506/506/506 505/505/505
f 506/506/506 508/508/508 505/505/505
f 509/509/509 506/506/506 507/507/507
f 505/505/505 508/508/508 510/510/510
f 511/511/511 509/509/509 507/507/507
f 508/508/508 512/512/512 510/510/510
f 513/513/513 509/509/509 511/511/511
f 510/510/510 512/512/512 514/514/514
f 515/515/515 513/513/513 511/511/511
f 512/512/512 516/516/516 514/514/514
f 517/517/517 513/513/513 515/515/515
f 514/514/514 516/516/516 518/518/518
f 519/519/519 517/517/517 515/515/515
f 516/516/516 520/520/520 518/518/518
f 520/520/520 517/517/517 519/519/519
f 518/518/518 520/520/520 519/519/519
f 523/523/523 522/522/522 521/521/521
f 522/522/522 524/524/524 521/521/521
f 525/525/525 522/522/522 523/523/523
f 521/521/521 524/524/524 526/526/526
f 527/527/527 525/525/525 523/523/523
f 524/524/524 528/528/528 526/526/526
f 529/529/529 525/525/525 527/527/527
f 526/526/526 528/528/528 530/530/530
f 531/531/531 529/529/529 527/527/527
f 528/528/528 532/532/532 530/530/530
f 533/533/533 529/529/529 531/531/531
f 530/530/530 532/532/532 534/534/534
f 535/535/535 533/533/533 531/531/531
f 532/532/532 536/536/536 534/534/534
f 536/536/536 533/533/533 535/535/535
f 534/534/534 536/536/536 535/535/535
f 539/539/539 538/538/538 537/537/537
f 538/538/538 540/540/540 537/537/537
f 541/541/541 538/538/538 539/539/539
f 537/537/537 540/540/540 542/542/542
f 543/543/543 541/541/541 539/539/539
f 540/540/540 544/544/544 542/542/542
f 545/545/545 541/541/541 543/543/543
f 542/542/542 544/544/544 546/546/546
f 547/547/547 545/545/545 543/543/543
f 544/544/544 548/548/548 546/546/546
f 549/549/549 545/545/545 547/547/547
f 546/546/546 548/548/548 550/550/550
f 551/551/551 549/549/549 547/547/547
f 548/548/548 552/552/552 550/550/550
f 552/552/552 549/549/549 551/551/551
f 550/550/550 552/552/552 551/551/551
f 555/555/555 554/554/554 553/553/553
f 554/554/554 556/556/556 553/553/553
f 557/557/557 554/554/554 555/555/555
f 553/553/553 556/556/556 558/558/558
f 559/559/559 557/557/557 555/555/555
f 556/556/556 560/560/560 558/558/558
f 561/561/561 557/557/557 559/559/559
f 558/558/558 560/560/560 562/562/562
f 563/563/563 561/561/561 559/559/559
f 560/560/560 564/564/564 562/562/562
f 565/565/565 561/561/561 563/563/563
f 562/562/562 564/564/564 566/566/566
f 567/567/567 565/565/565 563/563/563
f 564/564/564 568/568/568 566/566/566
f 568/568/568 565/565/565 567/567/567
f 566/566/566 568/568/568 567/567/567
f 571/571/571 570/570/570 569/569/569
f 570/570/570 572/572/572 569/569/569
f 573/573/573 570/570/570 571/571/571
f 569/569/569 572/572/572 574/574/574
f 575/575/575 573/573/573 571/571/571
f 572/572/572 576/576/576 574/574/574
f 577/577/577 573/573/573 575/575/575
f 574/574/574 576/576/576 578/578/578
f 579/579/579 577/577/577 575/575/575
f 576/576/576 580/580/580 578/578/578
f 581/581/581 577/577/577 579/579/579
f 578/578/578 580/580/580 582/582/582
f 583/583/583 581/581/581 579/579/579
f 580/580/580 584/584/584 582/582/582
f 584/584/584 581/581/581 583/583/583
f 582/582/582 584/584/584 583/583/583
f 587/587/587 586/586/586 585/585/585
f 586/586/586 588/588/588 585/585/585
f 589/589/589 586/586/586 587/587/587
f 585/585/585 588/588/588 590/590/590
f 591/591/591 589/589/589 587/587/587
f 588/588/588 592/592/592 590/590/590
f 593/593/593 589/589/589 591/591/591
f 590/590/590 592/592/592 594/594/594
f 595/595/595 593/593/593 591/591/591
f 592/592/592 596/596/596 594/594/594
f 597/597/597 593/593/593 595/595/595
f 594/594/594 596/596/596 598/598/598
f 599/599/599 597/597/597 595/595/595
f 596/596/596 600/600/600 598/598/598
f 600/600/600 597/597/597 599/599/599
f 598/598/598 600/600/600 599/599/599
f 603/603/603 602/602/602 601/601/601
f 604/604/604 603/603/603 601/601/601
f 601/601/601 602/602/602 605/605/605
f 606/606/606 603/603/603 604/604/604
f 602/602/602 607/607/607 605/605/605
f 608/608/608 606/606/606 604/604/604
f 605/605/605 607/607/607 609/609/609
f 610/610/610 606/606/606 608/608/608
f 607/607/607 611/611/611 609/609/609
f 612/612/612 610/610/610 608/608/608
f 609/609/609 611/611/611 613/613/613
f 614/614/614 610/610/610 612/612/612
f 611/611/611 615/615/615 613/613/613
f 616/616/616 614/614/614 612/612/612
f 613/613/613 615/615/615 616/616/616
f 615/615/615 614/614/614 616/616/616
f 619/619/619 618/618/618 617/617/617
f 620/620/620 619/619/619 617/617/617
f 617/617/617 618/618/618 621/621/621
f 622/622/622 619/619/619 620/620/620
f 618/618/618 623/623/623 621/621/621
f 624/624/624 622/622/622 620/620/620
f 621/621/621 623/623/623 625/625/625
f 626/626/626 622/622/622 624/624/624
f 623/623/623 627/627/627 625/625/625
f 628/628/628 626/626/626 624/624/624
f 625/625/625 627/627/627 629/629/629
f 630/630/630 626/626/626 628/628/628
f 627/627/627 631/631/631 629/629/629
f 632/632/632 630/630/630 628/628/628
f 629/629/629 631/631/631 632/632/632
f 631/631/631 630/630/630 632/632/632
