g P_Bend_B_Vert
v 0.0872045606 -0.329515368 0.0872023404
v 0.0476943776 -0.36902529 0.0872022435
v 0.0872045606 -0.369025379 0.0476922393
v 0.0476943776 -0.194620267 0.0872022286
v 0.0872045606 -0.234130487 0.0872023255
v 0.0872045606 -0.194620281 0.0476922393
v -0.0872006789 -0.234130204 0.0872022286
v -0.0476904958 -0.194620267 0.0872022286
v -0.0872006789 -0.194619998 0.0476921462
v -0.0476904958 -0.36902529 0.0872022435
v -0.0872006789 -0.3295151 0.0872022435
v -0.0872006789 -0.369025111 0.0476921462
v -0.0872006789 -0.32951498 -0.0872030035
v -0.0476904958 -0.36902526 -0.0872030631
v -0.0872006789 -0.369025111 -0.0476928242
v -0.0476904958 -0.194620192 -0.0872030035
v -0.0872006789 -0.234130129 -0.0872030035
v -0.0872006789 -0.194619998 -0.0476927273
v 0.0872045606 -0.234130412 -0.0872029066
v 0.0476943776 -0.194620192 -0.0872030035
v 0.0872045606 -0.194620281 -0.0476926304
v 0.0476943776 -0.36902526 -0.0872030631
v 0.0872045606 -0.329515308 -0.0872029066
v 0.0872045606 -0.369025379 -0.0476927273
v -0.0761746094 -0.394322783 -0.138425454
v -0.0505535007 -0.332378 -0.147417158
v -0.112498164 -0.357999235 -0.138425454
v -0.112498164 -0.205646247 -0.138425454
v -0.0505535007 -0.231267527 -0.147417113
v -0.0761746094 -0.169322759 -0.138425454
v 0.0761782974 -0.169322759 -0.138425454
v 0.0505569912 -0.231267482 -0.147417113
v 0.112501658 -0.205646306 -0.13842541
v 0.112501845 -0.357999235 -0.138425454
v 0.0505569912 -0.332378 -0.147417158
v 0.0761782974 -0.394322783 -0.138425454
v -0.0761746094 -0.143397793 -0.112500496
v -0.0505535007 -0.13440609 -0.0505557284
v -0.112498164 -0.143397793 -0.0761769339
v -0.112498164 -0.143397793 0.0761760697
v -0.0505535007 -0.134406134 0.0505547598
v -0.0761746094 -0.143397793 0.11249952
v 0.0761782974 -0.143397793 0.11249952
v 0.0505569912 -0.134406134 0.0505547598
v 0.112501658 -0.143397838 0.0761759654
v 0.112501845 -0.143397793 -0.0761769339
v 0.0505569912 -0.13440609 -0.0505557284
v 0.0761782974 -0.143397793 -0.112500496
v 0.138427019 -0.205646247 -0.112500496
v 0.147418708 -0.231267348 -0.0505557284
v 0.138427019 -0.169322684 -0.0761769339
v 0.138427019 -0.169322684 0.0761760697
v 0.147418514 -0.231267348 0.0505547598
v 0.138427019 -0.205646247 0.112499528
v 0.138427019 -0.357999116 0.11249952
v 0.147418514 -0.332377821 0.050554771
v 0.138426811 -0.394322515 0.0761759728
v 0.138427019 -0.394322693 -0.0761769339
v 0.147418708 -0.332377821 -0.0505557321
v 0.138427019 -0.357999116 -0.112500496
v -0.13842313 -0.205646247 -0.112500496
v -0.16918464 -0.357999235 -0.112500496
v -0.13842313 -0.357999235 -0.112500496
v -0.16918464 -0.205646247 -0.112500496
v -0.13842313 -0.169322759 -0.0761770308
v -0.16918464 -0.169322759 -0.0761770308
v -0.13842313 -0.169322759 0.0761760697
v -0.16918464 -0.169322759 0.0761760697
v -0.16918464 -0.205646247 0.112499528
v -0.13842313 -0.205646247 0.112499528
v -0.13842313 -0.357999235 0.11249952
v -0.16918464 -0.357999235 0.11249952
v -0.13842313 -0.394322783 0.0761760697
v -0.16918464 -0.394322783 0.0761760697
v -0.13842313 -0.394322783 -0.0761770308
v -0.16918464 -0.394322783 -0.0761770308
v -0.13842313 -0.357999235 -0.112500496
v -0.16918464 -0.357999235 -0.112500496
v -0.0761746094 -0.169322759 0.138424486
v -0.112498164 -0.205646247 0.138424501
v -0.100390181 -0.181430578 0.100391634
v -0.13842313 -0.205646247 0.112499528
v -0.13842313 -0.169322759 0.0761760697
v -0.112498164 -0.143397808 0.0761760697
v -0.0761746094 -0.143397808 0.112499528
v -0.0761746094 -0.169322759 0.138424486
v 0.0761782974 -0.420247763 -0.112500496
v 0.0761782974 -0.420247823 -0.112500496
v 0.112501845 -0.420247763 -0.0761770308
v 0.100394256 -0.382214963 -0.100392662
v 0.0761782974 -0.394322783 -0.138425454
v 0.138426811 -0.394322783 -0.0761770308
v 0.112501845 -0.357999235 -0.138425454
v 0.138426811 -0.357999235 -0.112500496
v 0.112501658 -0.205646306 -0.13842541
v 0.138426811 -0.205646247 -0.112500496
v -0.112498164 -0.420247763 0.0761760697
v -0.112498164 -0.420247763 -0.0761770308
v -0.13842313 -0.394322783 -0.0761770308
v -0.13842313 -0.394322783 0.0761760697
v -0.0761746094 -0.420247763 -0.112500496
v 0.0761782974 -0.420247763 -0.112500496
v 0.0761782974 -0.394322783 -0.138425454
v -0.0761746094 -0.394322783 -0.138425454
v 0.112501845 -0.420247763 -0.0761770308
v 0.112501845 -0.420247763 0.0761760697
v 0.138426811 -0.394322783 0.0761760697
v 0.138426811 -0.394322783 -0.0761770308
v 0.0761782974 -0.420247763 0.11249952
v -0.0761746094 -0.420247763 0.11249952
v -0.0761746094 -0.394322783 0.138424486
v 0.0761782974 -0.394322783 0.138424486
v -0.0761746094 -0.143397808 0.112499528
v 0.0761782974 -0.143397808 0.112499528
v 0.0761782974 -0.169322759 0.138424486
v -0.0761746094 -0.169322759 0.138424486
v 0.112501845 -0.143397808 0.0761760697
v 0.112501845 -0.143397808 -0.0761770308
v 0.138426811 -0.169322759 -0.0761770308
v 0.138426811 -0.169322759 0.0761760697
v 0.0761782974 -0.143397808 -0.112500496
v -0.0761746094 -0.143397808 -0.112500496
v -0.0761746094 -0.169322759 -0.138425454
v 0.0761782974 -0.169322759 -0.138425454
v -0.112498164 -0.143397808 -0.0761770308
v -0.112498164 -0.143397808 0.0761760697
v -0.13842313 -0.169322759 0.0761760697
v -0.13842313 -0.169322759 -0.0761770308
v 0.138426811 -0.205646247 0.112499528
v 0.138426811 -0.357999235 0.11249952
v 0.112501845 -0.357999235 0.138424486
v 0.112501845 -0.205646247 0.138424501
v 0.100394256 -0.181430578 0.100391731
v 0.0761782974 -0.169322759 0.138424486
v 0.138426811 -0.169322759 0.0761760697
v 0.0761782974 -0.143397808 0.112499528
v 0.112501845 -0.143397808 0.0761760697
v -0.13842313 -0.357999235 0.11249952
v -0.13842313 -0.205646247 0.112499528
v -0.112498164 -0.205646247 0.138424501
v -0.112498164 -0.357999235 0.138424486
v -0.13842313 -0.205646247 -0.112500496
v -0.13842313 -0.357999235 -0.112500496
v -0.112498164 -0.357999235 -0.138425454
v -0.112498164 -0.205646247 -0.138425454
v -0.100390181 -0.181430578 -0.100392662
v -0.0761746094 -0.169322759 -0.138425454
v -0.13842313 -0.169322759 -0.0761770308
v -0.0761746094 -0.143397808 -0.112500496
v -0.112498164 -0.143397808 -0.0761770308
v -0.188879162 -0.211903051 -0.140662625
v -0.218175232 -0.351156294 -0.139484018
v -0.188879162 -0.351742417 -0.140662625
v -0.218175232 -0.212488458 -0.139484018
v -0.188879162 -0.141160637 -0.0699202493
v -0.218175232 -0.142338693 -0.0693342313
v -0.188879162 -0.141160637 0.0699192807
v -0.218175232 -0.142338693 0.0693336576
v -0.188879162 -0.211903051 0.140661657
v -0.218175232 -0.212488458 0.139483437
v -0.188879162 -0.351742417 0.140661657
v -0.218175232 -0.351156294 0.139483452
v -0.188879162 -0.422484934 0.0699192807
v -0.218175232 -0.421305984 0.0693336502
v -0.188879162 -0.422484934 -0.0699202418
v -0.218175232 -0.421305984 -0.0693342388
v -0.188879162 -0.351742417 -0.140662625
v -0.218175232 -0.351156294 -0.139484018
v -0.228529274 -0.390880167 -0.0596226193
v -0.0872006789 -0.369025111 0.0476921462
v -0.228529274 -0.390880167 0.0596219413
v -0.0872006789 -0.369025111 -0.0476928242
v -0.228529274 -0.341444552 -0.109058216
v -0.0872006789 -0.32951498 -0.0872030035
v -0.228529274 -0.222200125 -0.109058216
v -0.0872006789 -0.234130129 -0.0872030035
v -0.228529274 -0.17276451 -0.0596225262
v -0.0872006789 -0.194619998 -0.0476927273
v -0.228529274 -0.17276451 0.0596219413
v -0.0872006789 -0.194619998 0.0476921462
v -0.228529274 -0.22220014 0.109057575
v -0.0872006789 -0.234130204 0.0872022286
v -0.228529274 -0.341444492 0.109057575
v -0.0872006789 -0.3295151 0.0872022435
v -0.228529274 -0.390880167 0.0596219413
v -0.0872006789 -0.369025111 0.0476921462
v -0.0505535007 -0.332378 -0.147417158
v 0.0505569912 -0.332378 -0.147417158
v 0.0505569912 -0.231267482 -0.147417113
v -0.0505535007 -0.231267527 -0.147417113
v 0.0872045606 -0.234130487 -0.0872029066
v -0.0476904958 -0.194620267 -0.0872026235
v 0.0476943776 -0.194620267 -0.0872026235
v -0.0872006789 -0.234130085 -0.0872030035
v -0.0872006789 -0.32951498 -0.0872030035
v 0.0872045606 -0.329515308 -0.0872026235
v 0.0476943776 -0.36902529 -0.0872033983
v -0.0476904958 -0.36902529 -0.0872033983
v -0.0761744231 -0.420247942 -0.112500496
v 0.0761784837 -0.451009423 -0.112500496
v 0.0761784837 -0.420247942 -0.112500496
v -0.0761744231 -0.451009423 -0.112500496
v -0.112497978 -0.420247942 -0.0761770308
v -0.112497978 -0.451009423 -0.0761770308
v -0.112497978 -0.420247942 0.0761760697
v -0.112497978 -0.451009423 0.0761760697
v -0.0761744231 -0.451009423 0.11249952
v -0.0761744231 -0.420247942 0.11249952
v 0.0761784837 -0.420247942 0.11249952
v 0.0761784837 -0.451009423 0.11249952
v 0.112502038 -0.420247942 0.0761760697
v 0.112502038 -0.451009423 0.0761760697
v 0.112502038 -0.420247942 -0.0761770308
v 0.112502038 -0.451009423 -0.0761770308
v 0.0761784837 -0.420247942 -0.112500496
v 0.0761784837 -0.451009423 -0.112500496
v -0.0699176267 -0.470703959 -0.140662625
v 0.0693356916 -0.5 -0.139484018
v 0.0699217021 -0.470703959 -0.140662625
v -0.0693322048 -0.5 -0.139484018
v -0.140660018 -0.470703959 -0.0699202418
v -0.139481992 -0.5 -0.0693342388
v -0.140660018 -0.470703959 0.0699192807
v -0.139481992 -0.5 0.0693336502
v -0.0699176267 -0.470703959 0.140661672
v -0.0693322048 -0.5 0.139483437
v 0.0699217021 -0.470703959 0.140661672
v 0.0693356916 -0.5 0.139483437
v 0.140664279 -0.470703959 0.0699192807
v 0.139485285 -0.5 0.0693336502
v 0.140664279 -0.470703959 -0.0699202418
v 0.139485285 -0.5 -0.0693342388
v 0.0699217021 -0.470703959 -0.140662625
v 0.0693356916 -0.5 -0.139484018
v 0.109059423 -0.510354042 -0.0596226193
v 0.0872043595 -0.369025499 0.0476921462
v 0.109059423 -0.510354042 0.0596219413
v 0.0872043595 -0.369025499 -0.0476928242
v 0.0596238784 -0.510354042 -0.109058216
v 0.0476943776 -0.369025499 -0.0872030035
v -0.0596205853 -0.510354042 -0.109058216
v -0.0476904958 -0.369025499 -0.0872030035
v -0.10905613 -0.510354042 -0.0596225262
v -0.0872006789 -0.369025499 -0.0476927273
v -0.10905613 -0.510354042 0.0596219413
v -0.0872006789 -0.369025499 0.0476921462
v -0.0596205853 -0.510354042 0.109057575
v -0.0476904958 -0.369025499 0.0872022435
v 0.0596238784 -0.510354042 0.109057575
v 0.0476943776 -0.369025499 0.0872022435
v 0.109059423 -0.510354042 0.0596219413
v 0.0872043595 -0.369025499 0.0476921462
v -0.112500496 -0.205646247 0.138423815
v -0.112500496 -0.357999235 0.169185311
v -0.112500496 -0.357999235 0.138423815
v -0.112500496 -0.205646247 0.169185296
v -0.0761769339 -0.169322759 0.138423815
v -0.0761769339 -0.169322759 0.169185311
v 0.0761761665 -0.169322759 0.138423815
v 0.0761761665 -0.169322759 0.169185311
v 0.112499721 -0.205646247 0.169185296
v 0.112499721 -0.205646247 0.138423815
v 0.112499721 -0.357999235 0.138423815
v 0.112499721 -0.357999235 0.169185311
v 0.0761761665 -0.394322783 0.138423815
v 0.0761761665 -0.394322783 0.169185311
v -0.0761769339 -0.394322783 0.138423815
v -0.0761769339 -0.394322783 0.169185311
v -0.112500496 -0.357999235 0.138423815
v -0.112500496 -0.357999235 0.169185311
v -0.140662536 -0.211903051 0.188879848
v -0.139483929 -0.351156294 0.218175948
v -0.140662536 -0.351742417 0.188879833
v -0.139483929 -0.212488458 0.218175918
v -0.069920145 -0.141160637 0.188879848
v -0.0693341419 -0.142338693 0.218175918
v 0.0699193776 -0.141160637 0.188879848
v 0.0693337545 -0.142338693 0.218175918
v 0.140661761 -0.211903051 0.188879848
v 0.139483541 -0.212488458 0.218175918
v 0.140661761 -0.351742417 0.188879833
v 0.139483541 -0.351156294 0.218175948
v 0.0699193776 -0.422484934 0.188879833
v 0.0693337545 -0.421305984 0.218175948
v -0.069920145 -0.422484934 0.188879833
v -0.0693341419 -0.421305984 0.218175948
v -0.140662536 -0.351742417 0.188879833
v -0.139483929 -0.351156294 0.218175948
v -0.0596225262 -0.390880167 0.228529945
v 0.0476922393 -0.369025111 0.0872013643
v 0.0596219413 -0.390880167 0.228529945
v -0.0476928242 -0.369025111 0.0872013643
v -0.109058075 -0.341444492 0.228529945
v -0.0872028172 -0.32951498 0.0872013643
v -0.109058075 -0.222200125 0.22852993
v -0.0872028172 -0.234130129 0.0872013643
v -0.0596223287 -0.17276451 0.228529945
v -0.0476926304 -0.194619998 0.0872013643
v 0.0596219413 -0.17276451 0.228529945
v 0.0476922393 -0.194619998 0.0872013643
v 0.10905768 -0.22220014 0.228529945
v 0.0872024298 -0.234130204 0.0872013569
v 0.10905768 -0.341444492 0.228529945
v 0.0872024298 -0.3295151 0.0872013643
v 0.0596219413 -0.390880167 0.228529945
v 0.0476922393 -0.369025111 0.0872013643
v 0.0761782974 -0.394322783 -0.138425454
v 0.0505569912 -0.332378 -0.147417158
v -0.0505535007 -0.332378 -0.147417158
v -0.0761746094 -0.394322783 -0.138425454
v -0.112498164 -0.357999235 -0.138425454
v -0.0505535007 -0.332378 -0.147417158
v -0.0505535007 -0.231267527 -0.147417113
v -0.112498164 -0.205646247 -0.138425454
v -0.0761746094 -0.169322759 -0.138425454
v -0.0505535007 -0.231267527 -0.147417113
v 0.0505569912 -0.231267482 -0.147417113
v 0.0761782974 -0.169322759 -0.138425454
v 0.112501658 -0.205646306 -0.13842541
v 0.0505569912 -0.231267482 -0.147417113
v 0.0505569912 -0.332378 -0.147417158
v 0.112501845 -0.357999235 -0.138425454
v -0.0505535007 -0.13440609 -0.0505557284
v 0.0505569912 -0.13440609 -0.0505557284
v 0.0505569912 -0.134406134 0.0505547598
v -0.0505535007 -0.134406134 0.0505547598
v 0.0872045606 -0.194620326 0.047691755
v -0.0476904958 -0.194620609 0.0872020423
v 0.0476943776 -0.194620609 0.0872020423
v -0.0872006789 -0.194620222 0.0476921462
v -0.0872006789 -0.194620222 -0.0476927273
v 0.0872045606 -0.194620609 -0.0476930179
v 0.0476943776 -0.19461982 -0.0872030035
v -0.0476904958 -0.19461982 -0.0872030035
v 0.0761782974 -0.143397793 -0.112500496
v 0.0505569912 -0.13440609 -0.0505557284
v -0.0505535007 -0.13440609 -0.0505557284
v -0.0761746094 -0.143397793 -0.112500496
v -0.112498164 -0.143397793 -0.0761769339
v -0.0505535007 -0.13440609 -0.0505557284
v -0.0505535007 -0.134406134 0.0505547598
v -0.112498164 -0.143397793 0.0761760697
v -0.0761746094 -0.143397793 0.11249952
v -0.0505535007 -0.134406134 0.0505547598
v 0.0505569912 -0.134406134 0.0505547598
v 0.0761782974 -0.143397793 0.11249952
v 0.112501658 -0.143397838 0.0761759654
v 0.0505569912 -0.134406134 0.0505547598
v 0.0505569912 -0.13440609 -0.0505557284
v 0.112501845 -0.143397793 -0.0761769339
v 0.147418708 -0.231267348 -0.0505557284
v 0.147418708 -0.332377821 -0.0505557321
v 0.147418514 -0.332377821 0.050554771
v 0.147418514 -0.231267348 0.0505547598
v 0.0872043595 -0.369025379 0.0476917624
v 0.0872041658 -0.234130353 0.0872020423
v 0.0872041658 -0.329515219 0.0872020349
v 0.0872045606 -0.194620162 0.0476921462
v 0.0872045606 -0.194620162 -0.0476927273
v 0.0872041658 -0.369025379 -0.0476930216
v 0.0872049481 -0.329515189 -0.0872030035
v 0.0872049481 -0.234130353 -0.0872030035
v 0.138427019 -0.357999116 -0.112500496
v 0.147418708 -0.332377821 -0.0505557321
v 0.147418708 -0.231267348 -0.0505557284
v 0.138427019 -0.205646247 -0.112500496
v 0.138427019 -0.169322684 -0.0761769339
v 0.147418708 -0.231267348 -0.0505557284
v 0.147418514 -0.231267348 0.0505547598
v 0.138427019 -0.169322684 0.0761760697
v 0.138427019 -0.205646247 0.112499528
v 0.147418514 -0.231267348 0.0505547598
v 0.147418514 -0.332377821 0.050554771
v 0.138427019 -0.357999116 0.11249952
v 0.138426811 -0.394322515 0.0761759728
v 0.147418514 -0.332377821 0.050554771
v 0.147418708 -0.332377821 -0.0505557321
v 0.138427019 -0.394322693 -0.0761769339
v 0.0576623715 -0.407156885 0.499998987
v 0.0576625615 -0.407181412 0.218748733
v -0.0576621741 -0.407181621 0.218747973
v -0.0576623715 -0.407157063 0.499998242
v -0.12590608 -0.338936985 0.218747988
v -0.125906661 -0.338912398 0.499998242
v 0.125906661 -0.338912487 0.499998987
v 0.12590684 -0.338937104 0.218748748
v 0.0576625615 -0.407181412 0.218748733
v 0.0576623715 -0.407156885 0.499998987
v 0.12590684 -0.223587319 0.499998242
v 0.125907034 -0.223611936 0.218747973
v 0.12590684 -0.338937104 0.218748748
v 0.125906661 -0.338912487 0.499998987
v 0.057662759 -0.155342892 0.499997467
v 0.125907034 -0.223611936 0.218747973
v 0.12590684 -0.223587319 0.499998242
v 0.0576629527 -0.155367509 0.218747213
v -0.0576625615 -0.155342892 0.499998242
v -0.0576623715 -0.155367509 0.218747973
v -0.125906661 -0.223587796 0.499998242
v -0.12590608 -0.223612398 0.218747973
v -0.125906661 -0.338912398 0.499998242
v -0.12590608 -0.338936985 0.218747988
v -0.12590608 -0.223612398 0.218747973
v -0.125906661 -0.223587796 0.499998242
v -0.0942436606 -0.324411333 0.499998242
v -0.0943099409 -0.324464411 0.218747973
v -0.0431923233 -0.37558037 0.218747973
v -0.0431618951 -0.375493765 0.499998242
v 0.0431923233 -0.375580043 0.218747973
v 0.0431617051 -0.375493497 0.499998242
v 0.0943105221 -0.3244645 0.218747973
v 0.0942440554 -0.324411452 0.499998242
v -0.0942432731 -0.238088533 0.499998987
v -0.0943095535 -0.238084629 0.218748748
v -0.0943099409 -0.324464411 0.218747973
v -0.0942436606 -0.324411333 0.499998242
v -0.0431615151 -0.187006354 0.499998987
v -0.0943095535 -0.238084629 0.218748748
v -0.0942432731 -0.238088533 0.499998987
v -0.0431919359 -0.186968878 0.218748748
v 0.043161124 -0.187006563 0.499998242
v 0.0431917422 -0.186969072 0.218747973
v 0.0942440554 -0.238088608 0.499997467
v 0.0943105221 -0.238084748 0.218747213
v 0.0942440554 -0.324411452 0.499998242
v 0.0943105221 -0.3244645 0.218747973
v 0.0943105221 -0.238084748 0.218747213
v 0.0942440554 -0.238088608 0.499997467
v -0.499999315 -0.338912576 -0.125908494
v -0.218750209 -0.407181531 -0.0576628558
v -0.218749419 -0.338937223 -0.125908494
v -0.50000006 -0.407156974 -0.0576628558
v -0.218750209 -0.407181531 0.0576611124
v -0.499999315 -0.407156974 0.0576609224
v -0.218750983 -0.338936716 0.125905395
v -0.50000006 -0.338912129 0.125905395
v -0.49999854 -0.223587409 -0.1259083
v -0.499999315 -0.338912576 -0.125908494
v -0.218749419 -0.338937223 -0.125908494
v -0.218748659 -0.22361201 -0.1259083
v -0.49999854 -0.155343026 -0.0576638244
v -0.49999854 -0.223587409 -0.1259083
v -0.218748659 -0.22361201 -0.1259083
v -0.218748659 -0.155367702 -0.0576638244
v -0.49999854 -0.155343026 0.0576611124
v -0.218749419 -0.155367702 0.0576613024
v -0.499999315 -0.223587602 0.125905782
v -0.218750209 -0.223612234 0.125905782
v -0.50000006 -0.338912129 0.125905395
v -0.499999315 -0.223587602 0.125905782
v -0.218750209 -0.223612234 0.125905782
v -0.218750983 -0.338936716 0.125905395
v -0.499999315 -0.324525476 0.0944914222
v -0.218749419 -0.375705183 0.0432437696
v -0.218749419 -0.324521542 0.0944251418
v -0.499999315 -0.375742584 0.0432741903
v -0.218749419 -0.375705242 -0.0432462953
v -0.499999315 -0.375742704 -0.0432767197
v -0.218749419 -0.321775615 -0.0944278613
v -0.499999315 -0.321779519 -0.0944941342
v -0.499999315 -0.237974182 0.0944912285
v -0.499999315 -0.324525476 0.0944914222
v -0.218749419 -0.324521542 0.0944251418
v -0.218749419 -0.238027319 0.0944249481
v -0.499999315 -0.192754328 0.0432740003
v -0.499999315 -0.237974182 0.0944912285
v -0.218749419 -0.238027319 0.0944249481
v -0.218749419 -0.192841023 0.0432435796
v -0.499999315 -0.192754328 -0.0432769097
v -0.218749419 -0.192841023 -0.043246489
v -0.499999315 -0.240721196 -0.0944941342
v -0.218749419 -0.240774333 -0.0944278613
v -0.499999315 -0.321779519 -0.0944941342
v -0.499999315 -0.240721196 -0.0944941342
v -0.218749419 -0.240774333 -0.0944278613
v -0.218749419 -0.321775615 -0.0944278613
v -0.13842313 -0.394322783 0.0761760697
v -0.13842313 -0.357999235 0.11249952
v -0.100390181 -0.382214993 0.100391634
v -0.112498164 -0.420247763 0.0761760697
v -0.112498164 -0.357999235 0.138424486
v -0.0761746094 -0.420247763 0.11249952
v -0.0761746094 -0.394322783 0.138424486
v -0.13842313 -0.357999235 -0.112500496
v -0.13842313 -0.394322783 -0.0761770308
v -0.100390181 -0.382214963 -0.100392662
v -0.112498164 -0.357999235 -0.138425454
v -0.112498164 -0.420247763 -0.0761770308
v -0.0761746094 -0.394322783 -0.138425454
v -0.0761746094 -0.420247763 -0.112500496
v 0.0761782974 -0.169322759 -0.138425454
v 0.100394256 -0.181430578 -0.100392662
v 0.0761782974 -0.143397808 -0.112500496
v 0.112501658 -0.205646306 -0.13842541
v 0.112501845 -0.143397808 -0.0761770308
v 0.138426811 -0.205646247 -0.112500496
v 0.138426811 -0.169322759 -0.0761770308
v 0.112501845 -0.420247763 0.0761760697
v 0.0761782974 -0.420247763 0.11249952
v 0.100394256 -0.382214993 0.100391731
v 0.138426811 -0.394322783 0.0761760697
v 0.0761782974 -0.394322783 0.138424486
v 0.138426811 -0.357999235 0.11249952
v 0.112501845 -0.357999235 0.138424486
v -0.50000006 -0.338912129 0.125905395
v -0.499999315 -0.237974182 0.0944912285
v -0.499999315 -0.223587602 0.125905782
v -0.499999315 -0.324525476 0.0944914222
v -0.499999315 -0.192754328 0.0432740003
v -0.499999315 -0.407156974 0.0576609224
v -0.49999854 -0.155343026 0.0576611124
v -0.499999315 -0.375742584 0.0432741903
v -0.499999315 -0.192754328 -0.0432769097
v -0.50000006 -0.407156974 -0.0576628558
v -0.49999854 -0.155343026 -0.0576638244
v -0.499999315 -0.375742704 -0.0432767197
v -0.499999315 -0.240721196 -0.0944941342
v -0.499999315 -0.338912576 -0.125908494
v -0.49999854 -0.223587409 -0.1259083
v -0.499999315 -0.321779519 -0.0944941342
v -0.139483929 -0.212488458 0.218175918
v -0.109058075 -0.341444492 0.228529945
v -0.139483929 -0.351156294 0.218175948
v -0.109058075 -0.222200125 0.22852993
v -0.0596225262 -0.390880167 0.228529945
v -0.0693341419 -0.142338693 0.218175918
v -0.0693341419 -0.421305984 0.218175948
v -0.0596223287 -0.17276451 0.228529945
v 0.0596219413 -0.390880167 0.228529945
v 0.0693337545 -0.142338693 0.218175918
v 0.0693337545 -0.421305984 0.218175948
v 0.0596219413 -0.17276451 0.228529945
v 0.10905768 -0.341444492 0.228529945
v 0.139483541 -0.212488458 0.218175918
v 0.139483541 -0.351156294 0.218175948
v 0.10905768 -0.22220014 0.228529945
v -0.112500496 -0.205646247 0.169185296
v -0.140662536 -0.351742417 0.188879833
v -0.112500496 -0.357999235 0.169185311
v -0.140662536 -0.211903051 0.188879848
v -0.069920145 -0.422484934 0.188879833
v -0.0761769339 -0.169322759 0.169185311
v -0.0761769339 -0.394322783 0.169185311
v -0.069920145 -0.141160637 0.188879848
v 0.0699193776 -0.422484934 0.188879833
v 0.0761761665 -0.169322759 0.169185311
v 0.0761761665 -0.394322783 0.169185311
v 0.0699193776 -0.141160637 0.188879848
v 0.140661761 -0.351742417 0.188879833
v 0.112499721 -0.205646247 0.169185296
v 0.112499721 -0.357999235 0.169185311
v 0.140661761 -0.211903051 0.188879848
v -0.0693322048 -0.5 -0.139484018
v 0.0596238784 -0.510354042 -0.109058216
v 0.0693356916 -0.5 -0.139484018
v -0.0596205853 -0.510354042 -0.109058216
v 0.109059423 -0.510354042 -0.0596226193
v -0.139481992 -0.5 -0.0693342388
v 0.139485285 -0.5 -0.0693342388
v -0.10905613 -0.510354042 -0.0596225262
v 0.109059423 -0.510354042 0.0596219413
v -0.139481992 -0.5 0.0693336502
v 0.139485285 -0.5 0.0693336502
v -0.10905613 -0.510354042 0.0596219413
v 0.0596238784 -0.510354042 0.109057575
v -0.0693322048 -0.5 0.139483437
v 0.0693356916 -0.5 0.139483437
v -0.0596205853 -0.510354042 0.109057575
v -0.0761744231 -0.451009423 -0.112500496
v 0.0699217021 -0.470703959 -0.140662625
v 0.0761784837 -0.451009423 -0.112500496
v -0.0699176267 -0.470703959 -0.140662625
v 0.140664279 -0.470703959 -0.0699202418
v -0.112497978 -0.451009423 -0.0761770308
v 0.112502038 -0.451009423 -0.0761770308
v -0.140660018 -0.470703959 -0.0699202418
v 0.140664279 -0.470703959 0.0699192807
v -0.112497978 -0.451009423 0.0761760697
v 0.112502038 -0.451009423 0.0761760697
v -0.140660018 -0.470703959 0.0699192807
v 0.0699217021 -0.470703959 0.140661672
v -0.0761744231 -0.451009423 0.11249952
v 0.0761784837 -0.451009423 0.11249952
v -0.0699176267 -0.470703959 0.140661672
v -0.218175232 -0.212488458 -0.139484018
v -0.228529274 -0.341444552 -0.109058216
v -0.218175232 -0.351156294 -0.139484018
v -0.228529274 -0.222200125 -0.109058216
v -0.228529274 -0.390880167 -0.0596226193
v -0.218175232 -0.142338693 -0.0693342313
v -0.218175232 -0.421305984 -0.0693342388
v -0.228529274 -0.17276451 -0.0596225262
v -0.228529274 -0.390880167 0.0596219413
v -0.218175232 -0.142338693 0.0693336576
v -0.218175232 -0.421305984 0.0693336502
v -0.228529274 -0.17276451 0.0596219413
v -0.228529274 -0.341444492 0.109057575
v -0.218175232 -0.212488458 0.139483437
v -0.218175232 -0.351156294 0.139483452
v -0.228529274 -0.22220014 0.109057575
v -0.16918464 -0.205646247 -0.112500496
v -0.188879162 -0.351742417 -0.140662625
v -0.16918464 -0.357999235 -0.112500496
v -0.188879162 -0.211903051 -0.140662625
v -0.188879162 -0.422484934 -0.0699202418
v -0.16918464 -0.169322759 -0.0761770308
v -0.16918464 -0.394322783 -0.0761770308
v -0.188879162 -0.141160637 -0.0699202493
v -0.188879162 -0.422484934 0.0699192807
v -0.16918464 -0.169322759 0.0761760697
v -0.16918464 -0.394322783 0.0761760697
v -0.188879162 -0.141160637 0.0699192807
v -0.188879162 -0.351742417 0.140661657
v -0.16918464 -0.205646247 0.112499528
v -0.16918464 -0.357999235 0.11249952
v -0.188879162 -0.211903051 0.140661657
v -0.125906661 -0.223587796 0.499998242
v -0.0942432731 -0.238088533 0.499998987
v -0.0942436606 -0.324411333 0.499998242
v -0.125906661 -0.338912398 0.499998242
v -0.0576625615 -0.155342892 0.499998242
v -0.0431618951 -0.375493765 0.499998242
v -0.0431615151 -0.187006354 0.499998987
v -0.0576623715 -0.407157063 0.499998242
v 0.057662759 -0.155342892 0.499997467
v 0.0431617051 -0.375493497 0.499998242
v 0.043161124 -0.187006563 0.499998242
v 0.0576623715 -0.407156885 0.499998987
v 0.12590684 -0.223587319 0.499998242
v 0.0942440554 -0.324411452 0.499998242
v 0.0942440554 -0.238088608 0.499997467
v 0.125906661 -0.338912487 0.499998987
vt 0.303610355 0.557493865
vt 0.289743423 0.557493806
vt 0.303610355 0.543626904
vt 0.28974247 0.557508826
vt 0.303609401 0.543641865
vt 0.303609401 0.557508826
vt 0.303610295 0.543641925
vt 0.289743364 0.557508826
vt 0.303610295 0.557508886
vt 0.303609401 0.557493746
vt 0.303609401 0.543626785
vt 0.28974247 0.557493746
vt 0.303610355 0.543626785
vt 0.303610355 0.557493746
vt 0.289743364 0.557493746
vt 0.289743364 0.557508826
vt 0.303610295 0.557508826
vt 0.303610295 0.543641865
vt 0.303609401 0.543641865
vt 0.303609401 0.557508886
vt 0.289742351 0.557508826
vt 0.289743423 0.557508886
vt 0.303610355 0.557508826
vt 0.303610355 0.543641865
vt 0.194534019 0.521521568
vt 0.201188356 0.537650406
vt 0.185059592 0.530996025
vt 0.185059592 0.570734799
vt 0.201188356 0.564080477
vt 0.194534019 0.580209196
vt 0.234272793 0.580209196
vt 0.227618396 0.564080477
vt 0.243747205 0.570734799
vt 0.243747279 0.530996025
vt 0.22761853 0.537650406
vt 0.234272793 0.521521568
vt 0.194534019 0.521521568
vt 0.201188356 0.537650406
vt 0.185059592 0.530996025
vt 0.185059592 0.570734799
vt 0.201188356 0.564080477
vt 0.194534019 0.580209196
vt 0.234272793 0.580209196
vt 0.227618396 0.564080477
vt 0.243747205 0.570734799
vt 0.243747279 0.530996025
vt 0.22761853 0.537650406
vt 0.234272793 0.521521568
vt 0.194534019 0.521521568
vt 0.201188356 0.537650406
vt 0.185059592 0.530996025
vt 0.185059592 0.570734799
vt 0.201188356 0.564080477
vt 0.194534019 0.580209196
vt 0.234272793 0.580209196
vt 0.227618396 0.564080477
vt 0.243747205 0.570734799
vt 0.243747279 0.530996025
vt 0.22761853 0.537650406
vt 0.234272793 0.521521568
vt 0.368281573 0.491155148
vt 0.411386162 0.500348091
vt 0.411386162 0.491155148
vt 0.368281573 0.500348091
vt 0.354508102 0.491155148
vt 0.354508102 0.500348091
vt 0.311403632 0.491155148
vt 0.311403632 0.500348091
vt 0.297630072 0.500348091
vt 0.297630072 0.491155148
vt 0.254525572 0.491155148
vt 0.254525572 0.500348091
vt 0.24075219 0.491155148
vt 0.24075219 0.500348091
vt 0.197647512 0.491155148
vt 0.197647512 0.500348091
vt 0.183874145 0.491155148
vt 0.183874145 0.500348091
vt 0.3338027 0.585194051
vt 0.341226995 0.574391842
vt 0.346525788 0.584565163
vt 0.351824701 0.574391842
vt 0.359248966 0.585194051
vt 0.353950113 0.594095886
vt 0.339101613 0.594095886
vt 0.3338027 0.585194051
vt 0.339097708 0.594111264
vt 0.339097708 0.594111264
vt 0.353946149 0.594111264
vt 0.346522063 0.584580362
vt 0.333798856 0.58520925
vt 0.359245121 0.58520925
vt 0.34122327 0.57440722
vt 0.351820976 0.574407101
vt 0.341238767 0.512238204
vt 0.351816684 0.512235701
vt 0.35181424 0.574387252
vt 0.351812482 0.512232006
vt 0.341238648 0.512237966
vt 0.341238707 0.574387252
vt 0.35181424 0.574387252
vt 0.351812482 0.512232006
vt 0.341238648 0.512237966
vt 0.341238707 0.574387252
vt 0.35181424 0.574387252
vt 0.351812482 0.512232006
vt 0.341238648 0.512237966
vt 0.341238707 0.574387252
vt 0.35181424 0.574387252
vt 0.351812482 0.512232006
vt 0.341238648 0.512237966
vt 0.341238707 0.574387252
vt 0.341238648 0.512237966
vt 0.341238707 0.574387252
vt 0.35181424 0.574387252
vt 0.351812482 0.512232006
vt 0.341238588 0.512238503
vt 0.341238707 0.574387252
vt 0.35181424 0.574387252
vt 0.351811528 0.512241721
vt 0.341238767 0.512238622
vt 0.341238707 0.574387252
vt 0.35181424 0.574387252
vt 0.351816326 0.512244642
vt 0.341238767 0.512238204
vt 0.341238707 0.574387252
vt 0.35181424 0.574387252
vt 0.351816684 0.512235701
vt 0.351815194 0.574401379
vt 0.351811528 0.512241721
vt 0.341238588 0.512238503
vt 0.341217428 0.574401379
vt 0.346516341 0.58457464
vt 0.333793223 0.585203469
vt 0.359239519 0.585203469
vt 0.339092016 0.594105422
vt 0.353940427 0.594105422
vt 0.341238588 0.512238503
vt 0.341238707 0.574387252
vt 0.35181424 0.574387252
vt 0.351811528 0.512241721
vt 0.351830453 0.574397564
vt 0.351811528 0.512241721
vt 0.341238588 0.512238503
vt 0.341232687 0.574397624
vt 0.346531421 0.584570944
vt 0.333808362 0.585199714
vt 0.359254688 0.585199714
vt 0.339107394 0.594101608
vt 0.353955775 0.594101608
vt 0.373407066 0.501248002
vt 0.406814426 0.510002971
vt 0.406814545 0.501248002
vt 0.373406947 0.510002971
vt 0.349936515 0.501248002
vt 0.349936336 0.510002971
vt 0.316529006 0.501248002
vt 0.316529006 0.510002971
vt 0.293058574 0.501248002
vt 0.293058574 0.510002971
vt 0.259651124 0.501248002
vt 0.259651244 0.510002971
vt 0.236180514 0.501248002
vt 0.236180589 0.510002971
vt 0.202773035 0.501248002
vt 0.202773035 0.510002971
vt 0.179302529 0.501248002
vt 0.179302394 0.510002971
vt 0.152341053 0.497526556
vt 0.182130128 0.492455095
vt 0.161560729 0.479605764
vt 0.174755573 0.506789386
vt 0.14836669 0.508656621
vt 0.171579778 0.515681386
vt 0.144152626 0.528369009
vt 0.168209895 0.531442225
vt 0.143230125 0.540147841
vt 0.167473018 0.54085964
vt 0.144305274 0.560265779
vt 0.168332502 0.556965053
vt 0.146478698 0.571876228
vt 0.170070559 0.566251397
vt 0.152762696 0.591022849
vt 0.17509748 0.581569314
vt 0.157894179 0.601665556
vt 0.179198623 0.59007591
vt 0.201188356 0.537650406
vt 0.22761853 0.537650406
vt 0.227618396 0.564080477
vt 0.201188356 0.564080477
vt 0.322065234 0.565958321
vt 0.282595873 0.57751894
vt 0.310504973 0.57751894
vt 0.271035403 0.5659585
vt 0.271035403 0.538049519
vt 0.322065234 0.538049459
vt 0.310504973 0.526489079
vt 0.282595873 0.526489139
vt 0.368281573 0.491155148
vt 0.411386162 0.500348091
vt 0.411386162 0.491155148
vt 0.368281573 0.500348091
vt 0.354508102 0.491155148
vt 0.354508102 0.500348091
vt 0.311403632 0.491155148
vt 0.311403632 0.500348091
vt 0.297630072 0.500348091
vt 0.297630072 0.491155148
vt 0.254525572 0.491155148
vt 0.254525572 0.500348091
vt 0.24075219 0.491155148
vt 0.24075219 0.500348091
vt 0.197647512 0.491155148
vt 0.197647512 0.500348091
vt 0.183874145 0.491155148
vt 0.183874145 0.500348091
vt 0.373407066 0.501248002
vt 0.406814426 0.510002971
vt 0.406814545 0.501248002
vt 0.373406947 0.510002971
vt 0.349936515 0.501248002
vt 0.349936336 0.510002971
vt 0.316529006 0.501248002
vt 0.316529006 0.510002971
vt 0.293058574 0.501248002
vt 0.293058574 0.510002971
vt 0.259651124 0.501248002
vt 0.259651244 0.510002971
vt 0.236180514 0.501248002
vt 0.236180589 0.510002971
vt 0.202773035 0.501248002
vt 0.202773035 0.510002971
vt 0.179302529 0.501248002
vt 0.179302394 0.510002971
vt 0.152341053 0.497526556
vt 0.182130128 0.492455095
vt 0.161560729 0.479605764
vt 0.174755573 0.506789386
vt 0.14836669 0.508656621
vt 0.171579778 0.515681386
vt 0.144152626 0.528369009
vt 0.168209895 0.531442225
vt 0.143230125 0.540147841
vt 0.167473018 0.54085964
vt 0.144305274 0.560265779
vt 0.168332502 0.556965053
vt 0.146478698 0.571876228
vt 0.170070559 0.566251397
vt 0.152762696 0.591022849
vt 0.17509748 0.581569314
vt 0.157894179 0.601665556
vt 0.179198623 0.59007591
vt 0.368281573 0.491155148
vt 0.411386162 0.500348091
vt 0.411386162 0.491155148
vt 0.368281573 0.500348091
vt 0.354508102 0.491155148
vt 0.354508102 0.500348091
vt 0.311403632 0.491155148
vt 0.311403632 0.500348091
vt 0.297630072 0.500348091
vt 0.297630072 0.491155148
vt 0.254525572 0.491155148
vt 0.254525572 0.500348091
vt 0.24075219 0.491155148
vt 0.24075219 0.500348091
vt 0.197647512 0.491155148
vt 0.197647512 0.500348091
vt 0.183874145 0.491155148
vt 0.183874145 0.500348091
vt 0.373407066 0.501248002
vt 0.406814426 0.510002971
vt 0.406814545 0.501248002
vt 0.373406947 0.510002971
vt 0.349936515 0.501248002
vt 0.349936336 0.510002971
vt 0.316529006 0.501248002
vt 0.316529006 0.510002971
vt 0.293058574 0.501248002
vt 0.293058574 0.510002971
vt 0.259651124 0.501248002
vt 0.259651244 0.510002971
vt 0.236180514 0.501248002
vt 0.236180589 0.510002971
vt 0.202773035 0.501248002
vt 0.202773035 0.510002971
vt 0.179302529 0.501248002
vt 0.179302394 0.510002971
vt 0.152341053 0.497526556
vt 0.182130128 0.492455095
vt 0.161560729 0.479605764
vt 0.174755573 0.506789386
vt 0.14836669 0.508656621
vt 0.171579778 0.515681386
vt 0.144152626 0.528369009
vt 0.168209895 0.531442225
vt 0.143230125 0.540147841
vt 0.167473018 0.54085964
vt 0.144305274 0.560265779
vt 0.168332502 0.556965053
vt 0.146478698 0.571876228
vt 0.170070559 0.566251397
vt 0.152762696 0.591022849
vt 0.17509748 0.581569314
vt 0.157894179 0.601665556
vt 0.179198623 0.59007591
vt 0.234272793 0.521521568
vt 0.22761853 0.537650406
vt 0.201188356 0.537650406
vt 0.194534019 0.521521568
vt 0.185059592 0.530996025
vt 0.201188356 0.537650406
vt 0.201188356 0.564080477
vt 0.185059592 0.570734799
vt 0.194534019 0.580209196
vt 0.201188356 0.564080477
vt 0.227618396 0.564080477
vt 0.234272793 0.580209196
vt 0.243747205 0.570734799
vt 0.227618396 0.564080477
vt 0.22761853 0.537650406
vt 0.243747279 0.530996025
vt 0.201188356 0.537650406
vt 0.22761853 0.537650406
vt 0.227618396 0.564080477
vt 0.201188356 0.564080477
vt 0.322065234 0.565958321
vt 0.282595873 0.57751894
vt 0.310504973 0.57751894
vt 0.271035403 0.5659585
vt 0.271035403 0.538049519
vt 0.322065234 0.538049459
vt 0.310504973 0.526489079
vt 0.282595873 0.526489139
vt 0.234272793 0.521521568
vt 0.22761853 0.537650406
vt 0.201188356 0.537650406
vt 0.194534019 0.521521568
vt 0.185059592 0.530996025
vt 0.201188356 0.537650406
vt 0.201188356 0.564080477
vt 0.185059592 0.570734799
vt 0.194534019 0.580209196
vt 0.201188356 0.564080477
vt 0.227618396 0.564080477
vt 0.234272793 0.580209196
vt 0.243747205 0.570734799
vt 0.227618396 0.564080477
vt 0.22761853 0.537650406
vt 0.243747279 0.530996025
vt 0.201188356 0.537650406
vt 0.22761853 0.537650406
vt 0.227618396 0.564080477
vt 0.201188356 0.564080477
vt 0.322065234 0.565958321
vt 0.282595873 0.57751894
vt 0.310504973 0.57751894
vt 0.271035403 0.5659585
vt 0.271035403 0.538049519
vt 0.322065234 0.538049459
vt 0.310504973 0.526489079
vt 0.282595873 0.526489139
vt 0.234272793 0.521521568
vt 0.22761853 0.537650406
vt 0.201188356 0.537650406
vt 0.194534019 0.521521568
vt 0.185059592 0.530996025
vt 0.201188356 0.537650406
vt 0.201188356 0.564080477
vt 0.185059592 0.570734799
vt 0.194534019 0.580209196
vt 0.201188356 0.564080477
vt 0.227618396 0.564080477
vt 0.234272793 0.580209196
vt 0.243747205 0.570734799
vt 0.227618396 0.564080477
vt 0.22761853 0.537650406
vt 0.243747279 0.530996025
vt 0.00336804357 0.764106929
vt 0.00336804357 0.809443891
vt 0.0207588784 0.809443891
vt 0.0207588784 0.764106691
vt 0.0363097563 0.809443891
vt 0.0363097563 0.764106691
vt 0.120393127 0.764107108
vt 0.120393127 0.809443891
vt 0.135994047 0.809443891
vt 0.135994047 0.764106929
vt 0.102861397 0.764107764
vt 0.102861397 0.809443891
vt 0.120393127 0.809443891
vt 0.120393127 0.764107108
vt 0.0871015564 0.764107943
vt 0.102861397 0.809443891
vt 0.102861397 0.764107764
vt 0.0871015564 0.809443891
vt 0.069469437 0.764108419
vt 0.069469437 0.809443891
vt 0.0536553785 0.764108598
vt 0.0536553785 0.809443891
vt 0.0363097563 0.764108777
vt 0.0363097563 0.809443891
vt 0.0536553785 0.809443891
vt 0.0536553785 0.764108598
vt 0.157264173 0.689855278
vt 0.157264173 0.735112071
vt 0.169070974 0.735112071
vt 0.169070974 0.689855695
vt 0.182457983 0.735112071
vt 0.182457983 0.689856172
vt 0.1940929 0.735112071
vt 0.1940929 0.689857364
vt 0.144577652 0.689853549
vt 0.144560009 0.735112071
vt 0.157264173 0.735112071
vt 0.157264173 0.689855278
vt 0.231968209 0.689859509
vt 0.243533179 0.735112071
vt 0.24352169 0.689858496
vt 0.231968209 0.735112071
vt 0.218569621 0.689859092
vt 0.218569621 0.735112071
vt 0.206768319 0.689858675
vt 0.206768319 0.735112071
vt 0.1940929 0.689857364
vt 0.1940929 0.735112071
vt 0.206768319 0.735112071
vt 0.206768319 0.689858675
vt 0.0871014819 0.569017589
vt 0.102861352 0.614354551
vt 0.0871014819 0.614354372
vt 0.102861352 0.569017589
vt 0.120393172 0.614354789
vt 0.120393172 0.569017589
vt 0.136139318 0.614354789
vt 0.136139318 0.569017589
vt 0.0694694519 0.569017589
vt 0.0871014819 0.569017589
vt 0.0871014819 0.614354372
vt 0.0694694519 0.614353716
vt 0.0536554232 0.569017589
vt 0.0694694519 0.569017589
vt 0.0694694519 0.614353716
vt 0.0536554232 0.614353538
vt 0.0363097563 0.569017589
vt 0.0363097563 0.614353061
vt 0.0207588784 0.569017589
vt 0.0207588784 0.614352882
vt 0.00336805894 0.569017589
vt 0.0207588784 0.569017589
vt 0.0207588784 0.614352882
vt 0.00336805894 0.614352703
vt 0.144560009 0.735112071
vt 0.157264173 0.689855278
vt 0.144577652 0.689853549
vt 0.157264173 0.735112071
vt 0.169070974 0.689855695
vt 0.169070974 0.735112071
vt 0.182457983 0.689856172
vt 0.182457983 0.735112071
vt 0.231968209 0.735112071
vt 0.243533179 0.735112071
vt 0.24352169 0.689858496
vt 0.231968209 0.689859509
vt 0.218569621 0.735112071
vt 0.231968209 0.735112071
vt 0.231968209 0.689859509
vt 0.218569621 0.689859092
vt 0.206768319 0.735112071
vt 0.206768319 0.689858675
vt 0.1940929 0.735112071
vt 0.1940929 0.689857364
vt 0.182457983 0.735112071
vt 0.1940929 0.735112071
vt 0.1940929 0.689857364
vt 0.182457983 0.689856172
vt 0.359248966 0.585194051
vt 0.351824701 0.574391842
vt 0.346525788 0.584565163
vt 0.353950113 0.594095886
vt 0.341226995 0.574391842
vt 0.339101613 0.594095886
vt 0.3338027 0.585194051
vt 0.351830453 0.574397564
vt 0.359254688 0.585199714
vt 0.346531421 0.584570944
vt 0.341232687 0.574397624
vt 0.353955775 0.594101608
vt 0.333808362 0.585199714
vt 0.339107394 0.594101608
vt 0.333798856 0.58520925
vt 0.346522063 0.584580362
vt 0.339097708 0.594111264
vt 0.34122327 0.57440722
vt 0.353946149 0.594111264
vt 0.351820976 0.574407101
vt 0.359245121 0.58520925
vt 0.353940427 0.594105422
vt 0.339092016 0.594105422
vt 0.346516341 0.58457464
vt 0.359239519 0.585203469
vt 0.333793223 0.585203469
vt 0.351815194 0.574401379
vt 0.341217428 0.574401379
vt 0.243351296 0.893893063
vt 0.237342566 0.913127661
vt 0.243344903 0.915795267
vt 0.237288713 0.896663189
vt 0.227520749 0.92273128
vt 0.230309129 0.880872905
vt 0.230264947 0.928717196
vt 0.227547809 0.886895478
vt 0.211056277 0.92273128
vt 0.208310634 0.880853891
vt 0.208266318 0.928717196
vt 0.211069733 0.886900127
vt 0.20123066 0.91304642
vt 0.195211872 0.893904209
vt 0.195172146 0.915767908
vt 0.201286867 0.896702588
vt 0.256652474 0.572351277
vt 0.2663908 0.534849763
vt 0.256649226 0.531641662
vt 0.266389251 0.569017589
vt 0.279755771 0.522277772
vt 0.276932597 0.590739489
vt 0.276716858 0.512825131
vt 0.279851258 0.581225514
vt 0.314077348 0.521752238
vt 0.317598909 0.589793086
vt 0.316963375 0.512740433
vt 0.314452112 0.581225216
vt 0.328341633 0.534796238
vt 0.337506294 0.571227312
vt 0.337477475 0.531570613
vt 0.328342587 0.567961812
vt 0.236411393 0.583281577
vt 0.194903642 0.591282785
vt 0.193125963 0.583281577
vt 0.234633729 0.591282785
vt 0.174804702 0.57118398
vt 0.246731326 0.572961688
vt 0.182806045 0.572961688
vt 0.254732519 0.57118398
vt 0.174804702 0.531453848
vt 0.246731326 0.529676199
vt 0.182806045 0.529676199
vt 0.254732519 0.531453848
vt 0.194903642 0.511354983
vt 0.236411393 0.51935631
vt 0.193125963 0.51935631
vt 0.234633729 0.511354983
vt 0.256652474 0.572351277
vt 0.2663908 0.534849763
vt 0.256649226 0.531641662
vt 0.266389251 0.569017589
vt 0.279755771 0.522277772
vt 0.276932597 0.590739489
vt 0.276716858 0.512825131
vt 0.279851258 0.581225514
vt 0.314077348 0.521752238
vt 0.317598909 0.589793086
vt 0.316963375 0.512740433
vt 0.314452112 0.581225216
vt 0.328341633 0.534796238
vt 0.337506294 0.571227312
vt 0.337477475 0.531570613
vt 0.328342587 0.567961812
vt 0.236411393 0.583281577
vt 0.194903642 0.591282785
vt 0.193125963 0.583281577
vt 0.234633729 0.591282785
vt 0.174804702 0.57118398
vt 0.246731326 0.572961688
vt 0.182806045 0.572961688
vt 0.254732519 0.57118398
vt 0.174804702 0.531453848
vt 0.246731326 0.529676199
vt 0.182806045 0.529676199
vt 0.254732519 0.531453848
vt 0.194903642 0.511354983
vt 0.236411393 0.51935631
vt 0.193125963 0.51935631
vt 0.234633729 0.511354983
vt 0.256652474 0.572351277
vt 0.2663908 0.534849763
vt 0.256649226 0.531641662
vt 0.266389251 0.569017589
vt 0.279755771 0.522277772
vt 0.276932597 0.590739489
vt 0.276716858 0.512825131
vt 0.279851258 0.581225514
vt 0.314077348 0.521752238
vt 0.317598909 0.589793086
vt 0.316963375 0.512740433
vt 0.314452112 0.581225216
vt 0.328341633 0.534796238
vt 0.337506294 0.571227312
vt 0.337477475 0.531570613
vt 0.328342587 0.567961812
vt 0.236411393 0.583281577
vt 0.194903642 0.591282785
vt 0.193125963 0.583281577
vt 0.234633729 0.591282785
vt 0.174804702 0.57118398
vt 0.246731326 0.572961688
vt 0.182806045 0.572961688
vt 0.254732519 0.57118398
vt 0.174804702 0.531453848
vt 0.246731326 0.529676199
vt 0.182806045 0.529676199
vt 0.254732519 0.531453848
vt 0.194903642 0.511354983
vt 0.236411393 0.51935631
vt 0.193125963 0.51935631
vt 0.234633729 0.511354983
vt 0.195172146 0.915767908
vt 0.20123066 0.91304642
vt 0.201287389 0.896703184
vt 0.195211872 0.893904209
vt 0.208266318 0.928717196
vt 0.211069733 0.886900127
vt 0.211056277 0.92273128
vt 0.208310634 0.880853891
vt 0.230264947 0.928717196
vt 0.227547809 0.886895478
vt 0.227520749 0.92273128
vt 0.230309129 0.880872905
vt 0.243344903 0.915795267
vt 0.237288713 0.896663189
vt 0.237342566 0.913127661
vt 0.243351296 0.893893063
vn -0.577346981 0.577352643 -0.577351213
vn -0.577346861 0.577352643 -0.577351213
vn -0.577346861 0.577352643 -0.577351213
vn -0.577349186 -0.577349961 -0.577351689
vn -0.577349186 -0.577349961 -0.577351689
vn -0.577349186 -0.577349961 -0.577351689
vn 0.577347279 -0.577350914 -0.577352643
vn 0.577347279 -0.577350914 -0.577352643
vn 0.577347279 -0.577350914 -0.577352643
vn 0.577350736 0.577350736 -0.577349186
vn 0.577350736 0.577350736 -0.577349305
vn 0.577350736 0.577350736 -0.577349186
vn 0.577352107 0.57735002 0.577348709
vn 0.577352107 0.57735002 0.577348709
vn 0.577352166 0.57735008 0.577348709
vn 0.577348709 -0.577352166 0.57735008
vn 0.577348709 -0.577352107 0.57735002
vn 0.577348709 -0.577352166 0.57735008
vn -0.577352405 -0.577350318 0.577348173
vn -0.577352405 -0.577350318 0.577348173
vn -0.577352405 -0.577350318 0.577348053
vn -0.577350199 0.577350974 0.577349484
vn -0.577350199 0.577350974 0.577349484
vn -0.577350199 0.577350974 0.577349484
vn -0.101619042 -0.101619042 -0.989619672
vn -0.101619057 -0.101619057 -0.989619672
vn -0.101619042 -0.101619042 -0.989619672
vn -0.101618387 0.101618581 -0.989619792
vn -0.101618387 0.101618581 -0.989619792
vn -0.101618394 0.101618603 -0.989619792
vn 0.101619668 0.101617791 -0.989619792
vn 0.101619661 0.101617791 -0.989619792
vn 0.101619668 0.101617791 -0.989619792
vn 0.101618841 -0.101618841 -0.989619672
vn 0.101618826 -0.101618826 -0.989619672
vn 0.101618841 -0.101618841 -0.989619672
vn -0.101619042 0.989619672 -0.101619042
vn -0.101619065 0.989619672 -0.101619065
vn -0.101619057 0.989619672 -0.101619057
vn -0.101618342 0.989619792 0.101618618
vn -0.10161835 0.989619792 0.101618618
vn -0.10161835 0.989619792 0.101618618
vn 0.101619646 0.989619792 0.101617761
vn 0.101619646 0.989619792 0.101617761
vn 0.101619631 0.989619792 0.101617761
vn 0.101618841 0.989619672 -0.101618841
vn 0.101618826 0.989619672 -0.101618826
vn 0.101618841 0.989619672 -0.101618841
vn 0.989619672 0.101619042 -0.101619042
vn 0.989619672 0.101619057 -0.101619057
vn 0.989619672 0.101619057 -0.101619057
vn 0.989620149 0.10161674 0.101617001
vn 0.989620149 0.10161674 0.101617016
vn 0.989620149 0.10161674 0.101617001
vn 0.989619911 -0.101620793 0.101614974
vn 0.989619911 -0.101620793 0.101614974
vn 0.989619911 -0.101620793 0.101614974
vn 0.989619672 -0.101618841 -0.101618841
vn 0.989619672 -0.101618826 -0.101618826
vn 0.989619672 -0.101618841 -0.101618841
vn -0 0.382683307 -0.923879504
vn -0 -0.38268286 -0.923879802
vn -0 -0.38268286 -0.923879802
vn -0 0.382683307 -0.923879504
vn -0 0.923879445 -0.382683575
vn -0 0.923879445 -0.382683575
vn -0 0.923879445 0.382683605
vn -0 0.923879445 0.382683605
vn -0 0.382683247 0.923879623
vn -0 0.382683247 0.923879623
vn -0 -0.38268286 0.923879802
vn -0 -0.38268286 0.923879802
vn -0 -0.923879325 0.382684082
vn -0 -0.923879325 0.382684082
vn -0 -0.923879325 -0.382684082
vn -0 -0.923879325 -0.382684082
vn -0 -0.38268286 -0.923879802
vn -0 -0.38268286 -0.923879802
vn -0.689843893 0.689845204 0.219611019
vn -0.680113137 0.495672941 0.540143013
vn -0.577350318 0.57735002 0.577350557
vn -0.540142953 0.495672435 0.680113554
vn -0.540142477 0.680113673 0.495672673
vn -0.680112839 0.540142953 0.495673329
vn -0.495672315 0.540143013 0.680113554
vn -0.529403269 0.687731385 0.496747106
vn 0.565713644 -0.445639074 -0.693811059
vn 0.689842641 -0.219617516 -0.689844429
vn 0.680113316 -0.540144622 -0.495670974
vn 0.577348709 -0.577350259 -0.577351809
vn 0.495669335 -0.680113196 -0.540146172
vn 0.540144682 -0.680112958 -0.495671302
vn 0.680112839 -0.495669425 -0.540146589
vn 0.540144384 -0.495669752 -0.680114329
vn 0.680112123 0.495669365 -0.540147543
vn 0.540142417 0.495670557 -0.680115283
vn -0.680113077 -0.540142775 0.495673269
vn -0.680113077 -0.540143132 -0.495672822
vn -0.54014343 -0.680113196 -0.495672464
vn -0.540143132 -0.680113196 0.495672703
vn -0.495671868 -0.540143073 -0.680113792
vn 0.565713644 -0.445639074 -0.693811059
vn 0.495669335 -0.680113196 -0.540146172
vn -0.495672137 -0.680113494 -0.540143371
vn 0.680113316 -0.540144622 -0.495670974
vn 0.680113196 -0.540145278 0.495670468
vn 0.54014504 -0.680112958 0.495670974
vn 0.540144682 -0.680112958 -0.495671302
vn 0.495668858 -0.540146112 0.680113614
vn -0.495672196 -0.540142894 0.680113733
vn -0.495672256 -0.680113494 0.540143192
vn 0.495669186 -0.680113196 0.540146291
vn -0.495672315 0.540143013 0.680113554
vn 0.495669097 0.540146291 0.680113435
vn 0.495669127 0.680113733 0.540145695
vn -0.529403269 0.687731385 0.496747106
vn 0.680112958 0.540145457 0.495670587
vn 0.680112958 0.54014504 -0.495670915
vn 0.540144145 0.680113554 -0.495671302
vn 0.540144503 0.680113494 0.495670855
vn 0.495669395 0.540146053 -0.680113316
vn -0.495672196 0.540143251 -0.680113554
vn -0.495672047 0.680113971 -0.540142775
vn 0.495669961 0.68011272 -0.540146232
vn -0.680112839 0.540143192 -0.495672971
vn -0.680112839 0.540142953 0.495673329
vn -0.540142477 0.680113673 0.495672673
vn -0.540142834 0.680113673 -0.495672315
vn 0.540144563 0.495670795 0.680113435
vn 0.540145397 -0.495669812 0.680113554
vn 0.680113494 -0.495669514 0.540145755
vn 0.680113196 0.495670497 0.540145099
vn 0.577348411 0.577351332 0.577351034
vn 0.495669127 0.680113733 0.540145695
vn 0.540144503 0.680113494 0.495670855
vn 0.495669097 0.540146291 0.680113435
vn 0.680112958 0.540145457 0.495670587
vn -0.540143549 -0.495671391 0.680113733
vn -0.540142953 0.495672435 0.680113554
vn -0.680113137 0.495672941 0.540143013
vn -0.680113435 -0.495671898 0.540143728
vn -0.540143132 0.495672166 -0.680113614
vn -0.540143788 -0.495671153 -0.680113733
vn -0.680113316 -0.495671719 -0.540143847
vn -0.680113137 0.495672762 -0.540143132
vn -0.577350378 0.57735008 -0.577350259
vn -0.495672047 0.680113971 -0.540142775
vn -0.540142834 0.680113673 -0.495672315
vn -0.495672196 0.540143251 -0.680113554
vn -0.680112839 0.540143192 -0.495672971
vn -0.0447731242 0.382977337 -0.922672093
vn -0.0447786227 -0.381594539 -0.923244536
vn -0.0447832458 -0.382981956 -0.922669649
vn -0.044768557 0.381599724 -0.923242867
vn -0.0447628982 0.922670066 -0.382983327
vn -0.0447582565 0.923245728 -0.381593913
vn -0.0447578318 0.922671378 0.382980764
vn -0.0447532348 0.923244834 0.381596893
vn -0.0447609462 0.382978708 0.922672093
vn -0.0447563492 0.38159886 0.923243821
vn -0.0447710641 -0.382983357 0.922669649
vn -0.0447664112 -0.381593585 0.923245549
vn -0.0447835214 -0.922671378 0.382977813
vn -0.0447789505 -0.923242688 0.381598979
vn -0.0447885953 -0.922670066 -0.382980525
vn -0.0447839871 -0.923243701 -0.381596148
vn -0.0447832458 -0.382981956 -0.922669649
vn -0.0447786227 -0.381594539 -0.923244536
vn -0.172619194 0.908400178 0.380803943
vn -0.172455937 0.911840081 -0.372567683
vn -0.172619224 0.908400297 -0.380803794
vn -0.172455877 0.911840022 0.372567803
vn -0.172619715 0.380803674 0.908400178
vn -0.172456503 0.372568637 0.911839485
vn -0.172620997 -0.380804688 0.908399582
vn -0.172457725 -0.37256828 0.911839485
vn -0.172621995 -0.908400118 0.380803078
vn -0.172458693 -0.911839604 0.372567505
vn -0.172622278 -0.908399582 -0.380803913
vn -0.172459021 -0.911839187 -0.372568399
vn -0.172621727 -0.380803674 -0.90839982
vn -0.17245841 -0.372567177 -0.911839724
vn -0.172620311 0.380803525 -0.908400178
vn -0.172457069 0.372568965 -0.911839306
vn -0.172619224 0.908400297 -0.380803794
vn -0.172455937 0.911840081 -0.372567683
vn -0 4.79145626E-07 -1
vn -0 4.79145626E-07 -1
vn -0 4.79145626E-07 -1
vn -0 4.7914574E-07 -1
vn -3.59156473E-07 -8.58330532E-06 1
vn -3.59156502E-07 -8.58330623E-06 1
vn -3.59156502E-07 -8.58330623E-06 1
vn -3.59156502E-07 -8.58330623E-06 1
vn -1.38890744E-06 1.52372183E-06 1
vn -1.38890744E-06 1.52372161E-06 1
vn -1.43658906E-06 -1.47141955E-05 1
vn -1.43658906E-06 -1.47141955E-05 1
vn -0.38268286 0 -0.923879802
vn 0.38268286 0 -0.923879802
vn 0.38268286 0 -0.923879802
vn -0.38268286 0 -0.923879802
vn -0.923879325 0 -0.382684082
vn -0.923879325 0 -0.382684082
vn -0.923879325 0 0.382684082
vn -0.923879325 0 0.382684082
vn -0.38268286 0 0.923879802
vn -0.38268286 0 0.923879802
vn 0.38268286 0 0.923879802
vn 0.38268286 0 0.923879802
vn 0.923879325 0 0.382684082
vn 0.923879325 0 0.382684082
vn 0.923879325 0 -0.382684082
vn 0.923879325 0 -0.382684082
vn 0.38268286 0 -0.923879802
vn 0.38268286 0 -0.923879802
vn -0.382977486 -0.0447731353 -0.922671974
vn 0.381595254 -0.044778619 -0.923244298
vn 0.38298133 -0.044783242 -0.922669828
vn -0.381599605 -0.0447685607 -0.923242986
vn -0.922670066 -0.0447624549 -0.382983446
vn -0.923245847 -0.0447578058 -0.381593853
vn -0.922671378 -0.0447573885 0.382980824
vn -0.923244953 -0.0447527841 0.381596833
vn -0.382978797 -0.0447609499 0.922671974
vn -0.381598741 -0.0447563715 0.92324388
vn 0.382982582 -0.0447710678 0.922669947
vn 0.38159433 -0.0447664447 0.923245251
vn 0.922671378 -0.0447853059 0.382977486
vn 0.923242509 -0.0447807573 0.381599277
vn 0.922670066 -0.0447903723 -0.382980287
vn 0.923243523 -0.0447857715 -0.381596386
vn 0.38298133 -0.044783242 -0.922669828
vn 0.381595254 -0.044778619 -0.923244298
vn -0.908400416 -0.172619149 0.380803436
vn -0.911840081 -0.172456071 -0.372567385
vn -0.908400416 -0.172619388 -0.380803555
vn -0.9118402 -0.172455862 0.372567296
vn -0.380804121 -0.172619775 0.908400118
vn -0.372569174 -0.172456518 0.911839306
vn 0.380804777 -0.172621071 0.908399522
vn 0.37256813 -0.17245777 0.911839485
vn 0.908400118 -0.172621846 0.380803078
vn 0.911839724 -0.172458544 0.372567385
vn 0.90839982 -0.17262207 -0.380803615
vn 0.911839426 -0.172458783 -0.372568041
vn 0.380804092 -0.172621742 -0.908399701
vn 0.372567564 -0.17245841 -0.911839724
vn -0.380803823 -0.172620445 -0.908399999
vn -0.372568995 -0.172457218 -0.911839306
vn -0.908400416 -0.172619388 -0.380803555
vn -0.911840081 -0.172456071 -0.372567385
vn -0.923879325 0.382683903 0
vn -0.923879504 -0.382683426 0
vn -0.923879504 -0.382683426 0
vn -0.923879325 0.382683903 0
vn -0.382682979 0.923879743 0
vn -0.382682979 0.923879743 0
vn 0.382682979 0.923879743 0
vn 0.382682979 0.923879743 0
vn 0.923879325 0.382683903 0
vn 0.923879325 0.382683903 0
vn 0.923879504 -0.382683426 0
vn 0.923879504 -0.382683426 0
vn 0.382683426 -0.923879504 0
vn 0.382683426 -0.923879504 0
vn -0.382683426 -0.923879504 0
vn -0.382683426 -0.923879504 0
vn -0.923879504 -0.382683426 0
vn -0.923879504 -0.382683426 0
vn -0.922672093 0.382977337 0.0447731242
vn -0.923244536 -0.381594568 0.0447786227
vn -0.922669649 -0.382981986 0.0447832495
vn -0.923242867 0.381599724 0.044768557
vn -0.382983327 0.922670066 0.0447628982
vn -0.381593913 0.923245728 0.0447582565
vn 0.382980764 0.922671378 0.0447578318
vn 0.381596893 0.923244834 0.0447532348
vn 0.922672093 0.382978708 0.0447609462
vn 0.923243821 0.38159886 0.0447563492
vn 0.922669649 -0.382983357 0.0447710641
vn 0.923245549 -0.381593585 0.0447664112
vn 0.382977813 -0.922671378 0.0447835214
vn 0.381598979 -0.923242688 0.0447789505
vn -0.382980525 -0.922670066 0.0447885953
vn -0.381596148 -0.923243701 0.0447839871
vn -0.922669649 -0.382981986 0.0447832495
vn -0.923244536 -0.381594568 0.0447786227
vn 0.38080439 0.908400118 0.172619179
vn -0.372567356 0.9118402 0.172455683
vn -0.380803198 0.908400595 0.172618955
vn 0.372568667 0.911839724 0.172455877
vn 0.908400476 0.380802929 0.172619775
vn 0.911839783 0.372567952 0.172456533
vn 0.908399582 -0.380804479 0.172621086
vn 0.911839485 -0.372568071 0.172457814
vn 0.380803078 -0.908400118 0.172621936
vn 0.372567713 -0.911839485 0.172458634
vn -0.380803317 -0.908399999 0.17262201
vn -0.372568041 -0.911839426 0.172458753
vn -0.908399701 -0.380804271 0.172621146
vn -0.911839724 -0.372567743 0.172457859
vn -0.908400118 0.380804121 0.17261976
vn -0.911839187 0.372569472 0.172456518
vn -0.380803198 0.908400595 0.172618955
vn -0.372567356 0.9118402 0.172455683
vn -0 -0.143651217 -0.989628434
vn -0 -0.143651217 -0.989628434
vn -0 -0.143651217 -0.989628434
vn -0 -0.143651217 -0.989628434
vn -0.143651053 1.89057971E-07 -0.989628434
vn -0.143651053 1.89057943E-07 -0.989628434
vn -0.143651053 1.89057971E-07 -0.989628434
vn -0.143651053 1.89057971E-07 -0.989628434
vn -0 0.143650472 -0.989628553
vn -0 0.143650472 -0.989628553
vn -0 0.143650472 -0.989628553
vn -0 0.143650472 -0.989628553
vn 0.143651217 4.89611011E-07 -0.989628434
vn 0.143651217 4.89610954E-07 -0.989628434
vn 0.143651202 4.89610954E-07 -0.989628434
vn 0.143651202 4.89610954E-07 -0.989628434
vn -0 1 4.7914574E-07
vn -0 1 4.7914574E-07
vn -0 1 4.7914574E-07
vn -0 1 4.7914574E-07
vn -3.59155678E-07 -1 -8.58329167E-06
vn -3.59155678E-07 -1 -8.58329167E-06
vn -3.59155678E-07 -1 -8.58328985E-06
vn -3.59155678E-07 -1 -8.58329167E-06
vn -1.38890766E-06 -1 1.5237224E-06
vn -1.38890766E-06 -1 1.52372218E-06
vn -1.43658906E-06 -1 -1.47141955E-05
vn -1.43658906E-06 -1 -1.47141955E-05
vn -0 0.989628434 -0.143651217
vn -0 0.989628434 -0.143651217
vn -0 0.989628434 -0.143651217
vn -0 0.989628434 -0.143651217
vn -0.143651024 0.989628434 1.89057914E-07
vn -0.143651024 0.989628434 1.89057914E-07
vn -0.143651053 0.989628434 1.89057943E-07
vn -0.143651024 0.989628434 1.89057914E-07
vn -0 0.989628553 0.143650457
vn -0 0.989628553 0.143650457
vn -0 0.989628553 0.143650472
vn -0 0.989628553 0.143650442
vn 0.143651217 0.989628434 4.89610954E-07
vn 0.143651202 0.989628434 4.89611011E-07
vn 0.143651217 0.989628434 4.89611011E-07
vn 0.143651202 0.989628434 4.89611011E-07
vn 1 0 1.91658296E-06
vn 1 0 1.91658296E-06
vn 1 0 1.91658296E-06
vn 1 0 1.91658296E-06
vn -1 7.18297429E-07 -7.35710728E-06
vn -1 7.18297429E-07 -7.35710819E-06
vn -1 7.18297429E-07 -7.35710682E-06
vn -1 7.18297429E-07 -7.35710682E-06
vn -1 1.66669122E-06 1.01581497E-06
vn -1 1.66669122E-06 1.01581497E-06
vn -1 1.43658951E-06 -1.47141955E-05
vn -1 1.43658951E-06 -1.47141955E-05
vn 0.989628434 0 -0.143651217
vn 0.989628434 0 -0.143651217
vn 0.989628434 0 -0.143651217
vn 0.989628434 0 -0.143651217
vn 0.989628553 0.143649936 7.56231771E-07
vn 0.989628553 0.143649921 7.56231941E-07
vn 0.989628553 0.143649921 7.56231941E-07
vn 0.989628553 0.143649921 7.56231827E-07
vn 0.989628851 0 0.143648192
vn 0.989628851 0 0.143648207
vn 0.989628851 0 0.143648207
vn 0.989628851 0 0.143648207
vn 0.989628434 -0.143651217 1.62395747E-06
vn 0.989628434 -0.143651202 1.62395747E-06
vn 0.989628434 -0.143651202 1.62395747E-06
vn 0.989628434 -0.143651232 1.62395759E-06
vn 0.382692695 -0.923875749 8.09806006E-05
vn 0.382676214 -0.923882544 8.09811754E-05
vn -0.382677704 -0.923881948 8.01915376E-05
vn -0.382691413 -0.923876286 8.0191021E-05
vn -0.70710963 -0.707103908 6.08408845E-05
vn -0.70710963 -0.707103908 6.08408845E-05
vn 0.707107067 -0.707106411 6.23001033E-05
vn 0.707107127 -0.707106352 6.23001033E-05
vn 0.382676214 -0.923882544 8.09811754E-05
vn 0.382692695 -0.923875749 8.09806006E-05
vn 1 -1.68034535E-06 6.89165518E-07
vn 1 -1.68034512E-06 6.89165404E-07
vn 1 -1.68034535E-06 6.89165518E-07
vn 1 -1.68034512E-06 6.89165404E-07
vn 0.382676989 0.923882186 -8.0580714E-05
vn 0.707108438 0.707105041 -6.13878146E-05
vn 0.707108438 0.707105041 -6.13878146E-05
vn 0.382692128 0.923875988 -8.0580161E-05
vn -0.382680297 0.923880816 -8.13719162E-05
vn -0.38269344 0.923875332 -8.13714505E-05
vn -0.707112074 0.707101464 -6.28497073E-05
vn -0.707112074 0.707101464 -6.28497073E-05
vn -1 0 -2.06705545E-06
vn -1 0 -2.06705545E-06
vn -1 0 -2.06705545E-06
vn -1 0 -2.06705545E-06
vn 0.707103431 0.707110107 -0.000297077699
vn 0.707103431 0.707110107 -0.000297077728
vn 0.382675588 0.923882663 -0.000327367597
vn 0.382683784 0.923879325 -0.000327367539
vn -0.382674515 0.9238832 -0.000327629416
vn -0.382682234 0.923880041 -0.000327629241
vn -0.707096636 0.707116842 -0.000297563296
vn -0.707096636 0.707116783 -0.000297563296
vn 1 -4.48621631E-06 -0.000235643907
vn 1 -4.48621631E-06 -0.000235643951
vn 1 -4.48621631E-06 -0.000235643951
vn 1 -4.48621677E-06 -0.000235643922
vn 0.382669181 -0.923885405 -0.000166088415
vn 0.707101703 -0.707111776 -0.000173567736
vn 0.707101703 -0.707111776 -0.000173567707
vn 0.382688999 -0.92387718 -0.000166089565
vn -0.382661939 -0.923888445 -0.000166349811
vn -0.382689029 -0.92387718 -0.000166351398
vn -0.707093 -0.707120478 -0.00017405214
vn -0.707092941 -0.707120478 -0.00017405214
vn -1 0 -0.000236333304
vn -1 0 -0.000236333304
vn -1 0 -0.000236333304
vn -1 0 -0.000236333304
vn -6.18150734E-05 -0.707113445 -0.707100093
vn -8.07186007E-05 -0.923883975 -0.382672548
vn -6.18150661E-05 -0.707113326 -0.707100153
vn -8.07181132E-05 -0.923878312 -0.382686496
vn -8.08510376E-05 -0.923882365 0.382676631
vn -8.08504556E-05 -0.923875749 0.382692456
vn -6.20592546E-05 -0.707104385 0.707109094
vn -6.20592546E-05 -0.707104385 0.707109094
vn -0 1.68034978E-06 -1
vn -0 1.68034978E-06 -1
vn -0 1.68034978E-06 -1
vn -0 1.68034978E-06 -1
vn 8.09699195E-05 0.923882782 -0.382675469
vn 6.19346101E-05 0.707107365 -0.707106113
vn 6.19346029E-05 0.707107306 -0.707106173
vn 8.0969352E-05 0.923876286 -0.382691443
vn 8.0839578E-05 0.923882365 0.382676631
vn 8.08391123E-05 0.92387706 0.382689178
vn 6.1693805E-05 0.707106888 0.70710659
vn 6.16937905E-05 0.707106888 0.70710659
vn -0 -3.36071912E-06 1
vn -0 -3.3607198E-06 1
vn -0 -3.36071912E-06 1
vn -0 -3.3607198E-06 1
vn -0.000173572815 0.707099438 -0.7071141
vn -0.000165998485 0.923881948 -0.382677704
vn -0.000173572829 0.707099438 -0.7071141
vn -0.000165999751 0.923872709 -0.382699788
vn -0.000167869322 0.918808162 0.394704521
vn -0.000167870588 0.918798745 0.394726098
vn -0.000175325855 0.688398778 0.725332439
vn -0.000175325884 0.688398778 0.725332439
vn -0.000235644824 -2.23970255E-06 -1
vn -0.000235644839 -2.23970278E-06 -1
vn -0.000235644839 -2.23970278E-06 -1
vn -0.000235644824 -2.23970255E-06 -1
vn -0.000325296307 -0.935318708 -0.353806138
vn -0.000300174986 -0.749640048 -0.661845744
vn -0.000300174928 -0.749639928 -0.661845744
vn -0.000325296307 -0.935317457 -0.353809476
vn -0.000326515408 -0.930024505 0.367497295
vn -0.000326515379 -0.930022359 0.367502868
vn -0.000298997911 -0.729887307 0.683567405
vn -0.000298997882 -0.729887307 0.683567405
vn -0.000235644635 0 1
vn -0.000235644591 0 1
vn -0.000235644591 0 1
vn -0.000235644591 0 1
vn -0.540143132 -0.680113196 0.495672703
vn -0.540143549 -0.495671391 0.680113733
vn -0.577350676 -0.577349067 0.577350974
vn -0.680113077 -0.540142775 0.495673269
vn -0.680113435 -0.495671898 0.540143728
vn -0.495672196 -0.540142894 0.680113733
vn -0.495672256 -0.680113494 0.540143192
vn -0.540143788 -0.495671153 -0.680113733
vn -0.54014343 -0.680113196 -0.495672464
vn -0.577350855 -0.577349365 -0.577350736
vn -0.680113316 -0.495671719 -0.540143847
vn -0.680113077 -0.540143132 -0.495672822
vn -0.495672137 -0.680113494 -0.540143371
vn -0.495671868 -0.540143073 -0.680113792
vn 0.495669961 0.68011272 -0.540146232
vn 0.577348173 0.577350378 -0.577352285
vn 0.495669395 0.540146053 -0.680113316
vn 0.680112123 0.495669365 -0.540147543
vn 0.680112958 0.54014504 -0.495670915
vn 0.540142417 0.495670557 -0.680115283
vn 0.540144145 0.680113554 -0.495671302
vn 0.680113196 -0.540145278 0.495670468
vn 0.495668858 -0.540146112 0.680113614
vn 0.577348888 -0.577350438 0.57735157
vn 0.54014504 -0.680112958 0.495670974
vn 0.495669186 -0.680113196 0.540146291
vn 0.540145397 -0.495669812 0.680113554
vn 0.680113494 -0.495669514 0.540145755
vn -1 4.55027566E-06 -1.20121476E-05
vn -1 7.53538779E-06 -4.09303357E-06
vn -1 7.6616052E-06 -3.8114606E-06
vn -1 4.51587266E-06 -1.20278974E-05
vn -1 1.59993469E-05 2.09337168E-06
vn -1 8.66659138E-06 -4.17591127E-06
vn -1 1.60886411E-05 2.05377023E-06
vn -1 8.84430938E-06 -3.78785353E-06
vn -1 1.81696796E-05 -7.64496599E-06
vn -1 1.17718037E-05 4.44310308E-06
vn -1 1.8236753E-05 -7.44387489E-06
vn -1 1.17954942E-05 4.41783595E-06
vn -1 9.5288724E-06 -1.37121187E-05
vn -1 7.92366427E-06 -2.87894431E-06
vn -1 1.03246912E-05 -1.39081121E-05
vn -1 7.37002574E-06 -4.19581693E-06
vn -0.287219405 0.114112109 0.951043308
vn -0.282937825 -0.127133325 0.95067513
vn -0.287219346 -0.114112414 0.951043308
vn -0.282937676 0.127133727 0.95067513
vn -0.127133727 -0.282937735 0.95067513
vn -0.114112422 0.287219584 0.951043189
vn -0.114111915 -0.287219465 0.951043308
vn -0.12713322 0.282938212 0.95067513
vn 0.127132937 -0.282937646 0.950675309
vn 0.114112414 0.287219524 0.951043189
vn 0.114112146 -0.287219167 0.951043427
vn 0.12713322 0.282938153 0.95067513
vn 0.282937437 -0.12713322 0.950675309
vn 0.287219316 0.114112139 0.951043427
vn 0.287219018 -0.114112258 0.951043427
vn 0.282937676 0.127133653 0.950675249
vn -0.586743057 0.363901168 -0.723400652
vn -0.590326786 -0.181255266 -0.786549985
vn -0.586743116 -0.363900632 -0.72340095
vn -0.590326786 0.181255266 -0.786549985
vn -0.181255192 -0.590325654 -0.78655076
vn -0.36390081 0.586742759 -0.72340107
vn -0.363900959 -0.586742282 -0.723401368
vn -0.181255251 0.59032613 -0.786550462
vn 0.181255192 -0.590325654 -0.78655076
vn 0.36390084 0.586742759 -0.72340107
vn 0.363900959 -0.586742282 -0.723401368
vn 0.181255266 0.59032613 -0.786550462
vn 0.590326667 -0.181255221 -0.786550045
vn 0.586743057 0.363901168 -0.723400652
vn 0.586743116 -0.363900632 -0.72340095
vn 0.590326726 0.181255281 -0.786549985
vn -0.114112169 -0.951043189 -0.287219822
vn 0.127133518 -0.95067513 -0.282937974
vn 0.114112578 -0.951043189 -0.287219495
vn -0.12713401 -0.950675011 -0.282938093
vn 0.282937855 -0.95067513 -0.127133623
vn -0.287219614 -0.951043189 -0.11411228
vn 0.287219614 -0.951043308 -0.114111885
vn -0.282938123 -0.950675011 -0.127133623
vn 0.282937795 -0.950675249 0.127133206
vn -0.287219614 -0.951043308 0.114112265
vn 0.287219346 -0.951043427 0.114111975
vn -0.282938033 -0.95067513 0.127133593
vn 0.127133399 -0.950675249 0.282937527
vn -0.114112079 -0.951043308 0.287219614
vn 0.114112385 -0.951043427 0.287219077
vn -0.127133921 -0.95067513 0.282937825
vn -0.363900572 0.723401368 -0.58674258
vn 0.18125473 0.786551118 -0.590325356
vn 0.363899499 0.723402321 -0.586742043
vn -0.181255132 0.78655076 -0.590325713
vn 0.590324163 0.786552012 -0.181254953
vn -0.586742818 0.72340095 -0.363901019
vn 0.586740732 0.723402798 -0.363900691
vn -0.590326667 0.786550045 -0.181255341
vn 0.590324163 0.786552012 0.181254968
vn -0.586742818 0.72340095 0.363901019
vn 0.586740732 0.723402739 0.363900661
vn -0.590326667 0.786550045 0.181255341
vn 0.181254759 0.786551058 0.590325415
vn -0.363900572 0.723401368 0.58674258
vn 0.363899529 0.723402321 0.586742043
vn -0.181255132 0.78655076 0.590325713
vn -0.951043189 0.11411228 -0.287219822
vn -0.950675011 -0.127133429 -0.282938153
vn -0.951043189 -0.114112556 -0.287219524
vn -0.950675011 0.127133861 -0.282938153
vn -0.95067513 -0.282937795 -0.127133757
vn -0.951043189 0.287219822 -0.114112355
vn -0.951043308 -0.287219584 -0.114111975
vn -0.950675011 0.282938272 -0.127133623
vn -0.950675249 -0.282937676 0.12713334
vn -0.951043189 0.287219733 0.11411231
vn -0.951043427 -0.287219286 0.114112049
vn -0.950675011 0.282938123 0.127133578
vn -0.950675249 -0.12713328 0.282937676
vn -0.951043308 0.114112213 0.287219554
vn -0.951043427 -0.114112362 0.287219197
vn -0.95067513 0.127133682 0.282937855
vn 0.723401546 0.363900602 -0.586742282
vn 0.78655082 -0.181254923 -0.590325654
vn 0.723401785 -0.363900036 -0.586742401
vn 0.78655082 0.181254953 -0.590325654
vn 0.786550999 -0.590325415 -0.181255132
vn 0.723401487 0.586742342 -0.363900721
vn 0.723401904 -0.586741805 -0.36390084
vn 0.786550701 0.590325892 -0.181255192
vn 0.786550999 -0.590325415 0.181255117
vn 0.723401487 0.586742342 0.363900721
vn 0.723401904 -0.586741745 0.36390087
vn 0.786550701 0.590325892 0.181255192
vn 0.78655082 -0.181254923 0.590325654
vn 0.723401487 0.363900572 0.586742342
vn 0.723401845 -0.363900036 0.586742401
vn 0.78655082 0.181254953 0.590325654
vn -1.45867998E-05 6.79540153E-06 1
vn -1.44732076E-05 6.28029966E-06 1
vn -6.23487904E-06 -1.9580234E-06 1
vn -5.92920151E-06 -1.86202806E-06 1
vn -4.9334385E-06 2.05158121E-05 1
vn -1.9580159E-06 6.23477217E-06 1
vn -4.32230945E-06 2.07077846E-05 1
vn -1.86207831E-06 5.92928518E-06 1
vn 3.72406566E-06 1.18581984E-05 1
vn -1.01964488E-05 1.44732294E-05 1
vn 3.91608091E-06 1.24696153E-05 1
vn -1.05196077E-05 1.45868162E-05 1
vn -1.18585222E-05 3.72404884E-06 1
vn -2.0708314E-05 1.21544281E-05 1
vn -1.24699736E-05 3.91606909E-06 1
vn -2.05162687E-05 1.23817636E-05 1
g P_Bend_B_Vert_0
f 3/3/3 2/2/2 1/1/1
f 6/6/6 5/5/5 4/4/4
f 9/9/9 8/8/8 7/7/7
f 12/12/12 11/11/11 10/10/10
f 15/15/15 14/14/14 13/13/13
f 18/18/18 17/17/17 16/16/16
f 21/21/21 20/20/20 19/19/19
f 24/24/24 23/23/23 22/22/22
f 27/27/27 26/26/26 25/25/25
f 30/30/30 29/29/29 28/28/28
f 33/33/33 32/32/32 31/31/31
f 36/36/36 35/35/35 34/34/34
f 39/39/39 38/38/38 37/37/37
f 42/42/42 41/41/41 40/40/40
f 45/45/45 44/44/44 43/43/43
f 48/48/48 47/47/47 46/46/46
f 51/51/51 50/50/50 49/49/49
f 54/54/54 53/53/53 52/52/52
f 57/57/57 56/56/56 55/55/55
f 60/60/60 59/59/59 58/58/58
f 63/63/63 62/62/62 61/61/61
f 62/62/62 64/64/64 61/61/61
f 65/65/65 61/61/61 64/64/64
f 66/66/66 65/65/65 64/64/64
f 65/65/65 66/66/66 67/67/67
f 66/66/66 68/68/68 67/67/67
f 68/68/68 69/69/69 67/67/67
f 69/69/69 70/70/70 67/67/67
f 70/70/70 69/69/69 71/71/71
f 69/69/69 72/72/72 71/71/71
f 73/73/73 71/71/71 72/72/72
f 74/74/74 73/73/73 72/72/72
f 73/73/73 74/74/74 75/75/75
f 74/74/74 76/76/76 75/75/75
f 77/77/77 75/75/75 76/76/76
f 78/78/78 77/77/77 76/76/76
f 81/81/81 80/80/80 79/79/79
f 80/80/80 81/81/81 82/82/82
f 81/81/81 83/83/83 82/82/82
f 84/84/84 83/83/83 81/81/81
f 81/81/81 85/85/85 84/84/84
f 85/85/85 81/81/81 86/86/86
f 89/89/89 88/88/88 87/87/87
f 90/90/90 89/89/89 87/87/87
f 91/91/91 90/90/90 87/87/87
f 89/89/89 90/90/90 92/92/92
f 90/90/90 91/91/91 93/93/93
f 90/90/90 94/94/94 92/92/92
f 93/93/93 94/94/94 90/90/90
f 93/93/93 95/95/95 94/94/94
f 95/95/95 96/96/96 94/94/94
f 99/99/99 98/98/98 97/97/97
f 100/100/100 99/99/99 97/97/97
f 103/103/103 102/102/102 101/101/101
f 104/104/104 103/103/103 101/101/101
f 107/107/107 106/106/106 105/105/105
f 108/108/108 107/107/107 105/105/105
f 111/111/111 110/110/110 109/109/109
f 112/112/112 111/111/111 109/109/109
f 115/115/115 114/114/114 113/113/113
f 116/116/116 115/115/115 113/113/113
f 119/119/119 118/118/118 117/117/117
f 120/120/120 119/119/119 117/117/117
f 123/123/123 122/122/122 121/121/121
f 124/124/124 123/123/123 121/121/121
f 127/127/127 126/126/126 125/125/125
f 128/128/128 127/127/127 125/125/125
f 131/131/131 130/130/130 129/129/129
f 132/132/132 131/131/131 129/129/129
f 129/129/129 133/133/133 132/132/132
f 133/133/133 134/134/134 132/132/132
f 133/133/133 129/129/129 135/135/135
f 136/136/136 134/134/134 133/133/133
f 137/137/137 133/133/133 135/135/135
f 133/133/133 137/137/137 136/136/136
f 140/140/140 139/139/139 138/138/138
f 141/141/141 140/140/140 138/138/138
f 144/144/144 143/143/143 142/142/142
f 145/145/145 144/144/144 142/142/142
f 142/142/142 146/146/146 145/145/145
f 147/147/147 145/145/145 146/146/146
f 146/146/146 142/142/142 148/148/148
f 149/149/149 147/147/147 146/146/146
f 150/150/150 146/146/146 148/148/148
f 146/146/146 150/150/150 149/149/149
f 153/153/153 152/152/152 151/151/151
f 152/152/152 154/154/154 151/151/151
f 151/151/151 154/154/154 155/155/155
f 154/154/154 156/156/156 155/155/155
f 155/155/155 156/156/156 157/157/157
f 156/156/156 158/158/158 157/157/157
f 157/157/157 158/158/158 159/159/159
f 158/158/158 160/160/160 159/159/159
f 159/159/159 160/160/160 161/161/161
f 160/160/160 162/162/162 161/161/161
f 161/161/161 162/162/162 163/163/163
f 162/162/162 164/164/164 163/163/163
f 163/163/163 164/164/164 165/165/165
f 164/164/164 166/166/166 165/165/165
f 165/165/165 166/166/166 167/167/167
f 166/166/166 168/168/168 167/167/167
f 171/171/171 170/170/170 169/169/169
f 170/170/170 172/172/172 169/169/169
f 169/169/169 172/172/172 173/173/173
f 172/172/172 174/174/174 173/173/173
f 173/173/173 174/174/174 175/175/175
f 174/174/174 176/176/176 175/175/175
f 175/175/175 176/176/176 177/177/177
f 176/176/176 178/178/178 177/177/177
f 177/177/177 178/178/178 179/179/179
f 178/178/178 180/180/180 179/179/179
f 179/179/179 180/180/180 181/181/181
f 180/180/180 182/182/182 181/181/181
f 181/181/181 182/182/182 183/183/183
f 182/182/182 184/184/184 183/183/183
f 183/183/183 184/184/184 185/185/185
f 184/184/184 186/186/186 185/185/185
f 189/189/189 188/188/188 187/187/187
f 190/190/190 189/189/189 187/187/187
f 193/193/193 192/192/192 191/191/191
f 192/192/192 194/194/194 191/191/191
f 194/194/194 195/195/195 191/191/191
f 195/195/195 196/196/196 191/191/191
f 197/197/197 196/196/196 195/195/195
f 198/198/198 197/197/197 195/195/195
f 201/201/201 200/200/200 199/199/199
f 200/200/200 202/202/202 199/199/199
f 203/203/203 199/199/199 202/202/202
f 204/204/204 203/203/203 202/202/202
f 203/203/203 204/204/204 205/205/205
f 204/204/204 206/206/206 205/205/205
f 206/206/206 207/207/207 205/205/205
f 207/207/207 208/208/208 205/205/205
f 208/208/208 207/207/207 209/209/209
f 207/207/207 210/210/210 209/209/209
f 211/211/211 209/209/209 210/210/210
f 212/212/212 211/211/211 210/210/210
f 211/211/211 212/212/212 213/213/213
f 212/212/212 214/214/214 213/213/213
f 215/215/215 213/213/213 214/214/214
f 216/216/216 215/215/215 214/214/214
f 219/219/219 218/218/218 217/217/217
f 218/218/218 220/220/220 217/217/217
f 217/217/217 220/220/220 221/221/221
f 220/220/220 222/222/222 221/221/221
f 221/221/221 222/222/222 223/223/223
f 222/222/222 224/224/224 223/223/223
f 223/223/223 224/224/224 225/225/225
f 224/224/224 226/226/226 225/225/225
f 225/225/225 226/226/226 227/227/227
f 226/226/226 228/228/228 227/227/227
f 227/227/227 228/228/228 229/229/229
f 228/228/228 230/230/230 229/229/229
f 229/229/229 230/230/230 231/231/231
f 230/230/230 232/232/232 231/231/231
f 231/231/231 232/232/232 233/233/233
f 232/232/232 234/234/234 233/233/233
f 237/237/237 236/236/236 235/235/235
f 236/236/236 238/238/238 235/235/235
f 235/235/235 238/238/238 239/239/239
f 238/238/238 240/240/240 239/239/239
f 239/239/239 240/240/240 241/241/241
f 240/240/240 242/242/242 241/241/241
f 241/241/241 242/242/242 243/243/243
f 242/242/242 244/244/244 243/243/243
f 243/243/243 244/244/244 245/245/245
f 244/244/244 246/246/246 245/245/245
f 245/245/245 246/246/246 247/247/247
f 246/246/246 248/248/248 247/247/247
f 247/247/247 248/248/248 249/249/249
f 248/248/248 250/250/250 249/249/249
f 249/249/249 250/250/250 251/251/251
f 250/250/250 252/252/252 251/251/251
f 255/255/255 254/254/254 253/253/253
f 254/254/254 256/256/256 253/253/253
f 257/257/257 253/253/253 256/256/256
f 258/258/258 257/257/257 256/256/256
f 257/257/257 258/258/258 259/259/259
f 258/258/258 260/260/260 259/259/259
f 260/260/260 261/261/261 259/259/259
f 261/261/261 262/262/262 259/259/259
f 262/262/262 261/261/261 263/263/263
f 261/261/261 264/264/264 263/263/263
f 265/265/265 263/263/263 264/264/264
f 266/266/266 265/265/265 264/264/264
f 265/265/265 266/266/266 267/267/267
f 266/266/266 268/268/268 267/267/267
f 269/269/269 267/267/267 268/268/268
f 270/270/270 269/269/269 268/268/268
f 273/273/273 272/272/272 271/271/271
f 272/272/272 274/274/274 271/271/271
f 271/271/271 274/274/274 275/275/275
f 274/274/274 276/276/276 275/275/275
f 275/275/275 276/276/276 277/277/277
f 276/276/276 278/278/278 277/277/277
f 277/277/277 278/278/278 279/279/279
f 278/278/278 280/280/280 279/279/279
f 279/279/279 280/280/280 281/281/281
f 280/280/280 282/282/282 281/281/281
f 281/281/281 282/282/282 283/283/283
f 282/282/282 284/284/284 283/283/283
f 283/283/283 284/284/284 285/285/285
f 284/284/284 286/286/286 285/285/285
f 285/285/285 286/286/286 287/287/287
f 286/286/286 288/288/288 287/287/287
f 291/291/291 290/290/290 289/289/289
f 290/290/290 292/292/292 289/289/289
f 289/289/289 292/292/292 293/293/293
f 292/292/292 294/294/294 293/293/293
f 293/293/293 294/294/294 295/295/295
f 294/294/294 296/296/296 295/295/295
f 295/295/295 296/296/296 297/297/297
f 296/296/296 298/298/298 297/297/297
f 297/297/297 298/298/298 299/299/299
f 298/298/298 300/300/300 299/299/299
f 299/299/299 300/300/300 301/301/301
f 300/300/300 302/302/302 301/301/301
f 301/301/301 302/302/302 303/303/303
f 302/302/302 304/304/304 303/303/303
f 303/303/303 304/304/304 305/305/305
f 304/304/304 306/306/306 305/305/305
f 309/309/309 308/308/308 307/307/307
f 310/310/310 309/309/309 307/307/307
f 313/313/313 312/312/312 311/311/311
f 314/314/314 313/313/313 311/311/311
f 317/317/317 316/316/316 315/315/315
f 318/318/318 317/317/317 315/315/315
f 321/321/321 320/320/320 319/319/319
f 322/322/322 321/321/321 319/319/319
f 325/325/325 324/324/324 323/323/323
f 326/326/326 325/325/325 323/323/323
f 329/329/329 328/328/328 327/327/327
f 328/328/328 330/330/330 327/327/327
f 330/330/330 331/331/331 327/327/327
f 331/331/331 332/332/332 327/327/327
f 333/333/333 332/332/332 331/331/331
f 334/334/334 333/333/333 331/331/331
f 337/337/337 336/336/336 335/335/335
f 338/338/338 337/337/337 335/335/335
f 341/341/341 340/340/340 339/339/339
f 342/342/342 341/341/341 339/339/339
f 345/345/345 344/344/344 343/343/343
f 346/346/346 345/345/345 343/343/343
f 349/349/349 348/348/348 347/347/347
f 350/350/350 349/349/349 347/347/347
f 353/353/353 352/352/352 351/351/351
f 354/354/354 353/353/353 351/351/351
f 357/357/357 356/356/356 355/355/355
f 356/356/356 358/358/358 355/355/355
f 358/358/358 359/359/359 355/355/355
f 359/359/359 360/360/360 355/355/355
f 361/361/361 360/360/360 359/359/359
f 362/362/362 361/361/361 359/359/359
f 365/365/365 364/364/364 363/363/363
f 366/366/366 365/365/365 363/363/363
f 369/369/369 368/368/368 367/367/367
f 370/370/370 369/369/369 367/367/367
f 373/373/373 372/372/372 371/371/371
f 374/374/374 373/373/373 371/371/371
f 377/377/377 376/376/376 375/375/375
f 378/378/378 377/377/377 375/375/375
f 381/381/381 380/380/380 379/379/379
f 382/382/382 381/381/381 379/379/379
f 383/383/383 381/381/381 382/382/382
f 384/384/384 383/383/383 382/382/382
f 387/387/387 386/386/386 385/385/385
f 388/388/388 387/387/387 385/385/385
f 391/391/391 390/390/390 389/389/389
f 392/392/392 391/391/391 389/389/389
f 395/395/395 394/394/394 393/393/393
f 394/394/394 396/396/396 393/393/393
f 393/393/393 396/396/396 397/397/397
f 396/396/396 398/398/398 397/397/397
f 397/397/397 398/398/398 399/399/399
f 398/398/398 400/400/400 399/399/399
f 403/403/403 402/402/402 401/401/401
f 404/404/404 403/403/403 401/401/401
f 407/407/407 406/406/406 405/405/405
f 408/408/408 407/407/407 405/405/405
f 409/409/409 407/407/407 408/408/408
f 410/410/410 409/409/409 408/408/408
f 411/411/411 409/409/409 410/410/410
f 412/412/412 411/411/411 410/410/410
f 415/415/415 414/414/414 413/413/413
f 416/416/416 415/415/415 413/413/413
f 419/419/419 418/418/418 417/417/417
f 418/418/418 420/420/420 417/417/417
f 417/417/417 420/420/420 421/421/421
f 420/420/420 422/422/422 421/421/421
f 421/421/421 422/422/422 423/423/423
f 422/422/422 424/424/424 423/423/423
f 427/427/427 426/426/426 425/425/425
f 428/428/428 427/427/427 425/425/425
f 431/431/431 430/430/430 429/429/429
f 430/430/430 432/432/432 429/429/429
f 430/430/430 433/433/433 432/432/432
f 433/433/433 434/434/434 432/432/432
f 433/433/433 435/435/435 434/434/434
f 435/435/435 436/436/436 434/434/434
f 439/439/439 438/438/438 437/437/437
f 440/440/440 439/439/439 437/437/437
f 443/443/443 442/442/442 441/441/441
f 444/444/444 443/443/443 441/441/441
f 444/444/444 441/441/441 445/445/445
f 446/446/446 444/444/444 445/445/445
f 446/446/446 445/445/445 447/447/447
f 448/448/448 446/446/446 447/447/447
f 451/451/451 450/450/450 449/449/449
f 452/452/452 451/451/451 449/449/449
f 455/455/455 454/454/454 453/453/453
f 454/454/454 456/456/456 453/453/453
f 454/454/454 457/457/457 456/456/456
f 457/457/457 458/458/458 456/456/456
f 457/457/457 459/459/459 458/458/458
f 459/459/459 460/460/460 458/458/458
f 463/463/463 462/462/462 461/461/461
f 464/464/464 463/463/463 461/461/461
f 467/467/467 466/466/466 465/465/465
f 468/468/468 467/467/467 465/465/465
f 468/468/468 465/465/465 469/469/469
f 470/470/470 468/468/468 469/469/469
f 470/470/470 469/469/469 471/471/471
f 472/472/472 470/470/470 471/471/471
f 475/475/475 474/474/474 473/473/473
f 476/476/476 475/475/475 473/473/473
f 479/479/479 478/478/478 477/477/477
f 477/477/477 480/480/480 479/479/479
f 478/478/478 479/479/479 481/481/481
f 479/479/479 480/480/480 482/482/482
f 479/479/479 483/483/483 481/481/481
f 479/479/479 482/482/482 483/483/483
f 486/486/486 485/485/485 484/484/484
f 487/487/487 486/486/486 484/484/484
f 485/485/485 486/486/486 488/488/488
f 486/486/486 487/487/487 489/489/489
f 486/486/486 490/490/490 488/488/488
f 489/489/489 490/490/490 486/486/486
f 493/493/493 492/492/492 491/491/491
f 492/492/492 494/494/494 491/491/491
f 492/492/492 493/493/493 495/495/495
f 494/494/494 492/492/492 496/496/496
f 495/495/495 497/497/497 492/492/492
f 492/492/492 497/497/497 496/496/496
f 500/500/500 499/499/499 498/498/498
f 501/501/501 500/500/500 498/498/498
f 500/500/500 502/502/502 499/499/499
f 500/500/500 501/501/501 503/503/503
f 500/500/500 504/504/504 502/502/502
f 503/503/503 504/504/504 500/500/500
f 507/507/507 506/506/506 505/505/505
f 506/506/506 508/508/508 505/505/505
f 509/509/509 506/506/506 507/507/507
f 505/505/505 508/508/508 510/510/510
f 511/511/511 509/509/509 507/507/507
f 508/508/508 512/512/512 510/510/510
f 513/513/513 509/509/509 511/511/511
f 510/510/510 512/512/512 514/514/514
f 515/515/515 513/513/513 511/511/511
f 512/512/512 516/516/516 514/514/514
f 517/517/517 513/513/513 515/515/515
f 514/514/514 516/516/516 518/518/518
f 519/519/519 517/517/517 515/515/515
f 516/516/516 520/520/520 518/518/518
f 520/520/520 517/517/517 519/519/519
f 518/518/518 520/520/520 519/519/519
f 523/523/523 522/522/522 521/521/521
f 522/522/522 524/524/524 521/521/521
f 525/525/525 522/522/522 523/523/523
f 521/521/521 524/524/524 526/526/526
f 527/527/527 525/525/525 523/523/523
f 524/524/524 528/528/528 526/526/526
f 529/529/529 525/525/525 527/527/527
f 526/526/526 528/528/528 530/530/530
f 531/531/531 529/529/529 527/527/527
f 528/528/528 532/532/532 530/530/530
f 533/533/533 529/529/529 531/531/531
f 530/530/530 532/532/532 534/534/534
f 535/535/535 533/533/533 531/531/531
f 532/532/532 536/536/536 534/534/534
f 536/536/536 533/533/533 535/535/535
f 534/534/534 536/536/536 535/535/535
f 539/539/539 538/538/538 537/537/537
f 538/538/538 540/540/540 537/537/537
f 541/541/541 538/538/538 539/539/539
f 537/537/537 540/540/540 542/542/542
f 543/543/543 541/541/541 539/539/539
f 540/540/540 544/544/544 542/542/542
f 545/545/545 541/541/541 543/543/543
f 542/542/542 544/544/544 546/546/546
f 547/547/547 545/545/545 543/543/543
f 544/544/544 548/548/548 546/546/546
f 549/549/549 545/545/545 547/547/547
f 546/546/546 548/548/548 550/550/550
f 551/551/551 549/549/549 547/547/547
f 548/548/548 552/552/552 550/550/550
f 552/552/552 549/549/549 551/551/551
f 550/550/550 552/552/552 551/551/551
f 555/555/555 554/554/554 553/553/553
f 554/554/554 556/556/556 553/553/553
f 557/557/557 554/554/554 555/555/555
f 553/553/553 556/556/556 558/558/558
f 559/559/559 557/557/557 555/555/555
f 556/556/556 560/560/560 558/558/558
f 561/561/561 557/557/557 559/559/559
f 558/558/558 560/560/560 562/562/562
f 563/563/563 561/561/561 559/559/559
f 560/560/560 564/564/564 562/562/562
f 565/565/565 561/561/561 563/563/563
f 562/562/562 564/564/564 566/566/566
f 567/567/567 565/565/565 563/563/563
f 564/564/564 568/568/568 566/566/566
f 568/568/568 565/565/565 567/567/567
f 566/566/566 568/568/568 567/567/567
f 571/571/571 570/570/570 569/569/569
f 570/570/570 572/572/572 569/569/569
f 573/573/573 570/570/570 571/571/571
f 569/569/569 572/572/572 574/574/574
f 575/575/575 573/573/573 571/571/571
f 572/572/572 576/576/576 574/574/574
f 577/577/577 573/573/573 575/575/575
f 574/574/574 576/576/576 578/578/578
f 579/579/579 577/577/577 575/575/575
f 576/576/576 580/580/580 578/578/578
f 581/581/581 577/577/577 579/579/579
f 578/578/578 580/580/580 582/582/582
f 583/583/583 581/581/581 579/579/579
f 580/580/580 584/584/584 582/582/582
f 584/584/584 581/581/581 583/583/583
f 582/582/582 584/584/584 583/583/583
f 587/587/587 586/586/586 585/585/585
f 586/586/586 588/588/588 585/585/585
f 589/589/589 586/586/586 587/587/587
f 585/585/585 588/588/588 590/590/590
f 591/591/591 589/589/589 587/587/587
f 588/588/588 592/592/592 590/590/590
f 593/593/593 589/589/589 591/591/591
f 590/590/590 592/592/592 594/594/594
f 595/595/595 593/593/593 591/591/591
f 592/592/592 596/596/596 594/594/594
f 597/597/597 593/593/593 595/595/595
f 594/594/594 596/596/596 598/598/598
f 599/599/599 597/597/597 595/595/595
f 596/596/596 600/600/600 598/598/598
f 600/600/600 597/597/597 599/599/599
f 598/598/598 600/600/600 599/599/599
f 603/603/603 602/602/602 601/601/601
f 602/602/602 604/604/604 601/601/601
f 605/605/605 602/602/602 603/603/603
f 601/601/601 604/604/604 606/606/606
f 607/607/607 605/605/605 603/603/603
f 604/604/604 608/608/608 606/606/606
f 609/609/609 605/605/605 607/607/607
f 606/606/606 608/608/608 610/610/610
f 611/611/611 609/609/609 607/607/607
f 608/608/608 612/612/612 610/610/610
f 613/613/613 609/609/609 611/611/611
f 610/610/610 612/612/612 614/614/614
f 615/615/615 613/613/613 611/611/611
f 612/612/612 616/616/616 614/614/614
f 616/616/616 613/613/613 615/615/615
f 614/614/614 616/616/616 615/615/615
f 619/619/619 618/618/618 617/617/617
f 620/620/620 619/619/619 617/617/617
f 617/617/617 618/618/618 621/621/621
f 622/622/622 619/619/619 620/620/620
f 618/618/618 623/623/623 621/621/621
f 624/624/624 622/622/622 620/620/620
f 621/621/621 623/623/623 625/625/625
f 626/626/626 622/622/622 624/624/624
f 623/623/623 627/627/627 625/625/625
f 628/628/628 626/626/626 624/624/624
f 625/625/625 627/627/627 629/629/629
f 630/630/630 626/626/626 628/628/628
f 627/627/627 631/631/631 629/629/629
f 632/632/632 630/630/630 628/628/628
f 629/629/629 631/631/631 632/632/632
f 631/631/631 630/630/630 632/632/632
