g P_Bend_Vert1
v 0.0872026235 -0.329514295 0.0872022435
v 0.0476926304 -0.369024307 0.0872022435
v 0.0872033983 -0.369024456 0.0476923361
v 0.0476926304 -0.194619328 0.0872022435
v 0.0872026235 -0.234129399 0.0872022435
v 0.0872033983 -0.194619313 0.0476923399
v -0.0872024298 -0.234129369 0.0872022435
v -0.0476924367 -0.194619328 0.0872022435
v -0.0872016475 -0.194619253 0.0476923399
v -0.0476924367 -0.369024307 0.0872022435
v -0.0872024298 -0.329514235 0.0872022435
v -0.0872016475 -0.369024456 0.047692433
v -0.0872016475 -0.329514146 -0.0872026682
v -0.0476916581 -0.369024426 -0.0872028619
v -0.0872016475 -0.369024456 -0.0476924405
v -0.0476916581 -0.194619134 -0.0872026235
v -0.0872016475 -0.23412931 -0.0872026682
v -0.0872016475 -0.194619253 -0.0476925373
v 0.0872035995 -0.234129459 -0.0872026235
v 0.0476932116 -0.194619134 -0.0872026235
v 0.0872033983 -0.194619402 -0.0476924367
v 0.0476932116 -0.369024426 -0.0872028619
v 0.0872035995 -0.329514354 -0.0872025266
v 0.0872033983 -0.369024485 -0.0476925373
v -0.0761757717 -0.394321829 -0.138425171
v -0.0505546667 -0.332377046 -0.147416875
v -0.112499326 -0.357998312 -0.138425171
v -0.112499326 -0.205645293 -0.138425171
v -0.0505546667 -0.231266543 -0.147416815
v -0.0761757717 -0.169321805 -0.138425171
v 0.0761771351 -0.169321805 -0.138425171
v 0.050555829 -0.231266543 -0.147416815
v 0.112500496 -0.205645353 -0.138425112
v 0.112500682 -0.357998312 -0.138425171
v 0.050555829 -0.332377046 -0.147416875
v 0.0761771351 -0.394321829 -0.138425171
v -0.0761757717 -0.143396854 -0.112500206
v -0.0505546667 -0.134405136 -0.0505554378
v -0.112499326 -0.143396854 -0.0761767477
v -0.112499326 -0.143396854 0.0761763602
v -0.0505546667 -0.134405181 0.0505550504
v -0.0761757717 -0.143396854 0.112499803
v 0.0761771351 -0.143396854 0.112499803
v 0.050555829 -0.134405181 0.0505550504
v 0.112500496 -0.143396854 0.0761763602
v 0.112500682 -0.143396854 -0.0761767477
v 0.050555829 -0.134405136 -0.0505554378
v 0.0761771351 -0.143396854 -0.112500206
v 0.138425648 -0.205645293 -0.112500206
v 0.147417545 -0.231266394 -0.0505554378
v 0.138425648 -0.169321761 -0.0761767477
v 0.138425648 -0.169321775 0.0761763602
v 0.147417352 -0.231266394 0.0505550578
v 0.138425648 -0.205645293 0.112499826
v 0.138425648 -0.357998282 0.112499826
v 0.147417352 -0.332376897 0.0505550578
v 0.138425648 -0.39432171 0.0761763528
v 0.138425648 -0.394321829 -0.0761767402
v 0.147417545 -0.332376897 -0.0505554378
v 0.138425648 -0.357998222 -0.112500206
v -0.138424113 -0.205645382 0.112499826
v -0.147415802 -0.231266588 0.0505550578
v -0.138424113 -0.169321865 0.0761763602
v -0.138424113 -0.16932188 -0.0761767477
v -0.147415802 -0.231266588 -0.0505554378
v -0.138424113 -0.205645382 -0.112500153
v -0.138424113 -0.357998341 -0.112500153
v -0.147415802 -0.332377076 -0.0505554378
v -0.138424113 -0.394321829 -0.0761766434
v -0.138424113 -0.394321889 0.0761763528
v -0.147415802 -0.332377076 0.0505550578
v -0.138424113 -0.357998341 0.112499826
v -0.112499326 -0.420246869 0.0761763528
v -0.112499326 -0.420246869 -0.0761767477
v -0.138424113 -0.394321829 -0.0761766434
v -0.138424113 -0.394321889 0.0761763528
v -0.0761755854 -0.420246869 -0.112500206
v 0.0761771351 -0.420246869 -0.112500206
v 0.0761771351 -0.394321829 -0.138425171
v -0.0761757717 -0.394321829 -0.138425171
v 0.112500884 -0.420246869 -0.0761767477
v 0.112500884 -0.420246869 0.0761763528
v 0.138425648 -0.39432171 0.0761763528
v 0.138425648 -0.394321829 -0.0761767402
v 0.0761771351 -0.420246869 0.112499826
v -0.0761755854 -0.420246869 0.112499826
v -0.0761769339 -0.394321829 0.138424486
v 0.0761759728 -0.394321829 0.138424486
v -0.0761757717 -0.143396854 0.112499803
v 0.0761771351 -0.143396854 0.112499803
v 0.0761759728 -0.169321775 0.138424486
v -0.0761763528 -0.169321775 0.138424695
v 0.112500496 -0.143396854 0.0761763602
v 0.112500682 -0.143396854 -0.0761767477
v 0.138425648 -0.169321761 -0.0761767477
v 0.138425648 -0.169321775 0.0761763602
v 0.0761771351 -0.143396854 -0.112500206
v -0.0761757717 -0.143396854 -0.112500206
v -0.0761757717 -0.169321805 -0.138425171
v 0.0761771351 -0.169321805 -0.138425171
v -0.112499326 -0.143396854 -0.0761767477
v -0.112499326 -0.143396854 0.0761763602
v -0.138424113 -0.169321865 0.0761763602
v -0.138424113 -0.16932188 -0.0761767477
v 0.138425648 -0.205645293 0.112499826
v 0.138425648 -0.357998282 0.112499826
v 0.112499721 -0.357998282 0.138424486
v 0.112499721 -0.205645293 0.138424486
v 0.100393094 -0.181429625 0.100392036
v 0.0761759728 -0.169321775 0.138424486
v 0.138425648 -0.169321775 0.0761763602
v 0.0761771351 -0.143396854 0.112499803
v 0.112500496 -0.143396854 0.0761763602
v -0.138424113 -0.357998341 0.112499826
v -0.138424113 -0.205645382 0.112499826
v -0.112500496 -0.205645293 0.138424486
v -0.112500496 -0.357998282 0.138424486
v 0.138425648 -0.357998222 -0.112500206
v 0.138425648 -0.205645293 -0.112500206
v 0.112500496 -0.205645353 -0.138425112
v 0.112500682 -0.357998312 -0.138425171
v 0.100393094 -0.38221404 -0.100392371
v 0.0761771351 -0.394321829 -0.138425171
v 0.138425648 -0.394321829 -0.0761767402
v 0.0761771351 -0.420246869 -0.112500206
v 0.112500884 -0.420246869 -0.0761767477
v -0.138424113 -0.205645382 -0.112500153
v -0.138424113 -0.357998341 -0.112500153
v -0.112499326 -0.357998312 -0.138425171
v -0.112499326 -0.205645293 -0.138425171
v -0.100391351 -0.181429625 -0.100392371
v -0.0761757717 -0.169321805 -0.138425171
v -0.138424113 -0.16932188 -0.0761767477
v -0.0761757717 -0.143396854 -0.112500206
v -0.112499326 -0.143396854 -0.0761767477
v -0.0505546667 -0.332377046 -0.147416875
v 0.050555829 -0.332377046 -0.147416875
v 0.050555829 -0.231266543 -0.147416815
v -0.0505546667 -0.231266543 -0.147416815
v 0.0872035995 -0.234129459 -0.0872026235
v -0.0476916581 -0.194619134 -0.0872026235
v 0.0476932116 -0.194619134 -0.0872026235
v -0.0872016475 -0.23412931 -0.0872026682
v -0.0872016475 -0.329514146 -0.0872026682
v 0.0872035995 -0.329514354 -0.0872025266
v 0.0476932116 -0.369024426 -0.0872028619
v -0.0476916581 -0.369024426 -0.0872028619
v -0.0761755854 -0.420246869 -0.112500206
v 0.0761773214 -0.451008439 -0.112500206
v 0.0761771351 -0.420246869 -0.112500206
v -0.0761755854 -0.451008439 -0.112500206
v -0.112499326 -0.420246869 -0.0761767477
v -0.11249914 -0.451008439 -0.0761767477
v -0.112499326 -0.420246869 0.0761763528
v -0.11249914 -0.451008439 0.0761763528
v -0.0761755854 -0.451008439 0.112499826
v -0.0761755854 -0.420246869 0.112499826
v 0.0761771351 -0.420246869 0.112499826
v 0.0761773214 -0.451008439 0.112499826
v 0.112500884 -0.420246869 0.0761763528
v 0.112500884 -0.451008439 0.0761763528
v 0.112500884 -0.420246869 -0.0761767477
v 0.112500884 -0.451008439 -0.0761767477
v 0.0761771351 -0.420246869 -0.112500206
v 0.0761773214 -0.451008439 -0.112500206
v -0.0699187964 -0.470703006 -0.140662342
v 0.0693345219 -0.499999076 -0.139483735
v 0.0699205399 -0.470703006 -0.140662342
v -0.0693333596 -0.499999076 -0.139483735
v -0.14066118 -0.470703006 -0.0699199587
v -0.139483154 -0.499999076 -0.0693339407
v -0.14066118 -0.470703006 0.0699195638
v -0.139483154 -0.499999076 0.0693339556
v -0.0699187964 -0.470703006 0.14066194
v -0.0693333596 -0.499999076 0.139483735
v 0.0699205399 -0.470703006 0.14066194
v 0.0693345219 -0.499999076 0.139483735
v 0.140663117 -0.470703006 0.0699195638
v 0.139484122 -0.499999076 0.0693339556
v 0.140663117 -0.470703006 -0.0699199587
v 0.139484122 -0.499999076 -0.0693339407
v 0.0699205399 -0.470703006 -0.140662342
v 0.0693345219 -0.499999076 -0.139483735
v 0.109058261 -0.510353088 -0.059622325
v 0.0872033983 -0.369024456 0.0476923361
v 0.109058261 -0.510353088 0.0596222281
v 0.0872033983 -0.369024485 -0.0476925373
v 0.0596227162 -0.510353088 -0.109057918
v 0.0476932116 -0.369024426 -0.0872028619
v -0.0596217476 -0.510353088 -0.109057918
v -0.0476916581 -0.369024426 -0.0872028619
v -0.109057292 -0.510353088 -0.0596222281
v -0.0872016475 -0.369024456 -0.0476924405
v -0.109057292 -0.510353088 0.0596222281
v -0.0872016475 -0.369024456 0.047692433
v -0.0596217476 -0.510353088 0.109057881
v -0.0476924367 -0.369024307 0.0872022435
v 0.0596227162 -0.510353088 0.109057881
v 0.0476926304 -0.369024307 0.0872022435
v 0.109058261 -0.510353088 0.0596222281
v 0.0872033983 -0.369024456 0.0476923361
v -0.112500496 -0.205645293 0.138424486
v -0.112501658 -0.357998282 0.169185594
v -0.112500496 -0.357998282 0.138424486
v -0.112501658 -0.205645293 0.169185594
v -0.0761763528 -0.169321775 0.138424695
v -0.0761781037 -0.169321775 0.169185594
v 0.0761759728 -0.169321775 0.138424486
v 0.0761750042 -0.169321775 0.169185594
v 0.112498559 -0.205645293 0.169185594
v 0.112499721 -0.205645293 0.138424486
v 0.112499721 -0.357998282 0.138424486
v 0.112498559 -0.357998282 0.169185594
v 0.0761759728 -0.394321829 0.138424486
v 0.0761750042 -0.394321829 0.169185609
v -0.0761769339 -0.394321829 0.138424486
v -0.0761781037 -0.394321829 0.169185609
v -0.112500496 -0.357998282 0.138424486
v -0.112501658 -0.357998282 0.169185594
v -0.140663698 -0.211902082 0.188880131
v -0.139485091 -0.351155341 0.218176201
v -0.140663698 -0.351741523 0.188880116
v -0.139485091 -0.212487519 0.218176201
v -0.0699213073 -0.141159683 0.188880131
v -0.0693353042 -0.142337739 0.218176231
v 0.0699182078 -0.141159683 0.188880131
v 0.0693325922 -0.142337739 0.218176231
v 0.140660599 -0.211902082 0.188880131
v 0.139482364 -0.212487519 0.218176201
v 0.140660599 -0.351741523 0.188880116
v 0.139482364 -0.351155341 0.218176201
v 0.0699182078 -0.422483921 0.188880131
v 0.0693325922 -0.42130506 0.218176231
v -0.0699213073 -0.422483921 0.188880131
v -0.0693353042 -0.42130506 0.218176231
v -0.140663698 -0.351741523 0.188880116
v -0.139485091 -0.351155341 0.218176201
v -0.0596236885 -0.390879244 0.228530228
v 0.0476926304 -0.369024307 0.0872022435
v 0.059620779 -0.390879244 0.228530228
v -0.0476924367 -0.369024307 0.0872022435
v -0.109059237 -0.341443598 0.228530228
v -0.0872024298 -0.329514235 0.0872022435
v -0.109059237 -0.222199172 0.228530228
v -0.0872024298 -0.234129369 0.0872022435
v -0.0596234873 -0.172763556 0.228530228
v -0.0476924367 -0.194619328 0.0872022435
v 0.059620779 -0.172763556 0.228530228
v 0.0476926304 -0.194619328 0.0872022435
v 0.109056517 -0.222199172 0.228530228
v 0.0872026235 -0.234129399 0.0872022435
v 0.109056517 -0.341443598 0.228530228
v 0.0872026235 -0.329514295 0.0872022435
v 0.059620779 -0.390879244 0.228530228
v 0.0476926304 -0.369024307 0.0872022435
v 0.0761771351 -0.394321829 -0.138425171
v 0.050555829 -0.332377046 -0.147416875
v -0.0505546667 -0.332377046 -0.147416875
v -0.0761757717 -0.394321829 -0.138425171
v -0.112499326 -0.357998312 -0.138425171
v -0.0505546667 -0.332377046 -0.147416875
v -0.0505546667 -0.231266543 -0.147416815
v -0.112499326 -0.205645293 -0.138425171
v -0.0761757717 -0.169321805 -0.138425171
v -0.0505546667 -0.231266543 -0.147416815
v 0.050555829 -0.231266543 -0.147416815
v 0.0761771351 -0.169321805 -0.138425171
v 0.112500496 -0.205645353 -0.138425112
v 0.050555829 -0.231266543 -0.147416815
v 0.050555829 -0.332377046 -0.147416875
v 0.112500682 -0.357998312 -0.138425171
v -0.0505546667 -0.134405136 -0.0505554378
v 0.050555829 -0.134405136 -0.0505554378
v 0.050555829 -0.134405181 0.0505550504
v -0.0505546667 -0.134405181 0.0505550504
v 0.0872033983 -0.194619313 0.0476923399
v -0.0476924367 -0.194619328 0.0872022435
v 0.0476926304 -0.194619328 0.0872022435
v -0.0872016475 -0.194619253 0.0476923399
v -0.0872016475 -0.194619253 -0.0476925373
v 0.0872033983 -0.194619402 -0.0476924367
v 0.0476932116 -0.194619134 -0.0872026235
v -0.0476916581 -0.194619134 -0.0872026235
v 0.0761771351 -0.143396854 -0.112500206
v 0.050555829 -0.134405136 -0.0505554378
v -0.0505546667 -0.134405136 -0.0505554378
v -0.0761757717 -0.143396854 -0.112500206
v -0.112499326 -0.143396854 -0.0761767477
v -0.0505546667 -0.134405136 -0.0505554378
v -0.0505546667 -0.134405181 0.0505550504
v -0.112499326 -0.143396854 0.0761763602
v -0.0761757717 -0.143396854 0.112499803
v -0.0505546667 -0.134405181 0.0505550504
v 0.050555829 -0.134405181 0.0505550504
v 0.0761771351 -0.143396854 0.112499803
v 0.112500496 -0.143396854 0.0761763602
v 0.050555829 -0.134405181 0.0505550504
v 0.050555829 -0.134405136 -0.0505554378
v 0.112500682 -0.143396854 -0.0761767477
v 0.147417545 -0.231266394 -0.0505554378
v 0.147417545 -0.332376897 -0.0505554378
v 0.147417352 -0.332376897 0.0505550578
v 0.147417352 -0.231266394 0.0505550578
v 0.0872033983 -0.369024456 0.0476923361
v 0.0872026235 -0.234129399 0.0872022435
v 0.0872026235 -0.329514295 0.0872022435
v 0.0872033983 -0.194619313 0.0476923399
v 0.0872033983 -0.194619402 -0.0476924367
v 0.0872033983 -0.369024485 -0.0476925373
v 0.0872035995 -0.329514354 -0.0872025266
v 0.0872035995 -0.234129459 -0.0872026235
v 0.138425648 -0.357998222 -0.112500206
v 0.147417545 -0.332376897 -0.0505554378
v 0.147417545 -0.231266394 -0.0505554378
v 0.138425648 -0.205645293 -0.112500206
v 0.138425648 -0.169321761 -0.0761767477
v 0.147417545 -0.231266394 -0.0505554378
v 0.147417352 -0.231266394 0.0505550578
v 0.138425648 -0.169321775 0.0761763602
v 0.138425648 -0.205645293 0.112499826
v 0.147417352 -0.231266394 0.0505550578
v 0.147417352 -0.332376897 0.0505550578
v 0.138425648 -0.357998282 0.112499826
v 0.138425648 -0.39432171 0.0761763528
v 0.147417352 -0.332376897 0.0505550578
v 0.147417545 -0.332376897 -0.0505554378
v 0.138425648 -0.394321829 -0.0761767402
v -0.147415802 -0.231266588 0.0505550578
v -0.147415802 -0.332377076 0.0505550578
v -0.147415802 -0.332377076 -0.0505554378
v -0.147415802 -0.231266588 -0.0505554378
v -0.0872016475 -0.369024456 -0.0476924405
v -0.0872016475 -0.23412931 -0.0872026682
v -0.0872016475 -0.329514146 -0.0872026682
v -0.0872016475 -0.194619253 -0.0476925373
v -0.0872016475 -0.194619253 0.0476923399
v -0.0872016475 -0.369024456 0.047692433
v -0.0872024298 -0.329514235 0.0872022435
v -0.0872024298 -0.234129369 0.0872022435
v -0.138424113 -0.357998341 0.112499826
v -0.147415802 -0.332377076 0.0505550578
v -0.147415802 -0.231266588 0.0505550578
v -0.138424113 -0.205645382 0.112499826
v -0.138424113 -0.169321865 0.0761763602
v -0.147415802 -0.231266588 0.0505550578
v -0.147415802 -0.231266588 -0.0505554378
v -0.138424113 -0.16932188 -0.0761767477
v -0.138424113 -0.205645382 -0.112500153
v -0.147415802 -0.231266588 -0.0505554378
v -0.147415802 -0.332377076 -0.0505554378
v -0.138424113 -0.357998341 -0.112500153
v -0.138424113 -0.394321829 -0.0761766434
v -0.147415802 -0.332377076 -0.0505554378
v -0.147415802 -0.332377076 0.0505550578
v -0.138424113 -0.394321889 0.0761763528
v 0.05766242 -0.407156974 0.499999315
v 0.05766261 -0.407181531 0.218749046
v -0.0576621294 -0.40718174 0.218748271
v -0.0576623231 -0.407157153 0.49999854
v -0.12590602 -0.338937104 0.218748257
v -0.125906602 -0.338912487 0.49999854
v 0.125906706 -0.338912576 0.499999315
v 0.1259069 -0.338937223 0.218749061
v 0.05766261 -0.407181531 0.218749046
v 0.05766242 -0.407156974 0.499999315
v 0.1259069 -0.223587409 0.49999854
v 0.125907093 -0.22361201 0.218748271
v 0.1259069 -0.338937223 0.218749061
v 0.125906706 -0.338912576 0.499999315
v 0.0576628111 -0.155342981 0.499997765
v 0.125907093 -0.22361201 0.218748271
v 0.1259069 -0.223587409 0.49999854
v 0.0576630011 -0.155367583 0.218747497
v -0.0576625131 -0.155342981 0.49999854
v -0.0576623231 -0.155367583 0.218748257
v -0.125906602 -0.223587915 0.49999854
v -0.12590602 -0.223612517 0.218748271
v -0.125906602 -0.338912487 0.49999854
v -0.12590602 -0.338937104 0.218748257
v -0.12590602 -0.223612517 0.218748271
v -0.125906602 -0.223587915 0.49999854
v -0.0942436233 -0.324411452 0.49999854
v -0.0943098888 -0.3244645 0.218748271
v -0.0431922749 -0.37558043 0.218748271
v -0.0431618504 -0.375493884 0.49999854
v 0.0431923717 -0.375580162 0.218748271
v 0.0431617536 -0.375493616 0.49999854
v 0.0943105668 -0.32446456 0.218748271
v 0.0942441002 -0.324411541 0.49999854
v -0.0942432284 -0.238088608 0.499999315
v -0.0943095013 -0.238084748 0.218749046
v -0.0943098888 -0.3244645 0.218748271
v -0.0942436233 -0.324411452 0.49999854
v -0.043161463 -0.187006444 0.499999344
v -0.0943095013 -0.238084748 0.218749046
v -0.0942432284 -0.238088608 0.499999315
v -0.0431918912 -0.186968952 0.218749046
v 0.0431611724 -0.187006637 0.49999854
v 0.0431917943 -0.186969146 0.218748257
v 0.0942441002 -0.238088712 0.499997765
v 0.0943105668 -0.238084823 0.218747497
v 0.0942441002 -0.324411541 0.49999854
v 0.0943105668 -0.32446456 0.218748271
v 0.0943105668 -0.238084823 0.218747497
v 0.0942441002 -0.238088712 0.499997765
v -0.138424113 -0.357998341 -0.112500153
v -0.138424113 -0.394321829 -0.0761766434
v -0.100391351 -0.38221404 -0.100392371
v -0.112499326 -0.357998312 -0.138425171
v -0.112499326 -0.420246869 -0.0761767477
v -0.0761757717 -0.394321829 -0.138425171
v -0.0761755854 -0.420246869 -0.112500206
v 0.100393094 -0.181429625 -0.100392371
v 0.138425648 -0.169321761 -0.0761767477
v 0.112500682 -0.143396854 -0.0761767477
v 0.138425648 -0.205645293 -0.112500206
v 0.0761771351 -0.143396854 -0.112500206
v 0.112500496 -0.205645353 -0.138425112
v 0.0761771351 -0.169321805 -0.138425171
v -0.112500496 -0.357998282 0.138424486
v -0.100391351 -0.38221401 0.100391939
v -0.138424113 -0.357998341 0.112499826
v -0.0761769339 -0.394321829 0.138424486
v -0.138424113 -0.394321889 0.0761763528
v -0.0761755854 -0.420246869 0.112499826
v -0.112499326 -0.420246869 0.0761763528
v -0.100391351 -0.181429625 0.100391939
v -0.0761763528 -0.169321775 0.138424695
v -0.112500496 -0.205645293 0.138424486
v -0.138424113 -0.205645382 0.112499826
v -0.0761757717 -0.143396854 0.112499803
v -0.138424113 -0.169321865 0.0761763602
v -0.112499326 -0.143396854 0.0761763602
v 0.0761759728 -0.394321829 0.138424486
v 0.112499721 -0.357998282 0.138424486
v 0.100393094 -0.38221401 0.100392036
v 0.0761771351 -0.420246869 0.112499826
v 0.138425648 -0.357998282 0.112499826
v 0.112500884 -0.420246869 0.0761763528
v 0.138425648 -0.39432171 0.0761763528
v -0.139485091 -0.212487519 0.218176201
v -0.109059237 -0.341443598 0.228530228
v -0.139485091 -0.351155341 0.218176201
v -0.109059237 -0.222199172 0.228530228
v -0.0596236885 -0.390879244 0.228530228
v -0.0693353042 -0.142337739 0.218176231
v -0.0693353042 -0.42130506 0.218176231
v -0.0596234873 -0.172763556 0.228530228
v 0.059620779 -0.390879244 0.228530228
v 0.0693325922 -0.142337739 0.218176231
v 0.0693325922 -0.42130506 0.218176231
v 0.059620779 -0.172763556 0.228530228
v 0.109056517 -0.341443598 0.228530228
v 0.139482364 -0.212487519 0.218176201
v 0.139482364 -0.351155341 0.218176201
v 0.109056517 -0.222199172 0.228530228
v -0.112501658 -0.205645293 0.169185594
v -0.140663698 -0.351741523 0.188880116
v -0.112501658 -0.357998282 0.169185594
v -0.140663698 -0.211902082 0.188880131
v -0.0699213073 -0.422483921 0.188880131
v -0.0761781037 -0.169321775 0.169185594
v -0.0761781037 -0.394321829 0.169185609
v -0.0699213073 -0.141159683 0.188880131
v 0.0699182078 -0.422483921 0.188880131
v 0.0761750042 -0.169321775 0.169185594
v 0.0761750042 -0.394321829 0.169185609
v 0.0699182078 -0.141159683 0.188880131
v 0.140660599 -0.351741523 0.188880116
v 0.112498559 -0.205645293 0.169185594
v 0.112498559 -0.357998282 0.169185594
v 0.140660599 -0.211902082 0.188880131
v -0.0693333596 -0.499999076 -0.139483735
v 0.0596227162 -0.510353088 -0.109057918
v 0.0693345219 -0.499999076 -0.139483735
v -0.0596217476 -0.510353088 -0.109057918
v 0.109058261 -0.510353088 -0.059622325
v -0.139483154 -0.499999076 -0.0693339407
v 0.139484122 -0.499999076 -0.0693339407
v -0.109057292 -0.510353088 -0.0596222281
v 0.109058261 -0.510353088 0.0596222281
v -0.139483154 -0.499999076 0.0693339556
v 0.139484122 -0.499999076 0.0693339556
v -0.109057292 -0.510353088 0.0596222281
v 0.0596227162 -0.510353088 0.109057881
v -0.0693333596 -0.499999076 0.139483735
v 0.0693345219 -0.499999076 0.139483735
v -0.0596217476 -0.510353088 0.109057881
v -0.0761755854 -0.451008439 -0.112500206
v 0.0699205399 -0.470703006 -0.140662342
v 0.0761773214 -0.451008439 -0.112500206
v -0.0699187964 -0.470703006 -0.140662342
v 0.140663117 -0.470703006 -0.0699199587
v -0.11249914 -0.451008439 -0.0761767477
v 0.112500884 -0.451008439 -0.0761767477
v -0.14066118 -0.470703006 -0.0699199587
v 0.140663117 -0.470703006 0.0699195638
v -0.11249914 -0.451008439 0.0761763528
v 0.112500884 -0.451008439 0.0761763528
v -0.14066118 -0.470703006 0.0699195638
v 0.0699205399 -0.470703006 0.14066194
v -0.0761755854 -0.451008439 0.112499826
v 0.0761773214 -0.451008439 0.112499826
v -0.0699187964 -0.470703006 0.14066194
v -0.125906602 -0.223587915 0.49999854
v -0.0942432284 -0.238088608 0.499999315
v -0.0942436233 -0.324411452 0.49999854
v -0.125906602 -0.338912487 0.49999854
v -0.0576625131 -0.155342981 0.49999854
v -0.0431618504 -0.375493884 0.49999854
v -0.043161463 -0.187006444 0.499999344
v -0.0576623231 -0.407157153 0.49999854
v 0.0576628111 -0.155342981 0.499997765
v 0.0431617536 -0.375493616 0.49999854
v 0.0431611724 -0.187006637 0.49999854
v 0.05766242 -0.407156974 0.499999315
v 0.1259069 -0.223587409 0.49999854
v 0.0942441002 -0.324411541 0.49999854
v 0.0942441002 -0.238088712 0.499997765
v 0.125906706 -0.338912576 0.499999315
vt 0.303610355 0.557493865
vt 0.289743423 0.557493806
vt 0.303610355 0.543626904
vt 0.28974247 0.557508826
vt 0.303609401 0.543641865
vt 0.303609401 0.557508826
vt 0.303610295 0.543641925
vt 0.289743364 0.557508826
vt 0.303610295 0.557508886
vt 0.303609401 0.557493746
vt 0.303609401 0.543626785
vt 0.28974247 0.557493746
vt 0.303610355 0.543626785
vt 0.303610355 0.557493746
vt 0.289743364 0.557493746
vt 0.289743364 0.557508826
vt 0.303610295 0.557508826
vt 0.303610295 0.543641865
vt 0.303609401 0.543641865
vt 0.303609401 0.557508886
vt 0.289742351 0.557508826
vt 0.289743423 0.557508886
vt 0.303610355 0.557508826
vt 0.303610355 0.543641865
vt 0.194534019 0.521521568
vt 0.201188356 0.537650406
vt 0.185059592 0.530996025
vt 0.185059592 0.570734799
vt 0.201188356 0.564080477
vt 0.194534019 0.580209196
vt 0.234272793 0.580209196
vt 0.227618396 0.564080477
vt 0.243747205 0.570734799
vt 0.243747279 0.530996025
vt 0.22761853 0.537650406
vt 0.234272793 0.521521568
vt 0.194534019 0.521521568
vt 0.201188356 0.537650406
vt 0.185059592 0.530996025
vt 0.185059592 0.570734799
vt 0.201188356 0.564080477
vt 0.194534019 0.580209196
vt 0.234272793 0.580209196
vt 0.227618396 0.564080477
vt 0.243747205 0.570734799
vt 0.243747279 0.530996025
vt 0.22761853 0.537650406
vt 0.234272793 0.521521568
vt 0.194534019 0.521521568
vt 0.201188356 0.537650406
vt 0.185059592 0.530996025
vt 0.185059592 0.570734799
vt 0.201188356 0.564080477
vt 0.194534019 0.580209196
vt 0.234272793 0.580209196
vt 0.227618396 0.564080477
vt 0.243747205 0.570734799
vt 0.243747279 0.530996025
vt 0.22761853 0.537650406
vt 0.234272793 0.521521568
vt 0.194534019 0.521521568
vt 0.201188356 0.537650406
vt 0.185059592 0.530996025
vt 0.185059592 0.570734799
vt 0.201188356 0.564080477
vt 0.194534019 0.580209196
vt 0.234272793 0.580209196
vt 0.227618396 0.564080477
vt 0.243747205 0.570734799
vt 0.243747279 0.530996025
vt 0.22761853 0.537650406
vt 0.234272793 0.521521568
vt 0.35181424 0.574387252
vt 0.351812482 0.512232006
vt 0.341238648 0.512237966
vt 0.341238707 0.574387252
vt 0.35181424 0.574387252
vt 0.351812482 0.512232006
vt 0.341238648 0.512237966
vt 0.341238707 0.574387252
vt 0.35181424 0.574387252
vt 0.351812482 0.512232006
vt 0.341238648 0.512237966
vt 0.341238707 0.574387252
vt 0.35181424 0.574387252
vt 0.351812482 0.512232006
vt 0.341238648 0.512237966
vt 0.341238707 0.574387252
vt 0.341238648 0.512237966
vt 0.341238707 0.574387252
vt 0.35181424 0.574387252
vt 0.351812482 0.512232006
vt 0.341238588 0.512238503
vt 0.341238707 0.574387252
vt 0.35181424 0.574387252
vt 0.351811528 0.512241721
vt 0.341238767 0.512238622
vt 0.341238707 0.574387252
vt 0.35181424 0.574387252
vt 0.351816326 0.512244642
vt 0.341238767 0.512238204
vt 0.341238707 0.574387252
vt 0.35181424 0.574387252
vt 0.351816684 0.512235701
vt 0.351815194 0.574401379
vt 0.351811528 0.512241721
vt 0.341238588 0.512238503
vt 0.341217428 0.574401379
vt 0.346516341 0.58457464
vt 0.333793223 0.585203469
vt 0.359239519 0.585203469
vt 0.339092016 0.594105422
vt 0.353940427 0.594105422
vt 0.341238588 0.512238503
vt 0.341238707 0.574387252
vt 0.35181424 0.574387252
vt 0.351811528 0.512241721
vt 0.351820976 0.574407101
vt 0.351816684 0.512235701
vt 0.341238767 0.512238204
vt 0.34122327 0.57440722
vt 0.346522063 0.584580362
vt 0.333798856 0.58520925
vt 0.359245121 0.58520925
vt 0.339097708 0.594111264
vt 0.353946149 0.594111264
vt 0.351830453 0.574397564
vt 0.351811528 0.512241721
vt 0.341238588 0.512238503
vt 0.341232687 0.574397624
vt 0.346531421 0.584570944
vt 0.333808362 0.585199714
vt 0.359254688 0.585199714
vt 0.339107394 0.594101608
vt 0.353955775 0.594101608
vt 0.201188356 0.537650406
vt 0.22761853 0.537650406
vt 0.227618396 0.564080477
vt 0.201188356 0.564080477
vt 0.322065234 0.565958321
vt 0.282595873 0.57751894
vt 0.310504973 0.57751894
vt 0.271035403 0.5659585
vt 0.271035403 0.538049519
vt 0.322065234 0.538049459
vt 0.310504973 0.526489079
vt 0.282595873 0.526489139
vt 0.368281573 0.491155148
vt 0.411386162 0.500348091
vt 0.411386162 0.491155148
vt 0.368281573 0.500348091
vt 0.354508102 0.491155148
vt 0.354508102 0.500348091
vt 0.311403632 0.491155148
vt 0.311403632 0.500348091
vt 0.297630072 0.500348091
vt 0.297630072 0.491155148
vt 0.254525572 0.491155148
vt 0.254525572 0.500348091
vt 0.24075219 0.491155148
vt 0.24075219 0.500348091
vt 0.197647512 0.491155148
vt 0.197647512 0.500348091
vt 0.183874145 0.491155148
vt 0.183874145 0.500348091
vt 0.373407066 0.501248002
vt 0.406814426 0.510002971
vt 0.406814545 0.501248002
vt 0.373406947 0.510002971
vt 0.349936515 0.501248002
vt 0.349936336 0.510002971
vt 0.316529006 0.501248002
vt 0.316529006 0.510002971
vt 0.293058574 0.501248002
vt 0.293058574 0.510002971
vt 0.259651124 0.501248002
vt 0.259651244 0.510002971
vt 0.236180514 0.501248002
vt 0.236180589 0.510002971
vt 0.202773035 0.501248002
vt 0.202773035 0.510002971
vt 0.179302529 0.501248002
vt 0.179302394 0.510002971
vt 0.152341053 0.497526556
vt 0.182130128 0.492455095
vt 0.161560729 0.479605764
vt 0.174755573 0.506789386
vt 0.14836669 0.508656621
vt 0.171579778 0.515681386
vt 0.144152626 0.528369009
vt 0.168209895 0.531442225
vt 0.143230125 0.540147841
vt 0.167473018 0.54085964
vt 0.144305274 0.560265779
vt 0.168332502 0.556965053
vt 0.146478698 0.571876228
vt 0.170070559 0.566251397
vt 0.152762696 0.591022849
vt 0.17509748 0.581569314
vt 0.157894179 0.601665556
vt 0.179198623 0.59007591
vt 0.368281573 0.491155148
vt 0.411386162 0.500348091
vt 0.411386162 0.491155148
vt 0.368281573 0.500348091
vt 0.354508102 0.491155148
vt 0.354508102 0.500348091
vt 0.311403632 0.491155148
vt 0.311403632 0.500348091
vt 0.297630072 0.500348091
vt 0.297630072 0.491155148
vt 0.254525572 0.491155148
vt 0.254525572 0.500348091
vt 0.24075219 0.491155148
vt 0.24075219 0.500348091
vt 0.197647512 0.491155148
vt 0.197647512 0.500348091
vt 0.183874145 0.491155148
vt 0.183874145 0.500348091
vt 0.373407066 0.501248002
vt 0.406814426 0.510002971
vt 0.406814545 0.501248002
vt 0.373406947 0.510002971
vt 0.349936515 0.501248002
vt 0.349936336 0.510002971
vt 0.316529006 0.501248002
vt 0.316529006 0.510002971
vt 0.293058574 0.501248002
vt 0.293058574 0.510002971
vt 0.259651124 0.501248002
vt 0.259651244 0.510002971
vt 0.236180514 0.501248002
vt 0.236180589 0.510002971
vt 0.202773035 0.501248002
vt 0.202773035 0.510002971
vt 0.179302529 0.501248002
vt 0.179302394 0.510002971
vt 0.152341053 0.497526556
vt 0.182130128 0.492455095
vt 0.161560729 0.479605764
vt 0.174755573 0.506789386
vt 0.14836669 0.508656621
vt 0.171579778 0.515681386
vt 0.144152626 0.528369009
vt 0.168209895 0.531442225
vt 0.143230125 0.540147841
vt 0.167473018 0.54085964
vt 0.144305274 0.560265779
vt 0.168332502 0.556965053
vt 0.146478698 0.571876228
vt 0.170070559 0.566251397
vt 0.152762696 0.591022849
vt 0.17509748 0.581569314
vt 0.157894179 0.601665556
vt 0.179198623 0.59007591
vt 0.234272793 0.521521568
vt 0.22761853 0.537650406
vt 0.201188356 0.537650406
vt 0.194534019 0.521521568
vt 0.185059592 0.530996025
vt 0.201188356 0.537650406
vt 0.201188356 0.564080477
vt 0.185059592 0.570734799
vt 0.194534019 0.580209196
vt 0.201188356 0.564080477
vt 0.227618396 0.564080477
vt 0.234272793 0.580209196
vt 0.243747205 0.570734799
vt 0.227618396 0.564080477
vt 0.22761853 0.537650406
vt 0.243747279 0.530996025
vt 0.201188356 0.537650406
vt 0.22761853 0.537650406
vt 0.227618396 0.564080477
vt 0.201188356 0.564080477
vt 0.322065234 0.565958321
vt 0.282595873 0.57751894
vt 0.310504973 0.57751894
vt 0.271035403 0.5659585
vt 0.271035403 0.538049519
vt 0.322065234 0.538049459
vt 0.310504973 0.526489079
vt 0.282595873 0.526489139
vt 0.234272793 0.521521568
vt 0.22761853 0.537650406
vt 0.201188356 0.537650406
vt 0.194534019 0.521521568
vt 0.185059592 0.530996025
vt 0.201188356 0.537650406
vt 0.201188356 0.564080477
vt 0.185059592 0.570734799
vt 0.194534019 0.580209196
vt 0.201188356 0.564080477
vt 0.227618396 0.564080477
vt 0.234272793 0.580209196
vt 0.243747205 0.570734799
vt 0.227618396 0.564080477
vt 0.22761853 0.537650406
vt 0.243747279 0.530996025
vt 0.201188356 0.537650406
vt 0.22761853 0.537650406
vt 0.227618396 0.564080477
vt 0.201188356 0.564080477
vt 0.322065234 0.565958321
vt 0.282595873 0.57751894
vt 0.310504973 0.57751894
vt 0.271035403 0.5659585
vt 0.271035403 0.538049519
vt 0.322065234 0.538049459
vt 0.310504973 0.526489079
vt 0.282595873 0.526489139
vt 0.234272793 0.521521568
vt 0.22761853 0.537650406
vt 0.201188356 0.537650406
vt 0.194534019 0.521521568
vt 0.185059592 0.530996025
vt 0.201188356 0.537650406
vt 0.201188356 0.564080477
vt 0.185059592 0.570734799
vt 0.194534019 0.580209196
vt 0.201188356 0.564080477
vt 0.227618396 0.564080477
vt 0.234272793 0.580209196
vt 0.243747205 0.570734799
vt 0.227618396 0.564080477
vt 0.22761853 0.537650406
vt 0.243747279 0.530996025
vt 0.201188356 0.537650406
vt 0.22761853 0.537650406
vt 0.227618396 0.564080477
vt 0.201188356 0.564080477
vt 0.322065234 0.565958321
vt 0.282595873 0.57751894
vt 0.310504973 0.57751894
vt 0.271035403 0.5659585
vt 0.271035403 0.538049519
vt 0.322065234 0.538049459
vt 0.310504973 0.526489079
vt 0.282595873 0.526489139
vt 0.234272793 0.521521568
vt 0.22761853 0.537650406
vt 0.201188356 0.537650406
vt 0.194534019 0.521521568
vt 0.185059592 0.530996025
vt 0.201188356 0.537650406
vt 0.201188356 0.564080477
vt 0.185059592 0.570734799
vt 0.194534019 0.580209196
vt 0.201188356 0.564080477
vt 0.227618396 0.564080477
vt 0.234272793 0.580209196
vt 0.243747205 0.570734799
vt 0.227618396 0.564080477
vt 0.22761853 0.537650406
vt 0.243747279 0.530996025
vt 0.00336804357 0.764106929
vt 0.00336804357 0.809443891
vt 0.0207588784 0.809443891
vt 0.0207588784 0.764106691
vt 0.0363097563 0.809443891
vt 0.0363097563 0.764106691
vt 0.120393127 0.764107108
vt 0.120393127 0.809443891
vt 0.135994047 0.809443891
vt 0.135994047 0.764106929
vt 0.102861397 0.764107764
vt 0.102861397 0.809443891
vt 0.120393127 0.809443891
vt 0.120393127 0.764107108
vt 0.0871015564 0.764107943
vt 0.102861397 0.809443891
vt 0.102861397 0.764107764
vt 0.0871015564 0.809443891
vt 0.069469437 0.764108419
vt 0.069469437 0.809443891
vt 0.0536553785 0.764108598
vt 0.0536553785 0.809443891
vt 0.0363097563 0.764108777
vt 0.0363097563 0.809443891
vt 0.0536553785 0.809443891
vt 0.0536553785 0.764108598
vt 0.157264173 0.689855278
vt 0.157264173 0.735112071
vt 0.169070974 0.735112071
vt 0.169070974 0.689855695
vt 0.182457983 0.735112071
vt 0.182457983 0.689856172
vt 0.1940929 0.735112071
vt 0.1940929 0.689857364
vt 0.144577652 0.689853549
vt 0.144560009 0.735112071
vt 0.157264173 0.735112071
vt 0.157264173 0.689855278
vt 0.231968209 0.689859509
vt 0.243533179 0.735112071
vt 0.24352169 0.689858496
vt 0.231968209 0.735112071
vt 0.218569621 0.689859092
vt 0.218569621 0.735112071
vt 0.206768319 0.689858675
vt 0.206768319 0.735112071
vt 0.1940929 0.689857364
vt 0.1940929 0.735112071
vt 0.206768319 0.735112071
vt 0.206768319 0.689858675
vt 0.351830453 0.574397564
vt 0.359254688 0.585199714
vt 0.346531421 0.584570944
vt 0.341232687 0.574397624
vt 0.353955775 0.594101608
vt 0.333808362 0.585199714
vt 0.339107394 0.594101608
vt 0.346522063 0.584580362
vt 0.359245121 0.58520925
vt 0.353946149 0.594111264
vt 0.351820976 0.574407101
vt 0.339097708 0.594111264
vt 0.34122327 0.57440722
vt 0.333798856 0.58520925
vt 0.341226995 0.574391842
vt 0.346525788 0.584565163
vt 0.351824701 0.574391842
vt 0.3338027 0.585194051
vt 0.359248966 0.585194051
vt 0.339101613 0.594095886
vt 0.353950113 0.594095886
vt 0.346525788 0.584565163
vt 0.3338027 0.585194051
vt 0.341226995 0.574391842
vt 0.351824701 0.574391842
vt 0.339101613 0.594095886
vt 0.359248966 0.585194051
vt 0.353950113 0.594095886
vt 0.333793223 0.585203469
vt 0.341217428 0.574401379
vt 0.346516341 0.58457464
vt 0.339092016 0.594105422
vt 0.351815194 0.574401379
vt 0.353940427 0.594105422
vt 0.359239519 0.585203469
vt 0.256652474 0.572351277
vt 0.2663908 0.534849763
vt 0.256649226 0.531641662
vt 0.266389251 0.569017589
vt 0.279755771 0.522277772
vt 0.276932597 0.590739489
vt 0.276716858 0.512825131
vt 0.279851258 0.581225514
vt 0.314077348 0.521752238
vt 0.317598909 0.589793086
vt 0.316963375 0.512740433
vt 0.314452112 0.581225216
vt 0.328341633 0.534796238
vt 0.337506294 0.571227312
vt 0.337477475 0.531570613
vt 0.328342587 0.567961812
vt 0.236411393 0.583281577
vt 0.194903642 0.591282785
vt 0.193125963 0.583281577
vt 0.234633729 0.591282785
vt 0.174804702 0.57118398
vt 0.246731326 0.572961688
vt 0.182806045 0.572961688
vt 0.254732519 0.57118398
vt 0.174804702 0.531453848
vt 0.246731326 0.529676199
vt 0.182806045 0.529676199
vt 0.254732519 0.531453848
vt 0.194903642 0.511354983
vt 0.236411393 0.51935631
vt 0.193125963 0.51935631
vt 0.234633729 0.511354983
vt 0.256652474 0.572351277
vt 0.2663908 0.534849763
vt 0.256649226 0.531641662
vt 0.266389251 0.569017589
vt 0.279755771 0.522277772
vt 0.276932597 0.590739489
vt 0.276716858 0.512825131
vt 0.279851258 0.581225514
vt 0.314077348 0.521752238
vt 0.317598909 0.589793086
vt 0.316963375 0.512740433
vt 0.314452112 0.581225216
vt 0.328341633 0.534796238
vt 0.337506294 0.571227312
vt 0.337477475 0.531570613
vt 0.328342587 0.567961812
vt 0.236411393 0.583281577
vt 0.194903642 0.591282785
vt 0.193125963 0.583281577
vt 0.234633729 0.591282785
vt 0.174804702 0.57118398
vt 0.246731326 0.572961688
vt 0.182806045 0.572961688
vt 0.254732519 0.57118398
vt 0.174804702 0.531453848
vt 0.246731326 0.529676199
vt 0.182806045 0.529676199
vt 0.254732519 0.531453848
vt 0.194903642 0.511354983
vt 0.236411393 0.51935631
vt 0.193125963 0.51935631
vt 0.234633729 0.511354983
vt 0.195172146 0.915767908
vt 0.20123066 0.91304642
vt 0.201287389 0.896703184
vt 0.195211872 0.893904209
vt 0.208266318 0.928717196
vt 0.211069733 0.886900127
vt 0.211056277 0.92273128
vt 0.208310634 0.880853891
vt 0.230264947 0.928717196
vt 0.227547809 0.886895478
vt 0.227520749 0.92273128
vt 0.230309129 0.880872905
vt 0.243344903 0.915795267
vt 0.237288713 0.896663189
vt 0.237342566 0.913127661
vt 0.243351296 0.893893063
vn -0.57734555 0.577344835 -0.577360511
vn -0.57734561 0.577344775 -0.577360451
vn -0.57734555 0.577344835 -0.577360511
vn -0.577346385 -0.577345073 -0.577359438
vn -0.577346385 -0.577345073 -0.577359438
vn -0.577346265 -0.577345014 -0.577359438
vn 0.888916373 -0.45756042 -0.021589689
vn 0.457559854 -0.888916492 -0.0215957779
vn 0.577353418 -0.577352822 -0.577344596
vn 0.577352881 0.577351511 -0.577346504
vn 0.888916314 0.45756045 -0.0215915181
vn 0.888916969 0.021602625 -0.457558781
vn 0.577354312 0.577347875 0.57734865
vn 0.457562417 0.0216026101 0.888915062
vn 0.888917148 0.0215997584 0.457558453
vn 0.577352047 -0.57735008 0.577348828
vn 0.577351928 -0.577349961 0.577348828
vn 0.577351868 -0.57735002 0.577348888
vn -0.577351272 -0.577352226 0.577347338
vn -0.577351332 -0.577352166 0.577347338
vn -0.577351332 -0.577352166 0.577347338
vn -0.577350736 0.57735002 0.57735002
vn -0.577350736 0.57735002 0.57735002
vn -0.888916314 0.0216048677 0.457559884
vn -0.101618968 -0.101619095 -0.989619672
vn -0.101618968 -0.101619102 -0.989619672
vn -0.101618968 -0.101619102 -0.989619672
vn -0.101618424 0.10161861 -0.989619792
vn -0.101618424 0.10161861 -0.989619792
vn -0.101618424 0.10161861 -0.989619792
vn 0.101619624 0.101617791 -0.989619792
vn 0.101619631 0.101617791 -0.989619792
vn 0.101619631 0.101617806 -0.989619792
vn 0.101618752 -0.101618893 -0.989619792
vn 0.101618752 -0.101618879 -0.989619792
vn 0.101618744 -0.101618879 -0.989619672
vn -0.101619154 0.989619672 -0.101619393
vn -0.101619139 0.989619672 -0.101619393
vn -0.101619139 0.989619672 -0.101619393
vn -0.101618625 0.989619792 0.101618879
vn -0.10161861 0.989619792 0.101618879
vn -0.101618618 0.989619792 0.101618901
vn 0.101618767 0.989619792 0.101618506
vn 0.101618782 0.989619792 0.101618513
vn 0.101618782 0.989619792 0.101618506
vn 0.101618931 0.989619672 -0.101619191
vn 0.101618938 0.989619672 -0.101619184
vn 0.101618931 0.989619672 -0.101619191
vn 0.989619315 0.101621106 -0.10162127
vn 0.989619315 0.101621114 -0.101621285
vn 0.989619315 0.101621114 -0.10162127
vn 0.989619672 0.10161896 0.101619132
vn 0.989619672 0.10161896 0.101619132
vn 0.989619672 0.101618968 0.101619132
vn 0.989619792 -0.101618789 0.101618789
vn 0.989619792 -0.101618789 0.101618789
vn 0.989619792 -0.101618789 0.101618789
vn 0.989619315 -0.101620764 -0.101621032
vn 0.989619315 -0.101620749 -0.101621024
vn 0.989619315 -0.101620764 -0.101621024
vn -0.989619672 0.101618841 0.101619005
vn -0.989619672 0.101618826 0.101619005
vn -0.989619672 0.101618841 0.101619005
vn -0.989619672 0.101618797 -0.101619117
vn -0.989619672 0.101618789 -0.101619117
vn -0.989619672 0.101618797 -0.101619117
vn -0.989619672 -0.101619042 -0.101618908
vn -0.989619672 -0.101619057 -0.101618923
vn -0.989619672 -0.101619042 -0.101618908
vn -0.989619672 -0.101618707 0.101618968
vn -0.989619672 -0.101618707 0.101618968
vn -0.989619672 -0.101618707 0.101618968
vn -0.832410514 -0.302205443 0.464504689
vn -0.832410753 -0.302204996 -0.46450451
vn -0.540147364 -0.680110574 -0.495671809
vn -0.540145397 -0.680110931 0.495673239
vn -0.464502275 -0.302205712 -0.832411766
vn 0.464501232 -0.302204639 -0.832412779
vn 0.495669514 -0.680112481 -0.540146887
vn -0.495672792 -0.680113554 -0.540142715
vn 0.832411587 -0.302202821 -0.464504331
vn 0.832411766 -0.30220291 0.464504033
vn 0.540148258 -0.680109799 0.495671719
vn 0.540147662 -0.680109918 -0.495672286
vn 0.464500964 -0.302197754 0.832415402
vn -0.464500695 -0.302209079 0.832411468
vn -0.464507192 -0.832415164 0.302188933
vn 0.464500129 -0.832405567 0.302226126
vn -0.495670527 0.540145695 0.680112779
vn 0.495671362 0.540136278 0.680119634
vn 0.464499801 0.832406044 0.302224934
vn -0.464500576 0.832418323 0.302190185
vn 0.680111945 0.540147126 0.49567011
vn 0.680112302 0.540146112 -0.495670706
vn 0.540143311 0.680114269 -0.495671093
vn 0.540143192 0.680114865 0.495670557
vn 0.495669395 0.540146053 -0.680113316
vn -0.495672196 0.540143251 -0.680113554
vn -0.495672047 0.680113912 -0.540142715
vn 0.495669931 0.680112839 -0.540146291
vn -0.680115402 0.540140986 -0.495671988
vn -0.680115402 0.540140688 0.495672375
vn -0.540145993 0.680110931 0.495672792
vn -0.540146291 0.680110693 -0.495672673
vn 0.540133536 0.495665938 0.680125773
vn 0.540134788 -0.495665312 0.680125356
vn 0.83240217 -0.464501321 0.302233428
vn 0.83240211 0.46450159 0.302233398
vn 0.577343047 0.577348828 0.577358961
vn 0.464499801 0.832406044 0.302224934
vn 0.540143192 0.680114865 0.495670557
vn 0.495671362 0.540136278 0.680119634
vn 0.680111945 0.540147126 0.49567011
vn -0.540152729 -0.495675564 0.680103481
vn -0.540154338 0.495674759 0.680102766
vn -0.832417667 0.464510083 0.302177519
vn -0.832418442 -0.464507669 0.302179039
vn 0.540144742 -0.495669663 -0.680114269
vn 0.540142596 0.495670319 -0.680115283
vn 0.680112183 0.495669484 -0.540147305
vn 0.680112898 -0.495669961 -0.540145993
vn 0.577348948 -0.577349544 -0.577352345
vn 0.495669514 -0.680112481 -0.540146887
vn 0.540147662 -0.680109918 -0.495672286
vn 0.464501232 -0.302204639 -0.832412779
vn 0.832411587 -0.302202821 -0.464504331
vn -0.540147483 0.495671034 -0.680110931
vn -0.540146172 -0.495672405 -0.680111051
vn -0.680115342 -0.495671153 -0.540141821
vn -0.680115879 0.495671988 -0.540140331
vn -0.577351749 0.577349246 -0.577349842
vn -0.495672047 0.680113912 -0.540142715
vn -0.540146291 0.680110693 -0.495672673
vn -0.495672196 0.540143251 -0.680113554
vn -0.680115402 0.540140986 -0.495671988
vn -0 4.7914574E-07 -1
vn -0 4.7914574E-07 -1
vn -0 4.7914574E-07 -1
vn -0 4.7914574E-07 -1
vn -1.79571984E-07 -6.13090663E-07 1
vn -1.79572012E-07 -6.1309072E-07 1
vn -1.79572012E-07 -6.13090663E-07 1
vn -1.79572012E-07 -6.13090663E-07 1
vn -5.55563815E-07 5.07907089E-07 1
vn -5.55563815E-07 5.07907089E-07 1
vn -5.38718552E-07 -6.74400007E-06 1
vn -5.38718552E-07 -6.74399962E-06 1
vn -0.464502275 -0.302205712 -0.832411766
vn 0.382683575 1.21165533E-06 -0.923879445
vn 0.464501232 -0.302204639 -0.832412779
vn -0.382682234 -1.21165124E-06 -0.923880041
vn -0.832410753 -0.302204996 -0.46450451
vn -0.923878789 -4.62098615E-06 -0.382685155
vn -0.832410514 -0.302205443 0.464504689
vn -0.923878789 -4.62098615E-06 0.382685155
vn -0.382682234 -1.21165124E-06 0.923880041
vn -0.464500695 -0.302209079 0.832411468
vn 0.464500964 -0.302197754 0.832415402
vn 0.382683575 1.21165533E-06 0.923879445
vn 0.832411766 -0.30220291 0.464504033
vn 0.923879027 1.21165249E-06 0.382684618
vn 0.832411587 -0.302202821 -0.464504331
vn 0.923879027 1.21165249E-06 -0.382684618
vn 0.464501232 -0.302204639 -0.832412779
vn 0.382683575 1.21165533E-06 -0.923879445
vn -0.382977486 -0.0447731353 -0.922671974
vn 0.381595254 -0.044778619 -0.923244298
vn 0.38298133 -0.044783242 -0.922669828
vn -0.381599605 -0.0447685607 -0.923242986
vn -0.922670066 -0.0447624549 -0.382983446
vn -0.923245847 -0.0447578058 -0.381593853
vn -0.922671378 -0.0447573885 0.382980824
vn -0.923244953 -0.0447527841 0.381596833
vn -0.382978797 -0.0447609499 0.922671974
vn -0.381598741 -0.0447563715 0.92324388
vn 0.382982582 -0.0447710678 0.922669947
vn 0.38159433 -0.0447664447 0.923245251
vn 0.922671378 -0.0447853059 0.382977486
vn 0.923242509 -0.0447807573 0.381599277
vn 0.922670066 -0.0447903723 -0.382980287
vn 0.923243523 -0.0447857715 -0.381596386
vn 0.38298133 -0.044783242 -0.922669828
vn 0.381595254 -0.044778619 -0.923244298
vn -0.908400595 -0.172618002 0.380803645
vn -0.911839008 -0.172456443 -0.372570068
vn -0.908399224 -0.172619775 -0.380806059
vn -0.888916314 0.0216048677 0.457559884
vn -0.380804241 -0.172618717 0.908400178
vn -0.372568876 -0.172455475 0.911839724
vn 0.38080582 -0.17262055 0.908399224
vn 0.457562417 0.0216026101 0.888915062
vn 0.908400416 -0.172622472 0.380801976
vn 0.888917148 0.0215997584 0.457558453
vn 0.908400595 -0.172622159 -0.380801767
vn 0.888916969 0.021602625 -0.457558781
vn 0.380804598 -0.172622308 -0.908399284
vn 0.580335319 0.575853288 -0.575850487
vn -0.380802035 -0.172622204 -0.908400476
vn -0.580332577 0.575849593 -0.575857043
vn -0.908399224 -0.172619775 -0.380806059
vn -0.911839008 -0.172456443 -0.372570068
vn -0.832417667 0.464510083 0.302177519
vn -0.923880756 -0.382680416 -3.49174261E-05
vn -0.832418442 -0.464507669 0.302179039
vn -0.923879921 0.382682413 -3.85326748E-05
vn -0.464500576 0.832418323 0.302190185
vn -0.382692963 0.92387557 -1.80768257E-05
vn 0.464499801 0.832406044 0.302224934
vn 0.382675886 0.923882663 1.32557043E-05
vn 0.923877776 0.382687658 3.37122183E-05
vn 0.83240211 0.46450159 0.302233398
vn 0.83240217 -0.464501321 0.302233428
vn 0.923877776 -0.382687628 3.37253878E-05
vn 0.464500129 -0.832405567 0.302226126
vn 0.382675916 -0.923882544 1.3268871E-05
vn -0.464507192 -0.832415164 0.302188933
vn -0.382690996 -0.923876345 -1.44613323E-05
vn -0.832418442 -0.464507669 0.302179039
vn -0.923880756 -0.382680416 -3.49174261E-05
vn -0.922671974 0.382977486 0.0447732843
vn -0.923244715 -0.381594241 0.0447786227
vn -0.92266947 -0.382982343 0.0447832569
vn -0.923242867 0.381599575 0.0447687171
vn -0.382983327 0.922670066 0.0447630584
vn -0.381593913 0.923245728 0.0447584167
vn 0.382980764 0.922671378 0.0447579809
vn 0.381596863 0.923244834 0.0447533801
vn 0.922671974 0.382978857 0.0447610915
vn 0.92324388 0.381598711 0.0447565094
vn 0.92266947 -0.382983685 0.0447710715
vn 0.923245609 -0.381593287 0.0447664298
vn 0.382977933 -0.922671258 0.0447826311
vn 0.38159883 -0.923242807 0.0447780639
vn -0.382980615 -0.922670066 0.0447877161
vn -0.38159591 -0.923243701 0.0447831042
vn -0.92266947 -0.382982343 0.0447832569
vn -0.923244715 -0.381594241 0.0447786227
vn 0.380806297 0.908398509 0.172623038
vn -0.580332577 0.575849593 -0.575857043
vn -0.380802125 0.908401787 0.172615036
vn 0.580335319 0.575853288 -0.575850487
vn 0.908399284 0.380801231 0.172629744
vn 0.888916314 0.45756045 -0.0215915181
vn 0.90839833 -0.3808029 0.172631815
vn 0.888916373 -0.45756042 -0.021589689
vn 0.380804539 -0.90839833 0.17262809
vn 0.457559854 -0.888916492 -0.0215957779
vn -0.38080126 -0.908401072 0.17262049
vn -0.372570843 -0.911838531 0.172457442
vn -0.908400476 -0.380805731 0.17261374
vn -0.911841393 -0.372566998 0.172450364
vn -0.90840137 0.380804718 0.172611415
vn -0.911841094 0.372568637 0.172448114
vn -0.380802125 0.908401787 0.172615036
vn -0.580332577 0.575849593 -0.575857043
vn -0 -0.143651217 -0.989628434
vn -0 -0.143651217 -0.989628434
vn -0 -0.143651217 -0.989628434
vn -0 -0.143651217 -0.989628434
vn -0.143651053 1.89057914E-07 -0.989628434
vn -0.143651053 1.89057914E-07 -0.989628434
vn -0.143651024 1.89057914E-07 -0.989628434
vn -0.143651053 1.89057943E-07 -0.989628434
vn -0 0.143650487 -0.989628553
vn -0 0.143650472 -0.989628553
vn -0 0.143650487 -0.989628553
vn -0 0.143650472 -0.989628553
vn 0.143651217 4.89610954E-07 -0.989628434
vn 0.143651232 4.89610954E-07 -0.989628434
vn 0.143651217 4.89610954E-07 -0.989628434
vn 0.143651217 4.89610954E-07 -0.989628434
vn -0 1 4.7914574E-07
vn -0 1 4.7914574E-07
vn -0 1 4.7914574E-07
vn -0 1 4.7914574E-07
vn -1.79571629E-07 -1 -1.22619394E-06
vn -1.79571629E-07 -1 -1.22619394E-06
vn -1.79571629E-07 -1 -1.22619394E-06
vn -1.79571629E-07 -1 -1.22619394E-06
vn -5.55565009E-07 -1 5.07907373E-07
vn -5.55565009E-07 -1 5.07907373E-07
vn -5.38713607E-07 -1 -4.90473121E-06
vn -5.38713607E-07 -1 -4.90473076E-06
vn -0 0.989628315 -0.14365159
vn -0 0.989628315 -0.14365159
vn -0 0.989628315 -0.14365159
vn -0 0.989628315 -0.14365159
vn -0.143651441 0.989628434 1.89057872E-07
vn -0.143651441 0.989628434 1.89057857E-07
vn -0.143651441 0.989628434 1.89057872E-07
vn -0.143651441 0.989628434 1.89057872E-07
vn -0 0.989628434 0.143650815
vn -0 0.989628434 0.143650845
vn -0 0.989628434 0.143650845
vn -0 0.989628434 0.143650845
vn 0.143651217 0.989628434 2.99947118E-07
vn 0.143651232 0.989628434 2.99947118E-07
vn 0.143651217 0.989628434 2.99947118E-07
vn 0.143651217 0.989628434 2.99947118E-07
vn 1 0 1.91658296E-06
vn 1 0 1.91658296E-06
vn 1 0 1.91658296E-06
vn 1 0 1.91658296E-06
vn -1 0 -1.96190449E-05
vn -1 0 -1.96190449E-05
vn -1 0 -1.96190449E-05
vn -1 0 -1.96190449E-05
vn -1 0 0
vn -1 0 0
vn -1 0 -4.90473803E-06
vn -1 0 -4.90473758E-06
vn 0.989627957 0 -0.143654227
vn 0.989627957 0 -0.143654212
vn 0.989627957 0 -0.143654227
vn 0.989627957 0 -0.143654227
vn 0.989628077 0.14365305 7.56837551E-07
vn 0.989628196 0.143653035 7.56837721E-07
vn 0.989628196 0.143653035 7.56837665E-07
vn 0.989628196 0.143653035 7.56837665E-07
vn 0.989628434 0 0.143651217
vn 0.989628434 0 0.143651202
vn 0.989628434 0 0.143651232
vn 0.989628434 0 0.143651217
vn 0.989628196 -0.143652514 8.11370626E-07
vn 0.989628196 -0.143652514 8.11370683E-07
vn 0.989628196 -0.143652514 8.11370796E-07
vn 0.989628196 -0.143652514 8.11370796E-07
vn -1 0 0
vn -1 0 0
vn -1 0 0
vn -1 0 0
vn 1 0 0
vn 1 0 0
vn 1 0 0
vn 1 0 0
vn 1 0 0
vn 1 0 0
vn 1 0 1.96190722E-05
vn 1 0 1.96190722E-05
vn -0.989628434 0 0.143651232
vn -0.989628434 0 0.143651217
vn -0.989628434 0 0.143651232
vn -0.989628434 0 0.143651232
vn -0.989628434 0.143651292 0
vn -0.989628434 0.143651292 0
vn -0.989628434 0.143651292 0
vn -0.989628434 0.143651292 0
vn -0.989628434 0 -0.143651351
vn -0.989628434 0 -0.143651336
vn -0.989628434 0 -0.143651307
vn -0.989628434 0 -0.143651336
vn -0.989628434 -0.143651217 0
vn -0.989628434 -0.143651217 0
vn -0.989628434 -0.143651202 0
vn -0.989628434 -0.143651217 0
vn 0.382692695 -0.923875749 8.09821286E-05
vn 0.382676214 -0.923882544 8.09827034E-05
vn -0.382677704 -0.923881948 8.01915376E-05
vn -0.382691413 -0.923876286 8.0191021E-05
vn -0.70710963 -0.707103908 6.08408845E-05
vn -0.70710963 -0.707103908 6.08408845E-05
vn 0.707107067 -0.707106411 6.23029482E-05
vn 0.707107127 -0.707106352 6.23029409E-05
vn 0.382676214 -0.923882544 8.09827034E-05
vn 0.382692695 -0.923875749 8.09821286E-05
vn 1 -1.68034535E-06 6.89165518E-07
vn 1 -1.68034512E-06 6.89165404E-07
vn 1 -1.68034535E-06 6.89165518E-07
vn 1 -1.68034512E-06 6.89165404E-07
vn 0.382677108 0.923882186 -8.0580714E-05
vn 0.707108438 0.707105041 -6.13878074E-05
vn 0.707108557 0.707104981 -6.13878074E-05
vn 0.382692128 0.923875868 -8.05801537E-05
vn -0.382680327 0.923880816 -8.13719162E-05
vn -0.382693499 0.923875332 -8.13714505E-05
vn -0.707112074 0.707101405 -6.28497073E-05
vn -0.707112074 0.707101405 -6.28496928E-05
vn -1 0 -2.06705545E-06
vn -1 0 -2.06705545E-06
vn -1 0 -2.06705545E-06
vn -1 0 -2.06705545E-06
vn 0.707103431 0.707110107 -0.000297077699
vn 0.707103431 0.707110107 -0.000297077728
vn 0.382675588 0.923882663 -0.000327367597
vn 0.382683784 0.923879325 -0.000327367539
vn -0.382674515 0.9238832 -0.000327629416
vn -0.382682234 0.923880041 -0.000327629241
vn -0.707096636 0.707116842 -0.000297563296
vn -0.707096636 0.707116783 -0.000297563296
vn 1 -4.48621631E-06 -0.000235643907
vn 1 -4.48621631E-06 -0.000235643951
vn 1 -4.48621631E-06 -0.000235643951
vn 1 -4.48621677E-06 -0.000235643922
vn 0.38266933 -0.923885405 -0.00016608843
vn 0.707101882 -0.707111597 -0.000173567663
vn 0.707101882 -0.707111657 -0.000173567663
vn 0.382689089 -0.92387718 -0.00016608958
vn -0.382661939 -0.923888385 -0.000166349797
vn -0.382689029 -0.92387718 -0.000166351398
vn -0.707093 -0.707120478 -0.00017405214
vn -0.707093 -0.707120478 -0.00017405214
vn -1 0 -0.000236333304
vn -1 0 -0.000236333304
vn -1 0 -0.000236333304
vn -1 0 -0.000236333304
vn -0.540146172 -0.495672405 -0.680111051
vn -0.540147364 -0.680110574 -0.495671809
vn -0.577350855 -0.577349901 -0.57735002
vn -0.680115342 -0.495671153 -0.540141821
vn -0.832410753 -0.302204996 -0.46450451
vn -0.495672792 -0.680113554 -0.540142715
vn -0.464502275 -0.302205712 -0.832411766
vn 0.577348113 0.577350378 -0.577352285
vn 0.540143311 0.680114269 -0.495671093
vn 0.680112302 0.540146112 -0.495670706
vn 0.540142596 0.495670319 -0.680115283
vn 0.495669395 0.540146053 -0.680113316
vn 0.680112183 0.495669484 -0.540147305
vn 0.495669931 0.680112839 -0.540146291
vn -0.832418442 -0.464507669 0.302179039
vn -0.577354431 -0.577352643 0.577343643
vn -0.540152729 -0.495675564 0.680103481
vn -0.464507192 -0.832415164 0.302188933
vn -0.540145397 -0.680110931 0.495673239
vn -0.464500695 -0.302209079 0.832411468
vn -0.832410514 -0.302205443 0.464504689
vn -0.577354074 0.577351987 0.577344835
vn -0.464500576 0.832418323 0.302190185
vn -0.832417667 0.464510083 0.302177519
vn -0.540154338 0.495674759 0.680102766
vn -0.495670527 0.540145695 0.680112779
vn -0.540145993 0.680110931 0.495672792
vn -0.680115402 0.540140688 0.495672375
vn 0.464500129 -0.832405567 0.302226126
vn 0.83240217 -0.464501321 0.302233428
vn 0.577344179 -0.577346623 0.577359915
vn 0.464500964 -0.302197754 0.832415402
vn 0.540134788 -0.495665312 0.680125356
vn 0.832411766 -0.30220291 0.464504033
vn 0.540148258 -0.680109799 0.495671719
vn -0.287219346 0.114112079 0.951043308
vn -0.282937914 -0.127133459 0.95067513
vn -0.287219465 -0.114112347 0.951043308
vn -0.282937706 0.127133712 0.95067513
vn -0.127133831 -0.282937765 0.95067513
vn -0.114112444 0.287219584 0.951043189
vn -0.114112005 -0.287219554 0.951043308
vn -0.12713325 0.282938212 0.95067513
vn 0.127133042 -0.282937676 0.950675249
vn 0.114112444 0.287219584 0.951043189
vn 0.114112228 -0.287219226 0.951043427
vn 0.12713325 0.282938212 0.95067513
vn 0.282937527 -0.12713334 0.950675249
vn 0.287219405 0.114112079 0.951043308
vn 0.287219137 -0.114112169 0.951043427
vn 0.282937706 0.127133712 0.95067513
vn -0.586742938 0.363900959 -0.723400831
vn -0.590326667 -0.181255311 -0.786550045
vn -0.586742997 -0.36390084 -0.72340095
vn -0.590326667 0.181255355 -0.786550045
vn -0.181255192 -0.590325713 -0.78655076
vn -0.363900751 0.586742699 -0.723401129
vn -0.363900751 -0.586742461 -0.723401368
vn -0.181255236 0.590326011 -0.786550462
vn 0.181255192 -0.590325713 -0.78655076
vn 0.363900751 0.586742699 -0.723401129
vn 0.363900751 -0.586742461 -0.723401368
vn 0.181255251 0.59032613 -0.786550462
vn 0.590326667 -0.181255311 -0.786550045
vn 0.586742938 0.363900989 -0.723400831
vn 0.586742997 -0.36390084 -0.72340095
vn 0.590326786 0.18125537 -0.786549985
vn -0.114112169 -0.951043189 -0.287219822
vn 0.127133518 -0.95067513 -0.282937974
vn 0.114112578 -0.951043189 -0.287219495
vn -0.12713401 -0.950675011 -0.282938093
vn 0.282937855 -0.95067513 -0.127133623
vn -0.287219614 -0.951043189 -0.11411228
vn 0.287219614 -0.951043308 -0.114111885
vn -0.282938123 -0.950675011 -0.127133623
vn 0.282937795 -0.950675249 0.127133206
vn -0.287219614 -0.951043308 0.114112265
vn 0.287219346 -0.951043427 0.114111975
vn -0.282938033 -0.95067513 0.127133593
vn 0.127133399 -0.950675249 0.282937527
vn -0.114112079 -0.951043308 0.287219614
vn 0.114112385 -0.951043427 0.287219077
vn -0.127133921 -0.95067513 0.282937825
vn -0.363900572 0.723401368 -0.58674258
vn 0.18125473 0.786551118 -0.590325356
vn 0.363899499 0.723402321 -0.586742043
vn -0.181255132 0.78655076 -0.590325713
vn 0.590324163 0.786552012 -0.181254953
vn -0.586742818 0.72340095 -0.363901019
vn 0.586740732 0.723402798 -0.363900691
vn -0.590326667 0.786550045 -0.181255341
vn 0.590324163 0.786552012 0.181254968
vn -0.586742818 0.72340095 0.363901019
vn 0.586740732 0.723402739 0.363900661
vn -0.590326667 0.786550045 0.181255341
vn 0.181254759 0.786551058 0.590325415
vn -0.363900572 0.723401368 0.58674258
vn 0.363899529 0.723402321 0.586742043
vn -0.181255132 0.78655076 0.590325713
vn -1.45867998E-05 6.79540108E-06 1
vn -1.44732066E-05 6.2802992E-06 1
vn -6.23487904E-06 -1.9580234E-06 1
vn -5.92920151E-06 -1.86202806E-06 1
vn -4.93343805E-06 2.05158085E-05 1
vn -1.9580159E-06 6.23477217E-06 1
vn -4.32231036E-06 2.07077846E-05 1
vn -1.86207831E-06 5.92928518E-06 1
vn 3.72406566E-06 1.18581984E-05 1
vn -1.01964488E-05 1.44732294E-05 1
vn 3.91608091E-06 1.24696153E-05 1
vn -1.05196077E-05 1.45868162E-05 1
vn -1.18585185E-05 3.72404793E-06 1
vn -2.0708314E-05 1.21544281E-05 1
vn -1.24699736E-05 3.91606909E-06 1
vn -2.05162687E-05 1.23817636E-05 1
g P_Bend_Vert1_0
f 3/3/3 2/2/2 1/1/1
f 6/6/6 5/5/5 4/4/4
f 9/9/9 8/8/8 7/7/7
f 12/12/12 11/11/11 10/10/10
f 15/15/15 14/14/14 13/13/13
f 18/18/18 17/17/17 16/16/16
f 21/21/21 20/20/20 19/19/19
f 24/24/24 23/23/23 22/22/22
f 27/27/27 26/26/26 25/25/25
f 30/30/30 29/29/29 28/28/28
f 33/33/33 32/32/32 31/31/31
f 36/36/36 35/35/35 34/34/34
f 39/39/39 38/38/38 37/37/37
f 42/42/42 41/41/41 40/40/40
f 45/45/45 44/44/44 43/43/43
f 48/48/48 47/47/47 46/46/46
f 51/51/51 50/50/50 49/49/49
f 54/54/54 53/53/53 52/52/52
f 57/57/57 56/56/56 55/55/55
f 60/60/60 59/59/59 58/58/58
f 63/63/63 62/62/62 61/61/61
f 66/66/66 65/65/65 64/64/64
f 69/69/69 68/68/68 67/67/67
f 72/72/72 71/71/71 70/70/70
f 75/75/75 74/74/74 73/73/73
f 76/76/76 75/75/75 73/73/73
f 79/79/79 78/78/78 77/77/77
f 80/80/80 79/79/79 77/77/77
f 83/83/83 82/82/82 81/81/81
f 84/84/84 83/83/83 81/81/81
f 87/87/87 86/86/86 85/85/85
f 88/88/88 87/87/87 85/85/85
f 91/91/91 90/90/90 89/89/89
f 92/92/92 91/91/91 89/89/89
f 95/95/95 94/94/94 93/93/93
f 96/96/96 95/95/95 93/93/93
f 99/99/99 98/98/98 97/97/97
f 100/100/100 99/99/99 97/97/97
f 103/103/103 102/102/102 101/101/101
f 104/104/104 103/103/103 101/101/101
f 107/107/107 106/106/106 105/105/105
f 108/108/108 107/107/107 105/105/105
f 105/105/105 109/109/109 108/108/108
f 109/109/109 110/110/110 108/108/108
f 109/109/109 105/105/105 111/111/111
f 112/112/112 110/110/110 109/109/109
f 113/113/113 109/109/109 111/111/111
f 109/109/109 113/113/113 112/112/112
f 116/116/116 115/115/115 114/114/114
f 117/117/117 116/116/116 114/114/114
f 120/120/120 119/119/119 118/118/118
f 121/121/121 120/120/120 118/118/118
f 121/121/121 118/118/118 122/122/122
f 122/122/122 123/123/123 121/121/121
f 122/122/122 118/118/118 124/124/124
f 123/123/123 122/122/122 125/125/125
f 126/126/126 122/122/122 124/124/124
f 126/126/126 125/125/125 122/122/122
f 129/129/129 128/128/128 127/127/127
f 130/130/130 129/129/129 127/127/127
f 127/127/127 131/131/131 130/130/130
f 132/132/132 130/130/130 131/131/131
f 131/131/131 127/127/127 133/133/133
f 134/134/134 132/132/132 131/131/131
f 135/135/135 131/131/131 133/133/133
f 131/131/131 135/135/135 134/134/134
f 138/138/138 137/137/137 136/136/136
f 139/139/139 138/138/138 136/136/136
f 142/142/142 141/141/141 140/140/140
f 141/141/141 143/143/143 140/140/140
f 143/143/143 144/144/144 140/140/140
f 144/144/144 145/145/145 140/140/140
f 146/146/146 145/145/145 144/144/144
f 147/147/147 146/146/146 144/144/144
f 150/150/150 149/149/149 148/148/148
f 149/149/149 151/151/151 148/148/148
f 152/152/152 148/148/148 151/151/151
f 153/153/153 152/152/152 151/151/151
f 152/152/152 153/153/153 154/154/154
f 153/153/153 155/155/155 154/154/154
f 155/155/155 156/156/156 154/154/154
f 156/156/156 157/157/157 154/154/154
f 157/157/157 156/156/156 158/158/158
f 156/156/156 159/159/159 158/158/158
f 160/160/160 158/158/158 159/159/159
f 161/161/161 160/160/160 159/159/159
f 160/160/160 161/161/161 162/162/162
f 161/161/161 163/163/163 162/162/162
f 164/164/164 162/162/162 163/163/163
f 165/165/165 164/164/164 163/163/163
f 168/168/168 167/167/167 166/166/166
f 167/167/167 169/169/169 166/166/166
f 166/166/166 169/169/169 170/170/170
f 169/169/169 171/171/171 170/170/170
f 170/170/170 171/171/171 172/172/172
f 171/171/171 173/173/173 172/172/172
f 172/172/172 173/173/173 174/174/174
f 173/173/173 175/175/175 174/174/174
f 174/174/174 175/175/175 176/176/176
f 175/175/175 177/177/177 176/176/176
f 176/176/176 177/177/177 178/178/178
f 177/177/177 179/179/179 178/178/178
f 178/178/178 179/179/179 180/180/180
f 179/179/179 181/181/181 180/180/180
f 180/180/180 181/181/181 182/182/182
f 181/181/181 183/183/183 182/182/182
f 186/186/186 185/185/185 184/184/184
f 185/185/185 187/187/187 184/184/184
f 184/184/184 187/187/187 188/188/188
f 187/187/187 189/189/189 188/188/188
f 188/188/188 189/189/189 190/190/190
f 189/189/189 191/191/191 190/190/190
f 190/190/190 191/191/191 192/192/192
f 191/191/191 193/193/193 192/192/192
f 192/192/192 193/193/193 194/194/194
f 193/193/193 195/195/195 194/194/194
f 194/194/194 195/195/195 196/196/196
f 195/195/195 197/197/197 196/196/196
f 196/196/196 197/197/197 198/198/198
f 197/197/197 199/199/199 198/198/198
f 198/198/198 199/199/199 200/200/200
f 199/199/199 201/201/201 200/200/200
f 204/204/204 203/203/203 202/202/202
f 203/203/203 205/205/205 202/202/202
f 206/206/206 202/202/202 205/205/205
f 207/207/207 206/206/206 205/205/205
f 206/206/206 207/207/207 208/208/208
f 207/207/207 209/209/209 208/208/208
f 209/209/209 210/210/210 208/208/208
f 210/210/210 211/211/211 208/208/208
f 211/211/211 210/210/210 212/212/212
f 210/210/210 213/213/213 212/212/212
f 214/214/214 212/212/212 213/213/213
f 215/215/215 214/214/214 213/213/213
f 214/214/214 215/215/215 216/216/216
f 215/215/215 217/217/217 216/216/216
f 218/218/218 216/216/216 217/217/217
f 219/219/219 218/218/218 217/217/217
f 222/222/222 221/221/221 220/220/220
f 221/221/221 223/223/223 220/220/220
f 220/220/220 223/223/223 224/224/224
f 223/223/223 225/225/225 224/224/224
f 224/224/224 225/225/225 226/226/226
f 225/225/225 227/227/227 226/226/226
f 226/226/226 227/227/227 228/228/228
f 227/227/227 229/229/229 228/228/228
f 228/228/228 229/229/229 230/230/230
f 229/229/229 231/231/231 230/230/230
f 230/230/230 231/231/231 232/232/232
f 231/231/231 233/233/233 232/232/232
f 232/232/232 233/233/233 234/234/234
f 233/233/233 235/235/235 234/234/234
f 234/234/234 235/235/235 236/236/236
f 235/235/235 237/237/237 236/236/236
f 240/240/240 239/239/239 238/238/238
f 239/239/239 241/241/241 238/238/238
f 238/238/238 241/241/241 242/242/242
f 241/241/241 243/243/243 242/242/242
f 242/242/242 243/243/243 244/244/244
f 243/243/243 245/245/245 244/244/244
f 244/244/244 245/245/245 246/246/246
f 245/245/245 247/247/247 246/246/246
f 246/246/246 247/247/247 248/248/248
f 247/247/247 249/249/249 248/248/248
f 248/248/248 249/249/249 250/250/250
f 249/249/249 251/251/251 250/250/250
f 250/250/250 251/251/251 252/252/252
f 251/251/251 253/253/253 252/252/252
f 252/252/252 253/253/253 254/254/254
f 253/253/253 255/255/255 254/254/254
f 258/258/258 257/257/257 256/256/256
f 259/259/259 258/258/258 256/256/256
f 262/262/262 261/261/261 260/260/260
f 263/263/263 262/262/262 260/260/260
f 266/266/266 265/265/265 264/264/264
f 267/267/267 266/266/266 264/264/264
f 270/270/270 269/269/269 268/268/268
f 271/271/271 270/270/270 268/268/268
f 274/274/274 273/273/273 272/272/272
f 275/275/275 274/274/274 272/272/272
f 278/278/278 277/277/277 276/276/276
f 277/277/277 279/279/279 276/276/276
f 279/279/279 280/280/280 276/276/276
f 280/280/280 281/281/281 276/276/276
f 282/282/282 281/281/281 280/280/280
f 283/283/283 282/282/282 280/280/280
f 286/286/286 285/285/285 284/284/284
f 287/287/287 286/286/286 284/284/284
f 290/290/290 289/289/289 288/288/288
f 291/291/291 290/290/290 288/288/288
f 294/294/294 293/293/293 292/292/292
f 295/295/295 294/294/294 292/292/292
f 298/298/298 297/297/297 296/296/296
f 299/299/299 298/298/298 296/296/296
f 302/302/302 301/301/301 300/300/300
f 303/303/303 302/302/302 300/300/300
f 306/306/306 305/305/305 304/304/304
f 305/305/305 307/307/307 304/304/304
f 307/307/307 308/308/308 304/304/304
f 308/308/308 309/309/309 304/304/304
f 310/310/310 309/309/309 308/308/308
f 311/311/311 310/310/310 308/308/308
f 314/314/314 313/313/313 312/312/312
f 315/315/315 314/314/314 312/312/312
f 318/318/318 317/317/317 316/316/316
f 319/319/319 318/318/318 316/316/316
f 322/322/322 321/321/321 320/320/320
f 323/323/323 322/322/322 320/320/320
f 326/326/326 325/325/325 324/324/324
f 327/327/327 326/326/326 324/324/324
f 330/330/330 329/329/329 328/328/328
f 331/331/331 330/330/330 328/328/328
f 334/334/334 333/333/333 332/332/332
f 333/333/333 335/335/335 332/332/332
f 335/335/335 336/336/336 332/332/332
f 336/336/336 337/337/337 332/332/332
f 338/338/338 337/337/337 336/336/336
f 339/339/339 338/338/338 336/336/336
f 342/342/342 341/341/341 340/340/340
f 343/343/343 342/342/342 340/340/340
f 346/346/346 345/345/345 344/344/344
f 347/347/347 346/346/346 344/344/344
f 350/350/350 349/349/349 348/348/348
f 351/351/351 350/350/350 348/348/348
f 354/354/354 353/353/353 352/352/352
f 355/355/355 354/354/354 352/352/352
f 358/358/358 357/357/357 356/356/356
f 359/359/359 358/358/358 356/356/356
f 360/360/360 358/358/358 359/359/359
f 361/361/361 360/360/360 359/359/359
f 364/364/364 363/363/363 362/362/362
f 365/365/365 364/364/364 362/362/362
f 368/368/368 367/367/367 366/366/366
f 369/369/369 368/368/368 366/366/366
f 372/372/372 371/371/371 370/370/370
f 371/371/371 373/373/373 370/370/370
f 370/370/370 373/373/373 374/374/374
f 373/373/373 375/375/375 374/374/374
f 374/374/374 375/375/375 376/376/376
f 375/375/375 377/377/377 376/376/376
f 380/380/380 379/379/379 378/378/378
f 381/381/381 380/380/380 378/378/378
f 384/384/384 383/383/383 382/382/382
f 385/385/385 384/384/384 382/382/382
f 386/386/386 384/384/384 385/385/385
f 387/387/387 386/386/386 385/385/385
f 388/388/388 386/386/386 387/387/387
f 389/389/389 388/388/388 387/387/387
f 392/392/392 391/391/391 390/390/390
f 393/393/393 392/392/392 390/390/390
f 396/396/396 395/395/395 394/394/394
f 395/395/395 397/397/397 394/394/394
f 394/394/394 397/397/397 398/398/398
f 397/397/397 399/399/399 398/398/398
f 398/398/398 399/399/399 400/400/400
f 399/399/399 401/401/401 400/400/400
f 404/404/404 403/403/403 402/402/402
f 405/405/405 404/404/404 402/402/402
f 408/408/408 407/407/407 406/406/406
f 409/409/409 408/408/408 406/406/406
f 407/407/407 408/408/408 410/410/410
f 408/408/408 409/409/409 411/411/411
f 408/408/408 412/412/412 410/410/410
f 411/411/411 412/412/412 408/408/408
f 415/415/415 414/414/414 413/413/413
f 413/413/413 414/414/414 416/416/416
f 413/413/413 417/417/417 415/415/415
f 418/418/418 413/413/413 416/416/416
f 417/417/417 413/413/413 419/419/419
f 413/413/413 418/418/418 419/419/419
f 422/422/422 421/421/421 420/420/420
f 421/421/421 423/423/423 420/420/420
f 421/421/421 422/422/422 424/424/424
f 421/421/421 425/425/425 423/423/423
f 424/424/424 426/426/426 421/421/421
f 421/421/421 426/426/426 425/425/425
f 429/429/429 428/428/428 427/427/427
f 429/429/429 427/427/427 430/430/430
f 431/431/431 427/427/427 428/428/428
f 427/427/427 432/432/432 430/430/430
f 427/427/427 431/431/431 433/433/433
f 433/433/433 432/432/432 427/427/427
f 436/436/436 435/435/435 434/434/434
f 436/436/436 434/434/434 437/437/437
f 438/438/438 435/435/435 436/436/436
f 436/436/436 437/437/437 439/439/439
f 436/436/436 440/440/440 438/438/438
f 440/440/440 436/436/436 439/439/439
f 443/443/443 442/442/442 441/441/441
f 442/442/442 444/444/444 441/441/441
f 445/445/445 442/442/442 443/443/443
f 441/441/441 444/444/444 446/446/446
f 447/447/447 445/445/445 443/443/443
f 444/444/444 448/448/448 446/446/446
f 449/449/449 445/445/445 447/447/447
f 446/446/446 448/448/448 450/450/450
f 451/451/451 449/449/449 447/447/447
f 448/448/448 452/452/452 450/450/450
f 453/453/453 449/449/449 451/451/451
f 450/450/450 452/452/452 454/454/454
f 455/455/455 453/453/453 451/451/451
f 452/452/452 456/456/456 454/454/454
f 456/456/456 453/453/453 455/455/455
f 454/454/454 456/456/456 455/455/455
f 459/459/459 458/458/458 457/457/457
f 458/458/458 460/460/460 457/457/457
f 461/461/461 458/458/458 459/459/459
f 457/457/457 460/460/460 462/462/462
f 463/463/463 461/461/461 459/459/459
f 460/460/460 464/464/464 462/462/462
f 465/465/465 461/461/461 463/463/463
f 462/462/462 464/464/464 466/466/466
f 467/467/467 465/465/465 463/463/463
f 464/464/464 468/468/468 466/466/466
f 469/469/469 465/465/465 467/467/467
f 466/466/466 468/468/468 470/470/470
f 471/471/471 469/469/469 467/467/467
f 468/468/468 472/472/472 470/470/470
f 472/472/472 469/469/469 471/471/471
f 470/470/470 472/472/472 471/471/471
f 475/475/475 474/474/474 473/473/473
f 474/474/474 476/476/476 473/473/473
f 477/477/477 474/474/474 475/475/475
f 473/473/473 476/476/476 478/478/478
f 479/479/479 477/477/477 475/475/475
f 476/476/476 480/480/480 478/478/478
f 481/481/481 477/477/477 479/479/479
f 478/478/478 480/480/480 482/482/482
f 483/483/483 481/481/481 479/479/479
f 480/480/480 484/484/484 482/482/482
f 485/485/485 481/481/481 483/483/483
f 482/482/482 484/484/484 486/486/486
f 487/487/487 485/485/485 483/483/483
f 484/484/484 488/488/488 486/486/486
f 488/488/488 485/485/485 487/487/487
f 486/486/486 488/488/488 487/487/487
f 491/491/491 490/490/490 489/489/489
f 490/490/490 492/492/492 489/489/489
f 493/493/493 490/490/490 491/491/491
f 489/489/489 492/492/492 494/494/494
f 495/495/495 493/493/493 491/491/491
f 492/492/492 496/496/496 494/494/494
f 497/497/497 493/493/493 495/495/495
f 494/494/494 496/496/496 498/498/498
f 499/499/499 497/497/497 495/495/495
f 496/496/496 500/500/500 498/498/498
f 501/501/501 497/497/497 499/499/499
f 498/498/498 500/500/500 502/502/502
f 503/503/503 501/501/501 499/499/499
f 500/500/500 504/504/504 502/502/502
f 504/504/504 501/501/501 503/503/503
f 502/502/502 504/504/504 503/503/503
f 507/507/507 506/506/506 505/505/505
f 508/508/508 507/507/507 505/505/505
f 505/505/505 506/506/506 509/509/509
f 510/510/510 507/507/507 508/508/508
f 506/506/506 511/511/511 509/509/509
f 512/512/512 510/510/510 508/508/508
f 509/509/509 511/511/511 513/513/513
f 514/514/514 510/510/510 512/512/512
f 511/511/511 515/515/515 513/513/513
f 516/516/516 514/514/514 512/512/512
f 513/513/513 515/515/515 517/517/517
f 518/518/518 514/514/514 516/516/516
f 515/515/515 519/519/519 517/517/517
f 520/520/520 518/518/518 516/516/516
f 517/517/517 519/519/519 520/520/520
f 519/519/519 518/518/518 520/520/520
