g BRAMP_3_R1_NoEdge
v -0.5 -0.5 -0.5
v 0.5 -0.5 -0.5
v 0.5 -0.376607805 -0.5
v -0.5 -0.376607805 -0.5
v -0.5 -0.123916171 -0.5
v 0.5 0.122307077 -0.5
v 0.5 0.25 -0.5
v -0.5 0 -0.5
v -0.5 -0.5 0.5
v 0.5 -0.5 0.5
v 0.5 -0.5 -0.5
v -0.5 -0.5 -0.5
v -0.5 0 -0.5
v 0.5 0.25 -0.5
v 0.5 0.25 0.5
v -0.5 0 0.5
v 0.5 -0.5 0.5
v -0.5 -0.5 0.5
v -0.5 -0.376607805 0.5
v 0.5 -0.376607805 0.5
v 0.5 0.122307077 0.5
v -0.5 -0.123916171 0.5
v -0.5 0 0.5
v 0.5 0.25 0.5
v -0.5 -0.123916171 -0.5
v -0.5 -0.376607805 -0.5
v 0.5 -0.376607805 -0.5
v 0.5 0.122307077 -0.5
v 0.5 0.122307077 0.5
v 0.5 -0.376607805 0.5
v -0.5 -0.376607805 0.5
v -0.5 -0.123916171 0.5
v -0.5 0 0.5
v -0.5 -0.123916171 0.5
v -0.5 -0.123916171 -0.5
v -0.5 0 -0.5
v 0.5 0.122307077 -0.5
v 0.5 -0.376607805 -0.5
v 0.5 -0.376607805 0.5
v 0.5 0.122307077 0.5
v -0.5 -0.123916171 0.5
v -0.5 -0.376607805 0.5
v -0.5 -0.376607805 -0.5
v -0.5 -0.123916171 -0.5
v -0.5 -0.376607805 0.5
v -0.5 -0.5 0.5
v -0.5 -0.5 -0.5
v -0.5 -0.376607805 -0.5
v 0.5 -0.376607805 -0.5
v 0.5 -0.5 -0.5
v 0.5 -0.5 0.5
v 0.5 -0.376607805 0.5
v 0.5 0.25 -0.5
v 0.5 0.122307077 -0.5
v 0.5 0.122307077 0.5
v 0.5 0.25 0.5
vt 0.988374293 0.242906079
vt 0.988367856 0.66066277
vt 0.926864982 0.660664618
vt 0.926869988 0.242906407
vt 0.988646507 0.662272513
vt 0.988641262 0.242903948
vt 0.926862955 0.242904395
vt 0.927678823 0.662272751
vt 0.956966102 0.046283491
vt 0.956966102 0.04831516
vt 0.961029351 0.04831516
vt 0.961029351 0.046283491
vt 0.956966341 0.0462835059
vt 0.956966341 0.04831516
vt 0.961029351 0.0483151563
vt 0.961029232 0.0462834798
vt 0.988375187 0.242906943
vt 0.988368869 0.660665333
vt 0.926863432 0.660664737
vt 0.926869392 0.242906898
vt 0.988647223 0.662272274
vt 0.988642573 0.242903277
vt 0.927780867 0.242904544
vt 0.926977396 0.662273049
vt 0.84415257 0.0485278368
vt 0.844153285 0.0515522026
vt 0.847176552 0.0515521467
vt 0.847176552 0.0485278033
vt 0.844153047 0.048527766
vt 0.844152868 0.0515521467
vt 0.847177207 0.0515521131
vt 0.847177327 0.0485276915
vt 0.987248659 0.609103322
vt 0.927504241 0.609103084
vt 0.927504241 0.298891813
vt 0.98724252 0.298891306
vt 0.861639977 0.076066412
vt 0.861637592 0.08659181
vt 0.880347967 0.0865919814
vt 0.88034904 0.0760664046
vt 0.861639082 0.0760671422
vt 0.86163938 0.0865904167
vt 0.880348146 0.086590521
vt 0.880347729 0.0760671273
vt 0.987245142 0.609103084
vt 0.927505493 0.609104812
vt 0.927504003 0.298890859
vt 0.987245142 0.298891366
vt 0.987245142 0.298891366
vt 0.92750442 0.298891425
vt 0.927503109 0.609101892
vt 0.987245142 0.609103084
vt 0.987242818 0.298891366
vt 0.927504241 0.298891604
vt 0.927504241 0.609103084
vt 0.987245739 0.609104812
vn -0 0 -1
vn -0 0 -1
vn -0 0 -1
vn -0 0 -1
vn -0 0 -1
vn -0 0 -1
vn -0 0 -1
vn -0 0 -1
vn -0 -1 0
vn -0 -1 0
vn -0 -1 0
vn -0 -1 0
vn -0 1 0
vn -0 1 0
vn -0 1 0
vn -0 1 0
vn -0 0 1
vn -0 0 1
vn -0 0 1
vn -0 0 1
vn -0 0 1
vn -0 0 1
vn -0 0 1
vn -0 0 1
vn -0 0 -1
vn -0 0 -1
vn -0 0 -1
vn -0 0 -1
vn -0 0 1
vn -0 0 1
vn -0 0 1
vn -0 0 1
vn -1 -1.62337329E-07 0
vn -1 0 0
vn -1 0 0
vn -1 -1.62337344E-07 0
vn 1 0 0
vn 1 0 0
vn 1 0 0
vn 1 0 0
vn -1 0 0
vn -1 0 0
vn -1 0 0
vn -1 0 0
vn -1 0 0
vn -1 1.62337329E-07 0
vn -1 1.62337344E-07 0
vn -1 0 0
vn 1 0 0
vn 1 0 0
vn 1 0 0
vn 1 0 0
vn 1 0 0
vn 1 0 0
vn 1 0 0
vn 1 0 0
g BRAMP_3_R1_NoEdge_0
f 3/3/3 2/2/2 1/1/1
f 4/4/4 3/3/3 1/1/1
f 7/7/7 6/6/6 5/5/5
f 8/8/8 7/7/7 5/5/5
f 11/11/11 10/10/10 9/9/9
f 12/12/12 11/11/11 9/9/9
f 15/15/15 14/14/14 13/13/13
f 16/16/16 15/15/15 13/13/13
f 19/19/19 18/18/18 17/17/17
f 20/20/20 19/19/19 17/17/17
f 23/23/23 22/22/22 21/21/21
f 24/24/24 23/23/23 21/21/21
f 27/27/27 26/26/26 25/25/25
f 28/28/28 27/27/27 25/25/25
f 31/31/31 30/30/30 29/29/29
f 32/32/32 31/31/31 29/29/29
f 35/35/35 34/34/34 33/33/33
f 36/36/36 35/35/35 33/33/33
f 39/39/39 38/38/38 37/37/37
f 40/40/40 39/39/39 37/37/37
f 43/43/43 42/42/42 41/41/41
f 44/44/44 43/43/43 41/41/41
f 47/47/47 46/46/46 45/45/45
f 48/48/48 47/47/47 45/45/45
f 51/51/51 50/50/50 49/49/49
f 52/52/52 51/51/51 49/49/49
f 55/55/55 54/54/54 53/53/53
f 56/56/56 55/55/55 53/53/53
