g BRAMP_4_R1_NoEdge
v -0.5 0.25 -0.5
v 0.369885862 0.46747148 -0.5
v 0.371403188 0.467850715 -0.375002444
v 0.36869812 0.46717447 0.5
v -0.5 0.25 0.5
v 0.368073106 0.467018217 0.375001222
v -0.5 -0.5 -0.5
v 0.369340211 -0.5 -0.375002444
v 0.368094474 -0.5 -0.5
v 0.371583253 -0.49999994 0.375001818
v -0.5 -0.5 0.5
v 0.365350932 -0.5 0.5
v 0.5 -0.5 -0.5
v 0.5 -0.376607805 -0.5
v 0.371494144 -0.376607805 -0.5
v 0.368094474 -0.5 -0.5
v -0.5 -0.5 -0.5
v -0.5 -0.376607805 -0.5
v 0.367850929 0.339045644 -0.5
v 0.5 0.378124982 -0.5
v 0.5 0.5 -0.5
v 0.369885862 0.46747148 -0.5
v -0.5 0.122307077 -0.5
v -0.5 0.25 -0.5
v 0.369340211 -0.5 -0.375002444
v 0.5 -0.5 -0.5
v 0.368094474 -0.5 -0.5
v 0.5 -0.5 -0.37500304
v -0.5 -0.5 0.5
v 0.371583253 -0.49999994 0.375001818
v 0.369340211 -0.5 -0.375002444
v -0.5 -0.5 -0.5
v -0.5 0.25 -0.5
v 0.371403188 0.467850715 -0.375002444
v 0.368073106 0.467018217 0.375001222
v -0.5 0.25 0.5
v 0.5 -0.5 0.5
v 0.363179922 -0.376607805 0.5
v 0.5 -0.376607805 0.5
v 0.365350932 -0.5 0.5
v -0.5 -0.376607805 0.5
v -0.5 -0.5 0.5
v 0.5 0.378124982 0.5
v 0.366900623 0.338836372 0.5
v 0.5 0.5 0.5
v 0.36869812 0.46717447 0.5
v -0.5 0.25 0.5
v -0.5 0.122307077 0.5
v 0.371583253 -0.49999994 0.375001818
v 0.365350932 -0.5 0.5
v 0.5 -0.5 0.5
v 0.5 -0.5 0.375001222
v 0.5 0.5 0.5
v 0.36869812 0.46717447 0.5
v 0.368073106 0.467018217 0.375001222
v 0.5 0.5 0.375001222
v 0.371494144 -0.376607805 -0.5
v 0.5 -0.376607805 -0.5
v 0.5 0.378124982 -0.5
v 0.367850929 0.339045644 -0.5
v 0.5 0.378124982 0.5
v 0.5 -0.376607805 0.5
v 0.363179922 -0.376607805 0.5
v 0.366900623 0.338836372 0.5
v -0.5 0.25 0.5
v -0.5 0.122307077 0.5
v -0.5 0.122307077 -0.5
v -0.5 0.25 -0.5
v 0.5 0.378124982 -0.5
v 0.5 -0.376607805 -0.5
v 0.5 -0.376607805 -0.37500304
v 0.5 0.378124982 -0.37500304
v -0.5 0.122307077 0.5
v -0.5 -0.376607805 0.5
v -0.5 -0.376607805 -0.5
v -0.5 0.122307077 -0.5
v -0.5 -0.376607805 0.5
v -0.5 -0.5 0.5
v -0.5 -0.5 -0.5
v -0.5 -0.376607805 -0.5
v 0.5 -0.376607805 -0.5
v 0.5 -0.5 -0.5
v 0.5 -0.5 -0.37500304
v 0.5 -0.376607805 -0.37500304
v 0.5 -0.376607805 0.375001222
v 0.5 -0.5 0.375001222
v 0.5 -0.376607805 0.5
v 0.5 -0.5 0.5
v 0.5 0.5 -0.37500304
v 0.5 0.5 -0.5
v 0.5 0.378124982 -0.5
v 0.5 0.378124982 -0.37500304
v 0.5 0.378124982 0.375001222
v 0.5 0.5 0.375001222
v 0.5 0.5 0.5
v 0.5 0.378124982 0.5
v 0.371403188 0.467850715 -0.375002444
v 0.5 0.5 -0.37500304
v 0.5 0.5 0.375001222
v 0.368073106 0.467018217 0.375001222
v 0.5 0.5 -0.5
v 0.5 0.5 -0.37500304
v 0.371403188 0.467850715 -0.375002444
v 0.369885862 0.46747148 -0.5
v 0.363179922 -0.376607805 0.5
v -0.5 -0.376607805 0.5
v -0.5 0.122307077 0.5
v 0.366900623 0.338836372 0.5
v 0.5 -0.376607805 0.375001222
v 0.5 -0.376607805 0.5
v 0.5 0.378124982 0.5
v 0.5 0.378124982 0.375001222
v 0.5 -0.376607805 -0.37500304
v 0.5 -0.376607805 0.375001222
v 0.5 0.378124982 0.375001222
v 0.5 0.378124982 -0.37500304
v -0.5 0.122307077 -0.5
v -0.5 -0.376607805 -0.5
v 0.371494144 -0.376607805 -0.5
v 0.367850929 0.339045644 -0.5
v 0.371583253 -0.49999994 0.375001818
v 0.5 -0.5 0.375001222
v 0.5 -0.5 -0.37500304
v 0.369340211 -0.5 -0.375002444
vt 0.949895799 0.0620346628
vt 0.967703223 0.0620346665
vt 0.967734337 0.0594758689
vt 0.956022024 0.080273062
vt 0.955299318 0.080273062
vt 0.956021428 0.0803771019
vt 0.949896038 0.0620346628
vt 0.967692018 0.0594758689
vt 0.967666626 0.0620346665
vt 0.956024408 0.0803771019
vt 0.955299139 0.080273062
vt 0.956019163 0.080273062
vt 0.988374352 0.660664618
vt 0.926864982 0.660664618
vt 0.926865458 0.606980205
vt 0.988374949 0.605560184
vt 0.988376915 0.242906615
vt 0.926869988 0.242906407
vt 0.988641858 0.298323035
vt 0.988641262 0.242903948
vt 0.927313447 0.242903605
vt 0.927314281 0.297469348
vt 0.988646507 0.662272513
vt 0.92734468 0.662270248
vt 0.92551142 0.297821432
vt 0.868222356 0.242944673
vt 0.868200362 0.298325032
vt 0.925532997 0.242963776
vt 0.956966102 0.046283491
vt 0.957473934 0.0480542555
vt 0.96052146 0.0480497032
vt 0.961029351 0.046283491
vt 0.956965983 0.0462834649
vt 0.957473993 0.0480538942
vt 0.96052146 0.0480471253
vt 0.961029172 0.0462834723
vt 0.988379002 0.242907092
vt 0.926868677 0.300064474
vt 0.926869392 0.242906898
vt 0.988378167 0.299157739
vt 0.926863432 0.660664737
vt 0.988376498 0.66066426
vt 0.988647223 0.662272274
vt 0.988646626 0.606454253
vt 0.927319169 0.662272513
vt 0.927318454 0.60720849
vt 0.927335739 0.242900953
vt 0.988642573 0.242903277
vt 0.925388634 0.608898222
vt 0.868077874 0.606262803
vt 0.868055463 0.662795305
vt 0.925367415 0.6628142
vt 0.868250489 0.242980376
vt 0.868224621 0.29810524
vt 0.925526738 0.298404932
vt 0.925553083 0.243017361
vt 0.988419771 0.314448923
vt 0.927996039 0.314448923
vt 0.927996039 0.489169627
vt 0.988419652 0.481856257
vt 0.927996039 0.489169627
vt 0.927996039 0.314448923
vt 0.988419771 0.314448923
vt 0.988419652 0.481803745
vt 0.987240672 0.60910368
vt 0.927504241 0.609103084
vt 0.927504241 0.298891604
vt 0.987241745 0.298890948
vt 0.867620409 0.294689715
vt 0.86762023 0.488040209
vt 0.924578071 0.488040209
vt 0.924578071 0.294690013
vt 0.861639082 0.0760671422
vt 0.86163938 0.0865904167
vt 0.880348146 0.086590521
vt 0.880347729 0.0760671273
vt 0.987245142 0.609103084
vt 0.927506208 0.609105945
vt 0.927506804 0.29889223
vt 0.987245142 0.298891366
vt 0.988357306 0.316881299
vt 0.925314426 0.316881299
vt 0.925314426 0.351022482
vt 0.988357186 0.351022124
vt 0.988356709 0.55587405
vt 0.925314426 0.555876553
vt 0.988357306 0.590018332
vt 0.925314426 0.590018332
vt 0.988369823 0.350935847
vt 0.988369823 0.317046613
vt 0.928580165 0.317046613
vt 0.928580284 0.350935757
vt 0.928581595 0.554277301
vt 0.988369823 0.554278016
vt 0.988369823 0.588167846
vt 0.928580165 0.588167846
vt 0.986646593 0.334812343
vt 0.928111613 0.334811985
vt 0.928111613 0.570793688
vt 0.986646712 0.570793808
vt 0.868053794 0.662811399
vt 0.925353765 0.662853301
vt 0.925379395 0.608863831
vt 0.868079424 0.608185351
vt 0.844566643 0.0515521429
vt 0.847177207 0.0515521131
vt 0.847177327 0.0485276915
vt 0.844555616 0.0485277548
vt 0.867735088 0.488040209
vt 0.922398925 0.488040209
vt 0.922399044 0.294690013
vt 0.867735505 0.294689655
vt 0.863977313 0.0865919143
vt 0.878016174 0.0865925178
vt 0.878017664 0.0760670006
vt 0.863979578 0.076066494
vt 0.84415257 0.0485278368
vt 0.844153285 0.0515522026
vt 0.846788049 0.0515521541
vt 0.846776962 0.048527807
vt 0.986646593 0.334811866
vt 0.928392947 0.334812343
vt 0.928392589 0.570793748
vt 0.986646712 0.570793808
vn -0 1 0
vn -0.242533848 0.970142961 7.59500267E-07
vn -0.242534414 0.970142841 7.47360787E-07
vn -0.242537051 0.970142066 3.78638561E-07
vn -0 1 0
vn -0.242537022 0.970142186 3.74449399E-07
vn -0 -1 0
vn -0 -1 0
vn -0 -1 0
vn -0 -1 -7.65825177E-07
vn -0 -1 0
vn -0 -1 -7.8778254E-07
vn -0 0 -1
vn -0 0 -1
vn -0 0 -1
vn -0 0 -1
vn -0 0 -1
vn -0 0 -1
vn -1.70718579E-07 0 -1
vn -0 0 -1
vn -0 0 -1
vn -1.11299403E-06 0 -1
vn -0 0 -1
vn -0 0 -1
vn -0 -1 0
vn -0 -1 0
vn -0 -1 0
vn -0 -1 0
vn -0 -1 0
vn -0 -1 0
vn -0 -1 0
vn -0 -1 0
vn -0 1 0
vn -0.242535725 0.970142543 0
vn -0.242535725 0.970142543 0
vn -0 1 0
vn -0 0 1
vn -0 0 1
vn -0 0 1
vn -0 0 1
vn -0 0 1
vn -0 0 1
vn -0 0 1
vn -7.69408018E-07 0 1
vn -0 0 1
vn -7.96491065E-07 0 1
vn -0 0 1
vn -0 0 1
vn -0 -1 -7.65825177E-07
vn -0 -1 -7.8778254E-07
vn -0 -1 0
vn -0 -1 0
vn -0 1 0
vn -0.242537051 0.970142066 3.78638561E-07
vn -0.242537022 0.970142186 3.74449399E-07
vn -0 1 0
vn -0 0 -1
vn -0 0 -1
vn -0 0 -1
vn -0 0 -1
vn -0 0 1
vn -0 0 1
vn -0 0 1
vn -0 0 1
vn -1 -1.62337329E-07 0
vn -1 0 0
vn -1 0 0
vn -1 -1.62337344E-07 0
vn 1 0 0
vn 1 0 0
vn 1 0 0
vn 1 0 0
vn -1 0 0
vn -1 0 0
vn -1 0 0
vn -1 0 0
vn -1 0 0
vn -1 1.62337329E-07 0
vn -1 1.62337344E-07 0
vn -1 0 0
vn 1 0 0
vn 1 0 0
vn 1 0 0
vn 1 0 0
vn 1 0 0
vn 1 0 0
vn 1 0 0
vn 1 0 0
vn 1 0 0
vn 1 0 0
vn 1 0 0
vn 1 0 0
vn 1 0 0
vn 1 0 0
vn 1 0 0
vn 1 0 0
vn -0.242535725 0.970142543 0
vn -0 1 0
vn -0 1 0
vn -0.242535725 0.970142543 0
vn -0 1 0
vn -0 1 0
vn -0.242534414 0.970142841 7.47360787E-07
vn -0.242533848 0.970142961 7.59500267E-07
vn -0 0 1
vn -0 0 1
vn -0 0 1
vn -0 0 1
vn 1 0 0
vn 1 0 0
vn 1 0 0
vn 1 0 0
vn 1 0 0
vn 1 0 0
vn 1 0 0
vn 1 0 0
vn -0 0 -1
vn -0 0 -1
vn -0 0 -1
vn -0 0 -1
vn -0 -1 0
vn -0 -1 0
vn -0 -1 0
vn -0 -1 0
g BRAMP_4_R1_NoEdge_0
f 3/3/3 2/2/2 1/1/1
f 6/6/6 5/5/5 4/4/4
f 9/9/9 8/8/8 7/7/7
f 12/12/12 11/11/11 10/10/10
f 15/15/15 14/14/14 13/13/13
f 15/15/15 13/13/13 16/16/16
f 15/15/15 16/16/16 17/17/17
f 18/18/18 15/15/15 17/17/17
f 21/21/21 20/20/20 19/19/19
f 22/22/22 21/21/21 19/19/19
f 22/22/22 19/19/19 23/23/23
f 24/24/24 22/22/22 23/23/23
f 27/27/27 26/26/26 25/25/25
f 26/26/26 28/28/28 25/25/25
f 31/31/31 30/30/30 29/29/29
f 32/32/32 31/31/31 29/29/29
f 35/35/35 34/34/34 33/33/33
f 36/36/36 35/35/35 33/33/33
f 39/39/39 38/38/38 37/37/37
f 38/38/38 40/40/40 37/37/37
f 38/38/38 41/41/41 40/40/40
f 41/41/41 42/42/42 40/40/40
f 45/45/45 44/44/44 43/43/43
f 45/45/45 46/46/46 44/44/44
f 46/46/46 47/47/47 44/44/44
f 47/47/47 48/48/48 44/44/44
f 51/51/51 50/50/50 49/49/49
f 51/51/51 49/49/49 52/52/52
f 55/55/55 54/54/54 53/53/53
f 56/56/56 55/55/55 53/53/53
f 59/59/59 58/58/58 57/57/57
f 60/60/60 59/59/59 57/57/57
f 63/63/63 62/62/62 61/61/61
f 64/64/64 63/63/63 61/61/61
f 67/67/67 66/66/66 65/65/65
f 68/68/68 67/67/67 65/65/65
f 71/71/71 70/70/70 69/69/69
f 72/72/72 71/71/71 69/69/69
f 75/75/75 74/74/74 73/73/73
f 76/76/76 75/75/75 73/73/73
f 79/79/79 78/78/78 77/77/77
f 80/80/80 79/79/79 77/77/77
f 83/83/83 82/82/82 81/81/81
f 84/84/84 83/83/83 81/81/81
f 84/84/84 85/85/85 83/83/83
f 85/85/85 86/86/86 83/83/83
f 85/85/85 87/87/87 86/86/86
f 87/87/87 88/88/88 86/86/86
f 91/91/91 90/90/90 89/89/89
f 92/92/92 91/91/91 89/89/89
f 92/92/92 89/89/89 93/93/93
f 89/89/89 94/94/94 93/93/93
f 94/94/94 95/95/95 93/93/93
f 95/95/95 96/96/96 93/93/93
f 99/99/99 98/98/98 97/97/97
f 100/100/100 99/99/99 97/97/97
f 103/103/103 102/102/102 101/101/101
f 103/103/103 101/101/101 104/104/104
f 107/107/107 106/106/106 105/105/105
f 108/108/108 107/107/107 105/105/105
f 111/111/111 110/110/110 109/109/109
f 112/112/112 111/111/111 109/109/109
f 115/115/115 114/114/114 113/113/113
f 116/116/116 115/115/115 113/113/113
f 119/119/119 118/118/118 117/117/117
f 120/120/120 119/119/119 117/117/117
f 123/123/123 122/122/122 121/121/121
f 124/124/124 123/123/123 121/121/121
