g BRAMP_2_R1_NoEdge
v -0.5 -0.376607835 -0.5
v 0.5 -0.376607805 -0.5
v 0.5 -0.123916171 -0.5
v 0.5 -0.123916171 0.5
v 0.5 -0.376607805 0.5
v -0.5 -0.376607835 0.5
v -0.5 -0.5 -0.5
v 0.5 -0.5 -0.5
v 0.5 -0.376607805 -0.5
v -0.5 -0.376607835 -0.5
v -0.5 -0.376607835 -0.5
v 0.5 -0.123916171 -0.5
v 0.5 0 -0.5
v -0.5 -0.25 -0.5
v -0.5 -0.5 0.5
v 0.5 -0.5 0.5
v 0.5 -0.5 -0.5
v -0.5 -0.5 -0.5
v -0.5 -0.25 -0.5
v 0.5 0 -0.5
v 0.5 0 0.5
v -0.5 -0.25 0.5
v 0.5 -0.5 0.5
v -0.5 -0.5 0.5
v -0.5 -0.376607835 0.5
v 0.5 -0.376607805 0.5
v 0.5 -0.123916171 0.5
v -0.5 -0.376607835 0.5
v -0.5 -0.25 0.5
v 0.5 0 0.5
v -0.5 -0.25 0.5
v -0.5 -0.376607835 0.5
v -0.5 -0.376607835 -0.5
v -0.5 -0.25 -0.5
v 0.5 -0.123916171 -0.5
v 0.5 -0.376607805 -0.5
v 0.5 -0.376607805 0.5
v 0.5 -0.123916171 0.5
v -0.5 -0.376607835 0.5
v -0.5 -0.5 0.5
v -0.5 -0.5 -0.5
v -0.5 -0.376607835 -0.5
v 0.5 -0.376607805 -0.5
v 0.5 -0.5 -0.5
v 0.5 -0.5 0.5
v 0.5 -0.376607805 0.5
v 0.5 0 -0.5
v 0.5 -0.123916171 -0.5
v 0.5 -0.123916171 0.5
v 0.5 0 0.5
vt 0.844152927 0.0500400215
vt 0.847176552 0.0515521467
vt 0.847176552 0.0485278033
vt 0.844153047 0.048527766
vt 0.844152868 0.0515521467
vt 0.847177267 0.0500399023
vt 0.988382578 0.242908388
vt 0.988382876 0.660665154
vt 0.926864982 0.660664618
vt 0.926869988 0.242906407
vt 0.988646507 0.662272513
vt 0.988641143 0.245211512
vt 0.927559853 0.245212764
vt 0.926990986 0.662272394
vt 0.956966102 0.046283491
vt 0.956966102 0.04831516
vt 0.961029351 0.04831516
vt 0.961029351 0.046283491
vt 0.956966281 0.0462834872
vt 0.956965983 0.0483151563
vt 0.961029351 0.04831516
vt 0.961029291 0.0462834835
vt 0.988379896 0.242905393
vt 0.988376319 0.660663962
vt 0.926863432 0.660664737
vt 0.926869392 0.242906898
vt 0.988647223 0.662272274
vt 0.988642573 0.245210841
vt 0.926988065 0.245211855
vt 0.927568018 0.662273347
vt 0.987246871 0.609104037
vt 0.927504241 0.609103084
vt 0.927504241 0.298891306
vt 0.987246037 0.298891187
vt 0.861639977 0.076066412
vt 0.861637592 0.08659181
vt 0.880347967 0.0865919814
vt 0.88034904 0.0760664046
vt 0.987245142 0.609102964
vt 0.927504361 0.60910213
vt 0.927502155 0.298891246
vt 0.987245142 0.298891366
vt 0.987245142 0.298891366
vt 0.927505136 0.298891366
vt 0.927503467 0.609101593
vt 0.987245142 0.609103203
vt 0.987247705 0.298891723
vt 0.927504241 0.298891515
vt 0.927504241 0.609103203
vt 0.987247288 0.609104514
vn -0 0 -1
vn -0 0 -1
vn -0 0 -1
vn -0 0 1
vn -0 0 1
vn -0 0 1
vn -0 0 -1
vn -0 0 -1
vn -0 0 -1
vn -0 0 -1
vn -0 0 -1
vn -0 0 -1
vn -0 0 -1
vn -0 0 -1
vn -0 -1 0
vn -0 -1 0
vn -0 -1 0
vn -0 -1 0
vn -0 1 0
vn -0 1 0
vn -0 1 0
vn -0 1 0
vn -0 0 1
vn -0 0 1
vn -0 0 1
vn -0 0 1
vn -0 0 1
vn -0 0 1
vn -0 0 1
vn -0 0 1
vn -1 -1.62337329E-07 0
vn -1 0 0
vn -1 0 0
vn -1 -1.62337344E-07 0
vn 1 0 0
vn 1 0 0
vn 1 0 0
vn 1 0 0
vn -1 0 0
vn -1 1.62337329E-07 0
vn -1 1.62337344E-07 0
vn -1 0 0
vn 1 0 0
vn 1 0 0
vn 1 0 0
vn 1 0 0
vn 1 0 0
vn 1 0 0
vn 1 0 0
vn 1 0 0
g BRAMP_2_R1_NoEdge_0
f 3/3/3 2/2/2 1/1/1
f 6/6/6 5/5/5 4/4/4
f 9/9/9 8/8/8 7/7/7
f 10/10/10 9/9/9 7/7/7
f 13/13/13 12/12/12 11/11/11
f 14/14/14 13/13/13 11/11/11
f 17/17/17 16/16/16 15/15/15
f 18/18/18 17/17/17 15/15/15
f 21/21/21 20/20/20 19/19/19
f 22/22/22 21/21/21 19/19/19
f 25/25/25 24/24/24 23/23/23
f 26/26/26 25/25/25 23/23/23
f 29/29/29 28/28/28 27/27/27
f 30/30/30 29/29/29 27/27/27
f 33/33/33 32/32/32 31/31/31
f 34/34/34 33/33/33 31/31/31
f 37/37/37 36/36/36 35/35/35
f 38/38/38 37/37/37 35/35/35
f 41/41/41 40/40/40 39/39/39
f 42/42/42 41/41/41 39/39/39
f 45/45/45 44/44/44 43/43/43
f 46/46/46 45/45/45 43/43/43
f 49/49/49 48/48/48 47/47/47
f 50/50/50 49/49/49 47/47/47
